<?xml version="1.0" encoding="UTF-8" standalone="no"?>
<!-- Created with Inkscape (http://www.inkscape.org/) -->

<svg
   width="42.073063mm"
   height="38.202682mm"
   viewBox="0 0 42.073063 38.202682"
   version="1.1"
   id="svg5"
   xml:space="preserve"
   inkscape:version="1.2.2 (732a01da63, 2022-12-09)"
   sodipodi:docname="acaule-natural_low.svg"
   xmlns:inkscape="http://www.inkscape.org/namespaces/inkscape"
   xmlns:sodipodi="http://sodipodi.sourceforge.net/DTD/sodipodi-0.dtd"
   xmlns="http://www.w3.org/2000/svg"
   xmlns:svg="http://www.w3.org/2000/svg"><sodipodi:namedview
     id="namedview7"
     pagecolor="#ffffff"
     bordercolor="#666666"
     borderopacity="1.0"
     inkscape:showpageshadow="2"
     inkscape:pageopacity="0.0"
     inkscape:pagecheckerboard="0"
     inkscape:deskcolor="#d1d1d1"
     inkscape:document-units="mm"
     showgrid="false"
     inkscape:zoom="4.4346944"
     inkscape:cx="109.92866"
     inkscape:cy="46.451905"
     inkscape:window-width="2560"
     inkscape:window-height="1369"
     inkscape:window-x="-8"
     inkscape:window-y="-8"
     inkscape:window-maximized="1"
     inkscape:current-layer="layer1" /><defs
     id="defs2" /><g
     inkscape:label="Calque 1"
     inkscape:groupmode="layer"
     id="layer1"
     transform="translate(-27.830192,-174.07156)"><g
       id="g302"
       transform="translate(-47.25,3.375)"><path
         style="fill:#94ada9;stroke-width:0.264583"
         d="m 82.924187,208.63541 c -1.019828,-2.30108 0.08141,-4.88601 1.098736,-7.00046 0.862921,-1.43511 2.115813,-3.86348 4.099041,-3.2188 1.252651,0.43235 2.115813,-2.59805 3.438142,-0.64113 0.479745,0.63985 2.916582,2.41062 1.345199,0.73573 -1.131725,-1.46415 -3.550466,-2.51052 -4.292396,-0.16196 -1.697174,-1.20499 -3.56329,0.40691 -4.356654,1.91149 -1.936559,1.40997 -4.17016,-0.95924 -5.432524,-2.30912 -1.325124,-1.6251 -2.587463,-3.74056 -2.252008,-5.88008 1.593178,1.12913 3.214948,2.5601 5.26405,2.92733 1.348826,0.27457 2.67794,0.65464 3.932076,1.22623 -2.876452,-3.57988 -7.545784,-5.33346 -9.967026,-9.35066 -0.722653,-0.71463 -1.167049,-2.19128 0.277551,-1.18549 1.762369,1.14432 3.830805,1.56225 5.902338,1.63965 2.438515,0.17721 5.133734,0.85937 6.496581,3.09211 1.090382,1.44147 2.040468,2.938 2.536916,4.69123 1.190999,1.93519 -0.612503,-2.35361 -0.715221,-3.18406 -1.242435,-5.07474 -0.860635,-10.33588 -1.004199,-15.51412 1.202964,1.40504 2.419988,2.89086 3.055556,4.61397 0.0444,0.60086 -0.40122,1.0921 0.506709,1.46451 -1.345215,-0.24006 0.277562,1.29628 -0.148143,2.35341 0.100666,3.00533 -0.134163,6.07065 0.595467,9.01447 1.049568,1.34241 -0.442542,-2.41115 -0.193426,-3.11476 -0.144754,-1.55446 -0.316317,-3.8705 0.461903,-4.77594 -1.044816,-1.80321 0.214443,-4.11511 0.643288,-6.01093 0.736033,-2.76711 1.458867,-5.56834 1.654577,-8.43201 0.766102,1.18098 0.736375,3.47219 1.044901,5.10464 0.39861,3.133 0.593759,6.28582 0.774437,9.43735 -1.850248,3.50573 -3.594683,7.24383 -3.431427,11.31331 0.05483,2.06008 0.371483,4.15079 1.107867,6.07696 0.05396,-2.07012 -0.884118,-4.14066 -0.7684,-6.26268 -0.160741,-5.90871 3.560755,-10.78605 5.718162,-16.00479 0.19871,-0.98894 1.05477,-1.6851 0.90873,-0.16667 0.38524,5.71332 -0.49833,11.53014 -2.868842,16.76056 -0.492092,2.4198 -2.026929,4.46562 -2.786613,6.7955 1.555956,-2.14606 2.196516,-4.95878 4.213475,-6.75407 1.31929,-0.30932 2.54439,0.9776 3.79243,-0.26908 2.04597,-0.5157 2.90083,2.08391 3.8345,3.41282 0.46794,1.18713 3.02177,2.85825 0.24826,2.66729 -1.97212,-0.37501 -3.77455,-1.5992 -4.97427,-3.18927 -0.42958,-0.85428 -3.398487,-1.56512 -1.31391,-0.62051 2.12373,1.12845 -1.730291,2.30114 -2.327584,3.53005 -1.2941,1.2347 -2.549176,2.88478 -4.507271,2.8982 -0.79763,0.33234 -0.939485,-0.81569 -1.398044,-1.24879 -0.92615,-1.43481 -2.045931,-2.72792 -3.232133,-3.95148 0.318849,-0.86062 0.916927,-1.72142 0.974411,-2.60845 -1.067671,1.58809 -1.66134,3.61199 -3.451656,4.60977 -2.149961,1.32189 -2.129048,4.36635 -4.127185,5.76414 -0.103298,0.2914 -0.364736,-0.33409 -0.376371,-0.18541 z m 15.498731,-10.14423 c 1.230536,-2.76595 2.160092,-5.6655 2.700402,-8.65176 0.5222,-2.05076 0.22737,-4.49392 1.88908,-6.07856 0.82529,-1.56865 3.04501,-2.37575 4.07633,-2.50313 0.656,0.89111 0.32563,-0.86389 1.63286,-0.29299 2.12944,-0.12163 4.33835,0.30992 6.40998,-0.27553 1.02373,-1.24384 2.66408,-0.44312 1.75845,1.07328 -0.87917,2.99405 -3.55636,5.12415 -6.54478,5.78308 -2.74859,0.57879 -5.79777,1.14942 -7.62823,3.50534 -1.09008,1.04358 0.7863,-0.3686 1.20729,-0.51989 3.33192,-1.74881 7.31599,-0.408 10.7311,-1.92789 2.34995,-0.23931 -0.81715,2.73506 -1.37225,3.52297 -2.31196,2.17673 -5.03249,4.09391 -8.09797,5.01458 -1.79485,-0.10323 -3.35798,1.10428 -5.14547,0.21439 -0.642654,0.17566 -0.993744,1.03397 -1.616792,1.13611 z m -9.36334,-7.74795 c -1.122576,-2.20336 -3.558954,-3.05831 -5.715511,-3.80826 -2.250958,-1.9297 -2.62876,-5.13367 -3.028337,-7.90646 -0.226095,-2.56894 -0.352165,-5.17351 -1.152837,-7.64215 0.238397,-2.08277 2.31959,1.15053 2.867593,1.83152 1.027675,1.928 1.863543,2.75007 3.229953,4.35885 1.169527,1.80297 2.501026,3.56356 3.565238,5.40874 0.131861,2.76414 0.383132,5.52594 0.887237,8.24328 -0.06966,0.67084 -0.608969,-0.40947 -0.653336,-0.48552 z"
         id="path316" /><path
         style="fill:#6d8f89;stroke-width:0.264583"
         d="m 82.979379,208.53118 c -0.762293,-2.79188 0.378405,-5.72584 1.790249,-8.12378 0.760952,-1.73859 2.603648,-2.58194 4.126851,-1.6784 0.530574,-1.47023 1.958424,-2.16213 2.976292,-0.63415 0.574059,0.7198 2.66891,2.10107 1.080257,0.48924 -1.092642,-1.1705 -2.988658,-3.01358 -4.040526,-0.75883 -1.108801,0.30603 -2.90474,-0.15371 -3.908503,1.30707 -0.867683,2.63019 -3.548751,1.11585 -4.979372,-0.19305 -1.271559,-1.17513 -4.010397,-3.50841 -2.342638,-5.18601 -0.09941,-0.7113 -1.29032,-1.56097 0.219976,-0.55672 1.044122,0.41942 0.383073,1.87559 1.298046,0.9734 1.938956,1.15712 4.390578,1.09779 6.415108,2.11684 0.226224,-0.97382 -2.401577,-2.46351 -3.340409,-3.38816 -2.120327,-1.69411 -4.563276,-3.20993 -5.98538,-5.58622 0.129295,-0.8177 -2.493833,-2.72967 -0.387163,-1.53001 2.528698,1.74781 5.685565,1.43645 8.552525,2.02113 2.209294,0.40723 3.892766,2.09004 4.890202,4.02504 1.342629,0.96429 1.152571,3.86543 2.368044,4.22776 -0.677521,-1.78353 -1.484963,-3.56605 -1.695931,-5.49983 -0.781284,-4.64336 -0.208081,-9.39971 -0.782349,-14.0446 0.716866,1.0009 2.718762,2.5056 2.160129,3.68789 1.205121,1.5135 -1.577351,-0.55127 -0.993427,1.13134 0.488987,0.94011 1.55852,1.43296 0.796168,2.26579 1.896303,1.12702 1.004365,3.50625 1.369778,5.35035 0.270932,1.49275 0.302033,4.7426 1.177426,5.18597 -0.479796,-2.4907 -0.663139,-5.0707 -0.521259,-7.60259 1.614714,0.10494 -0.756397,-2.17468 0.147506,-3.21601 -0.03507,-1.84628 1.201421,-2.61663 2.560466,-1.4766 -0.886808,-0.65165 -2.147628,-2.94318 -0.708258,-2.75665 0.348017,0.43501 2.02083,2.21696 1.281498,0.82709 -1.929741,-1.33033 -1.52682,-4.15607 -0.257761,-5.62826 -0.769089,-0.66055 -0.167732,-2.08729 0.113186,-0.53056 0.790339,3.98572 1.000065,8.05562 1.303716,12.10023 -2.043362,3.99574 -4.082687,8.37822 -3.298959,12.98357 0.304446,1.46663 0.197314,3.32003 1.09055,4.48233 -0.08154,-2.35216 -1.019859,-4.65476 -0.786421,-7.04925 0.31014,-5.67673 3.857616,-10.3716 5.899414,-15.49642 0.34078,-0.98292 0.54661,-1.15479 0.53138,0.002 0.65817,5.74859 -0.53338,11.56487 -2.690327,16.88686 -0.18269,1.8108 -1.516081,3.21016 -2.103883,4.91157 -0.581886,0.97275 -1.010363,3.00917 0.0042,0.96256 1.090732,-2.117 1.981645,-4.46559 3.88748,-6.00524 1.20357,0.85911 2.46127,0.68444 3.73332,0.11724 1.73284,-0.21279 2.6407,1.85559 2.82317,2.6843 0.51134,0.90535 1.87791,2.6 2.07212,2.96322 -0.93619,0.27496 -2.72349,0.25057 -3.11747,-0.61126 1.35802,0.61067 0.87255,0.40913 0.14125,-0.47847 -0.0696,-1.38862 -0.83472,1.42006 -1.52727,-0.25616 -0.9653,-0.86144 -3.38031,-3.55953 -4.04046,-2.28946 2.2534,-0.28803 1.41809,1.91695 0.009,2.49142 -1.425665,1.15601 -2.523366,2.73524 -4.107708,3.67153 -0.701958,-0.40982 -0.987749,0.48665 -0.8874,-0.65457 -2.334676,0.47577 -3.110536,-1.99015 -4.405784,-3.33738 -1.992309,-0.62345 0.903748,-3.07119 -0.175715,-3.34533 -0.977299,1.87929 -1.916401,3.79348 -3.802794,4.94314 -2.016076,1.26417 -1.594061,4.427 -3.806863,5.21192 l -0.125379,-0.10677 z m 16.097044,-11.4884 c 1.593557,-3.50398 2.134317,-7.36437 2.830637,-11.10937 0.78067,-1.78902 1.98396,-3.58523 3.7666,-4.47773 1.39958,0.46653 0.34527,3.68869 2.4986,3.33282 -1.02393,-1.07344 -0.38053,-2.55457 1.12808,-1.68334 1.75221,0.0569 1.18091,-0.53297 0.63194,-0.41872 -0.5116,-1.34532 2.12569,-1.69952 3.36617,-1.50035 1.23763,0.25435 4.31127,-2.39981 3.51278,0.31936 -0.64611,2.70299 -2.77175,4.89883 -5.44881,5.64151 -2.7915,0.71417 -5.63901,1.42883 -8.0799,3.03888 -0.98015,0.19269 -1.62966,1.89796 -0.22713,1.01659 1.31285,-1.44572 3.51488,-1.32709 5.3107,-1.56239 2.14322,-0.10983 4.30877,-0.26033 6.35964,-0.92598 1.22637,1.14934 -1.65699,3.32946 -2.62832,4.33045 -2.17926,1.72652 -4.50288,3.59927 -7.29109,4.13568 -1.6903,-0.10705 -3.13352,0.98983 -4.7575,0.0985 -0.980177,0.0408 -1.788008,2.05061 -1.100042,0.0266 l 0.127575,-0.26259 z m -9.930308,-6.26402 c -1.124595,-1.86114 -3.10103,-2.9605 -5.080091,-3.6828 -2.924949,-1.98201 -3.845714,-5.89235 -3.531447,-9.23748 -0.115679,1.69592 1.191605,2.12129 2.293539,1.18367 1.323995,0.82957 0.430652,-0.21087 0.13085,-1.02098 0.947748,0.79661 1.448247,0.27913 0.656873,-0.74515 0.360619,-2.17984 2.05025,1.23887 2.693488,1.94841 1.102274,1.79979 2.853165,3.51398 2.582932,5.80105 -0.05476,2.12895 0.608731,4.21888 0.67571,6.31143 -0.251711,-0.051 -0.255187,-0.42976 -0.421854,-0.55815 z"
         id="path314" /><path
         style="fill:#5c827b;stroke-width:0.264583"
         d="m 82.9731,208.25023 c -0.764673,-2.8539 0.516987,-5.85273 2.108983,-8.19372 0.75551,-1.2763 2.307719,-2.16717 3.633986,-1.28022 0.806821,-0.14068 1.202236,-2.2044 2.005465,-1.51968 0.930656,0.48935 2.322948,2.31846 2.840949,2.06265 -0.992658,-1.52466 -3.327374,-3.92658 -4.710006,-1.46956 -0.980117,0.30434 -2.419423,-0.62801 -3.237407,0.7663 -0.999181,1.61158 -2.696946,2.72126 -4.331199,1.17305 -1.601161,-1.06774 -3.391196,-2.37171 -3.95106,-4.28871 0.270111,-0.64285 0.492267,-2.59343 1.428268,-1.51546 -0.986253,0.37866 -0.629049,1.54356 0.285208,0.78047 -0.01708,1.21835 1.583343,1.4955 2.529711,1.9509 -0.317775,0.64142 -0.91431,1.5954 0.285348,0.78927 1.644086,-0.61926 -0.491984,-2.15163 -0.199948,-2.32304 1.444346,0.17582 2.810201,0.78345 4.216872,1.02877 -0.944583,-1.51311 -2.639873,-2.51163 -3.997789,-3.67686 -1.776338,-1.42903 -3.803643,-2.68263 -5.11988,-4.58055 -0.455507,-1.10217 1.992501,-0.0698 0.561795,-1.1587 0.402159,-0.18176 3.145028,0.80759 4.417136,0.68321 2.397818,0.11056 5.070572,0.65194 6.5147,2.77647 1.227419,1.66223 2.508351,3.5547 2.666424,5.65177 0.916675,0.73101 1.357129,0.15194 0.621963,-0.70174 -2.65114,-5.25035 -1.72753,-11.30157 -2.098306,-16.96475 -0.212653,-1.11009 -0.206134,-2.0568 0.677744,-0.67133 1.133508,1.0593 2.091902,2.99797 0.200424,3.21733 0.01812,1.85398 1.452203,2.98838 1.917196,4.64519 0.601519,2.91054 0.04427,6.02483 1.23553,8.81648 0.500774,-0.84881 -0.418583,-3.4269 -0.234402,-4.92514 0.04114,-1.23034 -0.459129,-2.69896 0.775719,-2.98616 0.606504,-0.9693 0.465055,-0.85573 -0.343941,-0.69272 -1.346468,-1.18359 0.452101,-0.72475 0.58028,-1.29191 -0.04485,-0.62369 1.496993,1.33979 0.960327,-0.37257 -0.235653,-0.77529 -0.883377,-1.30321 -0.545333,-0.21224 -2.090852,1.2926 -1.081759,-4.12899 0.443949,-2.05308 1.583696,1.05964 0.989473,-0.45969 -0.01172,-0.96217 -0.384905,-0.32537 0.644546,-1.5916 -0.194468,-0.74042 -1.39607,-0.38238 1.095558,-1.26923 0.905867,0.26347 0.726859,1.73692 1.22029,-0.50819 0.387617,-0.98296 -0.974985,-1.00574 -1.336349,-2.97607 -0.294298,-4.28738 1.246094,-0.44789 0.356293,0.9917 0.0091,1.29239 -0.199162,0.89526 0.570839,2.6975 0.636919,1.15096 1.025034,1.20181 0.464348,3.37821 0.787017,4.95071 0.03893,1.23291 0.230208,2.49578 0.174647,3.71011 -1.831352,3.69525 -3.795808,7.61337 -3.281624,11.86587 0.513378,1.68677 0.0288,4.33898 1.098156,5.45727 0.761502,-0.97283 -0.728743,-2.63926 -0.555619,-3.94759 -0.728005,-5.82683 2.18565,-11.21877 4.6977,-16.25718 0.499557,-0.7345 1.23577,-2.98691 1.55081,-3.03883 0.70991,5.50005 -0.23265,11.11193 -2.260113,16.24788 -0.359821,1.9828 -1.118467,3.65314 -2.137572,5.41296 -0.75962,1.26846 -1.6366,3.99107 -3.395544,2.93225 -1.151939,-1.19811 -1.868212,-2.78444 -3.209046,-3.8182 0.381477,-0.88976 0.990796,-1.73205 1.061021,-2.71528 -1.540934,0.75191 -1.222982,3.25994 -2.955562,4.11182 -1.647142,0.95722 -2.611557,2.6046 -3.309781,4.32048 -0.320832,0.42253 -1.169137,2.8137 -1.842219,1.57012 z m 12.821174,-2.60348 c 0.145028,-1.94288 1.339857,-3.69526 2.21497,-5.41293 0.545085,-1.04184 1.319771,-1.92461 2.188056,-2.70606 1.22267,0.87586 2.54351,0.69795 3.83277,0.0627 1.92873,0.0528 2.80516,2.45022 1.70212,3.59864 -0.48273,2.85193 -2.42007,-0.56204 -3.60364,-1.26822 -0.53201,-0.98517 -2.49162,-0.42256 -1.70801,-1.50032 -1.610118,-0.0305 0.14872,1.78149 1.11272,1.41583 0.54058,1.80528 -2.330244,2.84748 -3.341337,4.19976 -0.744279,0.38353 -1.44743,2.33295 -2.397649,1.61062 z m 3.152542,-8.21427 c 1.766214,-3.622 2.164814,-7.69677 3.056774,-11.57708 0.48085,-1.89095 2.34411,-3.99864 4.07393,-4.24297 -0.62991,0.95498 1.84509,2.78658 -0.27594,2.08602 -0.0482,0.76183 2.38066,3.48756 2.26278,0.94791 -0.96271,-1.16659 1.35501,-1.08762 1.99985,-1.33623 1.71376,-0.27959 -0.14638,0.78394 0.63593,1.10659 1.08241,-0.67868 -0.13127,-2.1045 0.89266,-2.23523 -2.27923,-0.5119 1.12535,-1.35314 1.85477,-0.29391 0.3477,-1.12224 2.50628,-1.48652 3.43764,-1.6451 -0.0263,2.45968 -1.62423,4.82486 -3.69872,6.09772 -3.08763,1.78579 -7.26195,1.16188 -9.80265,3.95857 -0.93244,0.72635 -0.98347,1.52193 0.17416,0.54455 2.97321,-1.9128 6.68111,-0.69041 9.894,-1.77451 2.47955,-0.92226 1.26943,1.72719 0.17432,2.50654 -2.26442,2.58897 -5.33805,4.48787 -8.6209,5.47717 -1.73659,-0.13964 -3.24166,1.40004 -4.70237,0.007 -0.721454,0.17581 -2.455967,2.20568 -1.356234,0.37302 z m -9.644274,-6.46639 c -1.001148,-2.10763 -3.271776,-3.17406 -5.379947,-3.86099 -0.913264,-0.0514 -2.590145,-3.1074 -1.119215,-1.54569 1.666108,-0.49945 0.401641,-1.14136 -0.594444,-1.10843 -1.546189,-0.67999 -0.871677,-2.62255 0.338986,-1.64348 -0.898126,-0.77381 -0.985831,-1.50518 -0.628607,-2.59566 -0.738857,-1.24943 1.49513,-1.04954 2.030698,-0.49494 0.857994,-0.39641 0.697647,-0.60884 -0.0095,-0.19011 0.463368,-0.79275 0.02054,-1.56895 0.09221,-2.24344 0.862094,0.21083 -0.943786,-1.56281 0.520295,-0.36406 1.590853,1.9803 2.909148,4.15945 4.344938,6.25157 -0.09245,2.6122 0.19187,5.21102 0.682702,7.77346 0.08126,0.71961 -0.09121,0.68636 -0.278105,0.0218 z"
         id="path312" /><path
         style="fill:#4b746d;stroke-width:0.264583"
         d="m 82.92357,207.72263 c -0.199682,-2.80993 0.808615,-5.64634 2.241855,-8.03056 0.808364,-0.69569 1.229959,-0.87972 2.052806,-1.40387 1.207471,1.01272 2.123989,0.1428 3.017595,-0.89495 1.380081,0.0401 2.131732,1.63462 3.424592,2.10799 -0.72237,-1.54611 -1.433112,-2.2717 -3.190368,-2.68924 -1.548121,-0.59415 -1.921167,2.68242 -2.768965,0.582 -1.124062,0.83824 -2.529399,-1.00835 -1.904576,-1.45747 0.04429,-1.55573 -2.972668,-1.39711 -2.463239,-3.39176 -1.52116,0.65666 -3.435965,-1.58727 -4.222671,-2.46931 0.727954,0.35641 2.184053,0.87002 1.19229,-0.44909 -0.397625,-0.93547 0.184421,-0.8612 -0.342488,-1.50818 1.076744,0.0455 1.008656,-1.30261 2.455505,-0.66325 2.216037,0.35762 4.70413,0.9382 5.955156,3.00337 1.080048,1.56577 2.227331,3.24546 2.48656,5.16927 -0.718174,0.88215 0.764993,0.42114 0.936336,1.39409 1.553912,0.20936 -0.682199,-2.18269 -0.863555,-3.15691 -1.538229,-4.58841 -1.452251,-9.48885 -1.315344,-14.26262 0.200134,-0.78792 -0.501014,-2.78993 -0.27477,-2.89992 0.802571,1.00701 1.905791,1.91015 2.248946,3.1656 -0.898423,-0.21778 -0.787105,-0.33335 -0.335574,0.52781 -2.183276,-0.22017 -0.475689,2.09979 -0.282038,3.33005 1.514655,0.24777 1.092972,2.06673 1.390135,3.32764 0.198277,2.39148 0.286024,4.85112 1.01303,7.14806 0.992165,-0.11565 -0.427668,-2.99186 -0.133652,-4.18035 -0.08959,-1.5629 -0.409119,-3.16287 0.95289,-4.01617 0.57702,-1.07386 -1.707577,-1.0394 -0.06219,-1.29506 1.467734,0.70623 1.353129,-1.53396 0.609482,-2.04065 0.60901,-0.37882 1.59881,0.34461 0.785231,-0.47357 0.992825,-0.0439 1.429746,0.53723 0.981029,-0.73832 0.193958,-0.80162 0.115109,-2.65621 -0.382916,-2.86835 -0.544423,1.14693 -0.834043,-1.60659 0.237433,-0.36899 0.829494,-1.32717 0.61425,2.01571 0.829001,2.76537 0.08864,1.71255 0.33946,3.4678 0.316373,5.16375 -1.370944,2.6165 -2.591951,5.32463 -3.232072,8.22293 0.03628,1.05638 -1.572565,1.4358 -0.276684,1.94645 0.08187,1.96177 0.791529,4.01287 0.573231,5.90812 -0.903656,-0.20996 -0.934089,1.65556 -0.156473,0.41228 1.151809,0.18333 -0.581356,3.45183 -0.832692,1.64895 -1.111687,0.5163 -1.723872,-1.89017 -2.791691,-2.5845 -0.771981,-0.44791 -0.61552,-1.06825 -0.213905,-1.73412 0.5759,-0.79191 0.569278,-2.76473 -0.325927,-0.96159 -0.568576,2.04023 -2.055741,3.42138 -3.6727,4.66991 -1.797736,1.10506 -1.335726,3.81343 -3.00388,4.69128 -0.354775,0.0227 -0.61748,-0.32452 -0.651103,-0.64612 z m 12.847651,-2.23983 c -0.160039,-1.58087 1.428122,-3.09758 1.882296,-4.67748 0.811698,-1.71656 2.357033,-3.89345 4.396073,-2.47557 1.51801,-1.13659 4.21606,-0.66543 4.1551,1.56311 -0.87901,0.7722 -0.70923,3.57798 -2.3191,1.60496 -1.44714,-0.83273 -2.31992,-2.99555 -3.71724,-3.39305 -0.864378,0.42927 -0.813563,1.90571 -0.16198,1.2375 0.32727,0.41498 2.96712,0.99558 1.71952,1.58516 -2.048964,1.27166 -3.289896,3.58626 -5.489945,4.66493 l -0.289792,0.028 -0.17493,-0.13752 z m -0.122277,-2.62817 c -1.753175,-3.33162 -0.94645,-7.29513 2.39e-4,-10.74731 1.17138,-4.30286 3.787314,-7.99724 5.336417,-12.14586 0.32961,3.35046 0.51181,6.76238 -0.35606,10.05416 -0.44421,1.75737 -0.708623,3.622 -1.58848,5.22486 -0.402908,0.0964 0.410638,-1.36694 -0.516772,-0.43667 0.137412,2.13038 -0.448375,4.22991 -1.429918,6.13308 -0.344048,0.27122 -0.889304,2.73453 -1.445426,1.91774 z m 3.422375,-5.64911 c 1.515511,-3.26931 2.060501,-6.88214 2.756221,-10.38669 0.7442,-2.05532 1.79816,-4.2192 3.63043,-5.50373 1.04687,-0.19994 0.68606,1.50308 -0.15589,1.1682 0.63811,0.18838 1.68515,0.84316 0.38318,1.17065 -0.64327,0.75942 1.5495,2.83037 2.46206,1.83509 -0.73782,2.00158 1.40528,-0.23923 0.12379,-0.94839 -1.3825,-1.4051 3.49186,-0.54527 0.9336,-0.39047 -1.76343,0.0394 2.03861,0.82744 2.3151,-0.40039 2.01063,-0.58308 -1.73247,-1.21213 -0.0891,-1.11611 1.30571,-0.62076 0.45202,-0.81093 -0.17059,-1.05542 1.05501,-0.51289 2.78519,0.0801 1.87509,1.27243 0.2127,2.28832 1.65756,-0.25803 0.48179,-1.17545 0.0432,-0.95327 2.22354,-0.94495 3.05549,-1.53384 0.35675,0.79292 -0.009,3.06877 -1.18358,1.86878 1.59998,1.9326 -1.12052,3.66104 -2.67938,4.39474 -3.09418,1.6793 -7.1725,1.26073 -9.68832,4.03108 -0.98582,0.77773 -0.8074,1.77824 0.24767,0.56331 2.75519,-1.87276 6.26169,-0.98091 9.34444,-1.70905 1.81693,-0.98897 3.08334,0.49343 1.27561,1.86135 -2.29824,2.79483 -5.51765,4.81768 -8.94884,5.90541 -1.41773,-0.39005 -3.59024,1.64495 -4.24199,-0.1369 -1.144814,-0.11192 -2.90033,2.76282 -1.726794,0.28541 z M 88.550424,189.8807 c -1.100258,-1.71915 -3.093918,-2.31793 -4.915192,-2.88795 -1.776178,-0.81335 0.03362,-1.70121 0.496135,-1.39 0.68289,-0.9344 0.725085,-1.84165 0.38375,-2.84061 1.935907,-0.0246 -0.734766,-3.52186 0.292769,-0.89434 -0.365504,0.72704 -1.379544,1.53485 -0.546591,1.62201 -0.453996,2.07303 -4.225953,0.34943 -2.487542,-0.9866 0.561289,0.82678 1.062305,0.95007 1.082796,-0.0375 1.043967,-0.54799 -2.450266,-0.33063 -0.94246,-1.21584 -0.03243,-1.3728 0.881629,-2.55447 2.048613,-1.16331 1.178501,0.50685 0.770882,-0.23789 0.63364,-0.47425 0.518029,-0.71006 -1.718498,-3.41702 0.159713,-2.13127 1.6412,1.71975 2.796466,3.81808 4.141881,5.76285 -0.05328,2.55315 0.136731,5.10566 0.658793,7.60757 -0.108939,0.54985 -0.846911,-0.91539 -1.006305,-0.97079 z"
         id="path310" /><path
         style="fill:#3c6962;stroke-width:0.264583"
         d="m 82.928775,207.46354 c -0.03722,-2.19422 0.304708,-4.60727 1.588415,-6.43456 -0.02315,1.07011 0.578334,2.18405 1.468443,0.89174 0.454326,-0.0777 -0.558623,-1.28403 0.09912,-1.70272 -0.603722,-0.0824 -0.756828,1.13299 -1.054163,-0.0902 0.376486,-0.81331 1.825464,-0.4561 1.691388,-1.10984 0.520583,0.7643 1.411085,1.74973 1.305604,2.22154 -0.873533,0.81058 1.283083,0.33528 1.264967,-0.32551 -0.860037,1.74889 -3.141352,2.28467 -3.872064,4.17765 -0.600991,0.90234 -1.077557,3.98199 -2.296756,3.22305 -0.09159,-0.27702 -0.151224,-0.56328 -0.194958,-0.85115 z m 9.687901,-3.53002 c -0.854262,-1.33579 -2.850836,-2.9393 -1.938339,-4.58653 1.299523,0.83324 1.000968,-2.13827 2.046847,-0.32088 1.81331,1.53474 -0.184826,-1.16301 -0.103751,-1.34953 -0.316615,-0.23943 -0.808252,-1.56684 0.09224,-1.79955 1.321068,-1.02568 -0.669173,-2.49206 -0.583089,-1.31634 1.455206,-0.28359 -0.44231,1.7886 -0.605039,0.17273 -1.496279,-3.97044 -1.861539,-8.27702 -2.182309,-12.47842 0.01173,-1.40772 -0.299537,-3.96976 0.603726,-4.67475 -0.386431,0.8163 0.681572,1.7683 0.317623,0.43096 0.519635,0.12347 1.991756,2.58722 1.290048,1.91425 -0.787854,-0.97025 -1.134069,0.10164 -0.284664,0.67537 -1.462073,-0.94957 -1.302727,1.47003 -0.484781,2.21341 -0.835681,1.45306 1.902215,0.73179 0.988981,2.40827 0.08693,1.72378 0.94653,3.66263 0.868825,5.60374 0.187198,1.0767 0.284602,3.47023 1.261517,3.62257 -0.501247,-2.45752 -0.898438,-4.99581 -0.675664,-7.50366 1.648449,-0.0285 0.0939,-2.59918 1.674757,-2.0502 1.480788,-0.44981 -1.117265,-3.20521 0.869152,-1.85642 0.785064,1.1873 0.831094,0.41511 0.379544,-0.50792 1.545651,0.12126 1.60281,2.76016 0.879439,4.19699 -0.962143,2.53024 -2.226433,4.95907 -2.771431,7.63505 -0.340612,0.98868 -1.241678,1.52658 -0.296275,2.19232 0.156508,1.65068 0.754571,3.73983 0.554035,5.14187 -0.568687,0.26391 -3.246826,1.09351 -1.403183,0.98113 1.479178,0.67715 0.592972,1.71804 -0.351339,1.49175 l -0.146872,-0.23611 z m 3.067648,-1.02164 c -1.654552,-3.24084 -0.960762,-7.07399 -0.129591,-10.45315 1.118662,-4.42031 3.806162,-8.18779 5.434797,-12.40861 0.29992,3.21679 0.48087,6.49165 -0.36422,9.65036 -0.46132,1.78431 -0.733114,3.67714 -1.49555,5.3499 0.03062,-0.7272 0.119121,-2.56755 -0.574435,-0.83489 -0.542295,1.50123 0.704086,2.16787 -0.349181,3.59457 -0.510235,1.54555 -1.289348,4.67488 -2.52182,5.10182 z m 3.105896,-5.12912 c 0.953647,-0.91201 1.85962,-1.34435 1.28597,-2.67834 -0.08412,-1.57181 1.09,-3.33681 1.51123,-4.30769 -0.345,-1.94475 0.13631,-3.99797 0.71943,-5.86464 0.78585,-1.19987 2.38662,-3.41887 3.78898,-3.00187 -0.30905,0.7983 -1.29178,-0.381 -0.4825,1.01475 0.20969,0.66845 -1.63754,3.24616 0.27344,2.76869 1.37208,-0.8692 2.18163,2.01539 3.0572,0.57813 -0.0855,-0.97832 -0.98799,-2.53019 0.1126,-1.03476 0.2612,-0.12791 0.54332,-1.21607 1.24155,-0.13627 -0.4606,-1.24895 1.72612,1.32277 1.87999,-0.70281 0.98843,-0.31157 -1.43439,-2.67193 0.52866,-1.92751 -0.34719,1.29731 1.81333,3.08092 1.60565,1.04277 0.45757,-0.7799 -1.81538,-2.80313 0.46144,-2.54325 0.40276,-0.66707 3.08826,-0.87077 1.48678,-0.24542 1.12157,0.35791 -0.86586,0.89466 0.29312,1.071 0.19049,1.10492 -2.30491,-0.73161 -1.26283,0.58513 0.31457,0.95141 -1.45413,2.19145 0.34167,1.21953 0.15835,-0.90537 0.10859,-1.42035 0.40659,-0.2114 -0.6309,2.03537 -2.96369,2.83168 -4.7537,3.58663 -3.03004,0.98639 -6.73058,1.20448 -8.74462,4.0472 -0.63042,1.60667 2.23256,-1.33436 3.28035,-1.07138 1.13702,-0.43775 2.96738,-0.59969 1.98233,0.91664 1.03157,0.90399 -1.37004,-0.14444 -1.93605,-0.37759 -1.24894,-0.0956 -1.36126,2.14627 -0.94646,2.76637 -1.17021,-0.9524 -0.41316,1.22565 -1.44276,0.75256 0.14095,1.0208 0.95015,1.55954 0.96654,0.66529 1.30979,-0.86938 2.71234,-0.90136 2.57203,0.61143 -0.0987,-1.52033 -0.69202,-3.7596 1.20569,-3.50179 0.35116,-1.25956 0.23949,-2.57779 2.05709,-2.10835 1.40856,0.46186 3.71741,-1.48175 4.55865,-0.16849 -0.93989,2.30115 -3.09981,3.86432 -5.06736,5.27103 -1.80842,1.06523 -3.7687,2.5962 -5.98212,2.18612 -0.91348,0.27478 -1.83198,0.90919 -0.78813,-0.29397 -0.14108,-0.98548 2.09013,0.74402 1.23,-0.48525 -0.29085,-0.59866 -0.5817,-1.19731 -0.87255,-1.79596 -0.75372,0.70947 -2.14106,1.27374 -1.95011,2.49161 1.34311,1.09278 -0.35039,1.18349 -0.46023,0.0705 -0.5676,-0.87294 -3.144473,2.55953 -2.15756,0.81138 z m -11.318269,-2.07875 c -1.153493,-0.69916 -2.112834,-0.82346 -0.834181,-2.13461 -0.935328,-0.84878 -0.62775,1.92521 -1.995644,0.95737 -0.908034,-0.22504 -1.991837,-2.30468 -0.639,-0.84358 0.888181,0.101 -1.517413,-2.23071 -1.698903,-1.6253 1.809988,-0.88524 -1.901803,-2.00195 -0.882551,-0.32056 1.223775,1.52682 -3.666899,-2.14248 -1.161293,-0.96081 0.768321,-0.52595 -0.524047,-2.30571 0.568902,-3.00794 0.203345,-0.67493 0.702253,0.84976 0.91391,-0.38081 2.052106,-0.35982 4.017987,0.96312 5.627553,2.10597 1.368824,1.32048 2.539822,2.96158 3.269435,4.71477 0.719704,1.60688 -0.710758,2.51229 -2.006848,2.03861 -0.101305,0.69553 -0.958799,-0.40924 -1.16138,-0.54311 z m 1.151723,-5.75915 c -1.162962,-1.75142 -3.189079,-2.45324 -5.095299,-3.00833 -1.324898,-0.51714 -0.193146,-2.12534 -0.04803,-0.35584 0.368307,-0.0476 0.635741,-0.38531 1.167788,-0.0278 -0.636284,-1.14343 0.20099,-2.51104 0.401734,-3.63999 0.257704,0.49605 1.630719,0.92638 0.937633,-0.45958 -1.073322,-0.28453 -0.253329,-2.14658 -1.196702,-2.022 0.938965,-0.88425 -0.705269,-1.80334 0.60247,-1.69958 -0.224741,-1.78739 0.552813,1.14787 1.417159,1.16742 1.708867,2.12989 2.005143,4.93475 2.166124,7.56109 -0.116617,0.91758 0.994411,3.43249 0.281962,3.32461 -0.219869,-0.27371 -0.425236,-0.55873 -0.63484,-0.84002 z"
         id="path308" /><path
         style="fill:#34635b;stroke-width:0.264583"
         d="m 95.682033,202.90817 c -0.884148,-2.07064 -1.016015,-4.45889 -0.681673,-6.67008 0.09961,-0.63873 1.956217,-0.97313 0.280198,-0.96253 -0.976151,-1.52592 0.62345,-3.66842 1.08706,-5.29973 1.397344,-3.21968 3.031147,-6.32845 4.568842,-9.4818 0.57528,3.61133 0.17578,7.28423 -0.70322,10.81324 -0.13787,0.68836 -0.15938,1.67789 -0.916277,0.76415 -1.399364,-1.01704 -0.802237,0.47546 -0.45413,1.22528 -0.955085,1.82216 0.03511,3.81106 -0.967255,5.6337 -0.630362,1.07043 -1.148064,3.9341 -2.213545,3.97777 z m -1.456457,-1.56326 c -1.080605,-0.25807 -1.918789,-0.30778 -2.293423,-1.60946 -0.669969,-0.40005 0.37867,-2.11966 0.839047,-0.57718 1.459564,0.97798 0.954224,-0.0654 0.199079,-0.84545 0.197732,-1.06779 -0.271609,-0.622 -0.331646,-0.3371 -0.56953,-1.42375 1.378025,-3.41061 0.01666,-4.25272 -1.100904,0.45808 -0.227875,3.1108 -1.239171,1.04061 -1.178725,-3.2244 -1.910963,-6.68527 -1.873019,-10.12705 0.264412,-1.14881 -0.312282,-3.41947 0.605078,-3.90097 0.117834,1.28605 0.665227,2.68556 0.295443,3.80659 0.587379,-1.22149 2.053676,0.1617 1.159185,1.17762 1.154387,1.50037 0.321961,3.5331 1.043698,5.28807 0.202524,1.12176 0.10729,3.00338 1.234748,3.49471 -0.432704,-2.46653 -0.916241,-5.00458 -0.569624,-7.51626 1.404968,-0.25725 0.646212,-2.42469 1.796244,-1.85902 0.52913,-0.62508 0.283479,-3.03505 1.089215,-1.48934 1.287887,0.60208 -0.625726,-1.46191 0.905444,-0.0403 0.907763,1.88392 -0.375885,3.94528 -1.138613,5.67107 -0.941161,1.838 -1.313063,3.88175 -2.031163,5.79718 -1.128182,1.1224 0.801704,2.38378 0.334888,3.86216 -0.165452,0.25891 0.975829,3.655 -0.04207,2.41683 z m 10.200924,-4.89395 c -0.77031,-1.57828 1.20156,-2.34645 2.35173,-2.19762 -0.85503,0.81287 0.56604,1.81581 1.16965,0.73136 -1.93077,-0.2578 0.2016,-1.94078 0.70502,-2.28605 -0.80346,-0.8693 0.12917,-2.21417 0.38754,-2.93285 1.69948,0.43345 3.51718,-0.47522 5.24631,-0.77904 0.85647,0.0124 -0.96798,0.80908 0.3992,0.81981 -0.4456,2.07431 -2.77498,3.23263 -4.33463,4.50819 -1.71042,1.1437 -3.61012,2.12716 -5.47377,2.88611 -0.2156,-0.20348 -0.33042,-0.48671 -0.45105,-0.74991 z m -14.470249,-0.10223 c -0.565481,-0.26775 -2.849176,-0.29233 -1.271255,-1.08679 1.012217,0.64617 0.262897,-1.85939 0.841498,-1.75799 0.198406,-1.09997 -1.444606,1.34028 -2.216076,0.21692 -0.597151,-0.30155 -3.314322,-2.83784 -2.636216,-0.78328 0.401349,1.054 -2.185752,-0.75373 -0.375535,-1.11152 1.03558,-0.99712 -0.489323,-1.40503 -0.531974,-0.12803 -0.796628,-0.7212 -3.516612,-1.58596 -2.157711,0.32634 0.186296,0.57815 -1.753311,-1.07641 -1.153121,-1.92222 -0.791105,-1.66608 2.836136,-3.66443 2.273199,-1.40946 0.365904,0.59939 1.88181,-0.15713 0.548708,-0.40988 -0.236052,-1.44867 2.948168,0.0536 3.653964,0.88266 1.48842,1.30251 3.108972,2.81062 3.412884,4.86001 0.526276,0.88998 0.97181,2.06558 -0.388365,2.32324 z m -1.270066,-6.33812 c -1.030248,-1.69194 -2.93442,-2.3792 -4.7137,-2.95706 -0.79887,-0.47554 1.359796,-0.24076 0.54235,-1.27126 -0.243043,-1.14137 1.250029,-2.95056 1.623236,-1.62741 -0.884566,0.52318 1.169222,2.23507 -0.292666,1.8983 0.919071,0.86278 -0.950761,1.01558 0.548746,1.3035 0.922715,-0.48472 0.07748,-0.87932 0.456079,-1.71912 -0.762623,-0.0888 0.893699,-1.45371 -0.255908,-1.21985 -0.97542,1.07051 1.303458,-1.56122 -0.238192,-0.78965 -0.610536,-0.97573 1.452924,-0.57561 0.08587,-1.38405 -2.409965,-0.0159 1.231917,-2.85748 -0.953036,-2.07517 -0.677679,-0.006 0.514794,-1.95628 -0.137403,-2.08558 0.541951,1.18535 1.637711,2.297 1.952636,3.27381 1.070239,0.72922 2.06429,2.29077 0.385563,2.84204 1.543257,-0.36053 1.154149,3.23641 1.03528,4.54475 0.76624,0.7026 1.585654,3.90798 -0.03886,1.26675 z"
         id="path306" /><path
         style="fill:#295a52;stroke-width:0.264583"
         d="m 95.689417,202.71243 c -0.548199,-2.04754 -1.249171,-4.24523 -0.739063,-6.36472 1.007259,-1.02349 1.412828,1.01616 0.214945,1.13275 -0.250185,1.42183 1.218652,0.93613 0.75937,-0.15017 0.683555,0.33189 2.205447,2.07804 1.251154,0.2926 -0.742357,-0.78781 -1.136934,-3.09193 -2.181765,-2.33141 -0.04045,-1.86051 0.943517,-3.61459 1.513743,-5.36325 1.175311,-2.73115 2.15329,-5.63781 3.951229,-8.02994 0.65674,0.0113 -0.13794,-1.87437 0.53401,-0.19796 0.25882,3.11437 0.0828,6.32225 -0.69402,9.35443 -0.648493,1.1485 -0.0938,-0.77184 -1.031669,-0.59708 1.458249,-0.1183 1.177869,-2.68682 -0.115542,-1.04317 -1.182244,1.30957 -1.759843,2.81717 -3.245766,3.85505 -0.1525,1.27433 1.544334,-1.60286 2.5371,-0.63916 0.495839,1.44924 -0.543966,3.66412 -0.314209,5.46436 0.444479,1.28355 -1.754586,1.17037 -0.565646,1.53917 -0.524377,0.78919 -1.045796,3.15886 -1.873871,3.0785 z m -5.543031,-6.94212 c 0.22121,-0.52007 -2.076958,0.69289 -0.454718,-0.33073 0.857059,-0.0642 0.785525,-1.56058 -0.1923,-1.15316 0.969647,-1.16496 -0.552506,-1.24148 -1.050969,-0.52177 0.412061,-0.88888 -1.457934,-0.80216 -0.371208,-0.062 -1.601471,0.4345 0.0096,-2.78051 -1.428782,-0.93919 -0.288632,1.32672 -1.7967,-1.4999 -1.823952,-2.08386 -0.948284,-0.24474 -1.406458,1.50772 -2.170663,0.38218 -0.638365,-1.34541 -2.593977,1.26756 -1.866841,-0.56951 -0.77163,-1.02271 -0.404137,-2.03305 0.982172,-1.5128 0.718877,-0.34342 0.958161,-0.50184 1.207089,0.29572 0.856933,-0.90486 1.761889,0.81614 3.119187,0.3525 0.986405,0.51054 0.674981,-1.43798 1.503146,-0.12948 0.826762,0.44929 0.85465,1.93665 0.832315,1.87508 1.56401,0.60487 2.256883,2.94541 2.222167,4.58654 -0.194006,0.38127 -0.812253,0.32139 -0.506643,-0.18954 z m 2.720282,-0.31511 c 1.022172,-0.38601 -0.700856,-2.32299 0.601384,-0.99318 0.931729,-0.36391 -0.398687,-2.96239 -0.124086,-4.14827 -0.332525,-0.84012 0.671277,-0.72793 -0.217915,-1.59836 0.04828,-1.95798 2.335228,-2.73218 2.482738,-4.75312 0.537081,-0.40328 1.611156,0.026 1.913248,-0.36246 -0.152055,3.69992 -2.5128,6.7887 -3.227292,10.36149 -0.14155,0.49837 -0.822523,2.32686 -1.428077,1.4939 z"
         id="path304" /></g></g></svg>
