<?xml version="1.0" encoding="UTF-8" standalone="no"?>
<!-- Created with Inkscape (http://www.inkscape.org/) -->

<svg
   width="42.371754mm"
   height="38.229492mm"
   viewBox="0 0 42.371754 38.229492"
   version="1.1"
   id="svg357"
   xml:space="preserve"
   inkscape:version="1.2.2 (732a01da63, 2022-12-09)"
   sodipodi:docname="acaule-natural_medium.svg"
   xmlns:inkscape="http://www.inkscape.org/namespaces/inkscape"
   xmlns:sodipodi="http://sodipodi.sourceforge.net/DTD/sodipodi-0.dtd"
   xmlns="http://www.w3.org/2000/svg"
   xmlns:svg="http://www.w3.org/2000/svg"><sodipodi:namedview
     id="namedview359"
     pagecolor="#ffffff"
     bordercolor="#666666"
     borderopacity="1.0"
     inkscape:showpageshadow="2"
     inkscape:pageopacity="0.0"
     inkscape:pagecheckerboard="0"
     inkscape:deskcolor="#d1d1d1"
     inkscape:document-units="mm"
     showgrid="false"
     inkscape:zoom="3.1358025"
     inkscape:cx="89.450787"
     inkscape:cy="59.952756"
     inkscape:window-width="2560"
     inkscape:window-height="1369"
     inkscape:window-x="-8"
     inkscape:window-y="-8"
     inkscape:window-maximized="1"
     inkscape:current-layer="layer1" /><defs
     id="defs354" /><g
     inkscape:label="Calque 1"
     inkscape:groupmode="layer"
     id="layer1"
     transform="translate(-56.877859,-176.65047)"><g
       id="g490"
       transform="translate(-36.871875,-1.434375)"><path
         style="fill:#a3d0cd;stroke-width:0.264583"
         d="m 101.88126,216.18763 c -0.87975,-2.28506 0.06,-4.82233 0.92105,-6.97578 0.76826,-1.47546 2.17703,-4.31862 4.20531,-3.34368 1.2853,0.43313 2.14434,-2.62056 3.42852,-0.63649 0.49446,0.6245 2.92293,2.4107 1.35481,0.73109 -1.09163,-1.31101 -3.48997,-2.67474 -4.16224,-0.21586 -1.97051,-1.19911 -3.71905,0.74834 -4.76025,2.29986 -1.86358,0.43028 -3.781151,-1.15432 -5.090058,-2.42774 -1.417534,-1.58785 -2.382192,-3.66686 -2.478498,-5.8029 1.446343,0.009 3.079209,2.40604 5.021756,2.50227 1.11052,0.0494 3.54424,1.30452 3.92703,0.93983 -2.53602,-2.79522 -5.958,-4.6044 -8.457204,-7.42366 -0.508633,-0.84339 -2.530675,-2.92799 -1.931995,-3.21055 2.015768,0.92345 3.996091,2.13592 6.299349,2.08576 2.65581,0.14204 5.69359,0.70879 7.20398,3.16357 1.18673,1.49004 2.06269,3.12084 2.64872,4.93019 0.9362,1.36706 -0.42618,-1.86408 -0.55428,-2.46324 -1.58605,-5.36195 -1.10883,-11.00796 -1.27682,-16.52852 1.22003,1.45434 2.44357,2.97531 3.10664,4.75042 0.19743,0.68094 -0.53936,0.78141 0.20838,1.5181 0.33015,3.72627 -0.18316,7.53557 0.66599,11.21076 0.91938,1.46559 -0.10996,-1.89244 -0.0612,-2.42784 -0.35952,-4.16309 -0.21234,-8.46689 1.24755,-12.42255 0.66465,-2.45691 1.12967,-4.96446 1.40823,-7.49386 1.46889,4.40605 1.42298,9.11782 1.77483,13.70538 0.26711,1.12749 -0.65271,2.01097 -1.02899,3.00619 -1.72004,3.43799 -2.98814,7.35968 -2.13696,11.22481 0.27549,1.27257 0.28095,2.75043 0.97896,3.83804 -0.60328,-3.41675 -1.47162,-6.99172 -0.3308,-10.40085 1.15931,-4.2891 3.75572,-7.98028 5.35859,-12.09453 1.08486,-2.22718 0.69795,1.85389 0.75869,2.67241 0.0249,4.64145 -0.6238,9.34663 -2.5785,13.59397 -0.64228,2.66393 -2.1951,4.9778 -3.09391,7.54333 1.47849,-2.18972 2.13582,-5.05338 4.24651,-6.78387 1.37156,-0.0349 2.68691,0.6982 4.00243,-0.33279 2.07408,-0.0886 2.77148,2.50163 3.83497,3.86294 0.51958,1.09603 2.70728,2.23956 0.28609,2.28304 -2.49394,-0.0962 -4.25399,-1.99359 -5.88768,-3.63809 -0.41958,-0.99865 -2.67771,-0.55409 -1.01254,-0.34507 0.71014,0.38864 2.02145,1.06803 0.64479,1.50086 -2.17238,1.35892 -3.5939,3.67708 -5.83466,4.90638 -0.74006,0.0117 -1.94339,0.78808 -2.25116,-0.26226 -1.04476,-1.71136 -2.27898,-3.30007 -3.69623,-4.71886 0.28427,-0.77847 1.09121,-2.09061 0.88811,-2.55401 -0.89579,1.75617 -1.71645,3.66497 -3.52641,4.68258 -1.98199,1.38169 -2.03306,4.21909 -3.92446,5.65613 l -0.20024,0.0218 -0.14634,-0.12667 z m 15.42731,-10.3449 c 0.77809,-1.9833 1.69404,-3.93299 2.13866,-6.03866 0.66409,-2.23761 0.7984,-4.59481 1.34602,-6.84725 1.13934,-2.20859 3.1148,-4.42865 5.8001,-4.39801 2.46316,-0.25736 5.01547,0.21558 7.42273,-0.41837 1.14878,-1.31011 2.85067,-0.22271 1.74965,1.26338 -1.13247,2.82933 -3.60682,5.13357 -6.67109,5.63132 -2.78797,0.56491 -5.89107,1.21681 -7.63949,3.69693 1.6228,-1.16166 3.58888,-1.79865 5.60541,-1.75731 2.32924,0.0236 4.64367,-0.2781 6.86317,-0.98461 1.70966,0.17505 -1.19603,2.65872 -1.69787,3.49491 -2.15093,2.58978 -5.31441,4.08081 -8.45477,5.09476 -1.67942,0.0653 -3.15812,1.05001 -4.84572,0.22729 -0.62177,0.11566 -1.01736,1.1501 -1.6168,1.03562 z m -9.39653,-7.64748 c -1.09389,-2.10905 -3.32856,-3.04543 -5.45083,-3.72613 -2.43407,-1.80315 -2.884321,-5.1076 -3.27678,-7.91016 -0.182854,-2.64823 -0.456846,-5.29548 -1.118651,-7.87102 0.09147,-1.84623 1.997651,1.08979 2.498271,1.58044 2.56877,3.21414 4.86679,6.62977 7.14021,10.05551 0.14289,2.8016 0.36217,5.60581 0.91197,8.35663 -0.075,0.62433 -0.62907,-0.42047 -0.70419,-0.48527 z"
         id="path504" /><path
         style="fill:#6db6b0;stroke-width:0.264583"
         d="m 101.86504,215.9832 c -0.59413,-3.4172 0.51751,-7.21209 3.03453,-9.6305 0.85256,-1.06815 1.86819,-0.61845 2.73815,-0.2042 0.7676,-1.24186 1.88274,-2.30246 3.03416,-0.68303 0.57719,0.70012 2.64658,2.01983 1.0513,0.45929 -1.08642,-1.5156 -3.22458,-2.34673 -4.22609,-0.32854 -1.786,-0.93742 -3.33842,0.63378 -4.32904,2.03505 -0.30275,1.03364 -0.96687,0.73595 -1.68338,0.28588 -2.640698,-1.1974 -5.393869,-3.25422 -5.696902,-6.36241 1.77569,0.2556 -1.504055,-2.9537 0.506205,-1.27648 2.271809,1.87462 5.260057,2.58589 8.090167,3.1462 -0.20661,-1.08771 -2.50342,-2.40164 -3.67553,-3.4086 -2.761168,-1.96206 -5.404429,-4.31396 -6.947305,-7.38163 1.899266,1.07096 3.892381,2.08848 6.131292,2.1175 2.576503,0.31264 5.701363,0.43163 7.238403,2.90039 1.15748,1.53885 2.26442,3.10135 2.71207,5.00882 0.31423,1.29376 1.06993,1.15437 0.43329,-0.086 -1.52489,-3.89137 -2.18291,-8.09839 -1.89337,-12.26958 0.0649,-2.13015 -0.002,-4.26351 -0.24472,-6.37753 1.00548,1.13871 2.30229,2.62385 2.71724,3.89003 -1.46446,-0.86939 0.6777,1.2486 -0.79041,0.38634 -1.51006,-0.70752 -0.52951,1.92939 0.60044,1.90088 -0.84985,1.37184 0.43887,1.31289 0.91593,0.39993 -0.61393,1.50812 -0.15669,3.12757 -0.12774,4.84592 0.18228,2.15165 0.0579,4.55115 1.01187,6.49883 0.20028,-1.56191 -0.53656,-3.3647 -0.4988,-5.05075 -0.37536,-1.27976 0.13824,-2.80893 0.89843,-3.36601 -1.40276,-1.05994 -0.52405,-4.46928 0.48844,-4.93159 0.74484,0.77521 2.12991,1.21187 0.74479,0.0178 -1.2299,-0.11722 -0.71664,-3.20471 0.13491,-1.87259 0.51922,0.52019 1.03844,1.04038 1.55766,1.56057 -0.60498,-1.20671 -2.14678,-2.10714 -1.82673,-3.56844 0.28977,-0.85404 0.23161,-3.5368 1.22358,-2.56751 -0.71516,-0.45864 -0.5005,-2.62419 0.15637,-1.01522 0.61386,4.12276 0.94919,8.28277 1.19004,12.44283 -1.93668,3.87343 -4.06296,8.03124 -3.31305,12.50254 0.25585,1.33137 0.35989,4.33163 1.1567,4.51356 -0.82731,-3.96433 -1.46762,-8.31765 0.37274,-12.11312 1.53485,-3.71505 3.41298,-7.27483 5.05397,-10.94136 0.49165,2.35194 0.44031,4.88345 0.21413,7.29692 -0.4283,3.66917 -1.53498,7.20776 -2.80053,10.66033 -0.21607,1.80382 -1.62759,3.28194 -2.19018,5.04056 -0.57005,0.98522 -0.69204,2.25662 0.1191,0.54719 1.11856,-2.15304 2.06379,-4.51944 3.99993,-6.08788 1.20776,0.99317 2.50739,0.7508 3.7596,-0.0454 1.98031,0.30769 2.55506,2.75118 3.66099,4.14745 0.53584,0.97444 2.29747,2.12118 0.0889,1.9547 -2.98453,-0.10555 -4.39557,-3.21746 -6.89979,-4.32407 -1.88206,0.25406 2.92433,1.03887 0.39849,2.12663 -1.73155,1.33827 -3.12,3.0633 -4.83028,4.4149 -1.17398,0.75809 -1.76945,-1.10845 -3.05331,-0.71496 -1.12022,-1.32861 -2.08732,-2.81349 -3.43838,-3.94217 0.23045,-0.70452 1.28162,-2.38062 0.79162,-2.45382 -1.01802,1.82143 -1.88616,3.70081 -3.77942,4.76875 -1.90868,1.29079 -1.68828,4.38622 -3.83299,5.3054 l -0.14743,-0.17179 z m 16.10637,-11.50682 c 1.68917,-3.62278 2.04773,-7.65743 2.92112,-11.50691 0.74997,-1.58074 2.52611,-4.1185 4.27902,-3.71989 0.5261,1.12736 0.18003,2.81322 1.28075,2.78294 -0.18631,-1.03318 0.0924,-1.76513 1.051,-1.82827 -0.70857,-1.15741 1.77297,1.26686 1.02051,-0.51047 -0.88945,-0.48556 0.55669,-0.35693 0.54498,-0.66141 1.64658,-0.76075 4.01058,-0.0552 5.73744,-1.22465 2.53913,-0.85368 0.28484,2.98761 -0.42486,3.95615 -2.04546,2.79599 -5.67002,3.24324 -8.78444,4.03947 -1.44276,0.26577 -3.96818,2.13267 -3.92087,2.95896 1.60363,-1.21905 3.58052,-1.79164 5.59182,-1.6865 2.25133,0.14064 4.42192,-0.49363 6.60832,-0.87476 0.76509,1.15543 -1.61,2.99775 -2.49664,4.10031 -2.15342,1.93992 -4.78668,3.3932 -7.54527,4.26703 -1.66993,-0.12735 -3.19645,1.24707 -4.70792,0.004 -0.65346,0.4458 -2.28468,2.03393 -1.28575,0.16662 l 0.13079,-0.2628 z m -9.93943,-6.24521 c -1.19969,-2.02589 -3.40978,-3.13301 -5.58637,-3.78481 -1.79606,-1.52193 -2.49414,-3.99459 -2.920969,-6.24446 -0.246669,-1.75694 -0.386292,-3.57032 -0.121704,-5.32827 0.660223,0.55569 1.491443,0.93638 2.289453,1.13871 0.49814,1.21514 -0.15099,1.28657 -1.03934,0.62706 -0.4305,0.0352 0.6402,0.86166 -0.46178,0.38783 -1.036965,-1.4851 -0.821147,3.34306 0.79441,1.53063 1.03891,-0.0998 0.53911,-1.37905 1.56043,-1.05074 -0.18067,-0.81881 0.003,-2.54912 0.96218,-1.15974 1.60278,1.93785 2.84995,4.13301 4.21021,6.2411 0.14965,2.62691 0.21409,5.28022 0.87177,7.84229 0.16719,1.02971 -0.45949,0.0508 -0.55829,-0.1996 z m -7.88045,-12.15436 c 0.80849,-1.78275 0.8961,0.89434 -0.0153,0.19307 z m -1.602362,-5.6973 c -0.44915,-0.97954 -0.895731,-3.33404 0.669408,-1.60051 1.364444,0.83054 1.682984,2.79054 0.180419,3.31902 -0.494609,0.0319 -0.64494,-1.3241 -0.849827,-1.71851 z"
         id="path502" /><path
         style="fill:#55aaa3;stroke-width:0.264583"
         d="m 101.87455,215.94438 c -0.54656,-3.04912 0.38187,-6.35903 2.25901,-8.80912 0.85494,-1.43456 2.44187,-1.4751 3.68491,-1.01358 0.6816,-1.86608 2.26682,-1.66155 3.33047,-0.22724 0.64411,0.8497 2.09346,1.54164 0.69388,0.15498 -1.06508,-1.1836 -2.9637,-3.02994 -4.04633,-0.82171 -1.06393,0.56812 -2.89822,-0.52717 -3.68339,1.22986 -0.77711,1.30003 -1.71804,2.38299 -3.24014,1.16682 -2.261007,-1.07373 -4.280469,-2.95824 -4.891086,-5.45635 0.126866,-0.87999 1.487917,-2.02147 1.519063,-0.60053 -1.042879,0.21748 0.977034,0.97628 1.13925,1.16104 0.834838,-1.76929 0.439762,1.90236 2.063583,1.18188 2.10991,0.95389 -2.060431,-2.00061 0.46168,-1.14247 0.83369,-0.17748 3.57341,1.54373 3.17846,0.28185 -2.91693,-2.94433 -6.793133,-4.9076 -9.270286,-8.29102 0.06085,-0.35392 1.813926,-0.28778 0.344151,-0.83419 -0.0547,-0.47151 2.661763,0.9581 3.752313,0.84212 2.524802,0.32549 5.501672,0.0839 7.322092,2.24177 1.7506,1.70071 2.72155,3.97613 3.63244,6.19109 1.18038,1.20627 -0.61598,-2.35825 -0.61569,-3.04159 -0.98122,-3.23312 -1.36295,-6.613 -1.09433,-9.98067 0.15981,-1.94869 -0.10811,-4.65344 -0.15608,-6.11857 0.61571,0.9851 3.70287,3.6428 1.13442,3.8641 -0.59297,1.26264 1.36055,2.05913 0.66629,3.22411 0.83233,0.838 1.71303,-1.7627 1.25749,0.19272 -0.62101,1.63955 0.33704,3.91075 0.19509,5.78767 0.22761,1.29013 0.17602,4.29381 1.12121,4.45954 -0.47467,-2.49194 -0.65635,-5.06929 -0.52189,-7.60124 0.79735,0.24954 1.86757,-1.71269 0.48534,-0.76297 -1.02849,-0.62378 -0.0601,-1.94795 0.74357,-0.92103 -1.62171,-0.8286 -1.10385,-4.79582 0.99358,-3.06983 2.42749,0.84596 -2.79459,-2.30569 -0.28537,-2.56977 0.46649,0.40365 1.59485,2.6674 1.37593,0.85763 -0.3692,-0.83617 -1.27738,-1.45596 -1.60189,-2.24835 0.31999,-1.07217 0.33104,-2.36884 1.25023,-3.11678 0.47198,-1.71135 0.67959,1.83767 0.47075,2.12215 -1.45508,-0.89142 -0.55913,0.92267 0.19262,1.06714 0.47355,2.59923 0.51453,5.26128 0.77271,7.89048 -1.71562,3.62141 -3.62448,7.4036 -3.47948,11.50602 0.24857,1.99474 0.46288,4.03307 1.11747,5.93884 0.93459,-0.0735 -0.52292,-2.57201 -0.31342,-3.58351 -0.50279,-3.45274 -0.11287,-7.04938 1.4953,-10.17873 1.55714,-3.22194 3.19399,-6.40848 4.57192,-9.71374 0.37625,3.58714 0.48019,7.24685 -0.47719,10.76102 -0.4971,2.52317 -1.37328,4.94148 -2.24054,7.349 -0.10081,1.89276 -1.66689,3.40924 -2.26753,5.22098 -0.59341,0.82038 -0.46105,2.61134 -1.68432,1.84475 -1.92258,0.30822 -2.50153,-2.72365 -3.97966,-3.68082 -0.76035,-0.61615 1.80117,-3.62834 0.0557,-2.49493 -0.65002,2.15522 -2.12817,3.70594 -3.89308,5.00955 -1.56078,1.32421 -1.42351,3.82285 -3.18846,4.90805 l -0.17496,-0.0518 -0.17579,-0.12457 z m 12.80365,-2.84769 c -0.0562,-1.85298 1.37345,-3.54127 2.11853,-5.21514 0.79053,-1.59193 2.18548,-3.57561 4.04674,-2.16455 1.95889,-1.31215 4.11073,-0.24048 4.82308,1.91412 0.30999,1.16969 1.33284,2.13768 1.71731,3.11771 -0.47317,0.56306 -3.24145,-0.28889 -1.52751,-0.16159 1.41115,0.31318 0.0293,-1.1161 -0.32319,-1.56035 -0.60027,0.78601 -1.18306,-0.61374 -1.33007,0.72795 -1.81077,-0.24379 -2.80023,-2.87093 -4.78626,-3.15138 -1.17606,0.58661 2.91573,0.98749 0.67399,2.22416 -1.68168,1.3779 -3.24105,2.90228 -4.79615,4.40472 -0.20526,0.14648 -0.48437,0.0663 -0.61647,-0.13565 z m 3.26646,-8.56752 c 1.73134,-3.62269 2.13631,-7.66535 2.98131,-11.53832 0.66077,-1.69174 2.06582,-3.15928 3.69448,-3.94044 0.55753,0.37871 0.87262,1.58987 1.01005,2.416 -1.07403,0.82423 2.16937,2.6415 0.4408,0.92157 -1.34937,-0.94132 2.01323,0.96289 0.68922,-0.58099 -1.06101,-2.04812 1.18498,-1.08898 1.25852,-0.82903 0.3863,-1.02224 2.24912,0.269 2.04001,0.3205 0.46316,-0.63511 -1.16594,-1.49419 0.42444,-1.81905 -0.49475,-0.70234 -2.2637,1.43417 -1.08939,-0.18593 1.85685,-0.8836 4.0908,-0.42803 5.86657,-1.64828 1.42824,0.61388 -0.48721,3.25972 -1.17563,4.34548 -1.65369,2.26074 -4.49287,2.95897 -7.10197,3.40125 -2.17807,0.38974 -4.55835,1.57193 -5.52204,3.51874 1.64975,-1.30578 3.76032,-1.81572 5.84563,-1.82734 2.10323,0.0967 4.15609,-0.32764 6.19036,-0.78329 1.81425,0.0149 -0.89383,2.29815 -1.23963,3.01336 -2.01741,2.46691 -4.99857,3.89791 -7.89996,5.05544 -1.78149,0.12708 -3.63699,1.45704 -5.15345,0.14823 -0.8217,0.3011 -2.38064,2.17854 -1.38638,0.26798 l 0.12706,-0.25569 z m -9.74634,-6.0494 c -1.00109,-2.15368 -3.31742,-3.24499 -5.4608,-3.94074 -1.48453,-0.0233 -0.76866,-2.43955 -1.39818,-2.3399 0.17174,2.15287 -1.19543,-1.4216 -1.30572,-2.13982 -0.615321,-0.95785 1.3822,0.10735 0.42269,-0.93192 0.59626,-0.59799 0.006,-2.29547 -0.533851,-1.06835 0.930391,0.38383 -0.932821,1.57657 -0.511081,-0.10474 -0.106963,-0.81502 -0.06864,-2.98267 0.346093,-0.96383 0.877319,0.26918 1.996499,-0.72035 2.877069,-0.0839 0.81891,-0.666 -2.01946,-1.8408 -0.25665,-1.04541 1.85575,0.93294 -0.87507,-3.15667 1.01736,-1.58259 1.57612,1.98848 3.10342,4.07872 4.21968,6.35813 0.28929,2.22989 0.13326,4.52461 0.70714,6.72867 0.061,0.26805 0.39433,2.48506 -0.12375,1.11441 z m -8.19737,-14.01326 c -0.18599,-0.86577 -0.947723,0.82607 -0.616067,-0.46513 0.530581,0.22779 2.371157,-0.27061 2.087027,0.75388 -0.76218,-1.11455 -1.15264,0.53631 -1.47096,-0.28875 z m -1.194867,-3.50105 c -0.604118,-0.98318 -1.114425,-4.16189 0.576295,-1.90518 0.734272,0.50344 1.755642,2.4375 0.199112,1.0772 -1.319713,-1.24664 1.11272,2.2167 -0.626959,1.04986 l -0.148448,-0.22184 z"
         id="path500" /><path
         style="fill:#46a39b;stroke-width:0.264583"
         d="m 101.85876,215.69634 c -0.44383,-2.4226 0.3411,-4.932 1.3291,-7.13604 0.86865,-1.4246 2.49096,-3.75418 4.32334,-2.30117 0.62221,-0.63346 2.13936,-0.32895 1.07393,-0.95643 1.03149,-2.06184 3.23,2.07811 3.8792,1.44944 -0.98659,-1.04613 -2.92437,-3.88318 -4.27999,-1.94367 -0.65444,1.41625 -1.34575,0.0974 -1.84394,0.1127 -0.74652,0.24067 -2.59327,1.66198 -1.38401,-0.10188 -0.19931,-1.11009 -1.60896,0.0909 -0.72618,0.69884 0.006,0.37089 -1.36253,3.72223 -3.06529,2.20893 -2.087201,-1.08735 -4.473183,-2.59566 -4.898157,-5.0808 1.144589,-0.49556 1.999466,0.33022 2.308788,1.1637 0.957658,-0.2275 2.291529,0.41347 1.35381,1.09722 0.664889,0.80912 1.167339,0.86054 1.380229,0.0952 1.10402,-0.53794 -0.78895,-0.0947 0.19921,-0.80633 -0.0914,-0.58614 -1.543691,-2.29151 -0.19378,-1.04879 0.0967,0.74248 2.01716,2.5235 1.44147,1.45824 -0.17789,-0.4288 -1.63926,-2.38155 0.0166,-1.49047 0.81918,0.56612 2.73984,0.81481 1.20074,-0.49214 -2.19403,-2.09022 -4.774452,-3.7146 -7.066212,-5.69031 0.802755,-0.12937 1.297149,0.003 1.130881,0.3928 2.273911,0.98633 0.375866,-1.99816 -0.735852,-2.02579 -1.045627,-0.72504 -0.940603,-1.32424 0.294202,-0.74658 2.976981,0.63262 6.583621,0.0238 8.896671,2.4113 1.47464,1.78219 3.02105,3.80531 3.27887,6.16573 -0.93373,0.54855 1.34917,0.9334 1.44293,1.36086 -1.59233,-3.41539 -2.82166,-7.10846 -2.73264,-10.92383 -0.0742,-3.14949 0.0507,-6.36458 -0.30634,-9.47181 0.7583,0.82464 2.52229,2.66528 2.16099,3.36434 -0.4667,0.007 -0.19012,0.78087 -1.06504,0.46485 -0.48054,2.24381 1.77909,3.33172 1.89963,5.33763 0.5076,2.79155 0.0446,5.77715 1.18783,8.43648 0.527,-0.82439 -0.45057,-3.37135 -0.26133,-4.84831 -0.32749,-1.65163 0.088,-2.70664 1.15685,-3.77357 -0.53338,-0.99127 -0.88393,-0.60881 -0.32211,0.0352 -0.97666,0.0879 -1.16954,-1.54695 0.19115,-0.99288 -0.32277,-1.43406 1.60649,1.26536 0.9799,-0.88021 -0.44157,-1.0833 -0.61003,-0.51385 -0.53548,0.13989 -2.13061,0.36874 -0.90415,-4.19759 0.63795,-2.10135 2.44268,0.79746 -1.44463,-1.31414 0.0798,-1.90113 -0.21911,-0.45523 -1.56315,0.574 -0.40782,-0.54078 1.56115,-0.26042 -0.49148,1.70875 1.14334,1.59994 1.00766,0.57947 0.38928,-2.26681 -0.51396,-2.49609 -0.54143,-0.58922 -0.48007,-2.9863 0.29401,-1.33834 -0.87961,0.44688 1.05008,1.6154 0.6508,0.29302 0.81829,1.51828 0.49853,3.54599 0.7752,5.26361 0.0419,1.13529 0.24166,2.30212 0.18439,3.41759 -1.98624,3.87243 -4.00877,8.13043 -3.24014,12.59386 -0.0582,1.7559 1.27117,4.17708 -0.0253,5.5473 -0.91831,1.79956 -2.40118,-1.66352 -3.27875,-2.36318 -0.47551,-0.51112 -1.16339,-0.98633 -0.54062,-1.68313 0.50848,-0.76907 0.93914,-3.00639 -0.21027,-1.24842 -0.42013,1.99452 -1.82497,3.45153 -3.54706,4.45512 -1.45043,1.45567 -1.66179,3.74502 -3.1561,5.15725 -0.24737,0.1912 -0.51244,-0.1229 -0.55538,-0.33767 z m 12.84846,-2.67336 c 0.15011,-1.9416 1.31939,-3.67953 2.21494,-5.37755 0.55226,-1.02965 1.34876,-1.88319 2.22724,-2.63988 1.19629,0.81119 2.48443,0.82401 3.7124,0.0339 1.87199,0.12219 2.97302,2.16751 1.57192,3.50067 -0.19766,3.04324 -2.60968,-0.89366 -3.75555,-1.44966 -0.78784,-1.21755 -2.76664,-0.0653 -0.75039,0.173 1.34966,0.53019 1.2019,1.07953 -0.0322,1.57859 -1.64327,1.42547 -3.04408,3.17002 -4.85061,4.38847 -0.15416,0.0612 -0.28507,-0.0859 -0.33775,-0.2075 z m 4.71802,-7.12289 c -0.77575,-1.33234 -1.47266,1.99553 0,0 z m -5.55626,5.60018 c 0.84277,-2.60385 0.61683,2.03829 0,0 z m 12.82745,-0.9338 c 0.33619,-0.72947 -1.28169,-1.33866 -0.0444,-1.07331 0.40596,0.409 1.36659,1.8188 0.0444,1.07331 z M 114.5486,210.3234 c -1.13154,-3.75111 -1.39009,-7.93882 0.10207,-11.64049 1.43393,-3.7343 3.40159,-7.2352 5.11021,-10.84243 0.48573,1.86362 0.41314,3.93352 0.36995,5.88379 -0.3927,3.02621 -0.98491,6.07227 -2.10787,8.91782 -0.6479,0.89866 -0.0229,-1.75223 -0.65521,-0.26323 0.15321,1.54469 -0.20527,3.13111 -0.52982,4.40944 -0.90694,0.77112 -1.19463,3.71577 -2.28933,3.5351 z m 3.38961,-5.65177 c 1.76917,-3.63756 2.09765,-7.73643 2.97313,-11.63091 0.67178,-1.73041 2.36496,-3.52601 4.01624,-4.04242 -0.39212,1.0816 1.4976,2.44549 -0.47526,2.17983 0.40396,1.28123 2.96772,3.37124 2.46699,0.63646 -0.78905,-0.81377 1.03973,-0.38683 0.0356,-1.33447 0.4677,0.0355 1.04277,1.34077 1.13633,0.3145 0.89179,-0.31729 2.06416,0.35562 0.94671,0.84984 0.71382,0.692 1.18365,-1.00115 1.78391,0.003 0.0242,-0.35605 0.0361,-1.55019 -0.49986,-0.77875 -1.67644,-0.91546 1.72441,-1.29704 0.0458,-1.59235 -1.54973,-0.65475 3.17144,-0.70298 1.62949,0.78782 0.38624,0.64992 0.0551,2.06287 0.74129,0.6527 -0.50473,-1.53397 -0.16191,-2.42991 1.5724,-2.64836 1.36623,-1.28965 1.90113,0.16491 1.18724,1.3334 -0.97427,3.34431 -4.2446,5.40513 -7.5738,5.78067 -2.54099,0.35265 -5.23241,1.48284 -6.60713,3.74862 1.72829,-0.99631 3.73217,-1.96744 5.87335,-1.83495 2.01096,0.0814 3.99716,-0.24523 5.95098,-0.67744 1.84674,0.69009 -1.29388,3.1526 -2.10158,4.13412 -1.97137,1.81654 -4.4804,2.95107 -6.95842,3.89783 -1.80464,-0.11865 -3.36181,1.45438 -4.89293,0.0539 -0.92036,0.3831 -2.38672,2.13111 -1.25052,0.16641 z m -21.375338,-2.54071 c 0.0526,-1.17102 1.315018,-1.26567 0.548253,-0.15417 0.204816,0.42497 -0.434985,0.49968 -0.548253,0.15417 z m 11.626698,-3.71439 c -1.03431,-1.96869 -2.98595,-3.24625 -5.1206,-3.73772 -0.92117,-0.0143 -2.90533,-2.99109 -1.19582,-1.69415 0.74123,-0.75677 1.3422,0.57318 1.47926,-1.00177 1.03637,-0.87542 -0.69566,-1.59247 -0.61623,-0.26053 1.06253,1.46475 -1.90216,0.0583 -2.30407,-0.46056 -0.913536,-1.37698 0.42272,-1.49863 1.14545,-0.68961 -0.43248,-1.01151 -1.645169,-1.47172 -0.73132,-2.70369 -1.051941,-0.89947 0.73694,-1.27149 1.21721,-1.06033 1.17214,1.50827 1.89729,-0.90437 0.69303,-1.79744 0.67756,-0.30763 0.18231,-0.61661 0.2661,-0.88951 1.91539,1.82739 3.14673,4.25122 4.6772,6.40004 0.21956,1.24642 -0.0371,2.62108 0.17846,3.90262 -0.0353,1.31578 0.86817,3.68143 0.4388,4.34664 l -0.12749,-0.35394 z m -8.627351,-9.95063 c -0.494141,-1.00319 0.0094,-2.37839 0.24563,-0.58845 0.0041,0.12103 -0.0126,0.81018 -0.24563,0.58845 z m 15.100511,-5.42801 c -0.8099,-1.18593 1.98165,-0.42149 0.37499,0.20641 z m -16.231221,-3.36938 c -0.677288,-1.23276 0.09607,-2.10128 0.923728,-0.64953 0.632356,0.66596 1.752653,2.29357 0.227835,0.7934 -1.21698,-1.29066 0.552798,1.90664 -0.758917,0.84973 -0.183042,-0.30788 -0.287012,-0.65417 -0.392646,-0.9936 z"
         id="path498" /><path
         style="fill:#2d968e;stroke-width:0.264583"
         d="m 101.86492,215.51364 c -0.46122,-2.47559 0.37806,-5.0824 1.59807,-7.21249 -0.21878,0.96348 0.49921,2.35561 1.15418,1.0201 1.16596,-0.13811 -2.19499,-2.15767 0.15133,-2.48332 0.36993,-0.82781 2.05629,-1.31816 2.02497,-0.62645 -2.15369,-0.199 0.0579,1.32567 0.4407,2.15408 0.82991,0.81679 1.77736,-2.72181 1.37264,-0.68958 -1.15269,2.18887 -3.64763,3.24889 -4.65531,5.55274 -0.24218,0.59797 -1.3452,4.1317 -2.08658,2.28492 z m 12.85866,-2.46157 c 0.0362,-1.93013 1.4924,-3.58131 2.04793,-5.40839 0.26883,-0.77085 2.46258,-2.73568 2.27357,-2.20962 -1.08393,0.68142 -0.90287,2.16594 0.64406,1.77576 0.6102,0.11018 0.64766,1.55636 0.7659,0.43841 0.97518,0.93204 -2.16046,2.00362 -2.62023,3.15147 -0.89435,0.55517 -2.0854,2.65739 -3.11123,2.25237 z m -2.17752,-1.07247 c -1.02959,-0.37478 -1.8177,-1.75608 -2.73468,-2.70572 -0.67923,-0.48141 -0.84097,-1.05403 -0.3331,-1.74468 0.69461,-0.84392 0.59312,-3.72835 -0.09,-1.4972 -1.48997,1.03291 0.40877,-0.7083 -0.43193,-1.24658 1.45967,0.1691 2.20998,1.7484 3.58976,2.15359 -0.7222,-1.65495 -1.65337,-2.41013 -3.48203,-2.96101 -0.85743,0.32803 -1.70549,1.34838 -1.78699,1.6572 -0.50319,-0.43886 -2.97111,-0.69335 -1.677,-1.43906 0.63924,0.54476 1.82914,1.3216 0.94748,-0.11302 0.26206,-0.97099 -1.77233,-2.17976 -1.43233,-0.41691 -0.29272,0.81316 -1.55914,-0.0253 -0.43976,-0.14293 0.0868,-1.6433 -2.76488,-1.63622 -2.56844,-3.64333 -0.52827,-0.66353 -1.25143,0.0854 -0.40884,0.0741 -0.84729,0.67652 -3.590345,-2.1173 -3.431615,-2.18838 1.775775,1.50555 1.019787,-1.2856 0.660928,-1.87913 0.945754,-1.54114 2.932997,-0.83791 4.553467,-0.61327 2.74007,0.55544 4.2508,3.14896 5.54644,5.37368 0.67644,1.05589 0.82651,4.52357 2.34515,3.61636 -0.50962,-0.36541 -0.4971,-1.25301 0.0618,-0.34693 -0.61509,-1.27679 -2.00982,-2.709 -2.12572,-4.54042 -1.23901,-4.50326 -0.73615,-9.20911 -0.85969,-13.82326 -0.0763,-0.88389 -0.0436,-1.47887 0.59948,-0.45596 0.54587,0.68164 2.48955,2.99205 0.64484,1.98958 1.2786,1.18564 -0.59863,0.36315 -0.51394,1.04988 -0.64534,1.05402 1.03888,1.90175 0.38694,3.08289 2.1093,-0.11802 0.51943,2.54568 1.64676,3.63506 0.37923,2.25562 0.11905,4.67967 1.06507,6.80553 0.95569,-0.19272 -0.42684,-2.997 -0.14444,-4.20017 -0.21175,-1.73515 -0.2376,-3.24336 1.08506,-4.34204 -0.13322,-0.80493 -1.60426,-0.70031 -0.20345,-0.96787 1.62816,1.00569 1.24106,-1.5035 0.61595,-2.03818 0.9154,-0.0303 1.3956,-0.0495 1.68706,-0.36699 0.44291,0.0898 -0.23638,-0.76314 0.42146,-1.21786 0.14327,-1.00177 1.06493,1.99886 -0.0186,1.90266 1.26789,1.62189 0.34395,3.99822 -0.56705,5.64862 -1.08957,2.05405 -1.53704,4.35088 -2.32922,6.50792 -1.30075,0.92953 0.7834,1.28297 0.22306,2.66947 -0.20432,1.58488 1.40328,3.77882 -0.26529,4.63288 -1.20948,-0.17202 0.52034,1.56623 0.52176,0.24626 0.33841,0.68887 -0.40321,2.13667 -0.68299,2.14599 l -0.0753,-0.30028 z m -7.93749,-11.71325 c -0.97324,-2.05583 -1.43709,1.09773 0,0 z m -3.50487,-1.83087 c -1.382675,-0.85155 -0.7336,2.28243 0.0876,0.57631 0.10335,-0.1852 0.0572,-0.42742 -0.0876,-0.57631 z m 8.9933,-3.82644 c -0.76585,-1.00035 -1.59736,-0.57973 -0.36084,0.28028 0.21768,0.96238 0.89669,0.2579 0.36084,-0.28028 z m 4.46865,15.73605 c -0.90392,-2.76546 -1.07208,-5.78961 -0.71845,-8.67474 0.7621,-4.93262 4.00845,-8.95485 5.75445,-13.53882 0.37917,-1.28646 0.31428,0.13439 0.38719,0.71508 0.57091,4.70945 -0.44892,9.45156 -1.95332,13.89524 -0.0544,0.0913 -0.32055,-3.00584 -0.66128,-0.74172 0.22111,2.23463 -0.47437,4.34862 -1.40329,6.36135 -0.41657,0.42472 -0.73037,2.45407 -1.4053,1.98361 z m 8.48874,-1.11752 c -0.84052,-0.58885 -0.87994,-1.21692 0.075,-0.69554 -0.46552,-0.8077 -0.9319,-0.70392 -1.07389,-0.3967 -0.66716,-0.74628 -2.60012,-1.83186 -2.2033,-2.65687 1.70625,0.85563 3.99917,-1.80047 5.00706,0.95436 0.78589,0.7523 -0.86776,0.92406 -0.43375,2.10743 -0.12476,0.77047 -0.66683,1.5541 -1.37114,0.68732 z m -21.8854,-1.61261 c -1.394598,-0.52532 0.92112,-0.38007 -0.0671,-1.30808 0.65677,-0.98107 3.01363,0.45149 2.24112,-1.25998 1.45361,1.19037 -0.72227,4.14038 -2.17399,2.56807 z m -1.65921,-0.79073 c -0.388944,-0.92959 -1.959898,-0.95659 -2.514656,-2.42099 -1.683341,-1.15424 1.145145,-1.80001 0.79593,-0.26096 0.374422,1.71427 2.055002,-0.56709 1.997326,1.33486 -0.433351,0.45894 0.93846,2.27228 -0.2786,1.34709 z m 18.4679,-2.16454 c 1.53709,-3.36459 2.2362,-7.03526 2.72909,-10.6793 0.3456,-2.23423 2.15314,-3.8553 3.93058,-5.05166 1.0234,0.40536 -0.2538,0.99806 -0.40786,1.13959 1.17183,0.51923 1.12822,0.71034 0.13774,1.18638 -0.94032,0.784 0.97972,1.4932 1.53693,1.8327 1.12756,-0.20727 0.89887,0.79809 1.70351,1.01334 0.7883,-0.51209 -0.87535,-2.78257 0.54478,-1.70733 0.79615,-1.39253 1.9346,0.73459 2.23171,-0.009 1.27375,-0.22826 -1.76244,-0.39578 -0.12079,-1.07833 0.55901,-0.58539 0.39861,1.28672 0.80938,-0.12205 0.0307,-1.03126 -1.17382,-0.70996 -0.13814,-1.26838 1.02343,-0.76178 -1.77968,-0.76526 0.0526,-1.04801 1.90099,0.0754 0.76721,1.62351 0.80944,2.23756 1.40668,1.03474 1.83663,-1.52112 0.85774,-1.41691 -0.98785,-1.84509 2.15485,-0.60376 1.72684,-1.369 1.19535,-2.02261 1.84646,0.63426 0.81124,1.52527 -0.7086,-0.88677 -2.11276,-0.25088 -0.56942,0.24417 0.75213,1.47802 -2.02422,3.46428 -3.48063,4.0942 -3.0862,1.26405 -6.95493,1.03939 -9.28227,3.79763 -1.13299,1.25514 -0.18441,1.17312 0.65148,0.2877 2.99599,-1.71805 6.62255,-0.72914 9.83438,-1.69529 3.03356,-0.57878 0.11232,2.73355 -0.83848,3.51416 -2.01043,2.11634 -4.76885,3.31218 -7.44456,4.34673 -1.52651,-0.31649 -3.51084,1.65534 -4.37922,-0.0731 -1.13489,-0.13495 -2.85848,2.7419 -1.70609,0.29938 z m 3.56423,-0.22071 c -0.39056,-0.61988 -0.95483,0.9021 -0.86534,-0.59063 -1.23775,-0.74357 0.47681,2.14772 0.86534,0.59063 z m 1.6162,-0.6993 c -0.26468,-1.46269 -1.95111,-1.44176 -2.19982,-0.33073 0.68839,-0.90921 1.41329,0.0823 1.15958,0.17295 0.50826,-0.37617 1.49803,1.26417 1.04024,0.15778 z m 0.99923,-2.02219 c 1.0563,-0.84315 -0.46083,-0.39804 -0.69297,-0.28421 0.67251,-2.60455 -2.18894,1.48983 0.14211,0.52366 l 0.27464,-0.10366 0.27622,-0.13578 z m 1.75019,-0.62769 c -0.66533,-0.63279 0.006,-2.18772 0.0661,-2.04599 1.54008,0.0977 -1.15423,-0.9537 -1.78104,-1.12378 -0.28201,0.92867 -1.07074,2.61869 0.52731,2.68207 0.48689,-0.40017 0.92336,1.2913 1.18759,0.48769 z m -2.94489,-8.59491 c 0.31364,-1.39974 -0.27595,-0.88124 -0.50978,0.0828 -0.86643,0.693 0.55592,0.60593 0.50978,-0.0828 z m -20.36248,11.2559 c -1.21248,-1.48205 0.40739,0.12852 1.2012,-0.31674 -1.07948,0.33423 0.59139,1.8015 -0.8914,0.68282 l -0.15491,-0.17336 -0.1549,-0.19272 z m 4.83592,-6.42989 c -1.06039,-1.59932 -2.88775,-2.32946 -4.67093,-2.76343 -1.66625,-0.0425 -0.73454,-2.37199 -0.14095,-1.46727 0.31121,0.63268 1.4253,1.03695 0.458,-0.0619 0.39286,-0.87541 0.82802,-1.62451 0.39961,-2.64514 0.79709,-0.55715 1.10978,-0.0629 0.8953,0.45988 1.47958,-0.25097 -0.84608,-1.06724 -0.22965,-1.90642 -0.70948,-0.43358 0.77151,-1.22129 -0.6737,-0.72908 0.0912,1.14157 0.15443,1.75255 -0.952,2.59016 0.93706,0.14929 -0.62096,1.79751 -1.54751,0.85539 -1.533793,-0.30633 -0.24311,-2.83952 0.0154,-0.94397 1.00006,0.44411 0.60099,-1.49049 1.93234,-0.59953 -0.16377,-0.72526 -0.89063,-2.03736 -0.83288,-0.73966 -1.30419,0.64655 -1.02042,-1.30823 -0.94203,-2.17593 0.70471,-1.08281 2.60372,1.79165 2.43935,0.10747 0.15334,-0.53863 -0.24495,-1.57061 -0.60116,-2.41327 0.48818,0.69833 1.79655,2.06825 0.80652,0.36323 -0.28865,-1.16688 1.32766,1.52325 1.72014,2.0336 0.70099,1.14161 1.56723,2.2325 2.16666,3.40629 -7e-5,2.64868 0.24353,5.29056 0.78952,7.88198 -0.39695,-0.36504 -0.69701,-0.83174 -1.03205,-1.25236 z m 8.08655,-9.91814 c -0.91999,-1.42772 0.99414,-0.78289 0.3638,0.38571 l -0.12051,-0.11763 z"
         id="path496" /><path
         style="fill:#178c82;stroke-width:0.264583"
         d="m 101.81333,214.89639 c -0.15671,-2.19499 0.53054,-4.468 1.54943,-6.38207 -0.26463,0.69288 0.0998,2.17509 -0.1095,2.83213 0.84247,-1.20046 1.26595,1.06998 1.76098,-0.63048 1.26926,-0.30874 -1.07135,1.5188 -0.99439,2.27197 -0.71213,0.65079 -0.79694,3.6816 -2.01078,2.76482 -0.0919,-0.2788 -0.15173,-0.56666 -0.19574,-0.85637 z m 12.93459,-1.98309 c 0.1727,-1.89656 1.47065,-3.58809 2.24966,-5.32486 0.23808,-0.73939 1.60137,-2.60647 1.20689,-0.58829 -0.10736,1.08121 1.63035,-0.13442 1.17189,1.12446 0.68059,-0.10601 1.52959,0.41295 0.32437,0.46353 -1.30863,1.71238 -2.87845,3.24756 -4.54209,4.61038 l -0.17242,-0.0838 -0.2383,-0.20145 z m -4.64925,-3.27433 c -0.28077,-0.36701 -1.61258,-1.68281 -0.48953,-1.29733 -0.205,-1.3595 0.43896,-0.62962 0.51071,-0.27469 0.47663,0.0508 -0.27833,1.51325 0.7778,1.95456 1.07368,1.38811 -0.4641,0.16598 -0.79898,-0.38251 z m 4.3339,0.0538 c -0.52621,-2.05768 -1.01445,-4.22929 -0.72769,-6.35485 0.78855,-0.0806 1.93648,-0.83064 0.28238,-0.60931 -0.6873,-1.70224 0.97745,-3.97683 1.50332,-5.77846 1.32697,-3.05558 2.87528,-6.00717 4.33154,-9.00167 0.57713,3.60944 0.17251,7.28047 -0.70509,10.80761 -0.10636,0.82477 -0.24228,1.573 -1.00927,0.68801 -1.96266,-0.94297 0.44614,1.34908 -0.72222,2.20146 -0.0199,2.08979 -0.12526,4.06066 -1.11354,6.0072 -0.4548,0.51961 -1.34724,4.28259 -1.83943,2.04001 z m 1.28509,-5.14784 c -1.42481,-2.02388 -0.59527,1.16535 0.76359,1.35403 -0.14245,-0.49532 -0.4981,-0.91814 -0.76359,-1.35403 z m 2.75721,-6.0308 c -2.52737,-2.62108 1.02261,2.28911 0,0 z m -12.43094,10.84717 c -0.50592,-2.17815 1.88655,1.02851 0.11833,0.84884 -0.14031,-0.26319 -0.0954,-0.56564 -0.11833,-0.84884 z m 7.06729,-0.57619 c -1.0806,-0.25807 -1.91879,-0.30778 -2.29342,-1.60946 -0.66997,-0.40005 0.37867,-2.11966 0.83905,-0.57718 1.22159,0.95351 1.28463,0.032 0.25744,-0.61148 0.0537,-0.93975 -0.20854,-1.15061 -0.39001,-0.57107 -0.58831,-0.98961 1.41083,-4.07354 -0.1837,-4.04807 -0.89149,0.45949 -0.75629,0.85195 -0.43087,1.70171 -1.1605,-1.36679 -1.32884,-3.31543 -1.82198,-4.99654 -0.25613,-1.69492 -0.9441,-3.60226 -0.50928,-5.2319 0.91065,0.53822 -0.4238,1.86223 0.99241,2.57422 0.70327,0.40991 0.25605,2.18097 1.1402,0.81793 -0.0421,-0.45825 -0.59857,-2.11245 -0.91093,-3.04009 -0.55143,1.67606 -0.62648,-0.69182 -1.33629,-1.0755 0.0547,-1.17779 -0.17238,-3.3868 0.5805,-3.94038 -0.0158,0.96809 0.5013,2.48168 0.15871,2.51305 0.87478,-0.003 -0.91382,2.10951 0.38174,0.88468 2.17948,-0.40467 0.0713,2.23473 1.59541,2.95727 -0.26926,1.88957 0.37323,3.63528 0.56258,5.50142 -0.18748,0.9537 1.36013,3.2154 0.90187,1.03693 -0.42085,-2.19514 -0.66626,-4.4909 -0.44056,-6.71562 1.46649,-0.14057 0.60564,-2.40132 1.78946,-1.78761 0.52913,-0.62508 0.28348,-3.03505 1.08922,-1.48934 0.67469,0.40145 0.68104,-0.88435 1.11694,0.45014 0.47297,2.95677 -1.79367,5.28753 -2.45977,8.01754 -0.14685,1.9773 -2.13535,3.58232 -0.69531,5.29647 -0.10135,1.35353 0.60998,3.25733 0.34127,4.20077 l -0.27468,-0.25791 z m -11.08233,-0.78889 c -0.94802,-1.03716 0.7847,-1.82301 1.07356,-1.12645 0.63787,-0.56239 1.42706,-1.37332 0.54988,-0.1793 -0.43481,0.50856 -0.76112,1.76548 -1.62344,1.30575 z m 21.10052,-1.27998 c -0.58326,-0.56792 -1.17746,-1.61545 0.16685,-0.94691 1.50669,0.5818 1.31322,2.7746 -0.16685,0.94691 z m 1.187,-0.66545 c -0.69872,-0.66326 -2.96898,-1.33299 -0.73521,-0.83968 0.66948,0.22058 1.94718,2.06946 0.73521,0.83968 z m -1.00795,-2.15963 c -0.53613,-1.30908 1.13097,-2.43851 2.30443,-2.1593 -0.98526,1.0116 1.19078,1.54278 1.1041,0.69761 -2.21803,-1.19367 2.09614,-1.82396 0.39816,-3.19487 0.66437,-0.94162 0.20335,-2.62976 1.84474,-1.81546 1.42221,-0.31195 3.17117,-0.86333 4.52888,-0.88671 -0.99731,0.6111 0.30826,1.90227 -1.08393,2.5949 -2.20577,2.70051 -5.51841,4.00791 -8.53925,5.5452 -0.31952,-0.09 -0.40297,-0.53742 -0.55713,-0.78137 z m 6.6918,-3.19419 c -0.90346,-0.5882 0.40893,-2.40212 -0.47627,-3.10747 -0.73123,0.3756 -1.52828,1.82584 -0.1522,0.89377 -0.0462,0.75647 -1.65181,1.62973 -0.16919,1.47238 -0.83179,0.76122 -0.58567,2.62359 0.59992,1.02106 l 0.19774,-0.27979 z m -10.87843,3.53533 c -0.0453,-1.58781 0.13553,-3.63602 0.86088,-5.31746 0.36611,-0.81411 -0.22379,2.04166 0.50087,0.67327 0.57845,-1.72091 0.35076,1.36609 1.09487,-0.45164 1.12402,-0.95303 3.93105,-2.78763 4.76805,-1.08732 -0.83252,0.24651 -2.59054,-0.96793 -2.60272,0.90186 -0.66508,1.31935 -1.21575,2.60154 -2.67104,2.83201 0.20349,0.59525 1.31328,-0.77704 0.24787,0.58979 -0.6726,0.90629 -2.00774,0.51273 -1.63855,1.71994 0.0358,0.27131 -1.17284,0.59366 -0.56023,0.13955 z m -10.27993,-0.44337 c -0.67659,-0.22981 -2.79276,-0.2742 -1.18779,-1.09708 0.86574,0.59872 0.20877,-1.86352 0.75803,-1.74772 0.11932,-1.27177 -1.09405,1.40569 -1.77711,0.30772 -1.22249,-0.16903 -2.18124,-2.25575 -3.20691,-1.46371 0.59735,1.85776 -2.00841,-0.20375 -0.0674,-0.49477 0.25445,-0.75735 1.71979,-1.80105 0.0697,-1.13366 -0.73411,0.87015 -1.07302,1.29316 -2.1216,0.2464 -2.144073,-1.15166 -0.49236,1.53971 -0.92121,1.14556 -1.22463,-0.62717 -1.66684,-2.87603 -0.459608,-3.67682 0.04106,-0.81391 2.425838,-1.2953 1.496798,3.2e-4 -0.13343,1.35017 2.48985,0.14934 0.75772,-0.15021 -0.12714,-1.51265 2.79611,0.10697 3.63516,0.66863 1.50374,1.53356 2.95924,3.29971 3.5466,5.39864 0.64213,0.7445 0.48149,1.88905 -0.52236,1.9967 z m -3.43958,-4.08415 c -0.5769,-0.37599 -0.74671,-2.03217 -0.85472,-0.43721 0.0207,0.31097 0.73539,1.11164 0.85472,0.43721 z m 20.26508,0.59772 c -0.32863,-1.46419 2.73658,-0.1642 0.54931,0.0419 -0.17676,0.0169 -0.38985,0.0744 -0.54931,-0.0419 z m -18.09556,-2.85169 c -1.02436,-1.76092 -3.03229,-2.32154 -4.7646,-3.05169 1.10607,-0.24893 0.19715,-1.8925 1.00758,-2.66014 0.4348,-0.82844 1.06895,-0.39125 1.71149,-1.29461 0.88674,-0.79281 -2.41446,-1.12214 -0.65194,-2.38217 1.2786,-1.22264 -1.53373,0.34763 -0.69874,-1.14864 0.66242,-0.67124 -0.50161,-2.24915 0.55599,-0.66364 0.79995,1.27268 1.22383,2.37774 2.28924,3.37477 0.9291,0.97318 0.44335,1.42598 -0.44465,2.01374 1.52974,-0.33239 1.12517,3.23772 1.03197,4.54985 0.77087,0.6882 1.58825,3.90977 -0.0364,1.26253 z m -2.00461,-2.82589 c 0.10562,-1.28708 0.18835,-2.23663 0.1459,-3.58916 -0.82929,0.0115 -1.34683,1.98457 -0.31889,0.86382 -0.68577,0.90722 0.26959,1.81784 -0.63962,1.7387 0.86134,0.77904 -0.89016,0.79037 0.43938,1.28962 l 0.19624,-0.0943 0.177,-0.20869 z m 15.71009,3.39086 c 0.46699,-0.67659 1.24088,-0.73296 0.0132,-0.93546 -0.56852,-0.40567 -1.01837,0.81215 -0.0607,0.3355 -1.86587,1.35676 -0.34212,-2.4775 -0.51994,-3.44098 0.26697,-1.81603 1.77782,-3.46835 3.14522,-4.45851 -0.40739,1.71843 -2.17412,2.48456 -1.88003,4.26395 -0.13063,0.64169 -1.24421,3.20508 0.13883,1.62297 0.96137,-0.48831 0.6184,-3.23338 1.4037,-2.75777 -0.21151,0.94323 0.99464,1.22884 0.81771,2.23949 2.00399,0.64836 -1.51879,1.79323 -1.98801,2.59181 -0.21031,0.0974 -0.91805,1.01862 -1.06998,0.539 z m 3.84513,-3.32132 c -1.26184,-2.65182 2.15309,-0.57117 2.14703,0.48253 -0.69616,-0.84262 -0.96055,-0.0484 -1.38974,-0.0151 0.21335,0.85272 -0.76744,-0.26246 -0.75729,-0.46747 z m 3.49707,-0.0623 c 1.79089,-1.15345 -1.7699,0.0156 -0.38533,-1.52075 0.5686,-0.52512 0.12474,-1.62663 0.55095,-0.21437 -0.0771,1.87477 0.80456,-1.20153 1.91527,-0.0668 0.70585,0.6147 1.06412,0.96639 1.40096,0.11299 0.83409,0.42097 1.59734,-0.99475 0.28846,-0.40525 0.0972,-0.61791 2.36495,-1.84584 1.79256,-0.79401 -1.26113,1.94691 -3.60539,2.96149 -5.86107,3.10535 l 0.0289,-0.068 0.26931,-0.14911 z m 2.51189,-2.24802 c -0.77879,-1.12427 1.34649,0.60889 0.46495,-0.74875 -0.12898,-1.12933 1.38635,1.3871 -0.46495,0.74875 z m 1.6836,-3.152 c -0.48358,-1.24389 2.18533,-0.58074 0.56701,-0.20001 0.92972,0.49389 -0.39336,0.96337 -0.56701,0.20001 z m -31.38144,-0.90444 c 0.0189,-0.65408 1.51402,-0.19911 0.30822,-0.98463 0.75151,0.008 1.77686,1.18297 0.48553,0.92802 -0.0602,0.42574 -0.88353,0.71173 -0.79375,0.0566 z m 32.98295,0.14717 c -0.13596,-0.85789 1.94364,-0.9258 0.68874,-0.33266 0.77948,0.7069 -0.37669,0.86942 -0.68874,0.33266 z m -24.66282,-0.69939 c -1.19046,0.30194 -1.42845,-1.24571 -0.99338,-1.75965 0.64178,1.14554 0.22099,-1.35451 0.98509,0.0629 0.81571,0.77745 0.77854,1.56121 -0.22207,0.52012 -0.40352,0.27907 1.20983,2.06138 0.23036,1.17662 z"
         id="path494" /><path
         style="fill:#11897f;stroke-width:0.264583"
         d="m 114.77894,212.85514 c 0.63642,-2.25211 1.70908,-4.40225 2.91998,-6.40348 0.90152,-0.88983 -0.36659,1.74691 0.90599,1.39342 0.21586,0.77924 1.45463,0.88271 0.18252,1.75206 -1.18079,1.25205 -2.32867,2.57155 -3.71195,3.60139 l -0.15508,-0.10087 z m -0.32628,-3.22848 c -0.41632,-1.96652 -1.04392,-4.01458 -0.7456,-6.03175 1.28244,-0.68568 0.90742,1.65593 2.09798,2.1048 0.92922,1.69519 -0.44999,3.40802 -1.06686,4.98528 -0.0952,-0.35278 -0.19035,-0.70555 -0.28552,-1.05833 z m 0.73924,-4.06935 c -0.44162,-1.28234 -1.76999,-0.99902 -1.04754,0.38954 0.17398,0.53445 0.94482,-0.11509 1.04754,-0.38954 z m -2.29085,2.54827 c -0.53188,-0.46014 -3.00649,-2.76368 -1.10633,-1.37548 1.63642,1.07256 0.60803,-0.51988 0.10081,-1.15616 1.35598,-0.53502 -1.30017,-2.3824 0.40322,-1.67648 0.78542,1.28007 1.00639,3.07771 0.83885,4.48715 l -0.23655,-0.27899 z m 3.56666,-1.41058 c 0.24721,-1.51178 -1.12033,-2.96762 -1.76426,-4.18428 -1.93641,0.11446 -0.0845,-2.84083 0.0589,-3.93891 1.34773,-2.86696 2.604,-5.88318 4.24641,-8.55012 -0.3973,2.49419 0.80508,-0.11438 0.82924,-0.0177 -0.003,2.35108 0.0765,4.74156 -0.38612,7.05497 -0.32107,1.0886 -0.094,-2.25449 -1.18104,-0.84555 -0.56039,-0.69533 -2.72063,-0.0206 -0.98603,0.40933 1.77222,-0.51107 -1.90874,1.0952 -0.68844,1.73195 -0.0338,1.59967 -0.42958,0.70413 -0.61075,0.33778 -0.90241,0.4919 -2.316,3.8949 -0.42006,1.89836 0.3707,-0.59424 2.70221,-1.07689 1.92765,0.56799 -0.82146,1.86563 0.24108,4.38265 -1.18852,5.92123 l 0.1629,-0.38504 z m 1.58006,-12.73531 c 0.14666,-0.71437 1.04727,-0.69028 0.20578,-0.0856 0.48085,0.98886 1.14937,-1.43897 1.41539,-1.94077 0.0255,-0.53085 -0.78159,0.26218 -1.03948,-0.33241 0.20929,0.62352 -2.35266,2.18196 -0.55487,2.67804 l -0.0268,-0.31928 z m 5.40883,9.92973 c -0.87275,-1.69257 1.26132,-0.21384 1.96213,-1.09244 0.4079,0.64927 2.77776,-0.70536 1.14153,0.45759 -0.93041,0.17319 -2.95899,2.48769 -3.10366,0.63485 z m 3.77708,-1.506 c -1.85904,-0.50123 -0.11537,-2.15308 0.328,-1.20084 0.0582,-1.22913 -0.55303,-2.97708 1.08925,-3.20025 0.19657,0.47907 -1.02222,1.43916 0.2282,0.97963 -0.55895,0.80049 -1.17468,4.34781 0.48602,2.45932 0.63414,-0.33112 0.52573,-1.75239 1.15653,-0.68719 -0.0661,-1.38886 1.98488,-0.84713 0.31,-0.041 -1.11858,0.62158 -2.17263,2.34068 -3.598,1.69035 z m -14.69446,-2.05014 c -0.60519,-1.02355 0.50106,-2.32124 -0.23537,-2.58557 0.28243,-1.0561 -0.55591,-1.85086 0.14929,-2.66589 0.13894,-1.46492 1.59962,-1.23268 1.66479,-2.52076 -0.0248,-1.27042 1.34787,-1.51139 2.05845,-1.21591 0.48019,2.75591 -1.57945,4.95696 -2.27165,7.47451 -0.36708,0.81348 -0.89238,4.31498 -1.29936,1.81867 l -0.0662,-0.30502 z m -2.13758,1.04859 c -1.24712,-1.37733 -1.28779,-3.47388 -1.61963,-5.23893 -0.18909,-0.81183 -0.19453,-2.7279 0.29551,-0.85118 -0.15215,1.29305 0.87377,0.56751 1.09302,1.76377 1.64171,0.26201 0.2338,1.80945 0.37204,2.45082 -1.18925,-0.71851 -0.13517,1.69308 0.57148,1.96799 -0.24225,0.0795 -0.47891,-0.0576 -0.71242,-0.0925 z m -2.87424,-0.53478 c -0.77872,-0.27408 -0.89388,-1.20334 -1.22898,-1.49108 -0.57607,1.18695 -1.33412,-1.08996 -1.60923,-1.3017 -0.64847,-1.1433 1.13859,-0.52009 1.5248,-1.34467 0.92061,0.44283 1.17219,2.11763 1.1146,2.09927 0.88998,0.0566 2.2483,2.4215 0.82172,1.56375 -0.13251,0.0614 -0.47947,0.7942 -0.62291,0.47443 z m -3.00426,-1.0934 c -1.03126,-0.67242 -0.40342,-1.68198 -0.009,-0.33647 0.68345,0.46968 1.40261,1.60763 0.009,0.33647 z m 6.36928,0.56354 c 0.52132,-0.56464 0.27228,-2.50913 0.67199,-0.73357 0.5485,0.63955 -0.70842,1.13066 -0.67199,0.73357 z m -11.238964,-1.9174 c -0.01669,-0.99354 -1.060161,-2.57269 0.748534,-1.71998 0.88528,-0.28558 1.86,-0.0613 2.08586,-0.0657 0.12727,0.82883 1.69575,-0.33193 0.61818,0.89952 1.38082,-0.1612 -0.83818,1.92566 -1.29129,0.96095 -0.71074,-0.74245 -1.903573,-0.004 -2.292977,0.42916 0.04386,-0.168 0.08801,-0.33597 0.131693,-0.50399 z m 8.394694,-0.22924 c -0.47987,-1.11899 -2.29923,-2.57129 -1.41382,-3.73917 0.52173,0.37573 1.68212,0.60217 0.97346,1.36911 -1.97245,-0.65041 1.82501,1.84854 0.44036,2.37006 z m -3.09294,-1.50635 c 0.0659,-1.34894 -0.93578,0.49985 -1.0113,-0.80757 -0.93235,0.49583 -2.6445,-0.91152 -0.70896,-0.52782 0.70477,-0.2316 3.35181,1.39076 1.72026,1.33539 z m 17.38045,0.15843 c 0.40439,-0.83478 2.69369,-0.9532 0.79146,-0.0986 -0.19114,0.0653 -0.79621,0.60427 -0.79146,0.0986 z m -18.85157,-2.06989 c -1.94863,-0.62636 1.33796,-0.29924 0.60183,-1.79988 -0.59481,-1.25172 1.11507,-1.9027 0.42535,-0.43785 0.30561,0.82116 0.56938,3.07466 -1.02718,2.23773 z m 2.82906,-0.84422 c -0.48265,-0.74783 -0.25524,-0.84323 0.45635,-0.45702 1.74644,-0.81423 -0.0441,0.83642 -0.45635,0.45702 z m 2.19134,-0.62652 c 0.24907,-0.73822 0.1347,-0.76351 -0.14309,-1.43975 0.93421,-0.619 0.61542,2.33947 0.14309,1.43975 z m 24.14992,-0.21189 c 0.22973,-0.89545 1.95553,-1.50308 0.66733,-0.24951 -0.22924,0.34623 -1.67701,1.05516 -0.66733,0.24951 z m -11.64167,-0.0842 c 0.11601,-0.90309 2.33035,-3.06989 1.0416,-1.19521 -0.44466,0.21116 -0.29304,2.12574 -1.0416,1.19521 z"
         id="path492" /></g></g></svg>
