<?xml version="1.0" encoding="UTF-8" standalone="no"?>
<!-- Created with Inkscape (http://www.inkscape.org/) -->

<svg
   width="69.046745mm"
   height="150.49171mm"
   viewBox="0 0 69.046745 150.49171"
   version="1.1"
   id="svg1789"
   xml:space="preserve"
   inkscape:version="1.2.2 (732a01da63, 2022-12-09)"
   sodipodi:docname="arbustif-elance-natural_tree.svg"
   xmlns:inkscape="http://www.inkscape.org/namespaces/inkscape"
   xmlns:sodipodi="http://sodipodi.sourceforge.net/DTD/sodipodi-0.dtd"
   xmlns="http://www.w3.org/2000/svg"
   xmlns:svg="http://www.w3.org/2000/svg"><sodipodi:namedview
     id="namedview1791"
     pagecolor="#ffffff"
     bordercolor="#666666"
     borderopacity="1.0"
     inkscape:showpageshadow="2"
     inkscape:pageopacity="0.0"
     inkscape:pagecheckerboard="0"
     inkscape:deskcolor="#d1d1d1"
     inkscape:document-units="mm"
     showgrid="false"
     inkscape:zoom="0.78395062"
     inkscape:cx="-148.6063"
     inkscape:cy="190.06299"
     inkscape:window-width="2560"
     inkscape:window-height="1369"
     inkscape:window-x="-8"
     inkscape:window-y="-8"
     inkscape:window-maximized="1"
     inkscape:current-layer="layer1" /><defs
     id="defs1786" /><g
     inkscape:label="Calque 1"
     inkscape:groupmode="layer"
     id="layer1"
     transform="translate(-117.65346,-98.698509)"><g
       id="g1922"
       transform="translate(83.025,-1.35)"><path
         style="fill:#d6e6ca;stroke-width:0.264583"
         d="m 77.375304,250.23006 c -1.521308,-11.34112 -2.438535,-22.79036 -2.455542,-34.23527 0.617264,11.53304 1.592261,23.05596 2.630949,34.54543 l -0.175404,-0.31016 z m -11.527387,-0.57941 c 1.905024,-10.92359 2.910121,-21.97221 3.974385,-32.9944 -0.270505,11.17363 -1.611416,22.43186 -3.914018,33.38502 l -0.06036,-0.39062 z m 2.500312,-33.50774 c -3.099868,-1.73043 -7.022118,-1.40062 -8.20403,-2.8601 -2.375343,-1.27231 -6.402289,-0.86425 -8.000765,-4.76763 -1.879719,2.20527 -3.63403,-3.1611 -5.844552,-4.07852 -3.845779,-0.52991 5.209213,-6.54698 -1.905155,-5.12719 2.023355,-2.96698 0.300362,-3.22025 -1.825639,-5.47915 -2.471428,-2.13785 -1.583663,-5.87815 -4.090389,-8.31103 -0.36949,-2.14351 -1.578881,-3.38773 -1.082721,-4.37001 0.173749,-0.56642 -0.911092,-5.21967 -0.784363,-3.99366 4.00184,-1.55928 -2.358806,-3.17923 0.275407,-5.99179 -0.370325,-1.80173 -3.212809,-2.00452 -1.925087,-3.61695 -0.397033,-2.00173 2.843263,0.0404 0.06206,-2.48291 0.243936,-1.54453 -0.93858,-4.12064 1.720711,-2.64062 -0.972325,-1.8211 1.072933,-1.82318 -1.755547,-3.84539 -1.252605,-3.38758 9.112956,-1.99612 3.492757,-6.52811 -2.847794,-3.64646 -2.211012,-5.8244 -0.526313,-7.9556 2.749686,1.22835 1.781748,-1.93649 0.882131,-1.71979 -1.503545,-4.71735 4.50815,-3.01805 1.928566,-7.5007 2.901208,2.77113 4.601725,-4.7925 1.401141,-0.60009 -2.422971,0.36784 -1.688896,-3.32094 -2.426597,-6.13974 0.577497,-4.29519 4.554485,1.46871 3.093012,-3.02353 2.412186,-4.23759 1.130528,-9.06252 5.593429,-12.60401 1.299523,-3.25651 3.409543,-1.36392 4.003168,-1.86004 -1.221335,-2.51579 2.839829,1.56082 0.453825,-1.27742 2.553545,-1.67297 3.17642,-5.08129 6.163479,-4.70455 2.366282,0.58178 3.347641,-4.51196 7.781397,-4.29485 4.162381,-0.374729 10.90803,-0.945056 12.952619,1.77302 2.457752,3.76847 5.048128,3.68603 5.245897,7.6885 1.609016,2.1804 -0.04951,5.77985 1.982472,6.52689 2.742486,-3.74847 0.778538,1.88781 3.35766,2.0274 1.76688,-0.69978 0.62406,5.29836 3.298926,6.34611 3.131099,3.43785 1.895346,4.31237 3.103395,7.97478 -1.506088,-0.13314 -0.248297,4.44434 -1.817129,1.53227 0.631951,-1.20654 1.063153,-5.32076 -0.320519,-4.54911 -1.750934,2.9703 -0.254482,5.9741 0.05468,9.4219 1.007761,-2.3512 1.898043,0.45323 2.627681,-0.27288 1.158765,2.95493 4.188174,5.01727 3.761694,7.73112 -1.714767,4.45534 1.96342,7.22396 2.59968,11.70893 -0.63252,3.99784 -2.58931,8.70982 -1.60384,12.6199 0.57722,2.30854 -3.23103,3.52422 -1.52122,6.5246 -0.827598,2.09928 -4.097603,0.11405 -0.807415,2.65642 1.724295,-2.22166 -0.657405,3.8147 -0.42507,4.67086 -1.335953,0.43801 2.510025,0.95923 -0.794079,2.98833 -1.839538,4.55611 -2.3893,8.79275 -4.085871,13.67755 -0.490902,2.42269 -2.155017,2.19893 -2.875317,3.87492 -2.558716,1.9964 -5.587388,3.38222 -8.345561,4.72023 -1.955375,1.49236 -4.919614,3.01754 -7.919509,4.07934 -1.518389,-2.06905 -1.255875,-11.05933 1.113676,-15.00021 0.551664,-3.53159 5.867603,-8.75023 4.124561,-10.91978 -3.102068,0.90896 -6.696643,12.12278 -5.782395,3.65858 -0.185306,-12.57858 3.552893,-24.73843 5.267701,-37.09827 -2.907942,0.91854 -2.434579,10.78979 -4.683021,12.60773 -2.456531,-5.68036 -2.789272,-12.04437 -4.649855,-17.83685 -0.745471,5.07492 1.54216,11.23991 2.112735,16.69553 0.04141,3.02394 2.182699,6.0681 0.873409,8.99427 -0.978621,2.85539 -1.527314,6.0727 -2.888856,8.63413 -2.928112,-8.43086 -6.399551,-16.66992 -9.540016,-25.00972 -4.434213,-0.40689 1.808602,8.37097 1.959844,11.72327 2.25733,7.67021 5.566788,15.07174 7.186023,22.89896 0.0426,2.63945 0.551163,12.16515 -2.068207,5.3637 -3.407389,-5.57171 -6.639095,-11.25552 -9.915196,-16.89373 -3.838753,2.23855 3.708308,8.78736 4.621335,12.55883 3.264995,6.66247 8.295126,13.71211 6.76086,21.47068 -0.436723,0.15816 -1.049478,0.76266 -1.441697,0.20518 z M 39.125,157.86584 c -1.947624,0.44812 1.149812,-2.48643 -1.735501,-1.08306 1.190529,-0.35694 -0.552719,3.34736 1.735501,1.08306 z m 4.167187,-5.96636 c 2.46776,-1.13421 1.222068,-1.85466 0.464489,-2.7136 0.01013,-1.58575 -1.603979,-1.33047 -0.426202,-0.22936 -1.738763,0.58178 0.496689,2.59958 -0.791407,3.14144 0.246158,-0.0263 0.62237,0.0902 0.75312,-0.19848 z m -2.165293,-0.88824 c -2.049176,0.27776 1.966701,-2.19553 -0.943561,-1.02996 -3.154757,0.0261 -1.615172,1.52763 0.943561,1.02996 z m -1.883078,-2.06652 c -1.095136,-0.99621 -1.509775,1.94043 0,0 z m -0.430145,-3.02029 c -0.988032,-1.53459 -1.071534,1.78403 0,0 z m 1.188648,-5.53432 c -1.498993,-0.74746 0.25286,2.35489 0,0 z m 52.998314,-8.99048 c -1.245233,-0.80087 0.224624,2.27314 1e-6,3.8e-4 z M 50.2375,118.62082 c -1.030278,-0.97477 -0.408499,1.54207 0,0 z m 0,-0.91873 c -1.647509,-1.56496 -2.333939,-0.91091 0,0 z m 0,-0.80937 c 1.751895,-1.05597 -1.731471,-0.76891 0,0 z m -13.547707,27.74084 c -0.540121,-3.77719 1.097549,-4.64117 0.179295,-0.23141 l -0.0923,0.26696 z m 1.013393,-2.35669 c 0.03036,-3.72903 1.241138,2.18348 0,0 z m 49.309521,-29.86995 c -0.401638,-3.56087 1.297756,1.90993 0,0 z m -5.157499,-7.934 c 0.66557,-1.00065 1.406681,0.98296 0,0 z m 0.859896,-0.55121 c -0.965426,-1.91868 2.141762,1.88819 0,0 z"
         id="path1936" /><path
         style="fill:#c6dcb6;stroke-width:0.264583"
         d="m 65.855764,249.57483 c 0.417094,-2.76937 1.400875,-8.68414 1.762828,-9.36605 -0.520576,3.02975 -0.849965,6.84655 -1.762828,9.36605 z m 11.171375,-2.62379 c 0.174173,-2.00694 0.106879,2.26412 0,0 z m -0.592465,-4.85917 c -0.636617,-6.95239 0.557765,0.19966 0.448074,3.30524 -0.261747,-1.08397 -0.32501,-2.2007 -0.448074,-3.30524 z m -8.606415,-4.79812 c 0.522115,-3.94786 1.009524,-10.69958 1.572282,-13.09688 -0.399373,4.3875 -0.866779,11.36165 -1.668075,14.27097 z m 7.938744,-2.73662 c -0.295763,-3.44068 0.114934,-4.25447 0.243711,-0.47919 0.178888,2.59014 0.128049,6.33907 -0.243711,0.47919 z m -0.305131,-5.99463 c 0.143381,-4.0363 0.13437,4.045 0,0 z m -0.261091,-4.23333 c 0.140175,-4.5736 0.13115,4.58319 0,0 z m -0.263114,-5.15938 c 0.262812,-4.45932 0.06225,4.57874 0,0 z m -5.306299,0.39688 c 0.151069,-2.96264 0.142759,2.96938 0,0 z m -1.269079,-3.70283 c -3.493814,-1.05145 -6.596775,-1.93243 -8.081269,-2.62728 -0.539795,-2.58662 -4.9958,0.27872 -6.219641,-2.7015 -1.622895,-3.33897 -3.39232,0.23422 -4.353046,-3.15775 -3.004923,-0.77758 -4.11538,-5.39136 -2.32921,-7.87326 -3.933419,-1.42855 2.018344,-4.09665 -2.173168,-4.158 -0.198719,-2.72029 -0.0674,-3.64069 -1.149007,-1.72036 0.52672,-2.10205 -1.27647,-7.34878 -0.72377,-2.3189 -1.887547,-2.8004 -2.212556,-0.42764 -2.901021,-3.08311 -4.049975,-2.63621 0.05106,-4.15975 1.276819,-5.61487 -3.157459,1.4004 -4.988594,1.43743 -1.359965,-1.08644 -4.890242,1.22106 2.882212,-2.51088 -0.88564,-0.96596 -2.045194,-0.28328 2.088049,-1.27225 0.786127,-2.02003 2.5557,-0.23203 7.17387,-4.03504 3.892632,-4.18765 -1.720407,2.76038 -2.655573,0.0511 -0.522211,-1.37628 -3.128676,-0.29061 0.445154,-1.88757 0.05464,-4.20542 -0.643001,-1.66509 3.371903,-5.37278 -0.380385,-4.69652 -2.296967,0.2484 -2.397362,0.74015 -3.769317,1.60187 -0.206468,-2.36852 -6.030517,-1.91204 -2.224365,-2.15722 2.801769,-0.52738 6.582308,0.29234 5.447507,-3.24214 -0.313395,-2.94736 -0.911274,-1.97598 -1.533389,-5.69519 -2.892545,-2.49228 2.725928,-1.03039 4.425902,-3.4197 1.339535,-2.73535 -1.849649,-3.15903 -1.100759,-4.46914 -1.370816,-1.10793 0.461766,1.16634 -1.710038,0.0166 -2.108301,1.64718 0.699681,-2.35944 -0.6678,-3.25158 0.0134,-4.10212 0.566717,-3.50446 2.940219,-4.51344 -3.460548,-2.97473 1.632867,-3.39913 0.320677,-7.19906 -0.458528,3.70186 -7.733048,-0.34312 -3.850439,-3.03185 1.248441,-1.72936 -3.719183,-0.35289 0.757437,-2.00723 1.121168,1.07275 1.892451,-2.20161 4.078073,-0.25949 -1.052854,-2.38325 0.675729,-3.48539 1.341416,-1.13903 4.499154,2.62517 -3.155111,-5.77066 1.098813,-3.47786 1.699233,-1.66629 -1.949031,-1.58983 -0.02546,-2.57367 2.358941,0.6742 0.03662,5.55589 1.692295,1.48445 1.216339,0.47579 -0.799276,5.77543 0.35999,3.74757 1.251957,-2.49764 3.430166,-3.63957 3.00053,-4.92505 1.800602,-1.5621 0.584579,-3.60623 -0.07214,-1.40584 -2.080521,2.55659 0.136314,-5.71243 2.243864,-3.62644 -0.05773,-2.55826 -2.022151,-2.36135 -1.313693,-5.42281 -0.709762,-1.03094 2.113754,-3.6959 4.24112,-3.93877 2.721494,2.09437 3.248364,-5.760678 5.302323,-0.85851 1.732329,1.54814 -1.399939,-3.51483 1.565457,-3.01195 2.055787,-2.039399 1.421883,2.18736 2.227045,1.31686 0.461639,-1.32863 2.364767,1.91424 4.685632,-0.82613 1.62443,0.37171 2.709014,0.91817 1.3956,2.04805 -1.001939,0.31235 -0.706282,3.29946 0.428439,1.69715 0.583418,-0.92567 0.314838,8.51495 3.710736,4.54422 1.758588,1.05873 0.525155,-3.64084 2.305649,-3.54868 2.906622,-1.88494 0.664403,6.48502 3.617882,3.96338 -0.858973,0.86435 0.431332,2.19475 -0.621663,2.71402 0.972408,0.83493 2.1759,0.58484 2.80909,3.87967 1.294425,1.06779 1.306109,4.7867 1.501141,2.30567 0.73616,1.88191 2.424654,3.00723 0.715966,2.9428 -0.4892,2.40968 2.885914,-1.28048 1.75072,1.42643 -0.507399,0.52906 0.392938,5.63573 1.401154,7.17514 0.617363,3.71485 1.896415,3.97955 2.214057,8.54591 -1.331618,3.20036 6.720365,2.59638 3.688018,3.23415 -0.609829,3.63837 6.085857,1.45836 2.108797,5.35177 -0.738823,1.91997 0.51735,2.13398 0.84175,4.23725 3.24224,1.04027 -0.52293,4.5951 -1.097981,4.79128 -1.371614,1.61505 1.690091,2.74065 2.439051,3.40524 0.92344,1.72315 0.23212,4.56191 -0.28873,3.40155 0.11413,1.33265 0.28338,3.73656 -0.93853,6.07864 -0.864105,2.25187 -0.71176,5.11698 -1.687877,6.56263 2.617387,2.30832 -2.919358,0.94781 0.03144,4.09956 0.288495,3.41217 -0.71805,3.17095 -0.463075,6.41176 -1.063796,1.25968 -1.42933,4.64811 -2.601309,5.93582 -0.933002,3.71828 -0.137845,4.44236 -1.505856,7.67051 -1.307922,3.92027 -5.54158,6.47909 -9.450178,8.01837 -1.040605,-0.55127 -5.716742,4.96606 -8.462824,3.27218 -2.778368,5.00861 -1.902322,-5.89309 -1.879527,-7.87261 1.364702,-5.59999 4.701034,-10.58681 6.920867,-15.81522 -3.516084,-2.30747 -6.0073,9.39924 -6.929632,5.9038 0.154076,-8.22356 0.950416,-16.40079 2.72742,-24.44074 0.690869,-5.11625 2.469202,-10.18727 2.481772,-15.32684 -3.006328,2.2132 -2.303291,10.93183 -4.660866,12.58233 -2.165772,-5.46785 -2.855354,-11.38731 -4.188165,-17.05248 -2.340712,1.5107 0.999851,9.13103 1.006991,12.844 0.507135,3.68429 1.615859,7.37727 1.947333,11.02949 -1.096439,3.26854 -1.829035,6.70519 -3.15659,9.85451 -3.07453,-8.36876 -6.456999,-16.63641 -9.578321,-24.97759 -4.256699,0.6272 1.353438,7.55286 1.56388,10.98679 2.278187,7.92138 5.793341,15.51046 7.371221,23.60947 0.265928,3.45167 0.657935,11.743 -2.252903,4.77178 -3.42495,-5.39763 -6.401459,-11.079 -9.727399,-16.51872 -3.593142,3.57675 3.490298,8.50461 4.450147,12.45819 3.231738,6.79062 8.529615,13.7544 7.021352,21.69356 -0.17075,0.59082 -1.019383,0.28437 -1.351836,0.18387 z M 46.26875,189.80104 c -1.710663,-2.13983 -2.291211,2.5235 0,0 z m 6.879167,-28.52806 c -2.178379,-1.51783 -1.662711,-7.00951 -5.521446,-4.71712 -3.300725,-2.83096 -2.520462,0.40903 0.41292,0.94325 -1.998132,1.35664 3.944301,-0.56094 2.530355,2.87002 1.227396,0.40186 0.846126,3.34449 2.578171,0.90385 z m 0.90227,0.64079 c 1.099438,-2.11289 -3.027582,-3.08125 -0.240812,-0.32987 -1.975216,-0.0835 -0.53056,1.54653 0.240812,0.32987 z m -7.114263,-6.84334 c 2.344483,-3.15297 -3.285703,-0.76256 -0.459293,0.17684 z m 7.787103,-1.26765 c 1.39616,-2.65902 -2.5535,1.83192 0,0 z m 45.989253,-0.69614 c -1.014542,-1.43717 -0.720222,1.16697 0,0 z m -0.755637,-6.18201 c 0.924587,-2.76003 -1.601667,0.28135 0,0 z m -54.866522,-3.2716 c -0.781703,-2.33484 -0.277096,2.62668 0,0 z m 0.728967,-0.98997 c 1.285708,-1.95981 -1.165762,-2.51485 -1.842251,0.31965 2.255204,-1.43026 1.278161,1.85257 1.842251,-0.31965 z m 2.373501,-10.35894 c 2.034679,-1.96281 1.101201,-3.05757 -0.447524,-0.0162 -0.218924,0.31654 1.134079,0.28751 0.447524,0.0162 z m 0.721994,-2.12561 c -1.826465,-2.59987 -1.326138,0.5341 0,0 z m 0.07359,-1.39616 c 0.01271,-2.13703 -1.363363,0.34117 0.130444,0.23069 z m 32.067559,-10.81568 c 2.663389,-1.10559 3.208691,-3.10098 0.923347,-1.77663 -0.456949,-1.33309 -3.29893,2.72686 -0.923347,1.77663 z m -24.131005,-5.4901 c -1.697603,-3.07035 0.05514,1.51169 0,0 z m 25.933183,-0.0661 c -0.472318,-1.41093 -2.354155,1.47143 0,0 z M 56.5875,107.78021 c -0.721636,-2.34817 -1.307458,2.42261 0,0 z m 15.985651,-1.35122 c 1.5647,-1.28591 -2.630861,0.52333 0,0 z m -4.277839,-1.88205 c -1.86999,-2.76086 0.238388,1.53849 0,0 z m 1.852084,-0.49294 c -0.756432,-2.63704 -2.67215,0.70013 0,0 z m -27.206615,89.49273 c -2.581512,-2.36985 2.78666,-1.63177 0,0 z M 41.179116,192.693 c -0.376951,-2.2662 0.999367,-2.87255 0,0 z m -4.303074,-18.37008 c 0.665562,-1.00064 1.406684,0.98294 0,0 z m -0.132292,-5.26336 c 1.108824,-1.3817 2.117484,0.0664 0,0 z m 3.175,-7.56893 c 0.562132,-1.28409 0.826814,1.37272 0,0 z m 62.52158,-1.42557 c 0.11706,-2.54116 2.16759,0.82831 0,0 z m -1.93492,-1.62261 c -0.46819,-3.65202 1.98924,2.63014 0,0 z M 37.669863,147.93443 c 2.794449,-1.62298 -0.152968,-5.4327 2.966381,-1.70579 1.329466,1.18857 -2.070054,1.64876 -1.612461,1.47925 0.594132,-3.2549 -1.827854,2.17403 -1.35392,0.22654 z m 2.820523,-4.7125 c -0.808642,-3.0257 3.134059,0.11161 0.301895,0.43102 l -0.301898,-0.43101 z m 2.08186,-5.40118 c -0.792706,-1.40745 2.091901,0.7301 0,0 z m 0.593301,-12.43313 c 0.85181,-2.33515 0.378847,1.60261 0,0 z m 2.04487,0.11968 c 0.562125,-1.28409 0.826818,1.37272 0,0 z m -0.3577,-1.37382 c 3.17671,-2.71355 -1.152685,1.5914 0,0 z m 1.684809,-1.01249 c 1.853368,-1.09021 -0.147515,1.27507 0,0 z m -2.385443,-0.25953 c 1.224964,-1.21763 1.896349,0.58312 0,0 z M 46.26875,122.2 c 0.222739,-1.07086 -1.850601,-3.39638 -0.405504,-3.88288 0.118212,1.86793 2.617809,2.01425 0.405504,3.88288 z m 31.567922,-14.00936 c -2.757015,-1.6542 2.132563,-3.19093 0.898107,-1.51038 -2.262819,0.29196 1.567506,2.75318 -0.898107,1.51038 z m 0.712533,-2.91757 c 0.08583,-2.12636 3.159432,-0.19615 0,0 z"
         id="path1934" /><path
         style="fill:#b9d5a5;stroke-width:0.264583"
         d="m 76.497973,242.18854 c 0.174171,-2.00693 0.106876,2.26412 0,0 z m -0.259244,-2.77812 c 0.135135,-2.32075 0.135144,2.32071 0,0 z m -0.264584,-3.175 c 0.135135,-2.32075 0.135145,2.32071 0,0 z m -0.254659,-3.57188 c 0.08458,-3.02468 0.27761,3.00855 0,0 z m -7.159013,-1.32292 c 0.174172,-2.00693 0.106876,2.26413 0,0 z m 6.891729,-2.77812 c 0.151069,-2.96263 0.142756,2.96939 0,0 z m -6.627146,0.13229 c 0.174172,-2.00693 0.106879,2.26412 0,0 z m 0.269923,-2.51354 c 0.135136,-2.32072 0.135142,2.3207 0,0 z m 6.100175,-1.71979 c 0.07026,-3.53281 0.275501,3.48482 0,0 z m -5.835592,-1.19063 c 0.135137,-2.32073 0.135141,2.32073 0,0 z m 0.259244,-3.83645 c 0.17417,-2.00696 0.106881,2.26411 0,0 z m 5.300617,-0.52917 c 0.164775,-2.50351 0.100047,2.84475 0,0 z m -6.690256,-3.41754 c 0.415297,-2.66593 -4.822677,-1.32559 -3.042704,-0.56934 -2.308255,-0.61534 -3.105752,-2.49368 -4.209878,-0.96987 -1.162994,-1.36676 -1.846132,-3.70922 -3.681043,-2.86244 -2.110587,-1.55415 -0.238844,3.34921 -2.64301,-0.33524 -2.092211,-1.22081 -2.136454,-3.18464 -3.751009,-1.40619 -0.582755,-2.65054 -6.509215,-4.47203 -3.982659,-8.24627 3.071954,-1.38826 -2.661899,-2.85661 -0.122794,-4.28695 1.758246,-2.07486 -2.948937,-0.84351 -0.652966,-2.5579 -1.077699,-1.3472 -3.964915,-4.80973 0.231768,-4.20798 -1.563553,-1.07766 -5.344884,-1.42752 -7.14382,-3.0368 -1.486187,-3.69363 5.212966,-4.11944 5.053325,-5.94631 -1.890523,-1.12994 0.892376,-2.31672 -2.896171,-2.52919 2.53477,-0.46812 6.524806,-3.07295 3.626924,-4.47486 -1.958739,-0.86405 -0.275725,-2.77048 -1.326067,-3.49313 0.49033,-2.5135 2.635567,-6.63778 -0.163951,-8.7934 -2.422373,-2.44806 0.05586,-2.49032 0.488068,-3.21872 -1.356247,-0.12004 1.10092,-3.53568 -2.128767,-2.05242 -0.322237,-2.20244 -0.479297,-2.68724 1.203122,-3.143 -0.594641,-0.51385 5.281796,-3.15175 3.75777,-4.51089 1.145534,-1.65112 -0.388968,-0.51703 1.945474,-1.1876 -1.76764,-0.36841 1.930487,-2.80638 1.71427,-0.40599 0.79254,-2.10633 3.558433,-6.78825 -1.40304,-5.40772 -3.495334,4.21448 1.489097,-2.61313 -0.07942,-3.33132 -0.658751,-1.14445 -4.279578,-0.4837 -1.430917,-0.96826 2.80604,0.81978 4.725883,-4.68334 5.927857,-3.21586 3.410275,-0.86522 -4.18112,-1.50646 -1.982601,-1.89569 -0.787819,-1.97362 1.176802,-0.16249 1.670125,-1.04743 0.182218,-2.98637 1.309998,-1.47932 0.04175,-3.77636 -2.596775,-2.42392 -0.553601,0.40791 -0.79298,2.50426 -1.06349,-0.46729 -5.260806,-3.78039 -2.599803,-3.49685 -2.81575,-3.85003 3.256731,0.59604 1.704402,-0.93432 0.146248,-1.15269 0.453647,-3.04774 1.784224,-3.37336 0.904497,-3.31814 5.288282,-4.69242 4.192858,-8.37514 -0.147326,-2.82711 1.345214,-3.22284 2.224978,-4.94751 4.25303,-0.21657 -2.396431,-1.17506 1.160735,-1.6155 0.737159,-0.3434 -1.686077,-0.61364 0.09331,-1.93493 0.671934,-0.30488 1.944513,-0.0965 2.11087,0.89452 -0.188722,-3.94891 1.660315,-0.26354 3.455325,0.073 1.10251,4.34268 -0.01084,-1.52488 -0.313654,-1.25086 1.367805,-0.50342 -0.628114,-2.51427 -0.833622,-1.11724 1.196488,-4.358692 4.115926,5.50854 3.88538,1.08346 -0.601734,3.42741 1.728356,-0.0922 1.74692,1.10703 -0.835711,1.10152 -0.861924,3.82296 0.709435,1.56659 0.03634,1.75234 1.554752,-2.23974 2.00818,-0.92371 1.493602,-1.2546 -0.146699,6.23566 3.378983,4.25392 4.178493,-0.21537 1.657506,-3.9428 3.555411,-4.28039 2.793426,-1.10647 -0.774001,1.24593 0.721274,3.09361 0.296621,1.32472 -1.186398,1.91841 0.283919,3.08716 2.123554,1.19958 -2.900691,2.0361 -1.967603,3.80087 0.14739,5.71654 5.671666,-5.52875 6.172478,-0.17261 0.04886,2.21717 0.555414,4.86581 0.69008,5.67053 -0.694308,4.54993 5.939519,1.15398 3.714068,6.15316 0.562163,2.31784 -2.04913,5.36778 0.797669,1.99905 0.507858,3.21714 -1.659079,0.41938 -0.245382,3.69713 1.278945,-0.27888 -0.0085,3.16843 2.360472,2.88752 1.417972,1.75715 -0.498337,7.24113 2.2128,6.89783 3.246456,0.29875 5.14643,3.65713 1.709381,4.7787 1.539967,2.08142 3.851109,2.90872 2.084783,6.27558 -3.132275,0.7925 -0.816184,3.52487 -0.570765,5.69984 2.569811,-1.0894 4.763421,0.98213 2.352091,2.10442 0.1729,0.3475 -1.679429,3.57635 0.27995,4.2116 -0.56515,1.64922 -1.571866,6.25372 -2.482882,9.42257 0.973854,2.22241 -1.094839,1.03191 -0.08698,4.54145 -0.267017,2.88702 -2.364511,3.43385 -1.046407,6.19417 0.797679,2.18607 -0.988468,3.53376 -1.78995,5.65752 -0.538532,1.74424 -1.446008,5.27044 -1.648986,7.32438 0.287386,2.533 -4.188097,6.33154 -7.2057,7.46159 -1.848793,-1.42194 -1.354746,1.56513 -3.743729,1.60476 -2.604197,1.83117 -7.3827,3.78471 -8.416366,4.1989 -0.237248,-4.77771 -1.02864,-9.83857 1.570388,-14.16577 0.563312,-3.67378 5.923336,-8.69324 4.196239,-11.31239 -3.03858,0.82404 -6.701014,11.69036 -5.753531,3.84478 -0.189639,-12.04308 3.232062,-23.70053 4.986887,-35.51147 0.143115,-5.51346 -2.740601,3.82634 -2.79329,5.41321 -0.697359,2.73087 -1.344843,8.80952 -2.733591,2.49034 -2.214298,-4.12425 -1.375778,-12.22308 -4.200748,-14.26913 0.69277,7.88713 2.432122,15.72172 3.898779,23.52622 -1.042883,3.40683 -2.087292,7.01903 -3.050825,10.29926 -3.153567,-8.39603 -6.675059,-16.6784 -9.594364,-25.16836 -5.092949,-0.13357 1.19217,7.21483 1.0364,10.17313 2.580353,7.8857 5.473123,15.68935 7.714895,23.67353 0.0945,2.75661 0.926748,12.81276 -1.874584,6.13535 -3.393095,-5.50704 -6.5509,-11.15728 -9.706163,-16.79402 -4.40194,1.35288 2.3802,7.89173 3.416761,11.07554 3.30884,6.88681 8.668324,13.75063 7.799712,21.80094 -0.13589,0.13204 -1.666278,1.80338 -1.577765,0.84323 z m -4.357413,-1.72855 c -2.400868,-1.68336 -1.362232,0.28563 0,0 z M 45.231912,179.41615 c 0.81202,-3.32489 -2.105765,-0.056 0,0 z m 10.032671,-11.322 c -1.492267,-2.69321 -1.28386,0.50671 0,0 z m -2.897644,-2.86576 c 0.289685,-3.96736 -1.069071,2.09246 0,0 z m 3.021564,-0.92895 c -0.603323,-1.93589 -0.38805,2.76653 0,0 z M 53.052879,163.475 c 1.529354,-1.10562 3.935972,-4.53704 1.046721,-2.92312 1.271391,-2.24319 -3.212686,-1.64505 -2.371058,-3.88401 -1.865114,-1.39392 -3.379777,-2.75853 -0.333877,-2.94529 -2.156601,-1.73342 -2.082348,0.8261 -2.735696,1.9285 -1.81606,-0.56657 -0.4223,-5.53619 -2.758784,-3.55369 0.21404,0.97608 -2.847554,5.58527 -0.04866,4.4222 0.928712,3.11158 4.932884,-0.0425 4.732738,4.12092 1.1931,0.76571 0.345884,3.9171 2.468613,2.83449 z m -0.894516,-0.66959 c -0.526029,-1.5059 1.644402,0.68522 0,0 z m -6.41878,-1.0502 c 0.199015,-0.94574 -2.642501,1.18634 0,0 z m 9.624324,-7.86407 c -0.38592,-2.60422 -3.982449,1.70881 0,0 z M 52.61875,141.64688 c -1.336906,-1.41222 -0.807301,0.81069 0,0 z m 2.325086,-0.84821 c -0.378653,-1.89428 -0.45984,2.24632 0,0 z m -4.717926,-0.21729 c 0.98217,-1.95596 -2.932645,0.68406 0,0 z m 3.745793,-0.63573 c -0.751752,-3.70738 -0.627356,2.00543 0,0 z m 38.878951,-2.49203 c -1.898675,-2.86076 0.460914,5.40618 0,0 z m -38.43999,-2.39493 c 0.374683,-2.80728 -1.762869,2.20261 0,0 z m 27.796914,-8.10423 c 0.227646,-1.40034 -2.734204,0.79781 0,0 z m -2.601328,-0.53791 c 0.999116,-0.51149 -1.891298,-0.53 0,3e-5 z m 6.81845,-1.96813 c -0.63528,-1.91818 -0.22975,2.53871 0,0 z m -2.8497,-4.76196 c 1.730181,-2.40447 -2.484989,0.69854 0,0 z m -2.219402,-5.83922 c -2.51492,-0.86131 0.0089,1.57926 0,0 z M 65.14236,111.94519 c -0.483564,-2.38945 -1.107004,2.31763 0,0 z m -22.387744,81.08592 c 0.219319,-2.63181 1.362972,1.00951 0,0 z m -0.983783,-11.29986 c 1.469525,-1.15294 0.945023,1.07382 0,0 z m -0.79375,-1.19062 c 1.269017,-1.73101 0.382798,1.59372 0,0 z m 4.85945,-33.06961 c 1.543194,-3.84229 1.72234,-0.50571 0.202323,0.24813 l -0.20232,-0.24813 z m -2.420818,-1.62929 c -1.286105,-2.35094 0.445151,-0.30363 0.372524,-1.52922 2.732116,-1.46614 0.792058,3.38865 -0.372524,1.52922 z m 4.24732,-1.24654 c 1.071034,-1.34449 1.296175,1.01764 0,0 z m 2.099391,-0.42584 c 2.973956,-2.95865 0.937174,2.26906 0,0 z m -3.172133,-1.50898 c 0.173998,-2.12516 0.695442,2.49216 0,0 z m 48.974147,-0.0213 c -0.87957,-3.49822 1.184815,1.93798 0,0 z m -44.996211,-0.1323 c 1.109146,-1.2525 1.231967,1.3252 0,0 z m -3.241146,-0.54239 c -2.612314,-3.06083 1.859234,-0.29872 0,0 z m -1.322916,-2.30814 c -2.592404,-2.34284 2.305131,-1.41156 0,0 z m 0.097,-3.23488 c 1.850573,-3.00196 1.316202,0.59804 0,0 z M 47.327083,136.17 c 2.016831,-1.90197 3.45707,0.20882 0,0 z m 2.38125,-0.0638 c 0.883778,-2.11222 0.695795,1.56753 0,0 z m -4.189371,-1.17347 c -0.344495,-1.30117 1.813388,0.44045 0,0 z m 5.635509,-0.46621 c 1.112552,-4.27865 0.412241,2.45659 0,0 z m -1.701578,-1.17114 c 2.10012,-1.39724 -0.188862,2.24505 0,0 z m -7.748206,-0.26869 c -2.193618,-2.17534 0.709395,-3.10211 1.764579,-5.25407 -2.715773,0.46276 2.627384,-3.88013 0.960613,0.0471 0.07326,0.0926 0.791256,-1.59618 1.060318,0.73024 0.337472,-2.89406 3.308664,0.36642 0.786754,1.50538 0.286417,2.42741 -2.38103,-1.13794 -4.156367,2.1468 -0.216238,0.44076 5.418609,-1.28279 1.024663,0.38035 -0.568228,0.0654 -0.778917,1.27429 -1.44056,0.4442 z m 4.927865,-0.54105 c 0.574747,-3.85285 0.413089,2.8021 0,-3e-5 z m 4.134115,-1.81901 c 0.920144,-1.09033 1.492915,1.13746 0,0 z m -3.770313,-3.10334 c -0.946315,-1.08691 4.612966,-2.19113 0,0 z m 40.84801,-3.57739 c 0.454622,-1.66456 0.702987,2.4553 0,0 z M 55.264583,111.38479 c 1.034767,-2.02209 -0.298566,-2.99372 1.357019,-2.88497 -0.540429,-2.52363 3.88638,-3.73559 1.302246,-1.55639 -0.193286,0.29086 -1.191566,4.1701 -2.659265,4.44136 z m 2.38125,-2.41395 c 0.0059,-2.03696 1.305782,1.61958 0,0 z m 20.108334,-2.60174 c 1.089089,-2.1964 0.350321,1.67865 0,0 z m -6.35,-1.02601 c 2.138498,-3.25376 2.135197,2.79969 0,0 z m 1.448657,-2.13913 c 0.214499,-2.85325 1.385349,2.08761 0,0 z"
         id="path1932" /><path
         style="fill:#a9cb90;stroke-width:0.264583"
         d="m 75.704223,232.66354 c 0.174171,-2.00693 0.106876,2.26412 0,0 z m -0.264584,-4.23333 c 0.174171,-2.00696 0.10688,2.26413 0,0 z m -0.255632,-3.70417 c 0.164774,-2.5035 0.100045,2.84475 0,0 z M 67.7,213.57624 c -1.002487,-0.79902 -3.794065,0.77475 -4.497917,-1.28561 -1.131159,-0.70331 -3.159786,3.28542 -2.872263,-0.3765 -2.198749,-0.25203 -1.111507,-4.77954 -2.659247,-0.86142 -2.520771,-0.31419 -1.342884,-4.34255 -2.852797,-0.9211 -0.4919,-2.24524 -2.353015,-2.70585 -2.072898,-1.3596 -0.807002,-0.69639 -3.07404,1.18723 -1.49823,-0.78652 1.362981,0.69674 1.352449,-3.32028 0.224531,-0.75037 -2.261885,-1.35937 -2.650103,0.91259 -3.711511,-2.79205 -1.37492,-0.69395 -1.638818,-3.21198 0.365269,-4.45567 -3.369743,-2.1219 -0.544469,-2.11881 -0.596399,-4.90796 -1.272586,-2.4528 -5.828764,-4.71557 -0.936618,-5.0967 -1.055675,-1.25912 -4.847782,-0.90279 -4.744725,-3.00383 -1.43888,1.73035 -3.431443,-5.40202 -0.22945,-1.81328 2.532726,-0.53095 4.412024,-3.39859 3.46899,-3.41401 4.543905,0.64991 -1.42934,-3.1506 2.325506,-2.93584 1.488685,-2.1011 -2.483687,-4.12384 0.299036,-4.79762 1.299916,-0.38038 0.384568,-3.10307 0.04897,-0.98821 -3.091904,-1.77461 1.206128,-3.45813 -1.246333,-6.58006 -1.124815,-2.24495 -2.026457,-4.79607 0.172035,-3.3173 -2.787265,2.33718 3.942294,-3.43249 3.382599,-0.008 1.953666,-0.61277 3.22879,6.61233 5.806213,4.92436 -1.651006,-3.00738 3.89514,-4.57627 0.06262,-3.26366 -0.144376,-1.63019 1.50235,-3.81278 -0.3251,-3.02076 1.997296,-2.03123 0.365775,-2.6968 -0.228255,-3.86576 -0.154774,1.91892 -4.616547,-3.20388 -2.098803,-2.2242 -1.625837,-3.61952 5.938461,0.76334 3.458622,-2.13264 -1.53047,-1.02321 -6.199803,0.0597 -4.068724,-2.3575 -0.753262,-1.84532 3.466566,1.20097 0.984162,-1.99701 -0.556917,3.29743 -2.63984,-6.78055 0.08203,-1.08837 2.32988,-2.07983 -0.936211,-3.57061 -0.935163,-4.69344 1.160679,-1.15327 2.713975,1.5594 1.400126,-1.22377 2.805131,2.19436 3.261228,-2.5573 3.454634,0.64053 -3.958976,0.76412 2.72942,3.46457 0.486389,0.13021 1.515951,-0.2834 0.856118,2.26241 1.871394,0.44779 2.027503,2.89835 -0.468744,-1.60038 -0.739135,-2.08431 0.713886,-1.74827 0.63807,-4.15648 0.274587,-5.23762 0.342274,1.73227 -0.616535,-1.79679 1.900173,0.14167 3.509071,0.69714 -1.10781,-7.05979 0.22266,-2.05595 -2.082196,2.90849 1.049757,-3.43766 -1.649869,0.74949 -2.435146,2.69019 -3.428846,-6.39102 -4.860631,-3.54349 0.271895,1.86297 -2.411046,-2.06704 0.137998,-1.23802 -0.479182,-2.59056 1.134425,0.57222 1.724361,-0.85411 -0.339931,2.64567 1.052951,4.15214 1.578488,3.28703 -1.412243,-2.76368 3.533084,0.81003 1.536568,-2.31329 2.114579,1.39113 -0.369387,-2.34514 -0.920845,-0.34775 -1.896251,-1.1202 -0.358958,2.22344 -1.400422,-1.20336 -0.423763,-2.18568 -1.606115,0.91823 -1.72017,-2.26636 -0.09809,1.76952 -2.643636,-0.92678 -0.195562,-0.66461 -0.57985,-1.82647 0.583363,-1.63451 -1.169,-2.50725 2.465693,-1.38166 -1.661326,-1.40812 1.04468,-1.72118 1.348838,2.71119 2.192437,3.4383 2.127818,1.71722 0.402365,3.25133 1.465118,0.93415 -0.07416,-0.94176 -2.371437,1.18056 -0.682309,-3.77359 -0.190427,-2.20201 1.363364,-1.44233 1.832856,-0.61798 0.14651,-1.8723 1.617574,-1.40388 1.796694,-3.21401 3.012875,-1.59852 0.315603,-1.97175 -1.9935,-3.8866 -2.708299,-4.29947 2.019796,-2.29303 3.180276,-0.45351 4.184217,-3.26603 0.848284,-3.01309 -0.41948,-1.39429 1.956866,-2.33672 -2.173615,-1.19081 1.409371,-2.47102 0.433032,0.40422 0.989537,-0.0857 1.226119,-0.0976 2.554324,2.03303 -1.366309,-1.03879 -2.22541,-0.31627 -0.174318,1.83321 -0.972501,-2.59772 -5.694556,3.3314 -1.467735,1.23345 0.741157,-2.32336 2.35004,2.51623 2.44738,-0.9243 0.475379,-2.53674 -0.427,-3.54891 -0.514201,-4.63631 4.270727,-0.61286 1.223921,3.01757 2.843233,4.72847 -0.767029,-2.65005 0.124159,-0.99158 2.156015,-1.24683 0.241969,-2.95412 3.254554,0.54186 3.593957,2.15546 0.133032,2.10403 1.038324,-2.37187 2.967311,-0.96914 2.398661,-4.70272 1.014673,0.99812 0.485401,2.62492 1.75956,1.31079 -1.816144,1.66912 0.118583,4.70554 0.806382,1.28647 5.028096,-2.76138 2.414579,-0.39115 -1.54657,1.29401 3.737764,2.8183 2.28709,3.04879 -2.082069,0.1535 1.479361,5.12795 -2.641841,3.0716 -0.86883,-1.55554 -3.620222,-0.36222 -2.414834,2.55079 2.275275,1.7434 5.873048,-2.56347 6.540499,-0.12663 1.909575,0.098 2.125255,-0.47944 2.317297,1.20273 1.981497,2.14625 1.420067,0.78534 0.660869,4.36147 0.624481,2.38069 2.476012,3.83242 1.082524,4.35204 0.56221,1.62988 0.0029,3.96562 0.570856,4.7625 1.998732,-1.67429 4.298431,1.65022 4.145312,3.17505 3.197301,0.51077 2.117465,4.22891 3.559151,6.27038 4.964972,0.35473 -3.127197,6.40894 -0.82566,5.9137 -1.529568,1.76588 1.621607,3.26693 -0.02232,5.01723 2.15072,-0.51433 2.420755,-0.95306 2.408505,2.91141 0.09538,1.3124 -0.851601,1.75283 0.740037,2.65128 -2.481049,-0.23009 2.38849,1.61737 -0.885742,0.80717 1.072672,3.12554 -1.108373,2.45571 0.04496,4.95451 -2.923653,-0.18759 -0.564101,5.05327 -2.130517,4.75359 2.338877,3.01134 -0.99251,4.66411 -1.508688,7.15756 0.749794,2.0577 1.854329,4.11018 -0.503144,6.74476 0.917285,2.94684 -0.585363,0.54034 -2.041828,2.63705 0.04403,-2.92259 -1.73569,3.08505 0.09388,0.63066 2.727561,2.02267 -3.291095,0.92352 0.718627,2.71083 -3.2661,0.9767 1.295042,5.95687 -3.723141,7.53529 -2.201579,2.52407 -6.871426,1.60579 -8.292924,3.69079 -2.008139,0.12879 -3.710376,4.32401 -5.854063,2.88416 -1.910723,4.14516 -1.570363,-0.2129 -1.663379,-2.2295 -0.943559,-5.13148 1.191583,-9.82981 3.473655,-14.28461 0.981983,-2.10431 5.905397,-10.08555 0.634087,-6.31287 -1.861479,2.46335 -5.210383,9.52009 -3.920589,2.48434 -0.154523,-12.42251 3.525869,-24.42072 5.128291,-36.63201 -2.765167,-0.41489 -2.755726,8.99844 -4.511875,12.15181 -2.914584,-5.45807 -2.504246,-12.43499 -4.926927,-17.808 -1.106962,4.66421 1.288505,10.2371 1.703574,15.23807 0.191249,3.25151 1.895165,6.54543 1.423151,9.73058 -1.009932,3.00213 -1.612761,6.3419 -2.882961,9.1066 -3.114464,-8.29186 -6.405664,-16.5351 -9.577893,-24.79473 -4.738875,-0.44251 1.211816,7.87562 1.490322,11.1754 2.337546,8.05374 5.95976,15.77438 7.489136,24.03091 -0.196716,1.45847 0.544754,9.73038 -1.082619,6.31457 -3.64037,-6.24084 -7.301403,-12.49247 -10.873575,-18.75345 -4.04871,2.27987 2.204389,7.26477 3.070401,10.48852 3.406762,6.74905 8.297578,13.35121 8.514068,21.1707 0.526163,1.14272 -1.856753,0.86231 -2.207309,0.53899 z M 49.840625,204.75 c -3.271468,-1.95183 1.154538,1.81508 0,0 z m 5.236038,-8.99583 c -0.208275,-1.93897 -1.078676,1.85879 0,0 z m -6.881458,-16.00729 c -0.933754,-1.47764 -2.357087,1.63479 0,0 z m 1.556978,-3.06497 c -0.814481,-3.41825 -0.333644,3.22336 0,0 z m 45.729067,-1.86222 c -0.566784,-1.35531 -0.97169,1.79389 0,0 z m -46.837858,-0.60921 c -1.271741,-0.87269 0.263165,2.61735 0,0 z m -1.051725,-2.6813 c -0.619579,-1.44647 -0.61236,1.85395 0,0 z m 48.772857,-1.85251 c -1.889087,-0.89869 -1.306694,1.26583 0,0 z m -39.192143,-1.84522 c 1.610433,-3.3373 -2.008799,-0.43008 -0.661461,0.40196 l 0.661459,-0.402 z m -8.524593,-4.34948 c 0.652128,-1.90004 -1.939502,0.86873 0,0 z m 8.530028,-7.47462 c -1.48584,-0.98835 -1.319995,0.9453 0,0 z M 55,154.99272 c -1.184417,-1.27248 -0.838973,1.60864 0,0 z m 0,-2.9272 c -0.730472,-1.42048 -0.506232,1.68237 0,0 z m 6.82625,-1.07885 c 1.27598,-2.82301 -2.64263,1.19339 0,0 z m -3.723997,-0.74083 c -0.99138,-1.85156 -0.239891,1.67639 0,0 z m 4.835247,-1.82601 c -1.251405,-0.58688 -2.960548,2.46723 0,0 z m -6.130403,-2.87035 c -0.384516,-3.36741 -0.256876,4.2106 0,0 z m -1.131672,-0.30813 c 0.965134,-2.24767 -1.43797,0.61705 0,0 z m 36.0533,-1.59732 c -0.682443,-1.13049 -1.795651,1.09427 0,0 z m -28.670707,-0.78748 c 0.0984,-0.52266 -3.570042,-5.63484 -2.600884,-2.58716 0.501613,0.55634 1.152391,3.47151 2.600884,2.58716 z m -2.00651,-0.61436 c -3.360305,-4.11143 0.280067,2.03224 0,0 z m 22.134274,-2.40784 c 1.270614,-3.80443 -4.027295,1.44251 0,0 z m -21.571199,-0.9656 c -0.584068,-1.92988 -0.543023,1.85865 0,0 z m 2.849015,-0.52916 c -2.018433,-3.37629 -1.673328,-0.29789 0,0 z m 0.250267,-1.38907 c 1.602727,-3.0559 -1.364785,0.33258 0,0 z m 8.75543,-2.5042 c -1.628769,-3.24565 -1.492084,1.23654 -0.411482,0.47686 -1.301119,1.93915 1.451922,0.19843 0.411482,-0.47686 z m -13.045337,-6.3739 c 0.26748,-1.7902 -2.338733,1.49712 0,0 z m 3.194741,-0.60856 c 0.140301,-1.12849 -1.976671,2.28356 0,0 z m -5.046824,-0.23677 c 0.464952,-5.10986 -1.18455,2.08237 0,0 z m 1.601817,-0.46302 c -0.629146,-2.64843 -1.077334,2.5105 0,0 z m 2.325124,0.34427 c -1.074092,-3.36567 -2.454314,0.43547 0,0 z m 21.869934,-0.30018 c -0.760766,-1.15323 -0.919037,1.39497 0,0 z m -5.966158,-0.97309 c -0.332658,-0.33313 -1.286965,-0.2923 -1.270986,0.44738 0.304026,0.68375 1.458737,0.32927 1.270986,-0.44738 z m -13.228043,0.003 c -1.035641,-2.56036 0.01278,2.0267 -2e-6,0 z m 10.940556,-0.0737 c -1.570987,-1.7194 0.758948,2.24074 0,0 z M 60.423958,125.3218 c 0.466625,-2.21039 -2.496451,0.78951 -0.473001,0.05 z m 14.704351,-1.33586 c -1.165418,-0.6737 0.290163,3.39328 0,0 z m 7.774715,0.033 c 0.321641,-3.21124 -1.72848,0.98065 0,0 z m -22.792372,-2.94342 c -1.235353,-0.85293 0.154879,2.54549 0,0 z m 22.981658,0.16772 c -1.980591,-0.2473 0.623908,1.74235 0,0 z m -24.514135,-0.20237 c 0.792569,-1.81711 -1.79303,1.32867 0,0 z m 1.970029,-1.28827 c -0.238559,-1.3229 -1.95679,2.02312 0,0 z m 1.486617,-2.13724 c 0.5414,-2.04779 -0.328153,-0.81262 -1.449392,0.17688 0.501473,0.0239 0.941646,-0.38482 1.449392,-0.17688 z m 11.880421,-0.97012 c -0.784428,-2.75322 -0.562045,2.65073 0,0 z m 1.662089,-2.75322 c 0.504842,-3.24791 -1.592483,2.30037 0,0 z m -4.41298,-1.57872 c -1.87892,-0.55508 0.06368,2.93113 0,0 z m 1.183595,0.82472 c -0.131916,-1.43025 -1.790036,2.08902 0,0 z m -2.748717,-1.59044 c -2.764673,-1.20565 1.455085,2.48611 0,0 z m 4.715354,-0.59238 c 0.509233,-1.01538 -2.506214,1.18026 0,0 z m -20.863909,99.04926 c -0.441165,-0.88359 2.304678,0.25859 0,0 z m -9.186009,-29.48193 c 2.681395,-1.0764 -0.115696,1.37743 0,0 z m 1.210335,-3.4779 c 1.703409,-1.43055 0.815948,0.85389 0,0 z m -0.728578,-3.43308 c 0.858559,-3.89422 1.739595,-0.457 0,0 z m 0.993161,-2.87834 c -2.470716,-0.0615 1.257904,-2.64792 0,0 z m -0.184171,-4.31735 c -0.562292,-2.75915 1.278629,1.40142 0,0 z m 5.191011,-3.21867 c -0.804318,-2.47064 1.506919,-0.67606 0,0 z m -4.569062,-1.45316 c 1.346231,-1.22979 0.65203,1.59143 0,0 z M 43.675833,161.57 c -1.001178,-2.34471 1.530329,0.30395 2e-6,0 z m 5.360163,0.0353 c 0.97916,-1.9507 2.823606,0.95504 0,0 z m -1.708913,-0.37928 c -3.419808,-1.37598 6.391279,-1.11674 0.703827,-0.17739 -0.489191,-0.46292 -0.167583,1.30388 -0.703827,0.17739 z m 0.529167,-1.17279 c 1.937779,-1.89963 1.382882,1.24807 0,0 z m -1.09259,-0.89943 c -1.146205,-2.08745 4.315049,0.67312 0,2e-5 z m -3.66991,-4.77455 c 0.970348,-3.10062 1.705343,1.44105 -1e-5,0 z m 5.328979,-0.56156 c -1.819905,-3.41034 1.930268,-2.43081 1.088637,-0.85064 -2.631937,-2.00441 0.03922,0.51182 -1.088637,0.85064 z m 1.579817,-2.17625 c -0.616165,-1.36851 2.123394,0.46742 0,0 z m 1.028704,-1.67804 c 2.266919,-0.14161 -3.595362,-1.01063 0.596872,-1.4374 0.664332,-1.23794 1.069487,3.15597 -0.596872,1.4374 z m -0.941202,-1.94491 c -1.209676,-1.91702 3.017512,1.40075 0,0 z m 47.5357,-0.78185 c -1.808561,-3.70592 1.080284,-1.4599 0.633628,-0.16582 -1.654985,-1.15877 0.780684,1.51242 -0.633628,0.16582 z M 53.4125,141.27831 c 0.971674,-1.33675 0.897176,0.91562 0,0 z m 2.653879,-0.39143 c -2.827044,-0.0192 2.043083,-2.70238 0,0 z m 1.429142,-0.1952 c -1.26143,-1.97658 0.961891,-2.58238 0.925657,-1.70726 -1.91346,-0.76269 1.072163,2.74935 -0.925657,1.70726 z M 50.2375,139.11772 c -1.597866,-1.45032 1.877708,0.13651 0,0 z m 2.299122,-1.3282 c 1.118228,-2.95143 1.329649,1.71619 0,0 z m 2.364159,0.339 c 1.475181,-2.72111 1.556277,-0.13008 0,0 z m -0.161313,-1.57487 c 1.059139,-2.53617 0.671847,0.85006 0,0 z m 1.505852,-0.86347 c 0.06052,-4.10738 3.453847,1.77608 -3e-6,3e-5 z m 5.302673,-0.15121 c -0.08975,-3.67624 2.244025,-0.24096 0,0 z m -6.99486,-10.76471 c 0.274009,-4.039 0.331647,2.47738 0,0 z m 30.069069,0.2851 c -0.524539,-3.80712 1.353707,1.80172 0,0 z m -31.352701,-1.73217 c 2.477944,-3.51944 -0.457206,2.4781 0,-2.9e-4 z m 5.500812,-8.44616 c -1.713357,-3.88574 2.01113,1.05393 0,0 z m 8.969142,-8.99637 c -0.804372,-1.69731 1.337539,0.69563 0,0 z"
         id="path1930" /><path
         style="fill:#9dc481;stroke-width:0.264583"
         d="m 60.442659,213.21667 c 1.868305,-2.93517 0.470096,1.32437 0,0 z m 14.4336,-2.05565 c -1.242372,-5.77437 1.042022,-11.08291 3.562537,-16.1401 0.66376,-2.09688 5.876297,-8.78322 0.865843,-6.52313 -1.327594,0.6626 -4.717453,9.16605 -4.417645,5.15875 -0.195883,-12.8761 3.208734,-25.38638 5.229382,-37.99361 -1.239964,-4.00281 -2.812744,5.0712 -3.279507,6.70144 -0.609569,2.39166 -1.252429,7.42613 -2.305901,2.16579 -2.218202,-4.55543 -1.342214,-12.00511 -4.333381,-15.04322 -0.09841,5.43788 1.617827,10.91323 2.317339,16.3443 0.03262,3.06167 2.109527,6.17375 1.005972,9.1522 -1.070292,2.08424 -1.592097,8.81452 -2.896018,7.72405 -2.589159,-7.45886 -5.909254,-14.65755 -8.417608,-22.13164 0.03383,-1.6293 -3.169689,-6.42038 -1.69271,-5.64958 1.232986,-0.0877 2.879675,0.98037 3.237516,-0.21464 -1.064399,4.45241 4.746247,-1.58349 0.914141,-0.84671 -3.144337,-0.7915 0.61547,-4.48268 1.859557,-7.25607 -0.741525,-3.27318 0.328989,-4.84507 2.961357,-4.58773 1.919561,2.3627 -0.718559,-2.13979 1.929308,-0.13819 -0.680132,-1.96915 -2.461091,-5.61313 -0.40391,-2.56268 0.292188,-2.70113 3.564551,1.60435 4.548553,2.95253 1.008225,0.32688 3.434131,1.04812 2.643683,-0.53816 -2.629628,0.25855 -1.39709,-4.50404 -0.440489,-3.65962 0.392621,-2.70489 1.618816,-0.0728 2.049666,-0.18309 1.598322,-2.20444 -0.899377,-1.20791 -1.963696,-3.46232 -0.534069,-3.36786 -2.897924,3.75914 -1.728104,-1.55654 0.998394,-1.12728 -2.506832,1.02381 -0.731891,-1.53431 -2.369694,-1.55833 -2.246728,1.30077 -4.18498,-0.58285 3.386433,-0.49404 2.541784,-0.043 1.482113,-1.56869 0.319398,-1.71238 -0.942761,3.13278 -1.139075,-1.09468 -2.169602,2.81468 -0.2424,-5.26993 -1.268294,-2.56962 0.491381,5.65975 -1.487431,-4.27829 -2.723982,-2.65752 1.042786,0.65074 -1.154191,3.44114 -0.843633,3.63531 -0.637071,2.05925 -0.229424,-3.1587 -1.46074,-3.59112 -0.346422,-1.31192 -1.21572,-3.67629 0.142857,-3.54248 1.474797,-2.8165 0.233573,2.38353 0.633863,3.25697 0.409888,-1.97584 2.477177,1.06245 0.694248,-1.65663 0.666818,-1.92326 1.482675,-0.8948 2.792294,0.57483 -1.743067,-2.47984 0.656494,-1.93809 0.759147,-3.57449 -0.402653,3.36827 1.99305,2.36337 3.470618,4.49707 0.03232,1.87082 0.265136,4.37221 2.554332,4.7625 0.08145,-0.89928 1.987833,3.22504 2.952042,1.72137 -2.66776,-1.35317 -1.131792,-1.89415 0.813344,-1.12567 -0.331679,4.3659 5.134848,2.24436 5.561185,4.5617 3.971945,-1.49158 -1.008217,1.75077 2.272852,0.57205 -1.255176,2.21972 0.405896,3.69491 -2.804574,2.16499 2.023675,2.16199 -2.740412,4.52651 -0.348959,1.56537 -0.258588,-4.09612 -0.399759,-1.1635 -2.152368,0.38063 -0.686301,-1.67783 -2.633252,0.0565 0.717954,0.58262 -1.933424,-0.12227 -2.418338,-0.16736 -2.047835,1.54955 -2.256351,-1.28684 1.324111,2.62682 2.731345,0.92609 0.372164,-1.78686 1.239205,0.95439 3.44544,1.76324 -0.287154,2.20038 -3.908813,3.73275 0.633558,3.35868 2.604146,2.30264 4.05463,1.18336 5.840494,-0.7656 0.721579,2.51046 0.103543,6.44858 3.160394,6.0591 -2.840243,1.47503 -2.301741,3.4539 0.127239,2.44485 4.695188,0.28063 -0.855333,2.48369 -0.85068,1.84179 0.89191,2.49183 -1.699645,5.19095 0.336675,6.73484 0.153636,1.47581 4.810963,1.31091 1.935711,4.35653 0.400773,2.56843 -0.579965,4.52899 -3.538378,3.37699 -3.434073,0.96317 -1.053116,1.03394 -0.716005,1.39865 0.762913,-0.85667 1.460602,1.41702 3.109898,-0.5716 -1.153307,0.43624 2.565817,4.17464 -1.987827,3.77632 -3.870708,0.63702 -0.903251,2.52965 1.161019,3.41184 0.5423,2.58192 -3.298456,2.69594 -0.784632,3.07898 1.245509,0.63749 1.611878,5.18552 -0.403858,1.48479 0.423266,1.93756 -0.438408,6.13145 0.154266,6.58013 3.23449,-2.24714 -1.804221,4.59214 -3.244851,5.12567 -0.478051,0.49632 -0.172736,5.16179 -0.03479,6.19476 0.506614,3.14069 -1.08419,1.07776 -1.544392,1.07196 -0.305721,2.99142 2.09e-4,3.79776 -1.713501,5.62795 -4.229469,-0.68989 -6.902966,2.17068 -10.618144,3.26909 -0.917219,2.64734 -3.547783,1.8015 -3.498955,3.1966 l -0.0563,-0.79064 -0.03008,-0.98938 z m 23.392519,-44.71411 c 0.969246,-2.36548 -4.225224,-3.66677 -0.67987,-0.64564 0.102924,0.23541 0.630523,1.79248 0.67987,0.64564 z m 0.21857,-2.83962 c -1.117223,-1.33234 -0.272845,1.38084 0,0 z m -35.528493,-3.67843 c 0.480267,-2.07841 -1.24917,1.15714 0,0 z m -0.02135,-1.87782 c -1.788198,-2.69385 -0.435478,1.96818 0,0 z m -1.86794,-2.40035 c -1.328305,-0.78797 0.979634,2.44472 0,0 z m 34.626664,-1.15498 c -0.38854,-1.0795 -1.165211,1.64671 0,0 z m -21.722453,-9.13332 c -0.751498,-2.34235 -1.021574,2.21341 -5e-6,-3e-5 z m 6.690812,-4.51321 c -1.273846,-3.97938 -0.961001,0.41003 -0.15242,0.203 l 0.152416,-0.203 z m -0.719314,-7.53626 c -0.69519,0.35681 -1.559079,-2.12704 -0.856161,0.67557 0.384357,0.73751 0.891327,-0.40633 0.856161,-0.67557 z m -2.690958,-2.7314 c -0.646583,-4.70394 -1.580149,3.07515 0,0 z m -5.28129,-7.1027 c 0.461496,-3.30208 -1.67974,1.8395 0,0 z m -1.382213,-1.09526 c -0.691996,-2.51016 -0.852045,1.11804 0.192485,0.97579 l -0.192497,-0.97579 z m -1.41352,90.39836 c -1.318987,-0.61837 -3.242481,-0.1318 -2.063369,-2.22548 -2.187024,0.19244 -1.530683,3.1864 -4.441001,0.52768 -0.07992,1.81254 -3.758843,0.14297 -4.428143,-2.39086 -2.801505,-0.75133 1.86187,-0.27465 -1.364795,-1.74454 -0.967097,2.43847 -1.025088,-1.94989 -2.993875,-0.38531 -1.856593,-2.24373 -0.09978,-6.85227 -0.631612,-7.72421 1.615847,-1.70971 -3.717454,0.78 -1.081721,-0.80313 0.390138,-1.41564 -5.836894,-4.62063 -4.219325,-4.51805 2.007214,-2.09031 0.807946,-3.91691 0.444252,-5.56181 0.871991,-0.76312 -0.01242,-2.63616 3.655685,-4.07655 -2.172062,0.11805 0.935291,-4.36828 -1.421735,-2.05589 -1.191798,-1.98998 0.214382,-4.80373 -0.145194,-5.94581 -1.296598,1.74361 0.594204,-3.43724 2.793804,-1.82606 -2.03656,-0.15332 -5.625228,0.40889 -3.433991,-2.93333 1.683273,-3.96902 -1.973691,1.39995 -1.989967,-1.02929 1.186224,1.02773 2.110156,-3.74194 -0.251393,-0.41071 -0.08319,-1.65847 2.202563,-5.60853 3.435597,-3.62906 0.760562,-4.50222 -0.167685,1.41053 1.949866,0.49732 -1.212221,2.43671 6.386742,3.36084 5.986839,-0.12565 1.639411,-1.96539 -2.425207,-3.78883 0.589202,-3.23547 1.530592,-1.44461 2.805373,6.77741 3.98223,8.96477 2.047496,7.25519 5.355104,14.17306 6.736386,21.59425 -0.313295,1.34965 0.30681,8.24585 -0.817636,6.76233 -3.632098,-6.30544 -7.427823,-12.52006 -10.964929,-18.87557 -4.392364,2.12764 2.920042,8.6457 4.065203,12.38721 2.782474,5.55525 6.473995,11.00345 7.247038,17.27757 -1.020748,0.25958 0.790191,2.95134 -0.637416,1.48565 z M 58.006317,196.92926 c 1.534415,-0.50201 -3.662409,-5.46362 -3.824666,-0.77822 -0.226472,2.2957 2.752675,1.49453 3.824666,0.77822 z m -3.66777,-11.97891 c -0.526461,-1.18706 -0.92217,1.51865 0,0 z m -1.190625,-6.31625 c -0.928313,-1.21094 -0.898927,2.54228 0,0 z m 3.800274,-2.85709 c 0.140618,-1.37326 -2.38557,-2.37871 -1.912955,-1.60816 -0.142765,0.78885 -1.985599,1.35903 1.296124,1.53942 0.202866,0.62503 -0.630606,1.02563 0.616831,0.0687 z m -3.421714,-0.63071 c -1.204423,-1.38701 -2.031056,0.66035 0,0 z m 1.077462,-2.60932 c 0.157561,-3.16965 -1.687361,-3.48088 -1.028718,0.0755 0.171406,0.66571 1.294881,0.94071 1.028718,-0.0755 z m 1.995647,38.18071 c -0.914661,-4.77702 4.114551,1.2916 0,0 z m 22.652646,-0.34209 c -0.197834,-1.61009 1.720055,-0.44813 0,0 z m -28.55553,-1.28584 c 0.652965,-2.6852 1.001408,0.85395 0,0 z m 0.354109,-4.03863 c -0.77965,-4.26662 3.376041,0.31817 0.258545,0.33052 z m -3.608571,-2.65466 c -1.749067,-2.61531 5.341298,-3.95828 1.377782,-0.43981 -1.701624,-1.92954 -0.498521,1.34813 -1.377782,0.43981 z m -2.472832,-10.59648 c -0.807205,-2.04971 2.190038,-0.3349 0,0 z m 1.563925,-3.78224 c -3.628965,-1.80387 0.650879,-3.84501 0.55096,-1.6138 -1.878785,-0.30841 2.613888,2.81853 -0.55096,1.6138 z m -0.992187,-3.56665 c -1.22258,-1.46638 1.358559,-0.14057 4e-6,2e-5 z m 2.915217,-12.63548 c 0.506626,-2.09058 1.517513,1.05861 0,0 z m 50.351493,-1.59942 c -1.272688,-1.89167 2.488959,1.43449 0,0 z m -49.893273,-7.53495 c 1.469525,-1.15294 0.945023,1.07382 0,0 z m 9.445464,-4.22235 c 0.927364,-2.13111 0.148193,1.63791 0,0 z m 38.093872,-6.32656 c 1.835137,-1.55932 1.227902,1.1217 0,0 z M 69.198846,139.35206 c 0.406146,-1.08084 1.581598,1.3987 0,0 z m 6.835529,0.31044 c -4.371771,-4.24833 1.70355,-0.29627 0,0 z m -4.174657,-1.85525 c -1.178142,-3.25862 2.125371,1.35199 0,0 z m -2.374196,-0.90753 c -1.496224,-1.76181 1.887801,0.62696 -2e-6,0 z m -0.02164,-1.11777 c -1.10894,-2.84977 2.090762,0.80637 0,0 z m 2.128208,-0.35278 c 0.119934,-1.69088 0.963524,1.70278 0,0 z m 15.838842,-0.44154 c -0.149424,-1.14888 1.73215,0.23883 0,-4e-5 z m -12.785616,-1.32119 c -2.010999,-3.04492 1.286259,-0.49172 0,0 z M 69.2875,133.3686 c 1.963085,-2.92167 -4.441574,-1.75588 -1.883479,-5.02957 0.477824,-1.93204 3.551209,1.51054 1.026976,0.15649 0.528449,1.76514 1.788099,1.00148 2.239687,4.57039 -0.617596,-1.02611 -0.810118,0.46762 -1.383184,0.30269 z m 13.058682,-2.76373 c 0.112185,-2.29353 3.534895,0.55533 0,1e-5 z M 62.32014,130.2257 c -0.217984,-1.76723 2.642472,0.17384 0,0 z m 19.138193,-0.74965 c 0.74915,-1.39229 1.445452,1.67041 0,0 z m -0.601588,-0.57728 c -0.715217,-2.17113 3.657738,0.67 0,0 z m 1.181653,-1.21348 c -0.18322,-1.55738 1.998082,0.45928 0,0 z m -5.711293,-1.93547 c -0.104913,-1.97248 1.047596,0.80429 0,0 z m -8.164084,-0.43213 c -1.780668,-3.28397 2.276662,1.75293 0,0 z m 12.813652,-2.47919 c -3.003031,0.45731 2.171268,-1.95825 0.497044,-3.80095 1.374033,0.36381 0.972358,5.35928 -0.497044,3.80095 z m -5.956597,-0.22228 c 0.657862,-2.8121 0.99514,1.55196 0,0 z m 4.947325,-1.08427 c 0.957764,-3.0981 1.888047,0.45444 -0.170808,0.21587 z m -2.415596,-0.0483 c -1.533639,-1.22496 2.180186,0.21951 0,0 z m -0.756335,-1.51791 c 0.697086,-2.14959 2.989828,-2.26165 1.510997,-0.16266 0.78803,-2.62043 -2.721525,2.80502 -1.510997,0.16266 z m -4.536882,-0.0146 c 0.949206,-2.56697 0.419995,2.29997 0,0 z m 3.000621,-0.57614 c 0.640461,-3.79229 1.060486,1.90759 0,0 z m -8.617542,-0.37177 c 1.679419,-0.98042 3.065063,-3.10191 1.382627,-3.72915 -3.078141,-1.19979 1.704546,-2.11894 1.532848,1.30401 0.803967,0.70862 -1.525594,3.4637 -2.915475,2.42514 z m 5.426755,-0.51612 c -1.089662,-2.51133 2.190455,-0.0232 -1.5e-5,0 z m -8.271026,-0.17195 c 0.994848,-1.53234 1.84699,-0.70181 1.874533,-1.84998 2.874656,1.43912 -2.163932,2.39325 -1.874533,1.84998 z m 3.158463,-0.8941 c 1.259309,-1.54385 0.393104,0.94778 0,0 z m 2.838548,-1.08599 c 0.262005,-1.03723 2.813233,0.75356 0,0 z m -4.034684,-0.66136 c -0.623847,-3.56369 1.339588,-0.6893 0,0 z m -2.401501,-0.71639 c 2.977222,-1.71033 2.255039,1.17493 0,0 z m -0.0067,-0.93158 c 0.550596,-1.60614 1.520409,1.00209 0,0 z M 64.525,113.36886 c 1.217643,-1.42633 0.977485,0.7029 0,0 z m -1.322917,-1.38177 c 1.215235,-2.29957 -0.685614,-2.98536 1.682459,-3.91073 -0.911932,1.03022 -0.04557,3.51659 -1.682459,3.91073 z"
         id="path1928" /><path
         style="fill:#98c17a;stroke-width:0.264583"
         d="m 69.280952,211.47965 c -0.168672,-2.58515 -5.728845,-3.16353 -4.324438,-0.34082 -1.931341,-0.36993 -3.668816,-0.6335 -4.685181,-1.59258 -0.824597,-2.20956 -1.130411,1.03381 -2.634361,-2.35381 -1.010286,-1.26556 -5.702413,-1.50463 -3.618639,-5.61744 1.158466,-4.50255 0.0051,4.31934 1.298824,1.67957 0.238916,-2.37292 0.138171,-5.86058 3.265342,-5.71039 -0.263599,-0.23106 0.617598,-2.98391 -0.818337,-2.03195 -0.43347,-1.19306 -0.144607,-3.62862 -1.367401,-5.21061 2.178542,1.33086 2.230051,-2.09396 1.812174,-3.25215 1.759668,1.72403 5.640782,9.39408 7.728437,13.48172 1.345783,2.69954 4.913835,10.11683 3.34358,10.94846 z m -12.849625,-1.00793 c 0.07855,-4.51428 3.776552,1.62647 0,0 z m 18.345835,-2.96077 c -0.504427,-6.1623 3.546123,-11.45509 5.91906,-16.86362 2.760838,-6.38534 -4.818733,0.77736 -5.27075,3.66914 -1.43053,2.2891 0.112363,-4.88562 -0.293034,-6.04305 0.09325,-10.75222 3.396499,-21.14359 4.804927,-31.71632 1.653195,-1.28445 0.465949,-2.49491 -1.048203,-3.7269 -1.197518,-2.78122 -1.331591,-1.35141 -0.830655,0.46789 -2.212926,0.1299 0.210324,-4.07606 1.038525,-1.99531 3.077347,0.42534 3.904386,1.40452 5.790866,1.4445 0.112525,1.68837 -0.38915,2.01526 -0.699664,2.75017 -1.464764,-0.0978 4.287771,1.72908 1.516229,3.29868 -0.02226,-2.26856 -4.432718,-6.29465 -4.425207,-2.50503 -0.785829,1.36458 3.566398,0.47784 1.837461,3.69618 2.587599,2.50902 1.395466,-0.83102 2.553541,-0.61174 1.315814,-1.65011 2.364522,-2.72776 1.768381,0.43657 1.00372,-2.42734 1.842193,0.33896 0.157496,-3.06892 -0.156463,1.68132 -2.502525,-1.37209 -0.433569,-1.08912 0.663961,0.91944 2.126781,-1.43961 4.283312,-0.79964 1.833987,-1.79871 -2.486873,3.5254 0.860353,0.37172 1.647691,-2.14906 1.939157,1.41735 -0.795825,1.19084 -2.278262,0.87894 -3.050572,-0.38013 -1.977105,2.94271 -1.502412,0.32989 4.000211,3.8283 2.093799,-0.0447 0.531117,-1.12404 1.925687,3.19784 3.154329,-0.20237 1.751583,0.95125 -1.431967,2.49612 1.060074,2.11304 1.426038,1.55184 -0.85579,2.19772 -0.224608,0.4023 -2.676549,1.46185 0.489223,2.56716 -2.384284,3.67352 -0.319257,2.94037 5.401652,-0.92314 4.120279,3.35611 -0.07535,1.24473 -1.873555,-0.66808 -2.953034,0.28237 -2.338967,0.52288 -4.661868,0.84955 -0.575183,2.51368 1.355665,0.86219 4.954717,-0.65167 2.722995,2.00218 -4.799297,-1.20464 -4.743762,4.05702 -0.790473,4.31448 0.102531,3.34823 -4.845112,-2.32607 -3.603169,0.55524 2.784069,1.93363 4.397988,5.64531 2.71807,9.40153 -2.480776,-1.79706 0.611575,1.84554 -1.875053,2.58887 -0.757249,3.12064 -2.39002,5.40464 -1.077134,8.78558 0.318075,1.0299 -3.927719,2.55117 -4.012815,5.64815 -2.369773,-2.78202 1.334657,2.74429 -1.64758,-0.21167 1.366072,3.2097 -1.181263,0.43075 -1.968065,-0.37974 0.113517,1.07435 -2.332586,4.79171 -3.608837,3.85872 -3.107599,0.33356 -3.468138,3.54343 -5.742639,1.76967 l -0.09022,-0.99735 -0.07254,-1.27877 z m 12.400675,-6.31308 c 0.269746,-3.03832 -1.459336,1.89092 0,0 z m -0.532736,-12.25138 c -2.157744,0.18909 -0.07835,2.59437 0,0 z m -0.412139,-1.10716 c -1.9199,-1.76057 -0.644989,-3.63525 -0.09263,-1.46216 1.12383,-2.86937 -0.748002,-3.33263 -3.307698,-2.7811 0.484469,1.46239 2.305387,6.37729 3.400328,4.24326 z m -1.760093,-1.08039 c 0.752016,-2.78137 0.481575,2.80901 0,0 z m -0.90192,0.40354 c -0.772086,-1.24116 -0.632401,2.89014 0,0 z m 1.856134,-13.10414 c 0.990887,-1.18439 0.06567,-5.48591 1.752912,-1.71535 -1.49214,-2.28335 0.191505,2.85921 0.530256,0.85545 2.943389,1.22097 -1.761216,-3.43224 -0.605511,-3.71126 0.526152,-0.73055 1.737139,-4.1675 1.906269,-2.05338 0.132852,-3.38662 2.23458,1.72544 1.509313,-0.77575 2.138259,-3.15586 -5.009011,-1.1001 -1.812314,-5.22422 -1.453837,0.0182 -1.128177,3.11684 -1.734141,4.52955 2.892369,-2.56028 -1.471005,4.27536 -1.474621,-0.63629 1.058574,-4.76846 -1.413984,-0.001 -1.040734,1.40231 -1.377387,0.96222 -2.203785,8.28183 0.968571,7.32894 z m -0.173696,-5.95552 c -0.744275,-2.24608 2.10834,-0.0252 1.393086,0.26998 -0.472756,0.87558 -1.220107,0.25701 -1.393086,-0.26998 z m 3.172968,-2.66123 c 0.04075,-2.45191 1.045892,1.41508 0,0 z m 5.144371,3.10352 c -0.681877,-0.97216 -1.389649,1.2498 0,0 z m -0.999893,-0.54288 c -1.088845,-2.66762 -1.283618,0.22892 0,0 z m -5.291666,-1.20104 c -0.587324,-4.18707 -2.673081,-0.9846 0,0 z m 6.306587,-0.51325 c -0.248695,-1.17912 -2.233154,1.43329 -0.245875,0.37775 z m -4.909685,-6.39473 c -3.250113,-0.37039 1.8026,1.41133 0,0 z m -7.879194,-6.47237 c 2.681088,-2.00594 -3.154534,-1.92405 0.02287,0.52916 l -0.02286,-0.52916 z m -29.670696,51.45949 c 0.580872,-3.42999 2.714367,1.77445 0,0 z m -4.328262,-3.41822 c 1.222103,-1.52138 1.091421,1.21971 0,0 z m 1.418597,-0.0194 c 0.249908,-3.69629 2.985556,1.65885 0,0 z m 20.322781,-2.65965 c -2.854716,-5.39388 -6.922804,-10.31236 -8.888075,-16.07844 1.409408,-2.27128 -2.630181,-1.69978 -3.482251,-0.29327 2.787781,-2.02428 -0.982234,-2.29132 -0.342074,0.55045 -0.893627,0.27094 -0.606071,0.80841 -2.589853,2.08665 -0.04224,-1.87295 1.137977,-3.12509 0.329685,-0.95368 1.82266,-2.16659 -0.591952,-3.098 2.185252,-2.90775 -0.715047,-0.94652 0.959645,-0.91305 -0.348651,-2.69645 1.420297,0.27641 1.461449,2.83715 3.418814,1.33508 -0.636485,-0.73411 -1.620654,-1.4043 -1.047939,-2.96712 -0.02186,-3.43605 1.976829,3.06158 3.155196,0.52802 -2.617526,-0.96884 0.155213,-7.51107 -1.876308,-7.80337 0.396099,-2.26199 -1.170835,-1.97876 2.511783,-2.02116 1.41419,2.70574 2.450195,6.35764 3.805258,10.25681 2.157332,7.03976 5.912541,13.99145 4.682481,21.57578 0.03094,3.56117 -0.366126,0.97825 -1.513318,-0.61155 z m -8.247628,-27.63514 c -0.677329,-1.79949 -0.51731,1.74346 0,0 z m -6.193038,27.08867 c 0.0061,-1.75054 1.450068,0.9053 0,0 z m -2.384721,-1.71927 c -2.356587,-3.88595 4.943899,-3.37734 2.04297,0.097 -0.463132,0.76129 -1.548459,0.35124 -2.04297,-0.097 z m -0.153491,-6.18711 c 1.268996,-1.73099 0.382813,1.59371 0,0 z m 43.127083,0.0125 c 1.25708,-3.9344 2.489795,-0.42839 0,0 z m -40.391692,-1.64033 c -2.935503,-1.87434 2.298851,-2.78242 -0.715862,-1.23917 0.795489,0.23512 1.42591,1.21517 0.715862,1.23917 z m 0.90855,-2.34088 c 0.074,-3.49929 1.326115,1.68907 0,0 z m 1.022878,-1.85208 c 1.58401,-1.69942 0.02459,1.53322 0,0 z m 14.466855,-1.5875 c -2.446182,-7.47183 -5.899133,-14.58495 -8.293526,-22.05875 1.304658,-0.93958 0.974032,-5.56114 2.538761,-3.32854 2.355256,-1.14956 1.170349,-5.08771 1.638546,-5.1152 2.342265,1.47942 -1.065124,-2.91217 1.896145,-0.41508 2.89566,1.35069 2.110406,4.85679 2.889894,7.4362 0.675836,4.76185 1.929889,9.54508 2.520039,14.25261 -0.996507,3.25312 -1.919544,6.53894 -2.931595,9.77914 l -0.25826,-0.55034 z M 67.7,158.00857 c -1.009623,0.30692 -1.183153,-0.2015 -1.318917,-1.09769 -0.519661,0.50226 -1.480446,-0.75567 -0.202488,1.87167 0.563891,0.0889 1.329523,-0.19169 1.521405,-0.77398 z m -6.706484,8.62593 c -3.036427,-4.99285 2.129906,-1.41463 0,0 z m 13.788099,-1.46229 c -1.425664,-3.96137 -2.762905,-10.31714 -2.583698,-13.2226 0.694102,-1.87762 3.387334,-4.35998 3.898386,-6.54499 3.765785,1.29366 -5.690374,-1.77364 -1.973364,-3.47362 3.714517,1.21336 2.212572,4.08745 4.453652,0.97631 3.26996,-3.3649 -1.074847,1.89076 2.524529,2.79154 -3.33689,-1.27661 -4.964653,3.97608 -1.759451,2.03353 1.450058,2.09382 1.068776,-1.04578 1.256769,-1.3597 1.40909,1.09035 2.741539,2.46854 -0.07181,3.69202 -2.751808,-1.20768 -2.603874,-1.19885 -4.780876,-1.32179 2.087432,1.79639 0.794443,1.18404 0.454617,3.53042 -0.746141,1.53869 0.194983,2.81607 1.670683,3.5794 0.169871,3.34697 -1.409521,7.26895 -2.186462,10.90706 -0.495877,0.61692 -0.687894,-1.69695 -0.902975,-1.58758 z M 75.34789,150.0474 c -1.406591,-1.76522 0.353492,1.7279 0,0 z m 3.69529,-5.69507 c 0.22335,-1.21615 -2.34633,0.86712 0,0 z m 10.87637,13.82764 c -1.056054,-1.67364 1.979053,0.30984 0,0 z m 2.946564,0.003 c -1.180238,-3.22088 2.39717,0.9197 0,-2e-5 z M 91.5125,157.79476 c 0.832455,-1.08475 1.094134,1.42004 0,0 z m 2.676237,-0.2749 c -2.306698,-2.18578 2.259509,-1.24797 -0.49781,-0.92104 0.470187,0.72124 2.993665,1.55714 0.49781,0.92104 z m -4.792904,-2.8892 c -3.20785,-3.2268 0.956781,1.03057 -2.54315,-0.79471 -3.49554,-2.04389 5.614652,-0.91408 2.629937,1.06142 l -0.08679,-0.26674 z m 1.322917,-0.87028 c -1.273821,-2.42604 1.312071,0.95458 0,0 z m 0.437682,-0.82362 c 0.593771,-3.352 -0.15225,1.53389 1.282163,-0.77408 -0.13359,-0.24428 0.4134,-2.44457 2.076776,-0.67944 -0.462519,1.49194 -2.351704,1.77485 -3.358939,1.45352 z m -5.217229,-0.72709 c -0.337023,-1.72936 2.165187,1.47542 0,0 z m 3.994211,-0.16228 c 1.303165,-2.76326 0.224716,1.35803 0,0 z m -24.350081,-0.81072 c 1.906329,-3.86831 0.05419,1.91539 0,0 z m 16.139584,-0.0648 c 2.318158,-1.10762 4.128912,0.53226 1.158588,-0.012 -0.500555,-0.47694 -0.722332,0.82108 -1.158588,0.012 z m 11.046354,-1.4764 c -1.575624,-1.85234 1.744563,0.81907 0,0 z m -8.557758,-0.36568 c -1.657756,-1.46555 -4.788412,-8.52429 -0.618656,-4.30948 -0.702001,4.61986 2.822787,2.73148 2.715762,1.07494 1.395852,0.88907 1.397067,4.98848 0.276499,2.65862 -0.251112,0.5246 -0.777009,1.38 -2.373605,0.57592 z m -17.04068,-4.7914 c 1.13485,-2.86528 0.401114,1.43042 0,0 z m 16.656789,-2.08336 c 1.262582,-1.91375 1.192827,1.31829 0,0 z m -2.670707,-0.41181 c -0.860911,-0.96536 4.14334,1.01109 0,0 z m -9.06643,-0.23659 c -1.216574,-1.89445 2.85827,0.55992 0,-2e-5 z m 2.687119,-12.90985 c -2.109412,-1.94134 2.156561,0.76206 0,0 z m -3.175,-1.00018 c -1.78932,-3.781 2.280684,2.21991 0,0 z m 1.521354,-0.93411 c 2.333894,-0.98021 0.581037,0.20099 -0.256763,0.37373 z m -3.77168,-3.50572 c -1.849524,-3.64609 1.807483,1.03336 0,0 z m 11.872164,-0.77212 c 0.492586,-2.6937 0.835852,-0.0118 0,0 z m -12.995275,-1.27841 c -1.515717,-2.39394 1.682394,0.61034 0,0 z"
         id="path1926" /><path
         style="fill:#95bf76;stroke-width:0.264583"
         d="m 68.586971,209.76456 c -2.191915,-1.91577 -0.613014,-5.89378 0.672694,-1.32734 -2.750405,0.31815 1.94773,1.72866 -0.672694,1.32734 z m -6.052984,-1.32113 c 0.521373,-3.19025 2.09974,1.39837 0,0 z m -3.565237,-0.26237 c -1.158119,-0.71378 -1.693374,-5.73674 -3.083664,-2.20651 -4.662256,-1.35206 3.678247,-2.14035 -0.170219,-4.8822 1.311978,-1.81451 6.05491,-3.78154 2.195546,-6.48471 -1.336287,-4.17712 2.444922,-7.49291 3.943275,-1.7846 0.944145,3.19498 6.811302,9.3932 4.459639,11.28299 -3.430724,-4.213 -2.308368,2.19506 -5.492498,2.77729 -0.982487,-0.70844 -1.84419,1.83086 -1.852079,1.29774 z m 7.239431,-1.97585 c -0.463128,-1.4018 3.805152,-1.74755 0.153239,0.39688 l -0.17104,-0.11658 0.01781,-0.28029 z m 8.540068,-0.67595 c 0.863846,-5.50984 3.671946,-10.84482 6.572056,-15.59593 1.290175,-5.63251 -5.210576,1.53367 -5.72139,4.10086 -1.778471,3.29295 0.0725,-4.67417 -0.47076,-5.66655 -0.346196,-3.57042 1.318797,-9.73474 1.371005,-11.10084 0.923495,3.44412 2.448912,0.49652 1.033002,-0.61107 1.757116,0.21483 1.336346,2.69331 1.977173,4.464 0.875838,-0.6499 -3.761414,-1.47477 -2.179369,-0.3321 1.619731,-0.53975 1.77363,2.93369 -0.431506,0.98836 1.643203,1.68771 2.185928,2.05411 0.913286,2.8838 1.715171,1.71415 1.910027,-4.05221 2.725314,-3.67332 2.58013,0.0142 0.86426,1.88619 1.260046,3.29862 2.309609,-0.43339 0.810474,2.35363 -0.735412,0.7118 -1.056038,1.59894 2.852022,1.60876 1.066893,4.58609 2.079094,-0.88594 1.606351,3.52401 2.656489,1.30562 -1.724634,-2.23344 3.105159,1.47162 2.574889,-2.82123 0.137751,-2.70053 0.552337,-4.60881 -1.921877,-6.93564 -1.729669,-1.64104 -0.497559,-1.11473 -0.03206,-0.9218 2.460944,0.2649 -4.120568,-3.74466 0.834673,-2.81446 2.346697,-1.25678 1.032113,-2.64401 3.527522,-2.0044 0.478307,-3.30087 3.008999,6.22042 -0.620181,4.37602 0.792991,3.01 -3.280388,7.13863 0.718293,8.05355 1.367813,0.52248 0.907919,-2.92681 1.983974,0.63623 2.348835,2.84477 -3.923565,7.0733 -2.296654,8.459 0.879474,0.82737 0.843341,3.59446 -0.149373,2.43592 -1.000715,2.83727 -2.350632,1.74837 -1.700226,0.63379 -1.026549,-1.53422 -3.678093,0.81613 -2.695026,2.77543 -1.123052,1.03674 -4.093666,-1.1737 -2.220997,1.21859 -0.849472,2.51757 -3.271031,-0.44805 -4.880807,1.68852 -0.838191,-0.55992 -3.16289,1.16 -3.158981,-0.13886 z m 14.291701,-8.36709 c -1.391148,-0.0826 0.564458,1.60182 0,0 z m -2.44018,-1.01113 c 1.077293,-4.75922 -3.936665,2.34284 0,0 z m -6.600413,-9.9622 c -0.618815,-2.26651 -3.361615,1.13798 0,0 z m 1.326685,-2.87009 c 0.05389,-2.13406 -1.517574,1.24576 0,0 z m 6.633982,-1.32291 c 1.761818,-3.99124 -2.457185,2.31613 0,0 z m -0.770466,-3.78346 c -0.623511,-1.95639 -2.524506,2.46388 0,1e-5 z m -35.562996,26.8999 c 0.110993,-2.11468 0.911442,-0.20752 0,0 z m 17.131771,-5.98347 c -2.43431,-4.76355 -6.243632,-9.07746 -7.840348,-14.09878 0.355841,-1.61927 2.519955,-0.5567 -0.296861,-2.21748 -2.570973,-1.96016 0.0764,-7.24212 1.631601,-3.06132 0.04388,3.75804 1.298834,-2.69943 1.642007,0.56607 1.390351,1.17656 -0.790028,2.70367 1.838172,0.70407 3.001126,4.42366 4.736228,10.70872 4.410437,16.26318 -0.189399,1.59515 0.233911,5.81686 -1.159684,2.24988 l -0.160886,-0.28962 z m -17.043576,-2.71016 c -2.136927,-2.91952 3.025023,-3.12862 1.83644,-1.46354 1.574489,-0.88013 -0.610651,3.28646 -1.83644,1.46354 z m 1.168576,-0.0824 c 0.225092,-1.85049 -1.813564,-3.0547 -0.984857,-0.11906 0.08444,0.14791 0.880814,0.59352 0.984857,0.11906 z m 40.910719,-10.15982 c -2.158181,-4.6566 4.199815,0.46207 0,0 z m -1.793835,-2.4927 c -2.717468,-3.66931 3.850702,-4.71033 2.252985,-1.26877 0.475511,0.35975 -1.277336,1.74013 -2.252985,1.26877 z m -21.345369,-0.88042 c 0.45271,-1.92513 -0.927588,-5.25389 -1.53511,-5.61295 -0.10032,3.00432 -2.206402,-6.10255 -2.446568,-6.09342 -1.552747,-2.20111 -2.147819,-5.30791 -2.205014,-7.26183 0.898308,-4.34921 2.908132,-0.67324 3.269643,1.75656 -0.825964,-2.74276 -2.488131,-2.03941 -2.431682,0.78034 2.038761,2.90806 0.899835,-2.61563 1.983662,1.46923 -1.69421,2.54271 1.72363,-0.94642 2.100683,1.59295 1.624114,-0.0766 4.30336,1.32023 4.404373,4.23667 -0.06733,2.96549 -3.134627,5.75775 -2.523907,1.37128 -1.915849,-0.76076 -2.65466,-1.53899 -1.665817,0.009 -0.748591,0.87239 2.563543,2.37983 2.711582,3.74779 -0.844849,0.15298 -1.073375,6.73191 -1.661845,4.0043 z m -1.661065,-10.23529 c -1.033593,-2.06128 -0.404059,2.51915 0,0 z m 2.647665,-0.19658 c -0.221632,-2.87797 -2.250328,2.66067 4e-6,0 z m -3.271917,-3.02343 c -1.447221,0.3351 -0.690856,2.061 0,0 z m -3.048122,-5.60842 c 0.597558,-2.00679 -1.606292,2.40762 0,0 z m -1.414314,15.82882 c 0.04607,-2.80899 2.678343,0.34919 1.279366,0.0462 0.407757,-2.0836 -1.290928,1.74678 -1.279366,-0.0462 z M 83.575,179.83592 c 0.166768,-1.84742 2.187444,-1.62166 0,0 z m -20.793805,-1.64371 c -0.193707,-1.78317 1.316822,0.90783 0,0 z m 31.112555,0.0995 c 0.64703,-2.11368 3.191687,0.92737 0,0 z m -29.302604,-0.66036 c -3.149929,-2.3871 1.711555,-0.70802 0,0 z m 21.988206,-1.32856 c -3.339617,-2.73744 1.950531,-1.36973 0,0 z m -26.035299,-0.52462 c -0.875177,-4.51297 3.990154,-2.29331 0.567248,0.0396 -0.233169,0.13879 -0.773998,1.18129 -0.567248,-0.0396 z m 16.94553,-0.20571 c 1.093776,-2.65342 2.532095,-0.45338 1.852082,-0.45579 0.687334,-1.90685 -1.931566,1.23643 -1.852082,0.45579 z m -0.608959,-1.18336 c -1.136066,-3.04263 3.74187,-1.71447 0.587898,-0.25426 -0.109409,0.32051 -0.08362,0.72766 -0.587898,0.25426 z m 2.889416,-0.46932 c -0.746875,-3.7155 1.314478,1.30576 0,0 z M 62.869118,172.9339 c -0.521743,-5.32769 0.961311,-1.28648 0,0 z m 28.393623,-0.25708 c 0.273941,-2.58161 4.902162,0.12125 5.619764,0.0398 -1.492565,0.37768 -4.450447,1.13299 -5.619764,-0.0398 z m -12.900432,-0.57746 c -3.891432,-1.61946 4.461456,-1.69767 0.673898,-0.57985 0.361301,-0.19228 1.409863,1.57209 -0.673898,0.57985 z m -17.130353,-1.19293 c -0.02534,-1.77506 0.592564,-4.83091 0.586412,-0.62923 0.04918,0.0681 -0.261928,1.24642 -0.586412,0.62923 z m 16.839711,-0.60514 c -1.055341,-2.21353 1.467892,0.56158 0,0 z m -8.584452,-1.15848 c 0.515782,-3.34859 2.7373,-0.0415 0,0 z m 25.464868,-0.85128 c -2.920486,-2.24138 5.01239,-1.59712 0.578855,0.0186 z m 1.852084,-1.14063 c -0.890583,-0.9725 -0.944235,1.36076 0,0 z m -17.727084,-0.23299 c -2.133413,-0.82084 3.026061,-2.3049 0,-3e-5 z M 68.460677,165.724 c -3.061692,-4.12995 3.452945,0.72392 0,0 z m 13.498698,-0.33073 c -0.607962,-2.49799 -0.45226,-0.37035 -2.212535,-0.59531 -1.789217,1.75436 -0.403741,-1.35303 0.851594,-1.15737 -0.05756,-0.91162 1.961561,-2.7554 2.444737,-0.69307 -1.038422,0.90257 0.0052,3.7392 -1.083796,2.44575 z m 7.126528,-3.24114 c 0.701389,-3.4863 0.791565,3.31565 9e-6,0 z m -18.365568,-0.72327 c -0.301315,-1.63412 -2.655221,0.13576 -1.695173,-2.88929 1.232689,-0.74333 2.585606,4.31122 1.695173,2.88929 z m 3.669842,-1.82177 c -2.116081,-1.1149 1.104831,-3.98583 0.4443,-0.31877 0.274915,0.25675 -0.582822,0.75731 -0.4443,0.31877 z m -0.439843,-3.44447 c -1.663998,-2.39286 2.320481,2.16935 0,0 z m -5.307523,-0.76532 c -2.06092,-2.57552 3.279358,1.54638 0,0 z"
         id="path1924" /></g></g></svg>
