<?xml version="1.0" encoding="UTF-8" standalone="no"?>
<!-- Created with Inkscape (http://www.inkscape.org/) -->

<svg
   width="78.755524mm"
   height="96.459595mm"
   viewBox="0 0 78.755524 96.459595"
   version="1.1"
   id="svg1237"
   xml:space="preserve"
   inkscape:version="1.2.2 (732a01da63, 2022-12-09)"
   sodipodi:docname="arbustif-arrondi-natural_tree.svg"
   xmlns:inkscape="http://www.inkscape.org/namespaces/inkscape"
   xmlns:sodipodi="http://sodipodi.sourceforge.net/DTD/sodipodi-0.dtd"
   xmlns="http://www.w3.org/2000/svg"
   xmlns:svg="http://www.w3.org/2000/svg"><sodipodi:namedview
     id="namedview1239"
     pagecolor="#ffffff"
     bordercolor="#666666"
     borderopacity="1.0"
     inkscape:showpageshadow="2"
     inkscape:pageopacity="0.0"
     inkscape:pagecheckerboard="0"
     inkscape:deskcolor="#d1d1d1"
     inkscape:document-units="mm"
     showgrid="false"
     inkscape:zoom="2.2173472"
     inkscape:cx="210.38654"
     inkscape:cy="164.16013"
     inkscape:window-width="2560"
     inkscape:window-height="1369"
     inkscape:window-x="-8"
     inkscape:window-y="-8"
     inkscape:window-maximized="1"
     inkscape:current-layer="layer1" /><defs
     id="defs1234" /><g
     inkscape:label="Calque 1"
     inkscape:groupmode="layer"
     id="layer1"
     transform="translate(-59.858239,-124.28099)"><g
       id="g1370"
       transform="translate(38.419401,-7.9093222)"><path
         style="fill:#d6e6ca;stroke-width:0.264583"
         d="m 63.090078,228.06613 c -1.007204,-9.00054 -1.40341,-18.09562 -1.342498,-27.15311 0.243802,-2.37713 0.09272,-4.92375 0.585376,-7.21715 4.227868,-5.88635 9.1104,-11.29356 14.873973,-15.72167 3.592039,-3.2815 7.77982,-5.91916 11.118382,-9.45708 -2.595774,0.44484 -5.841638,4.52562 -8.274216,5.09504 0.856055,-3.98112 5.474345,-9.09226 5.19615,-11.76015 -2.686505,3.51961 -4.624167,7.67659 -6.914379,11.50187 -0.816694,1.53841 -1.434037,3.25266 -3.182837,3.94114 -1.964701,1.16672 -6.449147,5.08108 -4.135413,0.60113 1.914001,-5.13337 3.584981,-10.36878 5.39167,-15.52904 -2.738248,0.95252 -3.530384,7.53377 -5.319622,10.67008 -2.13202,5.92764 -4.288698,12.14686 -9.181729,16.42466 -0.292103,-2.74042 1.085633,-7.77111 1.245299,-11.4601 0.96349,-2.07689 -0.117634,-7.01246 -0.797037,-2.22933 -0.356692,1.66453 -0.82861,7.65009 -1.976079,2.82532 -1.976821,-2.81865 0.429492,3.14366 0.602677,4.50892 -0.746124,3.07941 -1.306269,6.50009 -2.658967,9.20034 -2.671574,-3.1482 -4.980002,-7.16659 -3.52704,-11.40516 0.392987,-4.01758 1.793603,-8.23862 1.505675,-12.11456 -1.543413,4.40756 -1.798124,9.27332 -3.212941,13.74909 -2.705178,-6.40934 -4.4242,-13.2857 -6.800739,-19.85304 -1.145311,0.9238 1.320579,6.6006 1.791126,9.31394 -3.536519,-2.74753 -6.12144,-6.46438 -9.076391,-9.7694 -0.08015,2.24557 4.517112,6.32336 6.329052,9.1677 3.376749,2.99651 4.544234,7.22837 5.056644,11.56774 -2.563995,-1.19852 -6.19498,-5.31562 -9.252434,-7.48431 -1.574819,-0.64314 -4.96341,-5.67988 -5.753479,-3.71831 5.442617,5.97587 12.283183,10.57384 17.339226,16.89634 2.109644,3.76823 5.046855,7.44215 5.620316,11.819 -0.04688,9.17246 -0.449103,18.38043 -1.485292,27.49273 -0.298233,-3.28681 0.342065,-7.27709 0.482514,-10.81926 0.189122,-5.38166 0.85421,-10.83412 0.357453,-16.18841 -2.627196,1.36995 -5.792753,0.0205 -8.910147,-0.81958 -2.754649,1.2538 -3.596789,-2.3765 -5.52836,-2.77175 -2.851153,-1.4359 -8.14819,-0.72501 -9.033646,-4.30866 -1.365741,-2.28527 -4.678701,-2.01967 -6.315713,-5.35929 -1.480938,-1.21733 -0.685016,-3.60085 -2.704212,-4.12545 2.048409,0.50516 -2.46906,-3.55256 -0.09827,-1.77742 1.888727,-2.23646 -3.243771,-3.52342 0.512913,-5.65089 0.752831,-2.20065 -2.978702,-1.62223 -1.130673,-3.66313 -2.176203,-2.50554 -2.357704,-6.2166 -1.209253,-8.84015 -0.106906,-1.36391 -1.964371,-0.98551 0.425736,-2.1526 1.151107,-1.92448 -0.224402,-3.97268 1.803145,-5.38736 0.751922,-2.73311 0.136375,2.09337 1.208275,-0.81603 2.34497,-0.69042 -1.495196,-5.22111 1.555225,-4.10005 0.210662,1.01688 -0.322091,5.18296 0.641191,1.75758 -0.05426,-1.60695 -0.229032,-1.96528 -0.813825,-2.82513 -0.06391,-1.39427 0.878571,-3.65464 1.658686,-3.29491 0.02689,-2.2365 3.567046,-2.66143 5.667494,-3.55212 2.57529,0.0849 1.694896,-2.31963 2.910246,-0.34542 1.303842,-0.71668 7.578281,1.9185 5.159375,-0.0112 3.005404,0.29457 -0.773921,-6.49253 2.001611,-3.06579 -1.662531,-2.08649 1.428519,-2.12064 -0.681338,-4.00626 0.819732,0.85301 3.164185,0.88549 0.868564,-0.28554 0.370804,-0.42746 2.973671,-0.15996 2.020527,-1.92115 2.838208,-0.26444 4.413685,-1.66339 7.25234,-1.00667 -2.253378,1.31737 4.44611,0.97812 2.217726,0.67515 2.292999,-1.14018 4.968771,-1.74354 6.164311,-0.13815 3.269218,-0.6854 8.370431,-1.23099 10.769831,0.82325 1.888298,0.24762 2.642178,-0.37238 4.055746,1.43103 0.421111,-1.79216 3.382633,-0.10614 4.61808,0.6799 1.393624,1.36449 2.363001,2.25271 3.442798,2.9652 1.058824,-0.0744 3.309183,0.57139 3.096306,2.34878 -0.831596,-4.11583 2.755703,-0.65334 1.825018,0.89642 0.767569,1.32427 0.766962,-1.45296 1.666691,0.77222 1.380931,0.77848 -1.881456,0.28867 0.405406,1.7896 0.429967,1.69843 0.256394,2.41324 0.524561,4.03302 -1.458552,0.15775 -1.481782,2.96117 -0.469836,2.05447 -0.915467,0.39759 -2.602334,3.05385 -1.235684,2.56311 2.330076,-2.08228 0.817432,1.47695 2.918479,2.6419 -0.324896,2.23675 0.42281,4.19294 -0.531879,4.70836 -0.515878,2.32103 2.773788,2.43624 1.652598,4.35425 1.6766,1.1604 3.636719,4.86793 3.45619,7.06857 1.900129,2.42295 -0.961716,4.42914 -0.210054,6.4888 -1.598431,1.52309 -0.672791,5.25619 -2.242179,5.16182 0.202842,2.17776 -2.149647,2.22974 -2.398218,2.32938 0.713803,1.9453 -1.841052,-1.23324 -1.687505,1.45472 -2.203933,0.44513 -3.742997,3.17799 -4.105886,3.47677 0.886457,2.90501 -2.429527,-0.64835 -2.565162,2.4171 -3.760878,-0.53846 -4.573112,2.85891 -7.374848,2.98756 -1.101203,1.48652 -6.197581,2.9924 -8.917441,1.98925 0.569224,3.20629 -8.260429,-0.75448 -7.882929,3.44672 -0.04754,8.8741 0.732349,17.77766 1.128427,26.59859 l -0.184851,-0.58407 z m 23.22585,-35.55849 c -1.596484,-1.65106 -0.348345,1.49468 0,0 z m -1.765366,-1.34515 c 1.424613,-4.23724 -2.631892,2.69557 0,0 z m 2.599611,-1.69106 c 0.980885,-1.51285 -1.128044,-1.8255 -0.827431,0.24533 l 0.827431,-0.24531 z m -3.134178,-0.72353 c -0.411856,-2.00419 -0.694323,2.43492 0,0 z m 5.450745,-1.10026 c 0.243836,-1.03851 -2.094115,0.8351 -0.36398,0.26505 z m 2.945125,-1.46259 c -1.402723,-1.75001 -0.343438,1.16891 0,0 z M 27.617708,164.86564 c 1.04227,-2.06801 -1.881524,0.94215 0,0 z m 65.442733,-4.99071 c -1.565662,0.0853 0.02971,1.91437 0,0 z M 46.420984,142.2487 c -1.89964,-3.25522 0.01402,2.78096 0,0 z m 33.096047,-2.3976 c -0.07639,-1.98223 -1.592923,1.48568 0,0 z m -14.282195,-1.61799 c -1.958158,-1.12639 -1.276084,1.16832 0,0 z m 12.65541,-1.65729 c -2.267808,-0.8925 0.296472,1.57855 0,0 z m 2.918579,-1.28955 c -1.305529,0.33935 -0.342093,1.61281 0,0 z m -3.912471,0.0939 c -0.900559,-2.54686 -0.556688,2.04171 0,0 z m -55.257492,31.86668 c -0.842267,-2.04884 1.332769,-1.0069 0,0 z m 75.365825,-2.29906 c -1.715285,-1.34591 2.68214,0.4066 0,0 z m -75.482832,-1.422 c 0.07469,-1.09731 2.348374,-0.12886 0.271376,0.1376 l -0.271376,-0.13767 z M 34.017551,140.7977 c -2.518995,-4.33048 3.805184,1.92329 0,0 z m 2.653408,-0.80121 c -1.471814,-0.82829 -0.04473,-3.502 0.706976,-0.55236 -0.82339,0.68536 0.69604,1.53613 -0.706976,0.55236 z m 3.457963,-0.57165 c -0.748618,-0.53558 1.707698,-0.48699 1.904526,-0.95137 -1.605447,0.36125 -0.05075,1.99375 -1.904526,0.95137 z m 3.153275,-0.66546 c -0.106998,-1.83681 1.334825,-0.21818 0,0 z"
         id="path1384" /><path
         style="fill:#c6dcb6;stroke-width:0.264583"
         d="m 63.114597,227.7802 c -0.975153,-8.45031 -1.175758,-16.99053 -1.327683,-25.4909 0.206938,-2.85043 0.08044,-5.88401 0.608291,-8.64814 4.152333,-5.53675 8.598383,-10.90581 14.17449,-15.08298 3.781519,-3.37181 7.992068,-6.25192 11.652572,-9.75255 -1.925899,-0.70068 -6.243389,4.6259 -8.157788,4.72892 1.456183,-3.25389 4.057814,-9.38244 5.912288,-10.29535 0.50368,-1.59244 -1.688293,-3.39919 -1.157215,-1.62628 0.880697,-0.33318 -2.728583,4.75257 -3.492641,6.40176 -1.70892,2.72901 -3.089836,5.74484 -4.87622,8.37492 -2.047781,1.34745 -4.078306,2.72179 -6.148827,4.03418 1.960163,-6.02021 4.199276,-12.02354 6.169848,-18.0039 -2.56503,-2.28081 -2.023516,4.43739 -3.644916,6.01663 -3.16499,7.24652 -4.72356,15.7684 -11.16317,21.01733 0.769044,-5.29116 1.751562,-10.61118 1.796658,-15.97124 -2.11009,0.69265 -1.206698,11.00524 -3.406324,4.32656 -2.099478,-0.46892 2.071442,5.11609 0.444673,7.13007 -0.777309,1.66616 -1.114841,7.93702 -2.520849,7.13129 -1.887901,-3.0032 -4.374706,-6.18313 -3.260972,-9.95653 0.509711,-4.43791 1.449042,-8.81402 1.988483,-13.24614 -2.184315,2.10382 -1.653169,6.68903 -2.790919,9.74201 -0.406191,2.1141 -0.90201,5.68267 -1.728065,1.63158 -2.168022,-5.95662 -3.769396,-12.13586 -6.075635,-18.024 -1.262626,1.9369 2.125774,7.37042 1.382209,9.25051 -3.265598,-2.38448 -6.143403,-7.9075 -8.998402,-8.93622 3.074862,4.61812 6.992751,8.66386 10.109756,13.2191 0.284413,1.85761 2.655077,7.4073 1.117439,6.99143 -4.651757,-4.03024 -9.374951,-8.11514 -14.128955,-11.94195 0.377872,3.37644 5.450723,5.78009 7.760129,8.66279 4.46215,4.01332 9.391478,7.81046 11.868024,13.47373 1.872438,2.5404 4.349612,8.50463 0.707262,7.91214 0.796138,-1.18658 -2.606442,-1.93196 -0.987924,-0.58564 1.021366,0.27724 -2.018898,0.85161 -0.529709,-0.52763 -2.352792,-1.64717 -2.816075,3.06183 -3.542527,-0.87542 -3.724335,0.0924 -6.704619,-1.82861 -10.117322,-3.19346 -3.919132,1.48375 -6.453159,-2.05603 -8.068192,-4.60737 -1.904242,0.47504 -4.569154,-2.98661 -5.514137,-5.08042 -0.289144,-2.04334 -2.940357,-6.29388 -0.670832,-4.61602 -1.435546,-1.75844 -3.233169,-4.98025 0.86624,-4.43833 2.392711,3.14305 -0.751997,-2.90109 1.587134,0.23774 2.16617,3.68786 -1.320253,-4.73168 -2.886918,-2.20901 -2.194921,-2.04249 -3.419036,-5.99649 -2.81186,-8.72654 0.173796,0.94061 6.128207,-0.3272 7.653891,-2.12935 -1.102018,-3.74534 -0.488389,-7.66896 -0.587067,-11.31589 -0.564133,-1.56561 -1.626954,-3.34817 -1.19307,-4.90219 2.127965,0.12024 3.667194,-5.60846 6.918223,-3.45904 1.456441,-1.69034 3.277797,-0.11055 5.058195,-0.90679 2.667095,1.08887 3.857271,1.95931 6.88512,0.33199 2.001007,-0.45987 2.245567,-0.063 2.266038,-1.11095 2.597599,1.12836 -0.205718,-3.42435 0.785391,-4.72082 -2.56958,1.14298 -2.466941,-3.16394 -0.629291,-0.98734 -0.376487,-1.86804 -0.271578,-1.04655 -0.269439,-2.47264 2.067918,0.53382 2.372901,0.29082 2.89947,-0.79189 -1.038812,-0.93016 2.54173,-0.0737 4.569247,-0.0455 1.30676,-0.92764 2.331995,-1.60189 4.272459,-0.72444 1.188527,2.20627 2.412629,-0.28558 4.161643,0.54265 0.367071,-2.66 0.958815,2.33042 1.778557,-0.5321 -1.449576,-1.58496 3.763726,0.65615 2.803998,0.44374 1.989244,-0.96195 4.203987,2.4261 5.18186,1.68954 -0.480617,1.89004 2.369545,1.39982 1.417466,3.79632 -0.377312,3.08061 1.605053,2.85106 2.995299,1.59583 0.350032,-1.64485 -0.727168,-1.70758 -2.353809,-1.47547 0.352365,-1.5867 -0.334897,-4.56436 1.74205,-3.58806 0.726457,1.8351 3.543124,-0.34406 1.194338,2.23828 0.257463,1.56306 -2.418138,-1.44236 -0.366015,1.22757 1.155922,1.45363 0.864458,-3.83114 2.905467,-0.6096 4.445477,0.40464 -0.982022,6.12128 2.114034,5.658 -0.286296,-0.97152 0.138078,-3.69746 0.568743,-1.37452 -0.898147,-2.18677 2.291824,-4.3182 2.752489,-1.0938 1.937357,-1.53702 1.737549,3.76491 -0.127857,1.53048 1.678629,1.78142 2.782906,-1.18727 3.092064,1.54272 1.987254,1.27244 -0.520916,5.87088 -0.362307,6.36702 -0.538349,0.78179 -1.571385,-0.47325 -1.963024,1.76363 -2.373548,-0.3832 1.431702,2.68381 -1.833473,2.68228 3.159671,-0.84231 1.229941,2.8147 4.08242,1.61904 2.025962,-0.43096 2.044558,2.44935 2.106615,3.08745 -0.152034,-1.71404 -6.569122,1.295 -2.179526,0.47026 2.267102,-0.88738 3.516565,1.62412 1.170249,1.76764 -0.09769,-0.73466 2.032343,-1.12972 -0.467245,-0.8861 -1.469733,1.4608 0.752479,5.09786 1.245784,4.08312 -1.344352,-2.81028 6.259046,1.59009 2.48779,3.1409 1.481904,1.36039 3.080826,2.3853 2.219333,4.12008 0.307566,0.51144 1.014165,6.19558 -0.942276,3.26223 -2.632259,0.94936 -0.08973,3.12618 -1.956112,4.1482 1.467354,-0.22409 0.204175,0.98038 -1.145473,0.34161 1.798055,0.0156 -0.102256,2.31274 1.451122,1.65319 0.571274,-1.19416 -0.02931,2.6308 -1.737764,0.65496 1.145507,2.37812 -2.259328,-0.53014 -3.060879,1.51281 0.497022,-2.45539 -0.690065,3.6593 -2.895944,3.16546 -1.40483,-0.10631 -6.934714,0.24353 -5.302722,1.15225 -0.757304,0.58297 -0.537777,2.57594 -0.949243,2.75239 -0.889666,-0.24025 -0.566577,4.15292 0.02652,3.96144 -1.231744,-0.17591 -1.72211,-1.30987 -2.854741,0.68219 -1.845753,1.35049 -3.973298,3.07966 -6.979327,2.60552 -2.385131,-1.02625 -1.440251,1.7049 -4.631105,1.23348 -3.135358,-0.83408 -6.570264,0.15718 -5.197434,4.12401 0.178351,8.08152 0.625068,16.24774 1.209237,24.24998 l -0.167506,-0.51853 z M 37.539583,194.12687 c -1.088276,-1.09806 -1.508296,1.37252 0,0 z m 1.247844,-0.75806 c -1.832425,-0.44528 1.527245,2.09104 0,1e-5 z m -8.231513,-11.6148 c -0.71079,-1.13851 -2.048044,0.93329 0,0 z m 59.635753,0.0774 c -1.257904,-2.06418 -1.071839,0.88782 0,0 z m 4.497916,-2.30341 c -0.76241,-1.12567 -0.925616,1.39279 0,0 z m -64.666248,-0.57988 c -0.295395,0.17776 -2.068658,-0.42609 -0.487497,0.40926 l 0.313484,-0.13801 0.174014,-0.27123 z m 58.3458,-14.28693 c -0.432811,-3.93997 -2.571475,2.52723 0,0 z m 3.202985,-3.46679 c -0.873815,0.32256 -3.810603,1.71661 -0.930486,1.56181 0.436576,-0.40826 0.95457,-0.90787 0.930486,-1.56181 z m -7.467561,-0.5631 c -0.01099,-2.25923 -0.308232,1.42819 0,0 z m -2.339128,-1.85104 c -1.118461,-2.06858 -1.278446,2.8942 0,0 z m 1.1489,0.53126 c 0.292204,-2.56284 -1.719672,1.48291 0,0 z m -5.819539,-0.79222 c -1.014082,-2.5662 -1.804793,2.97274 0,0 z m 12.701434,-0.31488 c -2.833199,-3.44142 -0.63025,1.43882 0,0 z m 1.020289,-0.0856 c 1.082398,-2.35536 -1.509588,0.45879 0,0 z M 79.34375,157.4573 c -0.699948,-1.00686 -1.66686,1.04611 0,0 z m 3.405328,-1.05833 c 1.160848,-1.42392 0.251692,-3.20234 -1.113788,-1.21367 1.814957,-0.93931 -0.967091,2.64359 1.113788,1.2137 z m -8.678725,-4.0607 c -1.821855,-3.38459 1.408591,-1.14497 1.605101,-2.17921 -1.834161,-2.31263 -3.983616,1.14028 -1.987765,2.89175 -1.546795,1.59278 1.515656,0.0395 0.382664,-0.71254 z m 1.259321,0.60039 c -0.219316,-1.43602 -1.094449,2.3304 0,0 z m 2.740414,-1.04443 c -1.255394,-1.50624 0.518512,2.20584 0,0 z m 10.754701,0.0396 c 0.213275,-1.45363 -1.738229,0.82094 0,0 z M 78.435512,149.8463 c -1.486198,-0.32872 -0.534009,1.59759 0,0 z m -17.018135,-0.1942 c 0.06271,-3.6583 4.677199,0.54588 3.653396,-3.13683 -1.012391,-0.55998 -2.702122,-2.3174 -1.639305,0.29635 -2.003421,-1.82565 -0.217751,0.637 -1.904427,0.30689 -2.695636,0.5737 1.352844,0.74959 -0.855728,1.49666 -0.212716,0.44683 0.122958,2.09386 0.746064,1.03693 z m 19.961905,-0.8071 c 1.272595,-2.40812 -4.247019,1.69394 -0.511785,0.2961 l 0.511785,-0.29614 z m -13.681249,0.21179 c -1.71364,-3.3981 -2.347646,-0.25815 0,0 z m -4.398185,-0.46302 c -0.455773,-1.41198 -1.282558,1.25098 0,0 z m 13.819439,-0.0316 c 3.464206,-0.96898 -3.570098,-1.74585 -0.553618,0.23481 l 0.623621,0.1629 -0.06996,-0.39776 z m -8.795607,-0.77065 c -1.716423,-1.50775 -0.166889,1.98046 0,0 z m 10.433444,-1.57682 c -1.7689,0.35628 0.860386,2.65148 3.3e-5,0 z m 2.00021,1.51915 c -1.732743,-0.97652 -1.780369,0.8865 0,0 z m 7.05839,-0.46942 c 0.465618,-1.96463 -1.875113,1.32966 0,0 z m -26.233133,-0.98579 c 0.53617,-0.0786 -2.668481,-0.96099 -0.50582,0.59531 z m -13.027139,-0.91243 c -1.735868,0.032 -2.422102,2.38353 0,0 z M 65.547576,144.844 c -1.457801,-0.65157 -0.185684,1.29787 0,0 z m 10.187689,-0.21899 c -0.812439,-1.68679 -1.027265,1.33223 0,0 z m 6.783485,0.0405 c -1.339224,-2.28421 -1.810507,-0.4651 0,0 z m -21.622882,-1.99909 c -1.022307,-1.03769 -1.624728,0.96618 0,0 z m 11.436424,-0.29036 c 0.07603,-0.64361 -0.774269,-1.49453 1.098638,-2.03273 -2.221605,-1.19806 -2.735319,3.67938 -1.098638,2.03273 z m 7.116302,0.10842 c -0.179563,-2.79163 -1.61955,1.49031 0,0 z m -21.288904,-0.373 c 2.112752,-0.63545 -0.586614,-1.65861 -0.143622,-2.47456 -3.061656,0.228 -2.973429,3.86454 0.143622,2.47456 z m 30.417947,-0.0661 c -1.122123,-2.03669 -0.225706,2.09585 0,0 z m -18.143781,-1.6118 c 3.374601,-2.36268 -1.705327,-0.69802 -1.020333,0.479 0.362614,-0.092 0.596984,-0.60803 1.020333,-0.479 z m -17.548439,-0.17413 c -1.665014,-1.76714 -0.903583,1.45193 0,0 z m 10.42671,-0.92605 c -1.936125,-1.71644 0.789047,1.95957 0,0 z m 1.726018,-1.25725 c -1.582029,-1.71514 3.822044,-3.94687 -0.27913,-2.57063 -3.00915,1.76467 1.470221,4.51028 0.27913,2.57063 z m 11.478249,-0.17349 c -2.955019,-2.52529 -0.01492,1.48573 0,0 z m -22.116838,-0.54548 c -1.217298,-2.40974 -0.857914,2.01692 0,0 z m 6.987638,-0.31322 c 1.808177,-3.7815 -2.554274,2.3158 0,0 z m 8.556498,-2.36392 c -1.138275,-1.33957 0.182353,2.18926 -3e-6,0 z m -0.389525,-1.06602 c -1.54123,-1.69968 -1.91998,1.61651 0,0 z m -12.650841,91.70897 c 0.448932,-8.15349 0.88898,-16.35683 1.299382,-24.48659 0.319015,7.88326 -0.551038,15.83963 -1.081678,23.73027 0.0076,0.10674 -0.221041,2.21111 -0.217704,0.75632 z M 52.10008,200.85842 c 0.550404,-2.40074 1.486755,0.88923 0,0 z m 27.79848,-4.87334 c -0.31493,-1.79156 1.722655,1.32274 0,0 z m 9.990958,-8.36528 c 0.865437,-3.64441 1.894979,0.17519 0,0 z m 6.652149,-5.80521 c 0.570937,-2.18317 0.494806,1.75028 0,0 z M 28.698711,160.8854 c -4.167067,-0.90754 3.710861,-0.33589 0,0 z m -1.483151,-1.58587 c -0.06888,-1.72307 2.761851,-1.69644 0.670768,0.36857 l -0.360713,-0.0366 z m 62.829567,-5.04028 c 0.133158,-1.92646 1.557263,0.92506 0,0 z m -60.549258,-0.87554 c -2.125131,-2.98779 1.543537,0.13622 3e-6,0 z m 18.291832,-10.40385 c -2.886059,-2.23815 2.572718,0.0555 0,0 z m -0.339107,-1.59599 c -1.384852,-2.11412 0.494055,-5.34545 0.742216,-1.72404 -0.939374,-0.60698 0.254059,3.22284 -0.742216,1.72404 z m 2.383235,-2.20042 c 1.164435,-2.94157 0.99637,1.12121 0,0 z m 32.686921,-2.47389 c 0.953913,-1.47375 0.752462,1.09656 0,0 z"
         id="path1382" /><path
         style="fill:#b9d5a5;stroke-width:0.264583"
         d="m 63.006306,226.64584 c 0.21527,-2.03438 0.117192,2.25765 0,0 z m -6.067454,-1.71979 c 0.147005,-3.49923 0.13815,3.50703 0,0 z m 5.818134,-0.92604 c 0.142187,-3.1893 0.141349,3.3401 0,0 z m -5.551416,-2.91042 c 0.118835,-3.27998 0.118796,3.59142 0,0 z m 5.297295,-1.19062 c -0.02952,-3.19916 0.336275,0.93387 0.02975,1.25801 l -0.02176,-0.47351 z m -5.040247,-2.11667 c 0.151071,-2.96262 0.142756,2.96941 0,0 z m 4.779849,-3.30729 c 0.138983,-4.82243 0.130012,5.03312 -4e-5,0 z m -4.500634,-0.79375 c 0.132235,-4.53955 0.142492,4.33154 1e-5,0 z m 4.24456,-6.21771 c -0.02322,-5.17958 0.296974,1.41191 0.02682,2.14602 -0.02608,-0.71505 -0.0254,-1.43063 -0.02682,-2.14602 z m -3.972886,-0.39687 c 0.153073,-6.45413 0.115605,6.36025 0,0 z m 0.23925,-4.7625 c 0.195893,-2.53707 0.118401,2.79412 0,0 z m -1.655128,-1.8921 c -1.709988,-2.37663 -4.724101,-0.19435 -5.238954,-2.19688 -1.551615,0.55263 -6.403208,0.68162 -7.194313,-2.08767 -1.813779,1.04048 -3.611988,-1.46386 -5.818451,-0.33365 3.035526,-2.36847 -0.744453,-3.69015 -2.247332,-4.53304 -1.702337,0.34976 -0.453158,1.9399 -1.926013,1.15597 -0.562532,-0.22977 -1.36179,-2.15505 -2.818532,-1.16909 -0.532055,-0.98632 1.478018,-2.1567 -0.875782,-1.49583 -3.385016,-1.82344 1.068001,-3.37055 -0.74254,-3.33436 -2.039046,4.59845 -3.149964,-3.80862 -3.814615,-4.94948 1.394751,0.53127 -0.158899,-1.05508 0.932736,-1.21596 -4.385814,-1.12248 0.152248,-5.90318 1.946747,-1.48286 3.027978,2.64279 -0.937596,-6.67821 -2.812941,-3.74691 -1.150388,-1.77363 -2.182538,-4.57414 -3.323665,-7.92284 1.414538,-0.13716 8.620216,-0.72403 8.368046,-4.52172 -0.716225,-3.01493 -0.558506,-5.64103 -0.645281,-9.09901 -1.139132,-3.66205 0.112424,-9.75858 5.008764,-9.17251 2.549922,0.26456 5.574089,-1.16407 6.248636,0.009 1.396691,-1.80729 3.335548,4.47022 1.33478,0.94577 -1.489618,-1.21861 -3.243092,0.55477 -0.540956,-0.007 -0.503109,1.83753 1.809446,3.06876 1.933606,0.61309 1.314951,3.07945 5.695583,-1.4357 6.240446,-2.00431 1.54985,1.36907 1.072714,-2.61312 2.709757,-2.42615 0.938868,-0.94581 2.561377,2.54369 4.68526,1.28376 1.520069,0.23509 3.533994,1.48632 4.020109,-1.3433 -0.815231,-0.5175 -3.600285,-2.47847 -2.133977,-0.73187 -2.174069,0.24112 -0.248384,-1.84947 -2.751104,-1.29042 -1.724759,-0.63598 -0.739301,-3.1513 -2.012461,-2.25497 -0.929073,-0.16222 -2.505927,-2.98947 -0.689366,-3.35195 1.190597,-0.51244 5.450619,2.08024 3.766913,-0.60132 1.261446,0.67563 3.923986,-1.99592 3.160155,1.58704 -0.646108,2.09435 -1.651162,3.67596 1.182067,2.02305 1.094353,-0.0574 -0.445435,-1.15156 0.367084,-1.30398 -1.017632,-2.25936 0.630341,0.42637 1.213765,-1.71186 2.265525,-0.61652 3.526502,1.66675 4.330278,-0.94206 2.084179,0.47005 -2.411048,0.52933 0.461139,1.21205 1.308523,-0.0223 -1.102116,4.05959 0.7062,1.30043 1.054469,0.0253 0.435576,-3.67553 3.116808,-1.35758 3.050416,0.66041 2.386963,3.22312 2.030825,4.88274 1.171389,-2.71734 1.141346,1.74223 0.429061,0.16224 -1.582569,2.73432 4.916365,2.12492 1.841641,4.62378 1.975988,1.23611 -0.62601,-1.45536 1.900766,-0.46651 1.408233,-1.15645 -1.630271,3.55598 1.072928,1.00629 0.459787,-0.55224 -0.733274,-0.0921 0.256278,-1.73508 -1.335967,-0.69763 2.01224,-0.34097 0.02668,-1.92555 -0.438095,-1.44555 1.634098,0.36975 1.6091,-2.22072 -0.990683,-1.62031 2.092624,0.52083 2.458971,1.44953 1.079782,1.11967 -0.216801,5.99862 -1.422334,4.10304 -0.580558,-1.23839 -0.966876,0.67032 -1.713678,-0.53541 0.833319,2.83352 1.313705,1.1273 2.426239,3.30749 -0.672674,-3.15486 3.550004,0.53477 1.890642,-2.57719 -1.297636,-4.91726 3.222539,2.71675 1.894254,-1.84067 -3.303181,-2.45181 2.052258,-2.24003 0.727558,0.58942 -0.523052,1.89325 5.434886,0.42554 4.249968,4.34588 -0.875736,2.21521 -0.874483,3.69106 -2.856664,3.323 1.114587,1.02014 -2.349244,2.04335 -0.571603,4.05157 -2.325189,0.15863 -2.158851,3.29618 -1.019327,2.08255 0.327471,-2.13131 2.582593,-0.75828 0.501768,0.88912 2.753608,1.12907 -2.487649,4.23682 0.9207,3.08029 0.477143,-2.50189 0.711386,-3.06682 1.157124,-1.15694 0.67962,-1.50047 1.822686,-2.29203 1.215395,-0.87669 2.547631,1.74724 -2.226114,0.5572 -2.30645,2.73802 0.93732,0.98032 -1.015623,1.1222 -1.308085,1.86874 -1.130025,-1.91431 -0.586278,1.79432 -2.089184,-0.29605 1.247507,-1.93244 -1.735795,-2.78834 -1.334085,-1.21807 -1.175374,0.43675 -1.997252,4.74891 -3.944899,7.20778 -2.188373,3.57103 -3.55618,7.95382 -7.721591,9.75199 -1.818526,1.50937 -3.479929,2.11492 -1.888596,-0.78363 2.047307,-5.05918 3.244313,-10.45037 5.575612,-15.38803 -1.664497,-1.09765 -3.075791,-2.96263 -1.880117,0.29517 -2.289105,6.50709 -4.776894,12.97735 -7.470896,19.32996 -1.086293,2.37487 -4.33076,7.04342 -5.688426,6.81329 0.972005,-4.92173 1.545953,-9.92827 1.918581,-14.92551 -2.015624,-1.68804 -1.41831,8.08941 -2.752429,5.79328 -0.179909,-2.02236 -2.526013,-3.44534 -1.147454,-0.35018 2.234741,4.05395 -0.09168,8.42671 -1.17082,12.44979 -0.76873,1.31641 -2.005362,-2.96761 -2.912707,-3.68135 -2.387336,-3.78613 -0.240436,-8.31774 0.03849,-12.40147 -0.191241,-1.90813 2.190396,-6.48248 0.260101,-6.65238 -1.092066,4.45048 -1.833163,8.97979 -2.887541,13.43901 -2.5101,-6.56277 -4.342138,-13.36994 -6.753631,-19.96561 -1.66307,-0.8148 0.72073,4.95524 0.807466,6.3856 0.855399,2.03158 0.873553,3.56745 -1.071384,1.11894 -2.744545,-2.12809 -4.803477,-6.51542 -7.493906,-7.74025 1.032945,3.20257 4.659015,5.94205 6.636998,9.02036 3.463034,3.04478 4.459071,7.39324 5.233741,11.72997 -2.80903,-1.81633 -5.931231,-5.18516 -8.981601,-7.44826 -1.697904,-0.6916 -5.426463,-6.22696 -6.154228,-3.7784 5.661718,5.92728 12.416247,10.82345 17.614708,17.18236 1.52161,3.42055 5.559467,7.70307 4.769027,10.91848 -0.516191,-0.43371 -0.791261,0.68914 -1.070005,0.48294 z m -26.17734,-18.7454 c -1.619742,-1.43158 -1.111721,1.34213 0,0 z m 1.469414,-11.96295 c -0.496932,-1.81945 -1.240614,2.10775 0,0 z m 51.289212,-9.07352 c -1.146662,-0.383 -2.095975,0.55912 -0.05199,0.64525 l 0.103629,-0.34743 -0.05165,-0.29782 z m 1.257244,-0.6322 c -0.737064,-2.19144 1.053168,-3.46871 -0.421899,-4.92196 1.498528,-2.77299 -4.934762,1.3118 -1.657982,1.70306 3.627684,-1.04721 -1.614865,1.29706 -1.624927,1.99974 0.148301,4.64842 3.829494,-2.73578 2.76902,1.67945 0.290205,1.08013 1.144017,0.18793 0.935788,-0.46029 z m -2.813251,-0.83762 c 0.595478,-1.40181 1.554631,0.9532 0,0 z m 0.366675,-0.86763 c 1.080863,-1.6706 2.206891,0.71185 0,0 z m -4.616664,-0.39806 c -0.277848,-2.52777 -3.569105,1.9856 -0.552719,1.29295 l 0.398379,-0.48561 0.154343,-0.80734 z m 8.52478,0.57133 c -1.014522,-1.43718 -0.720254,1.16694 0,0 z m 1.755034,-0.0534 c -1.689022,-1.06057 -0.595108,1.15468 0,0 z M 74.978125,157.4573 c -1.870737,-1.24995 -3.093368,-0.19636 0.04565,0.23125 l 0.05296,-0.0497 z m 4.30499,-0.0496 c -0.886705,-1.48894 -1.283128,1.41396 0,0 z m 2.177302,-1.28892 c -1.322891,-1.10089 -0.633107,1.46428 0,0 z m -5.97393,-1.63678 c 1.555036,-2.72012 -2.753512,-0.7748 -1.456158,-4.23459 1.198305,-1.00964 0.193276,3.67671 0.701683,0.8694 3.229191,0.13339 -0.566231,-3.78933 -1.99712,-0.60163 1.260304,1.42083 -1.699068,2.75138 -0.04905,3.00218 1.602293,-2.30699 -1.105801,2.43823 1.181104,0.0842 2.040746,0.47111 -0.646023,1.56005 1.619546,0.88044 z m 2.566956,-0.86115 c -1.542402,-1.41672 -3.575137,1.3006 0,0 z m 2.314993,0.11429 c 1.521497,-0.27608 -1.334618,-0.70452 0.405598,-1.67121 -1.465837,-0.22668 0.372998,-1.72513 -1.020202,-1.15492 -1.191972,1.15295 -1.154263,-3.97414 -2.262161,-1.03721 -1.733792,0.76906 0.398381,2.40836 0.942852,2.97946 1.162034,0.79374 0.668603,0.95945 1.933913,0.88388 z m -1.13493,-1.23876 c -2.019826,-0.24102 -1.522268,-3.50479 -0.430893,-0.45563 0.330492,-0.26011 1.230653,1.14437 0.430893,0.45563 z m 3.65896,1.36133 c 0.972919,-1.41742 -1.919025,0.2114 0,0 z m 0.72993,-1.60078 c 1.500721,-0.6427 1.015387,-4.34743 0.310563,-3.04701 1.034942,1.49585 -1.415285,1.96611 -0.554305,2.66243 -0.838063,0.58094 -0.622872,1.3381 0.243742,0.38458 z m 4.115083,-0.67015 c 0.07152,-3.39071 -0.913875,3.54297 0,0 z m 1.395854,0.16669 c -0.861332,-2.46237 -1.533582,1.40686 0,0 z M 60.29375,151.22398 c 1.41427,-1.05266 2.370302,-1.63084 4.184432,-2.73458 1.816903,0.98906 1.691608,0.19858 2.56258,1.44657 2.475546,-0.23475 1.580609,-3.91979 -0.06291,-2.12103 -1.053333,-0.93071 -2.557391,-2.68048 -0.863263,-1.70411 2.19258,-1.3069 -0.55725,-0.39572 -1.296631,-1.38027 -2.778648,2.71005 1.965154,-2.64447 -1.224313,-0.27754 -0.871912,0.76033 -3.84975,2.03991 -3.949903,1.18898 3.250081,-1.32964 -2.116833,-2.15602 -0.748784,-0.93642 3.51822,-0.72719 -3.010945,2.06008 0.146143,3.15893 -0.83385,-2.28627 3.843439,-0.90828 1.155032,-0.34511 0.181282,1.12946 1.149523,0.55837 -0.776907,1.27231 -0.05345,0.35557 0.09148,4.58978 0.874526,2.43227 z m 10.734791,-0.0505 c 3.353564,0.0746 -2.202504,-0.51554 -0.0033,-2.55935 0.500049,-1.19697 -1.942945,2.73984 -0.919878,-0.54091 -1.939442,-0.36672 -0.257856,4.1983 0.923201,3.10026 z m 0.584965,-1.38906 c 0.490145,-1.36531 -1.714686,1.27168 3e-6,0 z m 8.66534,-0.27924 c 3.455254,-1.26806 -0.366092,-2.20216 -1.1735,-0.25835 0.250412,0.33506 0.903512,0.81836 1.1735,0.25835 z m -1.969643,-1.17144 c 1.370861,-0.75646 1.829591,-3.75553 -0.161178,-1.91438 1.432875,2.17398 -3.327151,-0.40165 -2.303762,2.10455 0.984228,1.22047 1.459508,-0.0911 2.46494,-0.19017 z m -27.27587,-0.83068 c -0.695917,-1.23859 -0.679736,2.18809 0,0 z m 29.897917,0.14686 c -0.858996,-1.39574 -2.865329,0.96055 0,0 z m 2.247085,0.0209 c -0.932968,-1.05533 -1.801363,0.74144 0,0 z m 4.308626,-0.15033 c 2.232453,-3.03628 -2.977954,1.71343 0,0 z m -5.60188,-0.69141 c -0.377975,-0.92839 -2.845611,-1.03282 -0.205634,0.23237 z m -4.399299,-1.60869 c -0.934622,0.0559 -1.365449,2.62663 -0.156336,0.33445 z m 11.159972,0.0662 c 0.19942,-1.4086 -1.832193,1.1399 -2.410897,-0.75456 1.187944,1.23998 0.492102,2.53317 2.410897,0.75456 z m -8.130278,-0.41577 c 1.384931,-2.33949 -1.790941,1.68481 0,0 z m -18.566305,-0.34491 c -0.802736,-2.44126 -0.890557,1.72674 0,0 z m 13.873102,0.0866 c 1.37225,-2.04288 -2.960037,1.28034 0,0 z m -7.491804,-0.33076 c -0.283009,-1.88235 -2.608723,0.98843 0,0 z m -5.371486,-0.84726 c 0.589861,-0.78069 -3.139077,-0.37224 -0.460656,0.69768 0.12943,-0.24287 0.143516,-0.61045 0.460656,-0.69768 z m 11.164342,0.044 c -0.507791,-1.60891 -1.245661,-3.564 -0.885224,-0.81411 -0.884154,0.48855 1.668413,2.28616 0.885224,0.81411 z m -7.932147,-0.57346 c -1.506621,-1.92513 0.159569,1.96353 0,0 z m -1.394061,-0.52554 c -1.473276,-0.35095 0.717343,1.44549 0,0 z M 72.316716,142.5 c -0.367809,-1.07045 0.265928,-1.36271 1.190532,-2.49736 C 71.866406,139.798 70.047025,143.482 72.316716,142.5 Z m 9.672867,0.008 c 0.256723,-0.68653 2.041123,1.2718 0.502796,-0.61397 -0.993696,-0.23168 -1.291098,1.85378 -0.502796,0.61397 z m -7.299811,-0.68772 c -2.249364,-1.92704 1.050211,2.10974 0,0 z m -4.06022,-1.29832 c 3.638543,-3.60134 -3.269752,0.42513 -1.1744,0.74814 0.336236,-0.32264 0.699141,-0.65776 1.1744,-0.74814 z m -7.944892,0.008 c -0.102071,-1.08886 4.291469,-1.42297 2.212427,-2.94018 0.671526,-2.33372 3.965199,-3.05201 0.08997,-2.36618 -2.484496,0.78174 -0.03436,5.74322 -2.143709,3.60669 -1.087783,0.1917 -0.755931,3.11057 -0.158692,1.69967 z m 4.943541,-0.78467 c -0.716865,-1.47441 -0.644205,1.61561 0,0 z m 15.155132,5.6e-4 c -0.559221,-2.42627 -1.254668,2.01625 0,0 z m -9.380683,-0.95368 c -2.674339,-2.52546 1.972936,2.66516 0,0 z m -13.638067,-0.004 c -0.736438,-1.33354 -0.501496,1.70055 0,0 z m 8.571074,-1.33004 c 0.408222,-3.25593 -1.272038,1.76815 0,0 z m 2.01226,-1.20028 c -0.787473,-1.3707 -0.609224,1.79132 0,0 z m 3.535264,0.16469 c -1.061879,-1.3654 -0.361456,1.37815 0,0 z M 61.96788,198.59298 c -0.730532,-5.56352 4.076064,-9.22608 7.141599,-13.19425 5.784003,-6.16047 12.934676,-10.8306 19.105394,-16.5658 -1.858692,-0.98207 -5.634523,4.46384 -7.804998,4.20515 1.508157,-2.90748 2.734139,-7.71691 5.303444,-9.11058 -0.832358,0.13895 -0.07566,1.77648 0.537186,1.48995 0.703144,-2.88 -0.197697,2.81197 1.295326,2.29935 2.16202,1.24736 -0.216375,-3.07189 1.692355,-2.16585 1.044786,-2.08085 1.693999,-2.36593 2.936306,-0.0795 2.541546,1.84612 0.500717,-1.68935 2.627058,0.48597 0.847747,0.5176 -0.136626,-1.94937 0.971049,0.31717 2.178272,0.43307 -0.300994,1.38689 0.68238,3.29763 3.065901,0.24807 0.773918,4.91599 1.053821,5.49129 -0.592748,-0.19525 0.06313,1.88876 -2.24224,1.59945 0.973986,2.61879 1.381684,2.43623 -0.886862,2.32485 -1.308089,0.80987 0.306366,1.16761 -0.694674,2.17867 1.41521,0.17223 -3.465734,1.87452 -3.561151,3.64234 0.355281,2.21935 -1.260002,1.95471 -1.519708,1.55675 -1.51184,1.69454 -4.885933,0.3263 -6.95714,2.19251 -0.355015,3.13736 -0.448008,6.13447 -3.450065,7.88714 -2.464991,2.41338 -5.74556,2.13695 -8.351326,2.36257 0.294159,1.92458 -4.388512,-0.54621 -5.74784,0.83589 -2.140613,0.007 -2.603542,1.8978 -2.129914,-1.0507 z m 28.223787,-16.9346 c -1.557587,-2.49929 -1.307854,1.90846 0,0 z M 35.559529,194.8792 c -2.510145,-3.90617 5.048966,-1.71359 2.537012,-0.13098 -0.987554,1.04283 -2.567566,-0.43251 -0.349488,-0.57998 -1.845019,-3.78674 -1.110881,1.76443 -2.187524,0.71096 z m 58.038256,-12.64304 c 2.105527,-0.95195 0.378505,1.03065 0,0 z m -4.724984,-24.97729 c 0.600895,-2.14246 1.02363,0.67214 0,0 z M 45.741667,146.18486 c -0.992877,-1.18613 2.807297,1.17888 0,0 z m 1.852083,-1.27244 c 1.307993,-1.7602 1.808901,-0.4348 0,0 z m 41.854056,-1.75292 c -1.974092,-3.47499 2.125996,1.33842 0,0 z M 79.261771,141.467 c -0.856994,-1.62847 2.144903,0.95963 0,0 z m -2.244997,-0.21618 c -0.394337,-2.57889 1.306756,0.83226 0,0 z m -1.279681,-1.06107 c 0.641657,-2.2642 1.43795,0.51857 0,0 z m 2.019157,-1.23767 c 1.139179,-1.75686 -0.660547,-3.45002 1.695009,-3.76679 -0.315172,2.58268 4.476236,-0.14364 1.091508,2.30666 -0.366863,-1.2151 -1.484998,1.5353 -2.148202,1.54911 l -0.528615,0.14546 -0.109695,-0.23446 z m -26.457984,-0.94123 c -2.249294,-0.42087 -1.517597,-1.03261 -0.63654,-1.57373 0.803562,-0.94723 1.887798,0.47683 1.030041,-1.46942 2.443004,2.13757 1.224019,3.79296 -0.104408,2.80807 0.454628,0.42105 0.0498,0.78283 -0.289093,0.23508 z m 25.311457,-0.0445 c -0.545542,-1.47515 1.829386,0.21699 0,0 z"
         id="path1380" /><path
         style="fill:#a9cb90;stroke-width:0.264583"
         d="m 56.926229,225.19064 c 0.155687,-2.42713 0.148798,2.43238 0,0 z m 5.815494,-1.19063 c 0.215268,-2.03438 0.117191,2.25764 0,0 z m -5.550911,-3.04271 c 0.15569,-2.4271 0.148794,2.4324 0,0 z m 5.29889,-1.05833 c 0.151069,-2.96263 0.142756,2.96939 0,0 z m -0.264584,-5.55625 c 0.15107,-2.96263 0.142758,2.96939 0,0 z m -4.495215,-0.39688 c 0.158698,-3.14416 0.129732,3.34577 0,0 z m 4.240303,-5.68854 c 0.12766,-3.52581 0.110197,3.58216 0,0 z m -3.967004,-1.19062 c 0.146572,-3.8409 0.134457,4.04595 -1.51e-4,0 z m -2.414209,-7.74059 c -2.483885,-1.27284 -5.309487,-0.70443 -8.921285,-1.55841 -2.55259,-2.09891 -4.591878,-1.65645 -7.109421,-2.34488 -0.02404,-0.0238 0.9597,-4.88562 -1.345254,-2.62892 0.292422,-1.66265 -2.224145,-1.16048 -0.149383,-2.10047 -3.271485,1.18453 -5.578908,2.10605 -5.064614,-2.39168 -3.215834,0.93271 -5.009346,-0.64855 -1.933913,-1.90732 0.22155,-2.96731 -5.136519,3.04308 -2.769331,-1.29051 1.334989,0.13391 3.507531,-0.24904 0.115047,-0.27909 -2.26366,0.2883 0.438513,-0.73131 -2.053609,-1.9331 0.351025,-1.6094 0.523298,-2.87985 -0.689243,-3.91273 -1.033386,-3.71355 3.077865,-1.12015 4.078423,0.63674 0.830035,-1.47004 -1.038051,-4.04959 -1.358913,-4.43139 -1.405062,-2.2774 -2.876273,0.68107 -2.458123,-1.52634 3.045054,0.29023 0.82381,-0.13329 0.05918,-0.78694 0.483296,-0.31935 -2.112895,0.55704 -0.01149,-1.14212 3.588898,-0.51606 7.405973,-1.15597 10.179077,-2.62417 1.578891,0.50287 5.05058,1.61282 1.486069,-0.12905 -2.588136,-0.64754 1.622698,-1.21069 0.05832,-2.44402 1.215748,-0.26402 1.622135,2.30118 1.507487,-0.2846 1.397017,0.77396 0.923662,-0.72467 -0.610125,-0.89888 2.468141,0.0105 -1.42398,-1.73062 1.455899,-0.20179 2.981228,3.5903 6.111773,7.18899 8.803452,10.96039 0.404331,2.32258 1.12189,4.75249 1.4111,6.9715 -4.751886,-4.10148 -9.622465,-8.09699 -14.269313,-12.30529 -2.256647,1.92177 3.999282,4.64284 5.193571,6.71143 4.968632,4.86092 11.042262,9.00683 13.990497,15.52223 0.470873,1.60054 6.152622,9.08076 0.405901,6.31941 z m -22.81191,-14.6167 c -1.049575,-0.78289 -2.54333,0.78237 -0.291455,0.18138 z m -2.182689,-3.10886 c -1.647255,-1.46397 -1.508056,1.52263 0,0 z m 2.447086,-10.18646 c -1.153376,-0.86103 -1.831044,1.01396 0,0 z m 29.751273,28.13645 c -1.362735,-0.6913 -0.39606,-3.87125 -0.514628,-5.71889 4.541977,-6.01073 9.492427,-11.75287 15.572099,-16.27514 3.36365,-2.50782 6.387361,-5.69372 10.057037,-7.65632 1.173975,1.68264 2.018236,0.22926 1.459771,-1.13437 -2.363419,1.47046 0.959178,-3.08835 2.336065,-2.57946 0.780491,-1.01481 1.784534,2.40168 3.600384,1.57044 1.613261,1.64132 3.404902,4.70155 1.530815,5.77394 2.620926,1.1362 -3.145727,2.04253 -0.380813,2.60341 -1.503568,1.09415 -2.473565,2.46151 -3.351389,3.68039 0.865269,0.39454 0.417914,1.68006 0.198434,1.57627 -2.028445,0.43911 -3.017249,3.89892 -3.942902,4.71802 -0.004,-3.7456 -2.783711,2.03972 -5.279274,1.4065 -2.648047,-0.87298 -2.466407,2.05415 -2.783407,2.67254 -0.742867,-0.55938 0.256757,3.70831 -1.795558,4.86956 -2.767475,0.74138 0.470515,0.92812 -2.5369,1.85938 -2.031323,2.00706 -5.692368,2.61388 -6.754174,-0.56581 0.127326,0.53154 0.657435,3.93169 -1.871005,3.10654 -1.137475,0.0573 -2.478982,-1.3117 -4.121731,-0.13713 -0.330742,-0.64139 -1.537481,0.87984 -1.422824,0.23013 z m 27.398914,-17.86823 c -1.317799,-2.30044 -1.628547,1.47929 0,0 z m -0.266647,-4.97655 c -1.432064,-0.47378 -1.490551,1.60901 0,5e-5 z m 1.04486,0.54361 c 0.318851,-1.24948 -1.152281,-1.32411 -0.467909,-0.0371 -0.707972,0.0784 0.221144,1.14329 0.467909,0.0371 z m 1.490001,-3.01207 c 2.625459,-0.72138 -0.217402,-4.46496 -1.012201,-1.21027 -1.306478,-0.74896 -0.476428,3.03972 1.012201,1.21027 z m -1.06903,-0.62654 c 1.954482,-2.25041 1.800731,0.72857 0,0 z m 2.335083,-3.51958 c 1.138247,-3.02582 -1.419112,-1.59453 -0.471081,0.21871 -2.025385,0.53383 0.262719,1.1723 0.471081,-0.21871 z m -36.78319,20.14554 c -3.2728,-3.51422 -2.361371,-8.20924 -1.539713,-12.45463 0.131322,-2.69485 1.956969,-7.42824 0.69307,-8.85839 -1.32541,4.36505 -1.950296,8.90821 -3.049873,13.33184 -2.609199,-6.47946 -4.337518,-13.28826 -6.671452,-19.86526 -2.227318,0.22687 2.271645,8.31822 0.892428,8.77628 -3.298119,-2.51109 -5.584295,-6.90321 -8.675393,-9.04129 1.005103,1.86789 -2.325107,1.06889 -2.648486,0.90469 -0.606255,-2.353 -6.256047,-1.57695 -2.466977,0.28959 1.489085,-1.27239 2.997653,-0.6139 0.833688,0.0248 -0.642651,1.02734 -1.974222,-0.59353 -2.08689,0.99219 -1.87218,-0.51772 0.358196,-2.73008 -1.371477,-3.79009 2.408117,0.84975 -1.573119,-1.988 1.030333,-0.56833 0.273216,-1.52758 -2.256643,-0.14167 -1.221585,-1.99158 0.279433,-1.85996 0.08662,-3.21688 0.616971,-5.50599 -2.925663,-1.58153 0.224135,-8.86404 3.079085,-7.46369 0.514821,-1.43813 4.584599,-0.25169 6.05234,-1.13825 1.176337,2.5038 -0.344763,1.2999 -1.927549,2.22707 2.22991,-0.53958 3.908636,3.59215 0.769698,3.49063 -0.132119,2.48813 -1.104824,1.5479 -0.873238,0.9582 -0.564692,0.81892 -1.678559,2.23914 -1.499594,1.96783 2.218777,-0.0496 3.275279,-1.22267 3.7064,-2.12633 0.384544,1.54569 1.48335,0.35235 0.408363,0.0416 0.581973,-1.80841 5.176839,-0.233 5.275731,-3.03422 1.168699,1.27513 2.057136,-0.47544 1.683331,-1.29497 1.452176,-0.81762 -0.226456,1.57797 2.201762,0.30152 -0.271007,1.56895 -5.46374,2.37716 -1.648271,2.77126 0.474005,1.18183 -2.703779,-0.73088 -1.518581,1.01634 0.447304,-1.78471 1.61441,2.06534 -0.174938,1.32928 0.949864,1.33577 3.525028,-0.83341 2.447044,-2.37982 0.543794,-0.9303 3.023246,-0.98712 3.428006,-1.8323 -0.590166,1.1882 5.191593,-2.00493 1.704588,-2.69364 -2.870611,-2.70896 3.727483,-2.19387 1.264167,0.39528 1.416817,-0.85765 3.498574,-1.75802 1.844207,1.39211 2.376835,1.3669 0.878853,4.19859 2.5579,5.75813 0.609431,-1.62949 2.937206,-1.38739 4.336941,-3.43148 0.0435,0.67813 3.227924,1.85073 4.762029,0.76281 -0.54219,2.28373 -0.151603,0.92843 1.27664,2.65216 2.753544,-1.81248 0.365406,1.79696 1.352201,2.00662 1.976196,0.61927 0.401501,0.37576 2.438103,1.69534 -1.69554,-0.74057 1.066161,-3.24784 -0.007,-0.94487 1.717887,-1.93199 6.64079,-0.19454 2.371437,0.56334 1.392233,1.04214 3.204261,-0.0907 3.053905,-1.68612 0.232375,0.97097 3.059433,0.71098 1.379539,-1.12571 -1.81267,-2.92837 3.132931,0.0981 1.074402,-2.25237 2.072465,0.40052 0.329332,-2.92614 1.959585,-1.05455 -0.574241,1.74464 -2.039698,2.83207 -1.401615,3.77031 -3.016235,-1.41954 1.847275,1.57805 -1.08974,1.78101 0.176617,2.60175 -2.394248,-0.16896 -2.710702,2.02932 -1.417605,1.32081 -1.395502,-1.11193 -2.99571,0.7905 -1.303782,-0.57362 -4.398405,-3.23425 -3.604974,-1.00542 1.265354,-0.52446 -0.703957,1.61987 1.356337,0.60734 2.256077,0.4496 1.80225,1.5531 1.681462,2.26773 2.703771,0.42581 1.267215,-2.63837 3.730139,-1.95042 1.402921,-1.70472 3.783614,-0.40552 1.943487,0.21639 -1.818275,2.72158 3.519183,3.898 2.36229,6.6332 -1.465309,2.01902 -2.337784,4.8645 -4.179772,6.29538 -0.06012,-0.22029 0.01222,2.44767 -1.054016,0.72259 0.845975,4.32403 -4.387468,6.47703 -7.38079,8.47735 0.366324,-2.84726 2.543933,-7.32278 3.518255,-10.87462 -0.243049,-3.16715 4.854108,-6.02381 1.124896,-7.76719 0.02409,-2.05515 -2.119213,-0.36285 -0.416233,1.24207 -2.536997,6.67383 -4.940732,13.44023 -7.81335,19.98125 -1.082462,2.07471 -4.516046,6.87008 -5.290339,6.01508 0.792143,-4.98175 1.71574,-10.01831 1.655616,-15.06941 -2.065824,-0.13214 -1.324363,8.5206 -2.557608,6.13371 -0.227731,-2.04346 -2.500355,-3.43916 -1.204428,-0.29891 2.211974,4.0098 -0.145868,8.27748 -1.103008,12.29602 -0.322617,2.04229 -1.147784,-1.02295 -1.683075,-1.40827 z M 78.42913,166.20117 c -1.744769,-3.6418 -0.243293,2.11301 -1.2e-5,-2e-5 z m 1.784247,-0.74164 c 0.397811,-3.224 -2.476404,2.32457 0,0 z m -2.192544,-1.54198 c -0.760742,-1.15325 -0.919061,1.39496 0,0 z m 3.174812,-0.70556 c 1.923938,-1.23099 -0.72617,-0.7063 -0.704773,-2.30914 -3.259184,-1.25983 2.285157,3.67972 -1.109311,1.68893 -0.0689,0.84717 1.53272,1.71366 1.814084,0.62021 z m -6.646132,-1.05149 c -1.606279,-1.20261 0.501017,2.59194 0,0 z m 5.337786,-2.26203 c 1.398727,-0.83815 -1.913525,-0.33454 -0.808136,-1.38283 -0.846246,-0.32012 -1.731715,1.44361 -1.829259,1.42512 2.21291,-1.12556 0.680138,1.97427 2.637395,-0.0423 z m -21.06391,-1.30646 c -0.134562,-1.72077 -2.104797,1.49689 0,0 z m 15.189044,-0.48851 c -0.606808,-2.09287 -1.846274,1.77375 0,0 z m -41.938568,-0.96381 c 2.25591,-0.83082 4.147651,-2.59802 3.504492,-4.88523 -2.705204,1.80144 3.6429,-3.91721 -0.523604,-1.047 -1.361237,0.82475 -0.222021,-1.76933 -1.914662,-0.0311 0.702032,1.47971 -1.294658,2.52137 -1.181116,3.44659 1.699058,-1.49471 -3.272964,6.30117 0.11489,2.5167 z M 76.16875,154.7609 c -0.788973,-0.82656 -0.781559,2.47312 0,0 z m -34.260865,-2.17745 c 3.170259,-0.87942 0.40256,-1.2283 -1.133202,-0.0381 -0.899601,0.74667 1.069938,0.23806 1.133202,0.0381 z m 3.03598,-2.08916 c -0.870055,-1.0458 -2.206192,1.89774 0,0 z m -9.854718,-0.68131 c 0.947238,-0.75791 2.962381,-1.17669 0.06038,-1.45451 -0.775556,0.57801 -3.828506,0.44711 -1.258113,1.50604 0.409667,0.0713 1.470934,0.92615 1.197729,-0.0515 z m -1.997871,-0.5743 c 1.099275,-1.53514 0.573406,0.86366 0,0 z m 13.048734,0.54408 c 1.115724,-2.19543 -2.447985,1.80366 0,0 z m -14.260406,-0.19681 c 0.569393,-2.29069 -2.694645,1.22237 -3e-6,0 z m 8.342108,-1.42948 c -1.869796,-1.47128 0.298194,2.76701 0,0 z m -1.763229,0.31656 c 2.823008,-1.20816 -2.391511,-0.44078 0,0 z m 18.92485,-1.05428 c 0.237945,-2.72874 -3.945735,-1.54836 0,0 z m -19.510635,-0.80936 c 0.600912,1.29728 -0.04517,-1.98615 -0.802039,0.48497 l 0.224873,-0.15429 0.577168,-0.33073 z m -6.617092,44.38385 c 1.276575,-1.5259 0.980109,1.39852 0,0 z m 49.028658,-17.71063 c 0.415735,-2.59185 3.552701,-5.82816 3.640795,-6.99048 -1.179236,1.55589 1.213676,-4.11347 1.951232,-0.49551 1.624197,2.27853 0.338986,4.16419 -1.917266,5.07397 -1.272434,-0.0951 -2.823625,3.3952 -3.674761,2.41202 z m 1.614811,-1.92121 c 1.694094,-2.36834 -1.559928,0.74422 0,0 z m 2.161688,-1.98109 c -0.445955,-3.84788 -1.469245,2.95354 -3e-6,3e-5 z m -51.019096,-1.05569 c 1.437969,-0.95066 -4.659694,4.1e-4 -1.478006,-2.01839 0.844235,1.89099 2.857033,-0.60071 2.179545,1.98573 -0.0044,0.2536 -0.748614,0.43621 -0.701539,0.0327 z m -8.73125,-0.69536 c 2.83352,-2.1417 2.145075,0.29129 0,0 z m 4.912353,-0.36984 c -0.948563,-1.07484 2.056068,0.3708 0,0 z m 3.025147,-1.20316 c -0.07129,-1.01876 2.508183,0.88521 0,0 z m -1.058334,-0.37573 c 0.932054,-2.16831 1.596561,-0.0371 0,0 z m 1.469609,-0.62472 c 1.111287,-1.46627 4.912649,0.25596 1.113178,0.14958 -0.227606,-0.71105 -1.500269,0.58051 -1.113178,-0.14958 z m 4.269899,-1.34339 c 0.726346,-1.33783 1.417232,0.83123 0,0 z m 51.14996,-1.41086 c 0.03578,-2.72645 1.232308,0.74124 0,0 z m -1.658919,-1.47082 c -0.496595,-1.38677 -3.847198,2.03329 -1.182651,-0.7276 -0.33006,-1.77773 0.650239,-0.83177 2.43804,0 0.715718,-2.26655 -1.494453,-2.3497 -1.096908,-1.22242 -2.226036,-1.42911 1.59668,-2.47253 1.099479,-1.26843 3.150882,0.52075 0.445524,3.60883 -0.911559,3.82448 l -0.346435,-0.60603 z m 3.59492,-1.10438 c -0.726602,-1.85212 1.187252,0.73932 5e-6,0 z m -3.801009,-3.60107 c -3.307483,0.48115 -0.168067,-5.82842 -2.570813,-2.10757 0.02311,-1.94459 0.971034,-3.50791 2.024339,-4.23208 -2.200588,-1.14662 -0.368805,-2.27113 -1.296727,-3.12486 -0.462444,0.54446 3.190636,-2.67836 2.505192,0.27711 -1.303129,2.26984 1.215245,-0.2656 0.963837,2.05274 0.949859,-2.626 -0.812127,-3.12056 1.868,-4.80002 4.0877,0.58225 2.570637,4.8776 0.397017,5.65784 -1.43666,-1.35588 -4.089593,0.21674 -2.44575,2.47357 2.626586,-0.13451 -0.420343,0.45106 1.164198,2.18605 -1.764428,-0.0687 -1.39589,1.79528 -2.609293,1.61722 z m 0.355436,-0.67273 c -0.810112,-3.48607 -0.76406,1.98586 0,0 z m -0.761966,-7.55024 c -0.846722,-0.93291 -0.771117,1.70297 -0.01332,0.26174 z m -9.493234,4.75077 c -0.302937,-2.02322 -2.217815,-0.74984 -0.651166,-1.73431 1.401186,2.00331 1.55293,1.76932 1.682562,1.09895 1.467548,1.11987 -1.264689,1.70606 -1.031396,0.63536 z m 12.356033,-1.9856 c -1.182163,-1.36069 2.095252,0.52645 0,0 z m -16.867187,-0.35394 c 0.484727,-1.88728 1.398864,0.92278 0,0 z m 4.095157,-0.14786 c 0.447105,-2.68984 -4.635732,-0.25449 -2.970678,-1.46613 0.906282,0.95066 -1.85437,-3.24923 -1.637932,-2.43712 -1.543091,0.25599 1.883854,2.64345 -1.007902,1.75917 0.192359,-1.13289 -0.05337,-3.25112 1.282361,-2.79495 -1.319941,-1.18595 -3.053134,1.16828 -2.485325,-0.88333 -1.487436,-0.42914 -3.774837,-2.55515 -4.030041,-3.69171 1.649528,-0.99528 4.004684,0.50689 2.923571,-1.186 0.85866,-1.8795 3.239746,0.23979 0.529543,-1.84112 2.950206,-1.39578 -3.881564,-0.54579 -0.373204,-1.98631 2.075459,-2.47779 -0.912529,1.91283 2.113032,1.37608 -0.270118,-1.74607 0.117607,-4.24967 1.483709,-3.48568 -3.015553,0.93349 3.334551,0.28387 1.003773,2.00071 1.748431,-0.28557 -0.885176,4.33296 -0.489998,0.39823 -1.445914,0.56535 0.254723,-2.52974 -1.524037,-0.7742 -0.114838,1.39639 0.362473,1.07124 1.328891,1.36437 -1.844046,0.64634 1.015532,1.22857 -1.569865,2.28048 0.977003,0.79126 -3.015301,1.75717 -1.004607,2.62819 1.221122,-1.15967 3.22876,-1.34274 2.883912,-3.24282 0.735914,1.31937 -2.898817,5.77222 0.629841,4.21081 -0.96632,-2.81122 0.840697,-0.55801 0.01935,1.21033 2.291079,-1.925 -0.310866,1.89063 1.780786,0.26222 0.769149,1.72313 2.040249,3.4613 0.594127,4.17904 1.283947,1.67056 3.831728,0.94449 0.520695,2.11974 z m -1.997805,-2.63594 c 1.272687,-1.89167 -2.488959,1.43449 0,0 z m -0.642144,-1.15664 c -1.194971,-2.25021 -0.695068,1.31106 0,0 z m -5.412769,-4.24354 c 2.116196,-2.55472 -2.728372,-0.1002 0,0 z m 3.031519,0.0102 c -1.346196,-1.76521 -1.265609,0.59629 0,0 z m -0.902652,-4.98791 c -1.135803,-0.1511 0.566217,1.95198 0,0 z M 43.107334,148.9604 c 0.382814,-1.83743 -3.926401,-2.14377 -0.364222,-1.55052 3.434504,0.0881 2.581112,1.40238 0.364222,1.55052 z m 26.117241,-0.82967 c 0.814781,-2.8244 0.849985,0.57724 0,0 z m 12.785897,-1.32292 c -1.437097,0.15996 -0.09043,-3.39967 0.167236,-0.22058 0.228459,0.0789 -0.264389,0.87487 -0.167236,0.22058 z M 58.675429,145.0033 c 2.345152,-1.01913 0.3154,0.79638 -0.638996,0.45214 z m 1.882904,0.31148 c 1.82346,-1.26213 1.243512,0.41532 0,0 z m -10.054166,-0.29289 c 1.467886,-1.11429 0.932071,1.00548 0,0 z m 11.62527,-0.33915 c -1.593003,-1.90829 0.736092,-0.66942 0.677855,0.32232 z m 15.134058,0.14553 c -1.971669,-0.75831 -1.847731,-1.51666 -1.70881,-2.36726 1.569487,-0.78705 2.541022,-0.40605 1.004443,1.46146 0.667091,0.42747 3.379199,1.17476 0.704365,0.90583 z m 9.711537,-0.17648 c -2.170143,0.37671 -0.887833,-3.19743 0.09844,-0.56785 1.599977,-2.19768 2.180244,1.70956 -0.09844,0.56785 z m -24.388218,-0.93073 c -1.299142,-0.59613 -1.929137,-1.48989 0.02206,-2.20481 0.646757,0.4554 0.759964,-2.47085 1.917706,-0.0659 1.855863,0.22173 -2.103572,1.66461 0.947375,1.54255 1.519361,2.85107 -1.773508,-0.67149 -2.3534,1.49988 l -0.3133,-0.22668 -0.22045,-0.54498 z m 18.079853,-0.24942 c -1.420706,-2.84892 4.986521,-1.20665 3.152634,-3.144 -0.102051,1.79972 -3.388785,0.62673 -3.341721,0.31745 2.680198,1.09665 2.158732,-3.8793 3.082491,-1.28223 1.10374,-0.16244 1.837087,3.14485 -0.145284,3.32645 -1.654622,-3.21187 -2.142502,1.92377 -2.74812,0.78233 z m 8.362682,-0.98493 c 0.03132,-2.37872 1.243731,1.50293 0,0 z m -1.560861,-0.90702 c -0.217483,-2.22768 0.888849,1.46232 0,0 z M 86.4875,141.31772 c -0.822303,-2.44475 1.267641,1.67416 0,0 z m -12.776552,-0.61161 c 1.024581,-1.31995 2.094013,1.34682 0,0 z M 61.183763,140.3932 c -2.70287,-1.83904 0.171466,-3.40478 2.21755,-3.10648 0.767856,1.83262 -2.51113,1.5648 -1.994557,3.46635 l -0.222997,-0.35987 z m 3.087151,-0.59683 c 0.339127,-1.75307 3.718388,0.001 2.441283,-1.55041 5.154432,-0.58692 -1.939282,2.02305 -2.441283,1.55041 z m 9.745305,-0.044 c -2.528755,-3.40984 2.423832,0.66161 0,0 z M 57.74069,139.07633 c 0.100366,-1.68992 -2.125093,-0.90425 -0.996561,-2.62533 -3.566668,-0.0953 -2.92158,-3.782 0.635163,-2.14472 -2.217483,1.82171 0.860732,3.10942 0.439885,1.29933 1.780866,0.76774 0.774382,-2.79418 2.923257,-2.05356 0.175786,-2.92345 1.308543,4.69097 -1.447843,3.29368 2.283695,0.32275 -1.635614,3.16199 -1.553901,2.2306 z m 1.378011,-1.05749 c 0.768631,-1.36625 -2.594761,1.39122 0,0 z m 19.560924,-0.14502 c -1.027805,-0.20068 -0.170336,-3.38768 1.111448,-0.80141 -1.623306,-2.06287 -0.19162,1.94623 -1.111448,0.80141 z m -11.904462,-0.25884 c 2.351651,-2.36497 0.448703,1.14463 0,0 z m -3.376861,-1.82975 c 0.200971,-2.34627 3.982456,-2.75023 1.09356,-0.33156 -0.180953,0.0373 -0.991428,1.1386 -1.09356,0.33156 z m 10.397244,0.19029 c 0.373009,-2.77409 2.116736,0.54589 0,0 z m -6.614583,-1.08956 c 2.470875,-2.65287 0.689215,1.67874 0,0 z"
         id="path1378" /><path
         style="fill:#9dc481;stroke-width:0.264583"
         d="m 57.9125,199.97291 c -1.959647,0.42318 -1.938173,-1.67107 -2.028862,-1.44266 -1.334435,0.87992 -1.21027,-2.29078 -1.893835,0.0248 -2.267464,-0.0678 -7.69982,-3.27578 -5.700782,-0.18226 -2.193758,-2.58915 -6.784556,-2.08046 -8.310286,-4.41872 0.35271,-2.28974 -1.581788,-2.27665 -1.810648,-3.68842 -1.259349,1.07638 -7.254117,2.22481 -3.433109,0.31202 -0.459264,-0.7958 -1.904715,-4.40406 -3.837176,-2.41708 -3.937361,-0.55699 3.865463,-0.80177 1.797921,-3.62881 -2.86701,0.35808 -5.533299,0.0834 -5.067604,-2.90575 -1.403222,-0.87595 -1.671361,-6.69235 0.38647,-3.61894 -2.106511,1.07703 -0.342043,-0.11464 0.291195,1.63986 3.002551,0.35754 1.428049,-2.1428 0.537638,-4.04192 2.07124,0.035 -2.599411,-4.16643 1.199341,-3.14539 2.04106,-0.7543 -0.166014,1.6216 2.205162,-0.10904 0.796537,-0.89152 5.594236,2.76093 2.61594,-0.3886 -3.638129,-1.86613 1.477746,-0.91286 2.067413,1.51571 5.302057,5.28843 11.271267,9.95372 16.09786,15.6928 1.653733,3.48314 4.759172,7.03971 4.883366,10.80235 z m -11.046354,-3.84503 c 0.161388,-1.2044 -3.037771,0.65111 0,0 z m -11.106112,-7.61047 c -0.295253,-2.03955 -2.644313,-0.67223 -0.998579,-0.63302 0.399485,-1.09961 0.250498,1.52926 0.998579,0.63302 z m 3.46273,-4.46948 c -1.371631,-1.41541 -0.679086,1.43221 0,0 z m -10.400455,-0.52917 c -0.732974,-1.08656 -1.213728,1.40264 0,0 z m 9.596923,-0.0418 c -0.108802,-1.68192 -2.045953,0.16715 0,0 z m -7.80833,-0.95039 c 1.312472,-1.62798 -2.817804,-1.55654 -0.319921,0.22238 -0.191785,0.72744 0.613105,0.17904 0.319921,-0.22238 z m 0.24618,-6.01927 c -0.04124,-0.5631 -2.815206,0.97065 0,0 z m 0.757684,-0.94768 c -0.760924,-1.82794 -0.35522,1.46391 0,0 z m 30.585638,20.91522 c -0.039,-1.5998 0.01457,-3.16433 1.380625,-4.22896 6.395082,-8.84777 15.149614,-15.53993 23.686297,-22.17846 2.691145,0.29669 -0.05637,3.9429 2.65977,4.98297 -2.661883,1.83905 -2.779536,3.07958 -0.133834,2.7024 -1.373297,1.71676 3.113901,-1.30883 1.700452,-1.70854 0.690562,0.93902 0.526878,-1.98307 1.257019,-0.17441 1.271063,-2.77493 1.956051,-4.1069 1.852299,-6.6267 2.201477,-0.32446 -2.612212,-0.61547 0.528147,-1.19663 3.19287,1.87738 -0.464439,4.46236 -0.846726,6.76535 0.213366,1.35247 1.228174,4.12371 -0.538113,3.07844 -0.619363,1.4439 -7.157366,3.56859 -5.227871,4.06594 1.719024,1.19831 1.026546,-1.43882 1.660567,-0.95151 1.405179,0.0279 4.77699,-1.10557 1.686404,0.6831 -1.096038,0.95298 -2.209868,3.36631 -2.467506,3.33034 -1.64161,-0.77848 -4.464304,3.16964 -7.241646,2.49789 -3.011232,1.82617 -0.712763,5.0883 -2.371156,6.78572 -1.682421,0.31143 -4.459534,-1.26427 -3.476665,1.07162 -0.968681,0.39932 1.852186,1.23294 -0.806477,2.34074 -1.499986,1.49814 -0.15658,-1.93806 -1.979059,0.12025 -1.230365,2.85142 -4.347777,-4.66331 -3.351323,0.35826 0.02804,2.48373 -5.071639,-0.84562 -7.437043,0.94898 -1.302213,0.41105 -0.295485,-1.97925 -0.534161,-2.66679 z m 26.139179,-17.71858 c 1.149712,-1.09778 -3.695838,1.30335 0,-1e-5 z m 0.264584,-3.3797 c -1.707629,-1.29356 -0.823162,1.21799 0,0 z m -3.439584,-1.4285 c -0.939036,-2.997 -1.044377,1.30574 0,0 z M 87.5578,171.7448 c -0.547071,-2.19362 -0.523506,1.06216 -2.276635,0.45149 0.827987,-0.0506 1.570956,0.83387 2.276635,-0.45149 z m 8.4547,-1.02593 c -1.464211,-2.56637 -0.57963,1.06873 0,0 z m -18.586646,24.71167 c 0.472128,-1.70427 3.816607,-0.51282 0.316497,0.27163 l -0.355599,0.23449 z m -20.481602,-5.20742 c -3.2184,-3.4381 -2.356623,-8.02477 -1.531426,-12.18647 0.05514,-2.70103 2.19526,-7.94973 0.641167,-9.17216 -1.386134,4.37165 -1.932173,8.96739 -3.043328,13.4143 -2.354269,-6.13123 -4.031237,-12.63443 -6.124003,-18.73562 3.306759,-1.31995 3.924261,1.67019 3.685899,1.7072 1.351271,2.68817 3.704026,-2.50994 3.816578,-4.68452 -2.530547,0.13858 -4.773425,-1.51272 -4.546424,-2.05029 -0.197512,0.45927 -2.887499,-1.49162 -0.198437,-0.78214 2.881236,1.68259 6.214293,-2.02999 7.365565,1.7331 2.151606,2.52771 4.418372,-4.39108 2.115054,-2.09661 -1.307937,-0.64498 -0.87189,-1.70379 -1.929485,-1.76471 -1.012619,-1.0185 -3.195314,0.84689 -4.574253,0.82491 0.90856,2.75414 -0.690332,-0.37714 -0.571087,-0.47304 -1.713743,1.24103 -7.778017,-1.73593 -2.781584,-0.52596 -0.224539,-0.66656 -4.195343,-1.64113 -0.675014,-1.60362 2.703643,0.77658 -1.598437,-1.11282 1.80378,-1.66188 0.86824,-0.14692 -0.793615,-2.01942 1.342955,-0.41538 1.549672,-2.08266 -0.969595,-1.44787 -1.124692,-1.85045 1.478722,-1.01587 2.045173,-1.84718 4.040821,-2.12521 1.785266,-0.29267 3.518018,-0.42178 3.287374,1.74523 2.368296,-1.21021 -3.717664,2.15211 0.355264,1.15146 0.498582,-0.79432 1.461618,3.95839 2.427874,0.5412 1.307097,0.53959 -0.02299,1.90776 2.095655,-0.0967 1.837664,-0.25157 -1.77089,-1.64648 1.97747,-1.10828 0.395348,-2.2309 0.20752,3.3627 2.462636,0.41785 3.104751,-1.3843 -2.113634,3.56171 1.465805,1.10497 1.69206,0.16608 -1.395108,2.58995 1.703224,1.05446 1.901407,-0.5848 -0.454998,4.64485 2.116879,2.51465 -1.751303,1.35215 -0.937878,2.24493 -0.295613,2.1463 -0.415758,1.23331 1.749682,0.008 -0.281797,1.62501 1.442649,-0.3692 3.031978,-1.02925 1.511377,0.92484 1.467432,-0.47385 0.820616,-3.44765 1.775406,-1.01527 -0.08567,1.43344 -2.874147,2.04982 -1.175066,2.73371 -3.057489,0.36408 0.650553,1.47581 -1.074318,2.25976 3.163666,-0.29064 -1.221741,5.39464 -1.484791,7.746 -2.421764,5.96238 -4.096163,12.53082 -8.967104,17.08146 -1.553958,2.29439 -0.377209,-1.14845 -0.33966,-2.19782 0.616929,-4.26032 1.493145,-8.57411 1.283205,-12.88081 -1.867708,0.77943 -1.476731,4.39301 -2.128502,6.44488 -0.115997,1.3937 -2.374397,-5.85407 -1.833956,-1.30829 0.337187,2.13969 1.95182,4.1705 0.862432,6.32909 -0.624872,2.50183 -1.243567,5.01066 -2.112403,7.44135 -0.447826,-0.73548 -0.895651,-1.47097 -1.343477,-2.20645 z M 60.111145,160.517 c 0.896897,-1.64199 -2.245389,1.36487 0,0 z m -7.707013,-1.38324 c 1.817238,0.1535 3.364762,-0.5252 0.313188,-0.49119 -1.250488,0.17867 -3.215454,0.87678 -0.718692,0.78117 z m 12.491519,-8.18039 c 0.311266,-1.98012 -1.110848,1.3891 0,0 z m -10.53945,-0.49911 c 0.617379,-0.31493 -2.610269,-0.24832 -0.02331,-1.05971 -0.03675,-2.18993 -3.733694,2.25081 0.02331,1.05971 z m 1.817918,-0.17079 c 1.197232,-1.20823 -2.508091,1.06661 -0.04771,0.20485 z m -8.693286,30.41325 c -2.444845,-3.11665 -9.18064,-6.05695 -9.341622,-9.19196 1.469775,1.82978 -0.651656,-2.8806 1.399956,-0.11438 1.419226,3.47224 0.653568,-0.0972 0.132974,-1.52505 -3.323711,-1.17296 1.067157,-1.49191 0.66007,-4.29564 3.004238,3.24102 5.606201,6.86079 8.424171,10.27614 0.481499,2.3481 1.078079,4.67734 1.417008,7.05107 -0.989979,-0.59449 -1.81282,-1.45729 -2.692557,-2.20018 z m -4.275029,-5.45499 c -2.55613,-1.66564 -2.023807,-2.01723 -0.238506,-1.26027 -0.08786,-2.45874 -1.250865,-0.25825 -2.16452,-1.88393 0.757049,1.73733 -2.468801,1.62765 0.596415,2.67863 0.588444,-0.14394 1.9475,1.47377 1.806611,0.46548 z m 28.100582,2.40639 c 1.760143,-4.57359 2.949707,-9.36906 4.912036,-13.85617 1.544435,0.85579 -0.488638,4.06213 2.346871,3.09216 -0.163458,-1.65482 -1.000173,-3.13567 0.218561,-3.09238 -0.59477,-3.01129 -0.641136,1.1177 -1.5166,-2.18948 -1.321663,-0.1751 -3.113204,-0.93063 -1.136288,-1.76372 1.059552,1.08088 2.345331,-0.83709 2.343185,1.30633 2.903344,0.17554 -1.4681,6.56382 2.155924,4.58759 -0.588642,1.78172 0.601866,2.03262 -1.262615,1.6699 1.230184,1.68768 -0.188631,5.64911 -0.695097,2.88389 -1.826962,-1.74537 0.119089,-4.41975 -2.08474,-1.55309 0.693317,0.62648 1.438727,2.62658 1.759181,4.24489 -1.131501,2.83536 -3.599238,4.61889 -6.166707,6.09179 -2.496562,2.1158 -1.301508,0.0948 -0.873711,-1.42171 z m 8.037364,-8.40755 c -1.340342,-1.57797 -1.489307,0.67929 0,0 z m -2.663455,-4.49839 c -1.428253,-0.23856 -0.470742,2.06388 0,0 z m 18.125406,11.47437 c 1.186346,-1.90571 0.826364,-4.36092 2.719458,-5.39033 -0.561186,2.63419 -1.198525,3.59628 -2.214799,5.58927 l -0.260853,0.0113 -0.243808,-0.21028 z m -67.254666,-2.75486 c -1.142413,-0.77266 0.824854,-1.46004 0.704762,0.20405 l -0.704762,-0.20407 z m 53.069134,-0.91092 c 2.040577,-1.60967 1.745004,-0.55573 0.276389,0.69108 -0.728308,0.99001 -0.558647,-0.40308 -0.276389,-0.69108 z m -34.900756,-2.85649 c -2.869304,-2.49323 -4.041884,-5.68823 -7.141869,-7.74643 -0.100358,1.88917 -4.508247,-0.33043 -5.382943,-1.66175 -2.627417,-3.76631 3.986459,-5.28185 3.596864,-1.74514 0.304093,1.98545 1.547305,2.59219 2.797074,0.42781 1.577356,0.42027 5.406404,-2.61182 4.427277,-0.71266 1.170521,0.6553 -4.342697,1.13144 -3.64102,2.20981 2.456801,-0.54129 3.81445,1.00098 4.087975,0.44646 -1.539191,2.80571 4.281679,-1.74911 1.377908,1.13192 -0.95779,1.08955 0.511788,2.89787 0.55152,4.28279 0.09123,1.99073 3.37357,8.52704 -0.672786,3.36719 z m -8.775142,-8.5292 c 0.679407,-2.25858 -3.334881,1.09268 0,0 z m -6.283854,10.04471 c 1.370597,-1.06349 1.936982,0.37911 0,0 z M 37.275,170.04341 c 1.716326,-1.70178 1.4686,1.40988 0,0 z m 44.714583,-0.61039 c 0.578704,-1.85995 1.424222,-0.58063 0,0 z m 10.31875,-1.47064 c -1.119275,-3.40835 1.67516,-0.16309 0.07037,0.691 z m -6.41718,-0.25247 c -0.168248,-3.27407 1.352368,1.45668 0,0 z m -40.943236,-8.49613 c 1.816745,-1.65951 2.72605,0.032 0.425441,0.20694 0.230152,0.77935 -0.648709,0.24515 -0.425441,-0.20694 z m 34.511969,-0.56241 c 0.645742,-0.68233 -1.214258,-0.82196 1.338115,-1.63304 2.128392,-0.0483 -3.211197,3.61891 -1.338115,1.63304 z m 8.536924,0.042 c -1.23867,-1.94354 0.83375,-0.27941 0.489158,0.44741 l -0.120914,-0.0179 z M 46.8,157.7375 c 0.560764,-1.25838 1.727176,0.9294 0,0 z m 7.175997,-0.25467 c -0.812695,-2.21088 2.407499,1.14004 0,0 z m 20.890704,-0.34063 c -1.992306,-1.03726 -1.251206,-1.6589 -0.20111,-0.66181 -0.762966,-1.38141 -1.313097,-1.95367 0.644623,-1.40975 -0.551602,2.81224 2.149499,-2.69593 2.457808,-0.32034 -2.480202,0.19723 1.230745,2.65902 -2.119493,2.72025 l -0.781835,-0.32835 z m 2.725507,-0.0691 c -0.03149,-1.50799 5.342719,-3.94188 2.814457,-1.31751 -1.492631,-1.04073 -1.667469,2.74575 -2.814457,1.31751 z m -30.263041,-0.40398 c 0.33899,-1.33082 2.590581,0.85349 0,0 z m 7.786925,-0.0351 c 0.763114,-2.4766 1.129121,1.01137 0,0 z m 30.119111,-2.5501 c -0.06642,-0.98962 2.220594,-0.1889 0.07012,0.99218 z m 2.046047,0.8563 c 0.413969,-2.29593 -0.957923,-2.71743 1.415364,-1.40004 0.389171,0.10595 -1.263894,1.89881 -1.415364,1.40004 z m -5.162042,-2.24968 c -2.257279,-1.11807 1.640891,-0.08 0,0 z m 3.597082,-0.32642 c -1.361054,-1.10363 0.653285,-2.07159 1.332327,-1.52135 -0.165497,0.44596 -1.018316,3.04998 -1.332327,1.52135 z m 0.741267,-0.89597 c -1.453696,-0.64678 0.462201,1.52867 0,0 z m -1.074219,-1.38521 c 0.321799,-2.21025 0.528485,-0.436 1.368745,-0.95996 -0.391265,-2.16419 1.539557,1.70977 -1.5509,1.13634 z m 3.937916,-0.82767 c -2.405581,-1.58372 -1.01195,-1.54075 0.254769,-3.11464 -2.310876,-3.93136 4.5137,-0.23768 1.844704,1.57603 -0.175664,0.69394 -1.476968,3.03368 -2.099473,1.53861 z m 1.399579,-2.53559 c -0.760746,-1.15323 -0.919054,1.39495 0,0 z m -17.723032,-1.5992 c 0.809194,-1.54889 2.256951,0.79564 0,1e-5 z m 14.481887,-0.28093 c -1.493619,-1.25478 2.218155,-0.0139 0,0 z m -17.041146,-1.06479 c 1.262531,-5.12248 0.222207,2.46904 0,0 z m -0.884375,0.0565 c -0.502873,-1.07788 0.269533,-1.58475 -0.47546,-2.13717 1.461348,-1.18863 0.910497,3.88937 0.47546,2.13717 z m -6.614584,-0.0877 c 1.47287,-1.96579 1.686605,0.0289 0,0 z m -1.5875,-1.02954 c 1.466736,-2.52237 2.90093,1.06705 0,0 z m 9.353071,-1.27191 c -2.769343,-0.5665 1.813541,-0.69436 0,0 z m 1.767843,-4.24103 c 0.469522,-1.67057 1.223925,-0.90315 0.120055,0.047 z m -0.707919,-2.36724 c 0.487343,-2.00171 0.421711,1.68317 0,0 z"
         id="path1376" /><path
         style="fill:#98c07a;stroke-width:0.264583"
         d="m 57.087418,199.5922 c -0.09539,-1.12666 -2.067809,0.78527 -0.112596,-1.51717 1.485238,0.32283 -2.558,-0.63579 -2.910327,-0.68246 0.610273,2.54034 -4.99508,-0.83112 -3.304408,-0.82955 -1.803695,0.27194 0.0269,-3.13715 -2.803265,-3.43238 -2.257282,-0.82283 -1.376405,-0.11995 -0.627648,0.44232 0.109063,-0.21467 2.64406,0.83893 2.362225,2.10051 -2.186001,-1.6638 -4.096379,0.23662 -6.432249,-0.20734 -3.004507,-0.0846 1.217941,-4.31369 -2.308105,-1.9169 -0.787795,3.66863 -0.377072,-3.93883 -1.990483,-2.08684 -0.53416,-1.60535 1.416321,-1.60349 -0.02371,-2.66033 1.558862,-1.00419 0.603485,-1.98732 -0.835209,-0.46512 0.220269,-0.0742 3.150598,-4.08228 -0.165181,-2.56927 -3.202607,0.70365 3.724707,-1.03303 1.322917,-1.96085 -2.120103,-2.30624 0.575729,-3.51601 -1.28773,-5.27924 2.252,0.35109 1.741483,-3.50676 3.553957,-0.59425 5.042892,4.82542 11.111811,9.03268 13.921637,15.66504 0.136706,1.00217 4.335151,6.56347 1.640175,5.99383 z m -13.330126,-4.82865 c 0.310715,-0.43325 2.602538,-1.58182 0.301116,-2.24863 -1.870186,1.0527 -1.789696,2.5781 -0.301116,2.24863 z m -2.050521,-2.19013 c 0.627369,-2.65914 -3.260541,1.51451 0,0 z m -1.436265,-3.86306 c -1.072107,-1.61286 0.26161,2.39062 0,0 z m 3.163319,-4.33981 c -1.039973,-1.84318 -3.295259,1.52276 0,0 z m -1.303684,-1.10718 c 1.5052,-3.02556 -2.592486,1.53632 0,0 z m 20.478713,15.81407 c -1.904057,-2.79739 0.936577,-6.82549 2.156196,-8.08609 2.012163,-1.25099 2.706954,-4.70805 5.771863,-6.89586 3.031695,-2.55487 5.452943,-4.90357 8.589042,-7.51863 3.25593,-2.74053 -0.194376,0.11218 1.186911,0.64772 1.791359,-0.41508 0.879564,2.45236 2.46206,0.80405 0.523535,-0.64515 2.062895,-1.47689 3.215809,0.33073 0.137531,-2.98146 0.120241,2.70646 2.297843,0.58677 3.135961,-0.69924 -0.663188,0.5648 0.366545,2.04147 -2.313633,0.8997 -1.17447,1.85549 -0.838325,1.87977 1.048681,-2.55026 2.815853,2.91233 1.469679,1.42843 -2.045864,1.25477 -3.350033,2.42847 -5.257321,2.41017 -0.0579,0.79314 -1.568797,0.40514 -1.166195,-0.26083 -1.818445,-0.81641 -1.762748,2.06378 -2.697878,3.8752 0.736143,3.10987 -0.608203,5.07032 -3.471608,3.15141 -2.474912,0.58794 -0.950376,0.86957 -1.616083,1.43405 -2.375606,-0.48593 -0.350124,2.29988 1.394886,1.30798 -0.130727,2.03491 -3.253769,0.12419 -3.675617,2.43766 -1.435425,-1.29345 -3.250693,-4.01534 -2.931691,-0.618 -2.028049,1.9142 -4.103109,-0.21232 -6.196193,-0.001 -0.01419,0.71368 -0.144544,1.41915 -1.059923,1.0452 z m 5.879317,-0.86397 c 0.759952,-1.68908 -2.050935,0.91338 0,0 z m 9.838084,-5.367 c -1.43934,-0.49929 -0.03327,1.25064 0,0 z m -3.435281,-6.63382 c -2.047472,-1.24034 3.52035,0.62119 1.430996,-1.90325 -1.98338,-0.62537 -0.969739,-1.62872 -2.751928,-0.9431 0.760951,-3.25041 -0.692495,2.26211 -2.163797,1.07873 1.250844,1.44285 4.372562,-1.53461 2.02203,0.72328 -0.980111,1.15352 1.239765,0.0854 1.925715,1.76645 l -0.0901,-0.25766 -0.372916,-0.46422 z m 8.650481,-2.44281 c -0.495379,-1.04861 -1.029843,1.8361 0,0 z m -7.14728,-2.31871 c 0.552466,-1.92009 -2.19655,1.88008 0,0 z m 1.626658,-0.049 c 0.251505,-0.31586 2.602818,-0.11829 2.447638,-2.50155 -0.0029,-2.82545 -0.349639,0.5606 -1.789307,-0.41775 -0.537079,0.65631 1.439962,2.82781 -0.605094,0.97599 -2.858425,-0.11405 -3.096368,1.58558 -0.75849,1.2525 -0.817272,0.88783 0.08822,2.13887 0.705253,0.69081 z m 3.96875,-0.0597 c -1.873572,-1.96986 -0.410871,1.75455 0,0 z m -25.34267,8.32954 c -3.253684,-3.63631 -1.659267,-8.51083 -1.051005,-12.78205 -0.01195,-2.22873 2.201299,-7.47907 0.435126,-8.00411 -1.369454,4.33485 -1.925103,8.88581 -2.973334,13.30553 -2.129196,-5.3669 -3.68646,-10.96903 -5.46395,-16.46796 2.790393,0.56214 5.227077,1.12413 6.117347,-1.93312 2.359724,0.58728 2.414585,-0.55709 4.137267,-2.05457 1.894769,-0.53814 4.700125,-2.29098 3.127218,-3.63505 0.998582,-1.16064 -3.877333,-4.4463 -6.033224,-2.56894 -1.653417,0.27396 -2.172849,1.2645 -2.702788,-0.45565 -2.100747,0.0298 1.378458,1.29462 -1.620821,0.44382 0.609462,-0.85305 -1.824253,-1.02098 -0.189876,-1.94708 0.851548,-0.31236 4.158466,-0.87698 5.441398,-1.87014 0.137422,-0.32983 2.475161,1.31868 1.084945,-0.33073 0.526996,-1.81579 0.95072,2.1522 1.015011,1.32866 1.24657,-3.87784 0.354839,1.48398 2.730196,-0.37079 1.369619,1.12645 2.86534,-2.77076 4.806351,-0.51232 0.494811,-0.72523 4.652882,-1.87725 1.218552,0.4821 -0.332158,2.10868 3.784025,-2.10741 1.4093,1.37876 0.386517,1.11632 0.900946,-0.9617 1.564382,0.32902 1.631211,-2.64003 1.01884,-0.25518 0.723393,1.11064 1.237517,0.12732 -0.06532,4.92937 1.536925,3.20561 -0.542775,1.59582 3.258412,-0.78432 0.871354,1.66741 3.825602,-1.12418 -2.346768,3.03714 -0.101488,3.29117 -0.440816,1.73088 3.355402,-0.75996 1.201187,1.63806 -2.442209,6.30234 -4.479629,12.81482 -7.551471,18.85601 -0.03279,1.62616 -5.226233,2.87321 -3.357877,3.18802 1.564036,0.0456 -0.623936,-0.99261 1.274564,-1.00474 -0.446428,1.83067 -3.77142,5.24775 -2.132238,1.11139 0.699817,-4.46974 1.433374,-9.00074 1.358038,-13.52726 -1.93319,0.61654 -1.502879,4.34316 -2.156198,6.35748 -0.1618,1.64988 -1.776945,-5.21411 -2.127218,-1.53702 0.629335,2.1135 2.136973,4.25548 1.141014,6.48524 -1.080964,2.04137 -1.178506,11.3115 -3.73208,4.82261 z m 12.721146,-15.7637 c -2.25853,-2.55887 -2.047568,2.48811 0.0039,0.74695 l 0.20676,-0.54969 -0.21066,-0.19731 z m -20.10805,-7.36689 c -1.382529,-1.32444 -0.936167,1.40913 0,0 z m 21.604597,-4.7184 c 1.479296,-1.85447 -3.182075,0.0188 -2.570906,-0.54751 1.775149,0.72503 1.41942,2.65248 2.570906,0.54751 z m -2.706103,-3.04271 c -0.290476,-1.04093 -1.533321,1.1983 -1.35007,-0.52917 -2.767306,0.94135 1.089535,1.58304 1.35007,0.52917 z m -2.04392,-6.08542 c -0.631124,-1.49857 -1.428191,1.57706 0,0 z m -31.75,38.62917 c 2.24943,-0.89606 -0.291815,0.97605 0,0 z m 1.457082,-0.79072 c 1.103365,-0.71171 3.590195,-0.64903 0.362134,0.24105 l -0.211251,-0.0553 -0.150883,-0.18574 z m -0.05936,-4.73821 c 1.763898,-2.34503 1.217111,1.34034 0,0 z m 12.492902,-4.43802 c -1.632044,-1.68946 -7.308619,-6.01218 -6.871049,-6.20558 1.903311,1.33182 2.390763,1.23254 3.02744,1.96356 3.52e-4,-1.6092 -0.214451,-4.05544 -2.616926,-4.81203 -2.020329,-1.47904 -2.630837,-4.28349 -1.293655,-6.63362 2.753993,3.62456 6.127534,6.91507 8.32564,10.8814 -0.09888,1.57867 3.412995,9.56599 -0.57145,4.80627 z m -3.193698,-8.58414 c -1.515673,-1.02637 -1.461685,1.39608 0,0 z m -1.508373,-0.94478 c -1.392445,-1.87564 -0.782709,1.51305 0,0 z m 46.005379,10.87527 c -0.341292,-0.90696 5.145048,-2.87735 1.597001,-0.86331 -0.469868,0.0596 -1.122092,2.0741 -1.597001,0.86331 z m -18.240288,-5.04726 c 1.926562,-2.87093 1.661088,-9.83652 4.963344,-10.31198 0.09396,3.65322 3.403813,5.269 0.568292,8.25447 -1.407682,1.34806 -5.643313,4.57101 -6.323148,4.19325 0.263837,-0.71191 0.527675,-1.42383 0.791512,-2.13574 z m 17.991495,2.37897 c 1.414865,-1.53487 2.305821,-3.03592 4.48314,-4.99473 -1.442697,1.58 -1.775126,3.76124 -0.03295,1.04436 -0.690445,0.63798 2.524372,0.47256 0.642422,1.20417 -1.16995,0.29001 -3.042038,3.12213 -5.092615,2.7462 z m -2.38125,-1.85208 c -1.096631,-1.38193 4.583912,0.37562 0.423045,0.14954 l -0.423045,-0.14956 z m 0.06652,-1.44519 c -0.241535,-0.41917 3.081635,-0.91117 0.434693,0.091 z m -48.343809,-1.0904 c -1.812938,-0.49639 -1.680222,-0.95528 -2.66734,-2.77096 0.791157,0.48458 5.323201,5.008 2.66734,2.77096 z m 44.312321,0.0496 c 1.582052,-2.68957 -0.69028,2.89781 0,0 z m -1.54569,-0.44653 c 0.823153,-1.22714 0.620622,2.17934 0,0 z m 2.545651,-1.21638 c 0.08307,-0.74953 -1.594141,-1.29961 0.6435,-0.51849 0.205805,0.4366 -1.604079,1.38819 -0.6435,0.51849 z M 45.71945,169.69963 c -2.576763,-2.23105 -3.576245,-4.94531 -5.984323,-6.99003 -0.261083,-0.51781 2.434143,-0.28818 0.648722,-0.88148 1.575058,-0.19142 -2.377277,-1.76692 0.690209,-0.69769 2.20989,-0.0792 1.450774,3.32801 2.677402,0.7184 0.533145,0.77643 -0.221405,2.81484 1.482539,0.93798 0.526593,2.22047 2.817511,7.58988 1.732458,8.11806 l -0.566841,-0.52579 -0.68017,-0.67945 z m 33.248399,0.7076 c -1.175479,-2.13553 1.891061,1.68291 0,0 z M 78.55,168.5415 c -1.657158,-0.06 2.181481,-3.34719 0.426583,-0.65385 0.142226,0.30487 0.0049,1.53953 -0.426583,0.65385 z m -3.262154,-2.50729 c 1.156168,-1.16027 1.357739,1.36926 0,0 z m -37.880554,-3.54982 c 1.380993,-1.04134 0.939398,1.06283 0,0 z m 0.926041,-0.79375 c 1.674461,-1.09894 1.372246,0.99331 0,0 z m -4.922132,-1.21525 c -1.255083,-3.83334 2.182426,3.3259 2e-6,0 z m 21.477561,0.18761 c -0.01453,-1.60761 2.505802,0.20455 0,0 z m -2.334075,-0.48819 c -0.972962,-0.79083 0.88661,-1.59734 0.76763,-0.41785 3.916657,-1.07174 0.971631,0.99182 -0.76763,0.41785 z m 27.641254,-2.49595 c 1.491017,-1.29717 0.587578,1.01339 0,0 z m -4.754795,-0.40828 c -2.829185,-3.7908 4.169916,0.63261 0,0 z m 4.879488,-1.94825 c 0.479285,-2.51582 1.682739,1.19597 0,0 z m -23.466467,-5.37734 c -2.156193,-2.14572 2.473646,0.32849 0.111994,0.2603 z m 29.964062,-0.50739 c 0.909711,-2.27546 0.424524,1.63258 0,0 z m 2.711979,0.0822 c 1.514083,-0.93299 -3.001305,-0.81188 -0.396875,-1.99304 0.694402,-1.04767 -0.263744,-4.10452 1.852087,-2.0254 1.301485,1.02683 -0.269284,3.99708 -1.455212,4.01844 z m 1.190625,-2.80643 c -0.6942,-2.12461 -1.344193,2.85021 0,0 z m -36.078893,2.13912 c -1.0313,-1.4782 2.900366,-0.69113 0.09556,-0.43876 0.382701,0.35475 1.360468,0.91047 -0.09556,0.43876 z"
         id="path1374" /><path
         style="fill:#95bf76;stroke-width:0.264583"
         d="m 62.220546,196.3701 c -0.136884,-4.18284 2.416734,-3.3918 4.197631,-5.64843 -1.104955,-2.50224 1.989753,-3.50725 0.561932,-0.84936 -0.415717,2.96844 3.552505,-0.80382 0.477834,0.1683 0.507095,-1.70507 -0.158505,-3.66372 1.852635,-4.69487 0.882985,-1.26516 6.01048,-5.28095 3.594761,-3.18459 -1.666836,1.32581 -5.492028,5.3245 -4.010397,5.45858 0.183562,-1.73467 3.766511,-1.42189 2.458141,0.29296 1.310837,0.86984 4.388588,-1.14903 4.443277,1.36074 3.089673,-0.51299 -1.92872,-2.78988 1.166135,-1.88732 1.646986,-1.22672 3.7042,-2.97862 4.208944,0.17616 -1.788763,1.48954 -1.327568,4.30565 -0.938267,6.27526 -1.771479,0.59011 -6.643038,-1.70501 -6.516855,2.27599 1.818019,-0.60227 4.168195,1.1442 1.158548,0.92808 -1.947353,-0.25273 -1.740917,2.74293 -3.352043,0.50449 1.994026,-0.027 -3.666184,-3.02018 -1.624886,0.47277 -1.700221,-0.93826 -6.710931,1.05475 -5.137673,-1.54943 -2.406238,-0.0341 -2.812839,4.12163 -2.539727,-0.0992 z m 16.197162,-3.46226 c -0.90777,-1.42441 -1.227128,1.72706 0,0 z m -8.013353,-4.49429 c -0.488165,-2.59851 -0.681412,2.5069 0,0 z m -18.225013,9.43815 c -2.477852,-1.10079 -0.905668,-4.49058 -3.504401,-4.3887 -2.078838,-1.58906 3.704694,-0.52251 1.543388,-3.17296 0.485171,2.19887 -3.190089,-1.04627 -1.074918,1.30258 0.552248,0.50522 -3.486584,-1.50327 -2.397215,-0.11926 1.991188,2.44655 -2.912587,-0.89603 -4.265787,0.27206 1.05839,1.22386 -1.873087,-0.7298 -1.325472,-0.89218 -2.304384,1.9835 -1.366011,-1.04523 -0.744284,-2.85238 -1.317753,-1.31519 2.912647,-3.72691 0.188285,-0.91857 2.851182,-1.16078 4.984855,-5.19251 2.484666,-4.94851 2.548982,-1.86884 -1.526458,-1.10677 -0.807742,-3.14084 -1.801003,-0.89759 -1.981444,0.81702 -1.316871,-1.31424 0.902177,0.33266 5.087857,4.41721 7.138568,6.26152 4.382889,3.43506 6.732595,8.50653 9.238941,13.31953 -1.435497,1.96189 -4.104213,-1.98174 -3.462751,1.0404 -0.606187,0.057 -1.158912,-0.21795 -1.694407,-0.44845 z m 2.856751,-3.68346 c 0.0043,-1.33525 -1.576282,1.08478 0,-5e-5 z m -1.213755,-0.48062 c 0.152585,-1.16211 -1.702917,1.093 -3e-6,0 z m 0.498435,-1.26698 c -1.985978,-0.94111 1.183194,1.38543 0,0 z m -4.986888,-5.76927 c 1.975526,0.11127 -0.565188,-1.02721 -1.353352,-2.22062 0.213879,0.8913 0.772822,2.27687 0.772067,3.09744 0.342663,-0.12773 0.672803,-0.48046 0.581285,-0.87682 z M 47.81644,185.3941 c -2.445407,-0.19865 0.141875,1.57059 0,0 z m -2.389715,-3.02924 c -0.997013,-3.26788 -1.604497,1.07953 0,0 z m 11.258706,7.3044 c -3.019495,-3.34471 -1.893797,-7.78899 -1.24383,-11.77395 0.141526,-2.53677 2.322336,-8.83261 0.511744,-9.02561 -1.328408,4.38138 -1.835149,8.96311 -2.947894,13.3981 -1.648205,-4.65733 -3.176384,-9.36347 -4.563767,-14.10497 -0.203509,1.64231 2.710781,4.1024 2.499001,2.78191 -2.586506,-0.21157 -0.221039,-3.63553 -2.726174,-3.49117 -1.455701,-3.70039 0.608088,1.14842 1.954671,-0.33811 0.304895,1.60898 1.698057,-2.76567 0.993703,0.29588 1.468209,1.04481 0.777717,-1.92814 1.672515,-0.0926 1.810952,-0.85515 2.539882,-0.34675 2.925614,0.0547 2.406749,2.07246 -0.825119,-1.87043 1.939262,-0.28015 0.608323,0.70293 -0.886623,3.72663 -0.492628,4.46579 -2.466577,2.36762 3.700893,2.15597 3.946006,2.22821 -0.05863,3.50115 2.239411,-3.35718 2.93924,-0.27698 0.888119,-1.49755 1.936838,-2.45424 2.891866,-2.08454 -0.430007,-3.5704 -2.620748,-1.26321 -4.160816,-1.41547 -0.223613,-2.05145 0.251605,-2.42551 -1.42289,-1.1141 -1.461508,-1.24576 -0.984754,-2.11634 -0.0214,-3.71086 0.973073,-1.27093 -0.418309,-1.73491 0.708686,-2.16124 -0.07315,-1.2653 2.932374,-4.16384 1.442415,-1.86285 1.490693,-0.65387 2.219934,-1.32583 1.555889,-2.00762 2.18649,-0.42619 4.384566,4.35072 1.626459,2.84908 -1.917328,1.29796 -2.435763,2.2645 -2.6465,4.02007 1.476687,-0.57273 5.708643,-0.58596 5.049846,-3.00414 0.246153,1.19329 1.719142,-0.13875 4.101216,1.25177 2.389782,-1.28321 -0.104229,1.36722 -0.03885,2.8755 -0.600085,-0.32103 -1.422826,4.44002 -2.487041,6.2407 -0.513398,2.67386 -1.419967,-3.09592 -3.0931,-0.15897 -2.294698,-0.04 1.96312,3.37014 2.38823,1.99613 -0.582628,1.92567 -1.361661,5.50567 -3.057473,3.26043 2.331239,1.65233 0.08946,3.74975 -0.825298,5.81776 -0.590082,1.19682 -3.610468,0.77557 -3.595903,0.99205 0.105314,-3.90923 2.067512,-8.72602 0.577699,-12.15172 -1.569979,1.52639 -1.147321,9.77855 -2.778636,4.88035 -2.90971,-3.45929 -0.291876,2.1272 0.217785,4.04715 0.527598,2.89448 -1.462834,7.09017 -2.083371,8.85706 0.550431,2.60852 -1.315234,-0.42562 -1.756274,-1.25765 z m 1.227069,-1.00043 c 2.694073,0.009 -1.794011,-1.30984 -0.07772,0.19393 l 0.07772,-0.19344 z m 1.450589,-1.04155 c -1.363446,-1.2375 -1.845661,-4.50093 -2.677848,-4.47695 -3.184214,-0.70521 0.344058,2.31973 1.587844,4.11668 0.260636,0.10593 0.657684,1.00895 1.090004,0.36027 z m -1.786882,-0.56095 c -1.788246,-2.90817 -0.183671,1.90489 0,0 z m 6.902518,-3.13791 c -0.328769,-0.27445 -0.666693,-3.34987 -1.160976,-0.41828 -1.051423,0.77518 1.072641,1.2087 1.160976,0.41828 z m -11.063478,-6.75791 c 0.363213,-2.02701 -1.463,-2.00816 -0.641291,-0.25949 -2.944247,-1.43797 1.975871,2.60173 0.641291,0.25949 z m 10.982212,-0.40294 c 1.811664,-1.00076 -1.61548,-3.33954 0.07561,-0.32641 -1.029458,-0.11466 -0.854454,1.09371 -0.07561,0.32641 z m 3.1863,-0.50225 c 1.140378,-2.58861 -2.131547,0.20141 0,0 z m -1.806506,-0.55177 c -0.844185,-1.80656 -0.536905,1.76121 0,0 z m -7.335586,-0.59281 c -1.42206,-1.93578 -2.560069,1.99883 0,0 z m 7.14375,-0.47722 c -1.300802,-2.08995 -1.328066,0.80362 0,0 z m 2.156354,-8.58726 c -0.775574,-1.33858 -0.691308,1.30589 0,0 z m 4.364646,-1.90157 c -1.612766,-0.89191 -1.447892,0.82568 0,0 z m -8.73388,-1.6703 c -0.922252,-1.03746 -1.558666,1.28797 -0.172255,-0.15839 -0.398774,0.68852 0.1599,1.45932 0.172255,0.15839 z m 1.413118,28.36436 c 2.728338,-2.94321 -2.316069,2.99699 -0.108228,0.14246 z m -2.970347,-2.03212 c 1.095514,-1.98695 -0.05058,2.02649 0,0 z m 21.894067,-2.45765 c 0.981267,-1.50542 -2.540269,0.75977 -0.307253,-1.00397 0.860462,-1.55544 2.797979,-1.73836 1.738921,-0.19853 1.04119,0.87558 -2.104698,1.82267 -1.431668,1.2025 z m 2.115204,-0.59363 c 0.227913,-1.42271 1.547613,-4.39708 1.725304,-1.37031 0.326078,-3.95469 2.321544,-0.28836 1.181914,-0.61827 -0.765608,0.87312 -1.646254,2.435 -2.907218,1.98858 z m -5.104289,-0.48806 c -0.555834,-1.76967 1.669138,0.42824 0,0 z m -3.123629,-0.8129 c -1.08796,-1.53618 -0.382627,1.40749 -0.866902,-0.71941 0.952963,-1.06622 2.545962,2.14555 0.866902,0.71941 z m 1.368364,5.3e-4 c -0.730934,-1.63106 1.950664,1.57671 0,0 z m -6.659192,-0.65512 c 0.05703,-2.39393 1.254856,0.91046 0,0 z m 11.618958,-0.28905 c -1.045318,-1.74818 2.514429,-3.69559 -1.213306,-3.19649 -0.560945,-1.40453 2.31201,-0.82013 2.459313,-2.04573 1.707334,0.7312 3.998124,3.54032 1.944893,3.05783 -0.69809,3.04943 -1.335355,0.33274 -0.454979,-0.58877 -0.866387,1.53023 -1.757849,1.19561 -2.039342,1.16718 0.09067,0.27899 0.266572,3.02113 -0.696579,1.60598 z m -34.57338,-1.21009 c -1.447483,-2.04189 -7.164798,-5.66413 -7.238331,-6.5107 1.700875,1.57411 3.864038,2.92508 3.363861,-0.086 2.822387,0.28802 -0.0017,-3.55244 -1.038481,-4.41407 -1.17251,2.72131 0.492004,-2.95869 -1.43964,-0.18582 -1.181849,-1.5174 -3.903731,0.0129 -2.165149,-3.24709 0.930665,-1.09825 0.0099,-1.7081 1.529789,0.0836 2.385542,3.70345 6.736623,6.48882 7.053285,11.21769 -0.703524,0.71304 1.920818,4.67157 -0.06533,3.1424 z m -0.477607,-2.09101 c -1.448719,-1.9527 -1.210383,2.05394 0,0 z m 25.707446,0.17637 c 1.450762,-1.68599 5.862592,-4.62532 2.970715,-1.60249 -1.117425,0.26648 -1.924001,1.21764 -2.970715,1.60249 z m -3.652726,-1.73856 c 2.177764,-3.45486 -1.027524,2.07381 1.668351,-0.0963 -0.801157,0.80502 -2.777446,2.3823 -1.668351,0.0963 z m 18.469393,1.30661 c 1.266829,-1.02665 3.478241,-1.37384 1.647196,-2.05343 1.767664,-0.53708 3.37219,0.22279 0.489352,1.33655 -0.695497,0.25653 -1.366064,0.74249 -2.136548,0.71688 z m -1.852084,-0.26705 c 1.843273,-1.73659 3.295163,-0.67438 0,0 z m -14.782257,-1.26115 c -2.233865,-3.27964 1.481929,-7.59903 2.444577,-11.24489 -1.352929,0.9446 2.906296,2.24247 0.742732,3.03201 1.974783,1.00099 1.004701,1.87733 2.217948,2.76437 -1.824616,-0.35473 -0.609036,4.59803 -3.921756,4.68178 -0.486202,0.26366 -0.925532,0.65419 -1.483501,0.76673 z m 1.634159,-2.83264 c -1.97842,-1.21096 0.901415,2.00979 0,0 z m 1.903804,-0.22041 c 1.819657,-0.39483 -2.075361,-1.50758 -0.34455,0.48276 0.322009,0.3817 0.572114,-0.30935 0.34455,-0.48276 z m 2.586596,1.90756 c 1.631685,-3.53474 0.49216,1.27024 0,0 z m -34.705113,-1.93893 c -0.45286,-1.52758 1.667249,0.72073 0,0 z M 37.275,174.25834 c -3.593205,-4.05613 4.098258,3.92848 0,0 z m 6.719708,-0.26464 c -0.948295,-1.25374 2.040124,0.88922 0,0 z m 15.240709,-0.56682 c -2.824172,-2.1772 2.055959,-4.12972 0.773321,-1.70607 -0.879415,0.77244 0.749734,2.22143 -0.773321,1.70607 z m -1.950255,-0.30395 c -0.15485,-2.13831 1.432584,0.42498 0,0 z m -12.402717,-4.35044 c -1.86485,-2.15478 -3.322812,-2.80935 -0.448407,-2.87707 -0.292831,-0.84177 -1.326027,-1.76816 -1.73506,-0.19199 -2.185142,-0.92301 4.118749,-3.7128 3.538498,0.35872 0.523981,2.31576 2.509285,7.40368 -0.834782,3.24123 l -0.520229,-0.53091 z m 1.984156,1.1944 c -1.148329,-3.89773 -1.66373,0.67021 0,0 z m -0.853897,-2.86007 c -0.983212,-0.11625 0.222209,-2.76778 -1.675445,-0.56439 -0.71055,1.11692 1.212472,1.38535 1.675445,0.56439 z m 7.269588,-0.6717 c -0.194572,-0.76681 2.335239,0.39369 0,-1e-5 z m 4.053255,-0.0312 c 0.390821,-1.57367 -0.151991,-4.21368 1.142926,-1.98736 -0.470132,-0.0118 -1.330588,3.31163 -1.142926,1.98736 z m -17.17079,-3.15185 c -1.722451,-2.62714 2.179045,2.51881 0.621582,-0.36275 3.177917,-0.61976 0.176529,2.65002 -0.621586,0.36275 z m 18.806076,0.70959 c -0.869414,-1.68456 -1.428685,-1.97428 1.001365,-2.6808 -1.710931,0.80927 0.528428,1.27207 0.391936,1.23986 -0.710403,0.79886 0.697371,2.09061 -1.021782,1.3517 0.263918,0.54216 -0.314222,0.6563 -0.371519,0.0892 z m 12.09389,-1.37781 c 0.655617,-1.78032 2.699803,-0.44096 0.180363,0.12757 z m 0.435523,-1.61139 c -1.507137,-1.02899 -0.525578,-1.64699 0.357449,-0.7167 0.654492,-2.65879 1.434506,2.2838 -0.357449,0.7167 z m -10.941913,0.0111 c 0.90444,-2.72323 4.345335,-2.02313 0.906431,-0.67425 l -0.640166,0.58306 -0.266265,0.0912 z m 8.627266,-0.50522 c -0.552992,-2.48156 1.131455,1.29415 0,0 z m -1.514848,-0.0445 c -1.725412,-1.3313 2.386622,-0.78471 0.16752,-0.13963 0.825187,0.43305 0.07216,0.42442 -0.16752,0.13963 z M 52.35625,159.88265 c 1.778634,-0.91006 1.832566,0.82318 0,0 z m 18.025062,-2.06132 c -0.763274,-1.24681 1.195667,-1.91029 0.440568,-0.20806 0.844681,0.53317 -0.156469,0.62592 -0.440568,0.20806 z m -5.885741,0.0454 c -4.44649,0.69334 -3.175149,-4.57209 -7.810935,-2.8984 -1.544262,1.18534 -3.40751,-0.0934 -2.034418,-0.29702 -1.788534,-0.78799 0.111394,-2.89471 -2.293965,-0.49303 1.059051,-0.48612 1.222913,3.7761 -0.284335,0.75923 -0.165846,-1.87725 -1.128806,-1.80385 0.852231,-1.79215 0.851026,-1.22427 3.265927,0.94856 2.093485,-0.71872 1.929862,-0.56038 2.512816,0.55478 2.005128,1.14299 1.069814,1.4254 1.486529,0.46282 0.175324,-0.30452 1.297643,-0.32125 1.452461,-1.45305 2.970488,-0.0526 -2.236079,1.35869 2.197736,-1.0434 2.327835,-0.33075 1.15144,-1.2536 4.04993,1.05725 2.849734,2.84285 0.446011,-1.43766 3.484755,0.008 0.624911,0.26197 -2.073506,1.74742 2.120718,1.95862 -1.475483,1.88018 z m 0.291857,-3.45217 c -0.09314,-1.73268 -2.140491,1.10678 -0.188819,0.1979 z m -5.724877,-0.86847 c -1.241918,-1.89486 0.322467,2.37924 0,0 z m -8.326048,1.82005 c 0.09288,-1.03701 -2.040136,-0.70524 0.705291,-1.47978 0.466814,0.58792 -0.783925,2.45546 -0.705291,1.47978 z m 18.156205,-0.5547 c 1.826451,-1.65325 1.197811,0.56813 0,0 z m -2.613104,-0.47621 c 1.089375,-2.23693 1.320513,1.03939 0,0 z m 23.809828,-5.19525 c -0.643636,-0.27885 -3.236368,-1.63182 -0.48904,-0.70371 1.701129,-3.02187 0.992776,1.85562 0.48904,0.70371 z m 0.765156,-2.26841 c -1.043025,-1.68629 -0.310826,-2.04029 0.780249,0.14412 -0.114818,0.20461 -0.862427,0.21343 -0.780249,-0.14412 z"
         id="path1372" /></g></g></svg>
