<?xml version="1.0" encoding="UTF-8" standalone="no"?>
<!-- Created with Inkscape (http://www.inkscape.org/) -->

<svg
   width="68.872345mm"
   height="150.521mm"
   viewBox="0 0 68.872345 150.521"
   version="1.1"
   id="svg1601"
   xml:space="preserve"
   inkscape:version="1.2.2 (732a01da63, 2022-12-09)"
   sodipodi:docname="arbustif-elance-natural_shrub.svg"
   xmlns:inkscape="http://www.inkscape.org/namespaces/inkscape"
   xmlns:sodipodi="http://sodipodi.sourceforge.net/DTD/sodipodi-0.dtd"
   xmlns="http://www.w3.org/2000/svg"
   xmlns:svg="http://www.w3.org/2000/svg"><sodipodi:namedview
     id="namedview1603"
     pagecolor="#ffffff"
     bordercolor="#666666"
     borderopacity="1.0"
     inkscape:showpageshadow="2"
     inkscape:pageopacity="0.0"
     inkscape:pagecheckerboard="0"
     inkscape:deskcolor="#d1d1d1"
     inkscape:document-units="mm"
     showgrid="false"
     inkscape:zoom="0.78395062"
     inkscape:cx="311.88189"
     inkscape:cy="179.85827"
     inkscape:window-width="2560"
     inkscape:window-height="1369"
     inkscape:window-x="-8"
     inkscape:window-y="-8"
     inkscape:window-maximized="1"
     inkscape:current-layer="layer1" /><defs
     id="defs1598" /><g
     inkscape:label="Calque 1"
     inkscape:groupmode="layer"
     id="layer1"
     transform="translate(4.11249,-101.00088)"><g
       id="g1734"
       transform="translate(-77.625,-0.675)"><path
         style="fill:#b0c9ae;stroke-width:0.264583"
         d="m 116.50842,251.87968 c -1.4466,-11.23592 -2.40711,-22.59528 -2.43863,-33.93281 0.67409,11.4326 1.49034,22.87337 2.72432,34.25 l -0.13174,-0.0272 -0.15392,-0.28998 z m -11.39882,-1.12447 c 1.80254,-10.66611 2.83526,-21.4414 3.82969,-32.20024 -0.23656,11.15818 -1.64328,22.33654 -3.93093,33.25857 0.0337,-0.35278 0.0675,-0.70555 0.10124,-1.05833 z m 2.49005,-32.89847 c -3.94805,-2.04817 -7.3888,-1.24864 -8.899877,-3.59687 -3.493558,0.82607 -5.96171,-2.6277 -7.724771,-3.71306 -2.206432,0.92515 -3.790956,-4.30337 -6.785649,-5.25317 3.241347,-2.53181 2.077521,-4.76873 -0.626995,-4.80663 2.477447,-2.54027 -0.08001,-2.81944 -0.967224,-4.45703 -2.603956,1.17823 -1.813636,-6.40561 -4.598151,-7.68242 0.478134,-2.34868 -3.190187,-4.29623 -0.967652,-5.21334 -1.825581,-0.71267 0.128795,-3.48367 -1.068671,-4.21342 1.742832,-2.25905 3.025321,-3.40206 0.13154,-2.57441 -0.944983,-2.12683 0.909101,-5.63588 -2.57969,-5.87183 1.082397,-1.85106 0.32184,-1.8731 1.986748,-2.56221 -2.089525,-1.747 -1.853177,-5.00708 0.659085,-3.77582 -0.72847,-2.2883 0.575479,-1.3535 -1.999973,-4.16729 -0.172599,-2.75197 3.718455,-1.56957 3.484773,0.8463 1.04138,-0.20866 1.470648,-3.04838 1.915433,-4.41409 -3.016484,-2.35332 -1.251874,-4.95632 0.728508,-3.07907 1.058323,-1.72819 1.449102,-1.6312 1.642759,0.46302 3.762266,-0.10149 1.397934,-3.76121 -0.215255,-3.96883 2.81662,1.5118 -5.078102,1.36286 -4.7625,2.77812 -2.57374,-2.95227 -1.335439,-7.22374 1.866924,-6.27059 1.093071,-2.13132 -2.602905,-3.36091 -0.10721,-6.16666 3.328122,0.68652 -0.05303,-4.23298 3.164012,-3.01109 3.724052,-3.49591 -0.811857,-1.15055 -1.249418,-2.13377 -2.11947,2.17079 -0.43433,-3.73169 -1.847573,-4.9451 0.520642,-4.47009 4.771903,1.14738 3.204096,-3.26967 2.461268,-2.72885 0.632674,-6.35503 2.89909,-8.75319 1.620971,-2.33869 4.288873,-7.32335 6.841206,-5.10101 2.220996,1.47802 -1.352206,-2.55141 1.02341,-0.69091 -1.373733,-1.5635 2.889505,-5.93344 5.508114,-5.82369 2.204101,0.28903 3.068531,-4.39073 7.386791,-4.18895 3.86593,0.0674 10.79905,-2.19674 12.39183,1.89868 1.70624,-0.61505 2.7709,3.04533 4.69032,4.51283 1.13956,1.66056 2.90621,6.60161 2.21981,8.94831 3.28136,0.41822 4.70716,2.5157 5.7526,4.80745 -0.90118,2.87276 6.741,6.28252 3.48443,8.4475 -1.12282,-1.02373 -0.87102,4.12249 -2.39716,1.76905 -0.31192,1.92343 0.99007,2.74695 0.71293,1.43212 1.04266,1.77115 0.34826,9.84637 2.3865,5.44189 1.4756,1.09089 3.05858,3.86214 4.99584,6.73488 1.08725,2.31215 -1.34783,6.85634 1.53511,9.38103 2.10541,4.70738 0.2538,8.91941 -0.57157,13.57249 -1.40663,3.26369 1.88063,4.57259 -1.00468,5.9292 -0.0366,2.14572 -0.59802,5.07467 -2.07307,5.449 0.32322,1.77518 3.29203,1.33769 0.62569,3.57614 1.34103,2.42684 -1.14833,2.18531 0.41673,3.64811 -1.72692,3.40105 -3.62031,7.3414 -3.84988,10.99409 -0.39343,3.39709 -2.00014,5.95086 -4.21077,7.72358 -1.45484,2.34902 -5.40266,3.5524 -7.42698,4.76062 -2.96625,0.47288 -9.65361,7.62475 -9.59429,2.8783 -0.55205,-5.64983 0.15172,-11.28514 3.10703,-16.23209 0.89541,-2.2516 6.27297,-10.56441 1.18104,-6.87623 -1.74533,2.40265 -5.24931,9.6819 -4.14155,2.75486 -0.11364,-12.64431 3.50122,-24.85641 5.32379,-37.26493 -2.82969,0.53286 -2.5559,11.09038 -4.71147,12.38489 -2.55372,-5.62012 -2.77943,-11.99715 -4.65884,-17.73315 -0.73455,5.05991 1.50715,11.12472 2.07702,16.53568 0.14604,3.32153 2.32329,6.68336 0.68604,9.89555 -1.07935,2.49421 -2.14429,11.38487 -3.72205,4.97029 -2.58999,-7.44787 -5.75616,-14.69068 -8.47314,-22.07989 -4.402898,-0.47032 1.71807,8.14369 1.78216,11.28249 2.38748,7.74283 5.57928,15.31203 7.29613,23.2179 0.0884,2.72098 0.74078,12.57297 -2.07768,5.32462 -3.40923,-5.51613 -6.5606,-11.1968 -9.856906,-16.76726 -3.721433,2.05803 2.977676,7.90571 3.975376,11.4139 3.46112,7.00579 8.65798,14.04812 7.62933,22.27251 -0.0878,0.44291 -1.26094,1.1847 -1.54155,0.61227 z M 79.981611,174.97341 c -0.438904,-2.91813 -2.44047,1.43971 0,0 z m -1.840774,-2.39955 c -0.570519,-1.12479 -1.658032,0.71878 0,0 z m -0.731782,-8.46969 c 1.3724,-1.78047 -2.760696,1.71188 0,0 z m 1.395114,-13.84778 c -2.077852,0.12657 -2.084457,2.17334 0,0 z m -0.840496,-2.64446 c -0.988025,-1.53462 -1.071541,1.78404 0,0 z m 1.105079,-4.80672 c -0.132244,-2.44067 -0.93842,1.31437 0,0 z m 10.458301,-22.65493 c -0.03049,-2.03156 1.61505,-1.55293 -1.223731,-3.39721 -1.175532,0.45378 0.633239,5.99392 1.223731,3.39721 z m 2.241699,-5.90445 c -0.673268,-1.80542 -0.560243,1.35242 0,0 z m -12.435417,38.2571 c -2.622216,-1.78289 1.41732,0.16535 0,0 z m -3.495811,-6.28297 c -0.637171,-3.21103 1.287918,-5.84944 0,0 z m 1.015664,-2.25559 c 0.03035,-3.72902 1.241143,2.18345 0,0 z m 57.513482,-8.69978 c 0.50289,-4.72456 1.76602,0.28842 0,0 z m -0.26458,-2.92604 c 1.40281,-1.9185 2.0285,-0.17301 0,0 z"
         id="path1748" /><path
         style="fill:#92b48e;stroke-width:0.264583"
         d="m 105.4421,248.90312 c 0.56575,-4.00269 0.0306,2.6733 1e-5,0 z m 10.47046,-2.64583 c 0.17396,-2.00686 0.10762,2.26432 0,0 z m -0.25563,-2.38125 c 0.16509,-2.50348 0.099,2.84477 0,0 z m -0.26098,-2.77813 c 0.15106,-2.96263 0.14278,2.96941 0,0 z m -8.36465,-2.24895 c 0.52813,-5.10035 0.0309,3.57952 0,0 z m 8.10007,-0.92605 c 0.15106,-2.96262 0.14276,2.96941 0,0 z m -7.68014,-2.38125 c 0.13514,-2.32073 0.13512,2.32073 0,0 z m 7.42309,-1.19062 c 0.0701,-3.53279 0.27571,3.48488 0,0 z m -7.15489,-1.32292 c 0.16509,-2.50345 0.099,2.84477 0,0 z m 6.89031,-2.91041 c 0.0701,-3.53279 0.27572,3.48485 0,0 z m -6.63997,0.52916 c -0.0421,-0.87078 0.88417,-9.58342 0.60326,-5.49099 -0.10713,1.66168 -0.23998,5.1684 -0.60326,5.49099 z m 6.38101,-4.63021 c 0.14019,-4.57358 0.13116,4.58321 0,0 z m -0.26633,-5.15937 c 0.0646,-4.05069 0.26966,3.96688 0,0 z m -5.30308,0.39687 c 0.15106,-2.96262 0.14276,2.96941 0,0 z m -1.28314,-3.68833 c -3.70184,-1.19297 -6.62367,-2.18672 -8.052733,-2.66882 -1.52658,-2.13244 -6.690831,-0.31123 -8.074348,-4.7137 -1.812536,1.59005 -5.276779,-3.49071 -6.065777,-5.92962 2.512661,-2.09875 0.610687,-3.12486 -0.496962,-4.96155 3.322233,-1.88835 -1.560025,-1.46573 -0.546237,-5.14515 -1.643432,0.54242 -2.098447,-3.81937 0.991424,-2.10733 -0.510776,-2.06537 -5.024048,-0.80522 -5.002277,-0.98383 -1.671585,-1.87261 -4.000178,-5.58361 0.578993,-6.04068 0.548505,-0.6137 -2.801159,-1.08016 -0.854308,-1.41538 2.343339,0.083 4.586212,-1.08602 1.057919,-1.00819 -1.789826,0.53752 -0.605629,-2.04231 -3.234073,-0.71403 1.311158,-0.84888 5.349251,-1.37375 1.405303,-1.37557 3.675683,0.96127 7.656574,-6.36699 3.592905,-4.24496 -0.591098,-1.8621 -0.803996,-2.92557 0.167651,-5.94072 1.488169,-2.60903 1.739957,-5.79614 -0.844928,-6.12664 0.0176,-1.41027 -1.409568,-4.56161 0.652128,-5.52191 -5.679953,-1.03701 0.16109,-5.06109 2.74478,-6.65538 0.921803,-1.53667 0.07339,-1.77072 0.884939,-3.24567 -3.424764,2.33811 -2.157438,-0.11083 -1.949788,-0.67798 -0.763094,0.4874 -3.838129,-0.29479 -2.473678,-1.3145 -0.702453,-1.55365 -0.102538,-5.16076 0.233947,-4.74356 0.529704,1.5109 -0.4218,2.99395 1.503576,3.78135 2.009754,2.79769 3.591094,-0.53133 1.43748,0.22516 -1.050367,-0.0987 1.026068,-5.24179 1.774646,-5.27899 -0.608236,-1.15638 -2.272678,3.11176 -3.312681,1.65708 -0.61684,0.45217 -1.483315,-2.17033 0.942724,-0.73314 -1.715775,-2.21897 1.618155,-1.51639 1.929192,-3.90347 2.600966,-0.9015 -5.975007,3.62235 -1.702513,0.0555 1.101014,-2.88539 -2.764545,2.59244 -1.483442,-0.67151 2.005892,-0.71559 3.089355,-5.38483 0.621771,-3.3041 0.368925,1.75669 -6.431717,0.85449 -3.459956,-2.8197 0.87697,-2.34558 3.711538,-3.75471 3.979256,-2.86409 2.834042,1.84935 0.05219,-4.07909 3.233622,-0.58242 1.496655,1.41041 -0.473798,-3.48133 2.281479,-0.38889 0.308275,-1.81855 1.609444,-2.79789 2.988787,-4.99367 1.30303,-2.20694 2.685178,-3.09503 0.512214,-4.57559 0.214656,5.5668 -1.710566,-2.39883 1.023888,-1.40776 0.965399,2.56356 2.998321,2.52686 0.831745,0.19178 1.457476,-0.64966 -0.635992,-2.78906 0.920917,-4.10787 -0.797265,-0.21441 -3.493292,2.54294 -1.984021,-1.13717 1.020841,-1.36428 1.508858,-1.94312 1.147643,-3.15696 1.114994,-1.17538 3.269929,-0.46256 3.629656,-0.41562 1.952137,-0.74967 3.030287,-5.07532 2.638187,-1.33708 1.26796,-1.67887 -0.0999,-2.75311 1.75746,-0.15847 2.86942,1.76562 -1.80303,-3.55644 1.18493,-0.8833 -2.71285,-4.68617 5.16826,-0.4147 2.76945,0.64357 -1.46666,-1.79411 1.84403,4.57827 0.89681,0.18259 1.66728,0.89826 2.76998,-3.08628 4.20256,-2.07486 3.40876,0.55184 -5.11015,6.30792 1.13451,3.60813 0.69034,2.55999 0.60735,7.89379 4.77656,3.95396 -0.37681,-2.04839 2.31211,-5.45177 3.18345,-2.33169 -1.01729,2.44383 -0.65739,5.91548 0.75414,5.64402 0.79339,1.60789 -1.95381,0.76003 0.27093,1.72712 1.94258,-1.97535 4.25732,3.91891 3.3906,5.59363 1.04659,2.50305 1.19756,2.5886 0.98436,0.15546 1.64524,1.17508 -0.8191,4.94483 2.32559,2.16482 -2.47624,2.74562 -0.0895,0.10028 0.45977,1.45251 -2.55079,0.45944 1.79882,1.13437 -0.0783,3.99875 1.19841,2.92634 1.52088,5.56112 2.06679,6.95782 2.07979,1.27843 0.51334,5.82379 2.42014,8.23219 0.77104,-0.11517 -1.05131,-3.30002 2.05219,-1.40631 1.55362,0.27111 -0.41431,5.0578 2.54517,3.32598 0.33084,3.58648 -3.92302,3.25449 0.10067,5.42922 1.32394,1.39786 -0.32725,3.43984 1.71254,1.58141 0.77998,3.24983 -0.78449,3.61896 -0.22574,1.90439 -1.50664,2.38089 -1.49797,1.96918 -3.405,3.34621 1.5493,0.42651 0.21525,1.76881 1.75646,1.17653 -2.03211,1.34901 1.84918,0.9623 1.44678,1.20703 2.25434,0.39392 -0.50995,4.49116 0.64036,6.82944 -0.73445,3.45985 -2.87636,7.76553 -2.11625,10.72432 -2.17941,0.36234 0.35262,4.97256 -1.46067,7.69948 1.31815,0.76884 -1.40371,0.46603 0.42155,1.90401 -1.72151,-0.44131 0.56725,4.80225 -2.57903,4.88018 0.52356,2.73752 -1.49933,5.55766 -0.55929,6.38639 -0.84684,2.6652 -2.62303,6.41298 -6.69153,8.64277 -4.26133,1.99969 -9.45853,4.6326 -12.62734,5.97037 -2.36369,2.41973 -0.80418,-4.66702 -1.42363,-5.98089 -0.19605,-6.13338 3.75591,-11.32614 6.10026,-16.73844 2.25192,-5.62663 -4.49929,0.98357 -4.72399,3.38365 -2.71273,3.98225 -0.25451,-7.7016 -0.72639,-10.66563 1.04532,-9.49279 3.58802,-18.7538 4.7932,-28.2155 -2.95716,-0.0124 -2.57866,11.74082 -4.77905,11.91258 -2.83111,-5.23173 -2.14185,-12.62285 -4.89606,-17.17041 -0.33183,4.94748 1.43225,10.094 2.02647,15.09702 0.2436,3.14187 1.69134,6.31354 1.5231,9.40804 -1.08199,3.1284 -1.77168,6.7984 -3.14717,9.50959 -2.77195,-8.4694 -6.61697,-16.53192 -9.36829,-25.00312 -4.952965,0.10174 1.3803,7.35721 1.16665,10.31266 2.41977,8.17015 5.96995,16.04065 7.65692,24.40166 0.15168,2.99385 0.78965,11.77088 -2.04843,5.10674 -3.46286,-5.54001 -6.55434,-11.32143 -9.956804,-16.87903 -3.500754,2.82247 2.660224,7.59807 3.638934,11.03159 3.23373,6.17348 7.28909,12.34816 8.15757,19.38051 -0.0288,1.37014 0.27014,4.55671 -1.67296,3.9436 z M 93.106692,163.82655 c 0.653121,-2.55669 -2.012012,-2.69926 -2.038071,-4.05561 -1.391233,-0.22231 -2.734745,-5.7573 -3.192903,-1.3278 -0.44793,-1.49752 -1.921829,0.22166 -1.407949,-2.52366 0.247362,-3.12309 -4.356225,2.64939 -0.576042,2.74308 0.68501,2.13791 4.266866,0.40836 4.701969,4.50712 -0.297607,0.79117 1.743719,1.58534 2.512996,0.65687 z m -8.152609,-6.51274 c -0.80356,-1.38404 1.701446,0.43153 0,0 z m 9.578037,-1.65243 c 0.355316,-2.50556 -5.083894,1.04719 0,0 z m -5.115428,-17.28794 c 0.658804,-0.81663 -1.164055,0.22871 -1.082498,-0.26088 -0.355255,0.78481 1.054995,1.2397 1.082498,0.26088 z m -0.237336,-1.78594 c -1.042628,-3.28258 -0.504878,2.87764 0,0 z m -2.388165,-0.49856 c -0.228689,-4.84149 -1.385365,1.49642 0,0 z m 1.812787,-1.24813 c 1.622982,-0.83247 -0.703312,-3.02847 0.855276,-3.70311 -0.875634,-0.954 -2.146201,1.43898 -1.156,-1.17666 -2.88365,-2.7958 0.211737,5.52242 -1.819166,1.94432 -0.489989,1.31179 1.780073,4.45333 2.11989,2.93545 z m -0.803976,-0.46987 c -1.380251,-1.93533 2.14386,0.24936 0,0 z m -5.254003,-0.69385 c 0.917372,-1.37323 -2.279383,1.3731 0,0 z M 122.33,121.2447 c 2.11219,-1.08187 -1.68226,0.0161 0,0 z m -2.14638,-1.59053 c 3.67432,-1.59748 3.67958,-3.91166 0.009,-1.71114 0.76358,-2.99689 -2.35215,1.89562 0.17517,-1.06703 -0.42668,0.99483 -2.69881,3.52045 -0.18439,2.77817 z M 98.730802,109.31163 c -0.11686,-1.4309 -1.426204,2.722 0,0 z m 6.979968,-1.45393 c -3.27465,-2.20269 2.23466,2.46886 0,0 z m 5.004,0.53004 c -0.76092,-1.82793 -0.35523,1.46388 0,0 z m -0.90143,-1.43357 c 1.8592,-2.19887 -3.05697,1.59908 0,0 z m -3.4925,-2.77813 c -1.93422,-2.40342 0.0185,2.11587 0,0 z m -24.540109,90.65434 c -1.468503,-5.54979 3.021535,2.79664 0,0 z m 0,-2.85561 c -1.121743,-1.35244 1.568901,0.13975 0,0 z M 77.83046,165.95266 c 0.709442,-1.78667 8.287538,-0.89591 3.804832,0.15462 -0.72125,-0.12195 -3.408645,0.6004 -3.804832,-0.15462 z m 6.794542,-15.49658 c 0.762387,-1.12569 0.92564,1.39278 0,0 z m -5.287615,-1.55222 c -2.909113,0.0263 1.016546,-3.7985 0.473748,-0.0595 -0.177898,0.016 -0.580932,0.83828 -0.473748,0.0595 z m 60.056363,-1.32053 c 0.45923,-2.02241 1.1261,1.64062 0,0 z m -61.534938,-1.06827 c -1.164854,-1.28666 2.019564,0.90408 0,0 z m 2.057358,-1.26393 c -1.510588,-3.16005 2.531343,-0.26173 0,0 z m 8.371053,-19.64771 c -2.301251,-3.89477 0.10645,0.029 1.407488,-2.09849 1.344968,-1.14473 -0.496035,3.70007 -1.407488,2.09849 z M 121.1375,113.28838 c 2.15731,-1.72408 2.34983,0.44681 0,0 z m -4.45195,-3.70376 c -1.6261,-2.26365 2.78846,-2.9271 0.11845,-0.30663 0.30176,0.25892 1.36577,1.37217 -0.11845,0.30663 z"
         id="path1746" /><path
         style="fill:#81a97d;stroke-width:0.264583"
         d="m 115.64797,243.87604 c 0.17397,-2.00686 0.10764,2.26431 0,0 z m -0.25924,-2.77813 c 0.13514,-2.32073 0.13512,2.32073 0,0 z m -0.26458,-3.175 c 0.13514,-2.32073 0.13512,2.32073 0,0 z m -0.25736,-3.43958 c 0.15106,-2.96263 0.14276,2.96941 0,0 z m -0.2682,-4.36562 c 0.16509,-2.50348 0.099,2.84476 0,0 z m -6.35895,-2.38125 c 0.17396,-2.00687 0.10764,2.26431 0,0 z m 6.10068,-1.5875 c 0.0851,-3.02454 0.2768,3.00867 0,0 z m -5.8361,-1.32292 c 0.17397,-2.00686 0.10764,2.26431 0,0 z m 0.26459,-3.70417 c 0.17396,-2.00685 0.10762,2.26433 0,0 z m 5.29166,-0.52916 c 0.17396,-2.00688 0.10764,2.2643 0,0 z m -6.04348,-4.08982 c -1.08748,-0.84252 -2.91985,-1.6279 -3.52531,-1.4773 -1.54896,1.38781 -3.27163,-1.05163 -5.162186,0.31977 1.485416,-2.74346 -5.50722,-4.47658 -3.983638,-1.40731 -1.472196,-1.11618 -3.864975,-4.86362 -5.58607,-3.19356 -0.388132,-2.46064 -5.683216,-4.45575 -3.811867,-7.8055 3.36739,-1.37051 -1.801787,-2.65377 -0.681394,-3.74914 3.509627,-1.51762 -1.253016,-2.01803 -0.244658,-2.71086 0.762537,-1.59069 -4.376262,-5.05487 0.480799,-4.66202 -0.744547,-1.48368 -5.467235,-0.89439 -6.363931,-3.05751 -3.020071,-2.9191 4.679026,-4.32905 4.442582,-5.97486 -2.832179,-2.41723 1.838918,-0.71992 0.670014,-3.48259 -4.43151,2.82188 -0.114365,-1.08062 1.230858,-1.8552 -2.61566,0.0959 1.929315,-1.98199 -2.11449,-2.2211 0.871262,-2.67332 -1.784458,-2.12642 0.553985,-3.71981 -1.621808,-1.86552 3.031086,-5.52359 -0.847694,-7.64326 -2.942516,-3.2745 -0.293467,-2.72195 2.025072,-3.71142 -1.737715,-0.0865 -3.579951,-0.23423 -1.494478,-1.05385 1.713681,0.0874 1.175446,-1.84218 3.269407,0.88685 3.812761,-2.36934 2.282838,7.05012 5.542033,4.89464 1.629585,-2.44494 0.524256,2.13353 1.674186,-1.70655 3.206023,-1.36304 -1.934029,-2.19805 -1.792253,-2.8775 -2.012852,-2.09356 -3.384815,-3.61637 -2.116669,-5.3745 -0.218753,-1.26858 -1.728238,-0.18964 -2.239386,0.83362 -1.233248,3.41107 -0.549477,-3.03656 -2.209287,-3.49184 0.753471,-1.77463 3.307352,-0.59846 0.215337,-1.86049 2.863615,0.60125 2.775034,-1.36928 1.891634,-2.15823 3.470998,2.38354 1.540798,-1.57365 4.316153,-3.79289 -1.473965,-4.00712 -0.492499,-1.36427 -3.879783,-1.0136 2.147259,-1.59791 -0.310919,-1.85021 1.376149,-4.07216 -3.331797,2.23947 2.563584,-4.07161 2.746947,-3.20432 1.159971,2.47483 2.360456,0.37435 1.225569,0.74072 2.056321,-2.24205 -1.671058,-1.28344 -2.779715,-2.8904 1.309577,-1.2447 -0.180348,1.77865 1.78944,-0.61658 0.312741,-2.66938 1.653473,-5.20106 -1.148164,-4.77764 0.269357,-1.41281 1.470823,0.64475 0.944046,-1.55386 1.025906,1.66705 0.05073,-1.38305 0.651535,-1.30685 -3.382093,1.54322 -1.490541,-1.82866 -0.496038,-1.58921 2.522593,-1.56185 1.272556,-3.80007 3.70741,-4.76268 1.463837,-0.51789 -0.108903,-3.58888 1.908255,-2.31719 -4.198779,-2.76945 1.683965,-6.30734 2.13399,-6.42821 -0.372552,-1.03822 -2.400378,-1.73007 0.37732,-1.51771 0.96562,-2.73127 -2.019519,0.89189 0.27952,-2.11333 2.18013,3.06059 1.35075,-2.49767 4.00537,0.91653 2.43018,4.75338 0.58364,-1.5729 0.92605,-3.10634 2.35557,2.02991 3.34723,6.37462 4.88091,5.39021 3.63783,1.82661 -0.49537,-4.74065 2.69588,-0.53447 0.85471,4.01719 1.93375,4.159 5.28258,2.3036 0.22122,-3.3707 2.14044,-4.32127 1.3779,-0.39547 0.57569,0.53951 -0.23553,3.25584 0.75673,3.66365 -2.89024,-0.4769 0.59051,1.5511 -2.37929,2.92832 -0.24931,5.18914 5.23038,-1.82131 5.94679,-1.17799 1.32549,2.24779 -1.79432,3.30877 0.79732,2.50654 -1.16142,2.02971 0.96139,8.32311 2.54899,7.58796 3.49965,-1.33966 -0.13479,5.66784 2.36858,5.53468 -0.37303,1.51632 -1.1871,2.59283 0.0949,4.39477 2.1976,2.01037 -2.50784,2.92978 1.00878,2.90965 0.29797,3.2086 2.05311,-2.0254 1.19567,1.74082 0.47913,0.18279 0.18829,5.56715 3.57,4.25844 1.93125,0.75361 2.56049,4.24409 1.36834,3.71841 -0.48775,-1.52877 -1.6784,3.05698 0.72206,3.12538 1.70394,-0.89403 0.58918,4.19071 -0.98648,4.53045 -0.7892,0.0916 -0.19233,1.27784 -0.84863,2.6238 1.65441,0.5639 1.58878,3.88799 4.80587,4.07819 -1.70842,0.83299 -3.14246,5.07802 -0.95196,4.55729 -0.1913,1.21122 -0.51085,3.18747 -1.1983,5.86535 -1.85749,2.68316 -0.29943,6.50627 -2.21654,8.96458 2.10231,2.67677 -1.51969,2.04041 -1.30831,3.18295 0.65373,2.49167 1.65815,2.85309 0.90531,5.98601 -1.79133,-0.40757 -0.39486,3.27231 -2.97621,3.34984 0.74618,0.53115 1.84257,1.16609 0.0943,2.96255 0.83087,1.91257 -1.74962,7.89663 -5.4622,9.71234 -3.78723,0.30749 -3.0499,0.62779 -6.33335,2.79256 -2.48829,1.49059 -6.07482,2.84266 -7.62049,4.05492 -0.25136,-5.09792 -1.07529,-10.47097 1.81296,-15.05053 0.31211,-3.41801 6.26168,-8.77549 3.86618,-10.78054 -2.94099,0.952 -7.03233,12.31883 -5.68389,3.61107 -0.17886,-12.58715 3.72892,-24.71367 5.18177,-37.1081 -3.25452,1.88274 -2.48069,9.75256 -4.64421,12.70895 -2.26713,-5.48493 -3.01424,-11.45317 -4.2343,-17.21214 -2.62132,1.28908 0.90023,9.45894 0.87435,13.22214 0.46945,3.5304 1.54554,7.06857 1.87545,10.55866 -1.04118,3.1978 -1.96156,7.12387 -3.00942,9.82783 -3.20361,-8.26138 -6.48663,-16.51131 -9.55991,-24.82242 -4.861869,-0.96903 0.91867,7.08173 0.96626,9.77925 2.60423,8.33799 6.00314,16.49357 7.93099,25.0022 0.0311,3.16378 0.57087,11.55945 -2.21309,4.68217 -3.31141,-5.43341 -6.46429,-10.96473 -9.582534,-16.50267 -4.263777,1.49102 2.402834,7.8708 3.478344,11.11894 3.26841,6.38924 7.76525,12.74569 8.00275,20.13543 -0.0579,0.48416 0.0791,2.71974 -1.10755,1.87967 z m 25.02676,-13.75394 c -0.7242,-1.48981 -0.94999,0.86528 0,0 z M 82.622036,185.5655 c -0.969792,-1.49777 -1.345476,1.00706 0,0 z m 11.875931,-15.81208 c -1.181012,-2.92253 -2.260516,0.20376 0,0 z m -0.469377,-1.69811 c -1.226175,0.45083 -4.448705,-4.48377 -1.884892,-0.0683 0.523943,0.39177 1.352976,0.51745 1.884892,0.0683 z m 0.527643,-1.56747 c 0.413364,-1.4507 -4.760381,-0.27434 -1.171447,0.0279 0.668755,-0.0161 1.528842,2.19983 1.171447,-0.0279 z m -9.294103,-3.30971 c 0.331679,-1.60898 -3.45484,2.16038 0,0 z m -0.637128,-0.39688 c -1.625666,-1.00968 -1.279783,0.75726 0,0 z m -0.394208,-0.79806 c 2.835692,-1.26709 -2.457504,0.41779 0,0 z m 1.565782,-0.87597 c -1.100484,-1.23213 -0.103189,2.51802 0,0 z m 8.565093,-5.25805 c 1.167676,-3.1914 -4.768746,1.13973 0,2e-5 z m -3.386667,-2.54235 c -0.961369,-2.91589 -1.096974,0.98984 0,0 z m 1.217598,-6.25883 c -0.479969,-3.79474 -1.566591,1.51325 0,0 z m 1.689483,-3.58898 c 0.801421,-2.12535 -3.71849,-3.61982 -1.230067,-1.07677 1.814077,-0.76888 0.184932,2.1451 1.230067,1.07677 z m -0.525831,-2.60578 c -0.926955,-1.93869 -1.400225,0.50296 0,0 z m 37.532938,-0.53254 c 0.5027,-0.84856 -2.01973,0.15199 0,0 z m -38.216036,-1.77712 c 1.556552,-1.36153 -2.235437,0.45772 0,0 z m -0.436886,-1.57103 c -0.85901,-1.44735 -0.52333,2.2373 0,0 z m 37.094902,-3.59788 c -1.23435,-1.37441 -0.86601,2.56793 0,0 z m -7.67042,-4.85329 c 0.56516,-1.0375 -0.93208,-0.0943 -0.83969,-1.51828 -1.8274,-1.57492 0.0544,2.47742 -1.4695,1.01405 0.0282,-1.36894 -2.54748,0.11165 -0.12248,0.71655 0.81167,0.0802 1.65197,0.0439 2.43167,-0.21232 z m 4.07103,-2.47818 c -1.87974,-3.25031 -0.81836,2.75516 -0.36416,1.32296 l 0.3652,-0.64085 -0.001,-0.68206 z m -1.77286,-1.17642 c 0.33548,-1.91698 -1.83566,0.45558 -6e-5,0 z m 0.46759,-1.8026 c 0.84496,-3.23608 -1.13144,0.20465 0,0 z m -1.96609,-1.57353 c 2.33776,-1.86253 -1.89658,0.0121 0,0 z m 1.61282,-2.79303 c 0.50872,-1.52814 -1.92583,1.4579 0,0 z m -19.68859,-5.01685 c -1.10109,-2.11262 -1.84718,2.81243 0,0 z m 2.28222,-1.41662 c -1.38791,-1.58714 -0.12374,1.74254 0,0 z m -4.57937,103.41197 c -2.04347,-1.65806 3.04757,1.80606 0,0 z M 81.885954,194.59448 c 0.80305,-3.80322 0.879795,1.38156 0,0 z m 57.389726,-31.69034 c -1.02941,-3.08602 2.10004,1.70875 0,0 z m 1.81398,0.18034 c -2.23117,-2.03732 1.05289,0.11957 0,0 z m -59.999922,-5.19802 c -1.796698,-1.65219 3.385812,-4.62387 4.145115,-4.49243 -2.489051,1.55953 0.441826,2.79443 -1.907749,4.45855 -0.590193,-0.98419 -2.44527,1.13632 -2.237366,0.0339 z m 3.999421,-8.6651 c 0.814776,-2.82442 0.849958,0.57727 0,0 z m -2.06864,-1.80204 c -2.51214,-2.29119 3.08083,1.10604 0,0 z m 5.993556,-1.47341 c 0.50928,-1.51356 1.88127,0.21927 0,0 z m 2.139173,-1.52885 c 0.223393,-2.47305 1.263437,1.28179 0,0 z m -5.983449,-3.30244 c -0.05656,-2.48415 1.473375,1.72298 0,0 z m 0.731653,-1.32209 c -1.08348,-1.71716 4.707946,-0.25523 0,0 z m 1.646094,-2.12403 c -0.338369,-1.83232 1.16394,1.39761 0,0 z m 1.310789,0.10963 c 1.269017,-1.73101 0.382798,1.59372 0,0 z m -3.373561,-0.19844 c 1.682332,-2.3406 0.348268,1.62044 0,0 z m -2.31498,-3.37344 c -0.139348,-1.94934 1.608982,1.52717 0,0 z m -2.702343,-1.24234 c 0.355449,-2.22156 1.503558,-0.091 2.255368,-3.54027 -3.211767,-0.35578 2.637359,-0.69488 -0.157516,2.03833 1.260733,-2.47632 1.782732,-0.75432 2.730188,-2.16195 0.236183,2.73945 2.137042,-3.02205 0.475106,1.66397 -2.30199,1.16657 -4.22704,3.4577 -5.303135,1.99988 z m 9.653656,-2.47787 c -3.796389,-0.90319 1.181855,-4.72639 0.882771,-1.11396 0.644139,-0.8296 -0.09288,2.98992 -0.882771,1.11396 z m -6.662959,-1.80977 c -0.930936,-2.10765 2.206973,1.95596 0,0 z m 3.74793,-0.42314 c 1.554775,-2.51296 -0.344583,2.33706 0,0 z m 7.661877,-17.09733 c -0.990663,-2.39816 3.471368,0.96366 0,0 z m 1.13413,-1.9279 c 1.341089,-1.1263 0.957188,1.33078 0,0 z m 1.320017,-0.28936 c -0.865473,-2.65739 1.410172,-1.03722 0,0 z m 13.390228,-1.38524 c -0.84292,-2.84201 1.95156,0.61766 0,0 z"
         id="path1744" /><path
         style="fill:#79a374;stroke-width:0.264583"
         d="m 114.85956,234.48333 c 0.13515,-2.32072 0.13513,2.32071 0,0 z m -0.26992,-4.36562 c 0.17396,-2.00687 0.10764,2.26431 0,0 z m -0.25202,-3.83646 c 0.15106,-2.96265 0.14276,2.96938 0,0 z m -10.9272,-11.0006 c -1.34441,-2.9592 -2.43426,0.75372 -3.903741,-0.26187 0.476661,-1.66151 -1.926833,-3.86816 -3.445566,-2.27219 -0.796537,-3.7337 -3.820768,2.01146 -4.182243,-2.80264 1.812009,-1.99605 -3.246662,3.24993 -2.209359,-0.861 -2.079756,0.53205 -3.076573,-3.74492 -4.123343,-4.92649 2.015268,-2.09046 1.37416,-3.00995 -0.491784,-4.79908 3.021971,-0.70253 0.828247,-3.13539 0.562771,-3.10478 0.01154,-1.20563 -4.91952,-4.90517 -0.365939,-4.18774 1.779566,-2.24849 -2.922396,0.0224 -2.808945,-2.13042 -3.599278,1.11031 -5.394092,-6.30218 -0.710803,-3.62244 2.43708,-1.46108 3.038285,-2.43239 2.185851,-3.13375 2.499749,0.20715 -3.094696,-1.51314 0.833255,-1.25876 0.741496,1.23789 1.360701,1.10455 -0.153434,-0.71682 0.04384,-1.971 3.003553,0.68078 0.791985,-2.12001 -5.235855,0.47398 2.02736,-1.55738 1.229394,-1.45631 -0.954102,-1.4388 -3.806577,-2.70912 -2.626913,-3.56379 1.690334,-2.1307 -0.816668,-1.02103 0.239088,-3.24974 -0.886617,-3.06319 2.370496,-3.30064 0.274155,-5.27072 -1.025355,-1.64462 -3.745242,-5.26305 -0.714496,-4.36462 -2.988575,1.60391 3.360862,4.66132 1.820195,1.97289 2.473195,-0.31948 -4.176874,-1.53367 0.932003,-1.31349 1.771128,0.96169 2.928476,-0.93109 2.590069,0.81048 1.514819,0.55326 3.366082,8.90031 5.462614,6.36602 -2.621939,-2.27782 1.314403,-0.70241 0.630893,-4.64521 -0.460119,-2.12237 0.87276,-4.78253 -1.312601,-3.09418 0.01408,-2.02739 -2.221875,0.50034 -1.585021,-2.67459 -2.778756,-1.17721 -1.527039,-0.60872 -0.548383,-2.02003 -2.770351,-0.13983 6.538863,-1.44254 1.398059,-1.65374 -2.554205,1.06267 -1.583015,-1.87161 -1.575506,-2.76821 -2.414702,-0.50425 0.295675,-0.98644 -3.136218,-1.18436 1.295172,-0.75597 0.665796,-3.03201 1.699143,-0.89204 1.718866,0.55307 1.430664,-1.67482 0.253547,-1.66666 -0.842825,-2.8555 1.414764,0.46682 2.117856,-1.30972 -1.296592,3.12491 2.480299,0.85075 0.727307,-0.42967 -3.53666,-0.94273 0.07016,-3.66172 2.069693,-2.27007 1.684422,-0.85934 0.516609,-5.37526 -0.196486,-1.27068 -1.936777,-2.53704 2.671075,-1.53041 1.237411,-3.70695 0.01308,-1.70947 -2.604618,1.25324 -3.696693,-0.15743 -2.536915,1.94319 -1.993804,-2.98234 1.182759,-0.10271 -0.489115,-0.53729 0.43996,-2.38692 0.667046,-1.18103 4.327433,1.2791 -1.045012,-1.52478 0.283404,-1.66329 0.921674,0.6099 0.915811,-2.86626 1.600204,0.0759 -0.162538,-1.7599 -3.237914,-3.44518 -2.449223,-1.78067 -1.605096,-0.35989 0.08595,-7.45966 -0.0962,-4.15185 -0.114555,4.1392 1.564489,-3.80925 -0.312549,-2.52324 2.823478,-1.33018 -1.068378,0.26567 0.06717,-2.6996 -0.03584,-0.94117 -3.047309,1.29632 -0.66726,-1.02528 0.891515,-1.68549 2.699781,-0.15404 3.311629,-2.97655 1.776293,-0.24138 -2.015691,-1.12714 1.43526,-2.15719 0.940755,-3.15005 2.528695,-0.10754 1.554598,-3.38666 -0.893014,-0.80813 -0.60572,2.90505 -2.198603,-0.26102 -0.0996,-2.98603 3.38126,-3.10004 2.914402,-3.85244 1.678828,1.12909 0.404758,-2.55623 1.433288,-2.24896 -1.16635,-2.87067 2.92085,0.80366 1.0949,-2.50931 2.99258,0.84984 1.17743,0.58554 1.44012,1.96453 0.59001,1.09009 0.94145,-1.22353 1.46764,0.65419 2.67657,1.53436 -1.29946,1.09517 0.90601,3.49151 0.26717,2.95593 1.586,-6.08516 0.12264,-3.61398 0.69129,-3.57757 0.29978,-1.1428 2.94436,-0.26926 -0.21478,2.7441 -1.51576,4.57653 0.58154,2.11889 0.93615,2.69719 3.45333,-4.43839 4.10082,0.0618 -0.13655,3.48647 3.74841,2.47703 4.89838,0.64284 2.17315,-4.89951 -0.37708,3.204 0.36758,4.33792 0.0868,0.28866 -1.60402,3.67001 0.005,4.33605 1.12497,-0.2678 4.49504,-2.97364 4.79882,0.32336 -1.23679,-0.47442 0.85302,1.06469 -1.05025,1.02026 1.44471,1.31978 1.62581,2.62731 -0.49743,1.86324 -0.0456,1.6388 2.12853,1.82666 1.85321,3.16925 0.65706,2.2394 1.45987,0.5047 2.00411,1.64617 0.39333,-2.69175 3.90688,4.61725 1.96714,4.56472 -0.19084,2.2544 0.81062,3.24218 1.55773,4.80855 -2.26451,2.34092 1.54631,5.35835 1.57561,4.88024 2.35782,1.29787 3.07542,5.58498 5.27708,4.05575 1.92231,2.31166 -0.16249,1.56765 -0.59129,3.43246 0.40043,2.75822 2.05163,1.88917 2.7839,3.29025 -0.18653,2.71283 -4.04206,4.93601 -2.79758,5.74879 0.18414,1.0386 0.86496,0.59145 -0.12754,1.01561 2.81893,0.20592 -0.53761,5.50011 1.56146,2.46473 2.5579,1.09309 2.03658,3.84752 0.81903,5.50328 2.53532,0.63297 -0.67114,0.9957 1.58766,1.77437 -0.79445,1.99291 -2.3013,4.76264 -1.994,6.95683 -0.51685,2.50277 -1.01017,5.34853 -1.08932,7.43009 -3.9751,2.01224 0.5057,4.25385 -0.79983,7.20628 -2.00632,0.63664 -0.17598,4.20809 -2.81618,4.34748 -1.65212,2.26021 2.90376,-0.74905 -0.15431,2.26688 0.0271,2.15636 -1.49838,3.33342 -0.42274,5.29278 -1.96786,4.15367 -6.01998,5.18664 -9.29554,6.00023 -2.03699,1.70621 -3.08195,3.00495 -2.66742,1.17736 -1.89196,4.12553 -5.31525,1.33169 -6.75108,5.00903 -0.01,-5.01402 -1.23642,-10.36181 1.59477,-14.88728 0.52656,-3.58628 6.08901,-8.90595 4.15715,-11.28367 -3.31684,0.8278 -6.7992,11.9882 -5.7314,3.65452 -0.12692,-12.42993 3.47191,-24.42545 5.16169,-36.63904 -2.7232,-0.24215 -2.85468,8.7954 -4.45558,12.04208 -2.34299,-4.3741 -2.94884,-9.85587 -3.94116,-14.8156 -1.69637,-6.71093 -1.72516,2.365 -0.67339,4.70526 0.78769,5.5938 2.12878,11.2324 2.91984,16.75951 -1.01455,3.24658 -1.78793,6.58748 -3.0878,9.73065 -3.13747,-8.26798 -6.37358,-16.52589 -9.5595,-24.76828 -4.747481,-0.67509 1.23862,7.81787 1.38828,10.84872 2.48649,7.82116 5.54788,15.50262 7.5102,23.46827 -0.0571,1.61553 0.80943,11.21028 -1.17387,6.90363 -3.5276,-6.00955 -7.11635,-11.98829 -10.450318,-18.10096 -4.744783,1.55673 3.125378,8.61157 3.958098,12.1206 3.08438,6.30129 7.77891,12.73627 7.22678,20.04659 -2.34411,0.0771 -3.48472,-0.75022 -5.49851,-0.30336 z m -10.388047,-4.52792 c -2.556472,-1.23032 1.410116,1.73139 0,0 z m 39.325447,-13.90638 c 0.64637,-2.83018 -1.47175,2.2889 0,0 z M 86.859994,176.03301 c 0.230134,-3.78329 -2.962251,0.32016 0,0 z m 0.921412,-1.14707 c -0.570311,-2.98101 -0.900542,1.01303 3e-6,0 z m -2.102122,-2.51354 c -0.718302,-2.90652 -0.396799,1.81009 0,0 z m 0.268635,-2.14974 c -0.118434,-3.60235 -1.589653,0.20504 0,0 z m 1.455208,-6.64766 c 2.393339,0.45701 -0.606502,-0.84646 0,-10e-6 z m 9.657292,-18.25625 c -1.975121,-1.07465 -2.664002,1.00956 0,0 z m 2.089896,-1.32292 c -1.444707,0.16082 -0.959965,3.20206 0,0 z m -1.33246,-0.59701 c -0.867137,-5.15375 -2.314561,5.47138 0,0 z m 3.770655,0.88024 c 0.20614,-1.60427 -3.690068,-4.95299 -1.47244,-1.77358 -0.289296,0.57229 2.0899,2.96397 1.47244,1.77358 z m -3.066554,-1.05704 c -1.333414,-2.17951 0.241612,2.37768 0,0 z m 0.246954,-1.05999 c -2.42928,0.2884 1.77596,-3.7645 -0.704709,-1.5007 -1.646733,-0.75343 -1.064371,2.38926 0.704709,1.5007 z m 23.23993,-1.25606 c 2.25193,-0.24191 -1.99325,-0.93066 -0.35087,0.65264 l 0.30316,-0.31667 z M 103.675,140.32406 c -1.41045,-3.03925 -1.46703,-0.39468 0,0 z m -5.609165,-0.61448 c -0.716389,-0.83791 0.679568,-1.817 1.298048,-2.00051 -2.083067,-0.79559 -3.550476,1.27785 -1.298048,2.00051 z m 2.698755,-1.90981 c -0.46096,-2.46117 -1.286798,0.59093 0,0 z m -0.812352,-1.55535 c -2.234455,0.45233 -0.184865,1.86404 0,0 z m 12.983182,0.27944 c -1.98256,-3.81089 -1.01343,0.63372 -0.59531,0.57165 l 0.59531,-0.57167 z m -13.626458,-3.54854 c -2.581535,-2.95004 0.863628,1.84254 0,-2e-5 z m -1.98396,-0.88573 c -0.989143,-2.12622 -1.171312,0.48865 0,0 z m -1.906631,-0.99219 c 2.342969,-0.29614 1.026105,-2.4767 0.192635,-1.10625 -0.601836,-2.31083 -0.758102,3.02092 -0.192635,1.10625 z m 25.057669,-2.18281 c 2.50878,-0.88703 5.2011,-2.2916 0.59532,-2.29236 -2.13157,-2.34132 -2.09273,-0.1205 -2.23744,0.814 -1.42222,-3.17214 -0.94106,3.57933 1.64212,1.47836 z m -21.351871,-0.3175 c 1.339691,-2.09149 -1.984022,1.07687 0,0 z m 18.306041,-0.47625 c 0.99531,-2.88632 -2.61745,1.4285 0,0 z m -3.11168,-2.31359 c -1.58536,-0.83636 0.37021,3.20192 0,0 z m -17.305855,-0.8823 c -0.45547,-2.18907 -1.788501,2.37905 0,4e-5 z m 25.173115,0.41155 c 0.082,-2.25381 -2.31189,1.2018 0,0 z m 0.43346,-3.76815 c 2.07426,-1.58231 -3.44141,-2.31833 -0.91068,-0.22262 0.0542,0.4311 0.64975,0.45679 0.91068,0.22262 z m -12.43899,-6.94402 c 0.87696,-2.01795 -1.82426,1.39474 0,0 z m -5.93662,-0.26183 c 3.13791,-3.15129 -4.533234,0.10147 0,0 z m 4.83421,-0.23043 c -1.00032,-2.94799 -1.3987,-0.0555 0,0 z m -28.229637,71.7717 c 0.613977,-3.46522 1.292739,1.18448 0,0 z M 91.939998,167.3422 c 0.443289,-1.64323 1.782199,-0.66785 0,0 z m -4.847,-5.72829 c -3.91571,-0.9979 1.18028,-2.65214 0.79563,-1.27539 -0.311906,0.61263 1.185665,2.45674 -0.79563,1.27539 z m -6.151356,-4.23155 c 0.742953,-3.03392 3.503453,-3.36688 3.154193,0.21626 -1.989829,0.13792 -2.194031,-1.81099 -3.154193,-0.21626 z m 6.563083,-1.67871 c -1.610864,-2.49296 0.927728,-4.21072 1.486125,-0.99181 -3.34653,-2.58632 0.160411,1.9101 -1.486125,0.99181 z m 3.121405,-0.69148 c -0.945866,-2.23773 1.54534,1.59551 0,0 z m -6.898856,-0.65177 c 0.20457,-1.4977 1.672659,-0.52295 0,0 z m 5.782531,-0.97186 c -0.656284,-0.57408 -3.37957,-4.46662 -0.141919,-0.92427 1.71505,-0.20857 -0.361906,2.65227 0.141919,0.92427 z M 86.5393,152.43319 c -0.977785,-2.79033 1.309918,0.57413 0,0 z m 5.470939,-9.50514 c 0.335948,-2.74141 2.809874,1.88388 0,0 z m -2.062878,-1.40792 c -2.321062,-1.44686 0.847435,-1.35693 1.159937,-0.60367 -0.454063,-0.25171 -1.315353,1.38157 -1.159937,0.60367 z m 3.144308,-0.1505 c 1.841131,-2.19938 2.719029,-0.13761 0,0 z m 2.434166,-1.13088 c -1.121227,-2.34437 1.284521,0.5135 0,0 z m -7.196666,-0.33054 c 2.788111,-3.31628 2.393224,-1.05591 0,0 z M 129.075,139.51654 c 1.44804,-1.84593 1.23569,0.38895 0,0 z m -46.462681,-7.05172 c 0.760924,-1.82794 0.355225,1.46391 0,0 z m 1.49083,-1.55705 c 0.221507,-1.69217 1.790853,1.12586 0,0 z m 4.546317,-1.08926 c 0.598737,-2.29627 2.003657,-1.82753 1.350896,-1.06453 2.509725,0.18139 -0.703177,1.60559 -1.350896,1.06453 z m 8.379406,-11.0982 c 0.714317,-2.76544 0.737125,0.6756 0,0 z m 26.093008,-0.65364 c 1.37929,-0.96775 0.73919,0.95992 0,0 z m -3.63623,-3.76086 c 1.61948,-2.40004 -0.28596,2.55928 4e-5,0 z"
         id="path1742" /><path
         style="fill:#6c9a66;stroke-width:0.264583"
         d="m 114.85422,234.35104 c 0.17397,-2.00686 0.10764,2.26431 0,0 z m -0.52021,-7.9375 c 0.1651,-2.50346 0.099,2.84476 0,0 z m -0.43823,-15.53899 c -1.05499,-6.46888 2.90682,-12.06568 5.4067,-17.69508 3.0368,-2.66089 0.0635,-5.30766 -1.78975,-1.64733 -1.70696,2.48339 -4.64817,8.34488 -3.41734,1.95178 -0.2588,-12.4952 3.60247,-24.54161 5.13045,-36.83183 -2.41548,-1.23183 -2.62719,7.52029 -3.80689,9.93291 -1.37165,5.34965 -2.78587,-5.15259 -3.45687,-6.91059 -0.69395,-1.6098 -1.09716,-10.94636 -2.70957,-7.22212 0.86257,7.69893 2.73404,15.37006 3.82795,22.96951 -1.07122,3.19173 -1.76162,6.69498 -3.04861,9.67675 -3.09158,-8.26275 -6.36421,-16.46816 -9.54932,-24.68899 -4.687314,-1.17688 0.94142,7.64726 1.28051,10.55719 2.40322,7.96346 5.69007,15.6792 7.60192,23.77404 0.0119,1.80386 0.44119,8.93795 -0.69672,7.65605 -3.65924,-6.48876 -7.64091,-12.79704 -11.104005,-19.39064 -4.162907,2.64939 2.434762,7.79682 3.406315,11.29621 3.34134,6.65089 8.155,13.22018 8.0835,20.94954 -2.62094,0.19629 -3.05499,-0.6119 -5.379,-0.31232 -2.3151,-2.2472 -2.29623,-0.48305 -4.121188,0.3844 0.361205,-1.29006 -2.372473,-6.18259 -2.368682,-2.93314 -2.419551,1.57359 -1.540484,-5.02812 -2.53796,-1.056 -0.966981,-0.34332 -2.689936,-2.03543 -0.770174,-1.78844 -1.988092,-0.17887 -3.409584,-3.18851 -3.328373,-0.84225 -1.268443,-2.45147 -2.240537,-3.71155 -5.099611,-3.75996 0.931294,-2.58908 2.631689,-3.54589 0.162564,-5.41407 2.445826,-1.3667 0.846569,-3.66795 0.06005,-5.0905 -3.093836,-0.89251 -2.86255,-2.55161 0.07733,-2.8128 -0.494432,-1.85011 -3.679966,0.48835 -2.9956,-2.69451 -0.248234,0.0466 -0.02533,-1.85758 -1.001394,0.62434 1.027301,1.01811 -4.593038,-3.65453 -1.808507,-2.82695 2.393045,2.24886 1.280797,-1.34407 3.512039,-0.85198 -0.885703,-2.78628 4.734162,0.1881 0.660294,-2.34758 4.052593,0.76298 0.642134,-1.65813 3.298264,-2.29589 -1.463248,-0.61923 1.360503,-2.84355 -1.995318,-4.69464 4.521671,0.96013 1.067641,-3.13994 0.964671,-5.48241 -0.327359,-2.93719 -2.801819,-6.11074 0.437665,-5.00012 -2.804999,-2.2491 2.902523,-3.38021 2.588984,-0.69763 2.217616,1.70249 5.43936,7.09276 7.697088,3.41716 1.246236,0.15345 -2.447579,-2.73446 -0.501354,-4.09463 -0.692494,3.06958 -2.628466,-1.86133 -0.215866,-1.02328 1.271893,-3.11676 -2.217248,-0.39571 -0.04329,-3.30469 -1.15588,1.25975 -1.452089,-2.07064 -3.17031,-0.81437 -1.799766,-3.28703 -0.608777,-3.7505 0.633672,-1.36351 1.146587,-1.60455 0.567805,-1.29677 0.604576,-2.29353 1.966796,1.07968 2.910166,-0.36854 0.555291,-1.71446 -0.415994,0.49073 -1.94977,-1.94876 -1.230672,0.43647 -2.960483,1.47816 -2.096534,-3.73122 0.01393,-1.78198 -0.908061,-1.33222 0.0704,-3.24246 0.862461,-0.94519 1.119083,1.79631 0.129349,-2.4596 -1.325576,-2.1989 0.36358,-1.31936 1.364342,-2.70084 -1.045024,-3.61914 -1.11907,-2.11765 2.2661,0.11459 1.783259,-1.93923 1.786643,-0.006 1.685882,2.99191 3.440117,2.62324 -0.637007,-4.31115 1.043588,-0.32431 1.075847,-1.22188 2.507707,1.31178 1.625157,1.03433 1.128738,-1.52588 1.743399,2.0818 4.842759,-1.11187 1.091609,-1.75189 -2.33907,-2.55767 -1.684405,-4.9306 -0.23403,-1.02681 2.686,-0.70948 -1.742371,-1.31112 1.29238,-2.24842 -2.192302,0.64667 -2.781625,-1.84069 0.34391,-0.53071 0.6195,2.66224 3.18128,4.51312 0.74229,0.27201 -1.76372,-2.79515 1.5838,-3.46511 -1.73399,-4.2712 -1.85454,-1.52915 -2.893369,1.90347 -0.55054,0.11879 -0.30475,2.69776 -0.52084,1.98089 -0.27541,0.56271 -1.953099,2.22648 -2.568295,2.57932 -3.172377,-0.0542 2.494821,0.53105 -0.316374,-1.41207 2.618038,-1.7617 2.858779,-3.10995 -3.059628,-1.57956 -1.900107,-2.70966 0.856596,0.72451 -1.892678,-1.5516 -1.744948,-2.23433 -2.297149,-0.40923 -1.157913,-3.37666 -0.382725,-1.53868 -1.085516,-2.96539 -2.906869,-5.22864 0.260674,-1.46518 0.248219,3.10301 4.324415,-0.60836 1.405392,2.15896 -0.330224,4.06718 -0.0749,0.25486 1.741302,-0.32241 -1.948774,1.52584 0.705259,4.61583 0.267219,1.86817 -0.330919,-2.56511 2.295752,1.74927 2.237502,-0.76721 -1.02878,-0.57666 -2.860255,-3.56389 -3.294903,-2.66767 -1.420956,-3.94783 2.013103,1.018 1.655263,-0.28641 1.79285,0.6668 -0.846454,-3.05095 1.11861,-4.23267 -1.995425,1.28959 -0.86642,4.35975 -2.474311,1.59507 -0.494105,2.37826 -2.876566,2.02784 -2.593837,-0.89646 1.328165,0.93044 2.924089,-2.74547 2.91888,0.33732 3.625738,-1.16725 -3.018892,-2.16292 -0.425317,-4.65404 -0.100375,4.36378 5.091505,0.34631 1.772165,0.96216 -0.653937,1.39539 0.21606,-3.89504 -2.626054,-3.83087 -0.56479,-1.29029 0.41129,-0.52851 2.037545,-1.80433 1.827929,-0.91598 2.360029,-4.62123 3.527589,-3.3769 0.81999,-0.44332 1.08617,0.22989 1.43857,-0.35338 2.09109,1.13754 -0.71691,1.26822 0.44459,2.63022 -3.82268,1.24714 -1.90782,4.46703 -0.33063,2.26409 1.06531,-1.34911 2.50362,1.91032 2.50418,-1.19425 -0.68237,-2.26513 0.30884,-6.08783 1.90976,-3.24268 -0.77896,1.78981 -0.28247,5.22618 0.16546,1.79216 0.91784,1.56973 1.36981,1.09 1.98047,2.27739 -0.39074,-2.27087 1.23051,-2.75153 1.85888,-2.21959 -1.10407,-2.02735 3.60471,3.2117 0.83473,3.7625 -0.98629,1.38704 -2.54379,4.92099 -0.75434,4.78537 0.21181,-2.63094 1.94624,-7.21656 4.57925,-6.4003 2.39227,-3.42651 1.20772,-0.69491 1.05587,0.78553 -1.1486,0.88177 -0.5495,2.84494 -0.39669,4.42808 0.0814,1.94926 0.51946,4.08371 1.30175,2.10562 1.66728,-3.32232 2.10992,5.39187 2.34995,2.0233 0.82434,-0.18766 -0.7832,-2.21438 1.57496,0.2145 -2.70962,-0.40846 -3.15261,4.3949 -0.90577,2.31755 -1.24141,3.78614 -3.25089,-3.11071 -4.64799,0.88093 -1.36543,0.921 -0.66066,-2.4414 -1.35325,0.76556 -2.32224,0.83544 3.46862,2.80553 5.98937,1.39191 0.93068,-1.16817 2.16281,-0.36109 2.71417,0.8764 0.42488,0.24125 0.69051,2.35277 0.96499,-0.2429 0.36387,-1.85299 0.42848,1.21921 1.39293,1.81111 0.17968,2.28632 0.50671,5.8788 1.4667,6.93057 -2.82437,0.77475 1.85118,5.6671 -0.84372,3.55419 -1.16296,4.22404 4.54321,-0.18714 2.04573,3.82974 -2.1408,-0.56009 -2.42936,1.56662 0.0355,0.69813 -2.22259,3.57452 0.83299,1.42183 1.03009,-1.79631 2.21248,-2.12317 0.37449,3.16162 3.89872,3.45775 1.27494,2.2147 -0.0178,5.20298 3.3218,5.88132 0.1738,2.92434 -6.47912,6.30503 -1.50942,8.15844 -2.17296,3.39899 0.97347,1.86932 1.31812,2.81068 1.18619,2.84525 -1.5378,3.41735 0.92732,4.71639 -2.65484,-0.0708 0.83976,3.79636 -1.85003,3.42297 2.52378,2.36986 -2.4908,2.88627 -0.31764,5.46435 -0.22527,1.08788 -2.18513,2.96884 -0.55388,1.93962 0.67491,2.6454 -0.61288,3.54008 -1.06612,5.42669 -2.81907,2.0972 2.49828,4.2394 -0.72505,6.8441 -0.48154,3.72455 0.031,1.87764 -2.07424,3.28731 -1.39502,-2.69723 -1.53485,4.54344 -0.55523,3.88108 -1.07258,2.35237 1.02887,6.10858 -3.10118,7.93735 -2.30506,1.83099 -6.70043,1.10751 -7.87902,3.59091 -2.04466,-1.35669 -3.53076,4.41432 -5.96388,2.71189 -1.90581,4.1372 -1.55941,-0.23288 -1.65483,-2.2361 l -0.0123,-0.33081 z M 94.679169,197.94878 c -0.273144,-2.56712 -2.302771,0.56782 0,0 z m -5.68151,-18.82951 c -0.351556,-5.0584 -1.606628,0.66593 0,0 z m 46.804821,-0.91709 c -1.61069,-0.85636 0.6294,1.65859 0,0 z m -1.17123,-1.6626 c -0.60712,-1.72605 -1.55907,2.08043 0,0 z m -41.195493,-2.73597 c -0.188965,-2.32777 -1.443213,1.2005 0,0 z m 42.199053,-2.39073 c -2.94044,-1.0238 0.0496,1.46558 0,0 z m -47.570225,-6.52523 c -1.018762,-1.53601 -2.057874,2.26433 0,0 z m 8.494875,-6.60432 c -0.927017,-2.95867 -2.417019,0.72418 -1.017148,0.47147 -0.44897,1.08911 0.956732,-1.01715 1.017148,-0.47147 z m 4.14625,-5.43896 c -0.41579,-1.03545 1.41276,-2.19046 0.84023,-3.10115 -1.45205,-0.25451 -2.610947,4.79855 -0.84023,3.10115 z m -3.480099,-0.78841 c -0.751644,-1.50131 -2.846248,-1.55179 -0.61335,0.48601 l 0.537832,-0.0284 0.07552,-0.45767 z m 2.212129,-2.24663 c -3.855994,-1.58587 0.136997,2.32429 0,0 z m 4.91381,0.024 c -1.40088,-3.10412 -1.2931,0.52105 0,0 z m -3.81121,-1.25811 c 0.88906,-2.75733 -1.866373,-1.84739 0,0 z m -2.157005,-0.77532 c 2.175395,0.28547 -0.592231,-1.56301 -0.68711,0.81399 0.38499,-0.0627 0.668288,-0.43446 0.68711,-0.81399 z m -2.345121,-0.80454 c -0.771313,-3.00704 -0.09755,4.11049 0,0 z m -1.007373,-1.03754 c -1.911934,-1.43792 0.418518,3.89826 0,0 z m 8.644159,1.08072 c 0.65102,-0.0769 -3.20931,-1.57452 -0.87196,0.35877 z m -2.15323,-0.68405 c -1.738534,-2.40642 0.33695,2.30685 0,0 z m 2.30537,-1.76555 c -1.27263,-0.0216 0.0838,1.83373 3e-5,0 z m 0.71158,-1.8096 c 0.1132,-2.57648 -1.49998,0.66259 0,0 z m 23.4118,-0.28881 c -1.45497,-1.75577 -0.3463,0.72282 -1e-4,0 z m -6.38959,-0.73241 c 5.11952,-3.37654 -4.02457,-0.1259 0,0 z m -17.07013,-1.70899 c -2.35847,-2.01773 1.737,2.26997 0,0 z m -0.42941,-1.37799 c 0.68007,-4.255 -1.82099,1.05883 0,0 z m 8.73477,-0.97856 c 0.19961,-3.16347 -2.33535,-3.58073 -1.0235,-0.15779 0.55539,0.0321 1.58654,1.9351 1.0235,0.15779 z m -7.03102,-5.40456 c -1.94076,-1.77901 0.21069,1.64008 0,0 z m -5.21538,-2.48137 c -1.313947,-0.51981 0.41748,2.41761 0,0 z m 4.66654,0.36471 c -0.89154,-3.45949 -0.21267,2.21635 0,0 z m -2.95976,-0.39688 c 2.68899,-0.27666 0.85266,-2.99448 -0.51664,-0.10152 -0.33232,0.46558 0.68516,0.92864 0.51664,0.10152 z m 22.32055,-0.34634 c -0.79398,-0.78946 -1.89721,-0.0438 0,0 z m -20.22729,-2.00981 c 0.72965,-4.50384 -1.19521,2.70867 0,0 z m 10.90505,0.011 c -1.32095,-0.0311 -1.4583,-4.38813 -1.27121,-0.1387 0.29207,0.10195 2.25918,1.5095 1.27121,0.1387 z m -12.15594,-2.04458 c -0.39552,-1.54513 -1.79047,2.0345 0,0 z m -5.494392,-2.35717 c 1.585757,-3.24272 -2.585826,1.95707 0,0 z m 5.081152,-2.07981 c -1.29124,-1.67868 0.12902,2.5835 0,0 z m 12.95068,-2.79546 c -0.20187,-1.30864 -0.0972,-0.47649 0,0 z m -2.22137,-1.65663 c -0.3886,-1.0795 -1.16516,1.64674 0,0 z m -0.87644,-1.07487 c -0.83636,-2.19359 -4.63927,-1.12247 -2.24895,-0.39688 0.31409,-1.28863 0.84692,2.08471 2.24895,0.39688 z m -3.91922,-1.29985 c 1.2795,-1.07251 -2.09864,-1.43586 -0.87815,0.96231 0.29817,-0.19697 0.28293,-1.31956 0.87815,-0.96231 z m 5.11416,0.11189 c 0.31667,-0.55074 -0.1484,-2.94728 -1.45184,-1.5958 0.69804,0.18349 0.81938,1.87589 1.45184,1.5958 z m -23.786272,96.60704 c -0.562139,-2.77751 2.716013,0.0832 0,0 z m -2.867289,-3.62807 c -0.650027,-1.18174 1.557148,-1.83439 1.345377,0.47544 -0.498713,0.59425 -1.263095,0.22629 -1.345377,-0.47544 z m 45.416441,-8.64571 c -0.92413,-3.46122 1.9296,0.14278 0,0 z M 83.460974,182.25422 c 2.569969,-1.90906 0.376706,1.72492 0,0 z m 1.337915,-1.09742 c 1.72632,-1.33267 0.94628,1.68264 0,0 z m -0.545215,-6.42796 c -0.22035,-1.98352 1.905438,-0.91812 0,0 z M 94.8473,169.28111 c -1.475789,-2.42327 3.078334,-1.67465 -0.03477,-0.82779 0.203877,0.33146 1.221808,2.34994 0.03477,0.82779 z m -10.556807,-4.18476 c 1.758338,-1.42814 1.006806,0.79395 0,0 z m 3.906653,-1.7855 c 0.310756,-1.70828 3.244436,0.33378 0.246121,0.16788 z m 6.863322,-0.14114 c 3.288267,-1.34333 -0.936483,1.05359 0,0 z m -12.411581,-0.20143 c -0.0936,-2.59267 0.780479,1.40688 0,0 z m 4.374641,-0.34014 c 2.582607,-0.47611 -1.681973,-1.84275 2.012045,-0.63701 0.04121,0.25041 -2.594607,1.45428 -2.012045,0.63701 z m -0.982769,-1.78525 c -1.54508,-1.91404 4.013338,0.3475 0,8e-5 z m 2.552993,-6.18684 c -3.124284,-2.79101 1.345014,-0.98692 -3e-6,0 z m 3.546504,-4.17786 c 0.894348,-3.97755 0.6163,3.77433 4e-6,0 z m -2.422025,0.47083 c -1.585142,-1.59317 1.570644,0.009 0,0 z m -0.334049,-1.27848 c -1.23256,-1.16574 2.422186,0.83351 0,0 z m 10.278176,-6.40966 c -3.013826,-3.69459 3.768082,2.64432 0,0 z m -4.547568,-1.18169 c -0.06904,-2.35046 0.950621,1.53613 0,0 z m 1.439554,-0.36127 c -1.816633,-2.59447 2.86165,2.3624 0,0 z m -2.474306,-1.849 c -0.09001,-2.52758 1.334552,0.55492 0,0 z m 1.296546,-2.56013 c 0.0956,-3.40583 3.323304,1.29984 0,0 z m 5.523496,-0.39056 c 1.09324,-3.5051 0.23354,1.65267 0,0 z m -4.633411,-2.1545 c 1.846835,-1.99817 0.644722,1.01552 0,0 z m 1.124479,-1.01193 c -1.023712,-1.01906 2.852102,-0.31636 0,0 z m -3.733934,-1.14242 c -0.272378,-2.30616 1.270607,2.13694 0,0 z m 1.083525,-0.1888 c -0.333129,-2.81861 3.328573,0.27834 -0.0544,0.43598 l 0.05441,-0.43602 z m 8.300151,-24.4836 c 1.75039,-2.56146 0.11778,1.23323 0,0 z"
         id="path1740" /><path
         style="fill:#4f8749;stroke-width:0.264583"
         d="m 99.592661,214.90417 c 1.868339,-2.93517 0.470049,1.32438 0,0 z m 14.433889,-2.04028 c -1.24265,-5.77951 1.03723,-11.09399 3.56225,-16.15547 0.66375,-2.09688 5.87629,-8.78321 0.86584,-6.52313 -1.32771,0.66345 -4.71615,9.16253 -4.41768,5.16008 -0.19604,-12.87656 3.2087,-25.38728 5.2294,-37.99494 -1.23993,-4.00281 -2.81274,5.0712 -3.27949,6.70144 -0.62285,2.20473 -1.22605,7.62157 -2.28723,2.20074 -2.19488,-4.53119 -1.46579,-12.4181 -4.38743,-15.12006 0.17333,6.68533 2.01308,13.33293 3.00454,19.97379 0.60548,2.31364 1.14613,4.5992 -0.0263,6.8315 -1.1392,2.73656 -1.87475,11.14665 -3.51959,3.84882 -2.16326,-6.62377 -5.32011,-12.88574 -7.41306,-19.52114 -0.0915,-1.87488 -3.316893,-6.2269 -0.3876,-5.14589 0.37811,-1.12008 1.40468,1.01274 1.82615,-0.79881 -1.35038,2.04269 -1.30767,2.12046 1.94716,1.51098 1.04094,-2.0887 -0.66187,-3.03698 -2.06069,-2.48588 -1.17918,-2.8321 3.3542,-5.24806 3.03927,-8.26615 -0.9621,-2.86138 1.59394,-4.48073 3.71254,-2.48617 -1.07754,-2.58948 2.19358,0.2003 0.98453,-3.33563 -0.46039,-3.35893 2.63419,0.74127 0.98406,0.51079 2.33955,-0.95446 2.9824,2.70059 4.09089,1.54327 -0.11656,2.66478 3.50366,0.17058 1.50828,0.32982 -2.18583,-0.86776 -0.73867,-3.55592 -0.36219,-4.14445 1.07956,-1.80695 0.96491,-0.70259 1.49692,0.88988 1.77218,-0.72591 1.80012,-2.758 0.0263,-2.94612 -1.41222,-1.72601 -2.66614,-3.55931 -2.70911,-0.85822 -1.49155,0.10626 1.41524,-4.00816 -1.26159,-2.07854 2.01613,-2.40418 -3.4471,-2.04867 -2.06719,-4.2355 -1.13431,3.12641 -0.83805,-1.73016 -2.68592,0.0188 2.06167,-2.44837 -1.24156,-6.00049 0.27426,-1.31936 -1.48899,-0.64013 -1.51761,-5.02796 -3.8323,-6.31158 0.70648,-3.78069 4.08164,3.4396 1.90125,-1.15268 1.34672,0.30637 1.71655,-3.93671 1.6697,-0.0881 0.81019,1.47811 3.58973,1.31284 3.75974,4.00724 -1.1578,0.41823 1.4045,5.04414 2.82287,3.04819 -1.36402,2.63858 3.31901,-0.30524 1.52305,1.22351 -2.16729,0.16506 1.8617,2.54139 0.82603,0.14514 1.9685,-0.98983 0.79604,4.66129 3.81213,3.02528 2.11696,-0.56931 2.90708,1.86491 4.6126,2.13431 -1.08006,1.59578 0.89501,3.29288 -2.58155,1.81179 0.17311,4.20228 0.012,-0.34461 -1.06828,0.43719 -1.58451,1.75105 -1.87387,0.92118 -2.98716,0.91405 -0.25344,3.18726 -2.32883,1.6275 -0.96668,4.18863 0.55251,1.26905 -0.12783,-3.01387 2.13526,-0.0524 2.53952,-1.14834 1.72825,1.36478 2.44441,-1.16055 1.75259,1.92832 4.47695,3.38372 0.79297,5.23323 3.1292,0.91628 6.28073,3.09413 8.50449,0.13269 0.7026,2.43475 0.19375,6.11525 3.14247,5.72374 -2.15526,0.46652 -2.50168,3.59814 -1.30971,2.47181 -0.70249,-0.14044 5.93216,-0.2421 2.58224,1.73114 -2.37979,0.91557 -2.0496,-1.79627 -1.86358,1.78987 -1.42343,2.65689 -0.0416,3.75025 -0.0615,5.64106 4.27304,0.0316 2.18849,2.45552 2.40035,4.65692 0.43799,4.31242 -3.49057,1.18542 -5.87331,3.44886 0.93532,0.96796 1.97457,-0.68976 2.27473,0.8262 5.87078,-0.57506 0.55042,3.89034 -1.59918,3.60674 -0.55216,2.15695 3.7818,1.11502 2.70401,4.0093 -0.70969,1.10475 -2.22103,1.49817 -0.46109,1.66732 1.24551,0.6375 1.61187,5.1855 -0.40386,1.48479 -0.15425,1.95155 0.82273,4.82897 -0.41807,6.65329 3.74823,-3.15363 0.0496,4.1207 -1.94494,3.96335 -0.91023,1.75441 -0.97191,1.9248 -1.41893,4.10481 1.92643,3.47266 0.25422,3.49592 -1.6425,5.39366 1.7994,2.5456 -0.82292,1.83785 0.16214,3.69963 -3.1774,1.34542 -6.76889,0.91159 -9.53611,3.18332 -3.59978,0.92233 -2.6456,3.41212 -5.4591,2.83613 0.71079,1.19938 -0.94064,3.35776 -0.32992,-0.53231 z m 23.39306,-44.71828 c 0.95718,-2.38815 -4.2245,-3.69041 -0.67903,-0.61281 0.23493,0.17785 0.40211,2.25446 0.67903,0.61281 z m 0.21774,-2.85082 c -1.11722,-1.33234 -0.27285,1.38084 0,0 z m -35.39866,-3.83646 c -0.62694,-1.80219 -0.6278,1.77298 0,0 z m -0.15119,-1.55919 c -1.88307,-2.56628 -0.26193,1.72348 10e-6,0 z m -1.86794,-2.56095 c -1.328296,-0.78798 0.97963,2.44471 0,0 z m 34.62667,-1.15499 c -0.38863,-1.0795 -1.16514,1.64675 0,0 z m -21.7231,-9.13451 c -0.66636,-2.3738 -1.15167,2.32486 -1e-5,-3e-5 z m 5.36854,-4.26238 c -0.92712,-3.03793 -1.81005,-1.21911 0,0 z m 4.50519,-5.85274 c 3.18156,-2.71689 -3.29769,1.35782 0,0 z m -3.15862,-0.44986 c 0.48106,-2.10516 -0.80695,1.13791 0,0 z m -0.74297,-1.48329 c -0.7427,-0.0407 -1.89533,-1.85653 -0.53102,0.91569 l 0.33725,-0.31743 0.19353,-0.59824 z m -1.56625,-1.98479 c 0.84624,-2.4976 -1.08171,1.51208 0,0 z m -1.12471,-0.74661 c -0.7418,-4.36278 -1.64918,3.30485 0,0 z m -5.18887,-7.28435 c -0.32975,-3.55163 -1.81522,2.96871 0,0 z m -1.12145,-0.27034 c -1.20079,-3.89 -1.06284,1.22308 2e-5,0 z m -1.5242,89.92525 c -0.8536,-0.85529 -4.48069,-0.30025 -1.73804,-2.52484 0.88279,-1.38523 -3.42794,0.95605 -1.91915,1.64453 -2.21416,0.92502 -3.39401,-2.83145 -4.03769,0.11449 -3.135256,-0.92972 -3.209301,-4.44991 -4.848682,-5.11626 -1.623704,1.92676 -0.816883,-2.10052 -2.980204,-0.54749 -2.226148,-2.74559 0.364993,-5.8493 -0.448426,-7.64919 0.798901,-1.86541 -3.644015,0.99966 -1.025609,-1.23336 -1.861084,-2.44541 -6.760771,-3.44694 -3.182451,-6.15558 -0.264985,-2.55198 -1.554774,-3.83016 0.09642,-4.60014 -2.522076,-1.18191 5.069325,-2.79534 1.982068,-3.63094 1.00124,-1.27355 0.157059,-3.5543 -0.548751,-1.25319 -1.824278,-2.30082 0.790468,-5.00867 -0.280715,-6.12546 -1.300259,1.75579 0.590469,-3.43608 2.791642,-1.8224 -1.854589,-0.66506 -4.427149,0.97398 -3.154167,-1.8379 -2.350728,1.44116 -1.598379,-2.28888 -0.57411,-0.2615 3.094386,-3.41329 -2.918221,-3.39249 -1.307053,-3.29505 -1.3695,-1.32997 2.644108,-4.55737 2.795574,-2.60816 0.760564,-4.5022 -0.167685,1.41053 1.949866,0.49733 -1.212218,2.43657 6.386879,3.36113 5.986839,-0.12565 1.65908,-1.98985 -2.2861,-3.63888 0.546408,-3.31253 2.245591,0.11737 3.529601,9.24405 5.199131,12.63344 1.71866,6.5181 5.27392,12.67098 5.5683,19.48346 -0.45936,1.10135 0.39722,8.23531 -1.14409,4.70306 -3.57492,-6.08394 -7.19292,-12.1467 -10.644502,-18.29713 -4.392377,2.12656 2.918092,8.64257 4.062392,12.38371 2.90534,5.9658 7.20723,11.8172 7.21681,18.68577 l -0.12244,0.51534 -0.23938,-0.26459 z M 97.156314,198.61675 c 1.55879,-0.85875 -4.181618,-5.33704 -3.927689,-0.28198 0.723853,1.63089 2.785314,0.98726 3.927689,0.28198 z m -6.788683,-2.67089 c 0.65191,-1.56464 -2.386553,2.01976 0,-4e-5 z m 3.120913,-9.30801 c -0.526461,-1.18706 -0.92217,1.51865 0,0 z m -1.190625,-6.31625 c -0.928313,-1.21094 -0.898927,2.54228 0,0 z m 3.800274,-2.85709 c -0.614461,-1.15248 -0.891402,-2.48091 -2.391396,-1.58275 1.615225,0.5418 -2.680932,1.36339 1.607256,1.61074 -0.05249,0.69754 0.433382,0.60786 0.78414,-0.028 z m -3.421714,-0.63071 c -1.204378,-1.38698 -2.031103,0.66031 0,0 z m 1.109209,-2.60932 c -0.715341,-2.19459 -0.437638,-2.97091 -1.181439,-2.68615 -0.657264,0.56937 0.298002,5.02809 1.181439,2.68615 z m 1.9639,38.18071 c -0.914657,-4.77704 4.114546,1.2916 0,0 z m 22.652642,-0.34209 c -0.19777,-1.61012 1.71999,-0.4481 0,0 z m -28.555526,-1.28584 c 0.652965,-2.6852 1.001408,0.85395 0,0 z m 0.354109,-4.03863 c -0.740375,-4.25252 3.169943,0.15819 0.273739,0.33999 z m -3.608571,-2.65466 c -1.749058,-2.6153 5.341308,-3.95829 1.377792,-0.43981 -1.701634,-1.92953 -0.498504,1.34812 -1.377792,0.43981 z m 44.142028,-1.10265 c 2.12668,-1.68756 0.23066,1.31529 0,0 z m -46.60989,-9.49076 c -0.714502,-1.49542 1.59813,-0.93944 0,0 z m 2.352705,-3.45723 c -3.583083,-0.5402 -1.650986,-4.70116 -0.116582,-1.9298 -1.990799,-0.007 1.818858,1.86255 0.116582,1.9298 z m -1.785937,-3.89473 c -1.222582,-1.4664 1.35856,-0.14058 4e-6,2e-5 z m 2.050521,-13.99704 c 0.710566,0.496 1.969201,-2.73237 2.141367,-0.15724 -0.552692,0.26319 -1.971566,1.1341 -2.141367,0.15724 z m 51.216191,-0.23787 c -1.27268,-1.89167 2.48896,1.43452 0,0 z m -49.893275,-7.53494 c 1.469485,-1.15293 0.945065,1.07379 0,0 z m 9.445464,-4.22235 c 0.927364,-2.13111 0.148193,1.63791 0,0 z m 38.103671,-6.36403 c 1.68224,-1.28243 0.92401,1.25709 0,0 z M 115.18438,141.35 c -4.37151,-4.24817 1.70344,-0.29633 0,0 z m -5.42396,-0.54186 c -2.72553,-1.62322 1.32307,-0.75435 0,-4e-5 z m 13.49089,-0.91679 c -0.42139,-1.96967 1.72355,0.6639 0,0 z m -12.1363,-0.68087 c -0.78383,-3.06478 1.7133,2.2578 0,0 z m 10.1194,0.18918 c 0.70664,-1.3437 1.87288,1.22221 0,0 z m -12.64572,-0.84668 c -1.40374,-1.88495 2.00626,1.10271 0,0 z m 0.0252,-1.08353 c -1.10895,-2.84978 2.09077,0.80636 0,0 z m 2.12821,-0.35278 c 0.19306,-1.82373 0.93479,1.77761 0,0 z m 3.05322,-1.76273 c -1.9304,-2.76698 1.22823,-0.39839 0,0 z m -5.35781,-0.29784 c 2.06265,-2.80751 -4.67681,-1.89533 -1.59665,-5.01386 3.26891,-1.53613 -0.9017,0.97598 1.59662,1.2619 0.18709,-0.23844 2.60201,4.1275 3e-5,3.75196 z m 2.31511,-1.92937 c -0.68476,-1.14479 3.16196,-1.21845 0.52651,0.26275 l -0.52651,-0.26273 z m 11.50687,-1.03355 c -1.23146,-2.60471 2.82719,1.33595 4e-5,0 z m -20.78934,-0.17998 c -0.21798,-1.76725 2.64248,0.17381 0,0 z m 19.1382,-0.60175 c 0.58212,-1.10538 1.31221,1.05852 0,0 z m -0.60159,-0.72518 c -0.71516,-2.17107 3.65794,0.66997 0,0 z m 0.98805,-1.42394 c 0.7537,-1.00824 1.55393,0.9774 0,0 z m -15.7323,-0.21535 c 0.96998,-2.16785 -1.00322,-3.95494 -1.20128,-5.55551 -0.89038,-1.52015 2.00426,-5.5123 1.43814,-1.07066 -1.91065,0.6954 0.16548,2.75008 0.54892,1.05171 1.79689,1.8113 0.008,3.82335 -0.69106,5.72186 l -0.0944,-0.14742 z m 10.21461,-1.50966 c -0.10491,-1.97248 1.0475,0.80431 0,0 z m -8.16409,-0.43214 c -1.87989,-3.50597 2.23754,1.87944 0,0 z m 12.81365,-2.47918 c -3.03884,0.53378 1.8408,-2.21655 0.50279,-3.78086 1.18435,0.33563 0.95987,5.31679 -0.50279,3.78086 z m -5.95659,-0.22228 c 0.65787,-2.81225 0.99513,1.55204 0,0 z m 2.53173,-1.13262 c -1.53367,-1.22497 2.18026,0.21953 0,0 z m 2.85879,-0.39246 c 0.97821,-2.91987 0.14209,1.97652 7.3e-4,0.05 l -7.4e-4,-0.05 z m -3.61064,-1.13979 c 0.88138,-2.85655 2.84636,-0.61464 1.64335,-0.83385 -0.62959,-0.22735 -2.4892,2.96226 -1.64335,0.83385 z m -1.54075,-0.57645 c 0.29419,-2.97577 1.12364,1.6402 0,0 z m -8.44938,-0.40794 c 1.37094,-0.79921 2.25024,-2.26471 1.83713,-3.48763 -3.67344,-0.44528 0.30742,-3.14014 0.58002,0.25482 1.1468,1.28442 -0.52816,4.12757 -2.41715,3.23281 z m 5.25859,-0.47994 c -1.05508,-4.27824 2.37922,0.53469 0,0 z m -8.27102,-0.16861 c 0.99145,-1.53767 1.84802,-0.7039 1.8745,-1.85333 3.60586,0.94243 -2.63614,2.59901 -1.8745,1.85333 z m 3.15846,-0.89744 c 1.25931,-1.54385 0.3931,0.94778 0,0 z m -1.19613,-1.74736 c -0.62387,-3.56371 1.33962,-0.68922 0,0 z m -2.29287,-0.81579 c 1.77283,-0.91344 1.23874,0.78938 0,0 z m -0.25889,-2.8575 c 0.96365,-1.71206 -0.16398,-4.30112 1.14708,-1.83514 -0.19488,0.50255 -0.58507,1.96173 -1.14708,1.83514 z"
         id="path1738" /><path
         style="fill:#45803e;stroke-width:0.264583"
         d="m 95.596757,211.96712 c 0.565533,-1.768 2.273776,-0.45217 0.213785,-0.17167 2.302927,0.17916 1.124859,1.47156 -0.213785,0.17167 z m 11.736723,-0.76537 c -1.73151,-0.76007 -2.7986,-2.21112 -4.6162,-2.37481 -1.17494,3.40792 -0.01,-0.9143 -1.76681,0.19029 -1.677239,-1.08057 1.02341,4.49312 -0.979645,0.21157 -1.982378,-0.79123 -1.155754,2.78811 -2.570308,0.17887 -0.212951,-3.65994 -3.925329,-0.12717 -3.893736,-3.38185 4.696049,-0.003 -1.018854,-3.78587 3.001124,-5.13676 -2.592039,-1.62276 3.599655,0.66549 1.7411,-3.13723 -1.963923,-0.96127 -2.587266,-6.8176 -0.06883,-5.61993 0.98501,-3.32558 3.818165,4.96192 4.955505,6.23924 1.75587,4.43592 5.40754,9.14147 5.06258,13.58856 l -0.86478,-0.75791 z m -2.86473,-3.19237 c -0.59266,-1.38118 -0.49267,1.70361 0,0 z m 9.92317,2.77488 c -0.35881,-2.52884 -0.68744,-6.93885 1.56535,-10.38923 0.21354,-3.31334 6.56798,-9.06819 3.67798,-10.83795 -2.56088,0.14337 -5.05971,8.30235 -5.64006,6.49635 0.21097,-7.96463 0.73476,-15.9192 2.55911,-23.70933 1.4851,-4.59251 0.59087,-8.05076 3.49843,-11.39943 0.85648,4.46007 1.06724,-2.54916 0.89538,0.94775 1.61715,-0.16572 1.37552,2.20667 1.44833,4.12373 0.96381,-1.08856 -0.0471,-2.19181 1.862,-2.37505 -2.44582,-2.45472 2.56138,0.30774 -0.54355,2.26008 -0.45213,1.93537 -3.57543,-0.17119 -0.46077,1.83292 -0.0488,4.18118 -4.79524,1.40127 -0.92877,1.39714 1.21025,-2.2575 -1.07083,-1.06527 -2.30877,-1.98028 2.14217,1.34049 -2.95157,2.35105 0.45941,1.97509 -3.39767,0.43827 -1.26866,3.99743 0.91949,3.30845 -0.79221,-3.46812 2.24455,0.4318 0.13593,0.9209 -1.94998,1.21546 -1.13014,1.14513 0.81802,0.55605 -0.1192,1.70676 -1.53038,4.81456 0.79475,4.01326 0.20313,-2.57249 5.35275,-0.88915 5.02061,-1.2887 0.30367,-1.93414 0.42415,-4.67103 1.47662,-3.14542 1.30994,-0.91756 8.11729,-0.12427 5.57863,1.40818 -3.30329,-0.39575 -7.84195,-0.0222 -4.76839,2.88145 -0.12244,4.01208 4.21805,4.29165 3.87028,8.40011 1.75046,4.46305 -5.65574,0.78852 -2.14288,0.80699 -2.2366,-1.97202 -2.21841,1.8955 0.14717,2.14846 -0.73586,0.96559 0.0951,4.66056 -2.19806,5.93486 -0.42668,1.29027 0.7225,3.53903 -1.45605,2.21184 1.16043,1.19317 0.46125,2.21698 0.60148,2.75435 1.64467,-1.5905 1.68992,1.82471 0.13303,0.50233 0.0937,2.8941 -4.0549,4.03941 -3.15317,0.77567 -2.42282,0.74192 -1.44624,3.98673 -2.35415,4.70412 -2.17179,-3.24114 -0.54543,0.73286 -2.60277,0.88599 2.69961,3.7765 -2.99702,-1.92679 -3.11502,0.45522 2.7965,2.62887 -0.0715,3.40955 -1.58868,0.28137 -4.22581,-0.15113 0.51117,0.51514 -1.78729,0.931 1.77843,-0.20706 -0.14037,2.82465 -0.41362,2.21173 z m 10.96476,-12.5224 c -0.10505,-3.58453 -1.97368,1.68829 0,0 z m 0.49817,-6.89942 c 0.29379,-3.07294 -0.21637,-3.08925 0.0444,-6.32621 -1.63519,-0.43417 -2.74375,-4.60995 -3.9258,-1.95708 -0.5038,2.23666 1.69104,4.58035 -0.13948,7.37075 0.32192,0.14272 3.49886,2.67341 4.02084,0.91254 z m -2.75828,-6.78252 c -1.70502,-3.75957 1.94629,0.86242 0,0 z m 6.13259,2.92836 c 1.67154,-1.94803 0.23251,-3.88002 1.36378,-4.62901 -2.71493,-1.38679 -2.77184,2.80729 -1.18447,3.516 -0.35334,1.1811 -2.12329,2.98211 -0.17931,1.11301 z m -7.29791,-5.94161 c 0.77705,-2.91179 -2.17674,1.44593 0,0 z m 9.4636,0 c -3.17858,-2.02069 0.74957,1.76963 0,0 z m -11.76818,-0.26459 c -0.27136,-2.02245 -1.19916,1.90785 0,0 z m 1.77542,-1.37094 c -0.64147,-1.22019 -1.47384,2.08766 0,0 z m -0.81235,-1.34104 c -1.3892,-0.44698 -0.48459,2.32824 0,0 z m 0.0931,-4.96093 c 0.0399,-1.48022 -2.20841,1.15831 0,0 z m -0.57083,-10.11562 c 0.96244,-2.41742 -3.417,2.19274 0,0 z m -4.00164,47.2526 c 1.41987,-1.84244 1.77271,-0.29314 0,0 z m 0.15532,-1.15365 c 2.03264,-2.69902 0.53403,1.30588 0,0 z m -0.2612,-1.16405 c 2.08051,-2.1702 -5.8e-4,1.21999 0,0 z m -25.722746,-1.86599 c 0.222792,-2.92936 2.924121,1.30056 0,0 z m 35.501726,-1.89597 c 0.0728,-2.20119 2.13964,2.11996 -4e-5,4e-5 z m -38.124662,-1.36215 c -1.112705,-3.38205 2.491434,0.47438 0,0 z m 20.010812,-2.91312 c -2.62236,-5.03936 -6.65335,-9.65383 -8.178053,-15.05231 -0.261237,-0.47059 -1.535997,-4.03988 -1.417137,-3.66608 -1.940767,-2.61501 5.28872,-1.73242 2.2201,-3.88469 -1.362866,2.37878 -1.231168,-5.26219 -0.28185,-3.85046 -1.783755,-2.42407 0.32243,-7.24258 1.15349,-2.8128 -0.74927,3.04058 1.51631,3.87183 0.54074,0.64262 2.5954,4.10231 2.02555,9.3006 4.58495,13.05573 2.19473,5.21911 3.68741,10.77957 2.89061,16.4651 0.14384,3.30763 -0.63619,0.21138 -1.51285,-0.89711 z m -3.4655,-18.1831 c -0.77257,-2.06323 -0.64664,2.03241 0,0 z m -1.08535,-2.64583 c -1.30056,0.39414 -0.0123,1.99135 0,0 z m 0.007,-2.44739 c -1.28772,-0.98834 -1.93873,0.46237 0.359,0.72761 l 0.0111,-0.21374 -0.37015,-0.51387 z m -12.352539,20.8377 c -1.500499,-7.11462 6.9564,1.43711 0,0 z m 18.845819,-14.02468 c -2.29788,-7.22917 -5.81209,-14.07872 -7.985,-21.33062 1.28123,-2.01796 5.75053,2.13524 4.68678,-0.15355 -2.38771,-0.19287 -2.81624,-1.33411 0.17077,-1.97965 -0.71203,1.89298 2.80656,2.43061 1.22858,-0.77676 1.24127,1.42762 -3.85706,-2.92881 -0.48744,-3.72793 -1.6193,-2.58008 3.2769,-1.59916 2.27921,1.26824 -1.12986,-2.94906 1.7453,5.08279 1.06641,6.75342 1.10504,2.25217 1.50782,5.93623 -0.1844,4.24978 2.67073,3.65197 -1.82794,-1.17368 0.85425,-0.40954 -3.84702,-1.18361 -1.15724,2.46179 0.73479,3.30796 2.17155,3.91761 -0.67315,9.27763 -1.74414,13.72479 -0.10679,0.85875 -1.17658,-2.2397 -0.61981,-0.92614 z m -0.0176,-19.68539 c -3.36155,-2.50597 0.41505,1.56062 0,0 z m 0.1589,-4.09472 c -1.63789,-2.80391 -0.44617,1.26774 0,0 z m -0.42564,-1.46714 c -1.19367,-1.69848 -0.65085,1.41584 0,0 z m 23.90741,21.50014 c -2.50769,-2.63953 4.52471,0.0629 0,0 z m -3.37344,-3.42463 c 1.37629,-0.93823 1.91453,0.79481 0,0 z m -6.70997,-0.15559 c -0.51931,-1.38985 1.5774,0.0538 0,0 z m 4.53697,-4.06453 c -1.01382,-3.88844 0.15745,-1.35909 1.39328,-0.92817 -0.62739,-1.82085 3.20833,-1.18169 0.56758,0.85636 -0.62759,-0.1359 -1.34636,0.46946 -1.96086,0.0718 z m 5.94331,-2.29422 c -3.49097,-2.63732 6.70631,-2.41394 0.8599,-0.0786 z m -12.32517,-1.30698 c -0.46315,-1.657 1.5552,0.49068 0,0 z m -6.81426,-0.48507 c -0.95165,-2.36269 -1.90276,-6.75354 0.94351,-2.24777 -0.39011,0.22141 -0.48805,3.4322 -0.94351,2.24777 z m -14.47588,-0.18521 c -0.988641,-3.05277 1.95395,0.93639 0,0 z m 30.04429,-2.10428 c 0.13844,-4.37918 1.4974,-1.94091 0,0 z m 1.91738,-0.10006 c 0.70986,-2.80495 1.25235,0.91635 0,0 z m -3.87307,-1.31461 c -1.92116,-5.34582 4.31493,-0.53889 -4.3e-4,0 z m 3.76012,-0.10463 c -0.80986,-0.84891 2.58782,0.17945 0,0 z m -19.26849,-2.28402 c -0.19223,-2.58616 0.81035,1.84754 0,0 z m 0.94003,0.0497 c -1.74406,-1.18018 -3.17943,-9.62624 -1.13566,-5.67579 1.222,-5.23299 0.10243,4.88554 3.36778,2.5948 -0.88625,0.75669 -0.81695,3.85447 -2.23212,3.08099 z m -0.41015,-4.12414 c 0.583,-0.43862 -2.75966,-0.005 3e-5,5e-5 z m 2.44739,2.62658 c 1.63848,-2.08976 -0.28959,2.04399 0,0 z m -12.17083,-0.38292 c 0.76686,-2.51577 2.7713,1.84902 0,0 z m 25.2863,-3.02659 c 1.103,-1.50792 1.4943,0.87723 0,0 z m -4.58266,-6.57012 c -0.54471,-2.00752 2.45336,-1.827 0.53481,-0.0139 l -0.53476,0.0139 z m -2.32628,-2.8326 c -3.69168,-5.35442 2.83529,1.01231 0,0 z"
         id="path1736" /></g></g></svg>
