<?xml version="1.0" encoding="UTF-8" standalone="no"?>
<!-- Created with Inkscape (http://www.inkscape.org/) -->

<svg
   width="78.511559mm"
   height="96.229958mm"
   viewBox="0 0 78.511559 96.229958"
   version="1.1"
   id="svg849"
   xml:space="preserve"
   inkscape:version="1.2.2 (732a01da63, 2022-12-09)"
   sodipodi:docname="arbustif-arrondi-natural_medium.svg"
   xmlns:inkscape="http://www.inkscape.org/namespaces/inkscape"
   xmlns:sodipodi="http://sodipodi.sourceforge.net/DTD/sodipodi-0.dtd"
   xmlns="http://www.w3.org/2000/svg"
   xmlns:svg="http://www.w3.org/2000/svg"><sodipodi:namedview
     id="namedview851"
     pagecolor="#ffffff"
     bordercolor="#666666"
     borderopacity="1.0"
     inkscape:showpageshadow="2"
     inkscape:pageopacity="0.0"
     inkscape:pagecheckerboard="0"
     inkscape:deskcolor="#d1d1d1"
     inkscape:document-units="mm"
     showgrid="false"
     inkscape:zoom="0.78395062"
     inkscape:cx="55.488189"
     inkscape:cy="158.17323"
     inkscape:window-width="2560"
     inkscape:window-height="1369"
     inkscape:window-x="-8"
     inkscape:window-y="-8"
     inkscape:window-maximized="1"
     inkscape:current-layer="layer1" /><defs
     id="defs846" /><g
     inkscape:label="Calque 1"
     inkscape:groupmode="layer"
     id="layer1"
     transform="translate(-63.63605,-106.77021)"><g
       id="g982"
       transform="translate(0.675,19.2375)"><path
         style="fill:#a3d1cd;stroke-width:0.264583"
         d="m 104.60258,183.17862 c -0.99744,-9.00332 -1.4072,-18.09931 -1.34369,-27.15882 0.24511,-2.38511 0.0948,-4.94128 0.58944,-7.24151 4.36378,-6.0092 9.39967,-11.52212 15.30173,-16.05776 3.46132,-3.14428 7.49239,-5.6753 10.68775,-9.09092 -2.58578,0.44329 -5.86712,4.53302 -8.26377,5.09262 1.16269,-4.16719 4.62452,-8.21723 5.53823,-11.90215 -2.73134,2.61085 -4.09116,6.55311 -6.2024,9.74055 -1.44512,1.93924 -1.80932,4.8262 -4.24348,5.84433 -1.9653,1.16673 -6.4533,5.08506 -4.13928,0.60368 1.90384,-5.13683 3.59787,-10.36612 5.39146,-15.53029 -2.75851,0.93773 -3.52766,7.5371 -5.32126,10.67133 -2.12844,5.92879 -4.28787,12.14669 -9.1799,16.42466 -0.29194,-2.74046 1.08553,-7.77112 1.2453,-11.4601 0.9635,-2.07689 -0.11765,-7.01246 -0.79704,-2.22933 -0.35668,1.66454 -0.82862,7.65009 -1.97608,2.82532 -1.976281,-2.81864 0.4286,3.14311 0.60281,4.50836 -0.74626,3.07957 -1.30625,6.50053 -2.659181,9.20098 -2.5988,-3.10882 -4.988799,-7.04595 -3.531942,-11.22594 0.410637,-4.07487 1.782536,-8.34974 1.507996,-12.29022 -1.540002,4.40846 -1.7955,9.27346 -3.219797,13.74488 -2.682633,-6.40578 -4.392302,-13.24723 -6.77174,-19.79246 -1.205536,0.68335 1.308484,6.58513 1.766627,9.23615 -3.398751,-2.65762 -6.174553,-6.45529 -9.071347,-9.75149 -0.0803,2.24514 4.517108,6.32334 6.329021,9.16757 3.376749,2.99651 4.544234,7.22837 5.056644,11.56774 -2.560945,-1.2043 -6.188264,-5.32576 -9.252434,-7.48859 -1.577845,-0.63869 -4.964586,-5.67527 -5.753479,-3.71403 5.436742,5.9798 12.289557,10.56492 17.337395,16.89353 2.108618,3.72297 4.945721,7.37042 5.615506,11.678 -0.03856,9.22015 -0.449249,18.47544 -1.476783,27.63654 -0.288242,-4.22865 0.511237,-9.02445 0.641158,-13.46607 0.09995,-4.50054 0.691248,-9.06742 0.198341,-13.53789 -2.434812,1.13164 -5.442385,0.55863 -8.104595,-1.03333 -1.411679,0.99869 -4.538995,-0.15313 -3.912432,-1.23571 -1.651896,-0.49624 -4.083875,-3.00801 -7.23103,-2.50372 -4.041814,0.29171 -3.820109,-5.09361 -6.616612,-4.60344 -3.647846,-1.84114 -4.786829,-6.16336 -6.485812,-8.31996 1.393255,0.40481 -2.181109,-2.29849 0.02331,-1.9988 1.366148,-1.92614 -3.596402,-3.0171 0.28609,-4.76794 1.123445,-2.22445 -3.031032,-2.02532 -1.168423,-4.01686 -2.111,-2.52501 -2.385991,-6.24811 -1.199633,-8.85174 -0.321535,-1.48908 -1.828821,-0.85693 0.494474,-2.04935 1.550687,-2.09521 -0.445742,-3.80621 1.752382,-5.43034 0.227792,-2.19013 0.650247,1.37359 1.394192,-1.01695 0.984058,2.71666 0.736087,-3.18872 -0.165791,-3.7198 2.679938,-1.78767 1.069914,2.24114 1.698754,3.04408 1.422539,-0.37361 -0.382413,-2.84009 0.433321,-3.55297 -2.090026,-0.30806 0.204875,-4.6936 0.861474,-4.08152 0.169063,-2.584112 4.933414,-3.019341 7.48577,-3.80968 0.432314,-2.569537 0.391911,0.922435 2.466157,-0.134225 1.621361,0.438349 6.124215,1.208777 4.001919,0.173224 2.579514,-0.293737 -0.628661,-3.034897 1.932213,-3.407994 -2.076995,-2.142214 2.723228,-3.394888 0.108706,-3.853919 1.128969,-0.426789 2.105567,-1.587768 2.528502,-2.244185 2.419369,-0.02919 4.952863,-1.978572 6.352426,-0.638108 -1.143133,0.816528 4.659053,0.785669 2.540871,0.395964 2.897482,-2.371155 6.121012,0.963166 9.276642,-0.807178 2.88711,0.03613 6.99006,0.377278 8.78599,1.66079 1.19937,-1.497394 2.34609,2.151884 3.4438,0.940927 -1.41753,-0.46548 3.30202,-0.70324 3.66991,0.977861 2.45464,1.037894 2.95376,3.496488 5.16289,3.139611 1.78783,-0.461233 1.71141,4.644333 1.93162,0.444559 1.11958,-0.740342 2.67748,3.247285 3.81836,3.984543 -2.46599,-1.221454 1.04733,2.53819 -0.0635,3.35765 0.80531,1.23299 0.8888,2.05746 -0.45186,1.85066 0.0786,1.50506 -0.38707,2.25852 0.45105,2.50166 -2.25067,0.92214 -2.10548,3.42147 0.001,1.46675 0.93715,0.64404 -0.2026,2.00183 1.75857,3.3433 -0.33204,2.23816 0.42135,4.1924 -0.53498,4.70801 -0.62335,2.42818 2.80873,2.19343 1.74191,4.42973 2.51064,2.10372 1.37988,3.49697 3.52814,5.77606 0.11297,2.00211 0.99787,5.24475 -1.22332,6.63444 2.41008,0.59091 -1.62253,3.56355 -0.17188,5.49084 -2.00745,0.15179 -0.6292,1.17487 -1.97526,2.78434 -0.28647,0.26639 -2.38154,-0.71609 -1.99452,-0.21255 1.69728,2.44203 -1.93168,-0.59892 -1.36111,1.79033 -2.51315,-0.29564 -2.96856,4.42638 -4.53913,2.78496 1.35049,1.35671 0.36359,3.29961 -0.81475,1.54683 -0.096,1.48597 -3.31887,2.34835 -3.45306,1.61878 0.16599,-0.66856 -1.1356,-0.60073 -0.70183,0.89967 -2.01578,-0.70584 -1.73171,3.03367 -4.68812,2.08803 -0.0537,1.27819 -5.88062,3.26594 -8.15564,2.06376 -0.0527,2.67792 -7.65768,-0.17836 -8.45084,3.01437 -0.10805,9.02894 0.71768,18.0885 1.11243,27.06392 l -0.18485,-0.58407 z m 23.21021,-35.68111 c -1.57626,-2.23535 -0.30481,2.31575 0,0 z m -2.0193,-0.94396 c 2.94617,-2.19367 -1.55781,-0.50278 -0.17964,0.26544 z m 3.36901,-0.53607 c -0.22978,-1.15662 -1.02839,1.34465 0,0 z m -2.91105,-1.05669 c -0.24494,-1.26561 -1.25138,1.80266 0,0 z m 2.79353,0.27679 c 0.45369,-1.58914 -1.18756,-2.76977 -1.13359,-0.86929 -0.95122,-0.48029 1.53673,0.94805 0.40766,1.04871 l 0.39943,-0.19663 0.32641,0.0173 z m -3.51649,-1.37719 c -0.41188,-2.00417 -0.6943,2.43492 0,0 z m 4.2102,-0.48554 c -2.0161,-1.05728 1.29395,1.56253 0,0 z m 1.25249,-0.39367 c -1.09655,-1.71121 -1.18186,1.55467 0,0 z m 3.09423,-1.56249 c -0.92181,-1.42124 -1.92425,-0.30286 -0.0725,0.21208 z M 69.130206,119.97813 c 1.042273,-2.06802 -1.881524,0.94216 0,0 z m 68.390744,-1.15688 c -1.24032,-0.008 -0.32503,1.71272 0,0 z m -2.94801,-3.83383 c -1.66102,0.11069 0.15197,1.91737 0,0 z m -65.837191,-3.34075 c -1.864873,-0.99973 0.607145,1.34671 0,0 z m 46.832861,-6.96894 c -1.74308,0.48305 -0.83455,1.23358 0,0 z m 1.58347,0.52783 c -0.59726,-1.41849 -0.90421,0.8643 0,0 z M 88.202744,97.969596 c 0.18678,-2.872073 -2.754262,-0.338686 0.284032,0.557778 L 88.20274,97.969591 Z M 132.5192,97.859768 c 2.15491,0.404589 -0.91825,-1.197072 -0.55556,0.407048 l 0.55556,-0.40704 z m -11.33514,-3.141342 c -0.61585,-1.670624 -1.39062,2.096338 0,4e-6 z m -14.43673,-1.372824 c -1.95815,-1.12638 -1.27609,1.168311 0,0 z m 13.05058,-1.440016 c -0.77458,-1.10428 -2.1619,0.677299 -0.23059,0.124934 z m 2.60987,-1.515907 c -1.62725,0.373392 -0.47002,1.736634 0,0 z m -3.93278,0.115714 c -0.97811,-2.532879 -0.68461,2.11246 0,0 z M 62.984207,121.57942 c 0.693215,-1.50016 0.533614,1.48978 0,0 z m 75.486173,-1.58813 c -1.21314,-0.98454 2.40195,0.28448 0,0 z m -75.388686,-1.25508 c -0.672179,-1.42455 1.764529,0.005 0,0 z M 75.397672,95.647175 c -2.213717,-2.650004 2.946513,-0.0045 0.828067,0.743007 l -0.388155,-0.246547 z m 2.937322,-0.539881 c -2.05896,-2.75786 0.986716,-1.467662 0.493882,0.525115 l -0.291719,-0.152592 -0.202159,-0.372523 z m 3.631556,-0.223207 c 0.351775,-1.867922 1.759083,0.600291 0,0 z m 6.224955,-5.314761 c 0.05901,-1.338223 1.267721,0.94568 0,0 z"
         id="path996" /><path
         style="fill:#84c1bd;stroke-width:0.264583"
         d="m 104.621,183.03505 c -0.95924,-8.57405 -1.17414,-17.23612 -1.32837,-25.85898 0.22109,-2.76906 0.0729,-5.73591 0.60647,-8.4218 4.16113,-5.53227 8.60475,-10.9058 14.18309,-15.0836 3.78153,-3.37181 7.99206,-6.25193 11.65258,-9.75254 -1.94031,-0.68782 -6.1915,4.58292 -8.1679,4.74241 1.4243,-3.27792 4.0895,-9.37928 5.92239,-10.30885 0.50388,-1.59268 -1.68876,-3.39901 -1.15691,-1.62628 0.77594,-0.12326 -3.01609,5.25405 -3.8531,7.05599 -2.237,3.38733 -3.44883,7.78317 -7.40604,9.63336 -1.48524,0.93462 -4.36764,3.45374 -2.65158,0.12495 1.94069,-5.29743 3.7416,-10.71015 5.56288,-16.00733 -2.57182,-2.24892 -2.06914,4.49009 -3.7006,6.14991 -3.10098,7.2279 -4.72722,15.6514 -11.10748,20.88404 0.76905,-5.29116 1.75155,-10.61118 1.79666,-15.97124 -2.06779,0.51327 -1.24555,10.86025 -3.24736,4.53832 -2.192782,-1.30812 1.61258,4.82356 0.39505,6.40433 -0.73988,2.09321 -1.19853,7.47375 -2.495227,7.85675 -1.682297,-2.88972 -4.338645,-5.76945 -3.486522,-9.36579 0.492407,-4.71148 1.503189,-9.34992 2.079066,-14.04836 -2.184314,2.10382 -1.653169,6.68903 -2.790919,9.74201 -0.40619,2.1141 -0.90201,5.68267 -1.728065,1.63159 -2.168025,-5.95663 -3.769395,-12.13587 -6.075634,-18.02401 -1.262626,1.93692 2.125775,7.37042 1.382208,9.25051 -3.265599,-2.38448 -6.143395,-7.90749 -8.998402,-8.93622 3.074863,4.61813 6.992755,8.66386 10.109756,13.21911 0.284414,1.85761 2.655077,7.40729 1.117439,6.99142 -4.651761,-4.03024 -9.374965,-8.11514 -14.128968,-11.94195 0.269318,3.23517 5.174138,5.5295 7.348591,8.28508 4.268017,4.00663 9.268525,7.51813 11.793945,12.98909 0.838052,2.66208 5.830622,7.48549 1.61519,8.87216 -0.485527,1.08629 -0.642654,-3.02586 -1.78399,-1.01386 1.341373,0.0464 -0.21964,1.5542 -0.538502,0.24446 0.893497,-2.03302 -2.757384,0.47298 -2.593954,0.26061 -0.867252,-3.21396 -5.930763,-1.1367 -7.944638,-3.69835 -3.380674,-1.49305 -8.071467,-0.0609 -9.764759,-4.13909 -0.977366,-2.15968 -2.571094,-0.81765 -3.919333,-3.12846 -2.86268,-1.91518 -3.226494,-5.65167 -4.334725,-8.65815 2.23975,2.01541 -0.78283,-1.88199 -0.835872,-2.93936 1.555803,-3.22577 4.836142,2.0905 3.389849,-1.77009 1.105055,1.14319 2.575578,3.57998 0.998853,0.69591 -1.239345,-3.07447 -4.74149,-1.39799 -4.942178,-5.0784 -0.659324,-1.51003 -1.945391,-5.82001 -0.561667,-5.42679 1.028634,0.61855 7.175236,-0.39576 7.320235,-2.83558 -1.309952,-3.71548 -0.09924,-7.59449 -0.629807,-11.22386 -0.755599,-1.25169 -1.065099,-2.30543 -1.335469,-4.51711 2.372886,0.9642 3.754256,-5.679013 7.169575,-3.298128 1.45652,-1.690342 3.277781,-0.110507 5.058196,-0.906789 2.667097,1.088908 3.857274,1.959337 6.88512,0.332015 2.00102,-0.459814 2.245559,-0.0631 2.266038,-1.110951 2.597596,1.128338 -0.205717,-3.424347 0.785391,-4.720821 -2.569579,1.14295 -2.466941,-3.163997 -0.629291,-0.987381 -0.376488,-1.868051 -0.271578,-1.046554 -0.269439,-2.472646 2.067894,0.533819 2.372922,0.290818 2.89948,-0.791876 -1.038808,-0.930172 2.541719,-0.07372 4.569247,-0.0455 1.306752,-0.927637 2.332012,-1.601872 4.272462,-0.724442 1.18852,2.206282 2.41266,-0.285527 4.16164,0.542698 0.36708,-2.659997 0.9588,2.330461 1.77856,-0.532064 -1.44959,-1.584976 3.76384,0.656162 2.80389,0.443733 1.98923,-0.961942 4.20397,2.42608 5.18186,1.689538 -0.48063,1.890043 2.36957,1.399835 1.41746,3.796328 -0.3772,3.080575 1.60489,2.851085 2.99534,1.59583 0.35004,-1.644861 -0.72715,-1.707503 -2.35381,-1.475466 0.35234,-1.586708 -0.33483,-4.564372 1.74209,-3.588061 0.7265,1.835106 3.54308,-0.344074 1.1943,2.238283 0.2574,1.563076 -2.41818,-1.442371 -0.36606,1.227571 1.156,1.454059 0.86424,-3.831669 2.90547,-0.609606 4.44547,0.404654 -0.982,6.121278 2.11404,5.65801 -0.28629,-0.971521 0.13808,-3.697472 0.56875,-1.374536 -0.89818,-2.186769 2.29174,-4.318225 2.75244,-1.093811 1.93736,-1.537029 1.73754,3.764912 -0.12786,1.530474 1.38942,2.124148 3.02475,-1.583701 2.88457,1.558887 2.43056,0.838951 -0.37123,5.925001 -0.15481,6.350861 -0.53837,0.78172 -1.57137,-0.47311 -1.96303,1.76373 -2.37351,-0.38318 1.43167,2.68382 -1.83352,2.68228 3.15967,-0.84231 1.22996,2.8147 4.08243,1.61904 2.02595,-0.43097 2.04458,2.44935 2.10661,3.08745 -0.15205,-1.71404 -6.56912,1.295 -2.17952,0.47026 2.2671,-0.88738 3.51655,1.62413 1.17025,1.76764 -0.0976,-0.73467 2.03225,-1.12975 -0.46725,-0.88611 -1.46974,1.46074 0.75256,5.09788 1.24578,4.08312 -1.34412,-2.8102 6.25868,1.58996 2.48779,3.1409 1.48252,1.35988 3.08045,2.38562 2.21934,4.12008 0.30762,0.51143 1.01421,6.19558 -0.94224,3.26222 -2.63223,0.94935 -0.0898,3.12619 -1.95604,4.14821 1.46734,-0.2241 0.20416,0.98039 -1.14548,0.34161 1.79805,0.0156 -0.10225,2.31275 1.45113,1.65319 0.57134,-1.19418 -0.0293,2.6308 -1.73773,0.65496 1.28075,2.55792 -2.25599,-0.78062 -2.73387,1.52867 -0.46937,-2.56688 -0.357,3.42347 -3.10887,2.96475 -1.38637,0.40529 -6.39951,0.22543 -5.66079,1.2043 0.26133,1.01416 -0.84558,1.43276 -0.51926,3.24341 -1.47155,-1.41864 -0.23034,4.0771 -0.38753,3.8528 -1.3513,-2.2076 -2.95782,0.86992 -4.03453,1.89997 -1.96214,0.9552 -5.88686,1.21005 -7.45575,1.19322 -0.45576,2.84798 -7.12369,-0.83332 -7.95464,2.41772 0.0304,9.0603 0.6028,18.1825 1.21393,27.17455 l -0.16795,-0.41603 z M 79.052081,149.23936 c -1.088266,-1.09806 -1.508304,1.37253 0,0 z m 1.247844,-0.75806 c -1.832424,-0.44527 1.527251,2.09105 0,0 z m -8.231513,-11.6148 c -0.71079,-1.13851 -2.048044,0.93329 0,0 z m 59.635748,0.0774 c -1.25793,-2.06418 -1.07181,0.88782 0,0 z m 4.49792,-2.30341 c -0.76241,-1.12567 -0.9256,1.39278 0,0 z m -64.666247,-0.57987 c -0.29537,0.17776 -2.068671,-0.42609 -0.487497,0.40927 l 0.313484,-0.13802 0.174014,-0.27122 z m 58.345797,-14.28694 c -0.43279,-3.93995 -2.57151,2.52723 0,0 z m 3.41003,-1.48291 c -1.05268,-1.69839 -1.12463,0.60133 0,0 z m -0.20704,-1.98388 c -0.87383,0.32256 -3.81061,1.71662 -0.93049,1.56181 0.43658,-0.40825 0.95458,-0.90787 0.93049,-1.56181 z m -7.46756,-0.5631 c -0.0111,-2.25899 -0.30818,1.42811 0,0 z m -2.33913,-1.85104 c -1.1188,-2.06796 -1.27828,2.8941 0,0 z m 1.1489,0.53126 c 0.29235,-2.56295 -1.71994,1.48314 0,0 z m -5.81954,-0.79222 c -1.01408,-2.56619 -1.80478,2.97274 0,0 z m 7.01146,-0.004 c -0.97423,-1.06478 -1.01507,1.03502 0,0 z m 5.68997,-0.31126 c -2.83317,-3.44141 -0.63026,1.43881 0,0 z m 1.02029,-0.0856 c 1.08242,-2.35535 -1.5096,0.45878 0,0 z m -11.47276,-0.66146 c -0.69997,-1.00686 -1.66682,1.04611 0,0 z m 4.85876,-0.39535 c -1.06135,-0.95643 -0.33079,1.28855 0,0 z m -1.45343,-0.66298 c 1.16086,-1.42394 0.25166,-3.20231 -1.11379,-1.21367 1.81496,-0.93931 -0.96709,2.64358 1.11379,1.2137 z m 2.15092,0.17278 c -2.09259,-2.83648 -0.83018,0.003 0,0 z m -10.82965,-4.23348 c -1.82184,-3.38458 1.4086,-1.14498 1.60509,-2.1792 -1.83415,-2.31265 -3.98362,1.14027 -1.98777,2.89174 -1.54678,1.59278 1.51563,0.0395 0.38268,-0.71254 z m 1.25932,0.60039 c -0.10725,-1.65367 -1.08644,2.25176 0,0 z m 7.71824,0.54989 c -0.97427,-1.06478 -1.01502,1.03506 0,0 z m -4.97782,-1.59432 c -1.2554,-1.50622 0.51851,2.20583 0,0 z m 10.7547,0.0396 c 0.21327,-1.45362 -1.73828,0.82094 0,0 z m -11.63273,-1.42112 c -1.44774,-1.44681 0.79054,2.10533 0,0 z m 1.24345,-0.66641 c -1.4862,-0.32872 -0.53401,1.59759 0,0 z m -17.01813,-0.19419 c 0.0627,-3.65832 4.67719,0.54589 3.65339,-3.13683 -1.0124,-0.55999 -2.70212,-2.317395 -1.63928,0.29636 -1.97963,-1.80334 -0.16643,0.66947 -1.90443,0.30688 -2.69565,0.57371 1.35283,0.74957 -0.85573,1.49667 -0.21272,0.44681 0.12294,2.09386 0.74605,1.03692 z m 19.9619,-0.80711 c 1.27259,-2.40812 -4.24702,1.69395 -0.51179,0.2961 l 0.51179,-0.29614 z m -13.68125,0.21179 c -1.71357,-3.39811 -2.34769,-0.25812 0,0 z m -4.39818,-0.46302 c -0.45585,-1.41197 -1.28251,1.25099 0,0 z m 13.81943,-0.0316 c 3.46422,-0.96895 -3.56993,-1.74586 -0.55352,0.23482 l 0.62362,0.1629 -0.07,-0.39776 z m -8.7956,-0.77065 c -1.71643,-1.50775 -0.16688,1.98045 0,0 z m 10.43344,-1.57682 c -1.76888,0.35629 0.86037,2.65149 6e-5,0 z m 2.00021,1.51915 c -1.73273,-0.97652 -1.78037,0.88649 0,0 z m 7.05839,-0.46942 c 0.46563,-1.96463 -1.87512,1.32966 0,0 z m -26.23313,-0.98579 c 0.53615,-0.0786 -2.66846,-0.96102 -0.50582,0.59531 z m -13.02714,-0.91243 c -1.735879,0.032 -2.422087,2.38352 0,0 z m 16.99212,-0.522231 c -1.4578,-0.651561 -0.18565,1.297881 0,0 z m 10.18769,-0.218986 c -0.81244,-1.686803 -1.02727,1.332227 0,0 z m -14.0465,-0.414361 c -1.32353,-1.594759 0.2987,2.122928 0,0 z m 20.82999,0.454845 c -1.33924,-2.284212 -1.81052,-0.465083 0,0 z m -21.62288,-1.999084 c -1.02233,-1.037688 -1.62471,0.966183 0,0 z m 11.43642,-0.290359 c 0.076,-0.643613 -0.77429,-1.494531 1.09863,-2.032739 -2.2216,-1.198047 -2.73533,3.67938 -1.09863,2.032739 z m 7.1163,0.108415 c -0.17953,-2.791621 -1.61958,1.490302 0,0 z M 99.672188,97.223961 c 2.112752,-0.635449 -0.586616,-1.658636 -0.143622,-2.474562 -3.061294,0.228061 -2.973921,3.86421 0.143622,2.474562 z m 30.417942,-0.06615 c -1.12212,-2.036639 -0.22571,2.095721 0,0 z m -18.14378,-1.611804 c 3.37461,-2.362692 -1.70524,-0.698013 -1.02033,0.478999 0.36261,-0.092 0.59698,-0.608019 1.02033,-0.478999 z M 94.397915,95.371878 c -1.665022,-1.76713 -0.903577,1.451935 0,0 z m 22.566245,-0.529167 c -0.84028,-1.737986 -0.17753,1.758681 0,0 z m -12.13953,-0.396875 c -1.93613,-1.716389 0.78906,1.959469 0,0 z m 1.72601,-1.25726 c -1.58204,-1.715157 3.82206,-3.946799 -0.27913,-2.570663 -3.00828,1.76354 1.46868,4.510644 0.27913,2.570663 z m 11.47825,-0.173487 c -2.95505,-2.525303 -0.0149,1.485746 0,0 z m -22.116836,-0.54548 c -1.217298,-2.409732 -0.857913,2.016922 0,0 z m 6.987636,-0.313215 c 1.80815,-3.781455 -2.55427,2.315782 0,0 z m 0.75864,-2.126539 c -0.53239,-0.688518 -1.13051,1.113962 -0.12308,0.22967 z m 7.79786,-0.237387 c -1.13829,-1.339558 0.18238,2.189259 10e-6,0 z m -0.38953,-1.066018 c -1.5412,-1.699688 -1.91999,1.616509 0,0 z m -12.650836,91.70897 c 0.448932,-8.15349 0.88898,-16.35683 1.299382,-24.48659 0.319014,7.88326 -0.551039,15.83963 -1.081678,23.73027 0.0076,0.10674 -0.221041,2.21111 -0.217704,0.75632 z m -4.803246,-24.46451 c 0.550405,-2.40073 1.486754,0.88923 0,0 z m 27.798482,-4.87334 c -0.31495,-1.79156 1.72265,1.32273 0,0 z m 9.99096,-8.36528 c 0.86537,-3.64439 1.89511,0.17519 0,0 z m 5.2312,-3.57799 c 0.41193,-0.84511 1.29544,1.28181 0,0 z m 1.42094,-2.22722 c 0.57095,-2.18317 0.49482,1.75028 0,0 z m 0.79781,-12.2526 c 0.40602,-1.3077 0.57003,1.77775 0,0 z m -0.53322,-0.97657 c 0.48367,-1.37276 1.13528,1.0459 0,0 z m -68.107541,-7.70002 c -4.167069,-0.90753 3.710856,-0.33591 0,0 z m -1.483151,-1.58587 c -0.06888,-1.72307 2.761851,-1.69644 0.670768,0.36857 l -0.360713,-0.0366 z m 62.829572,-5.04028 c 0.13315,-1.92645 1.55726,0.92506 0,0 z M 71.008367,108.4962 c -2.125134,-2.9878 1.543534,0.13622 3e-6,0 z M 89.300199,98.092353 c -2.886066,-2.238147 2.572727,0.05544 0,0 z m -0.339107,-1.595996 c -1.384852,-2.114108 0.494052,-5.345436 0.742216,-1.724039 -0.939388,-0.60667 0.254058,3.222768 -0.742216,1.724039 z m 2.383235,-2.200417 c 1.16444,-2.941548 0.99637,1.121185 0,0 z m 32.686923,-2.473889 c 0.9539,-1.473751 0.75247,1.096554 0,0 z"
         id="path994" /><path
         style="fill:#6cb6b0;stroke-width:0.264583"
         d="m 104.34656,180.89844 c -0.27599,-3.37842 -0.82654,-10.56542 -0.52957,-11.85085 0.26964,4.54448 0.63307,9.09506 0.83266,13.63679 -0.20886,-0.57308 -0.22351,-1.18863 -0.30309,-1.78594 z m -5.893075,-0.99219 c 0.118835,-3.27998 0.118796,3.59142 0,0 z m 0.371734,-5.02708 c 0.0981,-1.78066 0.400109,-7.72971 0.483909,-6.99216 -0.05258,2.31344 -0.303564,8.1944 -0.550171,8.44932 l 0.02666,-0.61694 z m 4.627031,-12.06776 c 0.23192,-0.95451 -0.63506,-8.3877 -0.0442,-5.19087 0.35635,3.00597 0.13126,6.03857 0.10275,9.05655 -0.0195,-1.28856 -0.039,-2.57712 -0.0585,-3.86568 z M 99.453713,162.554 c -0.08863,-1.94114 0.415087,-7.63338 0.307842,-2.62203 0.01744,2.00669 -0.295708,8.43649 -0.311647,3.27971 l 0.0038,-0.65768 z m -1.343218,-7.02942 c -1.220753,-2.44636 -5.523452,0.0833 -4.660238,-2.04835 -1.570889,0.0713 -6.31434,0.7986 -7.392345,-1.75442 -2.173215,-0.0319 -3.405009,-1.44549 -6.136189,-0.68511 0.397874,-0.92369 2.379089,-3.79154 -0.775548,-2.92127 2.42158,1.79073 -0.31573,2.91834 -2.196795,1.88711 -2.560556,-3.2135 5.3947,-1.71476 1.13593,-3.42343 -0.555722,-0.80744 -1.850883,0.54487 -1.224312,1.20214 -2.329166,0.94681 -1.891506,-2.98009 -3.922083,-1.35982 -1.448532,-0.91902 2.10951,-2.3326 -0.960706,-1.41701 -1.84145,-0.69352 -1.150647,-3.78741 -0.09073,-3.13218 -1.362216,-1.56847 -2.010719,3.70529 -2.889949,-0.2528 -0.207949,-2.2978 -2.688475,-5.07765 -0.871053,-5.38528 0.843316,-0.68625 -2.930727,-2.38948 -1.39507,-3.62388 2.019438,-3.0738 5.519742,5.25507 4.325,0.0408 -1.42703,-3.84113 -4.749637,-1.83463 -5.347355,-5.77869 0.06773,-1.6372 -3.353222,-6.42523 0.07906,-4.52385 3.050841,-1.34461 8.47372,-2.10056 6.309367,-6.48516 -0.312637,-4.02535 -0.0112,-7.70178 -0.541956,-11.5664 0.267339,-4.5053 5.454066,-5.820738 8.878408,-4.815548 2.281228,-1.709042 3.106851,0.264615 4.519446,0.560328 1.567309,1.26613 4.350161,2.02069 6.050706,-0.151502 2.352811,-0.111408 1.740509,-4.736487 3.510473,-3.541473 1.315828,0.5689 -0.911996,-2.79143 1.192236,0.05698 2.331641,0.833247 0.162739,1.560487 3.273362,1.266475 1.851866,-0.505439 2.005126,-0.811175 1.635566,0.730861 1.64677,0.562662 2.94351,-0.837725 2.65426,-1.880606 -2.89053,-0.192416 -1.03963,-0.09137 -1.10725,-1.030413 -2.787348,-1.755949 0.78339,1.531223 -2.408038,-0.0226 1.736718,-1.00938 -2.938558,-1.949417 -1.999154,-0.550525 -0.394402,-2.20296 -0.598543,-3.599588 -2.863114,-2.700272 -0.03494,2.340537 -0.841679,2.213234 -1.800332,3.498755 -1.913359,-1.029516 3.142612,-2.344 0.347553,-3.152488 0.21563,1.968487 -0.910654,0.455315 -2.384339,-0.18118 0.219892,-1.457165 1.272921,0.530728 1.395812,-1.418109 0.540916,-1.840091 3.858639,1.704191 1.829024,-0.713209 1.245413,-2.576632 3.378978,-0.807138 5.302877,-1.109595 -0.377286,-1.533839 1.841231,0.04884 1.750591,-1.37202 3.96027,-0.921356 -1.465724,8.229822 2.47156,3.321868 1.22916,-0.399775 -1.18641,-2.778971 1.39782,-1.426194 1.0142,-1.510569 2.9463,-1.936863 3.24661,-0.411122 1.29058,0.956272 0.75416,-2.860519 2.34796,-0.782474 -2.82318,0.22374 0.81013,0.443181 0.87229,0.231534 0.95602,-1.175219 7.22118,1.89958 4.49714,4.184677 -0.73556,2.165748 1.98699,-1.352683 1.1635,1.514736 -1.67524,-0.961957 0.0146,3.804754 0.3694,0.02456 1.28826,-2.692743 -0.98568,3.969114 0.92626,1.153915 0.19133,-1.862675 0.55235,2.045842 0.97295,1.655544 -0.82038,2.06108 3.4551,-0.568406 0.50305,2.152824 1.41239,1.485773 2.04773,-3.246503 1.38979,-4.133375 0.72454,-0.869499 1.72589,0.49474 1.77286,-1.711015 0.20616,-1.988693 2.14326,1.103836 3.18607,1.759097 -0.20229,1.754727 -0.55566,4.238188 -1.50772,4.023604 -1.41579,-0.210585 -0.37942,-0.935825 -1.86684,-0.716182 -0.79477,-0.257048 0.7199,2.632924 1.34101,1.706524 0.76056,3.35039 0.19099,-1.769116 2.51668,0.3882 1.15481,-0.67718 -1.09171,-5.331791 1.51436,-2.68321 2.04766,2.38755 -2.54535,-4.264421 0.60961,-2.388029 1.43153,0.725833 -0.38734,3.365192 2.87258,3.435357 2.66383,0.412529 2.48645,3.948552 0.73563,5.875972 0.30279,1.2456 -2.61198,-0.33286 -1.02801,1.49213 -0.97699,0.54383 -2.74594,1.76743 -1.12986,3.17451 -1.77561,0.79188 -2.58488,1.98586 -1.16342,2.29396 -0.30245,1.22669 0.60528,-3.20083 1.65122,-0.86972 -1.91197,1.1754 1.71488,0.68303 -1.00029,1.32534 2.44497,1.69158 -2.08304,3.77091 0.70146,3.63778 0.27405,-2.92386 1.74851,-3.38276 3.17946,-1.74634 1.5257,0.88446 -3.89506,0.42613 -2.56978,2.28238 -0.15949,0.57029 2.98032,-2.09249 0.36904,0.52741 -2.22213,-0.35676 -1.13733,2.94837 -2.69999,0.40846 -0.26089,2.8633 -2.12467,-0.60016 -1.28542,-1.46088 -2.64527,-0.84529 -0.4357,2.26222 -2.19302,1.78189 -0.274,-1.1832 -1.20571,4.28692 -2.64278,5.28359 -2.37839,3.27321 -3.32465,7.81261 -7.09686,9.83252 -1.84291,1.37395 -5.29525,3.89667 -3.01854,-0.22591 1.87302,-5.03995 3.48218,-10.19994 5.33449,-15.22885 -1.14115,-0.75776 -3.06942,-3.10754 -1.61964,0.0232 -1.48136,5.13864 -3.97774,10.05462 -5.63847,15.18917 -1.489,4.57439 -4.09695,8.76965 -7.68691,11.98628 0.84612,-5.28916 1.86135,-10.67559 1.91398,-16.00223 -2.09347,-0.2629 -1.23511,8.09909 -2.6504,6.16191 -0.16986,-2.01816 -2.532539,-3.43731 -1.14794,-0.36105 2.19962,3.78329 0.0898,10.23807 -1.826489,12.53282 -2.631491,-3.44697 -4.363218,-7.58822 -2.876097,-11.93341 0.295746,-3.66212 1.704247,-7.71712 1.464166,-11.10652 -1.84398,3.03496 -1.795768,7.58068 -2.885518,11.21053 -0.784429,5.71212 -2.458149,-4.3448 -3.543107,-6.1802 -1.49896,-3.90335 -2.226448,-8.17437 -4.150298,-11.86799 -0.938123,2.29842 2.567957,8.32092 1.290355,9.12459 -3.224537,-2.14134 -5.888101,-7.85675 -8.71136,-8.59254 3.100479,4.50273 6.690702,8.65211 10.000884,12.99543 0.938666,2.38395 1.474998,5.39862 1.819195,7.67048 -4.852514,-4.14968 -9.636603,-8.46893 -14.697581,-12.32595 -0.120075,3.16884 5.177923,5.42711 7.258801,8.17405 4.887656,4.36093 10.077942,8.71117 12.822798,14.82908 0.58851,1.89623 4.597411,6.60807 0.900249,6.54092 z m -19.823991,-5.90209 c 2.820394,-0.27973 -1.909673,-2.61004 -0.551215,0.24363 l 0.237206,-0.19339 0.314009,-0.0503 z m -6.353717,-12.84332 c -1.619742,-1.43158 -1.111721,1.34213 0,0 z m 52.874223,-20.70365 c 2.04994,0.0309 0.70657,-3.53078 -0.28876,-2.95363 -1.85929,3.02369 -1.41749,-1.1208 1.09118,-0.54551 2.09543,-1.45073 -2.01596,-2.31385 0.52204,-3.28318 -2.49393,-0.41666 -3.43869,1.35452 -2.85725,3.74921 -3.12173,0.83873 1.5536,3.60767 1.69817,0.97423 2.25593,1.8332 -4.63594,2.15877 -0.16538,2.05888 z m -0.46028,-3.71971 c -1.33978,-1.29452 2.81465,-1.18674 0,0 z m -5.73441,1.79334 c 1.371,-2.45721 -1.10209,-1.85769 -1.61197,-0.83352 0.83787,0.75546 -0.1143,1.68912 1.61197,0.83352 z m 8.79788,-0.57063 c -1.01452,-1.43718 -0.72026,1.16695 0,0 z m 1.75503,-0.0534 c -1.68899,-1.06059 -0.59514,1.15467 0,0 z m -12.67461,-0.95529 c -2.06997,-1.47256 -1.25283,0.23267 0,0 z m 4.36563,0.0283 c -0.72606,-1.3412 -1.59164,1.03129 0,0 z m 2.11666,-1.36684 c -1.32288,-1.10088 -0.6331,1.46428 0,0 z m -6.08541,-2.27776 c 2.52612,-3.69292 -2.19695,1.51679 -1.49014,-2.6368 1.08129,-3.60356 0.24553,3.22607 1.01382,-0.26329 2.99143,0.43002 -0.83183,-3.59024 -2.17463,-0.4544 0.13392,2.08188 -0.0854,2.88053 0.63145,2.58376 -2.11025,2.10713 2.95927,-0.41043 1.0495,1.70223 0.40038,-0.20469 0.88981,-0.43008 0.97,-0.9315 z m 2.67844,-0.22016 c -1.54228,-1.41677 -3.57521,1.30059 0,0 z m 4.99447,-0.1606 c -1.01842,-1.02216 -1.01823,1.4148 0,0 z m -2.12071,-0.18078 c -0.92771,0.17244 -1.2632,-0.35247 -0.33819,-1.56357 -1.49943,1.09049 0.86789,-2.33532 -1.05403,0.26837 -0.38025,2.09219 -2.84121,-3.0237 -1.44924,0.74824 0.68008,0.0439 1.9304,1.61577 2.84146,0.54696 z m 2.70987,-1.04769 c 2.30564,-1.28834 -0.43032,-5.4832 0.6326,-1.85366 -1.73229,0.64928 -0.47094,1.35724 -1.20136,2.29069 z m -4.6335,-1.23787 c -1.57449,-1.07853 0.57732,2.58645 0,0 z m 8.64625,0.75321 c 0.56993,-2.31763 -1.43875,1.63271 0,0 z m 1.48351,-0.006 c -0.99149,-1.91001 -1.57881,1.62767 0,0 z m -28.59826,-1.03034 c 1.30688,0.1881 3.86107,-3.50053 4.21912,-1.70278 2.07986,-0.8805 1.4431,2.04638 3.96061,0.19222 0.11214,-2.25995 -1.02146,-1.40341 -1.96871,-1.68182 -0.6193,-0.40978 -2.30502,-1.64426 -0.9212,-2.27856 -1.77987,-3.397023 -3.04678,1.24337 -5.28978,0.41801 -0.92059,0.99397 2.69221,1.33478 0.009,1.51174 0.19217,1.28054 -2.01331,3.01975 -0.47449,4.65689 l 0.22432,-0.58612 0.24132,-0.52916 z m 3.19826,-5.17874 c 1.35351,-3.661107 1.32859,1.03933 0,0 z m 7.43937,5.49793 c 0.8438,-1.90774 -1.71714,0.41402 -1.16847,-2.3971 -1.47993,-2.14656 -0.13055,4.71599 1.16847,2.3971 z m 6.31896,-0.0368 c 3.10834,-2.92041 -1.25405,-1.66792 -0.44969,0.25865 0.16489,0.26481 0.54995,-6e-5 0.44969,-0.25865 z m 2.77813,-1.47304 c 3.84536,-1.57664 -0.94148,-1.96558 -0.92605,2e-5 l 0.57751,0.24639 0.34853,-0.24639 z m -2.3436,-1.21278 c 1.74706,-0.5268 2.2912,-3.784386 0.22183,-1.88769 1.43699,2.23896 -3.18271,-0.52199 -2.20546,2.11516 1.1924,1.25725 1.06279,0.0694 1.98363,-0.22747 z m -18.72627,-1.38895 c 0.3288,-0.33516 0.99521,-1.27324 -0.26555,-1.40203 -2.1774,0.7987 0.89552,3.22078 0.26555,1.40203 z m 21.73133,0.73182 c -0.85898,-1.39574 -2.86534,0.96055 0,0 z m 3.86172,-0.28763 c -0.53954,-1.2247 -1.59144,0.71233 0,0 z m 2.96453,-0.012 c 0.85267,-2.20211 -2.03691,0.92611 0,0 z m -44.07861,-0.18228 c 0.783322,-1.38722 -1.994179,-2.25104 -0.528598,0.19738 0.181339,-0.0571 0.409293,-0.76794 0.528598,-0.19738 z m 2.457899,-0.27247 c 0.857739,-1.033 -3.220024,-1.46089 -0.708778,0.20423 l 0.708778,-0.20425 z m 35.139661,-0.56579 c -0.52732,-2.300611 -1.54761,2.00899 0,0 z m 7.06313,-1.11132 c -2.22203,-1.004926 -1.44965,2.37617 0,0 z m -46.160293,-0.14288 c -2.768381,-1.051928 -0.835176,1.27124 0,0 z m 18.379043,-0.466082 c -0.41365,-1.596349 -0.91711,2.311492 0,0 z m 19.95714,0.261299 c 1.38494,-2.339481 -1.79093,1.684813 0,0 z m -4.7719,-0.267324 c -0.0933,-2.012411 -1.35199,1.418467 0,0 z m -16.55521,-0.186247 c -0.0921,-1.469049 -1.461899,1.294894 0,0 z m 2.75903,0.16495 c -0.90628,-2.086569 -1.28948,0.863544 0,0 z m 6.28386,-0.593628 c -1.07392,-1.35709 -1.50014,1.833872 0,0 z m 5.88698,-0.47689 c -2.4545,-3.17874 0.23374,2.501522 0,0 z m -10.91407,-0.487543 c -3.05747,-0.328775 -1.51427,1.625086 0,0 z m 14.61823,0.484393 c -0.97435,-2.286702 -0.29527,1.488692 0,0 z m -11.63121,-0.603451 c -1.02088,-1.760215 -0.0693,2.160933 0,0 z m -1.13493,-0.236012 c -1.32931,-1.816968 -0.63764,1.264672 0,0 z m 7.26046,-0.169014 c -0.82451,-0.862871 1.17984,-1.93248 0.9098,-2.350958 -1.72858,-0.619923 -2.81492,3.620799 -0.9098,2.350958 z m 2.50427,-0.550701 c -1.4486,-0.968903 0.6168,1.502572 0,0 z m -1.29807,-0.499217 c -0.66947,-1.377756 -0.53916,1.328175 0,0 z m -2.99174,-0.997249 c 3.68949,-3.088355 -2.77906,-0.191418 -1.27756,1.049321 0.37573,-0.392743 0.68517,-0.970338 1.27756,-1.049321 z m -7.27072,-0.685985 c 1.16657,-0.14004 3.31712,-1.498763 1.44667,-2.416494 0.99205,-1.591788 3.47127,-3.017349 0.249,-2.10325 -2.67603,1.249046 0.30256,5.252482 -2.37358,3.827799 -0.86931,1.590199 0.42661,0.123662 0.67791,0.691945 z m 3.11871,-0.16885 c -0.66947,-1.377755 -0.53916,1.328175 0,0 z m 7.10192,-0.661458 c -2.86958,-2.901558 1.8599,2.833967 0,0 z m 0.65492,-0.956699 c -0.94989,-0.695599 -0.004,1.611966 0,0 z m -3.78809,-1.721531 c -0.78747,-1.370717 -0.60921,1.791333 0,0 z m 3.51835,0.120591 c -0.98298,-1.228998 -0.41843,1.227408 0,0 z m -4.34679,-0.443268 c 1.81067,-1.628216 -0.51801,-1.719598 -0.7096,0.355112 l 0.37969,-0.104303 0.33004,-0.25077 z m -7.54902,62.674976 c -0.74197,-4.64713 2.76758,-7.88131 5.38737,-11.20379 5.567,-6.56453 12.73498,-11.50664 19.27928,-17.0313 1.77541,-0.8519 2.30908,-2.49337 1.63634,-4.34059 -0.38826,-1.14053 1.61292,0.66114 0.7998,-1.11969 1.74696,-1.34119 1.61641,-1.7729 3.27187,0.5111 2.61424,2.16084 -0.11587,-2.3619 2.4879,0.52318 0.80337,0.47342 -0.39499,-1.82118 1.18989,0.26434 2.13069,0.91155 -1.14334,4.03044 2.15467,4.54665 -1.29176,1.62111 1.19078,5.42332 -1.6275,5.50574 -3.14453,-0.16802 1.32233,3.84245 -0.90738,2.6786 -2.13794,-0.58512 -1.18828,1.86102 -2.15928,2.03218 2.78782,-0.006 -3.91583,2.25404 -0.35062,1.52439 3.2624,-1.6881 -0.60694,2.05558 -1.823,0.73944 -1.25745,1.70302 -1.43763,4.61855 -2.77212,3.40705 -2.44559,1.8036 -8.12106,-0.46116 -7.20857,4.50513 -0.12978,2.75407 -1.81243,4.46051 -4.04451,6.0984 -1.7051,1.0403 -4.65045,1.77569 -7.00284,1.25934 -0.0312,2.02558 -4.23464,-0.0277 -5.79444,1.14048 -0.62167,-1.38745 -3.58409,2.84862 -2.52438,-0.95159 l 0.007,-0.0887 z m 8.90663,-0.80428 c -0.66949,-1.37774 -0.53916,1.32818 0,0 z m 19.31053,-15.94114 c -0.86539,-2.18336 -2.08926,0.56601 0,0 z m -9.4548,13.29641 c -0.94959,-1.90572 1.59298,0.93466 -5e-5,0 z M 70.668606,133.80261 c -1.029298,-2.35828 1.766818,1.73433 0,0 z m 51.210354,-5.82084 c 1.61922,-2.54686 3.21185,-8.66437 5.46222,-8.88522 -0.27902,1.23331 1.48933,-0.0573 1.24384,2.20449 -1.03876,2.02098 2.52544,1.19635 -0.25663,2.79119 -2.17191,1.30775 -5.05573,4.0916 -6.72375,4.59029 l 0.27426,-0.70074 z m 8.89766,-8.79496 c -0.98693,-3.2446 2.48948,-0.15259 0,0 z m 1.98588,-1.55754 c 1.4642,-2.56633 0.57962,1.06875 0,0 z M 89.106248,99.932621 c 2.17428,-2.474263 2.340633,0.152549 0,0 z m 42.045822,-1.460304 c -2.76608,-2.655444 1.45616,-1.299025 0,0 z M 120.7901,96.761136 c -1.82876,-1.48111 2.72765,-0.08235 0,0 z M 95.797494,95.107294 c -1.542872,-1.364217 1.993587,-1.576472 0.252913,-0.04462 l 0.01775,0.573794 -0.270671,-0.529167 z m 2.100578,0.215154 c 0.955455,-1.347252 0.759607,0.700337 0,0 z m 21.370678,-1.257872 c 1.14411,-1.752089 -0.68741,-3.442858 1.7492,-3.774316 1.17999,1.679229 0.45288,3.981646 -1.7492,3.774316 z m -1.14653,-0.985754 c -0.54553,-1.475157 1.82938,0.216993 0,0 z m 3.79236,-0.549192 c 1.77201,-2.707265 2.30052,-0.709647 0,0 z m -5.02303,-1.567884 c -1.38954,-2.119441 1.50184,-0.36717 0,0 z"
         id="path992" /><path
         style="fill:#55aaa4;stroke-width:0.264583"
         d="m 98.44595,180.03854 c 0.15107,-2.96262 0.142755,2.96941 0,0 z m 5.81722,-0.92604 c 0.19641,-2.53693 0.11731,2.79433 0,0 z m -5.552637,-3.04271 c 0.151071,-2.96262 0.142757,2.96941 0,0 z m 5.299207,-0.92604 c 0.11866,-3.27995 0.1191,3.59142 0,0 z m -5.047186,-2.38125 c 0.215269,-2.03438 0.117192,2.25765 0,0 z m 4.786476,-3.175 c 0.14659,-3.84088 0.13438,4.04595 -2.5e-4,0 z m -4.49966,-0.66146 c 0.127661,-3.52581 0.110199,3.58216 0,0 z m 4.24634,-6.08541 c 0.12337,-6.98605 0.15119,6.60009 0,0 z m -3.97533,-0.79375 c -0.02908,-3.57346 0.329252,1.04052 0.02911,1.40601 l -0.02129,-0.52922 z m -1.672489,-6.99894 c -2.254667,-1.75503 -3.797565,-0.31981 -5.646124,-1.77827 -2.840656,0.73247 -5.91071,-0.23521 -6.953191,-2.10498 -0.713428,0.21576 -5.139776,-0.6309 -5.005872,-0.66377 0.725083,-0.27012 -2.390564,-1.70908 -0.260491,-1.22848 2.346228,1.55501 1.00321,-3.51463 -0.284406,-1.36506 -0.913983,-3.14115 -3.187394,-0.58012 -4.97855,-0.91936 0.367674,-3.85084 -2.071179,-0.86694 -3.471667,-3.39462 -2.089745,-0.72458 3.663116,-3.32287 0.3225,-2.31298 -2.934566,-1.23943 -0.51359,4.0016 -2.572227,0.42679 0.956902,-1.61236 -2.293,-4.97081 -1.474076,-4.91244 0.537065,0.1296 1.476966,-1.88303 -0.526396,-2.26623 -0.969601,-5.00219 3.079436,-0.64517 4.497106,-0.0855 0.42393,-2.31514 -3.334873,-6.08008 -4.067285,-4.48987 0.119473,-1.50701 -3.191121,-4.40583 -0.305137,-2.90881 -0.183612,-1.40289 1.448076,-2.21965 0.947532,-0.45163 1.998918,-0.61021 5.372899,-0.4063 6.246402,-2.10251 2.392332,3.32434 -0.20393,-3.5997 -1.506161,-0.2184 -2.504084,-1.23778 -0.836998,1.19246 -0.687606,1.05271 -1.330602,0.35293 -2.839477,-1.65344 -1.33942,0.61384 -1.747288,0.85811 -4.771147,-3.89172 -3.3017,-0.63885 -0.259937,1.4223 -1.98181,-2.39647 -1.658231,-0.29425 0.871555,2.3594 -2.802796,-3.3746 0.986696,-2.827 2.388606,-1.62821 1.875194,0.82765 3.708279,-1.58122 0.006,2.25001 1.052848,-1.00929 1.721172,0.24894 -0.284923,-1.8116 1.120286,-5.59307 -0.236194,-6.02415 0.155147,-3.08834 0.380076,-7.09634 -0.271544,-10.48234 0.03419,-4.963368 5.557744,-5.430407 9.21641,-5.092717 1.587771,-2.247686 1.968851,1.816037 0.878294,1.553967 0.209755,2.1048 2.66337,3.35269 0.887522,1.18577 2.406761,-1.0705 -1.57199,-0.012 1.135551,-1.58752 -0.860332,2.28578 1.803526,3.02346 3.77054,1.71327 2.041756,-0.97423 4.059206,-2.474635 5.89193,-2.954096 -1.264669,-1.425774 4.603584,-1.754562 4.709801,-0.235541 1.395885,-1.413644 3.388612,-0.218209 3.944342,-0.473292 -0.56298,1.889529 -4.054465,-1.110057 -1.83678,1.456247 3.29575,-0.789363 -3.900795,2.020162 0.12593,3.031372 1.01957,-0.34513 -0.38395,5.44938 1.37673,3.54747 1.52283,-1.06926 2.38447,-1.14662 4.00299,-2.88227 0.46618,1.1362 3.02421,1.87841 4.69874,0.81134 0.26027,2.90006 2.0104,1.89471 3.83199,2.58619 -2.11415,0.0941 -0.76354,4.50353 1.11954,1.69625 0.22273,0.92174 0.80769,-0.0576 0.46334,1.16194 2.37695,-0.53742 1.98275,-4.14599 0.4049,-2.30046 -2.82751,-1.74628 1.76917,0.82208 -0.5889,-1.50428 -0.0242,-1.41494 1.17573,0.59263 2.92082,0.86881 2.30941,1.59975 -3.80554,2.12637 0.4328,2.28511 0.64664,-0.90615 2.23112,2.0483 1.51473,0.29516 -0.27419,-2.36207 0.88032,0.6952 1.97017,-0.26987 0.43758,0.0596 -0.41987,-3.84629 -0.57942,-3.52172 -2.70807,-0.57288 -0.9184,-1.95399 -0.26531,-0.63601 1.07641,-0.0788 2.16715,-0.27064 1.15063,0.36774 0.43306,0.19412 3.03682,-2.8767 0.74624,-1.9298 -0.55916,-1.35417 -3.21086,1.07994 -0.83549,-1.07371 1.58856,-0.74845 -2.36283,-3.017701 -0.65065,0.0893 -0.83548,-0.13684 -0.57791,-0.25441 -1.59009,-0.44385 2.6008,-1.26692 -2.26811,-1.08772 -1.4708,-2.03812 -2.38703,2.2743 -0.26755,-1.584459 -2.34823,-0.82173 -1.38023,-1.026806 -1.04721,-1.167263 -1.9887,-3.058418 -0.76905,2.043425 0.5354,2.822716 1.75763,3.573361 0.27541,0.894987 2.85413,2.135927 0.54196,3.168517 0.57972,2.64962 4.59495,-0.56419 1.83795,1.84463 -1.6866,1.84561 -0.99636,0.009 -2.65415,-0.27908 -1.57798,-0.10438 -4.19941,2.46102 -2.15284,-0.11819 -2.62099,0.74762 1.14599,-2.81753 -1.76397,-0.76387 -1.39955,2.26175 -0.065,-1.99361 -2.09611,0.35748 2.29237,-2.18243 -3.93199,-5.10087 0.0354,-3.82203 0.63958,-1.876592 -3.92314,-0.846821 -2.0383,-0.095 -1.73297,1.57103 -1.39848,1.12308 -0.77902,0.049 -1.25924,-3.492819 -3.12927,1.26791 -4.81444,0.37938 -1.324,-0.28169 0.45297,-1.015523 1.01339,-0.59005 -1.69493,-1.897837 1.60943,0.28304 0.75438,-1.825601 -3.73515,1.669931 0.42892,-4.385172 1.6028,-1.720221 1.43636,-0.9461 2.81218,-2.798467 0.39048,-1.08361 -1.82898,-0.426167 1.92106,-1.904429 0.27666,-2.694833 2.24657,1.847826 3.0017,-4.326711 0.34004,-0.543434 -0.65067,-0.70503 2.28182,-1.695553 1.83751,-2.732727 2.3729,2.186711 -0.25174,-1.562176 1.5137,0.135613 1.65749,-0.525256 -1.63234,3.319647 1.02352,1.752103 0.2706,2.499792 0.33127,-2.546055 0.58797,-2.249336 1.44761,-1.906136 3.12221,1.785981 2.63107,1.984482 1.21774,-1.830369 3.79084,-0.557658 1.55443,0.901753 -3.22433,-1.988175 1.51865,2.721734 -1.20332,0.845275 -2.79414,0.319476 1.926,3.519135 -0.0448,1.255442 1.60082,-0.346704 1.97806,3.437487 4.14515,3.383722 -0.32179,0.469785 -1.35969,3.080382 -0.39284,1.708784 1.49354,-0.202322 1.60846,-0.27165 1.50747,1.520648 1.05943,-0.914635 2.22709,0.61814 2.08636,-1.652343 -1.57757,-0.250933 -0.0809,-2.211848 0.98425,-2.689916 -2.77555,1.724158 1.06692,-3.852553 0.37531,-0.683844 1.99019,-0.462897 -2.27184,-4.025879 0.40283,-2.008968 0.67966,-0.176261 3.25513,2.744477 1.52613,2.014918 -0.57906,0.655564 1.66809,1.00497 0.24669,2.630342 -0.008,1.572916 -2.27888,0.29072 -1.11967,-0.629532 -2.97005,-1.515697 -1.2317,4.253363 -0.46424,5.504083 1.48792,-0.61337 -1.40925,-0.74561 1.16117,-1.32682 -0.3752,-2.045827 5.23874,-1.52717 2.66918,1.53173 1.58357,-1.11435 3.6088,-4.615447 0.18511,-3.339306 -2.29802,-1.629673 0.1637,-2.199825 0.97542,-0.962288 0.94131,-2.259831 -1.9082,-2.35043 -1.02168,-3.12347 -0.0682,0.798544 2.52096,-0.603149 1.20035,1.350049 0.76323,2.803233 6.22952,2.320466 4.27991,5.760285 -0.47973,2.70482 -2.02122,3.22295 -4.15454,2.2622 -1.10576,-1.085 -0.56629,0.55837 0.19549,1.29031 -2.20957,-0.17819 0.0424,1.3069 0.82119,1.29632 -1.75909,-0.0679 1.08853,2.72603 -1.87028,2.90776 -0.77614,1.73432 4.4144,3.43807 0.62082,5.22303 0.76864,2.86735 2.37343,-3.65253 2.95126,-1.30828 0.79454,-3.18004 1.76516,1.02858 -0.92922,0.78751 -1.18336,1.98231 -1.48498,4.21202 -2.34217,1.55705 -0.57742,-0.85043 -2.51862,2.17675 -1.00108,-0.66026 -2.43041,-1.55908 -1.4564,2.50556 -3.07797,0.56366 0.0387,-1.32179 1.10817,0.93956 1.06296,-1.85109 2.03362,0.7288 -1.74107,-2.11374 0.40204,-2.68922 0.69751,-2.38884 -1.779,-4.52612 -3.25134,-1.56252 -1.65121,0.28294 0.22558,2.27092 2.03093,1.0053 -2.14503,0.75206 -4.65118,2.99468 -1.02395,4.96626 2.47275,3.27543 -2.11924,6.55475 -3.19578,9.6751 -1.47959,4.15399 -4.89063,6.78521 -8.67228,8.76305 0.2272,-2.88719 2.66269,-7.51956 3.57586,-11.137 -0.13745,-2.66347 4.37422,-6.28394 0.74155,-7.77382 -1.08369,-0.51982 0.72977,2.62648 -0.89473,3.87353 -2.71462,6.29776 -4.55513,12.98566 -7.82705,19.02246 -1.09406,1.57772 -3.79021,5.36258 -4.54976,4.78007 0.87505,-4.99299 1.64165,-10.08181 1.83825,-15.12533 -2.38887,-0.38016 -1.38534,10.17468 -3.27007,4.69418 -2.479549,-2.69098 0.8808,3.86686 0.41058,5.2375 -0.83589,2.07067 -1.23038,8.70516 -2.853126,8.26865 -1.881786,-3.02882 -4.290433,-6.26051 -3.146672,-10.03954 0.53033,-4.32053 1.569343,-8.57553 1.988099,-12.9047 -2.388566,2.06398 -1.771324,7.0031 -2.958695,10.16246 -0.218665,2.37739 -0.89932,4.61113 -1.643126,0.92587 -2.046478,-5.8294 -3.757891,-11.77652 -5.789941,-17.60544 -1.988289,0.47672 2.218828,8.21656 0.903476,8.78691 -3.308966,-2.27381 -5.785837,-7.66074 -8.796956,-8.84068 2.120781,2.49617 -5.167308,2.01524 -1.667917,3.03302 0.09032,1.77769 -3.134271,2.0675 -0.553281,2.70983 0.393085,0.53916 -4.579793,0.66355 -1.864861,1.20478 1.296074,-1.46113 3.787241,1.41526 2.250308,-1.778 -0.606934,-2.98171 4.174597,-0.0927 1.248534,-2.0748 1.316924,-2.55394 2.451442,-0.0743 3.510474,1.1784 2.48158,3.21708 5.249742,6.3 7.553504,9.60033 0.2743,2.16613 1.518193,5.52187 1.091681,6.71191 -4.740169,-4.09269 -9.523252,-8.14691 -14.272913,-12.22057 -0.854064,3.14775 5.164454,5.44444 6.906066,8.12288 4.608993,4.47927 10.110617,8.40877 12.692439,14.51536 0.57118,1.77035 5.282837,7.41807 0.990368,6.61027 z M 74.38052,144.00062 c 0.778012,-1.5808 -5.016979,0.25616 -1.518318,-0.0405 1.519053,-1.24519 0.823754,1.7007 1.518318,0.0405 z m -4.772822,-3.40011 c -0.151306,-1.31463 -0.984822,1.64037 0,0 z m 2.499194,-3.88749 c -1.647255,-1.46397 -1.508056,1.52263 0,0 z m -2.913779,-12.15423 c -1.094723,-1.55702 -1.359077,0.4415 0,0 z m -3.423115,-0.92941 c 1.154924,-1.91105 -2.026672,1.30511 0,0 z m 2.310951,-0.41572 c 0.485592,-2.94365 -1.080626,1.99405 0,0 z m 8.123215,-1.38345 c -0.781431,-0.95578 -0.812857,2.24888 0,0 z m 45.284306,-1.20985 c -0.47679,-1.21447 -1.28847,1.37849 0,0 z m -2.04227,-0.55297 c -1.77029,-0.0559 0.5921,1.22553 0,0 z m -41.65089,-0.85692 c 0.733909,-2.11189 -2.45087,1.59698 0,0 z m 43.9761,-0.83745 c 1.82197,-3.20115 -2.40251,0.38627 0,0 z m -5.68171,-0.71 c -0.76993,-2.91118 -0.64472,1.1709 0,0 z m -39.683452,-0.44324 c -2.039322,-1.24158 -3.834259,0.16985 -0.657021,0.16105 0.04577,0.10985 2.131762,0.35235 0.657021,-0.16105 z m 45.761332,-0.55611 c 0.65622,-1.62463 -2.44074,1.00058 0,0 z m -1.46215,-1.47802 c 2.72825,-1.4075 -1.86383,-0.0935 -0.3151,0.5825 l 0.28236,-0.31465 0.0328,-0.2679 z m 7.92469,-0.64522 c -0.97474,-0.63007 -2.23124,-3.84832 -1.74408,-0.64772 0.61015,-0.17388 1.52313,1.77899 1.74408,0.64772 z m -9.5584,-0.0519 c -0.32532,-2.14373 0.46152,-3.40257 -1.72354,-1.58519 -1.2535,-1.13375 -4.83653,-1.34719 -1.46133,-0.24234 2.53007,0.57565 0.49788,1.67496 0.90996,1.84441 0.74532,0.0468 1.54392,0.17147 2.27491,-0.0169 z M 99.946502,113.6385 c 1.087488,-1.3661 -2.032343,0.98547 0,0 z m 29.311588,-0.0765 c -2.5355,-2.23347 -0.54516,1.86051 0,0 z m -14.37661,-0.0945 c 1.54903,-1.69946 -1.6503,0.20097 0,0 z m 5.56067,-0.6266 c 2.19766,-1.77187 -2.59807,0.53834 0,0 z m -46.746027,-1.21737 c -1.340327,-0.0524 -0.324529,1.76488 0,0 z m 54.373837,0.52349 c 0.0911,-1.94727 -2.85736,-0.23312 0,0 z m -6.15943,-0.93801 c -1.35271,-1.60697 -0.83062,2.00633 0,0 z m -47.091782,0.28965 c 4.540123,-2.40516 -2.95803,0.005 0,0 z m 39.772722,-0.41136 c -0.64063,-1.16679 -1.5441,1.44327 -0.0582,0.3052 z m 0.67406,-0.74836 c -1.25447,-1.33899 -0.44242,0.52133 0.36783,0.64332 l -0.004,-0.18897 z m 4.37801,0.20858 c 0.0423,-1.55108 -1.88963,0.93096 -1e-5,-3e-5 z m -43.974584,-0.42963 c 1.876017,-1.43961 0.515775,-2.77361 -1.359284,-1.50446 2.195229,-0.24268 -2.130728,2.96959 1.122944,0.6848 0.517274,0.0929 -1.687455,1.788 0.23634,0.81966 z m 52.175594,-0.0894 c 1.04343,-1.45113 -1.68269,0.31321 0,0 z m -3.05079,-1.36912 c -0.66955,-1.97635 -2.16604,1.75119 0,0 z m 1.44306,-0.65368 c -1.90991,-0.55082 1.73632,-4.84009 -1.13885,-4.97226 1.08968,1.87453 -0.51337,3.25838 -0.68561,4.9698 2.0529,-1.11626 0.6092,2.39495 1.82446,0.002 z m -49.830572,-0.31095 c -1.50901,-2.00598 -2.088647,0.72481 0,0 z m 13.324848,-2.13644 c 2.518812,-1.57202 -1.592173,0.0973 -0.166855,0.25994 z m 40.995264,-0.64668 c -1.13341,-1.15017 -0.40011,1.6666 0,0 z m -54.475672,-0.1123 c 2.67683,-2.51398 -2.214222,0.68243 0,3e-5 z m 16.263811,-1.15925 c -0.261655,-1.85278 4.374413,-0.98362 1.737668,-3.21671 3.420826,3.22443 0.790118,-3.988925 -0.0057,-0.854831 2.132774,-0.09039 -6.478801,2.131131 -3.183074,1.932841 3.427692,-1.01849 -1.265906,2.0221 1.349506,2.25698 l 0.101638,-0.11825 z m 0.349539,-2.40866 c -0.228339,-1.988919 2.07796,0.95949 0,0 z m -12.561414,1.65278 c -1.746601,-0.37234 -0.04695,1.26345 0,0 z m 47.018786,0.13284 c -1.06023,-0.95518 -0.57754,1.41693 0,0 z m -0.96955,-0.71642 c -1.40399,-1.38778 -1.07906,1.49854 0,0 z M 98.631248,101.4737 c -1.177894,-0.88573 -1.454386,0.95017 0,0 z m 13.162332,-0.24345 c 0.49541,-3.709816 -1.44239,1.59582 0,0 z M 97.837498,99.633693 c -1.41298,-0.980384 -0.540552,1.304317 0,0 z m 10.318752,-0.759776 c -0.178,-2.770711 -2.55315,-2.359429 -1.9906,-0.74653 1.74945,-1.003161 0.16738,1.470695 1.9906,0.74653 z m 6.08541,-1.930154 c -0.96435,-0.123816 2.03744,-2.961171 -0.68895,-1.443314 -1.45515,0.784881 -0.57629,4.536751 0.68895,1.443314 z m 3.07999,0.463405 c -0.12248,-1.047217 -3.4378,-1.140212 -0.69305,0.261013 l 0.69305,-0.261016 z m -4.93207,-0.1549 c -1.34618,-1.765189 -1.26563,0.596275 0,0 z m -1.11973,-1.08664 c 2.46258,-0.659982 2.97583,-3.137848 0.17369,-1.322917 -0.70261,-0.430732 -1.33038,3.058738 -0.17369,1.322917 z m -2.18881,-1.060355 c 2.44383,-2.071743 -2.36126,0.558307 0,0 z m 2.34861,-1.375734 c -1.57812,-2.208555 -2.61363,-1.752388 -2.39041,-0.575637 2.80532,-0.885976 0.89086,2.536032 2.39041,0.575637 z m 2.44084,-1.438198 c -0.85246,-1.876235 -0.99813,2.621737 0,-3e-6 z m -1.00135,-1.13626 c -0.20624,-0.921817 -1.25858,1.100409 -0.18377,0.279258 z m -3.16329,-0.839308 c -2.15343,-1.007612 0.90195,1.46947 0,0 z m 3.35916,0.05162 c 1.02699,-1.924643 -1.30972,0.734442 0,0 z m 0.17124,-1.663014 c -1.65743,-0.628311 0.0347,1.192691 0,0 z m -9.75049,65.348341 c 0.58493,-2.0897 -0.69707,-4.72521 1.24866,-6.27564 3.68898,-4.98125 7.70896,-9.73488 12.67506,-13.49979 4.11359,-3.59345 8.71924,-6.64965 12.56635,-10.52885 0.40639,-1.55916 0.55296,-2.76447 1.20719,-1.70418 0.88887,-1.85914 2.96129,-0.002 0.71491,-1.7755 2.18302,0.95506 4.35442,-0.0709 5.71982,2.01222 -0.59084,2.1402 2.84203,4.2742 1.35536,6.78608 0.99588,0.68816 -3.36668,1.97649 -0.6547,1.99805 -3.03519,0.94342 -0.33083,3.24414 -2.60259,2.79575 -1.8247,0.25648 0.36379,1.33385 -0.74236,2.40872 -1.1313,0.44423 -3.91869,4.30967 -4.32392,5.53743 0.14492,-3.00654 -0.4105,-1.98148 -0.81792,0.18151 -2.57339,-0.57891 -2.18241,0.68276 -5.53622,0.8837 -3.00857,1.35872 -0.25621,6.88058 -3.93303,7.55233 -0.41601,1.01914 -5.06457,4.64291 -7.8973,2.9445 -1.01897,-2.20342 -0.10353,2.44998 -2.59697,1.36826 -1.99565,-1.74671 -5.5079,0.68983 -6.49132,0.22006 0.0364,-0.30152 0.072,-0.6033 0.10898,-0.90465 z m 28.2184,-17.25794 c -1.31793,-2.30051 -1.62839,1.47934 0,0 z m 3.23765,-9.14374 c -0.41888,-2.49218 -2.13726,0.93056 0,0 z m -4.44717,-2.79702 c 1.21934,-1.54745 -0.69925,-0.41585 -0.53847,0.41577 z m 4.76601,-0.69106 c 0.79997,-3.4605 -1.94373,2.33067 0,0 z m 1.30347,-2.11914 c 0.22899,-1.76242 -4.84726,0.9538 0,0 z m -60.044479,26.77373 c 1.977375,-2.78009 2.753241,0.53588 0,0 z m -3.749082,-2.85356 c 1.444003,-1.93013 1.077634,1.89892 0,0 z m -2.714311,-4.29003 c 0.974244,-1.06476 1.015054,1.03502 0,0 z m 51.733492,-13.25264 c 1.23027,-3.11212 2.78072,-6.08726 4.41342,-9.0053 3.41093,2.36356 1.83253,6.04681 -1.61196,7.35198 -0.74587,0.31339 -2.27593,2.19911 -2.80146,1.65332 z m 3.28571,-4.30411 c -0.67802,0.14135 0.78417,1.93567 0,0 z m -1.70566,-8.637 c 1.36591,-1.01488 0.56144,0.92793 0,0 z m 6.15757,-4.07689 c 0.85464,-1.85968 1.09735,1.89355 0,0 z m 1.03028,-0.33283 c -0.59978,-1.57959 1.29068,0.62626 2e-5,0 z m -10.09974,-5.1169 c -1.13645,-2.1408 2.32467,1.78974 0,0 z m -11.94307,-3.36253 c -2.09074,-0.97875 1.81766,-2.868817 -0.26684,-0.86405 1.73867,-0.67224 0.94973,1.45107 0.26684,0.86405 z m 10.84267,-0.14158 c -2.27008,-4.172387 2.00745,0.94768 0,0 z m -18.56549,-0.37482 c -0.60221,-1.10843 1.83136,0.70738 0.33207,0.24914 z m 22.54628,-3.464709 c -0.16934,-2.320442 1.33976,0.367404 -4e-5,0 z m 7.45873,-0.478846 c -1.37587,-2.536072 1.8108,0.5794 0,0 z M 102.86458,96.01226 c -1.57014,-1.000518 -1.51553,-3.122878 -2.55847,-1.801548 -2.487521,1.182652 -1.780397,-2.402414 -3.359914,-2.63349 -2.662923,0.03199 -1.560465,-4.310871 0.814786,-2.387233 2.402578,0.06395 -1.019121,2.264652 1.928581,0.583646 1.444037,-0.743787 2.110037,-3.390419 3.011567,-0.749913 0.0113,1.744919 -1.8286,5.829122 0.39656,3.247388 2.29872,-1.437357 3.16928,3.509254 1.08966,1.760051 -1.867,0.149333 0.23994,2.919336 -1.32277,1.981099 z m -3.873067,-5.006007 c 1.362537,-2.350139 -1.229313,0.921519 0,0 z m 17.686397,3.032455 c 0.11608,-3.289419 1.14114,1.305882 0,0 z m 2.59084,0.0011 c 0.15643,-1.137815 2.09211,0.554894 0,0 z m 0.38764,-1.06411 c -0.1483,-1.506329 0.81961,-3.837135 1.51197,-1.436902 1.49239,1.086644 -0.84418,-0.08248 -0.86141,1.652603 l -0.34429,0.02994 -0.30621,-0.245639 z M 91.553644,92.795189 c -0.717521,-0.818233 3.339034,-1.9261 0.426591,-0.03158 z m 1.970812,-1.030797 c 0.200121,-1.397852 1.574498,-0.739621 0,0 z m 11.343464,-0.776786 c -0.63847,-2.613622 4.5997,-2.611149 2.38543,-1.519522 2.29653,0.202042 -2.27973,1.608602 -2.26907,1.98313 l -0.0606,-0.241645 z"
         id="path990" /><path
         style="fill:#2e978e;stroke-width:0.264583"
         d="m 103.98964,175.14375 c 0.21496,-2.03423 0.11789,2.2578 0,0 z m -0.25925,-5.68854 c 0.15571,-2.4271 0.14879,2.43239 0,0 z m -4.503253,-0.39687 c 0.215271,-2.03442 0.117193,2.25763 0,0 z m 4.245893,-5.42396 c 0.15106,-2.96265 0.14278,2.96938 0,0 z m -3.968747,-1.32292 c 0.15107,-2.96263 0.142758,2.96939 0,0 z m -0.917797,-7.35688 c -2.550965,-1.71679 -7.410756,-1.30289 -9.194192,-2.88352 1.387556,3.66606 -4.178172,-2.47628 -6.142688,-1.28287 -2.8489,-0.21638 -0.931531,-4.41617 -3.859151,-4.56741 1.0279,-2.22715 -6.292869,3.37311 -4.298403,-1.02709 0.791272,-4.13857 -3.773619,-0.56903 -3.813143,-2.61818 2.633315,-0.0887 0.176274,-3.60793 2.269208,-1.97148 2.873004,-2.1768 -5.289646,0.81491 -4.50628,-2.36972 0.04444,-0.91509 -1.700748,-3.52076 -1.44456,-4.04647 -1.87373,-0.90966 2.284686,-1.42602 -0.451445,-2.00819 2.051471,-1.60764 4.094942,4.93963 4.449355,1.30339 -1.883318,-2.23687 -0.560028,-4.80404 -3.996059,-5.50011 1.120913,-0.72976 -1.649431,-0.96694 1.153143,-1.31956 1.637498,1.44489 3.233133,-1.92853 6.402413,-0.8063 3.227036,-0.44018 -0.06573,0.53113 1.097215,-1.4849 1.11204,-0.84274 6.671841,2.21959 3.851072,-0.11368 -3.973548,-0.47216 3.09376,-1.90765 1.959478,-3.50601 2.703941,3.51336 5.743725,6.89218 8.311639,10.4498 0.449318,2.3006 1.004837,4.58481 1.323677,6.90761 -4.459939,-4.03478 -9.437493,-7.54192 -13.557216,-11.93649 -1.81423,-4.07636 -2.115891,2.75573 0.852397,3.04519 5.008211,4.76597 10.437334,9.14023 15.019011,14.32548 1.938611,3.62131 4.792157,7.23127 5.550079,11.20677 l -0.164483,0.16523 -0.811067,0.0384 z M 74.049282,141.17896 c 1.046517,-1.90867 -2.286566,1.61497 0,0 z m -3.687612,-2.74499 c -1.439329,-0.4993 -0.03329,1.25063 0,0 z m 1.811245,-1.68311 c -2.184617,-1.68128 -1.013662,1.86667 0,0 z m 10.980208,-7.47814 c -2.018226,-1.14226 -0.371492,0.85031 0.577564,0.41593 z m 0.893793,-0.8024 c 0.859729,-2.30758 -2.03483,0.99968 0,0 z m -7.376085,-1.09546 c -1.320757,-1.77553 -6.828559,-0.23714 -2.30032,-0.39807 0.840295,-0.24207 1.447724,1.37469 2.30032,0.39807 z m -4.813212,-0.27283 c -0.846663,-1.06476 -0.895127,1.11788 0,0 z m 7.723629,-1.21879 c -0.527962,-0.71234 -1.407476,2.44755 0,0 z m 24.735872,28.48641 c -2.1566,-2.85533 0.48449,-7.40792 2.98362,-9.78524 6.15507,-7.78946 14.25678,-13.61511 21.88988,-19.84063 2.19218,1.35899 -0.0672,5.43017 2.96633,5.09625 0.95861,1.04266 4.2279,-1.63508 2.76161,-3.09141 0.71357,0.13184 1.11797,-5.54113 -0.17883,-2.81326 -1.05913,1.19644 0.46262,1.0459 -0.83542,2.25132 0.0474,1.88452 -1.78961,-1.74902 -2.29058,-2.93989 0.82891,-3.8065 0.67003,2.10015 1.28482,-0.61662 0.36931,-1.6111 1.35527,-1.92701 1.52522,0.41803 3.11151,-1.35207 4.71731,2.05399 2.78795,4.27263 -2.20147,4.62093 2.93034,-4.61059 1.59595,-0.0899 -0.37754,2.5479 -1.82952,3.14743 -2.48598,5.87828 -1.98036,0.21849 -2.42656,2.90916 -1.0369,2.32291 -1.97315,1.16876 -4.45846,4.7936 -4.20314,5.5379 -0.68952,-2.94158 -2.52534,1.59874 -4.67181,1.16448 -4.05611,0.0877 -4.9466,3.81788 -4.04585,6.871 -2.23563,1.2798 -3.62303,3.02126 -6.0058,4.31021 -1.06128,-0.0911 -0.70602,-0.98014 -1.87316,0.43145 -2.75101,-0.8312 -2.78794,-3.87696 -2.92158,-0.11715 0.41815,1.51224 -3.2007,0.6554 -3.61287,0.11565 -1.1935,0.34969 -2.74008,0.89278 -3.63346,0.62398 z m 14.77424,-4.29105 c 0.19444,-1.60257 -1.29964,2.51697 0,0 z m 12.56336,-13.36558 c -2.27785,-2.25871 -0.77292,1.80006 0,0 z m 2.09275,-1.38091 c -0.79722,-1.42713 -0.65682,1.88551 0,0 z m -1.18341,-3.00941 c 1.60127,-3.08553 -6.49296,0.62926 -2.33737,0.46813 1.90773,-1.4358 1.31504,0.11916 1.34514,0.19488 l 0.50974,-0.31793 0.48245,-0.34505 z m 3.61827,-1.29822 c 1.16344,-2.88444 -1.12695,-1.22111 0,0 z m -1.32639,-0.91763 c 0.016,-1.77528 -1.65924,2.57776 0,0 z m -55.114273,17.54234 c 1.150501,-1.45313 0.170483,1.14558 0,0 z m 18.69393,-2.33203 c -3.359665,-3.59126 -2.210652,-8.41222 -1.458838,-12.7371 0.09494,-2.57569 1.948764,-7.28018 0.622826,-8.53302 -1.333299,4.36088 -1.938472,8.90686 -3.046323,13.32643 -2.483197,-6.51843 -4.341431,-13.26217 -6.656405,-19.83609 -1.888082,0.38313 1.036327,6.18437 1.238893,8.48025 -1.406124,0.3716 -5.308474,-5.2774 -7.247572,-7.307 -0.568728,-0.86878 -2.462527,-2.64558 -1.936434,-0.49664 -2.222767,0.53626 -5.072377,-1.97238 -6.340309,-2.08323 0.08142,-1.5414 0.08354,-1.71925 0.503826,-1.94063 -2.690862,0.44213 -0.460874,-1.2198 -0.243205,-1.42192 0.08335,-0.72341 5.465707,-4.02931 4.227511,-1.68072 -3.005098,0.48388 0.261089,0.18596 0.617221,0.31324 -1.122884,0.48103 2.106508,3.74443 0.730665,1.00836 2.595752,0.29262 2.311723,1.47983 3.480241,0.29432 1.186131,0.92976 2.512882,-2.98624 1.644443,-0.15229 2.867402,-0.18854 2.404919,-2.91778 0.777087,-2.56104 -0.998602,1.42261 -3.564772,1.72653 -1.694478,0.13565 -0.0083,-1.77081 -0.700639,-2.26274 1.404929,-2.66892 2.076797,-3.05883 -0.642124,3.12363 1.589028,0.13292 0.65584,0.71519 3.952256,-0.27314 5.023903,-1.71283 -1.975745,-2.04961 4.002361,-3.55274 5.709781,-3.27321 2.061451,-0.6179 2.454763,1.03849 1.980448,1.63152 2.388345,-2.01051 0.233261,5.18186 2.663835,2.40127 0.34005,-0.35678 2.02521,-1.57209 1.33404,0.18504 0.66915,-0.50512 1.61071,-2.4536 1.99939,-2.03425 -0.30363,-1.85155 2.13866,0.33582 1.92506,1.43345 2.11528,-2.43351 3.02974,-0.63731 3.32693,-0.22477 1.72011,0.64378 -1.80574,2.60628 0.93421,1.60302 1.45415,-0.71562 1.98754,-1.08013 1.23554,1.18212 1.09705,1.45011 -0.53865,2.10471 1.51878,1.36057 0.91618,-0.0314 2.63978,-0.57521 3.06087,0.65483 -1.03429,-2.7015 4.11389,-1.36223 0.69735,-0.29227 0.0971,1.02174 1.61475,-0.5176 0.3114,1.6136 -1.79575,2.31466 -4.86145,-4.01101 -5.25104,0.0364 1.84508,-1.43004 -0.0693,1.53095 1.44245,0.65273 -1.49044,1.87575 1.93169,0.16553 1.75761,0.14663 0.84613,1.00572 0.17815,2.35755 -0.49019,2.65872 -2.00608,0.33902 1.81339,1.54038 -1.27579,1.24804 3.02011,2.05951 -0.31405,5.50468 -1.02377,8.44973 -2.78144,6.63049 -4.34711,14.32701 -10.27126,19.02279 0.78443,-5.0557 1.73964,-10.21148 1.88305,-15.36214 -2.30777,-1.69045 -1.33376,9.82598 -3.21053,4.51935 -2.093874,-2.92522 -0.1697,3.00779 0.46282,4.45645 -0.69411,3.18605 -1.45914,6.36587 -2.519179,9.4514 -0.585383,-0.61558 -0.978052,-1.37673 -1.438814,-2.08075 z m -5.551165,-26.68239 c 0.716319,-2.04047 0.62038,1.25772 1.325056,-0.0968 2.237313,-1.10571 -2.119427,-1.70762 -2.203284,-0.99571 -1.717054,-1.13406 -3.013956,1.1237 -1.398218,0.74194 -0.615516,-1.81045 3.187629,2.85041 2.276446,0.35055 z m -3.579746,-0.42653 c -1.034973,-0.42097 1.209334,-2.35649 -0.671869,-1.36909 -0.117378,1.22615 -0.09835,1.73 0.671869,1.36909 z m 4.943451,-1.69799 c 4.300229,0.108 -2.9976,-2.16573 -0.535906,0.19752 0.107235,0.1103 0.774529,0.1848 0.535906,-0.19752 z m -3.021172,-0.8316 c 1.664304,-0.0209 -1.485902,-0.79765 -0.08058,0.23354 l 0.08058,-0.23358 z m 8.7272,-1.0078 c 0.995635,-1.21634 2.384265,-2.95659 0.537585,-1.95322 -0.16124,0.37108 -2.234881,-0.8209 -2.543791,-0.25635 1.692118,-0.37202 -1.445951,2.37237 0.522816,1.23921 0.665055,0.0373 0.864181,1.81558 1.48339,0.97036 z m -14.882813,-5.66123 c -0.185192,-1.18775 -2.166522,2.84138 -0.174965,0.57084 z m 14.618229,-3.44298 c -1.083144,-1.12276 -0.559427,1.35428 0,0 z M 69.44153,141.17879 c 1.090388,-2.24969 -0.02638,1.39263 0,0 z m 42.53073,-6.28093 c 2.16547,-5.18148 3.46225,-10.69184 5.70718,-15.82997 1.08789,-0.19653 2.40301,1.03185 1.36097,-1.6033 -1.31218,0.9273 0.27068,-2.00214 -2.21496,-1.1401 0.17354,-2.75264 3.16184,-0.97707 4.12934,-0.0819 0.44148,1.20819 -0.20271,3.33204 -0.12149,5.04788 2.0576,-0.34776 3.22007,-5.42412 4.00794,-1.75735 -2.09048,1.22355 -2.58531,8.29553 -5.38809,5.18457 -2.98,0.70566 3.21195,1.25162 0.6459,1.97503 -1.9567,-1.91812 1.03266,1.73476 -0.94856,2.7824 -1.11313,2.55198 -5.5917,4.98994 -7.17823,5.4227 z m 8.35482,-13.33849 c -0.72504,-2.46361 -2.80475,-1.08938 -0.37956,0.35988 l 0.26807,-0.1658 z m 2.38125,-0.12603 c 0.40491,-1.1142 -2.01279,1.2128 0,0 z m 1.32292,-1.29461 c 2.23928,-2.47317 -1.94991,1.10799 0,0 z m -54.844456,9.62337 c -2.921262,-1.28079 0.838727,-1.05168 0.38561,0.32412 z m 52.934346,-2.06393 c 1.41401,-1.59508 4.12635,-3.03381 4.91012,-4.17803 1.50336,-2.27867 -3.18938,-3.93609 0.049,-3.00635 1.72831,1.96858 0.95108,4.62202 -1.49095,5.38861 -0.88054,-0.28518 -4.68259,4.80404 -3.46813,1.79577 z m 9.95546,-0.0867 c 0.2624,-1.22888 2.05774,1.17734 0,0 z m -8.8391,-2.31434 c -0.29648,-2.19339 5.01308,-5.04602 2.58876,-1.95292 -1.42534,-1.56463 -1.34788,2.03102 -2.58876,1.95292 z m -43.391669,-2.86548 c -2.402978,-1.52525 1.933745,-0.55681 0,0 z m 0.264584,-1.9244 c 1.222541,-1.07009 1.422681,1.0357 0,0 z m -3.836459,-0.52916 c 2.478208,-0.75643 -1.283938,1.01296 0,0 z m 0.132292,-2.11667 c 0.974244,-1.06476 1.015054,1.03502 0,0 z m 47.492462,-0.26419 c -1.17622,-1.51103 -2.55093,-1.9456 -2.45318,-3.58947 -1.31416,1.46292 -0.59147,-2.31654 -2.01028,0.23468 -1.87027,-0.9577 5.88993,-3.64331 2.56603,-0.62454 -1.05378,1.69634 4.0926,3.87081 1.89743,3.97933 z m 4.7262,-1.24133 c 0.45742,-1.57859 -1.73942,-0.26575 -1.50802,-2.00026 2.28541,2.18791 2.13793,-0.95133 2.27881,-1.38534 2.58457,1.3789 0.47375,1.70091 -0.77079,3.3856 z m -1.23483,-2.8212 c 1.36263,-3.15035 1.30098,0.79666 0,0 z m -8.23778,-1.16338 c -0.0103,-2.06644 3.27691,-2.03777 1.86748,-3.175 1.63973,-0.47519 3.25084,2.41214 0.15416,1.65542 0.10379,-0.39615 -2.51694,3.86992 -2.02164,1.51958 z M 81.697915,111.9083 c -0.386048,-1.50288 1.420047,1.26208 0,0 z m 3.439583,-0.89774 c 1.209143,-1.52211 1.081984,0.92935 0,0 z m 41.117352,-0.13743 c 0.0515,-2.04667 0.29073,-2.21683 -0.48546,-4.00147 2.97622,1.35584 -0.88264,-0.80106 1.39927,-2.44357 -1.75269,-1.5857 2.32031,1.01369 0.43463,-1.00398 0.0376,-2.08237 0.68347,-1.87263 0.58844,0.0236 0.57316,0.28679 0.674,-0.99241 2.18183,-1.53985 -1.36635,-3.470268 2.47897,-2.350682 3.12548,-0.66531 0.30008,-1.07462 -0.44909,2.7501 -0.54743,2.6782 -0.7248,1.69535 -2.83248,-0.25796 -3.22934,0.71576 -2.0046,-0.60338 -0.81562,3.86775 -0.0381,3.51547 2.33228,2.60722 -4.0517,2.09484 -0.89412,0.97249 1.37618,0.13913 -1.49468,-2.41718 -0.76721,-0.14088 -1.7026,0.70603 -0.31114,2.4277 -1.76796,1.88951 z m 1.21598,-5.19816 c 2.1567,-1.25002 -1.55622,0.49892 0,0 z m 2.23458,-2.0349 c -0.92993,-3.54863 -0.26317,3.81821 0,0 z m 1.20742,-2.57678 c -1.74815,-0.94515 0.35447,1.29998 0,0 z m -51.780614,9.01744 c 0.225697,0.2994 3.596513,-2.0492 2.773379,0.07 -0.668417,-1.16891 -2.454541,1.54171 -2.773379,-0.07 z m -6.555217,-0.67431 c 1.574008,-3.44461 1.95892,-0.32084 0,0 z m 5.416749,0.0387 c 1.070528,-1.47119 2.590738,-0.28771 0,0 z m 4.365625,-0.33285 c -1.873549,-1.46397 2.709471,0.83889 0.561044,0.33694 z m -2.464394,-0.52575 c -0.115679,-1.70393 4.388157,-2.14445 5.78615,-3.95422 1.814393,-1.01902 4.032881,-1.98617 1.085774,0.0661 -1.845402,1.6507 -4.923823,2.00797 -6.059727,4.12879 l -0.812199,-0.24068 z m 43.265851,0.099 c 0.76188,-1.21618 -1.7673,-1.73131 0.69275,-1.80905 0.39428,1.69852 0.97859,0.71611 -0.69275,1.80905 z m -5.47958,-0.66744 c 0.60952,-1.33117 3.01819,0.56257 0,0 z M 73.304006,107.0863 c -4.241399,-0.61918 3.260861,-2.97008 0.663234,-0.22515 0.74264,0.65406 -0.336084,0.67372 -0.663234,0.22515 z m 3.956626,-0.12237 c 0.886709,-1.48894 1.283122,1.41396 0,0 z m 10.180675,-0.21794 c 0.406224,-1.83504 0.913815,1.37667 0,0 z m 36.523793,-0.444 c -1.48859,-1.18594 2.03475,0.0745 0,0 z m -45.757512,-1.00372 c 1.3364,-2.92117 1.490017,-0.0536 -0.0051,0.65638 z m 9.046178,0.0282 c 2.638148,-0.81144 -2.12969,1.10855 0,0 z m 30.170944,-0.0705 c 1.54977,-2.27482 1.0283,0.78148 0,0 z m -2.3893,-1.17136 c 2.18485,-0.5549 -3.67946,-1.75906 -1.44906,-3.10361 -0.73819,1.86656 1.99863,0.66934 0.99187,1.93685 1.6236,-0.0203 2.03392,-3.516391 2.66356,-1.39442 -1.8858,-0.77175 2.82127,1.70834 -0.97925,0.96405 -0.63304,0.33739 2.44704,2.87517 0.0959,0.95432 -0.17318,0.62062 -0.57142,1.30591 -1.32304,0.64281 z M 73.009799,103.3897 c 1.655766,0.74886 2.481281,-2.32475 1.972736,-2.46861 -1.196971,0.17366 3.464348,-2.843378 1.682194,0.007 1.550816,-2.693965 4.596618,-0.992865 1.911056,1.28785 2.057962,-0.64245 -1.731197,1.12776 -0.626137,-0.4732 -1.839234,-1.781321 -2.676292,4.00083 -4.939849,1.647 z m 4.827987,-0.0435 c 2.548008,-0.93216 -0.667686,1.31412 0,0 z m -1.594792,-0.45349 c 1.653443,-2.01129 -0.201838,1.77639 0,0 z m 12.598671,0.16765 c 1.101452,-1.73536 1.193409,1.17801 0,0 z m 37.306245,0.0168 c 0.87496,-1.73406 1.09192,0.57274 0,0 z m -53.974995,-0.13238 c 0.911486,-2.01577 1.157976,-2.71572 1.7485,-1.89102 0.443387,3.05235 -3.66e-4,0.44396 -1.7485,1.89102 z m 7.475849,-0.70356 c 1.656231,-1.70048 -0.497208,1.50498 0,0 z m 0.726234,0.17293 c 0.453314,-0.6091 2.115167,-0.002 0.661458,0.10145 z m 10.020416,-0.22928 c 2.316785,-1.29748 0.510209,0.34929 0,0 z m 6.044253,-0.64943 c 0.787786,-1.07307 0.874158,1.51289 0,0 z m 31.033103,-0.60902 c 1.48288,-1.29266 0.10261,0.99488 -0.3621,0.37258 z m -30.429022,0.20856 c 1.426982,-2.524519 2.850258,-0.62678 0,0 z m -16.04332,-0.60224 c -2.814802,-1.127029 1.894284,-1.784714 0,0 z m 32.634922,-0.0777 c -0.0267,-1.786775 -3.95301,-0.0655 -2.95041,-3.704615 3.26327,1.591757 0.0734,-0.412491 0.76711,-0.671422 3.855,-2.588116 -0.21171,1.061694 2.0966,2.971919 0.86393,-0.621224 0.36144,-2.703349 0.63127,0.402724 -1.00688,1.935494 1.29601,-2.014019 1.76132,0.576244 -0.23289,-1.607988 1.87166,1.11608 -0.49421,0.41254 -0.60311,0.0319 -1.20931,0.0729 -1.81168,0.0126 z m 15.22454,-0.535448 c -2.08991,-1.051242 3.35541,-0.938221 0,0 z m -11.07406,-0.625161 c -0.96533,-3.651322 0.71281,-1.576745 0,0 z m -22.211258,0.0688 c -1.50368,-2.078833 4.047833,-0.786505 0.738979,-0.170004 -0.1875,0.1258 -0.871291,0.75628 -0.738979,0.170004 z m 8.877508,-0.254785 c 0.99452,-4.017751 2.76816,0.783184 0,0 z m 5.63514,0.32969 c -1.06773,-2.793878 1.38674,0.579824 0,0 z m -1.40347,-1.354274 c -3.87234,-4.427595 2.3762,0.674444 0,0 z m -4.97845,-0.09931 c -1.91513,0.714463 0.66466,-2.588523 1.19805,-0.06953 -0.50372,-0.09327 -0.93014,0.941348 -1.19805,0.06953 z m 18.48223,-0.209375 c 2.09031,-3.544869 0.25323,2.075203 0,0 z m 3.06802,-0.940448 c 1.67305,-1.539007 0.60349,0.622586 0,0 z m -20.63218,-0.266003 c -0.054,-2.819317 1.16882,0.500391 0,0 z m 19.14329,0.126069 c 1.98647,-1.758274 1.42783,0.855985 0,0 z m -14.55208,-0.529166 c -4.18564,-1.154216 2.49311,-0.677769 0,0 z m 13.75833,-0.308801 c 1.09848,-1.488401 5.17324,-0.895257 0,0 z m -20.10833,-0.203142 c -1.34237,-2.275667 -0.30467,-3.844318 0.1672,-0.661993 0.44869,0.268554 0.42283,1.421228 -0.1672,0.661993 z m 6.87917,-0.562006 c -0.9293,-0.783476 2.48832,-0.474728 1.92584,-2.154681 3.21177,-0.936214 0.49286,0.209663 0.33423,1.259594 3.78634,-2.282857 -2.01405,1.812626 -2.26007,0.895087 z m -1.6784,-0.711989 c 1.46573,-0.919106 1.62073,0.48479 0,0 z m -8.640352,-0.168008 c 2.147992,-2.097368 1.273032,0.186184 0,0 z m 3.923232,-0.49345 c 0.25887,-4.752786 1.92999,1.631951 0,0 z m 10.2597,0.175278 c -0.37942,-1.88034 1.19598,1.023986 0,0 z m 11.21707,0.155451 c -1.83874,-0.793295 1.47557,-0.291593 0,0 z m -14.5973,-0.385834 c -0.11267,-0.693025 -0.88082,-3.933738 0.21559,-3.184477 -0.97325,1.64782 1.02198,0.445265 0.12994,2.130051 1.39133,-0.654289 -0.64863,1.775638 -0.34553,1.054426 z M 98.998043,92.965684 c -1.167198,-2.52556 1.246597,0.06006 0,0 z m 14.979037,-0.428127 c 0.36132,-2.804317 1.78718,-1.226183 0,0 z m -2.14891,-0.315149 c 2.92043,-2.392966 1.40051,0.618424 0,0 z M 99.689581,91.852391 c 0.976589,-1.635676 4.457479,-4.433988 2.054449,-0.682599 -1.51451,-0.599145 -1.1312,1.517132 -2.054449,0.682599 z m 15.618459,-0.615304 c 0.86542,-1.651939 2.0088,-0.350653 0,0 z m -10.32679,-0.447704 c 1.03178,-2.910688 3.24583,-1.264672 0.54216,0.196611 -0.14783,0.242709 -0.64372,0.149896 -0.54216,-0.196611 z m 8.73125,-0.08011 c -1.36958,0.454274 0.11496,-3.052149 0.44621,-0.04735 0.33706,0.560158 -0.51785,0.654721 -0.44621,0.04735 z m -1.75435,-0.226827 c -0.24761,-1.582643 1.12271,1.082866 2e-5,0 z m -11.11574,-1.063692 c 1.74562,-1.249759 -0.71077,1.403043 0,0 z"
         id="path988" /><path
         style="fill:#168b81;stroke-width:0.264583"
         d="m 98.168227,154.7164 c -1.636391,-0.5891 2.115763,-2.60449 -0.904268,-1.14759 -0.66573,1.19388 -1.132959,-2.43353 -2.056181,-0.0221 -3.827724,-0.43449 -4.629977,-4.85353 -8.587156,-2.54576 0.166989,-1.03499 -3.778912,0.0231 -3.66667,-1.98461 -0.425688,-1.77924 -0.01689,2.88651 -1.229824,0.39687 -0.304533,-1.66436 -1.533779,-4.21256 -1.515317,-4.72446 -1.069038,-0.30151 1.809568,-1.83615 -1.044925,-1.13043 0.236546,-0.23567 3.469818,-4.60149 0.295796,-2.52483 -1.914468,2.06538 -5.563036,-1.6003 -0.933056,-0.91067 4.758803,0.54593 -0.877148,-4.56839 1.345249,-5.44397 -2.796474,-2.52557 3.217536,-0.39758 1.150906,-3.1769 -1.209658,-1.84533 -3.524348,-0.93448 -2.499876,-0.23883 -1.17203,0.98291 -1.007093,2.91686 -2.527555,2.68081 2.000655,1.44682 -0.743495,1.47001 -1.307127,1.62661 0.276441,-1.80879 3.037541,-3.34453 2.461871,-3.94017 -0.434701,-0.84329 2.291446,-2.95407 0.356998,-3.67659 5.564759,5.29693 11.666679,10.08311 16.694619,15.9114 1.913309,3.47346 4.658202,7.1101 5.209013,10.93632 -0.401014,0.16988 -0.844292,-0.0789 -1.242497,-0.0851 z m -12.316008,-5.51799 c 1.256605,-2.40365 -1.74375,-0.8318 -1.645668,0.58296 0.530848,-0.21727 1.02225,-0.70133 1.645668,-0.58296 z m 4.254678,-0.52244 c -4.491792,-2.49916 1.495264,1.96961 0,0 z m -6.821482,-1.6089 c -0.508715,-0.50811 -2.088435,0.39266 -0.661459,0.2279 z m 20.835935,7.12451 c -2.08738,-3.61869 1.64152,-7.54592 3.51516,-9.79511 4.25287,-5.97301 10.19674,-10.45338 15.8747,-14.98653 1.34593,0.0863 1.75258,-2.05034 2.0683,-0.69294 1.29483,0.16661 -0.58216,1.39262 -0.0899,2.23466 1.7914,-0.49416 0.82065,1.68428 -0.57139,0.6048 -1.05963,1.43921 1.6031,0.65679 2.25409,1.04108 0.60595,-0.67617 3.58911,-1.19237 3.44494,-2.89925 -3.02288,-3.17998 2.98106,1.36794 -1.13763,2.04552 -2.83072,1.67739 3.6927,1.22909 -0.56783,1.75323 -3.18006,1.41054 2.64952,-0.1808 2.96232,0.60414 0.36761,-1.8966 2.15738,-1.69892 3.07302,-3.87387 1.91449,-1.97317 -2.63843,4.5734 -0.1906,1.48932 1.9507,-1.22481 1.72855,1.27213 0.50513,0.82684 -0.92755,1.94123 -4.75594,3.30581 -4.80014,1.84117 0.51523,1.19342 -2.78725,4.12389 -0.95633,3.37994 1.11635,0.027 7.17752,-3.14888 3.37461,-0.95026 -1.83395,1.05769 -1.08205,4.19776 -2.85015,2.78142 -2.33105,2.34946 -3.91892,2.65528 -6.44068,2.51224 -1.09028,0.0521 -2.52341,3.85293 -1.91371,6.04513 -0.40089,2.71199 -4.41742,-0.99591 -5.20342,1.87629 -1.78553,0.76325 -0.16316,1.48609 0.62599,0.58712 2.90935,2.71132 -2.70764,0.93666 -2.66674,3.13205 -1.59423,-0.63418 -3.25336,-4.28062 -2.96094,-0.62074 0.78322,2.46322 -2.62921,-0.23733 -4.50939,0.6884 -3.48972,-2.19438 0.26337,0.53314 -2.83942,0.37535 z m 5.84908,-0.84693 c 0.33603,-1.64306 -1.78673,0.91338 0,0 z m 5.58256,-12.60389 c 1.05658,-1.63137 -2.34646,0.9839 -0.30854,-0.0266 l 0.30822,0.0266 z m 2.15031,-0.12513 c 1.79683,-2.07178 -3.87491,-1.3743 -0.16877,-0.70981 -1.08617,0.5982 -1.92838,1.4182 0.16877,0.70981 z m -2.81669,-1.55992 c -1.25624,0.29566 -1.87214,2.55783 0,0 z m 6.79239,-3.4204 c 0.63069,-2.79703 -2.92266,-2.00158 -0.47984,-0.63786 -1.30341,0.79951 -1.83892,2.51887 0.47984,0.63786 z m -1.6165,-0.0971 c -0.53237,-0.68852 -1.13051,1.11392 -0.12308,0.22968 z m -2.08156,-0.25471 c 1.686,-2.42883 -2.42061,2.0007 0,0 z m 5.87815,-2.74612 c -2.12392,-3.80981 0.13641,2.81942 0,0 z m -1.01847,-1.40263 c -1.00499,-2.51035 -1.47094,2.97873 0,0 z m 1.41174,-0.12402 c 0.19972,-3.9718 -1.59952,0.69009 0,0 z m -26.080693,13.79423 c -3.157227,-3.49761 -1.767713,-8.15336 -1.142366,-12.29359 0.0041,-2.42808 2.140941,-7.59141 0.526163,-8.5255 -1.386567,4.33407 -1.930498,8.89504 -2.985266,13.31793 -2.003724,-5.35335 -3.880867,-10.81495 -5.241551,-16.37141 0.2303,-1.84651 1.74649,0.52845 2.158859,0.51762 0.208363,0.43449 3.726862,-0.11718 3.515923,-2.42433 1.659979,-1.49417 -0.172857,0.71637 2.040326,-0.54238 1.342178,-1.49338 6.216545,-2.58271 5.773915,-4.80349 -0.77497,0.11909 0.41287,-1.20959 -0.90299,-1.0438 -0.5832,-2.57559 -5.054763,-3.16129 -7.400512,-1.15436 -0.376629,-1.87256 -2.569331,0.42054 -2.212677,-1.47589 -2.134974,-0.77618 0.505248,-1.32947 0.338681,-2.28043 0.846989,0.42201 5.873542,-0.85089 3.85922,-0.9517 -1.624459,-0.2491 4.024358,-1.68331 3.228575,0.44296 0.815423,-2.47757 0.892493,1.91352 2.607503,0.47089 2.1122,-0.61939 2.43164,-1.74896 5.48682,-1.26837 3.32305,-1.82174 0.0923,0.84715 0.8847,1.32314 1.31774,0.0126 2.11575,-1.44705 0.98345,1.35499 1.08573,-1.15056 4.36846,-2.09022 1.90545,0.83575 2.44976,-1.17419 -0.0958,1.52507 1.14048,3.18635 -1.17787,1.84845 2.03202,-1.12368 0.48235,1.02778 2.37761,-0.82212 1.61116,-0.007 1.15647,1.04992 3.41701,-0.83531 -1.41714,2.06962 0.12179,3.07253 -0.26977,1.59254 2.99083,-0.39342 0.86998,2.34637 -2.89882,6.49688 -4.6135,13.55133 -8.32156,19.65877 -1.17773,0.42514 -3.84431,0.8755 -1.17792,1.01612 -0.98289,1.81418 -3.62237,4.90239 -2.19161,0.8923 0.69992,-4.47298 1.44872,-9.01047 1.34493,-13.54035 -2.4346,0.0905 -1.26051,10.4303 -3.21324,4.44381 -2.525228,-1.67015 0.60825,3.7579 0.48974,5.41844 -0.79925,3.01969 -1.45064,6.0868 -2.498165,9.03374 -0.54245,-0.91108 -1.085217,-1.82366 -1.627468,-2.73381 z m 12.979673,-15.55073 c -0.94034,-1.40994 -1.92189,1.49277 0,0 z m 1.23824,-12.74806 c -0.87938,-1.71062 -0.90382,2.86797 0,0 z m -3.9365,-2.32333 c -0.62468,-1.71381 -0.87118,0.94557 4e-5,-4e-5 z m -1.01392,-6.37553 c -0.0443,-1.64319 -0.8489,1.66271 0,0 z m -8.278745,-0.80644 c -0.994948,-1.43275 -1.134078,1.49664 0,0 z m -1.058334,-0.51647 c -1.14376,-0.93147 -1.456144,0.49765 0,0 z M 75.612498,146.544 c 1.656568,-1.46577 1.365571,1.04521 0,0 z m 1.455208,-0.91763 c -0.210999,-0.38379 4.882394,-1.01019 1.05833,0.11496 l -0.529167,0.0245 -0.529167,-0.1395 z m -0.06615,-5.98086 c -1.03713,-1.13217 2.450959,0.0329 0,0 z m 11.529939,-4.26312 c -2.86675,-1.49782 -2.46444,-4.59332 -4.036674,-6.09388 -0.200152,-2.77626 -3.541837,-2.43083 -3.260468,-5.33715 -0.202729,-2.38539 1.292254,-4.28181 2.515731,-1.08213 2.485272,3.81115 6.838094,6.71965 7.236856,11.57473 0.580035,2.19889 1.30272,5.13408 -1.251073,2.01567 l -0.582646,-0.5188 -0.621731,-0.55844 z m -3.016525,-6.06873 c -1.512672,-0.92116 0.631614,1.62722 0,0 z m -15.339615,8.2362 c 0.05163,-2.02655 3.295575,-1.62567 0.470419,-0.84603 2.164134,0.79693 -0.890443,1.47945 -0.470419,0.84606 z m 3.700213,0.18309 c -1.662403,-2.69435 2.786614,0.20836 4e-6,6e-5 z m -4.348491,-1.35064 c 0.952176,-0.92701 -0.783924,-2.17929 0.880775,-0.52094 -0.02255,0.42012 -0.843999,1.72915 -0.880775,0.52094 z m 3.973954,-0.26136 c -0.428797,-1.18442 1.805216,0.23434 0,0 z m 39.317419,-3.36032 c 1.71405,-4.38481 2.85074,-9.02088 4.82467,-13.28377 -0.45072,1.77095 0.35896,1.5196 -0.47159,2.6021 1.41017,0.98027 1.31463,4.29793 2.66326,6.1221 -1.04452,2.55126 -4.31626,5.19389 -7.33331,6.75356 -1.00023,0.79094 0.33394,-1.94395 0.31697,-2.19399 z m -39.058039,1.72581 c 2.45198,-2.70861 0.01851,2.00796 -0.279786,0.23482 l 0.190834,-0.16016 z m -1.893151,-0.54352 c 1.033163,-4.35208 0.982253,1.21311 0,0 z m 2.025442,-1.79394 c 0.152973,-0.88104 1.485434,0.6244 0.23207,0.18686 z m 10.313372,-0.47131 c -1.789935,-1.23754 -3.970993,-3.67066 -1.104508,-1.17448 1.382494,0.1983 3.92074,2.57296 1.104508,1.17448 z m -7.79983,-1.61493 c 1.477177,-2.09138 1.440985,0.39868 0,0 z m -2.233798,-1.464 c 2.251715,-1.33345 -1.303772,1.61023 0,0 z m 5.78636,-0.44955 c -1.614083,-1.04888 3.020462,0.0985 0.411696,0.36153 l -0.411696,-0.36156 z m 56.780854,-1.19742 c 1.31135,-3.0269 0.15951,1.85391 0,0 z m -49.786158,-2.42002 c -2.86149,-2.58204 -3.136489,-4.55384 -5.545917,-6.50745 -1.606964,-1.29158 2.915965,-0.10861 -0.56957,-0.9523 -3.135903,-0.84676 4.100999,-0.0286 0.198437,-1.06234 1.823901,-0.50951 3.590203,0.8821 3.620905,2.10915 0.275113,-3.3726 1.561418,1.83136 2.169768,-0.55293 0.851313,3.0818 1.683707,6.17584 2.403793,9.29169 -0.785111,-0.74941 -1.526347,-1.54299 -2.277416,-2.32582 z m 33.615408,1.05307 c -2.21607,-2.81846 2.34929,1.32705 0,0 z m 16.84966,0.0195 c -1.19431,-3.02046 1.9258,0.4934 0,0 z m -16.53755,-0.7779 c -0.7291,-1.95051 -2.3533,-0.43286 -0.4528,-2.8585 1.72251,-1.27295 -0.0687,2.24238 0.68605,2.90903 l -0.18036,0.0543 -0.0529,-0.10479 z m -0.97912,-4.20849 c 0.86929,-2.2761 0.35914,1.69158 0,0 z m -29.905,-1.53183 c -0.01255,-1.00957 2.302314,0.21114 0.34851,0.32968 z m -10.812531,-1.23177 c -1.62312,-0.8579 2.49035,-0.19246 0,0 z m 16.536458,-0.25748 c 0.97423,-1.06479 1.015067,1.03503 0,0 z m 1.389063,-0.31099 c -2.710202,-1.0745 3.79014,0.32941 0,0 z M 74.937539,115.621 c -1.332293,-3.99644 2.182322,3.17578 0,0 z m 41.949961,0.64641 c 1.55499,-1.49003 2.87006,0.26097 0,0 z m -20.902085,-0.27126 c 1.544534,-1.58585 -4.546887,0.0552 -1.262997,-2.17992 -1.153255,2.13654 5.107888,-0.41902 2.007651,2.32536 l -0.744659,-0.14552 z m 1.980284,-0.7739 c -0.843278,-1.20719 -2.744807,-2.10194 -0.06206,-1.02847 0.706754,0.21805 0.931684,1.52325 0.06206,1.02847 z m -23.584816,-1.73783 c -0.21377,-1.63578 1.1891,1.39501 0,0 z m 46.475367,-0.52473 c 1.48185,-1.72115 3.26222,0.47771 0,0 z m -3.96875,-0.62935 c -3.0682,-3.937 4.62568,0.50208 0,0 z m 2.44046,-0.0718 c -0.15427,-1.37688 1.63628,-0.94375 0.32499,-0.25798 l 0.0828,0.5392 -0.40777,-0.28121 z m 2.58662,-1.65943 c -1.16601,-2.3629 2.59786,-0.12698 0,0 z m 7.14375,-0.92417 c 0.19506,-2.92086 1.4739,-0.0362 0,0 z m -0.92475,-3.18852 c 0.42684,-2.63814 0.62478,0.64234 0,0 z m -30.097645,-1.64228 c -1.547295,-2.96111 3.305585,1.88139 0,0 z m 29.237175,0.13086 c 1.61354,-0.29258 -0.0799,-2.67159 1.75805,-0.72415 0.0196,0.53574 -1.91451,1.43056 -1.75805,0.72415 z m 3.53492,-0.73112 c -2.92438,-1.74277 1.68991,-1.52361 -0.0527,-4.004 3.44651,-1.546424 2.30373,5.52551 0.0528,4.004 z m 1.38457,-2.53012 c -0.49801,-1.58206 -1.14549,2.28018 0,0 z m -36.154591,2.24362 c -0.308048,-2.40131 5.607301,0.41182 1.4084,-0.52255 -1.7651,-0.56984 0.46914,1.80631 -1.4084,0.52257 z"
         id="path986" /><path
         style="fill:#11897f;stroke-width:0.264583"
         d="m 98.789088,154.67988 c 0.138394,-1.54089 1.287522,0.42765 0,0 z m 4.923112,-2.29029 c -0.17569,-2.13623 0.56305,-4.9826 1.71892,-4.20389 1.46434,-0.76198 1.91512,-3.41539 3.13447,-1.10051 -1.29043,-1.46914 3.21687,-0.31378 1.44274,-1.97169 -1.61443,0.96617 -3.33219,-1.96207 -1.41653,-1.57288 0.33312,2.82564 1.99074,-1.78855 3.10045,1.45045 1.26513,-0.36074 5.14586,-4.09219 5.55299,-0.55342 1.39941,-0.0942 1.29678,-2.75409 3.74322,-3.55788 2.3119,-0.0536 0.0621,4.52511 0.36213,5.87998 1.03286,3.09768 -0.46815,2.26583 -2.48393,2.04132 -1.93779,-1.72427 -6.34161,3.69674 -1.57608,2.45456 1.90794,1.63603 -3.42669,0.16951 -2.90594,2.46537 -2.38699,-1.26228 0.36183,-0.94285 -2.41828,-2.36047 -1.55337,-0.43775 0.27801,3.49797 -2.076,1.32902 -2.34777,0.51211 -4.18835,0.40227 -4.04925,-1.09495 -1.49778,-0.47794 -2.37247,3.26984 -2.12891,0.79499 z m 16.21801,-4.36925 c -0.92243,-1.3356 -1.0541,1.65676 0,0 z m -26.242524,4.92089 c -2.47774,-1.65279 -1.087628,-4.38759 -4.044548,-4.9779 1.112125,0.68027 4.653646,-3.25935 1.38765,-2.14029 1.072054,1.81389 -2.2279,-3.02069 -1.02221,0.43521 1.37632,2.48227 -2.753227,-4.00461 -1.1622,-0.85345 -0.921833,1.44143 -1.593326,1.18947 -0.0045,1.34414 -1.90667,0.80607 -4.961274,-0.78883 -5.147459,0.27805 -0.982268,-1.2081 -1.094645,-0.88951 -3.043942,-0.88387 3.094768,-2.38621 -0.613469,-3.95185 3.267732,-5.39172 2.2437,-0.30147 1.814499,-2.65129 3.02799,-3.64249 -1.522741,-0.44518 -3.592692,-3.53734 -4.128303,-4.1692 5.205096,4.73953 11.231227,9.07277 14.07911,15.75364 0.129796,1.33256 3.363524,3.86307 0.826006,4.20434 -1.365753,-0.0217 -3.661009,-2.37655 -2.061439,0.43785 -0.698137,0.19467 -1.362109,-0.12006 -1.973918,-0.39431 z m 2.980116,-3.44519 c 0.436779,-1.08215 -4.131522,-1.03001 -0.934201,-0.12531 0.115463,0.5454 0.672674,0.60057 0.934201,0.12531 z m -0.820338,-2.0075 c -2.10553,-1.06327 0.934209,1.53051 0,0 z m -9.018482,-3.05809 c -0.238823,-2.49365 -1.437926,1.66643 0,0 z m 4.015052,-2.67271 c 2.738463,0.86871 -2.836213,-4.48272 -1.105255,-0.61294 1.087246,0.76208 0.267456,2.40148 1.105255,0.61294 z m -1.477254,-1.17157 c -2.777758,-0.46488 -0.05792,1.56311 0,0 z m 9.295887,5.0172 c -2.799476,-1.77682 2.278923,-3.65684 -0.218281,-3.9914 -2.110388,4.05453 -2.961008,-4.13329 -1.86165,-6.02268 0.009,-3.3107 2.798523,-10.46985 0.881787,-11.60712 -1.277061,4.44349 -1.959405,9.03662 -2.934316,13.5536 -1.245591,-3.86868 -2.629416,-7.69735 -3.750289,-11.60278 0.762597,1.85924 2.896469,-0.3538 0.506849,-0.28607 -0.395177,-1.79725 0.05729,-4.88805 0.882198,-1.96463 1.595282,2.1679 1.042226,0.26859 -0.262799,-0.84403 1.632695,-0.16855 1.829303,-0.12488 2.147969,-1.06347 -0.238368,1.78478 3.366561,-0.2999 0.894472,1.5627 0.880762,-0.38038 1.935218,-1.12863 1.966361,-0.93097 -0.387738,-1.42773 2.422024,2.76443 1.008527,-0.47175 2.741385,0.67025 -0.434451,4.09008 0.306717,6.45509 -0.29441,1.80462 -0.126147,2.87582 1.992588,3.98796 1.12434,0.29678 -2.227454,-2.6014 0.64108,-1.98576 0.027,-1.23936 -3.539573,-0.22497 -1.577996,-1.52542 2.696536,-0.0303 4.026016,0.71777 3.474016,2.48854 0.70733,0.0774 1.40153,-5.76811 3.1985,-2.4636 0.69523,-2.31311 3.49889,-1.08707 2.37909,-4.34498 -0.74765,0.88267 -2.11923,-1.04339 -3.15785,0.25554 -0.7331,1.73371 -0.73566,-1.94338 -2.04647,-2.66964 1.93612,-1.00378 0.7587,-2.05169 0.4358,-4.08489 2.3893,1.6409 0.008,-2.92978 2.48342,-1.12026 -0.46048,-1.84417 2.12703,-3.29744 2.11269,-1.6131 0.58522,-2.47927 1.80725,3.54362 0.003,1.11683 -1.02903,-0.93202 0.41863,2.36287 -1.22656,0.38974 -0.45025,1.73475 -0.90689,2.15534 -1.55142,3.7741 0.87122,1.31171 3.47908,-0.7449 1.96665,1.16413 1.54026,1.92084 2.51175,-1.87004 0.80744,-0.51493 1.69766,-1.52459 2.58249,-2.61161 4.61506,-2.4677 1.73119,0.89189 4.07032,-0.77768 2.58887,1.65574 -1.55064,1.77788 -1.5965,6.3969 -3.82414,8.54263 0.35246,-3.52287 -4.54399,-0.008 -2.48377,1.45918 -2.93649,-1.80013 0.25122,2.44799 0.28625,0.67323 1.88474,-0.57704 -0.6291,-0.57134 1.95827,-0.52973 -0.17908,2.90034 -1.74553,4.26231 -3.03568,3.35182 2.94572,1.27194 -0.33177,4.12076 -1.04104,6.09767 -0.66081,0.74749 -1.68251,-0.48059 -1.97418,-0.0456 -0.68857,-0.20863 -1.76219,1.57079 -1.03036,-0.90439 -0.0589,-3.46705 1.91197,-7.84441 0.37449,-10.82223 -1.73194,2.41561 -1.05235,9.64216 -3.05586,4.22492 -2.236318,-0.019 0.87035,4.00155 0.74118,5.82033 -0.66949,2.09478 -0.70621,4.62053 -1.95276,6.37201 0.1244,0.0915 -1.676793,2.59683 -0.1322,1.46407 -0.065,2.21768 -1.114813,0.0657 -1.535983,-0.53273 z m 0.525211,-0.83278 c -1.248348,-0.53604 0.376498,1.28204 0,0 z m 1.016742,-0.73823 c 2.07921,-1.13034 -2.390879,-5.80385 -1.738946,-5.9328 -4.204763,-0.33959 1.045078,2.89587 1.676766,4.83747 -1.105245,-1.17347 -2.289543,2.10384 0.0622,1.09533 z m 5.78004,-4.8058 c 0.26909,-5.46383 -3.1223,1.58664 0,0 z m 2.96534,-2.88653 c -1.27096,-0.41828 -0.3573,2.18335 0,0 z m -8.58668,-1.93475 c -0.30032,-1.69763 -0.911573,2.56456 0,0 z m 5.93679,0.42735 c -0.49906,-2.30085 -1.46844,1.72148 0,0 z M 94.88057,132.0681 c -0.372975,-2.60628 1.467581,1.31842 -0.166494,-1.46078 -1.810754,1.20241 -0.871799,-1.52988 -1.779731,0.46309 0.56871,1.11861 0.70888,2.58471 1.70382,2.48759 -0.08534,2.18224 0.783725,-1.2462 0.242405,-1.4899 z m 4.099954,1.14686 c -1.202361,0.46526 0.319654,1.59346 0,0 z m 0.973641,-0.25663 c -0.783683,-3.32823 -0.711825,2.68188 0,0 z m 8.242155,-0.12315 c 0.3488,-1.40974 -3.01581,1.8539 -0.32168,0.054 z m -1.45832,-0.75761 c 2.0515,0.85868 -0.43426,-3.22374 0.83616,-2.78612 -0.004,-3.40726 -4.52098,4.36248 -0.88233,3.23954 l 0.082,-0.18145 -0.0358,-0.27198 z m 2.41595,0.28636 c -1.18155,-1.44103 -0.20422,1.09381 0,0 z m -13.676009,-3.08485 c -0.390371,-2.74114 -0.52981,1.34488 -2e-6,0 z m 13.006919,-1.50422 c -1.24769,-0.75179 0.37309,1.97798 0,0 z m 0.62275,-0.28554 c 1.24912,-0.003 0.7275,-0.82467 0.24254,-1.78729 -0.71061,-0.003 -0.53788,3.28621 -0.24254,1.78729 z m -15.907483,-0.11445 c 0.784092,-1.80617 -0.988411,-0.0387 0,0 z m 19.922633,-2.32023 c -0.59229,-0.82991 -1.11318,1.40059 0,0 z m -6.81454,-1.43849 c 1.63635,-0.10225 -1.35027,-0.61938 -0.0806,0.23354 l 0.0806,-0.23358 z m 6.70621,-2.71198 c 3.00255,-2.25182 -2.42932,0.41265 0,0 z m 0.43348,-1.57532 c -1.44627,-1.20613 -1.2274,1.41513 0,0 z m -1.38906,25.36901 c 0.47433,-2.17621 -0.51867,-2.24116 -1.18449,-0.77305 -0.89439,-2.30864 2.23227,-2.96891 2.05898,-0.77795 0.0606,0.20254 -0.80029,0.57329 -0.87449,1.551 z m -8.6651,-0.90723 c 0.47272,-1.51066 0.4539,1.45219 0,0 z m 5.88698,-1.16178 c 1.51561,-2.6117 4.09141,-4.44724 6.15154,-6.64343 -1.8991,2.16904 -4.4258,3.94595 -5.68852,6.55276 0.13479,0.75231 -0.53556,0.98442 -0.46302,0.0907 z m 14.75052,-1.48406 c 1.5132,-1.29967 3.68723,-3.35001 2.40062,-0.13463 -0.82404,-1.06163 -1.96896,1.01395 -2.40062,0.13463 z m 3.37344,-0.15265 c -0.19206,-2.42197 1.60497,-2.44682 1.92228,-1.76558 1.54327,1.2357 -1.69897,1.16537 -1.92228,1.76558 z m -6.81303,-1.42647 c -1.4664,-1.81244 2.3894,1.63559 0,0 z m -6.81853,-0.85174 c 1.01454,-1.43717 0.72024,1.16696 0,0 z m 11.39004,-0.24721 c 0.45161,-1.9279 0.90494,-3.4073 -1.36617,-3.64449 2.13469,-0.54649 4.03356,-2.25532 5.86921,1.13222 -0.10005,0.5902 -3.51499,2.32899 -1.4261,-0.14415 -0.86089,1.34337 -1.78398,1.32482 -2.10621,1.21658 0.21158,0.58346 0.1253,2.53563 -0.97073,1.43984 z m 1.6179,-3.56127 c 0.37107,-1.8021 -1.31547,1.49289 0,0 z m 2.90425,3.26278 c 0.62894,-2.65279 1.20508,2.33514 0,0 z m -2.21449,-0.16604 c 1.56167,-2.30146 1.0254,0.88581 0,0 z m -36.606921,-0.57904 c -1.725459,-2.27722 -6.09727,-4.80329 -7.578493,-6.72381 1.4331,1.60888 5.008014,3.2571 3.649492,0.32468 1.774495,1.34181 1.746339,-1.95334 1.421822,-1.49278 -1.114167,-0.77975 -2.953089,-5.72591 -4.017036,-4.15119 -1.114682,1.33404 -3.675627,-1.74651 -1.893481,-2.07783 0.201448,-3.87182 2.886096,2.59553 4.575449,3.70123 3.094519,2.12875 3.888237,7.25123 4.374013,9.57856 0.20603,0.64505 0.668896,1.98399 -0.531766,0.84114 z m -0.483317,-2.18574 c -1.401834,-0.93221 1.307507,-2.96778 -1.935802,-2.2193 -2.676012,0.34928 1.160697,2.17608 1.795049,2.74578 l 0.140753,-0.5262 z m -0.216011,-3.47574 c -0.888224,-3.39576 -1.800924,2.66412 0,0 z m 25.796879,3.89084 c 1.10686,-1.48755 7.61087,-5.9415 4.02835,-2.91074 -1.13571,1.28291 -2.6786,1.90463 -4.02835,2.91074 z m -3.51079,-1.90936 c 1.83604,-3.79505 -0.76086,4.45602 2e-5,0 z m 18.45974,1.32165 c 1.30253,-0.74351 5.76642,-3.58689 2.56524,-0.91923 -0.8306,0.34781 -1.64641,0.85566 -2.56524,0.91923 z m -16.65104,-2.08901 c -2.08591,-2.69506 1.55833,-7.21303 2.444,-10.71235 -0.47864,2.5517 0.73789,-0.32273 1.47104,2.68713 -3.25986,0.27328 3.35895,1.74897 -0.37243,1.76349 -2.53816,-0.0917 0.11707,0.59032 -0.14522,0.82594 2.79984,-0.48008 0.41284,5.15474 -2.27285,5.46527 -0.24802,0.60442 -1.02615,0.46372 -1.12454,-0.0295 z m 1.81188,-2.19178 c -2.44061,-1.47939 -0.87089,0.45958 0.008,0.8501 l 0.10831,-0.40566 -0.11631,-0.44438 z m 1.77363,-0.104 c 1.87332,-1.64391 -2.84199,-0.53009 0.0101,0.3149 l -0.0101,-0.31515 z m 14.73808,2.40444 c 1.02239,-1.05341 1.20889,1.09212 0,0 z m -53.415232,-3.38288 c -2.531853,-2.74853 2.837572,2.6906 0,0 z m 6.377944,0.61359 c -0.230739,-1.07213 1.585341,0.65546 0.222567,0.17395 z m 13.277978,-2.206 c -0.131767,-1.65705 1.58914,0.70509 0,0 z m 1.77267,0.13315 c -1.628351,-1.56012 2.01489,-3.1835 0.25419,-0.48221 0.54326,0.38601 0.88435,1.08304 -0.25419,0.48221 z m -12.249118,-2.41758 c 0.0129,-0.23605 0.09591,-3.06453 -1.31877,-1.77958 0.617729,2.1754 -4.542128,-4.98761 -1.663592,-2.14879 -2.032252,0.59094 4.729266,0.99047 1.466036,-1.19952 -2.233034,2.33926 1.615554,-1.89827 -0.772604,-0.41113 -3.595669,1.12479 -0.860291,-2.54512 0.872103,-0.99647 0.145278,-0.30608 3.061155,8.15113 1.416827,6.53549 z m -2.547581,-6.33101 c -1.38972,-0.0844 -1.290688,1.20288 0,0 z m 16.995569,4.09855 c -0.76322,-2.2752 0.39692,-1.19306 0,0 z m -13.371442,-1.68268 c -0.699846,-3.1553 1.168758,2.75123 0,0 z m 13.302242,-0.50775 c 1.65737,-0.97136 -0.70002,1.40285 0,0 z m -21.029903,-3.0761 c -2.390162,-2.88895 2.258579,2.37692 0.569019,-0.2787 3.119291,-0.69698 -0.01988,2.44117 -0.569019,0.2787 z m 18.543553,0.14665 c 0.66719,-1.34954 1.5776,0.30665 0,0 z m 12.4553,-0.85031 c -0.007,-1.19939 2.41674,-0.69042 0.39644,0.008 z m 0.34697,-1.30224 c -0.96777,-2.06265 -0.66535,-1.09736 0.406,-1.22093 1.11819,-2.10804 -0.0313,1.94804 -0.406,1.22093 z m -10.97108,-0.27746 c 0.95317,-2.64599 4.30763,-2.03691 0.94159,-0.76417 l -0.665,0.6244 z m -8.202082,-1.04724 c 1.778634,-0.91006 1.832566,0.82318 0,0 z m 12.011622,-2.07777 c -0.78354,-3.02339 -0.59401,0.91381 -2.98864,-0.55996 -0.14838,-2.59602 -4.019122,-3.13098 -6.811839,-1.71742 -1.04635,-1.02666 0.343954,-0.38422 -0.736508,-2.03493 2.891958,-0.2543 -0.206949,-1.10971 2.383462,-1.22811 0.389761,1.40326 0.831496,0.23239 -0.06799,1.52098 3.245085,1.18978 0.548664,-0.19375 2.597465,-1.46425 -0.290573,1.84688 0.2436,2.22762 0.61843,0.73552 0.36951,2.33786 3.70763,-1.07542 3.69014,-0.65415 0.45296,-0.18641 3.14757,1.89245 2.4033,3.34041 0.9706,0.3046 -0.44492,2.21795 0.0426,2.19762 l -0.4608,-0.0249 -0.66974,-0.11075 z m -0.1645,-2.68263 c 1.15545,-1.45074 -0.59208,-1.41001 -0.6398,-1.89785 -0.0555,0.29963 0.14375,4.00998 0.6398,1.89785 z m 5.79645,2.42793 c 0.43619,-1.65901 1.96987,-1.20475 0,0 z m -3.81909,-2.07615 c -1.04026,-1.82401 1.90067,1.42599 0,0 z m -15.444229,-0.10786 c 0.219236,-1.0264 -2.037365,-0.82654 0.600027,-1.39292 0.725043,0.48596 -1.056521,2.42514 -0.600027,1.39292 z m 1.088368,-0.58586 c -0.344241,-3.28412 1.749036,0.0263 0,0 z m 14.554291,-0.46561 c 0.94801,-1.99173 1.05789,0.92555 0,0 z m -2.76546,-2.5694 c -1.0293,-1.20147 2.02596,0.88616 0,0 z m 26.49464,-2.65456 c -0.9338,-0.61063 -2.95937,-0.88324 -0.20471,-0.83987 1.20913,-2.62776 0.24826,2.26107 0.20471,0.83987 z m 0.80041,-2.48135 c 0.82617,-1.60585 0.74379,1.90129 0,0 z m -0.83948,-1.07435 c 1.39653,-0.997799 0.88181,0.94311 0,0 z"
         id="path984" /></g></g></svg>
