<?xml version="1.0" encoding="UTF-8" standalone="no"?>
<!-- Created with Inkscape (http://www.inkscape.org/) -->

<svg
   width="78.999336mm"
   height="96.710938mm"
   viewBox="0 0 78.999336 96.710938"
   version="1.1"
   id="svg661"
   xml:space="preserve"
   inkscape:version="1.2.2 (732a01da63, 2022-12-09)"
   sodipodi:docname="arbustif-arrondi-natural_canopy.svg"
   xmlns:inkscape="http://www.inkscape.org/namespaces/inkscape"
   xmlns:sodipodi="http://sodipodi.sourceforge.net/DTD/sodipodi-0.dtd"
   xmlns="http://www.w3.org/2000/svg"
   xmlns:svg="http://www.w3.org/2000/svg"><sodipodi:namedview
     id="namedview663"
     pagecolor="#ffffff"
     bordercolor="#666666"
     borderopacity="1.0"
     inkscape:showpageshadow="2"
     inkscape:pageopacity="0.0"
     inkscape:pagecheckerboard="0"
     inkscape:deskcolor="#d1d1d1"
     inkscape:document-units="mm"
     showgrid="false"
     inkscape:zoom="2.2173472"
     inkscape:cx="125.14955"
     inkscape:cy="122.21812"
     inkscape:window-width="2560"
     inkscape:window-height="1369"
     inkscape:window-x="-8"
     inkscape:window-y="-8"
     inkscape:window-maximized="1"
     inkscape:current-layer="layer1" /><defs
     id="defs658" /><g
     inkscape:label="Calque 1"
     inkscape:groupmode="layer"
     id="layer1"
     transform="translate(-57.235151,-126.72333)"><g
       id="g794"
       transform="translate(10.546875,38.1375)"><path
         style="fill:#f2f7e8;stroke-width:0.264583"
         d="m 88.408142,185.13734 c -1.142938,-9.5682 -1.448609,-19.25961 -1.305357,-28.89537 -0.630498,-4.40145 1.796732,-7.93923 4.581015,-11.02843 6.320671,-7.51742 14.36876,-13.28809 21.92863,-19.47327 -2.39995,-0.605 -6.35481,4.87 -8.31204,4.65446 0.6172,-3.59687 6.09664,-9.84043 5.00601,-11.50724 -3.0291,4.64204 -5.51828,9.7271 -8.47583,14.35782 -2.108152,1.3246 -4.12905,2.81021 -6.349033,3.94 1.973862,-6.00026 4.276453,-11.94518 6.100203,-17.97667 -2.448028,0.88168 -2.991407,6.54662 -4.605565,9.22683 -2.498916,6.41196 -4.442284,13.66242 -10.162011,18.01343 0.836555,-5.24526 1.793187,-10.55488 1.882899,-15.87999 -1.904612,0.84614 -1.103818,10.82521 -3.103897,4.77282 -2.082127,-2.265 0.998413,3.43758 0.701553,4.86216 -0.767993,3.03931 -1.353803,6.14953 -2.530226,9.06219 -2.713387,-3.08988 -5.098628,-7.07788 -3.736758,-11.33406 0.423135,-4.0516 1.710369,-8.25729 1.697278,-12.19137 -1.718743,4.26847 -1.860763,9.16664 -3.382467,13.56363 -2.741862,-6.61343 -4.403656,-13.64521 -7.027357,-20.28479 -0.530533,2.85358 2.18819,7.36937 1.678644,9.65495 -3.243667,-2.97223 -6.013672,-6.4157 -8.710514,-9.87989 -0.110372,2.7685 4.286361,6.02001 5.995315,8.89374 3.461373,3.16847 4.99516,7.47318 5.44565,12.05219 -2.360519,-0.92028 -5.671345,-4.76151 -8.444763,-6.76338 -2.092221,-0.88839 -4.95397,-5.74095 -6.556262,-4.58879 5.360723,6.38704 12.768849,10.83628 17.721708,17.58528 2.314317,4.42213 6.041669,8.68299 5.136515,14.01771 -0.06416,8.3682 -0.42961,16.7875 -1.46873,25.07503 -0.218219,-6.34628 0.885215,-12.74432 0.933829,-19.12329 0.09921,-2.66596 0.167573,-5.33296 0.251573,-7.99943 -2.464698,1.53497 -5.057597,0.0499 -8.159353,-0.3726 -1.200626,-0.74325 -2.629891,0.78998 -2.413553,-0.23031 -2.619783,-0.66816 -5.28582,-5.14674 -9.216374,-4.30108 -3.727631,-0.0444 -4.01685,-5.00088 -6.649299,-4.78624 -3.734208,-1.5651 -4.081873,-5.7651 -6.375813,-7.70384 0.09697,-1.31802 -2.702869,-3.94414 0.185214,-2.1475 0.685599,-2.12018 -3.275687,-3.47659 0.128465,-5.14613 0.479519,-2.24783 -2.467158,-2.06445 -1.321817,-4.45939 -2.840255,-2.19256 -1.258705,-6.84685 -1.362503,-9.17399 -1.762421,3.17633 -1.055122,-4.07679 0.584714,-3.67886 2.657226,-1.96499 -2.492376,-2.11914 0.381686,-3.31074 2.257397,-0.1053 3.924695,-1.71492 1.7919,-2.6182 1.816684,-2.18271 2.545993,-3.79504 3.876951,-6.9066 0.766419,-1.74291 3.5281,-3.288876 4.106695,-4.46168 0.306776,-0.98338 -1.185638,-4.063666 1.303344,-2.395471 1.793131,-1.280236 -1.065894,-3.33588 2.086825,-1.732245 0.678454,1.27061 5.079311,-3.513783 2.337632,-0.205634 -0.549796,2.247211 2.402112,-1.91376 2.433754,-1.960073 2.528293,-1.331175 -0.330754,1.469171 1.546099,1.446169 -0.836349,-0.786963 4.057433,-4.007809 0.679292,-2.031905 1.712711,-2.484446 5.62111,-1.099873 8.459698,-2.721216 2.247933,-0.156223 2.113134,0.746269 2.502011,1.110886 0.80995,-2.477554 1.241975,1.203526 1.943428,-0.662201 0.663451,-0.549095 2.206009,-0.387279 3.715742,-0.370932 2.29561,-1.894694 1.998396,1.954631 3.981445,0.299954 2.772861,-0.120536 7.008283,-0.18062 9.967263,0.667028 -0.635039,2.406857 2.39858,-1.158422 3.68462,1.688052 1.1213,-1.073282 4.96477,0.677243 6.58365,2.704478 1.55282,1.833774 4.45657,0.82864 5.44469,2.046406 2.97715,1.720911 2.66386,4.602984 4.32402,6.141944 -0.13767,2.79041 -1.50603,3.62778 -1.16829,5.63157 0.73707,2.13924 2.40199,5.01541 1.71553,7.70381 0.16968,1.27924 -1.8943,3.90037 1.33532,4.27629 1.94262,1.19717 2.69416,3.77717 2.60699,6.37031 3.04089,3.5855 0.0927,8.40473 -0.61972,12.23183 0.47269,2.44154 -3.04915,4.38779 -3.39747,4.46346 0.69695,1.56029 -2.33785,-0.664 -1.74121,1.73422 -3.27719,0.1706 -3.3435,5.7798 -7.2204,5.77779 -1.14236,1.29384 -1.89516,-0.32987 -2.15133,1.07468 -3.09705,0.5693 -5.66133,2.7028 -8.82165,3.52984 -4.223037,0.70314 -8.764428,1.37344 -12.742616,2.00761 -0.455106,8.11205 0.383705,16.26465 0.819641,24.37259 -0.06308,0.45521 0.658695,4.26856 -0.05523,3.29165 z M 46.896284,123.87787 c -0.936969,-2.6024 1.694795,-0.85284 0,0 z"
         id="path808" /><path
         style="fill:#eaf2d7;stroke-width:0.264583"
         d="m 88.407623,184.87276 c -1.155599,-11.35383 -1.812611,-22.8381 -0.883965,-34.23527 4.571199,-6.22321 9.794348,-11.97109 15.951112,-16.66498 3.30413,-2.98373 7.19015,-5.35629 10.17914,-8.65909 -2.36025,0.0339 -7.37296,6.03918 -8.01319,4.43161 1.44928,-3.87263 3.72513,-7.34981 5.53795,-11.03291 -2.67178,0.95617 -4.02134,6.21772 -6.07954,8.87335 -1.24499,1.87899 -2.06493,4.15517 -3.58364,5.77836 -1.988925,1.29848 -3.908891,2.71592 -5.987514,3.86688 2.085257,-6.01968 4.189601,-12.04767 6.217864,-18.08552 -2.796224,4.8e-4 -2.868588,6.50714 -4.659826,8.92621 -2.577518,6.43611 -4.424095,13.6933 -10.108884,18.20241 0.690337,-5.24464 1.753176,-10.50109 1.736309,-15.80792 -1.887398,-0.11836 -1.043834,10.35103 -3.044644,4.80907 -2.165527,-2.78648 0.520614,3.27388 0.608448,4.82297 -0.850998,3.14647 -1.437973,6.38522 -2.666454,9.41334 -1.369068,-2.41655 -3.1768,-4.75975 -4.023143,-7.36507 0.465018,-5.45805 1.806234,-10.81025 2.265277,-16.25501 -1.735786,1.84758 -1.725266,7.12686 -2.707595,10.24959 -0.216341,1.96498 -0.959912,4.59441 -1.618818,1.14613 -2.197549,-5.95548 -3.736722,-12.15387 -6.061838,-18.05007 -1.273496,1.37328 1.899874,6.92471 1.505301,9.13558 -3.411114,-2.74271 -5.77754,-6.59427 -8.997103,-9.4595 1.248543,3.25755 4.66862,6.43001 6.86297,9.57199 3.415425,2.96571 4.319371,7.33539 4.88858,11.61736 -4.884087,-4.05041 -9.644622,-8.33073 -14.549969,-12.32361 -1.022649,2.34897 4.640222,5.04193 6.304841,7.34891 4.715317,4.39113 10.174676,8.315 12.931619,14.3438 1.028436,2.06598 2.393144,4.05651 3.208599,6.17878 0.02135,9.34651 -0.462527,18.68591 -1.330095,27.99096 -0.142312,-8.63874 1.402948,-17.34024 0.724826,-25.9922 -2.195203,1.5937 -7.892401,0.24876 -7.925172,-1.77763 1.086623,-0.45713 -1.868348,-0.97692 -0.479003,0.96892 -2.215425,-0.41781 -1.976152,-1.76216 -3.840317,-1.37411 -1.17233,-0.41242 -1.651963,-2.03715 -4.695788,-2.40771 -4.161816,0.84346 -6.391312,-3.02024 -8.301864,-4.98741 -3.681681,0.20208 -4.560923,-5.74388 -6.812479,-7.10385 -0.649318,-1.06721 1.455237,0.22062 -0.09129,-1.66434 -0.51307,-2.3786 0.473335,-1.06306 0.948101,-1.14212 -1.290238,-2.11004 -3.624429,-3.32508 -0.462829,-5.41263 1.612229,-1.37671 -3.640616,-1.26361 -1.623789,-3.51929 -1.465009,-2.65263 -2.714019,-6.34547 -0.900633,-8.58113 -0.888055,-2.56478 2.60988,-2.29711 1.857092,-4.13832 2.022634,-0.83554 -2.913901,-0.66885 -0.515252,-2.37834 2.001108,-0.083 3.081824,-1.95028 3.883658,-0.57958 -0.10425,-0.98669 1.360068,-2.04838 -0.699518,-1.60523 0.784359,-1.93143 2.204906,0.23347 0.978284,-1.89011 -1.22163,-1.6006 0.560821,-1.84899 -0.543323,-3.38161 -0.419928,-1.33376 1.518669,-2.75054 2.631837,-4.23559 -1.522675,1.88818 2.385481,-2.773929 4.064504,-2.20447 0.60025,-0.0744 5.38207,-1.215417 3.470549,0.007 1.163227,-0.284107 5.325326,-0.10089 6.113397,1.29174 1.310127,-0.30786 -0.382183,-2.700209 0.867947,-1.939815 -0.632246,2.026075 3.280834,0.756535 0.957621,-0.553187 -0.878924,-2.306227 0.586247,-1.889182 -0.708405,-4.013564 -0.02408,0.284555 0.564314,-2.11926 0.707532,-2.296535 1.660828,-1.929418 2.008623,-0.948035 1.507936,0.624345 0.947737,-0.514147 1.792356,-1.963446 1.803796,-2.287361 -3.370563,0.274971 0.182165,-1.083063 1.878973,-0.314555 -2.438765,-0.861255 2.992065,-2.393631 2.941147,-0.367996 1.366778,-0.938211 3.612907,0.876401 2.7864,-0.558428 2.827207,-1.375858 5.260493,0.415914 7.663642,0.08376 1.988425,-2.209488 8.311979,1.339923 7.938686,0.205454 0.953417,-1.184138 0.99978,1.8953 2.824259,1.396381 -1.19937,3.950928 4.07057,-1.529707 4.38737,0.833887 -0.3569,2.123459 1.28022,-1.890357 1.43456,0.298111 2.83571,0.812118 0.58492,2.218364 3.55797,2.599484 0.8946,1.969197 3.90038,-0.05688 3.85532,3.083125 1.47268,-5.1484 0.15283,4.728124 2.31703,0.944673 0.92016,3.607701 0.12843,0.369429 0.76158,1.333541 0.95156,1.60787 0.44967,4.0722 0.24125,6.17283 -2.5107,-0.39097 1.63128,1.69652 -0.94551,2.55962 -0.97388,2.48545 0.66221,3.66254 1.10381,1.05078 0.95515,1.43107 4.02435,3.51153 1.32154,4.81367 0.18209,-2.69379 -1.09322,0.81651 0.45428,1.27438 -1.30184,3.28124 1.16746,4.49026 2.76689,6.81409 0.57969,1.11992 2.0287,5.03144 2.14243,4.84171 -1.07486,-0.0778 2.62247,4.86626 -0.48177,4.19681 0.58676,0.047 -1.27276,3.16527 0.58653,2.68928 -0.44121,0.81257 -4.00268,1.16558 -1.83699,1.47701 1.63494,-0.71846 -1.16285,2.482 -0.14978,2.49698 1.85023,2.1671 -2.29069,0.0327 -1.09999,1.70237 0.48655,0.49609 0.22813,0.89644 -0.22272,1.93912 -0.74673,-0.33898 -0.69255,0.95388 -2.02365,-0.57782 1.86597,3.71212 -4.32684,-2.04012 -2.70219,1.47681 3.34309,0.19362 -2.31731,1.43641 -1.3818,2.73494 -1.07782,1.09856 -0.16547,-1.19674 -1.53711,0.74443 -2.06342,-0.28091 3.69995,-3.55498 -0.55944,-2.57763 -2.21289,0.96475 -2.43669,0.74987 -3.75278,1.65503 -0.0883,-2.67054 -1.60636,0.0517 -0.32172,0.69005 -2.15613,0.2354 -1.11745,0.90695 -0.45525,0.58078 -0.39431,2.83994 -2.94033,2.62242 -1.34028,4.63535 -3.22214,1.22638 -6.45583,4.22771 -10.375621,3.55794 -2.173513,-0.76544 -0.9946,1.58326 -4.086922,1.20877 -2.594288,0.22876 -6.57238,-0.90399 -5.433324,3.28488 0.02074,8.39124 0.679767,16.80528 1.106984,25.15314 l -0.16245,-0.32771 z m -35.215,-63.2003 c -0.185575,-1.59909 -1.020285,-4.10564 0.03567,-2.61133 0.377776,-2.59113 -3.010742,1.03721 -1.353444,1.28107 0.318946,0.0859 0.141135,2.8072 1.31778,1.32976 z m 65.273407,-1.66049 c -1.87102,-1.17537 1.4347,2.05098 0,0 z m -0.0611,-2.70039 c 0.58872,-2.2248 -2.01991,1.20918 0,0 z m -19.648376,-9.71759 c 0.455209,-1.2361 4.104856,-0.6236 0.428265,-1.17249 -1.936869,-0.059 -0.01917,2.94087 -0.428265,1.17249 z M 82.074239,98.258468 c 0.421275,-1.08307 1.837393,0.443415 0.711126,-1.050779 -1.217274,-0.745734 -1.881573,1.996318 -0.711126,1.050779 z M 103.72002,97.75353 c 1.40563,-1.710923 -2.30766,1.00616 0,0 z m 1.20082,-1.251635 c 2.16785,-1.67903 -2.77906,0.390867 -0.12894,0.421646 z M 90.23646,95.216474 c 0.346027,-0.771941 -1.981919,-2.013854 -0.699296,0.236799 z m 13.36146,-1.533043 c -1.16027,-1.969429 -2.57275,1.235608 0,0 z m 8.59896,54.705109 c 2.002,-2.01683 2.36108,0.7109 0,0 z m -58.973262,-38.212 c -2.126259,-1.36829 -0.625106,-2.63712 0.308979,-2.16591 -1.019467,0.35625 0.964285,3.26669 -0.308979,2.16591 z M 115.87057,98.64687 c 0.89822,-2.700196 0.28363,2.29334 0,0 z m -13.48854,-6.838287 c -2.477963,-1.736429 -0.10772,-1.503392 0,0 z"
         id="path806" /><path
         style="fill:#e2edc7;stroke-width:0.264583"
         d="m 88.421009,184.72254 c -0.959263,-8.57405 -1.17414,-17.23612 -1.328378,-25.85898 0.222345,-2.76894 0.07134,-5.73724 0.607134,-8.42264 4.161085,-5.53186 8.604265,-10.90527 14.182435,-15.08275 3.79687,-3.50489 8.31491,-6.26487 11.79807,-10.06816 -2.43965,-0.0773 -7.48852,6.12424 -8.03386,4.50443 1.47439,-3.61945 3.35282,-7.32179 5.53252,-10.38856 0.54305,-2.99795 -2.19615,-0.76641 -0.87891,-1.3667 -0.45548,2.25089 -3.57638,6.16162 -4.95128,9.03259 -1.80314,3.86138 -4.24813,7.33348 -8.225202,9.18242 -3.236462,1.87037 1.410217,-5.8662 1.670466,-8.29002 0.09404,-3.08146 4.879016,-7.91881 1.485366,-9.59667 -0.786813,4.85022 -3.359827,9.27131 -4.883937,13.94233 -1.701334,5.19069 -4.154269,10.371 -8.419031,13.94399 0.769047,-5.29116 1.751562,-10.61118 1.796659,-15.97124 -2.106749,0.67179 -1.206844,10.98275 -3.390413,4.35176 -1.65648,0.38185 2.19267,5.78917 0.214285,8.17098 -0.597311,1.9475 -1.156701,5.3722 -2.019724,6.51459 -1.719908,-2.97243 -4.492496,-5.90767 -3.638198,-9.60371 0.492406,-4.71149 1.503187,-9.34993 2.079065,-14.04837 -2.35278,2.90427 -1.923014,8.30793 -3.283423,12.12756 -0.705096,3.42113 -1.938213,-3.63598 -2.698975,-5.02313 -1.615887,-4.48097 -2.66392,-9.20607 -4.581162,-13.55299 -1.298006,1.44292 1.922758,7.01055 1.502486,9.1612 -3.42102,-2.75162 -5.750635,-6.72443 -9.043579,-9.48648 1.63121,3.84964 5.262251,7.07655 7.76058,10.61564 2.905446,2.74175 3.297508,6.87733 4.047741,10.58903 -4.914023,-4.176 -9.822834,-8.49813 -14.816258,-12.49837 0.269318,3.23517 5.174138,5.5295 7.348591,8.28508 4.441096,4.10092 9.520184,7.80657 12.070464,13.48289 0.981469,2.66081 5.632414,7.52649 0.916356,8.54528 0.55981,-2.58454 -4.247787,-1.69365 -4.494131,-0.67574 -0.844914,-3.26951 -6.215547,-1.10173 -7.961907,-3.67755 -3.391363,-1.46198 -8.070178,-0.14326 -9.747494,-4.15989 -0.977366,-2.15969 -2.5711,-0.81762 -3.919333,-3.12846 -2.620924,-1.48276 -4.10802,-7.22255 -3.887541,-8.24333 1.825913,0.14082 -4.273484,-4.40495 0.582221,-4.53279 1.761301,-2.56002 4.428863,4.15837 2.523426,0.10444 -1.258939,-3.0693 -4.73893,-1.4128 -4.963107,-5.10087 -0.634641,-1.50119 -1.944794,-5.76023 -0.529779,-5.41753 1.256108,0.76383 5.896954,-0.72606 7.374991,-2.18846 -0.474939,-3.17431 -1.374632,-7.80812 -0.391402,-9.99428 -0.681837,-2.78612 -0.91468,-2.70786 -1.439761,-4.94398 -0.777096,-2.18882 2.020651,-0.72017 2.620355,-3.56456 2.454303,-1.82525 5.341356,-2.04628 7.763376,-1.60668 2.066842,-2.417023 4.2848,2.38179 6.432701,0.50883 2.014838,-1.23324 4.852524,-0.35396 4.360035,-1.742601 3.621141,1.414171 -2.515918,-6.007794 0.381001,-4.021011 0.396568,2.410324 1.137239,-2.205791 -1.121071,-0.532248 -2.515589,-1.911327 1.857512,-1.445016 0.53046,-2.420456 -0.973569,-1.034043 0.467456,-0.340079 0.698058,-1.261348 1.651517,0.920807 1.776785,-0.04331 2.300348,-0.753155 -1.038808,-0.930172 2.541718,-0.07372 4.569247,-0.0455 1.289037,-1.401989 3.604265,-1.850894 5.417303,0.282863 0.776916,-0.506858 3.588984,-0.661977 3.661754,-1.148211 -0.899294,1.774177 1.733163,0.08154 0.767942,-0.509191 2.853732,0.976741 5.25093,0.559766 7.548921,2.996319 -0.696911,-1.85027 1.55645,-0.484524 0.51378,0.886308 2.62313,0.162983 1.30229,2.982474 2.26085,5.530884 1.56123,-0.636749 3.74681,-1.576263 1.72777,-2.857673 -2.79032,1.804425 -1.11361,-2.87267 -1.08937,-3.310048 0.93529,-1.918582 2.08202,2.133949 3.37339,0.613628 -0.85441,1.737082 -1.06747,2.155202 -2.18276,1.791316 1.90643,2.920937 1.08939,0.01907 2.48296,-0.755962 2.30842,1.099953 3.8301,3.154771 3.1596,4.627264 2.0834,0.577555 -0.24884,-2.161243 2.29495,-2.289828 0.74869,0.680506 1.98941,2.115804 2.38576,1.791184 0.41729,1.932116 0.16774,2.605016 -1.28203,1.675625 1.64641,1.807831 2.8044,-1.212424 3.10818,1.538501 2.51336,2.00767 -1.15438,5.37133 0.0614,6.39921 -1.22504,0.55999 -1.53765,-0.50727 -2.35487,1.64125 0.81954,-0.0819 -2.37272,0.14931 -0.34407,1.5232 -1.97354,1.64053 1.76245,0.99425 0.56689,3.01354 2.5546,-1.87475 5.0251,2.22896 3.77352,2.84169 -0.50312,-1.32791 -6.22049,1.40637 -1.53937,0.63775 2.26412,-1.1809 2.92647,1.86621 0.85106,1.7228 -0.45038,-1.40544 1.57838,0.17728 -0.001,-1.0968 -1.63067,1.63999 -0.47265,5.35307 1.25929,3.20058 0.0704,1.12429 4.32704,1.14728 2.91303,3.35622 -1.93833,2.25478 3.56393,2.54661 1.37463,5.57917 0.64247,1.13801 0.56423,5.35244 -1.04316,2.63962 -1.90828,0.70763 0.44785,2.5262 -1.48081,1.41962 1.17126,1.36113 -0.0783,1.98555 -0.32549,2.74534 1.26265,-0.55832 0.07,1.64429 -1.02713,0.13043 -0.0318,0.6907 2.27182,1.81807 1.35903,3.77801 0.30967,1.35866 -1.60345,-2.77098 -1.74786,-0.76215 0.69042,1.57206 -2.55528,-1.0805 -2.86891,1.03865 -0.77625,-2.17129 -0.4308,1.83503 -0.29648,3.34103 -0.54908,-0.54895 -1.71188,-0.74295 -3.71408,-0.12994 -2.14703,0.044 -6.50389,-0.0199 -4.59976,1.94012 -1.50902,0.90128 0.12571,2.54732 -1.24985,1.86247 -0.92372,2.22487 1.79409,5.54143 -1.18626,3.45111 -1.31859,1.95841 -2.98231,2.25698 -4.82864,3.45609 -2.50221,1.16991 -5.245881,-0.7467 -5.871371,1.21731 -3.066583,0.8505 -8.844567,-1.13947 -7.337201,4.26044 0.111333,8.18647 0.576696,16.43364 1.176174,24.55209 l -0.16796,-0.41603 z m -24.32108,-34.55375 c -1.83243,-0.44535 1.527222,2.09112 0,1e-4 z m 49.581711,-28.70766 c -0.5553,-3.49282 -2.25438,2.00374 0,0 z m 3.05957,-1.86089 c 0.44574,-2.62554 -0.51612,-1.07218 -2.29539,-0.33582 0.78428,-0.63596 3.09813,1.56507 2.29539,0.33582 z m -9.66328,-4.02004 c -1.11818,-2.06911 -1.27858,2.8943 0,0 z m -4.66917,0.26222 c 0.0615,-3.59343 -1.89884,1.13627 0,0 z m 13.72026,-0.92368 c 1.04845,-2.43945 -1.32786,0.61515 0,0 z m -8.03755,-1.85208 c 0.25176,-0.44849 0.67584,-1.67382 0.29937,-2.03361 -2.71803,1.12239 -0.081,0.39094 -1.22118,2.43293 0.37965,0.48786 0.58112,-0.63224 0.92181,-0.39932 z m -8.764186,-4.01369 c -1.699738,-3.33233 1.487076,-1.02162 1.660666,-2.09393 -2.465274,-2.38456 -3.383641,1.38319 -2.134701,3.06533 -1.034699,1.34933 1.373631,-0.29913 0.474035,-0.9714 z m -12.597405,-2.60089 c 1.10366,-2.47676 1.961744,-1.63922 1.813864,-0.98384 4.108901,0.40599 0.406241,-4.47579 -0.02779,-2.85398 0.782864,1.95165 -1.778868,-1.08262 -0.703805,1.27785 -1.96639,0.29256 -2.74556,0.31571 -0.965289,1.02554 -0.716643,-0.004 -1.506679,2.58231 -0.11698,1.53443 z m 19.964701,-0.89462 c 1.71582,-2.4606 -4.66397,2.45214 0,0 z m -13.74926,-0.0976 c 2.277755,-2.54462 -2.769391,0.48903 -0.04606,0.36058 l 0.04606,-0.36055 z m 9.43826,-0.2368 c 3.38215,-0.7739 -3.10572,-1.60312 -0.73066,0.21897 0.13549,0.0512 0.9159,0.24235 0.73066,-0.21897 z m 10.74465,-1.15866 c 0.46559,-1.96464 -1.8751,1.32969 0,0 z m -2.30547,-4.16079 c -0.8922,-1.693919 -2.19071,1.86952 -0.0611,0.90991 l 0.0936,-0.38603 z M 97.583402,99.176036 c -1.12002,-0.906776 2.531378,-2.661489 -0.269988,-1.820045 -0.962154,-0.0184 -0.686187,3.452289 0.269988,1.820045 z m 7.177698,0.108415 c -0.54459,-3.046628 -1.29375,1.720859 0,0 z M 83.472192,98.911453 c 2.023971,-0.888463 -0.73699,-3.52826 -2.208594,-1.206083 -1.040434,1.483604 1.008016,1.841198 2.208594,1.206083 z m 12.274166,-1.67795 c 4.156703,-3.393003 -4.444701,1.574815 0,0 z m -5.395711,-2.357435 c -1.582048,-1.715153 3.822065,-3.946802 -0.27913,-2.570663 -3.00989,1.76566 1.47158,4.510093 0.27913,2.570663 z m 11.395193,-0.16709 c -2.213561,-2.334166 -0.44046,1.177977 0,0 z M 86.699696,93.843886 c 1.808143,-3.781449 -2.554266,2.315777 0,0 z m 7.936915,-3.323645 c -1.241016,-1.811742 -1.75602,1.2864 0,0 z M 82.215828,182.12291 c 0.359499,-8.19287 1.092294,-16.37824 1.147722,-24.58509 0.806955,4.01322 -0.215811,9.83536 -0.257368,14.49842 -0.236129,3.11596 -0.4256,8.45184 -0.890354,10.08667 z m -2.959576,-24.75744 c 1.080527,-2.57736 1.962596,1.53085 0,0 z m 42.658978,-19.55702 c 0.0953,-3.34947 0.80635,2.12342 0.0577,0.93202 z m -72.499005,-15.8121 c 1.119858,-3.57837 0.92964,1.0389 0,4e-5 z m 4.261547,-4.37421 c -1.117249,-0.16211 -1.876948,-2.80094 0.243992,-2.91108 -0.472827,1.88423 -0.1019,3.41745 1.171049,2.03547 0.223639,0.89876 -0.798918,1.45721 -1.415041,0.87561 z m 61.694108,-6.53985 c -1.02574,-2.55718 2.18859,-0.52245 0,0 z M 54.808371,110.1837 c -2.436644,-2.62974 1.909573,-0.41568 -0.03315,0.2609 z M 72.668368,99.7582 c -1.800711,-2.90988 3.132036,0.78576 0,0 z m 0.02239,-1.660221 c -1.3241,-2.221294 0.36634,-5.412156 0.891881,-1.779003 -0.20446,0.143562 -0.295538,2.803754 -0.891881,1.779003 z"
         id="path804" /><path
         style="fill:#d9e8b6;stroke-width:0.264583"
         d="m 82.251354,181.72604 c 0.147003,-3.49924 0.138152,3.507 0,0 z m 5.818134,-0.92605 c 0.142187,-3.18931 0.141349,3.34011 0,0 z m -5.551416,-2.91041 c 0.118832,-3.27997 0.118802,3.59134 0,0 z m 5.297295,-1.19063 c -0.02952,-3.19916 0.336278,0.93387 0.02975,1.25801 l -0.02176,-0.47351 z m -5.037545,-2.24896 c 0.142187,-3.18931 0.141349,3.34011 0,0 z m 4.778399,-3.30729 c -0.02864,-3.948 0.323034,1.14759 0.02855,1.55402 l -0.02088,-0.58493 z m -4.50042,-0.79375 c -0.02907,-3.57346 0.329252,1.04053 0.02911,1.40601 l -0.02129,-0.52921 z m 4.243768,-6.21771 c -0.02079,-5.35287 0.293965,1.65276 0.02616,2.24301 -0.02544,-0.7474 -0.02518,-1.49547 -0.02616,-2.24301 z m -3.97356,-0.26458 c 0.153073,-6.4541 0.115605,6.36028 0,0 z m -1.415878,-6.67393 c -1.741916,-2.32642 -4.722242,-0.17356 -5.238964,-2.17755 -1.612659,0.8161 -6.453354,0.0559 -7.44408,-1.88117 -1.375924,-0.12236 -4.53039,-0.62652 -5.414895,-0.91852 2.947802,-2.38151 -1.626919,-3.22457 -2.385461,-4.17042 -1.855925,0.28177 -0.354091,2.01325 -1.941679,1.17199 -0.548667,-0.007 -1.294832,-2.39697 -2.661938,-1.06673 -1.19711,-1.14005 1.740327,-2.13371 -1.127083,-1.67717 -3.294416,-1.87316 2.239187,-4.44618 -1.657448,-2.49775 -0.654847,2.41399 -2.615146,-5.03762 -2.804991,-5.70715 1.394734,0.53134 -0.15889,-1.05498 0.932736,-1.21587 -4.097022,-0.90712 -0.240603,-5.71082 1.707286,-1.93032 2.987671,3.89992 -0.09071,-6.04338 -2.576657,-3.30518 -1.147218,-1.7661 -2.181132,-4.57484 -3.320488,-7.91711 1.448203,-0.19104 9.53601,-0.77878 8.25057,-5.18592 -0.701447,-2.77115 -0.333772,-5.71039 -0.569182,-9.02216 -1.311145,-3.58623 0.788557,-9.693255 5.423903,-8.44754 2.473882,-0.11841 5.229396,-1.19624 5.874874,-0.12849 1.776459,-1.317127 3.553977,5.23495 6.182337,1.72656 1.642964,-0.67429 1.248475,-2.09041 -0.219221,-1.12558 1.266304,-2.565852 2.254411,1.37231 3.262137,-1.20681 2.88613,-1.249523 -0.822908,-2.630668 2.985149,-2.200187 -1.187221,-2.122182 2.686933,2.661197 4.122774,1.193586 2.411745,-1.531282 -0.17355,1.185071 2.319095,0.237921 0.675148,1.43225 2.705677,-1.996921 0.768907,-2.152139 -0.810721,-1.087989 -2.463199,-1.221525 -1.167737,-0.08 -1.987482,0.23729 -0.507031,-1.956482 -2.842298,-1.363436 -1.334559,-0.903326 -0.574685,1.596978 -1.07924,-1.154727 0.281752,-1.715696 -0.855941,-0.5574 -1.688215,-1.515559 -1.949438,-0.390955 0.0693,3.556277 -2.376026,0.872619 -1.083129,-0.275592 0.760191,1.822069 -1.363951,0.181656 -2.11288,-0.489266 0.49342,-1.209245 0.624607,-1.700474 1.593365,0.962611 -0.302846,-2.435926 1.546114,-0.06303 1.203938,1.512061 0.559564,-3.810099 2.378365,-2.186313 1.212295,-0.358412 4.062646,1.589059 3.110222,-0.633083 1.236626,0.731842 3.721078,-2.207261 3.186706,1.499039 -0.573022,2.16097 -1.824646,3.773788 1.155516,2.111067 0.903398,-0.159035 -0.144161,-1.006251 0.293679,-1.433086 -1.461413,-1.595267 0.950825,0.0168 1.287168,-1.582743 1.854616,-0.404702 2.116821,-1.089016 2.786039,0.433486 1.367666,0.838102 0.569351,-2.61177 2.356053,-0.836103 -3.122504,0.01471 2.280246,0.762956 -0.454911,2.622038 -0.208844,0.635383 2.793597,-1.358598 1.030506,-1.701727 1.596152,-2.723918 7.566261,1.81888 4.806578,3.518661 -0.958286,2.078539 2.246063,-0.986933 0.925763,1.027371 -1.615703,1.239686 0.53361,3.340305 0.59929,0.506055 0.70777,-0.13139 -0.44276,3.403121 0.93123,1.154421 0.84148,-0.858648 0.2144,4.334867 2.74407,2.434817 -2.46093,1.34079 -0.12495,3.07645 0.1801,0.40711 0.45992,-1.042709 -0.74397,-1.426552 0.76435,-1.633181 -1.22474,-1.620297 -0.35317,-2.483747 0.55276,-1.583071 0.71799,-2.049049 -0.24724,-3.102638 2.11651,-1.651888 1.41176,1.332691 2.14546,4.301342 0.10882,5.52511 1.00712,1.33155 -1.53231,-1.760936 -1.77437,-0.11659 -1.09244,-2.193221 0.11227,3.11898 0.9628,0.98368 0.43156,2.86448 0.86433,1.15184 1.60536,0.17231 3.24257,2.71837 -0.66195,-5.009662 2.44246,-2.046006 2.63946,2.965356 -2.7079,-4.868867 1.12631,-2.168471 -0.68137,3.132387 3.69014,2.765127 4.76452,5.072657 -0.85793,2.26782 -0.89415,5.21022 -3.13609,4.58146 1.81046,0.92052 -3.43114,1.55579 -0.43471,1.26979 1.64936,-0.29018 -2.55502,1.48608 -0.15564,2.25346 -0.7353,1.45643 -3.22096,2.36622 -1.14498,2.82997 -0.87692,0.80054 1.62008,-3.13343 1.5023,-0.63365 -1.61086,1.4155 0.97952,3.3094 -1.37325,4.64618 2.43203,0.39863 1.89696,-4.6377 2.59368,-1.416 0.61362,-2.55669 1.35815,-0.003 2.10545,0.10372 -3.17423,-0.2752 -2.47518,2.08702 -3.38732,2.66047 -0.90425,0.34383 -0.7438,1.74431 -1.80191,0.19372 -0.34746,2.9335 -1.8484,-0.66613 -1.55717,-1.54535 -2.30828,-0.326 -0.29184,1.94994 -2.26618,1.49476 -0.34942,3.98217 -3.87115,7.46751 -5.52491,11.2451 -0.78712,1.48906 -1.46616,3.07782 -3.13427,3.7543 -1.836146,1.1277 -6.108359,4.79612 -3.761376,0.31916 1.888345,-5.05617 3.492206,-10.24554 5.330896,-15.29586 -1.49286,-0.89775 -2.839813,-2.96957 -1.68528,0.36915 -2.230255,6.42562 -4.757243,12.77337 -7.321066,19.07433 -1.144017,2.4276 -4.626353,7.42534 -5.824669,7.0204 0.953658,-4.85434 1.442319,-9.7947 1.935234,-14.71003 -2.117974,-2.5919 -1.507657,10.57901 -3.246244,4.42012 -2.520402,-3.20537 0.730934,3.76872 0.32973,5.15912 -0.809521,2.06173 -1.247742,8.64293 -2.852114,8.18306 -1.703225,-2.92276 -4.269263,-5.87747 -3.189637,-9.51513 0.564823,-4.46031 1.409281,-8.88861 2.06941,-13.32757 -2.327065,1.58798 -1.764017,6.98617 -2.941562,9.99491 -0.353916,2.03794 -0.835966,5.03673 -1.602591,1.31418 -2.095602,-5.88108 -3.791512,-11.9013 -5.926209,-17.76486 -1.656481,-0.80918 0.722775,4.95529 0.810458,6.3859 0.855397,2.03157 0.873555,3.56746 -1.071384,1.11894 -2.744545,-2.12808 -4.803485,-6.51541 -7.493906,-7.74025 0.975138,3.13353 4.563273,5.72969 6.441386,8.75287 3.468517,3.1688 4.720446,7.51112 5.429353,11.99747 -2.809028,-1.81635 -5.931229,-5.18516 -8.981601,-7.44827 -1.697907,-0.6916 -5.426459,-6.22694 -6.154228,-3.7784 5.66172,5.92728 12.416249,10.82345 17.614708,17.18236 1.786238,3.63317 4.856387,7.05662 5.192906,11.14689 -0.74753,-0.27369 -1.032931,-0.15453 -1.494043,0.23468 z m -26.17734,-18.72607 c -1.619742,-1.43158 -1.111721,1.34213 0,0 z m 1.460567,-12.4938 c -1.265852,0.19266 -0.951684,2.05369 -0.02551,0.3156 z m 51.298062,-8.54267 c -1.14715,-0.38329 -2.09554,0.55944 -0.052,0.64525 l 0.10363,-0.34743 -0.0516,-0.29782 z m 1.25724,-0.63219 c 0.31948,-2.91197 -2.1337,-1.36912 -2.81328,-0.83762 -0.10949,-2.20088 5.30235,-0.98979 2.1558,-3.96482 2.4923,-2.01591 -4.43333,-0.70478 -1.80026,1.9971 -0.4721,1.16757 -2.40634,1.34203 -0.43039,3.04387 1.70384,-0.17706 2.3075,-2.79515 1.95262,0.22172 0.29017,1.0804 1.14454,0.18735 0.93551,-0.46025 z m -1.60193,-2.7547 c -1.49198,-1.28254 2.90239,-1.00925 0,0 z m -5.46131,0.65138 c -0.27784,-2.52778 -3.569093,1.98561 -0.55269,1.29295 l 0.39838,-0.48561 0.15434,-0.80734 z m -1.88643,-3.41271 c 1.55552,-2.72012 -2.753481,-0.77482 -1.455961,-4.2346 1.196451,-1.0082 0.196847,3.67793 0.699721,0.86747 3.16919,0.21653 -0.479366,-3.70028 -2.00601,-0.62838 1.21045,1.46939 -1.475615,2.33316 0.1531,2.88521 1.199539,-1.89671 -1.211958,2.55895 0.989769,0.22985 2.040651,0.47113 -0.645853,1.56007 1.619381,0.88045 z m 2.56696,-0.86114 c -1.54229,-1.41676 -3.575221,1.30058 0,0 z m 2.87375,-0.19844 c -1.38104,0.18306 -0.39309,-1.18558 -0.72358,-1.60297 0.77241,-1.67652 -1.75743,0.32873 -1.96082,-2.98 -0.50319,1.05547 -2.53623,2.08102 -0.61236,2.77642 0.0258,1.67628 2.47311,2.40036 3.29676,1.80655 z m -2.19636,-1.04099 c -1.51908,-1.66708 -0.87297,-2.19278 0.3208,-0.31948 0.41435,0.16547 1.05046,1.36379 -0.3208,0.31948 z m 4.89156,-0.1245 c 1.50074,-0.64271 1.01535,-4.34739 0.31052,-3.04701 1.06687,1.54256 -1.42944,1.75686 -0.57056,2.70145 -1.47071,0.59589 -0.0448,1.21052 0.26004,0.34556 z m -23.328648,-1.03294 c 1.357751,-0.64149 3.523891,-3.8223 5.405852,-1.79453 1.23629,-1.59889 0.630522,2.05717 2.711186,-0.19512 0.654889,-0.93904 -0.09756,-2.90832 -1.432996,-1.41778 -1.132185,-0.71239 -2.494501,-2.69552 -0.863206,-1.73627 2.174496,-1.13112 -1.165097,-0.52218 -1.652627,-2.38122 -1.754957,1.44654 -3.413437,2.6011 -5.165859,2.30687 2.723225,-1.0381 -0.07924,-3.111397 -0.612978,-1.25806 3.857435,-0.89505 -2.528835,1.78861 0.153151,3.07394 -0.04083,-1.00428 1.449273,-2.18065 2.328942,-0.50404 -0.846705,-0.708 -1.363444,1.23931 -0.442275,1.00584 -2.466154,-0.9393 -1.041118,4.92831 -0.42919,2.90037 z m 3.439583,-5.93751 c 1.300684,-2.662927 1.197632,1.01737 0,0 z m 7.362931,5.79522 c 2.938239,0.0368 -2.309472,-0.5535 -0.08026,-2.68341 -1.519626,3.15292 -0.517158,-1.89514 -1.833963,0.48725 0.503992,0.3541 0.930454,3.99265 1.914219,2.19616 z m 9.173524,-1.56188 c 3.72706,-1.52353 -0.86233,-2.05136 -0.89631,0.024 l 0.55363,0.2231 z m -1.96059,-1.18609 c 1.37086,-0.75652 1.8296,-3.75551 -0.16117,-1.91439 1.43282,2.17398 -3.32718,-0.40165 -2.30378,2.10455 0.98424,1.22048 1.4595,-0.0911 2.46495,-0.19016 z m 2.62205,-0.68383 c -0.859,-1.39575 -2.86532,0.96058 0,0 z M 113.07,104.1502 c 0.85267,-2.20211 -2.03689,0.92612 0,0 z m -44.117953,-0.21166 c 1.239891,-1.10541 -0.508099,-0.89394 -1.063372,-2.19979 0.152754,1.17977 -0.409448,2.83262 1.063372,2.19979 z m 38.245533,-0.30955 c -0.37798,-0.92838 -2.84559,-1.03282 -0.20563,0.23237 z m 6.76068,-1.54254 c 0.27079,-1.48583 -1.43806,0.95091 -1.87045,-0.46266 0.47495,2.24294 0.49688,1.28654 1.87045,0.46266 z m -12.77904,-0.83211 c 0.12332,-1.910113 -2.047019,1.6557 0,0 z m -7.635468,-0.54372 c -1.034183,-1.36895 -1.956903,1.84891 0,0 z m -5.272267,-0.47625 c 0.589733,-0.781019 -3.139069,-0.371687 -0.460656,0.69814 0.129524,-0.24296 0.143063,-0.60955 0.460656,-0.69814 z m 11.159246,0.0772 c -2.454442,-3.178718 0.233703,2.50153 0,0 z m -1.801513,-1.011627 c -0.367814,-1.070447 0.265937,-1.362716 1.190532,-2.497361 -1.640846,-0.204696 -3.460229,3.479248 -1.190532,2.497361 z m 9.672872,0.0084 c 0.61622,-0.04169 1.66448,0.07949 0.0409,-0.506014 -0.40071,0.0061 -0.75358,1.857851 -0.0409,0.506014 z m -11.444197,-1.98439 c 3.674203,-3.188568 -2.745175,-0.295466 -1.271882,0.917113 0.386436,-0.348517 0.747032,-0.779175 1.271882,-0.917113 z m -6.063017,-1.429971 c 1.63892,-0.147273 0.316095,-3.557546 2.276429,-4.092279 -4.278827,-1.313522 -1.859883,6.197663 -3.980812,3.817035 -1.203732,1.699776 1.342702,1.538278 1.704383,0.275244 z m 8.920276,-0.301847 c -2.674346,-2.525471 1.972928,2.665155 0,0 z m -11.43477,59.800825 c -0.72104,-4.63963 2.764682,-7.86858 5.389944,-11.18623 5.571585,-6.56916 12.745184,-11.51473 19.294524,-17.04349 1.96262,-0.88694 2.24398,-2.76876 1.5793,-4.70387 1.19436,1.11378 2.54976,-4.56679 3.94246,-0.18846 1.75223,1.00906 1.42426,0.31764 1.50921,-0.31961 1.78233,1.44162 1.31965,0.75538 1.52668,0.16446 2.08336,1.34755 1.46628,1.75501 0.91549,3.34584 1.3784,1.90885 2.72625,2.42049 1.47397,5.33163 0.54858,1.65802 -1.00966,0.68661 -0.25915,2.04487 -4.32264,-0.44427 0.65297,4.2852 -2.25368,2.8504 -2.11365,0.25776 -0.5611,1.29004 -1.40142,2.27792 1.34045,0.16838 -3.38816,1.95376 -3.56113,3.64234 0.37027,2.17939 -1.34939,2.19083 -1.51971,1.50692 -1.14429,2.14239 -6.56983,-0.26752 -6.97358,3.26548 -0.45227,3.08069 -1.00265,5.85035 -4.23059,7.35734 -1.59963,1.13037 -4.42312,2.42086 -6.58909,1.44146 -0.744641,1.37541 -3.082109,1.34522 -5.373427,0.72428 -1.236606,0.4134 -2.253025,0.56343 -3.620304,1.08463 0.05009,-0.53189 0.100724,-1.06436 0.150503,-1.59591 z m 28.223788,-16.9346 c -1.55755,-2.49929 -1.3079,1.90845 0,0 z M 62.852085,152.1368 c -2.779579,-0.64497 2.034321,-1.44218 -1.032596,-2.11541 -0.168513,2.15999 -1.36129,2.52561 -1.496376,0.0708 1.972441,-2.59386 5.108007,1.26683 2.590815,2.20851 l -0.06184,-0.16386 z m 42.745045,-22.05536 c 1.02881,-2.32745 4.07449,-10.01742 5.32399,-8.79308 -1.22775,-0.69805 1.47592,2.68426 0.63346,-0.0437 1.54582,1.10476 -0.85116,3.39681 1.83491,3.62769 -0.59315,0.42488 -5.02693,3.58377 -6.9387,4.99251 -0.14385,-0.0328 -0.89113,0.8045 -0.85366,0.21661 z m 9.16318,-30.121961 c -1.75681,-3.120528 2.16089,1.169661 0,6e-6 z m -10.23745,-1.677573 c -0.91012,-1.48767 2.52709,0.662294 0,0 z m -1.45411,-2.529838 c 1.13672,-1.741698 -0.66,-3.423969 1.69501,-3.766798 -0.31585,2.584324 4.47422,-0.146844 1.09423,2.307965 -0.22828,-1.494595 -1.57996,1.691913 -1.89951,1.365193 -0.20499,0.166656 -0.85575,0.645912 -0.88973,0.09364 z"
         id="path802" /><path
         style="fill:#d2e4a9;stroke-width:0.264583"
         d="m 87.802204,176.69895 c 0.151071,-2.96262 0.142755,2.96941 0,0 z m -0.261882,-5.42396 c 0.142187,-3.18931 0.141349,3.34011 0,0 z m -4.497917,-0.52916 c 0.142191,-3.1893 0.141349,3.34008 0,0 z m 4.240303,-5.68854 c 0.12766,-3.52582 0.110197,3.58215 0,0 z m -3.967004,-1.19063 c 0.146573,-3.84088 0.134459,4.04595 -1.51e-4,0 z m 4.064592,-8.86354 c -0.737765,-4.70835 3.136224,-7.82141 5.648608,-11.2227 5.72452,-6.40612 12.707296,-11.51499 19.432726,-16.79953 1.77954,0.0768 2.78213,1.03385 2.24011,-1.42091 -2.51813,1.43535 1.029,-2.86554 2.30903,-2.55514 0.77325,-1.07615 1.78603,2.39838 3.60523,1.55193 1.56839,1.58 3.56172,4.91311 1.37847,5.70949 2.92145,1.24466 -3.03541,2.08593 -0.22852,2.66785 -1.30775,1.2197 -3.70961,3.15194 -3.21914,4.16802 1.87098,1.11032 -3.85913,2.49342 -3.48227,5.94958 -0.80291,-0.78677 -0.58533,-2.7044 -1.79946,-0.51521 -2.30858,1.40245 -7.39072,2.13725 -6.62461,4.26484 -0.90837,0.14596 0.41076,4.50518 -2.45497,5.29166 -2.01598,0.60334 1.23285,0.77641 -1.67835,1.39007 -1.79836,1.71596 -5.846644,3.39693 -6.704339,-0.26241 -0.656026,-0.22621 0.499586,3.07733 -1.070567,2.93712 -2.148012,0.27425 -3.854245,-1.10693 -6.59868,0.33909 -0.364602,-0.81818 -1.247949,0.84074 -0.753396,-1.49355 z m 28.123874,-16.52084 c -1.31798,-2.30054 -1.62836,1.47934 0,0 z m -0.8599,-4.51742 c 1.16103,-1.55395 0.006,-1.39191 -1.40152,0.27906 0.47974,0.12203 0.9462,-0.23289 1.40152,-0.27906 z m 1.63811,0.0845 c 0.31886,-1.24952 -1.15226,-1.32408 -0.4679,-0.0371 -0.70797,0.0784 0.22116,1.14329 0.4679,0.0371 z m 1.49,-3.01208 c 2.62549,-0.72139 -0.21737,-4.46494 -1.0122,-1.21027 -1.30648,-0.74896 -0.47641,3.03972 1.0122,1.21027 z m -1.05826,-0.57697 c 1.94162,-2.20521 1.79491,0.54813 0,0 z m -2.09938,-0.98946 c 0.7162,-2.17917 -0.91807,0.36746 0,0 z m 4.3482,-1.2998 c 1.24852,-3.01883 -0.92121,-3.84784 -0.36151,-1.61407 -1.06365,1.17962 -1.07813,0.88058 0.3747,1.98783 l 0.15697,-0.0862 -0.17017,-0.28757 z m -38.061445,27.95504 c -2.483889,-1.27282 -5.309479,-0.70443 -8.921285,-1.5584 -2.5526,-2.09891 -4.59188,-1.65645 -7.109421,-2.34487 -0.02404,-0.0238 0.959702,-4.88562 -1.345254,-2.62892 0.292417,-1.66264 -2.224144,-1.16048 -0.149383,-2.10047 -3.271479,1.18452 -5.578912,2.10606 -5.064614,-2.39168 -3.215842,0.93272 -5.009344,-0.64854 -1.933913,-1.90731 0.221543,-2.9673 -5.136516,3.04308 -2.769331,-1.29051 1.59835,0.22254 3.540253,-0.49994 0.158708,-0.29725 -2.339432,0.3411 0.403115,-0.6929 -2.061091,-1.92215 -0.259016,-1.71727 1.388117,-2.57702 -0.881786,-3.61998 -0.698226,-3.72212 2.878425,-1.80083 4.234595,0.35194 1.001152,-1.43116 -1.14276,-4.05109 -1.358684,-4.4316 -1.40506,-2.27739 -2.876274,0.68106 -2.458123,-1.52634 3.045054,0.29024 0.823812,-0.13329 0.05918,-0.78694 0.47684,-0.306 -2.145016,0.52637 0.0844,-1.12317 3.574387,-0.55337 7.330652,-1.2262 10.101034,-2.64406 1.821788,0.91125 4.777876,1.05484 1.383739,-0.17329 -2.400903,-0.74856 1.721232,-1.13496 0.142792,-2.39883 1.84674,-0.75818 0.23316,3.02078 1.670302,0.33139 -0.70131,-0.4643 2.335342,-1.08108 -0.136291,-1.05038 -1.808626,-0.62031 2.14967,-0.76476 -0.491101,-1.13993 2.366311,0.41386 4.328122,4.54979 6.410136,6.64009 1.178784,1.71147 2.925362,3.15526 3.750366,5.03351 0.17954,2.01262 1.731497,5.66205 1.039203,6.49432 -4.605169,-4.07017 -9.413101,-7.9293 -13.944124,-12.06763 -2.256649,1.92178 3.99928,4.64285 5.193571,6.71144 4.968477,4.86069 11.04323,9.00828 13.990497,15.52222 0.471018,1.60025 6.152562,9.08176 0.405873,6.3188 z m -22.81191,-14.6167 c -1.049576,-0.7829 -2.54333,0.78238 -0.291455,0.18139 z m -2.182689,-3.10885 c -1.647234,-1.46397 -1.508076,1.52261 0,0 z m 26.341944,8.65428 c -3.254713,-3.53195 -2.362538,-8.21956 -1.533307,-12.47274 0.135083,-2.70227 1.94707,-7.40549 0.699954,-8.86669 -1.320762,4.36953 -1.954029,8.9137 -3.056477,13.33985 -2.609943,-6.47908 -4.337646,-13.2881 -6.671732,-19.86497 -2.227319,0.22685 2.271648,8.31823 0.892428,8.77628 -3.298117,-2.5111 -5.584303,-6.90321 -8.675393,-9.0413 1.021829,1.85859 -2.372013,1.0919 -2.641615,0.89186 -0.59811,-2.33306 -6.297625,-1.64055 -2.473848,0.30242 1.489102,-1.27239 2.997638,-0.6139 0.833688,0.0248 -0.642653,1.02734 -1.974221,-0.59353 -2.08689,0.99218 -1.547367,-0.49293 -0.422221,-2.96285 -0.929579,-3.70416 2.210039,-2.11723 -1.716782,-0.5919 -0.652736,-2.68242 0.333348,-1.8238 0.08803,-3.20106 0.636551,-5.46941 -2.748838,-1.729 -0.07515,-7.90769 2.689072,-7.72317 0.729278,-0.34569 5.228091,-0.93122 6.562841,-0.52594 0.5561,2.15012 -5.406301,2.57096 -2.398389,2.64265 2.161771,-2.4765 4.542148,3.1033 1.120965,2.7209 -0.318174,2.0446 -0.58349,1.86367 -0.900914,0.97384 -0.593664,0.89653 -1.439768,1.91587 -1.472835,1.95349 1.995656,-0.10955 3.690418,-1.12288 3.475288,-2.16183 0.238479,1.62163 2.297415,0.25885 0.483874,0.27845 0.537859,-2.2169 5.26578,-0.24833 5.407413,-3.2356 0.0083,2.01164 5.812199,-2.8132 2.836421,-0.11503 -1.436096,0.62144 -3.129072,2.73114 -2.016538,2.62857 1.698981,-0.21868 -1.441909,3.43871 1.256767,1.84867 0.165233,-0.41152 2.233981,-1.26782 0.937621,-2.61922 0.664549,-0.65848 2.955039,-0.96791 3.428007,-1.83272 -0.592896,1.18915 5.18715,-2.0028 1.709235,-2.68855 -2.999326,-2.637535 4.106932,-2.338696 1.079473,0.19804 1.332785,0.20393 2.573725,-1.62147 2.66698,-0.0329 -2.008145,2.57182 2.584849,3.46231 1.059672,6.31692 0.798717,2.71333 2.364457,-2.19328 2.73945,0.44279 -0.137376,0.55758 2.289365,-3.96787 2.651438,-2.41081 1.431925,1.06526 3.469389,0.51319 4.609312,0.66458 -1.219093,1.50822 1.160508,2.83122 2.632247,1.67803 0.225396,1.81552 -1.382418,2.65126 1.075371,3.04584 -0.581964,-0.26494 2.272835,2.43651 0.634949,0.42579 1.160646,-1.86674 0.424731,0.80431 2.689786,-0.82575 1.92706,-0.65634 3.26094,1.24336 0.35333,1.34184 1.39224,1.04214 3.20425,-0.0907 3.05391,-1.68611 0.62468,1.11288 2.84121,0.53908 1.43316,-1.57933 0.70458,-0.88815 -2.08946,-1.41676 1.18115,-0.69926 0.77255,-0.24545 -0.85285,-0.87276 0.90184,-1.3646 0.0889,-0.67288 -0.3929,-0.89628 0.56394,-1.55592 0.91607,1.78122 -2.00966,3.52819 -1.06813,4.53678 -3.01622,-1.41953 1.84728,1.57806 -1.08974,1.78101 0.17662,2.60176 -2.39425,-0.16896 -2.7107,2.02932 -1.4176,1.32081 -1.3955,-1.11194 -2.99571,0.79049 -1.187085,-0.63235 -4.618711,-3.14487 -3.569839,-1.04052 1.189297,-0.39965 -0.715204,1.62195 1.321205,0.64247 2.256074,0.4496 1.802254,1.5531 1.681464,2.26774 2.36626,-0.31795 2.498,-2.48134 5.33363,-2.65974 2.41367,-0.60626 -2.23124,3.55786 1.7978,4.48544 1.45094,1.51865 1.20676,3.3662 -0.12971,4.80712 -1.49587,2.56454 -3.54783,5.76795 -4.01848,5.70744 0.0143,4.28465 -4.733669,6.19092 -7.844493,8.18488 1.879682,-5.2955 3.62086,-10.64996 5.547493,-15.92939 2.59966,-1.16533 -1.425028,-3.31475 -1.17727,-3.80375 0.16215,3.04321 -1.846512,7.71269 -3.353043,11.39859 -2.34064,5.96316 -4.066686,12.5147 -9.018392,16.95527 -1.51109,0.92807 0.460591,-4.69087 0.36448,-6.45559 0.04877,-2.7788 1.602244,-6.75479 0.261798,-8.85261 -1.266932,1.39514 -1.109622,6.91941 -1.940861,6.71472 -0.300779,-1.73964 -2.720453,-4.38977 -1.382452,-0.78897 2.20312,4.00551 -0.124952,8.27164 -1.101758,12.28013 -0.360482,2.09371 -1.124276,-0.93217 -1.693172,-1.38016 z m 21.49279,-24.05364 c -1.70452,-3.70729 -0.31953,2.28915 2e-5,1.9e-4 z m 1.49384,-0.47564 c 1.38475,-3.8357 -2.3777,1.73851 0,0 z m 1.32741,-2.54761 c 1.82301,-1.19233 -0.78545,-0.68538 -0.75951,-2.27508 -3.25927,-1.25962 2.28543,3.67929 -1.10948,1.68935 -0.14153,0.89775 1.75917,1.69415 1.86899,0.58573 z m -6.726879,-1.05268 c -1.517313,-0.96848 0.631009,2.84779 0,0 z m 5.363799,-2.22678 c 1.39874,-0.83816 -1.91357,-0.33452 -0.80809,-1.38283 -0.84624,-0.3201 -1.73173,1.44359 -1.82925,1.42513 2.21288,-1.12555 0.68022,1.97426 2.63734,-0.0423 z m -21.118953,-1.22441 c -0.09489,-2.05474 -3.148213,-0.15217 -0.30303,0.23636 z m 15.244088,-0.57056 c -0.643586,-2.07179 -1.887323,1.71444 0,0 z m -41.938568,-0.96381 c 1.053049,-0.91414 4.99877,-2.0895 3.027606,-2.38678 0.802692,-1.46486 0.886939,-3.09331 -0.323092,-2.13906 1.553376,-0.77435 2.027051,-3.84091 0.89479,-2.54917 1.441856,0.41123 -2.596674,2.1895 -1.251061,0.58366 -1.782536,-0.29494 -0.955276,1.89281 -1.573325,1.55573 0.465618,1.15949 -1.902819,2.58306 -0.42964,2.43617 -0.724283,0.41724 -2.578627,5.6674 -0.345278,2.49945 z m 9.797095,-4.53708 c 1.438469,-0.14859 1.858689,-1.50807 3.511087,-1.85614 -1.380605,-0.92613 -2.775905,1.0472 -4.210645,1.85235 -1.566262,0.0328 0.212481,0.73566 0.699558,0.004 z m -6.781813,-2.78963 c 0.706344,-0.68914 3.110381,-1.19933 0.224623,-1.38896 -0.02943,0.52076 -4.199684,0.0648 -1.747032,1.49521 0.471828,-0.33514 1.800627,1.05438 1.522409,-0.10625 z m 11.050863,-0.0302 c 1.124836,-2.18991 -2.49888,1.7041 0,0 z m -14.260406,-0.19682 c 0.537357,-2.54006 -2.695867,1.18876 0,0 z m 8.34099,-1.38674 c -3.474038,-0.89299 -2.341832,0.40874 -0.722787,0.71795 0.152323,0.58079 1.67273,-0.4105 0.722787,-0.71795 z m 17.162739,-0.78046 c 0.178242,-2.81636 -3.935861,-1.4827 0,0 z m 22.900935,25.86386 c 1.13211,-2.61482 2.64151,-7.36947 5.40948,-6.51458 -1.12059,-1.70505 -3.51142,1.50129 -1.45774,-1.54028 0.74344,-2.2 2.56763,2.15918 2.34742,3.34471 -1.11946,2.10331 -4.31017,2.63197 -5.77829,4.75466 0.0746,0.2386 -0.92806,0.46061 -0.52087,-0.0445 z m 1.61481,-1.9212 c 1.69408,-2.3684 -1.55994,0.74432 0,0 z m 2.10798,-1.90398 c 0.12194,-5.48155 -1.81519,3.71817 0,0 z M 58.354169,125.1246 c 0.411884,-0.91657 -4.318627,-0.24603 -1.478007,-2.01852 0.375696,1.07998 4.630596,0.76572 1.478007,2.01852 z m -1.852084,-2.64409 c 0.932037,-2.1683 1.596581,-0.0371 0,0 z m 1.459627,-0.5987 c 1.951926,-1.43123 4.264978,0.66944 0.742093,-0.043 -0.236138,-0.32043 -1.00012,0.73994 -0.742093,0.043 z m 53.770918,-4.25109 c -0.49665,-1.38654 -3.8472,2.03311 -1.18265,-0.7276 -0.33006,-1.77773 0.65065,-0.83183 2.43834,0 0.71577,-2.26654 -1.49443,-2.34965 -1.09689,-1.22242 -2.22603,-1.42911 1.59667,-2.47252 1.09948,-1.26843 3.15597,0.48381 0.44163,3.61972 -0.91155,3.82448 l -0.34645,-0.60603 z m -0.20609,-4.73644 c 1.02004,0.1994 -0.0796,-3.33619 -0.6682,-0.21144 -2.55576,0.1162 0.75792,-4.17286 -1.57171,-2.92347 -1.2722,2.6271 0.85675,-3.55028 1.61003,-3.32865 -0.99947,-1.20408 -1.96898,-1.7553 -0.46127,-2.53896 -2.82637,-0.33988 1.58047,-1.55538 1.59129,-1.21808 0.43687,1.63383 -0.9955,2.70366 0.96643,2.01714 0.56353,2.37564 0.27221,-2.37154 0.63056,-2.26329 1.13772,-3.407953 5.86902,0.34998 3.56361,2.70222 -0.29127,0.34321 -2.10293,2.39734 -2.98913,0.99171 -1.86674,-0.60466 -2.78402,3.55187 0.13002,3.13238 -1.80736,0.008 1.33235,2.94887 -1.89592,2.8711 0.17653,0.60439 -0.30992,1.13564 -0.90571,0.76934 z m -9.89976,-3.4412 c -0.3031,-2.02331 -2.217712,-0.74979 -0.65117,-1.73432 1.40141,2.00364 1.55295,1.76936 1.68257,1.09895 1.46754,1.11986 -1.26468,1.70605 -1.0314,0.63537 z m -0.416,-2.48741 c 0.40828,-2.57544 -4.585843,-0.44677 -3.02552,-1.45792 2.99261,0.35568 -2.511919,-1.01999 -1.142246,-2.95828 -0.113401,-2.801069 -4.008952,1.5015 -2.219986,-1.49801 -1.309833,0.10192 -6.152859,-2.89758 -3.187104,-4.014935 1.641414,0.03151 2.537669,0.617965 1.532467,-0.745586 3.154323,0.433259 -0.588706,-1.824214 2.130116,-0.633552 -1.255525,-1.074543 -1.970943,-1.315351 -0.533001,-2.01035 -3.337673,0.189241 -1.912982,-1.126651 -0.437745,-2.02601 -1.564569,3.047065 3.186752,1.805471 1.094025,-0.588259 1.564159,-1.270459 2.099314,-1.048541 0.647812,-0.03895 2.55556,-0.825661 2.173158,1.151201 2.385604,1.553822 0.972549,0.628816 -1.471445,3.110624 -0.645664,0.542975 -1.36172,-0.45782 -0.524615,-0.765935 -1.004689,-1.769779 -1.224337,0.612309 -0.831014,2.300734 0.551738,1.996794 -1.844036,0.646352 1.015524,1.228573 -1.569865,2.280482 0.977881,0.794075 -3.014274,1.750242 -1.005891,2.630139 1.3976,-1.499935 3.48848,-2.090853 1.80118,0.424598 0.577016,2.276311 2.039883,0.108447 1.51964,-0.830413 0.729538,-0.006 -0.412971,3.667854 1.410747,2.204044 -1.331705,1.99326 1.479652,-0.324793 1.397562,2.41294 1.86415,1.83097 -2.11117,2.53938 1.42152,3.47396 1.86519,-0.27203 -1.64756,1.86986 -1.1207,1.05229 z m -2.639945,-3.79258 c -1.194977,-2.2502 -0.695064,1.31106 0,0 z m 1.058334,-0.14745 c 2.321511,-2.97991 -1.840498,1.19012 0,0 z m -6.085417,-3.205539 c -0.22656,-2.083109 1.149387,-1.971834 -1.122267,-2.008885 -0.429079,0.08882 1.029143,2.819664 1.122267,2.008885 z m -20.492273,6.570279 c 0.276344,-2.09465 1.572047,1.1759 0,0 z m -4.583083,-1.05505 c 1.360332,-2.46973 2.672354,0.80817 0.104008,0.5386 z m 27.391849,-0.99992 c -1.36828,-2.33541 2.775073,1.27107 0.01301,0.53867 z m -29.303993,-0.26458 c 0.210707,-0.87333 2.882683,1.18849 2e-6,0 z m 40.084958,-1.13162 c 0.69644,-3.858702 0.56017,2.14127 0,0 z m -10.650062,-0.49998 c 0.473954,-1.90628 0.947438,2.09788 0,0 z m -12.003217,-0.63594 c 2.345153,-1.01914 0.315396,0.79637 -0.638996,0.45214 z m 3.454008,-0.32056 c -1.593008,-1.908287 0.73609,-0.66943 0.677855,0.32231 z m 15.134061,0.14552 c -1.97168,-0.75832 -1.84771,-1.51664 -1.70882,-2.367257 0.97444,-0.331604 1.13073,-0.403673 2.04948,-0.05291 -3.893737,1.230727 3.28217,2.843987 -0.34066,2.420167 z m 10.01775,7.7e-4 c -1.38424,0.006 -2.2149,-1.644564 -0.73243,-1.767447 -0.0454,2.286147 2.78498,-1.004503 1.81523,1.399757 l -0.5851,0.5397 -0.49813,-0.17196 z m -24.694434,-1.10798 c -1.299139,-0.596139 -1.929136,-1.489912 0.02206,-2.204809 0.301779,0.761415 1.230666,-2.874769 1.175865,-0.07341 -0.818759,1.038473 2.432104,-0.48112 0.738564,0.735802 -1.062654,0.279482 3.015539,2.464677 0.660945,1.771367 -0.70078,-1.576877 -2.482108,1.85247 -2.597438,-0.22895 z m 18.079854,-0.24942 c -1.4207,-2.848941 4.98654,-1.206634 3.15263,-3.144011 0.26605,1.492217 -3.24793,0.799087 -3.08649,0.379095 -0.28909,-0.003 3.38441,-0.431665 1.91824,-2.034833 1.64292,-0.268233 0.33087,1.498067 2.249,1.556277 -0.5173,1.960207 -0.97259,3.427952 -2.80596,1.545022 -0.92373,-0.01941 -0.94224,2.88888 -1.42742,1.69845 z m 8.36268,-0.984932 c 0.0313,-2.378718 1.24372,1.502942 0,0 z M 86.496265,97.193181 c -1.546102,-0.527262 0.69975,-1.057539 -1.154596,-1.306607 -0.209502,-1.743721 4.580763,-2.819274 3.080976,-0.532959 -1.780133,-0.225368 -1.032649,2.949896 -1.92638,1.839566 z m 3.087151,-0.596832 c 1.151782,-2.429134 2.678331,0.41762 0,0 z m 7.909425,-0.132292 c -0.64606,-3.887685 1.469265,0.711008 0,0 z m 1.847797,0.08095 c -1.675562,-1.498513 0.685472,-1.392066 0.624752,0.0727 -0.0085,0.05832 -1.180038,0.29883 -0.624752,-0.0727 z m -7.632869,-0.485744 c -0.124307,-0.325106 1.590276,-0.07213 -0.01553,-1.084202 2.948144,-0.698453 2.598367,1.108937 0.01553,1.084202 z m -8.74735,-0.06035 c 1.323844,-0.960145 2.424648,-2.189094 0.124001,-0.944162 -2.227621,-0.121238 0.314055,-2.184784 -2.236165,-2.150255 -4.335606,-1.650601 2.6225,-3.068282 1.450337,-1.25739 -0.945796,2.823551 0.879491,0.698165 1.33729,1.16629 1.155705,-1.582237 0.465455,-2.402913 2.427457,-2.439382 0.606286,-1.21666 0.791944,4.599255 -1.278942,3.093526 1.412719,0.755693 -0.502938,2.518975 -1.823978,2.531373 z M 103.99479,94.67812 c -1.15914,-3.157912 0.83282,-1.584459 0,0 z M 88.713585,92.595848 c 0.237485,-2.317994 3.967486,-2.770661 1.090779,-0.342196 -0.178731,0.02999 -0.979907,1.12782 -1.090779,0.342196 z m 10.530245,0.0979 c 0.76514,-2.540135 1.29462,0.971928 0,0 z m -6.750365,-1.007803 c 2.470765,-2.652819 0.68932,1.678808 0,0 z"
         id="path800" /><path
         style="fill:#cbe09b;stroke-width:0.264583"
         d="m 82.828127,156.65316 c -1.996435,-0.23606 -1.956037,-1.80274 -3.22957,-2.05255 -0.866772,1.93142 -5.62853,-1.42643 -6.552286,-0.73318 2.961923,2.89057 -5.361942,-0.95388 -0.750794,-1.42122 -2.891923,0.78685 -7.583994,0.32001 -7.410266,-3.43619 -2.039715,-0.43505 0.04098,-3.1115 -3.004392,-1.37495 -2.688165,1.72925 -4.081701,0.66658 -1.770227,-0.91323 -1.528096,-1.68758 -2.66934,-2.69545 -5.05714,-1.83049 -0.03159,-0.36081 5.97641,-3.35086 1.66992,-3.57529 -2.473968,0.4795 -4.295162,-0.10659 -3.538163,-2.947 -1.716569,-0.13628 -1.902845,-6.42007 -0.01561,-3.80818 -0.155336,2.1418 0.785999,1.48922 0.662022,1.0344 2.662114,2.48633 1.204948,-2.15316 0.162283,-3.23782 2.272748,-0.6943 -1.661603,-2.92837 -1.578839,-2.70399 1.244452,-0.64817 0.529223,1.01825 1.616405,-0.50419 1.352896,0.42865 2.884039,-0.43666 2.404466,0.72368 1.474492,-2.1087 3.3182,0.2685 4.870482,0.10406 -1.665126,-1.2479 -3.875848,-3.18819 -0.931604,-1.78365 5.594206,6.39626 12.767069,11.33057 18.073639,17.99578 1.281662,3.02316 5.472861,7.72202 4.379677,10.46401 z M 55.837741,138.16725 c -2.693067,-1.00312 0.587408,2.17467 -3e-6,-3e-5 z m 31.675165,15.10757 c -0.04018,-1.60158 0.0159,-3.1665 1.383123,-4.23203 6.413546,-8.90282 15.252521,-15.57044 23.786351,-22.29228 2.37833,0.32965 0.19734,4.03777 2.55721,5.09758 -2.65881,1.84142 -2.78185,3.08169 -0.13384,2.70469 -1.31886,1.5302 2.9936,-0.93488 1.9845,-2.30261 0.96357,-0.64438 0.50986,1.30067 1.73692,-0.58138 0.38568,-1.91589 0.71493,-4.13656 0.70371,-4.95497 0.77159,-1.00442 1.41011,-0.87105 -0.16016,-1.45882 3.48737,-0.89985 2.35453,3.60882 0.63149,5.31075 -1.26152,4.54657 1.49674,0.36612 1.75856,-1.92266 2.11231,-2.6472 -0.34947,1.78752 0.13054,2.95694 -1.53825,-0.63136 -1.1654,4.77744 -2.68719,2.90082 -0.82465,1.82368 -6.07108,2.9822 -5.73085,4.40165 1.41845,0.022 0.32568,-0.54222 2.08392,0.0142 -1.15501,-2.12594 1.41018,-0.50538 3.12205,-1.67257 -1.6667,1.24101 -3.86927,4.48553 -4.0335,4.6647 -1.18143,-1.15166 -4.27918,3.19444 -6.84976,2.34405 -3.44665,1.2485 -0.70631,5.32964 -2.87443,6.95824 -1.49151,-0.0438 -4.12349,-1.2019 -3.36538,1.11971 -0.17983,0.0794 1.58766,1.29576 -0.79197,2.20841 -1.05679,1.18682 -1.778536,-2.01576 -2.183034,0.82714 -2.10901,0.20094 -3.69763,-4.59363 -3.096569,-0.37313 0.169454,2.33475 -3.383696,-0.38021 -5.282666,0.69088 -0.307959,-0.19524 -3.720658,1.28694 -2.729779,-1.47902 0.01341,-0.30995 0.02839,-0.62104 0.04075,-0.93024 z m 25.080654,-24.51845 c 2.12177,-3.21226 -3.04709,2.14247 0,0 z m -9.84878,23.44056 c 0.23468,-1.56467 4.01429,-0.57464 0.58856,0.14402 -0.0459,0.44547 -0.98614,0.56103 -0.58856,-0.14402 z M 82.256754,147.0231 c -3.196657,-3.40709 -2.374666,-7.93928 -1.542763,-12.06869 0.05443,-2.72388 2.178129,-8.0634 0.640504,-9.27715 -1.36425,4.37366 -1.927281,8.95775 -3.031328,13.40151 -2.356965,-6.12858 -4.023512,-12.63189 -6.126539,-18.72898 2.159359,-0.93754 1.674263,0.0934 4.242283,0.52301 -2.61301,1.67603 1.576034,3.14169 2.104008,0.10263 1.991162,-2.60064 0.733414,-4.61018 -2.087575,-4.19098 -2.266224,-0.40202 0.305875,-2.79722 -2.107347,-0.53604 -2.426676,0.0636 1.224283,-0.42973 -0.86307,-1.80337 2.395121,0.65858 6.281208,-0.12861 7.745204,0.41429 1.134806,3.9922 5.112626,0.13923 3.878743,-1.23809 -1.492608,1.42255 -3.719087,-2.97082 -4.403475,-0.79407 -2.448262,-1.81384 0.684862,3.68985 -1.587474,0.87987 -1.03485,-1.33377 -0.599317,2.27177 -1.621586,-0.13646 0.164691,-1.42934 -5.106072,-0.0992 -5.1854,-1.71477 3.372285,-0.14206 -2.267469,-1.14082 1.245402,-1.30524 0.762731,0.0727 1.308246,-1.59717 2.529236,-1.93233 -2.568946,0.13571 4.316121,-1.99755 0.08345,-1.68069 -0.527953,0.15419 1.276614,-1.84116 2.176898,-1.81272 1.413287,-0.48359 2.954564,-0.84632 4.875195,-0.60964 -1.152616,1.54281 1.745286,2.66582 -1.31903,2.82976 2.024196,-0.69285 2.392046,0.91595 3.235915,1.91437 2.142585,-2.98728 0.769029,1.70057 3.006249,-1.38948 -0.672713,-1.4535 2.240954,-0.93347 2.417535,-1.74618 -0.984221,3.81657 5.471282,-1.2916 2.185501,2.58192 -0.233153,0.27422 3.65466,-1.50547 1.325637,0.97129 1.12862,0.0171 3.218952,-1.38486 2.503392,1.12906 0.414275,0.99729 -0.546619,2.14444 1.347675,1.09351 -2.208051,1.81653 -0.0471,1.79177 -0.618661,2.48289 1.190609,0.51133 0.998792,0.006 0.04402,1.35266 1.492768,-0.61981 2.925307,-0.96203 1.42193,0.90299 1.218716,-0.92304 1.095696,-3.26676 1.855827,-1.05834 -0.56064,1.18551 -0.52152,1.80751 -2.043441,2.30401 1.489321,0.0928 -1.072727,1.92633 0.06131,2.05324 -0.698097,1.39996 2.403221,-0.0888 0.538761,2.29836 -2.619913,6.2942 -4.515846,12.93565 -7.827512,18.91335 -0.880721,0.89758 -4.212316,5.96002 -4.241115,4.51644 0.874133,-5.064 1.753571,-10.20171 1.697125,-15.34358 -1.867618,0.78323 -1.476714,4.39707 -2.128968,6.45076 -0.11737,1.3736 -2.373849,-5.85447 -1.832972,-1.31366 0.338238,2.14094 1.952627,4.17301 0.861469,6.33294 -0.62454,2.50055 -1.243051,5.00806 -2.11144,7.43751 -0.44777,-0.73495 -0.896202,-1.4726 -1.343569,-2.20591 z m -4.54012,-31.08936 c 1.060779,-0.0211 3.813847,-0.23733 0.812014,-0.46661 -1.914813,-0.27063 -3.617427,1.41873 -0.812014,0.46659 z m -4.923299,21.56296 c -2.876976,-3.22439 -8.109213,-5.67151 -9.804888,-9.18933 3.100748,2.05502 -2.229559,-3.49119 1.036115,-1.20204 1.552013,2.43479 0.967328,-1.70011 -0.478134,-1.64485 2.102921,-0.016 1.837498,-5.37969 3.884868,-1.10229 2.173104,2.86929 4.685081,5.58139 6.690318,8.53225 0.465047,2.26633 1.040886,4.51472 1.364275,6.80647 -0.984012,-0.62104 -1.81969,-1.43913 -2.692554,-2.20021 z m -5.823728,-6.6529 c -0.606582,-1.20744 0.06661,-2.07387 -1.6267,-1.85315 0.253174,-2.41281 -0.684224,2.65782 1.116023,0.42697 -1.549719,1.10292 -1.015468,2.0776 0.933396,2.01931 l 0.08309,-0.10613 -0.505813,-0.48696 z m 1.364651,-0.42928 c -1.44038,-3.1926 -1.897388,1.9772 0,0 z m 27.438318,6.17731 c 2.157329,-5.31706 3.656691,-10.87072 5.753054,-16.20704 1.86227,0.62478 -0.17131,4.553 1.21942,2.60375 2.57679,3.24991 -0.74857,-4.16192 1.29834,-2.00667 0.24545,-1.14768 -0.88292,-2.71496 -0.66193,-0.92564 0.0321,-2.45418 -4.638184,-1.91401 -1.9711,-3.34832 1.46203,0.86169 1.88923,0.78635 1.89804,0.0147 1.4098,1.39674 2.21049,3.73524 0.8377,5.93519 1.24115,0.57451 2.15547,-0.79386 1.38083,1.29952 1.94234,-0.73283 1.38339,0.6403 -0.2088,0.354 -0.95694,-1.14697 0.61738,5.02276 -1.11295,3.51731 1.30652,-1.3681 -4.00331,-2.30402 -0.97654,0.51448 1.46684,1.59804 -1.1095,3.71139 -2.04598,5.01936 -1.499372,0.88339 -4.477924,3.52129 -5.410084,3.22932 z m 7.296174,-10.96124 c -0.71501,-1.26371 1.25285,-1.98679 -1.06847,-0.35167 -0.56704,0.78664 0.9656,1.08651 1.06847,0.35167 z m 2.86392,3.72016 c 2.04059,-1.60967 1.745,-0.55571 0.27639,0.69108 -0.72831,0.99 -0.55865,-0.40308 -0.27639,-0.69108 z m -35.181286,-3.12107 c -2.440654,-1.47362 -5.774233,-9.09394 -7.604101,-6.4548 -2.681165,-0.69934 -6.650098,-2.96593 -4.598752,-5.94489 1.150422,-0.57184 4.299897,-0.96298 3.616725,1.56514 1.03895,1.82172 0.522355,3.0847 1.966305,0.97884 2.114654,-0.54855 5.176394,-2.70188 5.747691,-1.51608 -0.993903,1.20028 -3.582587,1.28413 -4.550939,2.24949 3.143667,-0.80582 2.849672,1.10536 5.573842,1.50083 1.076027,-1.83476 1.462605,-0.48615 1.1442,0.21307 0.942807,1.58911 -2.305392,-1.33191 -0.90483,1.89788 0.02517,1.8655 2.74207,7.99374 1.20535,7.1455 -0.536347,-0.54056 -1.067046,-1.08696 -1.595491,-1.63498 z m -8.615412,-8.80492 c -2.293588,-0.72807 0.43049,1.90116 0,0 z m 48.605698,9.21219 c 0.69932,-1.39261 0.67059,-5.116 0.95732,-1.41218 -0.0871,0.57638 -0.40717,1.1588 -0.95732,1.41218 z m 6.84782,-1.33331 c -1.08598,-1.92185 1.09252,-2.89535 0.29597,0.33071 l -0.19607,-0.0971 -0.0999,-0.23358 z m -10.74023,-7.16872 c -2.60711,-2.21115 3.52673,1.99159 0,0 z m -35.6628,-1.49638 c 0.287184,-1.87142 -1.39538,1.37376 -0.812085,-1.2336 1.565443,0.44447 3.32268,-2.90477 1.738072,0.1494 -0.05888,0.48917 -1.065167,3.11459 -0.925987,1.0842 z m 33.58593,-1.18719 c 0.64574,-0.68231 -1.21426,-0.82198 1.33811,-1.63303 2.12839,-0.0483 -3.21122,3.61891 -1.33811,1.63303 z m 8.53692,0.042 c -1.23866,-1.94354 0.83375,-0.2794 0.48916,0.44741 l -0.12092,-0.0179 z m -13.13011,-1.55117 c -2.179689,-1.32207 -1.019057,-1.37408 -0.198334,-0.67294 -0.902455,-1.38153 -1.164622,-1.9957 0.697494,-1.41029 -0.18825,2.64346 0.67413,-1.53734 1.86124,-0.76332 2.22841,-0.1226 -2.53419,1.49025 0.23885,1.72072 -0.36401,1.24581 -1.4071,2.03461 -2.59925,1.12583 z m 2.72551,-0.0691 c 0.12344,-1.02941 4.28004,-4.1331 3.37936,-1.50478 -1.60514,-0.89582 -2.29388,2.83166 -3.37936,1.50478 z m -30.474708,-0.46246 c -1.339957,-1.5112 3.982916,0.42848 0.474116,0.24923 l -0.474114,-0.2492 z m 38.017798,-1.9976 c -0.36835,-2.48565 -0.28079,-2.7311 0.71005,-0.76803 1.36725,-1.05006 -0.84662,2.21479 -0.71005,0.76803 z m 2.14595,0.32713 c 0.77687,-1.95109 -1.22851,-2.68545 1.02711,-1.74743 1.33379,0.3134 -0.74784,2.04359 -1.02711,1.74743 z m -5.13733,-2.17922 c -2.86726,-1.83121 2.73107,-0.6125 0,0 z m 3.57237,-0.39687 c -1.87988,-1.09734 1.91926,-2.61118 1.11243,-1.09065 1.04538,-0.32774 -1.44818,2.71719 -1.11243,1.09065 z m -0.5517,-2.0817 c 0.7763,-1.01483 -0.13666,-2.1115 1.50334,-0.84621 -1.12826,-2.32128 2.5985,0.11121 -0.55029,0.75197 l -0.67309,0.16283 -0.27996,-0.0686 z m 4.10104,-1.02716 c -2.36089,-1.61786 -0.92104,-1.54491 0.31041,-3.11463 -2.29385,-4.02992 4.71088,-0.0319 1.793,1.69828 -0.0354,0.72744 -1.58612,2.90875 -2.10341,1.41635 z m -16.267827,-4.13479 c 0.809199,-1.54889 2.256947,0.79564 0,10e-6 z m 14.481887,-0.28092 c -1.49363,-1.2548 2.21816,-0.0139 0,0 z m -17.085014,-0.9421 c 0.518909,-2.067181 0.826883,-1.586507 0.527573,-0.2211 1.312139,-1.652405 -0.491696,2.04871 -0.527573,0.2211 z m -7.41748,-0.0565 c 1.534667,-2.260321 1.091064,0.72475 0,1e-5 z m 6.545641,0.18879 c -0.454998,-1.17762 0.508174,-2.129507 -0.69406,-1.683288 1.395157,-3.087059 1.644797,2.485258 0.69406,1.683288 z m -8.170752,-1.315656 c 1.466693,-2.522358 2.900972,1.067026 0,0 z m 9.353071,-1.271914 c -2.769351,-0.56649 1.813555,-0.694381 0,0 z"
         id="path798" /><path
         style="fill:#c7de93;stroke-width:0.264583"
         d="m 82.342479,156.41365 c 1.896999,-2.50053 -2.402051,-1.67491 -2.96539,-2.22062 0.570926,3.08557 -6.065502,-2.1954 -3.232511,-0.72318 -0.511385,-3.56768 -4.902048,-4.17948 -6.994156,-4.23594 -1.402473,1.17394 -1.93641,4.80038 -1.501002,0.96179 1.558347,-1.39076 -1.296422,0.11776 -0.696278,-1.59003 -1.968852,-0.35442 -0.365804,5.63286 -1.351897,1.47553 -0.05582,-2.07145 -2.953618,-2.3874 -0.09338,-3.71298 -0.0095,-1.50623 -1.557591,-4.13495 0.754087,-4.3747 0.469379,-0.83686 -2.592044,-0.71751 -2.486737,-3.13246 -0.92852,-1.40408 1.352439,-1.40806 0.198084,-2.86035 -1.624063,-0.11735 1.777295,-2.04151 1.906149,-2.08016 4.971118,4.79011 11.133106,8.74935 14.163254,15.17596 0.22165,1.40597 5.162902,7.30957 2.299774,7.31714 z M 68.871356,141.00876 c 1.287133,-1.44457 -4.190299,-2.70129 -1.26761,-0.94303 -2.693342,-0.17388 -1.150872,0.31697 -0.131448,0.93064 -2.533199,0.0232 1.353824,1.68842 1.399058,0.0124 z m 19.05,14.87031 c -1.739965,-2.91218 0.956665,-8.59473 3.646892,-8.91575 -0.35297,-3.45227 4.695172,-4.70377 4.596518,-6.29126 2.361839,-1.84018 4.536344,-4.30488 7.255124,-6.46161 2.8395,-2.06995 2.24432,-2.52912 1.91538,-0.0823 -0.39581,0.20701 0.41355,1.93218 -1.08554,0.86268 -2.00686,0.77703 2.24666,3.02307 -0.945,1.18044 -3.330666,-1.27981 -1.97655,5.21615 -4.146038,3.75499 -0.258416,-3.03458 -0.560141,2.28761 -2.439982,1.41394 0.992486,1.17319 2.560449,-0.9284 1.355687,1.67498 1.5259,1.21433 0.548645,-2.05313 1.777002,0.50308 0.619491,0.5759 2.202561,-1.25068 2.503891,-0.44675 1.13038,-2.05669 -4.183757,-2.28085 -0.99116,-4.02251 0.82528,-2.94813 0.79997,-1.36134 0.85822,0.3351 0.26361,-0.20501 1.48356,-1.61259 2.47745,-0.11492 0.94745,-0.0898 -1.96578,-1.68817 0.66682,-0.84154 -0.0335,-2.25476 0.57467,-3.0759 1.06169,-3.15349 -0.86416,-2.66939 0.3573,-0.0609 1.05539,0.074 3.17704,0.82223 0.0135,-0.76845 2.21609,-1.44204 1.7802,0.52743 1.84166,0.57335 2.51512,2.20763 3.32196,-0.63964 2.56275,-1.06263 1.61168,0.94184 0.58966,1.04933 -2.51562,2.07166 -0.88324,2.40343 -0.01,0.52701 3.27742,-0.93729 4.69152,-1.78699 -0.049,1.09531 -4.04767,1.44974 -2.63739,3.76902 -0.98854,-0.62518 -4.3882,2.26991 -6.31036,2.39633 1.98057,0.4132 -1.48549,0.0397 -0.51165,-0.59235 -2.01172,-0.63658 -1.17848,1.54738 -2.72806,3.36778 1.01778,3.45769 -0.76286,5.64915 -3.45824,3.47909 -3.400273,0.95499 -3.12132,3.30591 -0.12344,3.29375 -0.92773,1.20869 -3.189818,-0.0728 -3.756461,2.06611 -1.184588,-1.02359 -3.502619,-4.23324 -2.753685,-0.73451 -2.084259,2.22974 -4.876324,-0.36374 -6.521085,-0.0256 0.139029,0.6372 0.0535,1.77396 -0.913143,1.18749 z m 5.854732,-0.85042 c 0.788873,-1.73363 -1.948466,0.79412 0,0 z M 108.838,140.65577 c -0.24299,-1.46908 -2.53688,2.24273 0,0 z m -1.53591,-2.3214 c -1.9,-3.02154 -0.68101,1.83053 0,0 z m -36.769042,13.97517 c -2.90285,-0.97818 1.285876,-2.84861 1.762813,-1.53975 2.336231,-0.99877 2.115833,1.74682 0.07522,1.06425 -1.187379,0.8012 -0.734941,-0.22732 -1.838034,0.47542 z m 11.587472,-5.55722 c -3.279046,-3.64341 -1.934775,-8.47634 -1.241396,-12.78593 0.0078,-2.36916 2.097271,-7.42814 0.476344,-8.29304 -1.379299,4.33639 -1.938095,8.89267 -2.985266,13.31792 -2.126881,-5.37408 -3.697002,-10.97786 -5.46395,-16.48634 2.16558,0.13318 6.207,1.58617 5.452463,-0.98543 0.977281,-0.85949 6.304969,-1.63225 3.361958,-1.80299 1.117303,-1.54821 6.966023,-2.77291 4.414747,-4.5698 2.020215,-0.46009 -1.74834,-1.95803 -1.492088,-2.90407 -1.970896,-1.93377 -6.33862,1.6754 -6.668322,-0.0334 -2.112741,-1.07599 0.108915,1.50827 -1.849804,-0.10543 -0.519621,-0.85016 -1.707971,-0.6285 0.365346,-1.79514 1.441126,-0.43064 4.770383,-1.84279 5.570621,-1.67373 0.07644,1.91652 2.266716,-2.44807 0.967602,0.9618 1.355665,-2.3901 0.77356,-1.41006 1.87047,-0.0101 1.806537,-1.02942 0.429572,1.39186 2.200195,-0.47686 1.956522,-1.77395 3.225701,0.0826 5.074364,-0.93782 3.904511,-2.28772 -2.779214,2.27941 0.874604,1.53097 1.925012,-1.64949 0.171502,-0.0849 0.447082,1.70188 0.52445,0.51656 0.695852,-1.83835 1.515978,-0.59745 1.631215,-2.64002 1.018836,-0.25517 0.723393,1.11064 1.212807,0.48523 1.098466,4.76667 -2.043021,3.26879 -0.573033,1.10841 -3.751279,-1.16578 -2.017111,0.85621 2.218599,-0.17288 3.05669,-0.12941 5.308592,-0.19785 -2.198566,1.31561 4.099069,-1.44119 0.661459,1.04072 3.12072,-0.67935 0.940528,0.27476 0.926041,1.06053 -0.537886,2.08437 -3.767533,2.23528 -2.08783,-0.49276 -1.428802,1.08976 -4.333109,-1.0238 -2.148241,1.42748 1.696968,0.11663 0.09885,1.5323 3.062175,1.03433 0.874368,-0.11334 1.002434,1.58228 2.496812,0.62013 -3.098472,6.77398 -5.030895,14.19215 -8.583932,20.81933 -1.252882,1.01115 -4.868165,2.79371 -3.309869,-0.60733 -0.372223,-2.96526 2.504673,-9.13385 -0.02514,-10.32999 -0.892895,2.0484 -0.958173,9.80295 -2.704954,3.73643 -2.126161,1.1538 2.479036,6.09326 0.109396,8.72434 -0.775103,1.0998 -1.000384,8.38735 -2.550383,5.05227 -0.236111,-0.39277 -0.472223,-0.78553 -0.708335,-1.1783 z m 12.628613,-14.74407 c 0.840293,-0.70305 -0.229521,-3.00432 -0.250144,-2.20248 -3.29931,-0.0996 -1.021165,2.38277 0.250144,2.20248 z M 75.552085,123.7655 c 1.066331,-1.1303 -2.162515,0.21617 0,0 z m 4.639363,-1.88855 c -1.471106,-1.54773 -2.320884,1.23434 0,0 z m 11.235637,-12.50339 c -0.976419,-1.3422 -1.236592,2.98878 0,0 z M 61.286634,147.4903 c 3.320443,-1.83418 1.849458,0.12926 0,0 z m 3.064757,-1.39482 c -0.575307,-1.87677 2.373142,1.07937 0,0 z m 22.931658,-1.27882 c -0.130866,-2.1027 1.131489,-0.59552 1.707978,-0.81591 -0.780787,0.66078 -2.549166,4.01839 -1.707978,0.81591 z m -26.073566,-1.8987 c -0.01387,-1.80487 1.775953,-0.59724 0,0 z m 1.365629,-0.32711 c 2.25719,-1.53716 1.550078,-0.36561 -0.159841,0.4139 z M 73.56771,138.157 c -2.009114,-1.99258 -6.385069,-5.26809 -7.144801,-6.38728 1.689669,1.55619 4.761175,3.12982 3.048029,-0.18737 -0.04701,-2.45001 -3.675872,-2.17646 -3.601118,-4.24621 -2.12675,-2.04723 0.418131,-6.18827 2.133712,-2.17552 2.424422,3.55207 6.426833,6.34609 6.776731,10.9393 -0.0964,1.78621 2.47562,6.0891 -1.212553,2.05708 z m -2.152975,-7.17222 c -0.449838,-2.33565 -4.172453,-1.47426 -0.62515,-0.85422 -2.548544,0.28077 -0.163747,0.95711 0.62515,0.85422 z m -2.777182,-2.73203 c -1.88136,-0.8809 0.819194,2.38203 0,0 z m 27.994048,6.20334 c 1.850949,-2.77878 1.759328,-9.84889 4.797109,-10.17395 -0.48648,0.5795 2.28182,4.67135 1.82113,5.54939 -0.40378,3.33923 -4.571517,5.12231 -7.26394,7.01708 -0.783763,0.74041 0.661264,-2.09406 0.645701,-2.39252 z m 17.994329,2.18766 c 1.74619,-0.31401 0.65838,-3.02195 3.02411,-2.18017 3.71249,-3.46392 -1.18309,3.93658 -3.02411,2.18017 z m -2.40075,-1.9029 c -0.86602,-0.76368 3.94462,0.39679 0.66469,0.38369 l -0.42317,-0.11587 -0.24152,-0.2678 z m 7.38003,-0.75382 c -0.97735,-1.88258 1.9374,0.51785 0,0 z m -2.37599,-0.14206 c 0.92304,-2.06297 2.87903,-2.52371 0.6562,-0.30135 0.0345,0.32216 -0.4451,0.63744 -0.6562,0.30135 z m -53.56596,-1.64358 c -1.885403,-0.21084 -1.046157,-0.71633 -2.34133,-2.50688 0.541186,0.44194 5.905632,5.21869 2.34133,2.50688 z m 7.368697,-5.70177 c -2.388491,-1.748 -3.246646,-4.76695 -5.287077,-6.18335 -3.024242,-2.00542 2.942046,-0.46975 -0.458201,-1.77139 2.021216,-0.82436 2.863482,0.45286 3.252627,1.17571 1.008958,-3.13143 0.146567,2.81941 2.007203,-0.16914 0.510637,2.23742 2.81996,7.6143 1.732459,8.1534 l -0.566841,-0.52579 z m 6.835232,-9.51734 c -1.593217,-1.48001 5.479037,-0.30473 0.992188,-0.0197 z m 23.018751,-2.9145 c -2.41637,-2.60012 3.89013,0.0932 -3e-5,0 z m 4.7472,-1.94547 c 0.81088,-2.50361 1.38198,1.424 0,0 z m -23.466471,-5.37734 c -2.181749,-2.80891 2.559171,1.18995 0,0 z m 32.668901,-0.43674 c 1.73697,-0.75472 -3.36551,-1.15069 -0.19791,-1.62992 -0.61673,-1.97645 1.9673,0.95051 1.19724,-1.72656 -2.42428,0.29665 0.21754,-3.252147 0.85989,0.19301 0.69958,0.16465 -1.1969,3.96038 -1.85922,3.16347 z m -35.27124,-1.04678 c 3.322578,-1.33233 0.886754,0.2785 0,0 z"
         id="path796" /></g></g></svg>
