<?xml version="1.0" encoding="UTF-8" standalone="no"?>
<!-- Created with Inkscape (http://www.inkscape.org/) -->

<svg
   width="78.667442mm"
   height="96.250572mm"
   viewBox="0 0 78.667442 96.250572"
   version="1.1"
   id="svg1049"
   xml:space="preserve"
   inkscape:version="1.2.2 (732a01da63, 2022-12-09)"
   sodipodi:docname="arbustif-arrondi-natural_shrub.svg"
   xmlns:inkscape="http://www.inkscape.org/namespaces/inkscape"
   xmlns:sodipodi="http://sodipodi.sourceforge.net/DTD/sodipodi-0.dtd"
   xmlns="http://www.w3.org/2000/svg"
   xmlns:svg="http://www.w3.org/2000/svg"><sodipodi:namedview
     id="namedview1051"
     pagecolor="#ffffff"
     bordercolor="#666666"
     borderopacity="1.0"
     inkscape:showpageshadow="2"
     inkscape:pageopacity="0.0"
     inkscape:pagecheckerboard="0"
     inkscape:deskcolor="#d1d1d1"
     inkscape:document-units="mm"
     showgrid="false"
     inkscape:zoom="3.1358025"
     inkscape:cx="193.09252"
     inkscape:cy="183.04724"
     inkscape:window-width="2560"
     inkscape:window-height="1369"
     inkscape:window-x="-8"
     inkscape:window-y="-8"
     inkscape:window-maximized="1"
     inkscape:current-layer="layer1" /><defs
     id="defs1046" /><g
     inkscape:label="Calque 1"
     inkscape:groupmode="layer"
     id="layer1"
     transform="translate(-113.20405,-119.57039)"><g
       id="g1182"
       transform="translate(72.225,-29.3625)"><path
         style="fill:#b0c9ae;stroke-width:0.264583"
         d="m 82.665076,244.60362 c -1.00289,-9.06684 -1.39564,-18.2275 -1.336924,-27.35042 0.247493,-2.32608 0.0903,-4.82781 0.588675,-7.06859 4.354877,-5.8992 9.216266,-11.44856 15.103091,-15.87686 3.572862,-3.13082 7.756392,-5.81868 10.867502,-9.33037 -2.79451,0.80053 -6.14738,4.76932 -8.229078,5.02819 1.425308,-4.10594 4.274148,-7.95897 5.720268,-11.7847 -3.52999,3.10968 -5.12894,8.25132 -7.767089,12.21974 -0.634824,1.53512 -1.52956,2.83382 -3.090389,3.52662 -1.96708,1.15899 -6.269366,5.0059 -3.903353,0.46663 1.816795,-5.17112 3.63469,-10.35633 5.357843,-15.55125 -2.753598,1.00364 -3.519235,7.5297 -5.310785,10.67725 -2.163819,6.03385 -4.38998,12.38379 -9.44674,16.65937 0.651627,-5.18999 1.51435,-10.4172 1.929782,-15.64187 -2.191794,-2.09233 -1.009736,9.82734 -2.955856,5.1522 -2.041071,-4.12474 -0.287855,2.12068 0.41378,3.66176 -0.769139,3.1613 -1.335581,6.66371 -2.705829,9.44775 -2.590681,-3.11323 -4.998276,-7.039 -3.532548,-11.22037 0.428232,-4.08936 1.725635,-8.23479 1.549417,-12.28564 -1.724308,4.2948 -1.788436,9.30092 -3.267732,13.74243 -2.676532,-6.41178 -4.391338,-13.2497 -6.769836,-19.79686 -1.631937,0.19598 1.876408,6.95347 1.249907,8.77149 -3.407922,-2.69253 -5.707819,-6.55393 -8.901778,-9.39578 1.284801,3.27772 4.700598,6.45446 6.919095,9.60804 3.433939,2.94117 4.286036,7.30768 4.839165,11.57869 -4.841298,-4.08591 -9.662264,-8.25261 -14.51622,-12.30246 -0.560154,2.51563 5.152551,5.61492 7.201382,8.09369 4.77463,4.32069 10.005123,8.54548 12.586287,14.63638 0.892293,2.28314 3.107391,4.23549 2.607031,6.86172 3.03e-4,9.17508 -0.469008,18.3549 -1.435116,27.47451 -0.150481,-6.42061 0.870361,-13.07555 0.917405,-19.59461 0.08299,-2.56182 0.149635,-5.12415 0.22518,-7.6862 -2.444594,1.6868 -4.292975,0.1984 -7.132545,0.092 -1.008596,-2.14076 -4.044078,0.4788 -4.460018,-1.35331 -2.212035,0.0596 1.777612,-1.33788 -0.791314,-0.79603 -1.054241,-0.30965 -2.943605,-2.68914 -6.285531,-2.37502 -3.907084,0.1209 -4.847493,-3.57549 -6.867626,-5.08346 -4.067424,0.0478 -4.802077,-5.85669 -7.011995,-7.43751 0.823052,-0.52864 -1.164436,-1.50783 0.362134,-3.48979 -2.743723,-1.62822 -0.791563,-2.77595 0.111562,-4.88093 -0.96548,-1.41088 -2.709833,-1.24431 -1.434874,-2.97793 -3.075377,-3.02993 -1.087016,-7.15394 -1.590453,-9.86665 -1.493726,0.10149 3.30013,-2.56739 1.325508,-4.03652 -0.547212,-1.65683 2.014487,-2.22334 2.292358,-2.02724 1.139443,1.09463 1.244859,-2.057 1.506041,-1.14781 -0.893767,-0.97132 -0.429682,-2.90084 -1.257841,-3.99177 3.446939,-0.14242 -0.0012,-2.70336 2.497744,-4.44827 0.806289,0.96448 -0.296491,-2.66722 1.942549,-1.60231 0.585547,-1.07397 3.141554,-1.3142 5.201844,-2.39048 1.723481,0.10239 0.660094,-2.22257 1.851479,0.0962 1.447141,-1.20908 0.620868,1.66252 2.072383,-0.0295 2.822999,1.25891 3.84027,0.34441 5.680931,-0.48678 2.457804,2.83802 -1.11782,-4.64273 -0.620712,-0.76985 -1.54336,0.15477 -0.328095,-2.51036 0.728896,-2.29159 -2.1199,-0.71137 -0.329378,-2.03845 -0.0036,-1.61482 -1.226351,-1.56244 1.647763,-1.3648 -0.02971,-2.56234 2.306047,0.1299 2.073113,-0.88364 2.21869,-1.71291 2.79808,-0.23723 3.776515,-1.71073 6.653632,-0.99777 -2.042035,1.20749 4.257639,1.43441 2.445944,0.35588 2.758909,-1.57517 5.161373,0.72048 7.361481,0.0136 2.711037,-0.77519 7.550471,-0.69113 9.353766,1.01431 1.385856,-0.017 4.017385,3.66687 2.287488,0.57306 -0.851846,-2.43607 2.118826,3.08046 2.729171,-0.004 2.280305,0.21465 0.248035,3.07523 2.455475,0.40991 0.81261,1.49341 3.5114,2.63268 4.02497,4.14677 0.90988,-0.72458 0.93234,1.01391 2.67958,0.0624 0.76935,1.48826 1.08784,3.6784 1.14856,0.4872 1.11981,-1.07315 2.6548,3.02948 0.68954,3.28781 1.34313,-0.76984 3.15917,-0.74104 2.56207,0.64603 -0.72803,-0.93106 0.56104,3.06171 0.87158,3.92179 0.6957,2.55898 -0.70829,0.004 -1.08247,0.52607 1.36881,1.22724 -1.40725,3.65009 0.8829,2.9498 -0.95057,0.56906 -2.98563,2.90141 -1.19061,2.75755 0.24722,-0.23444 1.87037,-2.07385 1.69079,0.19174 -1.10335,0.7489 2.82647,3.20498 0.65695,5.08835 1.411,1.7495 -1.31352,1.75139 0.43035,4.64995 0.80395,1.47119 1.28943,-0.1631 0.26459,-0.10814 1.66215,-1.54577 -0.02,2.877 2.22668,2.9572 0.87169,1.87895 0.67527,3.37667 2.40108,5.19148 -1.2299,1.23694 1.65515,3.53576 -0.80259,5.19286 -1.37087,1.47909 1.75745,1.00307 -0.53966,2.67199 0.15022,1.79954 -2.02841,1.81864 -0.38151,2.35034 -1.70124,-0.26636 1.43044,2.1483 -0.84696,1.22941 -0.4171,-0.28323 -0.16184,3.54101 -1.34939,2.41249 -0.42242,1.37079 -2.88905,-1.43126 -0.99978,1.26502 -1.62823,-0.29703 -5.18303,-2.29569 -1.94933,0.31098 -1.55929,0.084 -3.46719,4.23017 -3.63656,3.37344 -1.92768,-1.52852 0.74136,2.73086 -0.92178,1.84129 -2.04379,-1.94991 -0.93351,2.84441 -3.88336,0.92632 -2.60297,-0.9647 0.48333,2.13931 -2.7293,0.72066 1.32318,2.77613 -3.46308,1.98439 -3.256429,3.08611 -2.213078,1.87924 -6.807495,1.73784 -8.266766,1.77914 -0.833901,2.78509 -8.951071,-1.15177 -8.140907,3.71555 -0.01011,8.6891 0.745149,17.41425 1.131659,26.04739 l -0.183911,-0.58056 z m 21.583874,-35.6504 c -0.65473,-1.4412 1.41687,-2.3738 -0.30719,-2.8215 -1.45568,1.87592 -1.06058,3.87216 0.67155,3.21604 l -0.36437,-0.39454 z m 1.78922,0.14506 c 0.4435,-1.38838 2.08985,-2.36115 0.99953,-4.14366 2.05289,1.29323 -0.36435,-1.215 1.90233,-0.1835 -0.0138,-2.298 -5.07872,1.16579 -2.74361,1.50008 1.7405,-0.97994 -1.84704,2.30581 0.616,0.33809 -0.47013,2.02269 -4.61382,1.2028 -1.0426,2.90746 l 0.22648,-0.0829 0.0418,-0.33571 z m -2.45117,-3.7488 c -0.87984,-2.67774 -0.64985,2.39052 0,0 z M 47.49828,181.25942 c 0.04123,-1.94875 -1.993015,1.60251 0,0 z m 65.13716,-4.847 c -1.66102,0.11069 0.15197,1.91737 0,0 z M 48.696456,170.7118 c -0.705139,-0.76259 0.479084,-5.00157 -1.210498,-2.1447 1.593509,0.92404 -1.154144,3.53233 1.210468,2.14473 z m 44.798334,-4.33834 c 0.585281,-1.55071 -2.308868,2.06709 0,0 z m -16.801042,-9.03451 c 0.181486,-0.84827 -2.357684,1.68413 0,0 z m 22.552811,-1.19552 c -0.615815,-1.67063 -1.390634,2.09637 0,3e-5 z m -33.799071,-0.93568 c -1.957762,-1.49868 1.016253,1.67479 0,0 z m 19.152613,-0.54679 c -1.161296,-0.58548 -1.214467,-1.57352 -0.638282,0.37693 0.117609,0.0275 1.137356,-0.0247 0.638282,-0.37693 z m 13.260314,-1.33164 c -1.41249,-1.72281 -2.404706,1.42723 0,0 z M 40.97905,183.32136 c 0.619446,-2.26687 1.178696,1.09364 0,0 z m 12.82824,-25.73073 c -1.034436,-1.8622 -0.96057,-1.73938 0.926045,-0.8274 -1.062927,0.41177 0.887179,1.44594 -0.926045,0.8274 z m 2.513541,-1.33122 c -2.159295,-1.68043 1.330884,-1.91879 0.108003,0.13958 l -0.107994,-0.13958 z m 3.708219,0.0497 c 0.35174,-1.86788 1.759114,0.60017 0,0 z"
         id="path1196" /><path
         style="fill:#92b48e;stroke-width:0.264583"
         d="m 82.689595,244.31769 c -0.989992,-8.72897 -1.20925,-17.55894 -1.329919,-26.33344 0.835767,8.61824 0.429339,17.44057 1.543035,26.08658 0.452656,0.0915 -0.3155,1.61164 -0.213116,0.24686 z m -6.209255,-2.58956 c 0.473839,-8.10081 0.813872,-16.22006 1.419257,-24.3128 0.0259,8.48553 -0.636862,16.99496 -1.346529,25.45159 -0.161326,-0.35228 0.05463,-0.78446 -0.07273,-1.13879 z m -2.953178,-24.54011 c 1.063651,-2.84922 0.901178,0.97531 0,0 z m 1.975961,-0.33073 c -1.851723,-1.5949 -4.814995,-0.51355 -7.276042,-1.91462 -1.972892,1.007 -4.732984,-1.89797 -4.602148,-1.68543 -2.28772,-1.03824 -5.398692,-0.71369 -8.003276,-1.54487 -1.95618,-0.90337 -2.289636,-5.3473 -4.750945,-3.8262 -0.832049,-2.59138 -4.760253,-4.12055 -4.885483,-7.82955 -1.549364,-2.40293 -0.175112,-1.79413 0.06536,-2.3066 0.947478,-1.38832 -4.254866,-2.85971 -0.289269,-4.53724 1.892577,0.18696 4.70479,2.75269 2.667422,2.07761 2.796222,1.55861 -1.406277,-6.15154 -3.072422,-4.04856 -2.063843,-1.59163 -1.720022,-4.7346 -3.002143,-6.95683 -0.52086,-2.68951 3.688774,0.0258 5.322005,-2.09987 5.542167,-1.0046 0.396089,-7.38186 2.404612,-11.06496 -0.643221,-2.76017 -0.377123,-3.31372 -1.686179,-5.12169 2.064856,-1.58012 3.603741,-6.70814 7.676404,-5.37882 1.860425,-0.0807 4.58889,-0.70597 5.174604,0.0147 2.044351,-0.91138 4.734424,4.23453 6.763254,1.25751 -2.474255,-1.85736 2.941128,-1.18878 3.301553,-2.69542 -1.359265,-2.31108 0.701706,-3.38669 -1.23132,-4.83972 -1.547004,1.70015 -1.213596,-2.7518 0.157975,-0.82812 -0.764868,-1.7708 0.08646,-2.61906 0.557924,-1.42833 0.224185,-1.46398 2.65879,0.87274 0.961689,-0.99514 2.90907,0.45298 -0.889626,-2.62408 2.342433,-1.04039 2.503323,0.2855 3.289211,1.38188 4.056418,-0.59225 0.626585,0.37614 2.636607,-1.15415 3.165221,0.18301 1.339711,0.85472 1.620781,1.70426 3.04834,0.13487 1.767795,0.53775 0.964617,-0.8373 2.786443,0.81536 -0.307337,-0.90807 1.920509,-1.69783 1.245952,-0.81001 -2.208975,1.75759 2.870736,-1.11223 1.262741,0.6509 2.030725,-1.72524 4.969371,1.72814 5.678875,1.47631 -1.09472,1.06987 3.287751,1.88727 1.01593,4.19652 -1.207369,2.45397 1.305457,-1.02485 0.969594,2.20932 1.534415,-0.98031 2.819815,-0.50873 2.570521,-2.21994 0.164124,-1.848 0.596644,2.06769 1.284144,-0.63513 0.0784,-0.17656 -1.446986,-0.56815 0.5508,-1.47397 1.03349,0.87274 2.55853,2.82816 2.9125,2.05648 0.92948,2.05357 -2.43876,4.79513 -0.55136,4.79015 1.10027,-0.76803 0.15104,2.17366 1.25425,0.71271 -0.52792,-2.23409 -0.57956,-3.70667 1.61414,-2.22846 -0.4078,-1.31631 -1.73554,-0.0534 -1.17039,-2.66058 3.04073,-1.19282 1.37846,2.09114 2.24033,2.69684 1.57379,2.78075 3.20779,-1.41208 2.89617,1.88099 3.06047,0.46508 -0.48081,5.53831 0.0626,6.13202 -0.83079,1.22351 -1.57314,-2.31908 -1.40143,0.48319 -2.77599,1.08785 0.2832,3.61487 -2.47434,4.1456 2.85813,-0.88714 1.51557,2.43637 4.02733,1.66301 1.31852,0.67382 -0.48977,1.63962 0.9354,1.70691 0.64892,-3.45069 1.12964,1.52218 -1.13665,1.19618 -1.8242,-0.47139 -1.98534,1.82916 -0.15376,0.48939 -0.65378,1.76104 -4.17687,3.29844 -1.12668,2.23954 1.21952,-0.28579 0.52456,1.08435 1.42749,1.0913 0.66249,-2.68249 0.42773,3.13873 2.21886,1.84283 -1.00226,-2.79671 0.79289,0.62781 1.4717,-0.37354 2.77324,1.32976 0.88306,2.34922 1.31167,4.32718 2.8399,0.69766 1.45485,2.30697 1.48006,3.67786 0.0894,0.89925 0.82311,3.56433 -2.41996,3.25929 0.82734,1.5457 0.79774,3.26613 -2.19244,4.34346 1.48767,0.16382 2.5631,-0.0159 0.87216,1.07083 2.54103,1.3165 -1.38442,0.68547 -1.93088,1.65445 -1.61849,-0.92006 -2.06655,1.77622 -2.34202,2.76809 -2.25075,1.87784 -5.29302,0.54465 -7.91929,1.9018 -1.12012,1.7088 -0.8623,6.62647 -1.19502,6.93193 -1.448628,-0.86415 -3.302817,2.47942 -4.513025,2.38432 -1.909378,2.58826 -6.489818,-0.66951 -6.43091,1.85216 -3.424704,0.48098 -4.487527,-0.83225 -7.924719,0.96098 -0.788247,-4.4836 1.117863,-8.65314 4.335764,-11.81012 6.038933,-7.87557 14.66565,-13.07438 21.83808,-19.77535 -1.80912,-0.64027 -5.61168,3.71338 -8.166703,4.98756 1.536373,-3.7156 3.206153,-7.50321 5.643813,-10.70669 1.0012,2.59046 0.95027,-2.27217 -0.30118,-2.47352 -0.81071,1.23124 -2.42886,5.0495 -4.21377,7.63963 -2.342155,3.45091 -3.510187,8.03697 -7.565937,9.96208 -1.481977,0.93764 -4.38132,3.48666 -2.661943,0.14436 1.95148,-5.28512 3.705654,-10.6916 5.573295,-15.97287 -2.67202,-2.78471 -1.984752,4.40576 -3.625416,5.89297 -3.187571,7.26615 -4.713605,15.85728 -11.240049,21.06306 0.936918,-5.15029 1.680606,-10.36567 1.965921,-15.59108 -2.181391,-1.24761 -1.252769,10.57053 -3.241192,4.55557 -2.463122,-2.84316 0.926384,3.91996 0.391741,5.20948 -0.797439,2.17251 -0.900227,8.53118 -3.087694,7.94825 -0.86842,-1.89807 -2.583308,-3.58181 -3.03321,-5.59641 -0.08968,-5.71585 1.409478,-11.3001 2.109759,-16.93009 -2.192278,1.92892 -1.840183,7.26712 -3.004698,10.52591 -0.309026,2.31653 -0.847476,3.95188 -1.523295,0.69438 -2.171564,-5.9512 -3.776548,-12.12529 -6.083245,-18.00901 -1.574072,1.58525 2.942253,9.07923 0.984515,8.89792 -3.196422,-2.37916 -5.52903,-7.39798 -8.689895,-8.71483 3.151702,4.8018 7.195279,9.04334 10.480687,13.70535 0.511625,2.39665 1.077152,4.78289 1.522915,7.19276 -4.924818,-4.16371 -9.810859,-8.53526 -14.822367,-12.50321 0.154558,3.32475 5.242192,5.57898 7.40837,8.35891 4.663896,4.18188 9.811321,8.18319 12.365496,14.10188 1.047078,1.91291 4.786807,8.0629 0.799058,6.87668 0.02268,0.2064 0.230347,0.88006 -0.231602,0.18707 z m -18.179477,-6.31176 c -0.478212,-0.49055 -2.070785,-1.21201 -1.085969,0.39785 0.382853,0.0925 0.914032,0.0202 1.085969,-0.39785 z m 1.341292,-0.52386 c -1.251853,-1.95977 -0.257958,2.50647 3e-6,-3e-5 z m -2.796611,-1.63104 c -1.242669,-1.78828 -0.551899,1.83323 0,0 z m 56.978843,-9.6573 c 0.75182,-1.37706 -1.89186,1.23593 0,0 z m -62.755346,-0.37859 c -0.04438,-0.9798 -2.645543,0.27276 0,0 z m 59.670786,0.0479 c -0.82779,-2.08588 -1.99642,0.62019 0,0 z m 4.50197,-2.31511 c -0.83416,-1.39192 -1.31473,1.46356 0,0 z m -6.4242,-13.34346 c 0.13362,-1.83038 1.3247,-2.25475 -0.31988,-3.20181 -1.01806,-1.0008 -1.40289,2.33526 -0.25588,3.74406 0.32588,0.35749 1.24433,0.13203 0.57576,-0.54225 z m -4.25043,-3.60128 c 0.21373,-1.63579 -1.18904,1.39501 0,0 z m 0.35588,-2.12087 c -1.15374,-1.46752 -0.73742,1.63607 0,0 z m 4.48916,0.13373 c 1.77092,-1.36448 0.1293,-1.62758 -1.02159,0.2451 0.30943,-0.10188 0.732,-0.79396 1.02159,-0.2451 z m -6.52317,-0.84852 c 1.91326,-3.21752 -2.222338,1.70666 -0.34724,-1.22598 -2.330634,-1.47886 -0.94752,3.25121 0.34724,1.22598 z m 1.7112,-0.73424 c -0.68189,-1.34738 0.69327,-3.56801 -0.60461,-0.90637 -0.0436,0.36881 0.64932,2.9962 0.60461,0.90637 z m -6.974304,-0.65203 c 1.06086,-3.67214 -3.411357,2.32557 -0.01532,0.41946 z m 12.757684,0 c 1.02523,0.2049 2.49002,-1.61186 -0.55248,-0.96086 -2.04755,-0.9465 0.62381,2.16355 0.55248,0.96086 z m -14.853277,-0.92604 c -2.057977,-1.47488 -1.156028,0.19759 0,0 z m 4.365625,0 c -0.699948,-1.00686 -1.666861,1.04611 0,0 z m 3.273042,-0.88595 c 0.75203,-1.44911 3.51341,1.01351 0.91183,-1.25139 -0.25857,-0.81509 1.8516,-0.7201 -0.48071,-1.09107 -2.855967,1.32918 0.32462,0.2719 -1.34254,2.54365 l 0.12168,0.15561 0.78974,-0.35679 z m 5.28034,-0.17681 c -0.16246,-1.23673 -1.6777,0.78756 0,0 z m -10.002449,-2.69164 c -1.733232,-1.1259 -2.370133,0.94978 0,0 z m 5.153229,-0.24265 c -1.01841,-1.02217 -1.01824,1.4148 0,0 z m -7.606766,-0.0754 c 1.420742,-2.02793 -2.405975,0.92949 0,0 z m -1.334519,-1.04051 c -1.650219,-2.69595 0.575811,-1.93893 1.645865,-1.96334 -1.584984,-4.06137 -4.492028,3.27971 -1.386887,2.40673 z m 4.130927,-0.20825 c -0.937171,-3.08878 -0.406211,2.42208 0,0 z m 5.511978,-0.10508 c 1.34201,-2.46364 -1.87772,1.71631 0,0 z m 5.06559,-0.0912 c 0.28141,-2.06319 -1.78897,0.84334 0,0 z m -9.532007,-0.51829 c -0.781662,-1.17247 -0.91519,1.33779 0,0 z m -8.447674,-0.80698 c -1.565654,0.0853 0.02969,1.91437 0,0 z m 6.652175,0.29435 c -0.611391,-2.13853 -1.09588,0.74808 0,0 z m -16.639601,-0.64632 c 1.770302,-0.4147 0.493436,-1.20477 2.414684,-1.69257 0.828906,-1.5102 2.663647,1.15912 3.323293,0.10642 -0.309318,3.59046 3.406509,-2.81804 0.181602,-0.84279 -0.126714,-1.17785 -1.466264,0.0883 -1.309695,-1.27942 -1.228647,-0.70785 -3.626222,-2.12284 -2.118854,-0.044 -1.477374,-1.3859 -4.560727,-0.12061 -1.826041,-0.0273 0.442923,0.24947 -1.088194,2.78415 -1.36424,3.83087 -1.486677,0.60339 0.396866,0.53725 0.699251,-0.0511 z m 17.563394,-0.11279 c 0.951036,-1.74359 -2.43674,1.31298 0,0 z m -18.34678,-1.06748 c -1.047647,-0.82091 0.433536,2.09919 0,0 z m 9.815012,0.39258 c -0.410349,-3.80044 -0.350388,2.15357 0,0 z m 10.257859,0.0449 c 2.292992,-0.9705 1.744692,-2.15206 -0.171545,-0.7276 0.101694,-1.26029 -1.800245,2.10103 0.171545,0.7276 z m 4.365622,-0.26458 c -2.37486,-1.97429 1.05142,1.72233 0,0 z m -7.169824,-0.68891 c 2.477949,-0.20731 2.274098,-4.7989 0.86954,-1.6689 1.25092,1.20272 -4.121754,-0.20997 -1.967941,1.82071 0.267358,0.42797 1.05142,0.34377 1.098401,-0.15181 z m -16.249849,-0.56786 c -0.641095,-2.53706 -1.632131,1.19558 0,0 z m 19.688253,-0.28663 c -1.36275,-0.91191 -2.20706,0.84304 0,0 z m 7.04402,-0.44737 c 0.39195,-2.10025 -1.85339,1.34483 0,0 z m -42.074055,-0.53108 c -1.512967,-2.2433 -0.843191,1.41703 0,0 z m -2.120719,-0.0578 c -0.61943,-2.26683 -1.178715,1.09361 0,0 z m 22.225001,-1.32291 c -0.600895,-2.14246 -1.02363,0.67214 0,0 z m 17.466553,-0.0945 c 2.15045,-0.59625 -1.88311,-1.89594 -0.0584,0.20685 l 0.0585,-0.20685 z m -7.577237,-0.63315 c -0.812439,-1.68679 -1.027265,1.33223 0,0 z m 3.241582,-0.0173 c 1.242254,-0.32753 1.619565,-3.75947 -0.19139,-0.43905 -0.441461,0.22703 0.540279,1.49708 0.19139,0.43905 z m -17.029451,-0.0256 c -0.985643,-2.17067 -0.987926,0.8848 0,0 z m 20.571356,-0.36955 c -2.594189,-2.74703 -0.26293,1.78991 0,0 z m -8.666786,-1.03447 c -2.062569,-1.27122 1.323403,2.51204 0,0 z m -10.647799,-0.0968 c -2.019031,0.20573 -0.665603,1.43206 0,0 z m 15.693657,-0.0285 c 3.326818,-2.71828 -2.756971,-0.9267 0,0 z m -17.899444,-0.52735 c 0.946915,-2.96937 -3.727612,1.60244 0.02097,0.18058 z m 11.333912,-0.0408 c 0.04345,-0.85578 -0.249645,-1.46239 1.007484,-2.14385 -2.020493,-1.07951 -2.837274,3.5121 -1.007484,2.14385 z m -13.956771,-0.0779 c 2.623309,-1.18584 -0.459349,-1.80807 -0.02272,-2.99893 -1.296126,0.87111 -4.300445,2.03895 -2.664567,-0.48273 -0.190486,-1.84674 -3.682696,-3.1272 -1.361396,-0.78241 1.676379,0.89606 0.348342,2.68873 0.789036,3.15248 -3.114171,-2.89023 0.797421,2.73374 3.25965,1.11159 z m 12.143584,-1.96073 c 3.690586,-2.56719 -1.912307,-1.01431 -1.118866,0.72204 0.37328,-0.22488 0.616427,-0.75337 1.118866,-0.72204 z m -17.427316,0.083 c -1.908512,-1.92402 -0.866243,0.74166 0.16301,0.37916 l -0.163008,-0.37916 z m 22.408028,-1.01654 c -1.182182,-0.19808 0.603487,2.72975 0,0 z m -11.998716,-0.0994 c -1.736354,-2.04983 -0.151244,1.67596 0,0 z m 1.036208,-0.37125 c 1.682981,-0.82453 -1.341685,-2.45932 1.775201,-3.73016 -0.170237,-1.26497 -3.882134,1.85411 -2.27701,3.95501 -0.40251,0.52243 0.878892,0.81673 0.501809,-0.22485 z m 8.828985,-0.23769 c -1.144539,-1.51837 -0.585028,0.3567 0.341135,0.66146 z m 3.234579,-0.3119 c -0.163684,-4.186 -3.399341,2.01514 -1.042071,-0.86343 0.786131,0.003 0.23121,2.5799 1.042071,0.86343 z m -15.150158,-1.3707 c 1.423307,-1.88857 -0.361515,-5.39631 -0.220935,-1.14768 -0.122651,0.45168 -1.632288,2.55996 0.220935,1.14768 z m 8.715809,-2.08771 c -1.125804,-2.32443 -0.524058,1.74253 0,0 z M 110.825,178.9052 c 0.58694,-3.21665 1.95627,0.16041 0,0 z m -63.745455,-3.35865 c 1.486249,-1.07858 0.07299,1.86431 0,0 z m 18.522591,-13.6873 c -2.504348,-0.9902 0.909083,-0.59569 0,0 z m 43.338164,-2.10154 c -2.06143,-2.33519 2.10597,-2.49267 0.57217,0.46302 l -0.57243,-0.46302 z m -41.955126,-2.07277 c -0.684703,-1.6523 1.312464,-0.0389 0,0 z m -0.394225,-2.32971 c -0.134285,-1.97909 0.993242,0.052 0.240264,0.77208 l -0.128569,-0.17181 z m 30.798531,-0.41997 c 0.625162,-1.29818 -0.07842,-3.90502 1.793851,-2.91589 0.795734,1.9482 3.580859,-0.32954 0.969759,2.12505 -1.18185,-0.35965 -1.993465,3.44106 -2.76361,0.79084 z"
         id="path1194" /><path
         style="fill:#81a97d;stroke-width:0.264583"
         d="m 76.511151,241.33125 c 0.142187,-3.1893 0.14135,3.3401 0,0 z m 5.818132,-0.92604 c 0.15107,-2.96263 0.142758,2.96939 0,0 z m -5.55085,-2.91042 c 0.147005,-3.49923 0.138152,3.50703 0,0 z m 5.295937,-1.05833 c 0.127661,-3.52583 0.110199,3.58216 0,0 z m -5.040365,-2.24896 c 0.195892,-2.53705 0.1184,2.79412 0,0 z m 4.780743,-3.175 c 0.132201,-4.53956 0.142516,4.33153 1.32e-4,0 z m -4.501132,-0.79375 c 0.146573,-3.84088 0.134459,4.04595 -1.5e-4,0 z m 4.245433,-6.08542 c 0.15018,-7.01124 0.11447,6.88339 0,0 z m -3.973666,-0.39687 c -0.02864,-3.948 0.32303,1.14757 0.02855,1.55402 l -0.02088,-0.58493 z m 0.23876,-5.02708 c 0.155687,-2.42713 0.1488,2.43238 0,0 z m -2.387166,-2.44988 c -1.309815,-1.74056 -3.496946,0.0662 -4.506119,-1.41837 -2.718624,0.74949 -6.665182,-0.42675 -7.631073,-2.16494 -1.254218,-0.22455 -5.285645,-0.47459 -4.988456,-0.74797 0.382427,-1.55776 -1.870772,0.58342 -1.175725,-1.68554 -1.401161,-2.99293 3.07835,3.41278 1.941605,-0.70351 -0.634035,-1.24304 -1.859565,0.30149 -2.922633,-2.02855 -2.193773,1.3723 -2.896563,2.52669 -4.014014,-0.0825 -2.937982,1.99134 0.804077,-2.80668 -1.753854,-1.19767 -3.535134,-1.36491 1.514829,-4.16005 -2.158731,-2.96806 -0.19941,0.40362 0.304953,2.38204 -1.058738,0.20186 0.512467,-2.51672 -3.045884,-5.45719 -0.980295,-5.80493 -0.620387,-0.47087 1.091661,-1.12545 -1.117972,-1.66637 -1.31074,-4.22766 3.223553,-2.15623 4.059615,0.0932 1.555847,-1.89929 -2.529209,-6.00461 -3.767492,-5.03043 -1.628969,-1.1785 0.943984,-1.02232 -0.948509,-1.65187 -1.153814,-1.96663 0.366561,-1.56523 -1.147481,-2.99992 -0.424594,-2.65495 -1.165984,-2.31051 2.019077,-3.07269 2.909361,-0.32181 6.793324,-2.37259 5.128848,-6.58621 -1.014038,-2.58836 0.347566,-7.13357 -0.765823,-10.40018 -0.100829,-4.74822 4.568293,-6.10377 8.305896,-5.77941 1.462148,0.0408 2.141858,-0.9076 3.268173,0.40977 2.686295,0.19747 -2.20563,-0.0778 -0.783866,1.32263 -1.081767,0.44385 1.387274,1.87386 0.496052,-0.0771 2.14983,-1.54857 0.43534,3.38417 2.867485,1.17906 -0.168549,-1.72624 1.769238,1.93529 3.187417,-0.39208 2.918591,-1.84423 3.486228,-2.51975 6.103594,-3.79433 3.579836,0.0798 3.695227,0.74937 6.955627,0.3612 1.828091,1.85708 -4.786829,0.20367 -1.086235,1.53361 2.384865,-0.11437 -3.201641,1.99563 -0.58114,2.95128 1.220805,1.34882 -0.502261,-2.49222 1.446973,-0.39044 -0.722187,2.17098 -1.019665,0.66188 -0.798392,3.57121 -1.138253,-1.57533 1.016746,3.30703 1.215049,0.0256 2.427471,-0.13745 2.362772,-2.11769 3.76057,-1.86971 0.857827,0.89582 3.198556,1.031 4.832828,0.6704 0.312587,2.53717 2.41979,2.06893 3.04491,1.53085 -1.205492,-1.28285 -0.105083,-1.4835 -1.364041,-1.74153 1.108225,-2.29793 -2.020074,1.77702 -0.80322,-1.46089 -2.688742,2.68254 -0.274743,-1.10903 -1.683276,-1.5825 -1.118777,-0.56383 -3.214774,2.03963 -1.798925,-0.44189 2.126585,-2.13093 -3.298021,1.85399 -0.81338,-0.50585 1.342,-1.05459 -0.76934,-0.41865 -1.44958,-1.74451 -2.217146,1.73894 -2.202163,2.13801 -4.316239,1.95688 0.280734,-1.93765 1.525536,-0.21878 1.996691,-0.96888 -1.954407,-1.52445 2.086806,-0.43301 0.67255,-1.469 -3.196818,0.80297 -0.0084,-3.32724 1.340677,-3.28659 1.010987,-1.70529 1.825229,-0.83566 1.011737,-2.41613 0.524949,0.34108 1.849951,-0.72407 1.564419,-0.90253 2.633026,-2.60116 -3.565754,2.32569 -0.890304,-0.62482 3.411551,-2.26198 -3.922504,-0.088 -2.190219,2.33018 1.32494,2.56872 -1.794319,-1.05412 -1.568199,2.31663 -0.803248,1.78386 -2.994679,-2.32377 -4.687946,-1.15752 -1.56029,-1.53358 -1.383189,-3.26625 -3.638863,-3.07779 0.454837,-0.35882 -0.499252,-3.62117 1.531319,-2.23689 0.524882,-1.34809 3.786169,2.07824 3.887646,-0.55892 2.160727,-2.46513 2.652504,1.12398 1.807981,3.00215 -2.028401,2.53206 3.466179,0.0382 2.175704,-0.95691 0.945087,-3.19182 3.434032,-1.48294 5.153797,-0.72169 0.529852,-0.0796 -0.999755,-1.73793 1.160654,-0.63317 -1.031373,2.3712 -0.20161,2.61872 1.057427,0.41162 -1.092402,-2.71044 3.857959,-0.30788 3.042188,0.98847 0.381594,-1.71547 3.071202,-0.0885 1.714482,0.23394 0.971856,2.57918 -4.893915,1.74601 -1.093345,3.90496 -1.577618,-3.55476 1.623521,2.17735 2.523677,1.79828 1.718007,-0.50676 0.164169,3.8264 1.217027,2.07096 -0.490006,-1.31585 1.756731,0.0964 0.925147,1.31583 1.102582,-0.0552 2.362266,-1.71994 1.215915,0.34646 2.538891,-1.74033 -1.551579,-1.05065 0.456081,-2.47018 -1.296969,-1.36895 1.31315,-0.54449 0.0987,-2.20716 2.09382,-1.0992 0.45611,-4.2623 2.20169,-2.14625 1.91512,0.19156 2.2156,3.72907 1.40509,5.15537 -1.26818,1.32614 -1.71475,-1.3042 -2.30699,0.0531 -1.05913,-1.01739 0.44591,3.756 0.8758,4.26647 0.56451,-0.45985 -0.57237,-0.76302 0.97028,-1.81243 0.22275,-1.76584 2.11749,0.29507 3.01715,-0.96089 -0.14927,3.21335 3.97107,-2.1455 0.54496,-0.16276 -2.36164,0.37481 -1.25299,-1.13543 -1.77826,-3.07159 2.069,3.01798 3.12805,1.60043 0.66463,-1.05335 0.78079,-0.10683 2.22183,-0.85704 1.92848,1.01271 -0.75942,2.41839 5.82302,2.01971 4.17368,5.28761 0.006,2.09504 -2.44236,4.68473 -3.84563,3.35084 -1.23758,-1.74858 -1.46018,-0.11465 -0.20576,0.51012 -0.50564,2.04261 -0.35437,-1.7605 -1.04588,1.08187 2.89458,0.0253 0.86716,0.49241 1.18582,1.1516 1.78927,1.67585 -3.35025,2.69082 -0.65939,4.10778 -0.42324,-0.75615 1.83622,-3.03923 1.64403,-1.17848 -1.60138,1.40038 1.02069,3.4107 -1.49615,4.57592 2.53996,1.37042 1.65586,-3.56616 3.05923,-1.38115 0.84881,-3.07511 1.22305,1.34617 -1.21975,1.06489 0.54786,1.83643 -0.73239,1.37593 -0.61095,2.22731 -0.11197,1.32919 -1.92885,-1.25897 -2.22833,0.77707 -1.66729,-0.77004 0.61209,-3.70657 -2.35048,-2.22758 0.40022,0.98961 0.7747,0.20057 -0.94222,1.17459 -0.26557,3.9104 -3.602516,7.04004 -5.136112,10.62966 -1.069451,3.36818 -5.655287,6.11783 -7.903039,6.77821 2.203772,-5.75474 3.807166,-11.73634 6.212175,-17.41062 -1.662096,-1.10283 -3.024707,-2.90886 -1.845734,0.32111 -2.225844,6.40947 -4.741539,12.74402 -7.307113,19.02626 -1.114105,2.37194 -4.710203,7.59019 -5.767671,6.84066 0.881996,-4.87012 1.5516,-9.80567 1.80275,-14.74331 -2.259983,-1.27557 -1.43916,10.54451 -3.127961,4.75166 -2.625919,-3.31334 0.670838,3.63741 0.272992,5.0883 -0.814398,2.06465 -1.235419,8.62297 -2.853884,8.18285 -1.868791,-2.93772 -4.246962,-6.08245 -3.150293,-9.78681 0.531757,-4.40872 1.484966,-8.75756 1.983667,-13.16858 -2.518294,2.64981 -1.925398,8.14392 -3.283927,11.85808 -0.269855,2.64836 -0.72328,1.55364 -1.217985,-0.3828 -2.004612,-5.98173 -3.843947,-12.02337 -5.888091,-17.98696 -1.995229,0.52656 2.261149,8.18191 0.913658,8.79218 -3.196197,-1.88871 -6.251516,-8.74869 -8.796024,-8.34376 2.023352,3.05078 4.879457,5.91055 7.112931,8.96996 3.282016,2.92409 4.061715,7.15687 4.853136,11.26572 -2.886129,-1.87685 -6.064414,-5.30923 -9.175898,-7.66894 -1.568261,-0.71525 -5.844765,-6.36437 -5.780847,-3.40703 5.606757,5.91079 12.347616,10.75367 17.480664,17.09862 1.704006,3.55789 4.723159,6.9143 5.130571,10.85426 -0.789777,-0.27742 -1.515844,0.43035 -2.212518,-0.21044 z M 52.881248,206.23508 c -1.377402,-0.40698 -1.098131,1.65106 0,0 z m -2.885961,-8.03091 c -1.619742,-1.43158 -1.111721,1.34213 0,0 z m -4.891459,-11.55434 c -0.811346,-0.6069 -2.272738,-1.20507 -0.399271,0.30955 z m 6.471517,0.0611 c 1.329428,-2.18357 -3.164941,-0.60856 -1.153398,-0.1943 -0.513896,0.63314 1.766045,0.55938 1.153398,0.1943 z m 2.364236,-1.10531 c -0.659053,-1.0953 -1.735127,1.59264 0,0 z m 2.309273,-2.41654 c 0.619478,-0.94275 2.849475,-2.72879 1.057782,-2.29929 -0.244876,0.5721 -2.289412,2.35831 -1.057782,2.29929 z m -0.574321,-2.69034 c 1.420589,-1.97244 -2.288794,1.45374 0,0 z m 43.904205,-0.9493 c -1.957744,-1.49864 1.016232,1.67477 0,0 z m 7.079072,-0.89586 c 1.65275,-1.94052 -2.55467,1.1418 0,0 z m -3.38211,-1.21918 c 0.96174,2.17105 0.29303,-3.58709 0.85535,-3.38329 0.833,-2.44466 -1.02142,-4.83072 -3.00134,-2.17538 -1.10146,3.56101 3.72498,-0.38717 1.37384,1.92172 -4.087478,0.18081 -1.15234,4.94358 0.50076,2.24788 0.50151,1.18054 -3.540445,1.61645 -0.2199,1.75956 l 0.49133,-0.37053 z m -1.71112,-2.6112 c 0.64783,-1.62347 1.58152,0.0786 0,0 z m -4.617626,-0.0997 c 0.398565,-1.98267 -2.697214,0.32411 -3.981333,-1.52242 -1.649542,0.58491 3.072219,0.99086 2.566834,2.70124 1.078978,0.51395 1.586332,-0.1994 1.414499,-1.17882 z m 8.586376,0.36206 c -1.01519,-2.16504 -1.36474,1.29857 0,0 z m 1.68318,-0.16469 c -1.65642,-1.4103 -0.82173,1.33222 0,0 z m -8.711861,-0.6549 c 2.197661,-1.77187 -2.59807,0.53834 0,0 z m 2.398471,-1.54996 c -0.6225,-1.1505 -0.87489,1.4582 0,0 z m -3.197076,-0.74342 c 0.40575,-1.60825 -2.545863,1.01596 0,0 z m 1.263824,-0.56245 c -0.723253,-2.47433 -1.429423,0.85409 0,0 z m -44.872406,-0.6809 c 1.453347,-3.05258 -2.244512,2.63636 0,0 z m 40.894589,0.22084 c 1.346998,-2.34846 0.870086,-2.24799 -1.228132,-2.24177 -1.220869,-1.74485 1.759212,-3.09709 -0.03503,-0.55122 1.002267,1.72277 0.441308,-2.37915 2.414658,-0.41882 1.07829,0.98596 2.124235,2.74798 4.305153,2.57995 -0.555804,-1.96708 -0.637744,-2.44751 0.27506,-4.11632 -1.411953,-0.0129 -0.18194,2.50118 -1.801877,0.28424 -1.059409,0.0988 1.611487,2.57885 -0.581923,0.39381 -0.917617,-1.94995 3.05575,-0.10295 3.11868,-1.41043 2.11854,0.15959 -0.61426,-2.24498 -1.540037,-0.39741 -0.488578,-1.06017 1.615577,-0.76369 -0.2921,-1.3263 -0.519822,-0.0713 -1.976031,0.22916 -0.194539,-0.98187 -2.598072,-2.22003 -0.71383,3.65612 -2.99761,0.37548 0.965435,-2.63846 0.387902,-0.65629 -0.831945,-1.12692 1.773185,-1.19679 -2.665868,-1.88918 -0.04004,0.44453 1.765718,1.23208 -2.255567,2.76348 1.227011,3.13418 2.047562,-2.02997 3.095992,-0.51368 0.586864,0.36659 -1.662351,1.44648 -1.536443,1.19097 -2.806212,-0.19153 -3.347847,-0.0218 -1.37217,2.97205 -2.901205,4.33233 0.746132,0.47235 1.766434,-0.92568 0.185228,0.89722 2.571608,-1.20902 1.269895,-0.27762 3.138,-0.0457 z m 2.679832,-3.07593 c 0.498844,-2.14391 0.480195,2.11887 0,0 z m -0.05342,2.06873 c -2.830141,-0.47693 -2.022449,1.16862 -5.72e-4,0.57668 l 0.09112,-0.31657 -0.09059,-0.26011 z m 5.248227,0.12209 c -0.24965,-1.65288 -1.9552,1.64352 0,0 z m 1.60831,-0.44231 c -2.74695,-0.3495 2.00387,-4.2225 -1.25607,-4.28761 1.75076,1.58738 -1.15504,2.3908 -0.26535,3.07482 -1.84782,1.27461 1.10722,0.97534 1.52142,1.21279 z m -34.131248,-4.84709 c 0.568085,-1.82214 3.442416,-1.36444 1.955064,-2.95157 0.384269,-1.47811 -0.824182,2.14246 -2.219647,2.09508 -0.247252,0.13889 -0.314068,1.68666 0.264583,0.85649 z m 36.813918,-0.81612 c 1.26263,-2.96392 -2.42224,1.82868 0,0 z m -2.81381,-0.0206 c -0.8182,-1.75892 -1.38544,1.03216 0,0 z m -2.93688,-0.42447 c -0.33764,-1.33374 -3.009954,-1.59359 -0.20144,0.41799 l 0.20144,-0.41795 z m -30.718815,-1.25215 c -0.969425,-1.12525 -1.458117,1.21849 0,0 z m 3.447032,-0.59237 c -1.902496,-2.0228 -0.218017,1.97469 0,0 z M 87.863532,160.188 c -3.042003,-0.44035 0.07959,2.34555 0,0 z m 6.625931,0.0985 c 1.180587,0.32429 -2.790624,-1.46081 -0.303631,-1.34064 2.454101,0.69425 -0.882597,-2.07708 -0.860877,-0.31658 -1.090208,-2.82715 -0.873969,3.68683 1.16451,1.65728 z m -8.57494,-0.57914 c -1.785349,-3.79199 -0.374996,2.2995 -3e-6,0 z m -1.542404,-0.79038 c -1.473276,-0.35095 0.717343,1.44549 0,0 z m 7.519599,0.12051 c -0.126705,-1.05468 -0.257905,-1.288 1.206201,-2.16653 -0.551312,-0.8204 -2.589057,0.17816 -1.950357,2.50189 l 0.276857,-0.0283 z m 9.672862,-0.0326 c 0.84152,0.5034 1.95105,-0.0812 0.0537,-0.45012 -1.03746,0.0974 -0.30187,1.65255 -0.0537,0.45012 z m -11.112495,-0.32756 c -1.346196,-1.76521 -1.265609,0.59629 0,0 z m -1.119735,-1.08664 c 1.617167,-0.885 3.588712,-2.28075 1.014055,-1.69372 -1.139866,-0.49976 -2.476272,3.12342 -1.014055,1.69372 z m -5.230265,-0.11289 c 2.163952,-2.26048 -1.683486,1.12098 0,0 z m 3.089101,-0.85496 c 0.601027,-2.33386 -1.39632,0.34191 0,0 z m 15.167144,-0.48736 c -0.57859,-2.12665 -0.94529,2.24994 0,0 z m -23.018745,-0.66146 c -0.677327,-1.79949 -0.517309,1.74346 0,0 z m 9.908691,0.0213 c -1.446597,-2.81309 -0.728687,0.70774 0,0 z m -1.337617,-1.49928 c 0.408222,-3.25593 -1.272038,1.76815 0,0 z m 6.245593,-0.67078 c -0.468303,-0.61518 0.04805,-1.71796 -1.337523,-0.19638 0.08603,0.52336 1.077315,0.55133 1.337523,0.19638 z m -4.233333,-0.5295 c -0.787473,-1.3707 -0.609225,1.79132 0,0 z m 1.499306,-1.73149 c -1.491,0.26184 -0.518521,1.69508 0,0 z m -9.877557,64.22592 c 0.458434,-2.14502 -0.597242,-4.71125 1.397859,-6.25992 4.363201,-6.02643 9.590728,-11.3656 15.557672,-15.81748 3.138381,-2.68116 6.816981,-5.207 9.616361,-7.97311 -0.88563,-0.72173 0.39973,-0.54119 0.59179,-2.51213 1.30888,-1.27273 -0.61686,2.11759 1.27458,-0.27447 -0.57713,-1.66703 0.6183,-2.02932 2.11769,-0.2026 1.93837,0.89469 2.99556,-1.23331 3.88109,1.41545 -1.02407,2.49007 2.57599,3.95193 1.2209,6.88239 0.54086,1.31583 -2.41969,1.41526 -1.05445,2.20381 -2.1704,0.48631 -0.39208,2.96535 -2.94184,3.5001 0.93347,0.60608 -0.19304,1.40656 0.45408,1.72876 -2.92377,0.58752 -3.88246,3.31665 -4.96252,5.64718 0.28366,-3.8177 -0.8181,1.40392 -2.79318,-0.38788 1.87064,1.73717 -5.58044,-0.4734 -4.71415,2.75179 -0.048,3.68655 -2.106191,6.78258 -5.571568,8.28655 -1.347846,2.23888 -6.161072,-0.46862 -5.832642,1.52648 -2.264947,0.9768 -4.339761,-1.01197 -6.015177,0.0807 -0.375741,-0.68341 -3.345607,2.87139 -2.226495,-0.59559 z m 28.221992,-17.07038 c -1.31793,-2.30051 -1.62839,1.47934 0,0 z m 3.10381,-9.48963 c -1.17962,-1.2192 -1.0704,1.19708 0,0 z m 0.44443,-3.22598 c 0.66104,-3.76932 -0.60198,2.2741 0,0 z m 0.9315,-2.14258 c -0.31924,-1.37556 -3.60598,1.41404 0,0 z m -59.539137,27.93945 c -0.94609,-2.29425 3.471735,-3.0688 0.971146,-0.63239 0.264987,0.66799 -0.574335,-0.61515 -0.971146,0.63239 z m 45.13825,-21.48073 c 1.325057,-2.44102 3.243627,-8.42013 4.909637,-8.601 4.07545,3.43558 0.0929,5.6072 -3.01525,7.65637 -0.25777,0.0248 -1.991177,1.82634 -1.894387,0.94463 z M 86.483331,164.00427 c 1.98759,-2.90665 1.204131,1.00249 0,0 z m -23.721376,-1.78532 c -0.464828,-2.40243 1.51692,2.10302 0,0 z m 39.064795,0.26356 c -0.23057,-2.08372 1.61715,0.98825 0,0 z m -18.518419,-0.65855 c 0.677329,-1.79949 0.51731,1.74346 0,0 z m 25.714469,-2.12697 c -1.9545,-4.01026 2.28671,2.06025 0,0 z m -30.14624,-2.55767 c -2.100973,-1.26899 2.293303,0.44294 0,0 z m 16.435531,-0.41208 c 0.641657,-2.2642 1.43795,0.51857 0,0 z m -0.263253,-1.04137 c -1.763571,-1.08023 1.215345,-2.041 0,0 z m 2.28241,-0.22107 c 0.635967,-1.93794 0.725511,-5.65977 2.718902,-2.23622 -0.984639,0.33779 -1.522167,2.6141 -2.718902,2.23622 z m -24.819621,-1.33007 c -0.722645,-1.05777 -4.527094,1.13867 -2.96568,-0.84321 0.760342,0.13291 2.994538,-0.43503 1.638174,-1.69063 0.792845,-0.55768 2.109213,4.15256 1.327506,2.53384 z"
         id="path1192" /><path
         style="fill:#79a373;stroke-width:0.264583"
         d="m 76.504838,241.59583 c 0.195893,-2.53704 0.118399,2.79414 0,0 z m 5.817222,-0.92604 c 0.15569,-2.4271 0.148794,2.4324 0,0 z m -5.552639,-3.04271 c 0.195894,-2.53704 0.118401,2.79414 0,0 z m 5.29798,-1.05833 c 0.142187,-3.1893 0.14135,3.3401 0,0 z m -5.042347,-2.38125 c 0.215269,-2.03438 0.117193,2.25764 0,0 z m 4.782598,-3.175 c 0.118831,-3.27998 0.118797,3.59141 0,0 z M 77.3076,230.61563 c 0.147003,-3.49924 0.138152,3.507 0,0 z m 4.248705,-6.61459 c 0.125447,-6.41843 0.153586,6.0773 0,0 z m -3.976359,-0.52916 c -0.02952,-3.19918 0.336282,0.93387 0.02975,1.25801 l -0.02176,-0.47351 z m 4.031549,-9.21307 c -0.544861,-4.85176 3.873856,-7.92353 6.315132,-11.53878 6.102044,-6.77475 13.978723,-11.61647 20.555663,-17.86144 -0.49087,-1.55817 1.5476,-2.07202 2.71889,-2.04001 -0.60194,-2.24877 3.65322,1.03558 1.13604,0.44118 1.50534,0.98987 4.10477,-0.65841 2.89333,1.15658 1.11126,1.70454 2.82366,4.369 1.33201,5.89671 2.16976,0.71181 -2.82035,1.93173 -0.44569,2.43803 -2.03258,1.61373 -0.95492,2.67134 -2.84431,2.9475 -0.79122,1.00632 0.76911,2.02289 -0.87369,2.33351 -1.26128,0.69182 -2.92988,4.03675 -3.46608,4.61407 -0.26516,-3.66134 -0.99723,1.44982 -3.29818,0.88328 0.46408,0.65557 -6.260424,-0.21057 -4.47165,3.35228 -1.250196,2.60049 -0.30331,4.43119 -3.214551,5.37223 -0.187524,0.40063 -4.21269,4.11961 -6.193826,2.55535 -1.474593,-0.19797 -1.648314,-1.68138 -1.93137,0.19588 0.208779,1.74237 -3.129759,0.83298 -4.215268,0.32215 -1.626275,-0.21027 -4.895655,2.97237 -4.038825,-0.24917 0.01413,-0.27312 0.02825,-0.54623 0.04238,-0.81935 z m 19.159335,-7.36749 c -0.41155,-1.71276 -0.42435,2.13096 0,0 z m 8.99583,-8.67154 c -1.31793,-2.30051 -1.62839,1.47934 0,0 z m 2.11667,-7.55624 c 0.12006,-1.34409 -2.6249,0.88959 0,-4e-5 z m 0.89166,-2.18281 c -2.07266,-0.73738 -0.0766,1.40109 -0.12955,1.01347 -1.14334,2.22415 1.55615,-0.42249 0.12955,-1.01347 z m 0.47769,-1.92161 c 1.07882,-3.12593 -1.30512,-1.11942 -0.48585,0.25558 -2.26022,1.17704 0.55772,0.73151 0.48585,-0.25558 z m -4.30782,-0.56988 c 0.17858,-2.12148 -2.76342,2.30179 0,0 z m -33.800552,29.89319 c -2.370084,-1.06208 -5.539527,-0.72633 -8.985617,-1.5646 -2.741879,-2.1037 -4.784663,-2.04434 -7.906066,-2.05513 0.712798,-0.20111 2.081755,-3.81087 0.138696,-3.35809 -0.8078,0.67689 -2.205818,-2.87728 -4.499874,-0.37694 -1.926355,0.46892 -0.933669,-3.13665 -1.210374,-3.13994 -0.215104,-0.74721 -6.346334,-0.23068 -2.574081,-1.85036 1.40867,-2.06025 -0.178338,-0.88286 -1.871662,-0.25152 0.949469,-0.9885 1.243745,-1.61731 -0.48931,-0.0928 1.73647,3.20181 -1.844333,-0.27923 0.0368,-1.54928 -1.974425,2.09674 0.416407,-1.8797 -1.739017,-1.92524 -1.666556,-1.5996 2.163481,-2.48428 -0.95547,-3.72444 -1.201628,-4.27508 3.199041,-2.00308 4.113255,0.17082 1.465945,-1.6652 -2.422139,-6.42996 -3.762575,-5.04329 -0.621485,-1.72056 -1.346287,-2.32654 1.378,-3.46004 2.186773,0.19287 5.491434,-0.23105 5.462588,-1.71328 1.734459,2.29121 0.964261,-1.36914 3.115227,-0.57606 1.135368,0.84789 3.301015,0.46375 0.837911,-0.42379 -1.513857,-3.10212 6.569569,-2.10505 1.977313,-2.61677 -1.833143,-0.88265 1.976969,-2.04817 2.364542,0.42782 2.597947,3.28336 5.472777,6.4731 7.853399,9.87879 0.439237,2.3484 1.068752,4.69594 1.470931,7.02145 -4.891342,-4.08974 -9.707945,-8.2909 -14.547018,-12.43542 -1.142379,2.80787 4.540581,5.02641 6.10577,7.41968 4.762162,4.63743 10.509697,8.65827 13.300831,14.90135 0.49349,1.61154 6.14316,9.09992 0.385797,6.33707 z M 50.169392,198.13802 c -1.647255,-1.46397 -1.508056,1.52263 0,0 z m 4.563939,12.13057 c 2.496277,-2.92646 1.184514,0.87042 0,0 z m 21.914123,-3.22207 c -3.071494,-3.40605 -2.716652,-7.93767 -1.775325,-12.09085 0.07206,-2.89022 2.04908,-7.79215 0.865208,-9.5429 -1.498696,4.28431 -1.924069,8.97717 -3.12793,13.39206 -2.665416,-6.52148 -4.295102,-13.43908 -6.813574,-20.00266 -1.398127,1.76501 1.440899,6.6098 1.450559,9.18382 -3.56912,-2.50131 -5.843262,-7.00712 -9.108799,-9.38939 1.988082,3.25225 -4.279926,0.56105 -4.088393,2.2889 1.549126,0.21153 1.101858,0.93775 2.215608,1.03367 -1.726237,0.25524 -0.2607,1.04608 -0.899651,1.51725 -0.519703,-0.53205 -1.954455,2.50402 -1.038129,-0.4504 1.337932,-1.82581 -2.212133,-0.82827 -0.562993,0.2142 -0.943564,2.40769 3.117203,0.80007 -0.520057,1.98531 -1.025823,0.76531 -1.245591,-1.87499 -2.361928,-0.48886 1.760157,1.47294 -3.104193,-1.00361 -1.549537,0.96814 -0.823286,2.26772 -0.84178,-1.31279 -1.9509,1.51011 0.450766,-1.92772 -0.859844,-2.2998 -1.997184,-0.51971 0.801627,-1.52541 1.721559,-5.37529 3.750133,-3.46817 -1.19962,-1.21592 2.531291,0.32019 1.299288,-1.15766 0.553041,-1.09639 0.350377,-5.11801 -0.10764,-5.73109 -0.606294,-1.21822 -0.01146,-5.59744 0.491921,-7.23139 -2.612719,-1.53984 -0.435308,-7.74746 2.34893,-7.83828 2.13295,-0.67301 5.407558,-0.25797 6.824,-1.10463 1.6163,2.3215 -0.923794,2.03748 -1.562529,2.69586 2.450654,-0.80076 3.454972,4.00842 0.344828,3.28804 0.05201,2.37025 1.221756,-0.16847 1.683689,0.30561 -0.347241,-0.82864 4.221834,-2.25825 0.487803,-2.4781 0.02418,-1.07348 1.649642,-1.55265 0.0079,-1.32965 2.505212,-1.61646 -0.905091,2.13216 2.048853,1.5103 1.661659,-0.66791 2.244132,0.73663 2.294217,0.60548 -0.178689,-1.33718 6.722028,-4.63633 2.796429,-1.64023 2.902698,-0.95543 1.763419,1.61066 0.435554,1.65643 -0.911946,2.22805 -1.590806,2.49554 -0.125877,2.48451 1.073231,0.9995 -0.415747,-3.22221 2.34209,-2.35916 -0.142392,-1.07624 3.579844,-1.3439 2.631132,-1.96242 2.543263,0.2802 0.118035,-2.48668 -0.650154,-2.84051 -3.823497,0.3569 5.240008,-2.39835 2.657854,1.28723 0.651216,-0.78976 3.324484,-1.27727 1.885894,0.39698 3.394506,-1.18626 1.503326,-0.0418 -0.238914,0.95644 0.258405,2.24485 3.374602,0.92612 1.644604,4.08415 0.06247,3.00941 2.173177,0.10286 3.45326,-0.16712 0.570299,-0.91562 1.000577,0.0806 1.698666,-1.49353 0.889611,1.72454 3.498773,0.86009 5.028658,1.12668 -1.354218,1.87079 1.984123,1.9251 2.543615,1.8947 -0.788489,2.59516 1.152572,3.40513 2.753585,2.42273 -0.67979,2.54088 1.335616,-1.69349 2.126932,-0.1071 1.850346,-0.64931 1.51781,1.19419 2.874284,0.95378 -1.421199,-1.10771 0.0028,-1.96573 0.386944,-0.71913 2.801772,1.37767 -0.231541,-2.50497 1.139762,-3.19824 1.21398,-2.22055 -0.4249,-0.005 1.41364,-0.66299 0.70481,-0.31143 -1.14348,-1.10498 0.75857,-2.08402 -0.2918,-2.29395 3.49345,-1.60119 0.34855,-2.60597 2.41586,-0.48927 4.42116,-0.0641 2.93,2.53627 1.44931,-0.89237 3.59613,-4.71838 0.25807,-3.38048 -1.8892,-0.89629 -0.48321,-2.44305 0.59146,-0.70016 -0.31484,-3.75458 2.64181,1.0414 4.68452,1.21615 0.89648,2.45401 -0.45484,4.71377 -2.89503,5.38732 -1.99764,0.0295 1.3831,-1.10024 -0.3079,-1.3444 -1.32396,0.35219 -2.11905,0.7735 -0.98299,1.02106 1.11521,0.94684 -2.24508,1.26652 0.33801,1.92305 1.78011,0.21258 -1.19489,0.54482 0.61886,2.00655 -1.28291,1.52589 -3.79951,2.05765 -3.80018,2.54426 -0.75371,-1.6018 -0.28761,-2.49095 -1.64272,-3.46004 1.15156,-1.98763 -0.1438,2.3972 1.60381,-0.34408 -2.491,-0.88695 1.36795,-3.05681 -0.76972,-4.75755 1.20634,-3.03579 -1.5687,0.52276 -0.18629,1.8347 -1.11588,1.06673 -0.96946,2.47837 -1.61479,3.89056 0.45481,-0.0746 -1.10592,2.40599 -1.47384,1.74392 -0.717696,2.45614 -0.976243,-1.57457 -2.233069,1.34664 -2.057323,1.79584 5.756739,-1.82787 2.407459,1.01527 -1.988026,2.14701 3.32127,3.64899 2.25233,5.24632 -0.91521,3.85398 -4.046307,7.16741 -5.65785,10.89182 -1.230199,2.73944 -5.377788,4.87803 -7.248764,5.60551 2.080533,-5.4978 3.649876,-11.20787 5.92193,-16.61898 1.66074,-0.64766 -4.267331,-4.51254 -1.508154,-0.82168 -2.196659,6.52368 -4.790528,12.92809 -7.349426,19.31764 -1.226886,2.71577 -3.995744,6.30032 -5.789065,7.38307 0.629918,-5.17394 1.93481,-10.36364 1.706022,-15.58365 -2.173703,0.36282 -1.331839,10.0347 -3.132355,4.84538 -2.491124,-2.78135 0.858919,3.94067 0.401847,5.28243 -0.8536,2.04833 -1.240949,8.65306 -2.853761,8.20307 -0.273949,-0.44273 -0.547898,-0.88546 -0.821847,-1.32819 z M 48.383331,183.51979 c -1.166024,-1.66503 0.18625,1.83013 0,0 z m 49.53,-0.84666 c -1.762278,-4.43233 -0.197771,3.02584 0,0 z m 1.727714,-1.27217 c -0.373334,-1.84898 -1.455323,3.10432 0,0 z M 52.82133,180.9867 c -0.678393,-2.92503 -1.426975,2.47946 0,0 z m 2.379674,-1.26536 c 1.025552,-2.17339 -6.309114,-1.32649 -1.624994,-0.91571 3.831957,0.0694 -1.358952,1.4313 1.624994,0.91569 z m 44.589549,-0.0839 c 1.102577,-0.2441 1.690397,-0.94381 -7.32e-4,-1.23025 -0.772604,0.46935 -0.797417,2.18367 7.32e-4,1.23025 z m -0.1992,-1.42731 c 3.728417,-1.21943 -2.439785,0.16736 0,0 z m -0.182787,-1.83405 c 1.157314,-0.70791 -2.125999,-0.63684 -0.952839,-1.29222 -0.71559,0.35518 -0.741162,3.90763 0.952839,1.29222 z m -3.334089,-0.42718 c 1.819145,1.6563 1.389958,-4.69838 -0.07636,-1.83706 -1.353547,-0.33023 -5.673161,-1.46271 -2.078149,0.0728 2.933304,0.51959 -1.146213,2.72793 2.154521,1.76433 z m -17.793229,-1.03733 c -0.72011,-0.99507 -1.623193,1.5362 0,0 z m 15.094585,-0.12299 c 0.467863,-1.91305 -2.227115,1.11075 0,0 z m -41.865899,-1.04562 c 1.0605,-0.77831 4.2619,-2.06248 2.075752,-2.15888 1.626811,-0.77591 0.398135,-0.97543 1.872515,-2.75927 -3.199104,0.57657 -3.723586,2.17123 -4.487274,4.64955 -0.73137,1.11855 -0.239717,1.43468 0.539007,0.2686 z m 0.312981,-1.5909 c 1.60044,-2.18761 1.455758,0.89124 0,0 z m 40.992777,0.61487 c -0.734163,-1.69151 -2.132799,1.52935 0,0 z m 0.515183,-0.99996 c -2.658508,-1.8492 1.518317,1.95912 0,0 z m 3.586041,0.34753 c 2.876416,0.47782 -0.944943,-1.32479 -0.40844,0.0661 l 0.216371,-0.20346 z m 9.111834,-0.14707 c 0.3863,-2.95172 -1.54368,0.21194 0,0 z m -51.453578,-3.21655 c 1.837678,-1.73831 -2.895627,-0.0147 -0.594714,-1.21307 -0.935338,-1.96441 -1.788312,3.3403 0.594714,1.21307 z m 4.259201,-0.7629 c 0.569036,-1.05315 -2.85067,1.24995 0,0 z m 43.411407,-0.0466 c -2.588339,-1.51575 -0.3332,1.03622 0,0 z m -47.853695,-1.61943 c 0.603119,-1.03057 3.443753,-0.97678 0.704419,-1.20332 -1.257282,-0.24328 -2.058238,1.94017 -0.704419,1.20332 z m -3.098337,-0.41249 c -0.736434,-1.33355 -0.501503,1.70055 0,0 z m 11.641667,0.0465 c -1.372801,-0.75329 -1.98662,0.52132 0,0 z m -3.050913,-0.67903 c -0.768812,-1.73675 -1.100059,0.34798 0,0 z m 45.473148,-0.87317 c -0.8265,-0.8226 -0.7221,1.65596 -0.0236,0.24036 z m -46.841393,0.15434 c -1.358599,-1.21558 -0.837994,1.2989 0,0 z m 18.177491,-1.64262 c -1.44407,-0.94172 -1.862513,0.89718 0,0 z m -25.863144,44.61536 c 1.37208,-1.58956 1.118043,1.44034 0,0 z m -0.980916,-1.50332 c 1.34314,-1.28693 3.348013,-0.0987 0.239298,0.15512 l -0.239301,-0.15512 z m 50.012543,-16.21667 c 1.081129,-3.11251 2.958199,-5.66354 4.204019,-8.5979 2.22251,-0.0971 3.20647,5.58766 -0.28914,6.14016 -1.16742,0.62431 -2.95107,2.71564 -3.914879,2.45774 z m 3.713459,-3.78973 c -0.23421,-2.84386 -1.26286,2.09264 0,0 z m -59.564751,2.50751 c -0.637727,-0.94543 2.647666,-1.30757 0.426321,0.37004 z m 0.273504,-3.49448 c -3.521319,-0.2945 5.173158,-3.76975 1.325727,-0.86139 0.473869,0.7623 -1.250228,1.83538 -1.325727,0.86139 z m 63.384157,-6.2106 c 1.08178,-3.50356 1.39296,1.11252 0,0 z m -3.8859,-1.12448 c 2.9125,-0.9893 -1.65485,-3.91198 0.70454,-3.37344 0.25678,2.9853 1.98311,-2.63115 2.48331,-0.56826 0.16961,0.13972 3.31577,1.48624 1.14223,2.64801 -0.81308,2.69109 -2.55243,1.08713 -2.68223,0.8615 -1.0999,-0.53553 -2.58951,2.5478 -1.64785,0.43219 z m 3.33408,-1.5875 c 0.97831,-0.4036 -1.61853,-2.86563 -0.59274,-0.28054 -1.79391,-1.3715 -0.89569,0.93369 0.59274,0.28054 z m 2.35155,0.18183 c -0.35786,-1.26125 1.31661,-0.0342 1.6751,-0.98467 0.70439,1.07414 -2.48476,1.76753 -1.6751,0.98467 z m -7.37458,-2.85312 c 1.89406,-1.30306 1.10274,0.97868 0,0 z m 5.6957,-0.25072 c -0.80531,-2.46878 1.62224,0.66603 0,0 z m -11.900173,-3.99887 c -0.226426,-2.39854 -2.66609,-0.1269 -1.832925,-2.60412 -0.468072,1.30261 4.732365,1.67561 2.476128,3.11696 -0.364943,0.25036 -0.860296,-0.17758 -0.643203,-0.51284 z m -4.315174,-2.13051 c 0.01247,-1.00894 0.375543,-3.12286 -0.590614,-2.32565 -1.925655,1.30361 -0.807987,0.9573 -1.788175,-0.50593 -1.199257,2.95862 -0.02806,-2.23958 -0.772794,-2.02352 0.748611,-1.50995 -3.617652,-0.3262 -0.62075,-1.17221 0.502371,-1.35667 -2.887196,-0.86294 -2.757473,-3.08931 -1.109601,1.1096 -1.62369,1.18275 0.116121,1.99768 1.151164,2.07587 -2.133492,-0.98504 -2.563524,1.18995 -1.316456,1.70153 -3.777988,0.0971 -0.846448,0.16503 -1.807141,-2.11036 1.630938,0.41342 0.724743,-1.82682 -3.127173,1.36212 -0.502665,-2.48905 0.183779,-1.76524 0.51233,-1.43708 1.629943,0.91242 3.031908,-0.95924 1.388021,-1.8827 -3.571782,1.18606 -1.09733,-1.35642 2.546665,-0.0422 -1.210913,-1.10288 1.803919,-1.34994 2.285483,-1.81862 -0.626704,1.91968 0.908103,0.9063 0.365938,-1.26692 0.536022,1.00389 1.535229,0.10361 -0.380386,1.80421 1.620526,-0.5423 -0.833784,-1.05465 2.558845,-1.08249 -3.061434,-0.18117 -0.947083,-1.79777 -1.567226,-2.03866 2.363656,-2.13323 0.118163,-0.44661 0.700372,1.13305 0.956974,-1.79219 1.41936,0.50667 -1.20301,1.52028 1.460382,-0.49954 0.956389,1.10133 0.997119,-1.34858 -0.493037,-4.13997 1.825532,-3.29987 -2.448871,0.0609 3.671059,1.12369 0.924802,2.0177 0.405402,0.0694 1.576552,1.74153 1.571884,2.60513 -2.07124,-2.43327 -1.197908,2.28226 -2.963785,3.11996 -0.51186,3.17475 1.840626,0.87119 1.057037,0.0392 2.629838,-1.26575 1.583472,-1.0641 1.238172,-2.80262 1.812451,1.12718 2.093056,3.79805 0.332005,3.08469 1.837801,2.85139 1.583923,-1.62628 2.382816,0.18166 3.020251,-0.43204 -1.63217,3.22171 1.527431,2.37995 1.533833,1.70391 -3.095335,-0.15835 -3.163015,-0.82419 -1.714411,0.20063 0.49786,1.85827 0.476426,1.78287 2.753808,1.20693 -0.882964,2.90239 1.504222,4.00865 3.409086,-1.60064 0.04752,1.12861 -0.710484,1.36459 -0.352017,-2.9562 -3.161669,-0.28164 -3.982782,0.045 z m -1.007809,-3.64861 c 1.906997,-1.00269 -1.285216,-0.372 -0.535189,-2.0733 -2.131537,1.52764 0.459379,1.99165 -0.0045,2.53629 l 0.539649,-0.46302 z m 3.013901,-4.60103 c -0.950352,-3.6914 -1.662761,3.57021 0.246321,0.33394 l -0.246317,-0.33394 z m -3.128114,-0.13316 c -1.346196,-1.76521 -1.265609,0.59629 0,0 z m -1.105908,-1.10878 c 1.826488,-0.31733 3.41559,-2.55398 0.809077,-2.11583 0.540572,0.65748 -3.019575,1.81254 -1.10718,2.50664 l 0.298102,-0.39083 z m -2.069092,-1.01415 c 0.775749,-2.56828 -1.663393,1.3434 0,0 z m 4.627931,-3.00504 c -0.355572,-4.28057 -1.169062,4.13144 -3e-6,-1e-5 z m -1.002401,-0.9782 c 1.663627,-3.81199 -1.860594,1.49847 0,0 z m 8.809887,14.55447 c -3.591866,-2.33284 1.774472,-0.16519 0,0 z m 0.264583,-2.2589 c 1.052059,-2.31253 3.375409,1.21322 0.913889,-0.54488 -0.18956,0.20129 -0.65687,1.04139 -0.913889,0.54488 z m -0.264583,-1.05834 c -0.207191,-1.65145 0.894682,1.0789 -4.5e-5,0 z m -1.139336,-0.0369 c 0.0099,-1.93107 1.400133,0.74403 0,0 z m -1.307002,-0.66882 c -2.134031,-1.22382 3.67293,-2.26676 2.115621,-0.54101 -1.670881,-1.99786 -2.050393,1.86843 -2.115621,0.54101 z m 4.29842,0.18826 c -1.35889,0.50174 -1.05208,-2.40613 -0.0236,-1.73149 -0.11838,0.0868 0.4734,2.98924 0.0236,1.73149 z m -31.617707,-1.73149 c 0.534619,-0.88293 4.333857,-0.56757 0.876999,0.13754 -0.236846,0.0786 -0.75104,0.23081 -0.876999,-0.13754 z m 30.096357,-0.43982 c -0.587568,-0.81941 1.48716,0.29996 -0.0391,-1.46543 -1.258689,-1.67248 3.19729,-1.38706 2.08407,-2.19396 -3.168505,-0.0779 -0.99101,-0.37098 0.35924,-1.03715 -1.79823,-2.71533 2.66485,-0.17965 1.53347,1.09595 0.50455,1.99884 -1.13082,2.26108 -2.13791,0.87462 -2.809123,1.33083 3.97396,0.79548 0.97817,2.00249 -1.51597,-2.0303 -0.47203,0.6301 -2.24161,-0.84994 0.0775,0.71902 1.16372,2.2539 -0.53634,1.57342 z m 3.76714,-3.72737 c -0.68985,-1.88769 -0.48478,1.48734 0,0 z m -24.735372,3.10885 c 1.24931,-2.03238 1.69022,0.19829 0,0 z m -2.645833,-0.25926 c 1.502401,-1.60284 2.646447,-0.0625 0,0 z m 32.174595,-0.95452 c -0.44646,-2.42271 1.49556,0.89819 0,0 z m -2.27668,-1.16747 c -1.34136,-2.71014 1.37026,1.51629 0.74282,-0.826 1.80961,-0.21247 -0.14912,2.16009 -0.74282,0.826 z m -25.332048,-0.42506 c -0.891026,-1.04049 -2.767563,-3.02054 0.110733,-3.4532 1.53618,-2.79808 3.693672,3.15925 1.245048,1.11665 -1.483807,0.1944 -0.535606,2.34381 -1.355781,2.33655 z m -4.114409,-2.04164 c 0.210743,-1.73105 -1.090587,-1.05917 -1.638823,-2.7627 -2.239409,0.26548 -2.227983,-3.49224 -0.284159,-2.46992 2.782317,-0.43016 0.704107,1.65706 2.464131,2.82615 -0.26462,-1.68016 -0.04072,-1.31378 -0.741058,-1.5934 2.490754,-0.37755 3.371894,-4.50139 4.140123,-0.89852 -0.09457,1.71068 -1.64038,6.03885 -3.940214,4.89839 z m 24.228007,-1.06024 c 1.08353,-1.17698 0.87056,1.07334 0,0 z m -3.336409,-0.089 c 0.545325,-1.04775 -0.304793,-2.07354 1.014262,-2.5432 0.298885,1.95767 1.298957,1.23945 -1.014262,2.5432 z m -28.193629,-0.29615 c 0.857111,-2.17246 2.923484,-0.64945 0,0 z m 24.379218,-1.13408 c -1.930609,-1.95315 1.607442,-2.09789 0.568705,0.11781 z M 82.921518,152.3308 c -0.410174,-2.49063 4.581658,-2.47529 2.39434,-1.43763 2.689448,0.0914 -2.615348,1.68298 -2.39434,1.43763 z"
         id="path1190" /><path
         style="fill:#6c9a66;stroke-width:0.264583"
         d="m 76.760471,237.62708 c 0.215268,-2.03438 0.11719,2.25765 0,0 z m 5.297006,-1.19062 c 0.155688,-2.4271 0.148796,2.43237 0,0 z m -0.260972,-5.42396 c 0.195892,-2.53705 0.1184,2.79412 0,0 z m -4.497917,-0.52917 c 0.195893,-2.53704 0.118399,2.79414 0,0 z m 4.246616,-5.68854 c 0.12766,-3.52581 0.110197,3.58216 0,0 z m -3.96875,-1.32291 c 0.12766,-3.52582 0.110197,3.58215 0,0 z m -2.369003,-7.61303 c -1.847699,-0.59128 -5.508875,-1.62858 -7.051856,-1.36298 -2.065473,0.70238 -4.987034,-3.00129 -7.935603,-2.62092 -2.759244,0.29659 0.628017,-3.17597 -1.643635,-3.26835 -0.565788,1.804 -1.157752,-1.23155 -1.779874,-0.91046 2.396424,-2.13941 -6.388237,3.56553 -3.763717,-1.3989 0.998569,-2.61575 -5.523285,-0.30565 -3.392684,-2.45654 2.62468,-1.61339 -0.02683,-1.5746 -1.210167,-1.92321 0.850809,-0.80089 5.879889,0.17266 2.490588,-0.75726 -2.099269,-0.28359 -4.021491,1.36192 -4.028475,-0.97336 -1.950654,-1.0039 6.44e-4,-3.93412 -1.352945,-4.50466 -1.651382,-2.7703 2.230114,-2.52817 3.463584,0.50145 1.834755,-0.90039 -0.958848,-4.15232 -1.018652,-4.46178 -1.875706,-1.27759 -4.243612,-2.0763 -0.526699,-1.18058 -0.0383,-0.34816 -2.395581,-1.0116 -1.843614,-1.63741 -1.030926,-0.85938 4.68838,-1.28804 5.929075,-1.68398 2.519961,-0.2831 4.066185,-3.01399 6.963989,-0.57841 1.898448,-0.43509 -4.488418,-2.12169 -0.962056,-1.93952 1.329507,-0.12089 2.742888,-2.59415 2.414637,-2.66264 2.793507,3.53309 5.884864,6.89436 8.373705,10.63577 0.373152,2.03446 3.085135,9.46893 -0.65758,5.12931 -3.318315,-3.45858 -7.969077,-5.82253 -10.646807,-9.7543 -0.611483,-1.04848 -4.077607,-0.57998 -1.185386,1.44999 5.382937,5.1797 11.271847,9.87675 16.231902,15.4706 2.000733,3.61829 4.648246,7.21016 5.644462,11.18841 -0.559082,0.74535 -1.908499,0.0237 -2.512192,-0.30027 z M 50.169392,198.13802 c -1.647255,-1.46397 -1.508056,1.52263 0,0 z m 2.547446,-10.17228 c -1.233074,-0.66336 -2.227093,0.75614 -0.186501,0.15809 z m 29.649137,28.1242 c -2.037254,-3.2471 0.37078,-7.72853 3.084999,-10.21036 6.042303,-7.83634 14.270501,-13.45313 21.802146,-19.7257 1.89473,3.9808 3.57315,-2.99133 0.66126,-0.30364 1.49933,-0.94287 3.83613,-5.67845 4.49791,-1.97868 1.97897,-0.4193 5.32881,2.46859 4.55484,4.8648 0.34009,2.13764 -1.57995,0.0588 0.14097,2.33707 -2.62927,-0.44084 -1.26024,3.36105 -3.74521,4.02088 -1.66016,1.07255 -0.61236,1.96046 -0.3322,2.08346 -1.80948,1.42283 -3.71467,4.63376 -4.09025,5.52435 0.018,-3.68032 -2.76768,1.681 -5.2044,1.32454 -3.773034,-0.31803 -3.04962,3.37098 -3.37423,4.30861 0.51982,2.65461 -2.356529,3.67249 -4.072553,5.22482 -2.008232,3.10162 -6.242342,0.60962 -6.575336,-0.2649 0.724048,1.06796 -0.50569,3.46096 -1.473412,2.42243 -1.914688,-0.14747 -3.664785,-0.56099 -5.874534,0.37232 z m 11.419856,-2.03723 c -1.255751,-0.95805 0.0251,2.16624 0,0 z m 15.931389,-15.91469 c -2.27785,-2.25872 -0.77292,1.80007 0,0 z m -0.65764,-4.35637 c 0.011,-1.72393 2.17746,-0.34742 0.49117,0.50068 3.01867,-1.24403 -0.9148,-2.50585 -1.72871,-0.86883 -2.28938,1.04223 0.574,0.96578 1.23754,0.36815 z m 2.91768,-2.75697 c 2.91676,-2.85138 -0.96735,-3.31 -1.49299,-1.62496 -0.68488,-0.4258 0.23997,3.54824 1.49299,1.62496 z m -1.75442,-0.36434 c -3.08981,-0.92031 2.12154,-3.05455 -0.37145,-3.71099 -1.67272,1.63148 -2.71446,3.05901 0.29834,4.18612 l 0.089,-0.0971 z m 5.10007,-1.07403 c -0.43032,-1.31244 -1.1076,1.85764 0,0 z m -1.85208,-1.54655 c -0.51631,-1.00178 0.93346,-5.31546 -0.71176,-2.50194 -1.34245,1.29332 1.0014,0.67084 -0.61116,1.875 0.28469,-0.12676 1.05288,1.47693 1.32292,0.62694 z m -36.953191,18.73426 c -3.27441,-3.514 -2.357407,-8.20862 -1.536269,-12.45355 0.130227,-2.69329 1.961941,-7.44094 0.689729,-8.8593 -1.328723,4.36844 -1.945951,8.9177 -3.060097,13.34207 -2.477179,-6.53793 -4.363007,-13.29015 -6.666131,-19.88443 -2.324011,0.24005 2.353862,8.44259 0.896602,8.79698 -3.285534,-2.52721 -5.586029,-6.90872 -8.674664,-9.05305 0.05734,3.63758 -4.650343,-1.99024 -7.234239,-0.60239 -1.190602,-0.75196 2.470475,-2.55541 -0.768057,-2.38225 1.475507,-2.64545 4.819025,-3.60429 6.044703,-5.3025 3.514996,-2.48691 -2.576314,0.78133 -0.552658,-1.10828 0.272827,-2.21105 -4.354144,-3.20397 -2.727304,-0.56415 -1.882511,-1.23249 0.72389,1.84905 -2.113617,2.52981 -0.722573,1.10594 1.807779,-0.86314 0.03406,1.2388 -1.865734,-1.05129 1.861454,-4.80427 -0.428729,-3.8575 -0.68322,0.34587 -0.73102,-3.03435 1.11562,-2.51633 -0.03275,-1.26119 -1.605965,-1.05752 -0.740082,-1.64497 -2.066242,-1.34733 3.168292,-2.88189 3.410991,-3.62856 2.072742,0.34945 8.152181,-1.05605 4.739209,1.24123 -1.096923,0.14756 -3.107153,1.64905 -1.479145,1.54463 0.488004,-2.5302 4.279297,1.28395 2.557441,1.38913 -0.789447,-2.56667 -5.163168,0.98788 -1.089138,-0.0661 2.71524,0.43856 -2.617422,3.10474 -2.208357,3.31326 -2.74115,1.24723 3.083934,1.24888 1.856178,0.0828 1.740542,-0.33059 0.757773,-0.55773 3.182776,-1.08943 -0.495937,-1.17398 4.952466,-1.81066 6.110223,-3.79183 4.659575,-1.69704 -1.686881,2.08241 -1.822185,2.04508 -1.885928,0.47903 -2.504052,2.26291 -4.43959,2.81065 -2.50484,0.8208 -2.626166,2.18649 -0.342192,1.10026 2.078027,-0.0295 2.004917,-2.13812 3.899328,-1.98833 -0.430211,-1.18489 3.583949,-1.34259 1.100459,0.35461 2.15007,-1.26597 -0.932547,1.75218 1.004867,0.83473 1.852399,0.0328 2.378385,-1.80646 1.809598,-3.09851 2.913429,-0.84033 4.362385,-1.59554 5.986225,-3.096 -0.747605,-1.68936 0.234829,-0.0552 1.729402,-1.61728 -0.137411,1.11177 0.995696,-0.036 0.288023,1.5264 -2.401635,-0.21416 -2.01519,1.79463 -0.934455,1.26445 0.620927,0.87013 2.719608,0.38103 1.90095,1.88684 1.099264,-2.94307 0.233712,5.67866 1.958565,2.53526 0.215393,-0.78326 2.013326,-1.02854 1.623657,0.30194 1.192039,-2.24863 1.828306,-3.76879 3.597657,-1.96313 1.635371,1.04832 3.96523,-1.61232 3.060758,1.56476 1.252282,-0.97705 1.384624,2.29933 3.18657,0.12032 -1.976295,1.69822 0.63731,3.85486 1.133216,3.0873 -0.129005,1.24991 2.00961,1.76363 0.620459,0.0462 0.497021,-0.43904 2.319709,0.77865 2.122067,0.86278 -1.144812,-2.23371 3.570389,-1.39407 2.15818,-0.57747 -3.073592,0.80075 0.629627,1.07765 1.881496,0.35057 -1.463881,-1.96971 -0.418838,-1.71424 0.841951,-0.92312 2.39543,-0.51463 1.8938,-0.15473 0.69119,0.90996 0.34959,1.34451 -2.68756,-0.19051 -2.657464,1.81191 -2.464874,2.45349 5.428824,-2.3202 2.210984,0.80552 -1.780339,2.74751 3.56821,3.87308 2.42064,6.6333 -1.14447,2.19032 -2.63911,3.4268 -3.343052,5.52556 -1.062477,0.80646 -1.208105,2.03364 -1.714989,1.90678 0.03006,4.30506 -4.746444,6.16991 -7.856026,8.17335 2.071054,-5.42558 3.576048,-11.07936 5.866947,-16.41311 0.366645,-0.45122 2.617176,1.43591 1.061901,-0.25551 0.417911,-1.21547 -1.352379,-0.9925 -0.490381,-2.02755 -3.308515,0.24062 -0.794589,-2.23899 0.771229,-1.6925 1.838614,-0.66912 -2.750949,0.5813 -0.09734,-1.08458 0.07354,-1.15411 0.06467,-2.6107 -1.734024,-1.056 -1.148215,-0.42518 -4.596261,-3.01932 -3.508231,-0.8949 1.659485,-1.08349 -1.391022,2.5358 0.942785,0.62343 -1.806736,2.15366 3.480651,-0.57426 2.134524,1.57472 -0.573715,1.07037 -0.392432,1.21042 -1.184268,2.2054 1.982499,1.51396 -2.46573,0.45687 0.366814,2.2334 0.901263,-1.33026 -1.526099,4.27609 -2.019899,5.62149 -2.925378,6.79658 -4.418464,14.61173 -10.126674,19.79236 -1.478006,0.97435 0.596508,-4.52167 0.380904,-6.2263 -0.225047,-2.74807 1.877385,-7.06639 0.280954,-9.0659 -1.454054,1.41874 -1.080418,9.9287 -2.847713,4.4262 -1.985156,-1.38681 0.350312,3.64944 0.699693,5.08362 -0.850096,3.17342 -1.419061,6.44241 -2.621134,9.50673 -0.450465,-0.73983 -0.900985,-1.48029 -1.351417,-2.21974 z m 21.559562,-23.97327 c -0.843248,-3.31325 -1.71666,0.85872 0.190016,0.34063 l -0.190022,-0.34063 z m 1.460553,-0.46693 c -0.237754,-2.60745 2.282456,0.35408 0.456057,-2.22599 1.074819,0.33657 2.040939,-1.66668 0.764399,-1.60169 1.48785,-0.66727 -3.544236,-1.74486 -0.921414,-2.62321 -1.62643,0.62083 -1.669047,-2.83805 -1.743917,0.5155 0.606204,1.15132 1.83126,1.81539 1.222757,2.79237 0.985334,0.15692 -1.734015,4.36111 0.222129,3.14304 z m -26.548173,-2.77647 c -0.480433,-0.43798 -2.126259,-0.65626 -1.322913,0.14254 -0.02885,-0.55331 0.638302,1.12761 1.322913,-0.14254 z m 4.676826,-3.55211 c 2.758867,-1.82031 -2.44271,-2.18263 -1.175526,-1.04305 0.781726,-1.04754 0.70443,2.593 1.175526,1.04305 z m -16.099221,-2.51385 c -2.710522,-1.70052 0.501795,1.66716 0,0 z m -3.855515,-0.0919 c -0.585334,-2.09458 -1.121166,0.29525 0.157425,0.25557 z m 3.256904,-2.25085 c -2.05367,-0.76548 0.996493,2.06083 0,0 z m -2.994098,0.0251 c -1.202904,-1.00662 3.15726,-0.48351 0.118063,-0.90539 -1.980717,0.0516 -0.437812,1.5155 -0.118063,0.90539 z m -1.727723,-4.34033 c -0.644379,-1.24639 1.416694,-1.54135 -0.607698,-2.09465 -0.350148,-0.007 -1.650922,0.22265 -2.905807,0.65152 1.628937,0.24946 -1.453472,0.097 -0.278428,1.13374 0.741003,0.26664 3.382656,0.11506 3.48188,1.11692 l 0.234513,-0.34656 0.07554,-0.46092 z m -5.217589,0.41452 c 0.353249,-1.64011 -1.797512,1.48589 0,0 z m 34.864365,-0.0827 c -0.781662,-1.17247 -0.91519,1.33779 0,0 z m -27.985199,-0.84336 c -0.42342,-1.78659 -1.724262,2.16811 0,0 z m -3.516246,-2.11667 c 2.293548,-1.3819 -0.802034,-1.6059 -0.680501,0.46302 0.29644,0.23616 0.647836,-0.20955 0.680501,-0.46302 z m -3.443922,43.48705 c 0.0099,-1.93107 1.400132,0.74403 0,0 z m -3.423034,-5.25635 c 0.972277,-2.71809 0.330007,1.80957 0,0 z m 52.330215,-12.6158 c 0.860176,-2.91753 2.649546,-1.74244 4.295976,-4.28434 1.76573,-0.91641 -3.17155,-1.10102 -1.0669,0.62779 -4.082552,3.28429 0.1711,-4.67975 2.02209,-2.67201 -0.49016,-0.7217 -2.39151,-2.90582 0.0842,-1.54036 1.43365,1.88748 1.32037,4.21695 -1.02042,5.06426 -1.64245,-0.001 -3.28184,3.58649 -4.314986,2.80466 z m -47.730226,-5.48391 c 1.952575,-2.3745 1.22405,0.72697 0,0 z m -1.360537,-0.38713 c 0.909501,-2.27256 1.295582,1.21809 0,0 z m 7.14375,-0.16468 c -2.38289,-1.83826 2.175777,0.24327 0,0 z m 0.595313,-1.51297 c -1.201738,-1.32091 2.156591,-0.0871 0,0 z m -4.497917,-0.51435 c -0.931119,-1.21311 2.71773,0.11244 0,0 z m -2.326252,-1.16572 c -1.629208,-1.0718 1.791164,-1.37021 -3e-6,0 z m 54.751595,-2.78173 c 1.3868,-0.84516 0.20534,-4.64383 -0.0659,-2.55962 -2.25132,-0.28523 0.91257,-2.50289 1.93035,-0.20292 1.68846,-0.0667 -1.9352,3.96345 -1.86447,2.76254 z m -2.47394,-0.34072 c 1.04341,-1.1859 1.32578,-2.82298 2.43476,-0.51837 -0.78824,-0.0357 -0.8995,0.0305 -1.47259,0.0816 -0.53324,-0.18242 -1.73598,1.9303 -0.96217,0.43674 z m 0.24867,-5.19945 c -0.21452,-1.61265 1.02577,-3.6322 -1.03511,-2.65425 1.58465,-1.67356 1.5516,-3.83321 1.78669,-4.46679 1.79275,-2.05234 -0.90758,-2.72213 1.33348,-2.76119 0.45522,1.61808 -1.0213,2.7593 0.96585,2.02907 0.41025,3.24699 0.75821,-2.39878 0.31184,-1.81037 0.58526,-2.68653 3.19981,-1.89742 3.62323,0.0282 2.50266,-1.12822 -1.91718,5.44208 -2.79758,3.19243 -2.96159,0.50173 -1.0976,3.22976 0.0494,4.85984 -1.33995,1.67812 -2.61629,1.64851 -2.6522,0.15117 -0.74167,0.47382 -0.0391,2.32112 -1.58557,1.43193 z m 3.17961,-2.0068 c -1.16426,-0.95993 -1.72929,0.9091 0,0 z m -6.58869,-0.80525 c -0.959425,-2.94638 3.73159,0.90273 0.26107,-0.1386 0.63047,0.46791 0.6515,1.60935 -0.2611,0.13862 z m -4.925967,-0.17281 c -0.493671,-1.49006 -2.303954,-2.35756 -0.06796,-1.08461 0.939832,1.6857 1.395441,-0.86749 1.26049,1.44749 -0.33204,-0.0125 -1.188622,0.23337 -1.192526,-0.36288 z m 6.583257,-1.24291 c -1.89111,-0.57991 0.78275,-1.54424 0.31569,-1.64405 0.48383,-0.12165 -0.2202,2.88367 -0.31569,1.64405 z M 60.658149,166.9617 c 1.03666,-3.1527 0.957077,1.96782 0,0 z m 34.829062,-0.30607 c 0.09488,-2.88861 -2.746851,-0.0857 -1.949016,-1.47111 -0.08898,-0.12859 -3.299936,-1.35999 -2.282467,-3.31035 -1.590277,-2.4259 -2.318852,2.01022 -3.24579,-1.64267 -1.261675,-1.86098 1.2636,-3.02252 -0.997437,-2.69382 -0.676829,-0.12526 0.87982,4.75652 -0.659659,1.46137 -3.697794,-2.72069 2.307879,-2.03573 2.886696,-1.29095 1.785095,-1.23073 2.816589,-1.63522 1.594704,0.61363 0.187892,3.72654 1.862527,0.51524 1.529825,-0.76185 0.732725,-0.008 -0.42032,3.66935 1.417973,2.20991 -1.973548,1.30434 2.843013,1.27055 0.08826,2.28699 -0.726668,2.01298 -1.981844,2.3172 0.160314,2.31581 1.88342,0.32991 3.312035,2.71019 1.456549,2.28299 z m -2.600389,-4.39111 c -2.342175,-1.82896 0.338381,2.86558 0,0 z m -4.061777,-2.02775 c -1.488193,-2.60946 0.52713,2.5577 0,0 z m 1.627036,-1.47442 c -0.952108,-2.08745 -1.609334,0.45073 0,0 z m -27.78125,6.79713 c 0.515613,-0.72802 -0.09046,-1.94182 1.190571,-0.0882 -0.38904,-0.31029 -0.891595,0.44963 -1.190571,0.0882 z m 41.010419,-1.1053 c 1.78771,-1.94941 2.06998,0.60238 0,0 z m -9.632973,-0.65932 c -0.897672,-4.62497 4.638083,1.7612 0,0 z m -3.471566,-1.12539 c -1.202559,-1.94295 1.143351,-0.23201 0,0 z m 16.213389,-1.29248 c -2.4977,-1.41251 0.50891,-0.26861 0.78557,-1.75123 0.72829,0.99504 1.07592,1.72789 -0.78557,1.75123 z m -33.079659,-0.41293 c -1.575945,-2.66245 4.477602,-1.25604 0.673828,0.28451 l -0.298853,-0.0385 -0.374975,-0.246 z m 22.10997,-0.19843 c -1.819457,0.52219 0.536073,-3.93642 0.232676,-0.97691 0.13214,0.32933 0.135838,2.34932 -0.232676,0.97691 z M 82.32455,160.6884 c -0.359342,-1.4434 -2.959118,-1.18339 -0.234424,-2.72016 0.971304,1.33263 0.340425,-2.75666 1.718423,-0.0692 1.863553,0.49927 -1.872575,1.70867 1.237368,1.65124 1.457745,2.55255 -1.803259,-0.62143 -2.411732,1.4799 l -0.277222,-0.0978 -0.03241,-0.24406 z m 1.244314,-2.51808 c -0.860083,-0.82169 -0.410793,2.37872 0,0 z m 16.621366,1.39427 c 0.28267,-1.91851 2.30664,-1.97435 0.43543,0.38645 0.2321,0.94064 -0.760132,-0.0837 -0.43543,-0.38645 z m -4.012997,-0.51876 c 2.479345,-1.56681 -0.124682,1.10534 0,0 z m 6.876657,0.007 c -2.45672,-0.81816 1.50124,-2.44951 -2.00949,-1.36185 -1.204494,0.089 2.76582,-1.48802 1.515,-2.7301 1.54486,0.83218 0.4299,1.89488 0.64259,3.33154 1.084,-2.89372 1.59376,-0.056 0.0931,1.04415 l -0.22404,-0.0607 -0.0171,-0.22295 z m 5.65444,0.12575 c -0.0711,-1.46072 0.82713,0.88235 0,0 z M 80.838888,157.1501 c -0.903955,-2.02908 -1.881019,-2.17045 0.352777,-2.99357 2.50348,-2.47633 1.38228,2.43314 0.08758,1.16161 -0.170708,0.29476 0.475916,2.50195 -0.440361,1.83196 z m 6.702777,-0.62141 c 0.004,-0.61452 3.646291,-1.48196 0.911547,-1.43911 -1.067692,-0.45146 0.275163,-1.65865 1.205231,-0.55827 -0.642852,-2.09639 3.254136,-2.2429 1.139759,-0.71626 2.070089,0.0956 -2.837374,2.57917 0.364006,0.9301 -0.357,0.80357 -2.564292,2.18264 -3.620543,1.78354 z m -3.569208,-0.26485 c 1.028792,-2.12279 2.187656,0.58876 0,0 z m 7.849579,-0.13131 c -0.781548,-3.70996 1.178436,0.71975 0,0 z m 1.739373,-0.36992 c -1.902123,-1.06555 0.890023,-0.60247 0.795545,0.32384 l -0.795545,-0.32379 z m -7.607244,-0.047 c 0.504133,-0.59269 3.366759,-0.21694 0,0 z m -8.202084,-0.50579 c 2.768252,-1.72435 -1.316884,1.76545 0,0 z m 8.376955,-0.19844 c 2.045313,-0.89714 1.667208,0.51822 0,0 z m -9.271731,-0.87821 c -0.9629,-3.12145 2.091774,2.32366 0,0 z m 9.626026,0.0276 c 1.726692,-2.29506 0.82405,0.91939 0,0 z m -8.198747,-0.28155 c -1.544737,-0.17261 1.524642,-5.73713 2.438322,-2.39599 -0.912438,2.17952 0.246948,1.25585 -1.893913,1.84 0.711065,0.6239 -1.288841,1.14285 -0.544409,0.55599 z m 13.676112,0.10516 c 0.382949,-2.06769 -1.29495,-1.35685 -0.893405,-2.92557 -0.754075,0.53842 -1.11927,2.13185 -0.763812,0.0862 1.861986,-1.20494 2.839651,0.40364 1.903541,0.74227 0.804596,0.56712 1.52328,0.80262 -0.246324,2.09715 z m -4.31727,-1.21487 c -0.04577,-1.35888 1.37531,-1.45023 0.573143,0.23035 2.429688,-0.23333 -0.173182,1.389 -0.573143,-0.23035 z m -12.718891,-0.33603 c -2.052118,-0.21592 1.512016,-1.06787 1.823126,-1.61387 -0.275902,0.43346 -0.960282,2.43708 -1.823126,1.61387 z m 8.046032,-0.12078 c 0.327567,-1.93932 3.538267,-2.90684 1.155251,-0.35307 -0.191015,0.0137 -1.036661,1.15634 -1.155251,0.35307 z m 10.399977,0.33302 c 0.403682,-2.50971 2.380205,-0.16393 0,0 z m -18.732828,-1.45428 c 1.014521,-1.43718 0.720253,1.16694 0,0 z"
         id="path1188" /><path
         style="fill:#4f8649;stroke-width:0.264583"
         d="m 77.46545,216.48529 c -2.90746,-0.17928 -0.916637,-1.80338 -3.056794,-1.53733 -0.128359,-1.73307 -1.598662,1.52097 -3.314373,-0.48113 -2.178486,-0.62804 -4.646118,-1.83723 -3.230265,0.44341 -2.193758,-2.58915 -6.784556,-2.08046 -8.310286,-4.41872 0.327332,-2.03187 -1.329847,-2.43744 -1.866918,-3.68842 -1.268338,1.07521 -7.185034,2.2342 -3.376839,0.31203 -0.445612,-1.45729 -2.293925,-4.37471 -4.537396,-2.27418 2.993783,-1.19558 4.047042,-4.92032 -0.383642,-3.80544 -3.152135,0.58914 -1.121217,-3.04245 -2.857693,-3.90268 -1.452081,-1.5483 0.28721,-4.89646 0.852499,-2.59639 -2.389469,1.29329 0.146047,-0.26109 0.497026,1.64817 3.502305,0.58231 0.457905,-2.74878 1.006831,-3.93346 0.250513,-1.40773 -2.243112,-3.78656 1.194173,-3.23923 1.19883,-0.92997 -0.543888,2.02962 1.850187,-0.0403 0.834502,-0.90257 5.687457,2.58682 2.335484,-0.55585 -2.851671,-2.66022 2.493918,0.85619 3.0947,2.43418 5.041199,4.80112 10.326762,9.4141 15.111188,14.4531 1.797948,3.69824 4.375273,7.16553 5.252793,11.19285 l -0.08926,0.0977 -0.171421,-0.10812 z m -11.024306,-3.81992 c 0.161388,-1.2044 -3.037771,0.65111 0,0 z m -10.674113,-8.81869 c -2.277587,-0.8191 -2.812414,0.52245 -1.137941,1.52353 -0.295987,0.89842 1.836769,-1.36134 1.137941,-1.52353 z m 2.1716,-0.81387 c 2.116162,-2.91384 -2.382842,1.98069 0,0 z m 0.855879,-2.45587 c -1.97229,-1.58318 -0.109075,2.0091 0,0 z m -10.397203,-0.52069 c -0.732974,-1.08656 -1.213728,1.40264 0,0 z m 2.168837,-0.20943 c 1.422148,-2.84599 -2.422809,1.52994 0,0 z m 7.428086,0.16763 c -0.108802,-1.68192 -2.045953,0.16715 0,0 z m -3.194753,-0.26572 c -1.10613,-2.05533 -0.957626,0.5022 0,0 z m -4.693687,-1.152 c 1.871656,-1.47317 -3.337824,-0.23436 0,-4e-5 z m 0.645562,-5.25359 c 0.01909,-1.03613 -3.450121,0.31108 0,-1e-5 z m 1.005417,-0.93124 c -0.924791,-2.62172 -1.929638,0.26086 0,0 z m 30.018633,20.60043 c -0.0376,-1.59766 0.01299,-3.16172 1.377628,-4.22528 6.149244,-8.51382 14.540528,-15.08023 22.74057,-21.4308 2.24303,-0.31844 -2.22285,1.33681 -0.5913,1.70883 0.27524,1.42739 3.89089,-2.06974 1.40091,-2.01903 2.61262,-1.57505 5.9e-4,3.67246 2.60452,4.04806 0.25838,1.57278 -4.78669,3.88681 -0.25124,2.97052 0.65825,-0.52158 -1.01631,2.17415 1.03422,0.24214 1.13712,-1.16822 3.8827,-3.12244 3.30082,-4.81039 1.41594,-1.11091 0.14134,-3.27235 1.27672,-4.21767 -2.78754,-0.17807 1.7617,-1.3761 1.37239,1.30499 -0.22684,2.05883 -3.93853,4.8845 -1.42964,7.29142 -0.92446,1.09274 -4.34841,1.82178 -6.33935,4.0892 -2.31342,1.05393 1.02733,0.79171 1.66736,0.38947 -0.97711,-0.83815 5.50831,-2.29137 1.49122,-0.0553 -1.99342,1.08978 -1.56215,4.54139 -3.32071,2.83875 -1.78311,3.45024 -9.240051,1.51905 -7.9089,6.66634 -0.12621,1.85617 -0.12842,3.40881 -2.629689,3.06719 -2.10727,-1.06912 -2.020074,0.65691 -1.858379,1.48817 1.652713,1.2643 -2.778534,2.90774 -1.230097,1.51224 -1.495502,-0.19831 -2.509324,2.81262 -3.77962,-0.0378 -1.901178,-3.3108 -0.420445,2.41998 -1.43225,1.87367 -2.086179,-1.07714 -6.127089,0.3045 -7.592189,-0.51339 0.03231,-0.72661 0.06482,-1.45723 0.09701,-2.18131 z m 26.139178,-17.71858 c 1.14971,-1.09778 -3.69584,1.30335 0,-10e-6 z m 0.21812,-3.32383 c -1.46248,-1.66353 -0.84638,1.47486 0,0 z m -3.52879,-1.30091 c -0.67523,-3.52987 -0.90823,1.02663 0,0 z m 10.98359,-3.41265 c -1.46423,-2.56641 -0.57961,1.06874 0,0 z m -18.586648,24.71167 c 0.472128,-1.70427 3.816608,-0.51282 0.316497,0.27163 l -0.355599,0.23449 z M 76.51925,206.76061 c -3.2184,-3.4381 -2.356623,-8.02477 -1.531426,-12.18647 0.05514,-2.70103 2.19526,-7.94973 0.641167,-9.17216 -1.386134,4.37165 -1.932173,8.96739 -3.043328,13.4143 -2.053126,-5.5735 -3.833642,-11.31936 -5.454837,-16.9921 -3.149715,-3.10037 5.966075,-2.07023 2.397847,0.0657 0.411501,0.0996 2.431019,1.6029 3.276737,-1.17703 1.732945,-2.57527 1.173035,-4.55821 -2.197084,-4.32027 1.244425,-1.69443 4.063229,0.27401 3.298396,-1.75505 2.208993,0.33693 4.89469,3.81413 5.561609,-0.37832 1.430899,-1.80078 -2.478588,0.70511 -1.606518,-1.70592 -1.357509,0.43082 -0.657231,-1.72269 -2.670629,-0.26414 0.157125,2.28411 -1.134577,-1.62229 -2.400043,0.71649 -0.783227,0.35207 0.05666,2.17668 -1.081865,0.18799 0.859577,-1.38562 -3.057888,0.43628 -3.608649,-2.01391 -4.089035,-1.15265 3.570311,-0.42164 0.395609,-1.06982 1.707911,-1.62666 1.759947,-1.45711 1.850364,-2.61032 2.731958,2.45814 0.209583,-1.99612 1.584647,-2.51857 1.487428,0.115 2.954276,-1.44383 4.26253,-0.52088 2.442571,-1.23474 -0.08489,2.5704 2.150528,1.25615 -1.224336,1.06015 -3.256863,1.86855 -0.464659,1.39152 0.58701,-0.0948 1.370805,3.76989 2.49189,0.76356 1.045372,0.47997 0.08702,1.70833 2.02598,-0.21834 2.058611,-0.13606 -1.957731,-1.66517 1.570955,-0.91558 -0.466365,2.85433 6.476082,-2.06593 3.044022,1.43634 -1.022553,1.74303 1.05076,0.51452 1.455208,-0.0648 1.314688,0.45892 -1.44761,2.36577 1.538836,1.01003 2.058249,-0.56467 -0.559553,4.65812 2.116988,2.5176 -1.751302,1.35215 -0.937877,2.24493 -0.295612,2.1463 -0.30963,1.29299 1.679177,-0.0631 -0.271673,1.64167 2.777852,-1.23248 1.451446,0.1513 1.834536,0.82044 0.920333,-1.02626 0.650649,-3.02921 1.442165,-0.92753 -0.12474,1.39817 -2.883374,2.04402 -1.175066,2.73371 -2.661284,0.37668 0.08407,1.50118 -0.778289,2.54612 2.503318,-0.49175 -1.691632,5.93012 -2.024775,8.08382 -2.296355,5.77001 -4.014006,12.05516 -8.707533,16.44119 -1.538117,2.27899 -0.368247,-1.18021 -0.345445,-2.20879 0.581867,-4.25052 1.52438,-8.54998 1.285495,-12.84163 -1.887054,0.72615 -1.484557,4.3842 -2.139446,6.42634 -0.114362,1.41771 -2.375054,-5.85354 -1.835133,-1.30187 0.232747,2.06155 1.968391,4.00759 0.924075,6.08281 -0.646507,2.58357 -1.276541,5.17712 -2.174046,7.68763 -0.447843,-0.7354 -0.895685,-1.4708 -1.343528,-2.2062 z m 3.197892,-29.72879 c 1.230298,-1.76614 -2.385814,1.26969 0,0 z m -5.999957,-9.81837 c 1.837845,-0.71439 -3.148643,-0.57446 0.318778,-1.02621 1.379863,-1.21123 -3.864031,-0.64836 -1.055944,1.15851 l 0.737166,-0.13237 z m 2.031932,-0.39249 c 0.937549,-1.32564 -2.331297,1.32471 0,-2e-5 z m -8.712661,30.39447 c -3.285905,-3.09785 -7.068299,-5.69144 -10.19802,-8.92284 1.74559,0.13156 1.310134,0.60383 1.466765,-1.3332 1.1317,1.3418 1.280255,3.18116 2.456837,2.80523 2.231059,2.08316 2.029877,-1.17178 0.404934,-0.67772 -2.327967,0.0536 -1.16182,-3.18956 -3.358596,-3.8891 2.054193,0.55647 1.635686,-5.34991 3.436874,-1.65452 2.328543,3.04815 4.982912,5.94946 7.13862,9.08357 0.465146,2.26669 1.041077,4.51542 1.364505,6.80754 -0.996599,-0.60093 -1.825717,-1.46978 -2.711919,-2.21896 z m -4.365625,-5.51766 c -1.159603,-1.80043 -4.956808,-2.03743 -1.69664,-0.40111 1.136921,-0.0387 0.601491,1.09982 2.071231,0.78196 l -0.374591,-0.38084 z m 28.210553,2.48784 c 1.759229,-4.57037 2.947468,-9.36274 4.908378,-13.84681 1.50896,1.47643 -0.02985,2.55532 0.483151,4.6362 -0.269574,1.24343 2.084737,2.99254 1.528657,4.75699 -1.304257,3.38805 -4.71747,4.94724 -7.54909,6.84866 -0.08895,-0.78494 0.41759,-1.63072 0.628904,-2.39504 z m 5.40798,-12.87187 c -1.435146,-0.61836 -0.665481,2.18666 0,0 z m 18.091336,11.4403 c 0.99329,-1.52658 1.59786,-6.30683 2.03248,-2.01626 -1.23473,-0.0711 -0.86392,2.50804 -2.03248,2.01626 z m -67.254667,-2.75486 c -1.142365,-0.77261 0.824664,-1.46003 0.704762,0.20405 l -0.704762,-0.20407 z m 53.069137,-0.91092 c 2.04058,-1.60967 1.74498,-0.55572 0.27639,0.69108 -0.728311,0.99001 -0.558651,-0.40308 -0.27639,-0.69108 z m 16.08528,-0.46579 c -0.54231,-1.42623 2.0958,-1.43418 0.24785,0.0196 z m -50.986039,-2.3907 c -2.869304,-2.49323 -4.041884,-5.68823 -7.141869,-7.74643 -0.100358,1.88917 -4.508247,-0.33043 -5.382943,-1.66175 -2.391348,-3.33459 2.652353,-4.94163 3.783703,-2.50937 -0.410169,1.62861 0.731365,4.70803 3.263575,2.76324 2.808107,-0.64368 4.452693,2.33707 6.629411,0.48076 -2.12155,1.01342 -1.112103,2.84987 -0.669919,4.57419 0.21804,2.19271 3.520268,9.19529 -0.481958,4.09936 z m -8.1812,-8.62373 c -0.753818,-1.53783 -4.251554,-0.0851 -1.744376,0.25478 0.555032,-0.0758 1.257554,0.13227 1.744376,-0.25478 z m 41.488037,10.09217 c 0.644499,-0.95598 -3.252501,-3.75758 -0.804156,-3.42505 -2.196463,-0.43931 2.19339,-1.66274 -0.438519,-3.07642 1.222273,-0.20078 1.193204,-2.33274 0.09428,-2.24746 0.906272,2.14451 -1.240205,-2.47797 -2.772461,-1.47716 0.545423,-1.72555 2.764948,-0.9945 3.329384,-0.33186 1.081895,0.57885 1.31273,2.70656 0.71884,4.07461 -1.221841,3.01276 2.634554,-0.4365 1.036242,2.41376 1.633782,0.99315 -2.379891,-0.6978 -0.293704,2.30937 0.618876,0.33108 -1.308224,2.97393 -0.869908,1.76021 z m 0.3175,-1.92215 c -1.340342,-1.57797 -1.489307,0.67929 0,0 z m -41.883215,1.01407 c -0.792128,-1.50159 3.011721,0.11918 0,0 z m 44.529047,-0.82162 c 0.57861,-1.85998 1.42441,-0.58052 0,0 z m 10.31875,-1.63533 c -0.78847,-4.4688 1.60358,2.93069 0,0 z m -6.34595,-0.61695 c 0.54344,-2.00335 0.52949,2.5533 0,0 z m -47.893632,-6.51604 c 1.021923,-1.6252 4.983698,-2.49981 6.124136,-3.0381 -1.140619,1.79184 -4.599356,2.74306 -6.124136,3.03801 z m 6.879167,-1.35531 c 0.960458,-1.09474 1.984554,0.0431 0.422191,0.10285 0.256511,0.6778 -0.589549,0.38958 -0.422191,-0.10285 z m 5.027083,-0.1323 c 1.719162,-1.32453 -0.420443,1.41401 0,0 z m 29.484886,-0.52572 c 0.866861,-0.74939 -1.39203,-0.60225 1.036926,-1.57816 2.67154,-0.57775 -2.900283,3.78398 -1.036926,1.57816 z m 8.495536,-0.11115 c -1.11524,-2.79355 1.57876,2.37275 0,0 z m -37.186672,0.10771 c 0.438451,-1.52716 2.85359,0.45512 0.316799,0.26084 z m -1.653646,-0.0429 c 0.530752,-0.68527 -1.846671,-1.12846 0.667589,-0.72673 1.27319,-0.26213 -1.237626,1.51141 -0.667589,0.72673 z m 4.204092,-0.008 c -0.672159,-1.42454 1.764511,0.006 0,0 z m 1.732497,-0.6267 c 1.099262,-1.53517 0.573418,0.86365 0,0 z m -0.924148,-0.44911 c -1.651458,-1.80946 2.388713,0.25872 0,0 z m 20.739156,-0.37863 c -1.589995,-0.9482 -1.962568,-1.90162 -0.165293,-0.67903 -1.432398,-1.37584 -0.545445,-2.32752 0.78588,-0.97625 -1.118994,1.65573 3.533978,-2.93606 1.805942,-0.62688 -1.362101,0.48421 1.346734,2.58169 -1.644696,2.61051 l -0.781835,-0.32835 z m 2.725507,-0.0691 c 0.505718,-0.865 3.827074,-3.99788 3.469004,-1.6562 -1.946576,-0.43903 -2.218511,2.42748 -3.469004,1.6562 z m -30.099113,-0.35836 c 1.504844,-0.97097 1.90926,0.49338 0,0 z m 0.365238,-1.14347 c -1.095205,-2.08147 3.032124,0.98653 0,0 z m 37.401769,-1.4874 c -0.10177,-0.97802 2.16392,-0.20965 0.0394,0.99218 l -0.0395,-0.99218 z m 2.02115,0.74321 c 0.85681,-3.78947 2.52494,0.0318 0,0 z m -5.02709,-2.16058 c -2.474813,-0.92779 1.29753,-0.25421 0,0 z m 3.56911,0.0238 c 0.87821,-0.90888 0.81917,-1.52653 -0.33179,-1.04745 2.02763,-3.5023 1.98205,0.86041 0.33179,1.04745 z M 84.557366,166.7849 c -0.222178,-2.08215 0.612076,-0.0357 0.242072,0.82928 l -0.242077,-0.82928 z m 20.419204,-0.17579 c -0.0571,-2.05427 1.87072,0.16061 0.98136,-1.71019 3.15606,0.37044 -1.07432,2.49603 -0.98136,1.71019 z m 3.91968,-0.8164 c -1.98686,-1.45555 -1.63261,-1.64167 0.32555,-2.85366 -2.04341,-3.47743 1.78131,-1.33471 2.44898,0.21797 -0.58279,0.38904 -1.7126,4.51831 -2.77453,2.63569 z m 1.39958,-2.53559 c -0.76075,-1.15323 -0.91905,1.39495 0,0 z m -17.727082,-1.63704 c 1.553203,-0.87796 1.760116,0.49818 0,0 z m 14.485942,-0.24309 c -1.49362,-1.25477 2.21815,-0.0139 0,0 z M 89.129165,160.3908 c -1.23884,-3.73852 1.561781,1.54093 0,0 z m -6.614584,-0.10973 c 1.472869,-1.96579 1.686605,0.0289 0,0 z m -1.5875,-1.02954 c 1.466736,-2.52237 2.90093,1.06705 0,0 z m 8.639964,-1.72705 c 1.509503,-0.87683 1.35514,1.00245 0,0 z m 2.48095,-3.78589 c 0.469522,-1.67057 1.223925,-0.90315 0.120055,0.047 z m -0.707919,-2.36724 c 0.487344,-2.00171 0.421708,1.68317 0,0 z"
         id="path1186" /><path
         style="fill:#45803e;stroke-width:0.264583"
         d="m 76.5603,216.06168 c 0.818203,-1.75893 1.385444,1.03217 0,0 z m 5.172054,-2.13038 c -0.684589,-2.7354 2.24719,-6.66925 3.479078,-7.20985 -2.825016,3.53462 0.994719,1.3015 0.571091,-1.04964 2.363239,-3.05859 5.167764,-6.8608 8.667699,-8.11726 0.671536,1.60314 -0.914397,1.96165 -1.683314,0.88434 0.246863,2.1602 -1.098183,2.81304 -1.368521,1.20334 0.10338,1.31995 -3.759578,2.3455 -0.893892,3.14321 1.458544,-2.36336 1.609346,0.9571 0.555244,0.69419 1.479591,2.71264 1.692575,-1.03956 4.151878,1.29768 2.981814,1.84668 -2.168292,-2.76118 1.294446,-0.64572 0.06163,-1.54871 5.310917,-2.50315 1.602367,-3.0371 0.0456,1.70848 -6.071617,-2.30225 -1.754187,-1.14616 0.853127,0.56715 1.465589,-2.40014 1.783327,0.50472 0.86945,-1.5819 3.11223,-4.34067 1.630477,-0.99595 -0.409057,1.55011 1.649353,-0.93039 0.232783,0.95326 -2.797065,-0.54883 1.34385,1.12361 1.70986,1.22985 1.54765,2.00414 3.24485,-3.11323 0.055,-1.34257 -0.0277,-1.08784 0.21697,-2.80502 -1.50842,-4.33353 1.62034,0.94752 2.79234,-0.80901 4.92682,-1.18988 1.25988,0.83981 1.71023,2.40763 3.42962,0.55439 1.61672,-0.0184 -3.59646,1.71542 -0.38401,1.82155 -1.46364,-0.0154 -2.23547,3.39279 -2.69636,2.33406 -1.51252,-1.97476 -1.55749,1.40807 -0.44498,0.3187 0.13473,2.70486 -1.18067,3.84026 -3.34193,2.60026 -1.32736,0.47845 -2.101587,-1.18119 -1.04885,1.06005 -2.229633,2.60708 0.91775,9.13365 -3.850074,6.79058 -3.374958,-0.92202 -5.11286,3.39943 -0.749473,2.94295 -1.214287,1.15265 -3.488568,-0.26919 -3.70544,1.96922 -2.328563,-1.29454 0.42919,-0.98138 -2.379974,-2.3872 -1.098685,-0.38954 -0.262734,3.68507 -2.007772,1.27746 -1.17314,0.61531 -3.565403,1.41524 -1.108362,0.22436 -2.211603,0.81301 -3.120334,-0.38814 -3.116023,-1.02464 -2.263519,-0.57605 -1.679775,3.98358 -2.048158,0.67533 z m 16.120398,-4.20742 c 0.759956,-1.68907 -2.050936,0.91337 0,0 z m 5.238698,-12.39614 c -0.78168,-1.17246 -0.91518,1.33779 0,0 z m -31.293907,17.07099 c -1.636143,-1.51853 -2.759082,-3.98829 -4.155432,-5.52897 2.950457,1.12039 -2.097277,-3.3657 -0.594806,0.0324 -1.308608,0.85822 -3.576614,0.23963 -1.864944,-0.15763 -2.270766,-0.73656 -2.951418,0.44005 -4.562051,-0.80091 0.843389,-1.23075 -1.251623,1.2162 -1.548974,-0.20227 -1.07506,0.14565 1.753039,-2.53013 0.645339,-4.2552 -0.771882,-1.86005 0.601229,-1.38253 2.516696,-1.88853 1.968061,-0.97017 2.125813,-2.75917 0.08742,-2.56205 0.497293,-0.84988 -1.759286,-2.8025 -3.409238,-3.56503 1.621871,-4.52809 4.857285,2.81771 7.79421,4.04138 1.818603,2.3817 4.988966,4.10926 6.577528,7.49484 1.239454,2.25084 2.435871,4.52492 3.632456,6.79872 -1.25344,1.79315 -3.640503,-1.36651 -3.507061,1.12732 -0.576116,-0.0425 -1.091806,-0.31228 -1.611144,-0.53403 z m -10.30337,-18.15634 c 0.863282,-1.5925 -1.185679,0.24984 0,3.3e-4 z m -0.940008,-1.94763 c -1.338398,-0.1389 -1.055524,1.57557 0,-9e-5 z m 16.189565,12.76617 c -2.083203,-3.12276 -3.352527,-6.88243 -1.958873,-11.04999 0.06212,-3.20666 2.439549,-8.92165 0.833107,-10.60009 -1.382529,4.32307 -1.929454,8.87147 -2.974175,13.28465 -1.613527,-4.6366 -3.584265,-9.28854 -4.423116,-14.11341 -0.719584,-1.30516 -1.195146,-3.37508 0.103653,-0.86175 1.70561,-0.0884 2.237635,-0.0126 2.11875,-0.92807 0.556795,1.63769 4.309032,-1.22917 5.192348,0.5931 1.333598,-0.26712 -0.96404,-1.31917 0.524399,-2.86093 -0.640954,0.71139 -3.3838,0.48463 -0.143678,-0.2742 3.710796,0.0519 -0.453946,-2.84487 3.489296,-2.35316 0.65064,1.14822 0.496907,0.94962 0.181615,1.83299 2.015518,0.68911 2.328512,-1.89829 2.889625,-2.95689 -1.310914,-0.0154 -3.841505,1.87031 -1.353592,-0.62329 0.302394,-1.51513 5.55571,-0.11119 2.349831,-1.80746 -0.0233,0.14392 -0.889738,1.36072 -1.76843,0.24424 2.190888,-0.18923 -4.069261,-2.04521 -2.946467,-3.23197 -2.120583,0.63937 -6.601208,0.009 -5.724709,1.02311 -0.707187,0.96896 -2.36716,-1.79695 -2.82181,-0.47391 0.08549,-1.22914 -1.842349,-0.30195 0.474949,-1.84658 2.018606,-0.77231 4.64834,-0.99948 6.572879,-1.24026 -0.45325,2.15021 1.482564,-1.29764 1.078687,1.0106 1.727577,-0.78662 2.048,-1.44009 1.399618,0.39943 1.988104,-1.28528 2.372779,-2.33308 4.929455,-0.32506 -0.217821,1.19202 1.727195,-0.81183 0.247461,1.45824 -0.556951,2.26567 1.288484,-1.40524 2.520538,0.84019 1.893982,-0.9986 3.609523,-4.68551 1.981887,-0.60153 -1.564129,0.13622 0.53931,1.82563 -1.351379,1.09798 -1.066353,2.08624 -4.804169,1.95107 -1.839343,3.86261 1.450089,0.95664 -0.707514,-1.35753 2.223214,-0.48826 1.535202,0.9018 1.87712,-0.19002 3.59834,-0.004 0.06624,1.3073 0.356942,0.95387 -0.520813,1.81545 1.865267,0.84059 -2.759979,2.07832 -0.466899,-0.0927 -0.298135,-1.76894 -2.773397,0.72941 -2.675956,-1.39003 -2.386471,0.95241 0.900658,4.79171 -0.003,2.19739 0.586509,2.66337 2.555768,1.09436 5.035696,1.88982 0.689868,0.16217 -1.307723,4.36599 -2.132652,6.69215 -1.338142,3.65239 -2.907867,7.27756 -4.237621,10.74775 0.01915,3.11112 -4.230182,4.86863 -5.052723,3.84915 0.03519,-3.91754 2.116493,-8.72237 0.458166,-12.10091 -1.190776,1.66574 -0.949628,4.50784 -1.587204,6.65427 0.123042,1.49391 -2.776819,-5.37907 -1.932503,-0.87043 1.980703,3.50011 0.946618,9.11612 -1.243405,11.663 1.240662,2.01026 -0.653458,1.53883 -1.045117,-0.061 z m 2.066685,-3.14658 c -1.732646,-1.94978 -1.459445,-2.86692 -3.053312,-4.00736 0.168386,1.32336 2.099611,4.05202 3.053312,4.00736 z m -3.236402,-3.19664 c -1.368329,-1.7099 0.218815,1.87641 0,0 z m 13.871146,-9.39989 c 1.241579,-3.83268 -4.513518,-1.38644 -1.547102,0.22195 0.891786,-0.21579 0.86712,1.28108 1.547102,-0.22195 z m -8.121203,-1.71261 c -0.975427,-1.12306 2.06838,-3.11096 1.290037,-0.71069 0.967635,-1.5291 0.19933,-1.4056 1.399293,-0.2319 -0.07348,-1.46461 2.080324,-0.59993 -0.31956,-1.50575 -1.743992,-1.14198 -2.969336,2.04934 -3.73003,1.08937 -1.107974,0.98183 0.742158,1.88619 1.36026,1.35897 z m -3.242707,-2.71198 c -1.52995,-1.73987 3.173006,0.0548 -0.279365,-1.27126 -1.638229,0.0519 0.479607,3.04414 0.279365,1.27126 z m 2.708225,-1.16108 c -2.415839,-0.50451 0.665716,1.49408 0,0 z m -0.85458,-0.464 c -0.140925,-0.47837 0.133824,-3.48692 1.118884,-3.84922 -2.688104,0.0662 -1.742726,-0.21056 -1.907565,1.52208 -1.281932,-1.13679 -0.03965,0.97712 -0.890365,1.50769 2.121962,-0.71204 0.100658,2.0998 1.679046,0.81945 z m -3.04931,-3.07127 c -1.367975,-1.82727 -0.456974,1.44936 4.2e-5,0 z m 1.395664,-0.38126 c -0.628316,-1.81267 -0.618182,1.33091 0,0 z m 7.14375,0.11667 c 2.417954,-1.17378 1.106238,-0.64628 1.313106,-2.91041 0.244517,0.86384 0.400085,2.18002 1.177961,1.1303 -1.389314,-4.31087 -3.55986,2.54541 -2.491067,1.78011 z m -1.322917,-5.0238 c -2.231052,-3.12746 -0.741135,1.21735 0,0 z m 2.549552,-3.62734 c -1.245811,0.27013 -0.242717,1.58949 0,0 z m -1.039194,0.25062 c 1.829669,-2.7466 -2.072732,1.47939 -2e-6,0 z m 1.929226,-0.61093 c -1.322903,-1.10085 -0.633093,1.46429 0,0 z m -14.022917,-1.87715 c -0.345842,-1.04745 -1.596758,0.80117 -0.161318,0.1482 z m 10.843866,-0.0822 c -0.196455,-2.26896 -1.841051,1.38074 0,-4e-5 z m -11.422922,-0.68121 c 1.889016,-2.61866 -2.970923,2.02791 0,0 z m 8.464145,34.90788 c 0.520649,-1.94418 3.165284,-1.22078 0.37877,-0.6988 0.434855,0.4897 -0.586459,2.27009 -0.37877,0.6988 z m 24.195643,-2.55003 c -1.68369,-2.42218 0.5527,-1.43283 1.379,-3.36739 -0.22737,2.29604 1.72683,-2.95995 1.81138,0.91835 -1.77971,0.78875 -1.3798,2.1006 -3.19038,2.44904 z m -15.358359,-0.29422 c -0.555846,-1.76967 1.669147,0.42823 0,0 z m 12.021819,-0.75149 c -0.67216,-1.42456 1.76453,0.006 0,0 z m -42.788114,-1.83813 c -0.761221,-0.9818 2.223634,-1.86657 1.652471,-0.17508 -2.195066,-1.10669 -0.05763,1.68649 -1.652471,0.17542 z m 9.174107,-1.12771 c -0.602385,-2.4051 -1.435724,-0.90254 -3.490866,-3.10671 -1.377951,-1.18814 -6.008872,-5.18965 -2.149777,-2.22631 2.307641,2.24444 1.748504,-0.57322 0.648699,-1.8434 5.583335,0.0506 -1.159795,-4.38486 -3.392845,-3.70275 1.008421,-1.31936 -0.980411,-0.45307 -0.611428,-2.443 -0.523354,-2.64552 1.912731,-0.79993 0.954444,-2.25855 2.771929,3.80583 7.060847,6.94655 8.187487,11.65861 -0.146597,0.85414 2.233838,6.98583 -0.145714,3.92211 z m -9.712736,-0.22401 c 0.787939,-1.98447 -2.365633,0.78995 -0.36249,-1.15635 1.789863,-2.27202 3.881183,1.22051 0.790048,1.32409 l -0.290694,0.0126 z m 1.353384,-1.1811 c -1.832046,-0.84397 -0.690699,1.48678 0,0 z m 33.866667,-0.25882 c 1.77538,-1.61122 3.642877,-3.11681 5.473581,-4.66412 -0.654793,3.1763 -3.354977,3.18528 -5.642666,4.89026 z m -3.395033,-2.38245 c 1.496063,-3.21006 2.471048,-8.87869 4.188783,-10.68562 1.926894,2.16504 1.175721,4.94875 2.801253,5.09243 -0.381016,1.29045 -1.479388,4.39551 -4.385087,5.49055 -1.106433,-0.28332 -4.039458,1.36091 -1.381632,0.7614 -2.366189,2.27092 -2.167827,1.53473 -1.223317,-0.65876 z m 1.227654,-0.76154 c -0.84664,-1.06479 -0.895148,1.11788 0,0 z m 16.984041,2.69444 c 1.52207,-1.28198 3.27394,-1.20794 1.67946,-2.2687 1.56028,0.35127 3.52677,-1.57015 1.67549,1.00371 -1.11849,0.39206 -2.1538,1.1703 -3.35495,1.26499 z m -50.74426,-0.2533 c 0.417511,-0.87779 1.923898,0.77066 0,0 z m 42.97567,-0.43692 c 0.81245,-1.6868 1.02725,1.33219 0,0 z m 10.33727,-2.14973 c -0.15316,-2.09642 1.50906,0.0656 0,0 z m -54.691592,-2.87736 c -3.593205,-4.05613 4.098258,3.92848 0,0 z m 6.757363,-0.22419 c -0.988499,-1.71266 2.594019,1.31631 0,0 z m 1.367225,-4.66352 c -1.390354,-2.05918 -3.758586,-3.68076 -3.024725,-4.79411 3.720206,-3.20968 4.656266,3.32346 4.651881,5.72699 1.724879,2.42474 -1.104041,-0.34192 -1.627156,-0.93288 z m 1.212587,-0.007 c -0.987113,-2.34917 -1.239708,1.43087 0,0 z m -1.196494,-2.3809 c -1.251532,-1.16921 -3.162913,-2.20987 -0.711011,0.24336 0.04837,0.43147 1.51142,0.38914 0.711011,-0.24336 z m -5.233165,-3.70783 c -1.909879,-1.76431 5.27205,0.21155 0.835832,1.05553 -0.278554,-0.35186 -0.557499,-0.70359 -0.835832,-1.05553 z m 12.173734,-3.62113 c 1.514614,-0.52484 3.585233,0.62308 0.189866,0.34636 l -0.145538,-0.13576 z m 16.964025,-2.26218 c 0.150189,-0.58617 2.425973,-1.8499 1.675424,0.22252 1.250327,1.05154 -2.45972,0.38512 -1.675424,-0.22252 z m 5.679797,-0.42751 c -0.744365,-2.42421 2.842074,0.087 0,0 z m 5.4902,-1.71121 c 0.94987,-1.4217 0.83138,1.37351 0,0 z m -12.677976,-0.27081 c -3.886052,-1.70328 0.954648,-1.52329 0,0 z m -3.80106,-2.80297 c -1.304162,-1.76438 0.511279,-0.35262 0.876112,0.38385 0.417873,1.00743 -0.917015,-0.45569 -0.876112,-0.38385 z m 1.045014,-0.013 c 0.633904,-1.47496 1.630775,0.32587 0,0 z m -8.104346,-2.2436 c -0.285235,-1.57601 1.224843,1.00341 0,0 z m 33.142018,-0.79373 c -0.7101,-0.25947 -3.21195,-1.64528 -0.45825,-0.67819 0.82977,-2.63237 1.75148,1.48578 0.45825,0.67819 z m 0.76447,-2.27093 c 0.39308,-1.74789 -2.75161,-0.25623 -0.69664,-2.28706 0.0559,0.31094 2.62021,3.25405 0.69654,2.28704 z"
         id="path1184" /></g></g></svg>
