<?xml version="1.0" encoding="UTF-8" standalone="no"?>
<!-- Created with Inkscape (http://www.inkscape.org/) -->

<svg
   width="54.883064mm"
   height="57.914753mm"
   viewBox="0 0 54.883064 57.914753"
   version="1.1"
   id="svg3945"
   xml:space="preserve"
   inkscape:version="1.2.2 (732a01da63, 2022-12-09)"
   sodipodi:docname="buissonnant-elance-natural_tree.svg"
   xmlns:inkscape="http://www.inkscape.org/namespaces/inkscape"
   xmlns:sodipodi="http://sodipodi.sourceforge.net/DTD/sodipodi-0.dtd"
   xmlns="http://www.w3.org/2000/svg"
   xmlns:svg="http://www.w3.org/2000/svg"><sodipodi:namedview
     id="namedview3947"
     pagecolor="#ffffff"
     bordercolor="#666666"
     borderopacity="1.0"
     inkscape:showpageshadow="2"
     inkscape:pageopacity="0.0"
     inkscape:pagecheckerboard="0"
     inkscape:deskcolor="#d1d1d1"
     inkscape:document-units="mm"
     showgrid="false"
     inkscape:zoom="0.78395062"
     inkscape:cx="126.92126"
     inkscape:cy="-114.80315"
     inkscape:window-width="2560"
     inkscape:window-height="1369"
     inkscape:window-x="-8"
     inkscape:window-y="-8"
     inkscape:window-maximized="1"
     inkscape:current-layer="layer1" /><defs
     id="defs3942" /><g
     inkscape:label="Calque 1"
     inkscape:groupmode="layer"
     id="layer1"
     transform="translate(-44.935934,-179.26544)"><g
       id="g4078"
       transform="translate(-82.6875,19.9125)"><path
         style="fill:#d5e5c9;stroke-width:0.264583"
         d="m 151.37697,216.70406 c -0.85055,-4.92768 -2.9158,-9.58011 -4.93346,-14.12915 -1.23295,-1.68269 -3.67303,-1.53289 -4.58607,-3.06064 -1.21752,0.92369 -1.29218,-1.85974 -2.88521,-0.46281 -0.2316,-0.51464 0.47987,-1.5547 -0.79189,-0.12446 -1.25593,-0.30888 -2.96857,-2.62506 -3.94509,-3.63255 1.02037,-1.61026 -1.04525,1.04894 -1.72033,-0.54979 -1.0534,-0.19423 -1.72357,-1.3646 -2.30031,-0.64447 0.83395,-1.25211 3.10264,-4.45314 0.28142,-3.34654 -0.82274,-0.57101 -3.11108,2.0107 -1.85519,0.20651 0.73828,-1.28417 1.42644,-3.26935 0.54464,-4.34817 1.51865,0.25195 0.98388,-2.17435 -0.21151,-1.08544 0.99142,-1.72195 -0.73516,-1.23716 -0.80757,-1.0597 -2.01986,-2.11421 2.17919,-2.3195 3.09817,-3.97723 -0.87954,-0.35502 -1.50385,1.18021 -1.51574,-0.337 -1.0897,-0.91445 0.0278,-1.09616 0.75294,-0.23937 -1.25267,-1.63367 3.79753,-0.56008 1.45834,-2.06363 -3.1608,-1.7249 2.10478,-0.93352 1.756,-1.44886 -1.60546,0.0733 -1.01369,-1.92271 -0.0921,-0.57352 2.23116,-0.54806 1.08019,-0.93241 2.89205,-2.33365 -1.91045,0.9266 -0.37795,-1.48339 -2.06343,-1.04392 1.46128,-0.96684 -2.07068,-1.31609 -0.20129,-2.51935 -0.34275,-1.1167 0.81996,-2.12998 1.55915,-3.09487 0.75172,0.92724 3.15188,-0.83669 3.763,-0.14579 2.27245,0.50132 0.64054,-2.6633 3.37558,-2.48463 1.22961,-0.35914 2.55167,-1.49158 1.28416,-1.52848 1.71779,-1.31119 5.22974,-0.46848 7.47214,-1.59157 1.39088,0.28835 2.74305,-0.68834 2.76675,-1.04967 0.99503,1.0542 0.60783,-1.16071 2.24093,-0.0384 0.74294,0.66828 2.25855,0.77324 0.86768,0.1808 0.11433,-2.20746 2.01292,1.50627 2.89484,-0.82477 1.50385,0.65096 4.78973,0.73213 4.84019,2.52576 -0.66085,0.99311 1.28663,3.46782 1.60875,1.16682 1.33625,-1.83523 2.08511,-1.41873 3.83696,-1.16957 3.00103,-1.55544 -2.66263,4.77077 1.59159,3.75129 1.1983,-1.07143 1.83376,1.46531 2.38814,1.5628 -3.06202,-0.28327 -0.39062,2.84513 1.1787,2.72168 1.13508,0.31803 0.11249,1.07276 0.5557,1.20116 0.28074,-0.0884 1.53968,0.84283 1.0945,-0.55155 0.81314,1.1764 3.12135,1.04095 2.70031,2.24597 0.89896,0.33465 1.07802,1.90809 1.02311,2.45681 -1.11939,0.66696 1.57113,1.88476 0.46772,2.65434 0.26631,0.96097 -1.44858,5.17406 0.74526,3.36015 -0.83053,2.05704 -0.74865,4.39914 -1.58864,6.07175 -1.4502,0.59476 -0.83093,3.55201 -2.14906,2.05404 -0.50397,0.87359 -0.0666,3.69748 -1.68811,2.77019 0.84247,-2.1988 -1.43063,1.19877 -0.15199,1.53932 -0.30194,1.20802 -0.4866,1.17646 0.80804,0.71983 -1.23227,1.05294 -2.46167,3.44299 -2.73435,4.11678 -0.1742,0.10866 -2.1726,2.58117 -3.41885,1.59832 -1.87897,1.53631 -4.14836,0.70892 -6.05944,1.61176 -2.57845,0.90861 -3.76791,4.03299 -5.87717,5.74638 -2.57654,2.77858 -5.25696,5.80773 -5.97649,9.6514 -0.36323,-2.70857 1.76395,-5.15511 3.28504,-7.23177 3.69684,-4.48647 8.5267,-8.37161 10.21049,-14.17438 1.20077,-4.01837 4.72137,-6.64338 6.96145,-10.02639 -1.79655,1.18074 -3.84027,4.06807 -5.23966,4.62808 0.44947,-1.86934 1.91717,-5.31982 1.74344,-6.22963 -2.47442,5.54384 -4.03983,11.50919 -7.38756,16.63837 -2.21549,4.43616 -6.72477,7.05438 -9.11665,11.36454 -1.74605,1.22191 -0.3925,-3.30273 -0.2542,-4.25365 2.09208,-7.74446 5.2029,-15.19524 6.81773,-23.07581 0.48814,-2.677 1.53926,-5.16972 2.68929,-7.60879 0.19107,-1.60101 -1.87525,2.99271 -1.30421,0.008 0.42385,-1.28109 0.0116,-3.22332 -0.3165,-0.8079 -1.35998,4.25587 -1.91449,8.75256 -3.47079,12.93592 -1.31779,-2.91209 -2.07372,-6.1115 -3.5133,-8.99257 0.18838,2.27943 1.29111,4.56363 1.81674,6.85019 1.08879,2.69607 1.16996,5.58151 -0.0195,8.2566 -1.42771,4.58617 -2.84671,9.18331 -4.20768,13.78416 -1.67659,-1.53754 -2.01075,-5.50144 -2.66606,-8.05972 -0.74528,-2.73624 -1.69295,-5.58312 -0.70805,-8.40632 0.30432,-1.77633 1.29613,-4.63968 1.12083,-5.81234 -1.10386,2.0297 -1.46461,5.73678 -2.55631,6.89719 -1.53334,-3.8446 -2.49396,-7.94621 -4.30878,-11.66231 0.25376,2.57549 1.51474,5.17507 2.14965,7.77226 1.56326,5.52619 3.40566,10.97283 4.93986,16.50375 -0.41062,2.90175 -2.17816,-3.47506 -2.82766,-4.53391 -2.2728,-5.44841 -5.06286,-10.67936 -7.56394,-16.02814 -0.92914,-0.94957 0.75382,2.74528 0.96329,3.46368 1.91516,3.62181 -2.01554,-0.72717 -2.28906,-0.24591 2.04367,2.15667 4.49217,4.07098 5.24305,7.09374 1.6399,3.9017 3.81197,7.53727 5.21723,11.54106 1.06764,2.91357 2.41079,5.82767 2.66758,8.95123 0.14638,0.40805 -0.67871,1.04461 -0.36932,0.006 z m 6.86958,-10.31344 c 0.77764,-1.0154 3.98158,-3.38024 3.05585,-3.87426 -1.90571,0.23305 -3.92955,0.0614 -5.72114,0.75922 -1.07648,2.75722 -1.64712,5.71908 -1.87383,8.6713 1.25688,-2.04882 2.81378,-3.88547 4.53912,-5.55626 z m -4.75667,-2.18281 c 1.26093,-1.81516 -0.62698,-1.43447 -2.05082,-1.55108 -2.40083,-0.32661 0.66611,4.9524 0.65529,5.71907 0.51775,-1.36993 0.87175,-2.79852 1.39553,-4.16799 z m -4.09755,0.11834 c -0.11259,-1.44013 -1.74098,-2.31627 -0.58652,-0.33101 0.23042,0.74491 1.2399,3.14662 0.72969,0.8633 l -0.14324,-0.53229 z m 23.83353,-4.97441 c 1.01058,-2.39492 -2.67428,1.02896 -0.37374,0.29707 z m -34.9719,-1.46565 c 0.0445,-1.86886 -1.44794,1.56101 0,0 z m 37.85293,-5.92265 c 1.28764,-1.63424 0.44056,-1.32471 -0.55649,-0.3542 0.0868,0.22542 0.92646,1.02439 0.55649,0.3542 z m -43.10682,-9.543 c -0.20264,-2.06291 -0.97503,0.21233 -1.05178,-0.33406 0.0789,-1.16506 -1.83642,1.55436 0.3047,0.60119 l 0.34103,-0.0623 0.40605,-0.2048 z m 46.09206,-8.80658 c -0.0333,-1.15552 -2.05378,-2.23691 -1.34721,-0.26307 0.0668,0.19047 2.42874,0.97252 1.34721,0.26307 z"
         id="path4092" /><path
         style="fill:#c7ddb6;stroke-width:0.264583"
         d="m 151.40361,215.95389 c -1.18904,-4.93729 -3.18267,-9.67651 -5.32815,-14.26601 -0.69032,-1.35895 1.86228,2.48533 1.85393,3.43206 1.34488,3.56027 3.08323,7.08189 3.6246,10.86864 l -0.10471,0.29686 -0.0457,-0.33156 z m 2.39678,-0.63064 c 0.11811,-1.11682 2.18331,-3.98877 0.88627,-1.46025 -0.28885,0.37416 -1.26718,3.70096 -0.88627,1.46025 z m -0.44808,-4.36856 c 0.10657,-1.1673 0.76805,-5.23808 1.0591,-4.31357 -0.14753,1.5068 -1.36123,5.28838 -0.5037,5.28062 1.42829,-2.86559 3.76421,-5.10851 6.26838,-7.04204 -2.39169,2.34323 -4.61258,4.85304 -6.5258,7.59815 -0.6644,0.48905 -0.2588,-1.26851 -0.29798,-1.52316 z m 2.40806,0.6251 c 1.62191,-2.46144 3.939,-4.40446 5.81196,-6.68494 0.71249,-0.86718 3.34008,-3.56016 1.40575,-1.21731 -2.37526,2.87969 -5.10052,5.46229 -7.42048,8.384 l 0.20273,-0.48175 z m -3.97852,-2.47719 c -1.31697,-3.995 -1.82961,-8.18146 -3.13699,-12.17522 -0.37389,-3.45701 1.42466,-6.72589 1.65315,-10.12616 -1.58713,1.74867 -1.47554,5.17102 -2.73409,7.30528 -1.13084,-3.82893 -2.41261,-7.78184 -4.0009,-11.50775 -1.29969,-1.63437 0.37468,2.5753 0.49232,3.29424 1.75211,5.3871 3.25593,10.86248 4.93145,16.26433 0.47681,1.42983 1.79819,4.5311 0.9725,5.1763 -1.79408,-3.96964 -3.52596,-7.98219 -5.23349,-11.99381 -0.99259,-2.40078 -2.52868,-4.634 -3.54883,-7.07696 -0.33259,-1.09991 -2.40913,-4.75694 -1.36396,-1.51407 0.13267,1.29234 3.1543,5.85229 0.32361,3.23329 -0.78899,-0.94056 -2.51684,-1.62411 -0.86132,0.0299 2.00676,1.95243 3.88695,3.98322 4.72503,6.71877 0.85366,0.92458 1.76841,4.48408 -0.14611,3.38414 0.71426,-1.90859 -2.54283,-0.73731 -3.53181,-1.58699 -1.03457,-0.72447 -1.17601,-1.82348 -2.31426,-2.21818 0.67022,-1.56037 0.48639,-2.28701 -0.58579,-3.38788 0.67845,-0.62233 2.59878,-0.18544 1.00825,-1.18952 2.36309,0.17384 -0.99522,-0.64097 -1.1409,1.02046 -0.2966,1.41488 -3.94045,-1.38712 -3.97632,0.59395 1.2478,0.88913 0.63285,1.08159 0.24189,1.45471 -0.60597,0.10739 -1.85717,-3.45993 -0.0439,-4.32193 -1.35759,-2.81156 3.53312,-1.58578 2.76555,-4.21984 1.40804,0.16918 3.35035,0.31478 2.02078,-1.74121 -0.91597,-1.60784 -1.91335,3.29919 -2.09369,0.2634 0.47378,-1.64451 -1.84936,-1.34333 -0.44177,-0.78997 -1.32309,0.34587 -2.13634,1.84941 -2.01573,1.9462 -1.43856,-0.4771 0.12402,1.56733 -1.59441,1.41017 -0.84913,0.98593 0.81638,-2.19116 -0.65964,-0.27524 -0.92554,0.33961 0.90254,-1.232 -0.35406,-1.56993 1.72591,-1.68691 -0.0901,-0.46022 -0.73483,-1.45095 -0.86839,-2.04089 4.06036,0.14788 1.53447,1.22723 0.37547,2.13702 1.84245,-0.90276 1.37119,-1.39926 1.61267,1.53187 1.18731,-2.57094 1.82667,-1.51991 -0.83087,1.17904 1.31311,-1.20207 -0.64901,-0.46898 -0.89123,-0.0421 -4.05828,-1.00304 -2.10671,-1.97876 0.33372,-1.46737 2.08091,-0.0195 1.6623,-1.09542 2.04618,0.004 2.5486,-1.12636 2.18974,-2.34163 1.47456,-1.19694 2.51693,-1.09294 2.00478,-3.48619 0.26887,-1.3786 -1.55873,-5.56836 0.48944,-3.92192 1.13319,-0.38266 -1.21196,1.08813 0.40301,1.13397 -0.64263,0.23875 2.0467,2.8155 0.9642,0.34478 1.09715,-1.36007 0.2432,-3.80079 1.57224,-4.74543 0.15985,-1.63988 2.18894,0.23057 2.3675,-1.78116 1.6834,-0.2629 1.43622,-1.16926 1.72458,-1.27785 1.78478,0.92337 2.01266,-1.68695 3.44958,-0.22287 0.96611,-0.76123 2.85291,-0.042 0.84194,0.3345 -0.92403,1.07089 -1.40141,0.5848 -1.09189,0.0339 -2.42552,0.83881 0.80176,1.76402 0.71615,2.50817 -1.68614,-1.70847 -0.70244,1.08413 0.50723,-0.0356 -0.48631,-2.12492 1.63021,1.83333 1.53303,-0.92076 1.21587,-1.70968 -0.36763,2.18948 1.00875,0.14176 0.78792,0.18936 0.47043,0.80881 1.51874,-0.0205 1.50733,0.64088 0.84538,-1.95036 0.54632,-0.23434 -0.54499,-1.83237 -0.87003,-0.007 -1.15972,-0.41198 -1.46863,0.11701 0.82311,-1.32666 0.48755,-1.87292 -1.68594,2.75555 -1.12675,-1.62388 -0.53182,-0.62716 0.53555,0.74127 1.80116,-0.8005 2.68309,-0.13438 1.93589,-0.33391 -2.763,0.3838 -0.57134,1.2382 0.41342,-0.976 1.86455,1.32215 0.0294,1.0285 0.48713,1.58954 2.22596,-0.24855 3.30332,-0.17971 0.64405,-0.97563 1.4343,0.8044 1.6168,-1.07086 0.64124,-0.27839 1.48224,1.41306 1.10549,-0.58195 0.86474,-0.014 2.57762,2.72866 0.56648,2.61666 1.36119,-1.61411 -1.3613,-1.16597 -1.3727,-0.018 -0.53514,-0.68354 -2.62777,-0.28853 -1.3193,-0.16116 -0.12151,0.60812 0.75574,1.56221 1.45281,0.39465 1.85233,-0.58215 1.85915,1.53223 2.09451,2.68863 1.21367,-0.19763 2.49295,-1.07017 0.40196,-0.61948 0.5074,-0.68697 1.02779,-1.16032 1.5399,-0.70978 0.20506,-0.61954 1.50501,-2.23816 1.15163,-0.71631 2.02178,-0.55038 -1.56446,1.42882 -1.26579,2.53493 -0.8918,-0.95407 -0.94741,1.2561 0.39542,1.56365 -1.84218,0.91185 -0.50636,0.43795 -0.14991,1.57174 -0.17782,0.71779 1.27885,-0.37718 1.2784,0.84567 0.9595,-0.63786 2.49165,-0.8834 2.98739,-0.2767 -1.09105,-0.74965 -2.00541,-1.16302 -0.10992,-1.43588 0.64073,-0.77422 3.56333,-1.49214 1.32615,-0.20143 -1.31358,0.38044 1.19202,0.9167 -0.83625,0.78518 -1.05049,-0.22742 0.95512,1.47956 0.6583,0.88916 0.50606,-0.80274 1.29173,0.43214 1.38487,0.1913 -1.63159,1.59143 2.67328,1.42651 0.41085,0.94709 0.49428,-1.93474 2.5368,0.2985 3.7949,0.005 -1.06087,0.13929 -4.10228,0.42244 -1.35587,0.52842 1.21423,-0.0949 2.31338,-0.23944 2.02671,1.59257 -2.2647,1.19175 -0.27542,3.5179 1.21296,2.5251 0.32151,2.032 1.97009,3.96898 1.81138,5.25163 1.37001,1.02561 0.41535,4.29541 0.40246,4.8962 -0.81312,0.23211 -0.75052,2.02295 -2.20853,0.39451 -0.22775,-0.10806 -3.07757,0.71158 -1.15265,1.56203 0.28788,1.24777 -1.74344,2.19102 -0.79616,0.40312 -1.97223,0.68647 -0.0115,4.16258 -0.87327,5.64775 0.24302,1.75827 -0.50076,2.81727 -2.42065,3.00033 -0.45424,0.76419 -3.23833,3.09895 -1.90464,1.82568 -1.7956,-1.02805 -4.24542,0.16844 -5.592,0.2335 1.07604,-2.39311 1.93338,-4.89122 3.0413,-7.26422 1.63654,-2.72497 4.26644,-4.7801 5.77519,-7.54749 -1.70317,0.81173 -4.0435,4.44789 -5.00814,4.25869 0.51053,-1.84678 1.63471,-4.61132 1.56065,-5.98483 -2.53466,5.16949 -3.64822,11.06061 -7.16997,15.71479 -0.59019,2.10712 -4.89649,0.83883 -4.61298,1.76762 1.50627,1.19195 -2.30263,1.41031 -1.17877,0.10016 -2.51144,1.85566 -0.73644,-3.37373 -0.29623,-4.47691 1.98733,-5.51713 2.85752,-11.35574 4.72283,-16.90131 0.74053,-1.15559 2.21943,-5.12684 0.23219,-2.26879 -1.08577,1.60758 0.96512,-5.17818 -0.44978,-2.06935 -1.50685,4.29227 -2.00973,8.88644 -3.57919,13.14467 -1.10145,-1.59668 -1.57368,-4.46174 -2.58315,-6.48646 -0.18527,-1.20125 -1.72482,-3.24434 -0.87564,-0.74714 1.00695,3.20079 2.16064,6.43138 2.58479,9.76129 -0.91089,5.00768 -3.04324,9.70715 -4.20011,14.663 -0.30526,0.38584 -0.81156,4.0997 -1.47118,2.9694 z m 1.41782,-3.74392 c 0.73577,-1.63881 1.19064,-3.44306 -1.27502,-2.8804 -0.50416,-0.37354 0.68723,-1.54408 -1.14036,-1.0408 -0.81573,1.0927 0.30698,4.1799 0.90796,6.19292 0.60006,2.76503 1.11541,-2.01525 1.50742,-2.27172 z m -3.66551,-0.70393 c -0.0197,-1.50093 -1.91767,-3.56197 -0.85032,-0.84038 0.37904,1.35564 1.84898,4.28606 0.95591,1.2314 z m 4.03173,-2.82134 c 1.17098,-0.22825 -1.33272,-1.33557 -1.28242,0.39057 0.34491,0.0101 0.99698,-0.93012 1.28242,-0.39057 z m -12.4125,-3.98823 c -0.21858,-2.26413 -2.44414,1.00284 0,0 z m -1.04842,-2.06561 c 0.96569,-1.31242 -2.07371,0.44057 0,0 z m 34.19824,-2.55197 c 1.93198,-2.58563 -3.33686,-0.77075 -0.6111,0.31169 l 0.33372,-0.0512 z m -37.28395,-12.61157 c 1.85725,-0.86415 -0.88988,-1.30839 0.85991,-1.87436 -0.59699,-0.34037 -2.68854,0.45251 -2.06617,0.7897 -0.66476,0.6753 2.17443,0.1576 0.0818,0.91268 -1.18487,0.2223 -2.82562,1.37671 -0.60915,0.97649 0.6176,-0.16336 1.22411,-0.41256 1.73365,-0.80451 z m 2.71199,-6.33988 c -1.01697,-2.12463 -1.08997,1.073 0,0 z m 1.88132,-3.79751 c -0.95212,-2.12085 -0.80814,1.67652 0.0797,0.42615 z m 2.55284,-1.79114 c 0.75541,1.4185 0.57108,-0.89449 1.52967,-0.7764 -0.98276,-0.42206 -2.68412,-0.78982 -1.64874,-1.86099 -1.31627,0.48848 -2.12313,0.27735 -1.66931,1.44679 1.36892,-0.0496 0.30718,2.37881 1.78838,1.1906 z m 2.96219,-0.9116 c 0.37453,-0.85119 -0.84329,0.44569 -1.23356,-0.32326 0.47589,1.31119 -0.44925,1.54061 1.23356,0.32326 z m 5.21401,-0.52787 c 0.73872,-0.96704 1.9108,-2.05867 0.11296,-0.68354 -0.73606,0.26781 -0.39926,2.07483 -0.11296,0.68354 z m 9.87922,-2.09478 c -1.49542,-1.32821 -1.90257,1.6547 -0.33384,0.71475 l 0.23577,-0.39827 0.0981,-0.3164 z m -17.19791,0.35925 c -1.47124,-1.07478 -1.83384,1.03136 0,0 z m 0.26458,-0.94166 c 1.84921,-1.23383 -2.68337,-0.38077 -0.31811,0.39668 l 0.22638,-0.13848 z m 15.79578,-1.14648 c 0.79221,-1.82878 -1.62856,0.98548 -0.24451,0.31107 z m -6.36625,41.51106 c 0.18133,-1.62197 1.15795,-2.84049 0.34554,-0.45618 -0.0922,0.43202 -0.66302,1.98003 -0.34554,0.45618 z m 6.6555,-1.83409 c 1.91763,-2.43703 -0.68746,2.06509 -0.25286,0.38372 z m 12.41451,-3.99134 c 1.04368,-1.58339 0.34306,1.31244 0,0 z m -41.66415,-7.60218 c 0.23569,-1.2351 1.95852,-2.86323 0.68815,-0.7219 -0.0146,0.0209 -0.86061,1.42206 -0.68815,0.7219 z m -2.56026,-2.15394 c -0.1086,-1.68554 2.46281,-2.29664 0.75612,-0.32701 -0.0579,0.0129 -0.54455,0.63856 -0.75612,0.32701 z m 49.85783,-11.40275 c -0.52171,-0.99176 1.72783,0.59535 0.62841,-0.6784 -1.15803,0.42682 -2.14226,-3.40404 -0.21151,-1.83019 0.77607,0.28191 2.37699,4.60471 -0.4169,2.50859 z m -12.80607,-6.83717 c -0.22803,-1.6336 2.88349,-5.10075 3.72462,-4.06235 1.26031,1.95481 -2.63849,3.13048 -3.72462,4.06235 z m -3.2461,-5.98123 c -0.57552,-1.73329 1.31339,-0.62407 0.11891,0.37976 l -0.14405,-0.11156 0.0252,-0.26822 z m 6.64615,-0.48012 c -1.11405,-0.67644 -4.28217,0.50532 -3.05471,-1.03075 1.24792,0.85021 1.54402,-1.9923 1.62087,0.29173 0.10313,-1.56155 3.33495,-1.32846 2.34448,-0.78272 -0.10996,-0.84046 -0.56952,2.804 -0.91064,1.52174 z"
         id="path4090" /><path
         style="fill:#bad5a6;stroke-width:0.264583"
         d="m 153.47456,212.43695 c 0.72121,-0.92578 3.17705,-4.88726 1.4034,-1.65493 -0.31382,0.45022 -1.10916,1.84335 -1.4034,1.65493 z m 2.35942,-1.01924 c 0.49186,-1.21504 2.64864,-2.57603 0.71837,-0.61948 -0.0848,0.0183 -1.18729,1.5116 -0.71837,0.61948 z m 4.40456,-4.96094 c 0.72631,-0.83841 3.94519,-4.20797 1.79003,-1.67859 -0.8672,0.94474 -3.05639,3.44333 -3.30331,3.37647 0.48864,-0.57979 1.00168,-1.13843 1.51328,-1.69788 z m -3.17708,1.28248 c 0.91803,-0.87896 4.13416,-3.8944 1.71979,-1.39416 -0.38204,0.57812 -4.17215,3.88865 -1.71979,1.39416 z m -7.34746,-0.62102 c -0.60526,-1.46051 -0.1876,-1.16853 0.35593,-0.19844 -0.32822,-1.32109 0.0288,-1.91976 0.21875,-0.0735 0.13245,0.63602 -0.32012,1.09944 -0.57468,0.2719 z m 3.27848,-1.12448 c 0.0752,-1.16896 1.21348,-2.57193 0.36526,-0.52917 l -0.25427,0.53744 c -0.12589,0.23394 -0.0457,-0.009 -0.11099,-0.008 z m -2.64393,-1.95911 c -0.33499,-2.6934 -1.11628,-5.29468 -1.90761,-7.8863 0.48274,-3.15385 1.43671,-6.22627 1.98277,-9.35088 -1.68405,1.41505 -1.75743,4.8293 -2.71826,7.02356 -1.52213,-3.77638 -2.47625,-7.7988 -4.23399,-11.49211 -1.29956,-0.81408 0.51547,2.90258 0.65088,3.90812 1.65036,5.09145 3.09294,10.24932 4.62424,15.37363 0.64998,1.04993 1.25974,4.29726 0.38119,1.48004 -0.49083,-1.44351 -1.63324,-0.83637 -0.83053,0.28377 -1.03314,-2.27766 -1.96731,-4.65156 -3.09601,-6.9135 -0.90509,-2.91551 -2.86134,-5.34836 -4.00362,-8.20477 -0.16734,-0.92735 -2.54508,-4.94108 -1.57493,-1.82551 0.59795,1.57439 1.24273,3.13043 1.86655,4.69465 -1.1691,-0.51518 -2.30952,-3.05969 -2.99153,-2.39479 -0.88244,0.981 4.4259,3.12841 2.17012,4.82773 -0.43794,-0.62361 -0.11184,-1.48571 -1.42829,-0.61558 0.66361,-2.7536 -2.02963,-1.06827 -2.2625,0.5292 -0.96905,-0.62516 -2.19141,-1.21129 -2.95183,-0.96881 1.95286,-0.21497 1.77451,-3.17692 0.26398,-0.86625 -0.56794,0.45509 0.20161,-1.38274 -1.0648,-0.52769 1.90215,-0.35836 0.19583,-3.97958 2.01617,-2.04836 0.3962,-1.02316 1.57333,-0.30871 1.29798,-1.58753 0.64171,1.64537 1.14486,-1.14573 2.10541,-1.43548 0.30462,-1.2726 0.51859,-4.43492 0.033,-4.60852 -1.13367,1.1432 -0.49575,-1.86526 -1.4927,0.34282 -2.22016,-0.20494 1.35628,-1.58847 0.35926,-2.7119 0.54527,-0.9929 0.64256,-5.39008 1.23995,-4.63927 0.51637,0.63278 0.23963,1.88259 1.11473,0.24256 1.8963,-0.35184 1.56208,-2.57068 0.59757,-1.54383 0.28588,-1.45628 -2.11629,2.0453 -2.02246,-0.64304 -0.51432,-2.83909 1.16343,0.71049 2.46258,-1.00489 1.0125,0.6815 1.04051,-0.58541 1.3545,-0.17164 0.82203,-1.37666 -1.70143,-0.70993 -1.40692,-2.72419 -0.58473,-1.56152 0.85493,-3.09995 0.85026,-0.75784 0.21484,1.36358 2.46137,1.40817 2.16944,2.10792 0.88932,-0.4245 3.59291,2.77198 2.87312,0.0935 0.96241,1.0843 2.85773,1.40555 1.68604,-0.71487 2.10958,-0.48706 -2.95831,-0.61819 -1.0845,-1.66641 -1.09581,-1.12421 1.55697,0.65573 2.1383,-0.78616 0.9028,0.007 1.11939,0.62373 2.0563,-0.27388 0.80078,3.0323 3.12471,-1.29214 4.55868,-1.99672 2.17176,-2.06968 5.59033,1.33903 5.51461,3.3127 -0.32487,1.82741 3.01974,-2.2394 2.0768,0.81931 0.16086,0.25429 1.71461,0.50594 0.37226,0.7984 0.1285,1.60801 1.30838,0.48237 0.89868,1.95106 1.25584,0.21592 2.14387,1.49242 2.55818,0.098 1.51532,-0.75992 2.83059,1.878 1.08698,0.64664 -0.11667,1.81087 1.39651,0.0984 1.61791,0.5763 1.09681,1.11272 5.17101,-0.51625 5.46956,1.58262 2.62106,-0.81208 -1.78096,1.55661 -0.66191,3.15182 0.069,1.17678 0.51207,3.53746 0.80376,1.17113 -0.50186,-1.83598 0.87882,0.31879 0.69301,-1.43402 0.19734,1.43869 2.0751,0.23466 2.14099,2.3924 0.23038,1.20888 0.59392,3.78008 1.25031,3.52699 1.38585,0.46938 -1.24425,2.89126 -1.04913,0.95737 0.65788,-1.61843 -2.78093,-2.08049 -0.43328,-0.52784 0.37435,0.62018 -1.74274,-0.54291 -0.35092,1.06076 1.09224,1.51928 -1.66033,-0.73664 -0.0189,1.22172 0.66272,0.3396 2.64867,0.60613 2.22692,1.53846 -0.74916,-0.80637 -1.53214,-1.13531 -0.71877,0.21265 -1.61947,-0.0837 -4.23036,0.15732 -4.38512,1.87596 -0.51494,0.3126 -0.77425,3.05948 -2.36735,2.939 -0.0477,2.2031 3.38732,-0.6231 2.18797,2.32997 0.1182,1.5302 0.20444,2.82341 -1.82542,3.29647 -1.50915,0.89903 -1.8655,3.08196 -3.73612,1.70224 -1.53573,-0.50752 -5.35649,2.02318 -3.293,-1.20459 1.14091,-2.64743 1.79059,-5.5808 3.9001,-7.69746 0.9713,-1.49252 3.99295,-4.05238 3.65904,-5.04778 -1.75552,1.25457 -3.11277,3.2746 -4.79354,4.41186 0.45028,-1.65818 2.15102,-5.64999 1.5562,-6.22503 -2.1561,5.05114 -3.68654,10.40595 -6.48449,15.162 -1.29377,2.05064 -4.2523,1.42602 -5.60939,2.13992 1.84862,1.48777 -0.29557,0.78442 -1.08593,0.26574 -1.96902,0.36032 0.0457,-4.26038 0.47312,-5.69465 1.78905,-5.19114 2.59133,-10.66471 4.37449,-15.84831 0.57967,-0.94495 2.5706,-4.84617 0.42652,-2.59846 -1.27362,2.5291 0.55102,-4.88901 -0.75716,-1.64932 -1.35047,4.36214 -2.13909,8.89102 -3.54998,13.22749 -1.25263,-2.86108 -2.06216,-5.93842 -3.4694,-8.72613 -0.27802,2.18741 1.32896,4.73327 1.71082,7.09584 1.14058,2.67634 0.85448,5.53567 -0.11069,8.21148 -0.80413,1.57022 -0.89897,5.51848 -2.80671,5.36397 -0.96822,-0.53169 -1.32956,2.11762 -2.23021,0.31662 -2.51206,-0.96499 0.33992,5.9379 -1.04335,2.74994 z m 23.77853,-8.51398 c -0.76239,-1.12569 -0.92562,1.39277 0,0 z m -38.78522,-5.96954 c -1.12612,-0.66194 -1.42611,2.64067 -0.10387,0.34587 l 0.10372,-0.20806 z m 17.94635,-20.28302 c -0.33743,-0.99866 -1.87779,0.0522 -0.34426,0.46506 l 0.19762,-0.16006 z m 0.61889,34.01367 c -0.52534,-1.09661 0.11193,-1.56345 0.31016,-0.1106 0.11976,0.20048 -0.81523,1.1769 -0.31016,0.1106 z m -9.76307,-3.34104 c 1.40213,-1.41868 -1.83104,-1.05951 -2.55948,-1.7745 -1.04971,1.03044 -2.94948,-1.24067 -0.78886,0.13691 1.95908,-2.16682 -2.79886,0.11235 -1.06207,-2.0212 1.8164,-1.84831 4.30386,-0.33369 4.87905,1.94529 0.99534,0.75544 -0.32569,2.49201 -0.46864,1.7135 z m -2.17497,-4.81293 c -2.61276,0.14198 1.40732,-3.04103 0.26012,-1.30487 -0.5592,0.52887 1.00387,0.15002 -0.1071,1.1383 1.09098,-0.79701 0.53674,0.9325 -0.15302,0.16657 z m -8.69352,-1.17113 c -2.90478,-3.96388 3.13159,2.37713 0,0 z m 4.51543,-0.57473 c -0.26499,-1.67503 2.184,0.47114 0,0 z m -1.4993,-8.92087 c 1.30078,-1.84239 0.8926,1.26371 0,0 z m 0.52916,-7.3069 c 0.44878,-0.21225 -1.36106,-0.80087 0.21359,-0.72754 1.53436,-1.53465 -0.2995,2.03777 -0.21355,0.72754 z m 43.04903,-0.7074 c -0.0205,-0.11816 -1.75066,-0.85013 -0.38901,-0.92386 1.59025,-0.51769 0.29914,2.33139 0.38901,0.92386 z m -12.70734,-6.66753 c 0.70659,-1.74489 1.01232,0.4429 -0.0155,0.36381 z m -23.25857,-2.72885 c 0.85547,-0.93562 1.73573,-2.70428 2.83876,-3.11453 0.32242,0.0879 -0.99235,0.6469 -0.92896,1.64068 -1.70224,1.7756 1.73514,-0.3324 2.07719,1.12328 -1.44323,-0.34476 -2.51161,1.34146 -3.98699,0.35057 z m 20.76617,-0.10351 c 0.73291,-1.97772 1.43583,-0.58841 -0.19072,0.27854 l 0.19072,-0.27858 z m -22.02845,-0.93352 c -2.44271,-0.30947 1.02261,-1.28255 1.01004,0.0637 -0.24102,0.15894 -0.93573,0.4336 -1.01004,-0.0637 z"
         id="path4088" /><path
         style="fill:#a8ca8f;stroke-width:0.264583"
         d="m 159.70729,207.05208 c 2.08562,-2.12619 0.21411,0.32602 -0.90114,1.05834 0.22694,-0.41023 0.59518,-0.71233 0.90114,-1.05834 z m -12.03835,-5.18662 c -1.05944,-2.70529 -2.41087,-5.31208 -3.44982,-8.01368 -1.0759,-1.85404 -2.13959,-3.84093 -3.11859,-5.90575 -0.34527,-1.1459 -2.46497,-4.36532 -1.50074,-1.43047 0.37904,1.38227 3.02214,6.01977 0.25852,3.17358 -0.90858,-1.19017 -0.75735,-1.91242 -1.82202,-1.31473 -0.74947,-1.80585 1.07173,-1.85256 1.36423,-3.9027 0.0286,-0.51767 0.73752,-3.53318 -1.14934,-3.30926 -0.87017,-1.37741 1.20269,-1.57008 1.03967,-2.816 0.23545,1.74928 1.03868,0.58298 1.28845,0.36249 0.39024,1.46421 0.86636,2.60782 1.87571,3.57081 -1.59915,-0.64332 -0.46988,0.6634 0.48964,0.6935 1.59028,4.16123 2.61581,8.5344 4.04261,12.76119 0.24582,1.9792 2.09333,5.26057 1.35284,6.46158 -0.16822,-0.0582 -0.62084,-0.0459 -0.67116,-0.33056 z m 10.05398,-0.50192 c -2.7306,-1.14246 0.38458,-4.44511 0.49842,-6.63923 1.84227,-4.95672 2.2514,-10.33715 4.27433,-15.22335 0.94681,-0.97778 1.61554,-4.49966 -0.009,-1.91072 -0.73193,1.12379 0.24111,-2.17424 -0.13172,-2.68725 -1.17852,1.77826 -1.60195,5.0242 -2.32373,7.40526 -0.74642,1.74459 -0.71336,5.75522 -1.9823,6.2789 -1.0989,-2.64305 -1.64833,-6.17774 -3.43926,-8.17042 0.44709,3.11696 1.87274,6.06243 2.45206,9.18269 0.26347,1.08076 0.67349,2.16533 0.11035,3.22457 -0.75762,2.3757 -1.22508,4.90729 -2.48737,7.07278 -1.63227,-0.16708 -2.5719,2.40559 -4.30885,0.90067 -0.4918,1.04753 -1.12341,-2.43447 -1.54952,-3.35848 -0.73946,-1.41721 0.14781,-2.94788 0.26641,-4.41572 0.0468,-1.80231 2.04796,-5.63508 0.93695,-6.09652 -1.07311,2.17504 -1.66083,4.64686 -2.31894,6.8962 -0.69363,-2.67614 -1.84139,-5.16389 -2.50272,-7.84771 -0.82291,-0.95705 -1.45773,-4.05433 -1.99637,-4.51258 -1.37682,0.59397 -1.0361,-2.31799 -2.03635,-3.11499 0.85604,-0.70659 -2.80768,0.0808 -0.50523,-0.77089 0.78263,-0.52968 4.70132,-1.08826 2.11132,-2.16603 -1.35903,0.84347 -0.86569,0.97139 -2.58672,1.3123 -0.70228,1.02877 -1.53415,1.62584 -1.75026,0.63277 -0.0951,0.0668 -0.0805,-1.01696 -0.009,-1.06447 2.03901,0.19407 2.73949,-1.27772 4.72909,-1.60609 -1.37292,-1.15838 0.0361,-1.4429 -1.12592,-2.94036 -0.21698,-1.17289 1.75758,1.77042 0.62029,-0.52319 -0.0408,-0.4504 0.53833,-0.0671 0.19534,-0.93215 0.9292,0.16231 2.12246,0.66869 0.84587,1.19171 0.59749,0.75082 0.41965,1.27862 1.27027,0.21584 1.31752,0.88637 2.30497,1.50799 3.67417,0.24939 1.61833,0.18877 -0.42428,-1.30836 1.36985,-0.87831 0.24292,-0.76031 3.55852,1.74863 3.09228,-0.67696 -1.17985,1.58665 -2.72681,-0.73319 -0.7255,-0.0676 2.02916,-0.30847 2.33795,-4.41527 4.41849,-2.44743 1.23799,-0.45429 0.27974,-2.90191 1.03619,-0.75198 -0.45772,0.80008 -1.49589,2.78991 -0.22608,1.41302 0.10908,-1.3487 3.1298,-1.99117 1.17153,-0.68304 -2.22062,1.86862 2.49726,-0.96717 2.71983,-0.3327 -0.36327,1.25636 1.94061,0.94932 0.28322,1.90865 2.84413,-0.79083 3.5914,4.16574 6.70261,3.0705 0.26708,0.62185 -0.86443,1.50636 0.91071,0.81431 1.99738,-0.30475 1.58438,0.28932 1.68311,1.55989 -1.58584,0.40797 3.48138,0.42814 2.29662,2.31279 0.91734,0.83284 0.42212,-1.2285 1.54348,0.0488 -0.82898,0.96635 -0.83442,3.47801 0.31651,2.24541 -1.54342,1.52266 1.54151,3.84083 2.36153,3.98204 -0.14638,1.90911 -2.60399,0.71872 -2.94266,0.97502 1.09926,0.57185 -0.18293,3.01961 1.04574,1.20908 0.38282,1.72351 1.78961,0.39069 2.32518,1.65757 -1.05264,0.11373 -3.85533,-0.83491 -1.89392,0.32404 -2.29652,0.31789 -0.88375,4.53724 -3.23912,4.82898 0.0907,1.66385 2.82337,1.56824 1.48527,2.66445 0.99521,2.31932 -1.77958,3.20632 -3.37857,4.56976 -1.82708,0.19186 -4.54389,-0.55124 -5.49256,0.68104 1.00827,-2.37974 1.81625,-4.87753 2.9737,-7.17026 1.70148,-2.70336 4.17523,-4.8626 5.73822,-7.64594 -1.74081,0.67161 -4.20297,4.52132 -4.98972,4.12614 0.40396,-1.45425 2.09058,-5.48021 1.22058,-5.57177 -2.25737,4.66967 -3.33452,9.88425 -6.11579,14.2949 -1.04752,2.60333 -4.65603,1.6987 -6.06359,2.95662 1.74697,1.03063 -0.26134,0.81597 -0.54858,9e-5 z m 13.36862,-3.31888 c -0.35506,-1.14758 -0.62466,-2.85351 -0.76435,-0.47557 -0.13428,0.54404 0.43812,1.1772 0.76435,0.47557 z m 3.03373,-2.50195 c -1.38465,-1.82427 -1.12495,1.593 0,0 z m 1.58931,-12.27482 c -1.54481,-1.8917 -1.01648,1.17616 0,0 z m -29.17031,-2.01268 c -0.2941,-1.18378 -1.8296,-0.18911 -0.32645,0.14579 -0.0652,0.30266 0.68897,1.09413 0.32645,-0.14579 z m -2.22471,-2.31511 c -1.41819,-0.78345 -2.96377,0.73177 0,0 z m 0.70336,-1.02303 c -1.47028,-0.50691 2.3451,-1.85567 -0.1427,-1.26587 -1.49488,-0.23971 -1.46697,2.81811 0.1427,1.26587 z m 1.09558,-2.08582 c 0.13829,-0.64941 -1.8586,-0.32864 -0.33512,-1.38702 -1.67001,0.1521 -1.87056,2.04033 0.0296,1.43421 l 0.30554,-0.0472 z m -0.37406,-2.38815 c -0.67592,-1.92594 -1.1743,2.03777 0,0 z m 24.67848,0.62182 c -0.91912,-1.2284 -3.01894,0.39258 -0.56648,0.0769 l 0.29445,-0.0223 z m -9.84019,-2.7076 c -0.34781,-0.54096 -4.05899,0.66431 -1.17374,0.44672 0.3889,-0.091 0.91071,-0.0933 1.17374,-0.44672 z M 143.46,197.95358 c -1.3594,-0.13905 -2.32775,-0.26488 -3.46954,-1.03868 -1.43954,0.59518 1.42158,-2.59711 2.50617,-0.97797 1.36117,-0.78055 3.00173,3.64165 0.96337,2.01665 z m -2.3452,-3.65111 c 1.01455,-1.43717 0.72023,1.16697 0,0 z m -3.23495,-1.0083 c -0.77903,-1.14152 1.67498,0.14637 0,0 z m -1.38975,-0.36873 c -1.65159,-2.85431 1.83275,1.07464 0,0 z m 0.88818,-1.18659 c 0.8413,-1.30336 -1.62351,-2.62845 0.0273,-3.06131 1.12979,1.20417 3.42352,2.21717 3.65974,3.76091 -1.74017,0.22501 -2.73111,-2.16384 -3.97879,0.13779 0.0973,-0.27913 0.1945,-0.55826 0.29175,-0.83739 z m -1.61578,-0.82635 c -0.96836,-0.9155 0.90724,-4.11082 0.66133,-1.26931 -0.32215,0.31838 -0.18758,2.81537 -0.66133,1.26931 z m 42.86471,-3.43262 c -0.60148,-1.92583 1.89566,0.88712 5e-5,-3e-5 z m -2.05273,-4.84585 c -1.84525,-0.45264 -0.35069,-2.49063 0.26282,-1.19958 0.0554,0.96141 1.07266,-0.85613 0.51237,1.04158 -0.071,0.32376 -0.53968,0.42984 -0.77519,0.158 z m -0.26926,-2.45706 c -1.11321,-1.27768 0.91841,-2.77799 -0.0261,-0.90883 0.16138,0.17881 0.91901,1.59671 0.0261,0.90883 z m -2.00404,-3.99524 c -0.8551,-2.40899 2.07504,-0.28451 0,0 z m -2.68764,-1.6734 c 1.50404,-0.56924 -1.13951,-1.11519 0.97131,-1.14932 1.34576,-0.86613 3.67465,1.58171 1.54223,1.14927 -0.86761,-1.10365 -1.51826,-0.55021 -2.30452,0.21785 l -0.20902,-0.21785 z m -30.0209,-4.7451 c -1.29502,-2.75941 1.71706,0.92293 0.24442,0.32939 z m 8.77486,-0.0703 c -0.74994,-1.85487 1.96941,0.91923 3.9e-4,1e-5 z m 12.70629,-1.05204 c -0.11095,-1.48632 0.92479,-0.85558 0.4347,0.3112 l -0.43468,-0.3112 z m -15.40504,-0.35026 c -0.90009,-0.64313 1.67044,-0.56377 1.93407,-1.42282 2.95807,1.67276 -0.76283,1.95269 -1.93407,1.42282 z M 156.4,167.24791 c -0.70714,-1.06969 -2.01727,-0.64579 -2.10834,-0.0598 -0.53173,-1.80609 4.1497,-4.18478 4.06528,-2.58452 -1.92224,-0.23047 0.68534,2.31556 -1.2503,0.74214 -1.51077,0.19151 -0.96299,1.3705 -0.22195,1.93105 -0.0208,0.26235 -0.59087,0.36542 -0.48469,-0.0289 z"
         id="path4086" /><path
         style="fill:#9dc481;stroke-width:0.264583"
         d="m 147.73993,201.42677 c -1.8066,-1.96829 2.1379,0.51004 0,0 z m 3.30226,-0.56404 c -0.62078,-1.50478 -0.81368,-0.42677 -1.12488,-0.34563 -0.98955,-2.38048 -1.63657,-5.03137 -0.78986,-7.55751 0.16699,-1.86336 2.05033,-5.21819 0.87823,-6.17785 -0.36367,1.43124 -2.1791,4.6433 -2.14829,1.2965 -1.11944,-0.46748 -1.00759,-0.49773 -1.96322,0.22587 0.57407,-1.76944 4.11455,-1.85156 4.58754,-3.68454 -0.80825,-0.85435 -1.72939,-1.23176 -0.87177,0.004 -1.28647,0.98735 -0.68141,-1.39774 -2.22184,-1.191 -1.12025,-0.79789 -2.48246,-0.72109 -0.51298,-1.29516 1.4011,-0.69061 3.54979,-0.81533 4.62645,-2.13632 -1.81346,-0.8278 3.30358,-1.76283 0.78042,-1.81605 -0.068,0.91407 -3.73139,-0.96924 -2.59765,0.7377 0.54739,0.41893 -2.20811,2.32388 -1.14287,0.63691 -3.00544,-0.0677 -0.0393,1.12183 -0.0126,1.7636 -1.42254,-0.72875 -3.83482,-1.80229 -2.06051,-3.08317 -2.29143,0.008 1.16571,-0.10323 -0.0991,-0.86251 1.61493,0.0186 1.62561,-1.64541 0.98184,-1.60526 0.59367,-1.19135 -1.7364,-0.0338 -0.28653,-1.55362 1.00528,-0.88056 3.0146,-1.35676 2.07237,-2.12946 0.88433,0.21403 0.85909,1.7861 2.31691,0.63207 1.48624,-0.40517 1.39694,1.71578 2.92831,1.57725 -3.14271,-0.52463 1.46981,3.12284 2.50083,1.14493 -0.0726,0.7723 -3.40647,1.84716 -1.14068,1.35057 2.28274,0.75093 2.28333,-2.30229 4.09749,-1.51811 1.97025,-1.06435 2.68213,0.10421 1.35564,1.75552 -1.48114,0.4752 -5.19843,-0.11754 -5.4634,0.65369 1.22086,-0.12898 2.89272,0.20011 0.72049,0.57903 -1.45179,0.31428 -3.49335,-1.35476 -2.44884,0.53517 0.89483,-0.17145 4.72022,-0.1115 1.91437,0.31881 1.48115,0.80102 2.77107,0.37377 2.86995,-0.63425 -0.13197,1.23739 3.12989,-0.32856 1.58071,0.71062 -1.38384,0.24738 1.3109,0.46667 -0.034,1.78465 -0.62861,2.52047 -1.71693,4.61051 -1.74089,7.24389 -0.23907,2.1463 -0.75853,-0.83226 -0.98598,-1.47458 -0.61018,-1.99392 -1.69194,-4.93756 -3.00334,-6.28682 0.56791,3.68497 2.29146,7.14265 2.71618,10.8684 -0.41097,2.87179 -1.32864,5.72833 -2.49798,8.37677 -1.40187,-0.21991 -2.92183,1.53202 -3.78053,1.15615 z m -0.19844,-1.89984 c -1.32642,-1.44678 -1.13087,1.66648 0,0 z m 0.65016,-1.68211 c -0.3768,-1.62966 -1.53007,0.9617 0,0 z m -3.03546,-14.10734 c -0.51,-2.89633 -1.23354,1.62963 0,0 z m 5.03113,-5.97518 c -0.46929,-1.46249 -2.02597,0.97082 0,0 z m -2.92205,-0.71274 c 0.81183,-0.28256 3.51203,-0.57043 0.84662,-0.6661 -1.10021,0.13032 -2.17984,-0.47745 -2.12485,0.36139 -1.40195,0.55405 0.54758,1.04557 1.27823,0.30471 z m 9.53664,-0.0106 c -0.78442,-0.97031 -2.35056,1.08415 -0.20119,0.31616 l 0.1522,-0.12896 z m -2.66487,23.80739 c -1.79867,-1.40161 1.34731,-5.13022 1.34088,-7.3441 1.67918,-5.14109 2.12663,-10.7036 4.76547,-15.49957 1.08675,-2.75958 -2.1749,1.63725 -1.18051,-1.05583 -0.45373,-2.8183 3.40129,-1.92542 4.61819,-2.67219 1.46113,-0.19251 1.26393,1.53494 2.20718,2.00156 -1.69119,0.82196 1.76645,1.2738 -0.72777,1.29294 -1.61793,1.17967 0.74562,2.27171 0.23639,0.73595 0.96879,0.51751 -0.11953,2.9962 0.87251,0.7809 0.77587,-0.89546 0.34523,1.05932 1.2514,0.11086 -0.15392,1.12386 0.93869,1.11248 0.32751,1.67519 0.55493,0.7614 0.90801,1.55454 0.85385,0.0209 0.12949,1.1997 3.97323,1.84034 1.21988,1.74525 -0.12833,1.5788 1.10459,2.70243 -0.58642,3.80438 -0.0539,1.53409 -2.31335,3.19427 -3.35753,3.88479 0.40733,-1.09486 1.61175,-3.54455 1.38094,-3.61363 -0.46715,-0.0782 0.95833,-4.3083 -0.43928,-1.61044 -1.02743,2.43377 -2.12786,4.81344 -2.86702,7.35324 -0.36099,2.11914 -2.46061,4.34318 -2.63167,5.93634 -0.69165,1.00326 -3.07784,0.43272 -2.10233,1.94172 -1.55061,0.36528 -3.30733,1.52889 -5.18167,0.51175 z m 4.66076,-2.12 c -1.4419,-0.96891 0.47895,2.11952 10e-6,0 z m 5.94566,-10.63252 c 0.20574,0.24433 1.03548,-0.42558 0.19438,-1.04782 -1.45434,-1.49701 -0.221,1.86059 -1.81761,0.29139 -0.2172,-0.47681 1.60401,0.14868 0.0852,-1.15774 -0.89246,-0.47298 -0.93898,2.12683 -2.38015,2.09263 0.83207,0.60021 2.07889,-1.22005 2.52308,-0.34065 0.91476,0.20482 -0.30375,1.80585 1.24107,0.55353 l 0.15411,-0.39131 z m -20.90843,12.2085 c -1.81512,-1.70079 -1.4966,-4.19996 -2.47611,-5.51565 -1.10633,-0.95759 1.94653,0.4492 0.17157,-0.73044 2.40909,-0.57584 2.47226,4.34872 3.07786,6.24297 -0.13883,0.31574 -0.59317,-0.0527 -0.77332,0.003 z m 23.35177,-0.16065 c 0.67833,-0.49173 1.85417,-1.02451 0.29745,-1.12652 1.45298,-0.17938 0.11248,-1.36547 2.23849,-1.40155 3.19831,-0.0343 -1.33123,0.97875 -1.5896,2.30919 -0.0755,0.1072 -1.11183,1.01717 -0.94634,0.21888 z m -4.18276,-0.61599 c 1.12241,-0.53115 2.10791,-0.43469 0.30044,-0.81466 1.04971,0.0767 2.61911,-0.2483 2.38302,-0.8045 3.27799,2.07418 -2.99076,2.19151 -2.68346,1.61916 z m -23.35544,-1.45995 c -1.54711,-0.43763 -4.10773,-1.26743 -1.25907,-2.00211 1.00462,0.61794 2.86241,0.80426 2.48943,2.50715 -0.46826,0.008 -0.83602,-0.31146 -1.23036,-0.50504 z m 29.08533,-1.60187 c -0.96112,-2.56091 1.36852,0.93848 0.29079,0.55287 z m -4.35595,-0.36012 c -0.18907,-2.46867 2.72608,-3.84289 2.90023,-4.93263 0.16156,0.43583 3.16458,-5.20985 3.46586,-1.88565 0.31694,1.10351 -0.77616,3.72614 -0.62331,1.02461 -1.87305,-0.17967 -0.0321,2.36025 0.23811,2.13161 -1.07352,0.34291 -1.71715,2.41418 -2.66816,1.53752 -0.36099,0.92972 1.30976,2.25882 -0.49269,0.81175 -1.61214,-1.08077 -0.66083,2.70718 -2.82001,1.31286 z m 4.85934,-1.02128 c 0.47831,-1.3272 3.18728,-0.27866 0.73993,-0.34535 -0.29962,-0.23866 -0.47712,0.609 -0.73993,0.34535 z M 147.6026,193.6703 c -0.88098,-1.70135 0.96856,-0.74598 0,0 z m -8.02113,-1.40655 c -0.51811,-0.81692 -0.19142,-3.11102 -0.0482,-0.92019 1.03219,-0.70898 2.69802,1.50496 0.30847,1.06914 l -0.30565,0.0587 0.0453,-0.20763 z m 3.41533,-0.67915 c -1.2277,-2.37715 -2.74013,-4.83201 -3.06417,-7.52018 0.0496,-2.06282 0.21504,-0.55924 0.84226,0.44312 0.59703,-0.31992 -0.42656,-2.69946 0.5459,-2.82768 -0.58292,1.33368 1.74877,4.36505 1.4562,2.71262 -0.50424,-1.0821 1.822,1.45883 1.34096,2.64338 -0.10797,0.79467 -0.44629,2.53844 1.12191,3.15552 1.22321,2.24827 -1.6624,1.44606 -2.24493,0.60667 0.061,0.16361 0.87333,1.63978 0.002,0.78655 z m 0.63705,-3.71477 c -0.17364,-1.84687 -2.66174,0.79892 -0.28614,0.60519 0.20908,-0.11984 0.29005,-0.37843 0.28614,-0.60519 z m -5.85649,3.35662 c 0.5203,-2.15778 1.34733,0.44942 0,0 z m 9.02088,-0.31428 c 0.70221,-2.69285 1.5106,1.45972 0,0 z m -6.19344,-0.59494 c -0.46048,-1.77247 -1.67732,-2.55726 -1.19475,-4.37263 0.15919,1.53858 1.82123,3.77833 1.62362,4.81676 l -0.42886,-0.44413 z m 6.93166,-5.22552 c -0.0186,-2.13739 1.49926,1.08772 0,0 z m 7.41212,-11.19865 c 0.50892,-0.50172 1.71748,-1.28023 2.13381,-1.53524 1.767,1.97897 -1.45704,2.74542 -2.13381,1.53524 z m 3.92589,0.0879 c -1.07188,-0.53735 -0.41339,-1.49608 -0.78497,-1.76972 1.0674,-0.0742 2.70754,-0.2316 0.98024,0.53595 -0.19129,0.58871 1.0753,1.98504 -0.19523,1.2337 z m 1.9253,-0.1405 c -0.78543,-1.4679 3.98104,0.3461 1.0148,0.18207 -0.30032,0.0635 -0.87552,0.29867 -1.0148,-0.18207 z m -6.6514,-0.65934 c -1.69987,-0.0879 1.75486,-2.46517 0.68105,-0.47512 0.62974,0.35555 -0.44171,1.12536 -0.68105,0.47512 z m 10.98288,-0.19662 c 2.35354,-2.37192 1.00015,0.42039 0,0 z m -2.41053,-1.57845 c -0.87324,-1.86923 -2.179,-1.24571 -3.39254,-0.16714 -1.53007,0.38167 -1.2776,-1.24493 -0.36007,-0.62445 -0.62972,-2.58233 3.12531,-2.99771 2.59554,-1.66236 -1.05262,-0.0327 1.24054,1.8192 2.22997,1.68868 0.73267,0.66108 -0.69973,0.72229 -1.0729,0.76527 z"
         id="path4084" /><path
         style="fill:#99c17b;stroke-width:0.264583"
         d="m 151.34157,200.36305 c 0.3633,-1.94166 -2.01772,0.98795 -1.96854,-1.68115 -0.8156,-1.71838 -1.24495,-5.32121 0.61805,-6.12467 2.10876,-0.85428 -0.85307,-3.88107 0.5214,-5.84958 0.54366,-1.0545 1.18022,-0.64918 1.52185,0.23604 0.66149,-0.42113 -1.08259,-3.74838 0.67091,-1.46466 0.80976,1.77076 -0.27523,-2.59571 1.5383,-1.81502 0.30193,0.25233 -0.78441,1.63551 0.44305,0.36926 1.05703,-1.09234 0.9454,2.71161 1.51489,3.08138 -0.25612,0.88127 1.1715,2.60546 1.18584,4.09948 0.084,1.19 -0.64213,2.3547 -0.87623,3.53477 -0.87706,2.27021 -0.67078,5.63406 -3.8345,5.46006 -0.35705,0.0592 -1.12232,0.67835 -1.33502,0.15409 z m -0.34637,-1.27947 c -0.82027,-2.18776 -1.96277,2.24718 0,0 z m 0.55344,-2.20017 c -1.78135,-1.47684 -0.24322,2.29884 0,0 z m 7.00027,3.57962 c -0.13821,-1.4245 -2.88672,0.1281 -1.47584,-1.92381 -0.0405,-1.44286 3.39347,-1.21578 0.88523,-2.18466 0.32434,-2.37517 1.43878,-4.77773 1.94459,-7.19329 0.64996,-1.74139 0.53165,-5.91578 2.99977,-5.2981 1.05439,-0.79346 1.83699,0.63036 2.40584,-0.4695 -0.335,-0.71913 -1.981,-2.31864 -2.36006,-0.75644 -0.0964,-1.45192 -2.52952,-1.87261 0.17844,-1.88214 2.24963,-0.71643 -1.61577,-0.96226 0.63759,-1.33367 2.62439,-0.0191 -1.10422,-0.61929 -0.73468,-0.4761 2.32056,-0.86099 0.10898,-3.16269 0.42749,-3.77091 1.03901,0.17175 2.64062,2.82177 1.65203,0.4265 -1.66682,0.17228 2.0806,-0.68107 0.31226,0.20082 0.52355,0.7489 3.24483,0.85 1.90316,2.0297 -1.13156,-1.97574 0.54231,1.566 -1.04733,0.31216 -1.60304,0.10357 -2.23628,-0.007 -1.02048,1.49112 0.14999,1.22053 -0.73076,1.69455 0.40342,1.9091 0.51991,0.71615 0.0456,-2.19012 0.86271,0.0822 -0.13659,1.88246 0.72006,2.20452 1.51848,0.82035 0.86329,-0.72732 0.83148,-0.94517 1.14787,0.14403 1.16016,-1.38766 3.80474,-1.02433 2.68529,1.11503 1.90963,-0.84053 -0.89529,1.4398 -0.4793,-0.80609 -1.44938,1.41315 -1.62995,4.90384 -4.26411,2.77161 -1.93102,-0.35808 -3.39305,1.76046 -4.2198,3.31045 -1.20186,-0.58355 -0.61338,1.53046 0.53363,0.57832 0.34289,2.98097 2.55988,0.98071 3.77331,0.54456 0.3248,-1.86909 0.61307,1.55294 -0.15544,2.15788 -0.32175,0.58937 -1.49135,3.00722 -2.69241,2.15545 1.60005,-0.90478 -3.55512,-0.0587 -1.64195,-0.10427 2.11495,-0.23236 0.69904,1.19646 0.21031,1.1022 0.79414,0.72116 3.10351,0.17266 1.281,1.30971 0.90052,0.63624 -1.28859,-0.0305 -1.16647,-0.45407 -0.57457,-0.72645 -4.17175,-1.80024 -2.59156,0.31019 0.0192,0.78218 1.77898,3.93815 -0.46492,3.73019 1.84622,-0.97375 -1.22622,-5.20065 -0.80436,-1.72564 -0.38291,0.63206 1.04867,2.87956 -0.64371,1.87713 z m 5.78859,-18.81095 c -0.92151,-2.00166 -1.3297,0.60991 0,0 z m -17.84,17.15727 c -1.2706,-1.30547 1.31728,-1.63469 -0.54208,-1.81676 -1.85121,-0.35668 0.362,-5.15318 0.88304,-1.55484 0.34443,0.94172 2.1719,6.1979 -0.34096,3.3716 z m 25.64521,-0.7531 c -0.38552,-1.28009 3.55222,-0.80727 0.91286,-0.11641 -0.17881,0.30842 -0.71209,0.56483 -0.91286,0.11641 z M 143.7,197.79167 c -2.10027,-0.63676 0.0287,-0.90555 0.69471,0.19098 -0.21704,0.12255 -0.6268,0.11407 -0.69471,-0.19098 z m 0.20382,-6.53261 c -0.20882,-1.47805 -0.38763,-2.17826 0.64435,-0.7591 1.49549,-0.49975 -0.44194,0.79485 -0.64435,0.7591 z m 20.1691,-1.112 c 1.54478,-1.89172 1.01647,1.17614 0,0 z m 1.47076,-0.21799 c 0.16116,-1.11001 0.52252,-2.72517 0.90347,-0.7407 1.07149,0.38216 -1.50621,1.66183 -0.90347,0.7407 z m 6.66194,-0.78708 c -0.79103,-0.90832 1.07229,0.39692 0.58028,-1.09257 1.94004,-0.78692 0.7981,2.06698 -0.58028,1.09257 z m -23.90071,-0.94147 c 0.97164,-1.51455 -2.28543,0.39943 -0.46025,-1.0937 3.2035,-1.27053 0.88551,1.33616 0.10795,1.68384 0.11744,-0.19671 0.23487,-0.39343 0.3523,-0.59014 z m 9.87552,0.43546 c -0.47467,-1.51287 1.57771,-3.32739 0.46714,-0.86746 -0.1685,0.18117 -0.0294,1.16533 -0.46714,0.86746 z m 12.33104,-2.84129 c -0.12767,-2.62239 1.68822,-0.93106 1.16821,-0.24958 -0.3616,-0.37344 -1.59284,1.27428 -1.16821,0.24958 z m -29.1741,-0.66824 c -0.0818,-2.7464 1.08904,1.68099 0,0 z m 15.83226,-0.13753 c -0.56622,-0.48005 -1.56553,-2.30012 0.0151,-1.51063 -2.26109,-2.53107 3.07921,1.88279 2.13661,-1.396 -0.5119,-1.03524 -2.16855,-1.02138 -0.82335,-1.65692 -0.97223,-0.92128 -2.26577,3.35669 -1.65643,0.81501 -1.44653,1.19148 -2.39177,-2.18914 -0.46406,-0.68808 0.89896,-1.3457 5.33859,-1.32962 3.65,1.09974 -0.47942,1.5104 -0.38934,3.94578 -2.85791,3.33688 z m 3.99287,-1.46914 c 1.03621,-2.58295 1.40181,0.23467 0,0 z m -8.34154,-0.55637 c 0.508,-1.50039 0.18459,-1.62082 -1.13046,-0.80305 -1.6436,-1.07425 1.76845,-3.81348 2.85844,-1.482 0.63899,0.92241 -0.81482,3.10567 -1.72798,2.28505 z m 0.8192,-2.13466 c -0.29857,-1.64954 -3.20263,0.23474 -0.67974,-0.001 -0.0122,0.4525 0.58172,0.28492 0.67974,0.001 z m 13.77695,1.16892 c -1.12379,-3.44241 1.34632,0.017 0,0 z"
         id="path4082" /><path
         style="fill:#95bf76;stroke-width:0.264583"
         d="m 152.85194,199.80938 c -1.35189,-0.27851 -1.00104,-4.49257 -2.25554,-2.64226 1.61773,0.97067 -1.44134,1.47393 -0.424,-0.0671 -0.61304,-0.54735 -1.35064,-1.01579 0.0313,-1.22429 -0.0854,1.37096 1.47812,-0.29352 0.11093,-0.89455 -0.7217,-0.95148 -2.19587,1.46065 -1.35234,-1.05904 -0.14622,-1.69732 2.33448,-0.9567 2.56913,-1.50892 -0.9306,2.16417 0.80963,1.06759 0.49341,-0.39183 -0.98265,-1.18696 2.00028,-2.67687 0.36117,-0.55482 0.3406,1.16262 0.0347,1.64199 1.86549,1.18493 0.93287,-0.42804 2.49879,0.43647 1.51061,-1.30802 -0.55086,-0.843 -1.9098,-2.6017 0.25482,-2.17226 1.33817,-0.6779 0.92089,2.32231 1.0256,3.18282 -0.64822,0.69388 -0.17804,3.8618 -1.84505,4.84037 -0.35343,0.32769 -0.87293,0.25114 -0.26871,1.05445 -0.92769,0.11268 -3.87297,-1.23111 -1.95124,0.6647 1.45129,-0.16625 1.91421,1.32965 -0.12556,0.89585 z m 3.68066,-9.16196 c -0.65832,-1.25565 -2.22468,-0.60167 -0.42105,0.23684 l 0.22759,-0.0287 z m 0.36775,8.40102 c 0.64805,-1.32368 3.30681,-1.40109 1.74861,0.33073 -1.14126,-1.90234 -0.33018,0.85657 -1.81681,0.15878 l -0.023,-0.18066 z m 15.77152,-1.25677 c 0.97749,-0.85255 2.28395,-0.40244 0.38489,0.0177 -0.14545,0.46855 -1.10985,0.7587 -0.38489,-0.0177 z m -12.81109,-1.25677 c -0.85216,0.24777 -0.2262,-0.6089 -0.70818,-0.7855 -2.08579,0.95418 0.11836,-3.40465 0.27495,-4.50941 0.74602,-1.84188 1.13783,-4.10226 3.38469,-4.61295 0.34652,1.41113 -0.72177,2.12408 -1.50692,1.73366 0.17729,0.88484 -0.91749,1.55715 -1.00521,2.40734 -1.54985,1.67269 2.19923,-1.25635 2.32094,-0.24558 1.97557,-0.13509 -2.28684,1.1691 0.45389,0.76315 0.81489,0.28324 2.62997,1.13199 1.21536,1.45264 1.1602,0.33666 1.26668,2.22416 0.0473,0.96432 -1.11274,-0.8638 -1.57228,0.80217 -2.3035,-0.66931 -0.0451,0.7485 1.05708,2.96538 -1.30623,2.48446 -1.93626,-2.27157 0.61139,2.79106 -0.86705,1.0172 z m 1.68037,-4.27371 c -2.15561,-0.60571 -1.58498,0.6822 0,0 z m -15.78857,2.64633 c 2.10954,-2.01444 -1.19059,2.12373 -0.0482,0.0839 z m 4.85082,-6.44242 c 2.26207,-1.11689 -1.41723,1.8124 -4e-5,0 z m 17.96743,-2.65776 c -1.34802,-1.2001 -0.47664,-1.14302 0.18687,-0.91829 0.68291,-1.42952 -1.75831,-0.76328 0.086,-1.80302 1.36294,-0.69213 1.81716,-0.90472 1.38747,0.91393 -0.11642,1.15413 -0.71703,-1.39121 -1.02831,0.67619 0.85061,-0.19204 0.77201,2.24022 -0.632,1.13121 z"
         id="path4080" /></g></g></svg>
