<?xml version="1.0" encoding="UTF-8" standalone="no"?>
<!-- Created with Inkscape (http://www.inkscape.org/) -->

<svg
   width="55.069778mm"
   height="57.849735mm"
   viewBox="0 0 55.069778 57.849735"
   version="1.1"
   id="svg3757"
   xml:space="preserve"
   inkscape:version="1.2.2 (732a01da63, 2022-12-09)"
   sodipodi:docname="buissonnant-elance-natural_shrub.svg"
   xmlns:inkscape="http://www.inkscape.org/namespaces/inkscape"
   xmlns:sodipodi="http://sodipodi.sourceforge.net/DTD/sodipodi-0.dtd"
   xmlns="http://www.w3.org/2000/svg"
   xmlns:svg="http://www.w3.org/2000/svg"><sodipodi:namedview
     id="namedview3759"
     pagecolor="#ffffff"
     bordercolor="#666666"
     borderopacity="1.0"
     inkscape:showpageshadow="2"
     inkscape:pageopacity="0.0"
     inkscape:pagecheckerboard="0"
     inkscape:deskcolor="#d1d1d1"
     inkscape:document-units="mm"
     showgrid="false"
     inkscape:zoom="4.4346944"
     inkscape:cx="199.67554"
     inkscape:cy="127.179"
     inkscape:window-width="2560"
     inkscape:window-height="1369"
     inkscape:window-x="-8"
     inkscape:window-y="-8"
     inkscape:window-maximized="1"
     inkscape:current-layer="layer1" /><defs
     id="defs3754" /><g
     inkscape:label="Calque 1"
     inkscape:groupmode="layer"
     id="layer1"
     transform="translate(-47.232934,-165.07747)"><g
       id="g3890"
       transform="translate(-23.2875,-11.8125)"><path
         style="fill:#afc8ac;stroke-width:0.264583"
         d="m 94.343463,234.15561 c -0.884099,-4.88905 -2.930213,-9.50977 -4.93745,-14.0307 -1.239381,-1.66616 -3.719468,-1.61789 -4.767186,-3.16205 -0.897087,1.33619 -1.278291,-1.5154 -2.894513,-0.52715 0.546657,-1.80046 -1.256596,1.44974 -1.936713,-0.72185 -1.046596,-0.99012 -1.895391,-2.46444 -3.110682,-2.34155 0.997628,-1.10382 0.864139,-1.22788 -0.318623,-0.56212 -1.044109,-0.91346 -2.925136,-1.05881 -3.411999,-1.29435 1.119187,-1.13623 3.261805,-4.31343 0.651077,-3.19179 -0.926244,-0.70868 -3.310152,2.09194 -1.969983,0.12 0.168814,-0.94584 0.64511,-2.22768 1.037021,-3.23116 -1.449716,-1.26708 -0.220351,-0.92707 0.44909,-1.62859 -0.334154,-0.98302 -3.143945,-1.15001 -2.52408,-3.11203 0.883196,-0.86134 3.798456,-1.65561 3.236434,-2.5839 -1.209074,1.52585 -0.953552,-0.29337 -1.638438,-1.09073 0.576779,-0.19789 1.762155,1.44819 1.140747,-0.26658 1.384689,0.42165 3.505058,-0.91874 0.992918,-1.24287 -2.077428,-1.81695 3.183559,-0.7442 1.112089,-2.1301 1.192952,-0.12733 1.660115,-0.1639 3.007247,-0.57588 -1.412423,-0.67256 2.654313,-1.86608 -0.162651,-1.40696 0.223983,-0.97925 -1.39369,-1.13426 -0.527434,-1.9047 -2.208701,-1.22931 -0.186792,-3.36815 0.737492,-4.65364 1.383039,0.31238 2.111218,-0.29403 3.299666,-0.67105 0.73434,1.34672 2.583984,-0.19718 2.387867,-1.49607 1.359484,-0.3819 3.607719,-1.37902 2.694865,-2.53403 2.6741,-0.46352 5.471257,-0.61444 8.156861,-1.33177 0.671915,0.14996 3.49643,-0.45142 1.703397,-1.01308 0.77347,-0.40855 1.649034,1.18724 1.432759,-0.27172 1.418424,-0.27649 3.360249,1.92796 2.214689,-0.0622 0.9409,-0.76835 2.35757,1.45238 3.11165,-0.34702 1.80958,0.18334 3.65317,1.28541 5.02115,1.98953 -0.90071,1.16884 0.85451,4.1953 1.22891,1.71792 1.15514,-2.12624 3.56786,-1.14779 4.19108,-1.18355 2.56821,-2.10075 -2.46123,4.75787 1.02641,3.63432 1.6103,-0.6861 2.00415,1.23102 2.97949,1.34947 -1.04658,0.48067 -2.56699,0.77845 -1.01815,2.1825 1.6264,0.3859 2.39969,1.82333 3.67379,2.20534 -0.13588,-1.61159 1.65337,1.03183 2.65351,0.72043 1.28189,1.59871 0.78965,2.95299 1.04573,4.02502 1.51315,1.81344 -0.44465,3.5079 0.1521,5.93508 1.10606,-2.00898 1.68321,1.50202 0.37385,1.90771 -0.55823,1.90999 -0.288,3.93312 -2.26643,5.15047 0.54932,2.07587 -1.18761,-0.69136 -1.22036,1.59617 0.36348,2.00547 -1.6513,2.11678 -1.29339,0.78813 -0.38969,0.88698 0.0857,1.68925 -0.67692,1.81575 1.34974,0.62012 -0.64902,2.5106 1.18159,1.17715 -0.40004,1.59685 -2.75521,2.59519 -2.25452,4.32208 -1.52204,1.21896 -2.79825,1.73022 -4.15272,1.7878 -2.28682,1.41669 -5.9614,0.21316 -7.70292,2.71517 -3.31163,4.15768 -7.926794,7.60334 -9.521122,12.87079 -0.823438,2.71375 -0.242505,-2.46744 0.801,-2.98644 3.547132,-5.97372 10.011762,-9.92643 12.219132,-16.73941 1.02734,-4.30052 4.80646,-7.02089 7.07193,-10.5917 -1.81935,1.1961 -3.61569,3.88559 -5.10652,4.65456 0.33535,-1.7819 1.96672,-5.60449 1.63095,-6.17636 -2.41753,5.50649 -4.03847,11.38336 -7.30109,16.49241 -2.183,4.32919 -6.475732,6.98568 -9.018892,11.0597 -1.884136,2.21153 -0.595093,-2.83696 -0.4148,-3.80369 2.047933,-7.68335 5.179712,-15.05808 6.741992,-22.87974 0.48149,-2.93384 1.81666,-5.57929 2.97998,-8.26957 -0.49651,-0.35944 -1.89319,3.00978 -1.49546,0.38168 0.3128,-1.22806 0.21791,-3.05508 -0.29121,-0.86347 -1.30484,4.16725 -1.97247,8.50883 -3.32289,12.65785 -1.20697,-0.40305 -1.635985,-4.48488 -2.627019,-6.21906 -0.237946,-1.1956 -1.650861,-3.7795 -0.897581,-1.0551 1.019924,3.50516 2.5282,7.01689 2.53412,10.70769 -1.7201,5.5958 -3.434869,11.20155 -5.107967,16.80614 -1.676952,-1.53652 -2.011388,-5.49803 -2.656057,-8.05798 -0.749888,-2.74722 -1.697773,-5.61178 -0.720826,-8.44756 0.250519,-1.74056 1.552532,-4.95016 1.048819,-5.72038 -1.070963,2.10192 -1.359372,5.4591 -2.463324,6.9178 -1.214588,-3.79986 -2.645344,-7.52674 -4.019917,-11.27381 -1.120714,-1.04356 0.645039,2.88818 0.727374,3.66399 1.965336,6.67964 4.064699,13.32281 6.026023,20.00012 0.139127,3.16408 -1.726194,-1.83331 -2.084272,-2.69766 -2.412725,-6.00021 -5.416464,-11.74799 -8.232838,-17.56425 -1.044879,-1.19808 0.704954,2.66315 0.938007,3.36616 0.672051,1.27981 0.708815,2.22635 -0.624357,0.81063 -0.700562,-0.73919 -2.840401,-2.18765 -1.035382,-0.39306 2.534559,1.98591 4.135043,4.65284 5.165093,7.65878 2.782289,6.13765 6.093994,12.18796 7.299775,18.88209 0.218348,0.60771 -0.562049,1.3739 -0.350988,0.23796 z m 3.263087,-6.0478 c 1.994064,-3.02287 5.05269,-5.13617 7.13724,-8.07891 -1.95367,0.19065 -3.92493,0.27228 -5.869362,0.48705 -1.489905,2.51446 -1.733899,5.61992 -2.26403,8.46792 -0.271881,1.39076 0.559792,-0.20595 0.808311,-0.57045 z m -1.165145,-6.32131 c 0.719303,-1.14498 0.418307,-1.65598 -0.9337,-1.51391 -4.018731,-1.1307 -0.577951,3.69491 -0.621389,5.78474 0.698969,-1.03559 0.970428,-2.94756 1.555089,-4.27083 z m -4.09348,0.0659 c -0.0533,-1.39192 -1.472165,-2.01562 -0.559943,-0.22824 0.279579,1.09314 1.27864,2.52217 0.656043,0.56722 z m 23.861185,-4.97358 c 1.10462,-1.8115 -2.10852,-0.11357 -0.78775,0.47316 l 0.40373,-0.1636 0.38401,-0.30956 z m -43.983536,-14.7386 c -0.910717,-1.66106 -1.289317,0.91516 0,0 z m 3.589009,-2.45307 c -0.405699,-1.28734 -0.888878,1.85115 0,0 z m 45.749657,-8.79141 c 0.32724,-2.09927 -2.34099,-0.6282 -0.33991,0.34795 l 0.33986,-0.34795 z m -3.24742,-4.52595 c -1.21522,-1.12294 1.87063,-2.10683 0.19029,0.12556 -0.10355,0.44283 -0.53554,0.25586 -0.19029,-0.12556 z"
         id="path3904" /><path
         style="fill:#94b590;stroke-width:0.264583"
         d="m 94.366108,233.50389 c -1.153505,-4.81128 -3.055659,-9.44962 -5.159317,-13.9205 -1.707438,-2.3791 1.42181,1.20318 1.350392,2.26633 1.52194,3.81445 3.289291,7.63935 3.956401,11.70399 l -0.100931,0.26952 -0.04655,-0.31932 z m 2.396784,-0.63064 c 0.122665,-1.09075 2.15672,-3.98397 0.872374,-1.48488 -0.292454,0.37406 -1.246313,3.73618 -0.872374,1.48488 z m -0.450951,-4.10398 c 0.186605,-1.32414 0.619729,-4.8104 1.09704,-4.82865 -0.298415,1.77142 -1.080734,4.56677 -0.740069,5.81221 1.593935,-2.76049 3.688968,-5.20021 6.217448,-7.15092 -2.21842,2.33528 -4.42206,4.70326 -6.224009,7.38019 -0.691389,0.52635 -0.314786,-1.03308 -0.35041,-1.21283 z m 2.3718,0.4362 c 2.193659,-3.10022 5.016669,-5.69359 7.626929,-8.43985 -2.55582,2.99571 -5.27691,5.84964 -7.80206,8.86903 l 0.175133,-0.42918 z m -4.232614,-3.74349 c -0.872351,-2.57024 -1.386327,-5.21534 -1.906871,-7.86465 -1.006393,-2.36416 -1.351833,-4.86328 -0.474657,-7.3435 0.138995,-1.87844 1.649234,-4.64804 0.979925,-5.91526 -1.316561,1.72158 -1.367965,6.29238 -2.588596,6.75109 -1.175952,-3.74519 -2.501771,-7.45286 -4.005368,-11.07731 -1.263275,-1.05013 0.474591,2.66113 0.580747,3.51915 1.743005,5.35928 3.18758,10.81961 4.917858,16.17579 0.471693,1.44424 1.782892,4.49008 0.97495,5.18807 -1.799687,-3.94753 -3.481515,-7.9623 -5.208304,-11.94693 -0.855522,-2.3061 -2.44758,-4.38237 -3.390101,-6.73168 -0.284632,-1.12386 -2.798974,-5.42879 -1.673562,-2.16967 0.212487,1.11346 2.226582,4.65889 1.565177,4.43806 -0.999069,-1.05773 -4.113275,-3.32225 -1.728783,-0.65297 2.143039,1.84091 3.713082,4.07124 4.576994,6.76801 0.513537,1.19425 2.313105,4.46694 -0.257907,3.08204 0.517909,-2.2232 -5.027816,-0.32649 -4.867366,-3.33562 -2.068111,0.43101 -2.206674,-1.21008 -0.476219,-1.81406 0.219007,-0.67597 -1.675594,-3.0795 -1.522999,-1.42623 -0.648416,-1.05122 -5.56064,-1.28481 -2.828682,0.29757 0.993862,0.37521 -1.496471,1.91779 -1.318567,0.23322 -1.32423,-0.97017 0.797963,-3.53826 0.264468,-3.73477 -1.103014,-3.04424 4.082008,-1.29909 3.024356,-4.14711 1.202249,-2.68618 -2.91653,-1.97373 -2.184211,-0.0538 -2.020301,-1.4515 0.627946,1.73668 -1.171598,0.94969 -1.928321,1.77392 0.253458,-1.51903 -1.258874,-0.0503 -0.80455,0.88994 -0.909183,2.5113 -2.085304,2.19942 0.593813,-1.36585 2.918689,-2.85192 1.549218,-4.11192 1.60564,-1.14198 -2.379701,0.41268 -0.810782,-1.54033 -0.710502,-1.30842 2.934181,-0.58505 1.122921,-0.15754 2.699215,0.0553 0.992027,1.67707 0.810055,2.25186 1.089651,0.80808 0.962534,-3.04013 2.235702,-1.74668 -0.778003,-1.39295 -0.807129,-0.98384 0.105183,-1.47155 -1.331099,-0.99442 -3.948348,-2.02416 -1.911242,-3.04972 1.179826,-0.69739 2.955085,-0.55886 3.765472,-1.60866 0.250502,-0.27154 -1.191605,-1.71159 0.720258,-1.98437 2.216469,-1.19004 0.663739,-4.50323 0.660951,-6.55872 0.780872,-1.50677 -1.887978,-1.25108 -0.877604,-1.94019 1.157869,0.34418 1.50966,1.91038 2.512708,2.25364 -1.693115,-0.35663 1.989905,3.53007 0.605225,0.53247 1.723545,-0.54569 0.06059,-3.54026 1.562981,-3.79131 0.324713,0.99285 0.880165,2.27404 1.802955,1.72718 -0.299071,1.93517 1.020849,0.2281 1.605519,1.09164 -0.107124,-1.25486 1.746637,-1.57025 -0.582102,-1.8129 -1.732258,-0.2275 0.911613,-1.96099 -1.075684,-0.95281 -2.522222,0.97334 -0.960875,-2.75241 -0.216396,-1.21838 0.154303,-1.05477 3.433225,-1.75742 2.41609,-2.43646 1.797529,1.05489 2.333374,-1.58033 3.577014,-0.18713 1.078555,-1.2983 3.297135,0.19417 1.62314,0.35372 -0.878329,-0.48903 -2.447487,1.79193 -1.83487,-0.0255 -2.13979,1.81999 1.544033,1.32877 2.335861,2.43263 0.975632,0.99312 -1.509593,-1.87032 0.592126,-0.90227 0.542039,-1.15881 1.088198,1.23624 1.659225,-0.66242 -1.243811,0.20875 -1.19669,-0.6832 -0.320399,-0.31174 -0.570488,-1.28374 0.300911,-2.89857 1.076992,-1.8113 1.155346,-0.71375 1.511653,-1.09926 2.207617,-0.43839 1.411873,-1.21216 -0.911214,2.00974 0.947243,0.87112 2.17598,0.81942 -3.365744,2.56617 -0.382069,1.73567 1.463539,-0.69202 2.653679,-0.76316 3.969729,-0.14679 -1.51306,-0.966 0.27273,-2.25909 1.00299,-0.80023 -1.39824,-3.23283 3.2048,1.30601 0.58307,2.01566 0.10838,0.26159 0.5986,1.1649 0.91846,-0.11633 -0.60163,-1.72778 1.53512,0.20186 -0.0601,1.16678 -1.18887,1.51664 1.63054,1.13738 -0.0435,0.5678 0.69215,-0.87962 2.03738,-1.60065 1.69762,-0.58556 0.31932,-1.92529 2.4961,-1.25988 1.01328,0.1773 -0.65056,0.96361 -1.6937,2.80733 -1.38794,1.35116 -1.28408,1.0786 1.98797,1.93297 -0.0934,2.63225 1.62558,0.12532 0.79112,0.54939 0.93435,1.01834 1.85254,-1.20165 2.37599,-2.98366 3.67167,-4.58006 0.52597,0.1665 2.85653,-0.83522 1.68418,0.51609 0.80982,0.50115 -2.94369,4.02545 -0.45394,2.24203 1.55847,-0.79647 2.46057,-0.4856 0.80413,0.67693 -0.81652,0.70962 -1.90353,1.32034 -0.46854,1.42026 1.08806,-0.303 1.98362,0.0327 0.9304,1.21959 0.82622,1.24299 2.29403,-0.13726 0.63885,-0.0455 0.23083,-0.80239 1.56341,-0.84622 1.34974,-1.25485 1.28172,-0.0175 1.74823,-0.0123 0.27087,0.77362 1.22287,-0.0724 2.36041,0.63428 3.02144,0.90393 1.38881,0.17105 -2.22093,3.05961 -0.39901,3.41417 -1.06211,0.76266 1.14513,1.50732 1.7647,0.9052 -0.5248,1.73755 2.32216,0.71207 0.13432,0.66156 1.52595,-0.78253 -1.0263,-3.47181 1.70523,-3.63773 -0.0943,0.54998 -1.66002,0.93411 0.15554,1.17808 0.0301,1.6054 2.37685,3.03523 -0.57838,3.09672 -2.52021,0.65673 1.67527,3.68029 0.18524,3.80029 1.37264,1.21639 0.44462,4.35424 0.38301,5.05388 -0.7028,0.37089 -1.06538,1.83195 -2.33673,0.35571 0.0166,-0.0301 -2.76104,0.87681 -0.98489,1.6108 0.17805,1.12621 -1.56175,2.23383 -0.90292,0.58117 -1.54447,-0.11357 -0.56049,3.18616 -0.50187,4.38862 -0.8981,1.23545 1.12959,0.1369 -0.22421,1.19864 -0.14593,1.14581 -0.27157,3.17288 -1.58102,2.37412 -1.315,0.61355 -3.50747,3.51999 -3.55253,2.40913 1.13145,-0.22652 -2.49988,-0.91024 -3.1942,-0.14939 -1.5685,0.91092 -2.12393,0.35228 -1.03067,-1.10553 1.3164,-2.78051 1.86123,-5.98463 4.14218,-8.22857 1.04706,-1.5081 3.93809,-4.06456 3.72169,-5.01148 -1.73839,1.28948 -3.12462,3.30283 -4.82843,4.4237 0.40841,-1.6742 2.15492,-5.82388 1.70581,-6.25878 -2.65696,5.09022 -3.58689,11.06261 -7.20951,15.62687 -1.36821,1.91351 -3.24085,1.64798 -4.94853,1.64043 1.25264,0.15141 0.50253,1.9331 -0.69806,0.90925 -0.58202,0.5619 0.27386,-1.49045 -1.00835,-0.0399 -1.226496,-1.6672 0.66272,-4.5367 1.06887,-6.52638 1.82877,-4.95136 2.46585,-10.23795 4.13785,-15.22646 0.6567,-1.10763 2.53338,-5.41636 0.35018,-2.56047 -0.91114,1.15724 0.81639,-4.94582 -0.44475,-2.05848 -1.49874,4.26163 -2.11247,8.77394 -3.48544,13.06442 -1.15024,-0.66302 -1.535037,-4.30595 -2.546787,-5.98407 -0.23447,-1.04865 -1.81414,-3.90193 -1.034922,-1.17345 1.006816,3.19467 2.053591,6.41296 2.624879,9.7135 -0.696128,4.33082 -2.708427,8.34149 -3.582731,12.63268 -0.873682,1.3702 -0.954442,5.18297 -2.043179,4.9762 l -0.182377,-0.48374 -0.183249,-0.59071 z m 1.64166,-2.31511 c 0.405934,-1.3426 1.613424,-3.46907 -0.550795,-3.20881 1.067486,-0.14015 1.977343,-1.03062 0.64551,-1.18921 -0.828365,0.67483 -2.301003,2.18227 -1.281909,0.26759 -2.844409,-0.53972 -0.901868,3.09856 -0.605692,5.02947 0.252539,1.56931 1.065153,2.84811 1.346627,0.51371 0.150524,-0.47036 0.299208,-0.94132 0.446259,-1.41275 z m -3.580217,-0.94899 c -0.02129,-1.51614 -1.953807,-3.53707 -0.879441,-0.82032 0.368955,1.38462 1.870205,4.14307 0.986128,1.20843 z m -8.396685,-6.8027 c -0.218563,-2.26413 -2.444143,1.00284 0,0 z m 33.012945,-4.57243 c 1.31791,-0.92556 -2.89714,-1.6532 -0.84422,0.13792 0.19597,0.4166 0.61885,-0.17701 0.84422,-0.13792 z m -35.508981,-1.23677 c -1.761317,-0.73634 -0.43547,1.58722 0.314991,0.23199 l -0.314991,-0.23202 z m 0.09106,-6.63293 c -1.738871,-2.82036 -2.26952,2.5828 -0.0017,0.38916 l 0.0017,-0.38912 z m -3.115533,-4.28445 c 1.465321,-0.064 1.785226,-1.53443 1.84942,-2.11235 1.499504,-0.9364 -3.004366,0.13194 -1.489288,0.45806 -1.320188,0.80171 2.576363,0.005 0.205234,0.9945 -1.59948,0.17724 -2.933959,1.53727 -0.565366,0.65979 z m 4.098374,-6.84245 c -1.20078,-2.27684 -0.907337,1.0583 0,0 z m 36.08903,-1.19693 c -1.20311,-1.02531 -1.71071,0.7228 0,0 z m -7.70727,-2.46166 c -1.05871,-0.27943 -2.94976,1.64543 -0.75197,0.73268 0.25458,-0.19842 0.71169,-0.36107 0.75197,-0.73268 z m -26.50044,-0.13892 c -0.946722,-2.13248 -0.728437,1.71528 0.0722,0.42376 z m 5.324525,-2.4333 c 0.609554,-1.24125 -0.636716,0.23975 -1.043022,-0.59274 0.67057,0.95267 -0.737565,1.75176 1.043022,0.59274 z M 97.775,182.93786 c -1.499929,1.0503 -1.615344,2.65163 0,0 z m -4.7625,-0.008 c 0.455228,-0.72571 -0.880237,0.16353 -0.789695,-0.0661 -0.1076,0.65046 0.631387,0.45302 0.789695,0.0661 z m -4.394732,-1.24549 c -1.989403,-0.75951 -1.52128,1.83527 0,0 z m 16.887472,-0.78739 c -1.31856,-0.62831 0.48747,1.7581 2e-5,0 z m -7.82571,41.58809 c 0.181326,-1.62197 1.157944,-2.84049 0.345545,-0.45618 -0.09219,0.432 -0.663061,1.98003 -0.345545,0.45618 z m 6.44151,-1.4571 c 0.90155,-1.33858 1.3421,-1.19106 0.22448,0.022 -0.45182,0.47834 -1.0799,0.85701 -0.22448,-0.022 z m 12.50078,-4.36374 c 1.39922,-1.53453 0.80103,0.96283 -0.1887,0.37372 z m -37.10307,-4.15774 c 1.751856,-0.76091 -1.395196,-0.82981 0.629255,-0.9618 1.055956,0.4351 -0.269645,2.04936 -0.629255,0.9618 z m -4.489502,-3.39846 c 0.83862,-2.33657 1.148534,-0.40387 0,0 z m 41.663462,-21.0188 c 1.93741,-1.0319 1.75948,1.08591 0,0 z m -6.68008,-5.09323 c -0.97748,-1.2935 0.0273,-2.03855 0.3296,-1.98437 -0.10851,-1.45415 0.91084,1.05581 0.92222,-0.72494 0.25879,1.70065 3.51652,-1.93546 2.74797,0.85723 -1.20966,0.5553 -0.27549,2.33265 -1.43207,0.73659 -0.87992,-0.14803 -1.70675,2.17439 -1.57616,0.91701 0.81227,-1.33091 -1.59361,-0.42311 -0.59435,0.77008 l -0.15212,-0.13305 -0.24509,-0.43864 z m -8.33503,-2.73234 c -0.53153,-1.37101 1.76334,-0.57754 0,0 z m 2.12167,-1.6401 c 0.62826,-0.94316 -0.22896,-0.62857 -0.18508,-1.56043 1.6975,-0.77538 0.63555,2.7693 0.18508,1.56043 z"
         id="path3902" /><path
         style="fill:#81a97d;stroke-width:0.264583"
         d="m 102.5375,224.73437 c 0.9123,-1.01478 2.30117,-2.06736 0.55057,-0.29232 -0.82768,0.94746 -2.80162,2.6155 -0.83656,0.58464 z m -9.684099,-0.85996 c 0.277728,-2.72078 0.504296,3.54227 5e-6,0 z m 9.684099,-0.99212 c 2.2476,-2.28777 -0.5937,1.21336 -0.59505,0.65402 l 0.25698,-0.29446 z m -10.426454,-2.15591 c -0.802728,-2.11496 -1.329408,-0.0241 -0.918353,0.15086 -1.216781,-3.17703 -2.822181,-6.25806 -4.039635,-9.39589 -1.809614,-2.81774 -2.858866,-6.07232 -4.745621,-8.83968 -0.102693,1.57354 1.093224,3.35715 1.629785,5.00257 1.053774,2.00822 -0.488982,0.17188 -1.292464,-0.45314 -0.846091,-0.98889 -2.317231,-1.29635 -0.840446,0.0913 1.482678,1.18747 3.31723,3.09891 1.496743,4.6113 1.114414,-0.75313 2.497815,-1.75412 2.449782,0.41286 0.565143,1.5956 -3.266517,-0.0985 -2.628236,-1.32908 1.133261,-2.26325 -3.739245,1.47264 -2.307563,-0.73454 2.018193,0.49855 1.483459,-2.42625 -0.102401,-0.74607 -0.569186,2.44222 -2.664289,0.36064 -4.197396,0.60581 1.398583,0.0335 2.496833,-3.02067 0.904027,-0.99392 -1.105381,1.06635 -0.442046,-0.79774 -1.450899,-0.48667 1.748202,-0.54784 0.420307,-3.76614 2.307126,-2.03819 0.05483,-1.30802 1.419558,-0.23843 1.121588,-1.53375 1.908775,0.11514 -0.457537,-1.49847 1.700574,-1.07176 0.717078,-0.85277 1.281939,-3.23658 -0.07709,-3.48193 0.747799,-0.76094 1.132523,-2.36683 0.184144,-1.10678 -1.360532,-0.14056 -4.282268,2.93757 -2.728887,0.31429 0.606755,-0.41522 2.439628,-2.16295 2.069518,-3.47257 0.333487,-1.10433 -0.105037,-2.04393 -0.883238,-0.85953 0.112786,-1.05633 -0.01269,-0.6269 -0.592099,-1.09444 1.048493,-0.65084 1.614031,-1.48247 1.936272,0.0894 -0.204164,0.14668 0.113067,-4.43343 1.097427,-1.84157 -0.523205,1.32171 1.486948,-1.18767 1.632325,-1.75918 -2.447514,2.12679 -2.808414,-1.96047 -2.945231,-3.84197 0.688572,-0.51016 0.464135,3.89788 2.58644,2.38058 0.602718,-0.5455 2.853928,-1.15741 0.939809,-1.73324 -0.904436,-0.97811 -0.823705,-4.39741 0.146127,-1.98993 0.374601,1.03651 2.620059,0.78792 1.861245,2.23149 1.527755,-1.57656 1.572999,0.93661 3.148496,0.8303 0.978155,0.37816 -0.549412,-2.03227 1.09754,-0.4753 -0.347774,1.32133 -0.212625,1.25757 0.462119,0.40094 1.28544,0.33175 0.154943,-2.20656 0.821586,-1.9755 -1.672711,-0.72623 -2.989348,-1.18528 -1.788662,-1.59762 -1.630255,-0.0945 -0.185803,-2.08008 -1.558276,-0.21133 -2.367134,0.66325 -1.482252,-1.33047 -0.165375,-2.10052 0.01685,-1.84919 3.145301,-1.56891 0.998772,-0.15081 -1.1516,1.03462 -0.660803,1.37408 0.369069,0.28221 -1.022638,1.87633 2.277437,0.11621 0.933907,2.22149 0.745204,0.54585 3.187829,-2.23871 2.588201,-0.43237 -0.367073,0.92014 1.945353,-1.76014 1.559189,0.59818 2.46477,0.0371 3.270693,-3.74453 5.964405,-3.86198 1.60652,0.5899 4.62888,2.59241 3.5876,4.46167 0.951,0.68535 2.45069,-2.45532 2.31762,-0.0383 -0.7858,1.19064 2.3014,0.72947 0.3114,1.32468 0.41282,0.98114 1.05149,0.9273 1.17195,2.08155 1.41731,0.28153 4.68096,-0.47609 4.5886,0.24211 -1.66529,2.26586 0.63196,-0.13833 1.27699,-0.46819 -0.0513,0.84419 -0.76414,0.9493 0.33419,1.02229 -3.16377,0.90666 3.01,0.70243 3.70417,1.03337 0.90316,-0.29763 0.11323,1.75686 1.46736,0.58538 -0.008,0.98235 -1.82714,1.21632 -1.29599,2.06046 -0.93967,0.85983 0.78502,5.76145 0.23594,1.92599 0.48588,-1.25779 1.95934,1.32852 2.3914,-0.42599 0.47007,1.97668 1.89566,3.76793 1.77174,5.30735 1.0561,0.39391 0.31063,3.57223 0.37484,4.52257 -1.64678,-2.12893 0.33493,1.64627 -1.81689,0.47614 -2.73824,-0.60094 -3.3594,2.07138 -4.07044,3.97127 -1.5985,-0.15614 -1.59706,2.2085 0.0864,1.33391 1.79123,-1.627 0.37755,2.67237 0.8075,3.46259 -1.46672,0.96098 -3.16474,3.13403 -4.51582,3.45262 -1.57673,-1.48046 -6.45985,1.97949 -4.48651,-1.44393 1.25886,-2.66238 1.81682,-5.70321 3.99878,-7.85239 0.9591,-1.47484 3.96029,-4.01964 3.61439,-4.99567 -1.75656,1.25458 -3.11228,3.27646 -4.79632,4.41186 0.48098,-1.95415 2.11126,-4.97669 1.72722,-6.39619 -1.98552,4.13686 -3.21669,8.6328 -5.27304,12.75781 -0.83704,2.48002 -3.08017,4.8151 -5.90021,4.3364 -2.3911,-0.45939 0.10805,1.15046 -0.57129,1.34062 -0.89685,-0.6501 -1.65657,-0.53716 -2.203109,-0.50733 -0.737206,-2.8099 1.353839,-5.56645 1.823279,-8.33248 1.46562,-4.45805 2.04379,-9.17359 3.72428,-13.55687 0.61589,-0.85242 2.38172,-4.66364 0.33889,-2.46534 -1.47116,2.84265 0.68155,-5.25595 -0.81638,-1.42384 -1.3916,4.24923 -2.04505,8.73463 -3.55964,12.92679 -1.14619,-2.84439 -2.008907,-5.86754 -3.466703,-8.59253 -0.194481,2.21425 1.375965,4.68827 1.73922,7.05347 0.913433,2.48678 1.114933,5.1436 0.05945,7.6309 -0.982858,1.73548 -0.81156,6.62362 -3.419585,5.82402 -1.01313,1.97716 -1.380952,-0.0522 -2.747919,0.61069 -0.204885,1.29287 -0.09434,2.82628 -0.352581,0.70904 -0.391851,-2.88961 -2.190773,-5.68405 -1.1077,-8.63772 0.143968,-2.13119 1.8206,-5.23368 1.130978,-6.72471 -1.262449,1.92824 -1.493927,5.54701 -2.50264,6.80934 -1.367894,-3.76672 -2.417709,-7.66618 -4.116868,-11.30596 -1.372583,-0.32159 1.004947,4.05659 1.107066,5.36485 1.634477,4.90566 2.829634,9.9575 4.550589,14.82814 0.358099,0.30997 0.424733,2.10555 0.03349,0.68524 z m 24.928924,-7.74943 c -0.20617,-0.92183 -1.25858,1.1004 -0.18376,0.27925 z m 4.68395,-9.60768 c -0.58843,-1.00574 1.76487,1.32509 0.81924,-0.59958 -0.40074,-0.5699 -2.88607,-0.0627 -1.35622,0.45268 0.005,0.50146 0.76598,1.31246 0.53698,0.1469 z m 0.15122,-1.71429 c 0.83186,-1.28259 -2.78927,-2.1578 -0.45141,-0.62185 0.31103,0.75039 -1.75197,-0.0985 -0.27767,1.1921 0.36068,0.42399 0.679,-0.38838 0.72908,-0.57025 z M 96.1875,186.75105 c -1.706656,-1.14295 -0.575024,1.1952 0,2e-5 z m 0.672441,34.17998 c -0.466197,-2.56072 0.714403,0.67908 5e-6,0 z m -9.811274,-3.6603 c 0.08406,-1.94646 -5.039664,-0.88201 -4.052414,-1.84264 1.774814,1.28004 1.196861,-2.01451 -0.35357,-0.3919 -0.892629,-1.21711 -0.749775,-1.7214 0.02675,-1.15478 1.818434,-2.05825 4.512695,-0.2673 5.00627,2.18775 0.783003,0.48514 -0.46447,2.95888 -0.627034,1.20157 z m -10.795739,-5.75026 c -1.270458,-0.72096 0.131871,-2.06155 0.138049,-0.41415 0.853523,0.58963 1.054176,1.47878 -0.138049,0.41415 z m 5.560735,0.009 c 0.158872,-2.30417 1.293174,1.04863 0,0 z m -2.50658,-8.99371 c 0.459144,-0.86768 -0.184579,-2.72434 0.905861,-0.89197 0.129358,0.60261 -1.066914,2.61605 -0.905861,0.89197 z m -3.688303,-3.99128 c -0.667161,-0.91724 3.868906,0.15934 1.518724,-1.29441 0.467795,-1.32614 1.042038,-0.45173 0.383069,-0.18702 2.991872,1.01619 -1.5788,1.97215 -1.901793,1.48143 z m 47.15935,-4.36955 c -2.07144,-0.45581 0.35028,-1.99782 0.46456,-0.41223 0.24736,0.16175 -0.67336,1.14818 -0.46456,0.41223 z m -12.64354,-6.26802 c -4.3e-4,-2.54787 1.94621,-0.91192 0,0 z m 1.39874,-1.14031 c 0.62244,-0.89503 2.50963,-1.5355 0.92604,-0.26459 -0.44977,-0.13825 -0.53718,1.12108 -0.92604,0.26459 z m -3.87746,-2.33594 c 2.24306,-3.45729 -0.47943,1.87114 0,0 z M 85.604167,183.4593 c -0.05523,-0.72949 -1.608799,0.48161 -0.532656,-0.59261 1.887745,-0.71673 1.961983,1.91961 0.532656,0.59261 z m 23.191533,-0.36178 c -1.07223,-1.31147 1.7777,0.10679 0,0 z m -18.434,-0.20982 c 0.364984,-2.36585 0.882735,-0.85933 0,0 z m 7.97255,-2.11048 c 3.20364,-1.66807 -0.283073,1.2423 0,0 z"
         id="path3900" /><path
         style="fill:#79a374;stroke-width:0.264583"
         d="m 102.79103,224.53594 c 0.70298,-0.90084 2.05032,-1.7961 0.47143,-0.29491 -0.65893,0.61272 -2.38983,2.2899 -0.88358,0.73403 0.13738,-0.14637 0.27477,-0.29275 0.41215,-0.43912 z m -12.159592,-5.12068 c -0.889653,-2.53488 -2.383892,-4.82996 -3.124071,-7.42153 -2.042004,-2.92021 -3.078008,-6.42214 -5.090115,-9.35206 -0.474036,1.47429 2.252537,5.02144 1.49432,5.56455 -0.709883,-0.9037 -3.508337,-3.55302 -2.127269,-1.02094 0.948268,0.96831 1.928879,1.90421 2.893822,2.8558 -1.275968,-0.16121 -2.802591,0.84274 -2.542249,-0.97309 -1.21496,-0.5597 -2.08334,1.74533 -1.838014,-0.60596 -0.501445,0.89001 0.273571,3.2978 -1.654619,1.84803 -0.570401,-0.33166 -0.773131,-3.63547 0.761948,-4.95865 0.02088,1.76718 0.998255,-1.04087 1.347868,-0.22409 1.000433,-1.52761 1.795353,-3.99767 1.082071,-6.31283 -0.679206,0.25291 0.528542,1.52872 -0.804845,0.23263 0.44566,-2.06094 -3.268602,1.30472 -0.80357,-0.92162 0.925507,-0.59371 0.858351,-2.98243 0.918106,-0.83816 1.17392,-0.34785 0.141501,-2.63487 -0.436186,-1.43601 0.05643,-1.98764 1.594941,-2.52671 2.514281,-3.79357 0.742742,-0.5409 3.073514,-1.46685 0.985527,-1.94997 6.42e-4,-1.29442 0.526362,0.52896 0.464502,-1.15241 1.650762,0.3271 0.449328,-4.10739 1.571504,-1.24212 1.567848,-0.10409 3.032179,3.56804 4.746934,1.36795 0.317145,-1.14763 1.335548,1.44943 1.270745,-0.65764 -0.238669,0.009 -0.255212,-1.40454 0.415537,-1.88907 -0.430122,-0.56433 -4.520069,-0.70476 -1.477758,-1.31129 0.886876,-0.66311 1.623307,-1.16557 2.341864,-0.4842 1.275545,-1.56228 1.468974,1.12522 0.26449,0.37898 2.670484,2.06519 3.809988,-3.15884 6.351089,-3.44473 1.86038,-0.97807 2.29829,1.90919 4.09369,2.23448 0.30718,1.16005 0.40286,2.63555 1.66322,2.71405 -0.52466,-1.23365 1.3481,-2.58472 0.68295,-0.49224 0.13137,2.36246 2.91777,4.04846 4.39278,3.99187 1.05789,0.0493 1.17853,1.01292 2.27298,0.0484 0.44583,1.6454 4.42967,-0.19926 5.04098,1.36292 1.17297,1.20389 -1.31937,2.58827 -0.17681,4.62139 0.22212,2.5176 1.01969,0.8966 0.61814,-0.62815 1.59737,-0.87169 1.39908,2.04936 2.00556,1.43988 0.78078,-1.75729 1.57376,2.45128 -0.6629,1.30518 0.95179,0.81631 2.13862,1.13338 0.46042,1.81239 0.83309,1.21472 0.53901,0.87032 0.15429,1.65128 1.26509,1.42365 -0.20159,0.3234 -0.37814,0.49158 0.84914,1.01184 0.44553,3.33204 1.7992,1.6449 0.77385,2.83345 -2.84101,-0.0765 -3.76186,2.28977 -1.31976,1.15391 -0.49528,3.83181 -2.54629,3.87161 0.0109,2.12364 3.17484,-0.52606 2.09505,2.23106 -0.5096,1.34481 0.40469,2.83008 -1.55333,3.20616 -1.64176,1.22008 -2.09739,3.12236 -4.21311,1.85639 -1.56239,-0.3262 -5.15668,1.83153 -3.02573,-1.13265 1.26028,-2.71393 1.87561,-5.79299 4.12946,-7.93584 0.99698,-1.51214 3.84668,-3.90683 3.66041,-5.07419 -1.46359,0.8027 -3.87886,4.31489 -4.64945,3.89087 0.20871,-1.71836 2.07913,-4.61638 1.20395,-5.67524 -1.86842,4.73388 -3.49935,9.59281 -5.82094,14.13321 -1.03605,2.82353 -4.16661,2.7463 -6.40287,3.25141 2.17155,2.06066 -1.883125,-0.0162 -1.935207,-0.78308 1.867387,-5.47242 3.577067,-10.99947 4.719697,-16.67479 0.29654,-2.586 2.04439,-4.77298 2.52868,-7.21095 -1.03634,0.25508 -1.66186,2.53583 -1.28525,0.23981 0.30004,-1.09423 -0.12648,-3.01742 -0.58888,-0.77554 -1.25393,4.17449 -2.03719,8.47838 -3.32961,12.63807 -1.450933,-1.80413 -1.858929,-6.07854 -3.680566,-8.29798 0.0017,2.28138 1.487545,4.61459 1.812795,6.99494 0.845311,2.61948 0.987441,5.40379 -0.0654,7.99088 -0.52846,1.1699 -1.485772,6.05474 -2.131858,4.78827 -1.11818,-1.34352 -1.777543,3.07058 -2.982075,1.09022 -1.331969,-0.80162 -0.972871,2.14104 -1.468239,-0.26786 -0.991607,-2.7517 -1.743899,-5.64525 -0.6619,-8.50472 0.135819,-1.78612 1.604487,-4.50524 0.868841,-5.66729 -1.160868,2.11865 -1.652307,5.01441 -2.399979,6.97572 -1.364304,-3.77654 -2.486158,-7.69747 -4.12181,-11.38488 -1.469082,-0.90153 0.384592,2.83597 0.51616,3.78558 1.684651,5.2783 3.206868,10.62611 4.731274,15.93859 -0.309262,0.19538 -0.960794,0.12089 -1.134232,-0.24349 z m 26.458142,-6.3446 c -0.76239,-1.12569 -0.92562,1.39277 0,0 z m -37.493458,-4.60545 c -1.02908,-1.41214 0.08606,1.97015 0,0 z m 41.197628,-4.60052 c -0.38862,-1.45108 -2.53882,-0.70721 -0.52917,0.0914 0.0107,0.42291 0.60118,0.29031 0.52917,-0.0914 z M 86.6625,193.35294 c -1.33723,-0.99791 -0.783902,1.22533 0,0 z m 29.36875,-1.29461 c -0.0884,-2.46399 -0.97234,2.59724 0,0 z m -20.983855,-3.36601 c -1.161629,-0.82011 -3.142043,-1.27499 -0.855729,-0.0921 0.448246,0.40595 2.467989,0.19399 0.855729,0.0921 z m 1.044016,-1.64221 c 0.623096,-0.10993 1.761504,-1.54255 -0.01423,-0.73598 -1.187878,0.29829 -3.350424,-0.6251 -1.253618,0.68184 -0.114077,1.27571 0.76346,0.72893 1.26785,0.0541 z m -10.137343,29.0261 c -1.456306,-0.39426 -2.144384,-2.00682 -3.469337,-1.14457 -0.615318,-1.53707 2.762238,-1.56974 1.489229,-3.29414 1.002641,-0.84783 1.99346,-1.21813 0.936834,0.14454 -1.594401,1.62829 4.452658,2.40551 1.838843,4.27298 2.218472,0.47724 0.275079,0.6816 -0.795569,0.0212 z m -9.759254,-4.7484 c -1.781029,-1.54665 0.785577,-0.0958 0.913228,0.78644 -0.397392,-0.0272 -0.61103,-0.5832 -0.913228,-0.78644 z m 4.647532,-0.48364 c -0.779018,-1.14152 1.674979,0.14638 0,0 z m -3.78277,-2.24234 c -0.663433,-0.40357 1.011216,-3.33616 0.532735,-1.23619 -1.470124,1.70129 1.534914,-0.0512 -0.102048,1.42439 l -0.187078,-0.0368 -0.243607,-0.15147 z m 45.156004,-6.43374 c -0.96836,-1.44698 1.93774,-1.01735 0.16567,-0.62242 0.40716,0.26684 0.51642,1.39901 -0.16567,0.62242 z m -0.42964,-1.57675 c -1.65476,-1.61057 2.14074,0.0914 0,0 z m -40.496201,-7.93769 c -0.395366,-2.18166 1.423638,0.14847 0.332853,0.70052 L 81.44024,193.1504 Z m 0.698455,-2.38125 c 0.592218,-1.67339 1.387874,0.0691 0.381082,0.7276 -0.336104,-5.5e-4 -0.393182,-0.52246 -0.381082,-0.7276 z m 7.055556,-1.25356 c 1.343704,-1.23187 1.518578,0.94702 0,0 z m -4.361204,-1.44449 c -0.950204,-1.06715 -0.930936,-3.67876 0.05849,-1.29213 0.632564,0.39168 1.069884,2.43213 -0.05849,1.29213 z m 2.423877,-2.95623 c -0.941231,-0.67717 2.70672,-2.53944 1.237572,-0.59918 1.27229,1.14984 -0.614152,0.97811 -1.237572,0.59918 z m -1.365808,-1.01973 c 0.05495,-1.38029 1.780731,0.56845 0,0 z"
         id="path3898" /><path
         style="fill:#6c9a66;stroke-width:0.264583"
         d="m 102.80208,224.46979 c 2.2476,-2.28777 -0.5937,1.21337 -0.59505,0.65402 l 0.25698,-0.29446 z m -12.170642,-5.06495 c -0.835749,-2.52321 -2.407118,-4.77758 -3.02769,-7.36951 -2.125196,-2.89492 -3.162149,-6.43372 -5.17376,-9.39366 -0.612651,1.44863 2.253799,4.99948 1.493506,5.58767 -1.154334,-0.59712 -2.238414,-3.60161 -2.941234,-1.867 1.069002,1.2342 5.193271,4.25946 1.330622,3.71417 -0.07359,-2.95022 -2.292906,0.36544 -2.757029,0.66451 -1.141899,-1.26045 -1.74923,-6.20387 0.15733,-4.13972 -0.03214,-1.41786 1.147945,0.45194 0.886228,-1.19531 -0.265821,-1.49903 1.850058,-1.27545 1.456701,-3.31388 0.943821,-1.65892 0.113127,-3.5917 -0.949856,-3.62976 -0.09966,-0.98228 -0.55888,-1.59536 0.513906,-1.00584 0.33614,-1.96323 -0.612459,-2.68356 -0.315466,-3.77936 1.769978,0.42074 1.263763,-1.87048 3.061251,-0.96429 1.102865,-0.64454 2.702864,-0.22568 0.52994,-0.86094 -0.476581,-0.2765 1.109732,-0.63708 0.416176,-1.23175 0.527359,-1.01898 -1.681053,-1.918 0.277973,-1.69193 -0.802677,-0.9032 1.007421,0.0606 0.228018,-1.08872 0.756779,0.0704 2.262262,0.78775 0.844458,1.01555 1.052788,0.48145 2.170975,0.20143 3.15303,1.45147 1.220832,-0.4741 2.671121,-0.87611 2.613361,-1.68775 1.245153,-1.09995 3.401987,2.09075 3.685895,-0.74042 -1.30447,1.87768 -2.133939,-1.14235 -3.604455,-0.006 0.08655,-1.68016 2.120829,-1.28077 2.24987,0.15205 2.536914,-0.0811 2.834055,-4.61673 5.328577,-2.73431 1.7168,-2.12777 -1.436552,-2.60617 -1.070556,-1.25611 1.358956,-0.16293 0.580284,1.85815 0.185232,0.40811 -1.506836,0.72882 -1.285242,-1.50253 -1.789649,0.4261 -0.921625,-0.67389 2.856893,-4.85758 4.652573,-2.90041 0.4665,0.10491 -2.732958,0.0278 -1.13417,1.36668 -1.021631,0.78734 1.18755,0.72809 -0.15781,1.75737 1.04617,-0.38509 1.93243,-1.97933 1.81604,-0.2259 1.29027,-0.27998 -3.118646,1.65798 -0.0694,0.74612 1.87514,-0.2747 0.17177,-1.47123 0.3884,-2.31199 -0.39811,-1.65527 0.78008,1.70174 1.13302,1.12984 0.73559,-0.0669 0.57156,1.98803 1.26934,2.06752 -1.36487,0.83919 2.38405,0.01 2.15373,1.91383 1.11511,1.73153 4.29195,1.45428 4.30972,2.46117 1.91645,0.004 5.39158,-0.8122 6.42511,1.14093 0.96029,0.72032 -1.36788,-0.40312 -0.16284,1.12513 -0.32104,0.92552 -2.43179,0.53975 -0.68342,1.32034 0.99332,-0.62566 -0.10943,1.2216 0.27293,1.43115 -0.0704,0.7537 1.49845,2.53042 -0.24332,1.05379 0.61673,1.01583 0.60646,2.25188 1.4741,2.96009 -0.66062,-1.05168 0.26577,-1.74313 0.7417,-1.49931 -1.74956,-0.78352 0.20648,-3.96813 0.14525,-1.63326 -1.12737,0.4583 1.48262,2.57383 1.23559,3.12178 -1.30851,-0.70765 0.47456,2.9038 -1.87272,2.63218 -1.14389,0.42851 0.51376,0.677 0.58929,1.60168 0.47944,-0.73936 2.19338,1.24754 0.4464,0.87868 -3.09346,0.38626 -2.12174,4.40952 -4.32833,5.24474 0.0753,1.34709 3.18198,0.62177 1.72035,2.51195 0.86113,2.97578 -2.90743,2.69108 -3.37458,5.09391 -1.55829,-1.08988 -4.2293,-0.80163 -5.70517,0.0531 0.94998,-2.32777 1.83696,-4.71472 2.85764,-7.0178 1.71756,-2.76716 4.29097,-4.93288 5.86922,-7.78346 -1.68741,0.62134 -4.05172,4.39787 -4.92101,3.96045 0.31511,-1.79588 1.78915,-4.23792 1.30707,-5.72691 -2.40091,4.83107 -3.45855,10.2892 -6.42147,14.83724 -1.14912,2.37186 -4.24988,1.66511 -5.87285,2.65306 2.05202,1.96127 -2.689933,-0.37868 -1.603227,-1.53647 1.689667,-5.53821 3.331317,-11.09518 4.582347,-16.75404 0.006,-2.13946 2.74739,-4.96452 1.95307,-6.41856 -0.9522,1.43336 -1.2185,1.75799 -0.88976,-0.0847 0.29278,-3.79977 -1.22754,1.21069 -1.47275,2.50225 -0.97402,3.24334 -1.43415,6.67704 -2.71057,9.80628 -1.143141,-2.80263 -1.847627,-5.85867 -3.313792,-8.48216 -0.38082,2.2628 1.386798,5.09644 1.784655,7.56645 0.196036,1.33164 0.878897,2.6891 0.797557,4.02125 -0.851603,2.68225 -1.368444,5.53313 -2.754607,7.9954 -1.632273,-0.16708 -2.571895,2.40559 -4.30885,0.90068 -0.491954,1.04737 -1.123567,-2.43519 -1.549785,-3.35932 -0.736161,-1.4062 0.140678,-2.92455 0.263201,-4.38097 0.01096,-1.83387 2.074979,-5.47771 0.942995,-6.19049 -1.342296,1.71873 -1.495017,6.1141 -2.572737,6.56794 -0.61658,-2.85804 -2.077126,-5.49451 -2.55143,-8.37137 -0.27547,-0.40154 -2.515215,-5.2316 -2.326084,-2.58361 1.729216,3.31521 2.354044,7.10123 3.594353,10.6182 0.964705,2.97696 1.713051,6.12481 2.61864,9.0555 -0.34123,0.0611 -0.977047,0.1148 -1.126028,-0.29883 z m 23.340472,-4.37626 c -1.31857,-0.62832 0.48746,1.75811 2e-5,0 z m 3.11586,-1.93587 c -1.61853,-1.85722 -0.68263,1.39163 0,0 z m -36.679545,-3.90935 c 0.432194,-1.38541 -1.399222,0.34829 -0.413069,-1.34867 0.02003,-1.50081 -1.926814,2.43285 0.190435,1.84963 l 0.222634,-0.50058 z m 4.545784,-10.75674 c 0.841109,-2.961 -1.545105,0.80564 0,0 z m -0.741823,-2.14722 c -1.626111,-1.79125 0.516346,2.06814 -3e-6,0 z m -0.993222,-1.03385 c 1.818939,-1.82477 -2.777898,0.78869 -0.527163,0.34137 z m 4.518882,0.26848 c -0.616197,-0.80705 2.300359,-1.86728 -0.26607,-1.11551 -1.453793,0.56296 0.372449,2.00518 0.26607,1.11551 z m -1.075346,-1.9878 c -0.667554,-1.42821 -3.34234,0.73135 -0.64344,0.41334 0.258329,0.38001 0.693534,-0.11191 0.64344,-0.41334 z m 2.518645,-0.36036 c -1.727719,-0.81856 -0.912872,1.07334 0,0 z m 26.850105,-0.44608 c 0.45157,-0.63458 1.41333,0.49832 0.50538,-0.90673 -1.41067,-1.49801 -0.64385,1.79353 -2.35581,0.46907 -0.67916,0.76089 1.88316,1.09947 1.85043,0.43766 z m -27.524329,-0.38654 c 0.766508,-1.51194 -1.701636,0.96376 0,0 z m 15.038419,-3.42593 c -0.36722,-0.65071 -3.40329,0.88165 -0.73647,0.39642 0.25491,-0.0793 0.59687,-0.12836 0.73647,-0.39642 z m -17.147423,26.68894 c -1.21611,-0.0452 -2.162942,-0.33172 -3.037234,-1.0098 -1.991601,1.13662 0.07199,-1.72223 1.122955,-1.74799 1.158686,0.25981 3.759586,1.80021 2.471753,3.03236 l -0.393716,-0.0807 z m -2.254674,-3.43884 c 1.193264,-2.75833 1.762985,-0.45655 0,0 z m -3.300897,-1.31325 c -0.779018,-1.14152 1.674979,0.14638 0,0 z m 40.598614,-5.84431 c 0.16347,-2.27143 1.94486,1.37708 0,0 z M 84.555141,187.31323 c -1.295034,-2.75941 1.71706,0.92293 0.244419,0.32939 z m 21.329199,-1.20036 c 0.92672,-3.57865 1.03016,1.63533 0,0 z m -15.25309,-0.27295 c -0.90757,-0.6614 1.692273,-0.52136 1.928201,-1.4545 2.964016,1.82035 -0.469922,2.11884 -1.928201,1.4545 z m 3.571875,0.133 c 0.591458,-0.94197 2.288679,0.71506 0.30979,0.18686 z"
         id="path3896" /><path
         style="fill:#51884a;stroke-width:0.264583"
         d="m 90.466108,218.89828 c -0.763018,-2.30286 2.431142,1.4136 0.252748,0.55999 l -0.252748,-0.56004 z m 3.393059,-0.43453 c -0.497971,-1.44731 -0.775796,-0.77794 -0.788296,-0.0794 -1.412883,-2.6881 -1.821557,-5.78766 -0.796926,-8.68968 -0.05855,-1.49984 2.003403,-4.93219 0.686823,-5.31999 -0.860103,1.16997 -1.544508,5.72757 -3.202133,4.14629 0.530788,-1.27106 -1.201967,-1.66485 1.090071,-1.40022 -0.718205,-0.55963 -0.892869,-2.32564 -1.595384,-0.59305 -0.329295,-0.82294 -1.801184,-3.10913 0.02023,-1.51214 -1.808251,-1.66203 3.848918,-1.31075 0.906556,-2.35067 0.05049,-0.26567 -0.514092,1.8674 -0.979243,0.35095 -0.713891,-1.6253 -3.333392,-1.1296 -0.415708,-1.64603 2.257762,-0.51605 -0.888405,1.44847 1.224504,0.65193 1.306703,-1.99529 -3.14852,-0.88466 -1.767968,-2.81976 -0.05008,1.82283 4.511408,-0.96013 1.166696,-1.05404 -1.159473,-0.0898 -1.478699,0.0501 -0.251626,-0.63296 -2.092007,-0.77074 -1.464116,-1.62141 -0.24895,-2.51765 -3.292932,-0.0182 3.90774,-0.56391 0.938812,-1.34216 1.773429,-1.58586 -2.06529,-0.0941 -0.48902,-1.97067 1.928885,-0.15083 -1.299632,-1.61344 0.687398,-0.92379 0.995027,1.01715 2.216394,-2.52811 2.768927,-0.69344 0.189507,1.75169 2.815798,-1.66603 3.609374,0.64229 -0.962846,-1.17957 2.163675,-1.7811 1.949302,-1.77913 -0.559434,0.79572 1.840444,0.84767 -0.262654,1.03188 -0.03614,1.56335 4.749208,-2.04525 5.054038,0.1748 -0.57905,1.11135 -1.75942,3.03205 0.32105,2.01438 -1.50069,-1.85062 2.10813,-3.23146 4.07954,-2.58254 -1.11533,0.4181 -1.61807,1.37287 -1.13455,2.23695 1.4642,-0.0394 1.25116,-2.12484 1.57952,-0.0586 1.24218,-0.24847 2.63457,-1.89173 3.40382,-0.10918 0.71707,1.89822 1.53434,-0.68906 2.24409,1.13916 0.6168,0.63663 1.42118,2.05388 -0.20369,1.49562 0.66264,0.36834 3.80768,1.11838 1.78378,1.83286 1.00547,-1.15999 -1.84964,-1.24441 -0.23963,0.37611 -0.18351,1.92327 2.16265,3.4907 1.26746,0.76212 -0.82595,-1.34096 1.4841,-0.27973 0.92413,0.55192 1.10714,0.87443 -1.17398,1.33612 0.66354,1.36087 0.77917,0.59169 0.40899,1.492 -0.24023,0.68275 -0.0124,2.00979 -0.51973,0.72 -0.93721,-0.2029 -1.32403,-0.29213 0.61752,2.80864 -0.15096,2.97715 -0.52981,1.51155 -3.91462,4.95576 -4.31224,4.69561 0.54149,-1.81032 1.87544,-4.86744 1.46464,-6.07823 -2.60354,5.00263 -3.70914,10.76486 -6.93346,15.43335 -2.03888,1.39206 -5.02899,2.21869 -7.241154,1.53427 0.302946,-2.55989 1.681924,-5.29972 2.304214,-7.94902 1.64108,-5.06855 2.12691,-10.5123 4.61478,-15.28515 0.93839,-2.86267 -1.94605,1.98852 -1.13892,-0.55408 0.39703,-1.27709 -0.1701,-3.16354 -0.65687,-0.75325 0.0856,1.668 -1.1912,1.28108 -2.40218,1.15734 -0.98284,0.17612 -0.8115,0.9347 -1.98407,1.1968 1.74582,0.27776 4.72274,-0.58256 3.14659,2.17883 -0.70218,2.84811 -1.41884,5.69288 -2.07382,8.55235 -0.96271,-2.93559 -1.927114,-5.89484 -3.344943,-8.64226 -0.900967,1.0767 1.149687,4.72133 1.440159,6.73443 0.899844,2.50978 1.140864,5.22089 0.07455,7.71665 -0.666475,2.59839 -1.281965,5.33625 -4.350233,5.5883 -0.445524,0.39815 -0.53044,1.04395 -1.272525,0.32405 z m -0.05292,-1.93146 c -1.068609,-1.5994 -0.935282,1.5452 0,0 z m 0.568854,-1.85208 c -0.775544,-1.33855 -0.69132,1.30587 0,0 z m -1.665179,-11.64664 c 1.087855,-0.86701 -0.196582,-2.19091 -0.25884,-0.63096 -1.008747,0.63561 -1.677169,-2.06043 -1.137109,0.47544 0.140488,1.03731 0.924468,0.8718 1.395949,0.15552 z m 1.603444,-5.31003 c -0.689194,-0.24359 -1.920121,0.12939 -1.096981,-0.78701 -1.209037,0.17543 -2.543935,1.84996 -0.419708,1.14801 0.511086,-0.092 1.034828,-0.15213 1.516689,-0.361 z m 20.064084,-1.82822 c 0.23751,-2.04504 -2.03446,0.93532 -0.47741,0.0793 -0.006,1.26191 0.62357,0.94675 0.47741,-0.0793 z m -20.626855,-2.09337 c -1.485372,-1.74825 -1.334365,1.06134 0,0 z m 18.576485,0.10847 c 1.4609,-0.22233 1.16224,-0.8786 -0.19871,-0.59573 -0.32183,0.19845 -0.15021,1.40575 0.19871,0.59573 z m -13.121867,-0.92637 c 1.092017,-0.26483 3.118997,-1.74407 1.704847,-1.51683 -1.334911,0.9884 -5.926606,0.23409 -2.633408,2.17831 0.349816,-0.15953 0.634439,-0.42161 0.928561,-0.66148 z m -1.919605,-1.78561 c -3.08449,-1.38823 -0.504211,1.46803 0,0 z m 8.691472,-0.59532 c -0.84877,-1.54238 -0.81825,1.51435 0,0 z m -15.222172,27.10583 c -2.449717,-1.34984 -2.269616,-5.07173 -4.076532,-6.97446 1.383383,-0.78333 -1.25593,-3.47022 -0.02733,-1.17387 -1.569096,-0.52396 -2.295437,-4.32757 -3.512753,-6.07954 0.145812,-2.15612 -1.691076,-4.87822 -0.930466,-6.49424 0.323458,1.30018 0.798136,2.71059 1.536211,1.72742 1.567993,0.0543 0.130947,1.61367 1.290946,2.84269 1.198318,-2.56597 2.320371,2.78386 1.967032,3.86833 -0.252459,1.03648 1.285442,-0.35037 0.429097,1.04039 1.188151,1.61488 1.989368,4.82572 0.298201,2.79058 0.267875,0.77022 -1.437067,2.34423 0.156888,1.90558 0.994518,-2.17917 2.153251,2.51128 2.410441,3.48128 -0.01433,0.51903 1.432073,3.82618 0.458265,3.06584 z m -4.356994,-12.28086 c -1.07434,-2.22495 -0.143302,1.99626 0,0 z m 26.865256,11.78192 c 0.40473,-1.17382 0.69246,-1.86724 2.34216,-2.80209 -0.78384,-0.14777 -1.98508,-3.41898 -1.75956,-1.2444 -1.28192,-0.31529 -3.33044,2.25614 -3.35792,-0.27856 0.57954,-2.8538 3.12821,-4.32567 4.53063,-6.64499 0.52969,-1.18315 3.77688,-3.72584 2.17504,-0.95645 -0.27782,1.19988 1.46102,-0.84783 0.64177,0.96136 -1.30078,0.99729 0.23153,4.04779 -2.20887,3.70739 -0.16861,1.30548 -1.31947,2.22997 0.29,3.57803 0.97568,-0.19073 -0.55677,1.39311 1.24342,1.09535 -0.54529,0.69554 -2.61983,1.75752 -3.57496,2.80635 l -0.17614,-0.0393 -0.1456,-0.18268 z m -4.37572,-0.22784 c -0.21725,-1.95998 2.81049,-1.27031 2.52921,-1.90509 -1.41214,-1.60021 3.7287,0.92596 1.20127,0.59936 1.67659,1.75999 -2.99015,1.26784 -3.73048,1.30573 z m -22.338708,-1.61051 c -1.306549,-0.62868 -5.635619,-1.22923 -2.223913,-2.16202 1.153671,-0.82257 4.49663,2.71908 2.223913,2.16202 z m 29.055228,-2.52736 c -1.19384,-2.16469 2.57826,-1.71234 1.94759,-0.73938 -0.77128,-0.53673 -0.85359,0.22178 -1.60722,0.17019 0.0873,0.42776 0.56805,1.18344 -0.34037,0.56919 z m -25.113317,-1.86826 c -0.698975,-1.48816 1.217475,-2.16545 0.312572,-0.39684 0.209416,0.30043 -0.05762,1.34274 -0.312572,0.39684 z m -7.902849,-1.23326 c -0.473347,-1.27541 -2.539315,-0.70603 -1.882368,-2.16396 1.394188,-2.33819 0.536022,2.01277 1.424849,0.0899 0.992783,0.89327 3.804472,2.86412 0.457519,2.07403 z m 0.539923,-2.33238 c -0.643822,-0.96666 -1.245622,-2.17728 -1.90583,-2.57827 1.205015,0.61496 0.375301,-2.7834 1.385176,-0.54697 0.190584,1.04401 2.834186,5.67413 0.520654,3.12524 z m 38.636163,-2.29929 c -0.87803,-2.14552 1.57579,0.88663 0,0 z m -34.953295,-4.74962 c -0.37426,-2.32056 1.050942,2.15492 0,0 z m -1.280848,-2.17512 c -0.08029,-0.43801 1.970909,-1.05399 1.807688,-0.2167 1.37782,0.5432 -1.612766,0.82725 -1.807688,0.2167 z M 85.075,196.27805 c -0.479927,-0.32887 1.351122,-2.59519 0.610396,-0.55334 -0.04483,0.24302 -0.227218,0.89491 -0.610396,0.55334 z m 1.232797,-3.75879 c -0.740097,-1.38603 -0.713058,-1.07918 0.507619,-0.85302 0.49422,-1.24693 1.112245,0.68802 0.321181,0.72287 0.524368,0.44839 -1.037229,0.53078 -0.8288,0.13015 z m 21.893433,-1.82398 c -0.0236,-1.78969 3.04865,-0.22391 1.12337,-0.0946 -0.25177,0.32882 -0.8802,0.60263 -1.12337,0.0946 z m -14.342063,-1.3357 c -1.161024,-1.42248 1.75118,0.47138 0.286411,0.22424 z m 2.065813,-0.12712 c 2.027166,-2.10294 1.381522,0.8002 0,0 z m 3.966687,-0.0667 c 1.253863,-1.41191 2.146123,-0.90188 2.620813,-2.88158 0.20386,-1.97346 4.10286,0.6729 1.62144,0.2252 1.05715,0.46017 1.7226,2.65328 2.17961,0.54966 2.41966,1.36762 -0.26147,2.81205 -1.41335,1.36133 0.007,-0.13169 -1.08136,0.84842 -0.57377,-0.63075 -1.26896,0.53291 -3.21319,1.51504 -4.434743,1.37614 z m -8.334375,-3.14045 c -1.843917,0.0401 0.802745,-1.7255 0.139202,-0.32291 1.073197,-1.19364 0.868595,0.61176 -0.139202,0.32291 z"
         id="path3894" /><path
         style="fill:#45803e;stroke-width:0.264583"
         d="m 94.594973,217.86126 c 0.697755,-2.38511 -2.140135,0.8253 -0.983329,-0.95354 1.19136,-2.03557 -1.594859,0.92245 -1.442752,-1.05956 -0.676303,-1.17537 -0.880622,-2.93108 1.068184,-2.68882 -1.263454,-0.15455 -1.933929,0.005 -1.31476,-1.70826 -0.33018,-2.09225 3.237174,-0.60665 1.69297,-3.0497 -1.06897,-0.93508 2.059307,-1.53526 -0.185729,-1.42815 -0.785585,0.57162 0.218257,-5.30765 0.9279,-2.55642 1.879318,0.0681 2.936844,1.2402 4.464121,-0.0479 0.410706,1.32526 1.364202,2.75456 1.528482,4.39608 0.0958,1.14542 -0.612879,2.26605 -0.833739,3.40171 -0.810925,2.46037 -0.918193,5.68513 -4.146195,5.69977 -0.140119,0.0103 -1.441998,0.69587 -0.775153,-0.005 z m -0.08383,-2.93425 c -0.420764,-2.84014 -1.736471,1.68307 0,0 z m 1.940938,-7.78743 c -0.665362,-2.03421 -2.417254,1.17937 0,0 z m 5.082189,10.93359 c 0.65406,-1.58329 -3.02477,0.0579 -1.44175,-2.13826 1.6993,-3.75055 3.20331,3.34908 1.44175,2.13826 z m 1.5324,-0.28177 c 1.68672,-0.12635 -0.34965,-3.20516 1.04845,-1.12777 0.75248,0.98323 -1.74148,1.66519 -1.04845,1.12777 z m -13.260504,-0.92838 c -0.239834,-0.89434 -0.478582,-1.09558 0.419682,-1.27056 -0.828556,-0.0234 -1.7534,-0.28384 -0.41141,-0.58428 -0.865348,-0.63648 -2.391583,-0.75745 -1.256725,-2.45837 1.844929,-1.95344 1.394078,3.59984 2.169185,4.24706 0.261334,0.56582 -0.868971,0.4844 -0.920732,0.0661 z m 25.299044,-1.25677 c -0.38552,-1.28009 3.55222,-0.80727 0.91286,-0.11641 -0.17881,0.30842 -0.71209,0.56483 -0.91286,0.11641 z M 86.6625,215.34167 c -2.560461,-1.2755 2.272741,0.73684 0,0 z m 16.07344,-0.17523 c 1.08352,-1.22221 -3.265113,-0.95577 -1.45059,-3.0491 1.15543,-2.97201 1.5393,-6.17502 2.60853,-9.16138 0.62281,-1.2385 2.6554,-2.17703 3.05491,-1.24052 2.76874,0.5695 -0.19491,-3.57585 2.23505,-2.17281 0.9799,0.52673 -1.40943,3.39663 0.13241,1.8962 0.32515,-0.95373 1.06764,0.32305 1.2661,-0.82767 1.17955,-0.3275 3.67711,-1.68937 3.93254,-0.67297 -0.16684,0.71317 1.40349,-0.84745 0.19194,0.42746 -1.96712,0.55436 -1.60967,5.05752 -4.37507,2.851 -2.12915,-0.71887 -3.54158,1.83223 -4.92833,3.18411 -1.58358,2.07849 2.09762,-0.22516 1.46328,2.32795 1.26677,0.0527 1.50532,0.17663 1.29313,0.77117 0.66251,-0.89397 0.74312,-0.74601 1.23894,-0.10036 -0.097,-0.43056 -0.3799,-2.60517 0.71458,-1.54061 -1.32657,0.70137 1.70312,0.0445 0.002,1.03199 -0.10704,0.94349 -0.77795,3.03689 -0.89956,1.09274 -1.32922,-0.15602 0.068,2.59783 -1.55812,2.30359 0.87854,-2.03954 -4.64489,0.0231 -0.98404,-0.10819 -0.18604,1.90705 -4.86082,-0.35879 -3.39677,1.48177 0.22793,0.73445 0.78362,1.95187 -0.54136,1.50563 z m 3.93921,-1.0154 c -0.47577,-0.60945 -1.66862,-0.85101 0.26245,-0.74438 2.51066,-0.83562 -0.60287,1.83562 -0.26245,0.74438 z m 0.69414,-6.66498 c 1.95059,-1.00874 -0.80698,1.32699 0,0 z m 1.63787,-0.29779 c -0.69131,-1.46629 0.26332,-2.01335 0.41751,-0.30837 0.45323,0.28484 -0.20974,0.54095 -0.41751,0.30837 z m 6.62957,-0.90858 c 0.24044,-2.32936 2.08932,1.0158 -0.0233,0.38917 l 0.0233,-0.38918 z m -14.55581,-0.28243 c -0.21537,-2.0492 1.53531,-2.05383 0,0 z m -9.214468,-0.74302 c -1.254591,0.0125 -1.917276,-0.396 -0.268419,-0.57794 0.950148,-0.29932 1.449666,1.25901 0.268419,0.57794 z m 5.857962,-0.77996 c -1.12786,-0.38801 -2.77533,-0.92249 -0.574991,-0.99186 0.44304,-0.95509 0.586928,-0.87324 1.340931,-0.90403 0.214681,0.37602 -0.220659,2.4751 -0.76594,1.89589 z m 15.681136,-0.95382 c 0.3606,-1.53629 0.70444,-2.18822 1.53063,-0.44473 -0.63898,-0.35443 -1.10532,0.40274 -1.53063,0.44473 z m -12.33042,-1.41955 c 0.34769,-2.40132 2.4058,0.57563 0.26519,0.001 0.28275,0.16315 -0.19663,0.66356 -0.26519,-0.001 z m 1.0655,-4.47346 c -0.56391,-0.671 2.64254,0.28437 0.47588,0.16281 z m 4.74421,-1.62995 c 0.29156,-1.07791 0.0185,-3.21792 1.11322,-1.42562 0.40368,1.33636 0.76703,-2.07165 1.4522,0.0501 1.51373,1.83898 -2.26943,0.3825 -2.34987,1.60418 l -0.21559,-0.2286 z m 3.12714,-1.15994 c -1.19686,-2.07104 1.97729,1.39274 0,0 z"
         id="path3892" /></g></g></svg>
