<?xml version="1.0" encoding="UTF-8" standalone="no"?>
<!-- Created with Inkscape (http://www.inkscape.org/) -->

<svg
   width="54.208038mm"
   height="43.132278mm"
   viewBox="0 0 54.208038 43.132278"
   version="1.1"
   id="svg2817"
   xml:space="preserve"
   inkscape:version="1.2.2 (732a01da63, 2022-12-09)"
   sodipodi:docname="buissonnant-arrondi-natural_shrub.svg"
   xmlns:inkscape="http://www.inkscape.org/namespaces/inkscape"
   xmlns:sodipodi="http://sodipodi.sourceforge.net/DTD/sodipodi-0.dtd"
   xmlns="http://www.w3.org/2000/svg"
   xmlns:svg="http://www.w3.org/2000/svg"><sodipodi:namedview
     id="namedview2819"
     pagecolor="#ffffff"
     bordercolor="#666666"
     borderopacity="1.0"
     inkscape:showpageshadow="2"
     inkscape:pageopacity="0.0"
     inkscape:pagecheckerboard="0"
     inkscape:deskcolor="#d1d1d1"
     inkscape:document-units="mm"
     showgrid="false"
     inkscape:zoom="0.78395062"
     inkscape:cx="93.755906"
     inkscape:cy="51.023622"
     inkscape:window-width="2560"
     inkscape:window-height="1369"
     inkscape:window-x="-8"
     inkscape:window-y="-8"
     inkscape:window-maximized="1"
     inkscape:current-layer="layer1" /><defs
     id="defs2814" /><g
     inkscape:label="Calque 1"
     inkscape:groupmode="layer"
     id="layer1"
     transform="translate(-53.662918,-134.94059)"><g
       id="g2950"
       transform="translate(62.775,38.8125)"><path
         style="fill:#c8d9c7;stroke-width:0.264583"
         d="m 13.772917,139.04058 c -5.497526,-0.70812 -10.9672018,-2.13345 -15.9647338,-4.55211 -2.1248606,-1.03931 -3.4041576,-3.04306 -5.0142617,-4.68423 -1.456399,-1.67199 -1.7288878,-4.01443 -1.9060033,-6.07477 0.997076,0.0642 0.2969223,1.97759 0.8011436,0.22918 -1.6927628,-2.05048 -0.1862018,-4.3094 0.5134292,-6.23201 1.0235616,-1.85462 2.0554422,-3.03454 3.0717713,-4.87567 0.4819092,-0.98116 0.4711638,-1.47334 -0.2318602,-1.86109 0.025492,-1.74815 2.8095819,-1.2073 3.0448154,-2.87554 -0.9501173,-0.38859 0.623675,-1.38159 0.4431533,-0.19814 1.04769699,-0.969 2.00573283,-1.247 2.37620743,-2.04983 1.32551377,-0.83973 2.53321117,0.98522 2.92307527,-0.8649 0.2560441,-1.17098 -1.2612327,-3.86459 1.0420116,-3.11195 0.7713163,-0.78558 2.1349922,-3.621153 3.0037108,-1.34564 -2.4306747,0.11038 0.9250229,2.16676 0.8239783,0.63236 -1.4598059,-0.38486 -0.3901139,-2.953646 0.073009,-1.811347 -0.1482624,1.363107 1.8976968,-0.667949 2.0084468,0.848817 0.127484,-1.339834 1.90351,-1.727726 2.631798,-2.881599 0.537908,-0.36475 1.860462,2.378865 1.800743,0.396511 1.504828,-0.14692 4.446551,-0.427487 5.005247,-0.448424 0.02352,-1.10492 1.493127,1.365783 1.250792,-0.677162 1.035752,-0.677034 2.913341,-0.544963 4.430349,-0.133547 1.948576,0.645108 4.481838,-0.0288 6.129428,0.815437 0.917627,2.572514 3.874909,2.873114 5.732673,4.408014 1.629659,1.89342 2.3055,4.0374 3.774319,6.0059 1.661233,1.2225 2.512464,2.99316 3.148643,5.01395 0.779457,2.17327 0.297402,4.5308 -0.187717,6.41622 0.883591,1.93252 -0.07212,3.95415 -1.036279,5.3673 0.433767,2.92718 -1.151984,5.63313 -1.972065,8.35466 -0.339416,1.81223 -2.299941,0.50514 -2.692713,2.44691 -1.450029,-0.44818 -2.414327,1.07074 -2.343241,1.97114 -1.380199,-0.47994 -3.297891,1.46135 -5.217371,0.98459 -2.384214,0.46579 -4.797774,-0.17877 -7.200439,0.50949 -1.616753,-0.22528 -6.327535,1.89154 -5.275073,-1.21138 2.693979,-2.65968 6.036432,-4.59032 9.164237,-6.70669 2.337954,-1.61037 4.957623,-2.7779 7.275177,-4.40183 -3.261433,1.27817 -6.226862,3.22146 -9.46047,4.57145 -0.459683,-1.24835 1.375348,-3.95641 0.602841,-4.33349 -1.305141,2.10964 -1.139684,5.3041 -3.684279,6.46754 -1.061551,0.50508 -3.085081,2.68879 -3.470111,2.14773 1.512327,-3.33577 3.269857,-6.55908 5.240781,-9.646 3.860601,-1.89967 7.842739,-3.56728 11.703976,-5.43775 -3.541347,1.09086 -6.927295,2.8706 -10.439191,3.88354 1.999628,-3.35488 5.04637,-5.95714 7.359105,-9.08029 -1.528646,0.72972 -3.358596,3.9381 -3.957367,0.93568 0.508528,2.56492 -1.965693,4.07969 -3.377702,5.90122 -2.869959,3.42058 -5.627346,6.98788 -7.72266,10.94118 -1.529604,-0.92631 0.572038,-3.97827 1.444628,-5.34998 0.606659,-1.15336 2.420761,-3.48676 2.294153,-4.04974 -1.466167,1.65522 -2.649831,3.54534 -4.150655,5.16801 0.234426,-2.05591 -0.001,-4.54617 1.894494,-5.89121 3.591648,-3.58261 7.465599,-6.87149 11.112351,-10.3918 -1.169295,0.02 -3.365648,2.92113 -4.724004,3.23857 -0.0015,-1.0529 1.152323,-3.55013 0.580208,-3.79775 -0.943135,2.37287 -1.209581,5.2144 -3.581818,6.70268 -1.335922,1.03481 -2.994972,3.02596 -4.190764,3.3823 0.943425,-3.40967 1.985982,-6.80474 2.6928,-10.27342 -1.277006,2.12533 -1.923754,4.62348 -3.055519,6.78298 -2.787704,-2.23987 -4.723301,-5.38642 -7.269276,-7.84937 0.692571,1.68175 2.559179,3.35817 3.761488,4.98568 1.224932,1.85152 4.0702,3.56648 2.650626,6.07238 -0.452797,1.58158 -0.434009,5.73151 -2.725153,3.19015 -2.488625,-1.82165 -5.458222,-3.54633 -6.3191063,-6.74004 -0.1566884,-1.04734 -2.0282257,-4.4249 -1.10759,-1.46157 0.5582504,1.3929 1.878444,4.59217 -0.4664813,2.42251 -0.6864408,-0.39857 -2.7646784,-2.2765 -2.9055223,-1.8715 3.9501456,3.39291 8.0594269,6.59787 12.0927789,9.89189 -0.17134,0.93438 0.453404,4.20873 -1.023353,2.55111 -0.810829,-0.9968 -2.397627,-2.28631 -0.95039,-0.2879 1.113723,1.35009 2.435288,3.60959 1.269841,5.05993 -2.397056,-3.83349 -4.921475,-7.58943 -7.4844041,-11.31375 -1.1988848,-0.82906 0.9163568,2.21596 1.1957645,2.88913 1.0197736,2.06325 2.7809306,4.09272 3.3110896,6.21968 -2.5780472,-1.46891 -5.4307149,-2.64832 -7.586836,-4.72878 -0.9032872,-1.74782 -3.4205528,-2.89881 -3.4063449,-5.37937 0.095098,-1.19556 -0.79402124,-3.00763 -0.63796175,-0.72389 0.0955229,2.5754 -1.98044065,-2.53883 -2.96743255,-2.59389 1.1739603,2.76651 3.4931075,4.9432 4.6025413,7.72066 -0.7952864,0.18964 -4.8147664,-1.86348 -2.15518722,-0.0362 1.98353102,1.19685 3.90876062,2.29411 5.92232212,3.29792 2.4025397,1.34453 -1.9269866,0.26956 -2.8588868,0.37377 -0.8645492,-0.14144 -5.705365,-0.18757 -2.60794016,0.27182 2.91708616,0.43419 5.98422266,0.35622 8.76106916,1.4273 2.1025108,1.15131 4.4815008,2.31961 5.3954258,4.70737 0.788243,1.43075 1.625104,3.478 -1.028279,2.63093 z M -6.9935545,128.83177 c 0.2382759,-0.91932 -1.065615,-3.84996 -0.7579596,-1.56311 0.267998,0.46779 0.8135524,4.20057 0.7579584,1.56311 z m 0.2612628,-6.29633 c 0.2614114,-1.26603 -0.5254104,-3.37644 -0.5451866,-0.9073 -0.7100364,1.24713 -0.1755175,0.80304 0.012299,1.37484 -0.7797296,-0.0873 -0.2286274,1.72164 -0.059819,2.3497 0.8700851,-0.47929 0.4287136,-1.98297 0.5927066,-2.81724 z m 2.3180898,-4.17375 c 1.2713862,-2.78794 -4.0642285,0.70329 -1.2404549,-0.71943 0.8149727,-0.14792 -0.5127748,2.36311 0.9420493,1.25805 l 0.1396873,-0.23417 0.1587191,-0.30443 z m 5.9049634,-10.82888 c 0.4296153,-1.31974 -0.3478006,-1.95149 -0.2365892,-0.2331 -0.57821602,0.53645 -0.28650402,1.04758 0.2365892,0.2331 z"
         id="path2964" /><path
         style="fill:#afc8ac;stroke-width:0.264583"
         d="m 18.642419,138.31456 c 0.857158,-2.18801 3.361048,-3.12006 5.049801,-4.59372 3.562876,-2.67031 7.500784,-4.75872 11.312844,-7.0278 -0.08476,-0.92986 -2.776065,1.26881 -3.766895,1.56205 -1.722254,0.63202 -4.116576,2.75979 -5.499187,2.42538 -0.211788,-1.23455 1.340759,-3.64411 0.677958,-4.09729 -1.486536,2.0895 -1.127695,5.43836 -3.835528,6.52196 -0.927788,0.55468 -4.128286,3.51607 -2.646974,0.70647 1.318691,-2.82161 2.927306,-5.49116 4.518353,-8.16419 3.90702,-1.88855 7.961531,-3.49147 11.816041,-5.46402 -1.89678,0.099 -4.173707,1.70262 -6.234425,2.27544 -1.278532,0.35742 -3.404305,1.61273 -4.190698,1.34054 2.118284,-3.13269 4.949414,-5.69098 7.284191,-8.64146 -0.779295,-0.82629 -3.806703,4.51005 -3.810233,0.7035 -0.756031,0.57667 -0.351295,3.5352 -2.144906,4.29333 -3.499811,3.63172 -6.288374,7.85519 -9.057548,12.04428 -1.495771,0.40951 0.04701,-3.01167 0.727749,-3.79022 0.704555,-1.52275 3.390581,-4.49024 2.95007,-5.12392 -1.470942,1.59989 -2.599852,3.48309 -4.080821,5.0716 0.01949,-2.2223 0.257016,-5.06616 2.446114,-6.39091 3.624375,-3.44494 7.449753,-6.68549 11.077092,-10.11668 -2.005079,0.50267 -3.549242,2.67532 -5.36561,3.81985 -0.0017,-1.31583 1.28111,-3.32341 0.739098,-4.20912 -1.029809,1.59438 -1.190274,3.61438 -1.958849,5.29821 -1.897399,1.65902 -3.680847,3.46649 -5.71805,4.95194 0.586346,-1.80364 0.624938,-5.6747 2.372905,-6.055 1.327201,0.83427 -1.455199,-1.53221 -0.171828,-2.36225 0.511811,-0.91747 0.434844,-2.79329 -0.368366,-0.91667 -0.393539,1.2668 -0.752806,1.85897 -1.658799,0.48257 0.873512,1.11938 0.714161,1.97192 -0.501647,2.45158 1.653951,-0.66685 -0.383689,4.8306 -1.355247,2.01418 -2.129317,-2.2259 -3.892969,-4.81259 -6.219444,-6.83889 -0.07695,1.03592 2.550849,3.32085 3.526945,4.79619 1.138272,1.37224 2.257335,2.76022 3.382321,4.14333 -0.70597,1.9332 -0.812309,4.02876 -1.406812,5.97497 -1.986044,-0.23148 -3.631364,-2.26085 -5.338925,-3.39194 -1.9360997,-1.54283 -3.0652979,-4.0034 -3.1518683,-6.45524 -2.1886348,-1.66161 -0.1627546,2.76133 0.1495128,3.80957 -0.079899,1.04768 -2.3847231,-1.58797 -3.383163,-1.98148 -2.606595,-1.37058 1.1587884,1.50645 1.7859559,2.06379 3.0141899,2.58721 6.3014976,4.85991 9.2263206,7.54274 0.450697,0.63313 0.187013,3.14128 -0.196725,3.12327 -0.557733,-0.69136 -2.952279,-3.44457 -1.793895,-1.25718 0.510135,1.19124 2.799664,3.30864 1.293031,4.19577 -1.730559,-1.70006 -3.031071,-3.99664 -4.426088,-6.0704 -0.9893457,-1.2353 -2.6696808,-4.52105 -3.5482312,-4.34561 0.8882183,1.2979 1.150905,2.06669 -0.306932,2.80041 -0.7421773,1.84934 0.4422584,2.19574 0.955342,0.49062 1.5404255,-1.05455 2.3212672,2.75339 3.3871222,3.68981 0.6287,0.98556 2.004835,3.18236 -0.04827,1.70707 -2.1639047,-1.26695 -4.6166667,-2.25199 -6.3359869,-4.12809 -0.2983099,-1.25226 -2.3649987,-1.92424 -1.5518037,-3.31802 -2.1714976,1.64127 -1.1565919,-3.21338 -2.49518988,-3.9728 -0.3616395,0.96364 0.17269413,3.10568 -1.00175495,1.0916 -0.87072567,-1.17795 -0.44818065,-2.81391 -2.34140597,-2.36097 1.4644126,2.49822 3.42995181,4.71673 4.6188908,7.36166 -0.3253602,0.81772 -3.8667065,-1.56853 -2.92826143,-0.13343 1.08156984,0.72428 3.92473943,1.52369 3.18210003,2.67084 2.0856178,0.0581 0.1821155,2.23397 -1.2088871,1.26914 -1.13217661,-0.34646 -3.1365722,0.11732 -1.35515953,1.26528 0.98457915,0.36448 1.19777266,-0.0896 0.9550709,-0.71919 1.94183953,-0.74685 2.71690923,1.75783 3.87153963,1.94758 -0.236875,-1.35173 0.4729445,-1.41301 1.6040906,-1.20466 2.6100724,-0.15396 4.8544415,1.43153 6.7628195,3.02621 0.06035,1.93382 3.218211,2.8743 2.43352,4.83596 -0.364544,-0.87505 -2.362262,0.41675 -3.74773,-0.36558 -2.4754994,-0.48312 -5.1146431,-0.81456 -7.3518833,-1.96754 0.9031816,-0.37072 3.4769719,1.25635 3.5906916,0.58806 -1.2972348,-0.1425 -3.0895174,-3.9364 -2.1022513,-1.02359 -1.4716374,0.85643 -3.1086611,-3.36607 -1.1092515,-2.80774 0.2341347,1.29975 0.1312718,2.25776 0.6990951,0.52984 0.9527899,-1.80834 -2.69859,-1.40929 -1.9604469,-0.0122 -1.0293935,-1.02567 -0.6398113,-0.35371 -0.5969245,0.2279 -1.110506,0.31354 0.8072454,0.2704 0.4601003,1.12674 1.1340099,2.7935 -1.7993174,0.0183 -2.28980779,-0.99415 -2.09913001,1.61628 -4.22245841,-0.53448 -5.36576021,-2.05703 -2.6065025,-0.91569 -2.5952654,-4.08535 -2.4507094,-6.37407 0.3072205,-2.24325 -0.517445,-5.19845 1.8446469,-6.42642 1.1157475,-1.16836 2.3757203,-2.83758 1.1172361,-4.28455 0.3779469,-0.84314 1.9193736,-2.47063 0.1898282,-1.16602 -0.5370225,0.70475 -1.2691144,3.39344 -2.1802893,2.07039 0.5416726,-1.81971 2.1503083,-3.82654 1.9582437,-5.61475 1.073767,-1.09124 2.296945,-0.70757 2.9273664,-2.37884 0.91957703,-0.90781 0.96029933,-0.41282 1.36283,-0.13376 2.2816802,0.91408 -0.3728927,2.46297 -1.32636282,1.53999 -0.25887628,0.7205 -2.06670728,2.2182 -0.10671588,1.32677 1.50041946,-1.62989 5.1125374,-0.83572 5.6402996,-3.08089 1.8060353,-0.3967 -1.0821384,-0.57075 -1.217032,-0.53058 1.1315451,-0.55472 1.7338666,-1.85435 0.8998627,-1.9046 1.6905944,0.051 0.1225114,-0.89403 1.238127,-1.60609 1.4863075,0.73429 -2.3036709,-2.28351 0.2195841,-0.78853 1.0229874,1.3298 1.0295356,-2.17658 1.8381129,0.0326 1.0028461,1.19994 -3.3313423,2.75103 -0.7294561,1.95784 1.9512502,-0.51934 0.4352403,-1.71814 2.0146142,-2.26918 0.5366876,-1.2109 1.5126662,-1.76081 2.7594632,-2.688252 1.701878,0.598362 0.07219,-2.603249 2.120584,-2.373631 -1.40941,1.043132 0.658218,2.519363 0.304565,0.636 1.113446,1.65895 2.037709,1.197404 3.366725,-0.09517 1.169426,-0.768988 -1.686979,1.952785 0.248196,0.769285 0.742106,-0.611041 1.483564,-0.123821 1.872608,-0.396538 -1.633165,-1.500985 1.22341,-0.909369 0.405636,0.582129 0.784933,-0.666194 0.162909,-2.611076 1.292949,-1.08067 0.2229,-0.762696 1.860375,-1.652727 0.801548,-0.249383 1.843334,0.243318 4.023988,0.106102 4.566183,1.709409 -0.948796,1.062671 1.208468,0.273487 1.165106,-0.133067 0.749362,-0.781661 -1.105387,-0.744353 0.367309,-1.697649 2.113037,-1.453241 4.272827,-0.28843 5.387747,1.711992 1.097848,0.543557 -0.436108,3.608405 0.844973,1.385585 1.070443,-0.663092 0.5965,1.6256 1.721334,1.93038 0.702187,0.88067 1.508393,1.20714 2.475588,0.66266 -0.147836,1.05077 -2.344616,0.9975 -0.586465,1.47017 0.478133,0.84662 -0.577664,1.88672 1.176047,1.84467 1.771759,0.79411 0.72992,-0.47893 0.76341,-1.46867 0.506736,1.00621 1.046344,2.71389 1.495529,2.99754 -2.846248,0.12396 1.993374,1.50896 1.898386,3.01932 1.05209,1.27277 -0.04026,2.11946 0.807001,3.66503 -0.0659,1.00489 0.299085,1.82536 0.928504,1.75463 -0.46173,0.87499 -1.365322,0.76282 -0.341754,1.3296 -1.541535,1.03157 1.29503,3.96192 -0.855423,5.21446 -1.933631,-1.02248 0.867645,4.04282 -0.801324,3.4899 0.340051,2.36857 -1.090965,4.45988 -1.846898,6.61018 -0.604409,1.37563 -2.414946,-0.69894 -2.028551,1.30967 -0.326895,1.28952 -1.826676,-0.1 -2.70869,1.52069 -1.14915,1.84338 -3.136446,1.37472 -4.954845,2.00362 -1.977041,-0.62205 -3.137026,-0.11734 -5.175803,0.32046 -2.515216,0.47909 -5.130873,0.67093 -7.661476,0.67997 l -0.04545,-0.23481 0.06887,-0.45127 z m -19.15700233,-3.82954 c 0.90862376,-0.3574 1.30883581,-1.20417 0.0702383,-0.76673 -1.40306487,-0.1051 -0.99389267,-2.21633 -2.02716617,-0.71318 -2.69086,0.18571 2.29434152,1.96036 1.95692787,1.47991 z m -3.68156857,-7.55751 c 0.8243246,-0.46715 -1.5622456,-0.88887 -0.4690067,0.29902 0.1677058,-0.096 0.2011012,-0.45043 0.4690067,-0.29902 z m 8.7922205,-4.57803 c 0.5374482,-1.91519 -2.708585,-0.15299 -0.3619762,0.17805 l 0.2102401,-0.0223 z m -1.759263,-0.72761 c -0.8164918,-0.89178 -1.7387979,-0.96491 -0.3716051,0.18082 l 0.3495564,0.21017 z m 10.9361114,-1.05505 c -0.75841,-0.54411 -1.251102,-0.0224 -0.672922,0.82372 0.257047,-0.2409 0.540043,-0.48684 0.672922,-0.82372 z M 12.45,118.05 c 1.482832,-1.14861 -1.780264,-2.48856 -0.683355,-1.41021 1.166551,0.51124 0.02881,0.6631 -0.02388,0.68337 0.774756,0.6047 -0.682694,2.6437 0.52131,1.07958 l 0.185918,-0.35275 z m 5.291667,-3.175 c 0.556012,-0.14313 -2.850385,-1.7677 -1.307241,-0.31418 0.336258,0.40176 0.834812,0.82159 1.307241,0.31418 z m 1.024583,-3.09225 c -0.516652,-0.5307 1.259392,-0.0639 -0.163116,-0.72797 -0.921421,0.31461 0.77858,1.85711 0.163116,0.72797 z m -1.024583,-0.74421 c 1.818808,-1.3004 -1.389698,-0.30686 -0.07084,0.27992 l 0.07084,-0.28029 z m -8.2473803,-4.85551 c 1.4052753,-2.03838 -2.3202515,1.20249 -0.2363434,0.19021 z m 8.5119633,-1.92005 c -0.106764,-0.84721 2.45277,-0.17247 0.622746,-0.8159 -0.977748,0.11689 -2.911101,1.17005 -0.748345,1.29664 l 0.105831,-0.1519 0.01977,-0.32881 z m 13.714084,0.17813 c 1.475829,-0.31838 -1.852608,-0.24868 -0.839007,0.18198 0.137771,-0.30221 0.616421,-0.21229 0.839007,-0.18198 z m -12.328593,-2.24376 c 0.790697,-1.21218 0.02075,-1.57431 -0.856326,-1.39816 0.865873,0.10601 0.105332,2.72296 0.856326,1.39816 z m 2.935377,-3.615452 c -1.320627,-1.068507 -1.172217,2.014772 0,0 z M 4.8788897,130.01834 c -0.9416496,-0.82721 -0.4053712,-2.09611 0.1668277,-0.36043 -0.073854,-0.4185 2.7688321,0.73259 0.9147175,0.55884 -0.3672803,-0.009 -0.7421811,-0.042 -1.0815452,-0.19841 z m -13.2156811,-2.50949 c -0.6411883,-0.96165 0.3350924,-3.94865 0.6490655,-3.76357 -0.4894923,1.31548 -0.1400227,3.89082 -0.4924604,4.37087 l -0.076544,-0.27342 z m -0.3611743,-4.95665 c -0.4515159,-1.54329 0.8547671,-4.18427 1.5630085,-4.87594 0.8481686,1.61131 -0.6708291,3.32588 -1.4052928,4.39275 0.5568847,0.75153 0.1526565,2.0029 -0.1577157,0.48321 z M 2.925,108.28872 c 0.6103163,-0.83509 1.9537726,-0.093 0.4738361,0.15773 -0.143169,0.11851 -0.4909865,0.1035 -0.4738361,-0.15773 z m 2.5763379,-5.96823 c -0.9860825,-2.02087 1.7897906,0.56797 0,0 z m 31.4667181,0.20728 c -0.718463,-0.81236 0.559188,-1.60313 0.578767,-0.36979 -1.17076,-1.82877 0.216522,1.17803 -0.578767,0.36979 z M 24.091667,97.551089 c 0.679026,0.114084 2.471504,-1.5649 1.699876,0.06198 -0.468159,-0.305931 -1.503959,0.581915 -1.699876,-0.06198 z"
         id="path2962" /><path
         style="fill:#92b48e;stroke-width:0.264583"
         d="m 18.777881,138.09335 c 1.24673,-2.3427 4.015776,-3.41622 6.009881,-5.0649 3.217324,-2.30323 6.707426,-4.17715 10.060965,-6.25888 0.843664,-1.2645 -2.176705,0.76716 -2.89229,1.02141 -2.070449,1.03561 -4.051367,2.25441 -6.151699,3.2236 -0.419666,-1.19537 1.428832,-4.06633 0.586418,-4.39174 -1.475261,1.97954 -1.166307,5.13978 -3.6192,6.32008 -0.9114,0.3904 -3.147501,2.80841 -3.296523,1.93628 1.49492,-2.98756 2.870626,-6.09932 4.89093,-8.77286 2.677501,-2.00147 5.97461,-2.96618 8.958222,-4.42989 0.932746,-0.31518 4.777923,-2.15201 1.980327,-1.35596 -3.235479,1.21538 -6.393892,2.62937 -9.647468,3.79939 2.210963,-3.32751 5.308841,-5.96698 7.624589,-9.18817 -1.35204,0.41676 -2.404341,1.72154 -3.575778,2.58617 -0.0062,-1.19798 -0.953305,-2.76795 -0.852088,-0.44901 0.04834,2.59698 -2.989517,3.73244 -4.141491,5.80992 -2.591645,3.11179 -4.842294,6.4868 -6.905181,9.96686 -0.521818,-1.58445 0.198706,-3.12601 1.080424,-4.43781 0.762759,-1.68399 2.997778,-3.86921 3.012875,-5.20221 -1.586991,1.55031 -2.673379,3.52874 -4.186334,5.14384 0.152985,-2.25001 0.2334,-4.91203 2.382268,-6.24386 3.623024,-3.46804 7.477517,-6.6874 11.087651,-10.16706 -1.655788,0.0662 -3.40985,2.50869 -5.073216,3.48267 -0.593893,-0.38421 1.865706,-4.74939 0.206188,-3.60783 -1.009043,1.73241 -0.870303,4.60585 -2.764228,5.55512 -1.261454,1.2021 -3.285552,3.66882 -4.624622,4.12996 0.463115,-1.61702 0.935649,-5.66496 3.032631,-4.96281 -0.443634,0.92651 -0.663094,1.02394 0.471209,0.83781 0.735286,0.92779 -0.236703,-2.12423 -1.333409,-2.43859 -0.617724,-0.76168 0.47297,-2.02017 0.459456,-2.96306 0.128887,-2.6819 -1.626736,3.83492 -2.181422,0.50934 -0.144274,-1.35666 0.756176,-5.08351 0.102186,-5.15485 -0.114317,0.51428 -0.449924,-1.52827 -0.497425,0.38095 -0.16431,-0.49813 -2.947847,2.398 -2.22399,-0.26286 1.165447,-0.46116 -0.547745,-0.72466 -0.868156,-0.47452 2.114397,-2.13165 -2.036814,-0.5835 -2.023796,1.01326 0.764892,-0.47161 1.770064,-2.00648 0.772913,-0.0552 0.02352,1.10455 1.403662,2.13252 1.759633,0.62965 0.328585,1.06172 -0.28288,1.90024 -1.49121,1.734 0.800419,-0.98746 -0.178472,-0.20693 -0.06523,-1.23741 -1.001153,-0.64667 -1.065026,-0.97344 -1.062855,0.26459 -0.909008,1.33568 0.06332,0.91896 0.237619,1.25677 0.974356,0.99569 0.703423,3.00163 -1.016144,1.64977 -0.4697,-0.6939 1.874653,0.0378 0.539832,-1.21189 -0.829451,-0.94673 -2.374096,-3.34551 -2.066866,-1.43417 0.735201,0.25328 1.000162,2.44819 -0.216026,0.83363 -1.7254027,-0.53262 1.716045,1.94591 -0.0672,2.59877 -0.08542,1.3012 -1.3293421,3.13079 -0.523921,3.48829 -2.1276861,0.53477 -1.9906987,-1.35327 -1.2718905,-1.33463 -1.2408387,-0.67489 -3.3507132,-0.3868 -2.4008138,1.17027 0.1543795,0.71389 1.8407732,3.41571 0.9757814,3.25424 -1.3397163,-0.77421 -2.891459,-2.46659 -4.1566643,-2.62847 1.9229284,2.26601 4.690064,3.62517 6.6255142,5.88629 1.943396,1.26302 3.861449,2.65996 5.418782,4.38756 0.05491,0.50436 0.457091,3.93223 -0.43583,2.59604 -0.648498,-0.92376 -2.916038,-3.05186 -1.464202,-0.68222 0.774563,0.89988 2.864398,4.24793 0.138464,2.72539 -1.822336,-2.41494 -3.531725,-4.96063 -4.8974263,-7.6617 -0.7063314,-0.63307 -3.0101511,-3.22442 -1.7489412,-0.75395 0.9039666,1.19998 -1.7210492,1.95051 -0.9885936,3.69379 -0.4163095,1.91462 -0.969505,0.32885 -1.6082927,-0.32084 0.3651069,-0.93343 -1.8026429,-0.59895 0.054002,-1.19001 -0.03531,-0.87971 1.035374,-2.63376 -0.3517302,-1.39268 -1.8541991,-0.0181 -0.4115483,-1.73855 0.095384,-1.81725 0.497896,-0.86772 1.2732186,-2.18343 -0.070487,-0.68509 0.1054948,-1.36066 -1.5693652,0.29695 -1.6541509,-1.30041 -1.0980818,1.71911 -0.2396814,-1.86915 -2.24554617,-0.55156 -0.34305191,1.03826 0.0623854,2.67054 -1.0223615,0.80939 -0.4919087,-0.63823 -1.12224353,-1.81058 0.0852416,-0.85795 -0.61181167,-1.53796 0.30058641,-2.4052 1.59498257,-1.47032 -0.8185604,-0.56308 -1.89219548,-2.23691 -2.8495162,-1.29576 1.82368913,1.29931 -0.5284499,1.38168 -1.1192338,1.86507 0.5377113,0.85146 0.2644894,3.60994 1.233605,2.61838 -0.082728,-2.02512 1.65429642,1.91738 2.24328853,2.47491 1.17750057,0.88567 1.89915947,3.35745 -0.21283246,1.70085 -0.49611153,-1.5056 -3.03652197,-0.37271 -1.05880165,0.41116 1.81043798,0.39708 2.44247748,1.88709 2.47698268,3.5651 -1.34749367,-0.17574 -2.80788263,0.20331 -3.9857681,-0.12084 0.2263074,-1.57752 -1.6384908,0.71302 -2.2252971,-0.91767 -0.6263237,2.08088 2.90105,0.89259 2.4548646,1.83021 -0.7363521,0.39916 1.21215846,-0.2116 1.08355329,0.71083 1.85458051,-0.18395 2.28474191,0.43726 0.94182655,1.14994 0.91004736,-0.10042 2.56670226,-0.0119 1.87660126,1.49085 -1.57653936,0.29071 2.3467148,0.95628 0.2108818,1.64292 1.3049129,-0.63684 1.1010185,2.18933 -0.1395843,0.41909 -0.5657609,-2.08458 -2.75385871,-2.44368 -4.2508906,-3.4387 -1.7041905,1.29103 -4.7149098,-1.5161 -4.7573773,-3.61985 -0.136454,-2.76736 -0.2978653,-5.62155 0.3349223,-8.33459 1.8800337,-1.12931 3.9814218,-3.62182 2.5907293,-5.63719 1.4619426,-1.88757 2.4116214,-4.59734 5.0122837,-5.16771 1.5488843,-0.31754 5.5844062,-1.42732 3.7989699,-3.15489 -0.8166669,-1.01249 2.0362926,-1.713 2.4817281,-1.85618 -0.4504783,1.03853 0.3542004,2.44931 0.5341601,0.72709 0.8338221,-0.94315 -0.5219932,-2.5311 1.5017257,-3.24634 -0.00718,-2.06222 2.6933071,-1.12926 3.3301581,-2.538892 0.973019,-0.405706 2.22628,-1.271293 2.272345,-0.02041 0.991327,-0.412218 2.207047,-1.185342 0.772762,0.127908 1.713444,-0.409445 3.216197,-1.866089 3.545246,0.508504 1.343622,-1.523711 0.202009,1.76042 -0.823723,-0.0262 -0.600576,-1.216724 -1.680371,1.68405 -1.619269,-0.450063 -1.102978,0.485793 0.625791,1.989633 -0.361421,2.169583 0.0786,1.80062 1.006948,1.6227 2.106619,0.55369 0.151743,1.88247 1.752817,-1.3306 1.374326,0.85574 -0.556178,1.39945 0.897732,-0.60058 0.491839,-1.18547 0.604849,0.62189 1.243015,0.83768 0.713008,-0.0166 1.132478,-0.0835 1.913619,-1.10639 0.511134,-1.24546 -0.0877,-1.190905 1.976394,-3.599399 2.085146,-1.10074 -0.498628,-0.500896 -2.193552,0.36546 -0.464082,0.30016 1.067232,1.1873 1.400671,-1.212233 2.145234,0.35831 1.455436,-1.325342 1.948688,1.52534 2.266853,-0.941413 0.477872,-1.964689 3.746417,-3.453984 3.257518,-0.969312 1.024079,0.640494 0.270994,-2.671862 1.105465,-0.357899 2.289517,1.02508 0.940085,3.449004 1.556148,4.881564 0.719439,-0.66569 0.649345,-3.764806 1.277057,-1.41855 -0.37128,1.36447 0.339855,2.72551 -0.04962,3.95251 -0.01474,-0.84643 1.918623,-2.20062 1.55001,-1.18736 -1.365047,0.4317 -0.224222,1.72646 0.280667,0.44761 0.585376,1.41409 2.864135,1.74706 3.748003,2.82281 -1.381065,1.2837 1.299452,2.654 1.747496,3.98708 -0.509579,-0.13267 -1.549272,-1.3782 -0.556039,0.22374 0.912547,2.02411 2.68201,3.95271 2.116103,6.08343 0.156155,1.69305 1.529867,3.61419 -0.668816,4.65716 -1.40171,2.14591 0.142062,4.87574 -0.828818,7.23503 -0.730183,1.67764 -1.187587,4.1998 -3.64502,3.29474 -1.144463,0.41399 -1.146623,2.61979 -2.775873,2.26574 2.303828,-1.03489 -2.252595,-2.17656 -1.475146,-0.41 -1.33108,1.23835 2.622573,0.41462 1.046852,1.68681 -1.46078,-1.38403 -3.333207,1.25754 -4.988208,0.96224 -0.955721,-1.17051 -1.518997,0.67122 -2.394421,-0.24301 -1.358912,1.47251 -3.639039,-0.0618 -4.017586,1.08574 -1.805905,0.49376 -3.690813,0.40227 -5.544004,0.41088 0.0585,-0.28622 0.11719,-0.5726 0.175574,-0.85873 z M -3.5684849,126.16098 c -1.2692503,0.34327 0.4640759,-2.06617 -0.7164498,-2.55468 2.1382926,1.77207 -0.8814813,-3.65978 -0.5553535,-0.40181 0.7116371,1.38743 0.4525305,2.42562 -0.245028,3.403 0.1519252,1.93116 0.6005504,1.47023 1.1954458,-0.0211 l 0.3213855,-0.42535 z m 44.1317239,1.21558 c 1.020996,-1.11551 0.0996,-2.27917 -0.503366,-0.66559 -0.319309,0.56157 -0.314777,1.73533 0.503366,0.66559 z m -1.616634,-0.29874 c 1.216897,-1.06035 -0.575537,-2.75754 -0.413278,-0.89209 -1.472962,0.1347 -1.514947,2.23371 0.413278,0.89209 z m 1.8102,-4.72834 c -0.388613,-3.2759 -3.14483,0.3293 0,0 z m -44.792393,-1.38792 c 0.6159979,-2.71934 -1.6589251,1.84247 -0.1288763,0.30366 z M 8.9497345,110.44298 c -0.09985,-0.81656 0.6850651,-2.39671 0.087056,-2.62669 -0.808293,1.01686 -0.5272821,2.38418 -0.6216866,3.35248 0.2720086,-0.16162 0.3954761,-0.46101 0.5346306,-0.72579 z m -0.3313986,-3.23314 c 1.1680573,-0.53095 2.4472761,-2.15389 2.3304371,-3.06942 0.836491,-0.27023 1.342768,1.45571 1.350744,-0.19949 0.514067,-0.64337 1.560671,0.74792 1.102321,-0.90865 -0.94308,-0.66898 -2.221501,0.78579 -1.734165,-0.57135 0.133425,-0.76336 0.222098,-2.41257 -0.912555,-0.79305 -0.8912133,0.0645 -0.9057991,2.67666 0.260647,0.86737 0.624566,1.07987 -0.0629,1.31618 -1.1400444,1.69029 0.5870274,0.315 0.2499674,1.67486 0.071699,0.69618 -1.2166046,0.38891 -2.5483594,1.80793 -1.2358767,2.49722 l -0.093146,-0.20908 z m 8.4900001,-2.27883 c 0.09071,-0.91324 0.91177,1.46043 1.037942,-0.40999 -0.142866,-0.88969 2.076907,-0.1969 0.700611,-1.12691 -1.092837,0.74375 -2.456475,-0.38141 -2.868879,-0.60994 0.06053,0.84179 -1.243274,2.89757 0.378436,1.24379 0.704341,0.0528 -0.711205,1.38181 0.591471,1.06575 0.02966,0.49085 0.417728,0.12514 0.160419,-0.1627 z m 14.916997,-0.2401 c 0.537904,-1.83478 -3.631939,0.85226 -0.799973,0.20836 l 0.3427,-0.0631 z M 9.6827547,103.7449 c 0.1213133,-1.35464 -1.7790108,1.2073 3.3e-6,0 z m 4.9878963,-0.93008 c 0.185597,-1.70884 -1.505385,1.25143 0,1e-5 z m -1.732362,-1.55211 c -0.554924,-1.41388 -0.849591,1.73597 0,0 z m 0.632266,36.95636 c -1.420334,-0.91508 -3.471048,0.30615 -4.7369356,-0.74371 -0.8126215,-0.18688 1.3053206,1.17456 -0.3730207,0.4678 -0.9207589,-0.0269 -0.3667296,-2.18732 -1.6693608,-2.61447 0.5248709,-0.62443 -0.044576,-2.83768 -0.5256827,-1.46976 0.1777061,0.0908 -0.8044804,-0.0533 -0.9512591,0.39688 0.3053835,-1.27207 2.492004,-2.34667 1.2638382,-3.23586 2.3424771,0.36788 4.6801387,1.54489 6.2803717,3.3004 -0.518287,1.38164 1.929403,1.96244 1.093009,2.67222 1.593047,-0.73675 1.837476,1.81642 0.110015,1.23962 l -0.490973,-0.0134 z M 5.0397617,132.2002 c -0.768447,-1.82368 0.4017803,-0.6392 0.8086687,0.16135 -0.2805278,0.48252 -0.7258822,0.42109 -0.8086687,-0.16135 z m -3.1933386,-0.19343 c -0.4376343,-1.16589 -1.13388059,-1.96781 0.6435051,-1.27128 1.1587693,0.287 0.2597721,1.78154 -0.6435051,1.27128 z m 7.6600873,-1.60507 c -1.6003825,-0.59966 -4.1635952,-2.42577 -1.5668387,-3.63166 1.6607824,-1.78821 2.5629623,2.63108 3.7203933,3.73929 0.910733,1.20373 0.767014,1.74955 -0.571871,0.76092 -0.529639,-0.2851 -1.056527,-0.57529 -1.5816836,-0.86855 z m 4.0976236,-6.65881 c -1.926664,-1.47206 -4.2165651,-2.83655 -4.8659127,-5.34889 -1.5358314,-1.32634 1.9853897,-2.19166 0.1442077,-0.72564 -0.4527868,0.62127 2.881331,0.0442 1.471901,1.12301 1.744471,-0.27326 -0.159626,2.39242 1.746683,1.28216 1.626863,-0.81872 2.424633,-3.9304 1.524031,-4.38687 1.02541,0.0556 -1.32883,-1.28611 0.436138,-0.65209 0.536334,0.22465 2.087945,2.27875 0.779302,1.58163 -0.116855,0.79276 0.35437,2.58069 -0.81257,1.49743 0.640543,1.77417 1.154527,-1.23283 2.383224,0.0323 2.743301,1.22449 0.157785,4.30872 0.308099,6.45133 0.01032,2.32696 -2.263579,-0.53756 -3.115103,-0.85434 z m -1.4257,-1.97881 c 1.443037,0.77722 2.745253,-2.32415 1.065316,-2.06519 -0.126389,0.48078 -3.15893,2.86732 -1.065316,2.06519 z m -9.8485661,2.17098 c -1.88372246,-0.48741 0.6826841,-3.60768 0.3244756,-1.1112 -0.4084225,0.48158 0.8787749,1.44369 -0.3244756,1.1112 z m 15.2008011,-6.39834 c -1.219018,-1.64726 1.108888,-0.10283 1.418807,-1.51387 -0.164722,0.69059 -0.460407,3.15379 -1.418807,1.51387 z m -22.8077523,-1.73568 c 0.4033338,-0.86191 0.1884592,-2.9992 1.6536443,-2.96774 -0.951957,-0.67594 1.5914485,-2.81776 0.7147558,-0.72844 0.5632747,1.6501 -2.4752738,1.58944 -1.6900667,3.42926 0.025577,0.41448 -0.598065,1.09514 -0.6783334,0.26692 z M 14.546423,114.2953 c -1.419331,-1.84508 2.35701,-1.80031 1.410566,-1.12934 -1.359812,-0.27591 -0.623692,1.00778 -1.410566,1.12934 z m 3.459827,-1.09992 c 1.258989,-1.69728 1.238496,0.65999 0,0 z m 23.868491,-3.2693 c -2.354963,-2.77863 2.774744,2.17282 0.35772,0.3665 l -0.35772,-0.36649 z m -43.4082273,-0.86866 c 1.27384736,-1.91112 0.2731128,1.22159 -0.3474817,0.58692 l 0.1182116,-0.24722 z M -0.25,108.90297 c 1.2826302,-2.21912 1.22209515,0.50487 0,0 z m 5.7235566,-4.24315 c 0.1844417,-1.06473 1.7617462,-1.604 0.5046583,-0.31355 0.1395202,0.2516 -0.9473055,1.1467 -0.5046583,0.31355 z M 25.152418,99.664369 c -0.668822,-0.03167 -2.668109,-2.624543 -0.899126,-1.236053 0.573872,0.544526 1.977411,1.787334 0.985745,0.114136 0.256917,-0.787468 1.994151,1.780858 0.176595,1.39146 l -0.263214,-0.269546 z m -5.020699,-0.598225 c 0.07362,-0.79829 1.481311,-1.976173 1.694424,-0.888931 -0.780726,-0.435293 -1.169115,1.112597 -1.694424,0.888931 z"
         id="path2960" /><path
         style="fill:#81a97d;stroke-width:0.264583"
         d="m 19.838392,138.58208 c 0.651997,-0.63606 -2.1162,0.11647 -0.707663,-1.2665 3.68299,-3.23936 7.940468,-5.7683 12.100416,-8.34732 1.142069,-0.92143 3.53606,-1.44112 3.826525,-2.71618 -3.158045,1.51414 -6.236109,3.18983 -9.350069,4.79229 0.11423,-1.56564 0.813051,-3.0071 1.060293,-4.53244 -1.328911,0.1208 -1.498033,3.62529 -2.45893,4.95129 -1.227761,1.36494 -3.073904,2.87033 -4.672387,3.35679 1.187317,-3.05584 2.814531,-5.97378 4.700566,-8.65599 2.011849,-1.70271 4.704134,-2.37438 7.020991,-3.59365 1.331617,-0.95876 4.776051,-1.42465 4.900051,-2.66832 -3.453768,1.15 -6.691283,2.90688 -10.187045,3.92871 0.882404,-1.86897 3.129657,-3.92303 4.630054,-5.75733 0.436496,-0.78562 3.289011,-2.99013 2.179591,-3.07811 -1.424265,0.64786 -3.260679,3.63617 -3.684709,0.74608 -2.99569,-0.60377 3.243033,-3.75213 1.441412,-3.85077 -1.30967,0.26632 -3.52186,3.68065 -4.199277,1.95572 0.398679,-1.19157 1.303138,-2.424 -0.223152,-3.05344 0.445069,1.12819 -2.33324,0.71334 -1.284773,1.91451 1.874331,-1.10484 -0.007,2.20403 -0.36596,2.72266 0.925568,1.05339 -1.320619,2.93444 -1.464846,0.9416 -0.460745,-0.40236 1.058429,-1.08424 -0.367593,-1.86968 -0.648156,0.0187 -0.660137,0.99816 -1.293036,-0.41421 -0.609913,-0.39338 0.284024,2.08577 -0.456643,0.33415 0.339845,-1.09616 1.219639,-4.90934 -0.312911,-2.03795 -1.748915,2.63754 -1.192512,-2.56453 -0.923427,-3.72666 0.532314,-1.44205 -0.423204,-4.09337 -0.879717,-4.33493 0.716393,-1.24054 2.297666,1.73962 2.55377,-0.51567 0.883962,-0.84219 1.908905,-2.27417 2.329554,-2.82879 -0.347234,0.90908 0.920658,0.56084 0.82158,1.06638 0.4728,-0.95667 1.971977,-0.31439 1.137139,-0.0959 -0.96683,-0.52665 0.352639,1.15359 -0.392148,1.28093 1.660011,-0.79166 2.872797,-1.58143 2.621372,-3.517268 0.342297,-1.659943 1.808272,-0.762893 0.501917,0.131409 1.33253,0.182969 1.859722,-4.415367 1.952509,-1.52347 -0.675492,0.205495 0.468336,1.646349 1.275588,0.776267 -1.024864,2.232202 1.52731,-1.690926 1.812802,0.853886 0.178128,0.880746 -0.09483,2.662646 -0.816273,1.030196 -1.83957,-0.10723 0.747309,-1.372374 -0.9731,-0.7257 -0.01765,1.80525 2.126078,1.78534 1.517069,3.46037 1.400874,-1.40725 2.407646,0.29628 1.502497,1.60221 1.213123,0.87363 3.484467,0.14487 3.14061,2.01652 1.152255,0.29115 3.078653,3.86902 1.437463,3.61721 0.352114,-2.45128 -2.925392,3.30172 -0.860707,1.26186 1.419046,-1.96349 -0.453049,1.44551 1.160122,0.36066 -0.301472,-0.75756 1.159659,0.88452 0.526465,-0.50429 0.617545,-0.98696 -0.391008,-2.98028 0.841581,-1.06435 1.415413,1.57034 1.649473,3.05523 0.445777,4.61263 2.486714,-1.96869 2.29398,1.97382 2.409368,3.62956 0.155408,1.3211 -1.033108,4.84164 -1.632098,4.49178 -0.378383,-1.01453 -0.516733,2.21015 -1.762384,2.02874 -1.500406,1.31292 -0.509546,3.33407 1.514059,2.3534 1.165031,-1.98478 0.436423,2.11143 -0.290882,2.58961 -0.37401,2.53864 -3.791826,1.94858 -4.835049,3.7155 -1.922758,-2.09599 -2.738339,-0.0289 -3.447322,1.64757 -1.042259,1.18667 -2.195195,0.89086 -3.196501,1.39365 -0.792117,-0.58914 -1.505774,0.40484 -2.189781,0.12839 -0.610431,-0.24775 -1.563822,0.74967 -2.401628,0.58135 1.112648,-0.8275 -1.582408,-2.29168 -1.450078,-0.48922 -1.257605,0.11493 0.214099,1.48763 -1.66113,1.03315 -0.36455,-0.18229 -3.404485,0.76797 -2.619922,-0.13885 z m 19.277827,-11.27167 c 0.903358,-1.01478 0.294736,-4.25319 -0.800413,-1.96649 -1.477542,0.7708 -2.445669,2.10139 -0.424051,2.83248 0.476773,-0.16457 0.724318,-0.72082 1.224464,-0.86599 z m 1.721112,-5.02804 c 0.33185,-2.5987 -3.133906,-0.79755 -0.783116,0.30904 0.329003,0.22671 0.794392,0.22098 0.783116,-0.30904 z m -5.90513,-5.69648 c -0.535749,-0.68855 1.930593,0.54099 1.006215,-1.04981 -1.315324,0.19568 0.355006,-1.12294 -0.63646,-1.01009 0.07901,1.52168 -0.660971,1.25922 -1.04079,0.41285 -0.5876,0.62419 1.310355,3.96263 0.671035,1.64705 z m 2.752662,-0.46492 c 0.412211,-1.42961 -2.28822,1.37898 -0.652656,0.41893 0.167714,-0.0126 0.377511,-0.54334 0.652656,-0.41893 z m 1.903828,-1.92633 c -0.870943,-1.33927 1.527572,0.25547 1.494626,0.66522 1.122512,-0.61383 0.613093,-1.12903 0.283984,-1.48632 1.124317,-1.23257 -0.934998,0.4814 -1.591862,-0.0227 -1.279474,-0.0278 -1.9714,0.45151 -0.468766,0.99659 0.422285,0.60622 0.950212,0.4622 0.282018,-0.15281 z m -9.784107,-4.55178 c -0.622619,0.4509 -1.092219,-1.99704 -1.887668,-0.65736 0.915231,-0.0376 1.040038,1.98838 1.887668,0.65736 z m 2.621458,-1.38245 c -0.195616,-0.64065 -1.719001,-1.45862 -1.050031,-0.26458 0.525545,-0.0361 0.436997,1.07436 1.050031,0.26458 z m -5.933575,-0.90248 c -0.198343,-0.43489 0.505229,-1.62183 -0.414554,-1.21115 -0.74667,0.59078 0.35509,2.56996 0.414554,1.21115 z m -2.209872,-1.75363 c -0.622459,-1.18902 1.956609,-0.9185 0.473223,-2.07399 0.603574,1.00689 -3.035543,1.14832 -1.525701,1.7248 1.223799,-1.29747 0.761291,3.23935 1.052476,0.34921 z m 7.871722,0.81559 c 2.974001,-0.20051 -1.240333,-4.36022 -2.043384,-1.5097 0.203964,0.11386 1.444035,0.61619 0.353312,0.58075 0.339698,0.37036 1.154029,1.64056 1.690072,0.92895 z m -4.842901,-1.40062 c 1.967779,-1.44146 -1.543846,-1.95244 -0.77235,-1.23751 1.88628,-0.45805 -1.595419,2.31815 0.772354,1.23755 z m -4.589926,-1.0214 c -1.281241,-0.4649 -0.672736,2.22513 0.131679,0.26412 l -0.0086,-0.14501 -0.123092,-0.11912 z m 6.488787,-0.64307 c -0.115249,-0.44849 1.315262,-0.82465 0.207518,-0.77213 0.913033,-1.31456 -1.831597,-2.14354 -0.705996,-0.19146 -0.04913,0.32703 0.359073,2.25684 0.498478,0.96359 z m -5.034386,-0.90367 c -1.263913,-1.10262 0.06222,1.45614 0.267003,0.37422 z m 6.330974,-1.20449 c -0.135946,-1.842783 -1.10165,2.1887 0,0 z M 14.685729,137.9165 c -2.190708,-0.52372 -4.640797,0.10039 -6.7997723,-0.98791 -0.8362172,-1.07465 0.86695,-2.02229 0.3040204,-0.68797 1.0829827,-1.00163 2.1538939,-0.15956 3.0521269,1.00302 0.958405,0.38464 2.272036,-0.38777 3.355288,-0.17673 0.360499,0.26526 1.468744,1.54553 0.08834,0.84959 z M 2.2870615,135.75678 c -0.7897348,-0.54052 -0.8629006,-2.46861 -0.00534,-0.7131 0.048796,1.00135 1.4378521,0.29795 0.9637777,1.52718 -0.4002445,-0.1645 -0.6780725,-0.50347 -0.9584393,-0.81408 z m 10.6994875,0.42607 c -1.065318,-2.09796 1.996697,1.15441 0.353863,0.265 l -0.353905,-0.265 z m -1.594882,-0.66205 c -1.286575,-0.52365 -2.0155633,-1.03557 -2.9615798,-0.67875 0.12582,-1.31169 -1.4467454,0.64978 -0.8242917,-1.37941 1.7042119,-2.11954 -1.9574002,1.07297 -1.0398357,-1.12605 1.6088703,-2.22757 4.9900262,0.30941 5.7609132,2.05374 0.04269,0.32565 -0.65965,1.90176 -0.935206,1.13047 z m 0.529166,-1.05102 c -0.17895,-1.83585 -0.898371,0.87189 -0.06801,0.36269 z m -12.44373086,-0.9889 c -0.79118804,-2.01881 -3.60649384,0.55641 -3.82223164,-1.84843 -2.4357968,0.0949 -2.5774821,-3.3063 -2.6923216,-5.10525 -0.1478896,-1.10735 0.2426558,-1.30302 0.8942494,-0.88488 -0.5271381,-1.89568 -1.1658809,-4.82369 0.993545,-5.84009 -0.069452,1.63744 0.9066286,4.93693 0.3399715,5.58206 -1.4081048,0.44488 0.3515963,3.48106 1.0167496,4.58254 1.7004184,0.61941 2.5335646,1.32712 4.29188607,1.53983 -1.38370052,1.77415 2.28703613,0.27615 1.63301543,2.02103 -0.716011,-0.59275 -1.84418137,-0.58707 -2.65486376,-0.0468 z M 17.741667,131.50085 c 0.318225,-2.75549 2.503072,-4.80905 3.815862,-7.14475 1.800966,-2.6073 -1.305737,0.21737 -1.731978,1.18145 -0.709444,0.89359 -2.600759,4.16925 -1.927355,1.08842 -0.08893,-2.57074 1.781744,-4.24891 3.576731,-5.75796 1.90908,-1.80458 3.910262,-3.52139 5.853356,-5.27621 2.125,-0.184 1.803806,3.35838 0.07027,4.3093 -3.755131,3.77606 -6.712157,8.2329 -9.56034,12.70103 -0.114862,-0.35618 -0.08027,-0.73432 -0.09654,-1.10128 z m -3.943573,-0.18278 c -1.508243,-1.88876 -2.995837,-3.92215 -3.795059,-6.21768 -1.3292499,-2.52482 3.299363,-0.8771 4.02612,0.38801 2.105619,0.70988 2.210741,3.43141 1.768508,4.74623 -0.715091,-0.66702 -1.760171,-2.3993 -2.40732,-2.12334 0.159753,1.26826 3.133324,3.57448 1.67184,4.1707 -0.49653,-0.20443 -0.897271,-0.58303 -1.264089,-0.96392 z m -4.126219,-0.87322 c -1.1271416,-0.84376 -3.7601398,-1.48592 -1.8830529,-2.32432 -1.5584684,-0.35956 1.1206535,-0.77637 1.0682641,-1.79541 1.2065988,0.99058 2.8811768,4.15067 3.0711778,5.26936 -0.774155,-0.33754 -1.514898,-0.74694 -2.256389,-1.14963 z M -1.6833709,129.0264 c -0.9885039,-0.80172 -2.8785441,-1.69816 -1.6693648,-2.79114 -1.7954607,-1.22618 1.9242353,0.16923 0.9564389,-1.74067 -0.5175359,-0.5894 0.6541455,-0.74496 -0.2062071,-1.40967 1.65457392,0.86791 0.8724929,-3.64023 2.22919217,-0.90812 -0.82003167,1.50899 3.26577903,2.48629 1.57323943,3.42585 -1.8068456,0.65397 -0.34222226,-3.3419 -2.3099885,-1.44896 -0.7976924,1.40352 -0.8176746,2.64964 1.03279299,2.70538 0.84024146,1.06859 0.49241785,0.68256 0.63672437,-0.15287 0.68895444,0.45013 1.16843274,2.838 0.86768204,2.88701 -1.02493048,-0.67698 -2.4895363,0.42374 -3.1105095,-0.56681 z m -2.1973265,-0.19463 c -0.9504201,-1.72428 -0.5003428,-1.32874 0.4409602,-0.17017 1.0508336,0.60259 0.152844,0.70704 -0.4409602,0.17017 z m 9.8109857,-1.07369 c -0.3840059,-0.80347 -0.4611838,-1.06428 0.3409201,-1.75942 0.3157248,0.29108 -0.4182092,3.24494 -0.3409201,1.75942 z m -1.153205,-0.82528 c 0.7326864,-1.41849 0.2257569,-2.2702 1.2027663,-2.88058 1.0861409,-1.8537 2.5389197,0.24392 0.7803892,0.88086 -0.7785255,0.43639 -1.1548191,1.77098 -1.9831555,1.99972 z m 9.4753637,-2.71508 c -1.334383,-0.80933 -2.599275,-1.96804 -0.642609,-2.63808 0.208788,-1.10809 2.442476,0.24741 1.618287,-0.45305 -0.93618,-0.10859 0.956457,-1.20861 0.750593,0.42089 0.370195,0.40387 0.847339,-2.17509 0.964673,-0.32526 0.392781,1.46424 0.0056,5.79042 -2.213586,3.33373 l -0.231551,-0.16223 -0.245809,-0.17598 z m -6.1728107,-1.14769 c -0.5498106,-1.27341 -2.3564483,-1.31909 -1.5798013,-0.13447 -0.6853292,-0.39019 -1.1144882,1.32885 -1.813693,0.12109 0.3767154,-0.59968 2.0258578,-4.45098 0.7349648,-2.78057 0.1240052,0.98061 -1.6542838,0.51332 -1.9031039,1.08585 0.063385,-1.45901 -0.9058385,-0.85484 -1.1624802,-2.27213 -1.2936943,-0.46476 -0.3995029,-1.62597 -0.040269,-0.35336 0.4691255,-1.10798 -0.3027293,-1.76474 -1.47355515,-2.17346 -0.82293155,1.11163 -2.00581365,-0.77376 -0.54494675,-0.51356 0.62890494,-0.60309 1.6838773,0.14305 0.8019245,-0.9031 1.5811266,0.60642 0.7503636,-0.80794 0.042034,-0.73449 0.2446956,-0.91482 -1.32851324,0.34956 -0.7270834,-1.14443 -0.24774928,-0.11508 -1.22387586,0.0454 -1.13768163,0.15209 -0.31575037,0.72909 -0.98744017,1.28206 -1.18586007,2.13988 0.8216012,-0.76905 0.08153,0.52923 0.8661635,0.47471 0.032445,1.49354 -2.1664347,-0.79024 -1.1186468,0.67588 -0.2634928,1.18847 -1.5999701,3.18617 -2.5200779,2.5864 1.0885657,-0.66505 1.6760954,-0.96066 1.5286702,-2.30501 0.8510263,-0.85053 -1.7759648,-1.8795 -0.1749208,-2.62414 1.3094563,-2.08004 2.63236855,-4.40092 5.3250018,-4.80029 1.2675018,-0.26542 2.7089729,-0.53905 3.2299989,-1.51692 1.0671685,0.80307 -0.6098623,-3.12392 0.9650875,-2.05007 0.9383431,1.51689 2.8602031,-0.94006 1.9158342,1.25813 1.5852687,0.92663 -0.2587539,2.8724 -0.113075,4.37001 -1.0919203,-0.28036 -0.9698049,2.51777 0.3857811,1.28203 -0.7235171,-2.38306 1.0396269,1.76019 -0.866387,1.65026 -0.4726761,-2.44632 -1.0726613,3.25129 -1.0797557,0.35098 0.4060936,-1.33385 -1.4740526,1.35135 -1.354889,-0.88828 -0.5556421,-0.96154 -2.5639918,0.25248 -0.8397676,0.27635 -0.7753607,1.35588 0.00386,0.66632 0.6481725,0.27495 -0.6371806,0.79849 0.3534761,1.13182 -0.2697518,2.02495 1.381352,-1.26051 3.9705514,0.85901 1.9474491,1.76112 -0.876789,-0.78819 -3.4338238,-2.11459 -3.3367299,-1.06243 1.9289555,0.42704 3.3580884,2.74935 5.2495371,3.72135 1.7229514,0.54619 1.3926396,2.5243 0.031172,2.68915 -0.1430338,-0.2126 -0.2865827,-0.42683 -0.4293153,-0.63847 z M 2.925,116.64771 c -1.1680694,-2.88777 -0.9457265,1.15217 0,0 z m -0.1879947,-2.41324 c 1.0645473,-1.57907 -2.19873981,-1.01874 -0.732827,0.33461 0.2792489,-0.002 0.5161428,-0.18325 0.732827,-0.33461 z M 3.71875,113.2875 c -1.0145441,-0.7306 1.0386988,-1.49522 0.8768324,-0.0125 1.7248908,-1.2705 -2.2374497,-2.23792 -1.9930598,-1.04833 1.9747217,-0.42789 0.2930838,0.17682 -0.050049,0.70935 0.2198687,0.1412 1.075157,1.01023 1.1662767,0.35145 z m -1.7713333,-1.22953 c 1.3141835,-2.42886 -2.2489147,2.54742 -0.051604,0.38006 l 0.065019,-0.20689 z M 18.942444,121.225 c -0.216154,-1.96006 1.758826,-4.07692 2.545522,-1.82031 -0.417935,0.2631 -2.673654,2.94176 -2.545522,1.82031 z m -21.9958759,-0.42634 c -0.8563816,-0.251 0.1424271,-1.37347 0.9513489,-1.20915 -0.3180564,0.21177 -0.8375915,2.59816 -0.9513489,1.20915 z m 12.7619173,-0.23512 c 0.4859336,-1.30196 -2.0906979,-2.12764 0.090697,-2.60098 0.6458876,0.28572 1.0648636,0.78489 0.082589,0.44271 0.4010336,0.4898 2.0832976,1.20823 0.6048456,1.5943 -0.370038,-1.72277 -0.0458,2.104 -0.778161,0.564 z m -11.3829388,-2.39651 c 0.594392,-0.2484 -1.2094459,-1.67013 0.4367711,-0.63932 0.49233048,0.3137 -0.074603,1.44361 -0.4367711,0.63932 z m 2.54893257,-0.29226 c -0.77021321,-0.68624 0.32604173,-1.52391 0.24103243,-0.42326 0.7614612,0.10972 0.4320505,0.93505 -0.24103243,0.42326 z M 9.056978,115.74514 c 1.775468,-0.2329 0.88137,-2.14747 -0.3851645,-1.06858 -1.0859256,0.22896 0.7626303,-1.14634 1.3748925,-0.86639 0.90923,-1.75466 -0.9447575,1.07822 -0.6018037,-0.87891 -0.6231743,-1.00907 2.6255127,0.0985 1.0554847,1.33297 0.793987,1.18294 -0.9815175,2.29338 -1.443409,1.48091 z m 1.364488,-3.66793 c -1.9133902,-0.48696 1.070866,-0.44264 -0.286569,-1.41658 -0.6524522,-0.52235 -1.493276,-1.72145 -0.148556,-1.56445 0.515972,-0.80691 0.306896,-1.94554 -0.2358229,-0.35899 -0.7735438,-1.1412 -1.4021021,-2.1526 0.5608969,-1.80423 0.990314,0.15307 2.477327,0.42928 1.38483,-0.64213 1.951589,0.51197 -0.367035,-1.49326 1.544227,-1.54818 1.52672,-0.71936 2.531317,-3.00284 0.829078,-4.10562 2.183391,-0.61718 -1.581385,-1.36019 -0.644186,0.53388 -0.518312,0.47762 -0.452966,-1.211866 -1.29628,-0.0666 0.326509,-2.039396 4.012031,-1.992759 3.136735,0.008 0.489026,0.49712 0.919415,1.07148 -0.09252,0.62832 0.710541,1.23137 0.446026,1.93674 0.05857,2.57853 1.468861,0.87554 -0.841103,1.24312 -0.336194,0.17859 -1.478843,0.69367 -1.682731,2.27868 -2.273391,2.95397 -1.719407,0.19411 -3.2188198,2.51992 -1.635204,3.80861 0.92907,0.566 0.02639,1.5622 -0.565616,0.81702 z m 28.486867,-4.74284 c 0.533371,-1.18594 2.580121,1.06527 0.5684,0.0268 -0.04581,0.48494 -0.570376,0.48561 -0.5684,-0.0268 z m -25.131366,-0.28972 c 0.210858,-1.55245 1.945932,-0.6278 0,0 z m 3.609404,-0.0215 c 0.975685,-0.86712 -1.656835,-1.12712 -0.513189,-2.13022 -0.200656,1.33982 2.039092,1.04885 1.318656,0.0709 2.047022,0.45381 0.184232,1.87999 -0.805467,2.0593 z m -8.6535896,-2.05433 c 1.4682896,-0.92325 0.6229353,1.0896 -0.1355802,0.19069 z M 8.48125,103.54771 c 0.1636759,-1.67475 2.24725,-0.93391 0.5953125,-0.0763 -0.016401,-0.10854 -0.5163762,0.33501 -0.5953125,0.0763 z m 26.024848,-1.505 c 0.08593,-2.338958 0.911821,0.0576 0.153454,0.28029 l -0.153446,-0.28029 z M 22.76875,99.13229 c 1.035872,-1.572848 1.035482,1.52411 0,0 z"
         id="path2958" /><path
         style="fill:#79a374;stroke-width:0.264583"
         d="m 19.792187,138.77685 c 0.971817,-0.76453 -2.33645,-0.11131 -0.483199,-1.58438 1.830957,-1.41482 3.621012,-2.89327 5.592963,-4.22717 3.258163,-2.37421 6.918172,-4.11287 10.260891,-6.3397 -0.08064,-0.78312 -2.956726,1.21739 -3.9437,1.5447 -1.84747,0.95553 -3.689389,1.92177 -5.534326,2.88218 -0.05686,-1.40738 1.806819,-4.23075 0.64215,-4.50725 -1.335888,2.02414 -1.188228,5.03001 -3.523884,6.31137 -0.907794,0.74732 -3.691762,2.43811 -2.280877,0.022 1.098902,-2.49437 2.533203,-4.81667 3.953449,-7.13643 3.922704,-1.71865 7.739913,-3.73096 11.768317,-5.16792 2.044476,0.83034 0.401476,-2.66137 0.81902,-0.16388 -1.056278,-0.6993 -1.480116,-0.46666 -1.892261,-1.44487 -1.638191,-0.32776 0.735372,2.09443 -1.487006,1.91435 -2.526393,1.01738 -5.039041,2.0939 -7.635224,2.91941 1.423602,-2.31405 3.341585,-4.35692 5.274023,-6.27166 0.835818,-0.12791 1.710901,-1.97792 1.695908,-2.57144 -1.209585,0.58858 -2.112981,-0.2682 -1.785942,1.06967 -0.935394,1.40418 -1.709362,1.37456 -1.979927,-0.26075 -1.972819,-1.48932 2.92775,-3.55887 1.489274,-3.94825 -1.072763,1.12684 -1.198077,-0.43775 -2.340655,0.24091 1.412747,2.23846 -1.863933,0.39573 -1.525664,-0.9659 -0.975419,-0.2935 -2.305419,-1.27458 -1.576292,0.28807 -1.503386,0.0935 0.09411,1.10128 -1.39407,0.58589 0.272529,-0.76283 -0.716453,0.17461 -1.033121,-0.46945 -0.27219,1.44448 2.43023,2.83959 -0.30576,2.86964 -1.062189,0.22952 0.402696,-1.08828 -0.919179,-1.6413 -0.293277,-1.195 1.847726,-2.38716 -0.244832,-1.48052 -0.634005,1.16622 -1.937747,0.15227 -0.521275,-0.49801 -1.162343,0.25231 -1.822489,1.01141 -1.237818,-0.63506 0.68837,-1.90333 0.03628,-4.1409 -0.03921,-5.78218 1.003422,0.88106 2.502242,0.61201 1.369204,-1.05309 1.168927,0.35275 2.873313,-2.23807 2.048464,0.19515 1.953473,0.80762 -1.414036,-0.54146 -1.424201,1.15137 0.04597,2.04241 2.388856,-1.59848 1.197578,0.53642 1.771959,-0.40693 -0.55892,1.67962 1.220055,2.29218 -0.298607,-0.82489 0.712185,-1.11867 0.449444,-2.32065 1.206022,-0.58156 0.465044,-1.69574 -0.0313,-1.80771 1.056081,-0.57264 -1.293843,-1.84901 0.724254,-0.79543 0.30412,1.8257 2.680144,-2.05479 3.643503,0.38239 -1.169209,0.69539 1.75419,2.47504 -0.411956,1.50216 -0.219266,1.39462 -1.752114,3.6729 -2.105086,1.56811 -0.106747,-1.49197 -1.720921,-0.34834 -0.366296,-0.15661 -1.310733,1.2392 1.248079,2.99021 1.845968,0.7943 0.765819,-1.62976 2.782802,-2.25808 3.237867,-0.38606 2.262134,1.61557 3.228357,-1.8162 0.91956,-2.50818 -0.744174,0.0894 -1.494484,0.50014 -1.736813,-0.43137 -1.343697,0.65409 1.481803,-2.21144 0.689426,-0.31785 0.372357,-1.46224 1.895136,-1.67831 1.067155,-0.27002 -1.491036,0.12837 1.058197,1.47186 1.485861,1.17168 0.777329,-0.90786 1.739105,-0.99857 1.554564,0.49278 -1.575232,0.28735 0.204113,2.14084 1.228926,1.39449 1.099362,0.26543 2.366747,0.74614 0.950088,1.70355 -0.449442,-0.57535 -0.223529,-1.08265 -1.497986,-0.41928 -0.489154,-0.31372 1.302295,-0.85068 -0.301394,-0.52241 -0.633478,1.6956 -0.23805,-1.45978 -1.123049,0.10787 -1.271799,1.17337 2.178299,3.76285 1.495534,1.91636 0.482594,-0.49114 -1.431131,-0.35571 0.02266,-1.09466 1.159138,-0.86532 0.05125,2.78437 1.789515,1.19217 1.203525,-1.98454 0.869597,1.05578 2.039914,0.86199 -1.118234,1.01184 -2.644922,0.93717 -3.805698,1.31825 -0.435362,-2.41109 -0.239837,1.65116 1.081629,0.47458 0.707797,-1.07263 0.912467,1.98964 0.580615,2.14397 -2.159326,-0.69503 0.934343,2.23007 -0.841659,2.19666 -0.176197,1.14217 0.214682,2.35756 0.861219,1.03157 1.020356,-0.71611 1.751608,0.004 2.617206,0.37136 -0.232758,-1.35284 2.096295,-1.30643 3.016181,-2.0779 0.906459,2.61832 0.953734,5.75251 -0.361614,8.25202 -0.837184,1.52937 -0.147424,-1.72173 -1.046377,0.49619 -0.115987,1.60714 -2.305264,3.00714 -2.275012,0.71344 -1.140872,-0.33752 -1.45756,2.2094 -2.961136,1.80154 -0.714458,2.12194 1.484637,3.29108 2.721567,1.38832 1.738222,0.29998 -1.346755,4.72971 0.541249,2.09042 1.05814,1.83893 0.31469,-2.78825 1.112584,-0.4087 -0.114516,0.6072 -1.424321,3.94137 -0.223075,1.98793 0.349248,-0.84771 0.630544,-3.71263 1.829241,-2.72794 -0.473799,2.41027 -2.17225,4.63564 -4.672105,4.97177 -0.879834,0.53041 -1.276416,1.5003 -1.872989,-0.0275 -2.408913,-1.08039 -2.246296,4.06942 -4.292225,3.137 -1.542402,0.75922 -1.501529,5.9e-4 -2.844993,0.91491 -1.194186,-1.30338 -2.962798,1.70413 -3.077029,-0.3937 -0.783475,-1.56274 -4.773626,0.48264 -2.118997,-0.1188 2.022609,-0.34647 -1.245427,0.75054 0.154931,1.56129 -1.281426,-0.043 -3.098263,0.21486 -3.916754,0.17168 z m 16.981877,-13.72627 c 0.769231,-1.67255 -2.301496,1.63422 -0.308236,0.0206 l 0.169404,-0.0497 z m 3.619963,-2.17599 c 1.886112,-1.56359 -1.766828,-3.03872 -1.276938,-0.80012 1.74077,0.20373 -0.03296,1.39157 1.276938,0.80012 z m -5.070636,-5.63949 c 1.3751,-1.38653 0.118765,-2.99686 1.106519,-4.12847 -1.790618,-2.01404 -2.698339,2.11034 -2.198079,3.57455 -0.144402,0.39893 1.362387,1.25742 1.09156,0.55392 z M 29.9125,109.30399 c -0.637188,-2.06683 -0.135755,1.70188 -1.00947,-0.46044 -0.543493,-1.00339 -1.402745,0.54629 -0.482349,0.87207 0.462555,1.05738 0.825666,2.64318 1.262544,0.57801 0.102208,-0.32203 0.211993,-0.64908 0.229275,-0.98964 z m -2.383668,-0.64379 c 1.093114,0.10174 1.215397,-2.43169 0.532175,-0.67212 -0.532779,-1.11068 -1.506102,0.75234 -1.449745,0.54195 -1.214138,-0.54191 0.626544,1.25986 0.91757,0.13017 z m 4.982921,-0.65692 c -0.300138,-0.17293 -2.434568,-1.65381 -1.227164,-0.0267 0.344961,0.37507 1.010435,0.79758 1.227164,0.0267 z m -4.867111,-3.06906 c 1.648523,-2.04383 -2.992354,-2.06244 -1.405825,0.23555 0.387012,0.37963 1.07667,0.0711 1.405825,-0.23555 z m -12.670221,32.97713 c -0.784949,-0.20874 -2.592438,-0.87332 -0.597697,-0.6486 0.480926,-0.22109 1.531734,1.16925 0.597697,0.6486 z m -3.847338,-0.28219 c 1.067692,-1.09473 1.650099,1.03164 0,0 z m -2.8442705,-0.53741 c -1.538376,-1.1545 0.7940647,0.0622 1.3831918,-0.86599 2.2326817,0.0568 -0.2402942,1.54271 -1.3831918,0.86599 z m 2.2017695,-2.02214 c -0.8455661,-1.0359 -1.8166232,0.40298 -2.1232349,-0.77695 -1.8415924,0.5998 0.7676262,-3.02127 -1.3195958,-1.23916 -1.9251237,-0.16053 1.7232252,-2.85795 2.5488879,-1.10974 0.6418578,0.29759 3.3438908,2.13539 2.4042138,2.04735 -1.014988,-1.49488 0.04425,2.7059 -1.510271,1.0785 z m -11.6467643,-2.34529 c -0.575497,-1.19076 -1.0802469,-0.26267 -1.5930795,0.42336 -1.5540535,-0.81862 -3.730661,-2.04925 -3.9878096,-4.13922 -0.3971327,-1.51778 1.5027667,-0.75488 0.3812811,-1.88087 0.1315191,-1.40935 -0.7906434,1.67151 -0.626536,-0.67024 0.8061956,-2.53293 2.0853372,2.17098 2.6837695,3.09531 0.429646,1.61386 1.6473997,1.11395 3.1285156,1.72644 0.75034008,0.50574 2.09456303,-0.0288 1.30598597,1.26727 2.58863863,0.49779 -1.12339897,1.05677 -1.29212707,0.17795 z m -2.9375052,-1.15084 c -1.5854949,-1.1113 -1.350469,0.24824 0.1061093,0.1292 z m 21.8569145,0.0174 c 0.254141,-2.82086 2.537249,-4.8945 3.82376,-7.29464 1.409151,-2.77245 -1.531697,0.76827 -2.053793,1.67129 -0.649558,0.89301 -2.247618,3.16422 -1.622938,0.69015 0.272502,-0.96337 0.105254,-2.17161 0.64485,-2.99907 1.58162,-1.39281 2.972848,-3.07736 4.820362,-4.10917 0.599725,-0.88036 2.752759,-3.76994 3.554894,-2.10483 0.888904,-1.26007 2.498502,-1.64927 1.872131,0.47459 -1.114588,2.202 -3.296498,3.65944 -4.74151,5.65012 -2.278974,2.79441 -4.118774,5.90799 -6.131336,8.88982 -0.310723,-0.0169 -0.06521,-0.69406 -0.16642,-0.86826 z m -3.432072,0.30968 c -1.630484,-1.86224 -3.119307,-3.94509 -4.077951,-6.23462 -0.194692,-2.81562 3.487764,-0.75821 4.479148,0.41776 0.586456,0.57456 1.722662,0.91962 1.283024,1.92254 0.02127,1.3954 -0.351644,2.46784 -1.396018,0.845 -0.889591,-1.2143 -1.73688,-1.03691 -0.668264,0.33296 0.392997,0.76523 3.18744,4.24365 0.380061,2.71636 z M 9.6342883,130.4039 c -1.0636927,-0.57748 -2.7472556,-1.21232 -1.7726076,-2.49612 -0.7472238,-0.23839 0.8483306,-1.15873 1.1287627,-1.37231 1.1299266,1.32861 2.8236656,3.89005 2.9309806,5.04749 -0.781647,-0.35372 -1.534548,-0.76818 -2.2871357,-1.17906 z m -11.3201506,-1.41868 c 0.020858,-0.83241 1.64079369,-2.61816 -0.1884614,-1.30442 -1.237427,0.94184 -0.5915796,0.40378 -0.6458485,-0.25415 -1.6779632,0.1736 0.00504,-2.45893 0.3757552,-0.53861 1.66601605,-0.95625 2.75631171,0.77826 0.9659266,1.59377 -0.4898717,0.35049 0.95825586,0.99965 -0.3404623,0.79641 l -0.1669095,-0.29303 z m 7.1579505,-3.43405 c -0.3027982,-0.59635 -0.1914406,-1.3979 0.8924951,-1.00574 -0.062028,0.37652 -1.2850217,2.77684 -0.8924951,1.00574 z m 9.0415978,-1.16433 c -2.218571,-0.31234 -1.633714,-3.59493 0.396775,-2.51762 1.14575,2.03906 0.281357,-1.45785 1.428167,0.3851 1.101024,-1.75432 0.575629,2.20482 0.07942,2.99055 -0.188579,0.97089 -1.239903,-0.62396 -1.810507,-0.78919 l -0.09383,-0.0688 z m -20.3860818,0.85983 c -1.6700178,-0.1518 0.7789344,-1.42537 -0.7165508,-1.8951 1.0155998,-0.57264 0.7137924,-0.5811 -0.011053,-0.95987 1.5960605,-0.31384 -0.9774893,-1.15299 0.5734363,-1.84569 1.6754318,-1.7369 0.5778748,2.60415 1.1721293,3.49065 0.3348497,1.18108 0.303728,1.54961 -1.0179618,1.21001 z m 12.5096084,-0.4857 c 0.1209575,-1.13991 1.1379716,-2.26409 0.9626153,-0.40647 -0.4422422,-0.44643 -0.766007,0.69239 -0.9626153,0.40647 z m -8.4054235,-1.06469 c 0.5824229,-0.60489 2.04315459,-1.87177 0.86380145,-0.23349 -0.50535835,0.77727 -2.51481465,1.26148 -0.86380145,0.23349 z m 6.9624998,-0.40399 c -0.9000499,-1.76089 1.1832216,-1.7115 1.5874841,-2.39623 0.5389098,-1.60054 1.3065594,0.62205 2.4039748,0.67581 1.3213592,1.37313 -1.7572015,2.80915 -0.6450008,0.73184 -0.1223416,-1.08644 -1.138635,-1.10863 -0.618186,0.15545 -1.638693,-1.0341 -2.268302,-0.40419 -2.3355514,1.0048 l -0.2327113,0.0221 -0.1600018,-0.19379 z m 14.1416751,-3.28168 c 0.128916,-0.84829 0.790891,-2.77176 1.075701,-1.00944 -1.259769,-0.18224 0.940496,1.01997 1.011435,-0.0754 -0.253147,1.30391 -1.689834,1.96241 -2.592524,2.85206 0.168463,-0.58908 0.336921,-1.17816 0.505388,-1.76724 z m -16.0175865,0.4263 c -1.1370265,-0.88964 1.6240104,-0.7971 -0.076112,-1.22407 -1.2947743,0.0727 0.07167,-2.10471 0.7410674,-1.13045 0.6299872,-0.7937 2.4930828,1.40194 1.0583334,1.70302 -0.5541717,0.95462 -0.7574099,-3.01435 -0.7053236,-0.29578 0.7450565,1.08001 -0.318029,1.52102 -1.0179652,0.94728 z m 6.4857892,-0.79941 c -1.2826545,-0.27223 -0.6211665,-2.22456 0.3682713,-0.60483 0.41123,0.31456 -0.0185,1.38966 -0.3682713,0.60483 z m -4.3033395,-1.89818 c -2.4379742,-2.49222 4.1501734,-0.64687 0.628432,0.30923 l -0.305782,-0.1128 z m -8.4761059,-0.12155 c 0.2676681,-1.62493 -1.5215361,-2.79184 0.3680351,-4.0952 0.9172793,-2.01208 2.79785627,-4.03343 5.1486272,-3.80867 0.4520161,1.07057 1.3387404,-0.39054 1.9011096,1.02043 -0.4705813,-1.32947 2.1061229,0.68659 0.3965334,0.99137 -1.1983418,1.17378 1.2281049,-1.70073 -0.5676591,-0.40902 -0.7499128,-1.53747 -1.6470052,1.86788 -1.9247932,-0.35887 -1.47643395,0.54621 -2.18226017,1.74063 -1.1256574,1.63633 -0.65366598,0.59883 -1.77452514,0.89853 -1.13822422,-0.36507 -1.42221088,0.9845 -1.92238878,3.0661 -3.14363218,2.80685 0.1325038,1.08029 1.142096,0.37065 0.5074114,1.55958 0.9898695,-0.37435 -0.00721,1.15444 -0.4217506,1.02227 z m 5.1552152,-0.25406 c -0.1109893,-0.76066 -2.98419858,-1.53032 -0.5978071,-1.23926 1.1316172,1.60668 2.1965719,-0.0501 0.8415261,-1.10044 -0.2822287,-0.70273 2.7958358,0.73442 1.8466238,1.21573 0.4255334,0.95733 -1.4185547,-0.1638 -1.5222911,1.1082 -0.1383741,0.11925 -0.791799,0.66907 -0.5680517,0.0158 z m 21.2888905,-0.59395 c -0.992699,-1.57829 1.947468,0.11024 0.255262,0.26245 l -0.255258,-0.26246 z m -13.297969,-1.29398 c -0.5167945,-1.02617 0.355614,-2.58627 0.271215,-0.63293 0.09744,0.19028 -0.408533,1.14461 -0.271215,0.63293 z m -4.8429148,-1.08941 c -0.5051767,-1.2397 2.5833985,-1.36507 0.4810998,-1.93046 -0.205278,0.57086 -1.3400363,1.69327 -0.521798,-0.0501 1.1800081,-1.44756 -1.0515868,-3.1973 -0.056453,-4.25244 -0.1688376,1.24063 1.38588,-0.84764 1.2774648,0.61251 1.7605405,-0.89039 0.9730494,-2.32484 -0.5152628,-1.25745 -2.3494817,-2.32377 3.2917163,-0.73013 2.3398664,0.9084 0.5366385,1.87406 -1.2628867,3.1536 -1.057589,4.71822 1.6163644,-0.69642 1.2772669,1.37232 0.1949508,1.37019 -0.4581624,-1.86202 -0.3893164,1.35051 -1.2243447,-0.2499 -0.466172,-0.002 -0.063793,1.22869 -0.9179339,0.13105 z m 14.2506038,-1.39186 c -0.991676,-1.57015 2.08132,-0.40997 0.443286,-0.12842 0.190367,0.6897 -0.01564,0.93342 -0.443286,0.12842 z m 5.042286,0.44418 c 0.568365,-1.38153 1.99736,-0.80499 0.439473,0.0921 -0.07412,0.0657 -0.451557,0.12724 -0.439473,-0.0921 z m 13.49375,-0.28348 c 0.502967,-1.14187 1.472834,0.85333 0.01686,0.25783 l -0.01687,-0.25783 z M 9.6167253,108.06198 c -1.5550804,-1.60992 0.9772907,-0.9686 0.2540178,0.43837 l -0.1083545,-0.10384 z m 2.9616607,-1.89061 c 0.07063,-1.15048 0.647936,-1.31962 0.929947,-1.08593 1.012141,-0.94139 -1.556794,3.11819 -0.929947,1.08593 z m 2.174867,-2.32102 c 0.06766,-0.86495 0.705241,-2.82997 0.75972,-1.0136 -0.165185,0.23035 -0.339004,1.12942 -0.75972,1.0136 z m -5.8388827,-0.56243 c 0.7522939,-1.91379 1.8730887,0.11122 0,0 z m 23.5534727,0.0313 c -0.633593,-1.52997 2.084145,-0.29734 0,0 z m -2.896589,-1.40882 c -0.642183,-0.92129 0.23545,-2.882894 0.811307,-1.16257 -0.750865,1.04099 -0.101277,-1.251534 -0.667565,0.17612 0.356637,0.35342 0.244599,2.69521 -0.143742,0.98645 z m -16.42962,-0.94281 c -1.483958,-0.27137 0.86118,-2.095194 0.304639,0.13786 0.163505,0.54504 -0.472543,0.006 -0.304639,-0.13786 z m 19.447391,-1.262046 c 0.859255,-2.073674 0.554039,1.274966 0,0 z M 22.94514,99.352775 c -0.556492,-1.784727 1.714048,0.56774 0,0 z"
         id="path2956" /><path
         style="fill:#6c9a66;stroke-width:0.264583"
         d="m 19.924479,138.331 c -2.348923,-1.36694 2.066164,-2.34514 2.641713,-3.65059 3.952894,-3.07509 8.393267,-5.4251 12.661797,-8.00277 0.217726,-1.09126 -2.771198,1.02994 -3.579558,1.25708 -1.991257,1.02502 -3.973466,2.06752 -5.960284,3.10111 -0.0224,-1.50068 1.6343,-3.75952 0.75164,-4.58929 -1.485079,2.00327 -1.242345,5.08836 -3.623632,6.37749 -0.830338,0.8471 -3.422467,1.96869 -2.163052,-0.19762 1.154307,-2.48099 2.541494,-4.95541 4.226244,-7.08128 3.729862,-1.61809 7.330982,-3.61697 11.250861,-4.72963 1.830752,0.59305 2.285135,-1.07706 0.694022,-1.70281 -0.0298,1.22911 -2.355327,0.63932 -0.433697,-0.13387 -0.78908,-0.0489 -2.117049,-1.84044 -3.774297,-1.68206 -1.298135,-0.62186 2.03571,-3.03658 -0.764697,-2.24276 -0.99348,0.21869 -2.836346,1.39235 -2.177223,-0.063 -0.938141,-0.80492 1.040635,-0.64292 0.302498,-1.63088 0.733218,-0.45091 2.877514,-3.1058 0.861457,-1.52694 -2.139777,1.34843 -0.917132,-1.5472 -0.81469,-2.55323 -0.473023,-1.00539 -3.131225,-1.58901 -1.307117,-1.63882 -2.01481,-1.28584 1.570864,-3.74401 2.33522,-1.33568 1.734175,1.6321 3.778428,-1.81572 1.031099,-2.20883 -1.071512,-0.56446 -0.170177,-1.45693 -0.03489,-0.3344 1.180584,0.33096 3.787621,-1.23862 2.176359,0.94487 1.001319,1.34982 -1.508892,3.62348 1.009488,4.29883 0.100672,1.51239 1.153368,3.23385 -0.558588,3.85795 -0.7533,1.33445 -1.355242,4.42837 0.74316,4.81381 0.06388,-1.161 0.914566,-1.91527 0.883612,-3.14455 0.694117,0.35581 0.164251,4.34624 0.754324,3.80166 -0.371825,-1.45623 2.552823,0.46193 1.124479,0.47834 1.316975,0.28526 -1.23912,0.98859 0.492142,0.66806 1.300128,-0.34805 0.917868,-2.59229 0.235462,-0.68897 -0.108371,0.16303 0.139176,-2.19004 1.010857,-1.18253 0.675016,-1.29984 1.978491,-2.01616 3.208458,-2.71093 0.821478,2.76878 0.848449,5.97106 -0.524696,8.56007 -0.947962,1.33332 0.821171,-3.33581 -0.533037,-1.01581 -0.51033,0.90912 -0.693321,3.46886 -1.491782,2.30583 -0.330798,0.95443 -2.107145,-1.75326 -2.247386,0.22117 -0.226792,1.13546 -2.970407,1.18179 -1.432407,0.46712 1.407269,-0.92566 -1.553466,-1.76428 -1.2137,0.18894 0.914123,1.24184 -0.164143,1.99494 0.716219,2.95995 -0.919087,1.59662 2.362167,0.0249 2.529447,-0.83492 2.307382,-0.17837 -1.880833,4.20327 0.764232,2.82747 0.07054,1.31055 0.211951,2.53889 1.043303,0.59986 -0.08441,-0.99786 1.953818,-4.09732 1.383811,-1.67108 -0.812839,2.47337 -2.949066,4.27258 -5.581974,3.90625 1.558207,1.16255 -0.70574,0.41614 -1.344858,-0.0735 -1.65441,0.47806 -2.165398,0.82262 -2.170753,2.53746 -0.799405,-0.17415 0.255405,-1.91333 -1.059445,-0.54211 -1.415617,-0.46842 -2.68481,2.35974 -3.176615,2.11841 1.147596,-0.85784 -1.508127,0.004 -0.89781,-0.85639 -1.529127,3.00767 -3.499682,-2.19315 -5.352758,0.29056 0.420256,1.09949 1.745317,2.17372 -0.187686,1.76638 -0.815278,-0.0222 -1.63793,-0.10278 -2.425274,-0.32346 z m 20.470347,-15.45641 c 0.799657,-0.85871 2.156212,-4.00359 0.50328,-1.58122 -1.011924,-1.50843 -2.54788,0.61109 -1.385499,1.33226 0.04812,0.48517 0.571965,0.54063 0.882219,0.24896 z m 1.365425,-4.0038 c -0.711535,-1.73774 -0.905067,2.69654 -0.05117,0.40967 z m 0.852249,-0.6885 c 0.370336,-1.19381 -2.003316,0.36732 -0.292512,0.28029 z M 32.558333,108.12812 c 0.142548,-1.39427 -3.030748,-1.73647 -1.666106,-0.13803 0.515241,0.0546 1.426431,1.07941 1.666106,0.13803 z m -2.910416,-1.97113 c -0.406434,-1.26243 -1.796146,1.14504 -0.155443,0.17457 z m -19.05,28.69405 c -0.32502,-0.85428 -0.7686904,0.68843 -1.2738173,-0.59034 -0.8212845,1.7972 -0.5517186,-0.93238 -1.5195619,0.0528 0.6019637,-1.62311 0.1632216,-2.22399 -1.1712986,-1.42473 1.1104215,-3.09763 4.0831058,-0.25016 5.5280448,1.03622 -0.360386,-0.49355 -1.330976,0.21628 -0.59955,1.25673 -0.307517,0.12109 -0.931757,0.10935 -0.963817,-0.33069 z m -10.99228055,-1.70026 c -0.74898805,-1.34092 -1.94169265,-0.77452 -2.56582915,0.0112 -1.0795571,-0.75077 -2.0728658,-1.9361 -0.2389571,-2.14605 1.1089496,-0.0637 4.8116184,1.08113 2.77971317,2.21831 l 0.0250732,-0.0834 z M 17.757227,131.57836 c 0.265979,-2.67649 2.368549,-4.69703 3.640789,-6.95265 1.044916,-1.11488 0.646012,-2.24838 -0.379208,-0.61409 -1.044117,1.09237 -2.244716,3.40788 -3.210851,3.80496 -0.06916,-2.55261 0.97952,-4.90656 3.095119,-6.39001 1.565005,-0.98404 2.656478,-1.9835 3.690906,-3.21223 0.354049,1.15876 1.575629,-2.4354 1.541496,-0.48162 0.974534,0.38083 1.956557,-1.35352 2.718689,0.088 -1.933487,2.89028 -4.640225,5.20317 -6.577232,8.11242 -1.552633,2.10473 -2.921198,4.3368 -4.354034,6.52117 -0.31246,-0.007 -0.06232,-0.70643 -0.165674,-0.87597 z M 14.4282,131.8477 c -1.654639,-1.6443 -3.041594,-3.69709 -3.834596,-5.89548 -0.233452,-2.94781 3.708487,-0.81508 4.73295,0.67109 1.266843,0.80014 0.599971,4.86427 -0.729865,2.21004 -2.348952,-2.37347 -0.206106,1.39677 0.539407,2.28143 0.908194,1.21086 0.359452,1.53996 -0.707896,0.73292 z m -20.0271524,-0.50239 c -1.222524,-0.71024 -1.5139801,-5.23828 -0.6019398,-2.06117 1.7892473,2.80187 -0.9075446,-3.26067 0.9005861,-0.47367 0.4673992,0.79732 1.8117918,2.19087 0.2878063,2.11336 -1.6387607,-1.81825 0.7406747,2.07699 -0.5864526,0.42148 z m 15.4692649,-0.83297 c -1.5038076,-0.66273 -2.7684279,-1.42406 -1.4708637,-2.95699 0.1625624,-0.46188 0.6736625,-0.35207 0.6654165,-0.97644 0.9932947,1.45517 2.6703267,3.85134 2.8695977,5.00302 -0.703457,-0.32588 -1.384021,-0.69828 -2.0641505,-1.06959 z m 4.9033935,-5.93468 c -1.040686,-0.62949 -1.931988,-1.52889 -0.905108,-2.16204 0.476974,-1.25301 1.66639,1.58785 2.201147,-0.16284 1.974363,-0.74906 0.500892,5.34318 -1.296039,2.32488 z m -20.6020045,-0.77297 c -0.6292461,-3.81249 1.8537723,1.3664 0,0 z m 32.4224815,-0.88937 c 1.191252,-2.0463 3.311494,-3.29895 4.42229,-5.12647 0.917508,-1.13326 2.689673,0.6811 0.797254,0.27629 -0.660862,-0.90354 -0.709545,2.16232 0.391053,0.65138 1.540143,-1.56887 2.46222,0.26731 2.337931,1.76963 -2.815022,1.0791 -5.54956,2.46204 -8.438581,3.27238 -0.07612,-0.35536 0.426941,-0.54528 0.490053,-0.84321 z m -18.2054419,0.49071 c 0.8245543,-1.2341 0.3276036,-1.63009 -0.3976382,-2.49513 1.499925,0.008 1.9569719,2.39035 0.3976382,2.49513 z m -1.1493976,-1.29297 c -0.8718508,-0.52506 0.041397,-2.65165 0.1931516,-1.29649 -0.4895798,0.5569 1.4104716,1.76385 -0.1931591,1.29649 z m -12.7148643,-0.49008 c -0.9477284,-1.00639 0.5891449,-2.02997 0.330909,-0.33187 0.1143458,0.44026 0.1250699,1.01672 -0.330909,0.33187 z m 24.7539558,-1.33351 c 0.04254,-0.77807 0.845486,-1.71413 0.661497,-0.41783 2.061075,-0.69077 -1.146006,2.18295 -0.993794,1.61168 0.110766,-0.39795 0.221531,-0.7959 0.332297,-1.19385 z M 3.3201991,118.91789 c -0.8669963,-0.60234 1.9248142,-0.5017 0.3915114,0.18614 l -0.3915113,-0.18619 z m 1.994163,-1.39094 c -1.3637376,-1.31742 1.1874907,-0.94277 1.1381185,-0.77142 1.1241296,-0.72689 -0.049114,0.93865 0.1334699,1.0893 -0.4347188,0.25998 -0.9180554,-0.0825 -1.2715884,-0.31788 z m -1.8044813,-1.20681 c -0.483402,-0.83645 1.923897,-0.59036 0.5329761,0.3807 l -0.233205,-0.0995 z m 27.0010802,-0.30491 c 1.976713,-1.04169 -0.903937,1.48278 0,0 z M -3.6895833,114.9077 c 1.6195039,-1.89827 2.5314157,-4.74439 5.3856187,-5.13131 2.9169385,-0.48647 -3.0568762,1.01302 -0.78625055,1.4931 -0.41789629,0.97179 -1.91843255,1.38253 -0.99083306,-0.0179 -1.78668189,0.29657 -1.88457349,3.66153 -3.60853509,3.65611 z m 9.9970431,-0.65769 c -0.5023044,-0.79752 -1.6542488,0.47343 -0.3397515,-0.69793 1.4058405,-1.0141 -0.2897833,-1.22534 0.035251,-2.34335 0.093865,-1.56384 -1.4252438,-1.0204 -0.4971451,-2.3935 0.5935371,-1.07119 0.5273003,-0.68538 0.5752455,0.17266 1.1945867,1.30005 1.1782667,-2.29746 2.4109244,-0.86842 -0.4744894,0.73541 -1.5522796,0.24562 -0.2998304,1.35081 0.8295696,1.48816 -3.0548429,3.39603 -0.1944607,3.91095 0.6304113,0.63564 -0.8165843,1.72548 -0.4941167,0.46302 -0.7678134,-0.31733 -0.5851561,1.55539 -1.1961165,0.40576 z m 0.9464172,-3.43838 c 1.0586887,-2.06405 -1.5879033,1.04785 -0.071199,0.34116 z m 20.196995,1.59831 c 0.94428,-1.40078 -1.019949,-0.88867 -0.722679,-2.03286 0.428588,1.01198 1.571614,-1.32592 2.194248,0.49204 0.80826,1.19091 -0.950625,1.06158 -0.859351,1.81626 l -0.385888,-0.0654 -0.226329,-0.21005 z m -4.52112,-1.1159 c -1.021057,-1.03225 1.634522,-2.67516 0.830146,-3.14386 -0.499074,0.5253 -1.532576,2.49249 -1.586462,0.98116 1.215636,-1.12719 -1.612208,-0.0251 -1.340579,-1.86281 -1.209449,0.22493 -0.83639,2.49673 0.647004,1.68297 0.77136,1.24804 -0.974248,2.9328 -0.124951,1.2683 -1.150899,-0.18628 -1.810896,-1.99812 -1.43131,-3.91144 -0.06659,-1.17245 -0.323357,-1.33927 0.463903,-1.50315 0.446902,0.55076 3.021572,0.24734 2.729394,1.50563 1.458119,2.63396 1.605375,-2.54804 2.964346,-3.28684 1.03792,-0.49444 2.004894,-1.65959 1.535936,-0.0752 0.908656,0.59375 1.607352,2.28637 0.321261,0.79254 -0.98008,-1.3648 -2.615791,-0.25665 -2.021466,1.23872 -1.877155,0.56674 -0.566876,4.29311 0.921485,3.92808 0.09575,0.84566 1.126937,-0.54388 1.569404,0.51693 -0.894621,0.4541 -1.282688,1.11343 -1.926775,0.4063 -0.337414,1.2012 -1.906491,0.48364 -1.778488,1.33543 -0.741708,-0.0622 -1.105423,1.08365 -1.772848,0.1272 z m 0.993013,-0.2555 c -0.395458,-1.69139 0.410268,-0.48932 0.844902,-0.99038 -0.757872,-3.27617 -2.241688,2.66472 -0.844902,0.99038 z m 13.18511,-1.07277 c -0.629955,-2.09005 2.046872,-0.0788 0.407576,0.34674 l -0.407572,-0.34674 z M 26.7375,105.78934 c 0.813991,-1.08513 2.05957,-1.19489 0.926041,0.22212 -0.256161,0.23006 -0.872424,0.17498 -0.926041,-0.22212 z m -5.287616,-1.50495 c 0.547344,-2.31394 1.214266,-0.14266 0,0 z"
         id="path2954" /><path
         style="fill:#558a4e;stroke-width:0.264583"
         d="m 19.987958,138.15402 c -2.061524,-0.64998 1.685503,-3.05856 2.37171,-0.93384 1.128853,1.1813 -1.989597,0.87173 -1.35298,-0.59194 0.0827,0.49029 -1.683958,1.32572 0.04661,1.34628 0.504152,0.5616 -0.932833,0.54692 -1.065343,0.1795 z m 8.14605,-1.88001 c -0.574844,-2.35578 1.965246,0.91836 0,0 z m -3.513175,-0.49693 c 1.598561,-1.2687 -2.868113,-0.60594 -0.752011,-2.01397 3.551974,-2.77518 7.67297,-4.68713 11.396375,-7.1884 0.889242,-1.26428 0.860546,2.03318 0.557385,2.4661 -1.145301,-0.0156 0.635354,0.87528 -0.307102,1.54846 0.46876,-0.64545 3.226028,-1.87704 1.775909,-0.41718 -1.484926,-0.0921 -2.829396,2.87035 -0.917396,2.0995 0.696925,-1.2804 1.714402,1.1238 1.706488,0.90433 -2.05379,0.55446 -5.138016,-1.56263 -6.248363,0.88408 1.823491,0.56001 -2.334607,1.68733 -0.694356,-0.173 0.816219,-1.07272 -1.365459,0.96985 -2.023365,-0.12248 -1.766486,-0.50204 -2.384653,0.19484 -1.539226,1.42894 -1.110498,-0.82839 -2.291477,1.20379 -2.954338,0.58362 z m 9.451589,-4.22733 c -1.132508,-0.46851 -0.950945,-0.88981 -1.558596,-1.46413 -1.664929,1.36072 2.09845,0.88837 1.05188,2.13168 0.989683,0.11578 1.362906,0.19439 0.506716,-0.66755 z M 8.776525,134.3724 c -0.1618296,-0.71623 -1.5152577,-0.81971 -0.3058828,-1.75109 -1.0508617,-0.96748 1.5152289,0.06 -0.5003726,-0.90159 0.4235123,-1.5925 3.2361334,3.11688 1.2697079,1.34613 -1.5466429,-1.07827 2.3280775,2.77801 -0.012013,1.14554 -0.3653456,-0.0199 -0.3266379,1.29094 -0.4514395,0.16101 z m 11.929385,-0.65695 c -0.544779,-1.73566 1.892945,-4.22355 2.679095,-6.13476 1.451088,-2.6335 4.599818,-3.38699 7.206317,-4.34107 1.916066,-1.14763 4.141002,-2.64046 6.47937,-2.00656 1.712827,-0.56404 2.522753,3.40265 3.689725,1.57944 0.31821,-0.77643 1.815752,-2.5114 0.987974,-0.51106 -0.533893,1.78256 -3.381242,1.90761 -3.813544,2.56158 -1.875788,-0.76892 -1.963052,-2.38452 -0.08484,-2.41395 -0.167196,-1.25387 -1.416053,0.97045 -2.473228,-0.31896 -1.127075,-0.32878 -2.284598,0.22823 -0.842265,0.83294 1.975422,-1.05318 0.373029,2.15744 -0.796423,1.98373 -0.394075,0.93708 2.528261,-0.6852 1.364194,0.91556 -3.042069,1.8904 -6.295231,3.42593 -9.416568,5.1857 0.153584,-1.64459 1.087226,-3.16633 1.208749,-4.75081 -1.953971,1.01897 -1.581326,4.33748 -3.213612,5.84574 -0.856687,0.69597 -1.826502,1.50502 -2.974944,1.57248 z M 39.4375,123.48582 c -0.868378,-1.70374 -1.992483,1.41706 0,0 z m -21.695833,8.22378 c 0.406148,-3.27796 3.21895,-5.58064 4.402613,-8.55143 -1.820524,0.69956 -2.998712,4.01875 -4.304999,4.6847 0.08909,-2.30089 0.517338,-4.93526 2.892236,-5.97002 0.865734,-0.97341 1.882813,0.1287 2.037233,0.1459 0.28407,-0.41514 0.477952,0.88064 0.81597,-0.45121 0.260755,-1.20853 0.389317,-4.03834 1.287428,-2.1376 1.256441,0.70953 1.391587,-2.15814 1.613174,0.17864 0.171812,0.19634 2.022607,-2.14502 1.183093,-0.31116 -3.627556,4.02834 -6.887889,8.3756 -9.664978,13.03437 -0.316047,0.77495 -0.235117,-0.5283 -0.26177,-0.62219 z m -2.645834,0.39397 c -2.043621,-1.02841 -3.435302,-3.35653 -3.491796,-5.62484 0.278258,-0.56159 1.540215,-2.11955 2.240687,-1.07637 1.343628,0.90907 2.810324,2.16706 1.876075,3.95123 -0.831866,0.13779 -3.432003,-2.9291 -2.38577,-0.31191 0.366816,0.31757 0.931797,0.44151 0.179314,1.27783 -0.161949,0.78477 3.573084,1.26779 1.58149,1.78406 z m -3.53264,-0.69614 c -1.176098,-1.34543 1.149067,-0.24997 0.38614,0.23655 z m 29.525034,-0.59129 c 1.225504,-2.08129 0.157162,0.78278 -0.269311,0.72969 0.08977,-0.24323 0.179541,-0.48646 0.269311,-0.72969 z m -26.065961,-6.09347 c -1.607105,-0.30972 -0.659347,-2.43242 -0.08749,-1.11642 0.950986,-1.02515 2.54579,-1.3288 1.72311,0.61537 0.0087,1.61144 -0.702913,1.42279 -1.609647,0.51979 z m 11.41081,-1.57944 c 1.006211,-1.27649 2.525,-3.5826 3.621648,-3.04146 0.844476,-1.26411 0.488954,2.52162 1.544966,0.43373 0.705999,-1.36861 0.863556,-1.41251 0.442971,0.17028 -1.040457,1.66756 -4.544266,2.7072 -5.944627,2.95105 l 0.140724,-0.23136 0.194318,-0.28251 z m -7.368493,-1.94076 c 1.574645,-2.31362 1.47891,-0.0451 0,0 z m 24.06867,-0.17591 c -0.568953,-2.43583 -3.176458,0.54195 -4.927504,-0.73371 -1.571145,-1.01363 1.902323,0.3965 1.547467,-1.48502 0.364441,-1.72641 1.579932,-2.95415 3.080628,-3.76639 0.617018,0.41685 0.642351,2.38544 0.788225,3.36008 0.03407,0.36968 -0.298521,3.94047 -0.488816,2.62504 z m -1.227971,-1.54846 c 0.806556,-1.53135 1.351368,1.63472 1.465926,-0.6285 -0.15905,-1.5381 -0.781489,-1.68583 -0.564143,-3.35669 -1.071448,0.64103 -0.195109,2.2134 -1.785904,2.57867 -0.629329,0.93841 -0.664718,3.21247 0.884121,1.40652 z m -9.519669,1.35978 c 0.771261,-0.11135 3.287311,-1.45763 1.431957,-0.14811 -0.105006,0.24362 -2.602719,0.9978 -1.431957,0.14811 z m 3.84928,-2.32486 c -0.354271,-1.23516 0.248511,-3.23972 0.175892,-0.75995 -0.03628,0.11368 0.0477,1.06184 -0.175892,0.75995 z m -3.109494,-2.55067 c -0.334833,-0.47999 0.871077,-1.84177 -0.713673,-0.89029 -0.515955,-0.71855 -1.818938,-1.88947 -0.918604,-3.09573 -1.09577,-0.13701 -0.578144,-0.31223 -0.912451,-0.8645 -1.781572,-0.75579 0.826816,-1.15278 0.960077,0.32577 2.071134,0.60864 -0.0594,-2.42243 -1.242211,-1.78462 0.179851,-0.70103 1.392854,-2.26229 1.303625,-0.32701 0.870596,1.22297 1.453748,0.11559 0.453685,-0.45826 0.303277,-0.29602 1.613723,0.55733 1.323221,-0.49161 -1.725978,-0.73285 0.54654,-0.11444 -0.179631,-1.4901 0.27049,-1.10895 1.466779,-2.27019 0.917338,-0.9096 -0.200204,1.03711 -0.959767,3.03911 1.053114,3.01554 0.757435,2.08104 0.27116,3.72769 -1.447379,3.31383 0.492787,1.27737 -0.501342,2.14064 0.02637,3.65948 0.02654,0.31267 -0.533792,0.39798 -0.623478,-0.003 z m 0.397132,-3.88701 c -1.176474,-2.41069 -1.565326,2.48332 0,0 z m -4.684538,-4.19231 c 1.371106,-0.30909 1.22851,-0.92789 -0.08987,-0.79251 1.460737,-2.33458 1.922388,2.05413 0.08987,0.79251 z m -4.738222,-0.0195 c 0.13378,-1.59309 1.881691,-0.12046 0.230949,-0.10002 0.117739,0.0872 -0.280215,0.29526 -0.230949,0.10002 z"
         id="path2952" /></g></g></svg>
