<?xml version="1.0" encoding="UTF-8" standalone="no"?>
<!-- Created with Inkscape (http://www.inkscape.org/) -->

<svg
   width="54.88295mm"
   height="57.914726mm"
   viewBox="0 0 54.88295 57.914726"
   version="1.1"
   id="svg3193"
   xml:space="preserve"
   inkscape:version="1.2.2 (732a01da63, 2022-12-09)"
   sodipodi:docname="buissonnant-elance-natural_canopy.svg"
   xmlns:inkscape="http://www.inkscape.org/namespaces/inkscape"
   xmlns:sodipodi="http://sodipodi.sourceforge.net/DTD/sodipodi-0.dtd"
   xmlns="http://www.w3.org/2000/svg"
   xmlns:svg="http://www.w3.org/2000/svg"><sodipodi:namedview
     id="namedview3195"
     pagecolor="#ffffff"
     bordercolor="#666666"
     borderopacity="1.0"
     inkscape:showpageshadow="2"
     inkscape:pageopacity="0.0"
     inkscape:pagecheckerboard="0"
     inkscape:deskcolor="#d1d1d1"
     inkscape:document-units="mm"
     showgrid="false"
     inkscape:zoom="2.2173472"
     inkscape:cx="126.05153"
     inkscape:cy="127.62999"
     inkscape:window-width="2560"
     inkscape:window-height="1369"
     inkscape:window-x="-8"
     inkscape:window-y="-8"
     inkscape:window-maximized="1"
     inkscape:current-layer="layer1" /><defs
     id="defs3190" /><g
     inkscape:label="Calque 1"
     inkscape:groupmode="layer"
     id="layer1"
     transform="translate(-54.723452,-146.86534)"><g
       id="g3326"
       transform="translate(-28.0125,-23.2875)"><path
         style="fill:#d5e5c9;stroke-width:0.264583"
         d="m 106.48947,227.50406 c -0.85055,-4.92768 -2.9158,-9.58011 -4.93346,-14.12915 -1.23295,-1.68268 -3.673032,-1.53289 -4.586066,-3.06064 -1.217525,0.9237 -1.292178,-1.85974 -2.885216,-0.46281 -0.231586,-0.51464 0.479855,-1.5547 -0.791886,-0.12446 -1.255928,-0.30888 -2.96858,-2.62506 -3.945091,-3.63255 1.020399,-1.61024 -1.045204,1.04894 -1.720276,-0.54979 -1.053372,-0.19415 -1.723558,-1.36465 -2.300305,-0.64457 0.834037,-1.25213 3.102582,-4.45315 0.281415,-3.34654 -0.822742,-0.57101 -3.11108,2.0107 -1.855189,0.20651 0.738269,-1.28416 1.426456,-3.26935 0.54463,-4.34817 1.518648,0.25193 0.983866,-2.17435 -0.211514,-1.08544 0.991417,-1.72193 -0.735186,-1.23718 -0.807589,-1.0597 -2.019875,-2.11421 2.179189,-2.3195 3.098169,-3.97723 -0.879544,-0.35502 -1.503861,1.18022 -1.515741,-0.337 -1.089716,-0.91445 0.02779,-1.09616 0.752942,-0.23937 -1.252668,-1.63367 3.797522,-0.56008 1.458336,-2.06363 -3.160806,-1.7249 2.104775,-0.93352 1.755993,-1.44886 -1.60545,0.0733 -1.013682,-1.92271 -0.09204,-0.57352 2.23117,-0.54806 1.080173,-0.93242 2.892038,-2.33365 -1.910436,0.92661 -0.377963,-1.48338 -2.063429,-1.04392 1.461304,-0.96683 -2.070631,-1.31607 -0.201321,-2.51935 -0.342812,-1.11671 0.820071,-2.1299 1.559158,-3.09487 0.751635,0.92725 3.152041,-0.83671 3.762888,-0.14579 2.272642,0.50142 0.640528,-2.66329 3.375645,-2.48463 1.229611,-0.35914 2.551669,-1.49158 1.284159,-1.52848 1.71785,-1.31119 5.22973,-0.46848 7.47215,-1.59157 1.39087,0.28835 2.74304,-0.68834 2.76675,-1.04967 0.99502,1.05419 0.60783,-1.16071 2.24092,-0.0384 0.74294,0.66828 2.25855,0.77325 0.86768,0.1808 0.11433,-2.20746 2.01292,1.50627 2.89485,-0.82477 1.50384,0.65096 4.78971,0.73213 4.84018,2.52576 -0.66085,0.99311 1.28663,3.46782 1.60875,1.16682 1.33625,-1.83523 2.08511,-1.41873 3.83696,-1.16957 3.00103,-1.55544 -2.66263,4.77077 1.5916,3.75129 1.1983,-1.07143 1.83375,1.46531 2.38813,1.5628 -3.06202,-0.28327 -0.39062,2.84513 1.1787,2.72168 1.1351,0.31802 0.11249,1.07276 0.55572,1.20116 0.28073,-0.0884 1.53966,0.84283 1.0945,-0.55155 0.81317,1.17641 3.1214,1.04098 2.7002,2.24597 0.89896,0.33465 1.07802,1.90809 1.02311,2.45681 -1.11938,0.66696 1.57112,1.88477 0.46773,2.65434 0.2663,0.96097 -1.44859,5.17406 0.74525,3.36015 -0.83053,2.05704 -0.74863,4.39914 -1.58864,6.07175 -1.4502,0.59476 -0.83093,3.55201 -2.14906,2.05404 -0.50397,0.87359 -0.0667,3.69748 -1.68811,2.77019 0.84248,-2.1988 -1.43064,1.19878 -0.15199,1.53932 -0.30194,1.20802 -0.48658,1.17646 0.80805,0.71983 -1.23227,1.05294 -2.46167,3.44299 -2.73435,4.11678 -0.1742,0.10869 -2.17259,2.58111 -3.41884,1.59836 -1.87902,1.53624 -4.14836,0.7089 -6.05945,1.61172 -2.57845,0.90861 -3.76791,4.03299 -5.87717,5.74638 -2.57654,2.77858 -5.25696,5.80773 -5.97649,9.6514 -0.36316,-2.70857 1.76391,-5.15513 3.28505,-7.23177 3.69683,-4.48647 8.52669,-8.37161 10.21048,-14.17438 1.20078,-4.01837 4.72138,-6.64338 6.96146,-10.02639 -1.79656,1.18074 -3.84028,4.06807 -5.23967,4.62808 0.44947,-1.86934 1.91717,-5.31982 1.74344,-6.22963 -2.47443,5.54384 -4.03982,11.50919 -7.38756,16.63837 -2.21548,4.43616 -6.72477,7.05437 -9.11665,11.36454 -1.74603,1.2219 -0.39249,-3.30273 -0.25419,-4.25365 2.09208,-7.74446 5.20289,-15.19524 6.81773,-23.07581 0.48814,-2.67699 1.53925,-5.16972 2.68928,-7.60879 0.19107,-1.60101 -1.87525,2.99271 -1.30421,0.008 0.42385,-1.28109 0.0116,-3.22332 -0.3165,-0.8079 -1.35999,4.25587 -1.91448,8.75256 -3.47079,12.93592 -1.31779,-2.91211 -2.07373,-6.11149 -3.5133,-8.99257 0.18838,2.27943 1.29111,4.56363 1.81674,6.85019 1.08879,2.69607 1.16996,5.58151 -0.0195,8.2566 -1.42771,4.58617 -2.84671,9.18331 -4.20768,13.78416 -1.67659,-1.53754 -2.01075,-5.50144 -2.66606,-8.05972 -0.74528,-2.73624 -1.69295,-5.58312 -0.70805,-8.40632 0.30432,-1.77633 1.29613,-4.63968 1.12083,-5.81234 -1.10386,2.0297 -1.46461,5.73678 -2.55631,6.89719 -1.53334,-3.8446 -2.49396,-7.9462 -4.30878,-11.66231 0.253766,2.57549 1.514744,5.17507 2.14965,7.77226 1.56327,5.52618 3.40565,10.97284 4.93986,16.50375 -0.41062,2.90175 -2.17816,-3.47506 -2.82766,-4.53391 -2.27281,-5.44841 -5.062856,-10.67937 -7.563935,-16.02814 -0.929166,-0.94957 0.753826,2.74528 0.963285,3.46368 1.915162,3.62181 -2.015537,-0.72716 -2.289063,-0.24591 2.043677,2.15667 4.492173,4.07098 5.24306,7.09374 1.639893,3.9017 3.811963,7.53727 5.217223,11.54106 1.06764,2.91357 2.41079,5.82767 2.66758,8.95123 0.14643,0.40791 -0.67867,1.04464 -0.36918,0.006 z m 6.86958,-10.31344 c 0.77764,-1.0154 3.98157,-3.38024 3.05586,-3.87426 -1.90572,0.23305 -3.92956,0.0614 -5.72115,0.75922 -1.07648,2.75722 -1.64712,5.71908 -1.87383,8.6713 1.25688,-2.04882 2.81378,-3.88547 4.53912,-5.55626 z m -4.75667,-2.18281 c 1.26093,-1.81516 -0.62698,-1.43447 -2.05082,-1.55108 -2.40081,-0.3266 0.66611,4.9524 0.65529,5.71907 0.51775,-1.36993 0.87175,-2.79852 1.39553,-4.16799 z m -4.09755,0.11834 c -0.11259,-1.44013 -1.74097,-2.31627 -0.58651,-0.33101 0.23043,0.74491 1.23987,3.14663 0.72976,0.8633 l -0.14321,-0.53229 z m 23.83353,-4.97441 c 1.01058,-2.39491 -2.67427,1.02896 -0.37374,0.29707 z m -34.971896,-1.46565 c 0.04454,-1.86886 -1.447949,1.56101 0,0 z m 37.852926,-5.92265 c 1.28758,-1.63421 0.44063,-1.32474 -0.55649,-0.3542 0.0868,0.22542 0.92646,1.02439 0.55649,0.3542 z m -43.106821,-9.543 c -0.20268,-2.06291 -0.975003,0.21234 -1.051775,-0.33406 0.07883,-1.16506 -1.836403,1.55436 0.304693,0.60119 l 0.341029,-0.0623 0.406053,-0.2048 z m 46.092061,-8.80658 c -0.0333,-1.15552 -2.05378,-2.2369 -1.34722,-0.26307 0.0668,0.19048 2.42877,0.97252 1.34722,0.26307 z"
         id="path3340" /><path
         style="fill:#c7ddb6;stroke-width:0.264583"
         d="m 106.51611,226.75389 c -1.18903,-4.9373 -3.18268,-9.67651 -5.32814,-14.26601 -0.69034,-1.35895 1.86228,2.48533 1.85393,3.43206 1.34488,3.56027 3.08322,7.0819 3.62459,10.86864 l -0.10471,0.29686 -0.0457,-0.33156 z m 2.39678,-0.63064 c 0.11811,-1.11682 2.18333,-3.98877 0.88627,-1.46025 -0.28885,0.37416 -1.26718,3.70096 -0.88627,1.46025 z m -0.44807,-4.36856 c 0.10656,-1.1673 0.76804,-5.23808 1.0591,-4.31357 -0.14752,1.5068 -1.36124,5.28837 -0.5037,5.28062 1.42828,-2.86559 3.7642,-5.10851 6.26837,-7.04204 -2.39169,2.34323 -4.61258,4.85304 -6.5258,7.59815 -0.66441,0.48905 -0.2588,-1.26851 -0.29797,-1.52316 z m 2.40805,0.6251 c 1.62192,-2.46143 3.93899,-4.40446 5.81197,-6.68494 0.71249,-0.86718 3.34007,-3.56016 1.40574,-1.21731 -2.37526,2.87969 -5.10052,5.46229 -7.42047,8.38401 l 0.20273,-0.48176 z m -3.97851,-2.47719 c -1.31698,-3.995 -1.82962,-8.18146 -3.137,-12.17522 -0.37389,-3.45701 1.42467,-6.72589 1.65315,-10.12616 -1.58711,1.74861 -1.47553,5.17104 -2.73409,7.30528 -1.13084,-3.82892 -2.4126,-7.78184 -4.000898,-11.50775 -1.299679,-1.63437 0.374678,2.5753 0.492321,3.29424 1.752107,5.38711 3.255927,10.86248 4.931447,16.26433 0.47681,1.42983 1.79821,4.5311 0.97251,5.1763 -1.79408,-3.96964 -3.52597,-7.98219 -5.233502,-11.99381 -0.992578,-2.40078 -2.528674,-4.634 -3.548821,-7.07696 -0.33259,-1.09991 -2.409142,-4.75694 -1.363967,-1.51407 0.132669,1.29234 3.154295,5.85228 0.323613,3.23329 -0.788988,-0.94056 -2.516841,-1.62411 -0.861322,0.0299 2.006763,1.95243 3.886953,3.98322 4.725025,6.71877 0.853663,0.92458 1.768414,4.48408 -0.146105,3.38414 0.714257,-1.9086 -2.54283,-0.73728 -3.531805,-1.58699 -1.034571,-0.72447 -1.176015,-1.82348 -2.314263,-2.21818 0.670051,-1.56025 0.486715,-2.28709 -0.585589,-3.38788 0.678463,-0.62235 2.598777,-0.1854 1.008237,-1.18952 2.363071,0.17383 -0.995238,-0.64096 -1.140914,1.02046 -0.296598,1.41488 -3.94046,-1.38712 -3.976315,0.59395 1.247844,0.88913 0.632764,1.08159 0.24194,1.45471 -0.605982,0.10737 -1.857154,-3.45993 -0.0439,-4.32193 -1.357545,-2.81157 3.533122,-1.58578 2.765573,-4.21984 1.408034,0.16919 3.350333,0.31478 2.020778,-1.74121 -0.915967,-1.60784 -1.913354,3.29919 -2.093694,0.2634 0.47381,-1.64452 -1.849362,-1.34333 -0.441769,-0.78997 -1.323095,0.34587 -2.136334,1.84942 -2.015733,1.9462 -1.438549,-0.4771 0.124023,1.56733 -1.594403,1.41017 -0.849136,0.98593 0.816378,-2.19116 -0.659643,-0.27524 -0.925536,0.33961 0.902533,-1.23199 -0.354061,-1.56993 1.725886,-1.68691 -0.09005,-0.46022 -0.734855,-1.45095 -0.868334,-2.04091 4.060389,0.14791 1.534486,1.22723 0.375513,2.13702 1.84246,-0.90275 1.371209,-1.39926 1.612693,1.53189 1.187314,-2.57095 1.826675,-1.51991 -0.830875,1.17904 1.313084,-1.20208 -0.649027,-0.46898 -0.89121,-0.0421 -4.058263,-1.00303 -2.106748,-1.97876 0.333735,-1.46735 2.080921,-0.0196 1.662297,-1.09542 2.046242,0.004 2.548524,-1.12642 2.189797,-2.34163 1.474558,-1.19694 2.516923,-1.09295 2.004773,-3.48619 0.268883,-1.3786 -1.558724,-5.56836 0.489448,-3.92192 1.133153,-0.38266 -1.211973,1.08815 0.403031,1.13397 -0.64277,0.2387 2.046703,2.81553 0.964158,0.34478 1.097152,-1.36007 0.243199,-3.80079 1.572242,-4.74543 0.159863,-1.63988 2.188936,0.23057 2.367498,-1.78116 1.683406,-0.2629 1.436216,-1.16926 1.724576,-1.27785 1.78478,0.92337 2.01266,-1.68695 3.44959,-0.22287 0.9661,-0.76123 2.8529,-0.042 0.84193,0.3345 -0.92403,1.07088 -1.40139,0.5848 -1.09189,0.0339 -2.42552,0.83881 0.80176,1.76402 0.71615,2.50817 -1.68614,-1.70847 -0.70244,1.08413 0.50723,-0.0356 -0.48631,-2.12492 1.63021,1.83333 1.53303,-0.92076 1.21587,-1.70967 -0.36763,2.18948 1.00876,0.14176 0.78792,0.18937 0.4704,0.80881 1.51873,-0.0205 1.50733,0.64088 0.84539,-1.95036 0.54632,-0.23434 -0.54498,-1.83238 -0.87003,-0.007 -1.15972,-0.41198 -1.46861,0.11701 0.82312,-1.32667 0.48755,-1.87292 -1.68593,2.75556 -1.12672,-1.62387 -0.53182,-0.62716 0.53556,0.74127 1.80115,-0.8005 2.68309,-0.13438 1.93591,-0.33391 -2.76298,0.38379 -0.57133,1.2382 0.4134,-0.976 1.86455,1.32214 0.0294,1.0285 0.48714,1.58954 2.22596,-0.24855 3.30332,-0.17971 0.64406,-0.97563 1.43429,0.8044 1.6168,-1.07086 0.64124,-0.27839 1.48224,1.41306 1.1055,-0.58195 0.86473,-0.014 2.57761,2.72866 0.56647,2.61666 1.36119,-1.61412 -1.3613,-1.16597 -1.3727,-0.0179 -0.53514,-0.68354 -2.62776,-0.28853 -1.3193,-0.16116 -0.1215,0.60809 0.75572,1.56224 1.45281,0.39465 1.85232,-0.58217 1.85917,1.53224 2.09451,2.68863 1.21368,-0.19763 2.49295,-1.07017 0.40196,-0.61948 0.50739,-0.68696 1.0278,-1.16033 1.53991,-0.70978 0.20505,-0.61954 1.50501,-2.23816 1.15163,-0.71631 2.0218,-0.55037 -1.56448,1.4288 -1.26579,2.53493 -0.89182,-0.95407 -0.94741,1.25609 0.39541,1.56365 -1.84216,0.91185 -0.50637,0.43795 -0.14991,1.57174 -0.17781,0.71779 1.27885,-0.37717 1.27841,0.84567 0.9595,-0.63786 2.49164,-0.8834 2.98738,-0.2767 -1.09105,-0.74965 -2.00543,-1.16303 -0.10992,-1.43588 0.64074,-0.77424 3.56335,-1.49213 1.32615,-0.20143 -1.31358,0.38044 1.19203,0.9167 -0.83625,0.78518 -1.05049,-0.22742 0.95512,1.47956 0.6583,0.88916 0.50606,-0.80274 1.29173,0.43214 1.38487,0.1913 -1.63159,1.59143 2.6733,1.42651 0.41085,0.94709 0.49428,-1.93474 2.5368,0.2985 3.7949,0.005 -1.06085,0.13928 -4.10229,0.42246 -1.35587,0.52842 1.2142,-0.0949 2.31346,-0.23941 2.02668,1.59257 -2.26478,1.19166 -0.27549,3.51793 1.2129,2.5251 0.3215,2.032 1.97009,3.96898 1.81138,5.25163 1.37002,1.02561 0.41536,4.29542 0.40247,4.8962 -0.81311,0.23219 -0.75055,2.0229 -2.20853,0.39451 -0.22775,-0.10806 -3.07758,0.71158 -1.15265,1.56203 0.2879,1.24776 -1.74345,2.19103 -0.79616,0.40312 -1.97223,0.68648 -0.0115,4.16258 -0.87327,5.64775 0.24302,1.75827 -0.50076,2.81727 -2.42065,3.00033 -0.45424,0.7642 -3.23833,3.09895 -1.90464,1.82568 -1.79559,-1.02806 -4.24541,0.16846 -5.592,0.2335 1.07604,-2.39311 1.93338,-4.89122 3.0413,-7.26422 1.63654,-2.72497 4.26644,-4.7801 5.77519,-7.54749 -1.70316,0.81174 -4.0435,4.44789 -5.00813,4.25869 0.51052,-1.84678 1.63469,-4.61131 1.56064,-5.98483 -2.53466,5.16948 -3.64822,11.06061 -7.16997,15.71479 -0.59019,2.10712 -4.89649,0.83882 -4.61298,1.76762 1.50628,1.19195 -2.30264,1.41031 -1.17877,0.10016 -2.51144,1.85567 -0.73644,-3.37372 -0.29623,-4.47691 1.98734,-5.51713 2.85752,-11.35574 4.72283,-16.90131 0.74053,-1.15559 2.21944,-5.12684 0.23219,-2.26879 -1.08577,1.60758 0.96512,-5.17818 -0.44978,-2.06935 -1.50684,4.29227 -2.00972,8.88645 -3.57918,13.14467 -1.10145,-1.59668 -1.57369,-4.46174 -2.58316,-6.48646 -0.18528,-1.20125 -1.72482,-3.24434 -0.87564,-0.74714 1.00696,3.20079 2.16064,6.43138 2.58479,9.76129 -0.91089,5.00768 -3.04324,9.70715 -4.2001,14.663 -0.3054,0.38582 -0.81128,4.09959 -1.47135,2.9694 z m 1.41781,-3.74392 c 0.73577,-1.63882 1.19065,-3.44306 -1.27502,-2.8804 -0.50415,-0.37355 0.68723,-1.54408 -1.14036,-1.0408 -0.81583,1.09266 0.30687,4.17988 0.90787,6.19292 0.6001,2.76503 1.11531,-2.01523 1.50751,-2.27172 z m -3.66551,-0.70393 c -0.0197,-1.50089 -1.91764,-3.562 -0.85032,-0.8404 0.37903,1.35564 1.84898,4.28608 0.95591,1.23142 z m 4.03173,-2.82134 c 1.17095,-0.22826 -1.33271,-1.33556 -1.28242,0.39057 0.34491,0.0101 0.99699,-0.93012 1.28242,-0.39057 z m -12.412503,-3.98823 c -0.218563,-2.26413 -2.444143,1.00284 0,0 z m -1.048419,-2.06561 c 0.965705,-1.31242 -2.073712,0.44057 0,0 z m 34.198242,-2.55197 c 1.932,-2.58563 -3.33687,-0.77075 -0.6111,0.31169 l 0.33373,-0.0512 z m -40.702687,-1.28253 c 0.850204,-1.99778 -1.59111,1.82548 0,0 z m 3.418742,-11.32904 c 1.857252,-0.86416 -0.88989,-1.30839 0.859904,-1.87436 -0.596953,-0.34037 -2.688572,0.4525 -2.066137,0.7897 -0.664774,0.67531 2.174424,0.1576 0.08176,0.91268 -1.184876,0.2223 -2.825623,1.37671 -0.609149,0.97649 0.617584,-0.16337 1.2241,-0.41253 1.733622,-0.80451 z m 2.711987,-6.33988 c -1.016969,-2.12463 -1.089974,1.073 0,0 z m 1.88132,-3.79751 c -0.952097,-2.12086 -0.808186,1.67651 0.07971,0.42615 l -0.07972,-0.42615 z m 2.552837,-1.79114 c 0.755411,1.4185 0.571074,-0.89448 1.529671,-0.7764 -0.982755,-0.42206 -2.684129,-0.78981 -1.648733,-1.86099 -1.316277,0.48847 -2.12311,0.27735 -1.669258,1.44679 1.368744,-0.0497 0.30746,2.37878 1.78832,1.1906 z m 2.962191,-0.9116 c 0.37453,-0.85119 -0.84329,0.44568 -1.23356,-0.32326 0.47593,1.31116 -0.44927,1.54064 1.23356,0.32326 z m 5.21401,-0.52787 c 0.73872,-0.96704 1.9108,-2.05867 0.11296,-0.68354 -0.73606,0.26781 -0.39926,2.07483 -0.11296,0.68354 z m 2.47089,-1.86017 c -1.49992,1.05029 -1.61534,2.65164 0,0 z m 7.88679,1.16313 c -0.84665,-1.0648 -0.89513,1.11788 0,0 z m -0.47845,-1.39774 c -1.49542,-1.32821 -1.90259,1.6547 -0.33385,0.71475 l 0.23578,-0.39827 0.0981,-0.3164 z m -17.19792,0.35925 c -1.471236,-1.07478 -1.83384,1.03136 0,0 z M 100.4,175.37084 c 1.84922,-1.23382 -2.683369,-0.38077 -0.3181,0.39668 l 0.22637,-0.13848 z m 15.79579,-1.14648 c 0.79221,-1.82878 -1.62858,0.9855 -0.24453,0.31107 z m -6.15393,-1.0037 c -1.241,-0.73908 0.93629,2.11249 0,0 z m -0.21233,42.51476 c 0.18132,-1.62197 1.15795,-2.84049 0.34555,-0.45618 -0.0922,0.43203 -0.66302,1.98002 -0.34555,0.45618 z m 6.6555,-1.83409 c 1.91765,-2.43704 -0.68746,2.06508 -0.25286,0.38372 z m 12.41451,-3.99134 c 1.04368,-1.5834 0.34306,1.31243 0,0 z m -41.664151,-7.60218 c 0.235678,-1.23511 1.95853,-2.86323 0.68816,-0.7219 -0.01458,0.0208 -0.860623,1.42207 -0.68816,0.7219 z m -2.560254,-2.15394 c -0.1086,-1.68554 2.462819,-2.29664 0.756114,-0.32701 -0.05792,0.0129 -0.544549,0.63857 -0.756114,0.32701 z m 49.857825,-11.40275 c -0.52172,-0.99178 1.72783,0.59538 0.62841,-0.6784 -1.15803,0.42682 -2.14226,-3.40404 -0.21151,-1.83019 0.77607,0.28192 2.377,4.60471 -0.4169,2.50859 z m -12.80607,-6.83717 c -0.22804,-1.6336 2.8835,-5.10075 3.72461,-4.06235 1.26031,1.95481 -2.63852,3.13049 -3.72461,4.06235 z m 7.24811,-0.57437 c 0.93734,-0.91603 1.22218,1.00642 0,0 z m -10.49421,-5.40686 c -0.57547,-1.73327 1.31331,-0.62409 0.11882,0.37976 l -0.14405,-0.11156 0.0252,-0.26822 z m 6.64616,-0.48012 c -1.11405,-0.67645 -4.28218,0.50533 -3.05472,-1.03075 1.24792,0.85021 1.54403,-1.9923 1.62087,0.29173 0.10314,-1.56155 3.33495,-1.32846 2.34448,-0.78272 -0.10995,-0.84048 -0.56953,2.80398 -0.91063,1.52174 z"
         id="path3338" /><path
         style="fill:#bad5a6;stroke-width:0.264583"
         d="m 108.58706,223.23695 c 0.72121,-0.92577 3.17705,-4.88726 1.4034,-1.65493 -0.31382,0.45022 -1.10916,1.84335 -1.4034,1.65493 z m 2.35942,-1.01924 c 0.49187,-1.21504 2.64864,-2.57603 0.71837,-0.61948 -0.0848,0.0183 -1.18729,1.5116 -0.71837,0.61948 z m 4.40457,-4.96094 c 0.72631,-0.83841 3.94517,-4.20797 1.79002,-1.67859 -0.86719,0.94474 -3.05639,3.44333 -3.30331,3.37647 0.48864,-0.57979 1.00169,-1.13843 1.51329,-1.69788 z m -3.17709,1.28248 c 0.91803,-0.87896 4.13417,-3.89439 1.71979,-1.39416 -0.38204,0.57812 -4.17215,3.88865 -1.71979,1.39416 z m -7.34746,-0.62102 c -0.60525,-1.46051 -0.18758,-1.16854 0.35593,-0.19844 -0.3282,-1.32109 0.0288,-1.91976 0.21875,-0.0735 0.13245,0.63602 -0.32011,1.09944 -0.57468,0.2719 z m 3.27848,-1.12448 c 0.0756,-1.1689 1.21318,-2.57197 0.36526,-0.52917 l -0.25427,0.53744 c -0.12588,0.23393 -0.0457,-0.009 -0.11099,-0.008 z m -2.64393,-1.95911 c -0.33499,-2.6934 -1.11628,-5.29468 -1.90761,-7.8863 0.48274,-3.15385 1.43672,-6.22626 1.98277,-9.35088 -1.68405,1.41505 -1.75741,4.82931 -2.71826,7.02356 -1.52212,-3.7764 -2.47626,-7.7988 -4.233987,-11.49211 -1.299557,-0.81408 0.515463,2.90258 0.65088,3.90812 1.650357,5.09145 3.092937,10.24932 4.624237,15.37363 0.65024,1.04983 1.25918,4.29726 0.38119,1.48004 -0.49083,-1.44351 -1.63324,-0.83637 -0.83053,0.28377 -1.03314,-2.27766 -1.96731,-4.65156 -3.09601,-6.9135 -0.905095,-2.91551 -2.861332,-5.34836 -4.003618,-8.20477 -0.167333,-0.92735 -2.545076,-4.94108 -1.574932,-1.82551 0.597956,1.57439 1.242728,3.13043 1.866548,4.69465 -1.169055,-0.51517 -2.309523,-3.05962 -2.991525,-2.39479 -0.882419,0.981 4.425902,3.12843 2.170118,4.82773 -0.437931,-0.62362 -0.111825,-1.48571 -1.428282,-0.61558 0.663603,-2.7536 -2.02964,-1.06827 -2.262507,0.5292 -0.969055,-0.62516 -2.191395,-1.21129 -2.951839,-0.96881 1.952925,-0.21496 1.774436,-3.17692 0.263941,-0.86625 -0.567939,0.45509 0.201612,-1.38274 -1.064811,-0.52769 1.902154,-0.35836 0.195838,-3.97958 2.016182,-2.04836 0.396205,-1.02316 1.573329,-0.30872 1.297965,-1.58753 0.641716,1.64537 1.144849,-1.14573 2.105412,-1.43548 0.304503,-1.27257 0.518904,-4.43494 0.03315,-4.60852 -1.133637,1.14323 -0.495774,-1.86527 -1.492697,0.34282 -2.220186,-0.20495 1.356331,-1.58844 0.359231,-2.7119 0.545377,-0.99292 0.642413,-5.39013 1.239942,-4.63927 0.516384,0.63277 0.239621,1.8826 1.114731,0.24256 1.896318,-0.35184 1.562067,-2.57068 0.59758,-1.54383 0.28587,-1.45627 -2.116295,2.0453 -2.022461,-0.64304 -0.514296,-2.83909 1.163429,0.71049 2.462583,-1.00489 1.012496,0.68149 1.040506,-0.58541 1.354494,-0.17164 0.822039,-1.37666 -1.701416,-0.70992 -1.406914,-2.72419 -0.584694,-1.56152 0.85492,-3.09995 0.850258,-0.75784 0.214886,1.36358 2.461333,1.40819 2.169529,2.10792 0.889319,-0.42451 3.592912,2.77198 2.873122,0.0935 0.9624,1.0843 2.85774,1.40554 1.68604,-0.71487 2.10959,-0.48706 -2.9583,-0.61819 -1.0845,-1.66641 -1.09582,-1.12421 1.55697,0.65573 2.13831,-0.78616 0.90279,0.007 1.11938,0.62373 2.05629,-0.27388 0.80078,3.0323 3.12472,-1.29214 4.55868,-1.99672 2.17177,-2.06968 5.59032,1.33902 5.51462,3.3127 -0.32487,1.82741 3.01974,-2.2394 2.07679,0.81931 0.16087,0.25427 1.71461,0.506 0.37226,0.79837 0.12846,1.60804 1.30839,0.4824 0.89868,1.95109 1.25583,0.21592 2.14388,1.49242 2.55818,0.098 1.51532,-0.75991 2.8306,1.878 1.08698,0.64664 -0.11666,1.81087 1.39651,0.0984 1.61791,0.5763 1.09682,1.11272 5.17101,-0.51625 5.46956,1.58262 2.62106,-0.81208 -1.78097,1.55661 -0.66191,3.15182 0.069,1.17678 0.51207,3.53746 0.80376,1.17113 -0.50185,-1.83598 0.8788,0.31878 0.69301,-1.43402 0.19733,1.4387 2.0751,0.23466 2.14098,2.3924 0.23038,1.20889 0.59393,3.78007 1.25031,3.52699 1.38585,0.46938 -1.24424,2.89126 -1.04913,0.95737 0.65788,-1.61843 -2.78092,-2.08049 -0.43328,-0.52784 0.37434,0.62018 -1.74273,-0.54291 -0.35091,1.06076 1.09222,1.51928 -1.66034,-0.73664 -0.0189,1.22172 0.66272,0.3396 2.64866,0.60613 2.22692,1.53846 -0.74916,-0.80637 -1.53214,-1.13531 -0.71877,0.21265 -1.61947,-0.0838 -4.23036,0.15732 -4.38511,1.87596 -0.51495,0.3126 -0.77425,3.05948 -2.36735,2.939 -0.0477,2.2031 3.38733,-0.6231 2.18797,2.32997 0.11821,1.5302 0.20443,2.82342 -1.82541,3.29647 -1.50916,0.89903 -1.86551,3.08197 -3.73613,1.70224 -1.53573,-0.50752 -5.35648,2.02318 -3.293,-1.20459 1.14092,-2.64743 1.79059,-5.58081 3.9001,-7.69746 0.9713,-1.49253 3.99295,-4.05238 3.65904,-5.04778 -1.75552,1.25457 -3.11277,3.2746 -4.79354,4.41186 0.45028,-1.65818 2.15102,-5.64999 1.5562,-6.22503 -2.1561,5.05114 -3.68654,10.40595 -6.48449,15.162 -1.29377,2.05064 -4.25228,1.42602 -5.60939,2.13992 1.84863,1.48777 -0.29557,0.78442 -1.08593,0.26574 -1.96901,0.36032 0.0457,-4.26038 0.47312,-5.69465 1.78906,-5.19113 2.59133,-10.66471 4.37449,-15.84831 0.57967,-0.94496 2.5706,-4.84617 0.42652,-2.59846 -1.27362,2.5291 0.55102,-4.88901 -0.75716,-1.64932 -1.35046,4.36214 -2.13908,8.89102 -3.54998,13.22749 -1.25262,-2.86108 -2.06216,-5.93842 -3.4694,-8.72613 -0.27806,2.1874 1.32899,4.73327 1.71083,7.09584 1.14058,2.67634 0.85449,5.53567 -0.1107,8.21148 -0.80413,1.57022 -0.89897,5.51847 -2.8067,5.36397 -0.96824,-0.5317 -1.32955,2.11762 -2.23021,0.31662 -2.51219,-0.96496 0.34016,5.93791 -1.04355,2.74994 z m 23.77854,-8.51398 c -0.76239,-1.12569 -0.92564,1.39277 0,0 z m -38.785232,-5.96954 c -1.12612,-0.66193 -1.426121,2.64067 -0.10387,0.34587 l 0.103719,-0.20806 z M 108.40071,180.0681 c -0.33743,-0.99866 -1.87779,0.0522 -0.34426,0.46506 l 0.19762,-0.16006 z m 1.63809,34.74127 c 1.35645,-3.66543 -0.36348,2.37936 0,0 z m -1.01919,-0.7276 c -0.52542,-1.09663 0.11199,-1.56343 0.31015,-0.1106 0.11973,0.20049 -0.81521,1.17691 -0.31015,0.1106 z m -9.763076,-3.34104 c 1.402146,-1.41868 -1.831017,-1.05952 -2.559462,-1.7745 -1.049704,1.03044 -2.949478,-1.24067 -0.788856,0.13691 1.959138,-2.16684 -2.798871,0.11237 -1.062077,-2.0212 1.816403,-1.84831 4.303869,-0.33369 4.879053,1.94529 0.995318,0.75544 -0.325662,2.49201 -0.468658,1.7135 z m -2.174971,-4.81293 c -2.612766,0.14199 1.407319,-3.04103 0.260115,-1.30487 -0.559218,0.52887 1.0039,0.15002 -0.107074,1.1383 1.090957,-0.79701 0.536771,0.9325 -0.153041,0.16657 z m -8.693525,-1.17113 c -2.904884,-3.964 3.131568,2.37708 0,0 z m 4.515436,-0.57473 c -0.264993,-1.67503 2.183997,0.47114 0,0 z m -1.499305,-8.92087 c 1.300784,-1.84239 0.892602,1.26371 0,0 z m 0.529166,-7.3069 c 0.448757,-0.21224 -1.361134,-0.80085 0.213546,-0.72754 1.534338,-1.53468 -0.299594,2.03775 -0.21355,0.72754 z m 43.049025,-0.7074 c -0.0205,-0.11816 -1.75065,-0.85014 -0.38901,-0.92386 1.59025,-0.5177 0.29917,2.33141 0.38901,0.92386 z m -12.70734,-6.66753 c 0.70659,-1.74489 1.01233,0.4429 -0.0155,0.36381 z m -23.258569,-2.72885 c 0.855474,-0.93561 1.735729,-2.70428 2.838759,-3.11453 0.32252,0.0879 -0.99228,0.64692 -0.92886,1.64068 -1.70226,1.7756 1.73514,-0.3324 2.07719,1.12328 -1.44331,-0.34475 -2.5115,1.34144 -3.987089,0.35057 z m 20.766169,-0.10351 c 0.73291,-1.97772 1.43584,-0.58841 -0.19072,0.27854 l 0.19072,-0.27858 z m -22.028451,-0.93352 c -2.442704,-0.30947 1.022619,-1.28255 1.010044,0.0637 -0.241026,0.15894 -0.93573,0.4336 -1.010044,-0.0637 z"
         id="path3336" /><path
         style="fill:#a8ca8f;stroke-width:0.264583"
         d="m 114.81979,217.85208 c 2.08562,-2.12619 0.21412,0.32603 -0.90114,1.05834 0.22694,-0.41023 0.59518,-0.71233 0.90114,-1.05834 z m -12.03835,-5.18662 c -1.05944,-2.70529 -2.41086,-5.31209 -3.449826,-8.01368 -1.075891,-1.85405 -2.139579,-3.84093 -3.118577,-5.90575 -0.345273,-1.1459 -2.464979,-4.36532 -1.500743,-1.43047 0.37903,1.38227 3.022139,6.01977 0.258526,3.17358 -0.908575,-1.1901 -0.757446,-1.91244 -1.822022,-1.31473 -0.749602,-1.80589 1.071914,-1.85266 1.364225,-3.9027 0.02857,-0.51766 0.737447,-3.5332 -1.149385,-3.30926 -0.87016,-1.37741 1.202685,-1.57009 1.039666,-2.816 0.23546,1.74927 1.038684,0.58299 1.28845,0.36249 0.390251,1.46421 0.86635,2.60782 1.875719,3.57081 -1.599153,-0.64331 -0.469896,0.66339 0.489636,0.6935 1.590281,4.16123 2.615821,8.5344 4.042621,12.76119 0.24582,1.9792 2.09331,5.26058 1.35283,6.46158 -0.16811,-0.0583 -0.6209,-0.0458 -0.67112,-0.33056 z m 10.05398,-0.50192 c -2.7306,-1.14246 0.38458,-4.44511 0.49842,-6.63923 1.84227,-4.95672 2.25139,-10.33716 4.27434,-15.22335 0.94682,-0.97778 1.61553,-4.49967 -0.009,-1.91072 -0.73193,1.12379 0.24111,-2.17424 -0.13172,-2.68725 -1.17852,1.77826 -1.60195,5.0242 -2.32373,7.40526 -0.74641,1.74459 -0.71335,5.75522 -1.9823,6.2789 -1.09891,-2.64305 -1.64833,-6.17774 -3.43926,-8.17042 0.44709,3.11696 1.87274,6.06243 2.45206,9.18269 0.26347,1.08076 0.67349,2.16533 0.11035,3.22457 -0.75762,2.3757 -1.22508,4.90729 -2.48737,7.07278 -1.63227,-0.16708 -2.5719,2.40558 -4.30885,0.90067 -0.49181,1.04753 -1.12341,-2.43447 -1.54952,-3.35848 -0.73944,-1.41721 0.1478,-2.94788 0.26641,-4.41572 0.0468,-1.80231 2.04796,-5.63507 0.93695,-6.09652 -1.07311,2.17504 -1.66083,4.64686 -2.31893,6.8962 -0.69364,-2.67612 -1.84141,-5.1639 -2.50273,-7.84771 -0.822915,-0.95706 -1.457712,-4.05433 -1.99639,-4.51258 -1.376823,0.59397 -1.036102,-2.31799 -2.036352,-3.11499 0.856054,-0.70659 -2.807676,0.0808 -0.505229,-0.77089 0.782613,-0.52968 4.701331,-1.08826 2.11132,-2.16603 -1.359044,0.84348 -0.86567,0.97138 -2.586723,1.3123 -0.702304,1.02875 -1.534147,1.62586 -1.750254,0.63277 -0.09525,0.0668 -0.08044,-1.01698 -0.0092,-1.06447 2.039009,0.19407 2.7395,-1.27772 4.729097,-1.60609 -1.373031,-1.15843 0.03625,-1.44293 -1.125924,-2.94036 -0.217005,-1.1729 1.757605,1.77042 0.620339,-0.52319 -0.04076,-0.4504 0.538327,-0.0671 0.195334,-0.93215 0.929207,0.16231 2.122472,0.66869 0.845873,1.19171 0.597489,0.75082 0.419651,1.27862 1.270279,0.21584 1.31751,0.88637 2.30496,1.50799 3.67416,0.24939 1.61832,0.18876 -0.42426,-1.30839 1.36986,-0.87827 0.24287,-0.76045 3.55852,1.74864 3.09228,-0.677 -1.17987,1.58666 -2.72681,-0.73323 -0.7255,-0.0677 2.02917,-0.30846 2.33795,-4.41528 4.4185,-2.44743 1.23798,-0.45429 0.27973,-2.90191 1.03618,-0.75198 -0.45773,0.80008 -1.49586,2.78991 -0.22608,1.41302 0.10908,-1.3487 3.1298,-1.99117 1.17153,-0.68304 -2.2206,1.86862 2.49725,-0.96717 2.71984,-0.3327 -0.36327,1.25636 1.9406,0.94932 0.28321,1.90865 2.84413,-0.79083 3.5914,4.16574 6.70261,3.0705 0.26708,0.62184 -0.86442,1.50636 0.91072,0.81431 1.99737,-0.30475 1.58438,0.28932 1.6831,1.55989 -1.58584,0.40797 3.48139,0.42814 2.29663,2.31279 0.91733,0.83283 0.42213,-1.2285 1.54349,0.0488 -0.829,0.96631 -0.83439,3.47801 0.3165,2.24541 -1.5433,1.52264 1.54126,3.8408 2.36163,3.98204 -0.14639,1.90901 -2.60389,0.7189 -2.94267,0.97492 1.09926,0.57185 -0.18293,3.01961 1.04574,1.20908 0.38282,1.72351 1.78961,0.39069 2.32518,1.65757 -1.05265,0.11374 -3.85533,-0.83491 -1.89392,0.32404 -2.29651,0.3179 -0.88374,4.53724 -3.23912,4.82898 0.0908,1.66385 2.82338,1.56825 1.48527,2.66445 0.99522,2.31932 -1.77958,3.20632 -3.37857,4.56976 -1.82708,0.19186 -4.54387,-0.55124 -5.49256,0.68104 1.00827,-2.37974 1.81625,-4.87752 2.9737,-7.17026 1.70148,-2.70336 4.17523,-4.86261 5.73823,-7.64594 -1.74082,0.6716 -4.20297,4.52133 -4.98973,4.12614 0.40398,-1.45424 2.09058,-5.48022 1.22058,-5.57177 -2.25736,4.66968 -3.33452,9.88425 -6.11579,14.2949 -1.04751,2.60336 -4.65607,1.69868 -6.06359,2.95661 1.74682,1.03059 -0.26099,0.816 -0.54871,2e-4 z m 13.36862,-3.31888 c -0.35506,-1.14759 -0.62464,-2.85351 -0.76433,-0.47557 -0.13429,0.54406 0.43814,1.17719 0.76433,0.47557 z m 3.03373,-2.50195 c -1.38465,-1.82427 -1.12495,1.593 0,0 z m 1.58932,-12.27482 c -1.5448,-1.89172 -1.01647,1.17618 0,0 z m -29.17032,-2.01268 c -0.2941,-1.18378 -1.829584,-0.18912 -0.32644,0.14579 -0.0652,0.30265 0.68897,1.09413 0.32644,-0.14579 z m -2.224704,-2.31511 c -1.418188,-0.78345 -2.963782,0.73177 0,0 z m 0.703354,-1.02303 c -1.470277,-0.50691 2.34507,-1.85568 -0.142707,-1.26587 -1.494911,-0.23971 -1.466898,2.81805 0.142707,1.26587 z m 1.09559,-2.08582 c 0.13828,-0.64942 -1.858602,-0.32863 -0.33513,-1.38702 -1.670014,0.15211 -1.870557,2.04033 0.0296,1.43421 l 0.30555,-0.0472 z m -0.37407,-2.38815 c -0.67592,-1.92594 -1.174295,2.03777 0,0 z m 24.67848,0.62182 c -0.91912,-1.2284 -3.01894,0.39258 -0.56648,0.0769 l 0.29445,-0.0223 z m -9.84019,-2.7076 c -0.34781,-0.54096 -4.05899,0.66431 -1.17374,0.44672 0.3889,-0.091 0.91071,-0.0933 1.17374,-0.44672 z m -2.06606,-1.3186 c -1.2512,-1.66958 -1.09209,1.1414 0,0 z m -15.056664,27.91486 c -1.359404,-0.13905 -2.327749,-0.26488 -3.46954,-1.03868 -1.439555,0.59517 1.421593,-2.59711 2.506165,-0.97797 1.361173,-0.78055 3.001729,3.64165 0.963375,2.01665 z m -2.345203,-3.65111 c 1.014545,-1.43717 0.720226,1.16697 0,0 z m -3.234955,-1.0083 c -0.779018,-1.14152 1.674979,0.14638 0,0 z m -1.389742,-0.36873 c -1.651585,-2.8543 1.832739,1.07464 0,0 z m 0.888179,-1.18659 c 0.841109,-1.30335 -1.623688,-2.6284 0.02714,-3.06131 1.129775,1.20415 3.423481,2.21721 3.6597,3.76091 -1.740168,0.22502 -2.73112,-2.16385 -3.978792,0.13779 0.09732,-0.27913 0.194634,-0.55826 0.291952,-0.83739 z m -1.615783,-0.82635 c -0.968364,-0.91552 0.907243,-4.11082 0.661329,-1.26931 -0.322146,0.31835 -0.187659,2.81536 -0.661329,1.26931 z m 42.864708,-3.43262 c -0.60148,-1.92583 1.89565,0.88712 5e-5,-3e-5 z m -2.05273,-4.84585 c -1.84524,-0.45263 -0.3507,-2.49063 0.26283,-1.19958 0.0553,0.96142 1.07267,-0.85614 0.51236,1.04158 -0.071,0.32376 -0.53968,0.42984 -0.77519,0.158 z m -0.26925,-2.45706 c -1.11323,-1.27768 0.91842,-2.77799 -0.0261,-0.90883 0.1614,0.17882 0.919,1.59671 0.0261,0.90883 z m -2.00405,-3.99524 c -0.85511,-2.40897 2.07506,-0.28452 0,0 z m -2.68764,-1.6734 c 1.50404,-0.56923 -1.13951,-1.11519 0.97132,-1.14932 1.34564,-0.86605 3.67472,1.58151 1.54223,1.14937 -0.86762,-1.10365 -1.51826,-0.55021 -2.30453,0.21785 l -0.20902,-0.21785 z m -30.020897,-4.7451 c -1.295034,-2.75941 1.71706,0.92293 0.244419,0.32939 z m 8.774857,-0.0703 c -0.74993,-1.85487 1.9694,0.91924 3.8e-4,1e-5 z m 12.7063,-1.05204 c -0.11096,-1.48632 0.9248,-0.85559 0.4347,0.3112 l -0.43468,-0.3112 z m -15.40505,-0.35026 c -0.90009,-0.64313 1.67044,-0.56377 1.93407,-1.42282 2.95807,1.67276 -0.76283,1.95269 -1.93407,1.42282 z m 8.73125,-1.04271 c -0.70714,-1.06969 -2.01727,-0.64579 -2.10834,-0.0598 -0.53173,-1.80609 4.1497,-4.18478 4.06528,-2.58452 -1.92224,-0.23047 0.68534,2.31556 -1.2503,0.74214 -1.51077,0.1915 -0.96299,1.3705 -0.22195,1.93105 -0.0208,0.26235 -0.59087,0.36542 -0.48469,-0.0289 z"
         id="path3334" /><path
         style="fill:#9dc481;stroke-width:0.264583"
         d="m 102.85243,212.22677 c -1.8066,-1.96829 2.1379,0.51004 0,0 z m 3.30226,-0.56404 c -0.62078,-1.50478 -0.81368,-0.42678 -1.12488,-0.34563 -0.98954,-2.38048 -1.63657,-5.03137 -0.78986,-7.55751 0.16699,-1.86336 2.05033,-5.2182 0.87823,-6.17785 -0.36366,1.43124 -2.1791,4.6433 -2.14828,1.2965 -1.11945,-0.46748 -1.00759,-0.49773 -1.96323,0.22587 0.57407,-1.76945 4.11455,-1.85156 4.58754,-3.68454 -0.80825,-0.85435 -1.72939,-1.23176 -0.87177,0.004 -1.28646,0.98734 -0.68141,-1.39774 -2.22184,-1.191 -1.12025,-0.79789 -2.48246,-0.72108 -0.51298,-1.29516 1.40116,-0.69063 3.54978,-0.81533 4.62645,-2.13632 -1.81345,-0.8278 3.30357,-1.76283 0.78043,-1.81605 -0.068,0.91408 -3.7314,-0.96924 -2.59766,0.7377 0.5474,0.41892 -2.20812,2.32388 -1.14286,0.63691 -3.00547,-0.0677 -0.0393,1.12184 -0.0126,1.7636 -1.42259,-0.72875 -3.834757,-1.80231 -2.06054,-3.08317 -2.291508,0.008 1.16565,-0.10323 -0.0991,-0.86251 1.61493,0.0186 1.62561,-1.64541 0.98184,-1.60526 0.59366,-1.19135 -1.73639,-0.0338 -0.28653,-1.55362 1.00528,-0.88056 3.0146,-1.35676 2.07237,-2.12946 0.88434,0.21403 0.85909,1.7861 2.31692,0.63207 1.48623,-0.40517 1.39693,1.71578 2.9283,1.57725 -3.1427,-0.52464 1.46981,3.12283 2.50083,1.14493 -0.0726,0.77229 -3.40645,1.84716 -1.14068,1.35057 2.28276,0.75094 2.2833,-2.30229 4.0975,-1.51811 1.97025,-1.06435 2.68211,0.10422 1.35564,1.75552 -1.48114,0.4752 -5.19843,-0.11754 -5.4634,0.65369 1.22085,-0.12905 2.89271,0.20015 0.72048,0.57903 -1.4518,0.3143 -3.49331,-1.35478 -2.44887,0.53517 0.89483,-0.17145 4.72027,-0.11151 1.91441,0.31881 1.48115,0.80103 2.77105,0.37376 2.86994,-0.63425 -0.13197,1.23739 3.12988,-0.32856 1.58072,0.71062 -1.38387,0.24737 1.3109,0.46666 -0.034,1.78465 -0.62865,2.52047 -1.7169,4.61052 -1.7409,7.24389 -0.23907,2.14629 -0.75853,-0.83226 -0.98598,-1.47458 -0.61017,-1.99392 -1.69194,-4.93756 -3.00334,-6.28682 0.56792,3.68496 2.29147,7.14265 2.71618,10.8684 -0.41097,2.87179 -1.32864,5.72833 -2.49798,8.37677 -1.40183,-0.21991 -2.922,1.53207 -3.78045,1.15615 z m -0.19844,-1.89984 c -1.32642,-1.44678 -1.13087,1.66648 0,0 z m 0.65016,-1.68211 c -0.37678,-1.62965 -1.53007,0.9617 0,0 z m -3.03546,-14.10734 c -0.50999,-2.89632 -1.23352,1.62962 0,0 z m 5.03114,-5.97518 c -0.4693,-1.46249 -2.02599,0.97082 0,0 z m -2.92206,-0.71274 c 0.81182,-0.28256 3.51204,-0.57043 0.84663,-0.6661 -1.10021,0.13032 -2.17986,-0.47744 -2.12486,0.36139 -1.40194,0.55407 0.54758,1.04555 1.27823,0.30471 z m 9.53664,-0.0106 c -0.78442,-0.9703 -2.35056,1.08415 -0.20119,0.31616 l 0.1522,-0.12896 z m -2.66487,23.80739 c -1.79867,-1.40161 1.3473,-5.13022 1.34088,-7.3441 1.67918,-5.14109 2.12663,-10.7036 4.76547,-15.49957 1.08674,-2.75958 -2.17488,1.63725 -1.1805,-1.05583 -0.45374,-2.81831 3.40129,-1.92542 4.61819,-2.67219 1.46112,-0.19251 1.26393,1.53494 2.20717,2.00156 -1.69117,0.82196 1.76644,1.2738 -0.72776,1.29294 -1.61794,1.17968 0.7456,2.27171 0.23638,0.73595 0.96879,0.51751 -0.11953,2.9962 0.87251,0.7809 0.77586,-0.89546 0.34523,1.05932 1.25139,0.11086 -0.15395,1.12384 0.9387,1.11249 0.32751,1.67519 0.55489,0.76135 0.90804,1.55459 0.85385,0.0209 0.12951,1.1997 3.97324,1.84034 1.21988,1.74525 -0.12833,1.5788 1.10459,2.70242 -0.58642,3.80438 -0.0539,1.53408 -2.31335,3.19427 -3.35753,3.88479 0.40734,-1.09486 1.61173,-3.54454 1.38095,-3.61363 -0.46717,-0.0782 0.95833,-4.3083 -0.43929,-1.61044 -1.02743,2.43377 -2.12786,4.81344 -2.86702,7.35324 -0.36099,2.11914 -2.46061,4.34318 -2.63167,5.93634 -0.69164,1.00326 -3.07784,0.43271 -2.10232,1.94172 -1.55062,0.36528 -3.30735,1.52889 -5.18167,0.51175 z m 4.66077,-2.12 c -1.44191,-0.96892 0.47893,2.11952 -1e-5,0 z m 5.94565,-10.63252 c 0.20574,0.24432 1.03548,-0.42555 0.19439,-1.04782 -1.45435,-1.49701 -0.22101,1.86058 -1.81761,0.29139 -0.21723,-0.47681 1.60401,0.14869 0.0852,-1.15774 -0.89246,-0.47298 -0.93898,2.12684 -2.38015,2.09263 0.83214,0.6002 2.07888,-1.22005 2.52309,-0.34065 0.91475,0.20482 -0.30376,1.80585 1.24106,0.55353 l 0.15411,-0.39131 z m -20.90843,12.2085 c -1.81512,-1.70079 -1.4966,-4.19996 -2.476107,-5.51565 -1.106288,-0.95758 1.946517,0.4492 0.171574,-0.73044 2.409073,-0.57583 2.472243,4.34873 3.077863,6.24297 -0.13884,0.31574 -0.59318,-0.0527 -0.77333,0.003 z m 23.35177,-0.16065 c 0.67834,-0.49175 1.85415,-1.02448 0.29745,-1.12656 1.45299,-0.17932 0.11252,-1.36547 2.2385,-1.40151 3.1983,-0.0343 -1.33124,0.97875 -1.58961,2.30919 -0.0756,0.1072 -1.11182,1.01717 -0.94634,0.21888 z m -4.18276,-0.61599 c 1.12241,-0.53115 2.10792,-0.43469 0.30045,-0.81466 1.04973,0.0768 2.61912,-0.24826 2.38301,-0.8045 3.27799,2.07418 -2.99076,2.19151 -2.68346,1.61916 z M 98.063366,208.3017 c -1.547085,-0.43759 -4.107753,-1.26743 -1.259106,-2.00211 1.004617,0.61794 2.862408,0.80426 2.48943,2.50715 -0.468252,0.008 -0.836003,-0.31143 -1.230324,-0.50504 z m 29.085324,-1.60187 c -0.96111,-2.56091 1.36851,0.93848 0.29079,0.55287 z m -4.35595,-0.36012 c -0.18906,-2.46867 2.72606,-3.8429 2.90024,-4.93263 0.16154,0.43583 3.16457,-5.20985 3.46586,-1.88565 0.31694,1.10351 -0.77618,3.72614 -0.62331,1.02461 -1.87313,-0.17967 -0.032,2.36033 0.23811,2.13161 -1.07353,0.34289 -1.71715,2.41418 -2.66817,1.53752 -0.36099,0.92972 1.30976,2.25882 -0.49269,0.81175 -1.61214,-1.08077 -0.66083,2.70718 -2.82001,1.31286 z m 4.85935,-1.02128 c 0.47831,-1.3272 3.18727,-0.27866 0.73992,-0.34535 -0.2996,-0.23865 -0.47711,0.609 -0.73992,0.34535 z m -24.93698,-0.84813 c -0.88099,-1.70134 0.96854,-0.74601 0,0 z m -8.021134,-1.40655 c -0.518107,-0.81691 -0.191424,-3.11103 -0.04821,-0.92019 1.032151,-0.70899 2.698068,1.50495 0.308514,1.06914 l -0.305652,0.0587 0.04535,-0.20764 z m 3.415322,-0.67915 c -1.227685,-2.37716 -2.740136,-4.832 -3.064164,-7.52018 0.04965,-2.06282 0.215024,-0.55923 0.84226,0.44312 0.597039,-0.31991 -0.426566,-2.69946 0.54589,-2.82768 -0.582964,1.33367 1.748755,4.36506 1.456182,2.71262 -0.504223,-1.0821 1.821997,1.45883 1.340963,2.64338 -0.107979,0.79468 -0.446281,2.53844 1.121911,3.15552 1.22322,2.24826 -1.662402,1.44607 -2.244934,0.60667 0.06104,0.16358 0.873319,1.6398 0.0019,0.78655 z m 0.637058,-3.71477 c -0.173668,-1.84687 -2.661723,0.79892 -0.286141,0.60519 0.209079,-0.11984 0.290056,-0.37843 0.286141,-0.60519 z m -5.856493,3.35662 c 0.520301,-2.15777 1.347312,0.4494 0,0 z m 9.020877,-0.31428 c 0.70222,-2.69285 1.51059,1.45972 0,0 z m -6.193442,-0.59494 c -0.460481,-1.77248 -1.677328,-2.55726 -1.194761,-4.37263 0.15923,1.5386 1.821218,3.77834 1.623614,4.81676 l -0.428858,-0.44413 z m 6.931662,-5.22552 c -0.0186,-2.13739 1.49926,1.08772 0,0 z m -2.874171,-6.03083 c 0.532361,-1.96326 1.305031,0.63361 0,0 z m 10.286291,-5.16782 c 0.50892,-0.50172 1.71749,-1.28023 2.13381,-1.53524 1.76702,1.97897 -1.45704,2.74542 -2.13381,1.53524 z m 3.92589,0.0879 c -1.07187,-0.53735 -0.4134,-1.49608 -0.78497,-1.76972 1.0674,-0.0742 2.70754,-0.2316 0.98025,0.53595 -0.19128,0.58871 1.07529,1.98504 -0.19524,1.2337 z m 1.9253,-0.1405 c -0.78542,-1.4679 3.98104,0.3461 1.0148,0.18207 -0.30032,0.0635 -0.87552,0.29867 -1.0148,-0.18207 z m -6.65139,-0.65934 c -1.69988,-0.0879 1.75485,-2.46518 0.68104,-0.47512 0.62972,0.35554 -0.44172,1.12537 -0.68104,0.47512 z m 10.98287,-0.19662 c 2.35358,-2.37196 1.00012,0.42041 0,0 z m -2.41053,-1.57845 c -0.87324,-1.86923 -2.179,-1.24572 -3.39254,-0.16714 -1.53006,0.38167 -1.2776,-1.24493 -0.36006,-0.62445 -0.62972,-2.58233 3.12529,-2.99771 2.59554,-1.66236 -1.05263,-0.0327 1.24054,1.81919 2.22997,1.68868 0.73267,0.66109 -0.69971,0.72228 -1.07291,0.76527 z"
         id="path3332" /><path
         style="fill:#99c17b;stroke-width:0.264583"
         d="m 106.45407,211.16305 c 0.36348,-1.94167 -2.01766,0.98796 -1.96845,-1.68115 -0.8156,-1.71838 -1.24495,-5.32122 0.61806,-6.12467 2.10874,-0.85429 -0.85308,-3.88107 0.5214,-5.84958 0.54364,-1.05448 1.1802,-0.64921 1.52185,0.23604 0.66146,-0.42115 -1.08258,-3.74838 0.6709,-1.46466 0.80975,1.77078 -0.2752,-2.59568 1.53831,-1.81502 0.30192,0.25233 -0.78438,1.63551 0.44305,0.36926 1.05703,-1.09234 0.94538,2.71163 1.51488,3.08138 -0.25611,0.88128 1.17152,2.60545 1.18584,4.09948 0.084,1.18999 -0.64212,2.3547 -0.87622,3.53477 -0.87707,2.27021 -0.67079,5.63406 -3.8345,5.46006 -0.35714,0.0592 -1.12216,0.67833 -1.33512,0.15409 z m -0.34637,-1.27947 c -0.82027,-2.18776 -1.96276,2.24718 0,0 z m 0.55345,-2.20017 c -1.78135,-1.47684 -0.24325,2.29885 0,0 z m 1.50872,-7.68739 c -1.25486,-0.68161 -0.0202,1.47478 0,0 z m 5.49155,11.26701 c -0.1382,-1.42444 -2.88672,0.12798 -1.47585,-1.92391 -0.0405,-1.44286 3.39347,-1.21578 0.88523,-2.18466 0.32433,-2.37518 1.43878,-4.77773 1.9446,-7.19329 0.64997,-1.74139 0.53164,-5.91578 2.99977,-5.2981 1.05439,-0.79346 1.83698,0.63036 2.40584,-0.4695 -0.33502,-0.71913 -1.98101,-2.31864 -2.36007,-0.75644 -0.0964,-1.45192 -2.52952,-1.87261 0.17844,-1.88214 2.24964,-0.71643 -1.61578,-0.96226 0.63759,-1.33367 2.62439,-0.0191 -1.10422,-0.61929 -0.73468,-0.4761 2.32056,-0.86099 0.10899,-3.16269 0.42749,-3.77091 1.03901,0.17176 2.64062,2.82176 1.65203,0.4265 -1.66678,0.17224 2.08061,-0.68104 0.31227,0.20082 0.52355,0.7489 3.24484,0.85 1.90316,2.0297 -1.13155,-1.97574 0.54232,1.56601 -1.04732,0.31216 -1.60305,0.10357 -2.23627,-0.007 -1.02047,1.49112 0.14998,1.22053 -0.73077,1.69455 0.40341,1.9091 0.51991,0.71615 0.0456,-2.19012 0.86272,0.0822 -0.13659,1.88246 0.72005,2.20452 1.51847,0.82035 0.86329,-0.72732 0.83148,-0.94517 1.14787,0.14403 1.16016,-1.38766 3.80474,-1.02432 2.68529,1.11503 1.9096,-0.84052 -0.89527,1.43979 -0.47935,-0.80609 -1.44932,1.41321 -1.62993,4.90381 -4.26407,2.77161 -1.93102,-0.35808 -3.39305,1.76045 -4.21979,3.31045 -1.20188,-0.58355 -0.61339,1.53046 0.53363,0.57832 0.34288,2.98098 2.55987,0.9807 3.77331,0.54456 0.32477,-1.86908 0.61305,1.55294 -0.15546,2.15788 -0.32174,0.58938 -1.49134,3.00722 -2.6924,2.15545 1.60001,-0.90478 -3.55512,-0.0587 -1.64196,-0.10427 2.11496,-0.23236 0.69903,1.19646 0.21032,1.1022 0.79414,0.72116 3.10349,0.17266 1.28099,1.30971 0.9005,0.63623 -1.2886,-0.0304 -1.16647,-0.45407 -0.57458,-0.72646 -4.17176,-1.80024 -2.59155,0.31019 0.0192,0.78218 1.77898,3.93815 -0.46493,3.73019 1.84622,-0.97375 -1.22622,-5.20065 -0.80436,-1.72564 -0.38292,0.63207 1.04866,2.87937 -0.6437,1.87723 z M 119.45,192.45208 c -0.92149,-2.00167 -1.32971,0.60991 0,0 z m -17.83999,17.15727 c -1.27062,-1.30548 1.31729,-1.63468 -0.54208,-1.81676 -1.851205,-0.35668 0.362,-5.15318 0.88304,-1.55484 0.34443,0.94172 2.1719,6.1979 -0.34096,3.3716 z m 25.6452,-0.7531 c -0.38551,-1.28009 3.55222,-0.80727 0.91286,-0.11641 -0.17881,0.30842 -0.71209,0.56483 -0.91286,0.11641 z m -28.442708,-0.26458 c -2.100269,-0.63676 0.02869,-0.90555 0.694715,0.19098 -0.217043,0.12255 -0.626804,0.11407 -0.694715,-0.19098 z m 0.203824,-6.53261 c -0.208799,-1.47805 -0.387641,-2.17826 0.644342,-0.7591 1.495492,-0.49975 -0.441929,0.79485 -0.644342,0.7591 z m -1.5451,-0.76556 c -0.831633,-1.48199 2.274799,1.06739 0,0 z m 21.714194,-0.34644 c 1.54477,-1.8917 1.01652,1.17613 0,0 z m 1.47076,-0.21799 c 0.16116,-1.11001 0.52252,-2.72517 0.90347,-0.7407 1.07149,0.38216 -1.5062,1.66183 -0.90347,0.7407 z m 6.66194,-0.78708 c -0.79102,-0.90829 1.07231,0.39672 0.58028,-1.09267 1.94005,-0.78686 0.79809,2.06685 -0.58028,1.09267 z m -23.90071,-0.94147 c 0.97164,-1.51455 -2.28542,0.39943 -0.46025,-1.0937 3.2035,-1.27053 0.88551,1.33616 0.10795,1.68384 0.11744,-0.19671 0.23487,-0.39343 0.3523,-0.59014 z m 9.87552,0.43546 c -0.47465,-1.51288 1.5777,-3.32738 0.46714,-0.86746 -0.1685,0.18117 -0.0294,1.16533 -0.46714,0.86746 z m 12.33104,-2.84129 c -0.12765,-2.62239 1.68821,-0.93105 1.1682,-0.24958 -0.3616,-0.37343 -1.59286,1.27428 -1.1682,0.24958 z m -29.174099,-0.66824 c -0.08183,-2.74642 1.089018,1.681 0,0 z m 15.832259,-0.13753 c -0.56622,-0.48005 -1.56553,-2.30012 0.0151,-1.51063 -2.26109,-2.53108 3.07921,1.88279 2.13661,-1.396 -0.5119,-1.03524 -2.16855,-1.02138 -0.82335,-1.65692 -0.97223,-0.92128 -2.26577,3.35669 -1.65643,0.81501 -1.44653,1.19149 -2.39177,-2.18914 -0.46405,-0.68808 0.89895,-1.3457 5.33858,-1.32962 3.64999,1.09974 -0.47945,1.51042 -0.38929,3.94575 -2.85791,3.33688 z m 3.99287,-1.46914 c 1.03624,-2.58295 1.4018,0.23468 0,0 z m -8.34154,-0.55637 c 0.508,-1.5004 0.1846,-1.62081 -1.13046,-0.80305 -1.6436,-1.07425 1.76845,-3.81348 2.85844,-1.482 0.63899,0.92241 -0.81482,3.10567 -1.72798,2.28505 z m 0.8192,-2.13466 c -0.2986,-1.64952 -3.20258,0.23472 -0.67974,-0.001 -0.0122,0.4525 0.58172,0.28492 0.67974,0.001 z m 4.61598,1.41865 c 0.44191,-1.95756 1.04439,0.85524 2.7e-4,-1e-5 z m 9.16097,-0.24973 c -1.1238,-3.44241 1.34635,0.017 0,0 z"
         id="path3330" /><path
         style="fill:#95bf76;stroke-width:0.264583"
         d="m 107.96444,210.60938 c -1.35189,-0.27851 -1.00104,-4.49257 -2.25554,-2.64226 1.61773,0.97067 -1.44134,1.47393 -0.424,-0.0671 -0.61304,-0.54735 -1.35064,-1.0158 0.0313,-1.22429 -0.0853,1.37095 1.47803,-0.29352 0.11084,-0.89455 -0.7217,-0.95148 -2.19588,1.46065 -1.35235,-1.05904 -0.14622,-1.69732 2.33449,-0.9567 2.56913,-1.50892 -0.93059,2.16417 0.80962,1.0676 0.49342,-0.39183 -0.98268,-1.18695 2.00029,-2.67688 0.36116,-0.55482 0.34067,1.1626 0.0346,1.642 1.8654,1.18493 0.93287,-0.42804 2.49879,0.43648 1.51061,-1.30802 -0.55086,-0.843 -1.9098,-2.6017 0.25482,-2.17226 1.33818,-0.6779 0.92088,2.32232 1.02561,3.18282 -0.64824,0.69388 -0.17804,3.86181 -1.84506,4.84037 -0.35343,0.3277 -0.87294,0.25114 -0.26871,1.05445 -0.92769,0.11268 -3.87296,-1.23111 -1.95124,0.6647 1.45147,-0.1662 1.91393,1.32959 -0.12537,0.89585 z m 3.68066,-9.16196 c -0.65832,-1.25565 -2.22468,-0.60167 -0.42105,0.23684 l 0.22759,-0.0287 z m 0.36775,8.40102 c 0.64805,-1.32368 3.30683,-1.40108 1.74861,0.33073 -1.14125,-1.90234 -0.33019,0.85658 -1.81681,0.15878 l -0.023,-0.18066 z m 15.77153,-1.25677 c 0.97748,-0.85257 2.28394,-0.40243 0.38488,0.0177 -0.14545,0.46856 -1.10985,0.75869 -0.38488,-0.0177 z m -23.75187,-0.42444 c -0.8357,-1.83793 0.88787,-0.37719 0,0 z m 10.94077,-0.83233 c -0.85216,0.24777 -0.2262,-0.6089 -0.70818,-0.7855 -2.08577,0.95417 0.11836,-3.40465 0.27495,-4.50941 0.74602,-1.84188 1.13784,-4.10226 3.38469,-4.61295 0.3465,1.41124 -0.72179,2.12401 -1.50692,1.73356 0.17729,0.88484 -0.91749,1.55716 -1.00521,2.40734 -1.54983,1.67269 2.19923,-1.25635 2.32094,-0.24558 1.97557,-0.13509 -2.28684,1.1691 0.45389,0.76315 0.8149,0.28324 2.62996,1.132 1.21537,1.45264 1.16018,0.33673 1.26669,2.22412 0.0472,0.96432 -1.11274,-0.86379 -1.57228,0.80216 -2.3035,-0.66931 -0.0452,0.74844 1.05721,2.9654 -1.30613,2.48446 -1.93626,-2.27157 0.6114,2.79106 -0.86705,1.0172 z m 1.68037,-4.27371 c -2.15562,-0.60571 -1.58497,0.68221 0,0 z m -15.78856,2.64633 c 2.10954,-2.01443 -1.190609,2.12372 -0.0482,0.084 z m 4.85081,-6.44242 c 2.26207,-1.11689 -1.41723,1.8124 -4e-5,0 z m 17.96744,-2.65776 c -1.34804,-1.2001 -0.47665,-1.14302 0.18686,-0.91829 0.68291,-1.42951 -1.75829,-0.76328 0.086,-1.80302 1.36293,-0.69212 1.81717,-0.90472 1.38747,0.91393 -0.11646,1.15412 -0.71715,-1.39121 -1.02841,0.67619 0.85061,-0.19204 0.77202,2.24022 -0.632,1.13121 z"
         id="path3328" /></g></g></svg>
