<?xml version="1.0" encoding="UTF-8" standalone="no"?>
<!-- Created with Inkscape (http://www.inkscape.org/) -->

<svg
   width="54.324577mm"
   height="45.704533mm"
   viewBox="0 0 54.324577 45.704533"
   version="1.1"
   id="svg3005"
   xml:space="preserve"
   inkscape:version="1.2.2 (732a01da63, 2022-12-09)"
   sodipodi:docname="buissonnant-arrondi-natural_tree.svg"
   xmlns:inkscape="http://www.inkscape.org/namespaces/inkscape"
   xmlns:sodipodi="http://sodipodi.sourceforge.net/DTD/sodipodi-0.dtd"
   xmlns="http://www.w3.org/2000/svg"
   xmlns:svg="http://www.w3.org/2000/svg"><sodipodi:namedview
     id="namedview3007"
     pagecolor="#ffffff"
     bordercolor="#666666"
     borderopacity="1.0"
     inkscape:showpageshadow="2"
     inkscape:pageopacity="0.0"
     inkscape:pagecheckerboard="0"
     inkscape:deskcolor="#d1d1d1"
     inkscape:document-units="mm"
     showgrid="false"
     inkscape:zoom="3.1358025"
     inkscape:cx="147.17126"
     inkscape:cy="122.77559"
     inkscape:window-width="2560"
     inkscape:window-height="1369"
     inkscape:window-x="-8"
     inkscape:window-y="-8"
     inkscape:window-maximized="1"
     inkscape:current-layer="layer1" /><defs
     id="defs3002" /><g
     inkscape:label="Calque 1"
     inkscape:groupmode="layer"
     id="layer1"
     transform="translate(-69.53722,-169.01019)"><g
       id="g3138"
       transform="translate(-20.25,-8.1)"><path
         style="fill:#e2edda;stroke-width:0.264583"
         d="m 102.2786,222.67537 c 1.7145,-0.20313 0.9316,0.35126 -0.14883,0.0448 l 0.14883,-0.0451 z m 10.24952,-2.6332 c -5.50893,-0.77869 -11.0207,-2.16711 -16.017875,-4.64932 -2.25806,-0.89066 -3.102663,-3.05679 -4.958636,-4.44757 -0.952388,-1.85331 -2.034327,-4.40005 -1.56405,-6.26071 0.266238,0.97587 0.557777,1.54757 0.496087,0.10626 -1.684269,-2.18366 0.138433,-4.3797 0.747476,-6.427 1.216681,-1.62576 1.88399,-2.88547 2.957562,-4.63095 0.391136,-0.83083 0.390448,-1.20239 -0.252733,-1.75678 0.04407,-1.7335 2.87051,-1.24023 3.014737,-2.93591 -0.780486,-1.43788 1.086518,0.13488 1.155723,-0.98969 1.775697,-0.16091 1.12066,-1.49681 3.001699,-1.76659 0.0342,1.90371 2.89228,-0.93352 1.38385,-1.66423 -0.72898,-1.03856 0.0333,-2.4659 1.03449,-1.63983 0.74535,-0.88031 2.84492,-3.7901 3.18104,-1.18523 -2.17489,0.364 1.06225,1.66585 0.87941,0.3817 -0.79136,-0.47843 -1.31501,-2.39967 0.23547,-2.06289 -0.86556,1.27911 2.25335,0.29659 1.89699,0.73094 0.5263,-0.98317 1.95758,-1.59566 2.70372,-2.6369 0.51962,0.25029 1.73941,2.24647 1.70901,0.54185 1.91139,0.31556 4.33468,-1.51078 5.97358,-0.24738 0.0362,-2.07094 2.46895,-1.2721 4.41582,-1.07815 2.27807,0.97756 5.84423,-0.78229 6.97172,1.83496 1.41327,2.23091 4.68564,1.98057 5.81177,4.43985 1.62005,1.70721 1.91013,4.10214 3.78218,5.686 1.53039,1.20997 2.41939,3.47296 2.7179,5.54453 1.03918,2.08364 -0.96683,4.1065 -0.10604,5.86302 1.08135,1.7452 -1.84583,3.89801 -1.23868,5.89333 -0.22346,2.58336 -1.3487,5.00402 -2.20798,7.42706 -0.50679,1.59077 -2.16263,0.2598 -2.55961,2.1853 -2.30657,-0.0735 -3.26564,2.85213 -5.714,2.78096 -2.74749,0.58695 -5.43791,0.0906 -8.17316,0.61575 -2.01984,-0.0201 -4.83496,0.98268 -6.3499,0.068 0.27406,-2.63758 3.46281,-3.51842 5.17399,-5.14574 3.5557,-2.63338 7.4576,-4.72622 11.24435,-6.98851 -1.08445,0.005 -4.11384,1.99835 -5.89268,2.80128 -1.17438,0.52975 -4.45406,2.84203 -3.2237,-0.11973 0.49769,-1.06764 1.21482,-4.26164 0.018,-1.55187 -0.8579,2.23608 -1.45773,4.85379 -3.9135,5.86427 -1.1368,0.8144 -3.93513,3.26324 -2.22572,0.44847 1.48581,-2.79573 2.70363,-5.83265 4.82193,-8.21806 3.54584,-2.44686 7.8063,-3.6004 11.55907,-5.68214 -3.52216,1.15755 -6.91947,2.90197 -10.43161,3.92602 1.9902,-3.35901 5.04342,-5.95693 7.35341,-9.08055 -1.52865,0.72971 -3.3586,3.93811 -3.95737,0.93568 0.45692,2.47711 -1.79493,3.95528 -3.20739,5.6866 -3.09055,3.47685 -5.69805,7.46839 -8.07589,11.38042 -1.08752,-2.24082 1.01809,-4.42081 2.05623,-6.30991 0.36541,-0.74216 2.37086,-3.23303 1.79062,-3.16776 -1.40289,1.38746 -2.85281,4.06538 -4.10076,4.7977 0.0181,-2.55983 0.67962,-5.17507 2.88706,-6.72352 3.60815,-3.35592 7.33262,-6.58519 10.92324,-9.96022 -2.11425,1.04081 -3.70066,2.85763 -5.64115,4.14845 0.10552,-1.312 1.07707,-3.1458 0.82143,-4.09804 -0.79257,1.58857 -1.05888,3.43599 -1.78063,5.02391 -2.01411,1.73764 -3.93282,3.70703 -6.05882,5.22032 0.78037,-3.4707 1.98861,-6.89818 2.65704,-10.41789 -1.28194,2.1224 -1.92165,4.62475 -3.05552,6.78298 -2.78975,-2.23711 -4.7214,-5.3896 -7.27106,-7.84758 0.71048,1.74787 2.74619,3.43351 3.94258,5.16141 1.88894,1.99072 3.74137,4.30607 2.23093,7.11086 -0.22525,1.09919 -0.44535,2.19943 -0.66832,3.29909 -2.24289,-1.74054 -4.76276,-3.17366 -6.73312,-5.22752 -1.20873,-1.47317 -1.72465,-4.95827 -2.85853,-5.42427 0.13266,1.22063 2.01491,4.23724 0.90073,4.25089 -1.25344,-0.83257 -3.27173,-2.39613 -4.16149,-2.85672 3.98174,3.54255 8.20795,6.79776 12.33005,10.17397 -0.10992,1.09762 0.34951,4.42484 -1.2418,2.33157 -0.65788,-0.95272 -2.20601,-1.83073 -0.8221,-0.20217 1.27657,1.29392 2.43794,3.73457 1.36019,5.19498 -2.40116,-3.83173 -4.92367,-7.58942 -7.48597,-11.31502 -1.19577,-0.82807 0.91739,2.21628 1.19714,2.88912 1.02662,2.06464 2.76646,4.08712 3.31866,6.21969 -2.57805,-1.46709 -5.44122,-2.62918 -7.59042,-4.7183 -0.95811,-1.78144 -3.53106,-3.00482 -3.45327,-5.58175 -0.0408,-1.1101 -0.771455,-2.44778 -0.531126,-0.5366 0.117303,2.97291 -2.648152,-3.66949 -2.92101,-2.2281 1.318156,2.51103 3.263106,4.65222 4.483036,7.21056 -0.30561,0.78443 -4.631202,-1.84345 -2.402716,-0.0537 1.812516,1.19686 3.505776,1.91202 5.208706,3.11694 1.16311,0.14028 2.91391,1.57174 0.62435,0.96562 -2.12507,-0.23702 -4.29432,-0.45442 -6.42394,-0.23574 3.99889,0.89894 8.54005,0.23135 12.02658,2.82022 2.31537,1.05717 3.65991,3.37132 4.2568,5.75001 0.081,1.07737 -1.40114,0.39878 -1.98408,0.46001 z m -20.66004,-10.2104 c 0.362122,-1.1154 -1.264113,-3.73435 -0.6233,-1.52135 0.02833,0.6694 0.758939,3.9847 0.623302,1.52135 z m 0.303555,-5.06016 c 0.03593,-1.084 -0.484399,-5.34211 -0.541671,-1.98891 0.38555,1.47513 -0.877054,1.08327 -0.278073,2.42892 -0.364126,2.2097 1.145457,0.71149 0.819744,-0.44001 z m 2.319194,-5.44506 c 0.954672,-2.34745 -2.545533,0.52012 -0.5555,0.84114 0.264811,-0.22257 0.396795,-0.54593 0.5555,-0.84114 z m 5.910821,-10.81741 c 0.81839,-3.16432 -1.525383,1.93442 0,0 z m 0.35251,-3.51107 c -0.35007,0.17839 2.41149,-1.49049 0.58353,0.13365 l -0.16145,0.15593 -0.42202,-0.28955 z"
         id="path3152" /><path
         style="fill:#d5e5c9;stroke-width:0.264583"
         d="m 117.52759,219.3262 c 0.95952,-2.28198 3.58177,-3.28264 5.3777,-4.84341 3.45397,-2.59068 7.29501,-4.5762 10.98368,-6.78784 -0.19141,-0.9029 -3.06213,1.44652 -4.1694,1.77743 -1.63548,0.68985 -3.60239,2.28739 -5.09798,2.25464 0.0303,-1.39269 1.09458,-3.44596 0.79834,-4.37307 -1.42596,1.98926 -1.21228,5.09945 -3.45087,6.44559 -1.11715,0.70706 -4.86842,4.02372 -3.01533,0.76731 1.41107,-2.73354 2.7429,-5.63913 4.60398,-8.06205 3.81952,-1.77798 7.71955,-3.41164 11.50356,-5.24032 -1.09255,-0.41056 -4.00404,1.68024 -5.75687,2.05207 -1.39805,0.40172 -3.65803,1.73416 -4.56998,1.49001 2.18011,-3.18793 5.00019,-5.86096 7.50516,-8.77753 -1.45164,-0.31738 -3.8203,4.51742 -4.03411,0.83362 -0.72949,0.62896 -0.43263,3.60685 -2.23305,4.40853 -3.31577,3.53534 -6.15864,7.48715 -8.65575,11.63354 -1.74603,1.72992 -0.62443,-2.54231 0.2167,-3.14959 0.7501,-1.66896 3.51604,-4.70479 3.14253,-5.4745 -1.50956,1.50683 -2.60305,3.72594 -4.15625,4.99271 0.15867,-1.57258 0.3531,-3.2666 0.80114,-4.75161 4.14346,-3.85036 8.38284,-7.59678 12.57995,-11.3858 -0.65791,-0.55243 -3.32469,2.21129 -4.51342,3.06576 -1.74782,1.36686 1.16643,-3.92776 -0.0906,-3.45275 -0.77367,1.57728 -0.99947,3.4133 -1.69296,4.98934 -1.92874,1.65608 -3.72439,3.49321 -5.81756,4.93821 0.20069,-2.17418 1.55082,-5.99318 2.26369,-6.46718 -0.69345,-0.93977 1.12247,-5.42449 -0.49752,-2.55054 0.0536,1.64921 -1.91468,0.18009 -0.98124,1.23889 -0.27408,1.6164 -1.07446,6.24992 -2.85598,3.00395 -1.99708,-2.07522 -3.66614,-4.46563 -5.75905,-6.43741 0.13401,1.26321 2.82333,3.68289 3.94158,5.35253 0.98223,1.21566 1.95922,2.43554 2.93868,3.65343 -0.65649,1.93612 -0.83613,4.00509 -1.4289,5.94105 -2.10746,-0.32597 -3.85809,-2.45105 -5.66386,-3.68231 -1.9165,-1.46586 -2.33687,-4.0625 -3.1969,-6.06016 -0.86865,-1.70274 -0.72984,1.43372 0.0267,2.16075 0.36527,0.95906 1.105,2.8838 -0.38915,1.36925 -0.84306,-0.48657 -3.11718,-2.65532 -3.40343,-2.09458 3.78848,3.50713 8.09915,6.41473 11.9263,9.86299 0.37696,0.55493 0.28229,3.49479 -0.29851,3.00208 -0.7017,-0.87846 -3.11073,-3.25067 -1.49695,-0.80083 0.78639,0.83819 2.70517,4.12605 0.9362,3.96046 -2.87205,-3.39917 -4.78845,-7.5342 -7.75442,-10.8462 0.55986,2.1576 2.44224,4.52334 3.59045,6.71376 0.56507,1.06888 2.70462,3.86352 0.3442,2.34944 -2.16853,-1.38842 -5.0312,-2.22118 -6.51257,-4.38264 -0.16033,-1.2081 -1.936,-1.42685 -1.83461,-2.46781 -1.901292,-0.26106 -0.85797,-4.58643 -2.199605,-4.28452 0.208855,1.48819 -0.129224,2.31648 -0.972823,0.55102 0.01935,-1.12455 -2.881054,-3.39706 -1.465296,-1.02606 1.303648,2.19403 2.971544,4.17762 4.072794,6.48522 -0.20843,0.70803 -4.233253,-1.6948 -2.804471,-0.19337 1.214775,0.70602 3.563451,1.33339 3.035951,2.52452 1.075,-1.22867 1.21056,2.33021 -0.19381,1.39336 -1.01423,-0.0122 -3.980465,-0.73682 -2.912972,0.80444 0.191858,0.80935 1.516239,-1.28987 2.645842,-0.33397 1.31316,0.28707 2.85685,3.5558 2.53605,0.52448 2.12693,0.13586 4.38966,0.12904 6.14959,1.52711 2.56184,1.07741 2.82264,3.58161 4.68229,5.21251 0.51734,1.22545 0.007,1.2987 -0.45334,0.82667 -1.70844,0.91858 -4.25975,-0.21796 -6.22642,-0.38248 -2.34415,-0.80265 -5.29095,-0.78366 -6.96016,-2.80721 -0.17343,-1.78077 -1.770613,-0.82291 -1.833573,-0.0208 -2.766242,-0.53281 -3.56196,-2.90953 -5.797,-4.08688 -1.210655,-2.00417 -1.592396,-4.64396 -0.81024,-6.84967 -0.299212,-2.5325 0.436349,-4.39968 2.414992,-5.96073 1.301449,-1.27444 0.551632,-2.50995 0.595376,-3.8037 0.919859,-0.88614 1.151664,-1.65834 -0.09325,-0.53886 -0.950567,0.90565 -0.536512,3.08824 -2.514349,2.29527 -1.290968,0.0513 0.852279,2.15645 -0.784822,0.79574 -0.254798,-1.42101 2.248941,-1.34792 1.910614,-3.09261 0.794507,-1.0922 1.487391,-2.54397 0.953844,-3.49923 1.207991,-1.31857 2.907913,-1.01858 3.538933,-2.87359 0.99806,-1.07305 1.089559,-0.34603 0.959283,0.18923 1.856322,-0.13089 0.201921,2.4963 1.759062,1.46179 1.1361,0.0363 3.8227,-1.55472 1.21667,-0.75505 -0.73542,0.32323 -0.73147,-1.94183 0.54141,-0.71243 1.62466,-0.23761 -0.0426,-1.02752 -0.59437,-0.66243 0.37303,-1.10608 2.31284,-1.27545 0.85802,-1.74942 0.96819,-0.74478 1.23094,-0.11464 1.01093,-1.474 0.94498,-0.32047 0.46803,-0.88378 1.30605,-1.16713 -1.23542,-0.15616 -1.47717,-1.69078 0.21166,-1.58595 0.3187,0.97499 -1.55969,0.19966 0.0554,0.85998 1.05313,-0.22764 1.34203,2.00711 2.32921,0.24192 0.36307,-0.73615 0.95097,-0.80246 0.80269,-1.85706 1.14007,0.5319 2.53516,-0.90207 2.81074,-2.22711 0.78878,-1.59461 1.66167,-0.18887 2.36202,0.68591 0.28409,1.52611 4.36966,-2.62304 2.31356,-0.25869 -0.9621,0.96881 1.7047,-0.8234 2.06852,-0.0939 -1.73033,-1.38404 1.08169,-1.48833 0.61763,0.0838 0.80074,-0.613 0.15176,-2.13061 1.30249,-0.71982 0.1172,-0.7372 1.63327,-1.62174 0.95549,-0.26458 0.5146,-0.65273 1.5495,-1.01506 1.02467,0.0183 1.191,0.5561 2.62433,0.26727 2.91476,0.81553 1.70329,-0.50622 3.04161,-2.46375 5.42835,-1.45587 0.77061,1.58854 3.08201,2.6934 3.52214,4.02929 0.54563,0.70897 0.56533,0.63967 1.0522,0.0797 -0.11605,1.27174 0.25415,2.34738 1.05638,2.17985 0.57785,0.77735 -0.59355,1.37607 0.77691,1.12102 -0.0281,0.73363 -0.0814,2.69846 0.28263,1.00101 0.84369,-0.01 0.13604,2.01658 1.18301,0.6797 1.39521,1.36478 0.27965,-1.57973 -0.68954,-1.2242 1.15755,-1.31489 -1.87529,-0.74257 -1.24664,-2.49425 -0.27134,-0.29305 -1.03054,0.55565 -0.66573,-0.8849 1.16879,0.25073 1.83931,1.94962 2.52689,2.75163 0.40211,1.00332 2.06436,3.41378 1.80979,3.80207 -1.6606,0.33716 2.35641,2.10385 2.61434,3.24136 0.0614,1.83519 0.14402,4.47995 1.35409,5.0287 -0.74006,1.51477 -1.4032,2.31944 -0.55893,3.9401 0.40517,1.65664 -0.56715,2.51714 -1.51115,3.24178 -0.11834,0.94068 1.26527,3.29122 -0.0721,2.97997 0.20012,2.52257 -1.01752,5.21046 -2.30963,7.24255 -1.669,-0.7683 -1.32425,0.12512 -1.90151,1.30355 -2.3267,-0.32451 -3.08116,3.00747 -5.63275,2.64335 -1.43074,0.86227 -3.51694,-0.0486 -4.71156,0.34946 -1.63248,-0.32629 -4.48286,1.01707 -6.61618,0.90865 -1.11295,0.083 -2.2286,0.12083 -3.34297,0.17978 0.0529,-0.27616 0.10583,-0.55395 0.15861,-0.82898 z m -11.21718,-1.22116 c -0.6999,-0.59947 -2.04356,-1.58966 -1.32501,-0.13604 0.38581,-0.39588 1.31588,0.82573 1.32501,0.13604 z m -2.28287,-0.85368 c -1.97835,-0.0822 -0.70277,-3.0139 -2.585,-2.89909 0.92537,0.96039 0.3114,4.20497 2.585,2.89909 z m 0.22708,-2.5248 c -0.14684,-1.31316 -1.01357,2.58336 -0.22786,0.389 l 0.22786,-0.38902 z m -5.944589,-0.0351 c -0.621042,-1.34692 -4.219184,-0.50192 -1.643649,0.40549 1.141418,1.36687 0.586711,-2.02547 1.230811,0.0352 -0.440181,1.15873 1.134735,-0.0378 0.412838,-0.44065 z m 7.735799,-7.9994 c 1.15993,0.26944 1.38897,-1.36176 0.0431,-0.60456 -0.71756,0.10444 -0.65159,1.54507 -0.0431,0.60456 z m -2.94831,-3.70233 c -1.62092,-0.95575 -0.47059,0.93588 0.18502,0.20744 z m 5.85873,-4.60119 c -0.84879,-1.54238 -0.81823,1.51435 0,0 z m -10.451044,-7.12062 c 1.958514,-1.07227 -1.284212,-0.51113 -1.455208,0.40614 0.170311,0.64761 1.176073,-0.22444 1.455208,-0.40614 z m 9.876574,-4.08488 c 1.41916,-1.25805 -1.43666,-0.46233 -0.62973,0.45941 l 0.22534,-0.12414 z m 8.42036,-2.06441 c 0.0364,-1.17193 -2.34027,0.8336 -0.17298,0.67132 l 0.1054,-0.18461 z m 10.14577,-5.39252 c -1.21776,-0.87849 -0.69899,0.88756 -1.5875,0.21942 0.17426,0.78615 1.43157,0.34536 1.5875,-0.21942 z m -14.2875,-0.55226 c -0.55665,-1.41702 -0.76655,1.80018 0,0 z m -8.89402,31.8445 c -0.94166,-0.82722 -0.40538,-2.09612 0.16683,-0.36043 -0.0789,-0.41989 2.77773,0.73556 0.91471,0.55884 -0.36728,-0.009 -0.74219,-0.042 -1.08154,-0.19841 z m -13.088273,-1.95507 c -0.814681,-1.06149 0.02228,-4.39879 0.518733,-4.3056 -0.213832,1.63186 -0.706249,3.27019 -0.07505,4.87565 l -0.187503,-0.16745 z m -0.321962,-4.65115 c -0.921088,-1.88158 0.411303,-4.37908 1.129438,-5.74416 2.130566,1.93972 -1.866667,3.52763 -0.726699,5.44493 0.130818,0.18427 -0.240261,0.78602 -0.402739,0.29923 z m 13.213035,-19.83321 c -0.51397,-2.60337 1.73476,-0.16325 0,0 z m 19.40997,-6.20337 c 0.20643,-0.63912 1.49865,0.41182 1.94152,-0.56156 0.40706,0.83076 -1.91441,1.4882 -1.94152,0.56156 z m 2.38125,0.0369 c 0.83857,-1.81223 0.77168,1.8205 0,0 z"
         id="path3150" /><path
         style="fill:#c6dcb6;stroke-width:0.264583"
         d="m 117.57879,219.25577 c 0.92778,-2.37333 3.76714,-3.27102 5.5797,-4.89915 3.37461,-2.50751 7.11616,-4.4435 10.68081,-6.64107 0.50212,-1.1509 -2.49654,1.01477 -3.21221,1.21169 -1.93336,0.82505 -4.28546,2.68223 -6.00889,2.86056 -0.10109,-1.16707 1.41287,-4.10417 0.62748,-4.17353 -1.42866,2.00153 -1.13988,5.14619 -3.58623,6.32866 -0.90842,0.38666 -3.14047,2.81375 -3.29819,1.9108 1.53734,-3.20053 3.14354,-6.39226 5.1696,-9.3165 3.92896,-1.73907 7.8059,-3.60649 11.80278,-5.1837 -1.22415,-0.73045 -4.3021,1.55867 -6.17667,1.98302 -1.24666,0.2584 -3.71395,1.99463 -4.35379,1.32542 2.15916,-3.0441 4.90659,-5.60908 7.26375,-8.48567 -0.75288,-0.40669 -2.60583,2.05379 -3.50009,2.19811 -0.0114,-1.23923 -0.92199,-2.46491 -0.82518,-0.30555 0.0621,2.57212 -2.94156,3.69076 -4.08671,5.73709 -2.61897,3.13572 -4.85328,6.5634 -6.95685,10.05886 -0.72114,-2.55661 1.33092,-4.70314 2.52723,-6.75807 0.79997,-0.86785 2.73406,-4.50655 0.63969,-1.93501 -1.06175,1.04127 -2.46714,3.98544 -3.38415,3.86628 0.46062,-2.15511 0.34941,-4.77776 2.55436,-6.01144 3.63712,-3.40961 7.4187,-6.66656 11.03665,-10.09313 -1.63347,-0.12384 -3.89449,3.27032 -5.19199,3.32217 0.29851,-0.94767 1.47821,-5.59107 0.0206,-2.72182 -0.64757,2.26585 -1.16973,4.62388 -3.34409,5.91728 -1.13657,0.91364 -2.7691,2.88949 -3.76849,3.00895 0.76001,-1.64941 0.6698,-5.94164 3.01486,-5.37948 -1.67697,-1.1646 -0.31432,-3.35383 -0.56866,-4.71956 -0.77847,1.09997 -0.95246,2.86242 -2.33251,1.53761 -1.1878,0.56339 -0.2688,2.35846 -1.8545,1.18263 -0.90386,-1.5827 -3.12809,0.31243 -0.87619,0.92311 -0.007,1.14761 1.87782,2.13602 0.50775,0.44156 0.89633,0.65418 1.3681,2.2511 2.17053,0.30446 -0.0276,0.41916 -0.36869,3.64282 -1.3007,1.99978 -1.30625,-1.43448 -3.5496,-3.65874 -3.4996,-4.95134 -1.77066,-0.35511 -1.55639,-1.06929 -0.17626,-1.2604 1.14884,-1.15143 1.01983,2.25927 2.40327,0.58744 0.77127,1.24163 1.09738,1.79392 2.09962,0.58405 0.79313,-0.3654 1.91398,-4.35324 0.41298,-4.10461 -1.252,0.19889 -2.91556,0.39748 -2.27789,1.39207 -1.14152,0.12784 -0.86083,1.79579 -1.51133,0.37828 -0.97569,0.25699 -2.38832,1.72336 -2.53782,0.26606 -0.65577,1.08886 -2.7141,-1.74993 -1.34322,0.6066 1.31547,0.53191 1.23944,3.21629 0.39983,2.20247 -0.3396,-1.62324 -0.75237,1.33888 -0.86094,1.98197 -0.99412,0.74841 -0.45942,0.94553 0.27616,0.30064 -0.26245,0.94434 -0.37094,2.90942 -0.95375,1.0238 -0.94827,0.59577 -1.89632,1.68832 -0.1798,1.08294 1.63525,0.40399 1.13479,3.41041 2.73074,1.55972 1.69556,-1.40527 1.30293,-3.23594 0.16482,-4.65394 1.19776,-0.88966 3.01439,2.05964 3.33234,3.42784 2.64882,-0.0372 0.95044,4.00796 0.74261,5.80492 0.004,3.45983 -2.86164,-0.26291 -4.28877,-0.97096 -0.97101,-0.79388 -2.10519,-1.46275 -2.97522,-2.33399 -0.47317,-1.39763 -1.35664,-2.7494 -1.36649,-4.23318 0.87054,-2.4681 -2.34185,-1.4947 -1.39201,-0.0896 0.89615,1.07497 2.34635,4.97885 0.0254,2.52846 -0.58208,-0.76466 -4.57928,-3.09329 -2.27043,-1.05432 2.02881,1.76495 4.26509,3.29344 6.13241,5.22774 1.82984,1.28702 3.77439,2.54842 5.27178,4.21752 0.0919,1.15528 0.0882,4.18228 -1.30078,1.75994 -0.80924,-1.19087 -1.92228,-1.44746 -0.76178,0.11888 0.77738,0.86628 2.87086,4.55525 0.25299,2.87542 -2.24416,-2.76007 -3.78962,-6.01839 -6.04679,-8.75564 -1.24197,-1.6552 -1.37737,-0.42275 -0.39205,0.7467 -0.072,0.63577 -2.12702,2.01548 -0.98487,3.44242 1.0736,-1.16308 2.32908,-2.01502 3.02088,0.0527 0.79359,1.34615 2.34329,3.25011 2.46558,4.35196 -2.06984,-1.09771 -4.85917,-2.22023 -6.11005,-3.8442 -0.92733,-0.16245 -2.32721,-1.96275 -1.78239,-2.46442 0.70929,-0.5834 1.64598,-2.73127 0.0126,-1.13401 -1.57307,-0.12558 -1.06959,-2.40277 0.3268,-2.34363 1.21996,-1.61508 0.39146,-0.29004 -0.24309,-0.68854 -1.27288,0.5821 -1.33945,-1.78727 -2.13805,-0.17481 -0.0355,-2.30362 -2.621611,-1.3055 -1.787702,0.7914 -0.743676,-0.90276 -2.306517,-2.6122 -1.01106,-2.963 0.24518,-1.20216 0.881473,-2.42122 -0.997632,-2.24362 0.67729,0.42783 0.962935,2.40338 -0.860611,1.8249 -0.454584,0.52268 0.395088,1.86719 0.09734,2.8213 1.063803,0.0985 0.06641,-2.41488 1.176588,-0.37093 0.766148,1.75904 3.113057,3.49113 2.962917,5.24243 -0.85927,-0.35648 -3.707984,-2.15937 -2.603283,-0.27935 1.139971,0.7231 3.480653,1.62193 2.763313,2.27993 -0.078,0.55679 1.1834,1.40597 -0.65629,1.33079 -2.03002,0.39182 -3.782981,-0.24921 -5.577807,-0.61011 0.674019,1.7511 2.643158,0.26146 3.839633,2.00143 0.593896,0.42322 2.242544,0.11493 1.335587,-0.47812 1.067457,-0.33753 2.570817,0.13562 2.015527,1.40701 1.25755,-0.69995 -1.04552,1.87147 -0.42591,2.12749 -2.399203,-0.61185 1.35032,0.47695 0.11728,1.3241 1.44663,-0.34063 0.23427,2.34267 -0.52326,0.43598 -0.66585,-2.04532 -2.481588,-2.18184 -3.96343,-3.41296 -1.630441,1.5405 -3.797656,-0.82657 -4.716034,-2.3041 -0.793554,-2.9343 -0.266129,-6.05132 -0.06634,-9.03756 0.795269,-1.57985 4.531876,-3.62435 2.71836,-5.70405 0.883154,-1.97656 2.102843,-4.48874 4.307279,-5.40414 1.587515,-0.71691 5.457585,-1.17997 4.690905,-2.88462 -0.81014,-1.39146 0.73563,-4.23976 1.86528,-3.44314 -0.67421,-2.07855 1.61703,1.00721 -0.54405,0.77437 -0.7123,-0.51893 -1.3357,2.15126 -0.0507,0.63119 1.01539,-0.73702 1.19769,-0.75176 0.99721,0.42694 1.90433,-0.36847 0.13527,-2.43476 1.70589,-3.57875 1.34691,0.42737 0.48327,-1.82725 2.25679,-1.34325 -0.77516,-1.47506 1.94693,0.70373 1.19862,-1.23656 0.73768,0.53374 2.65795,-1.51179 2.50458,0.33034 1.11063,-0.86579 2.68092,-0.48339 3.91733,-1.02845 -0.58079,1.06743 1.20428,2.28573 0.52099,0.53054 0.67036,-1.10921 2.5285,-2.13468 3.48762,-1.19777 -1.63305,0.1923 -3.14206,1.24669 -3.27923,2.73433 -1.32813,0.34458 -1.51721,-1.8704 -2.12333,-0.13613 1.01413,-0.31251 1.66619,2.03338 0.21321,0.9906 -0.75228,-0.37765 -1.48426,-1.23331 -0.64244,0.1617 -1.64385,0.0124 1.36078,2.80488 0.0879,0.62688 0.21496,-1.12919 1.1442,1.68339 1.35755,-0.009 1.00802,1.83074 1.44777,-0.96316 3.02428,-0.32877 1.00069,-0.13719 1.32491,-1.20488 0.0722,-0.78937 0.64334,-1.09422 0.0441,-2.22479 -0.53519,-0.95252 -0.92811,-1.56334 1.47808,-0.92355 2.13666,-1.66397 1.01181,0.6377 0.038,3.06926 1.41001,1.04551 -1.66226,-0.62301 0.81735,-2.09154 0.70969,-0.80416 1.17391,-0.34307 0.58292,1.5675 1.78029,1.52356 0.59266,0.59302 0.9889,-3.51821 2.88934,-3.1672 1.94236,-0.57415 3.45412,2.08256 3.62806,3.72437 -0.36917,1.13215 -0.0318,2.84101 0.53012,0.86665 -0.42697,-1.84391 1.50002,-0.46528 0.72553,0.88087 0.75741,0.93316 -0.64942,3.75902 0.72069,1.62522 0.76263,-1.73428 0.67083,0.16159 1.66869,0.44946 -0.65468,2.49125 4.51864,1.47329 2.84446,3.56495 1.42696,0.85136 3.44843,2.78804 3.55817,4.17332 -1.90015,-0.84809 0.0638,0.61586 0.0679,1.63101 0.0144,1.10649 0.0534,1.14051 -0.46564,0.35387 -0.51799,1.32958 1.75763,2.13842 0.37154,2.95886 -0.24628,2.20025 1.6777,2.85504 0.35266,5.10186 -1.23138,-0.81575 -1.92059,2.32421 -1.35962,3.34648 0.72014,2.55372 -0.52225,3.62049 -1.18011,6.12575 0.008,2.07579 -3.82081,0.79584 -3.74663,1.94088 2.17626,0.0864 -1.96737,1.65192 -2.11437,2.6565 -0.94169,0.91951 -2.364,-0.78893 -2.67949,1.10245 -1.68752,0.81879 -3.26501,-1.0143 -4.53511,-0.0249 -1.86581,0.35924 -4.36989,1.09727 -6.58436,1.12722 -1.14138,0.0834 -2.28469,0.137 -3.42704,0.20542 0.0604,-0.25302 0.12148,-0.50617 0.18151,-0.75912 z m 17.58051,-3.15136 c 0.90827,-1.94056 -3.50345,0.66754 -0.77463,0.37191 0.28015,-0.0584 0.57711,-0.15018 0.77463,-0.37191 z M 100.31484,213.19 c -2.159736,-1.35938 -0.542254,1.5835 0,0 z m -5.631861,-5.62449 c -1.078931,-2.50338 -0.956308,3.16743 0.04931,0.50234 0.03888,-0.13349 0.159959,-0.42188 -0.04931,-0.50234 z m 44.709661,0.86599 c 0.61898,-2.01661 -1.58977,1.30917 -3e-5,0 z m -1.39356,-0.59853 c -1.21988,-2.256 -2.58589,2.20529 0,0 z m 0.0613,-0.97776 c -0.87807,-1.39685 -0.52465,1.27618 0,0 z m -43.295982,-0.79375 c 0.716997,-1.27117 -0.845694,-0.70993 0.02831,0.39687 l 0.04283,-0.11658 z m 0.162241,-1.85918 c -0.447969,-1.19224 -0.652958,-1.40643 -0.758172,0.18128 0.298671,0.52007 2.123052,0.77701 0.758172,-0.18128 z m 44.721241,-1.21476 c -0.91287,0.21958 -0.005,-1.83028 -0.69601,-0.24343 -0.19749,0.69244 0.55014,1.04902 0.69601,0.24343 z m -28.5646,-0.37817 c 0.74151,0.005 1.72086,-0.26833 2.06272,-1.41082 -0.73576,0.39993 -0.40909,-1.62589 -1.38851,-0.17217 -0.078,0.56544 -2.39932,2.77184 -0.67421,1.58299 z m -2.65623,-5.2105 c -0.99455,-0.99889 -1.49698,1.91831 -0.16671,0.24604 l 0.16671,-0.24603 z m 33.40365,-5.13866 c -0.23637,-0.8724 -2.50976,-2.66306 -2.03777,-1.32149 0.61841,-0.23646 2.05574,1.97924 2.03777,1.32149 z m -28.22806,-1.89036 c -1.12634,-1.28721 -0.36548,-0.27663 -0.37839,0.30399 -0.5912,1.10615 0.86948,0.44932 0.37839,-0.30399 z m -5.33768,-0.89304 c -1.13123,-0.32411 -1.06929,2.14868 -0.0479,0.30994 l 0.0648,-0.17865 -0.0168,-0.13133 z m 6.44126,0.77442 c 0.54524,-0.78836 1.18575,-1.23708 0.88366,-2.41643 -0.67234,0.94805 -1.96937,-0.55032 -1.96189,1.43179 -0.0968,0.13836 1.40501,1.96697 1.07823,0.98464 z m -1.17064,-2.06743 c -0.0121,-1.6383 -1.33011,2.18746 -5e-5,0 z m -6.00992,0.0582 c 0.65715,-0.42922 2.34955,-2.43283 0.29274,-1.61787 -0.89965,0.0258 -0.53221,1.56346 -0.74805,1.39491 -0.038,0.0614 0.7976,0.80047 0.45531,0.22296 z m 2.1459,-2.46711 c -0.19908,-0.85745 0.77675,-1.12494 -0.45082,-0.59869 -0.83389,-0.28289 0.42067,1.73278 0.31723,1.16491 0.17274,-0.0503 0.37735,-0.45314 0.13359,-0.56622 z m 7.37307,-0.71142 c 0.53942,0.14703 1.98154,-0.36349 0.38113,-0.69216 -1.44677,0.31638 -2.69093,0.99462 -0.87282,1.62059 0.32096,1.0789 0.29952,-0.80051 0.49169,-0.92843 z m 13.93815,0.36053 c -1.02114,-1.02047 -2.49701,0.87235 -0.48242,0.29568 0.14252,-0.0718 0.45965,-0.0703 0.48242,-0.29568 z m -19.51349,-1.45445 c -0.43671,-1.04326 -1.77588,2.81358 -0.36415,0.65515 l 0.146,-0.27051 z m 3.7332,1.12372 c 1.3007,-2.97557 -2.19213,1.71789 1e-5,0 z m -6.63227,-0.34833 c 0.16554,-1.18282 -1.78681,1.13929 5e-5,0 z m 1.86755,-1.46437 c 1.01316,-1.72592 -1.44884,-0.64228 -0.14087,0.54478 l 0.15788,-0.23209 -0.0173,-0.31269 z m -0.0941,36.23119 c -0.26289,-1.10811 -3.16172,-1.15715 -2.53353,-0.43614 -1.05649,-0.23751 -1.57766,0.0125 -1.13943,-0.95654 -0.35875,-0.9301 -0.46671,-1.66783 -1.61786,-1.4272 0.98257,-0.8948 0.85917,-3.26655 -0.0307,-1.33678 -2.03559,-0.15259 1.34451,-2.35547 0.51959,-3.26073 2.44088,0.27598 5.02525,1.61466 6.50742,3.54989 -1.00927,1.32569 2.13542,1.79694 2.28641,3.35034 -0.088,1.05801 -2.76872,-0.54572 -3.43114,0.25431 1.70697,0.71113 -0.12692,0.34121 -0.56081,0.26285 z m -6.34835,-2.39603 c -1.21958,-1.55852 1.38843,-0.0846 -5e-5,1e-5 z m -0.0477,-3.74371 c -0.55136,-1.07472 -0.24346,-1.70218 0.49765,-0.6927 0.81354,-2.49916 0.61264,2.46643 -0.49765,0.6927 z m -0.61356,-3.08339 c -0.0209,-1.74516 0.93586,1.71547 0,0 z m -2.4287,-5.56895 c -1.725,-1.5038 2.25847,-3.2013 0.80898,-0.93417 0.45504,-0.11875 0.041,2.345 -0.80898,0.93417 z m -10.125508,-3.85598 c 0.801764,-0.40391 0.869331,-2.23702 0.980117,-2.00282 0.959882,0.87204 -2.105783,4.72372 -0.980117,2.00282 z m 2.433688,-3.66574 c 0.585094,-1.21318 0.652509,-3.09974 2.043266,-4.55619 0.206706,-0.22532 1.276838,-1.76098 -0.216852,-0.80531 0.224379,-0.93351 1.57969,-2.09553 1.139024,-0.54389 0.937707,1.0772 -0.740702,1.98757 -0.0532,2.58269 -1.337565,0.49221 -1.756646,3.8591 -2.912242,3.3227 z m 3.571875,-6.49996 c 0.570201,-0.64067 2.070715,-2.73046 1.481159,-0.8589 0.548424,-0.64429 1.922966,-1.09425 1.392992,0.0604 -1.037557,-0.2145 -2.157671,1.08182 -2.874151,0.79851 z"
         id="path3148" /><path
         style="fill:#bad5a6;stroke-width:0.264583"
         d="m 117.65557,219.14129 c 1.24557,-2.32115 3.95048,-3.43822 5.95592,-5.04667 3.31887,-2.33177 6.88323,-4.281 10.31837,-6.41989 -0.35539,-0.81243 -3.12701,1.40721 -4.29231,1.74444 -1.70255,0.88565 -3.40445,1.77252 -5.10673,2.65868 0.0932,-1.63946 1.24044,-3.34014 0.88671,-4.82577 -1.56711,1.94794 -1.17956,5.12914 -3.45728,6.49777 -1.20248,0.60789 -2.67114,2.1712 -3.60199,2.31291 1.31366,-3.27055 3.15617,-6.28976 4.95885,-9.30819 3.97248,-1.88159 8.00179,-3.66012 11.98786,-5.49418 -1.12229,-0.63351 -4.00442,1.42702 -5.68889,1.83531 -1.69271,0.69482 -3.38344,1.395 -5.09124,2.05217 2.26672,-3.29477 5.20139,-6.0503 7.71474,-9.1454 -1.41129,-0.35745 -3.74191,4.07722 -4.01402,0.80165 -0.71977,0.88499 -0.43826,3.53779 -2.23354,4.40834 -3.60847,3.74155 -6.5779,8.0421 -9.23056,12.49839 -0.39208,-1.88242 0.45124,-3.64955 1.56159,-5.135 0.60801,-1.30143 2.91536,-3.61998 2.48196,-4.36482 -1.67431,1.51499 -2.89395,3.44641 -4.17355,5.29001 0.002,-1.80383 0.26655,-3.69825 1.13836,-5.28794 2.98474,-2.52376 5.63051,-5.4526 8.75137,-7.80674 1.05781,-0.60928 2.81759,-2.55603 3.37962,-3.69994 -1.07291,0.8787 -2.13381,0.1167 -2.22446,1.41558 -0.80461,0.64455 -3.69242,3.43052 -2.39155,0.89633 0.14536,-0.9877 1.30521,-2.4505 -0.0294,-2.39933 -1.11661,1.83524 -0.96514,4.52208 -2.74787,5.80006 -0.11484,-1.55916 -2.99564,-1.80214 -2.64194,-3.27659 0.46425,-1.11394 1.09941,-4.4899 -0.23378,-1.78204 -1.63358,3.07051 -1.44296,-2.47959 -1.0719,-3.64747 0.51231,-1.58648 -0.15893,-3.5873 -1.50301,-1.657 -2.08202,1.05253 -1.0056,-3.92946 -0.43287,-1.4653 0.35978,-1.0631 1.93143,-2.15079 2.543,-2.4776 -1.96211,1.29319 2.55731,2.04145 -0.042,0.88569 0.48228,-0.19432 1.33254,0.005 0.52402,-0.88427 0.25636,-1.69111 0.77504,1.55462 1.61379,-0.52459 0.39654,-0.46323 1.10697,-1.38573 0.89362,-2.30326 0.30627,2.05707 3.43703,0.75649 3.77916,1.14307 -0.3695,1.10961 -2.76196,-0.006 -1.41332,1.1178 3.08111,-0.0339 1.64523,-4.78568 4.56548,-5.3375 1.83575,-0.15996 -0.80597,2.50312 1.40821,1.88223 0.57047,1.1917 1.04984,-1.48962 1.63858,0.40447 0.72508,0.73437 -0.44279,4.00169 0.25588,4.03129 1.1449,-2.25007 1.74098,0.76778 1.47204,2.1034 1.48183,0.18226 3.40502,0.20223 2.82744,1.73254 1.90494,0.81791 2.49997,2.93213 3.80387,4.54588 0.80545,2.04608 2.85179,4.13827 2.21269,6.11434 -0.08,2.02158 0.083,4.89062 -1.93295,5.94196 0.91873,0.6184 1.07395,2.82569 -0.0171,2.25574 -0.51601,1.59996 -0.8205,0.96741 -0.53485,-0.26215 1.28006,-0.43347 0.0267,-2.40158 0.28799,-0.55369 -2.71668,-0.25739 -1.71562,4.76251 0.29597,2.44095 1.06861,-2.68476 0.85797,2.77766 -0.43598,3.22947 -0.67859,0.99949 -0.31358,0.9195 0.0113,0.70899 -0.58671,0.67039 -1.98281,0.81699 -1.07132,1.17466 -2.07976,-0.32329 -3.39233,2.39586 -5.06023,0.64199 -1.62398,0.57476 -1.47243,3.23005 -2.99776,3.34139 -0.97534,0.95753 -1.22933,0.16941 -2.29293,0.58879 -0.62957,-0.74958 -1.44104,0.37609 -2.10043,0.0634 -0.41004,-0.43585 -2.97095,1.63384 -2.08074,-0.0658 -2.31867,-1.30364 -1.47885,2.08089 -3.74967,1.26661 -1.18373,0.0727 -2.36747,0.14527 -3.5512,0.2179 0.0598,-0.29091 0.11858,-0.58266 0.17897,-0.87309 z m 19.88398,-10.64085 c 1.49047,-0.71008 0.45232,-4.66666 -0.19409,-2.06238 -1.50875,0.44469 -2.63097,3.43529 0.19409,2.06238 z m 2.10836,-5.57668 c -0.0609,-2.34998 -2.95352,0.16858 -0.53471,0.67733 0.42493,0.24263 0.60472,-0.41769 0.53471,-0.67733 z m -4.7625,-6.04517 c -1.43343,-0.70989 -1.88128,0.9397 0,0 z m -13.15049,-0.80207 c -0.55684,-1.49614 -0.0976,0.60938 -1.0059,-0.0512 0.38719,0.40802 1.57817,1.41032 1.0059,0.0512 z m 19.69602,-0.008 c 0.52717,-2.16463 -2.51851,1.9312 0,0 z m -3.67416,-4.12685 c -1.60193,0.15237 -0.5494,2.18712 0.0679,0.2451 l 0.0102,-0.15977 z m -12.47967,-3.57507 c 0.93682,-1.8866 -1.63174,-0.33969 -0.15297,0.36464 l 0.16575,-0.10711 z m 5.90414,-1.626 c -0.76396,-1.63933 -0.13388,-0.25714 0.64726,-0.46289 0.23612,-1.66549 -2.92113,-1.35633 -2.96399,-0.19226 1.23559,-0.0527 1.33443,0.37427 0.69542,0.59246 0.33324,0.61311 1.66442,1.38092 1.62131,0.0627 z m -12.80399,-0.54454 c -0.51877,-1.73767 -1.48813,0.51255 0.0491,0.29281 l -0.049,-0.29287 z m 4.19115,-0.2526 c 1.24753,-0.0992 2.03136,-0.55471 0.32424,-0.53985 -0.98878,-0.135 -2.08686,1.63482 -0.32424,0.53985 z m 3.73321,0.0313 c 1.15933,-1.71449 -2.39198,1.23382 0,1e-5 z m 5.67338,-2.91041 c -0.91826,-3.76497 -0.71979,1.8225 0,0 z m -19.13808,35.90093 c -2.35871,-0.52438 -4.54829,0.0579 -6.24905,-1.43038 -0.2807,-1.70408 -0.84636,-2.32742 3.2e-4,-3.92569 -2.35032,2.1112 -0.67623,-2.507 1.12223,-1.0684 2.1408,0.82055 3.67636,2.17495 4.40352,4.21936 1.40968,1.95225 -1.24166,-1.03045 -1.73972,-0.16666 -0.85496,-0.91705 -3.61914,-0.45256 -3.06757,0.5539 1.80492,-2.13929 2.42728,2.37111 4.85639,0.88785 1.19313,-0.72847 2.98204,1.73892 1.03922,0.75673 -0.0807,0.1252 -0.19648,0.57576 -0.36534,0.17329 z m -11.47377,-1.79165 c -0.67995,-1.03022 -1.935232,-3.17298 -2.34545,-2.97866 -1.090724,0.8305 -1.981439,-1.88375 -3.115811,-0.0943 -2.266545,-1.1443 -4.185488,-3.06811 -4.007684,-5.81975 0.156601,-2.12057 0.653079,-3.81267 0.434575,-6.35522 0.992235,-1.38548 4.178316,-3.09778 3.142116,-5.17402 -0.557256,-1.67831 1.64888,-3.46941 2.636649,-4.93639 1.502372,-1.56431 4.704075,-0.90443 5.638025,-2.66484 1.67949,1.14494 -0.41419,-3.3044 0.85926,-2.2153 0.45667,-1.99779 2.82448,0.84769 0.77303,-0.28772 -0.72866,0.74438 3.91662,1.82413 1.79393,3.5229 0.066,1.34376 0.0465,2.96683 0.36451,4.34082 -0.44465,1.56445 -3.26362,0.58096 -1.7913,2.34418 -1.08394,0.18402 -2.5719,-3.7549 -1.94234,-1.14085 0.91598,0.84289 1.25626,1.45257 -0.21985,0.50718 -0.648,1.93909 3.75554,0.26836 2.60869,2.98633 -0.9561,1.00084 -4.93194,-3.13085 -2.70639,-0.31954 1.63457,1.75355 2.78316,2.32343 4.63777,3.77979 2.20033,1.37787 -1.40236,2.99207 -1.82149,0.67529 -1.61691,-0.9505 -0.84334,1.33605 0.0345,1.03041 0.34628,1.25625 -1.63772,2.29532 -1.18892,4.0221 -0.58934,2.12568 0.14072,-1.44862 -1.17192,0.13736 1.04897,-0.72117 1.55371,-3.54103 0.42408,-1.0972 -1.19163,1.48481 -0.45538,-1.70013 -0.0711,-2.24332 0.45882,-1.08811 -2.70636,-0.80867 -1.0627,-1.50892 -0.3317,1.63337 1.30088,-0.94535 0.22629,-1.39988 1.54304,0.37373 1.48008,-2.98913 0.81226,-0.47879 -1.63834,0.32479 -1.88594,0.71992 -2.31584,-0.55957 -1.52855,-0.14527 -0.34783,-0.92419 -1.51449,-1.66061 -0.0229,-0.83176 -2.204178,-0.91381 -0.572657,-1.66593 2.036427,1.18533 -0.196233,-1.08873 -1.068698,0.0206 -0.664423,-0.92118 -2.392199,-0.32841 -1.023411,0.71557 0.03327,2.11695 -1.162452,-0.2617 -1.196429,-0.45588 -0.840452,0.99986 -0.784703,2.22784 0.131295,2.61474 -1.5176,0.84501 1.429364,3.37992 -0.725144,1.63523 -0.616381,-1.19624 0.460064,2.66621 0.958336,1.21639 0.465332,-1.41967 0.973908,-1.80979 1.737011,-0.23953 0.330595,1.26742 2.108997,2.57103 1.841717,3.29273 1.31077,1.11011 -2.559548,-0.1936 -1.451571,-1.49229 -1.956702,0.92309 -1.835401,2.57077 0.255989,2.43141 1.030612,0.68911 2.091502,4.11756 -0.290923,2.78231 -1.535536,0.715 -2.838039,-1.75414 -4.159445,-1.23723 1.41361,1.11993 0.455212,0.90381 -0.653128,0.27855 0.4651,2.11163 2.730151,1.97127 4.080255,2.72709 1.699073,0.10558 1.511099,0.37341 0.811057,1.21683 0.838829,0.12702 2.824316,0.0562 1.662606,1.49105 -0.12666,-1.43778 -1.844782,-0.27766 -0.21153,0.14299 0.8989,0.7803 1.10207,0.60368 0.79645,1.63172 0.97039,-0.70233 1.16724,1.90296 -0.0323,0.48238 z m -6.297527,-8.33405 c 0.325375,-0.34043 -0.07896,-1.34459 0.319158,-1.97869 -1.507678,-0.43155 2.946723,-0.6751 0.659895,-1.9173 1.951899,0.01 -2.603677,-1.42914 0.02021,-1.16485 0.775057,0.11245 -1.804506,-1.42034 -0.349888,-2.0752 -1.551026,1.10769 0.713505,-2.91348 -0.882623,-1.44917 0.419091,0.58508 0.776704,0.62591 -0.650024,0.67838 -1.035013,1.55601 1.297946,5.11201 -0.56103,5.57192 -0.15983,0.71628 0.116257,3.36009 1.444298,2.33491 z M 101.8125,197.6231 c -0.8086,-1.70392 -0.58224,1.19785 0,0 z m -2.381252,-0.95435 c -1.46362,-0.40634 -0.960748,-1.13653 0.233354,-0.22224 1.290818,0.9443 -0.23632,-0.86162 0.944258,-0.59258 -1.040377,-0.16024 -0.745208,-0.96761 -2.132692,-0.27276 0.128648,-1.09227 -0.41243,-2.19389 -0.51272,-0.40439 -0.801014,0.46955 -1.281378,1.33998 -0.185445,0.80978 -0.435789,1.03558 1.172467,1.14733 1.653245,0.68219 z m 4.425792,-3.16672 c -0.88452,-1.3264 -0.40289,2.01538 0,0 z m 3.07678,0.35502 c -0.116,-0.98196 -0.34741,-1.51953 -0.87052,-0.18651 -0.1201,0.37943 1.15384,0.44697 0.87052,0.18651 z m 6.52494,19.28471 c -1.96156,-1.76229 -3.22522,-4.23702 -4.5275,-6.5171 -1.27402,-1.98545 1.29712,-2.76844 2.62088,-1.24043 1.7606,1.34597 4.07921,2.85768 3.24819,5.40506 0.0289,1.21861 -1.12746,-1.00872 -1.65296,-1.26229 -2.04744,-1.67967 0.6086,2.02924 1.01174,2.73198 0.60667,0.79393 0.27813,1.43752 -0.70035,0.88278 z m -4.85244,-1.65412 c -0.99378,-0.74124 -3.82135,-1.50447 -1.96195,-2.3685 -1.4554,-0.2518 1.93151,-3.17597 2.06045,-0.63573 0.45185,1.07597 2.83414,3.84623 1.87984,4.00654 -0.67174,-0.30907 -1.3266,-0.65355 -1.97834,-1.00231 z m 4.37148,-6.3926 c -1.26655,-0.69777 -2.71564,-2.16189 -0.77532,-2.37145 0.71296,-1.47358 1.99025,-0.52975 1.38984,-1.8359 1.20998,0.18942 1.20966,2.36852 2.04072,0.42392 0.95191,-0.30871 -0.47088,-2.51379 0.87916,-1.08665 -0.25481,2.01657 -0.52607,4.49346 -1.37833,6.19357 -0.79655,-0.2954 -1.4659,-0.84336 -2.15607,-1.32349 z m -11.73922,-0.29035 c -1.427854,-1.14308 0.48844,-0.87994 -0.0964,-1.99039 0.89612,0.73699 -0.50329,1.4521 0.55744,1.82201 l -0.025,0.49911 -0.4355,-0.33073 z m 16.58641,-2.59195 c 0.56138,-1.23195 0.4566,-4.39719 2.24558,-2.66338 0.72992,-0.76083 1.42579,0.6336 0.0145,1.18038 -0.27468,0.13121 -2.67653,2.74051 -2.26011,1.483 z m -8.62254,-0.16093 c -2.09085,-0.71555 -1.12827,-4.53536 -0.012,-2.44423 0.33143,0.40918 1.23395,1.39518 -0.15251,1.65244 0.51437,0.0885 1.56432,1.09506 0.16453,0.79179 z m 1.16491,-0.20898 c 0.36221,-0.72785 2.7752,-2.1852 1.12007,-0.54387 -0.21385,0.0686 -1.17979,1.51767 -1.12007,0.54387 z m -11.825542,-0.27929 c 0.694352,-1.74196 1.259414,1.36534 0,0 z m 14.495432,-0.9039 c 1.3192,-1.3211 0.82825,0.47197 -0.3451,0.44041 z M 114.4403,200.39 c 0.64704,-2.32073 1.55424,1.96101 0,0 z m -7.98414,-0.10682 c -0.93062,-1.89955 1.69526,1.06175 0,0 z m 10.43759,-1.44975 c 0.9031,-2.05562 0.72426,-0.132 0.0743,0.31592 z m -9.26042,-1.868 c 1.13973,-0.30083 1.89931,-1.84237 0.21128,-1.3831 -1.71239,0.60794 1.37574,-1.5136 0.1203,-2.27417 1.39504,0.1001 1.04434,-0.14929 0.48244,-0.93532 -0.38652,-1.61094 -0.23099,-3.0966 -0.63959,-4.35894 1.03608,-0.0151 2.37441,-1.33189 2.4508,-0.0877 0.58897,-1.26593 1.68102,-0.53566 0.89771,-2.19322 -0.59324,-1.46207 1.95909,-0.64476 0.30867,-0.19939 2.59252,0.59222 3.33062,-4.73163 0.413,-3.39888 -3.0675,0.0631 2.14061,-3.22755 2.65304,-0.68082 1.1198,-0.0547 1.44871,2.07005 0.3461,0.5599 -1.67355,-0.53988 1.86535,2.37537 0.16448,1.32399 -1.99991,-1.62593 1.00429,1.20186 -0.66372,1.81481 -0.68065,0.58075 -1.88623,1.81446 -2.43141,2.33978 -0.73534,-0.20437 1.1612,1.32113 -0.58807,1.01435 -1.32192,0.25404 -1.84178,1.3425 -0.81468,2.65836 0.12951,1.02061 -1.60339,-0.92281 -0.9177,0.69323 1.49276,1.37764 -0.87684,2.73041 -0.008,4.51954 -0.79445,0.21589 -0.97689,1.38111 -1.98443,0.58756 z m 5.57365,-15.38724 c 1.66758,-1.35547 -2.41872,-0.29202 -0.39704,0.19344 l 0.39708,-0.19344 z m -5.64923,10.58852 c 0.64549,-1.90534 0.77531,0.81254 -0.0364,0.37664 z m 33.79812,-0.60125 c -1.68088,-2.10333 1.95691,1.2591 0,0 z m -3.66132,-3.02368 c -0.42588,-1.54874 3.01788,0.45727 0.33259,0.0998 z m -24.94421,-0.69207 c 0.16394,-1.50558 2.03825,-2.864 2.21577,-1.02249 -0.32242,-1.41055 -2.12129,2.13225 -2.21577,1.02249 z m -5.22272,-1.79366 c 0.43662,-0.70863 -0.88844,-1.61404 0.42661,-2.47906 1.60439,-1.63404 0.62138,1.62586 1.77984,0.12735 0.0253,0.91111 -3.26455,0.79939 -1.45356,1.34614 1.24493,-0.86939 -0.46115,0.87996 0.27392,1.01769 -0.19636,0.22002 -1.97391,0.83645 -1.02681,-0.0121 z m 5.11255,-1.3156 c -0.52622,-0.93533 -0.30726,-2.88399 0.12427,-0.81791 0.058,0.0486 0.25488,0.97041 -0.12427,0.81791 z m 3.59939,-0.33086 c 1.59545,-1.07906 1.57132,-0.27552 0.0758,0.22897 -0.63061,0.49129 -0.43494,-0.19329 -0.0758,-0.22897 z m 17.15404,-1.36688 c 0.0492,-2.82021 1.1228,1.02605 -1.9e-4,1e-5 z m -23.90858,-1.04606 c 1.61218,-0.89374 0.18113,0.81177 -0.3621,0.264 z m 15.51348,0.19907 c 0.0647,-1.13175 1.87706,-0.82597 0.25101,-0.0287 z m -3.45601,-1.90116 c 0.48002,-2.03349 1.9761,1.07982 0,0 z"
         id="path3146" /><path
         style="fill:#abcc92;stroke-width:0.264583"
         d="m 119.18728,219.38965 c -3.17507,0.27472 0.10394,-2.33398 1.0789,-2.63794 3.13617,-2.89076 6.93688,-4.99825 10.59446,-7.16504 0.87955,-0.66707 3.31974,-1.40192 3.23856,-2.33459 -3.26128,1.4193 -6.35853,3.18709 -9.52689,4.8004 -0.0217,-1.50675 1.63622,-3.77092 0.75496,-4.60598 -1.48668,2.03064 -1.25659,5.12448 -3.68381,6.41391 -0.97779,1.00395 -3.61731,2.18057 -2.11613,-0.27063 1.1303,-2.35689 2.52009,-4.57518 3.81323,-6.84381 3.74997,-1.64787 7.38725,-3.5983 11.29554,-4.84842 1.50289,0.11279 2.9397,-0.85209 1.12137,-1.66276 0.67924,1.54079 -1.88097,0.64436 -1.70536,-0.4489 -1.8399,-1.84726 -0.64729,0.5328 -0.43528,1.45025 -2.72362,1.52248 -5.7594,2.47326 -8.65824,3.63464 1.25869,-2.48432 3.63842,-4.30404 5.27952,-6.55985 0.81648,0.22039 1.84098,-2.06651 1.70559,-2.39982 -1.33265,0.33977 -2.28211,0.18178 -1.77273,1.03152 -0.70048,1.21732 -1.91077,1.68392 -1.83017,-0.1611 -0.59778,-0.97207 -1.07586,-2.16952 0.69343,-1.46318 -1.56762,-0.92139 3.0762,-3.35552 1.02518,-2.69597 -1.1167,1.26331 -1.89567,-0.1716 -2.84155,0.51723 1.31395,1.94139 -2.00375,-0.17254 -0.81972,-0.82381 -0.83804,-0.35412 -2.62288,-1.69903 -2.82367,0.0144 -1.94062,-0.0326 1.50727,1.06152 -0.86174,0.50108 -1.32996,-1.00518 -0.98904,0.73994 -1.51026,1.35515 1.32668,-0.0994 2.08689,1.36844 0.37264,0.59339 -2.30103,-0.71114 1.46282,-4.60654 -0.90327,-3.55078 0.95505,0.74646 -0.93816,1.31051 -1.33802,1.63418 0.44938,-0.38668 0.53553,-2.20802 -0.31242,-2.04037 0.93281,1.33367 -1.64264,1.75261 -0.37927,0.18531 0.79499,-1.68504 -0.44899,-4.5041 0.16705,-5.50724 0.39966,0.45806 1.96195,0.78399 2.58263,0.48047 0.55278,-1.25279 1.01688,4.46374 1.85497,1.32806 0.12056,-1.14411 1.61278,-2.39899 0.16542,-3.05653 0.2173,-0.56992 0.0427,-1.54856 0.62545,-0.26069 0.42123,1.28982 3.36717,-2.55706 2.47498,0.0861 -1.30273,0.13138 -1.78491,0.75755 -1.59347,1.95789 -1.38491,0.0564 -0.84106,0.95761 -0.18302,1.24412 -1.30995,-0.18018 0.11752,0.79678 -0.4205,1.19964 1.55264,0.068 1.05496,0.60681 0.64539,1.31952 1.05513,-0.1177 0.94342,0.51094 1.84798,-0.15799 0.31914,0.78851 0.71018,2.18878 1.59766,2.42783 0.86361,-0.67403 -0.14989,-3.83764 -0.0167,-1.51783 -1.298,-0.80573 -0.71613,-1.4591 -1.13852,-2.32872 -0.80709,-0.7599 -1.74532,2.20025 -1.07342,0.20703 0.55704,-1.81962 3.22312,-3.32977 3.88149,-1.04585 1.84838,1.23424 3.54364,-1.93372 0.90427,-2.24256 -1.09283,-0.54077 -3.41424,-0.56875 -1.40631,-1.71401 0.29572,-0.47552 0.15816,1.89709 1.28337,0.58232 -0.50737,1.67298 2.22488,0.32446 2.81043,0.33749 -0.10767,1.15694 -0.43123,1.65961 -0.11603,2.83335 -2.04448,1.85487 2.03256,3.66141 1.12687,5.81644 -1.62533,1.11163 -2.53487,3.94452 -0.90034,5.41091 0.83793,0.79213 0.67804,-1.34665 1.24892,-1.86287 -0.23828,-1.45574 0.46607,-3.08817 0.55705,-1.00088 -0.36324,0.77322 1.30049,-0.11238 0.003,1.00042 -0.66892,0.57334 0.4904,2.8419 0.51391,1.39984 0.93616,1.78233 1.30101,0.55191 0.98399,-0.072 0.84613,-0.93461 1.34802,1.66846 2.24233,-0.0313 1.01514,-1.23014 3.39813,-3.13891 3.14299,-0.0975 0.24911,2.38007 0.39358,5.27511 -1.42729,7.09181 0.71955,-2.97085 -0.91852,2.06987 -1.39205,1.22592 -0.2904,-0.86618 -1.30993,2.15575 -0.88954,0.0681 -1.21967,-2.26422 -1.89859,1.75336 -3.66728,0.99734 0.0316,1.45252 -0.11981,3.86191 2.00223,2.36862 1.37715,-1.92841 2.14777,0.45615 0.87833,1.54897 -0.39677,1.57259 1.2936,-1.53639 1.01579,0.59901 0.18628,1.10096 -0.68473,2.2919 0.4744,0.80481 0.70678,-1.19547 0.42217,-3.1425 1.62988,-2.95797 0.7209,0.11018 -0.99948,2.99176 -1.83997,3.84648 -1.16898,1.03382 -2.91835,0.92532 -3.8932,1.76464 -1.65255,-2.22365 -2.9924,1.00602 -3.77203,2.02945 -0.66321,-1.38955 -1.36617,1.00967 -2.17205,-0.17522 0.39277,1.70925 -0.89819,0.44839 -1.83746,1.65723 0.94035,-2.02532 -2.50548,1.41857 -3.05519,-0.513 -1.34219,-1.36068 -4.38697,-0.0847 -1.99342,1.27903 0.21846,0.69938 -2.30991,0.13941 -3.01832,0.12076 l -0.30918,-0.11009 z M 135.15,206.26943 c 0.94077,-0.15358 1.16248,-0.89227 -0.18429,-0.80871 -0.28992,0.72495 -0.69359,2.1835 0.18429,0.80871 z m 4.34672,-2.60812 c 1.58305,-1.5312 -2.09064,-2.75201 -1.49213,-0.58723 1.46212,0.16898 0.13891,1.65484 1.49213,0.58723 z m 1.68367,-4.27785 c 0.73378,-1.874 -1.83733,2.06043 -0.32543,0.3444 z m -10.38449,-0.22744 c -1.16943,-1.25857 -0.002,2.21979 0.17625,0.20469 l -0.17624,-0.20469 z m -1.56209,-2.07107 c -0.69001,-1.83209 -0.26206,1.82676 -2e-5,0 z m -6.4619,-5.75637 c -1.31857,-0.62832 0.48746,1.75811 2e-5,0 z m -3.1644,-1.60514 c -0.49479,-2.01035 -1.04228,0.68104 0.10101,0.25391 z m 11.83832,-0.48676 c -0.30699,-1.58311 -3.52043,-1.4938 -1.19062,-0.058 0.25434,0.11578 1.0789,0.64032 1.19062,0.058 z m -2.91042,-2.07731 c -0.29336,-1.18746 -1.71961,0.84013 -0.16496,0.17583 z m -15.54427,31.43837 c -2.13006,-0.59951 1.02515,-0.56915 1.11175,0.25606 -0.38169,-0.0311 -0.74455,-0.15898 -1.11175,-0.25606 z m 9.26724,-0.32012 c 1.50869,-1.42744 0.96192,0.88605 0,0 z m -14.46867,-0.13864 c 0.0976,-1.86188 1.31338,-0.41008 0.22246,0.21888 z m 1.6957,-2.07643 c -0.73086,-1.19909 -2.01064,0.4858 -2.23656,-0.76986 -1.78113,0.65131 0.64776,-3.13009 -1.32366,-1.27671 -1.92448,-0.0336 1.71657,-2.86679 2.55294,-1.07219 0.64186,0.2976 3.3439,2.13537 2.40422,2.04736 -0.96211,-1.51185 -0.052,2.6891 -1.39694,1.0714 z m -11.747336,-2.37372 c -0.920686,-1.70534 -1.696123,1.74671 -2.866032,-0.38658 -1.696125,-0.007 -3.398666,-4.15158 -2.464697,-3.93931 0.706566,-0.47882 -0.08184,-3.27031 -0.365933,-1.17339 -0.78044,-2.8845 2.06524,-0.22869 0.973641,0.64598 0.662608,0.97945 1.868074,1.72861 1.801665,2.73796 -0.0015,0.93493 2.797962,0.0153 3.485519,1.01837 1.508968,0.1727 0.722256,2.709 -0.564163,1.09697 z m -2.804743,-1.14508 c -1.015116,-0.93268 -2.27634,-0.44127 -0.37482,0.25208 l 0.271142,-0.0492 z m 21.711389,0.0471 c 0.25402,-2.8201 2.54431,-4.88733 3.83056,-7.28599 1.36686,-2.99816 -1.9706,1.47011 -2.58072,2.33705 -0.67575,1.11608 -1.62058,1.85239 -1.10273,0.0152 0.28096,-0.96145 0.094,-2.18366 0.65048,-3.00423 1.52378,-1.32792 2.85557,-2.961 4.65985,-3.90087 0.8133,-1.25444 2.65074,-3.55477 3.97361,-2.10035 -0.31723,-1.26271 1.4842,-0.0701 1.50985,-1.31384 0.77562,2.47011 -2.10884,3.93362 -3.31001,5.68293 -2.90167,3.16684 -5.08132,6.88947 -7.46446,10.43841 -0.31073,-0.0169 -0.0652,-0.69409 -0.16643,-0.86829 z m -3.19056,0.41157 c -1.62266,-1.6976 -3.09021,-3.67516 -4.05287,-5.81649 -0.51407,-0.77579 -0.16625,-2.79735 1.05616,-1.58584 0.88631,-0.83954 2.57365,1.17431 3.61646,1.85074 0.92497,0.40442 1.01942,1.15557 0.7702,2.0502 0.26698,3.12072 -1.84664,-0.9269 -2.56448,-0.39227 -0.0123,0.78041 4.00676,5.25371 1.17453,3.89366 z m -4.95051,-1.61347 c -1.30738,-0.58823 -2.57226,-1.20227 -1.65703,-2.40861 -0.0818,-0.52532 0.97953,-0.82608 0.90838,-1.46368 1.13062,1.34577 3.09125,3.85762 3.05374,5.04681 -0.78619,-0.35498 -1.54521,-0.76726 -2.30509,-1.17452 z m -10.788912,-2.55972 c 0.180253,-0.82318 -3.03837,-0.0634 -1.437288,-1.67809 0.386389,0.97294 0.472561,1.4024 0.787905,0.51782 1.07595,0.45793 1.632617,1.6523 1.082302,-0.12109 1.856253,0.25345 -0.981645,2.74785 -0.432919,1.28136 z m 6.644852,-2.27808 c 0.11508,-0.90239 -0.86502,-0.30249 0.44849,-1.02873 1.35711,-0.62069 -1.17278,3.03958 -0.44849,1.02873 z m 9.14929,-1.07688 c -0.99634,-0.48518 -1.82616,-1.34876 -1.07204,-2.19095 -0.55042,-0.66103 1.87347,-1.04917 1.64395,0.3483 0.88214,-0.23443 0.30372,-1.00776 1.40402,-0.46263 1.08058,-0.68491 0.074,3.42682 -0.54155,3.33728 -0.47812,-0.344 -0.95629,-0.68798 -1.43438,-1.032 z m -21.221382,0.47379 c 0.538944,-0.93272 1.192096,-1.6594 0.177416,-1.45217 0.614618,-0.87507 0.402093,-0.54208 -0.142846,-1.20859 1.373827,0.23791 0.787748,-1.29183 0.0332,-0.72622 -0.215299,-1.02386 1.913236,-2.00593 1.380033,-0.007 -0.136352,1.26031 0.666199,3.97274 -0.370872,2.92704 -0.08369,0.18313 -0.962581,1.05237 -1.076929,0.46658 z m 13.562442,-1.05039 c 1.05997,-1.83214 -0.59325,2.09792 -4e-5,0 z m -1.68244,-0.34196 c -0.94315,-0.9047 1.29953,-3.30934 0.51858,-1.81036 -1.07127,0.38046 0.88242,1.44197 -0.51858,1.81036 z m 3.02189,-0.3736 c 0.30908,-0.9399 0.599,-1.25486 -0.32122,-2.15362 1.83154,-0.5554 1.77591,3.41626 0.32122,2.15362 z m -1.17038,-1.16256 c -1.41579,-0.93815 1.12009,-2.99566 0.41697,-0.71143 0.34761,0.5376 0.74638,1.41461 -0.41697,0.71143 z m 12.17905,-1.85737 c 0.49062,-1.32727 0.45419,-2.3231 1.05477,-0.7417 1.67039,0.27967 -2.02776,3.00506 -1.32815,1.74035 0.0911,-0.33288 0.18225,-0.66577 0.27338,-0.99865 z m -16.08181,0.10825 c -0.41219,-0.71891 0.98761,-0.56815 0.37854,-1.4554 0.60341,-1.94364 1.91466,0.0902 1.34548,0.5668 -1.14822,-2.66756 -0.22176,2.13224 -1.72402,0.8886 z m 6.57541,-0.63294 c -1.90287,-0.5977 0.83995,-1.51535 0.46159,0.1625 -0.13717,0.20895 -0.47646,0.0687 -0.46159,-0.1625 z m -6.87075,-0.97657 c 0.14477,-1.22965 1.6266,-2.00135 0.52077,-0.30905 0.0919,0.33117 -0.49426,1.08953 -0.52077,0.30905 z m 2.56006,-0.92696 c -2.58368,-1.70665 3.28241,-1.4015 1.06955,-0.30249 1.01629,0.74739 -0.75554,0.89774 -1.06955,0.30249 z m -8.604279,-0.49426 c 1.099321,-1.53515 0.573333,0.86369 0,0 z m 4.382159,-0.69501 c -1.662791,-1.30963 2.38823,0.53719 0,0 z m 2.23853,-0.22456 c 0.0944,-0.46189 0.47047,-0.74159 0.64461,-0.83253 0.8419,-0.18274 0.1024,2.1145 -0.64461,0.83253 z m -6.736445,-0.37699 c -0.94892,-1.76153 1.599055,-3.49301 2.483089,-5.0615 1.13889,-1.59379 5.326426,-1.46688 2.544506,0.38688 -0.745309,-9.5e-4 -2.420012,1.84419 -2.162129,0.22843 -1.032751,-0.078 -1.437032,2.1294 -0.623166,0.75773 0.963431,1.51353 -2.040028,1.16333 -0.961209,2.52004 -0.187969,0.3983 -1.541984,-0.57048 -1.348518,0.78114 0.603114,0.23969 0.921035,1.19077 0.06743,0.38725 z m 4.960935,-5.30148 c 0.73862,-1.78594 -2.208905,1.67403 -3e-5,0 z m 3.68324,3.58269 c -1.31339,-0.84375 1.04079,-3.78055 -0.035,-1.05488 0.46925,1.10719 1.91095,-0.90805 0.53549,-1.1213 0.34426,-1.34754 -0.53383,-1.91415 -0.76258,-2.45183 0.27559,-1.61913 1.01148,-1.27534 1.72129,-1.06221 2.08041,-1.57351 -0.87463,-1.18239 -0.95,-1.18845 0.45575,-1.99217 3.4372,0.47891 2.35936,1.8654 0.58429,1.67517 -3.04143,4.04734 0.16151,4.1534 -0.29742,1.23507 -0.97949,1.42877 -1.19362,0.45216 -0.42331,0.78824 -0.33195,1.18008 -1.2813,0.38838 0.12006,0.61504 -0.392,0.79897 -0.55511,0.0193 z m 14.35253,-0.84867 c -0.6937,-2.28147 0.57907,-1.11672 0,0 z m 5.24757,-0.35277 c 1.281,-1.57945 0.66652,1.02313 -0.3255,0.43973 z m 10.9802,-0.58858 c 0.20047,-1.04865 1.91809,-1.61985 0.99182,-0.37857 -0.40867,-0.15177 -0.63958,0.36728 -0.99182,0.37857 z m -0.0374,-1.85882 c 0.11539,-1.11286 -1.03765,-2.81642 0.66988,-1.3409 0.75504,-0.47654 3.05284,-1.94852 1.51078,-0.0359 -1.3778,0.94975 2.07954,-0.26049 0.10846,0.90535 -0.80656,-0.3264 -1.90402,1.28681 -2.28912,0.47145 z m -26.41687,-2.62378 c -1.22764,-1.22615 1.22033,-0.64104 0.0482,0.28845 l -0.0482,-0.28842 z m 27.24803,-0.62843 c 0.75416,-1.04284 1.12923,-1.52367 0.74495,0.0412 -0.15946,0.16382 -0.59247,0.14645 -0.74495,-0.0412 z m -10.06081,-0.63797 c 0.30462,-0.98392 -1.07774,-1.51555 0.73914,-1.5873 2.51616,-1.9424 -1.30854,3.33781 -0.73914,1.5873 z m 9.44005,-0.15536 c -0.50087,-0.0892 -1.56758,-0.78495 -0.0976,-0.79302 1.0513,0.47227 1.30155,1.3953 0.0976,0.79302 z m -7.88542,-2.29315 c -1.0891,-0.87308 0.42194,-2.94902 0.27162,-1.09661 -0.21995,0.7902 1.68785,2.31521 -0.27158,1.09661 z m -6.83965,-0.19413 c 1.10418,-2.75124 0.56877,1.92539 0,0 z m -6.60617,-0.57853 c 1.17204,-2.76973 0.74746,0.7079 0,0 z m 17.45409,-0.52628 c -1.53107,0.66873 -0.40831,-2.71721 -0.21155,-1.00067 0.15653,0.77253 2.1102,1.15511 0.32499,1.21088 l -0.11344,-0.21025 z m -3.06161,-2.06638 c 0.14172,-0.70249 1.13526,-1.38424 1.08257,-0.0509 -0.38745,-1.28962 -0.74577,1.34945 -1.08254,0.0509 z m -6.287,-1.51873 c -0.5565,-1.78472 1.71405,0.56774 0,0 z"
         id="path3144" /><path
         style="fill:#9dc481;stroke-width:0.264583"
         d="m 118.87546,219.15402 c -2.37451,-0.86171 2.40977,-3.07633 2.68521,-0.35578 -0.99762,0.6013 -1.58712,-0.12426 -1.74822,-1.22744 -0.0488,0.94113 -1.43717,1.18465 0.25628,1.5759 -0.12643,0.4432 -0.97262,0.29688 -1.19327,0.007 z m 8.07505,-1.97693 c -0.53967,-1.46325 2.08822,0.26584 0.28576,0.28067 l -0.28579,-0.28033 z m -3.30693,-0.39522 c 1.42235,-1.24344 -2.96898,-0.60221 -0.8808,-2.0234 3.56564,-2.77808 7.69024,-4.7067 11.43068,-7.20639 1.07822,-1.16478 -3.4e-4,1.6188 0.80728,2.16243 -1.31483,0.37472 -0.15414,1.19246 -0.40532,1.80127 0.62095,-1.02256 3.34542,-1.28728 1.23576,-0.29352 -1.35562,0.11453 -2.24693,2.88998 -0.56966,2.04916 0.69692,-1.28041 1.71441,1.12379 1.70649,0.90432 -2.08127,0.55401 -5.10038,-1.5692 -6.28456,0.90158 1.81833,0.79231 -1.4171,0.0273 -0.50449,1.00379 -1.28711,-0.17398 1.20563,-2.77418 -0.8198,-1.0057 -1.26198,-0.65074 -4.4059,-0.91744 -2.95205,1.0356 -1.08231,-0.50472 -1.84779,0.82389 -2.76353,0.67086 z m 9.31634,-4.25708 c -0.92204,-0.24818 -1.99398,-2.67535 -1.87466,-0.56932 0.93903,0.46645 1.37775,0.86733 1.80356,1.31588 1.12521,0.10951 0.42413,-0.1592 0.0711,-0.74656 z m -25.2959,2.87153 c 0.0497,-0.83079 -1.74249,-0.73214 -0.40158,-1.60355 0.27055,-2.19215 2.78834,3.03981 1.01443,1.41046 -0.45987,-0.11957 -0.54903,1.27196 -0.61285,0.19309 z m 0.41658,-1.46036 c -1.69474,-0.88837 1.10386,1.74503 0,0 z m 11.51245,0.77945 c -0.52921,-1.75565 1.92116,-4.2475 2.71638,-6.17606 1.47739,-2.68829 4.71619,-3.3414 7.33124,-4.3956 2.12762,-1.29191 4.78151,-2.8997 7.27287,-1.55577 1.41732,1.26831 2.49509,2.61745 3.4504,0.31419 1.2427,-1.87463 -0.24803,2.37062 -1.55329,2.17031 -1.66235,-0.45771 -1.54301,1.78818 -2.62827,0.32752 -1.77935,-0.93181 -0.6493,-1.74794 0.55366,-1.9344 -0.13731,-1.28045 -1.40094,0.92667 -2.47173,-0.33548 -1.64933,-0.67601 -1.91714,0.94695 -0.45325,0.69089 1.39834,-0.36969 -0.18482,2.30286 -1.18546,2.12576 -0.39408,0.93708 2.52825,-0.6852 1.36419,0.91556 -3.04193,1.89063 -6.29544,3.42558 -9.41657,5.18569 -0.0104,-1.61547 1.58049,-3.61184 0.93874,-4.79596 -1.67832,1.68784 -1.36527,4.59113 -3.2054,6.11758 -0.79714,0.59854 -1.67782,1.29577 -2.71351,1.34577 z m 10.5685,-9.08376 c -1.60324,-0.0834 0.85524,1.20518 0,0 z m 8.16345,-1.12938 c -1.00662,-1.82586 -1.81186,1.58186 0,0 z m -21.69584,8.20733 c 0.41174,-3.27984 3.21719,-5.58003 4.39785,-8.5562 -1.83115,0.7567 -3.00041,3.94727 -4.30461,4.68509 0.0653,-2.40101 0.63289,-5.18236 3.18761,-6.1019 1.27798,-0.79887 2.25079,1.67667 2.72411,-0.59725 -0.19346,-1.32145 0.77822,-3.63353 0.97133,-1.43569 0.58284,0.35587 1.35615,-0.6882 1.59311,-1.07082 0.12186,2.14309 0.59245,0.18923 1.50441,-0.0537 -0.30362,1.6605 -2.69351,3.27824 -3.74376,4.96106 -2.33085,2.83269 -4.2779,5.94538 -6.23416,9.03981 -0.1345,-0.27077 -0.0669,-0.58324 -0.0959,-0.87042 z m -3.7706,-0.30661 c -1.2992,-1.55709 -3.76556,-4.47652 -1.26907,-6.03355 1.7162,-0.54039 4.49043,2.55531 2.74885,4.1257 -0.7506,-0.79096 -3.17822,-2.68087 -2.11581,-0.45346 1.20168,0.21112 -0.67102,1.66305 1.06054,2.16585 0.11087,-0.0751 0.82218,1.26345 0.75079,0.12217 1.43471,0.97407 -0.89953,0.8392 -1.1753,0.0733 z m -2.20402,0.0479 c -1.40439,-0.53127 0.3194,-1.33233 0.31925,0.28017 l -0.15693,-0.0192 -0.16237,-0.26101 z m 3.46108,-6.58312 c -1.33847,-0.26209 -1.02845,-2.60496 -0.29334,-1.26148 0.95145,-1.02567 2.54577,-1.32834 1.72313,0.61599 -0.32691,1.55747 -0.21149,1.64844 -1.42979,0.64549 z m 11.20495,-1.7245 c 0.93107,-1.50575 2.59197,-3.2688 3.74401,-3.12448 0.67522,-0.99186 0.33064,2.40787 1.37154,0.74443 1.50001,-2.58609 0.16425,1.88852 -1.48968,1.52 -0.61537,0.0563 -5.19012,2.62291 -3.62587,0.86005 z m -7.36849,-1.94587 c 1.23234,-2.13591 1.46076,0.0306 0,0 z m 24.06867,-0.1708 c -0.0708,-1.26645 -2.27591,-1.41257 -0.47321,-1.96424 0.70748,1.81635 1.17036,-2.33525 0.002,-1.95118 1.26963,-1.42912 -1.02178,-2.14069 -0.41144,-0.16903 -1.319,0.76993 -2.25171,3.17553 -0.89305,3.42404 -1.07815,0.65143 -5.38721,-0.82092 -2.39459,-0.32643 1.19809,-1.58862 1.44637,-3.94486 3.54005,-4.77932 1.04118,-0.86172 0.75398,1.88899 1.06787,2.48134 0.21805,0.43648 -0.25343,4.63847 -0.43783,3.28482 z m -10.8395,-0.0661 c 0.48309,-0.32295 3.42629,-1.60036 1.56294,-0.29331 -0.39123,0.16397 -1.26479,0.96108 -1.56294,0.29331 z m 3.82097,-3.55639 c 0.54887,-4.03033 0.1337,2.76856 0,0 z m -2.98932,-1.44167 c -0.33478,-0.47998 0.87114,-1.84178 -0.71362,-0.8903 -0.79478,-0.99618 -1.75352,-1.85208 -0.91568,-3.08596 -1.01973,-0.18444 -0.52735,-0.34037 -0.91534,-0.87427 -1.81892,-0.87314 0.98738,-1.03776 1.02685,0.47358 0.56178,0.72498 2.1593,1.83614 1.84745,-0.0384 -1.42569,0.0785 -1.70844,-2.36605 -3.1897,-2.07831 0.73496,-1.109 1.26507,-1.6255 1.57935,0.21149 2.06695,1.44553 -0.7493,-1.99141 1.09328,-0.63533 1.52154,-0.72437 -1.35987,-1.24022 0.37217,-1.38025 -0.84498,-1.05323 1.78953,-3.49946 0.63936,-1.67031 1.03376,0.49118 -1.54005,0.92172 -0.0446,2.15816 0.006,1.09902 2.13112,0.44955 1.40966,2.22461 0.84948,1.47089 -0.30041,2.46803 -1.55065,1.63099 0.3635,1.49119 -0.40377,2.44022 -0.069,4.12506 l -0.0781,0.0606 -0.49126,-0.23132 z m -4.19262,-8.05389 c 1.53372,-0.42333 0.70926,-0.72848 -0.026,-0.99699 1.49906,-1.81148 1.5463,2.32022 0.026,0.99699 z m -4.83301,-0.0449 c 0.13378,-1.5931 1.88169,-0.12044 0.23095,-0.10002 l -0.16311,0.17979 -0.0678,-0.0797 z m 8.98378,-3.31482 c -1.40618,-1.37269 2.24753,1.16409 -2e-5,-3e-5 z"
         id="path3142" /><path
         style="fill:#9ac27c;stroke-width:0.264583"
         d="m 124.25254,216.18852 c 0.34033,-1.18535 1.54026,-1.78871 0.69152,-0.24018 -0.0817,0.19804 -0.59384,0.71384 -0.69152,0.24018 z m -1.91298,-0.69899 c 0.77119,-1.37922 4.14009,-3.49547 4.71552,-3.17015 -1.21558,1.21806 -0.86483,2.28118 0.94292,1.67973 2.08627,0.0117 0.33143,-2.93943 1.92871,-3.79087 1.55985,-0.99393 3.68674,-1.84733 4.54489,-1.81671 -0.42663,1.18356 -1.44405,1.71159 -2.89352,1.52417 1.93877,1.33945 -0.1526,1.06575 -1.36457,0.77493 0.35526,0.64156 0.29629,0.45735 -0.60626,1.04929 0.79967,0.54973 2.61812,1.40226 2.15128,1.98967 -2.23226,1.52806 -5.29365,-0.19153 -7.46885,1.24417 -0.79997,1.19793 -0.10815,-1.36781 -1.04597,0.21595 -0.10907,0.32976 -0.65048,0.7957 -0.90415,0.29982 z m -2.93227,-1.0937 c 0.65682,-1.20534 1.27503,-4.40229 2.83218,-4.62275 1.4114,0.57018 -0.39126,1.46917 -1.20995,1.49319 0.0249,1.30468 0.82299,-1.05337 1.50852,0.3781 0.10231,0.41998 -0.29802,2.58544 -1.07447,1.53922 0.34155,0.98965 -1.38967,1.82558 -2.05628,1.21224 z m 7.99235,-2.37827 c 1.03869,-1.40632 0.22565,1.71724 0,0 z m -2.68022,-0.30067 c 0.4477,-1.77997 0.66887,-3.67867 2.74132,-3.85503 -0.28005,0.46143 -1.44531,1.22639 0.10694,0.78147 2.39683,-2.14066 0.20644,2.27576 -1.19297,2.32683 -0.47689,0.19703 -1.3359,0.94131 -1.65529,0.74673 z m -6.75151,-1.26023 c -0.76816,-1.49496 2.65474,-4.55824 1.65519,-1.50204 -0.38319,0.25445 -1.11651,2.56231 -1.65519,1.50204 z m 5.11321,-1.03206 c -0.90333,-1.3134 0.70078,-2.82623 1.42777,-1.18619 -0.0638,0.63138 -1.22568,3.74655 -1.42777,1.18619 z m 6.51263,-0.31113 c 0.22991,-1.69752 2.16292,0.0772 0,0 z m -18.78542,-0.0935 c 0.37765,-0.33475 2.34598,-3.18409 1.5889,-1.33629 -0.10556,0.89215 -1.02407,1.2459 -1.5889,1.33629 z m 20.6375,-0.94275 c 1.14292,-0.55655 -1.05678,-1.9261 0.92744,-1.25024 0.7403,0.47113 -0.52054,1.65969 -0.92744,1.25024 z m -6.1811,-1.22198 c 1.42605,-1.43732 0.14599,1.23291 0,0 z m -4.30974,-0.5557 c -0.18959,-1.64241 1.98456,-1.71887 0.64874,-0.0913 -0.31398,0.42772 -0.82997,1.23674 -0.64874,0.0913 z m 9.95654,-2.21284 c 1.96248,-1.3741 -0.002,1.56546 0,0 z m -4.07834,-0.51171 c -1.08377,-1.26637 2.17127,0.82674 0,0 z m 5.05148,-0.20557 c 0.27295,-1.00441 2.61556,-1.55454 0.83132,-0.24382 -0.21905,0.1724 -0.56671,0.62388 -0.83132,0.24382 z m 2.52248,-0.27478 c -1.42133,-0.45224 1.17992,-1.40399 0.49967,-0.1824 0.73566,0.70845 -0.3924,0.0539 -0.49967,0.1824 z m 4.86552,-4.57378 c 0.28074,-1.37726 2.21129,-2.16988 0.46358,-0.46658 -0.14584,0.13103 -0.75815,1.55139 -0.46358,0.46658 z"
         id="path3140" /></g></g></svg>
