<?xml version="1.0" encoding="UTF-8" standalone="no"?>
<!-- Created with Inkscape (http://www.inkscape.org/) -->

<svg
   width="54.178238mm"
   height="43.122524mm"
   viewBox="0 0 54.178238 43.122524"
   version="1.1"
   id="svg2629"
   xml:space="preserve"
   inkscape:version="1.2.2 (732a01da63, 2022-12-09)"
   sodipodi:docname="buissonnant-arrondi-natural_medium.svg"
   xmlns:inkscape="http://www.inkscape.org/namespaces/inkscape"
   xmlns:sodipodi="http://sodipodi.sourceforge.net/DTD/sodipodi-0.dtd"
   xmlns="http://www.w3.org/2000/svg"
   xmlns:svg="http://www.w3.org/2000/svg"><sodipodi:namedview
     id="namedview2631"
     pagecolor="#ffffff"
     bordercolor="#666666"
     borderopacity="1.0"
     inkscape:showpageshadow="2"
     inkscape:pageopacity="0.0"
     inkscape:pagecheckerboard="0"
     inkscape:deskcolor="#d1d1d1"
     inkscape:document-units="mm"
     showgrid="false"
     inkscape:zoom="0.78395062"
     inkscape:cx="235.34646"
     inkscape:cy="-156.89764"
     inkscape:window-width="2560"
     inkscape:window-height="1369"
     inkscape:window-x="-8"
     inkscape:window-y="-8"
     inkscape:window-maximized="1"
     inkscape:current-layer="layer1" /><defs
     id="defs2626" /><g
     inkscape:label="Calque 1"
     inkscape:groupmode="layer"
     id="layer1"
     transform="translate(-16.304368,-189.95123)"><g
       id="g2762"
       transform="translate(-80.6625,19.9125)"><path
         style="fill:#add5d2;stroke-width:0.264583"
         d="m 120.14479,212.94953 c -5.37776,-0.48943 -10.61773,-2.0496 -15.5717,-4.14369 -2.59681,-0.98975 -4.08173,-3.33283 -5.925133,-5.25547 -1.138805,-1.37911 -1.935804,-3.90032 -0.896681,-5.33545 -1.504748,-2.17805 -0.538365,-4.31058 0.357425,-6.4473 0.959376,-1.70954 2.447589,-2.96688 2.805209,-4.53201 0.56901,-0.87617 1.5557,-2.00379 0.2166,-2.39247 0.13529,-1.40794 1.53671,-1.37474 2.78534,-1.94118 0.004,-1.34754 3.64036,-3.04138 2.98661,-1.02295 1.17951,0.06 0.81427,-3.86693 1.31674,-1.20354 0.96577,-0.50496 2.31082,-1.40762 1.88924,-2.85044 -0.13761,-0.20987 -1.32535,-1.65816 -0.0908,-2.22048 -0.67571,1.93944 2.48412,-0.50527 1.869,-1.36129 1.52009,-1.24391 0.29043,2.46017 2.09236,1.4574 0.91041,0.0798 -0.79576,1.87289 0.61141,0.5855 0.76433,-1.27168 0.23957,-1.12678 -0.42031,-2.3384 -0.28752,-1.40611 1.78279,0.43492 2.32506,-0.3845 0.66514,0.75244 1.85191,-1.43205 2.62415,-2.01129 0.66839,-1.38924 1.31323,1.44845 2.01297,0.76219 1.21875,-0.81488 3.48887,-1.49458 4.70102,-0.84114 0.52213,0.84184 0.37423,-1.83298 1.17281,0.008 0.51901,-1.65075 3.08007,-1.68653 4.32603,-1.08836 -1.5544,1.58592 0.87872,-0.59086 1.67596,0.29545 2.29051,0.18211 5.03902,-0.44594 6.11123,2.14869 1.57017,1.72948 4.36689,1.55581 5.40323,3.94341 1.60937,1.70319 1.76848,4.17087 3.80416,5.64525 0.8733,1.70018 2.52849,3.11474 2.47039,5.41263 0.8188,1.80988 -0.0161,3.56688 -0.38088,5.16905 1.52376,2.73088 -1.8142,4.77585 -0.91782,7.59217 -0.71723,2.41265 -1.42645,4.86875 -2.52505,7.13877 -0.91541,0.22767 -1.99559,-0.0826 -2.08144,1.39001 -2.33647,-0.061 -3.46776,2.87863 -5.97596,2.85624 -1.30629,0.0432 -3.64478,0.73675 -3.62344,0.0395 -1.85475,0.006 -3.93169,0.50826 -5.972,0.71857 -1.48278,0.0607 -6.29604,1.41786 -4.26606,-1.55564 3.55418,-3.23086 7.72631,-5.71377 11.79707,-8.23901 1.03737,-0.72347 4.22141,-2.12276 3.96554,-2.48282 -3.09688,1.35785 -5.99411,3.13426 -9.10328,4.46289 -0.48011,-1.20011 1.51656,-3.99285 0.60474,-4.33464 -1.28757,2.02724 -1.10094,5.12718 -3.50481,6.30714 -1.11053,0.54149 -3.26442,2.84949 -3.63416,2.2532 1.57184,-3.33146 3.27708,-6.61443 5.336,-9.67424 3.8196,-1.79819 7.68868,-3.51097 11.52575,-5.25155 -2.26744,0.4551 -4.75481,1.76601 -7.07848,2.62502 -1.17713,0.51696 -4.72471,2.10661 -2.38301,-0.25711 2.01056,-2.65962 4.4401,-4.98103 6.48276,-7.59891 -1.68181,0.52094 -3.3079,3.98849 -4.01552,0.85293 0.4697,2.47277 -1.76965,4.04056 -3.22526,5.76509 -2.95086,3.44116 -5.7356,7.0755 -7.85279,11.09324 -1.50091,-0.95118 0.60756,-4.11213 1.49074,-5.48616 0.67354,-1.22784 2.25358,-3.08312 2.33856,-4.00027 -1.5206,1.75606 -2.89511,3.63337 -4.33282,5.4573 0.29954,-2.35496 0.28269,-5.06684 2.41602,-6.61296 3.69931,-3.54329 7.61112,-6.85858 11.32899,-10.37951 -1.99702,0.6984 -3.6818,3.08775 -5.36866,3.7542 -0.001,-1.21689 1.19256,-3.23735 0.63083,-3.94641 -1.08832,2.04868 -0.86251,4.79015 -2.98335,6.18926 -1.41919,1.1307 -3.76376,3.9737 -4.74774,3.82217 0.72095,-3.26235 1.99459,-6.46444 2.49121,-9.73098 -1.33606,1.93656 -1.8464,4.55048 -3.02223,6.42679 -2.69252,-2.27245 -4.57684,-5.34997 -7.11693,-7.7735 0.38829,1.44423 2.73116,3.58462 3.87923,5.22059 1.82587,1.89012 3.74177,4.00372 2.25399,6.71402 -0.24393,1.43192 -0.52448,4.50784 -2.39644,2.33867 -2.26843,-1.76282 -5.20287,-3.15433 -6.12041,-6.0985 -0.70689,-0.95502 -0.75255,-3.06868 -1.75394,-3.45944 -0.10683,1.26981 2.05163,4.35234 0.89191,4.38772 -1.06089,-0.58179 -3.77584,-2.92076 -3.75726,-2.41701 3.92748,3.43427 8.06573,6.62311 12.10135,9.93057 -0.18658,1.35437 -0.13398,4.23408 -1.66501,1.91364 -0.93045,-1.16692 -1.6181,-1.28149 -0.52073,0.17301 1.10784,1.44648 2.08727,3.11714 1.56676,4.98956 -0.13271,0.64794 -0.86296,-1.17092 -1.23954,-1.52976 -2.2198,-3.36625 -4.29231,-6.8477 -6.82034,-9.99408 -0.22416,1.0692 1.98005,3.71495 2.70305,5.2673 0.58565,1.24993 2.14951,3.00247 2.01039,4.0403 -2.51503,-1.53044 -5.41495,-2.58051 -7.52611,-4.67976 -0.86087,-1.80972 -3.59555,-3.08205 -3.42925,-5.66518 0.16553,-1.33013 -0.87742,-2.3656 -0.61557,-0.39415 0.17227,2.66261 -2.04807,-3.00031 -3.04733,-2.44532 1.31427,2.64251 3.55291,4.79101 4.73157,7.51029 -0.6569,0.3509 -4.86665,-1.81943 -2.29833,-0.05 2.05436,1.08028 3.97884,2.40623 6.01909,3.41753 2.50398,1.29529 -2.1317,0.13739 -3.0818,0.29367 -1.10911,-0.18073 -5.48625,-0.0695 -2.13667,0.32828 2.82789,0.43473 5.81067,0.32602 8.49759,1.38674 2.22011,1.22121 4.71869,2.48489 5.58018,5.06071 0.44987,1.14274 1.60445,3.14933 -0.77524,2.28269 z m -21.137001,-9.94068 c 0.07518,-0.91224 -0.898882,-5.03588 -0.85712,-2.14155 -0.08562,0.56846 1.003203,4.37156 0.85712,2.14155 z m 0.194958,-6.32489 c -0.667453,-1.0186 1.580453,-4.75757 -0.345828,-2.55942 -0.53628,1.36016 0.113919,2.20625 -0.960613,1.64524 0.463767,1.05589 0.27912,2.96298 0.887183,3.49218 0.686227,-0.67852 0.460259,-1.72233 0.419258,-2.578 z m 2.291823,-4.25844 c 2.02821,-2.16045 -2.649574,-1.88648 -1.998571,-0.091 1.782191,-2.41627 0.0162,1.30962 1.429781,0.77336 l 0.27768,-0.27258 0.29112,-0.40976 z"
         id="path2776" /><path
         style="fill:#93c9c5;stroke-width:0.264583"
         d="m 124.62925,212.20404 c 0.84335,-2.3123 3.51185,-3.22055 5.29627,-4.72329 3.55518,-2.49436 7.31036,-4.67983 11.0501,-6.8733 -0.17177,-0.93842 -2.83701,1.27306 -3.90264,1.61708 -1.66476,0.59524 -4.05526,2.74771 -5.36356,2.36494 -0.20058,-1.2315 1.34277,-3.64155 0.68252,-4.09378 -1.48654,2.08949 -1.12769,5.43835 -3.83553,6.52195 -1.06987,0.79007 -4.31096,3.46814 -2.51097,0.46323 1.40711,-2.61971 2.58568,-5.43906 4.50014,-7.7316 3.55933,-2.18857 7.58028,-3.53069 11.31343,-5.39445 0.45196,-1.1118 -3.29438,1.18203 -4.37136,1.41273 -1.84263,0.64644 -3.83293,1.80655 -5.67427,1.94848 2.15611,-3.09563 4.92163,-5.69508 7.30045,-8.60621 -0.61498,-0.48258 -2.5832,2.03088 -3.45887,2.1804 0.004,-1.19724 -0.94891,-2.51041 -0.82579,-0.35064 -0.072,2.65007 -3.01572,3.95674 -4.28454,6.05835 -2.53084,2.9647 -4.58902,6.28545 -6.69041,9.55031 -1.18224,-1.81942 1.09378,-4.01552 1.9184,-5.71599 0.51924,-1.12093 2.38825,-3.04374 2.05364,-3.73364 -1.53876,1.41777 -2.79224,4.09977 -4.17371,4.99414 0.0372,-2.51596 0.56321,-5.15978 2.88465,-6.56122 3.49864,-3.3036 7.23691,-6.37665 10.63057,-9.77647 -1.95896,0.3005 -3.82508,3.2856 -5.20365,3.40412 0.41727,-1.11921 1.29815,-5.6389 -0.0498,-2.45058 -0.48833,1.29233 -0.72109,2.73756 -1.28997,3.97282 -1.9041,1.64869 -3.71085,3.42299 -5.73375,4.92454 0.61039,-1.87435 0.46662,-5.03575 2.40934,-5.83656 1.32779,0.19532 -1.48418,-1.54872 -0.19258,-2.56226 0.52547,-0.91438 0.40869,-3.06387 -0.36148,-0.93487 -0.0305,2.16977 -2.71039,-0.37013 -2.1891,2.07285 0.49346,2.02249 -3.36759,-2.77103 -3.06952,0.1887 0.95374,0.89514 3.16516,-0.33579 2.29739,1.5459 0.25411,0.57009 1.67259,-1.45286 1.09861,0.48101 -0.36083,3.59227 -2.71521,-0.94568 -3.87765,-1.83863 -1.28947,-1.25543 -3.08671,-4.04696 -4.29682,-4.18775 1.57845,1.67337 2.42516,3.61134 4.06824,5.07672 1.0662,1.24339 2.07175,2.53704 3.10616,3.80671 -0.70989,1.96302 -0.76934,4.10164 -1.46025,6.05389 -2.0704,-0.8334 -3.91801,-2.65709 -5.76975,-4.03397 -2.02036,-1.58391 -2.36902,-4.33794 -2.76609,-6.47244 -2.30632,-0.2018 0.75118,4.02329 0.25182,4.75868 -1.31851,-0.64541 -3.42325,-3.12586 -4.37705,-2.65348 3.72076,3.00454 7.38514,6.09359 11.18766,9.00241 1.60062,0.86473 0.96234,2.66066 0.83831,4.09278 -0.73938,-0.64757 -1.43536,-1.88746 -2.41362,-2.38951 0.14726,1.46368 3.46881,4.1704 1.41256,4.71405 -1.3178,-0.97977 -2.26175,-2.77545 -3.24477,-4.27403 -1.37182,-2.04269 -2.53616,-4.31066 -4.36907,-5.982 -0.42946,0.80939 2.06491,2.46889 -0.25102,2.70736 -0.89964,1.23731 -0.0876,3.45619 0.90098,1.09907 2.19518,-0.40013 2.88955,3.62036 4.20199,5.08696 0.81623,1.64998 -2.38738,-0.96634 -3.23544,-1.22062 -2.15774,-0.7033 -3.52684,-2.54696 -4.87907,-3.85647 -1.00092,-0.90077 -0.53679,-1.5891 -0.9583,-2.73829 -0.82482,2.52116 -2.33057,-2.54813 -0.32906,-1.52799 0.27116,1.64649 1.26851,0.6444 0.43236,-0.15457 0.79154,1.71553 2.28134,0.0493 1.08725,-0.23549 -1.195,0.3185 -2.88513,-1.43055 -2.52695,0.13602 -0.10573,-1.11186 -1.09127,-2.78384 -1.04806,-0.61955 0.37224,2.21593 -2.36218,-1.42662 -1.2966,-2.15984 -0.44338,-0.60905 -2.63834,-0.46251 -1.53458,0.82571 -0.4154,0.9222 0.57056,2.806 0.30725,0.70869 1.25877,0.57901 2.4239,3.16041 3.48554,4.60887 2.0866,2.92053 -2.74807,-0.6939 -2.51733,0.80781 1.16054,0.91743 3.65953,1.42023 3.35198,2.83017 1.91434,-0.29317 -0.1129,2.08633 -1.46187,1.17504 -1.34163,-0.72172 -2.78361,0.59257 -1.08861,1.32163 1.47249,0.40367 0.54959,-1.4633 2.27171,-0.63866 2.46074,0.37334 0.93707,2.83474 0.55032,3.31538 0.40852,0.56894 -1.17739,0.62484 0.36306,0.73285 0.2937,0.73672 1.02304,3.13228 -0.76612,1.3848 -0.76328,-0.72616 -0.7778,-2.26891 -1.94914,-1.66799 0.0935,-1.02499 -1.73798,-1.09565 -2.31696,-1.73406 -1.48683,1.31725 -4.108573,-1.13862 -4.647695,-2.81797 -0.521528,-2.99367 -0.143165,-6.09544 0.210438,-9.09149 1.592697,-1.19627 4.235797,-3.49866 2.518557,-5.60138 1.4084,-1.68922 2.14402,-4.18375 4.3833,-5.06271 1.61783,-0.71472 4.97228,-0.97612 4.73055,-2.55546 0.27722,-0.92922 -2.51277,0.0754 -0.80307,-0.97264 1.2699,-1.15625 -0.0216,-1.81686 1.62301,-2.8715 0.13627,-0.56388 0.80665,-0.34159 0.67725,-1.33242 2.00448,0.24133 0.28461,2.53112 -0.84816,2.92199 2.04732,-0.22717 2.20173,-2.16573 3.28288,-3.31544 0.99361,0.0459 1.75575,-2.44385 3.06717,-1.64131 0.38,-0.33072 0.44183,-2.78434 1.61482,-2.69563 -1.4755,0.47308 -0.6323,2.57296 0.45891,1.18767 0.69021,0.19176 1.72414,1.50004 2.244,0.0393 0.8802,-0.93497 1.6155,-0.81118 0.30375,0.17136 0.36,0.72596 2.07398,-0.81959 2.97198,-7.3e-4 0.51819,-0.9132 1.66763,-1.41071 2.32642,-1.70918 0.23103,1.07809 -1.91829,2.15683 0.31009,1.88339 -0.43456,-2.92667 1.76811,-0.18615 3.12228,-0.6217 1.04836,1.1749 2.39979,2.2467 2.83678,-0.0367 1.3221,-2.04514 4.00867,-1.61646 4.73679,0.63693 1.21182,0.20029 0.42564,4.18015 0.95624,2.88307 -0.2422,-1.19478 1.70627,-2.31613 1.02323,-0.27896 1.42949,1.17499 1.70227,3.74209 3.22229,4.61795 0.70389,0.91916 2.55668,0.0445 2.38871,1.09296 -1.1413,1.92224 2.64757,2.22794 2.92188,4.32624 0.1788,1.54752 0.17036,3.50191 0.96009,5.17862 -1.24146,0.54448 -0.49763,0.66841 0.14515,0.95557 -1.94516,0.84971 0.93452,2.89175 -0.4136,4.55966 -1.63402,0.17503 -2.0572,2.59797 -0.74878,3.41605 0.0108,1.67888 -0.84665,-1.0546 -0.62094,0.79228 0.1281,2.07863 -0.83719,3.99344 -1.45719,5.99034 -0.13032,0.95897 -1.66733,0.74624 -0.83833,1.35335 -0.52488,-0.63085 -3.20838,-0.78682 -2.40345,-0.073 1.6093,-0.94917 0.15911,1.47129 -0.97816,1.36637 -1.04738,1.1285 -2.5244,2.86126 -3.36362,1.81611 -1.41402,2.24082 -3.86633,-0.5731 -4.9986,0.91655 -1.27397,-0.77693 -3.9337,1.12805 -6.04095,0.84821 -1.45468,0.12705 -2.91312,0.20252 -4.36991,0.30038 0.053,-0.26434 0.1056,-0.52886 0.15882,-0.79308 z m -23.13758,-11.26132 c 1.28127,0.0333 -1.26932,-2.36444 -0.50829,-0.20535 -0.0472,0.34886 0.3908,0.77557 0.50829,0.20535 z m 43.32273,-0.17446 c -0.26157,-1.39467 -2.08078,1.17202 -0.23794,0.21992 l 0.23794,-0.2199 z m -33.98281,-1.93746 c -0.0996,-0.77437 -2.02316,-0.8459 -0.45243,0.36643 0.32887,0.57848 0.36809,-0.29139 0.45243,-0.36643 z m 8.75056,-4.44301 c -0.12521,-0.52717 0.0808,-1.40348 -0.69287,-0.12404 -0.9534,1.79361 1.39455,0.94059 0.69287,0.12404 z m -1.66372,-1.2207 c 1.05745,0.0956 -0.0162,-1.56441 1.21086,-2.08126 0.99744,-1.54709 -1.17376,0.78244 -0.24235,-1.13738 -1.63724,1.37305 1.00669,-1.93247 -0.69941,-1.16003 -0.0889,1.07293 -1.01477,2.13319 -1.81797,2.78361 -0.604,-1.62174 -2.01277,0.88415 -0.0928,0.23802 1.94617,-1.3072 1.28623,1.08274 1.26581,1.53995 l 0.16572,-0.1908 0.21027,0.008 z m 6.21736,-7.19514 c -0.35965,-0.12057 2.00952,0.0394 0.81207,-0.48809 0.38756,-1.03914 0.6311,-2.12294 -0.63586,-1.23935 -2.91492,-1.02876 -0.065,2.86173 -0.17621,1.72744 z m -2.12654,-3.51443 c 0.92487,-0.56526 -0.0365,-1.57351 -0.64986,-0.42045 -1.31684,-1.07211 0.0293,1.59338 0.64986,0.42045 z m -6.3951,-2.45423 c 1.21139,-1.69208 -2.3896,0.85075 -0.36883,0.52375 0.0908,-0.11035 0.45965,-0.29003 0.36883,-0.52375 z m 8.44376,-1.79912 c 0.13695,-1.10722 1.61941,0.53464 1.07953,-0.77628 -1.02289,0.18141 -3.38647,0.0489 -3.58544,1.04086 0.80869,-1.08585 2.13961,1.08336 2.50591,-0.26458 z m 13.02021,0.26458 c -0.0391,-0.14419 2.13917,0.10533 0.41415,-0.48973 -1.00743,-0.34705 -0.85502,1.44694 -0.41415,0.48973 z m -11.668,-1.69303 c -0.16785,-1.28376 1.01406,-1.7496 1.74613,-2.12781 -0.7666,-0.7056 0.23726,-2.66702 -1.37653,-1.37884 -2.1337,1.20566 1.73931,-0.42013 0.47971,0.80431 0.24106,1.62978 -2.8524,-0.29149 -1.29253,1.38744 -0.28651,0.26924 0.54764,2.47207 0.44322,1.3149 z m -6.02128,35.69199 c -0.58747,-0.60523 -1.7827,-0.3602 -0.46838,0.0647 -1.92462,0.42457 -3.34271,-1.31232 -4.50018,-0.60039 -1.03224,-0.26864 -3.60504,-0.9592 -3.69222,-1.30132 1.10869,0.41792 4.40403,1.39153 2.19163,-0.57509 -1.40943,0.84657 -0.32089,-1.76288 -1.41492,-1.20074 -1.49737,-0.26092 2.05916,-2.85557 -0.52102,-2.4067 -0.9761,-1.65886 0.53259,-1.42904 0.53137,-1.09174 2.01907,-1.21619 4.81497,0.84659 6.65497,2.08296 1.25252,1.10303 1.34171,2.83916 2.95044,3.76044 1.14776,1.14239 -1.10297,2.01198 -1.73169,1.26789 z m -8.76905,-2.58907 c -1.58403,-0.54865 -0.0796,-4.03653 0.0547,-1.66524 -0.45725,0.77204 2.23333,2.62463 -0.0547,1.66524 z m -0.13229,-6.25283 c -0.96951,-1.78354 1.09809,-0.48122 0.26458,0.24294 l -0.18686,-0.0714 z m -12.93116,-4.25498 c 0.06668,-1.30708 1.257104,-2.36818 0.373007,-0.39687 0.318143,-0.43603 -0.381372,0.83098 -0.373007,0.39687 z m -0.252739,-2.86507 c -0.616815,-1.74834 1.044722,-3.44644 1.307763,-5.00307 1.848876,1.89913 -2.276534,3.67032 -0.938151,5.78341 -0.239993,-0.18185 -0.244666,-0.53596 -0.369612,-0.78034 z m 2.798699,-6.2854 c 0.37522,-1.95042 1.87966,-3.82318 2.0907,-5.81478 0.91308,-1.27222 2.10896,-0.77926 2.84985,-2.43009 1.42052,-1.16725 -0.14726,1.34103 1.33777,0.0111 2.06683,0.79557 -0.89254,2.33002 -1.50092,1.11027 -0.72381,1.22807 -1.69171,1.49621 -1.44788,3.20122 -0.97068,1.34431 -1.88025,2.93086 -3.01259,4.06285 -0.0521,0.18763 -0.30615,-0.25846 -0.31693,-0.14056 z m 25.0489,-1.64231 c -0.72669,-1.92242 1.00501,-1.3544 0.31826,0.0909 z m 0.21911,-16.34361 c -0.9816,-1.71031 1.74786,0.79885 -4e-5,0 z m 8.39954,-0.51152 c 1.34899,-1.5724 0.35614,1.10881 -0.38246,0.50322 l 0.12467,-0.20539 z"
         id="path2774" /><path
         style="fill:#84c1bc;stroke-width:0.264583"
         d="m 124.72248,212.04413 c 1.25065,-2.30604 3.9674,-3.42386 5.94821,-5.06392 3.26542,-2.36326 6.84325,-4.23758 10.25798,-6.35411 0.47244,-1.14889 -2.50712,1.0129 -3.23102,1.21364 -1.92511,0.81896 -4.28732,2.69547 -5.99157,2.85445 -0.13899,-1.13465 1.44805,-3.92295 0.66008,-4.15885 -1.47526,1.97954 -1.16631,5.13978 -3.6192,6.32009 -0.96442,0.47073 -2.92752,2.53993 -3.32982,2.0965 1.60772,-3.30195 2.98711,-6.86754 5.57609,-9.5429 3.73268,-1.99547 7.78963,-3.37748 11.53127,-5.35776 -2.16319,0.1605 -4.47459,1.62048 -6.65775,2.35124 -1.23422,0.4272 -3.25772,1.45579 -4.15952,1.51688 2.12993,-3.229 5.02929,-5.84191 7.44079,-8.83764 -0.77436,-0.32087 -2.38053,1.61579 -3.46657,2.34969 -0.006,-1.19682 -0.95292,-2.7703 -0.85228,-0.45118 0.0172,2.61548 -3.03331,3.77735 -4.18124,5.89351 -2.52696,3.13356 -4.91281,6.40244 -6.85742,9.93375 -0.52544,-1.6003 0.16803,-3.1628 1.07241,-4.48718 0.76276,-1.68399 2.99778,-3.86921 3.01287,-5.20221 -1.58665,1.5503 -2.67356,3.5279 -4.18521,5.14385 0.0296,-2.15603 0.2886,-4.60416 2.16276,-6.00714 3.63517,-3.61001 7.63496,-6.83053 11.30604,-10.40032 -1.65704,0.0553 -3.40234,2.51021 -5.07322,3.46864 -0.39119,-0.29418 1.60586,-5.33077 0.04,-3.18395 -0.80916,2.1537 -1.14849,4.65099 -3.21403,5.79108 -1.16904,1.05192 -2.92934,3.31851 -4.01497,3.44827 0.73334,-1.67831 0.66881,-5.16014 2.61751,-5.45352 1.32074,0.70658 -0.50707,1.38588 0.96451,1.52408 0.46504,-0.39077 -0.36624,-2.06818 -1.51174,-2.6858 -0.31904,-0.90797 0.60464,-2.17876 0.6461,-3.20874 -0.40079,-1.62069 -1.52846,3.93726 -2.24573,0.92241 -0.13142,-1.39652 0.92062,-5.14715 -1.17267,-4.64272 -0.69125,1.3586 -2.43141,0.38439 -1.97545,2.11282 -1.00442,1.47987 -0.30245,-0.22291 -1.40582,0.33425 1.0334,-1.04845 -0.62431,-0.60463 -0.6834,-1.68039 -1.2872,0.77502 0.43715,4.40176 2.30099,3.84434 0.85372,0.15373 0.81631,2.22979 -0.0667,0.85419 -0.97783,-0.37829 -2.2791,2.04523 -2.04534,-0.17865 0.56208,-0.38403 -2.68954,-0.96432 -1.12301,-1.38304 1.85817,-0.55391 -1.28728,-1.62842 -1.18549,-2.74333 -0.52149,-1.04497 -1.14416,0.78381 -0.11515,0.89832 0.98026,1.34845 -0.46861,0.76597 -1.21095,0.24186 0.84493,1.2907 1.21873,2.24667 0.2722,3.59695 0.57405,1.43407 -1.47723,2.04502 -0.24658,2.90267 0.0655,1.8802 -2.12628,-2.21417 -2.17772,0.45283 1.36561,-1.02282 0.70403,0.4958 0.21957,0.73129 0.90391,0.59767 3.44285,-0.72687 1.97576,0.74649 1.09158,0.34022 -0.21667,2.51176 1.0202,1.22548 1.54253,-0.0247 2.06146,-1.97653 2.42978,-3.45543 -1.55297,-0.0357 -0.47867,-3.00234 0.55979,-0.76765 0.42676,0.78574 -0.17897,1.37573 0.69527,1.01674 -0.46554,0.55354 -1.0681,1.9909 0.12259,1.23492 3.15809,0.27764 1.77523,3.59201 1.35835,5.63408 0.0844,2.20009 -1.04309,2.48273 -2.45357,0.8722 -1.63945,-1.41242 -3.81021,-2.37812 -4.94516,-4.27189 -1.25854,-1.63622 -1.11815,-3.45915 -1.34292,-5.11756 -1.57589,-1.21475 -1.71996,1.64611 -0.7633,2.27016 0.38816,1.12534 1.65736,3.48357 -0.29406,1.71143 -0.98269,-0.55117 -2.59949,-2.31691 -3.35488,-1.91638 2.08168,2.04555 4.67818,3.51057 6.61334,5.71495 1.94648,1.33693 3.94992,2.70198 5.56233,4.43552 -0.1205,0.71959 0.38326,4.2003 -0.72205,2.38431 -0.64458,-0.95365 -2.70558,-2.69902 -1.28142,-0.47375 0.77456,0.89988 2.86441,4.24793 0.13847,2.72539 -1.82232,-2.41495 -3.53172,-4.96063 -4.89742,-7.6617 -0.70633,-0.63307 -3.01015,-3.22442 -1.74894,-0.75395 0.88994,1.19326 -1.68057,1.96272 -0.98277,3.69525 -0.033,2.13353 -1.63023,0.41312 -1.55931,-0.76258 -1.22913,-0.0179 -0.50018,-1.02722 -1.45281,-0.62061 0.23517,-1.20847 1.70813,0.70971 1.43864,-0.98215 1.68785,-2.26167 -1.53922,0.97754 -1.3437,-1.30923 -0.41465,-1.02419 2.48517,-1.92445 1.63197,-2.38312 -0.79852,1.26071 -0.45999,-0.67009 -1.68888,0.2648 -0.27366,-0.81352 -0.76472,-1.26214 -1.29422,-0.204 0.2197,-1.94567 -2.07114,-1.63681 -1.75365,0.31812 -0.10794,0.57479 -1.54204,-1.68496 -1.37242,-2.10239 1.23977,1.14432 0.0887,-1.73461 1.18261,-2.17799 -0.80725,-0.51902 -2.55097,-0.59843 -1.0969,0.61545 0.0997,1.326 -2.78022,0.4211 -1.3715,1.84836 -0.80658,1.44963 1.3558,3.35466 0.50789,1.02025 0.201,-1.05986 1.63717,2.24967 2.25852,2.79597 0.97938,0.89985 2.57237,4.04196 0.0803,2.26438 -0.53746,-1.50737 -3.02731,-0.37542 -1.05121,0.40971 1.49818,0.0497 3.31204,2.82518 2.08993,3.52041 -1.15635,0.14871 -2.72808,0.003 -3.54894,-0.0475 -0.62741,-0.90122 -1.57508,-0.0109 -2.34186,-0.68813 0.37245,1.92874 2.29688,0.4351 3.37053,1.69398 -0.0705,1.11467 2.96527,0.94917 2.04774,-0.0919 1.65684,-0.88522 2.58645,2.25432 0.6201,1.20085 -0.20129,-1.30386 -2.48381,1.65051 -0.32756,0.70383 -0.10761,-1.22006 1.94335,1.81809 0.26799,1.38155 0.004,0.99185 2.37109,0.77301 0.64087,1.66833 1.71991,-0.3554 0.60301,2.18981 -0.30758,0.28097 -0.52572,-2.07 -2.61632,-2.28175 -4.07582,-3.28852 -1.7042,1.29103 -4.714914,-1.51611 -4.757377,-3.61985 -0.136454,-2.76736 -0.297865,-5.62155 0.334922,-8.33459 1.665835,-1.09655 4.162945,-3.5063 2.503045,-5.44742 1.46903,-1.80983 2.2906,-4.49821 4.73045,-5.23876 1.63983,-0.77269 5.06356,-0.58932 4.53107,-2.92476 -1.5938,-1.14638 1.17097,-1.70477 2.28893,-2.61676 -0.57585,0.99081 -0.11604,2.87063 0.57468,0.91156 0.50809,-0.79157 -0.65671,-2.16873 0.94524,-2.85255 1.19514,-0.57327 0.57605,-2.06229 2.43706,-1.85452 0.83519,-0.33975 1.2535,-0.29158 1.15482,-1.29634 1.03493,0.68762 2.16811,-1.08252 2.55927,0.41102 1.09474,-0.86936 2.70028,-0.53289 3.64012,-0.91562 -0.2828,1.54202 0.58241,1.71813 1.28551,1.01733 -0.025,2.64829 -3.12074,-1.55522 -2.47292,1.24118 0.26499,0.0796 0.0142,-1.07119 0.62008,-0.0333 -0.76623,2.06588 -1.65991,-2.57829 -1.7515,-0.30024 0.71656,0.76196 -0.63581,2.28966 0.8869,2.65987 -0.0186,-0.94981 -0.36661,-1.57464 0.73792,-0.37264 0.57443,-0.76843 1.29465,0.98395 1.58028,-0.46109 0.72225,0.92335 0.17118,-1.13409 1.65291,-0.3856 1.2506,-0.0241 1.49693,-1.09497 0.32547,-1.13721 -0.26894,-1.32334 1.91437,-3.65199 2.12512,-1.10133 -0.70121,1.67404 1.90932,-0.47858 0.0869,-1.03881 -1.68628,-1.66722 0.96202,0.19483 1.37856,-0.35276 1.68224,0.73194 0.30769,1.44886 -0.18859,1.84918 0.63557,0.30372 2.05579,-0.64555 2.16737,0.4964 0.32375,-1.78322 2.55186,-5.09763 4.28564,-2.9215 -0.0892,-1.49382 1.42894,1.88507 2.14212,2.12294 -0.33854,0.95634 -0.55849,4.75996 0.47406,1.97059 -0.24524,-2.12193 1.31021,-0.78898 0.59224,0.51058 0.67357,0.7944 -0.29188,4.485 0.7129,2.05609 0.92709,-1.59008 0.89864,-0.62056 1.65535,0.39534 -0.50984,2.17349 4.74375,1.54599 2.71908,3.35763 1.02425,0.35697 3.1956,2.15952 2.90722,2.65467 -0.4386,-1.46361 -3.03154,-1.62468 -1.85691,-0.84081 0.72649,0.44517 1.67251,1.57773 2.2253,1.70908 -0.93731,0.49149 -1.86564,-0.20796 -0.85557,1.19514 0.27192,0.89938 1.2814,1.5722 1.07007,0.0665 0.85127,1.09352 -0.82207,2.52135 0.72329,3.49742 -1.06581,2.0842 0.88252,3.3912 0.19272,5.46292 -0.51171,-0.26408 -2.83043,2.30962 -1.43234,3.26161 -0.0497,1.82742 -0.32507,4.62463 -1.38217,6.57083 0.10934,2.47448 -3.80453,0.63181 -3.65011,2.21221 0.83424,0.72622 -3.29353,2.463 -1.28749,0.60877 -1.52434,-1.39502 -3.21566,0.89262 -0.92124,1.22085 0.71009,0.78843 -1.40721,1.74852 -1.03123,0.43126 -0.82171,-0.17411 -3.53963,1.59927 -2.67309,1.45055 0.97358,-0.67576 2.36981,-0.84252 0.51314,0.18065 -1.45288,0.43658 -2.74222,-1.53962 -3.76014,-0.13872 -1.58401,-0.4599 -4.25103,1.17441 -6.35112,1.011 -1.12357,0.0134 -2.86459,0.33408 -3.75754,-0.0147 0.0331,-0.22831 0.068,-0.45677 0.0997,-0.68497 z m -22.93549,-11.56062 c -0.57763,-2.52538 -1.24069,1.69208 -0.39669,1.36512 0.14944,-0.41335 0.67817,-0.94201 0.39669,-1.36512 z m 44.72895,0.80555 c 0.87756,-0.79075 0.1263,-2.64552 -0.33089,-0.68874 -0.37623,0.51524 -0.48269,1.76894 0.33089,0.68874 z m -1.53299,-0.29617 c 0.9213,-1.54234 -0.47122,-1.91119 -0.62288,-0.95706 -1.49481,0.47887 -0.70778,2.03317 0.62288,0.95706 z m -42.70158,-2.61424 c -1.34568,-1.2379 -0.43106,2.29753 0,0 z m -0.11973,-1.16506 c -0.58104,-1.37686 -1.12706,-1.16537 -0.78609,0.31938 0.62031,0.12823 2.30555,0.63076 0.78609,-0.31938 z m 44.57017,-0.95161 c 0.44386,-1.2207 -2.13881,-1.8508 -0.63814,-0.8827 -2.25738,-0.21876 0.16204,1.33984 0.63814,0.8827 z m -28.52608,-0.76861 c 0.72961,-0.81565 0.36928,1.28059 1.27507,-0.21636 1.61996,-1.54754 -0.66346,-2.42831 -1.45267,-0.29616 -0.7091,0.32388 -1.11192,1.627 0.1776,0.51252 z m -3.59866,-10.64464 c 0.64746,-1.03252 0.75499,-1.7221 -0.25283,-0.38427 -0.65057,0.26199 0.37473,1.01176 0.25283,0.38427 z m 0.68426,-2.8809 c -0.12721,-1.47996 -1.79469,2.76176 -0.11937,0.91115 0.17715,-0.26678 0.1849,-0.60876 0.11937,-0.91115 z m 6.95597,0.60196 c 0.56442,-0.59651 0.99279,-2.72892 -0.30408,-1.59433 -0.28896,-2.71407 -3.37972,2.18439 -1.40155,0.27142 1.17091,-1.54711 -0.42032,1.77193 0.46996,1.88864 0.93024,0.20405 0.49738,0.50721 1.23567,-0.56573 z m -7.64698,-1.43616 c 0.75188,-0.81646 3.10102,-2.2744 2.06109,-2.84482 1.06339,-1.07663 -1.77764,0.007 -0.35309,0.57681 -0.9422,0.63692 -2.30103,0.78309 -2.14445,1.84062 -0.85318,-0.58717 0.89014,1.29503 0.43645,0.42739 z m 27.98127,-1.96127 c 0.31298,-1.89994 -1.70488,0.54451 -0.16096,0.25052 z m -19.49825,-0.32884 c 0.0404,-1.09736 0.88482,1.52057 0.89791,-0.22686 -0.40683,-1.42383 2.2604,-0.0466 0.85947,-1.30896 -1.2355,-0.22635 -3.30382,0.88825 -1.6598,1.88676 z m 14.87145,-0.2635 c 0.70745,-1.76947 -3.65111,0.90585 -0.84,0.18871 l 0.34491,-0.0697 z m -15.56253,-0.76995 c 0.57486,-1.07923 -0.93991,-1.98295 -0.50799,-0.23401 -1.16622,1.34799 -0.0189,1.2976 0.50799,0.23401 z m -4.32752,0.2618 c 0.55119,-0.49675 0.726,-2.06284 -0.40909,-0.95898 -0.36967,-0.60477 0.78036,-2.83953 -0.6259,-1.65599 -0.0247,0.9592 -0.82902,-0.30908 -0.70338,1.01629 -0.91754,1.29377 1.27415,-0.80832 1.00831,0.93474 -0.0438,0.24824 0.81774,1.79252 0.73006,0.66394 z m -0.84433,34.02156 c -0.43414,-0.75491 -1.44642,0.17235 -1.95469,-0.59703 -1.80233,-0.71517 0.97804,1.10658 -0.83013,0.35913 -1.06843,-0.04 -0.30939,-1.87698 -1.65301,-2.33295 -0.0754,-0.78202 0.55335,-3.05025 -0.82895,-1.81203 1.65242,-0.18253 -2.06126,1.33209 -0.14322,-0.40234 0.52819,-0.74532 1.23542,-1.74528 0.84382,-2.26877 2.34726,0.15929 4.47466,1.53718 6.16857,3.08473 -0.11573,1.56464 1.48033,2.46565 2.29601,3.10904 0.37246,2.22714 -2.33113,-0.20386 -3.21597,0.84965 -0.1322,0.023 -1.01174,0.50204 -0.68243,0.0106 z m -6.19382,-5.82488 c -0.51755,-1.35972 -0.19832,-1.52483 0.50959,-0.41543 0.87119,0.2394 -0.35341,1.26393 -0.50959,0.41543 z m 4.45492,-1.93576 c -1.72517,-0.67036 -3.86732,-2.24842 -1.75666,-3.6769 1.7543,-1.8691 2.63226,2.42169 3.7706,3.51304 0.8541,1.14708 1.1541,2.21575 -0.43226,1.03014 -0.52987,-0.2839 -1.05672,-0.5734 -1.58168,-0.86628 z m -7.17664,-6.48523 c -2.01256,-0.56379 0.84094,-3.44649 0.36744,-1.1915 -0.62418,0.49778 0.90829,1.50595 -0.36744,1.1915 z m -10.220535,-4.27635 c 2.038595,-3.2892 -0.615076,2.61268 0,0 z m 25.571965,-1.93295 c -0.58556,-0.63075 -3.31424,-3.8967 -1.20912,-1.88932 0.61573,1.35485 2.34206,0.68336 2.42801,0.45216 -0.17512,0.48141 -0.4381,2.76796 -1.21889,1.43716 z m -22.84281,-2.52003 c -0.0596,-1.97213 1.72503,-2.87539 2.00109,-4.29948 0.5936,-0.39286 -0.99203,-1.03537 0.48935,-1.49457 -0.0261,1.28135 0.15305,2.74227 -0.59792,3.99805 -1.01354,-0.0375 -1.83427,4.75769 -1.89252,1.796 z m 22.8075,-1.25677 c -0.13862,-1.25346 2.61785,-1.74618 0.51724,-0.33279 -0.024,0.44067 -0.0868,1.12241 -0.51724,0.33279 z m -19.18612,-4.94083 c 2.25939,-1.99376 -1.33823,2.55243 0,0 z m 1.29013,-0.10515 c 1.28254,-2.21908 1.22218,0.50481 0,0 z m 5.75076,-3.71689 c -0.32674,-1.25657 1.81621,-2.6311 0.49989,-0.64046 -0.1183,0.16795 -0.20569,0.82757 -0.49989,0.64046 z m 14.63096,-6.10433 c -0.21387,-1.03655 1.70467,-1.87785 1.69442,-0.90455 -0.78888,-0.41884 -1.15735,1.08365 -1.69442,0.90455 z"
         id="path2772" /><path
         style="fill:#6eb6b1;stroke-width:0.264583"
         d="m 124.74827,212.0284 c 1.22425,-2.31252 3.94191,-3.38446 5.90943,-5.00622 3.28726,-2.36612 6.8809,-4.24862 10.2866,-6.42251 0.11176,-0.93184 -2.72188,1.11418 -3.62004,1.42108 -1.80094,0.80247 -3.98329,2.39109 -5.61249,2.61985 0.0277,-1.34993 1.31535,-3.60344 0.69605,-4.35794 -1.43969,1.94281 -1.12399,4.96452 -3.29468,6.3356 -1.10328,0.34767 -3.36563,2.9617 -3.69107,2.30234 1.44807,-3.22494 3.14963,-6.33444 5.05758,-9.31012 3.955,-1.85498 7.96448,-3.61428 11.92326,-5.44084 -1.37113,-0.46704 -4.25565,1.54034 -6.15475,2.05427 -1.52838,0.62864 -3.06884,1.22704 -4.61572,1.80847 2.26045,-3.2873 5.18343,-6.03995 7.69464,-9.12445 -1.42652,-0.33293 -3.79025,4.16602 -4.05298,0.78649 -0.68106,0.90081 -0.41921,3.60817 -2.23594,4.48143 -3.58069,3.73718 -6.55263,8.00607 -9.1892,12.4475 -0.38102,-1.87621 0.4483,-3.65393 1.55178,-5.14073 0.62926,-1.15634 2.99116,-4.06059 2.30418,-4.25693 -1.42994,1.31556 -2.49316,3.74816 -3.98822,4.4955 0.11449,-2.1575 0.50427,-4.55856 2.48468,-5.80803 3.10701,-3.00913 6.4433,-5.7675 9.61006,-8.70109 0.76467,-0.57508 1.9884,-2.36677 0.2028,-1.08684 -1.4754,-0.19886 -1.21317,1.67166 -2.93083,2.33818 -2.66271,2.60317 1.19493,-3.83751 -0.79887,-2.73275 -1.11146,1.45797 -0.83622,5.34892 -2.84362,5.3034 -1.01609,-1.11506 -3.53404,-2.53051 -1.9979,-4.71565 0.56297,-2.73697 -0.89637,0.41527 -1.43639,1.10041 -1.60286,-1.86148 0.28626,-4.77929 -0.41782,-7.06556 -0.93316,-0.28497 -1.47072,1.93717 -2.34406,0.57241 -0.6762,-1.26268 -1.25529,-2.10611 -2.38459,-0.63675 -1.27936,1.39278 -1.10879,0.1381 -0.8062,-0.75781 -1.58157,0.9726 -0.54299,1.27185 -0.47988,2.78715 -1.00799,0.43597 -1.31382,-1.59263 -2.10283,-0.4549 -0.87446,0.92513 0.1663,1.7766 -0.004,2.60563 -2.08487,-1.35513 0.84858,1.76506 -0.55765,1.9799 -0.58118,1.37143 0.2327,2.96047 -1.0241,3.35605 -0.70203,1.0667 -1.84514,-0.65807 -0.214,-0.77101 0.64462,-1.14027 -3.31088,-0.73955 -2.88095,0.48049 -0.87727,0.11934 -3.15505,0.80543 -0.80467,0.68913 2.26522,-0.30437 1.40834,3.71398 -0.4402,1.55101 -0.79164,-0.76147 -2.62246,-1.52447 -1.02306,-0.0508 1.5436,1.63652 2.77565,2.38542 4.5082,3.7243 1.22482,0.80492 1.60496,1.6554 -0.0461,2.09573 -0.25382,0.56827 -2.67212,-2.39009 -2.32745,-1.03362 2.11314,1.46127 -0.96511,3.12629 -0.47068,5.17474 -0.80954,1.57092 0.0955,-1.70058 -1.06125,-0.30878 -0.8732,-1.01054 0.85749,-3.9252 -0.10139,-3.75232 -0.10225,0.9898 -2.17217,-1.40808 -0.68131,-0.99125 0.008,1.98556 1.63984,-3.28538 0.44618,-1.21043 -0.58738,-0.98359 -1.66244,0.80688 -1.52573,-1.1675 -1.47515,0.34262 -1.35737,-2.53522 -2.58364,-0.76507 -0.61895,0.42276 -0.54181,2.09247 -1.49686,0.47199 -0.78641,-1.16944 1.40726,0.38769 1.65283,-1.10084 1.12378,-0.89334 -0.73994,-1.11861 -0.8094,-1.94464 -1.04993,-0.41438 -2.52495,-0.38284 -1.02872,0.73778 0.30299,1.25598 -2.45714,0.98893 -1.12692,-0.31958 -0.37175,-0.66956 -1.55205,2.45461 -0.0587,2.18092 -0.51939,0.51723 0.158,2.66237 -0.95921,1.6735 0.3312,1.2189 2.00799,1.07321 1.89255,-0.26457 0.89577,1.69929 3.03712,3.49635 3.11089,5.2432 -1.42443,-0.0168 -2.73058,-3.05244 -3.19656,-0.56429 1.33793,0.78584 3.02057,1.34224 2.81595,2.55123 0.48183,0.0831 0.52319,2.13359 -0.71031,1.416 -1.77679,0.50015 -3.44698,-1.65744 -4.62908,-1.29535 1.34135,0.70298 1.08925,1.13612 -0.16291,0.38082 -1.71101,-0.81218 0.82056,2.43442 1.88305,1.70666 0.31067,0.94076 3.72671,0.46336 2.64932,1.56971 -1.32952,1.01482 3.09823,0.0136 1.58615,1.91105 -1.6107,-1.82694 -0.27086,0.73549 0.67585,1.00796 -1.08912,1.09559 1.07333,0.36914 0.46889,1.63957 -1.4431,-0.58401 -1.92966,-2.48824 -2.86328,-3.36434 0.23746,-0.60904 -1.12189,0.98449 -1.48122,-0.23196 -0.94734,-1.2413 -2.17259,1.11815 -3.14011,-0.70826 -2.618796,-1.16047 -2.9873,-4.37049 -2.583377,-6.85206 0.782068,-2.05185 -0.762288,-5.01435 1.923047,-6.1395 1.06752,-1.11982 2.61292,-2.81102 0.92544,-4.07783 1.60228,-2.27738 2.93859,-5.34584 6.06183,-5.69067 1.87387,-0.55595 4.31541,-1.10614 3.10462,-3.42142 -0.69605,-1.46067 3.56868,-0.43534 1.70072,-0.18461 -2.24474,0.10923 3.57297,1.27452 1.6946,2.81647 -0.23263,0.67763 -0.67604,4.09346 0.4106,1.83398 1.19367,-0.2037 -0.60681,-1.58884 0.34806,-2.4544 -1.46937,-1.22896 0.73472,-1.10995 1.43961,-1.91301 -2.03675,0.11098 0.64473,-0.6812 0.80843,0.72133 0.83373,-1.64322 -2.05321,-1.17605 -0.17291,-1.88785 1.49449,0.0264 0.85451,-0.44862 0.86965,-1.14115 1.07426,-0.22863 0.48399,1.81147 1.70575,0.21892 1.2083,-0.88987 0.76,-2.0484 0.52858,-2.26435 0.7085,-1.64198 -1.82232,-0.12681 -2.58232,-0.79438 -1.16055,0.21758 -2.6598,0.38656 -0.83597,-0.34658 1.75353,-0.39642 3.324,-2.24026 4.94006,-0.30846 0.67972,0.59751 1.39474,1.22286 0.43228,1.55638 0.7394,2.06196 -2.23237,-1.67198 -0.75294,0.55351 -0.0281,0.54279 -0.35128,1.21847 0.30548,0.56129 -1.08417,1.36409 -0.34172,2.33898 0.78308,2.01949 0.3358,0.60871 0.55608,-1.093 0.91006,0.26431 0.38456,-1.66052 1.54757,-1.1556 2.62018,-2.31334 -1.32094,0.71693 0.87636,2.43526 -0.20838,0.78005 2.16563,1.05892 -0.60957,-1.74785 0.97038,-1.14017 0.43099,1.88213 1.3644,-0.96305 1.8311,-0.82581 0.5844,-0.90267 -0.58593,-1.48299 0.80577,-1.93665 -1.10587,2.02563 2.09601,1.83639 3.06455,0.43551 1.49475,1.48551 -2.34664,0.83984 -0.12252,1.42344 1.70911,-0.38012 0.99249,-4.01869 3.26164,-4.42812 2.43383,-1.21479 -0.29417,2.71368 1.54258,1.64229 0.1618,-1.63114 0.26617,-0.61705 0.87637,-0.11313 1.7435,0.6604 1.13295,2.74066 0.81853,4.50919 0.68858,0.8754 1.284,-1.96761 1.5342,-2.47695 0.779,0.7483 -0.42406,2.25819 0.53614,3.32315 -1.7427,2.54838 3.55911,0.6232 3.20221,3.40797 0.40973,0.97325 3.09731,1.29525 1.06755,1.40786 0.54004,1.5796 1.99717,0.87606 1.75054,2.28661 1.23013,1.41563 1.7075,4.08164 2.67343,5.1163 0.0894,0.46107 -0.59432,3.20376 0.58467,4.18688 -0.0211,1.24569 -0.95031,1.33186 -0.49771,-0.0785 -0.24793,1.18882 -1.8955,3.0564 -1.87545,3.71788 0.70536,1.92644 0.66639,4.68986 -0.43506,6.50586 0.0732,2.34186 -2.46137,2.05359 -4.14232,3.02 -0.91044,1.38788 -3.06379,-1.20244 -3.47401,1.11986 0.007,1.90494 -2.95014,3.44379 -4.50711,2.31607 -1.22415,0.46715 -2.63814,0.99152 -4.20486,0.92991 1.41038,-1.16753 -1.02301,0.21589 -0.5032,-1.012 -1.01141,1.95509 -3.20603,1.86496 -5.1263,1.82268 -0.86891,-0.0695 -1.46126,0.41012 -1.0111,-0.83392 z m 23.01538,-10.29492 c 0.48727,-0.76004 0.42377,-2.28 -0.24072,-0.63726 -1.27462,1.08533 0.74304,-2.88896 -1.06321,-1.16625 -1.85208,1.3563 0.55583,3.47393 1.30393,1.80351 z m -45.58937,-0.10267 c 0.5325,0.3173 -0.99375,-0.97141 0.18526,-1.54299 -1.38743,-1.32875 2.43613,-3.0562 -0.20848,-3.19476 -1.20828,-0.9056 1.7885,-0.1879 -0.009,-1.25623 1.12549,-1.47792 -1.68319,-2.84074 -1.02056,-0.23624 0.0927,1.93766 0.6272,3.78153 -0.34659,5.18826 0.24975,1.05902 0.37906,1.38549 1.3993,1.04196 z m 41.78301,-0.14331 c 1.67898,0.16668 1.89776,-3.72393 0.23685,-1.69437 -1.2419,-0.0683 -1.72413,2.79313 -0.23685,1.69437 z m -40.89672,-2.65906 c 1.15826,0.56666 -0.3843,-2.1888 -0.43283,-0.099 -0.28436,1.29459 0.3407,-0.41988 0.43283,0.099 z m 43.62627,-3.09563 c -1.05564,-2.49395 -2.28958,1.47643 -0.0251,0.4838 z m -40.43267,-6.20786 c -2.32207,-0.33766 1.9535,-1.44174 0.16855,-1.2804 -1.27344,0.93385 -0.73711,-1.4788 -1.45929,0.32246 -0.61812,0.53134 0.81784,1.76341 1.29074,0.95794 z m 5.47919,-0.39277 c -0.58011,-0.6059 -1.43011,-2.39436 -0.83911,-0.50198 -0.11159,0.46932 1.71435,0.9175 0.83911,0.50198 z m 2.28796,-2.36263 c 0.24361,-1.46528 -0.9953,-1.11748 -0.70259,0.0611 -0.0616,0.10208 1.03041,0.1422 0.70259,-0.0611 z m 0.80402,-0.40826 c 0.75101,-0.059 0.98387,-2.45926 -0.34142,-0.74879 -0.66568,-0.0729 0.76594,1.73941 0.34142,0.74879 z m 30.1578,-1.53092 c -0.88896,0.0484 -1.46757,1.96255 -0.17104,0.5022 l 0.12285,-0.22711 z m -12.61853,-3.55125 c 0.93682,-1.88661 -1.63174,-0.33971 -0.15297,0.36463 l 0.16575,-0.10711 z m 5.90414,-1.49371 c -0.74446,-0.98269 -0.3007,-1.22501 0.52905,-0.45312 0.0481,-1.45575 -2.19736,-1.85936 -2.98483,-0.33694 1.1857,-0.38157 2.7961,1.60801 1.00048,0.54609 -0.14345,0.59906 1.50286,1.43549 1.4553,0.24397 z m -8.02484,-1.4922 c -1.73429,-0.10235 -1.88981,1.90617 0,0 z m 3.4692,0.21642 c -0.28243,-0.80358 -2.24828,1.45511 -0.25322,0.29006 z m -1.41913,-2.05356 c 1.51609,-0.87915 -2.73753,-0.49096 -0.46302,0.13971 z m -11.9995,-1.96538 c 1.73006,-1.35754 -2.4446,-0.29491 -0.39708,0.19343 l 0.39712,-0.19343 z m -0.65111,37.63142 c -0.62671,-1.03739 -3.73768,0.01 -5.24375,-1.00244 -1.37514,-0.26822 -0.3631,-2.63615 -1.3192,-2.80592 0.97128,-1.0784 -2.04507,-1.27243 -0.0774,-2.5452 2.0283,-1.32143 4.673,1.25763 5.85412,2.80328 -1.53142,-0.31178 3.0333,3.51426 0.11194,1.48664 -1.02283,-0.82726 -1.88931,0.0852 -2.85056,-1.02288 -0.13673,2.16332 2.46321,2.11099 4.16099,1.87061 1.27978,0.0758 1.1846,1.45652 -0.23701,1.22559 l -0.3992,-0.01 z m 0.9029,-6.06785 c -1.81468,-1.53728 -2.87353,-3.80391 -4.1279,-5.80003 -0.51871,-1.41178 -2.06083,-2.98023 0.35324,-2.89648 2.00868,0.75801 4.34442,2.45131 5.1953,4.45005 -0.20204,0.69963 0.32415,3.45903 -0.74553,1.71559 -0.64751,-0.95127 -2.7124,-2.68224 -1.28921,-0.4618 0.25055,0.61764 3.07773,3.94938 0.6141,2.99267 z m -4.23794,-1.29218 c -1.26228,-0.88687 -4.64676,-2.02975 -2.69251,-2.69708 -1.06239,0.0716 1.22742,-2.66428 1.5206,-1.82435 1.08535,1.86058 2.26395,3.67229 3.23353,5.59614 -0.71757,-0.29052 -1.38117,-0.70819 -2.06162,-1.07471 z m 3.77977,-6.7379 c -1.05044,-0.41614 -2.93863,-2.74129 -1.06853,-2.0828 0.19798,-1.413 3.08873,-1.34139 1.12197,-2.01697 -0.57463,-0.72274 2.2568,-1.69543 2.45159,-1.13275 2.55935,0.0322 -0.0999,3.66877 0.17817,5.18821 -0.0126,2.52081 -1.50826,0.73887 -2.6832,0.0443 z m 2.83482,-4.10608 c -2.47133,-1.17257 -1.12318,1.99464 0,0 z m -14.81667,3.60065 c -0.72504,-0.98832 -0.54389,-1.16486 0.15857,-1.00387 -0.45058,-2.98086 1.61562,3.27772 -0.15857,1.00387 z m 8.8658,-1.84844 c 1.26871,-1.495 -1.56268,-0.0523 -1.69505,-2.04805 -1.84184,-1.57589 1.7844,-2.42899 1.11009,-1.04201 0.97665,0.58005 0.26975,1.26727 -0.083,1.85997 1.36823,0.85663 3.29154,-2.17221 3.56251,-1.42004 -1.10354,0.70478 -1.71932,2.1622 -2.89454,2.65013 z m 7.80295,-0.0555 c 0.47114,-0.98383 0.66027,-4.25128 1.69608,-3.614 0.37625,0.1875 2.36243,0.11337 0.98519,1.3258 -0.85378,0.77946 -1.6578,1.75618 -2.68127,2.2882 z m -11.08235,-2.29747 c -1.25931,-2.07867 1.8969,1.29899 0,-2e-5 z m 10.18002,-1.5208 c -0.008,-1.3183 1.57697,-1.1342 0.45168,0.19951 -0.0671,0.45868 -0.51825,-0.0202 -0.45168,-0.19951 z m -3.68173,-0.73527 c 0.2611,-1.21378 1.21288,-1.54548 0.54082,0.0413 0.20481,0.54557 -0.54268,0.27719 -0.54082,-0.0413 z m 24.74531,-9.47049 c -1.2079,-1.69976 3.00506,0.11022 0.70268,0.30553 l -0.38459,-0.0985 z m -30.39453,-2.53379 c 0.918,-0.87222 -1.56383,-1.8138 0.23341,-2.31705 1.80093,-1.67899 1.72969,0.49181 0.043,0.93572 0.25472,1.22458 2.55338,-2.17392 1.73828,-0.14318 -1.62952,0.58826 -0.39858,1.97469 -2.34644,1.96774 l 0.33171,-0.44323 z m 5.06037,-1.57632 c 0.86439,-1.96443 -3.18778,-0.81932 -1.16914,-1.48513 1.99495,-1.69219 1.41107,2.83616 1.16914,1.48513 z m 3.43422,-3.50132 c 0.64747,-1.23735 2.39191,-1.54703 1.89651,0.36144 -0.63997,-2.6077 -1.72084,1.31819 -1.89651,-0.36144 z m 5.59368,-0.77234 c 0.48007,-2.03349 1.97607,1.07984 0,0 z m 2.09813,0.0321 c -0.99838,-0.91907 -1.26516,-1.60186 -0.0279,-0.37725 0.60345,0.5876 2.178,-0.86693 0.70795,0.43251 -0.19518,0.1855 -0.50913,0.12375 -0.68,-0.0553 z"
         id="path2770" /><path
         style="fill:#56aba4;stroke-width:0.264583"
         d="m 125.76719,212.69668 c 0.97486,-0.78119 -2.33627,-0.11276 -0.4832,-1.5917 1.83499,-1.43089 3.66028,-2.89034 5.63536,-4.24312 3.12959,-2.2011 6.46289,-4.08307 9.78994,-5.95572 1.30192,-1.39615 -2.05219,0.49332 -2.58295,0.70788 -2.16808,1.0925 -4.3113,2.23343 -6.46652,3.35096 0.14749,-1.60623 1.03414,-3.11437 0.99674,-4.70268 -1.13822,0.65032 -1.26688,2.69532 -1.89733,3.99609 -0.30209,0.81776 -0.44708,1.75682 -1.36064,2.1025 -1.35208,0.9295 -2.70416,1.859 -4.05624,2.7885 1.37969,-3.14144 3.0076,-6.17673 4.84873,-9.07056 3.7233,-2.16006 7.70578,-3.90288 11.70238,-5.50198 2.31911,-0.9889 -1.88371,-0.36794 -2.51315,0.30406 -2.47475,0.94033 -4.86634,2.28605 -7.45687,2.82136 1.65339,-2.29993 3.53257,-4.51652 5.60215,-6.47434 0.84662,-0.51102 2.69084,-3.66297 0.41953,-1.7121 -1.14348,0.85922 -2.42128,2.53935 -2.70413,0.26103 -2.16316,-0.48539 0.62265,-2.58195 1.5297,-3.47139 0.71983,-1.63321 -2.96325,1.5591 -3.95691,1.91765 -1.13651,0.47362 -0.14096,-1.59362 0.66844,-0.79483 -0.57234,-0.2464 -1.1453,-1.78243 -0.29443,-0.87759 0.15982,-1.21632 -1.51009,-2.51838 -1.87882,-1.74701 0.28592,1.51337 -3.84874,1.38442 -1.22715,2.68797 0.0536,0.57913 0.82845,1.39877 0.0837,1.35005 -0.37137,-1.40117 -2.91259,0.35972 -2.94915,-1.83678 0.70759,0.11551 0.76513,-3.37207 -0.36996,-1.1703 -0.0698,2.22626 -2.37762,1.07808 -0.994,-0.078 0.70406,-0.6012 -0.0661,-1.00398 -0.52679,-0.58896 0.55203,-2.17966 0.92799,-4.58085 -0.05,-6.70466 0.032,-1.50728 2.16017,1.56289 2.00969,-0.77002 -1.10771,-1.2061 1.10011,-0.01 1.41659,-1.42293 1.14827,-0.71168 0.34604,2.26709 0.90174,0.63967 2.27606,0.79146 -1.27426,-2.22185 0.41677,-1.1025 0.90431,0.32885 1.3814,-0.64591 1.12388,1.00798 0.50218,0.34628 3.34471,-0.84642 2.57989,-2.25992 -0.22033,-1.44356 1.76127,-2.73451 0.57835,-0.71884 -0.82016,1.96601 0.99937,-1.18262 2.02448,-0.33905 1.7725,-0.80536 1.05971,-0.21616 0.85178,1.21327 -1.24367,1.20038 0.39237,-1.38069 -0.84432,-0.13501 -0.56311,0.60936 -0.59332,2.98117 -0.80229,0.87359 -1.97716,-1.31323 -1.21812,2.70018 0.25409,2.71068 1.94919,-0.8554 -2.0088,-0.8594 0.16958,-1.35968 0.28995,-1.68183 1.66049,-1.25906 0.75038,0.11868 0.431,-0.33479 1.57192,-2.83316 1.88495,-0.45853 1.28761,-0.0792 -0.53127,1.93341 1.29092,0.88598 2.47225,-1.09235 -0.54465,2.95662 1.85015,2.26952 2.07621,-0.0296 2.72416,1.62844 3.09199,3.57827 0.68426,-1.25538 1.30223,1.71418 -0.068,1.3538 -1.08735,0.85072 -0.74455,0.41382 -0.17449,-0.35872 -1.32641,0.70476 -0.5745,3.4241 -1.83374,3.56307 1.85413,-0.28418 0.95426,3.27565 1.91339,0.96508 0.97753,-1.42463 1.66726,1.57971 -0.0302,0.60717 1.64254,2.1336 1.3988,-1.22568 1.06049,-1.48997 2.17028,-0.14714 -0.4482,1.88251 1.2858,1.79994 -1.30637,1.52502 3.13682,-2.60176 2.49478,0.50913 0.49088,2.67842 0.44811,5.6965 -1.35981,7.89711 0.18504,-2.53556 -0.51363,1.75747 -1.84066,1.61136 -1.92865,1.61808 0.33332,3.32251 1.63294,2.53264 1.48147,-0.13105 -0.66783,3.76167 -1.89168,4.30241 -1.82637,0.32912 -3.17224,2.63809 -4.72915,0.8448 -1.62614,0.24941 -2.13713,4.34033 -3.93042,3.28982 -0.60586,0.40756 -0.83653,1.18608 -1.61102,0.25572 -1.40079,0.76093 -2.96178,0.20124 -4.35152,1.43795 1.15106,-1.42502 -1.13999,-1.85296 -1.4625,-0.89525 -0.80576,0.61806 -0.0221,1.61832 -1.75162,1.21393 -0.73737,-0.0321 -1.8877,0.2376 -2.40963,0.0625 z m 17.52864,-10.54772 c 0.38148,-1.10077 0.67986,1.26361 1.33079,-0.36286 1.61601,-0.95312 0.80581,-5.36056 -0.51144,-2.48095 -1.72549,0.67634 -1.71987,1.80084 -1.34839,2.84381 -0.6713,0.58052 0.63844,0.48373 0.52904,0 z m 3.53359,-6.01927 c 0.21982,-2.74268 -3.46852,-0.18179 -0.63248,0.44812 0.32863,0.31166 0.66095,-0.16154 0.63248,-0.44812 z m -5.2677,-2.77006 c 0.0301,-0.89499 -2.20465,-0.32686 -0.37598,0.43322 l 0.20304,-0.11446 0.17294,-0.31878 z m -0.37325,-2.43807 c -1.02812,-1.48609 1.26822,0.5334 0.85273,-1.3724 -0.56346,-0.29237 -0.41554,-0.18876 -0.71808,-1.10451 -0.53512,0.16513 -0.43503,-1.95638 -1.03144,-0.22674 -0.22063,0.97545 -0.33905,3.295 1.02065,3.0683 l -0.12352,-0.36463 z m 2.06688,-0.51145 c 1.02325,-0.58753 0.11499,-2.3256 -0.001,-0.85283 -1.08611,-0.35287 -1.03995,2.30122 0.001,0.85283 z m -1.23031,-2.47007 c -0.26554,-0.67973 0.95484,-1.85554 -0.45257,-0.81764 -0.88194,0.6813 1.07245,1.98896 0.45257,0.81764 z m -6.53442,-3.38587 c -0.69015,-0.57878 1.18469,-1.27545 -0.53034,-1.33839 -0.20121,-0.99593 -0.50115,-0.8642 -0.68135,-1.42675 -1.0171,1.38626 0.94563,1.49073 0.76379,2.95701 0.1656,0.12895 0.37921,-0.0454 0.4479,-0.19187 z m -1.71979,-2.54594 c -0.65208,-1.33447 -0.96755,-0.88433 -0.29972,0.40672 -1.72257,-1.16315 -0.83963,1.24612 0.18314,-0.0525 l 0.11658,-0.35416 z m 4.70193,-0.0505 c -0.47997,0.0997 -1.73164,-1.85124 -1.20544,-0.0888 0.58017,0.0629 0.66875,1.12205 1.20544,0.0888 z m 5.45146,0.004 c 0.0786,-1.64436 -2.35004,0.36523 -0.1133,0.10502 l 0.1133,-0.10503 z m -11.4763,-0.71497 c -0.18154,-0.45023 0.66413,-1.34575 -0.51677,-1.54297 -0.73941,0.30774 -0.46187,2.43669 0.66256,1.74486 l -0.14579,-0.2019 z m -2.11667,-1.73979 c -0.19616,-0.87928 1.80468,-1.43214 0.12308,-2.06258 -1.19325,0.0599 -2.3984,2.48605 -0.56853,1.50756 0.23858,1.17092 -0.54371,2.44769 -0.34001,0.59024 -1.34829,1.11386 1.23359,1.82422 0.78546,-0.0352 z m 8.72688,0.68416 c 1.17145,-1.66943 -2.58846,-3.48304 -3.04842,-1.31472 1.25751,-0.11839 0.0992,1.62774 1.9828,1.57146 0.37157,0.0262 0.74999,-0.0611 1.06562,-0.25674 z m -5.22785,-1.54503 c 1.07523,-1.35515 -1.96763,-2.01733 -1.5742,-0.51752 1.413,-1.50212 0.16786,0.37593 -0.0367,0.97383 0.47299,0.30246 1.24022,-0.13751 1.61089,-0.45631 z m -5.16202,-0.1549 c 0.42497,-2.91673 -2.50597,2.21092 0,0 z m -8.01185,33.32385 c -0.79113,-0.75373 -5.20209,0.41118 -2.43204,-0.59502 0.89243,-0.61508 3.81576,-0.0473 2.67945,0.78185 l -0.24741,-0.18693 z m -6.3986,-0.7248 c -1.53945,-0.83943 0.47299,-0.65985 0.32837,-0.64637 0.17658,-1.06824 0.28659,-0.13162 1.13805,-0.97361 -0.44024,0.83995 1.82681,0.85823 0.17296,1.64774 -0.52483,0.22435 -1.10497,0.0533 -1.63938,-0.0278 z m -5.93804,-1.33463 c -0.94155,-1.16325 -0.62889,-1.94988 0.0893,-0.23046 1.07317,-0.21362 0.46266,1.31544 -0.0893,0.23046 z m 9.0469,-0.31494 c -1.20204,-0.42527 -1.96877,-1.30606 -2.85197,-0.56867 0.0202,-1.50945 -1.18482,0.4801 -0.99553,-1.21763 0.81322,-1.31551 0.37535,-1.25634 -0.80045,-0.61838 -0.98169,-1.45969 2.45854,-2.46928 3.40208,-0.88443 0.82522,0.008 3.0755,2.67282 1.77507,1.81812 -0.40307,-1.27789 -0.88728,1.47753 0.20428,0.76004 -0.0975,0.0427 -0.79076,1.46295 -0.73348,0.71095 z m -12.32081,-2.54666 c -0.95075,-1.36838 -2.34863,1.04425 -3.41499,-0.81076 -2.514854,-1.23193 -2.969876,-4.51923 -2.457946,-6.99886 0.855086,-1.14545 0.901506,-1.0619 0.225014,-2.33383 -0.850806,-1.73978 2.167762,-4.45794 1.587382,-1.26869 -0.33699,1.1248 1.01258,3.69151 0.16903,3.81266 -1.516614,0.32323 -0.007,3.16071 0.67969,4.34996 0.81202,1.8295 2.8755,1.15232 4.24291,1.64945 0.89541,0.18239 -0.67611,1.43925 1.01809,1.30131 0.92562,-0.65195 1.78448,1.34681 0.13657,0.45993 -0.85682,-0.6323 -1.62077,0.91736 -2.18575,-0.16117 z m 18.67081,-1.45691 c 0.34091,-2.75631 2.50039,-4.82677 3.81907,-7.16862 1.73692,-2.7197 -1.59194,0.54089 -2.01834,1.54948 -0.66102,1.02746 -2.3226,3.54928 -1.64235,0.70893 -0.11923,-2.83623 2.26831,-4.50656 4.11273,-6.23629 1.54619,-1.40268 3.23784,-3.10267 4.9034,-4.08981 0.79693,-1.74068 3.05528,1.19932 1.45952,2.56147 -4.13409,4.06938 -7.44741,8.87061 -10.53749,13.7522 -0.11477,-0.34798 -0.0802,-0.71842 -0.0965,-1.07736 z m -3.41652,0.37583 c -1.76542,-1.95546 -3.27107,-4.24636 -4.25235,-6.69285 0.0951,-2.40755 3.09888,-0.60095 4.18318,0.50145 0.51158,0.59903 1.62504,0.93601 1.74661,1.70484 -0.042,1.29692 -0.0894,3.51302 -1.40481,1.45713 -0.79949,-1.2368 -1.69861,-1.01754 -0.66029,0.29687 0.3895,0.6936 3.2286,4.28524 0.38766,2.73256 z m -4.70375,-1.48735 c -1.07816,-0.54434 -2.74699,-1.24196 -1.79962,-2.44074 -1.38723,0.25284 0.95949,-0.93155 1.03526,-1.64733 1.19946,0.9813 2.88783,4.16327 3.06719,5.25028 -0.78724,-0.34636 -1.54541,-0.75613 -2.30283,-1.16221 z m -11.40391,-1.52555 c -1.08799,-0.42915 -0.78674,-1.68812 -2.04236,-1.53164 0.56588,-1.27185 1.57791,-1.36928 2.28687,-2.81939 0.1905,0.7151 -1.5549,2.75939 0.73146,2.18909 1.70995,-0.40816 2.29012,4.1834 0.58722,1.93514 1.90148,0.65511 0.0832,-1.44074 -0.5397,-0.14733 -1.08687,-0.007 1.1162,1.21356 -0.73052,0.72185 l -0.29297,-0.3477 z m 0.47418,-1.08046 c -0.59225,-1.32882 -0.89684,1.77958 0,0 z m 7.29683,-0.60821 c -0.0237,-1.31199 0.57296,-1.89046 0.31858,-0.23105 0.0274,0.84123 -0.57791,1.71415 -0.31858,0.23105 z m -1.21142,-0.25757 c 1.00672,-1.33416 -0.3211,-2.80266 1.87338,-3.18971 0.11787,-1.10123 1.84481,0.4192 0.48184,0.62974 -0.31783,0.28467 -0.9254,1.46989 -0.57325,0.28691 -0.78359,0.59834 -0.69516,2.07533 -1.78197,2.27306 z m -3.43958,-0.90283 c -0.84121,-0.29466 -1.72934,-1.18866 -0.54933,-1.51023 -0.41814,1.0286 2.54998,1.87835 0.54933,1.51023 z m 13.15959,-1.64989 c -0.95556,-1.12573 -3.22318,-1.67941 -1.24632,-2.38308 0.93109,-0.52806 1.18482,-1.05621 2.27794,-1.21702 -2.18577,1.66676 3.23967,-0.26702 1.42808,2.25388 -0.45519,1.38415 0.2297,3.62761 -2.4597,1.34622 z m -17.12834,-0.25327 c 0.85662,-0.49968 1.3372,-0.90898 0.87045,-1.77155 1.91535,1.59259 -0.45464,-2.94061 1.14968,-0.54343 1.19662,1.5643 -0.62636,2.88301 -2.02013,2.31498 z m 7.77752,-0.70377 c -0.9524,-1.35004 1.1152,-2.23928 1.37359,-2.64978 -1.17697,0.0145 0.13445,-1.8252 -0.0318,-0.41175 1.72383,-0.75449 4.38122,2.74282 1.99736,3.05776 -0.80764,-1.30785 -2.72373,-2.25634 -2.82584,-0.10908 l -0.22984,0.13889 -0.28347,-0.026 z m 13.73323,-2.01802 c 0.51,-1.4601 0.71647,-4.10224 2.47014,-2.48804 1.09387,0.10901 -2.08619,2.57781 -2.47014,2.48804 z m -21.94424,-0.58551 c -0.775,-0.78419 1.95361,-2.00276 0.52546,-0.50764 0.14504,0.34128 -0.60479,1.54056 -0.52546,0.50764 z m 6.97744,-0.0711 c -0.67635,-0.63717 -1.92879,-0.37008 -0.45857,-1.6596 -1.28292,0.59686 -0.5234,-1.78009 -1.43769,-1.65914 0.1052,-1.92876 -3.97746,0.44162 -1.54071,-1.3174 1.97016,-1.336 2.04379,2.61028 3.36203,1.11233 -0.30553,1.09686 3.34864,1.23585 1.40099,2.94654 -0.31193,0.39423 -0.80899,0.68226 -1.32605,0.57727 z m 5.75967,-0.7888 c -0.0381,-0.66929 -1.48956,-1.66843 0.34899,-1.84793 1.35617,0.62461 -1.05687,-0.19697 0.21264,0.94923 1.01111,0.68576 -0.94619,1.64596 -0.56163,0.8987 z m -14.42029,-0.5424 c 0.96107,-2.02974 1.165,0.5273 3e-5,0 z m 6.35,-1.11977 c -1.5197,-0.70848 -0.55211,-1.98304 0.19716,-0.21244 0.33471,0.32296 0.0224,0.81461 -0.19716,0.21244 z m -4.63183,-0.96929 c -0.25699,-1.62302 -1.3248,-2.75452 0.48723,-4.01401 0.8466,-2.37992 3.13098,-3.61846 5.51065,-3.99074 1.29947,-0.56571 2.13669,-0.26596 1.90662,0.91735 0.58014,-1.26702 -0.43347,-2.24374 0.78327,-2.26781 -0.16793,-0.76006 -0.48424,-2.54668 0.4588,-1.47329 2.87491,-0.48709 2.84909,3.7679 1.44446,4.9977 -0.39124,0.38799 -0.55449,2.45394 0.81858,1.40445 -0.72348,-2.38307 1.03961,1.76019 -0.8664,1.65025 -0.5039,-2.4275 -1.04856,3.27737 -0.99989,2.9e-4 -0.44425,-0.37728 -0.97576,1.45924 -1.33277,-0.27835 -0.87205,-1.05556 1.54663,-4.13706 -0.65327,-2.10764 -0.47893,0.42702 0.0414,2.37481 -0.61489,0.91499 -0.65707,-0.14232 0.49121,-1.03308 -0.0831,-1.58252 0.84745,0.26035 1.74168,-1.06598 0.448,-0.19907 -1.18051,-1.00428 -1.89118,1.79463 -2.77742,2.30407 0.27383,1.96228 -2.01115,-1.2231 -0.19516,-0.4771 1.15957,-0.68159 1.18283,-3.11604 0.11347,-0.88732 -0.73882,1.29346 -0.21697,-0.95139 -1.22824,0.66237 -1.0005,1.41652 -0.53748,-0.55067 -1.35836,0.80143 -0.77841,0.90722 -1.54567,2.14965 0.0998,2.44264 -0.69654,0.96641 -1.71464,-0.84008 -1.27089,0.92315 -0.35059,0.6632 -0.91657,2.23175 -0.69052,0.25916 z m 10.3866,-9.53923 c -0.85216,-2.06306 -2.16339,1.70459 0,0 z m -1.85216,9.95689 c -2.63105,-1.96369 3.6556,-1.79738 1.23692,0.27945 -0.39493,0.41293 -0.9035,-0.0552 -1.23692,-0.27945 z m 17.68188,-1.2115 c -0.86754,-1.33509 1.69219,-0.23809 1.6948,-0.58449 -0.30482,0.90089 -1.09819,1.90429 -1.6948,0.58449 z m -20.28246,-0.41116 c 0.59571,-0.97147 -2.54318,-0.36384 -1.1238,-0.80564 0.15807,-1.15203 2.17888,-0.29307 2.9554,0.60481 -0.65176,0.38885 0.11791,1.51699 -1.24514,0.68784 -0.28178,0.94574 -0.64968,-0.0981 -0.58646,-0.48701 z m 6.51139,-0.18516 c 1.33225,-0.5702 0.0353,-2.91715 1.24388,-2.9509 -0.0434,0.94778 -0.0939,3.57518 -1.24388,2.9509 z m -6.10343,-1.35207 c -2.895,-1.3019 2.71695,0.2078 0,0 z m 21.49301,-0.91295 c -0.51493,-2.06665 1.73885,-0.98662 0.51766,0.75225 -0.0315,0.6057 -0.41281,-0.6809 -0.51766,-0.75225 z m 13.22957,-0.38158 c 0.59378,-1.10954 4.38621,-0.10289 1.4983,-0.13718 -0.36511,-0.10949 -1.72941,1.00677 -1.4983,0.13718 z m 3.21676,-0.71867 c -0.92838,-0.70437 -0.82169,-2.90304 0.1355,-0.88672 0.34602,0.44087 0.92617,1.44238 -0.1355,0.88672 z m -30.97749,-3.4102 c -0.21307,-2.55635 1.27861,6.9e-4 0,0 z m -0.93,-1.35653 c -0.65009,-3.1854 1.87306,2.52109 0,0 z m 1.81386,-0.0172 c -0.13585,-1.13998 2.65717,-0.2303 0.67071,-1.19475 -0.61305,-0.7885 1.75865,0.0973 0.56386,-1.0099 1.38767,-0.84502 2.58302,-2.39439 2.98275,-3.50893 1.04731,1.95682 -3.10241,3.55785 -2.25924,4.89987 -0.46968,0.37343 -2.18407,1.0853 -1.95808,0.81371 z m 7.15775,-2.20956 c -0.58861,-2.1183 1.39734,1.19452 0,0 z m -9.46283,-2.39564 c 0.32544,-1.03742 2.03027,-1.08851 0.54261,0.14142 l -0.31117,0.0167 z m 6.63734,-1.55068 c -1.59353,0.0718 0.14622,-3.12148 -0.2205,-0.72491 0.0726,0.2972 0.97771,1.47242 0.2205,0.72491 z M 119.11663,174.88 c -1.48394,-0.27137 0.86047,-2.09519 0.30425,0.13786 0.16362,0.54538 -0.47335,0.005 -0.30425,-0.13786 z m 19.08597,-0.2675 c -1.85766,-1.0108 1.32669,0.29421 -0.0214,-1.03798 1.18732,-2.21938 2.27509,2.76643 0.0214,1.03798 z"
         id="path2768" /><path
         style="fill:#46a39b;stroke-width:0.264583"
         d="m 126.27479,212.30215 c -2.96204,0.13125 0.15023,-2.40789 1.22226,-2.75761 3.29852,-2.95426 7.22229,-5.13828 11.03545,-7.36301 0.8695,-0.23393 4.53289,-2.74432 1.65191,-1.60701 -2.87507,1.38943 -5.68528,2.90732 -8.52126,4.37381 -0.0224,-1.50071 1.63431,-3.75937 0.75162,-4.58936 -1.49462,2.03615 -1.25882,5.15009 -3.69245,6.44553 -0.84644,0.83871 -3.45032,2.07926 -2.16621,-0.22845 1.25095,-2.36704 2.44931,-4.86338 4.18587,-6.89479 3.63787,-1.82962 7.29497,-3.75022 11.20774,-4.91838 1.40643,0.24663 2.6247,-0.6119 1.05977,-1.74205 -0.0813,0.93693 -2.01389,0.9568 -1.10392,-0.18543 -0.12012,-0.4702 -2.96189,-2.30598 -2.76462,-0.63738 0.78847,-1.25923 1.64333,1.57134 1.24839,2.25294 -2.69247,1.06872 -5.3359,2.2733 -8.07352,3.21869 0.2073,-1.4118 2.65159,-3.8902 4.10968,-4.96421 0.21928,-1.71565 2.28798,-0.81951 2.10221,-2.5953 1.74456,-2.3352 -2.05324,-0.63272 -3.07814,-0.35806 0.7708,-0.8935 -0.77828,-1.3511 0.69515,-1.72691 -1.49791,-0.70563 3.08479,-3.21783 0.99352,-2.48542 -1.27337,1.61257 -2.19034,-0.23745 -1.32202,-1.14551 1.28341,-1.53387 -2.70532,-2.83263 -1.62962,-2.90218 1.47128,0.68077 -1.28659,-1.22271 0.2186,-1.74632 1.5409,-2.25539 3.76382,3.12624 5.08878,-0.27794 0.15506,-1.63567 -5.54811,-2.45309 -2.61994,-2.43197 0.6296,0.59425 1.20453,-0.52507 1.00717,0.62191 1.09371,0.71426 3.17184,-1.5041 2.8302,0.65692 -1.17242,0.36378 0.57395,1.91979 -0.71733,2.79553 -0.17754,1.58024 1.91841,1.81177 1.50691,3.62737 0.94349,1.71333 -2.00092,2.171 -1.52247,4.27093 -0.43266,1.51718 1.60814,3.7191 1.75937,1.40933 0.40567,-0.7866 0.67932,-3.8461 0.83523,-1.17298 0.0795,0.82444 -0.60464,2.0888 0.62528,2.22783 0.99926,0.76918 1.70541,0.40024 2.38019,-0.23594 0.77329,0.26654 1.89622,-1.96716 3.23229,-2.25475 0.89053,0.0786 0.75917,2.54317 0.85218,3.55539 0.19696,1.48736 -0.83658,5.37686 -1.37398,4.7827 0.052,-2.22299 -1.27861,3.15995 -1.47663,1.25677 -0.92113,1.00423 -1.19919,1.66619 -1.1701,-0.14067 -1.40762,-1.45129 -2.10192,2.98615 -3.38714,1.05204 1.12514,-0.35126 1.05198,-1.61105 -0.20197,-0.95975 -0.90057,1.53097 0.86297,3.23787 0.0779,4.77288 0.99041,-0.49873 2.51294,-0.87255 3.18353,-1.74768 1.22708,0.86218 -1.75689,3.6786 0.54379,2.73122 0.36504,0.5708 -0.14302,2.24271 0.16481,1.72136 1.47227,-1.27242 0.91184,-3.98428 2.22502,-3.58175 -0.24612,1.73333 -1.50823,4.5006 -3.54133,4.49677 -1.38813,0.10418 -1.99448,1.98115 -3.11809,0.32027 -1.38251,0.22802 -2.78398,0.78349 -2.30595,2.04264 -1.0866,1.69934 -0.0948,-2.01117 -1.20159,0.14848 -0.67126,1.52447 -0.69913,0.18365 -0.81342,-0.1846 -0.73202,0.51931 -2.3,2.50577 -2.44617,2.03911 0.40093,-1.57714 -2.61375,1.46838 -2.94445,-0.13891 -0.93045,-1.21449 -3.64603,-1.31344 -3.19945,0.13062 2.19578,2.01955 -1.50773,1.24939 -2.40304,1.02328 z m 19.80104,-15.57412 c 2.00497,-0.20034 0.25547,-3.3994 -1.04583,-1.37053 -0.0215,0.36454 0.90174,2.1357 1.04583,1.37053 z m 1.71792,-3.85779 c 0.8743,-0.94633 1.62325,-1.47642 -0.14231,-1.01278 0.18678,0.8611 -1.20719,0.84781 -0.38447,2.01776 0.2587,-0.27982 0.4694,-0.62215 0.52678,-1.00498 z m -9.26042,-0.6985 c -0.84214,-0.0555 -1.52508,-0.92288 -0.93645,0.65108 0.37811,0.002 0.76586,-0.32708 0.93645,-0.65108 z m 0,-10.03418 c -0.18504,-1.61727 -3.35267,-1.61004 -1.43955,-0.0605 0.35957,-0.42171 1.1085,0.98326 1.43955,0.0605 z m -2.91041,-2.06807 c -0.40644,-1.26243 -1.79615,1.14505 -0.15545,0.17458 z m -19.15947,28.72946 c -0.25579,-0.612 -0.90465,0.3073 -1.25108,-0.60929 -0.72476,1.82595 -0.49215,-1.045 -1.47832,0.0335 -0.039,-1.15666 0.74316,-2.61932 -0.98381,-1.34261 -0.79566,-1.07232 2.19013,-2.28831 3.02203,-0.84553 1.05811,0.60403 3.31098,2.03931 1.65213,1.83053 0.25556,0.66956 -0.38902,2.30071 -0.96095,0.93343 z m -11.63787,-2.19762 c -0.63905,-1.19136 -1.16175,-0.0814 -1.7074,0.57471 -1.00819,-0.78632 -2.27716,-1.97728 -0.43586,-2.30262 1.35431,-0.47004 5.29994,2.04008 2.5093,2.06268 l -0.36601,-0.33477 z m 18.90665,-1.11047 c 0.26537,-2.67456 2.36608,-4.69379 3.63746,-6.94764 1.01749,-1.08364 0.68964,-2.27969 -0.3475,-0.63561 -1.04813,1.1016 -2.26112,3.40541 -3.23246,3.82356 0.17288,-1.32127 0.22682,-2.76916 0.61706,-4.0142 1.46932,-1.32681 2.80611,-2.82612 4.44128,-3.94853 1.25136,-0.43044 2.27588,-3.05371 3.47365,-2.31592 0.7706,1.31758 0.75988,-1.75606 2.02042,-0.18854 0.90254,1.88477 -2.6881,3.57359 -3.55303,5.35105 -2.60116,3.02567 -4.73449,6.4077 -6.89121,9.75183 -0.31245,-0.007 -0.0623,-0.70636 -0.16567,-0.876 z m -3.26259,0.34014 c -1.67609,-1.95224 -3.943,-4.19485 -4.03369,-6.87779 1.75136,-1.80156 3.95676,0.88554 5.35601,2.03405 0.40101,1.22346 0.094,4.12735 -1.22027,1.7586 -2.34035,-2.36999 -0.22182,1.37955 0.53123,2.26344 0.76313,1.05541 0.597,1.61304 -0.63328,0.8217 z m -20.09359,-0.57319 c -0.873789,-0.42621 -1.475397,-3.85124 -1.054939,-3.26019 0.349512,0.84198 0.954349,2.70244 0.817599,0.69373 -0.710863,-1.98266 1.36304,0.73794 1.24647,1.38369 1.81356,-0.2884 -0.50717,1.65574 -0.69969,0.42283 -0.60378,0.62604 1.30391,1.83214 -0.3094,0.75999 z m 15.46926,-0.83297 c -1.41006,-0.57979 -2.34978,-1.45725 -1.91818,-2.54698 -0.83116,-0.83887 0.94676,0.23093 0.42958,-0.76446 1.18635,0.59741 -0.44826,-1.58727 0.97906,-0.23717 1.0852,1.5594 1.92126,3.10785 2.77804,4.69051 -0.79031,-0.30056 -1.52032,-0.75133 -2.2685,-1.1419 z m -16.732979,-3.20192 c -0.855288,-0.97605 0.920309,-2.27278 0.545654,-1.05834 -0.443856,0.17982 -0.257797,0.78746 -0.545654,1.05834 z m 21.499699,-2.84633 c -2.19828,-0.50431 -1.2787,-3.77427 0.3831,-1.91241 0.26458,0.815 2.93931,-2.06738 1.92118,0.64381 -0.33318,0.90131 -0.28523,3.4139 -1.54667,1.83025 -0.25249,-0.18724 -0.5054,-0.37429 -0.75761,-0.56165 z m -20.865421,-0.10497 c 0.787481,-0.19264 -0.403654,-1.54714 0.477181,-1.93653 0.75424,0.52723 1.25925,2.99004 0.21359,1.91125 0.0281,0.47541 -0.586014,0.34269 -0.690771,0.0253 z m 14.638671,-0.91204 c 0.6878,-1.14315 0.16907,-1.62522 -0.42122,-2.53616 1.47587,0.22393 2.14549,2.05131 0.42122,2.53616 z m -13.8858,-1.33897 c -1.097117,-0.80378 0.62816,-2.98569 0.13633,-0.78503 -0.37087,0.26556 1.09251,0.94467 -0.13633,0.78503 z m 12.69835,-5.3e-4 c -0.91224,-0.8699 0.33895,-3.06789 0.27683,-0.77207 0.37368,0.49461 1.01389,1.10598 -0.27683,0.77207 z m 12.05532,-1.81706 c -0.16683,-2.28573 2.90739,-0.25024 0.69448,0.50366 -0.99556,1.09246 -1.28776,1.05018 -0.73953,-0.34179 l 0.0372,-0.13367 z m -15.82398,0.0149 c -1.4905,-0.87922 2.02831,-0.22541 0.0907,0.25275 l -0.0906,-0.25276 z m 6.24788,-0.81695 c -1.66316,-0.46754 1.29166,-1.10535 0.42332,0.41364 l -0.2335,-0.12151 z m -6.19993,-0.3799 c -0.96021,-0.46216 0.14339,-2.00451 -0.10492,-0.43567 1.3687,-1.92475 0.9687,2.11585 0.10492,0.43567 z m 1.83222,-1.55728 c -1.37968,-1.26965 1.13502,-1.01959 1.11814,-0.79573 0.98455,-0.79707 0.16627,1.37766 -0.22809,1.2649 -0.33741,-0.0691 -0.62155,-0.26724 -0.89005,-0.46917 z m -1.82446,-1.23112 c -0.4834,-0.83645 1.92388,-0.59035 0.53297,0.38069 l -0.23321,-0.0995 -0.29977,-0.28118 z m 26.6672,-0.0797 c 1.46324,-1.84591 1.9577,0.54338 0,0 z m -33.86666,-1.31124 c 1.66862,-2.10706 2.88776,-5.21591 6.05439,-5.33136 0.61862,0.3587 -3.70897,1.40493 -1.13042,1.64766 -0.78206,1.01392 -2.07689,1.17219 -1.48132,0.0883 -0.63727,-0.007 -2.05798,1.73555 -0.6515,1.30805 -0.54395,0.58773 -1.84141,2.04192 -2.79115,2.28737 z m 10.06915,-0.55757 c -0.78103,-0.10572 -1.86991,-0.97532 -0.23718,-0.98901 1.15161,-1.00168 -0.51066,-0.99595 -0.0331,-1.92976 -0.32765,-0.6727 -0.0967,-1.81515 -1.04125,-1.54424 0.18642,-1.18704 1.46607,-2.44987 1.03449,-0.8544 0.91658,-0.45719 2.22837,-2.40592 2.49168,-0.85585 -0.93176,0.62519 0.39716,3.23484 -1.27796,3.00641 0.47967,-1.28906 -0.18423,-1.51114 -0.60912,-0.0329 0.90611,0.68497 -0.11084,2.09788 1.49269,2.47209 -0.44959,1.16067 -0.52633,0.75608 -0.86255,0.1728 -0.71715,0.16791 -0.38168,1.70995 -0.9577,0.55491 z M 134.3,186.67914 c -1.76253,0.0658 0.16118,-1.75173 -1.50452,-1.75079 -1.04772,-0.5653 -2.199,-0.9751 -2.92312,-1.90196 -0.17414,1.16829 2.39983,2.03365 0.0294,2.35455 -0.90604,-0.0247 -1.36336,-0.0372 -1.08539,0.92147 -1.9275,0.88021 0.58491,-2.5183 0.5205,-3.39476 1.65576,-1.73013 -0.55431,-0.0421 -0.80285,0.82343 -1.38768,0.47126 0.92761,-2.50058 -0.77423,-0.79434 -0.62035,0.90907 1.14472,2.45822 -0.8681,1.84531 1.04968,-0.62393 -1.97133,-1.44143 -1.00814,-2.8795 0.45881,-1.07295 -1.05588,-4.50088 0.47056,-3.1187 0.61465,-0.40606 0.0525,0.93758 1.08854,0.16537 1.69298,-0.6361 2.15426,4.04149 2.90653,1.27795 0.48344,-1.74482 1.76185,-4.11464 3.40138,-4.13963 -0.58373,0.91168 2.38698,3.28949 0.32235,1.79123 -0.88232,-1.84613 -2.46569,0.0525 -2.32653,1.00814 -1.2617,0.5123 -0.95274,4.46639 1.10514,3.68941 -0.39652,1.69963 1.25457,-0.96452 1.02745,0.56075 1.732,-0.21698 -2.45356,2.15259 -0.14912,0.82602 1.46806,-0.0121 1.81919,2.25007 0.44264,2.14474 0.44765,0.19923 0.73638,1.30059 0.1275,0.57131 z m -4.40224,-1.7281 c 0.0292,-3.34693 -1.28255,1.61527 0,0 z m -3.00609,-2.27726 c 2.2566,0.1986 -2.07726,-1.98699 -0.56352,0.2472 0.20383,0.11341 0.53322,0.0131 0.56352,-0.2472 z m 16.18366,1.19641 c -0.7128,-1.16409 1.48208,-1.58043 1.01209,-0.10977 0.65083,0.5155 -0.9231,0.70125 -1.01209,0.10977 z m -10.20467,-3.74398 c -0.72416,-1.03787 2.2899,-1.8926 0.90017,-0.62743 0.0101,0.40312 -0.49544,0.94315 -0.90017,0.62743 z m 9.24169,-0.0584 c -2.08288,-0.0238 0.7126,-1.07024 0.43773,0.25302 l -0.24464,-0.0743 -0.1931,-0.1787 z m -14.69152,-2.1126 c 1.10431,-2.75114 0.56872,1.92535 0,0 z"
         id="path2766" /><path
         style="fill:#2c968d;stroke-width:0.264583"
         d="m 125.96296,212.06652 c -2.68297,-0.97016 2.66349,-2.84518 2.34484,-1.02305 1.19656,1.12667 -1.33004,1.15571 -1.69607,0.2422 -1.70348,0.28507 1.72344,0.73861 0.0284,1.04322 l -0.40013,-0.0663 -0.277,-0.19574 z m 7.94922,-1.83312 c 0.35684,-1.69817 -1.02623,0.95453 -0.69045,-0.92387 -1.04977,-1.05409 -2.52199,1.74343 -3.13249,-0.27729 -1.37934,-0.46819 -1.01573,-0.98597 0.0534,-1.58972 3.49563,-2.6068 7.3991,-4.58143 11.09764,-6.86483 -0.46418,-0.97319 -3.36998,1.22934 -4.64109,1.74061 -1.63957,0.88104 -3.26826,1.78359 -4.93321,2.61631 -0.004,-1.61356 1.56815,-3.46885 0.80396,-4.77003 -1.44006,1.84402 -1.29449,4.61274 -3.10389,6.16263 -0.95492,1.28259 -4.23443,2.00133 -2.44627,-0.37892 1.46971,-2.63132 2.54214,-5.93231 5.57758,-7.17261 3.07522,-1.37501 6.08096,-3.02263 9.35061,-3.88475 2.00684,-0.45581 2.95012,1.36908 4.1883,2.24244 0.63404,-0.50682 2.56604,-3.34624 1.87605,-0.97161 -0.6405,1.6805 -0.82411,2.74174 -1.00664,1.09415 -0.76378,1.28847 -2.69241,0.51679 -2.91791,1.74586 -1.2977,-1.88356 -4.13796,-0.51271 -2.17579,1.13424 0.12795,1.32865 0.24263,2.46612 0.30164,3.56697 0.96512,-0.28587 4.22806,-1.50596 1.97441,-0.19455 -0.61336,0.76094 -4.00986,2.26726 -1.96583,2.64905 -0.84555,-1.11845 1.62024,-0.2104 1.64505,-0.067 -0.9444,1.82873 1.75434,-0.22089 0.45934,1.02931 -0.65114,0.26284 -2.50288,-0.6563 -1.79856,0.71549 -0.84793,-1.42886 -4.40087,-1.38499 -4.33806,-0.003 1.26631,0.7162 -1.92671,2.11182 -1.86229,0.28635 -0.4213,0.13973 -4.07628,-1.55172 -2.66175,0.52875 0.5018,0.33228 3.09439,1.8894 0.34629,1.58624 z m 5.32933,-5.22786 c -0.29216,-0.74074 -1.1695,-1.25188 -0.8195,0.0682 0.0521,0.12552 1.47984,0.15084 0.8195,-0.0682 z m 3.07633,-7.65907 c 0.20573,-1.03343 1.10955,-1.04012 -0.39836,-1.05915 -0.85902,-0.71145 -3.24751,0.17595 -0.97528,0.21055 1.96383,-0.15856 -1.4646,1.99579 1.08681,1.27115 0.17965,-0.024 0.40184,-0.22249 0.28683,-0.42255 z m -27.56631,11.08634 c -0.60625,-0.76715 -1.07782,-1.16253 -0.47211,-2.10806 -0.74356,-0.71995 -2.26319,1.35721 -1.01884,-0.44252 1.83039,-2.4123 4.22269,3.33861 1.76827,2.37149 -0.0841,0.0969 -0.31893,1.08861 -0.27732,0.17909 z m 8.97045,-2.89877 c 0.39622,-3.07162 2.93474,-5.29248 4.23741,-7.99729 0.0728,-1.42454 -2.00678,1.74646 -2.44135,2.25797 -0.61459,0.78116 -2.21192,3.35646 -1.59695,0.86889 -0.10668,-2.32429 1.4162,-4.26904 3.28428,-5.3265 1.84226,1.18434 2.82914,-0.39944 2.72484,-2.42132 0.83036,-1.40826 1.04614,1.18958 2.26415,-0.40303 1.00109,1.78411 0.65217,-0.74381 1.74474,-0.0262 -1.01851,2.10875 -3.0608,3.65063 -4.37552,5.62656 -2.12549,2.717 -4.06696,5.57326 -5.83632,8.53372 -0.002,-0.37087 -0.003,-0.74243 -0.005,-1.11283 z m -3.13406,0.29525 c -1.03248,-0.53956 0.58528,-1.6276 -0.8553,-0.63762 -1.15229,-1.56805 -3.02586,-3.69128 -1.97801,-5.72963 1.44804,-1.65813 4.35496,1.10371 4.15059,2.79601 0.10983,3.45018 -2.13445,-1.61092 -2.9168,-0.0835 0.89415,1.08583 2.66476,2.82207 2.3676,4.05591 l -0.31515,-0.11753 -0.45292,-0.28367 z m -3.04973,-0.50936 c -1.17609,-1.34543 1.14907,-0.24997 0.38614,0.23655 z m 3.4665,-6.6784 c -1.46845,-0.21251 -1.33953,-2.47228 -0.0229,-1.51083 -0.32145,0.9834 2.67156,-2.32923 1.81793,0.28728 -0.12253,1.34317 -0.35249,2.65227 -1.79504,1.22355 z m 11.40339,-1.5858 c 0.93467,-1.79096 2.86763,-2.99201 3.87781,-3.60199 0.50652,-0.66541 0.90563,-2.49816 0.79663,-0.48768 -0.76252,0.99185 -0.21338,3.35657 0.68514,1.07057 0.81415,-2.51111 -0.013,1.35944 1.62457,0.41539 0.53665,-0.27625 1.68287,-1.27222 0.81285,-0.0376 -2.69834,1.2262 -5.43463,2.38619 -8.23216,3.36891 0.0822,-0.27584 0.2845,-0.49011 0.43516,-0.7276 z m 16.60209,-1.4582 c -0.037,-0.72469 -0.93192,-0.88167 -0.44529,-2.06746 -1.16385,1.06747 -2.81923,1.40696 -4.14487,0.87505 -2.17044,-1.12956 1.79612,-0.25377 1.38304,-2.07456 0.37465,-1.68172 1.81675,-2.64829 3.18128,-3.4913 0.63629,2.25042 0.88478,4.71959 0.17184,6.9722 l -0.2315,0.30765 0.0855,-0.52156 z m -1.21642,-2.17982 c 0.83294,-1.66078 1.54829,1.2957 1.45414,-0.8599 0.35802,-2.90273 -2.97782,-0.57556 -2.65639,1.25712 0.15851,0.70761 0.9696,-0.20041 1.20225,-0.39722 z m 0.92604,-3.2632 c -0.62937,-1.08993 -0.76991,1.44629 0,0 z m -23.68021,4.93783 c 0.072,-1.25087 2.00187,-1.4014 0.65331,-0.21176 -0.0692,0.0245 -0.66257,0.72332 -0.65331,0.21176 z m 16.98116,-3.6627 c 0.0499,-2.60927 0.80369,0.60654 0.10353,0.97823 -0.10498,-0.31418 -0.0981,-0.65185 -0.10353,-0.97823 z m -2.77564,-1.44517 c -0.66372,-0.48567 0.83845,-1.97184 -0.85511,-1.01636 -0.8683,-0.88247 -2.30428,-2.09711 -0.75279,-3.22403 1.57898,-0.52469 0.37186,-1.69229 -0.35778,-0.30431 -1.2778,1.73513 -2.12405,-1.14196 -1.03193,-1.31933 2.1043,1.93689 1.11967,-2.36256 2.93935,-1.40515 -1.12353,-1.02438 -0.66104,-2.21336 0.41218,-3.20399 -0.15482,-0.86922 -1.74906,-2.15679 0.0498,-1.2098 1.64749,1.31514 -1.38744,4.27731 1.55932,4.59938 -0.19065,1.1958 1.25417,3.44913 -0.64197,3.41542 -1.09903,1.31885 -0.50581,2.28076 -0.89175,3.80932 -0.0909,0.0528 -0.44669,0.017 -0.42931,-0.14115 z m -0.5677,-3.55917 c 0.79095,-0.43488 1.20164,-1.61954 -0.13002,-0.68351 -0.64744,0.13374 0.34412,1.46585 0.13002,0.68351 z m 1.52642,-0.18441 c -0.56905,-0.8421 -1.9169,0.85853 -0.0519,0.27451 l 0.0747,-0.11348 -0.0229,-0.16102 z m -6.43699,-1.29467 c -0.62451,-1.97394 1.36644,0.89709 -2e-5,0 z m 2.61676,-1.05351 c -1.159,-1.21247 0.57891,-2.81044 1.16274,-1.14883 0.11449,0.48324 -0.68739,1.5782 -1.16274,1.14883 z m -1.55684,-2.11376 c 1.94626,-0.28299 -1.60428,-0.88248 0.72711,-1.45812 0.32782,-0.63199 0.3483,-1.72632 1.00462,-0.15908 -0.72564,0.0552 -0.0766,2.86207 -1.87307,1.81891 l 0.14127,-0.20148 z m -4.62077,-0.33364 c 0.11301,-1.00572 0.64728,-2.42854 0.66952,-0.56713 0.78631,0.57534 -1.05405,1.60844 -0.66952,0.56713 z m -2.36619,-1.55922 c -0.0334,-1.88893 1.76715,1.65295 0,0 z"
         id="path2764" /></g></g></svg>
