<?xml version="1.0" encoding="UTF-8" standalone="no"?>
<!-- Created with Inkscape (http://www.inkscape.org/) -->

<svg
   width="55.038067mm"
   height="57.919659mm"
   viewBox="0 0 55.038067 57.919659"
   version="1.1"
   id="svg3569"
   xml:space="preserve"
   inkscape:version="1.2.2 (732a01da63, 2022-12-09)"
   sodipodi:docname="buissonnant-elance-natural_medium.svg"
   xmlns:inkscape="http://www.inkscape.org/namespaces/inkscape"
   xmlns:sodipodi="http://sodipodi.sourceforge.net/DTD/sodipodi-0.dtd"
   xmlns="http://www.w3.org/2000/svg"
   xmlns:svg="http://www.w3.org/2000/svg"><sodipodi:namedview
     id="namedview3571"
     pagecolor="#ffffff"
     bordercolor="#666666"
     borderopacity="1.0"
     inkscape:showpageshadow="2"
     inkscape:pageopacity="0.0"
     inkscape:pagecheckerboard="0"
     inkscape:deskcolor="#d1d1d1"
     inkscape:document-units="mm"
     showgrid="false"
     inkscape:zoom="3.1358025"
     inkscape:cx="103.16339"
     inkscape:cy="144.46063"
     inkscape:window-width="2560"
     inkscape:window-height="1369"
     inkscape:window-x="-8"
     inkscape:window-y="-8"
     inkscape:window-maximized="1"
     inkscape:current-layer="layer1" /><defs
     id="defs3566" /><g
     inkscape:label="Calque 1"
     inkscape:groupmode="layer"
     id="layer1"
     transform="translate(-67.482934,-162.37758)"><g
       id="g3702"
       transform="translate(-3.0375,19.2375)"><path
         style="fill:#add6d3;stroke-width:0.264583"
         d="m 94.339467,200.47282 c -0.797248,-4.87172 -2.940128,-9.40768 -4.911157,-13.89661 -0.996442,-1.83028 -3.652953,-1.83801 -4.786661,-3.36533 -0.800463,1.18952 -1.434852,-1.4573 -2.899886,-0.51479 0.385818,-1.6233 -0.973874,1.39454 -1.748751,-0.51372 -1.125309,-1.04272 -1.986131,-2.693 -3.296081,-2.56008 0.997617,-1.10381 0.864122,-1.22788 -0.318635,-0.56211 -1.044111,-0.91348 -2.925142,-1.05882 -3.411999,-1.29436 1.119184,-1.13621 3.261806,-4.31341 0.651077,-3.19179 -0.926241,-0.70867 -3.31015,2.09194 -1.969983,0.12001 0.168812,-0.94585 0.645112,-2.22767 1.037021,-3.23117 -1.44975,-1.26712 -0.2203,-0.92703 0.44909,-1.62857 -0.334144,-0.98304 -3.143945,-1.15003 -2.52408,-3.11205 0.883198,-0.86134 3.798457,-1.65561 3.236434,-2.58389 -1.209074,1.52585 -0.95355,-0.29338 -1.638438,-1.09073 0.576774,-0.1979 1.762157,1.44819 1.140747,-0.26658 1.384686,0.42163 3.505058,-0.91874 0.992918,-1.24288 -2.077418,-1.81695 3.18357,-0.7442 1.112089,-2.1301 1.192954,-0.12732 1.660105,-0.16389 3.007247,-0.57586 -1.412426,-0.67257 2.654312,-1.86608 -0.162651,-1.40697 0.22398,-0.97925 -1.393688,-1.13425 -0.527434,-1.9047 -2.208548,-1.2291 -0.188706,-3.35816 0.731908,-4.6489 1.528597,0.57929 2.874873,-1.35668 3.91888,-0.18585 1.004128,-0.10972 1.77956,-0.36754 1.391349,-1.71675 1.164655,-0.78132 4.177137,-1.30906 3.077758,-2.80317 2.674099,-0.46351 5.471256,-0.61444 8.156861,-1.33177 0.671916,0.14996 3.496431,-0.45142 1.703397,-1.01308 0.77347,-0.40855 1.649034,1.18724 1.432759,-0.27172 1.418386,-0.2765 3.360324,1.92797 2.214644,-0.0622 0.94084,-0.76833 2.35754,1.45237 3.11159,-0.34702 1.80958,0.18334 3.65318,1.28542 5.02116,1.98953 -0.90072,1.16884 0.85451,4.1953 1.22889,1.71792 1.15515,-2.12624 3.56787,-1.14779 4.19109,-1.18355 2.56819,-2.10075 -2.46124,4.75787 1.02641,3.63432 1.60303,-0.6766 2.02682,1.22403 2.97624,1.3619 -1.89267,0.2315 -2.15705,1.71554 -0.37003,2.62053 1.36589,-0.43816 2.64145,2.99491 2.98142,1.14073 1.91005,0.68455 3.59064,2.04379 3.87853,4.0146 -1.2641,0.92273 1.15434,2.47113 0.31915,3.30732 0.30639,0.72419 -1.47083,5.34622 0.5374,3.19392 1.07676,2.04358 -1.59969,3.48456 -0.90463,5.66755 -1.0442,0.8094 -1.89103,2.89611 -2.10793,2.96076 -1.42732,-1.10146 -0.18797,3.81773 -2.24593,2.42664 0.86695,-1.72797 -0.83318,-0.22377 -0.0789,0.79208 -1.63302,0.0656 2.00995,1.79401 -0.14729,2.77027 -2.09693,1.12732 -0.63214,3.67668 -3.47581,4.09365 -0.97086,1.25064 -1.8202,-0.45488 -2.99147,0.99583 -2.4425,0.84207 -5.66015,0.19627 -7.227,2.72043 -3.09141,4.03797 -7.643146,7.23251 -9.105594,12.30821 -0.795538,3.33928 -0.600529,-1.36499 0.401299,-2.15328 3.274155,-6.39528 10.221105,-10.2617 12.456455,-17.2999 1.10815,-4.32159 4.78942,-7.13361 7.20774,-10.66216 -1.8143,1.15488 -3.79175,4.00763 -5.233,4.58433 0.37412,-1.79679 2.01935,-5.6589 1.75599,-6.23076 -2.48179,5.41695 -3.89102,11.322 -7.21981,16.33503 -1.81273,3.82518 -5.33701,6.29499 -7.873883,9.56446 -0.513366,1.01032 -2.583379,4.19512 -2.241012,1.12019 0.846173,-6.44916 3.668165,-12.42173 5.380285,-18.66095 1.4766,-4.30339 1.83479,-8.95223 3.70864,-13.11374 0.72444,-0.89933 1.64041,-4.1619 0.12687,-1.4865 -1.16005,2.00373 0.1506,-4.83712 -0.78719,-1.28483 -1.2916,4.03472 -1.92456,8.24631 -3.23871,12.27058 -0.98123,0.87232 -1.15177,-3.03409 -1.900585,-3.96575 -0.479938,-0.98467 -1.49364,-4.68852 -1.852201,-4.11352 0.855442,3.74617 2.546186,7.33499 2.800276,11.19966 -1.602233,5.77824 -3.487915,11.49405 -5.180346,17.24606 -1.409391,-1.07881 -1.666941,-4.3867 -2.384175,-6.36708 -0.340488,-3.20426 -2.160165,-6.29449 -1.127096,-9.56853 0.318447,-2.01153 1.3697,-4.76249 1.271951,-6.31844 -1.126493,2.01644 -1.479017,5.71874 -2.570126,6.87389 -1.523982,-3.83345 -2.490352,-7.9113 -4.292648,-11.62031 0.266954,2.68859 1.720784,5.67636 2.392044,8.49268 1.438226,4.5583 2.556735,9.22145 4.222058,13.6997 0.753754,1.30438 0.459489,4.81177 -0.585379,1.74381 -1.926832,-4.80112 -4.063509,-9.50377 -6.393087,-14.12569 -0.938627,-1.52191 -2.657344,-6.42579 -3.22008,-6.06027 0.127526,1.35532 2.390968,4.8798 1.29009,4.88041 -0.734646,-0.67694 -3.617481,-3.20262 -1.543484,-0.90519 2.231447,1.85692 3.857484,4.1714 4.735938,6.93495 1.59347,3.6735 3.613875,7.12916 4.949407,10.91741 1.067469,2.89122 2.386429,5.79069 2.636229,8.89345 0.150765,0.43838 -0.700527,1.02969 -0.368209,-0.0196 z m 6.869713,-10.2822 c 0.78002,-1.01516 3.98303,-3.38757 3.05925,-3.87672 -1.80663,0.23744 -3.71649,0.0612 -5.42439,0.7479 -1.500408,2.20412 -1.717818,5.12932 -2.101211,7.7446 -0.391159,1.92113 0.720444,-0.47173 1.229168,-1.01453 0.987987,-1.27774 2.088833,-2.46683 3.237183,-3.60125 z m -4.907237,-1.752 c 0.329672,-0.93443 1.110186,-2.16066 -0.495609,-1.8424 -1.414656,-0.17944 -3.287532,-0.49281 -2.040633,1.5346 0.564841,0.82115 0.762901,4.5169 1.384024,3.85464 0.365744,-1.18815 0.733634,-2.3759 1.152218,-3.54684 z m -3.954018,-0.33623 c -0.02105,-1.2303 -1.447389,-2.14998 -0.56915,-0.34343 0.399582,1.32611 1.341635,2.93439 0.56915,0.34343 z m 23.861185,-4.97358 c 1.10462,-1.8115 -2.10852,-0.11356 -0.78775,0.47316 l 0.40373,-0.1636 0.38401,-0.30956 z M 72.225574,168.39022 c -0.910743,-1.66106 -1.289292,0.91516 0,0 z m 3.589009,-2.45307 c -0.405695,-1.28734 -0.888882,1.85113 0,0 z m 45.749657,-8.79141 c 0.32724,-2.09926 -2.34098,-0.62822 -0.33991,0.34795 l 0.33986,-0.34795 z m -3.24742,-4.52595 c -1.21523,-1.12294 1.87062,-2.10683 0.19029,0.12556 -0.10354,0.44281 -0.53554,0.25587 -0.19029,-0.12556 z"
         id="path3716" /><path
         style="fill:#93c9c5;stroke-width:0.264583"
         d="m 96.5598,199.68894 c 1.054199,-3.23885 3.090843,-6.03045 5.54803,-8.34853 1.6454,-1.81075 3.28204,-3.63042 4.98972,-5.38312 -3.12678,4.46042 -7.879924,7.79745 -9.929426,12.96875 0.128965,0.20978 -1.018502,2.65395 -0.608324,0.7629 z m -2.590183,-1.48191 c -1.269629,-4.24594 -2.871963,-8.40945 -4.822189,-12.38962 -1.548192,-2.38651 1.579585,1.38504 1.446219,2.32397 1.534248,3.7057 3.114684,7.44147 3.97213,11.37021 0.01425,1.14002 -0.560156,-1.18643 -0.59616,-1.30456 z m 2.335583,-3.45235 c 0.437687,-2.52933 0.961974,-5.89948 2.011736,-7.83417 -0.569486,2.96996 -1.771655,5.90747 -1.662428,8.95865 1.36614,-2.22616 3.206193,-4.48904 5.272532,-6.2701 1.12502,-0.72992 2.92911,-3.89247 3.39313,-3.51727 -2.59802,3.4691 -6.105527,6.19743 -8.407135,9.91001 -0.93862,1.16288 -0.646122,-0.78217 -0.607835,-1.24712 z m -1.573461,-1.85208 c -1.316788,-3.99048 -1.880192,-8.165 -3.121751,-12.17421 -0.359955,-3.46164 1.375199,-6.73634 1.628696,-10.14267 -1.308943,1.83075 -1.71094,4.70897 -2.401756,7.01032 -1.197903,-1.3003 -1.86904,-5.33592 -3.006625,-7.69317 -0.375591,-0.90744 -1.383604,-4.60358 -1.908649,-3.76289 2.116786,6.49468 3.991615,13.07045 5.942513,19.61291 0.633184,1.47583 1.836935,4.59616 1.065429,5.395 -1.853446,-3.99708 -3.566436,-8.07401 -5.291613,-12.13244 -0.799363,-2.1439 -2.339746,-4.12084 -3.230329,-6.33782 -0.453466,-1.34568 -2.612743,-5.35757 -1.523326,-1.79146 0.195933,1.24784 2.959763,5.45054 0.243918,2.92074 -0.658258,-0.79695 -2.627202,-1.81181 -0.996081,-0.14039 2.046801,1.94204 3.933876,4.09942 4.84568,6.8252 0.422139,1.58001 2.759157,4.76298 -0.157993,3.44057 0.113181,-2.09539 -4.711656,-0.39711 -4.868991,-3.06811 -1.696438,0.24961 -1.979039,-1.08222 -2.137881,-1.67552 -1.183993,-0.235 1.049783,-2.09536 -0.799588,-0.7965 0.690828,-1.02805 -1.997734,-0.54217 -0.140387,-1.38072 0.09865,-1.00305 -4.654795,-0.52779 -1.74528,0.60871 1.342279,0.0632 -1.707505,2.08568 -1.120246,0.37749 -1.770903,-0.4898 0.600521,-4.24558 0.03169,-3.5835 -0.928578,1.40404 -1.307484,0.77879 -0.240408,-0.50599 -0.381262,-1.00998 -2.218132,0.71651 -1.42095,-0.74961 -1.197484,0.0934 -2.08285,1.83989 -2.017344,-0.0336 0.439135,-0.55767 1.153331,-2.04864 2.132549,-3.00721 -0.978542,-0.71581 -0.717163,-1.25247 -0.534898,-1.53236 -1.889406,0.82738 -1.15458,-3.08569 0.467025,-1.81044 0.573292,0.32737 2.570041,1.72354 2.558913,0.10434 -2.34248,0.0443 1.288987,-0.74909 -0.839852,-1.15297 -0.588382,-1.19926 -2.333942,-1.10512 -0.929836,-2.24723 -0.573446,-0.81337 2.892197,-0.5839 3.644075,-1.66769 -0.99819,-1.1154 1.761426,0.61463 -0.04417,-1.12642 0.02734,-1.47901 2.896515,-0.98304 2.26594,-2.67598 -0.153846,-1.22938 0.228721,-4.02755 -0.941722,-2.43241 0.276813,-0.98607 1.309289,-3.57264 -0.280366,-3.80136 1.176567,1.77163 -2.249946,-1.90773 0.35511,-0.46658 0.962365,-1.11136 0.803657,0.9432 1.177185,1.02292 -0.687503,1.22497 2.861285,-0.7938 0.890782,0.48985 1.137176,1.81967 1.552455,-1.30065 1.547968,-2.41468 1.514499,-0.33553 -0.12227,-1.23413 1.643705,-1.84191 1.319223,-0.72825 3.504275,-1.55492 3.165655,-2.03101 1.655897,0.75292 2.307239,-1.61259 3.51764,-0.2466 2.172323,-0.80671 4.567459,-1.24754 6.412612,-1.89472 1.161367,-0.44008 3.307928,0.4019 3.597388,0.31261 -1.02577,0.18357 -2.654361,1.10934 -0.79923,1.11746 -0.27203,1.02048 1.95058,-2.13817 1.36386,0.28446 1.80734,-1.00605 2.82782,-0.86143 3.80625,1.36559 0.35341,1.20476 2.01112,-0.0261 0.52251,1.36411 -1.12836,1.01072 -1.26211,2.02348 0.11325,0.56563 0.68499,-1.44609 3.23941,-0.036 2.45903,-2.12432 1.24349,-1.17013 4.08517,-1.22613 4.70285,-0.84244 -0.52676,1.1605 -1.60306,4.01625 -1.93718,1.90113 -1.02885,0.61375 -0.67686,1.28479 -0.16947,1.04216 0.008,0.57823 3.14271,0.67427 1.35267,1.36616 0.29446,1.52847 0.40647,0.37187 1.13669,0.37909 -0.80782,1.03922 -2.6598,2.15377 -0.19954,1.54186 2.51999,-0.9017 -1.39746,0.97103 -0.21328,1.68463 -2.4955,0.24476 0.49072,0.62689 0.81417,0.96482 -1.9887,1.24163 1.73619,2.11435 0.7028,1.06097 -2.21607,0.0981 2.44257,-2.83707 2.18596,-0.3564 0.98538,-1.23474 1.34604,1.88543 2.20512,0.2287 -0.51953,1.39552 0.3875,2.2495 -1.03892,3.0655 -0.30249,1.0703 0.85781,2.55203 2.27125,0.89045 -1.02445,-1.29686 2.66047,-3.22042 1.32431,-0.97325 0.93462,0.007 0.75606,2.16118 1.49336,2.73785 -1.10021,0.56511 -3.56909,0.36154 -1.98978,2.32509 1.06442,1.22705 0.87669,3.58948 2.08519,1.8493 -0.19749,1.07243 -1.01853,2.6799 -0.30918,2.74796 -0.0791,1.63417 -0.21282,1.83417 -0.86751,1.07864 0.83666,1.39335 -0.653,1.31937 -0.70197,2.29263 -1.28155,-0.55423 -4.62848,-0.37425 -2.35601,1.29763 -0.32487,2.29767 -3.08043,-0.30103 -1.7315,1.97522 0.95741,0.64154 -0.29999,2.32166 0.22942,0.52922 -0.92583,1.12383 -0.0891,1.29812 0.56885,0.98766 -1.36864,1.56215 -0.53457,1.69853 0.0566,1.78654 -1.19075,1.34595 2.22135,-0.85175 0.22843,0.71238 -2.18763,-0.24465 -0.98433,3.49944 -2.99156,3.8454 0.8089,-1.24443 1.00911,-2.25327 -0.46722,-1.28992 -0.90523,0.82673 -3.1788,3.35407 -2.90975,1.93933 0.80096,-0.40593 -2.86574,-0.60531 -3.69646,0.0212 -2.79986,1.00423 1.29255,-3.99901 1.15686,-5.4952 1.35508,-3.51758 4.63308,-5.84389 6.42442,-9.07243 -1.7893,1.04609 -3.77628,4.2428 -5.0326,4.59238 0.30372,-1.71422 2.05193,-5.7448 1.55787,-6.15455 -2.31958,5.15208 -3.74906,10.73951 -6.8126,15.53191 -1.79459,1.59379 -3.12351,1.59698 -4.94913,2.87791 -0.69244,-0.21408 -3.214983,-0.41308 -2.654671,-1.05142 0.523245,-1.80727 1.545541,-5.65152 2.396211,-8.19147 1.4822,-4.49881 1.96455,-9.29447 3.78913,-13.67572 0.73597,-1.12368 2.03094,-4.40497 0.0543,-1.77811 -1.10905,1.67978 0.78577,-4.56778 -0.44844,-2.01184 -1.45449,4.38358 -2.12315,9.01856 -3.68579,13.34881 -1.16688,-2.90364 -2.072925,-5.94847 -3.322303,-8.83629 -0.35289,1.9674 1.347652,4.80778 1.702446,7.14532 0.272177,1.38945 0.974617,2.78009 0.965707,4.16877 -1.59884,5.85346 -3.638956,11.57922 -5.196986,17.44271 -0.0066,0.38169 -0.646169,0.43409 -0.622856,-0.006 z m 1.317466,-3.37344 c 1.225576,-2.10106 0.764528,-3.23878 -1.543193,-3.45138 0.7094,-1.84623 -2.286961,0.60386 -0.94844,1.57977 0.521164,1.50395 0.731475,3.45794 1.615904,4.58655 0.311795,-0.89836 0.590184,-1.80802 0.875729,-2.71494 z m -3.552545,-1.07441 c -0.01524,-1.49814 -1.92403,-3.55953 -0.844481,-0.84624 0.421308,1.36967 1.808561,4.20126 0.950344,1.23699 z m 4.025072,-2.84131 c 0.867411,-0.42956 -1.087726,-0.70246 -1.524857,0.53683 0.432731,-0.13725 1.153612,-1.06641 1.524857,-0.53683 z m -12.505065,-4.26159 c -1.026341,-1.717 -1.514256,1.81537 0,0 z m -2.49526,-2.70019 c -0.159852,-1.04727 -2.266719,-2.93573 -0.975359,-0.66931 0.346163,0.50448 -0.06463,1.53985 0.975359,0.66931 z m 35.614653,-1.64726 c 0.86349,-1.29727 -2.93804,-1.11191 -0.63252,0.34551 l 0.26381,-0.1051 0.36867,-0.24041 z m -35.765227,-1.12959 c -0.582248,-1.19783 -0.808575,1.7039 0,0 z m -6.687294,-3.50468 c 0.980253,1.12504 3.459184,-0.61725 4.371382,-1.80197 0.892968,-1.86993 -1.244298,-3.39385 -2.266192,-1.24972 0.58666,0.24868 1.018155,-0.87607 0.633599,0.6977 -0.686857,0.28194 -1.937643,-0.88115 -0.892802,0.78675 0.677896,0.29673 -1.797655,0.14991 -1.773275,0.71415 1.059673,-2.45565 -1.25529,0.9734 -1.625936,1.97778 0.332813,-0.15173 1.253061,-1.4304 1.553224,-1.12469 z m 6.947826,-3.03106 c -0.130624,-1.3123 -0.940672,1.68426 -0.07486,0.45746 z m -0.525115,-0.77564 c -0.761789,-0.72604 -1.558158,1.66661 -0.155443,0.23899 z m -2.403841,-3.79432 c -0.938269,-0.507 -2.495618,1.03171 -0.311245,0.12748 l 0.311247,-0.12748 z m 1.631851,-0.80082 c 0.454271,-0.6631 -0.793047,-1.05677 0.408771,-1.34888 -1.289273,-0.0391 -3.020262,1.70811 -0.726909,0.83198 -0.01425,0.68649 -1.995933,1.82926 -0.116694,0.94758 l 0.434836,-0.43074 z m 41.88001,-2.958 c -1.17532,-1.06521 -1.52345,0.73673 0,0 z M 82.954282,154.8026 c -1.085426,-4.02542 -0.389013,2.01265 0,0 z m 1.53088,-0.33073 c -0.745742,-2.05573 -0.116694,2.08982 4e-6,0 z m 24.758998,0.002 c 0.80753,-2.04038 2.20719,-2.53637 2.67406,-4.38414 -1.25163,-1.00508 -3.1768,-0.72928 -3.89064,0.96615 2.10998,-0.16231 -2.49066,1.43287 0.19111,1.83225 0.28947,0.86466 -1.99328,0.87874 0.2214,1.21748 1.05557,-0.20213 -0.89123,1.41241 0.80406,0.3686 z m 0.70167,-3.56495 c 1.68256,-2.1159 0.89189,0.97283 0,0 z m -22.299181,0.46714 c -0.927452,0.16833 -1.660302,-1.66247 -1.653969,0.22534 1.617425,-0.0752 1.549244,2.74209 1.845076,0.12024 l -0.06001,-0.20691 -0.131093,-0.13868 z m 23.533911,-2.74414 c -0.66331,-1.16059 -0.93119,1.82648 0,0 z m -17.804163,-0.83171 c 0.125813,-1.78454 1.217804,1.99385 1.713125,-0.34018 0.562023,-1.54218 -1.22158,0.44122 -2.016508,-0.82386 0.300579,1.04543 -3.441378,1.61723 -0.975774,1.18801 0.19698,0.58708 1.553862,0.96017 1.279157,-0.024 z m 9.966983,-0.84668 c -1.03868,-0.89952 -1.93315,-0.52785 -0.39484,0.0155 0.26615,0.6266 0.89965,0.90696 0.39484,-0.0155 z m -7.470073,-1.32905 c -0.206193,-0.92183 -1.258592,1.10043 -0.183762,0.27925 z m 14.605743,39.20795 c 1.09419,-2.06859 1.33985,0.0462 0,0 z m -32.084779,-5.27562 c -1.60241,-1.34895 1.796431,0.21723 0,0 z m 45.278549,-14.56813 c 0.0676,-0.99969 -0.99749,-1.97136 0.22173,-0.93592 0.11427,0.26792 -0.0814,2.2232 -0.22173,0.93592 z m -3.40824,-5.3422 c -1.90757,-0.62409 1.33917,-1.0773 0.0744,0.15196 l -0.0743,-0.15196 z m -3.56565,-4.99238 c -0.17989,-1.37942 3.21421,0.004 0.30941,0.0683 z m -10.06039,-7.98782 c 0.92259,-1.57834 1.79977,0.8686 0,0 z m -3.57187,-1.60311 c 1.03818,0.0694 -0.24833,-2.99055 1.46381,-1.37112 0.33999,0.61216 -0.84031,2.31817 -1.46381,1.37112 z"
         id="path3714" /><path
         style="fill:#84c1bd;stroke-width:0.264583"
         d="m 94.366108,199.75388 c -1.154499,-4.7976 -3.058642,-9.41551 -5.121334,-13.89056 -1.216122,-2.1187 1.539078,1.88129 1.462207,2.65538 1.39726,3.69939 3.258845,7.34263 3.807596,11.27974 l -0.10223,0.27895 -0.04624,-0.32355 z m 2.396784,-0.63064 c 0.122667,-1.09074 2.156718,-3.98396 0.872374,-1.48488 -0.292448,0.37406 -1.246313,3.73618 -0.872374,1.48488 z m -0.442849,-4.36856 c 0.118356,-1.12506 0.7267,-4.93069 1.109174,-4.56406 -0.234853,1.47445 -1.419286,5.6572 -0.538503,5.51477 1.438494,-2.84971 3.736846,-5.10765 6.247876,-7.0257 -2.39169,2.34324 -4.612584,4.85304 -6.525805,7.59816 -0.66601,0.48953 -0.254333,-1.26919 -0.292742,-1.52317 z m 2.363698,0.70078 c 2.193659,-3.10022 5.016669,-5.69358 7.626929,-8.43984 -2.55582,2.99571 -5.27691,5.84964 -7.80206,8.86902 l 0.175133,-0.42918 z m -4.232614,-3.74349 c -0.876359,-2.56749 -1.364571,-5.21878 -1.940767,-7.85527 -1.20694,-2.69332 -1.141463,-5.61449 -0.246045,-8.38948 0.07389,-1.3719 1.662272,-4.39412 0.717073,-4.7982 -1.080956,2.22198 -1.494539,5.18465 -2.343765,7.18911 -1.38488,-3.91412 -2.518103,-8.00516 -4.285979,-11.80035 -0.779337,0.72947 1.204875,4.55525 1.49449,6.34056 1.689417,5.26909 3.053056,10.64668 4.879034,15.85968 0.485008,0.95387 0.864099,4.64473 -0.29427,1.92643 -1.689087,-4.17931 -3.634406,-8.27661 -5.338299,-12.42925 -1.778102,-2.76513 -2.859879,-5.91841 -4.516929,-8.7435 -0.927385,0.70424 2.189318,4.85727 1.603231,5.61191 -0.770309,-0.74309 -3.909736,-3.1682 -1.951605,-0.80848 1.698322,1.88612 3.470421,3.44715 4.302288,5.85738 0.526066,1.24081 2.596146,4.23367 0.441293,4.35496 0.569864,-2.02481 -2.248436,-0.82695 -2.511467,-1.68012 -1.816595,0.67729 -2.430123,-1.9078 -3.384984,-2.63082 1.359685,-1.70872 -0.430502,-1.93453 -0.461706,-3.0626 1.080619,0.14203 2.69969,-1.69009 0.699016,-1.20055 -1.036498,1.12793 -1.527865,2.27655 -3.158773,1.03944 -1.5973,-0.34553 -2.668931,0.49478 -1.044558,1.69474 -3.065275,-0.17402 -0.184118,-3.82523 -0.805948,-5.23036 0.471921,-2.07884 1.799282,-0.0161 1.792601,-0.27487 -1.008575,-1.35906 4.133084,-1.77852 1.361601,-1.83637 -0.653465,-1.06071 3.012263,0.11874 2.259106,-2.0208 1.130147,-2.01501 -4.230427,-2.91343 -1.241646,-1.19449 0.174888,1.11124 -1.791955,3.20926 -1.253249,0.43824 0.39775,-1.76752 -1.38843,0.86799 -0.626893,-0.90853 -1.721488,-0.007 -0.936759,-0.77813 -0.06631,-1.14321 -0.208175,-1.02478 -1.04659,-0.58668 0.445021,-1.01198 0.640359,-0.23227 2.886505,-1.64911 1.078177,-1.73709 1.351044,-1.0034 0.217281,-3.37475 -0.267508,-1.00679 0.01501,1.52552 -1.415388,-0.69652 -1.425795,1.35424 3.203635,0.17475 -1.72263,0.77685 -1.515594,1.95873 -1.259287,-0.77748 -3.264042,-0.92094 -1.126574,-1.92093 -0.03885,-1.31624 1.685527,0.0413 2.480468,-1.201 1.915836,-0.0304 0.615573,-2.48861 1.587499,-2.55662 -0.323605,-0.591 1.22525,-0.65012 1.388579,-0.45816 0.457037,-2.32602 -0.573679,-5.14198 -0.223758,-7.09446 0.628853,1.17076 1.126846,3.09199 2.425679,2.93111 -0.847805,-1.62769 1.085978,-2.76376 0.432193,-4.59426 0.302476,-1.19952 1.360555,0.14822 1.018649,-1.6446 0.651409,-0.37673 4.193184,1.14279 2.514885,0.0125 -1.572153,-0.14531 -0.130059,-1.83396 0.424724,-0.3083 1.836917,0.20226 -0.263399,-2.43934 0.685431,-0.57926 -2.00524,-0.69011 2.186555,-0.84534 -0.292878,-1.67662 1.962322,0.25133 2.653627,0.90047 3.393841,2.52398 1.003431,1.4339 1.467628,-0.11505 2.427279,0.0733 0.579612,0.84118 -3.406108,1.58191 -0.760637,1.09637 0.748638,-0.3674 -0.122582,1.59025 0.853495,0.0132 0.707825,0.0451 1.325935,-0.11026 0.530911,-1.23077 0.515825,-0.85562 1.243401,1.76631 0.262839,2.22209 0.510939,0.97734 2.097091,0.009 0.375984,-0.40363 1.466366,-0.74736 1.553399,-1.11413 0.248611,-1.74824 -0.02879,-1.40416 2.633098,0.75902 2.749893,-1.50181 -1.872224,0.19216 0.450606,-0.73515 0.281617,-1.27176 2.020932,-0.24243 0.749063,0.9437 0.161454,1.48799 0.722433,1.2845 3.542108,-1.91611 3.898658,0.72668 0.92848,1.41397 2.25244,1.8467 2.86123,0.89931 1.92226,0.46437 -1.22138,0.38412 -0.31869,1.92189 2.13848,0.1432 2.98611,-1.53773 4.00431,-2.84129 1.11947,1.11737 -1.40623,1.91205 -1.12717,3.05897 -1.25464,-1.06826 -1.09448,1.88362 0.34733,1.49011 -1.67011,1.02981 -0.68275,0.50411 -0.12524,1.61506 0.0345,0.75405 1.09002,-0.0281 0.59379,0.8534 1.36584,0.0679 2.75046,-1.26542 3.67777,-0.17633 -0.78242,-2.52946 0.91334,2.02684 1.47887,-0.27531 0.13448,0.5088 1.55249,3.11792 1.95279,1.26809 -1.27155,0.33378 0.44346,-1.60486 0.48667,-0.35774 0.8562,0.25824 -0.762,1.53843 1.06562,1.10556 2.8072,-0.58756 2.21699,1.81862 1.19597,2.20365 0.15558,0.11247 -1.28124,1.74972 -0.32144,1.65178 0.69009,-1.15048 0.035,1.10295 1.1685,-0.18325 0.52138,1.44335 1.83018,-0.0253 2.04957,2.04016 0.54043,2.30671 2.15931,3.93536 1.81772,6.55504 0.11214,1.87698 -1.02116,4.04686 -2.96815,1.98849 0.49855,0.5623 -3.14153,1.72472 -1.3979,1.64653 1.7922,-0.16746 -0.0574,2.12319 0.0181,0.47194 -2.11152,1.80799 0.0454,4.71177 -0.982,6.82685 0.3319,1.98119 -3.24019,1.42006 -3.95871,3.82884 -0.54004,0.70622 -1.30233,0.36288 -0.25506,-0.0262 -1.70116,-0.98906 -4.39787,0.17528 -5.67642,0.12459 1.94785,-3.02601 2.2085,-6.91788 4.86977,-9.52221 1.04706,-1.5081 3.93808,-4.06455 3.72169,-5.01147 -1.5165,0.94518 -3.78037,4.18754 -4.72282,4.13665 0.53276,-1.87938 1.64218,-4.59231 1.58878,-6.04541 -2.40374,4.998 -3.69103,10.50933 -6.62025,15.25781 -1.34063,1.98934 -3.69576,1.71769 -5.54627,2.16115 1.90166,1.09461 -0.42491,0.95122 -1.12508,0.36903 -2.028863,1.13049 -0.378764,-3.41722 -0.0391,-4.47807 1.85944,-5.21748 2.82476,-10.68758 4.3863,-15.98538 0.17169,-1.21271 2.66596,-4.48147 1.27732,-4.32169 -1.69943,2.81428 -0.36287,-1.02662 -0.66912,-2.08569 -1.88274,4.47543 -2.38458,9.39151 -3.89011,13.98573 -1.15024,-0.66302 -1.535038,-4.30595 -2.546786,-5.98407 -0.234469,-1.04864 -1.814138,-3.90194 -1.03492,-1.17345 0.997,3.1502 2.022777,6.32398 2.590666,9.57966 -0.581748,4.53371 -2.679587,8.72491 -3.705417,13.16938 -0.580556,1.27022 -0.909183,4.89835 -1.893342,4.57298 l -0.177212,-0.48347 -0.181352,-0.59062 z m 1.64166,-2.3151 c 0.405923,-1.34259 1.613434,-3.46909 -0.550795,-3.20882 1.028252,-0.0596 2.0009,-1.09435 0.735613,-1.2229 -0.908581,0.61415 -2.387432,2.27265 -1.37201,0.30133 -2.844409,-0.53971 -0.901865,3.09856 -0.605692,5.02947 0.252539,1.56932 1.06515,2.84812 1.346627,0.51371 0.150524,-0.47037 0.299227,-0.94133 0.446257,-1.41279 z m -3.634094,-1.16339 c 0.119968,-1.33896 -1.97979,-3.26626 -0.908712,-0.80502 0.341493,0.99856 1.908226,4.63228 1.127957,1.64635 l -0.103519,-0.40837 z m -8.342808,-6.58831 c 0.07898,-1.84321 -2.514505,0.53531 -0.183148,0.15248 l 0.183146,-0.15253 z m -1.554427,-2.09757 c 1.547174,-0.0983 1.723604,-0.15957 0.606912,-0.9325 0.03565,-1.42802 -2.801137,2.60297 -0.606912,0.9325 z m 0.495218,-2.51295 c -0.400613,-2.37547 -0.676764,2.61437 0,0 z m 34.297494,-0.0732 c 1.72605,-2.19711 -3.19595,-0.97235 -0.71169,0.37354 l 0.35654,-0.0713 0.35536,-0.30228 z m -40.733709,-1.21328 c 0.688163,-1.99424 -1.5755,1.84007 0,0 z m 46.025369,-6.19505 c -1.66011,-2.30488 -0.63303,1.3505 0,0 z M 82.69375,158.07614 c -1.016996,-2.12463 -1.089948,1.07303 0,0 z m 2.251779,-3.46742 c 0.606148,-0.54451 -0.812361,0.0726 -0.849069,-1.04506 -0.661787,0.53693 0.12213,2.99035 0.849069,1.04506 z m 3.701346,-0.79831 c 0.755272,-2.16595 -1.207308,0.52939 0,0 z m -0.681209,-0.85989 c -0.284699,-1.5338 1.257722,-1.4721 1.306467,-0.66645 1.202724,-0.60686 1.127331,-1.33273 0.107693,-0.70104 -0.712194,-0.8436 -2.939656,-0.24448 -4.003259,-1.53996 -0.988977,0.39019 0.0188,2.58311 0.865105,1.81124 -0.429003,1.90233 1.006878,0.24732 1.721556,1.33834 l 0.0024,-0.24211 z m 9.248999,-2.87685 c 0.968123,-1.14791 -0.396586,-1.58699 -0.07869,-0.29459 -0.904552,0.83272 -1.284644,1.83116 0.07869,0.29459 z m -6.781853,-0.20592 c 0.462843,-1.68516 -2.222318,1.39508 0,0 z m 7.246718,38.86766 c 0.181331,-1.62198 1.157942,-2.84048 0.345545,-0.45617 -0.09219,0.432 -0.663063,1.98003 -0.345545,0.45617 z m 6.56028,-1.65364 c 1.41814,-2.02227 0.67847,0.12397 -0.48246,0.69932 l 0.13503,-0.2231 z m 12.50973,-4.17178 c 1.04366,-1.58341 0.34308,1.31243 0,0 z m -44.239581,-9.78068 c 0.490176,-0.63711 1.850631,-3.05436 0.916182,-0.54287 -0.181566,0.28547 -0.525211,1.02002 -0.916182,0.54287 z m 2.177833,-3.13333 c -1.234927,-0.618 -0.202052,-1.24572 0.42426,-1.87169 -1.097287,0.6082 -2.672039,-0.7565 -1.221069,-1.25703 0.155962,1.10017 2.964997,0.29652 1.145044,2.12285 -0.09835,0.90129 2.078946,2.2911 -0.07011,1.26052 l -0.278127,-0.25471 z m 1.543112,-0.80827 c 0.728696,-0.68116 -0.61636,-2.27227 1.018807,-1.13941 1.694222,-1.38 -0.276362,1.34803 -1.018807,1.13941 z m 46.217866,-7.43001 c -0.38467,-0.4034 1.09937,-0.921 -0.004,-1.60671 -0.79462,1.6562 -1.22825,-2.8653 0.63253,-0.8931 0.71141,0.0971 -0.69381,2.07532 0.98266,2.23102 -1.1286,0.0257 -1.31854,0.23151 -0.45981,0.47863 -0.27378,0.55045 -0.96914,0.21951 -1.15093,-0.20984 z m -13.0194,-7.08739 c 0.98172,-1.50894 1.65925,-3.50697 3.57132,-3.37618 -1.47064,-1.58318 1.79058,0.63908 0.17422,1.11448 -1.00966,0.74663 -2.74648,2.32026 -3.74554,2.2617 z m 1.62835,-0.35909 c 0.79493,-1.4075 4.12703,0.25605 1.27529,-0.0297 -0.30396,-0.21332 -1.42847,0.6039 -1.27529,0.0297 z m 2.3277,-1.00167 c 1.8442,-1.64959 0.84983,0.62109 0,0 z m -3.53836,-5.10962 c -1.48068,-1.58584 3.4837,-0.32949 0.36125,0.0937 -10e-4,-0.008 -0.50186,0.13584 -0.36125,-0.0937 z m -5.97443,-0.75667 c 2.2579,-2.36816 -1.30024,2.28388 0,0 z m 7.92529,0.27848 c 0.37342,-1.13403 2.27406,-1.77223 1.46967,-0.31378 1.94135,0.0643 -1.69042,1.43705 -1.46967,0.31378 z M 90.571623,146.9981 c -0.532231,-0.31576 0.902199,-1.06252 0.615074,-1.24326 0.609642,0.53839 0.277923,1.53976 -0.615074,1.24326 z m 1.44869,-0.133 c 0.437759,-1.47051 3.462307,-0.49577 0.830858,-0.34383 -0.112049,0.23671 -0.804295,1.18161 -0.830858,0.34383 z"
         id="path3712" /><path
         style="fill:#5bada7;stroke-width:0.264583"
         d="m 96.617448,195.95516 c 2.51579,-3.16321 -0.773674,1.63213 0,0 z m 2.16073,-0.73746 c 0.348659,-0.71804 3.016872,-3.0679 1.301132,-1.27144 -0.185087,0.10574 -1.740288,2.23423 -1.301132,1.27144 z m 3.759322,-4.23333 c 0.9123,-1.01479 2.30117,-2.06737 0.55057,-0.29232 -0.82769,0.94745 -2.80162,2.6155 -0.83656,0.58464 z m -9.861,-0.0662 c -0.605239,-1.46045 -0.187619,-1.1686 0.355928,-0.19843 -0.328235,-1.32111 0.02877,-1.91973 0.21875,-0.0735 0.132464,0.63598 -0.320161,1.09946 -0.574678,0.27189 z m 3.278479,-1.12448 c 0.07547,-1.16905 1.213384,-2.57184 0.364859,-0.52916 l -0.254267,0.53743 -0.07922,0.0728 -0.03132,-0.081 z m 6.582521,-0.66145 c 2.2476,-2.28779 -0.59369,1.21337 -0.59505,0.65401 l 0.25698,-0.29445 z m -9.226455,-1.29765 c -0.33498,-2.6934 -1.116265,-5.29468 -1.907606,-7.8863 0.518137,-3.07886 1.338453,-6.09591 1.98284,-9.14513 -1.520511,0.57429 -1.809707,4.80959 -2.718329,6.8178 -1.526033,-3.78685 -2.482097,-7.82084 -4.248103,-11.52277 -1.372524,-0.3075 1.018083,4.08999 1.123297,5.41238 1.630905,4.88929 2.824936,9.92383 4.534358,14.78061 0.633127,2.61479 0.152912,-0.36843 -1.067305,-0.31021 0.842043,3.26055 -0.94322,-1.77895 -1.45412,-2.76755 -1.393227,-2.80266 -2.263343,-5.67329 -3.982634,-8.28789 -1.225179,-1.77199 -1.720248,-4.8169 -3.3162,-5.925 0.465854,2.05314 1.463488,3.95142 2.194433,5.92479 -1.180579,-0.62669 -2.016734,-2.52554 -3.058089,-2.60625 -0.293468,1.60081 4.436757,3.58862 2.144919,4.97944 0.130435,-1.02423 -0.306913,-1.26596 -1.347933,-0.52476 0.573818,-3.04845 -1.811116,-0.60173 -2.652836,0.16789 -0.946447,-1.07722 -3.685124,-0.10304 -1.271,-1.43568 1.032875,-2.12524 -1.499473,0.19764 -1.946512,-0.75149 1.141043,-0.59879 1.522995,-3.26309 1.064468,-0.68273 -0.113666,1.86603 1.887821,-3.61085 2.149675,-2.26991 0.06432,1.21505 1.176817,-1.55721 2.017283,-1.8997 0.809683,-1.23747 0.382761,-4.52714 0.08784,-4.65707 -0.669698,0.64365 -0.936643,-1.45655 -2.120708,0.0525 -0.924822,-0.1199 1.810824,-1.46636 1.063439,-2.38129 1.505576,-0.44978 0.866211,-1.72611 0.138956,-0.78186 0.21372,-1.42106 0.988785,-6.36568 1.335461,-2.80549 0.765669,-0.85281 3.259926,-2.26815 2.756807,-2.68584 -0.839661,-0.74396 -1.885191,-1.16863 -2.280643,0.5183 -1.739936,0.7508 -1.433176,-3.85198 -0.08316,-1.42897 1.23399,-0.42633 1.459211,-0.30522 2.329471,-0.26867 0.09658,-1.04531 0.666476,0.47862 0.647319,-1.12531 -0.804123,0.34019 -2.559566,-3.73445 -1.222893,-3.57761 -0.201295,1.99496 2.641982,1.48483 2.204397,3.30009 1.451225,-1.63621 2.712124,2.41088 4.239273,0.27836 -0.112493,0.35424 -0.246711,2.15144 0.186996,0.54135 1.716102,0.40548 0.349563,-2.00335 1.237897,-2.2351 -1.338285,0.0553 -2.403614,-0.5531 -1.97,-1.45706 -0.210328,-0.22838 2.08826,0.32517 2.762426,-0.68165 0.514359,1.19221 2.092856,-0.99792 2.033232,0.95828 2.583097,0.21679 3.521836,-4.62923 6.546079,-3.65912 1.42239,1.37103 3.82289,2.12436 3.26607,4.38536 1.12301,0.0362 2.37416,-2.20803 1.97137,0.34623 0.81645,-0.054 0.42949,3.29573 2.75112,3.22115 0.66053,0.46263 3.00585,-1.35105 2.82072,0.59643 -1.40565,-1.73155 -0.12878,2.14936 0.97469,-0.0173 0.005,1.67761 4.07403,-0.11625 5.18471,1.28469 0.17767,1.69793 2.23053,-0.64675 0.64517,1.10105 -1.67434,0.46327 -0.92032,3.13966 -0.66529,4.65986 0.63468,0.95982 -0.17264,-3.22256 1.07307,-1.38358 -0.55821,-1.57099 0.98623,0.8527 1.45782,-0.12286 0.18677,0.69234 1.00555,2.18226 0.49741,2.78108 1.19175,0.17505 -0.43236,1.74828 1.17564,1.69643 -0.34733,1.15182 1.54997,1.15394 -0.13715,2.35616 0.38308,-1.04742 -2.68355,-3.69412 -1.47438,-1.60645 0.6297,0.69246 -1.13164,0.52056 0.20363,1.67713 0.1091,0.63103 -1.47821,-1.07712 -0.28375,0.6889 0.90781,1.13221 1.16996,-0.0985 1.619,1.53694 -0.57142,1.2799 -3.01616,-0.65949 -3.50896,1.33117 -2.00177,0.62812 -1.02175,3.88359 -3.19884,3.9444 0.0157,2.23058 3.38759,-0.73212 2.177,2.31822 -0.90826,1.3765 0.82137,2.19259 -1.4266,3.06604 -1.76459,0.68063 -2.1242,3.42092 -4.12198,1.91287 -1.53573,-0.50752 -5.35649,2.02318 -3.293,-1.20459 1.14092,-2.64743 1.79059,-5.5808 3.9001,-7.69746 0.97454,-1.49656 3.98272,-4.04031 3.66211,-5.05076 -1.5584,0.92186 -3.82177,4.22201 -4.7169,4.1962 0.49755,-1.98793 1.78724,-4.54476 1.70983,-6.22259 -1.70063,3.15635 -2.5808,6.72564 -4.08533,9.99374 -1.1434,2.19778 -1.66225,5.01408 -3.90904,6.37859 -1.48887,1.47049 -5.37517,-0.12009 -4.06148,2.09793 -1.26635,-1.27398 -2.078648,0.48707 -2.239974,-1.6135 0.965774,-4.14013 2.550024,-8.13395 3.477304,-12.29821 0.939,-3.8038 1.60571,-7.76297 3.70047,-11.14918 0.16686,-2.12858 -2.25054,2.71411 -1.45788,-0.0749 0.43723,-1.37395 0.14103,-3.40165 -0.4415,-0.9505 -1.27711,4.2437 -2.06866,8.63236 -3.43319,12.84279 -1.24047,-2.86939 -2.06044,-5.94208 -3.465534,-8.73227 -0.347516,2.07695 1.284682,4.55576 1.626048,6.80518 1.008126,2.71036 1.166596,5.66437 0.0091,8.36164 -0.72849,2.14538 -1.366654,6.07042 -3.502586,5.68086 -0.838824,1.37829 -1.000342,0.23084 -2.49105,0.0216 -0.619764,0.73605 0.938296,5.66602 -0.120758,2.87009 z m 23.778535,-8.51398 c -0.76238,-1.12569 -0.92562,1.39277 0,0 z m 3.41335,-9.65146 c -1.36615,-0.43899 1.00947,1.56631 0,0 z M 96.1875,153.14164 c 2.196962,-0.62481 -2.899102,-0.61454 -0.236709,0.46887 l 0.173996,-0.13428 0.06271,-0.33462 z m 1.701295,34.66773 c 1.382269,-3.69677 -0.38906,2.41829 0,0 z m -1.028854,-0.62835 c -0.466194,-2.56072 0.714401,0.6791 5e-6,0 z m -9.280758,-4.12994 c -1.504312,-0.83087 -3.282521,-0.93387 -4.059579,-2.20373 -1.847784,1.38558 -1.137355,-1.65152 0.497193,-1.38565 -0.244341,-1.36909 0.03904,-2.03294 1.530103,-1.51289 -2.793174,1.44909 2.195863,1.39204 2.02024,4.08177 0.06822,0.1492 0.789132,2.05882 0.01204,1.0205 z m -11.341147,-5.29442 c -2.904844,-3.96392 3.131588,2.37706 0,0 z m 8.623093,-0.41818 c 0.846663,-1.06476 0.895126,1.11788 0,0 z M 80.840455,177.093 c -0.67728,-1.21213 2.283084,0.18167 0,-3e-5 z m 41.824155,-6.45893 c -0.72265,-1.75489 1.32458,0.81751 0,0 z m -43.335111,-2.36528 c 0.948327,-1.2903 0.759838,1.01864 0,0 z m 0.453834,-7.31463 c 0.08344,-0.22717 -1.130089,-0.93314 0.571496,-0.63317 1.029369,0.50839 -1.517036,1.30441 -0.571496,0.63317 z m 43.050137,-0.79484 c -0.8501,-0.48904 -1.33634,-0.85834 0.19692,-0.55721 0.36002,0.34415 -5.6e-4,1.74438 -0.19692,0.55721 z m -35.827012,-9.28578 c -0.06361,-0.7822 1.686302,-2.16053 2.112469,-2.35754 -1.595234,1.27585 0.936625,3.51346 -2.112469,2.35754 z m -1.52051,-1.2229 c -0.485816,0.0181 -1.48486,-0.34284 0.0416,-0.50064 2.175423,-0.0266 0.813024,1.65803 -0.0416,0.50064 z"
         id="path3710" /><path
         style="fill:#2d968e;stroke-width:0.264583"
         d="m 90.652139,185.79192 c -0.998497,-2.72828 -2.385582,-5.33502 -3.350664,-8.0572 -1.396863,-0.39277 0.217548,-3.42149 -1.09042,-2.56143 0.795018,2.20069 -2.005054,-2.6803 -2.261098,-3.66566 0.14838,-1.50482 -3.276211,-2.90936 -1.049915,-3.01466 -0.979248,-0.68713 0.286675,-2.548 -0.977748,-3.96883 -0.374601,-2.35921 1.168899,-0.71487 1.373436,-0.20325 1.179024,0.5183 1.951813,1.00464 1.37935,2.44023 0.437721,1.86668 0.515891,0.27006 1.138712,0.0834 1.390899,3.04576 2.04686,6.39769 3.088184,9.57464 0.225236,1.74295 1.890296,4.63025 2.029242,6.95362 -0.524736,1.35052 2.390654,3.09074 -0.279079,2.41909 z m 10.080551,-0.62838 c -2.895579,-1.17168 0.54099,-4.69079 0.56565,-6.98174 1.58196,-4.76609 2.24526,-9.79584 3.98486,-14.50537 0.79751,-1.09124 2.2822,-5.08868 0.23583,-2.38528 -0.8153,1.46179 0.10097,-1.77542 -0.13578,-2.27695 -0.85896,-0.32388 -1.35774,3.71349 -1.88224,5.05083 -0.81754,2.84976 -1.21976,5.84091 -2.30053,8.60057 -0.8615,-2.625 -1.723863,-5.12669 -2.921337,-7.68035 -1.510581,-2.21414 0.05309,2.60966 0.313594,3.40935 0.81175,3.11478 2.388933,6.39662 1.132421,9.61879 -0.536969,1.9148 -1.179965,3.79755 -1.774247,5.69494 -1.863118,-0.56134 -3.089047,1.99363 -4.453233,0.81871 -0.628006,1.93691 -1.580909,-3.14826 -1.854296,-4.45478 0.04224,-3.2657 1.470012,-6.37557 1.792642,-9.56865 -1.242936,1.07447 -2.220884,4.15457 -2.4599,5.35291 -0.191569,3.77387 -1.419883,-1.89191 -1.469344,-2.64141 0.270824,-0.62686 -2.366467,-2.71346 -0.613658,-3.91814 -0.965526,-0.83506 -1.891829,-0.71948 -2.041978,-2.60711 -0.896864,-1.36032 1.352355,-0.15595 0.573287,-1.78662 -0.586606,0.26993 -3.442713,-0.31709 -1.257925,-0.86296 2.585943,-0.0143 0.43063,-1.71391 0.202579,-1.91373 1.365318,0.36797 1.891104,-0.74973 1.582606,-0.98924 1.206113,-0.67258 2.183631,-2.0328 0.474121,-2.48987 0.861003,-0.65801 -0.06336,-1.58352 1.343445,-0.95523 -1.363169,-1.78754 -3.383537,-0.60759 -2.150178,0.61616 -0.947059,0.80068 -0.329838,1.4044 0.463549,1.77356 -1.69609,0.4082 -2.878521,-2.73079 -2.3417,-3.8538 0.958537,-0.2344 0.387898,-1.43293 1.444299,0.0438 1.39697,0.43052 3.597466,0.85746 5.236471,-0.6003 0.724934,0.21844 3.191736,1.43316 1.45073,-0.13152 -1.852419,-2.35443 2.505527,2.10836 2.0578,-0.0938 0.422708,-0.59637 2.519306,-1.47943 1.494234,-0.21857 1.095718,-1.95191 2.303533,0.62791 3.487448,-0.8854 -2.193852,-0.2494 2.37316,0.28472 0.61333,-1.19265 -2.337397,0.82989 -0.68509,-1.11675 0.56011,-0.82095 0.84763,-1.51805 3.61635,-0.17664 2.97479,0.50845 -0.10855,1.0279 1.41734,-0.28184 2.0269,1.22277 0.98306,2.2376 4.26936,2.41161 5.26795,4.77762 0.48534,-2.32438 2.28821,2.12181 2.42175,1.01407 1.67637,-0.12003 1.85692,1.02616 0.0721,0.48262 -0.49371,0.63621 2.07814,1.45603 0.79974,2.04436 2.36289,0.1855 1.59086,3.62197 3.8786,4.6515 -0.49262,0.54384 1.19893,1.68859 -0.4525,1.12072 0.11201,-1.64857 -1.99126,-2.06226 -1.02432,-0.65118 -2.28077,-0.84826 -0.42534,0.12896 -0.27158,1.53891 0.17913,0.52442 0.85635,3.08508 -0.35826,4.0471 0.16952,1.7678 -0.52775,2.69945 -1.67443,3.54688 -0.1757,1.25123 3.29307,1.31809 1.36557,1.94367 0.38242,1.26613 -1.79948,-1.54095 -0.97156,0.82048 0.94465,0.47949 0.95558,1.12217 -0.0383,0.72888 -0.26003,1.62956 2.52614,-0.72527 1.06925,1.08217 -1.79258,0.3005 -2.98856,3.52894 -4.61606,1.78147 -0.82351,0.30805 -4.48616,1.3273 -3.50958,-0.26808 0.92752,-1.72077 1.72909,-1.98164 1.54943,-3.92935 1.22681,-3.31068 3.97366,-5.76294 6.29262,-8.32166 0.89203,-1.03056 -0.0373,-3.51359 -0.4866,-0.94956 -1.04024,1.11474 -3.39992,4.05769 -4.105,3.89672 0.4823,-1.86889 1.55461,-4.32413 1.36782,-5.94523 -2.58794,5.01789 -3.56334,10.81518 -6.91307,15.44395 -1.27933,1.88065 -4.43827,0.89543 -5.58075,2.20748 1.62655,1.0458 0.0985,0.80797 -0.43721,0.04 z m -6.976049,-2.49701 c -0.206195,-0.92183 -1.258595,1.10042 -0.183762,0.27925 z m 19.910749,-0.55501 c 0.91889,-0.89621 2.09764,-1.58847 0.36601,-2.79438 -1.34956,-0.3812 -1.63423,1.0147 -1.52263,1.21214 -0.16322,0.23107 0.99165,1.81751 0.72174,1.77915 l 0.43488,-0.19694 z m -2.1561,-0.61493 c -1.14253,-0.82266 -2.89529,0.29685 0,0 z m 6.24962,-10.4343 c -1.1755,0.2941 0.11072,1.63926 1e-5,0 z m -24.958309,-1.88197 c 1.613604,-2.08953 -1.825545,0.78407 -0.747363,0.58633 l 0.32111,-0.23552 z m -4.25245,-1.94642 c -1.92953,-0.6134 -0.07166,1.25161 0,3e-5 z m 1.083207,-2.06737 c -0.0017,-1.47189 -2.394914,-0.41321 -1.062119,0.61482 -0.21632,0.87693 1.42547,-0.10147 1.062119,-0.61482 z m 26.622942,-1.03705 c -0.63836,-0.49999 -1.31502,-3.33222 -1.30373,-1.4423 -0.17615,0.84864 1.74502,3.32577 1.30373,1.4423 z m -12.8589,-2.09674 c 0.60198,-0.7294 -2.47595,-1.01567 -1.07395,-0.30346 -0.80314,0.50117 0.86496,0.44549 1.07395,0.30346 z m -3.627243,-3.66567 c -1.82398,0.0568 -1.643893,1.83075 0,0 z m 7.132973,-0.58791 c 1.57458,-1.06307 -1.40878,-0.4129 0.0336,0.18686 l -0.0332,-0.18686 z m 1.33849,-1.44679 c 0.96781,-1.18875 -2.6236,0.70347 -0.42966,0.2571 z m -2.66141,-0.69631 c 2.28096,-0.25503 -2.58975,0.19442 -1.74456,-1.56107 -0.37856,1.15913 -4.742405,1.23664 -1.66633,1.68021 1.13772,-0.0111 2.27427,-0.0724 3.41089,-0.11914 z m -19.079172,26.06648 c -1.590821,-1.08968 -1.860065,0.33503 -2.994368,-1.03492 -2.627395,0.9622 0.857827,-2.52867 1.945766,-0.92978 1.130502,-0.79894 3.034664,3.57279 1.048602,1.9647 z m -5.658692,-4.60837 c -0.779009,-1.14154 1.674974,0.14638 0,0 z m 1.586821,-1.32149 c -0.3038,-1.07302 -3.034626,-0.24153 -1.668761,-2.17491 1.194018,-1.70653 0.61117,2.11636 1.369881,0.32097 1.194474,0.58505 3.589608,3.59276 0.29888,1.85394 z m -3.781513,-1.59197 c -0.18159,-2.22293 0.922904,1.31282 0,0 z m 4.4406,-0.4956 c -0.857441,-1.41893 -2.920137,-2.7794 -0.888156,-4.12427 0.406531,1.38578 2.239064,4.47451 1.653716,4.80229 l -0.349923,-0.30001 z m -3.040337,-0.53181 c 1.039311,-1.47732 1.017571,1.01972 0,0 z m 41.715973,-1.79219 c -0.87133,-1.82435 1.55697,0.71513 0,-1e-5 z m -40.65764,-7.09966 c 0.776762,-2.0971 0.43333,2.01202 0,0 z m 3.966554,-1.05568 c 0.202654,-0.70437 -0.914091,-0.87097 -0.610994,-1.58544 -2.215444,0.0509 3.183322,-1.57792 1.243535,0.73345 0.370597,0.84974 0.509982,1.64586 -0.773779,1.05374 l 0.141243,-0.20175 z M 83.8196,159.62146 c 0.841127,-1.1818 3.078878,-0.40161 0.62868,-0.10189 -0.147434,0.26541 -1.23669,0.98643 -0.62868,0.10189 z m 33.43372,0.32525 c -0.11336,-1.72468 1.62926,-0.0867 0,0 z m 0.36322,-2.1014 c -0.51074,-0.50749 -1.04605,0.67122 -1.14431,-0.52031 0.85616,-0.93877 2.30704,1.8477 1.14431,0.52031 z m -21.373327,-3.64809 c -0.259092,-0.76862 2.055487,-2.94408 1.603503,-0.52282 1.401509,1.25659 -1.672112,-0.9727 -1.042691,0.90711 l -0.245748,-0.0991 -0.315068,-0.28516 z m 2.325537,-0.62053 c 1.5024,-1.44947 1.67476,0.9591 0,0 z m -0.159097,-0.89076 c 0.303175,-0.3319 3.075967,-1.89468 1.200794,-0.0971 -0.302373,0.30892 -0.933166,0.66782 -1.200794,0.0971 z m -7.630535,-0.60372 c -0.872338,-0.0507 2.264604,-2.15853 1.542604,-0.26732 0.175241,1.05827 -1.118886,0.61037 -1.542604,0.26732 z m 7.418514,-1.75306 c -2.407895,0.52883 2.285758,-3.29139 0.611532,-0.90285 0.08362,0.20471 -0.681609,1.88902 -0.611532,0.90285 z"
         id="path3708" /><path
         style="fill:#188c83;stroke-width:0.264583"
         d="m 94.189634,184.43004 c -1.907534,-0.73538 -2.673053,-3.32494 -2.455537,-5.48421 0.286611,-1.13282 0.03333,-3.44586 1.755438,-2.5949 0.118634,-1.82793 -0.92547,-3.38578 -0.07804,-5.46359 -0.308094,-1.57012 -1.554563,1.59366 -2.211395,1.86935 0.548791,-0.15273 1.322775,-1.2886 0.635043,0.33582 -1.874245,0.24151 0.57083,-2.37351 -1.578658,-1.35849 -0.110736,-2.13693 5.364767,-0.8774 4.296073,-3.34001 1.745497,-0.18854 1.20772,-3.21563 0.03902,-2.16139 -0.307929,-0.0174 -1.173347,0.56689 -0.47289,-0.61854 0.08586,-0.80167 1.055618,-3.1954 2.728745,-1.61504 1.569075,1.13065 1.377974,4.74702 2.415278,6.73005 0.04926,1.84579 1.900829,4.89434 0.417183,7.34702 -0.980979,2.21378 -0.77185,5.9677 -3.964941,5.90779 -0.552362,-0.10881 -1.200761,1.21628 -1.525324,0.44614 z m 0.01162,-0.98327 c -0.69806,0.40099 -0.186977,-2.30184 -1.410855,-0.48578 0.234119,0.37113 1.056307,1.0945 1.410855,0.48578 z M 94.6,180.9302 c -1.17256,-1.86979 -0.984849,1.64308 0,0 z m 1.443725,-13.06426 c -1.609829,0.54421 0.174343,2.68228 0,0 z m 1.080696,-0.57938 c 0.121301,-1.35463 -1.779001,1.2073 1.4e-5,0 z m 4.219789,16.94662 c -0.74474,-0.28839 -0.38853,-1.03508 -1.717077,-0.5813 0.06216,-1.53088 1.107547,-2.40834 1.950347,-2.98427 -2.003945,-1.12641 1.02077,-4.30498 0.87671,-6.31556 0.8568,-2.90888 1.26791,-5.97586 2.2945,-8.81346 1.14623,1.70126 -0.896,-2.05546 1.17974,-2.25852 -0.11794,-1.351 1.69889,-1.53358 0.79027,-2.64486 0.5195,-1.76539 -2.75175,1.67258 -0.75798,-0.95901 0.59653,-0.21867 -1.57354,-0.49089 0.31846,-0.65893 1.859,-0.56875 4.06522,0.84628 4.58478,2.19739 -0.98191,0.95416 -0.2936,2.61474 -1.41424,2.08326 -1.21728,0.43004 1.40926,-1.2739 -0.67568,-0.88811 -1.69191,0.24395 1.77976,3.79921 1.82679,1.64892 -0.15379,1.64335 1.33195,3.16058 0.76539,0.60204 0.93603,-0.67672 0.42971,3.6587 1.86928,0.83007 1.24875,-1.45311 2.28642,1.06874 1.8353,1.73182 1.71875,-0.25881 -2.11198,2.2528 0.13497,1.22533 0.68909,-0.17259 -0.80124,1.13818 -0.0991,2.1163 -0.79285,1.4147 -1.22232,1.07473 -0.1422,-0.31347 -2.48126,1.40619 0.97264,-1.80903 -1.08888,-0.51922 -1.48688,1.2437 1.7281,-4.82676 -0.53923,-1.58595 -0.79314,1.18712 -1.32472,3.67481 -1.944,1.79415 -1.41077,-0.75397 -2.73868,-1.09452 -3.43419,0.70813 -2.62884,0.13733 -0.14331,2.78253 -2.66013,2.38365 -0.14459,0.84848 2.0251,0.11721 3.11592,0.20267 1.61873,-1.95604 -2.62109,1.07769 -0.91324,-1.18809 2.33814,-1.60179 1.99712,3.53308 3.13115,0.24126 1.40597,-0.94636 -0.16682,2.8853 -0.64557,3.55048 0.044,1.5526 -1.95563,1.89118 -0.73439,2.49366 -1.48625,-0.0611 0.2521,1.57241 -1.42254,2.16057 -0.75369,0.77218 -4.90405,0.0168 -2.45543,-1.20032 -1.64421,0.10744 -2.7194,-0.26486 -1.74982,1.67843 0.57976,1.33655 1.42888,3.25233 -1.04255,3.44702 -0.38288,0.0537 -0.95282,0.20414 -1.23734,-0.18408 z m 1.94183,-1.42977 c -0.81018,-3.34221 -1.65174,1.62874 -0.4026,1.1819 0.36402,-0.26844 0.44892,-0.76014 0.4026,-1.1819 z m 5.15882,-8.71026 c -1.60679,-0.38907 -2.57348,1.03377 -0.48747,0.82858 0.23749,-0.16318 1.08786,-0.56474 0.48747,-0.82858 z m -2.20319,-7.05357 c -1.27527,-1.48218 -1.2992,1.46046 0,0 z m 1.26224,-0.39688 c -0.21582,-1.13799 -0.7173,0.14233 -1.08079,-0.86558 -0.15865,0.43112 1.1944,2.52462 1.08079,0.86558 z m 2.79927,-0.86446 c -1.68055,-2.18492 0.0998,2.6831 0,0 z m -20.086141,17.71964 c -1.204819,-1.19232 -1.514487,-2.71675 -1.998518,-4.0893 0.421538,-1.39587 0.434995,-2.70812 1.365407,-0.71719 0.08218,1.27098 2.174638,4.29407 0.633111,4.80649 z m 21.162071,-0.88337 c 1.39888,-0.92545 2.23583,0.59545 0,0 z m 3.59381,-0.87494 c 0.39167,-1.41644 3.99364,-0.64377 1.05833,-0.0156 -0.18639,0.32806 -1.03242,0.65543 -1.05833,0.0156 z m -29.750026,-0.81199 c -1.328823,0.0256 -0.662791,-0.37073 -0.61289,-1.68878 0.330147,1.29527 2.688784,0.56754 1.0423,1.43767 2.127154,-0.57473 0.738503,1.26975 -0.429412,0.25116 z m -1.93548,-0.57003 c -0.738668,-1.42406 1.742343,0.48183 0,0 z m 27.720806,-2.61179 c 0.45977,-1.96734 1.32017,-0.0848 0,0 z m -28.380616,-1.61801 c 0.339204,-0.799 0.650412,-1.97256 0.717391,-0.44939 2.425819,-0.0179 -0.59735,0.61158 -0.717391,0.44939 z m 31.673686,-0.29078 c -1.44297,-1.53304 1.69348,-1.58753 0.49738,-1.04492 -0.92483,-0.35242 0.37483,2.35022 -0.49738,1.04492 z m -27.368142,-0.85383 c -1.118944,-1.20805 -0.93199,1.03177 -1.685015,-0.97653 -1.122702,-1.04066 0.154633,-2.5982 0.162381,-0.68745 0.634741,-1.6532 0.979991,0.47354 0.01554,0.75938 1.116503,0.49214 1.639471,-2.10141 1.846669,0.006 0.335152,-2.11342 2.183047,2.68572 -0.339573,0.89811 z m 28.039772,-1.30693 c 1.54782,-1.45888 -1.5895,0.43449 -0.0543,-1.02821 0.68407,-1.63761 3.36549,-0.79472 1.30425,0.30306 -0.25475,0.10002 -1.0936,1.41474 -1.2499,0.72515 z m -13.89318,-1.41506 c 0.13219,-1.24165 -0.932,-1.8883 0.83934,-1.95938 -0.0993,0.30665 -0.38514,2.56989 -0.83934,1.95938 z m -17.229123,-1.36913 c 0.331643,-0.70784 -0.273023,-2.61279 0.813192,-2.67848 0.402081,1.02503 0.102657,2.93861 1.894683,1.83 0.500142,0.78759 -2.594122,1.94828 -2.707875,0.84848 z m 16.985803,-1.66271 c -1.603645,-0.9081 -2.391524,-3.76632 -2.461164,-5.27344 1.130762,0.32301 5.381004,-1.72975 4.953544,0.4256 -0.51702,1.33787 -0.17628,3.53828 -1.70984,4.05879 -0.0446,0.52228 0.81707,1.28627 -0.78254,0.78905 z m -8.353087,-2.33764 c -1.465715,-1.27347 1.855212,-1.00828 0.643178,0.38287 0.170844,0.71153 -1.036401,0.0309 -0.643178,-0.38287 z M 115.3981,166.0919 c -0.22785,-2.0319 1.34277,1.33998 0,0 z m -25.825183,-3.81382 c 1.251127,-1.66833 1.13843,0.63251 0,0 z m 7.680579,-1.049 c -0.617305,-1.33968 2.352117,0.90275 0,2e-5 z m -1.198288,-0.79428 c -1.184874,-0.59393 2.237569,-0.71842 0.562917,0.23618 z m -1.011941,-1.24223 c 0.479541,-0.67444 -0.887275,-1.76044 0.480245,-1.11762 0.08971,0.26011 0.144319,1.72981 -0.480245,1.11762 z m 14.292393,0.005 c -0.0566,-1.74641 1.53988,0.76371 0,0 z M 93.282087,158.17 c -0.566373,-1.3526 0.225025,-0.30285 1.096978,-1.02925 1.910779,-0.97489 -1.14459,2.69587 -1.096978,1.02925 z m -2.668289,-0.5021 c 3.355417,-1.43705 0.156965,0.90655 0,0 z"
         id="path3706" /><path
         style="fill:#11897f;stroke-width:0.264583"
         d="m 99.939808,182.78229 c 0.620852,-1.8251 3.383382,-0.0874 1.367202,0.29083 0.34819,-2.19662 -1.778642,2.04328 -1.367202,-0.29083 z m -5.013823,-0.1323 c -0.743135,-1.65853 2.528155,1.30206 0.382187,0.37373 z m -1.331402,-1.11125 c -0.105005,-0.94011 0.739822,-4.12793 -1.50812,-2.94569 -0.682658,1.6039 -0.337527,-3.47287 1.482372,-1.82406 1.845501,-1.08621 0.01584,0.28005 0.66004,1.0107 1.154622,0.0575 1.216748,-3.02387 1.489036,-0.72615 1.891088,-1.25739 2.298893,-0.5491 4.139175,-0.23197 -0.166998,2.38784 -1.284288,4.77673 -3.817533,4.77008 -0.897011,-0.008 -1.550778,-2.7893 -1.229933,-0.35173 -0.558149,-1.93046 -1.872051,-0.0567 -0.635339,0.61631 l -0.27847,-0.0933 -0.301267,-0.22424 z m 1.402292,-2.06375 c -0.721803,-2.44772 -1.761357,0.77259 0,0 z m 2.38125,-1.32291 c 0.52459,-0.97092 -2.169252,0.70765 0,0 z m 18.514275,3.1856 c 1.48879,-0.83289 2.15636,0.27455 0,0 z m -13.50688,-1.50991 c -0.0636,-0.56122 -1.88092,0.47813 -1.11386,-1.2341 -0.006,-2.52006 2.0826,-2.27078 3.72509,-2.50898 -0.89965,0.004 -4.23633,-0.55964 -1.90076,-0.83463 1.24143,0.011 1.1763,-0.89835 2.71246,-0.0663 1.89676,0.076 0.54973,0.73237 -0.0186,0.75264 0.79275,0.38107 3.26965,-0.0897 1.09917,0.53299 1.1781,-0.15938 1.97489,2.8082 0.45788,0.97771 -0.82639,-0.83779 -1.34294,0.0221 -2.04075,0.14087 -0.80495,-2.37379 0.7984,2.5144 -1.61406,1.72302 -1.6802,-1.81277 0.022,1.40091 -1.2858,0.76802 l -0.0208,-0.25141 z m 2.53323,-1.51885 c -1.44171,-0.49548 -0.40497,-0.10061 -1.04034,0.85926 0.38701,-0.21097 0.8636,-0.41842 1.04034,-0.85926 z m -5.709917,-2.4455 c -1.398742,-2.75348 2.965607,1.29635 0,0 z m -4.423995,-0.44794 c 0.282257,-2.03726 1.02796,0.5103 0,0 z m 10.133912,-1.09986 c 0.99177,-1.45552 0.50081,1.2959 0,0 z m -6.731299,-0.80216 c -1.000999,-1.29388 3.424309,0.70317 0.456899,0.26114 z m 4.775689,-0.76488 c 0.57648,-1.48099 2.192,1.02474 0.44016,-0.0241 0.38348,0.53054 -0.67409,0.53467 -0.44016,0.0241 z m 1.27854,-1.13351 c -0.0407,-1.48125 0.85427,0.18387 1.48163,-1.13563 0.11222,0.83929 -0.88607,2.40777 -1.48163,1.13563 z m 6.83776,-2.17299 c -1.08544,-1.80507 0.80649,0.18712 1.77681,-0.55942 -0.16495,0.64879 -1.2519,0.83373 -1.77681,0.55942 z m 1.92173,-1.41031 c 0.0227,-1.2298 -1.76922,0.95165 -1.39261,-1.10753 1.42792,-1.18889 2.05199,1.63717 1.39261,1.10753 z"
         id="path3704" /></g></g></svg>
