<?xml version="1.0" encoding="UTF-8" standalone="no"?>
<!-- Created with Inkscape (http://www.inkscape.org/) -->

<svg
   width="54.208042mm"
   height="43.132141mm"
   viewBox="0 0 54.208042 43.132141"
   version="1.1"
   id="svg1977"
   xml:space="preserve"
   inkscape:version="1.2.2 (732a01da63, 2022-12-09)"
   sodipodi:docname="buissonnant-arrondi-natural_low.svg"
   xmlns:inkscape="http://www.inkscape.org/namespaces/inkscape"
   xmlns:sodipodi="http://sodipodi.sourceforge.net/DTD/sodipodi-0.dtd"
   xmlns="http://www.w3.org/2000/svg"
   xmlns:svg="http://www.w3.org/2000/svg"><sodipodi:namedview
     id="namedview1979"
     pagecolor="#ffffff"
     bordercolor="#666666"
     borderopacity="1.0"
     inkscape:showpageshadow="2"
     inkscape:pageopacity="0.0"
     inkscape:pagecheckerboard="0"
     inkscape:deskcolor="#d1d1d1"
     inkscape:document-units="mm"
     showgrid="false"
     inkscape:zoom="1.5679012"
     inkscape:cx="46.877953"
     inkscape:cy="-47.19685"
     inkscape:window-width="2560"
     inkscape:window-height="1369"
     inkscape:window-x="-8"
     inkscape:window-y="-8"
     inkscape:window-maximized="1"
     inkscape:current-layer="layer1" /><defs
     id="defs1974" /><g
     inkscape:label="Calque 1"
     inkscape:groupmode="layer"
     id="layer1"
     transform="translate(-81.000416,-185.2281)"><g
       id="g2110"
       transform="translate(30.0375,43.5375)"><path
         style="fill:#c8d9c7;stroke-width:0.264583"
         d="m 73.847915,184.60308 c -5.497526,-0.70812 -10.967202,-2.13345 -15.964734,-4.55211 -2.124858,-1.0393 -3.404163,-3.04306 -5.014261,-4.68423 -1.456397,-1.67199 -1.728888,-4.01443 -1.906004,-6.07477 0.997076,0.0642 0.296923,1.97759 0.801145,0.22919 -1.692757,-2.05049 -0.186205,-4.3094 0.51343,-6.23202 1.023563,-1.85462 2.055439,-3.03454 3.071772,-4.87567 0.481911,-0.98117 0.471161,-1.47333 -0.231861,-1.86109 0.02549,-1.74816 2.809595,-1.2073 3.044816,-2.87554 -0.950114,-0.3886 0.623677,-1.38158 0.443159,-0.19814 1.047698,-0.969 2.00573,-1.247 2.376208,-2.04983 1.325515,-0.83973 2.533212,0.98523 2.923073,-0.8649 0.256046,-1.17097 -1.261231,-3.86459 1.042013,-3.11195 0.771315,-0.78557 2.134988,-3.62114 3.003711,-1.34563 -2.430664,0.11037 0.925004,2.16675 0.823978,0.63236 -1.459825,-0.38487 -0.390079,-2.95369 0.07301,-1.81132 -0.148264,1.36309 1.897701,-0.66795 2.008447,0.84882 0.127476,-1.33985 1.903516,-1.72773 2.631797,-2.8816 0.537911,-0.36476 1.860464,2.37887 1.800744,0.39651 1.504847,-0.1469 4.446544,-0.42747 5.005247,-0.4484 0.02352,-1.10493 1.493127,1.36579 1.250792,-0.67717 1.035723,-0.67696 2.913321,-0.5451 4.430349,-0.13374 1.948582,0.6451 4.481796,-0.0288 6.129428,0.81544 0.917627,2.57251 3.874911,2.87311 5.732673,4.40801 1.629653,1.89343 2.305503,4.0374 3.774323,6.00591 1.66123,1.22249 2.51246,2.99315 3.14864,5.01394 0.77943,2.17328 0.29742,4.53079 -0.18772,6.41622 0.88364,1.93252 -0.0722,3.95415 -1.03636,5.3673 0.43379,2.92718 -1.15198,5.63313 -1.97206,8.35466 -0.33941,1.81224 -2.29995,0.50513 -2.692714,2.44691 -1.450034,-0.44819 -2.414327,1.07076 -2.343241,1.97114 -1.380214,-0.47991 -3.297888,1.46135 -5.217371,0.9846 -2.384213,0.46579 -4.797775,-0.17876 -7.200439,0.50949 -1.616753,-0.22528 -6.327536,1.89154 -5.275073,-1.21138 2.693979,-2.65968 6.036432,-4.59032 9.164237,-6.70669 2.337954,-1.61037 4.957623,-2.7779 7.275177,-4.40183 -3.261433,1.27817 -6.226862,3.22146 -9.46047,4.57145 -0.459684,-1.24835 1.375345,-3.9564 0.602841,-4.33349 -1.305144,2.10965 -1.139686,5.3041 -3.684279,6.46754 -1.061553,0.50507 -3.085077,2.68879 -3.470111,2.14773 1.512327,-3.33577 3.269857,-6.55908 5.240781,-9.646 3.860601,-1.89967 7.84274,-3.56728 11.703976,-5.43775 -3.541348,1.09086 -6.927298,2.8706 -10.439191,3.88355 1.999625,-3.35489 5.046368,-5.95715 7.359105,-9.0803 -1.528645,0.72972 -3.358598,3.93811 -3.957367,0.93568 0.508528,2.56492 -1.965693,4.07969 -3.377702,5.90122 -2.869959,3.42058 -5.627346,6.98788 -7.72266,10.94118 -1.529604,-0.92631 0.572038,-3.97827 1.444628,-5.34998 0.606658,-1.15336 2.420754,-3.48676 2.294153,-4.04973 -1.466167,1.65521 -2.649828,3.54533 -4.150655,5.168 0.234426,-2.05591 -0.001,-4.54617 1.894494,-5.8912 3.591646,-3.58261 7.465604,-6.87149 11.112351,-10.39181 -1.169293,0.02 -3.365649,2.92113 -4.724004,3.23857 -0.0015,-1.05289 1.152323,-3.55014 0.580208,-3.79774 -0.943135,2.37286 -1.209584,5.21439 -3.581818,6.70267 -1.335922,1.03481 -2.99497,3.02596 -4.190764,3.3823 0.943428,-3.40967 1.98598,-6.80474 2.6928,-10.27342 -1.277004,2.12533 -1.923752,4.62348 -3.055519,6.78298 -2.787704,-2.23987 -4.723301,-5.38642 -7.269276,-7.84937 0.692571,1.68175 2.55918,3.35818 3.761488,4.98569 1.224931,1.85151 4.0702,3.56647 2.650626,6.07237 -0.452797,1.58158 -0.434011,5.73151 -2.725153,3.19015 -2.488625,-1.82165 -5.458222,-3.54633 -6.319106,-6.74004 -0.156691,-1.04733 -2.028227,-4.4249 -1.107591,-1.46157 0.558251,1.3929 1.878445,4.59217 -0.466481,2.42251 -0.68644,-0.39857 -2.764677,-2.2765 -2.905522,-1.87149 3.950152,3.3929 8.059417,6.59788 12.092779,9.89188 -0.17134,0.93438 0.453406,4.20873 -1.023353,2.55111 -0.810832,-0.9968 -2.397627,-2.28631 -0.95039,-0.2879 1.113723,1.35009 2.435288,3.60959 1.269841,5.05993 -2.397055,-3.83349 -4.92147,-7.58943 -7.484404,-11.31374 -1.198884,-0.82909 0.916354,2.21595 1.195765,2.88912 1.019776,2.06325 2.780929,4.09273 3.311089,6.21969 -2.578019,-1.46894 -5.430712,-2.64828 -7.586837,-4.72872 -0.903291,-1.74781 -3.420553,-2.89881 -3.406345,-5.37937 0.0951,-1.19557 -0.79402,-3.00761 -0.637966,-0.72388 0.09553,2.57541 -1.980433,-2.53882 -2.967432,-2.59389 1.17396,2.76651 3.493108,4.9432 4.602541,7.72066 -0.795286,0.18964 -4.814766,-1.86348 -2.155187,-0.0362 1.983529,1.19685 3.908753,2.29412 5.922322,3.29792 2.40254,1.34453 -1.926987,0.26956 -2.858887,0.37377 -0.864549,-0.14143 -5.705365,-0.18757 -2.60794,0.27182 2.917087,0.43419 5.984224,0.35622 8.761069,1.4273 2.102514,1.15131 4.481501,2.31961 5.395426,4.70737 0.788348,1.43087 1.62493,3.47794 -1.028203,2.63098 z M 53.081444,174.39427 c 0.238277,-0.91932 -1.065621,-3.84996 -0.75796,-1.56311 0.267994,0.4678 0.813563,4.20057 0.757948,1.56311 z m 0.261262,-6.29633 c 0.261409,-1.26604 -0.525406,-3.37644 -0.54519,-0.90729 -0.71004,1.24713 -0.175502,0.80302 0.0123,1.37484 -0.77973,-0.0874 -0.228626,1.72164 -0.05982,2.3497 0.858715,-0.43825 0.43574,-2.0179 0.592704,-2.81725 z m 2.31809,-4.17374 c 1.271391,-2.78795 -4.064224,0.7033 -1.240455,-0.71943 0.814974,-0.14792 -0.512776,2.3631 0.942052,1.25806 l 0.139687,-0.23417 0.158719,-0.30443 z m 5.904963,-10.82889 c 0.429621,-1.31973 -0.347804,-1.95149 -0.236587,-0.2331 -0.57822,0.53645 -0.286505,1.04758 0.236587,0.2331 z m 0.375906,-3.53474 c -0.350115,0.17835 2.411436,-1.49048 0.58346,0.13365 l -0.161455,0.15593 -0.422013,-0.28955 z"
         id="path2124" /><path
         style="fill:#afc8ac;stroke-width:0.264583"
         d="m 78.717417,183.87706 c 0.857158,-2.18801 3.361048,-3.12006 5.049801,-4.59372 3.562875,-2.67031 7.500785,-4.75872 11.312844,-7.0278 -0.08477,-0.92986 -2.776066,1.26881 -3.766895,1.56205 -1.722254,0.63202 -4.116576,2.75979 -5.499187,2.42538 -0.211788,-1.23455 1.340759,-3.64411 0.677958,-4.09728 -1.486537,2.08949 -1.127696,5.43835 -3.835528,6.52195 -0.927788,0.55468 -4.128286,3.51607 -2.646974,0.70647 1.318691,-2.82161 2.927306,-5.49116 4.518353,-8.16419 3.907022,-1.88855 7.961527,-3.49147 11.816041,-5.46401 -1.896773,0.099 -4.173704,1.70263 -6.234425,2.27543 -1.278532,0.35742 -3.404311,1.61274 -4.190698,1.34055 2.11828,-3.1327 4.949414,-5.69099 7.284191,-8.64147 -0.779295,-0.82629 -3.806703,4.51005 -3.810233,0.7035 -0.756031,0.57667 -0.351295,3.5352 -2.144906,4.29333 -3.499811,3.63172 -6.288374,7.85519 -9.057548,12.04428 -1.495771,0.40951 0.04701,-3.01167 0.727749,-3.79022 0.70456,-1.52275 3.390584,-4.49024 2.95007,-5.12392 -1.470945,1.59989 -2.599847,3.4831 -4.080821,5.0716 0.01949,-2.2223 0.257019,-5.06616 2.446114,-6.39091 3.624377,-3.44493 7.44976,-6.68548 11.077092,-10.11668 -2.005076,0.50268 -3.549244,2.67532 -5.36561,3.81985 -0.0017,-1.31583 1.281107,-3.3234 0.739098,-4.20912 -1.029811,1.59439 -1.190274,3.61438 -1.958848,5.29821 -1.897402,1.65902 -3.680846,3.4665 -5.718051,4.95194 0.586346,-1.80364 0.624938,-5.6747 2.372905,-6.055 1.327196,0.83427 -1.455199,-1.53221 -0.171828,-2.36225 0.51181,-0.91746 0.434844,-2.79328 -0.368366,-0.91667 -0.393539,1.2668 -0.752806,1.85897 -1.658799,0.48257 0.873512,1.11938 0.714161,1.97192 -0.501647,2.45158 1.653951,-0.66685 -0.383686,4.8306 -1.355247,2.01418 -2.129314,-2.2259 -3.892973,-4.81259 -6.219444,-6.83889 -0.07695,1.03592 2.550851,3.32085 3.526945,4.79619 1.138272,1.37224 2.257336,2.76022 3.382321,4.14333 -0.705971,1.9332 -0.812306,4.02876 -1.406812,5.97497 -1.986045,-0.23148 -3.631364,-2.26085 -5.338925,-3.39194 -1.936102,-1.54283 -3.0653,-4.0034 -3.151868,-6.45524 -2.188636,-1.66161 -0.162757,2.76133 0.149512,3.80957 -0.0799,1.04768 -2.384728,-1.58796 -3.383163,-1.98147 -2.606594,-1.37059 1.158788,1.50644 1.785956,2.06378 3.01419,2.58721 6.301498,4.85991 9.226321,7.54274 0.450696,0.63314 0.187014,3.14128 -0.196726,3.12327 -0.557742,-0.69135 -2.952276,-3.44457 -1.793894,-1.25718 0.510129,1.19125 2.799665,3.30864 1.293031,4.19578 -1.730588,-1.70003 -3.031054,-3.99666 -4.426088,-6.0704 -0.989347,-1.23531 -2.669684,-4.52105 -3.54823,-4.34562 0.888217,1.2979 1.150904,2.06669 -0.306933,2.80041 -0.742177,1.84934 0.442257,2.19576 0.955342,0.49062 1.540426,-1.05454 2.321268,2.7534 3.387122,3.68982 0.628698,0.98556 2.004835,3.18235 -0.04827,1.70706 -2.163904,-1.26695 -4.616667,-2.25199 -6.335987,-4.12809 -0.298334,-1.25224 -2.364978,-1.92424 -1.551806,-3.31802 -2.171495,1.64127 -1.156596,-3.21338 -2.49519,-3.9728 -0.361634,0.96365 0.172685,3.10569 -1.00176,1.0916 -0.870725,-1.17795 -0.448181,-2.81391 -2.341406,-2.36097 1.464414,2.49822 3.429947,4.71673 4.618891,7.36166 -0.325359,0.81772 -3.866705,-1.56853 -2.928261,-0.13343 1.081572,0.72428 3.92474,1.52369 3.1821,2.67085 2.085618,0.0581 0.182117,2.23397 -1.208887,1.26913 -1.132176,-0.34646 -3.136574,0.11732 -1.35516,1.26528 0.984574,0.36448 1.197776,-0.0896 0.955071,-0.71918 1.941846,-0.74687 2.716904,1.75783 3.87154,1.94758 -0.23687,-1.35172 0.472932,-1.41302 1.604085,-1.20467 2.610074,-0.15396 4.854444,1.43152 6.762822,3.02621 0.06034,1.93382 3.218214,2.8743 2.43352,4.83596 -0.364552,-0.87504 -2.362269,0.41674 -3.74773,-0.36558 -2.4755,-0.48311 -5.114638,-0.81457 -7.351883,-1.96753 0.903189,-0.37072 3.476972,1.25633 3.590691,0.58805 -1.297235,-0.1425 -3.08952,-3.9364 -2.10225,-1.02359 -1.471638,0.85643 -3.108662,-3.36607 -1.109253,-2.80774 0.234135,1.29976 0.13127,2.25776 0.699096,0.52985 0.952791,-1.80835 -2.698592,-1.4093 -1.960448,-0.0122 -1.029388,-1.02569 -0.639817,-0.35371 -0.596924,0.22789 -1.110506,0.31354 0.807254,0.2704 0.4601,1.12675 1.134007,2.79349 -1.799311,0.0183 -2.289807,-0.99416 -2.099133,1.61629 -4.222457,-0.53447 -5.365761,-2.05702 -2.606501,-0.91569 -2.595265,-4.08536 -2.450709,-6.37408 0.307222,-2.24325 -0.517445,-5.19845 1.844647,-6.42642 1.115747,-1.16836 2.375721,-2.83757 1.117236,-4.28455 0.37795,-0.84314 1.919374,-2.47062 0.189828,-1.16602 -0.537025,0.70475 -1.269114,3.39344 -2.18029,2.07039 0.54167,-1.81971 2.150304,-3.82653 1.958241,-5.61474 1.073764,-1.09124 2.296945,-0.70758 2.927368,-2.37885 0.919583,-0.90778 0.960297,-0.41285 1.362831,-0.13374 2.281664,0.91413 -0.372846,2.46302 -1.32636,1.54004 -0.258874,0.7205 -2.066709,2.2182 -0.106716,1.32677 1.500418,-1.62989 5.11253,-0.83571 5.6403,-3.08088 1.806031,-0.3967 -1.082129,-0.57075 -1.217032,-0.53058 1.131549,-0.55472 1.733863,-1.85435 0.899863,-1.9046 1.690596,0.051 0.122509,-0.89403 1.238123,-1.60609 1.486302,0.73429 -2.30367,-2.28351 0.219584,-0.78853 1.022989,1.3298 1.029541,-2.17658 1.838113,0.0326 1.002843,1.19993 -3.331343,2.75104 -0.729456,1.95784 1.951251,-0.51934 0.435237,-1.71814 2.014614,-2.26918 0.536684,-1.21091 1.512671,-1.7608 2.759463,-2.68825 1.70188,0.59836 0.07219,-2.60325 2.120584,-2.37363 -1.409409,1.04317 0.658227,2.51933 0.304565,0.63597 1.113452,1.65894 2.037707,1.1974 3.366725,-0.0952 1.169422,-0.76888 -1.68698,1.95278 0.248196,0.76925 0.742113,-0.61104 1.483558,-0.12383 1.872608,-0.39654 -1.633164,-1.50098 1.223414,-0.90938 0.405636,0.58213 0.784933,-0.66619 0.16291,-2.61107 1.292949,-1.08066 0.222941,-0.76267 1.860367,-1.65267 0.801549,-0.24934 1.843322,0.24329 4.023982,0.10612 4.566182,1.70941 -0.948792,1.06268 1.208452,0.27348 1.165106,-0.13307 0.749359,-0.78166 -1.105389,-0.74435 0.367309,-1.69765 2.11291,-1.45323 4.272862,-0.28831 5.387747,1.71199 1.097849,0.54355 -0.436109,3.60841 0.844973,1.3856 1.070427,-0.66314 0.596505,1.62559 1.721334,1.93036 0.702183,0.88067 1.508391,1.20713 2.475588,0.66267 -0.147838,1.05076 -2.344615,0.99749 -0.586465,1.47017 0.478134,0.84661 -0.577665,1.88671 1.176047,1.84466 1.771747,0.7941 0.729929,-0.4789 0.76341,-1.46865 0.506737,1.00621 1.046337,2.71387 1.495527,2.99753 -2.846238,0.12394 1.99337,1.50896 1.89839,3.01931 1.0521,1.27277 -0.0403,2.11946 0.80699,3.66503 -0.0659,1.00489 0.29909,1.82537 0.92851,1.75464 -0.46171,0.87499 -1.36534,0.76283 -0.34176,1.3296 -1.54153,1.03158 1.295,3.96192 -0.85544,5.21446 -1.93361,-1.02244 0.86762,4.0428 -0.80134,3.48991 0.34,2.36857 -1.09098,4.45987 -1.84693,6.61017 -0.6044,1.37563 -2.414936,-0.69894 -2.028544,1.30966 -0.326896,1.28952 -1.826681,-0.1 -2.70869,1.5207 -1.149153,1.84336 -3.136444,1.37472 -4.954845,2.0036 -1.977021,-0.62203 -3.137053,-0.11733 -5.175803,0.32047 -2.515216,0.4791 -5.130871,0.67094 -7.661476,0.67997 l -0.04545,-0.23481 0.06887,-0.45126 z m -19.157002,-3.82953 c 0.908605,-0.35742 1.308848,-1.20418 0.07024,-0.76673 -1.403075,-0.10511 -0.99388,-2.21635 -2.027161,-0.71319 -2.347577,0.30356 1.79605,1.81467 1.956923,1.47992 z m -3.681569,-7.55752 c 0.824287,-0.46722 -1.562255,-0.8888 -0.469005,0.29902 0.167703,-0.096 0.201099,-0.45043 0.469005,-0.29902 z m 8.792221,-4.57803 c 0.537442,-1.9152 -2.708588,-0.15299 -0.361974,0.17805 l 0.210241,-0.0223 0.151736,-0.15574 z m -1.759263,-0.72761 c -0.816492,-0.89178 -1.738796,-0.9649 -0.371605,0.18082 l 0.349556,0.21018 z m 10.936111,-1.05504 c -0.758349,-0.54409 -1.25114,-0.0225 -0.672932,0.82373 0.257051,-0.24091 0.540037,-0.48684 0.672932,-0.82373 z m -1.322917,-2.51683 c 1.482826,-1.1486 -1.780257,-2.48856 -0.683355,-1.41021 1.166551,0.51121 0.02882,0.66308 -0.02388,0.68336 0.774754,0.6047 -0.682695,2.64371 0.52131,1.07958 l 0.185918,-0.35275 z m -2.38125,-0.66146 c -0.848787,-1.54239 -0.818232,1.51435 0,0 z m 7.672917,-2.51354 c 0.556031,-0.14314 -2.850394,-1.76769 -1.307241,-0.31418 0.336256,0.40176 0.834815,0.82159 1.307241,0.31418 z m -19.579167,-3.22557 c -0.603892,-0.81056 -0.976154,2.274 -0.109236,0.30054 z m 20.60375,0.13332 c -0.516655,-0.53068 1.259394,-0.0639 -0.163116,-0.72796 -0.921421,0.31461 0.778586,1.85711 0.163116,0.72796 z m -1.024583,-0.74421 c 1.818803,-1.30043 -1.389709,-0.30682 -0.07084,0.27992 l 0.07084,-0.28029 z m -8.24738,-4.8555 c 1.405275,-2.0384 -2.320253,1.2025 -0.236343,0.19021 z m -0.850797,-1.55274 c -1.436224,0.0397 -0.818175,1.60398 0,3e-5 z m 9.36276,-0.36732 c -0.106759,-0.8472 2.452768,-0.17248 0.622746,-0.8159 -0.977747,0.11689 -2.9111,1.17005 -0.748345,1.29664 l 0.105831,-0.1519 0.01977,-0.32881 z m 13.714084,0.17813 c 1.475823,-0.31838 -1.852613,-0.24868 -0.839007,0.18198 0.137771,-0.30221 0.616421,-0.21229 0.839007,-0.18198 z m -12.328593,-2.24376 c 0.790699,-1.21219 0.02075,-1.57431 -0.856326,-1.39816 0.865877,0.106 0.105326,2.72293 0.856326,1.39816 z m 2.935377,-3.61545 c -1.320837,-1.06836 -1.17207,2.01448 0,0 z m -17.448228,31.43645 c -0.941653,-0.82722 -0.405365,-2.09612 0.166827,-0.36043 -0.07383,-0.4185 2.768826,0.7326 0.914718,0.55884 -0.367282,-0.009 -0.742196,-0.042 -1.081545,-0.19841 z m -13.215681,-2.5095 c -0.641187,-0.96165 0.335091,-3.94865 0.649065,-3.76357 -0.489482,1.31548 -0.14004,3.89081 -0.49246,4.37088 l -0.07655,-0.27342 -0.08006,-0.33389 z m -0.361175,-4.95664 c -0.451518,-1.54329 0.854768,-4.18428 1.563009,-4.87595 0.848165,1.6113 -0.67083,3.32587 -1.405293,4.39274 0.556883,0.75152 0.152661,2.0029 -0.157715,0.48322 z m 11.622966,-14.26349 c 0.610335,-0.83508 1.953757,-0.093 0.473832,0.15774 -0.143171,0.11853 -0.491004,0.10349 -0.473832,-0.15774 z m 36.022788,-4.17282 c -0.760403,-1.56318 1.296184,0.70466 0,0 z m -33.44645,-1.79541 c -1.011621,-1.15625 1.441247,-0.59305 0.349441,0.21703 l -0.349439,-0.21703 z m 31.466718,0.20729 c -0.718465,-0.81236 0.559183,-1.60315 0.578767,-0.3698 -1.17077,-1.8288 0.216528,1.178 -0.578767,0.3698 z m -12.876389,-4.97669 c 0.679024,0.11409 2.471502,-1.5649 1.699876,0.062 -0.46816,-0.30586 -1.504011,0.58179 -1.699876,-0.062 z m 2.453997,-0.13859 c 0.338951,-1.67747 0.597898,1.65509 0,0 z"
         id="path2122" /><path
         style="fill:#92b48e;stroke-width:0.264583"
         d="m 78.852879,183.65585 c 1.24673,-2.3427 4.015776,-3.41622 6.009881,-5.0649 3.217324,-2.30323 6.707426,-4.17715 10.060965,-6.25888 0.843664,-1.2645 -2.176705,0.76716 -2.89229,1.02141 -2.07045,1.03561 -4.051365,2.25442 -6.151699,3.2236 -0.419663,-1.19537 1.428831,-4.06633 0.586418,-4.39174 -1.475259,1.97954 -1.166306,5.13978 -3.6192,6.32009 -0.9114,0.39039 -3.147502,2.80841 -3.296523,1.93627 1.49492,-2.98756 2.870625,-6.09932 4.89093,-8.77286 2.677504,-2.00146 5.974612,-2.96617 8.958222,-4.42989 0.932739,-0.31518 4.777923,-2.152 1.980327,-1.35595 -3.235482,1.21536 -6.39389,2.62937 -9.647468,3.79938 2.210967,-3.3275 5.308839,-5.96698 7.624589,-9.18817 -1.352042,0.41677 -2.404346,1.72154 -3.575778,2.58618 -0.0062,-1.19798 -0.953303,-2.76797 -0.852088,-0.44902 0.04835,2.59698 -2.989514,3.73244 -4.141491,5.80992 -2.591643,3.1118 -4.842294,6.48681 -6.905181,9.96686 -0.521818,-1.58445 0.198706,-3.12601 1.080424,-4.43781 0.762759,-1.68399 2.997778,-3.86921 3.012875,-5.20221 -1.58699,1.55031 -2.673386,3.52874 -4.186334,5.14385 0.152984,-2.25001 0.233401,-4.91203 2.382268,-6.24387 3.623024,-3.46803 7.477507,-6.68741 11.087651,-10.16705 -1.655781,0.0661 -3.409856,2.50868 -5.073216,3.48267 -0.593895,-0.38422 1.865706,-4.74938 0.206188,-3.60783 -1.009047,1.73241 -0.8703,4.60582 -2.764228,5.55512 -1.261455,1.20207 -3.285553,3.66881 -4.624622,4.12995 0.463114,-1.61702 0.935647,-5.66494 3.032631,-4.96281 -0.443636,0.92651 -0.663094,1.02394 0.471209,0.83781 0.735282,0.92782 -0.236692,-2.12424 -1.333411,-2.43859 -0.617719,-0.76167 0.472971,-2.02017 0.459458,-2.96306 0.128886,-2.6819 -1.626731,3.83493 -2.181422,0.50934 -0.144274,-1.35665 0.756176,-5.08351 0.102186,-5.15485 -0.114316,0.51428 -0.449925,-1.52827 -0.497425,0.38095 -0.164299,-0.49814 -2.947846,2.398 -2.22399,-0.26285 1.165445,-0.46118 -0.547743,-0.72467 -0.868156,-0.47453 2.114399,-2.13163 -2.036842,-0.58351 -2.023796,1.01326 0.764883,-0.47162 1.770066,-2.00647 0.772913,-0.0552 0.02351,1.10455 1.403662,2.13253 1.759633,0.62966 0.328585,1.06172 -0.282879,1.90024 -1.49121,1.734 0.800422,-0.98745 -0.178475,-0.20693 -0.06523,-1.23741 -1.001155,-0.64667 -1.065024,-0.97343 -1.062855,0.26459 -0.909005,1.33567 0.06332,0.91898 0.237619,1.25677 0.974356,0.99569 0.703424,3.00163 -1.016144,1.64977 -0.469698,-0.6939 1.874653,0.0378 0.539832,-1.21189 -0.829447,-0.94672 -2.374096,-3.3455 -2.066866,-1.43417 0.735198,0.25328 1.000166,2.44819 -0.216026,0.83364 -1.725403,-0.53262 1.716046,1.9459 -0.0672,2.59876 -0.08542,1.3012 -1.329342,3.13079 -0.523921,3.48829 -2.127685,0.53477 -1.9907,-1.35327 -1.27189,-1.33463 -1.240839,-0.67488 -3.350707,-0.38681 -2.400819,1.17027 0.154382,0.71389 1.840771,3.41571 0.975782,3.25424 -1.339715,-0.77421 -2.891464,-2.46659 -4.156665,-2.62847 1.922927,2.26601 4.690071,3.62517 6.625515,5.8863 1.943394,1.26302 3.861455,2.65995 5.418782,4.38756 0.05491,0.50435 0.45709,3.93221 -0.43583,2.59603 -0.648495,-0.92376 -2.91604,-3.05185 -1.464202,-0.68222 0.774564,0.89988 2.864398,4.24794 0.138464,2.72539 -1.822335,-2.41494 -3.531725,-4.96063 -4.897427,-7.6617 -0.706326,-0.63307 -3.010151,-3.22442 -1.748941,-0.75395 0.903965,1.19998 -1.721048,1.95052 -0.988594,3.69379 -0.416319,1.91462 -0.969499,0.32884 -1.608292,-0.32084 0.365097,-0.93344 -1.802643,-0.59893 0.054,-1.19 -0.03531,-0.87972 1.035374,-2.63377 -0.35173,-1.39269 -1.854196,-0.018 -0.411553,-1.73855 0.09538,-1.81724 0.497894,-0.86773 1.273222,-2.18343 -0.07049,-0.6851 0.105471,-1.36066 -1.569359,0.29694 -1.65415,-1.3004 -1.098084,1.71911 -0.239678,-1.86916 -2.245547,-0.55157 -0.343053,1.03826 0.06239,2.67055 -1.022361,0.8094 -0.491905,-0.63823 -1.122245,-1.81058 0.08524,-0.85796 -0.611817,-1.53797 0.300597,-2.40519 1.594982,-1.47032 -0.813424,-0.57754 -1.844232,-2.26158 -2.849517,-1.29576 1.823686,1.29931 -0.528448,1.38169 -1.119233,1.86507 0.537707,0.85147 0.264482,3.60994 1.2336,2.61838 -0.08273,-2.02512 1.654302,1.9174 2.243288,2.47492 1.177519,0.88567 1.899148,3.35745 -0.212832,1.70084 -0.496123,-1.50559 -3.036521,-0.37269 -1.058802,0.41117 1.810438,0.39708 2.442479,1.88709 2.476983,3.5651 -1.347494,-0.17574 -2.807891,0.20332 -3.985768,-0.12085 0.226281,-1.5775 -1.638491,0.713 -2.225295,-0.91766 -0.626312,2.08086 2.901049,0.89259 2.454865,1.83021 -0.736355,0.39916 1.212158,-0.2116 1.083553,0.71083 1.85458,-0.18394 2.284744,0.43726 0.941827,1.14994 0.910046,-0.10041 2.566699,-0.0119 1.876602,1.49084 -1.57654,0.29071 2.346713,0.95628 0.210881,1.64292 1.304921,-0.63683 1.101007,2.18934 -0.139586,0.41909 -0.565756,-2.08458 -2.753865,-2.44368 -4.25089,-3.43869 -1.704193,1.29103 -4.714912,-1.5161 -4.757377,-3.61985 -0.136454,-2.76736 -0.297865,-5.62155 0.334922,-8.33459 1.880031,-1.12931 3.98143,-3.62182 2.590722,-5.63719 1.461933,-1.88758 2.41162,-4.59734 5.012279,-5.16771 1.548882,-0.31754 5.584406,-1.42733 3.798969,-3.15488 -0.816663,-1.01249 2.036299,-1.71298 2.481729,-1.85618 -0.450482,1.03852 0.354202,2.44932 0.534162,0.7271 0.833822,-0.94315 -0.521992,-2.53111 1.501727,-3.24635 -0.0072,-2.06222 2.693311,-1.12926 3.330158,-2.53888 0.97302,-0.40571 2.22628,-1.27129 2.272345,-0.0204 0.99132,-0.41221 2.207055,-1.18533 0.772762,0.12792 1.713439,-0.40942 3.216194,-1.86611 3.545246,0.50851 1.343622,-1.52371 0.202008,1.76041 -0.823723,-0.0262 -0.600575,-1.21672 -1.680369,1.68404 -1.619269,-0.45006 -1.102977,0.48579 0.625791,1.98964 -0.361421,2.16958 0.0786,1.80063 1.006943,1.62271 2.106619,0.55369 0.151743,1.88246 1.752824,-1.3306 1.374326,0.85575 -0.556173,1.39943 0.897732,-0.6006 0.491839,-1.18548 0.604849,0.62188 1.243015,0.83768 0.713008,-0.0166 1.132483,-0.0835 1.913611,-1.10638 0.511134,-1.24545 -0.0877,-1.19092 1.976398,-3.59941 2.085146,-1.10075 -0.49863,-0.50089 -2.193551,0.36546 -0.464082,0.30016 1.067221,1.18726 1.400674,-1.21221 2.145234,0.35831 1.455436,-1.32535 1.948687,1.52534 2.266853,-0.94141 0.477839,-1.96472 3.746441,-3.45392 3.257518,-0.96927 1.024089,0.64049 0.270986,-2.67186 1.105465,-0.3579 2.289516,1.02508 0.940086,3.449 1.556148,4.88156 0.719439,-0.66569 0.649347,-3.7648 1.277057,-1.41854 -0.371278,1.36447 0.339855,2.7255 -0.04962,3.9525 -0.01475,-0.84643 1.918623,-2.20062 1.55001,-1.18736 -1.365047,0.4317 -0.224222,1.72646 0.280667,0.44761 0.585402,1.41415 2.864141,1.74704 3.748006,2.82282 -1.381061,1.2837 1.29944,2.65399 1.74749,3.98707 -0.5095,-0.13262 -1.54932,-1.37822 -0.55608,0.22374 0.91253,2.02411 2.68205,3.95272 2.11609,6.08344 0.15611,1.69305 1.52985,3.61419 -0.66884,4.65715 -1.40172,2.14591 0.14207,4.87574 -0.82882,7.23503 -0.73019,1.67764 -1.18758,4.1998 -3.645019,3.29474 -1.144468,0.41399 -1.146615,2.6198 -2.775873,2.26574 2.303825,-1.03487 -2.252597,-2.17656 -1.475146,-0.40999 -1.331081,1.23835 2.622574,0.41463 1.046852,1.68681 -1.46078,-1.38403 -3.333207,1.25754 -4.988208,0.96224 -0.95572,-1.17051 -1.518993,0.67122 -2.394421,-0.24301 -1.358917,1.47253 -3.639038,-0.0618 -4.017586,1.08574 -1.805905,0.49376 -3.690813,0.40227 -5.544004,0.41088 0.05857,-0.28627 0.117066,-0.57256 0.175674,-0.85882 z M 56.506513,171.72348 c -1.269251,0.34327 0.464079,-2.06617 -0.71645,-2.55468 2.138301,1.77207 -0.881482,-3.65978 -0.555353,-0.40181 0.711632,1.38743 0.452536,2.42563 -0.245028,3.403 0.151926,1.93116 0.600547,1.47023 1.195445,-0.0211 l 0.321386,-0.42536 z m 44.131727,1.21558 c 1.021,-1.11552 0.0996,-2.27917 -0.50337,-0.66559 -0.319307,0.56159 -0.314779,1.73532 0.50337,0.66559 z m -1.616637,-0.29874 c 1.216897,-1.06035 -0.575536,-2.75754 -0.413282,-0.89208 -1.472953,0.13469 -1.514945,2.23369 0.413282,0.89208 z m 1.810197,-4.72834 c -0.38861,-3.2759 -3.144824,0.32931 0,0 z m -44.79239,-1.38792 c 0.616001,-2.71934 -1.658922,1.84247 -0.128873,0.30366 l 0.128876,-0.30366 z m 10.135588,-4.98714 c -1.808914,-0.88275 -0.758942,1.17745 0,0 z m -5.578299,-1.26893 c -1.025101,-0.50178 -2.18044,0.75021 -0.378109,0.17654 l 0.378109,-0.17657 z m 8.428033,-4.2625 c -0.09985,-0.81655 0.685065,-2.39674 0.08706,-2.62669 -0.808281,1.01686 -0.527295,2.38417 -0.621721,3.35247 0.272023,-0.16161 0.395469,-0.46105 0.534665,-0.72578 z m -0.331398,-3.23315 c 1.168057,-0.53096 2.447271,-2.15388 2.330437,-3.06942 0.836493,-0.27023 1.342766,1.45572 1.350744,-0.19948 0.514061,-0.64339 1.560669,0.74792 1.102321,-0.90865 -0.94312,-0.669 -2.221491,0.78579 -1.734165,-0.57136 0.133425,-0.76336 0.222098,-2.41257 -0.912555,-0.79305 -0.891207,0.0645 -0.905807,2.67668 0.260647,0.86737 0.624558,1.07986 -0.06289,1.31619 -1.140044,1.69029 0.587025,0.315 0.249971,1.67486 0.0717,0.69618 -1.216605,0.3889 -2.548364,1.80795 -1.235866,2.49722 l -0.09315,-0.20908 z m 8.49,-2.27882 c 0.0907,-0.91327 0.911772,1.46043 1.037942,-0.41 -0.142866,-0.88968 2.076905,-0.1969 0.700611,-1.12691 -1.092836,0.74378 -2.456485,-0.38145 -2.868879,-0.60993 0.06052,0.84179 -1.24327,2.89756 0.378436,1.24378 0.704344,0.0527 -0.711205,1.38186 0.591471,1.06585 0.02968,0.4909 0.417753,0.12506 0.160419,-0.16279 z m 14.916997,-0.24011 c 0.537903,-1.83478 -3.631939,0.85227 -0.799973,0.20836 l 0.342699,-0.0631 z M 69.757753,149.3074 c 0.121303,-1.35464 -1.779003,1.2073 1.3e-5,0 z m 4.987896,-0.93008 c 0.185587,-1.70884 -1.505378,1.25144 0,1e-5 z m 12.331432,-0.9044 c 1.253325,-1.64562 -2.042477,1.54237 0,0 z m -14.063794,-0.64771 c -0.554928,-1.41387 -0.849588,1.73597 0,0 z m 11.92975,-0.36944 c -1.612566,-0.1485 -1.034722,1.40341 0,0 z m -11.297484,37.3258 c -1.420334,-0.91508 -3.471049,0.30615 -4.736936,-0.7437 -0.812629,-0.1869 1.305331,1.17456 -0.373013,0.4678 -0.920759,-0.027 -0.366737,-2.18732 -1.669363,-2.61448 0.524871,-0.62442 -0.04458,-2.83768 -0.525683,-1.46976 0.177707,0.0908 -0.80448,-0.0533 -0.951259,0.39688 0.305392,-1.27207 2.492002,-2.34666 1.263834,-3.23585 2.342476,0.36788 4.680141,1.54488 6.280372,3.30039 -0.518287,1.38164 1.929403,1.96244 1.093009,2.67222 1.593049,-0.73675 1.837471,1.81642 0.110015,1.23962 l -0.490973,-0.0134 z M 65.11476,177.7627 c -0.76845,-1.82368 0.401783,-0.6392 0.808668,0.16135 -0.280527,0.48252 -0.725885,0.4211 -0.808668,-0.16135 z m -3.193339,-0.19343 c -0.437638,-1.16589 -1.133878,-1.96781 0.643505,-1.27128 1.158764,0.28699 0.259777,1.78156 -0.643505,1.27128 z m 7.660087,-1.60506 c -1.600382,-0.59966 -4.163594,-2.42578 -1.566838,-3.63167 1.660782,-1.78821 2.562962,2.63108 3.720393,3.73929 0.910732,1.20373 0.767015,1.74955 -0.571871,0.76092 -0.529639,-0.2851 -1.056526,-0.57528 -1.581684,-0.86854 z m 4.097624,-6.65882 c -1.926662,-1.47206 -4.216561,-2.83655 -4.865913,-5.34888 -1.535829,-1.32634 1.98538,-2.19168 0.144208,-0.72565 -0.452779,0.62126 2.881336,0.0443 1.471905,1.12301 1.744473,-0.27326 -0.159628,2.39242 1.746683,1.28216 1.626868,-0.81872 2.424631,-3.9304 1.524031,-4.38687 1.025406,0.0556 -1.328829,-1.28611 0.436138,-0.65209 0.536334,0.22465 2.087945,2.27875 0.779302,1.58163 -0.11686,0.79276 0.354374,2.5807 -0.81257,1.49743 0.640542,1.77416 1.154532,-1.23283 2.383224,0.0323 2.743302,1.22449 0.157783,4.30872 0.308099,6.45133 0.01032,2.32696 -2.263577,-0.53756 -3.115107,-0.85434 z m -1.4257,-1.97881 c 1.443039,0.77723 2.745253,-2.32413 1.065316,-2.06519 -0.126395,0.48078 -3.158932,2.86734 -1.065316,2.06519 z m -9.848566,2.17098 c -1.883739,-0.48742 0.68272,-3.60768 0.324455,-1.11119 -0.4084,0.48158 0.878749,1.44368 -0.324455,1.11119 z m 15.200801,-6.39833 c -1.21902,-1.64728 1.108882,-0.10284 1.418807,-1.51388 -0.164723,0.69059 -0.460406,3.1538 -1.418807,1.51388 z m -22.807752,-1.73569 c 0.403283,-0.86198 0.188554,-2.99909 1.653641,-2.96784 -0.951957,-0.67594 1.591453,-2.81777 0.714757,-0.72843 0.563295,1.65009 -2.475273,1.58944 -1.690056,3.42925 0.02554,0.41458 -0.598028,1.09503 -0.678342,0.26702 z m 19.823506,-1.50574 c -1.419331,-1.84508 2.357011,-1.80029 1.410566,-1.12934 -1.359812,-0.27591 -0.623692,1.00778 -1.410566,1.12934 z m 3.459827,-1.09992 c 1.666079,-2.10575 0.962355,0.99237 0,0 z m 24.606252,-1.36309 c 0.87809,-1.39683 0.52464,1.2762 0,0 z m -0.73776,-1.90621 c -2.35496,-2.77863 2.77474,2.17282 0.35772,0.3665 l -0.35772,-0.36649 z m -43.408228,-0.86866 c 1.273845,-1.91112 0.273116,1.2216 -0.347482,0.58692 l 0.118212,-0.24722 z m 1.283486,-0.15444 c 1.282551,-2.21908 1.222164,0.50481 0,0 z m 5.723557,-4.24316 c 0.184441,-1.06473 1.761745,-1.604 0.504658,-0.31355 0.139519,0.2516 -0.947305,1.1467 -0.504658,0.31355 z m 1.222332,-0.54956 c 0.274729,-1.7867 1.289106,0.30947 -0.31961,0.40936 l 0.31961,-0.4094 z m 18.456529,-4.44589 c -0.668841,-0.0317 -2.668085,-2.62454 -0.899126,-1.23611 0.573806,0.54459 1.977438,1.7874 0.985745,0.11419 0.256888,-0.78746 1.99417,1.78084 0.176595,1.39148 l -0.263214,-0.26952 z m -5.020699,-0.59822 c 0.07362,-0.79829 1.481309,-1.97618 1.694424,-0.88893 -0.780591,-0.43526 -1.169167,1.11262 -1.694424,0.88893 z"
         id="path2120" /><path
         style="fill:#81a97d;stroke-width:0.264583"
         d="m 79.91339,184.14458 c 0.65199,-0.63605 -2.1162,0.11648 -0.707663,-1.2665 3.68299,-3.23936 7.940468,-5.7683 12.100416,-8.34732 1.142068,-0.92143 3.536063,-1.44111 3.826525,-2.71618 -3.158047,1.51414 -6.236111,3.18983 -9.350069,4.7923 0.114226,-1.56564 0.813049,-3.00711 1.060293,-4.53244 -1.328901,0.12077 -1.498034,3.62528 -2.45893,4.95128 -1.227763,1.36494 -3.073906,2.87033 -4.672387,3.3568 1.187314,-3.05584 2.814539,-5.97379 4.700566,-8.656 2.011848,-1.70271 4.704135,-2.37438 7.020991,-3.59365 1.331617,-0.95876 4.776051,-1.42465 4.900051,-2.66832 -3.453768,1.15 -6.691283,2.90688 -10.187045,3.92871 0.882404,-1.86897 3.129657,-3.92303 4.630054,-5.75733 0.436498,-0.78562 3.289012,-2.99012 2.179591,-3.0781 -1.424269,0.64785 -3.260677,3.63615 -3.684709,0.74607 -2.995694,-0.60376 3.243027,-3.75213 1.441412,-3.85076 -1.309673,0.2663 -3.52186,3.68064 -4.199277,1.95571 0.398678,-1.19157 1.303137,-2.42399 -0.223152,-3.05343 0.445074,1.1282 -2.333241,0.71333 -1.284773,1.91451 1.874332,-1.10484 -0.007,2.20404 -0.36596,2.72266 0.925573,1.05339 -1.320618,2.93444 -1.464846,0.9416 -0.460742,-0.40236 1.058427,-1.08424 -0.367593,-1.86968 -0.64816,0.0186 -0.66013,0.99817 -1.293036,-0.4142 -0.609913,-0.39339 0.284024,2.08576 -0.456643,0.33414 0.339845,-1.09616 1.219639,-4.90934 -0.312911,-2.03795 -1.748917,2.63754 -1.192507,-2.56453 -0.923417,-3.72666 0.532315,-1.44205 -0.423205,-4.09336 -0.879717,-4.33493 0.716399,-1.24053 2.297666,1.73963 2.55377,-0.51567 0.883962,-0.84219 1.908904,-2.27418 2.329554,-2.82879 -0.347233,0.90908 0.920656,0.56085 0.82158,1.06639 0.472805,-0.95667 1.971975,-0.31439 1.137139,-0.0959 -0.966832,-0.52664 0.352641,1.15359 -0.392148,1.28093 1.660012,-0.79166 2.872797,-1.58143 2.621372,-3.51727 0.342297,-1.65993 1.808273,-0.76289 0.501917,0.13141 1.332537,0.18296 1.859726,-4.41537 1.952509,-1.52343 -0.67549,0.2055 0.468337,1.64635 1.275588,0.77627 -1.024854,2.23227 1.527289,-1.69083 1.812802,0.85396 0.178128,0.88074 -0.09483,2.66264 -0.816273,1.03019 -1.83957,-0.10723 0.747308,-1.37237 -0.9731,-0.7257 -0.01765,1.80525 2.126075,1.78535 1.517065,3.46037 1.400872,-1.40725 2.407651,0.29628 1.502511,1.60221 1.213121,0.87364 3.48447,0.14487 3.14061,2.01653 1.152258,0.29114 3.078653,3.86903 1.437463,3.6172 0.352109,-2.45128 -2.925389,3.30172 -0.860707,1.26186 1.419045,-1.96348 -0.453047,1.44551 1.160122,0.36066 -0.301461,-0.75755 1.159635,0.88452 0.526485,-0.50429 0.61755,-0.98694 -0.391004,-2.98027 0.84158,-1.06435 1.41542,1.57034 1.64947,3.05523 0.44578,4.61263 2.48672,-1.96869 2.29398,1.97382 2.40937,3.62956 0.15545,1.32109 -1.03319,4.84169 -1.63206,4.49178 -0.3783,-1.01449 -0.51672,2.21016 -1.76234,2.02875 -1.500397,1.31292 -0.509552,3.33405 1.51406,2.35339 1.165,-1.98477 0.43639,2.11144 -0.29092,2.58961 -0.37402,2.53864 -3.791821,1.94859 -4.835043,3.71551 -1.922758,-2.096 -2.738337,-0.0289 -3.447322,1.64756 -1.042259,1.18667 -2.195195,0.89086 -3.196501,1.39365 -0.792117,-0.58914 -1.505774,0.40484 -2.189781,0.12839 -0.61043,-0.24774 -1.563831,0.74966 -2.401628,0.58134 1.112648,-0.8275 -1.582405,-2.29168 -1.450078,-0.48922 -1.257609,0.11493 0.214104,1.48764 -1.66113,1.03315 -0.364758,-0.18232 -3.404365,0.76808 -2.620017,-0.13897 z m 19.277827,-11.27166 c 0.903353,-1.01478 0.294737,-4.2532 -0.800413,-1.96649 -1.477533,0.7708 -2.445678,2.10138 -0.424051,2.83247 0.47677,-0.16457 0.724316,-0.72081 1.224464,-0.86598 z m 1.721113,-5.02805 c 0.33185,-2.59871 -3.133907,-0.79754 -0.78312,0.30904 0.32901,0.22672 0.7944,0.22098 0.78312,-0.30904 z m -5.905131,-5.69647 c -0.535747,-0.68855 1.930595,0.54098 1.006215,-1.04982 -1.315324,0.19568 0.355006,-1.12294 -0.63646,-1.01009 0.07901,1.52168 -0.660971,1.25922 -1.04079,0.41285 -0.5876,0.62418 1.310356,3.96263 0.671035,1.64706 z m 2.752662,-0.46493 c 0.412215,-1.4296 -2.288221,1.37897 -0.652656,0.41894 0.167713,-0.0126 0.377508,-0.54335 0.652656,-0.41894 z m 1.903828,-1.92633 c -0.870944,-1.33927 1.527571,0.25547 1.494631,0.66523 1.12256,-0.61387 0.61303,-1.12903 0.28393,-1.48633 1.12433,-1.23256 -0.935,0.48139 -1.591858,-0.0227 -1.279483,-0.0278 -1.971391,0.4515 -0.468767,0.9966 0.422377,0.60629 0.950125,0.46208 0.282064,-0.15282 z m -9.784107,-4.55178 c -0.622624,0.4509 -1.092216,-1.99703 -1.887668,-0.65736 0.915231,-0.0377 1.040038,1.98838 1.887668,0.65736 z m 2.621458,-1.38244 c -0.195607,-0.64066 -1.719003,-1.45863 -1.050031,-0.26459 0.525536,-0.0361 0.437,1.07434 1.050031,0.26459 z m -5.933575,-0.90249 c -0.198358,-0.43489 0.50525,-1.6218 -0.414553,-1.21115 -0.746617,0.59088 0.354948,2.56976 0.414553,1.21115 z m -2.209872,-1.75362 c -0.622468,-1.18903 1.956609,-0.9185 0.473223,-2.07399 0.603562,1.00688 -3.035545,1.14832 -1.525701,1.72479 1.2238,-1.29747 0.761289,3.23937 1.052476,0.34922 z m 7.871722,0.81558 c 2.973998,-0.2005 -1.240331,-4.36022 -2.043384,-1.5097 0.203959,0.11387 1.444036,0.6162 0.353312,0.58075 0.3397,0.37036 1.154028,1.64056 1.690072,0.92895 z m -4.842901,-1.40062 c 1.96778,-1.44146 -1.543853,-1.95244 -0.77235,-1.23751 1.88628,-0.45804 -1.59542,2.31815 0.772354,1.23755 z m -4.589926,-1.02139 c -1.281237,-0.46491 -0.672738,2.22512 0.131679,0.26411 l -0.0086,-0.145 -0.123092,-0.11912 z m 7.670567,-0.21884 c -0.206178,-0.92184 -1.2586,1.10041 -0.183762,0.27924 z m -1.18178,-0.42423 c -0.11525,-0.4485 1.315258,-0.82466 0.207518,-0.77214 0.913036,-1.31456 -1.831597,-2.14353 -0.705996,-0.19146 -0.04913,0.32702 0.359067,2.25683 0.498478,0.9636 z m -5.034386,-0.90368 c -1.263916,-1.10262 0.06223,1.45614 0.266999,0.37422 z m 6.330974,-1.20448 c -0.135942,-1.84279 -1.101647,2.18869 0,0 z m -15.821136,36.66986 c -2.190702,-0.52374 -4.640797,0.10038 -6.799772,-0.98792 -0.836216,-1.07465 0.866949,-2.02228 0.30402,-0.68796 1.082977,-1.00164 2.153893,-0.15957 3.052126,1.00301 0.958404,0.38464 2.272037,-0.38776 3.355289,-0.17673 0.360548,0.26529 1.468704,1.54549 0.08834,0.8496 z M 62.36206,181.31928 c -0.789746,-0.54052 -0.862883,-2.46862 -0.0053,-0.7131 0.0488,1.00136 1.437846,0.29796 0.963783,1.52719 -0.400247,-0.1645 -0.67808,-0.50347 -0.958444,-0.81409 z m 10.699487,0.42607 c -1.065319,-2.09796 1.996699,1.15441 0.353863,0.265 l -0.353905,-0.265 z m -1.594882,-0.66205 c -1.286579,-0.52365 -2.015563,-1.03557 -2.96158,-0.67875 0.12582,-1.31169 -1.446745,0.64978 -0.824292,-1.37941 1.704213,-2.11954 -1.957397,1.07298 -1.039836,-1.12605 1.608871,-2.22757 4.990027,0.30941 5.760914,2.05374 0.0427,0.32565 -0.659652,1.90176 -0.935206,1.13047 z m 0.529166,-1.05102 c -0.178947,-1.83584 -0.898374,0.87188 -0.06801,0.3627 z M 59.5521,179.04338 c -0.791197,-2.01882 -3.60649,0.55643 -3.822233,-1.84843 -2.435796,0.0949 -2.577481,-3.30629 -2.69232,-5.10524 -0.147894,-1.10736 0.242666,-1.30301 0.894249,-0.88488 -0.527141,-1.89569 -1.165884,-4.8237 0.993541,-5.8401 -0.06945,1.63744 0.906627,4.93693 0.339971,5.58206 -1.408104,0.44488 0.351597,3.48106 1.01675,4.58254 1.700418,0.61941 2.533562,1.32712 4.291886,1.53983 -1.3837,1.77415 2.287031,0.27616 1.633015,2.02103 -0.716008,-0.59275 -1.844195,-0.58707 -2.654859,-0.0468 z m 18.264565,-1.98003 c 0.318225,-2.75549 2.503069,-4.80904 3.815862,-7.14475 1.800966,-2.6073 -1.305735,0.21737 -1.731978,1.18145 -0.709444,0.89359 -2.600759,4.16925 -1.927355,1.08842 -0.08893,-2.57074 1.781742,-4.24891 3.576731,-5.75796 1.909083,-1.80457 3.910262,-3.52139 5.853356,-5.27621 2.124997,-0.18399 1.803809,3.35838 0.07027,4.3093 -3.755128,3.77607 -6.712155,8.2329 -9.56034,12.70103 -0.114862,-0.35618 -0.08027,-0.73432 -0.09654,-1.10128 z m -3.943573,-0.18278 c -1.508243,-1.88876 -2.995837,-3.92215 -3.795059,-6.21768 -1.329247,-2.52482 3.299363,-0.8771 4.02612,0.38801 2.105626,0.70988 2.210736,3.43141 1.768509,4.74624 -0.715089,-0.66703 -1.760169,-2.39931 -2.407321,-2.12335 0.159745,1.26827 3.133325,3.57448 1.67184,4.1707 -0.49653,-0.20443 -0.897271,-0.58303 -1.264089,-0.96392 z m -4.126219,-0.87322 c -1.127135,-0.84375 -3.760143,-1.48592 -1.883049,-2.32432 -1.558473,-0.35956 1.120653,-0.77636 1.068264,-1.7954 1.206598,0.99057 2.881177,4.15066 3.071178,5.26935 -0.774156,-0.33754 -1.5149,-0.74694 -2.256393,-1.14963 z M 58.391627,174.5889 c -0.988501,-0.80172 -2.878543,-1.69816 -1.669365,-2.79114 -1.795461,-1.22618 1.924237,0.16923 0.956439,-1.74067 -0.517535,-0.58941 0.65415,-0.74496 -0.206205,-1.40968 1.654568,0.86791 0.872493,-3.64021 2.229192,-0.90812 -0.820032,1.50899 3.265783,2.48629 1.573237,3.42586 -1.806848,0.65396 -0.342219,-3.34191 -2.309988,-1.44897 -0.797691,1.40353 -0.817674,2.64964 1.032793,2.70538 0.840239,1.0686 0.492418,0.68256 0.636726,-0.15287 0.688952,0.45013 1.168433,2.838 0.867681,2.88701 -1.024935,-0.67699 -2.489524,0.42375 -3.11051,-0.5668 z m 0.375038,-1.05453 c -0.84879,-1.54239 -0.818229,1.51435 0,0 z m -2.572364,0.8599 c -0.950421,-1.72428 -0.500343,-1.32874 0.44096,-0.17017 1.050832,0.60259 0.15285,0.70704 -0.44096,0.17017 z m 9.810985,-1.07369 c -0.384031,-0.80346 -0.46116,-1.06428 0.34092,-1.75942 0.315701,0.29108 -0.418207,3.24494 -0.34092,1.75942 z m -1.153205,-0.82528 c 0.732682,-1.41849 0.225767,-2.27019 1.202769,-2.88058 1.086139,-1.8537 2.538922,0.24391 0.78039,0.88086 -0.778511,0.4364 -1.15482,1.77098 -1.983159,1.99972 z m 9.475364,-2.71508 c -1.334415,-0.80937 -2.599245,-1.96802 -0.642609,-2.63808 0.208783,-1.10809 2.442471,0.24741 1.618287,-0.45304 -0.936182,-0.10859 0.956464,-1.2086 0.750593,0.42089 0.370189,0.40389 0.847341,-2.17509 0.964673,-0.32525 0.392784,1.46424 0.0056,5.79042 -2.213586,3.33373 l -0.231551,-0.16223 -0.245809,-0.17598 z m -6.172811,-1.14769 c -0.549812,-1.27341 -2.356449,-1.31908 -1.579801,-0.13447 -0.685331,-0.3902 -1.114484,1.32884 -1.813693,0.12108 0.37672,-0.59967 2.025855,-4.45097 0.734965,-2.78056 0.123991,0.98062 -1.654301,0.51326 -1.903104,1.08584 0.06339,-1.45902 -0.905843,-0.85483 -1.16248,-2.27213 -1.293692,-0.46477 -0.39951,-1.626 -0.04027,-0.35338 0.469128,-1.10798 -0.302727,-1.76474 -1.473555,-2.17345 -0.822941,1.1116 -2.005809,-0.77378 -0.544947,-0.51358 0.628908,-0.60309 1.683877,0.14306 0.801924,-0.9031 1.581128,0.60642 0.750361,-0.80794 0.04204,-0.73448 0.244692,-0.91483 -1.328513,0.34958 -0.727084,-1.14442 -0.247784,-0.11498 -1.223862,0.0452 -1.137681,0.15198 -0.315753,0.72909 -0.987437,1.28207 -1.18586,2.13989 0.821595,-0.76906 0.08154,0.52921 0.866163,0.47471 0.03245,1.49354 -2.166441,-0.79023 -1.118643,0.67587 -0.263445,1.18849 -1.599955,3.18616 -2.520052,2.5864 1.08857,-0.66504 1.676094,-0.96065 1.528671,-2.305 0.851032,-0.85053 -1.775966,-1.8795 -0.174921,-2.62415 1.309457,-2.08004 2.632369,-4.40092 5.325002,-4.80029 1.2675,-0.26542 2.708968,-0.53905 3.229999,-1.51692 1.067179,0.80309 -0.609886,-3.12392 0.965053,-2.05006 0.938361,1.51688 2.860202,-0.94007 1.915814,1.25812 1.585268,0.92663 -0.258746,2.8724 -0.113072,4.37001 -1.091922,-0.28034 -0.969808,2.51776 0.385782,1.28204 -0.723523,-2.38307 1.039633,1.76017 -0.866383,1.65025 -0.472681,-2.4463 -1.072663,3.25129 -1.079758,0.35098 0.406093,-1.33385 -1.474052,1.35135 -1.35489,-0.88828 -0.555641,-0.96154 -2.563988,0.25248 -0.839767,0.27636 -0.775361,1.35588 0.0039,0.6663 0.648167,0.27494 -0.637178,0.79849 0.353483,1.13182 -0.269746,2.02495 1.381351,-1.26051 3.970549,0.85902 1.947448,1.76112 -0.876786,-0.78819 -3.433837,-2.1146 -3.336725,-1.06242 1.928953,0.42702 3.358091,2.74934 5.249537,3.72134 1.72295,0.54619 1.392642,2.5243 0.03117,2.68915 -0.142993,-0.21246 -0.286756,-0.42724 -0.429302,-0.63834 z m -5.154636,-6.42232 c -1.168072,-2.88776 -0.945724,1.15217 0,0 z m -0.187995,-2.41324 c 1.06455,-1.57907 -2.198736,-1.01874 -0.732824,0.33461 0.279249,-0.002 0.516148,-0.18325 0.732824,-0.33461 z M 63.793748,158.85 c -1.014559,-0.73057 1.038711,-1.49524 0.876811,-0.0125 1.724935,-1.27048 -2.237435,-2.23792 -1.993039,-1.04833 1.974714,-0.4279 0.293095,0.17684 -0.05005,0.70936 0.219873,0.14118 1.075138,1.01021 1.16628,0.35145 z m -1.771333,-1.22953 c 1.314181,-2.42885 -2.248909,2.54741 -0.0516,0.38006 l 0.06502,-0.20689 z m 16.995027,9.16703 c -0.216149,-1.96006 1.758824,-4.07692 2.545522,-1.82031 -0.417935,0.2631 -2.673654,2.94176 -2.545522,1.82031 z m -21.995876,-0.42633 c -0.856375,-0.25101 0.142421,-1.37348 0.951351,-1.20916 -0.318056,0.21177 -0.837585,2.59815 -0.951351,1.20916 z m 12.761917,-0.23513 c 0.485929,-1.30195 -2.090697,-2.12764 0.09069,-2.60097 0.645903,0.28568 1.064854,0.78494 0.08259,0.44267 0.400981,0.48984 2.083323,1.20824 0.604846,1.59433 -0.370037,-1.72278 -0.04581,2.10402 -0.778161,0.564 z m -11.382938,-2.39651 c 0.594388,-0.24841 -1.209445,-1.67013 0.436774,-0.63932 0.476533,0.32086 -0.05221,1.4494 -0.436774,0.63932 z m 2.548932,-0.29226 c -0.770213,-0.68623 0.326046,-1.52391 0.241035,-0.42326 0.761462,0.10972 0.432049,0.93505 -0.241035,0.42326 z m 8.182499,-2.12963 c 1.77547,-0.23289 0.88137,-2.14747 -0.385165,-1.06858 -1.085924,0.22896 0.762632,-1.14634 1.374894,-0.86639 0.909232,-1.75467 -0.94477,1.07823 -0.601794,-0.87891 -0.623214,-1.00907 2.625514,0.0985 1.055474,1.33297 0.79399,1.18294 -0.981526,2.29338 -1.443409,1.48091 z m 1.364488,-3.66793 c -1.913392,-0.48696 1.070875,-0.44263 -0.286569,-1.41658 -0.652452,-0.52235 -1.493276,-1.72145 -0.148556,-1.56445 0.515972,-0.80691 0.306896,-1.94554 -0.235823,-0.35898 -0.773546,-1.14121 -1.402101,-2.15261 0.560897,-1.80424 0.990307,0.15307 2.47733,0.42929 1.38483,-0.64213 1.951589,0.51196 -0.367036,-1.49326 1.544227,-1.54818 1.526729,-0.71935 2.531313,-3.00284 0.829078,-4.10562 2.18339,-0.61717 -1.581394,-1.3602 -0.644186,0.53389 -0.518316,0.4776 -0.452963,-1.21185 -1.29628,-0.0666 0.326507,-2.0394 4.012031,-1.99276 3.136735,0.008 0.489026,0.49712 0.919415,1.07148 -0.09252,0.62832 0.710541,1.23137 0.446026,1.93674 0.05857,2.57853 1.46886,0.87554 -0.841105,1.24313 -0.336194,0.17859 -1.478835,0.69368 -1.682734,2.27868 -2.273391,2.95397 -1.71941,0.19411 -3.218819,2.51993 -1.635204,3.80862 0.929068,0.56599 0.02639,1.56219 -0.565617,0.81701 z m 28.486867,-4.74284 c 0.533374,-1.18595 2.580119,1.06528 0.5684,0.0268 -0.01961,0.47345 -0.596087,0.47887 -0.5684,-0.0268 z m -25.131366,-0.28972 c 0.210865,-1.55247 1.945929,-0.62777 0,0 z m 3.609404,-0.0215 c 0.97568,-0.86712 -1.656836,-1.12712 -0.513189,-2.13022 -0.200654,1.33982 2.039094,1.04884 1.318656,0.0709 2.047016,0.45382 0.184242,1.87995 -0.805467,2.0593 z m -10.749542,-1.39826 c -0.83181,-1.52415 1.738309,0.96125 0,0 z m 2.095952,-0.65607 c 1.468291,-0.92323 0.622933,1.08959 -0.13558,0.19069 z m -0.251531,-1.42113 c 0.16368,-1.67475 2.247249,-0.93391 0.595313,-0.0763 -0.01643,-0.10867 -0.516338,0.33505 -0.595313,0.0763 z m 26.024848,-1.505 c 0.08593,-2.33896 0.911821,0.0576 0.153455,0.28029 l -0.153447,-0.28029 z m -11.737348,-2.91042 c 1.050283,-1.4984 1.036731,1.44417 0,0 z"
         id="path2118" /><path
         style="fill:#79a374;stroke-width:0.264583"
         d="m 79.867186,184.33936 c 0.971827,-0.76455 -2.33645,-0.11131 -0.4832,-1.58438 1.830962,-1.41482 3.621009,-2.89328 5.592963,-4.22718 3.258162,-2.37421 6.91817,-4.11287 10.260891,-6.3397 -0.08065,-0.7831 -2.956726,1.21738 -3.9437,1.5447 -1.847471,0.95553 -3.689389,1.92177 -5.534326,2.88218 -0.05686,-1.40738 1.806817,-4.23075 0.64215,-4.50725 -1.33589,2.02414 -1.188226,5.03001 -3.523884,6.31137 -0.907791,0.74733 -3.691762,2.43811 -2.280877,0.022 1.098901,-2.49437 2.533197,-4.81666 3.953449,-7.13642 3.9227,-1.71866 7.739908,-3.73098 11.768317,-5.16792 2.044469,0.83035 0.401482,-2.66137 0.81902,-0.16389 -1.056276,-0.69931 -1.48012,-0.46665 -1.892261,-1.44487 -1.638191,-0.32776 0.735372,2.09443 -1.487006,1.91435 -2.526393,1.01738 -5.039041,2.0939 -7.635224,2.91941 1.423602,-2.31404 3.341582,-4.35692 5.274024,-6.27166 0.835817,-0.12791 1.7109,-1.97792 1.695907,-2.57144 -1.209585,0.58858 -2.112981,-0.26819 -1.785942,1.06967 -0.935395,1.40418 -1.709362,1.37456 -1.979927,-0.26075 -1.972818,-1.48932 2.927755,-3.55886 1.489274,-3.94825 -1.072756,1.12678 -1.198097,-0.43765 -2.340656,0.24082 1.412724,2.23847 -1.863936,0.39574 -1.525673,-0.96589 -0.975426,-0.29351 -2.305417,-1.27459 -1.576292,0.28807 -1.503385,0.0935 0.09411,1.10126 -1.39407,0.58588 0.272524,-0.76282 -0.716455,0.1746 -1.033121,-0.46945 -0.272181,1.44448 2.430225,2.83958 -0.30576,2.86964 -1.062195,0.22952 0.402703,-1.08829 -0.919179,-1.6413 -0.29328,-1.19499 1.847726,-2.38718 -0.244832,-1.48052 -0.634002,1.16621 -1.93775,0.15226 -0.521275,-0.49801 -1.162345,0.25232 -1.822488,1.01141 -1.237818,-0.63507 0.68837,-1.90333 0.03628,-4.1409 -0.03921,-5.78218 1.003422,0.88106 2.502242,0.61202 1.369204,-1.05309 1.168938,0.35274 2.873314,-2.23806 2.048464,0.19516 1.953478,0.80762 -1.414048,-0.54145 -1.424201,1.15139 0.04597,2.0424 2.388856,-1.59848 1.197578,0.53642 1.771959,-0.40693 -0.55892,1.67962 1.220055,2.29218 -0.298609,-0.82489 0.712184,-1.11866 0.449444,-2.32064 1.206027,-0.58157 0.465037,-1.69574 -0.03129,-1.80772 1.056094,-0.57264 -1.293839,-1.84902 0.72426,-0.79542 0.304103,1.8257 2.680164,-2.0548 3.643504,0.38239 -1.169218,0.69539 1.754191,2.47504 -0.411957,1.50217 -0.219267,1.39462 -1.752103,3.67288 -2.105086,1.5681 -0.106755,-1.49195 -1.720911,-0.34833 -0.366296,-0.15661 -1.310733,1.2392 1.248082,2.99021 1.845968,0.7943 0.765821,-1.62977 2.782806,-2.25808 3.237867,-0.38605 2.262134,1.61558 3.228359,-1.81621 0.91956,-2.50819 -0.744172,0.0894 -1.494481,0.50014 -1.736813,-0.43137 -1.343698,0.6541 1.4818,-2.21145 0.689426,-0.31785 0.372361,-1.46225 1.895139,-1.67831 1.067155,-0.27001 -1.491034,0.12835 1.058199,1.47185 1.485861,1.17167 0.777329,-0.90786 1.739105,-0.99857 1.554564,0.49278 -1.575233,0.28735 0.204115,2.14084 1.228926,1.39449 1.099366,0.26543 2.366743,0.74614 0.950088,1.70356 -0.449441,-0.57535 -0.223525,-1.08267 -1.497986,-0.41929 -0.48916,-0.31372 1.302297,-0.85066 -0.301394,-0.52241 -0.633477,1.69559 -0.238053,-1.45979 -1.123049,0.10786 -1.271801,1.17338 2.178299,3.76285 1.495534,1.91636 0.482594,-0.49114 -1.431131,-0.35571 0.02266,-1.09466 1.159139,-0.86532 0.05125,2.78436 1.789515,1.19217 1.203526,-1.98454 0.869595,1.05577 2.039914,0.86199 -1.118223,1.01179 -2.64497,0.93728 -3.805698,1.31818 -0.435335,-2.41113 -0.239875,1.65112 1.081629,0.47457 0.707797,-1.07263 0.912467,1.98964 0.580615,2.14397 -2.159329,-0.69508 0.934343,2.23008 -0.841659,2.19666 -0.176196,1.14218 0.214682,2.35756 0.861219,1.03157 1.020352,-0.71615 1.751622,0.004 2.617211,0.37137 -0.232676,-1.35287 2.09627,-1.30644 3.01617,-2.07791 0.90649,2.61832 0.95369,5.75249 -0.36161,8.25202 -0.83719,1.52936 -0.1474,-1.72173 -1.04637,0.4962 -0.11599,1.60713 -2.305273,3.00713 -2.275017,0.71343 -1.140873,-0.33752 -1.457561,2.20941 -2.961136,1.80154 -0.714458,2.12194 1.484637,3.29108 2.721568,1.38832 1.738225,0.29997 -1.346751,4.72971 0.541245,2.09043 1.05814,1.83892 0.31469,-2.78825 1.11259,-0.40871 -0.11451,0.6072 -1.424328,3.94139 -0.22307,1.98794 0.34925,-0.84772 0.63051,-3.71263 1.82923,-2.72795 -0.47379,2.41027 -2.17225,4.63564 -4.672102,4.97177 -0.879835,0.53041 -1.276417,1.50029 -1.872989,-0.0275 -2.408913,-1.08039 -2.246296,4.06942 -4.292225,3.137 -1.542403,0.75923 -1.501529,5.9e-4 -2.844993,0.91492 -1.194184,-1.30341 -2.962815,1.70399 -3.077029,-0.3938 -0.783476,-1.56274 -4.773626,0.48264 -2.118997,-0.1188 2.022609,-0.34647 -1.245427,0.75054 0.154931,1.56129 -1.281416,-0.0429 -3.098545,0.21468 -3.916753,0.17193 z m 16.981876,-13.72628 c 0.769239,-1.67257 -2.301501,1.63422 -0.308236,0.0206 l 0.169404,-0.0497 z m 3.619958,-2.17598 c 1.88612,-1.56358 -1.76681,-3.03874 -1.276933,-0.80014 1.740783,0.20374 -0.03297,1.39155 1.276933,0.80014 z m -5.070631,-5.6395 c 1.375111,-1.38653 0.11875,-2.99686 1.106509,-4.12847 -1.790617,-2.01404 -2.69834,2.11034 -2.198079,3.57455 -0.144391,0.39894 1.362368,1.25742 1.09157,0.55392 z m -5.410891,-7.93111 c -0.637189,-2.06683 -0.135754,1.70189 -1.00947,-0.46043 -0.543479,-1.00341 -1.402752,0.54628 -0.482349,0.87206 0.46255,1.05737 0.825669,2.64318 1.262544,0.57801 0.102208,-0.32202 0.211993,-0.64908 0.229275,-0.98964 z M 87.60383,154.2227 c 1.093119,0.10175 1.215395,-2.43169 0.532175,-0.67212 -0.532785,-1.11069 -1.5061,0.75235 -1.449745,0.54195 -1.214138,-0.54191 0.626544,1.25986 0.91757,0.13017 z m 4.982921,-0.65692 c -0.300133,-0.17294 -2.434569,-1.65379 -1.227164,-0.0267 0.344959,0.37507 1.01044,0.79759 1.227164,0.0267 z m -4.867111,-3.06905 c 1.64853,-2.04383 -2.99235,-2.06245 -1.405825,0.23554 0.386993,0.37959 1.076625,0.0712 1.405825,-0.23554 z m -12.670221,32.97712 c -0.784958,-0.20872 -2.592433,-0.87333 -0.597697,-0.6486 0.480926,-0.22109 1.531734,1.16925 0.597697,0.6486 z m -3.847338,-0.28218 c 1.06763,-1.09473 1.650157,1.03162 0,0 z m -2.844271,-0.53741 c -1.538374,-1.15451 0.794058,0.0622 1.383192,-0.866 2.232675,0.0568 -0.240268,1.54269 -1.383192,0.866 z m 2.20177,-2.02214 c -0.845555,-1.03592 -1.816626,0.40297 -2.123235,-0.77696 -1.8416,0.59981 0.767637,-3.02127 -1.319596,-1.23916 -1.925124,-0.16053 1.723226,-2.85795 2.548888,-1.10974 0.641853,0.2976 3.343888,2.13536 2.404214,2.04736 -1.014989,-1.49489 0.04425,2.70587 -1.510271,1.0785 z m -11.646764,-2.34529 c -0.575493,-1.19076 -1.080245,-0.26268 -1.593079,0.42335 -1.554053,-0.81862 -3.730662,-2.04925 -3.98781,-4.13922 -0.397128,-1.51779 1.502765,-0.75487 0.381281,-1.88087 0.131511,-1.40934 -0.790643,1.67153 -0.626536,-0.67023 0.806195,-2.53294 2.085339,2.17097 2.683772,3.0953 0.429639,1.61387 1.647405,1.11392 3.128515,1.72644 0.750332,0.50571 2.094556,-0.0287 1.305986,1.26726 2.588638,0.49779 -1.123391,1.05676 -1.292129,0.17797 z m -2.937506,-1.15084 c -1.58548,-1.11132 -1.350483,0.24822 0.106109,0.1292 z m 21.856915,0.0174 c 0.254145,-2.82086 2.537244,-4.8945 3.82376,-7.29464 1.409152,-2.77245 -1.531696,0.76827 -2.053793,1.67129 -0.649563,0.89302 -2.247618,3.16423 -1.622938,0.69015 0.272501,-0.96337 0.105255,-2.17161 0.644849,-2.99907 1.581621,-1.39281 2.972849,-3.07736 4.820363,-4.10917 0.599725,-0.88036 2.752758,-3.76995 3.554894,-2.10483 0.888911,-1.26007 2.4985,-1.64927 1.872131,0.47459 -1.114593,2.202 -3.296499,3.65944 -4.74151,5.65012 -2.278972,2.79441 -4.118773,5.90799 -6.131336,8.88982 -0.310724,-0.0169 -0.06521,-0.69407 -0.16642,-0.86826 z m -3.432072,0.30968 c -1.630488,-1.86223 -3.119303,-3.94509 -4.077951,-6.23461 -0.194694,-2.81563 3.487764,-0.75821 4.479148,0.41776 0.586457,0.57455 1.722662,0.91961 1.283025,1.92253 0.02128,1.3954 -0.351645,2.46785 -1.396019,0.845 -0.889593,-1.2143 -1.73688,-1.03691 -0.668264,0.33297 0.393001,0.76522 3.187438,4.24364 0.380061,2.71635 z m -4.690867,-1.49664 c -1.06369,-0.57748 -2.747258,-1.21233 -1.772606,-2.49613 -0.747221,-0.23839 0.848324,-1.15872 1.128764,-1.3723 1.129931,1.3286 2.82366,3.89004 2.93098,5.04748 -0.781648,-0.35371 -1.534541,-0.76817 -2.287138,-1.17905 z m -11.32015,-1.41869 c 0.02085,-0.83241 1.640789,-2.61816 -0.188467,-1.30442 -1.237421,0.94183 -0.591587,0.40379 -0.645853,-0.25414 -1.677964,0.17359 0.005,-2.45895 0.375755,-0.53862 1.666018,-0.95625 2.756309,0.77825 0.965926,1.59377 -0.489879,0.3505 0.958262,0.99964 -0.340462,0.79641 l -0.166909,-0.29302 z m 7.15795,-3.43405 c -0.302794,-0.59635 -0.191444,-1.3979 0.892495,-1.00574 -0.06203,0.37652 -1.28502,2.77684 -0.892495,1.00574 z m 9.041598,-1.16433 c -2.218571,-0.31234 -1.633716,-3.59492 0.396775,-2.51762 1.145751,2.03905 0.281356,-1.45785 1.428167,0.3851 1.101024,-1.75432 0.57563,2.20482 0.07942,2.99055 -0.188578,0.97089 -1.239901,-0.62396 -1.810505,-0.78919 l -0.09383,-0.0688 z m -20.386082,0.85983 c -1.670015,-0.1518 0.778934,-1.42537 -0.716551,-1.8951 1.015585,-0.57263 0.713811,-0.58111 -0.01105,-0.95986 1.596052,-0.31384 -0.977483,-1.15299 0.573437,-1.8457 1.675433,-1.7369 0.577873,2.60416 1.172129,3.49066 0.401348,1.16137 0.195856,1.56177 -1.017962,1.21 z m 12.509609,-0.4857 c 0.120968,-1.13991 1.137967,-2.26409 0.962615,-0.40646 -0.442243,-0.44642 -0.766016,0.69238 -0.962615,0.40646 z m -8.405424,-1.06468 c 0.582413,-0.6049 2.043159,-1.87176 0.863802,-0.23349 -0.505355,0.77727 -2.514817,1.26146 -0.863799,0.23349 z m 6.9625,-0.404 c -0.90005,-1.76089 1.183221,-1.7115 1.587484,-2.39623 0.53891,-1.60054 1.306561,0.62205 2.403975,0.67581 1.32136,1.37313 -1.757204,2.80915 -0.644999,0.73184 -0.122347,-1.08643 -1.138633,-1.10863 -0.618185,0.15545 -1.638696,-1.03411 -2.268301,-0.40419 -2.33555,1.00481 l -0.232711,0.0221 -0.160002,-0.19376 z m 14.141675,-3.28168 c 0.128916,-0.84829 0.790891,-2.77176 1.075701,-1.00944 -1.259765,-0.18224 0.940508,1.01997 1.011445,-0.0754 -0.253147,1.30391 -1.689834,1.96241 -2.592524,2.85206 0.168457,-0.58908 0.336935,-1.17816 0.505378,-1.76724 z m -16.017587,0.4263 c -1.137029,-0.88964 1.624011,-0.79709 -0.07611,-1.22407 -1.294774,0.0727 0.07167,-2.1047 0.741067,-1.13045 0.629978,-0.79372 2.493086,1.40193 1.058334,1.70301 -0.554169,0.95462 -0.757411,-3.01433 -0.705323,-0.29578 0.830065,1.04377 -0.449733,1.536 -1.017965,0.94729 z M 69.879165,165.2 c -1.28266,-0.27223 -0.621166,-2.22456 0.368272,-0.60483 0.41123,0.31456 -0.01851,1.38966 -0.368272,0.60483 z m -4.30334,-1.89818 c -2.437964,-2.49222 4.150227,-0.64688 0.628472,0.30923 l -0.305782,-0.1128 -0.32265,-0.19643 z m -8.476106,-0.12154 c 0.267665,-1.62493 -1.521538,-2.79186 0.368033,-4.09521 0.917279,-2.01208 2.797859,-4.03342 5.148627,-3.80867 0.452017,1.07057 1.33874,-0.39054 1.90111,1.02043 -0.470581,-1.32947 2.106122,0.68659 0.396533,0.99137 -1.198338,1.17378 1.228104,-1.70074 -0.567663,-0.40902 -0.749907,-1.53746 -1.647005,1.86789 -1.924793,-0.35886 -1.47646,0.54621 -2.182259,1.74062 -1.125657,1.63634 -0.653672,0.59881 -1.774521,0.89852 -1.138225,-0.36508 -1.422211,0.9845 -1.922387,3.0661 -3.143627,2.80685 0.132522,1.08033 1.142089,0.37061 0.507411,1.55959 0.989853,-0.37436 -0.0072,1.15444 -0.421749,1.02226 z m 5.155216,-0.25407 c -0.110991,-0.76066 -2.984198,-1.53032 -0.597808,-1.23926 1.13161,1.60669 2.196576,-0.0501 0.841526,-1.10043 -0.282232,-0.70274 2.795836,0.73443 1.846624,1.21573 0.425539,0.95733 -1.418551,-0.16381 -1.522291,1.10819 -0.138378,0.11925 -0.7918,0.66908 -0.568051,0.0158 z m 21.28889,-0.59395 c -0.992696,-1.57828 1.947466,0.11024 0.255262,0.26245 l -0.255258,-0.26246 z m -13.297969,-1.29398 c -0.516795,-1.02618 0.355616,-2.58626 0.271215,-0.63293 0.09743,0.19028 -0.408532,1.14463 -0.271215,0.63293 z m -4.842915,-1.08941 c -0.505224,-1.23969 2.583431,-1.36506 0.4811,-1.93046 -0.205279,0.57086 -1.340036,1.69327 -0.521798,-0.0501 1.180028,-1.44755 -1.051629,-3.19732 -0.05641,-4.25244 -0.168816,1.24062 1.38588,-0.84764 1.277465,0.61251 1.760541,-0.89038 0.973053,-2.32484 -0.515263,-1.25746 -2.349482,-2.32377 3.291714,-0.73013 2.339866,0.9084 0.536637,1.87406 -1.262879,3.1536 -1.057589,4.71822 1.616367,-0.69642 1.277268,1.37233 0.194951,1.3702 -0.458162,-1.862 -0.389322,1.35051 -1.224345,-0.2499 -0.466171,-0.002 -0.0638,1.22866 -0.917974,0.13105 z m 14.250604,-1.39186 c -0.991673,-1.57015 2.08132,-0.40997 0.443286,-0.12842 0.190374,0.6897 -0.01565,0.93342 -0.443286,0.12842 z m 5.042286,0.44418 c 0.568366,-1.38154 1.997362,-0.80498 0.439473,0.0921 -0.07412,0.0657 -0.451557,0.12724 -0.439473,-0.0921 z m 13.49375,-0.28348 c 0.502976,-1.14186 1.472828,0.85333 0.01686,0.25783 z m -28.497858,-5.09323 c -1.555082,-1.60992 0.977293,-0.9686 0.254019,0.43838 l -0.108356,-0.10384 z m 24.812464,-0.17582 c -0.817024,-1.56566 1.347734,0.80831 0,0 z m -21.850803,-1.71479 c 0.07063,-1.15047 0.647929,-1.31962 0.929947,-1.08592 1.012143,-0.94139 -1.5568,3.11821 -0.929947,1.08592 z m 2.174867,-2.32102 c 0.06766,-0.86495 0.70524,-2.82997 0.75972,-1.0136 -0.165187,0.23035 -0.339002,1.12942 -0.75972,1.0136 z m -5.838883,-0.56243 c 0.752294,-1.91379 1.873089,0.11122 0,0 z m 23.553473,0.0313 c -0.633593,-1.52997 2.084145,-0.29734 0,0 z m -2.896589,-1.40881 c -0.642185,-0.92127 0.23545,-2.88292 0.811307,-1.16258 -0.750864,1.04099 -0.101278,-1.25153 -0.667564,0.17612 0.356628,0.35341 0.244603,2.69521 -0.143743,0.98646 z m -16.42962,-0.94281 c -1.483954,-0.27139 0.861183,-2.0952 0.304639,0.13786 0.163505,0.54504 -0.472543,0.006 -0.304639,-0.13786 z m 19.447391,-1.26205 c 0.85925,-2.07368 0.55404,1.27496 0,0 z m -9.643885,-0.35278 c -0.556493,-1.78472 1.71405,0.56773 0,0 z"
         id="path2116" /><path
         style="fill:#6c9a66;stroke-width:0.264583"
         d="m 79.999477,183.8935 c -2.348924,-1.36693 2.066163,-2.34514 2.641713,-3.65059 3.952894,-3.07509 8.393265,-5.42511 12.661797,-8.00276 0.21773,-1.09127 -2.771196,1.02993 -3.579558,1.25707 -1.991259,1.02502 -3.973466,2.06752 -5.960284,3.10111 -0.0224,-1.50068 1.634299,-3.75952 0.75164,-4.58929 -1.485078,2.00328 -1.24235,5.08836 -3.623632,6.3775 -0.830342,0.8471 -3.422467,1.96868 -2.163052,-0.19763 1.154305,-2.48099 2.541497,-4.95541 4.226244,-7.08127 3.729859,-1.6181 7.33098,-3.61698 11.250861,-4.72964 1.830754,0.59311 2.285134,-1.0771 0.694022,-1.70281 -0.0298,1.22911 -2.355326,0.63932 -0.433697,-0.13387 -0.789075,-0.0489 -2.117071,-1.84042 -3.774297,-1.68206 -1.298135,-0.62186 2.03571,-3.03658 -0.764697,-2.24276 -0.99348,0.2187 -2.836347,1.39235 -2.177223,-0.063 -0.93814,-0.80492 1.040636,-0.64292 0.302498,-1.63088 0.733209,-0.45091 2.877517,-3.10578 0.861457,-1.52694 -2.139776,1.34843 -0.917132,-1.5472 -0.81469,-2.55323 -0.473029,-1.0054 -3.131221,-1.58901 -1.307119,-1.63882 -2.014806,-1.28584 1.570861,-3.74399 2.335222,-1.33568 1.734173,1.6321 3.77843,-1.81572 1.031099,-2.20883 -1.071513,-0.56446 -0.170176,-1.45693 -0.03489,-0.3344 1.180582,0.33096 3.787622,-1.23861 2.176359,0.94487 1.001321,1.34982 -1.508894,3.62348 1.009488,4.29883 0.100672,1.51239 1.153369,3.23386 -0.558589,3.85795 -0.753298,1.33445 -1.355241,4.42837 0.743161,4.81381 0.06388,-1.161 0.914566,-1.91527 0.883612,-3.14455 0.69412,0.35581 0.164246,4.34622 0.754324,3.80167 -0.371833,-1.45625 2.552827,0.46193 1.124479,0.47833 1.316976,0.28525 -1.23912,0.98861 0.492142,0.66806 1.300133,-0.34805 0.91787,-2.59229 0.235462,-0.68897 -0.108372,0.16303 0.139178,-2.19004 1.01086,-1.18253 0.675021,-1.29983 1.978491,-2.01615 3.208461,-2.71093 0.82148,2.76878 0.84845,5.97107 -0.5247,8.56007 -0.94795,1.33334 0.82118,-3.33581 -0.53303,-1.01581 -0.51033,0.90909 -0.69329,3.46887 -1.49183,2.30583 -0.3308,0.95442 -2.107118,-1.75322 -2.247392,0.22118 -0.226796,1.13545 -2.970407,1.1818 -1.432407,0.46711 1.40727,-0.92565 -1.553463,-1.76428 -1.2137,0.18895 0.914122,1.24183 -0.164144,1.99494 0.716219,2.95994 -0.919091,1.59662 2.362166,0.0249 2.529447,-0.83492 2.307383,-0.17838 -1.880833,4.20327 0.764232,2.82747 0.07055,1.31055 0.211945,2.53889 1.043301,0.59986 -0.0844,-0.99785 1.95381,-4.09731 1.38382,-1.67108 -0.81283,2.47338 -2.949081,4.27258 -5.581981,3.90626 1.558206,1.16254 -0.70574,0.41613 -1.344858,-0.0735 -1.654408,0.47806 -2.165399,0.82263 -2.170753,2.53746 -0.799404,-0.17415 0.255425,-1.91331 -1.059435,-0.54211 -1.415628,-0.46842 -2.684784,2.35973 -3.176625,2.11841 1.147595,-0.85783 -1.508128,0.004 -0.89781,-0.85639 -1.529121,3.00768 -3.499681,-2.19314 -5.352758,0.29056 0.420254,1.09949 1.745318,2.17372 -0.187684,1.76638 -0.815257,-0.0222 -1.638047,-0.10281 -2.425231,-0.32346 z m 20.470343,-15.4564 c 0.79963,-0.85869 2.15624,-4.00359 0.50329,-1.58123 -1.011933,-1.50842 -2.547886,0.61109 -1.385505,1.33227 0.03515,0.4753 0.586575,0.54563 0.882215,0.24896 z m 1.36543,-4.00381 c -0.71154,-1.73774 -0.90505,2.69654 -0.0512,0.40967 z m 0.85225,-0.6885 c 0.37031,-1.1938 -2.0033,0.36732 -0.29251,0.2803 z m -9.369321,-1.91689 c -1.174764,-0.0925 0.640491,1.95462 0,0 z m -1.743181,-6.02061 c -0.848787,-1.54239 -0.818232,1.51435 0,0 z m 1.058333,-2.11667 c 0.142557,-1.39427 -3.030761,-1.73646 -1.666106,-0.13803 0.515241,0.0546 1.426431,1.07941 1.666106,0.13803 z m -2.910416,-1.97113 c -0.406438,-1.26243 -1.796144,1.14504 -0.155443,0.17458 z m -19.05,28.69405 c -0.325051,-0.8543 -0.768636,0.68862 -1.273817,-0.59025 -0.821285,1.7972 -0.551716,-0.93238 -1.519562,0.0528 0.601963,-1.62311 0.163222,-2.22399 -1.171299,-1.42473 1.110424,-3.09762 4.083101,-0.25015 5.528045,1.03622 -0.360376,-0.49354 -1.330977,0.21626 -0.59955,1.25672 -0.307515,0.12106 -0.931759,0.10945 -0.963817,-0.33077 z m -10.992281,-1.70026 c -0.748992,-1.3409 -1.941692,-0.77452 -2.565828,0.0112 -1.079558,-0.75077 -2.07287,-1.9361 -0.238961,-2.14605 1.10895,-0.0637 4.811621,1.08113 2.779713,2.21831 l 0.02507,-0.0834 z m 18.151591,-1.57242 c 0.265982,-2.67648 2.368548,-4.69703 3.640789,-6.95265 1.044917,-1.11487 0.646012,-2.24838 -0.379208,-0.61408 -1.044117,1.09236 -2.244725,3.40787 -3.210851,3.80496 -0.06916,-2.55262 0.979517,-4.90657 3.095119,-6.39002 1.565005,-0.98403 2.656478,-1.98351 3.690906,-3.21222 0.354055,1.15875 1.575633,-2.4354 1.541496,-0.48162 0.97453,0.38085 1.956572,-1.35352 2.718689,0.088 -1.933498,2.89028 -4.640224,5.20317 -6.577232,8.11241 -1.552633,2.10473 -2.921198,4.3368 -4.354034,6.52117 -0.312459,-0.007 -0.06232,-0.7064 -0.165674,-0.87598 z m -3.329027,0.26934 c -1.654639,-1.6443 -3.041594,-3.69709 -3.834596,-5.89548 -0.233452,-2.94781 3.708487,-0.81508 4.73295,0.67109 1.266841,0.80013 0.599977,4.86427 -0.729865,2.21005 -2.348946,-2.37348 -0.206112,1.39675 0.539407,2.28142 0.908194,1.21086 0.359452,1.53996 -0.707896,0.73292 z m -20.027152,-0.50239 c -1.222524,-0.71024 -1.513981,-5.23828 -0.60194,-2.06117 1.789248,2.80187 -0.907545,-3.26065 0.900586,-0.47367 0.467397,0.79731 1.811784,2.19089 0.287801,2.11336 -1.63876,-1.81826 0.740671,2.07699 -0.586447,0.42148 z m 15.469265,-0.83297 c -1.503807,-0.66273 -2.768429,-1.42406 -1.470864,-2.95699 0.162526,-0.46188 0.673684,-0.35204 0.665416,-0.97644 0.993297,1.45517 2.670322,3.85134 2.869598,5.00302 -0.703459,-0.32588 -1.384023,-0.69828 -2.06415,-1.06959 z m -4.564063,-4.36159 c 0.228853,-1.15372 1.509533,-2.42967 0.466328,-0.56398 -0.07577,0.0682 -0.414644,0.95502 -0.466328,0.56398 z m 9.467456,-1.57309 c -1.040686,-0.62949 -1.931988,-1.52889 -0.905108,-2.16204 0.476973,-1.253 1.666393,1.58785 2.201147,-0.16284 1.974363,-0.74906 0.50089,5.34319 -1.296039,2.32488 z m -20.602005,-0.77297 c -1.102239,-4.30233 2.124164,1.67831 0,0 z m 32.422482,-0.88937 c 1.191243,-2.04628 3.311471,-3.29893 4.42229,-5.12647 0.917508,-1.13326 2.689673,0.6811 0.797254,0.27629 -0.660861,-0.90355 -0.709546,2.16232 0.391053,0.65139 1.540138,-1.56888 2.462222,0.2673 2.337931,1.76962 -2.815022,1.0791 -5.549561,2.46204 -8.438581,3.27239 -0.07612,-0.35536 0.426942,-0.54529 0.490053,-0.84322 z m -18.205442,0.49071 c 0.824551,-1.23409 0.327609,-1.63009 -0.397638,-2.49513 1.499919,0.008 1.956977,2.39035 0.397638,2.49513 z m -1.149398,-1.29297 c -0.871844,-0.52506 0.04139,-2.65166 0.193151,-1.29648 -0.489582,0.55689 1.410471,1.76384 -0.193159,1.29648 z m -12.714864,-0.49008 c -0.94773,-1.0064 0.589148,-2.02997 0.330905,-0.33186 0.11435,0.44027 0.125063,1.01671 -0.330905,0.33186 z m 24.753956,-1.33351 c 0.04254,-0.77807 0.845489,-1.71413 0.661497,-0.41783 2.061075,-0.69075 -1.146005,2.18296 -0.993794,1.61169 0.110765,-0.39796 0.221531,-0.79591 0.332297,-1.19386 z m -15.958236,-1.37158 c -0.866958,-0.60242 1.924819,-0.50158 0.391515,0.18624 l -0.391511,-0.18619 z m 1.994163,-1.39094 c -1.363739,-1.31743 1.187499,-0.94276 1.138119,-0.77142 1.124127,-0.72691 -0.04911,0.93864 0.133469,1.0893 -0.434722,0.25997 -0.918039,-0.0825 -1.271588,-0.31788 z m -1.804481,-1.20681 c -0.483405,-0.83645 1.923898,-0.59036 0.53298,0.38069 l -0.233205,-0.0995 -0.299771,-0.28118 z m 27.00108,-0.30491 c 1.976713,-1.04169 -0.903937,1.48278 0,0 z M 56.385415,160.4702 c 1.619511,-1.89827 2.531413,-4.7444 5.385618,-5.13131 2.916948,-0.48648 -3.056866,1.01306 -0.78625,1.49306 -0.417847,0.97182 -1.918452,1.3826 -0.990835,-0.0179 -1.786678,0.29656 -1.884595,3.66157 -3.608533,3.65611 z m 9.997043,-0.65769 c -0.50231,-0.79751 -1.654236,0.47343 -0.339752,-0.69793 1.405841,-1.01409 -0.289783,-1.22535 0.03525,-2.34334 0.09387,-1.56385 -1.425244,-1.0204 -0.497146,-2.39351 0.593538,-1.07119 0.5273,-0.68538 0.575248,0.17266 1.194583,1.30005 1.178268,-2.29746 2.410922,-0.86841 -0.474491,0.7354 -1.552276,0.2456 -0.29983,1.35081 0.82957,1.48816 -3.054843,3.39602 -0.194461,3.91094 0.630411,0.63564 -0.81658,1.72548 -0.494118,0.46303 -0.76781,-0.31733 -0.585158,1.55538 -1.196115,0.40575 z m 0.946417,-3.43838 c 1.058692,-2.06404 -1.587903,1.04786 -0.07119,0.34116 l 0.0712,-0.34116 z m 17.63154,2.49996 c 0.678871,-1.65614 1.215649,0.31225 0,0 z m 2.565455,-0.90165 c 0.944284,-1.40078 -1.019953,-0.88867 -0.722679,-2.03286 0.428587,1.01199 1.571611,-1.32592 2.194248,0.49204 0.808259,1.19091 -0.950631,1.06158 -0.859351,1.81627 L 87.7522,158.1825 Z m -4.52112,-1.1159 c -1.021055,-1.03224 1.634521,-2.67517 0.830146,-3.14386 -0.499077,0.5253 -1.532574,2.49249 -1.586462,0.98116 1.215636,-1.12719 -1.612208,-0.0251 -1.340579,-1.8628 -1.209446,0.22492 -0.836393,2.49673 0.647004,1.68296 0.771359,1.24802 -0.974238,2.93279 -0.124951,1.2683 -1.150901,-0.18627 -1.810895,-1.99813 -1.43131,-3.91144 -0.06659,-1.17247 -0.323349,-1.33925 0.463903,-1.50315 0.446907,0.55076 3.021574,0.24734 2.729394,1.50562 1.45812,2.63397 1.605369,-2.54804 2.964346,-3.28684 1.037921,-0.49444 2.004894,-1.65959 1.535936,-0.0752 0.908653,0.59375 1.607356,2.28638 0.321261,0.79254 -0.980073,-1.36481 -2.615792,-0.25664 -2.021466,1.23872 -1.877109,0.5667 -0.566949,4.29312 0.921485,3.92807 0.09574,0.84566 1.126943,-0.54388 1.569403,0.51693 -0.89465,0.4541 -1.282677,1.11346 -1.926774,0.4063 -0.337409,1.2012 -1.906492,0.48363 -1.778488,1.33543 -0.741705,-0.0622 -1.1054,1.08363 -1.772848,0.12722 z m 0.993013,-0.2555 c -0.395455,-1.6914 0.410267,-0.4893 0.844902,-0.99037 -0.757865,-3.27618 -2.24169,2.66473 -0.844902,0.99037 z m 13.18511,-1.07277 c -0.629955,-2.09004 2.046873,-0.0788 0.407576,0.34674 l -0.407572,-0.34674 z m -7.922979,-0.573 c -1.539341,-1.80329 1.569606,0.2888 0,0 z m 7.090238,-3.23561 c -2.717819,-0.96631 1.894404,0.0849 0,0 z m -9.537634,-0.36781 c 0.813978,-1.08515 2.059576,-1.19489 0.926041,0.22211 -0.256159,0.23006 -0.872416,0.17498 -0.926041,-0.22211 z m -5.287616,-1.50496 c 0.547354,-2.31396 1.214259,-0.14263 0,0 z"
         id="path2114" /><path
         style="fill:#558a4e;stroke-width:0.264583"
         d="m 80.062956,183.71652 c -2.061524,-0.64998 1.685503,-3.05856 2.37171,-0.93384 1.128853,1.1813 -1.989595,0.87174 -1.352981,-0.59194 0.0827,0.49027 -1.683962,1.32576 0.04661,1.34625 0.504158,0.56164 -0.932813,0.54695 -1.065343,0.17953 z m 8.14605,-1.88001 c -0.574844,-2.35578 1.965246,0.91836 0,0 z m -3.513175,-0.49693 c 1.598566,-1.26869 -2.868111,-0.60595 -0.752011,-2.01396 3.551972,-2.77519 7.672963,-4.68714 11.396375,-7.1884 0.889242,-1.26429 0.860546,2.03318 0.557385,2.46609 -1.145299,-0.0156 0.635353,0.87527 -0.307102,1.54846 0.468763,-0.64545 3.226029,-1.87704 1.775909,-0.41717 -1.484925,-0.0921 -2.829395,2.87034 -0.917396,2.09949 0.696925,-1.2804 1.714402,1.1238 1.706488,0.90433 -2.053791,0.55447 -5.138019,-1.56263 -6.248363,0.88409 1.823477,0.56007 -2.334624,1.68725 -0.694356,-0.17309 0.816223,-1.07274 -1.365453,0.96988 -2.023365,-0.12248 -1.766491,-0.50204 -2.384649,0.19484 -1.539226,1.42895 -1.110546,-0.82832 -2.291302,1.20358 -2.954338,0.58369 z m 9.451589,-4.22733 c -1.132507,-0.46851 -0.950947,-0.88981 -1.558596,-1.46413 -1.664929,1.36072 2.09845,0.88837 1.05188,2.13168 0.989683,0.11578 1.362906,0.19439 0.506716,-0.66755 z m -25.295897,2.82266 c -0.161822,-0.71624 -1.515262,-0.81972 -0.305883,-1.75109 -1.050874,-0.96749 1.515227,0.06 -0.500372,-0.90159 0.423509,-1.59252 3.236135,3.11688 1.269705,1.34612 -1.546645,-1.07826 2.328074,2.77801 -0.01201,1.14556 -0.365342,-0.0199 -0.326643,1.29091 -0.451437,0.161 z m 11.929385,-0.65696 c -0.54478,-1.73566 1.892945,-4.22354 2.679095,-6.13476 1.451088,-2.6335 4.599824,-3.38698 7.206317,-4.34107 1.916064,-1.14764 4.141002,-2.64045 6.47937,-2.00655 1.712822,-0.56405 2.522756,3.40265 3.68972,1.57943 0.31822,-0.77641 1.81575,-2.51141 0.98798,-0.51106 -0.53389,1.78257 -3.381257,1.90761 -3.813545,2.56158 -1.875788,-0.76893 -1.963051,-2.38452 -0.08484,-2.41395 -0.167199,-1.25387 -1.416049,0.97046 -2.473228,-0.31895 -1.127066,-0.32879 -2.284603,0.22822 -0.842265,0.83292 1.975423,-1.05317 0.373029,2.15744 -0.796423,1.98373 -0.394077,0.93708 2.528258,-0.6852 1.364194,0.91556 -3.042071,1.89039 -6.29523,3.42592 -9.416568,5.18569 0.153584,-1.64459 1.087226,-3.16633 1.208748,-4.75081 -1.95397,1.01897 -1.581325,4.33748 -3.213611,5.84574 -0.856685,0.69598 -1.826519,1.505 -2.974945,1.5725 z m 18.73159,-10.22963 c -0.868383,-1.70373 -1.992482,1.41706 0,0 z m -21.695833,8.22378 c 0.406151,-3.27796 3.218949,-5.58064 4.402613,-8.55143 -1.82052,0.69956 -2.998714,4.01875 -4.304999,4.6847 0.08909,-2.30089 0.517339,-4.93526 2.892236,-5.97002 0.865734,-0.97341 1.882808,0.12871 2.037233,0.1459 0.28407,-0.41514 0.477952,0.88064 0.81597,-0.45121 0.260753,-1.20852 0.389316,-4.03833 1.287428,-2.1376 1.256434,0.70953 1.391587,-2.15812 1.613174,0.17864 0.17181,0.19635 2.022601,-2.14501 1.183093,-0.31116 -3.627559,4.02834 -6.887892,8.3756 -9.664978,13.03437 -0.316046,0.77497 -0.235117,-0.5283 -0.26177,-0.62219 z m -2.645834,0.39397 c -2.043623,-1.02841 -3.4353,-3.35654 -3.491796,-5.62484 0.278256,-0.5616 1.540217,-2.11953 2.240689,-1.07637 1.343633,0.90907 2.810319,2.16707 1.876073,3.95123 -0.831867,0.13778 -3.432003,-2.9291 -2.38577,-0.31191 0.366807,0.31757 0.931804,0.44151 0.179314,1.27783 -0.161946,0.78477 3.573086,1.2678 1.58149,1.78406 z m -3.53264,-0.69614 c -1.176099,-1.34542 1.149068,-0.24997 0.38614,0.23655 z m 29.525039,-0.59128 c 1.22548,-2.08131 0.15717,0.78276 -0.26931,0.72968 0.0898,-0.24323 0.17954,-0.48645 0.26931,-0.72968 z m -26.065966,-6.09348 c -1.607102,-0.30971 -0.659354,-2.43241 -0.08749,-1.11642 0.950991,-1.02514 2.545786,-1.32881 1.72311,0.61537 0.0087,1.61143 -0.702912,1.42279 -1.609646,0.51979 z m 11.41081,-1.57944 c 1.006218,-1.27649 2.525001,-3.58259 3.621648,-3.04146 0.844475,-1.26411 0.488953,2.52162 1.544966,0.43373 0.706,-1.36861 0.863556,-1.41251 0.442971,0.17028 -1.040442,1.66757 -4.544268,2.7072 -5.944627,2.95105 l 0.140724,-0.23136 0.194318,-0.28251 z m -7.368493,-1.94076 c 1.574664,-2.31365 1.478891,-0.045 0,0 z m 24.068669,-0.17591 c -0.56895,-2.43583 -3.17646,0.54195 -4.927503,-0.73371 -1.571143,-1.01363 1.902323,0.3965 1.547468,-1.48502 0.364445,-1.72641 1.579925,-2.95414 3.080625,-3.76639 0.61702,0.41685 0.64235,2.38544 0.78822,3.36008 0.0341,0.36969 -0.29852,3.94047 -0.48881,2.62504 z m -1.22797,-1.54846 c 0.80656,-1.53135 1.35137,1.63472 1.46592,-0.6285 -0.15907,-1.5381 -0.78146,-1.68585 -0.56415,-3.35669 -1.07142,0.64107 -0.19511,2.21339 -1.78589,2.57867 -0.62932,0.93841 -0.66472,3.21247 0.88412,1.40652 z m -9.519669,1.35978 c 0.771271,-0.11134 3.287309,-1.45764 1.431957,-0.14811 -0.150263,0.23921 -2.534117,1.0112 -1.431957,0.14811 z m 3.84928,-2.32486 c -0.354271,-1.23516 0.248512,-3.23972 0.175892,-0.75995 -0.03628,0.11367 0.04769,1.06185 -0.175892,0.75995 z m -3.109494,-2.55066 c -0.334835,-0.48 0.87108,-1.84178 -0.713673,-0.8903 -0.515958,-0.71855 -1.818936,-1.88947 -0.918604,-3.09573 -1.095775,-0.137 -0.578141,-0.31224 -0.912451,-0.8645 -1.781569,-0.75579 0.826815,-1.15278 0.960077,0.32578 2.07114,0.60862 -0.05941,-2.42243 -1.242211,-1.78463 0.179849,-0.70102 1.39285,-2.26227 1.303625,-0.32701 0.870595,1.22298 1.453749,0.11558 0.453685,-0.45826 0.303316,-0.29609 1.613757,0.55717 1.323221,-0.49171 -1.725984,-0.73282 0.546535,-0.11445 -0.179631,-1.49009 0.270498,-1.10895 1.466777,-2.2702 0.917338,-0.90961 -0.200205,1.03711 -0.959767,3.03911 1.053114,3.01554 0.757434,2.08104 0.271162,3.72769 -1.447379,3.31383 0.492786,1.27737 -0.501342,2.14064 0.02637,3.65949 0.02654,0.31268 -0.5338,0.39792 -0.623478,-0.003 z m 0.397132,-3.88702 c -1.176474,-2.41069 -1.565326,2.48332 0,0 z m -4.684538,-4.19231 c 1.371106,-0.30908 1.22851,-0.92789 -0.08988,-0.7925 1.460735,-2.33459 1.92239,2.05411 0.08988,0.7925 z m -4.738222,-0.0195 c 0.133777,-1.5931 1.881698,-0.12044 0.230949,-0.10002 0.117739,0.0872 -0.280215,0.29526 -0.230949,0.10002 z m 8.983776,-3.31482 c -1.406149,-1.3727 2.247559,1.16409 10e-7,-3e-5 z"
         id="path2112" /></g></g></svg>
