<?xml version="1.0" encoding="UTF-8" standalone="no"?>
<!-- Created with Inkscape (http://www.inkscape.org/) -->

<svg
   width="55.069801mm"
   height="57.849735mm"
   viewBox="0 0 55.069801 57.849735"
   version="1.1"
   id="svg3381"
   xml:space="preserve"
   inkscape:version="1.2.2 (732a01da63, 2022-12-09)"
   sodipodi:docname="buissonnant-elance-natural_low.svg"
   xmlns:inkscape="http://www.inkscape.org/namespaces/inkscape"
   xmlns:sodipodi="http://sodipodi.sourceforge.net/DTD/sodipodi-0.dtd"
   xmlns="http://www.w3.org/2000/svg"
   xmlns:svg="http://www.w3.org/2000/svg"><sodipodi:namedview
     id="namedview3383"
     pagecolor="#ffffff"
     bordercolor="#666666"
     borderopacity="1.0"
     inkscape:showpageshadow="2"
     inkscape:pageopacity="0.0"
     inkscape:pagecheckerboard="0"
     inkscape:deskcolor="#d1d1d1"
     inkscape:document-units="mm"
     showgrid="false"
     inkscape:zoom="2.2173472"
     inkscape:cx="60.65807"
     inkscape:cy="60.432575"
     inkscape:window-width="2560"
     inkscape:window-height="1369"
     inkscape:window-x="-8"
     inkscape:window-y="-8"
     inkscape:window-maximized="1"
     inkscape:current-layer="layer1" /><defs
     id="defs3378" /><g
     inkscape:label="Calque 1"
     inkscape:groupmode="layer"
     id="layer1"
     transform="translate(-80.307934,-167.43998)"><g
       id="g3514"
       transform="translate(52.65,-8.775)"><path
         style="fill:#afc8ac;stroke-width:0.264583"
         d="m 51.480963,233.48061 c -0.884099,-4.88905 -2.930213,-9.50977 -4.93745,-14.0307 -1.239381,-1.66616 -3.719468,-1.61789 -4.767186,-3.16205 -0.897087,1.33619 -1.278291,-1.5154 -2.894513,-0.52715 0.546657,-1.80046 -1.256596,1.44974 -1.936713,-0.72185 -1.046596,-0.99012 -1.895391,-2.46444 -3.110682,-2.34155 0.997628,-1.10382 0.864139,-1.22788 -0.318623,-0.56212 -1.044109,-0.91346 -2.925136,-1.05881 -3.411999,-1.29435 1.119187,-1.13623 3.261805,-4.31343 0.651077,-3.19179 -0.926244,-0.70868 -3.310152,2.09194 -1.969983,0.12 0.168814,-0.94584 0.64511,-2.22768 1.037021,-3.23116 -1.449716,-1.26708 -0.220351,-0.92707 0.44909,-1.62859 -0.334154,-0.98302 -3.143945,-1.15001 -2.52408,-3.11203 0.883196,-0.86134 3.798456,-1.65561 3.236434,-2.5839 -1.209076,1.52585 -0.953549,-0.29337 -1.638438,-1.09073 0.576779,-0.19789 1.762155,1.44819 1.140747,-0.26658 1.384689,0.42165 3.505058,-0.91874 0.992918,-1.24287 -2.077434,-1.81695 3.183554,-0.74423 1.112089,-2.1301 1.192952,-0.12733 1.660115,-0.1639 3.007247,-0.57588 -1.412423,-0.67256 2.654313,-1.86608 -0.162651,-1.40696 0.223983,-0.97925 -1.39369,-1.13426 -0.527434,-1.9047 -2.208701,-1.22931 -0.186792,-3.36815 0.737492,-4.65364 1.383039,0.31238 2.111218,-0.29403 3.299666,-0.67105 0.73434,1.34672 2.583984,-0.19718 2.387867,-1.49607 1.359484,-0.3819 3.607719,-1.37902 2.694865,-2.53403 2.6741,-0.46352 5.471257,-0.61444 8.156861,-1.33177 0.671915,0.14996 3.49643,-0.45142 1.703397,-1.01308 0.77347,-0.40855 1.649034,1.18724 1.432759,-0.27171 1.418369,-0.27651 3.360314,1.92795 2.214707,-0.0622 0.940861,-0.76834 2.357557,1.45238 3.111613,-0.34702 1.809577,0.18334 3.65318,1.28541 5.021155,1.98953 -0.900716,1.16884 0.854517,4.1953 1.228909,1.71792 1.155144,-2.12624 3.567861,-1.14779 4.191083,-1.18355 2.568203,-2.10075 -2.461248,4.75788 1.026408,3.63432 1.610291,-0.6861 2.004143,1.23102 2.979493,1.34947 -1.046615,0.48068 -2.56699,0.77845 -1.018155,2.1825 1.626409,0.38591 2.399682,1.82333 3.673792,2.20534 -0.13588,-1.6116 1.653363,1.03184 2.653509,0.72043 1.281914,1.59873 0.789632,2.95299 1.045728,4.02502 1.513153,1.81346 -0.444574,3.50787 0.152135,5.93508 1.106055,-2.00899 1.683227,1.50203 0.373849,1.90771 -0.558233,1.90999 -0.287996,3.93312 -2.266424,5.15047 0.549325,2.07588 -1.18761,-0.69136 -1.220367,1.59617 0.363461,2.00548 -1.651254,2.11676 -1.293438,0.78813 -0.389673,0.88697 0.08567,1.68925 -0.676915,1.81575 1.349715,0.6201 -0.648937,2.51061 1.181625,1.17715 -0.400043,1.59684 -2.7552,2.59519 -2.254517,4.32208 -1.522041,1.21896 -2.798253,1.73022 -4.152723,1.7878 -2.286817,1.4167 -5.961394,0.21317 -7.702918,2.71517 -3.311619,4.15769 -7.926798,7.60334 -9.521124,12.87079 -0.823438,2.71375 -0.242505,-2.46744 0.801001,-2.98644 3.547135,-5.97372 10.011767,-9.92643 12.219138,-16.73941 1.027327,-4.30052 4.806466,-7.02089 7.071925,-10.5917 -1.819336,1.19611 -3.615705,3.88559 -5.10651,4.65456 0.335332,-1.7819 1.966721,-5.60449 1.630945,-6.17636 -2.417533,5.5065 -4.038473,11.38336 -7.301093,16.49241 -2.182998,4.32919 -6.475738,6.98567 -9.018896,11.0597 -1.884136,2.21153 -0.595093,-2.83696 -0.4148,-3.80369 2.047932,-7.68335 5.179713,-15.05807 6.741995,-22.87974 0.481486,-2.93384 1.816659,-5.57929 2.979973,-8.26957 -0.496506,-0.35944 -1.893185,3.00978 -1.495452,0.38168 0.312801,-1.22806 0.217906,-3.05508 -0.291208,-0.86347 -1.304851,4.16725 -1.972472,8.50883 -3.322898,12.65785 -1.206959,-0.40306 -1.635985,-4.48488 -2.62702,-6.21906 -0.237947,-1.1956 -1.650863,-3.7795 -0.897583,-1.0551 1.019923,3.50516 2.528209,7.01689 2.534122,10.70769 -1.720101,5.5958 -3.434872,11.20155 -5.107969,16.80614 -1.676952,-1.53652 -2.011388,-5.49803 -2.656057,-8.05798 -0.749888,-2.74722 -1.697773,-5.61178 -0.720826,-8.44756 0.250519,-1.74056 1.552532,-4.95016 1.048819,-5.72038 -1.070963,2.10192 -1.359372,5.4591 -2.463324,6.9178 -1.214588,-3.79986 -2.645345,-7.52674 -4.019917,-11.27381 -1.120714,-1.04356 0.645039,2.88818 0.727374,3.66399 1.965336,6.67964 4.064699,13.32281 6.026023,20.00012 0.139127,3.16408 -1.726194,-1.83331 -2.084272,-2.69766 -2.412725,-6.00021 -5.416464,-11.74799 -8.232838,-17.56425 -1.044879,-1.19808 0.704954,2.66315 0.938007,3.36616 0.672051,1.27981 0.708815,2.22635 -0.624357,0.81063 -0.700562,-0.73919 -2.840401,-2.18765 -1.035382,-0.39306 2.534559,1.98591 4.135043,4.65284 5.165093,7.65878 2.782289,6.13765 6.093994,12.18796 7.299775,18.88209 0.218347,0.60771 -0.562046,1.3739 -0.350991,0.23796 z m 3.263087,-6.0478 c 1.994066,-3.02287 5.052692,-5.13618 7.137244,-8.07891 -1.953669,0.19065 -3.924929,0.27228 -5.869366,0.48705 -1.489905,2.51446 -1.733899,5.61992 -2.26403,8.46792 -0.271881,1.39076 0.559792,-0.20595 0.808311,-0.57045 z m -1.165145,-6.32131 c 0.719304,-1.14498 0.418307,-1.65598 -0.9337,-1.51391 -4.018731,-1.1307 -0.577951,3.69491 -0.621389,5.78474 0.698969,-1.03559 0.970428,-2.94756 1.555089,-4.27083 z m -4.09348,0.0659 c -0.0533,-1.39192 -1.472165,-2.01562 -0.559943,-0.22824 0.279579,1.09314 1.27864,2.52217 0.656043,0.56722 z m 23.861181,-4.97358 c 1.104586,-1.8115 -2.108522,-0.11359 -0.787741,0.47316 l 0.403735,-0.1636 0.384004,-0.30956 z m -43.983532,-14.7386 c -0.910717,-1.66106 -1.289317,0.91516 0,0 z m 3.589009,-2.45307 c -0.405699,-1.28734 -0.888878,1.85115 0,0 z m 45.749652,-8.79141 c 0.327246,-2.09928 -2.340988,-0.62819 -0.339865,0.34795 l 0.33986,-0.34795 z m -3.247416,-4.52595 c -1.215217,-1.12296 1.87063,-2.10681 0.190292,0.12556 -0.103545,0.44283 -0.535535,0.25586 -0.190292,-0.12556 z"
         id="path3528" /><path
         style="fill:#94b590;stroke-width:0.264583"
         d="m 51.503608,232.82889 c -1.153505,-4.81128 -3.055659,-9.44962 -5.159317,-13.9205 -1.707438,-2.3791 1.42181,1.20318 1.350392,2.26633 1.52194,3.81445 3.289291,7.63935 3.956401,11.70399 l -0.100931,0.26952 -0.04655,-0.31932 z m 2.396784,-0.63064 c 0.122665,-1.09075 2.15672,-3.98397 0.872374,-1.48488 -0.292454,0.37406 -1.246313,3.73618 -0.872374,1.48488 z m -0.450951,-4.10398 c 0.186605,-1.32414 0.619729,-4.8104 1.09704,-4.82865 -0.298415,1.77142 -1.080734,4.56677 -0.740069,5.81221 1.593935,-2.76049 3.688975,-5.20021 6.217448,-7.15092 -2.218426,2.33528 -4.422059,4.70326 -6.224009,7.38019 -0.691389,0.52635 -0.314786,-1.03308 -0.35041,-1.21283 z m 2.3718,0.4362 c 2.193659,-3.10022 5.01666,-5.69359 7.626926,-8.43984 -2.555823,2.99571 -5.27691,5.84963 -7.802057,8.86902 l 0.175133,-0.42918 z m -4.232614,-3.74349 c -0.872351,-2.57024 -1.386327,-5.21534 -1.906871,-7.86465 -1.006393,-2.36416 -1.351833,-4.86328 -0.474657,-7.3435 0.138995,-1.87844 1.649234,-4.64804 0.979925,-5.91526 -1.316561,1.72158 -1.367965,6.29238 -2.588596,6.75109 -1.175951,-3.74519 -2.501772,-7.45286 -4.005368,-11.07731 -1.263275,-1.05013 0.474591,2.66113 0.580747,3.51915 1.743005,5.35928 3.18758,10.81961 4.917858,16.17579 0.471693,1.44424 1.782892,4.49008 0.97495,5.18807 -1.799687,-3.94753 -3.481515,-7.9623 -5.208304,-11.94693 -0.855522,-2.3061 -2.44758,-4.38237 -3.390101,-6.73168 -0.284632,-1.12386 -2.798974,-5.42879 -1.673562,-2.16967 0.212487,1.11346 2.226582,4.65889 1.565176,4.43806 -0.999068,-1.05773 -4.113274,-3.32225 -1.728782,-0.65297 2.14304,1.84091 3.713081,4.07124 4.576994,6.76801 0.513537,1.19425 2.313105,4.46694 -0.257907,3.08204 0.517909,-2.2232 -5.027816,-0.32649 -4.867366,-3.33562 -2.068111,0.43101 -2.206674,-1.21008 -0.476219,-1.81406 0.219007,-0.67597 -1.675594,-3.0795 -1.522999,-1.42623 -0.648416,-1.05122 -5.56064,-1.28481 -2.828682,0.29757 0.993862,0.37521 -1.496471,1.91779 -1.318567,0.23322 -1.32423,-0.97017 0.797963,-3.53826 0.264468,-3.73477 -1.103014,-3.04424 4.082008,-1.29909 3.024355,-4.14711 1.20225,-2.68618 -2.916529,-1.97373 -2.18421,-0.0538 -2.020301,-1.4515 0.627946,1.73668 -1.171598,0.94969 -1.928321,1.77392 0.253458,-1.51903 -1.258874,-0.0503 -0.80455,0.88994 -0.909183,2.5113 -2.085304,2.19942 0.593813,-1.36585 2.918689,-2.85192 1.549218,-4.11192 1.605628,-1.14199 -2.379701,0.41272 -0.810782,-1.54033 -0.710502,-1.30842 2.934181,-0.58505 1.122921,-0.15754 2.699215,0.0553 0.992027,1.67707 0.810055,2.25186 1.089658,0.80808 0.96252,-3.04013 2.235712,-1.74668 -0.778003,-1.39295 -0.807129,-0.98384 0.105183,-1.47155 -1.331099,-0.99442 -3.948348,-2.02416 -1.911242,-3.04972 1.179826,-0.69739 2.955085,-0.55886 3.765472,-1.60866 0.250503,-0.27154 -1.191606,-1.71159 0.720258,-1.98437 2.216469,-1.19004 0.663739,-4.50323 0.660951,-6.55872 0.780872,-1.50677 -1.887978,-1.25108 -0.877604,-1.94019 1.157871,0.34417 1.509633,1.91038 2.512708,2.25364 -1.693115,-0.35663 1.989905,3.53007 0.605225,0.53247 1.723545,-0.54569 0.06059,-3.54026 1.562981,-3.79131 0.324713,0.99285 0.880165,2.27404 1.802955,1.72718 -0.299071,1.93517 1.020849,0.2281 1.60552,1.09164 -0.107125,-1.25486 1.746636,-1.57025 -0.582103,-1.8129 -1.732258,-0.2275 0.911613,-1.96099 -1.075684,-0.95281 -2.522222,0.97334 -0.960875,-2.75241 -0.216396,-1.21838 0.154303,-1.05477 3.433225,-1.75742 2.416091,-2.43646 1.797528,1.05489 2.333373,-1.58033 3.577013,-0.18713 1.078555,-1.2983 3.297135,0.19417 1.62314,0.35372 -0.878329,-0.48903 -2.447487,1.79193 -1.83487,-0.0255 -2.13979,1.81999 1.544033,1.32877 2.335861,2.43263 0.975631,0.99312 -1.509593,-1.87032 0.592126,-0.90227 0.542039,-1.15881 1.088198,1.23624 1.659225,-0.66242 -1.243811,0.20875 -1.19669,-0.6832 -0.320399,-0.31174 -0.570488,-1.28374 0.300911,-2.89857 1.076992,-1.8113 1.155346,-0.71375 1.511653,-1.09926 2.207617,-0.43839 1.41187,-1.21216 -0.911215,2.00974 0.947244,0.87112 2.176007,0.81943 -3.365742,2.56609 -0.38207,1.73577 1.463514,-0.69203 2.653719,-0.76315 3.969727,-0.14679 -1.513101,-0.96598 0.272699,-2.2591 1.002968,-0.80023 -1.398209,-3.23284 3.204788,1.30603 0.583079,2.01566 0.108355,0.26161 0.598641,1.16488 0.918436,-0.11633 -0.601692,-1.72774 1.535119,0.20181 -0.06005,1.16678 -1.188877,1.51663 1.63052,1.13738 -0.04346,0.5678 0.692159,-0.87963 2.037384,-1.60065 1.697574,-0.58556 0.31931,-1.92527 2.496112,-1.2599 1.013285,0.1773 -0.650551,0.96362 -1.6937,2.80733 -1.387943,1.35116 -1.284092,1.0786 1.987966,1.93296 -0.09339,2.63225 1.625636,0.1253 0.79104,0.54943 0.934383,1.01834 1.852546,-1.20164 2.375998,-2.98366 3.671675,-4.58006 0.525936,0.16644 2.856527,-0.83537 1.684177,0.51599 0.809704,0.50117 -2.943725,4.02545 -0.453992,2.24203 1.558476,-0.79647 2.460568,-0.4856 0.804129,0.67693 -0.816501,0.70965 -1.903544,1.32028 -0.468539,1.42026 1.088074,-0.30299 1.983606,0.0327 0.930393,1.21959 0.826215,1.24299 2.294023,-0.13726 0.638843,-0.0455 0.230831,-0.80239 1.563406,-0.84622 1.349739,-1.25485 1.281714,-0.0174 1.748226,-0.0123 0.27086,0.77362 1.222871,-0.0724 2.360412,0.63429 3.021448,0.90393 1.388805,0.17107 -2.220921,3.0596 -0.399019,3.41417 -1.062118,0.76267 1.145117,1.50732 1.764688,0.9052 -0.524804,1.73755 2.322157,0.71207 0.134312,0.66156 1.525875,-0.78256 -1.02631,-3.4718 1.705195,-3.63773 -0.09428,0.54998 -1.660017,0.93411 0.155545,1.17808 0.0301,1.60537 2.376883,3.03524 -0.578333,3.09672 -2.520209,0.65673 1.675307,3.6803 0.185263,3.80029 1.372635,1.2164 0.444618,4.35425 0.383061,5.05388 -0.702785,0.37092 -1.065371,1.83194 -2.336728,0.35571 0.01673,-0.03 -2.761063,0.87674 -0.984892,1.6108 0.178064,1.1262 -1.561734,2.23383 -0.902928,0.58117 -1.544543,-0.11354 -0.560453,3.18617 -0.50185,4.38862 -0.898056,1.23546 1.129562,0.1369 -0.22426,1.19864 -0.145917,1.14579 -0.271596,3.17288 -1.581014,2.37412 -1.315001,0.61355 -3.507489,3.51998 -3.552533,2.40913 1.131444,-0.22652 -2.499882,-0.91025 -3.194206,-0.14939 -1.5685,0.91092 -2.123924,0.35228 -1.030667,-1.10553 1.316403,-2.78051 1.861227,-5.98463 4.142178,-8.22857 1.047062,-1.50807 3.938104,-4.06465 3.721692,-5.01144 -1.738403,1.28946 -3.124635,3.30279 -4.828428,4.42366 0.408404,-1.6742 2.154939,-5.82389 1.705794,-6.25878 -2.656943,5.09022 -3.586876,11.06262 -7.209497,15.62687 -1.3682,1.9135 -3.240859,1.64798 -4.948532,1.64043 1.252646,0.15142 0.502554,1.9331 -0.698056,0.90925 -0.582016,0.5619 0.273889,-1.49045 -1.008329,-0.0399 -1.226496,-1.66719 0.662723,-4.5367 1.068865,-6.52638 1.828768,-4.95136 2.465857,-10.23795 4.137851,-15.22646 0.656703,-1.10763 2.533381,-5.41635 0.350183,-2.56048 -0.91112,1.15728 0.816374,-4.94582 -0.444755,-2.05847 -1.498743,4.26163 -2.11247,8.77394 -3.485436,13.06442 -1.150238,-0.66302 -1.535035,-4.30595 -2.546786,-5.98407 -0.234469,-1.04865 -1.814139,-3.90193 -1.034921,-1.17345 1.006816,3.19467 2.053592,6.41296 2.624879,9.7135 -0.696129,4.33082 -2.708427,8.34149 -3.582731,12.63268 -0.873682,1.3702 -0.954442,5.18297 -2.043179,4.9762 l -0.182377,-0.48374 -0.183249,-0.59071 z m 1.64166,-2.31511 c 0.405934,-1.3426 1.613424,-3.46907 -0.550795,-3.20881 1.067486,-0.14015 1.977343,-1.03062 0.64551,-1.18921 -0.828365,0.67483 -2.301003,2.18227 -1.281909,0.26759 -2.844409,-0.53972 -0.901868,3.09856 -0.605692,5.02947 0.252539,1.56931 1.065153,2.84811 1.346627,0.51371 0.150524,-0.47036 0.299208,-0.94132 0.446259,-1.41275 z m -3.580217,-0.94899 c -0.02129,-1.51614 -1.953807,-3.53707 -0.879441,-0.82032 0.368955,1.38462 1.870205,4.14307 0.986128,1.20843 z m -8.396685,-6.8027 c -0.218563,-2.26413 -2.444143,1.00284 0,0 z m 33.012941,-4.57243 c 1.317885,-0.92554 -2.897196,-1.65322 -0.844272,0.13792 0.195976,0.41657 0.618767,-0.17694 0.844272,-0.13792 z m -35.508977,-1.23677 c -1.761317,-0.73634 -0.43547,1.58722 0.314991,0.23199 l -0.314991,-0.23202 z m 0.09106,-6.63293 c -1.738871,-2.82036 -2.26952,2.5828 -0.0017,0.38916 l 0.0017,-0.38912 z m -3.115533,-4.28445 c 1.465321,-0.064 1.785226,-1.53443 1.84942,-2.11235 1.499504,-0.9364 -3.004366,0.13194 -1.489288,0.45806 -1.320188,0.80171 2.576363,0.005 0.205234,0.9945 -1.59948,0.17724 -2.933959,1.53727 -0.565366,0.65979 z m 4.098374,-6.84245 c -1.20078,-2.27684 -0.907337,1.0583 0,0 z m 36.089026,-1.19693 c -1.202981,-1.02529 -1.710815,0.72274 0,0 z m -7.70727,-2.46166 c -1.05871,-0.27943 -2.949756,1.64543 -0.751968,0.73267 0.254577,-0.19841 0.711693,-0.36106 0.751968,-0.73267 z M 41.71257,187.35364 c -0.946728,-2.13249 -0.728428,1.7153 0.0722,0.42372 z m 5.324525,-2.4333 c 0.609554,-1.24125 -0.636716,0.23975 -1.043022,-0.59274 0.67057,0.95267 -0.737565,1.75176 1.043022,0.59274 z m 7.875405,-2.65748 c -1.499929,1.0503 -1.615344,2.65163 0,0 z m -4.7625,-0.008 c 0.455228,-0.72571 -0.880237,0.16353 -0.789695,-0.0662 -0.1076,0.65046 0.631387,0.45302 0.789695,0.0662 z m -4.394732,-1.24549 c -1.989444,-0.75953 -1.521255,1.83527 0,0 z m 16.887476,-0.78739 c -1.318577,-0.62831 0.487492,1.7581 0,0 z m -7.825714,41.58809 c 0.181326,-1.62197 1.157944,-2.84049 0.345545,-0.45618 -0.09219,0.432 -0.663061,1.98003 -0.345545,0.45618 z m 6.441507,-1.4571 c 0.901546,-1.33858 1.342109,-1.19106 0.224487,0.022 -0.451798,0.47832 -1.079928,0.85703 -0.224487,-0.022 z m 12.500782,-4.36374 c 1.399187,-1.53453 0.801104,0.96284 -0.188758,0.37373 z M 36.65625,211.83184 c 1.751856,-0.76091 -1.395196,-0.82981 0.629255,-0.9618 1.055956,0.4351 -0.269645,2.04936 -0.629255,0.9618 z m -4.489502,-3.39846 c 0.83862,-2.33657 1.148534,-0.40387 0,0 z m 41.66346,-21.0188 c 1.937394,-1.03189 1.759493,1.08591 0,0 z m -6.680081,-5.09323 c -0.977499,-1.29352 0.02733,-2.03858 0.329583,-1.98437 -0.108519,-1.45414 0.910837,1.0558 0.922224,-0.72494 0.258781,1.70065 3.516517,-1.93546 2.747967,0.85723 -1.209672,0.5553 -0.275486,2.33265 -1.432071,0.73659 -0.879926,-0.14804 -1.706743,2.17439 -1.576164,0.91701 0.812269,-1.33091 -1.593606,-0.42311 -0.594339,0.77008 l -0.152118,-0.13305 -0.245086,-0.43864 z m -8.335023,-2.73234 c -0.531551,-1.371 1.763348,-0.57755 0,0 z m 2.121662,-1.6401 c 0.628307,-0.94315 -0.228998,-0.62858 -0.185062,-1.56043 1.697472,-0.77541 0.635617,2.76929 0.185062,1.56043 z"
         id="path3526" /><path
         style="fill:#81a97d;stroke-width:0.264583"
         d="m 59.675,224.05937 c 0.912307,-1.01478 2.301161,-2.06737 0.550572,-0.29232 -0.82769,0.94745 -2.801617,2.6155 -0.836561,0.58464 z m -9.684099,-0.85996 c 0.277728,-2.72078 0.504296,3.54227 5e-6,0 z M 59.675,222.20729 c 2.247606,-2.28778 -0.593735,1.21338 -0.595036,0.65402 l 0.256972,-0.29446 z m -10.426454,-2.15591 c -0.802708,-2.11495 -1.329418,-0.024 -0.918353,0.15086 -1.216781,-3.17703 -2.822181,-6.25806 -4.039635,-9.39589 -1.809614,-2.81774 -2.858866,-6.07232 -4.745621,-8.83968 -0.102693,1.57354 1.093224,3.35715 1.629785,5.00257 1.053774,2.00822 -0.488982,0.17188 -1.292464,-0.45314 -0.846091,-0.98889 -2.317231,-1.29635 -0.840446,0.0913 1.482678,1.18747 3.31723,3.09891 1.496743,4.6113 1.114414,-0.75313 2.497815,-1.75412 2.449782,0.41286 0.565143,1.5956 -3.266517,-0.0985 -2.628236,-1.32908 1.133261,-2.26325 -3.739245,1.47264 -2.307563,-0.73454 2.018193,0.49855 1.483459,-2.42625 -0.102401,-0.74607 -0.569186,2.44222 -2.664289,0.36064 -4.197396,0.60581 1.398583,0.0335 2.496833,-3.02067 0.904027,-0.99392 -1.105381,1.06635 -0.442046,-0.79774 -1.450899,-0.48667 1.748202,-0.54784 0.420307,-3.76614 2.307126,-2.03819 0.05483,-1.30802 1.419558,-0.23843 1.121588,-1.53375 1.908775,0.11514 -0.457537,-1.49847 1.700574,-1.07176 0.717078,-0.85277 1.281939,-3.23658 -0.07709,-3.48193 0.747799,-0.76093 1.132522,-2.36683 0.184145,-1.10678 -1.360533,-0.14056 -4.282269,2.93757 -2.728888,0.31429 0.606755,-0.41522 2.439628,-2.16295 2.069518,-3.47257 0.333487,-1.10433 -0.105037,-2.04393 -0.883238,-0.85953 0.112786,-1.05633 -0.01269,-0.6269 -0.592099,-1.09444 1.048493,-0.65084 1.614031,-1.48247 1.936272,0.0894 -0.204164,0.14668 0.113067,-4.43343 1.097427,-1.84157 -0.523205,1.32171 1.486948,-1.18767 1.632325,-1.75918 -2.447511,2.1268 -2.808384,-1.96043 -2.945207,-3.84192 0.688568,-0.51018 0.464141,3.89794 2.58644,2.38055 0.602776,-0.54544 2.853903,-1.1574 0.939809,-1.73321 -0.904436,-0.97811 -0.823706,-4.39741 0.146127,-1.98993 0.374601,1.03651 2.620059,0.78792 1.861245,2.23149 1.527755,-1.57656 1.572999,0.93661 3.148496,0.8303 0.978155,0.37816 -0.549412,-2.03227 1.09754,-0.4753 -0.347774,1.32133 -0.212625,1.25757 0.462119,0.40094 1.285445,0.33176 0.154933,-2.20657 0.821586,-1.9755 -1.672711,-0.72623 -2.989348,-1.18528 -1.788662,-1.59762 -1.630255,-0.0945 -0.185803,-2.08008 -1.558276,-0.21133 -2.367134,0.66325 -1.482252,-1.33047 -0.165375,-2.10052 0.01685,-1.84919 3.145301,-1.56891 0.998772,-0.15081 -1.1516,1.03462 -0.660803,1.37408 0.369069,0.28221 -1.022638,1.87633 2.277437,0.11621 0.933907,2.22149 0.745204,0.54585 3.187829,-2.23871 2.588201,-0.43237 -0.367073,0.92014 1.945353,-1.76014 1.559189,0.59818 2.46477,0.0371 3.270695,-3.74453 5.964405,-3.86198 1.606519,0.5899 4.62888,2.59241 3.587594,4.46167 0.950997,0.68536 2.450697,-2.45532 2.317621,-0.0383 -0.7858,1.19064 2.301415,0.72947 0.311407,1.32468 0.41283,0.98113 1.051465,0.92732 1.17199,2.08155 1.417319,0.28152 4.680851,-0.47608 4.588604,0.24211 -1.665286,2.26587 0.63195,-0.13835 1.276981,-0.46819 -0.05137,0.8442 -0.764185,0.9493 0.33416,1.02229 -3.163751,0.90666 3.009995,0.70243 3.704164,1.03337 0.903192,-0.29764 0.113196,1.75687 1.467327,0.58538 -0.0084,0.98235 -1.827113,1.21635 -1.296014,2.06046 -0.939686,0.85983 0.785039,5.76144 0.235952,1.92599 0.485879,-1.25779 1.959345,1.32852 2.391397,-0.42599 0.470098,1.97674 1.895662,3.76792 1.771726,5.30735 1.056257,0.39396 0.310643,3.5722 0.374872,4.52257 -1.646773,-2.12893 0.334863,1.64627 -1.816918,0.47614 -2.738227,-0.60095 -3.359424,2.07138 -4.070437,3.97127 -1.598503,-0.15614 -1.597084,2.20849 0.08634,1.33391 1.791199,-1.62701 0.377586,2.67236 0.807515,3.46259 -1.466722,0.96098 -3.164745,3.13402 -4.515819,3.45262 -1.576725,-1.48046 -6.459855,1.97949 -4.486513,-1.44393 1.258861,-2.66238 1.81682,-5.70321 3.998772,-7.85239 0.959109,-1.47484 3.960294,-4.01964 3.614393,-4.99567 -1.75655,1.25458 -3.112274,3.27646 -4.796313,4.41186 0.481075,-1.95415 2.111045,-4.97664 1.727371,-6.39619 -1.985818,4.13672 -3.216764,8.63283 -5.273199,12.75781 -0.837036,2.48002 -3.080165,4.8151 -5.900205,4.3364 -2.391098,-0.45939 0.108046,1.15045 -0.571285,1.34062 -0.89685,-0.6501 -1.656574,-0.53716 -2.203111,-0.50733 -0.737206,-2.8099 1.353829,-5.56645 1.823279,-8.33248 1.46562,-4.45805 2.043781,-9.1736 3.724281,-13.55687 0.615879,-0.85242 2.381713,-4.66364 0.338884,-2.46534 -1.47115,2.84265 0.681552,-5.25595 -0.81638,-1.42384 -1.3916,4.24923 -2.04505,8.73463 -3.559635,12.92679 -1.146195,-2.84439 -2.008905,-5.86754 -3.466703,-8.59253 -0.194482,2.21425 1.375966,4.68827 1.739221,7.05347 0.913451,2.48678 1.114879,5.14359 0.05945,7.6309 -0.982858,1.73548 -0.81156,6.62362 -3.419585,5.82402 -1.01313,1.97716 -1.380952,-0.0522 -2.747919,0.61069 -0.204885,1.29287 -0.09434,2.82628 -0.352581,0.70904 -0.391851,-2.88961 -2.190773,-5.68405 -1.1077,-8.63772 0.143968,-2.13119 1.8206,-5.23368 1.130978,-6.72471 -1.262449,1.92824 -1.493927,5.54701 -2.50264,6.80934 -1.367894,-3.76672 -2.417709,-7.66618 -4.116868,-11.30596 -1.372583,-0.32159 1.004947,4.05659 1.107066,5.36485 1.634477,4.90566 2.829634,9.9575 4.550589,14.82814 0.358084,0.3099 0.424735,2.10561 0.03352,0.68519 z m 24.928928,-7.74943 c -0.206191,-0.92183 -1.258595,1.10042 -0.183763,0.27925 z m 4.683948,-9.60768 c -0.588436,-1.00574 1.764865,1.32509 0.819242,-0.59958 -0.400726,-0.5699 -2.886052,-0.0628 -1.356264,0.45268 0.0054,0.50147 0.765944,1.31243 0.537022,0.1469 z m 0.151217,-1.71429 c 0.831884,-1.2826 -2.789249,-2.15779 -0.451379,-0.62185 0.311021,0.7504 -1.752012,-0.0985 -0.277697,1.1921 0.360683,0.42398 0.679013,-0.38837 0.729076,-0.57025 z M 53.325,186.07605 c -1.706652,-1.14292 -0.575021,1.19519 0,2e-5 z m 0.672441,34.17998 c -0.466197,-2.56072 0.714403,0.67908 5e-6,0 z m -9.811274,-3.6603 c 0.08406,-1.94646 -5.039664,-0.88201 -4.052414,-1.84264 1.774814,1.28004 1.196861,-2.01451 -0.35357,-0.3919 -0.892629,-1.21711 -0.749775,-1.7214 0.02675,-1.15478 1.818434,-2.05825 4.512695,-0.2673 5.00627,2.18775 0.783003,0.48514 -0.46447,2.95888 -0.627034,1.20157 z m -10.795739,-5.75026 c -1.270458,-0.72096 0.131871,-2.06155 0.138049,-0.41415 0.853523,0.58963 1.054176,1.47878 -0.138049,0.41415 z m 5.560735,0.009 c 0.158872,-2.30417 1.293174,1.04863 0,0 z m -2.50658,-8.99371 c 0.459144,-0.86768 -0.184579,-2.72434 0.905861,-0.89197 0.13512,0.63084 -1.036094,2.55958 -0.905861,0.89197 z m -3.688303,-3.99128 c -0.667161,-0.91724 3.868906,0.15934 1.518724,-1.29441 0.467795,-1.32614 1.042038,-0.45173 0.383069,-0.18702 2.991872,1.01619 -1.5788,1.97215 -1.901793,1.48143 z M 79.915625,193.5 c -2.07141,-0.4558 0.350266,-1.99782 0.464566,-0.41223 0.247417,0.16174 -0.673372,1.14817 -0.464566,0.41223 z M 67.27209,187.23198 c -4.4e-4,-2.54785 1.946214,-0.91195 0,0 z m 1.398743,-1.14031 c 0.622427,-0.89503 2.509622,-1.53551 0.926042,-0.26459 -0.449772,-0.13826 -0.537191,1.12108 -0.926042,0.26459 z m -3.877466,-2.33594 c 2.243082,-3.45725 -0.479471,1.87113 0,0 z m -22.0517,-0.97136 c -0.05523,-0.72949 -1.608799,0.48161 -0.532656,-0.59261 1.887745,-0.71673 1.961983,1.91961 0.532656,0.59261 z m 23.191536,-0.36178 c -1.072175,-1.31145 1.777718,0.10676 0,0 z M 47.4992,182.21277 c 0.364984,-2.36585 0.882735,-0.85933 0,0 z m 7.97255,-2.11048 c 3.203643,-1.66807 -0.283073,1.2423 0,0 z"
         id="path3524" /><path
         style="fill:#79a374;stroke-width:0.264583"
         d="m 59.928526,223.86094 c 0.702979,-0.90084 2.050329,-1.7961 0.471434,-0.29491 -0.658928,0.61271 -2.389833,2.2899 -0.883581,0.73403 0.137383,-0.14637 0.274765,-0.29275 0.412147,-0.43912 z m -12.159588,-5.12068 c -0.889653,-2.53488 -2.383892,-4.82996 -3.124071,-7.42153 -2.042004,-2.92021 -3.078008,-6.42214 -5.090115,-9.35206 -0.474036,1.47429 2.252537,5.02144 1.49432,5.56455 -0.709883,-0.9037 -3.508337,-3.55302 -2.127269,-1.02094 0.948268,0.96831 1.928879,1.90421 2.893822,2.8558 -1.275972,-0.16123 -2.802589,0.84274 -2.542249,-0.97309 -1.21496,-0.5597 -2.08334,1.74533 -1.838014,-0.60596 -0.501445,0.89001 0.273571,3.2978 -1.654619,1.84803 -0.570398,-0.33166 -0.773136,-3.63547 0.761948,-4.95863 0.02078,1.7673 0.99827,-1.04074 1.347868,-0.22401 1.000433,-1.52761 1.795353,-3.99767 1.082071,-6.31283 -0.679206,0.25291 0.528542,1.52872 -0.804845,0.23263 0.44566,-2.06094 -3.268603,1.30472 -0.80357,-0.92162 0.925507,-0.59371 0.858351,-2.98243 0.918106,-0.83816 1.17392,-0.34785 0.141501,-2.63487 -0.436186,-1.43601 0.05643,-1.98764 1.594941,-2.52671 2.514281,-3.79357 0.742742,-0.5409 3.073514,-1.46685 0.985527,-1.94997 6.42e-4,-1.29442 0.526362,0.52896 0.464502,-1.15241 1.650774,0.32711 0.449318,-4.10739 1.571504,-1.24212 1.567848,-0.10409 3.032179,3.56804 4.746934,1.36795 0.317143,-1.14763 1.33555,1.44943 1.270745,-0.65764 -0.238669,0.009 -0.255212,-1.40454 0.415537,-1.88907 -0.430122,-0.56433 -4.520069,-0.70476 -1.477758,-1.31129 0.886876,-0.66311 1.623307,-1.16557 2.341864,-0.4842 1.275545,-1.56228 1.468974,1.12522 0.26449,0.37898 2.670484,2.06519 3.809988,-3.15884 6.351091,-3.44473 1.860388,-0.97807 2.298282,1.90919 4.093686,2.23448 0.307181,1.16006 0.40285,2.63554 1.663225,2.71405 -0.524657,-1.23365 1.348094,-2.58472 0.682959,-0.49224 0.131363,2.36248 2.917845,4.04851 4.392768,3.99187 1.057902,0.0493 1.178508,1.01292 2.272981,0.0484 0.445854,1.6454 4.429635,-0.19925 5.041003,1.36292 1.17293,1.20392 -1.319376,2.58827 -0.176829,4.62139 0.222205,2.51754 1.019452,0.89669 0.618441,-0.62815 1.597375,-0.87169 1.399091,2.04936 2.00556,1.43988 0.780783,-1.75729 1.573765,2.45128 -0.662898,1.30518 0.951791,0.81631 2.138607,1.13337 0.460422,1.81239 0.833128,1.21471 0.539038,0.87032 0.154317,1.65128 1.265084,1.42365 -0.201587,0.3234 -0.378149,0.49158 0.849155,1.01186 0.445516,3.33204 1.799207,1.6449 0.773946,2.83345 -2.840969,-0.0765 -3.76181,2.28977 -1.319764,1.15391 -0.495277,3.83182 -2.546288,3.87161 0.01095,2.12364 3.174836,-0.52606 2.095048,2.23107 -0.509601,1.3448 0.404653,2.83008 -1.553348,3.20615 -1.641758,1.22009 -2.097397,3.12235 -4.213115,1.85639 -1.562393,-0.3262 -5.156687,1.83153 -3.025724,-1.13265 1.260264,-2.71394 1.875612,-5.79299 4.129455,-7.93584 0.996993,-1.51215 3.84664,-3.9068 3.660429,-5.07419 -1.463625,0.80269 -3.878835,4.31488 -4.649494,3.89087 0.20874,-1.71835 2.079156,-4.61637 1.203973,-5.67524 -1.868416,4.73388 -3.499348,9.59281 -5.820937,14.13321 -1.036056,2.82353 -4.166613,2.7463 -6.402867,3.25141 2.171556,2.06065 -1.883132,-0.0162 -1.935212,-0.78308 1.867387,-5.47243 3.577059,-10.99948 4.719701,-16.67479 0.296533,-2.586 2.044384,-4.77298 2.528676,-7.21095 -1.036335,0.25508 -1.66187,2.53583 -1.285248,0.23981 0.300038,-1.09423 -0.126491,-3.01742 -0.588883,-0.77554 -1.253925,4.17449 -2.037187,8.47838 -3.329607,12.63807 -1.450941,-1.80413 -1.85893,-6.07854 -3.680568,-8.29798 0.0017,2.28138 1.487546,4.61459 1.812795,6.99494 0.845378,2.61948 0.987286,5.40377 -0.06542,7.99088 -0.528428,1.16992 -1.485752,6.0547 -2.131841,4.78827 -1.11818,-1.34352 -1.777543,3.07058 -2.982075,1.09022 -1.331969,-0.80162 -0.972871,2.14104 -1.468239,-0.26786 -0.991607,-2.7517 -1.743899,-5.64525 -0.6619,-8.50472 0.135819,-1.78612 1.604487,-4.50524 0.868841,-5.66729 -1.160868,2.11865 -1.652307,5.01441 -2.399979,6.97572 -1.364304,-3.77654 -2.486158,-7.69747 -4.12181,-11.38488 -1.469082,-0.90153 0.384592,2.83597 0.51616,3.78558 1.684651,5.2783 3.206868,10.62611 4.731274,15.93859 -0.309405,0.19527 -0.960085,0.12117 -1.134594,-0.24359 z m 26.458145,-6.3446 c -0.762388,-1.12569 -0.925638,1.39278 0,0 z m -37.493461,-4.60545 c -0.917299,-1.34639 0.0299,1.92394 0,0 z m 41.197628,-4.60052 c -0.388623,-1.45108 -2.538825,-0.70721 -0.529167,0.0914 0.0107,0.42292 0.601182,0.29031 0.529167,-0.0914 z M 43.8,192.67794 c -1.33723,-0.99791 -0.783902,1.22533 0,0 z m 29.36875,-1.29461 c -0.08838,-2.46407 -0.97236,2.59727 0,0 z m -20.983855,-3.36601 c -1.161628,-0.82011 -3.142043,-1.27499 -0.855729,-0.0921 0.448343,0.40579 2.467924,0.19428 0.855729,0.0921 z m 1.044016,-1.64221 c 0.623096,-0.10993 1.761504,-1.54255 -0.01423,-0.73598 -1.187878,0.29829 -3.350424,-0.6251 -1.253618,0.68184 -0.114064,1.27573 0.763413,0.72885 1.26785,0.0541 z m -10.137343,29.0261 c -1.456306,-0.39426 -2.144384,-2.00682 -3.469337,-1.14457 -0.615318,-1.53707 2.762238,-1.56974 1.489229,-3.29414 1.002641,-0.84783 1.99346,-1.21813 0.936834,0.14454 -1.594403,1.62828 4.452658,2.40551 1.838843,4.27298 2.218471,0.47725 0.275078,0.68159 -0.795569,0.0212 z m -9.759254,-4.7484 c -1.781029,-1.54665 0.785577,-0.0958 0.913228,0.78644 -0.397392,-0.0272 -0.61103,-0.5832 -0.913228,-0.78644 z m 4.647532,-0.48364 c -0.779018,-1.14152 1.674979,0.14638 0,0 z m -3.78277,-2.24234 c -0.663433,-0.40357 1.011216,-3.33616 0.532735,-1.23619 -1.470124,1.70129 1.534914,-0.0512 -0.102048,1.42439 l -0.187079,-0.0367 -0.243606,-0.15147 z m 45.156008,-6.43374 c -0.968364,-1.44698 1.937741,-1.01735 0.165666,-0.62242 0.407185,0.26682 0.51634,1.39901 -0.165666,0.62242 z m -0.429646,-1.57675 c -1.654759,-1.61057 2.140737,0.0914 0,0 z m -40.496199,-7.93769 c -0.395364,-2.18166 1.423638,0.14847 0.332853,0.70052 L 38.57774,192.4754 Z m 0.698455,-2.38125 c 0.592218,-1.67339 1.387874,0.0691 0.381082,0.7276 -0.336104,-5.5e-4 -0.393182,-0.52246 -0.381082,-0.7276 z m 7.055556,-1.25356 c 1.3438,-1.2319 1.518499,0.947 0,0 z m -4.361204,-1.44449 c -0.950204,-1.06715 -0.930936,-3.67876 0.05849,-1.29213 0.632564,0.39168 1.069884,2.43213 -0.05849,1.29213 z m 2.423877,-2.95623 c -0.941231,-0.67717 2.70672,-2.53944 1.237572,-0.59918 1.27229,1.14984 -0.614152,0.97811 -1.237572,0.59918 z m -1.365808,-1.01973 c 0.05495,-1.38029 1.780733,0.56845 0,0 z"
         id="path3522" /><path
         style="fill:#6c9a66;stroke-width:0.264583"
         d="m 59.939583,223.79479 c 2.247606,-2.28778 -0.593735,1.21338 -0.595036,0.65401 l 0.256972,-0.29445 z m -12.170645,-5.06495 c -0.835749,-2.52321 -2.407118,-4.77758 -3.02769,-7.36951 -2.125196,-2.89492 -3.162149,-6.43372 -5.17376,-9.39366 -0.612651,1.44863 2.253799,4.99948 1.493506,5.58767 -1.154334,-0.59712 -2.238414,-3.60161 -2.941234,-1.867 1.069002,1.2342 5.193271,4.25946 1.330622,3.71417 -0.07359,-2.95022 -2.2929,0.36546 -2.757039,0.66451 -1.141899,-1.26045 -1.74923,-6.20387 0.15733,-4.13972 -0.03214,-1.41786 1.147945,0.45194 0.886228,-1.19531 -0.265821,-1.49903 1.850058,-1.27545 1.456701,-3.31388 0.943821,-1.65892 0.113127,-3.5917 -0.949856,-3.62976 -0.09966,-0.98228 -0.55888,-1.59536 0.513906,-1.00584 0.336141,-1.96323 -0.612461,-2.68356 -0.315465,-3.77936 1.769977,0.42074 1.263762,-1.87048 3.06125,-0.96429 1.102865,-0.64454 2.702864,-0.22568 0.52994,-0.86094 -0.476581,-0.2765 1.109732,-0.63708 0.416176,-1.23175 0.527359,-1.01898 -1.681053,-1.918 0.277972,-1.69193 -0.802676,-0.9032 1.007422,0.0606 0.228018,-1.08872 0.75678,0.0704 2.262263,0.78775 0.844459,1.01555 1.052788,0.48145 2.170974,0.20143 3.153029,1.45147 1.220832,-0.4741 2.671122,-0.87611 2.613362,-1.68775 1.245153,-1.09995 3.401987,2.09075 3.685895,-0.74042 -1.30447,1.87768 -2.133939,-1.14235 -3.604455,-0.006 0.08655,-1.68016 2.120829,-1.28077 2.24987,0.15205 2.536913,-0.0811 2.834055,-4.61673 5.328575,-2.73431 1.716794,-2.12777 -1.436497,-2.60617 -1.07052,-1.25611 1.358952,-0.16293 0.580284,1.85815 0.185232,0.40811 -1.506836,0.72882 -1.285242,-1.50253 -1.789649,0.4261 -0.921626,-0.67389 2.856884,-4.85758 4.652568,-2.90041 0.466491,0.1049 -2.732978,0.0278 -1.134136,1.36669 -1.021518,0.78736 1.187553,0.72808 -0.157776,1.75736 1.046182,-0.3851 1.932442,-1.97932 1.816033,-0.2259 1.290322,-0.27999 -3.118647,1.65798 -0.06937,0.74612 1.875142,-0.2747 0.171758,-1.47123 0.388393,-2.31199 -0.398117,-1.65527 0.780083,1.70174 1.133023,1.12984 0.735597,-0.0669 0.571543,1.98804 1.269332,2.06752 -1.364857,0.83919 2.384055,0.01 2.153734,1.91383 1.115109,1.73153 4.291961,1.45428 4.30972,2.46117 1.916361,0.004 5.391799,-0.81218 6.424965,1.14093 0.96072,0.72027 -1.367815,-0.4031 -0.162697,1.12513 -0.321,0.92553 -2.431797,0.53974 -0.683462,1.32034 0.993285,-0.62565 -0.109366,1.22165 0.272937,1.43115 -0.07039,0.75369 1.498455,2.53042 -0.243324,1.05379 0.616745,1.01582 0.606469,2.2519 1.474105,2.96009 -0.6606,-1.05167 0.265777,-1.74314 0.741736,-1.49931 -1.749576,-0.78344 0.20644,-3.96812 0.145237,-1.63336 -1.127365,0.45831 1.482598,2.57381 1.235592,3.12178 -1.308529,-0.70766 0.474598,2.90382 -1.872709,2.63218 -1.143942,0.42851 0.513853,0.67698 0.589298,1.60168 0.479508,-0.73934 2.193338,1.24755 0.446392,0.87868 -3.093451,0.38626 -2.12173,4.40952 -4.328326,5.24474 0.0753,1.34709 3.181956,0.62176 1.720356,2.51195 0.861091,2.97578 -2.907423,2.69108 -3.374594,5.09391 -1.558288,-1.08988 -4.229299,-0.80163 -5.705164,0.053 0.94999,-2.32776 1.836962,-4.71472 2.857645,-7.0178 1.717562,-2.76716 4.290967,-4.93288 5.869221,-7.78346 -1.68741,0.62134 -4.051726,4.39786 -4.921014,3.96045 0.315104,-1.79588 1.789163,-4.23793 1.307068,-5.72691 -2.400909,4.83107 -3.458541,10.2892 -6.421461,14.83724 -1.149127,2.37186 -4.249886,1.66511 -5.872859,2.65306 2.052033,1.96126 -2.689884,-0.3787 -1.603181,-1.53647 1.689662,-5.53821 3.331318,-11.09518 4.582338,-16.75404 0.0062,-2.13946 2.747403,-4.96452 1.953077,-6.41856 -0.952209,1.43336 -1.2185,1.75799 -0.889764,-0.0847 0.292826,-3.79977 -1.227522,1.21069 -1.472725,2.50225 -0.974012,3.24335 -1.434143,6.67704 -2.71057,9.80628 -1.143123,-2.80263 -1.847629,-5.85867 -3.313786,-8.48216 -0.38082,2.2628 1.386799,5.09644 1.784655,7.56645 0.196032,1.33164 0.878886,2.6891 0.797554,4.02125 -0.851596,2.68226 -1.368442,5.53314 -2.754604,7.9954 -1.632273,-0.16708 -2.571895,2.40559 -4.30885,0.90068 -0.491954,1.04737 -1.123567,-2.43519 -1.549785,-3.35932 -0.736161,-1.4062 0.140678,-2.92455 0.263201,-4.38097 0.01096,-1.83387 2.074979,-5.47771 0.942995,-6.19049 -1.342296,1.71873 -1.495017,6.1141 -2.572737,6.56794 -0.61658,-2.85804 -2.077126,-5.49451 -2.55143,-8.37137 -0.27547,-0.40154 -2.515215,-5.2316 -2.326084,-2.58361 1.729216,3.31521 2.354044,7.10123 3.594352,10.6182 0.964706,2.97696 1.713052,6.12481 2.618641,9.0555 -0.341426,0.0611 -0.97654,0.11483 -1.126166,-0.29873 z m 23.340473,-4.37626 c -1.318577,-0.62831 0.48749,1.7581 0,0 z m 3.11586,-1.93587 c -1.61853,-1.85722 -0.682632,1.39163 0,0 z m -36.679546,-3.90935 c 0.432194,-1.38541 -1.399222,0.34829 -0.413069,-1.34867 0.02003,-1.50081 -1.926814,2.43285 0.190434,1.84963 l 0.222635,-0.50058 z m 4.545784,-10.75674 c 0.841109,-2.961 -1.545105,0.80564 0,0 z m -0.741823,-2.14722 c -1.626111,-1.79125 0.516346,2.06814 -3e-6,0 z m -0.993222,-1.03385 c 1.818939,-1.82477 -2.777898,0.78869 -0.527163,0.34137 z m 4.518882,0.26848 c -0.616197,-0.80705 2.300359,-1.86728 -0.26607,-1.11551 -1.453793,0.56296 0.372449,2.00518 0.26607,1.11551 z M 43.8,192.85123 c -0.667554,-1.42821 -3.34234,0.73135 -0.64344,0.41334 0.258329,0.38001 0.693534,-0.11191 0.64344,-0.41334 z m 2.518645,-0.36036 c -1.727723,-0.81856 -0.912867,1.07334 0,0 z m 26.850105,-0.44608 c 0.451552,-0.63466 1.413329,0.49848 0.505375,-0.90663 -1.410651,-1.49801 -0.643855,1.79352 -2.355801,0.46907 -0.679189,0.76082 1.88319,1.09959 1.850426,0.43756 z m -27.524329,-0.38654 c 0.766508,-1.51194 -1.701636,0.96376 0,0 z m 15.038417,-3.42593 c -0.36757,-0.65068 -3.403107,0.88166 -0.73647,0.39642 0.254908,-0.0793 0.596868,-0.12836 0.73647,-0.39642 z m -17.147421,26.68894 c -1.21611,-0.0452 -2.162942,-0.33172 -3.037234,-1.0098 -1.991601,1.13662 0.07199,-1.72223 1.122955,-1.74799 1.158686,0.25981 3.759586,1.80021 2.471753,3.03236 l -0.393717,-0.0806 z m -2.254674,-3.43884 c 1.193264,-2.75833 1.762985,-0.45655 0,0 z m -3.300897,-1.31325 c -0.779018,-1.14152 1.674979,0.14638 0,0 z m 40.598615,-5.84431 c 0.163461,-2.27142 1.944904,1.37711 0,0 z m -36.88582,-17.68663 c -1.295034,-2.75941 1.71706,0.92293 0.244419,0.32939 z m 21.329201,-1.20036 c 0.926693,-3.57868 1.030184,1.63534 0,0 z M 47.76875,185.16492 c -0.90757,-0.6614 1.692273,-0.52136 1.928201,-1.4545 2.964015,1.82035 -0.469923,2.11884 -1.928201,1.4545 z m 3.571875,0.133 c 0.591458,-0.94197 2.288679,0.71506 0.30979,0.18686 z"
         id="path3520" /><path
         style="fill:#51884a;stroke-width:0.264583"
         d="m 47.603608,218.22328 c -0.762986,-2.30283 2.431122,1.41354 0.252748,0.56009 l -0.252748,-0.56004 z m 3.393059,-0.43453 c -0.49797,-1.44731 -0.775797,-0.77794 -0.788296,-0.0794 -1.412883,-2.6881 -1.821557,-5.78766 -0.796926,-8.68968 -0.05855,-1.49984 2.003403,-4.93219 0.686823,-5.31999 -0.860103,1.16997 -1.544508,5.72757 -3.202133,4.14629 0.53079,-1.27106 -1.20197,-1.66485 1.090071,-1.40022 -0.718205,-0.55963 -0.892869,-2.32564 -1.595384,-0.59305 -0.329295,-0.82294 -1.801184,-3.10913 0.02023,-1.51214 -1.808251,-1.66203 3.848918,-1.31075 0.906556,-2.35067 0.05049,-0.26567 -0.514092,1.8674 -0.979243,0.35095 -0.713891,-1.6253 -3.333392,-1.1296 -0.415708,-1.64603 2.257758,-0.51606 -0.888397,1.44849 1.224504,0.65193 1.306703,-1.99529 -3.14852,-0.88466 -1.767968,-2.81976 -0.05008,1.82283 4.511408,-0.96013 1.166696,-1.05404 -1.159473,-0.0898 -1.478699,0.0501 -0.251626,-0.63296 -2.092001,-0.77074 -1.464125,-1.62141 -0.248946,-2.51765 -3.292942,-0.0182 3.907737,-0.56391 0.938808,-1.34216 1.773429,-1.58586 -2.06529,-0.0941 -0.48902,-1.97067 1.928885,-0.15083 -1.299632,-1.61344 0.687398,-0.92379 0.995027,1.01715 2.216394,-2.52811 2.768927,-0.69344 0.189507,1.75169 2.815798,-1.66603 3.609374,0.64229 -0.962846,-1.17957 2.163675,-1.7811 1.949302,-1.77913 -0.559446,0.79572 1.840446,0.84769 -0.262654,1.03188 -0.03615,1.56334 4.749208,-2.04525 5.054039,0.1748 -0.579067,1.11134 -1.759417,3.03206 0.321042,2.01438 -1.500679,-1.85062 2.108133,-3.23146 4.079547,-2.58254 -1.115297,0.41812 -1.618142,1.37285 -1.134593,2.23695 1.464268,-0.0395 1.251064,-2.12479 1.579562,-0.0586 1.242155,-0.24852 2.634502,-1.8917 3.403743,-0.10918 0.717089,1.89821 1.534353,-0.68905 2.244091,1.13916 0.616807,0.63662 1.421186,2.05388 -0.203686,1.49562 0.662611,0.36835 3.807676,1.11837 1.783821,1.83286 1.005483,-1.15999 -1.849637,-1.24442 -0.239629,0.37611 -0.183552,1.92328 2.162684,3.4907 1.267488,0.76212 -0.826081,-1.34097 1.48413,-0.27977 0.92413,0.55192 1.107171,0.87445 -1.173988,1.3361 0.663539,1.36087 0.77916,0.59169 0.408988,1.492 -0.240229,0.68275 -0.01241,2.00979 -0.519741,0.72001 -0.937224,-0.2029 -1.324033,-0.29212 0.617492,2.80862 -0.150969,2.97715 -0.529807,1.51154 -3.914622,4.95575 -4.312235,4.69561 0.541485,-1.81032 1.875443,-4.86744 1.46464,-6.07823 -2.603546,5.00263 -3.709143,10.76486 -6.933461,15.43335 -2.038879,1.39206 -5.028989,2.21869 -7.241153,1.53427 0.302945,-2.55989 1.68192,-5.29972 2.304211,-7.94902 1.641086,-5.06854 2.126906,-10.5123 4.614783,-15.28515 0.938393,-2.86266 -1.946001,1.98852 -1.138877,-0.55408 0.39703,-1.27709 -0.17011,-3.16354 -0.65688,-0.75325 0.08556,1.66801 -1.191198,1.28108 -2.402173,1.15734 -0.982841,0.17612 -0.81151,0.9347 -1.984078,1.1968 1.74582,0.27776 4.722742,-0.58256 3.146593,2.17883 -0.70218,2.84811 -1.418832,5.69288 -2.073823,8.55235 -0.962701,-2.9356 -1.927111,-5.89484 -3.344936,-8.64226 -0.900967,1.0767 1.149687,4.72133 1.44016,6.73443 0.89984,2.50978 1.140853,5.22089 0.07454,7.71665 -0.666473,2.59839 -1.281963,5.33625 -4.350232,5.5883 -0.445529,0.39816 -0.530425,1.04394 -1.272542,0.32405 z m -0.05292,-1.93146 c -1.068609,-1.5994 -0.935282,1.5452 0,0 z m 0.568854,-1.85208 c -0.775573,-1.33859 -0.69131,1.30588 0,0 z m -1.665179,-11.64664 c 1.087855,-0.86701 -0.196582,-2.19091 -0.25884,-0.63096 -1.008747,0.63561 -1.677169,-2.06043 -1.137109,0.47544 0.20308,1.06757 0.860995,0.87111 1.395949,0.15552 z m 1.603444,-5.31003 c -0.689194,-0.24359 -1.920121,0.12939 -1.096981,-0.78701 -1.209037,0.17543 -2.543935,1.84996 -0.419708,1.14801 0.511086,-0.092 1.034828,-0.15213 1.516689,-0.361 z m 20.064076,-1.82822 c 0.237513,-2.04504 -2.034442,0.9353 -0.477454,0.0793 -0.0057,1.26182 0.623483,0.94686 0.477454,-0.0793 z m -20.626847,-2.09337 c -1.485371,-1.74825 -1.334366,1.06134 0,0 z m 18.576485,0.10847 c 1.460903,-0.22233 1.162232,-0.8786 -0.198713,-0.59573 -0.321826,0.19844 -0.150204,1.40575 0.198713,0.59573 z m -13.121867,-0.92637 c 1.092015,-0.26483 3.118999,-1.74407 1.704845,-1.51683 -1.334912,0.9884 -5.926603,0.23409 -2.633406,2.17831 0.349816,-0.15953 0.634439,-0.42161 0.928561,-0.66148 z m -1.919605,-1.78561 c -3.08449,-1.38823 -0.504211,1.46803 0,0 z m 8.691472,-0.59532 c -0.848785,-1.54238 -0.818234,1.51435 0,0 z m -15.222172,27.10583 c -2.449717,-1.34984 -2.269616,-5.07173 -4.076532,-6.97446 1.383383,-0.78333 -1.25593,-3.47022 -0.02733,-1.17387 -1.569096,-0.52396 -2.295437,-4.32757 -3.512753,-6.07954 0.145812,-2.15612 -1.691076,-4.87822 -0.930466,-6.49424 0.323458,1.30018 0.798136,2.71059 1.536211,1.72742 1.567993,0.0543 0.130947,1.61367 1.290946,2.84269 1.198318,-2.56597 2.320371,2.78386 1.967032,3.86833 -0.252459,1.03648 1.285442,-0.35037 0.429097,1.04039 1.188107,1.61474 1.989417,4.82589 0.298201,2.79048 0.267889,0.77024 -1.437072,2.34422 0.156888,1.90558 0.994518,-2.17917 2.153251,2.51128 2.410441,3.48128 -0.0143,0.5192 1.432067,3.82603 0.458265,3.06594 z m -4.356994,-12.28086 c -1.07434,-2.22495 -0.143302,1.99626 0,0 z m 26.865257,11.78192 c 0.404707,-1.17383 0.692534,-1.86722 2.342197,-2.80209 -0.783828,-0.14778 -1.985084,-3.41897 -1.759548,-1.2444 -1.281922,-0.3153 -3.330458,2.25615 -3.357918,-0.27856 0.579526,-2.8538 3.128203,-4.32567 4.530621,-6.64499 0.529693,-1.18314 3.776859,-3.72585 2.17505,-0.95645 -0.277864,1.19987 1.461001,-0.84782 0.641743,0.96136 -1.300787,0.9973 0.231547,4.04776 -2.208865,3.70739 -0.168597,1.30549 -1.319474,2.22997 0.290004,3.57803 0.975684,-0.19073 -0.556776,1.39311 1.243413,1.09535 -0.545289,0.69555 -2.619828,1.75752 -3.574954,2.80635 l -0.176135,-0.0393 -0.1456,-0.18268 z m -4.375722,-0.22784 c -0.217278,-1.95999 2.810547,-1.27032 2.529205,-1.90509 -1.412062,-1.6003 3.72906,0.92625 1.200878,0.59936 1.676663,1.7599 -2.99005,1.26788 -3.730083,1.30573 z m -22.338707,-1.61051 c -1.306549,-0.62868 -5.635619,-1.22923 -2.223913,-2.16202 1.153671,-0.82257 4.49663,2.71908 2.223913,2.16202 z m 29.055227,-2.52736 c -1.193233,-2.16464 2.578552,-1.71238 1.948001,-0.73938 -0.771304,-0.53673 -0.853584,0.22177 -1.607233,0.17019 0.0866,0.42745 0.569221,1.18364 -0.340768,0.56919 z m -25.113316,-1.86826 c -0.698975,-1.48816 1.217475,-2.16545 0.312572,-0.39684 0.209416,0.30043 -0.05762,1.34274 -0.312572,0.39684 z m -7.902849,-1.23326 c -0.473347,-1.27541 -2.539315,-0.70603 -1.882368,-2.16396 1.394188,-2.33819 0.536022,2.01277 1.424849,0.0899 0.992783,0.89327 3.804472,2.86412 0.457519,2.07403 z m 0.539923,-2.33238 c -0.643822,-0.96666 -1.245622,-2.17728 -1.90583,-2.57827 1.205015,0.61496 0.375301,-2.7834 1.385176,-0.54697 0.190584,1.04401 2.834186,5.67413 0.520654,3.12524 z m 38.63616,-2.29929 c -0.878028,-2.14552 1.575783,0.88663 0,0 z m -34.953292,-4.74962 c -0.37426,-2.32056 1.050942,2.15492 0,0 z m -1.280848,-2.17512 c -0.08029,-0.43801 1.970909,-1.05399 1.807688,-0.2167 1.37782,0.5432 -1.612766,0.82725 -1.807688,0.2167 z m -0.45475,-1.90832 c -0.479925,-0.32887 1.351118,-2.59519 0.610396,-0.55334 -0.04483,0.24302 -0.227218,0.89491 -0.610396,0.55334 z m 1.232797,-3.75879 c -0.740097,-1.38603 -0.713059,-1.07918 0.507619,-0.85302 0.49422,-1.24693 1.112245,0.68802 0.321181,0.72287 0.524368,0.44839 -1.037229,0.53078 -0.8288,0.13015 z m 21.893437,-1.82398 c -0.02367,-1.78968 3.048636,-0.22392 1.123371,-0.0946 -0.251774,0.32882 -0.880203,0.60263 -1.123371,0.0946 z m -14.342067,-1.3357 c -1.161024,-1.42248 1.75118,0.47138 0.286411,0.22424 z m 2.065813,-0.12712 c 2.027166,-2.10294 1.381522,0.8002 0,0 z m 3.966687,-0.0667 c 1.253869,-1.41191 2.146124,-0.90188 2.620808,-2.88157 0.20387,-1.97347 4.102873,0.67289 1.621446,0.22519 1.057103,0.46019 1.722576,2.65327 2.179573,0.54966 2.419674,1.36761 -0.261492,2.81205 -1.413344,1.36133 0.0068,-0.13169 -1.081346,0.84842 -0.5738,-0.63075 -1.268917,0.53291 -3.213241,1.51502 -4.434683,1.37614 z m -8.334375,-3.14045 c -1.843917,0.0401 0.802745,-1.7255 0.139202,-0.32291 1.073197,-1.19364 0.868595,0.61176 -0.139202,0.32291 z"
         id="path3518" /><path
         style="fill:#45803e;stroke-width:0.264583"
         d="m 51.732473,217.18626 c 0.697755,-2.38511 -2.140135,0.8253 -0.983329,-0.95354 1.19136,-2.03557 -1.594859,0.92245 -1.442752,-1.05956 -0.676302,-1.17537 -0.880623,-2.93108 1.068183,-2.68882 -1.263454,-0.15455 -1.933929,0.005 -1.31476,-1.70826 -0.33018,-2.09225 3.237174,-0.60665 1.69297,-3.0497 -1.068956,-0.9351 2.059312,-1.53524 -0.185729,-1.42815 -0.785585,0.57162 0.218257,-5.30765 0.9279,-2.55642 1.879318,0.0681 2.936844,1.2402 4.464121,-0.0479 0.410706,1.32526 1.364206,2.75456 1.528479,4.39608 0.09584,1.14542 -0.612876,2.26605 -0.833736,3.40171 -0.810925,2.46037 -0.918193,5.68513 -4.146195,5.69977 -0.140118,0.0102 -1.441999,0.69587 -0.775152,-0.005 z m -0.08383,-2.93425 c -0.420764,-2.84014 -1.736471,1.68307 0,0 z m 1.940938,-7.78743 c -0.665362,-2.03421 -2.417254,1.17937 0,0 z m 5.082186,10.93359 c 0.654026,-1.58329 -3.024774,0.0579 -1.441756,-2.13826 1.699256,-3.75054 3.203351,3.34905 1.441756,2.13826 z m 1.532398,-0.28177 c 1.686732,-0.12635 -0.349649,-3.20517 1.048453,-1.12777 0.7525,0.98325 -1.741477,1.66518 -1.048453,1.12777 z m -13.260499,-0.92838 c -0.239834,-0.89434 -0.478582,-1.09558 0.419682,-1.27056 -0.828556,-0.0234 -1.7534,-0.28384 -0.41141,-0.58428 -0.865348,-0.63648 -2.391583,-0.75745 -1.256725,-2.45837 1.844929,-1.95344 1.394078,3.59984 2.169185,4.24706 0.261334,0.56582 -0.868971,0.4844 -0.920732,0.0661 z m 25.29904,-1.25677 c -0.385517,-1.28009 3.552225,-0.80727 0.91286,-0.11641 -0.178811,0.30842 -0.71209,0.56483 -0.91286,0.11641 z M 43.8,214.66667 c -2.560462,-1.2755 2.272741,0.73684 0,0 z m 16.073437,-0.17523 c 1.083525,-1.22221 -3.265107,-0.95577 -1.450593,-3.0491 1.155429,-2.97201 1.53931,-6.17502 2.608531,-9.16138 0.622786,-1.23854 2.655393,-2.17701 3.05492,-1.24052 2.76874,0.5695 -0.194926,-3.57585 2.235044,-2.17281 0.979874,0.52673 -1.409369,3.39667 0.132445,1.8961 0.325131,-0.95373 1.067649,0.32305 1.266108,-0.82767 1.179553,-0.3275 3.677081,-1.68937 3.932551,-0.67297 -0.166835,0.71317 1.40349,-0.84745 0.191942,0.42746 -1.967119,0.55436 -1.609668,5.05752 -4.375068,2.851 -2.12916,-0.71888 -3.54158,1.83224 -4.928338,3.18411 -1.583577,2.07849 2.097634,-0.22516 1.463265,2.32795 1.266753,0.0527 1.505364,0.17662 1.293146,0.77117 0.662458,-0.8937 0.743076,-0.74639 1.238943,-0.10036 -0.09705,-0.43055 -0.379918,-2.60517 0.714561,-1.54061 -1.326571,0.70137 1.703116,0.0445 0.0024,1.03199 -0.107068,0.94349 -0.777965,3.03689 -0.899636,1.09274 -1.32916,-0.15597 0.06803,2.59785 -1.558049,2.3036 0.878534,-2.03955 -4.644895,0.0231 -0.984032,-0.1082 -0.186039,1.90705 -4.860844,-0.35879 -3.396752,1.48177 0.227891,0.73445 0.783618,1.95185 -0.54142,1.50573 z m 3.939215,-1.0154 c -0.475801,-0.60945 -1.668596,-0.85101 0.262441,-0.74438 2.510675,-0.83564 -0.602869,1.83562 -0.262441,0.74438 z m 0.694142,-6.66498 c 1.950601,-1.00874 -0.806984,1.32698 0,0 z m 1.637864,-0.29779 c -0.691277,-1.46629 0.263151,-2.01334 0.417412,-0.30837 0.453238,0.28484 -0.209728,0.54095 -0.417412,0.30837 z m 6.629574,-0.90858 c 0.2404,-2.32936 2.089276,1.0158 -0.02333,0.38917 l 0.02332,-0.38918 z m -14.555811,-0.28243 c -0.215376,-2.0492 1.535311,-2.05382 0,0 z m -9.214469,-0.74302 c -1.254591,0.0126 -1.917276,-0.396 -0.268419,-0.57794 0.950147,-0.29932 1.449666,1.25901 0.268419,0.57794 z m 5.857962,-0.77996 c -1.12786,-0.38801 -2.77533,-0.92249 -0.574991,-0.99186 0.44304,-0.95509 0.586928,-0.87324 1.340931,-0.90403 0.214681,0.37602 -0.220659,2.4751 -0.76594,1.89589 z m 15.681132,-0.95382 c 0.360605,-1.5363 0.704431,-2.18821 1.530637,-0.44473 -0.639001,-0.35444 -1.10527,0.40275 -1.530637,0.44473 z m -12.330417,-1.41955 c 0.347706,-2.40132 2.405796,0.57563 0.265192,0.001 0.282856,0.16318 -0.196805,0.66348 -0.265192,-0.001 z m 1.065496,-4.47346 c -0.563888,-0.671 2.642545,0.28437 0.475885,0.16281 z m 4.744217,-1.62995 c 0.291561,-1.07794 0.01846,-3.21791 1.113224,-1.42562 0.403636,1.33636 0.767067,-2.07167 1.452232,0.0501 1.513742,1.83898 -2.269432,0.3825 -2.349872,1.60418 l -0.215587,-0.2286 z m 3.127137,-1.15994 c -1.196851,-2.07104 1.977298,1.39275 0,0 z"
         id="path3516" /></g></g></svg>
