<?xml version="1.0" encoding="UTF-8" standalone="no"?>
<!-- Created with Inkscape (http://www.inkscape.org/) -->

<svg
   width="45.655857mm"
   height="72.215401mm"
   viewBox="0 0 45.655857 72.215401"
   version="1.1"
   id="svg4133"
   xml:space="preserve"
   inkscape:version="1.2.2 (732a01da63, 2022-12-09)"
   sodipodi:docname="grimpant-natural_climbing.svg"
   xmlns:inkscape="http://www.inkscape.org/namespaces/inkscape"
   xmlns:sodipodi="http://sodipodi.sourceforge.net/DTD/sodipodi-0.dtd"
   xmlns="http://www.w3.org/2000/svg"
   xmlns:svg="http://www.w3.org/2000/svg"><sodipodi:namedview
     id="namedview4135"
     pagecolor="#ffffff"
     bordercolor="#666666"
     borderopacity="1.0"
     inkscape:showpageshadow="2"
     inkscape:pageopacity="0.0"
     inkscape:pagecheckerboard="0"
     inkscape:deskcolor="#d1d1d1"
     inkscape:document-units="mm"
     showgrid="false"
     inkscape:zoom="0.78395062"
     inkscape:cx="64.417323"
     inkscape:cy="109.70079"
     inkscape:window-width="2560"
     inkscape:window-height="1369"
     inkscape:window-x="-8"
     inkscape:window-y="-8"
     inkscape:window-maximized="1"
     inkscape:current-layer="layer1" /><defs
     id="defs4130" /><g
     inkscape:label="Calque 1"
     inkscape:groupmode="layer"
     id="layer1"
     transform="translate(-61.476914,-119.31283)"><g
       id="g4266"
       transform="translate(-8.1,-77.2875)"><path
         style="fill:#f7e6d2;stroke-width:0.264583"
         d="m 90.01544,268.35284 c -3.453996,0.72912 -2.381039,-3.62429 -1.749814,-5.83364 0.348537,-0.98023 1.204597,-5.38996 0.187157,-4.52282 0.458457,2.92344 -1.904834,5.42953 -1.203495,8.42142 1.576333,3.1087 -4.599523,2.4658 -2.887306,-0.49649 0.270422,-3.42823 1.093922,-6.78656 2.267034,-10.00429 -1.239584,-2.39173 0.478063,-6.99526 -2.722243,-7.94774 -2.642927,-0.69016 -1.381014,-3.4368 0.672608,-3.48086 -0.582768,-2.3694 -2.194182,-1.33567 -2.358004,0.58229 -1.87295,1.24481 -3.698823,-2.14726 -2.532999,-3.40187 1.148192,-1.94845 -1.403004,-2.64949 -2.866944,-3.83294 -0.461782,-1.3964 -1.338128,-1.60159 -0.03578,-2.77475 0.422895,-1.03724 0.147667,-4.31397 -0.914352,-1.66668 -2.065978,1.39371 -4.60367,-5.44159 -1.628394,-4.2053 1.001925,-1.19798 5.538004,0.86637 4.135846,-2.1854 -1.872034,-1.67373 3.571811,-1.3861 1.416614,-3.48505 -1.524866,-1.11163 -3.060923,1.01595 -3.819078,-1.12929 -1.790853,-1.3665 -0.978467,-4.27791 1.498052,-2.94019 -1.975308,-1.63004 -4.014707,-2.85831 -6.602071,-2.87762 -2.839896,-1.81689 -0.436505,-6.09575 1.73641,-2.40246 0.52216,0.23067 -1.285493,-4.3952 1.160123,-2.17359 0.913549,1.70465 2.324051,-2.56372 1.688622,-2.98454 -3.475157,0.66497 -3.088993,-6.15683 -0.15979,-3.81471 0.563822,1.52884 1.581589,-2.3003 2.495391,0.13501 1.201645,3.391 0.862682,-3.60092 0.215547,-3.77302 -3.412914,-0.18963 -0.558689,-4.1685 1.293128,-1.73626 3.356285,1.61829 0.02845,-5.58107 3.288225,-2.40089 3.56555,0.73713 -0.473626,2.63082 -1.716318,3.79794 3.053898,-1.10371 4.675906,4.10632 1.033865,3.41164 -1.374979,0.37434 -2.461726,-0.35375 -2.050929,1.86179 0.170165,1.5887 -3.181961,2.29193 -0.607523,2.62035 -0.417861,1.70679 -2.072806,2.38519 -2.997773,2.41746 -1.070545,1.85751 1.521355,3.78788 -0.495241,5.32771 1.114337,3.00874 4.791463,0.69601 5.581728,3.29413 -0.919519,2.55042 0.824312,5.27493 2.347729,7.21312 0.094,2.04166 -1.684765,4.09277 -3.254063,1.72153 -2.868746,-0.72519 1.979722,2.64096 -0.824071,2.69791 -2.270262,0.66117 -1.227915,2.82822 0.834125,2.45173 -0.895533,1.54363 3.050344,3.02148 0.237065,4.02199 -1.834309,0.2636 1.444844,2.98254 1.686222,0.9119 1.92992,1.28098 1.912024,4.07022 4.171333,5.09251 1.032655,2.08668 2.016912,-3.13255 -0.100037,-2.8643 -2.361074,-1.80585 -0.689393,-3.84175 0.885597,-2.15179 0.5118,-2.20652 2.80693,-0.13693 2.641358,-2.69848 0.263394,-0.7213 -5.527422,-1.673 -2.800642,-3.88381 1.305701,0.0644 0.498676,-2.17229 2.144936,-1.63404 -0.974933,-2.87948 -5.140589,2.89896 -5.403238,-1.58367 -0.599943,-2.44261 3.854088,-0.87713 2.415986,-2.76647 -0.568365,-1.93152 -1.293011,-3.67956 -3.094756,-4.30984 -0.0336,-1.52487 -2.933487,-4.09354 0.11216,-4.36427 0.596774,-2.47526 2.687499,1.15023 2.992004,-1.70986 -0.608158,-1.74749 -3.409844,-6.61692 0.838527,-5.51761 1.002919,0.80818 2.102122,2.04111 2.654216,2.8635 0.437575,-0.89872 3.332919,-2.15638 1.917347,-3.1614 -1.023943,-1.72108 -5.254752,0.0304 -2.794753,-2.88725 1.021416,-0.52139 -1.780906,-2.21074 0.57263,-2.31156 2.196115,0.97015 2.343997,0.81748 0.995644,-1.09535 -0.614053,-1.32267 -4.969867,-2.31913 -2.599354,-3.64433 2.322144,-0.24292 2.846028,4.32021 4.735428,2.42714 1.547661,2.02351 2.84399,3.63499 1.239572,5.86125 0.842421,2.99819 -3.28994,4.3683 -3.45776,6.80478 1.713965,0.80882 -1.911943,0.92297 0.196589,1.89482 -0.850055,2.70552 -3.684711,2.03229 -3.149844,-0.67856 -1.497486,1.3323 0.140542,3.85771 -0.779808,5.57005 -0.579761,1.49383 0.21813,3.59676 1.778896,2.30098 2.516695,0.49777 3.536329,3.88822 0.171019,3.55849 1.287756,1.58793 2.435064,3.30584 3.486389,5.02708 1.028422,2.073 -3.135119,4.78967 0.252287,5.65788 0.593869,-0.19862 0.711343,-2.39024 1.139498,-3.25673 1.788435,-2.42479 -3.631231,-3.81964 -1.970445,-6.09601 1.823238,-0.88137 4.099156,2.29408 3.000037,-1.19082 -0.309027,-1.91691 -0.932885,-3.6784 -3.163537,-3.00958 -0.437481,-1.58006 -3.472377,-3.81684 -0.654724,-4.95208 1.076529,0.10086 2.778059,2.59798 2.454364,0.27158 0.235633,-2.32563 -2.823045,-3.74734 -1.060157,-6.3323 0.924772,-1.89776 1.626448,1.54687 2.735965,-0.38161 1.121537,1.29319 3.05958,-0.28717 1.667199,-1.48224 -0.985859,-1.36679 -1.181248,-2.86249 0.909333,-2.902 2.020076,-2.84153 2.188226,4.30587 3.735538,0.45203 -1.04644,-0.79184 -3.481942,-3.82879 -0.93971,-4.12387 0.76779,2.05277 2.4587,-1.41357 3.02525,0.65769 2.62695,-0.58294 1.47486,-3.60996 3.24585,-4.83625 1.80732,0.2675 0.71212,6.24249 2.55079,3.0203 0.77466,-3.15749 2.44241,-0.79342 1.79621,1.19808 -0.25294,1.40149 0.61542,3.00734 0.71389,0.64346 0.93588,-2.97056 3.56865,2.32611 1.64393,3.43939 0.31577,1.30587 3.99474,4.75475 0.564,4.40047 0.12931,-1.64963 -0.19662,-1.72253 -1.4693,-1.67661 1.51909,-2.94328 -2.63686,1.37003 -2.44957,-1.66461 1.77441,-1.92548 -0.15593,-3.62456 -2.12677,-2.57475 -0.95353,-0.8763 0.47835,-3.30861 -1.36065,-1.22049 -1.04956,0.55557 -3.27984,-0.42105 -2.60717,1.84363 -1.1194,2.27375 -3.919864,3.49012 -4.950808,6.09078 -1.232426,-0.53624 -4.414528,1.29804 -2.255376,2.47229 -0.115925,1.99803 -3.531809,2.6585 -1.141668,4.45734 0.857308,1.39015 -1.440455,2.49984 -0.188136,3.89969 0.251722,2.31732 3.246914,4.42299 1.369728,6.52681 -1.722405,2.4509 -2.572752,5.43175 -3.072297,8.37291 0.969286,2.77949 -2.512251,2.97932 -2.022888,5.83516 -0.916979,1.58053 1.476481,6.11343 0.984774,2.26518 -0.84068,-2.38969 -0.0081,-5.3355 1.79394,-4.91058 -0.575545,-1.61883 -0.32973,-7.67298 2.100235,-5.14174 0.343234,2.96836 2.562561,-1.65824 0.367509,-1.95528 -2.197297,-0.89882 -0.110918,-4.00636 0.942614,-5.05146 2.070159,0.82218 0.505952,-4.12257 -1.027252,-4.42155 -1.645938,-1.92341 -0.349319,-4.56628 0.307014,-6.31299 1.652646,0.61157 1.363338,3.23731 3.227191,1.28668 2.18953,0.46803 2.55495,-1.82065 0.33582,-1.79043 -0.562098,-1.58114 -2.726611,-3.93037 0.36371,-4.40988 1.31178,0.66357 1.93584,1.62904 2.63026,-0.30126 1.05148,-0.76617 1.52852,-1.59465 0.60703,-2.69179 -2.56947,-2.59982 3.62241,-5.41757 3.02589,-1.38529 -0.0455,1.82224 1.50672,5.78491 2.86301,2.28453 2.57934,-1.31017 1.44263,3.45278 3.19577,4.38342 0.4392,2.03331 -3.15619,0.54539 -1.17472,2.81605 0.63357,2.50999 2.16758,4.33532 2.46901,6.70781 0.35104,1.23034 -1.6255,1.83987 -2.07679,3.18679 -1.12671,-1.08309 -3.86523,-1.55455 -3.94766,0.4557 1.92194,1.53914 -1.86915,4.77316 -3.32848,2.14373 -0.47799,-1.10059 -2.35626,-3.36882 -0.52925,-5.00478 0.30389,-0.94904 -1.80306,-1.30416 -0.67562,-2.64206 -3.30199,-1.96323 1.4723,-3.39579 2.85182,-2.34004 -0.75077,-2.71871 -5.15806,-0.46975 -6.79376,0.0978 2.07363,2.01469 2.09066,4.42728 -0.14773,6.22759 0.16909,1.32394 2.1476,-0.25911 2.66965,1.57709 2.09609,1.47918 0.40694,4.37748 -1.67896,3.45641 -0.72709,1.32699 -2.108406,2.43983 0.0314,3.01622 3.28894,2.58782 -1.61626,3.47238 -3.46408,4.40764 -1.762443,1.62803 1.704123,4.04205 -1.057436,5.66941 -2.364894,2.28382 -1.209734,6.29804 -3.594028,8.83062 -0.857312,2.87128 -2.120731,5.938 -1.707576,8.97108 0.671245,1.42455 1.584675,3.4691 -1.052692,2.08032 z m 0.353145,-15.18846 c -1.8242,-2.57263 -0.208341,-5.65207 -1.467746,-8.22682 -0.273577,3.99639 0.26688,8.15884 0.158541,12.22718 0.531789,-1.2852 1.507743,-2.54745 1.309205,-4.00036 z m -3.045773,-6.56074 c -0.21189,-2.96525 -0.573054,3.00793 -0.0035,0.48798 z m 3.34544,-3.40185 c 0.756873,-0.28797 -0.961273,-2.13682 -0.717758,-2.69525 0.228646,1.2162 -0.367707,2.81019 -0.822826,3.24657 0.501949,-0.20112 0.955683,-0.64807 1.540584,-0.55132 z M 110.24349,228.2475 c 0.82887,-1.68613 -0.68535,-3.63245 0.88627,-4.75985 0.14861,-2.63375 -2.30322,-4.41283 -2.72203,-6.58512 -1.03135,-0.9142 -2.92938,-0.52197 -3.84861,-0.25837 -2.29957,2.28966 1.94167,2.17124 1.75699,3.43495 -1.41569,1.04883 0.15435,2.51482 1.51495,1.78477 2.16087,1.04297 2.96483,5.30142 -0.23002,5.22878 -2.10017,0.13442 -0.68078,1.27046 0.59212,1.28701 0.78323,1.36538 1.46267,1.20548 2.05033,-0.13217 z"
         id="path4280" /><path
         style="fill:#f1d2ae;stroke-width:0.264583"
         d="m 90.779168,268.58996 c -1.857391,-0.48249 -3.932509,-0.51542 -3.047941,-3.08842 0.594712,-2.95037 1.26977,-5.91649 1.603112,-8.86359 2.61329,-2.84874 -0.798896,-5.84641 0.174239,-8.90202 0.0016,-1.90294 -1.372739,-4.50183 1.533558,-4.71299 -0.978202,-0.85536 -0.832077,-4.95128 -1.236282,-1.70635 -0.610242,2.58478 -1.623084,5.31765 -0.995248,8.25154 0.119115,3.01755 0.647078,6.11227 -0.381625,9.02469 -0.31752,2.64784 -1.640561,5.1139 -1.174795,7.8744 0.01926,1.0549 0.375133,2.45428 -1.173553,1.90463 -3.497518,-0.10202 -0.716647,-5.20537 -1.034852,-7.51293 0.655644,-2.44164 2.494914,-5.03445 1.024851,-7.33828 0.194756,-2.67518 -0.285549,-5.55755 -3.255591,-6.19924 -1.896224,-2.66055 3.534871,-1.88462 1.329716,-4.51499 1.837678,-0.14788 3.465413,4.304 3.524754,0.35899 0.263499,-1.22808 0.01879,-3.84572 -0.877708,-1.52836 -0.269469,-1.2621 -2.994885,-3.99793 -0.1418,-2.76472 1.053302,1.65707 1.222634,-2.15809 2.747257,-0.8024 0.470054,-1.06125 1.50573,-2.93115 -0.228752,-1.95716 -1.694015,-0.62211 -4.29179,-3.33923 -0.970041,-3.50214 -0.857308,-1.92533 2.549402,-1.07174 0.23485,-2.70434 -1.330333,0.64089 -4.087974,2.42283 -4.448801,-0.18478 0.486675,-0.31155 1.505677,1.89057 1.089965,0.12779 -2.60598,-0.99306 0.334015,-2.49303 1.819168,-1.37979 1.648489,-0.2815 -1.936488,-2.87917 -1.530784,-4.37341 -0.383837,-1.5953 -3.058298,-0.95985 -2.38215,-3.2566 -1.76006,-0.69088 -0.969821,-3.09607 0.654707,-2.99331 0.73331,-1.68238 2.430459,1.20381 2.731108,-1.43023 -0.284907,-1.87464 -3.41014,-6.50784 0.820499,-5.5847 1.147353,0.66226 1.990411,2.58431 2.797403,2.82247 0.720425,-1.05237 3.550612,-2.55835 1.358492,-3.54626 -0.88009,-1.22143 -4.430505,0.12188 -2.550326,-2.14839 1.006864,-0.89036 -1.105723,-3.37455 1.615305,-2.46177 2.426869,1.66447 -0.197158,-1.99449 -1.063636,-2.47506 -1.5126,-0.16054 -3.364542,-3.10463 -0.752148,-2.18982 1.659412,0.62496 2.546913,3.82871 4.01444,2.27787 1.214537,1.71905 3.228791,3.28655 1.339263,5.22947 1.126415,3.41045 -4.020538,5.02195 -3.244235,7.71832 -1.691524,0.68103 0.5646,1.13407 -0.249464,1.8736 -1.134201,1.7481 -3.476275,1.74172 -2.865124,-0.86152 0.02752,-1.24836 -1.841057,2.48552 -0.65138,3.02389 0.400026,1.42351 -1.45543,4.84054 0.536267,5.01208 1.644578,-0.83742 5.492727,2.33155 2.078067,3.10286 -1.522168,0.78787 2.427319,3.82912 2.756797,5.5929 0.409092,1.79081 -3.061283,4.49243 -0.420525,4.79244 1.514541,0.86023 1.394239,-2.74729 1.996216,-3.94554 0.128552,-1.64631 -2.995112,-2.81367 -2.681878,-4.72339 1.454808,-2.04171 4.487672,2.43149 3.406841,-1.23298 -0.377226,-2.03187 -0.648205,-4.1994 -3.101593,-3.26086 -0.597117,-1.46903 -3.278367,-3.77866 -0.871456,-5.03851 1.268004,0.59593 3.056812,2.84021 2.772062,-0.14387 -0.232108,-1.18153 2.776004,-1.15846 0.823717,-2.29258 -2.204506,3.09474 -3.764785,-3.79004 -1.137046,-4.1337 0.581078,1.62823 2.08774,-0.45098 2.748728,0.93485 3.674026,-0.82203 -2.667382,-5.13057 1.584073,-4.79447 1.212034,-2.90106 2.127406,1.57439 2.727851,1.42659 0.74117,-0.73155 1.81101,-1.47073 0.4033,-2.15245 -2.129941,-0.41511 -0.950707,-5.04238 -0.0586,-2.19008 1.38061,1.62376 2.19165,3.21995 2.88251,0.52555 0.0762,-1.76833 2.77592,-2.16772 2.22869,-4.47016 1.29211,-3.24502 2.14805,1.68148 2.53758,2.799 0.96017,0.27702 1.9298,-4.55731 2.59325,-1.62289 -0.25585,1.29549 0.40662,5.77998 0.95087,2.10214 1.47725,-2.10051 2.36109,2.29627 1.48541,3.4132 -1.13684,1.31721 1.95784,2.04848 0.092,2.43565 -1.30862,2.21221 -0.14374,-2.72133 -1.79222,-0.0489 -2.96389,0.59087 -0.3957,-2.49271 -0.87715,-3.35519 -0.57226,-1.56022 -4.19302,0.93899 -3.01909,-1.63053 0.42426,-1.88857 -2.1713,1.56493 -3.26341,0.12403 -1.75537,1.02798 0.13299,3.16247 -2.37458,3.84889 -1.92177,1.0021 -2.560493,5.80889 -4.812708,3.62286 -0.36228,1.2208 -2.739746,2.14439 -0.677778,2.92916 0.500602,1.62288 -2.319977,1.84208 -2.171213,3.33663 2.51547,1.50804 -0.503829,4.19304 1.304594,6.31112 1.401872,2.47379 2.352766,4.90717 -0.247103,7.14482 -0.917735,2.57548 -1.894477,5.21332 -2.143288,7.92746 -1.502605,1.81053 -2.561205,5.32513 -1.277724,7.93083 1.413874,1.69896 0.411138,-2.97624 0.310796,-3.86791 -0.561316,-1.84464 1.328706,-2.42492 2.086963,-2.00382 0.462813,-1.99746 -0.94414,-4.87748 1.155942,-6.03349 1.189008,0.65704 1.546355,3.07574 2.100459,0.69216 0.82087,-1.05588 0.364013,-1.70606 -0.776867,-2.13907 -2.140387,-0.68641 -0.07543,-4.91421 1.199666,-4.8042 1.458745,0.41733 0.452515,-4.17742 -1.113767,-4.42045 -1.879222,-1.77951 -0.599973,-4.86288 0.270828,-6.39234 1.494842,0.31024 0.872956,3.55452 2.561749,1.41847 1.057051,-0.25662 4.051261,-0.4529 1.835281,-1.68305 -1.37261,-0.40474 -2.06653,-2.44629 -2.447364,-3.62805 1.750284,-2.48353 3.430254,0.20374 4.303594,1.74441 -0.20864,-1.64452 4.17804,0.58503 2.31985,1.10895 -0.49814,1.24742 1.67827,3.11566 -0.92132,2.36229 -1.5205,-0.21302 -2.21406,-2.11468 -1.53859,0.043 -1.01667,1.01572 -5.004669,0.6575 -2.3788,2.67173 2.03798,2.1859 -0.76362,3.52233 -1.075881,5.2417 2.074861,-0.56323 5.760941,4.43051 1.750951,4.70015 -0.9125,-1.17217 -2.22322,2.51348 -2.064342,2.42458 2.446932,0.11549 3.639562,3.99669 0.379813,3.86721 -2.989678,0.21224 -3.597226,2.60856 -2.399596,4.82515 -1.256833,2.20746 -3.277097,3.68843 -2.838574,6.56981 -1.013981,3.00041 -2.987773,5.64909 -3.198978,8.92091 -1.470596,2.15609 0.232148,4.96198 0.100812,6.74554 l -0.334916,-0.0327 -0.425235,-0.11223 z m -3.466595,-21.98632 c -0.519557,-3.06296 -0.280013,3.71115 0,0 z m -2.736866,-0.83685 c -2.12532,-1.27686 0.05903,1.91911 0,0 z m 19.107373,-25.29076 c -1.6458,-2.69719 0.10899,2.40512 0,0 z m -23.028948,24.63136 c -0.348004,-0.58219 1.995932,-2.60714 0.0044,-3.1271 0.533615,0.71682 -2.148202,1.99375 -0.811763,0.0623 -1.471988,-2.2514 2.998881,-0.5344 0.251807,-1.89059 -1.741079,-1.19212 -3.572369,-2.41737 -4.136435,-4.06975 1.813426,-0.80258 1.289052,-5.7861 -0.626052,-2.50935 -1.7815,-0.3295 -3.964581,-5.32898 -0.905557,-4.46157 1.155593,-1.15344 4.946475,1.44885 4.237946,-2.07167 -2.466549,-1.75579 3.263811,-1.04979 1.183648,-3.48629 -1.543558,-1.83747 -2.968906,1.37669 -3.452842,-1.1922 -2.287087,-1.07313 -1.264444,-3.75951 1.126375,-2.8944 -1.487096,-0.46099 -2.998537,-3.33887 -5.166738,-2.60065 -3.459033,0.93267 -3.496417,-6.71924 -0.230417,-3.09338 1.586505,1.70493 -0.849052,-4.19154 1.703455,-1.64596 1.230975,1.66786 2.195266,-2.88619 1.577082,-3.52837 -3.202887,1.12688 -2.822654,-4.59452 -0.449299,-3.76666 0.607411,1.35917 0.480704,1.20035 -0.137145,1.05541 0.12838,1.03507 2.397676,0.92484 0.102487,1.44372 1.453937,0.79625 2.027085,-0.99228 1.136048,-1.88402 1.021648,-3.32897 2.828417,3.85914 2.491775,-0.40728 -0.106487,-2.21834 0.443125,-3.80748 -2.092893,-4.36677 -0.231363,-3.67942 5.195429,1.31446 4.642107,-2.06308 -2.148455,-3.98689 5.736919,-0.0924 1.645016,1.05827 -1.629721,0.82093 -3.055686,2.13746 -0.384178,1.55028 2.286333,0.5103 2.221279,4.06501 -0.102093,3.0928 -1.453749,0.59817 -2.852315,-0.0743 -2.507474,2.19554 -0.0495,2.26941 -2.644143,0.17616 -3.340325,2.64768 -1.759455,1.38479 2.06096,1.48455 0.143714,0.40876 0.949131,-0.61525 1.659839,-0.13253 2.580707,-0.43873 -0.436565,1.7396 -2.163932,2.52838 -3.046071,1.95367 -1.235043,2.09365 1.695632,4.04382 -0.47239,5.62367 0.968876,1.90626 2.947508,2.32795 4.457197,2.05469 1.874333,1.31914 0.299831,4.47848 1.931704,6.26997 1.199521,1.33207 2.405441,2.88898 0.793063,4.55722 -0.587464,2.38046 -2.752763,-2.18027 -3.24634,-0.83232 -1.489655,1.47644 2.753015,2.40755 -0.162854,3.06438 -2.296203,0.85544 -0.828768,2.79005 1.097727,2.519 -0.830468,1.53266 2.981627,3.41174 -0.305662,4.01085 -0.401033,0.77782 1.896505,3.01188 2.055279,0.90549 1.778495,0.44862 2.188727,3.13784 0.598329,3.18772 -0.151792,1.09737 -0.452656,3.90459 -2.183344,2.66871 z m 26.334258,-10.42404 c -1.80353,0.14549 -2.87978,-2.53296 -3.10552,-4.31248 0.96061,-1.57937 1.56969,-1.92864 -0.12821,-2.90084 1.22866,-1.59711 -2.81716,-2.5002 0.17453,-3.7113 1.06599,-0.01 5.08503,1.17644 3.40468,-0.2551 -2.04137,-0.0891 0.78251,-3.37066 1.23687,-0.66229 0.77399,1.38513 0.94035,0.91478 0.85753,3.02379 -0.34853,1.02065 -5.03891,1.77408 -1.69809,2.29788 1.19755,2.13418 2.76764,0.95383 2.83478,-1.19847 -1.18108,-2.52635 1.88449,-3.46018 0.50941,-5.68712 -1.03012,-1.43476 2.01119,0.35795 1.15598,1.69635 1.34788,1.91747 2.24863,3.91502 2.16212,6.25544 -1.37237,0.33956 -1.67539,3.33562 -3.32059,1.35305 -1.2824,-1.1019 -4.54675,1.75853 -2.15294,1.90689 0.33679,0.68392 -1.24733,2.89914 -1.93055,2.1942 z m 3.14717,-14.91884 c -0.6299,-0.99071 -3.10759,-3.83237 -2.16895,-4.34062 1.42827,1.48761 3.28009,-3.68977 3.73063,0.10376 -0.12859,1.45362 3.18788,4.70242 0.11197,4.27991 -0.77392,-1.05236 -1.3644,1.33775 -1.67365,-0.043 z m -6.85483,-1.94848 c -1.26035,-1.51796 2.41162,-2.30249 1.16504,-3.74136 -1.33366,-0.8824 -0.6104,-4.5262 0.28616,-3.32586 0.40777,2.00654 1.32435,-0.62481 1.23063,-0.95857 1.08553,1.17663 1.60904,3.70253 1.35813,5.05893 -1.32599,-0.0884 0.72977,1.96502 -1.47023,1.69887 -0.68705,-3.43258 -1.24482,1.71882 -2.56973,1.26799 z m 10.58333,-3.20072 c -0.76908,-1.34413 2.76631,0.26817 0,0 z m -11.80234,-7.10686 c -1.55881,-0.46806 0.9424,-3.36469 0.75776,-0.62238 0.14756,0.36191 -0.89268,1.69626 -0.75776,0.62238 z"
         id="path4278" /><path
         style="fill:#edc494;stroke-width:0.264583"
         d="m 90.291369,268.35761 c -1.565185,-0.37422 -3.13489,0.14462 -2.520583,-1.96745 0.191127,-3.2565 1.446085,-6.36872 1.595141,-9.59337 2.458184,-2.78979 -0.431481,-5.71505 0.09024,-8.67128 0.29718,-2.14364 -1.423946,-4.74969 1.677702,-5.14469 -1.281346,-1.2016 -0.894293,-4.09202 0.382275,-4.78127 1.773961,2.39928 2.21097,-3.08323 2.276459,-4.32583 -1.695715,-1.1913 -4.353759,-5.21134 -0.17667,-4.19624 2.281565,2.28567 0.663956,-4.19394 -0.349049,-4.48555 -1.87447,1.03905 -3.252353,-1.73239 -3.494362,-3.16839 0.03943,-3.33664 2.214946,0.0191 3.468298,-0.19396 -0.113972,-1.74562 0.726139,-2.9031 1.173288,-0.66019 2.046683,1.98631 -0.565236,4.56804 1.376873,6.93084 1.512359,2.09486 1.837816,3.82436 -0.10412,5.86936 -1.813001,2.76447 -1.689032,6.55081 -3.252398,9.12829 -0.07172,0.99791 -1.892005,4.03482 -1.098815,6.18645 0.320636,1.78203 1.538653,2.16249 1.560195,0.13047 2.200522,-0.1961 -1.527162,-0.73908 -0.465573,-2.33987 -0.659035,-1.94563 0.799139,-3.81415 2.091428,-1.9427 -0.06429,-2.11388 -0.342248,-5.41453 0.587959,-6.3747 0.666915,-1.59968 2.138401,3.60903 2.609824,0.23937 1.56588,-2.20506 -3.865431,-2.19828 -1.341185,-4.80782 0.145828,-1.40181 1.04873,-2.39848 2.315032,-1.86107 1.174224,-3.69095 -4.689297,-5.34967 -2.21054,-8.8108 -0.227103,-1.84 1.43653,-2.82004 1.883075,-0.49571 0.433692,1.65242 2.179047,-1.44756 3.779087,-0.63243 0.87233,-1.5313 -2.598508,-1.15859 -1.99812,-3.18885 -3.228027,-1.69184 2.77364,-4.36438 2.5873,-0.61377 0.88046,1.59927 0.75649,-0.86793 2.06795,0.56739 3.10627,0.24891 -0.23548,1.4201 1.25403,3.08185 0.33312,1.31397 -2.92693,0.25001 -2.97385,-0.83363 -0.62692,0.66925 0.63081,2.27144 -1.48935,2.04118 -4.611003,-0.0216 2.81239,4.19588 -1.22042,5.95325 -2.340899,2.47907 3.04234,1.12909 2.87892,3.9306 1.07126,2.41833 -2.07639,1.53436 -2.68272,2.03266 -0.20625,1.43383 -2.379785,2.80295 0.0936,2.87955 3.46103,2.26727 -1.383254,4.51839 -3.490298,3.92635 -1.036903,-0.66784 -1.799116,1.47704 -0.727847,1.82419 2.014183,1.45495 0.236665,4.8583 -0.821129,4.06011 0.522568,1.83756 -0.627234,-0.19926 -0.768673,-0.98336 -0.78299,1.66823 0.906154,4.69955 -1.08933,5.73265 1.688218,1.82058 -2.24205,4.86996 -2.061747,7.41533 -0.695188,2.73992 -1.356278,5.65051 0.08207,8.27032 -0.06447,0.72322 -1.202413,-0.12229 -1.493928,-0.12728 z m 3.292657,-20.88176 c -0.893343,-2.13982 -0.716666,1.8665 0.09163,0.45619 z m 5.623909,-5.93642 c 0.585439,-1.25279 -2.581355,-2.69765 -1.009686,-0.3616 0.176161,0.34918 0.527312,1.02422 1.009686,0.3616 z m -6.973559,-0.36913 c 2.071355,-2.95087 -2.940496,1.16956 0,0 z m 7.016766,-1.63787 c -1.732855,-1.3985 0.781258,1.58411 0,0 z m -0.163309,-4.6782 c -1.332437,-0.78243 -2.803778,1.07125 0,0 z m 4.350547,-15.06486 c -1.64188,-0.27933 0.88313,2.66819 0.22212,0.32868 l -0.22211,-0.32868 z m -1.29891,-0.75258 c 0.95226,-2.83375 -2.04954,0.92306 0,0 z m -17.555463,49.1365 c -0.158727,-2.62927 0.02191,-5.72465 0.886972,-8.36733 1.095945,-2.45716 1.548399,-4.81434 0.715612,-7.31349 0.350943,-2.88434 -1.521681,-4.47536 -3.690567,-5.71054 -0.887665,-1.77413 2.586505,-2.05815 1.006081,-0.91329 2.91914,1.6198 -0.427946,-3.32285 1.191637,-2.99348 1.929739,0.94089 2.605347,2.60911 2.183194,4.55756 1.019388,-0.9191 0.868171,-5.01449 0.740674,-7.10468 -0.883448,0.28815 -0.744808,2.16628 -1.306723,0.12116 -1.037107,-0.9653 -1.321506,-3.04658 0.368707,-1.33216 0.261849,3.49564 0.761468,-1.73893 2.204799,-1.06912 1.183764,0.55677 2.065042,-3.34859 0.228005,-1.99151 -1.226596,-0.82107 -4.174142,-3.0274 -0.906156,-3.41789 -0.287697,-1.89161 2.602877,-0.77735 0.555828,-2.52069 -0.748033,-0.22075 -4.271032,1.66755 -3.612257,0.61468 1.653587,-0.57681 -2.969734,-1.80304 -0.395161,-2.65057 1.400206,0.47905 3.987583,0.91283 1.94859,-1.13659 -1.13305,-1.76631 -1.078057,-4.47602 -3.549358,-4.42305 0.879143,-1.65149 -2.889535,-3.66595 -0.08067,-4.43767 0.906758,0.0583 1.177708,-2.16603 2.280697,-0.28245 2.8434,-1.2655 -1.591145,-5.06352 -0.04381,-6.81644 2.031638,-1.10659 3.82531,1.92053 4.429046,2.97125 0.654053,-1.02879 3.846713,-2.88761 1.991942,-3.50204 -1.035221,-1.58182 -5.201649,-0.52335 -2.429491,-3.17384 -1.722533,-1.98592 0.822204,-2.44884 2.14481,-1.29665 0.113161,-2.72505 -4.909704,-3.19001 -3.793451,-5.32759 2.309573,-0.66118 3.019576,4.55653 4.77951,2.2891 1.205174,1.1503 1.821354,2.92894 2.409443,3.73062 -1.278144,2.57274 -1.250673,5.69882 -3.948737,7.5584 -1.310035,0.97156 0.624668,2.17825 -1.051014,2.61632 2.140988,1.70026 -3.48352,4.03249 -2.171881,0.50311 -0.408704,-1.48916 -1.84716,2.4462 -0.633065,3.3613 -0.319492,1.17952 -1.088605,4.62518 0.333305,4.58931 1.693837,-1.57147 5.417069,2.73127 1.887289,2.84182 -1.348053,0.8264 2.506996,3.25236 2.411864,4.94465 1.756194,2.46111 -2.409524,5.33206 -2.020931,8.18848 0.01449,2.20767 -1.851584,4.38676 -0.977848,6.97493 0.01308,3.28107 0.969504,6.69023 -0.236251,9.86058 -0.0072,2.87957 -1.845571,5.46118 -1.224521,8.37602 0.08442,1.05199 0.52549,2.44445 -1.053902,1.90802 -0.529118,-0.023 -1.066387,-0.0515 -1.572214,-0.22624 z m 3.039822,-11.78007 c 0.675028,-2.2045 -0.901489,-1.22194 -0.315103,0.19844 l 0.214432,-0.0583 z m -6.608268,-11.21125 c -1.242593,-0.33272 2.415888,-4.06172 -1.156469,-3.50777 -0.753721,-2.0101 2.179202,0.37197 2.185408,-2.0115 1.810742,-0.715 2.69121,3.119 0.186483,2.51171 0.569214,0.86019 0.610492,3.40358 -1.215422,3.00756 z m -1.385255,-5.47491 c -2.706832,-1.16501 -3.901683,-3.26387 -2.580853,-5.80921 0.236514,-1.6835 -0.941893,-2.84525 -1.340754,-0.55454 -1.984442,0.76908 -4.095918,-4.82542 -1.489374,-4.13284 1.385272,-1.47735 2.462286,1.75306 4.118261,-0.25873 2.007667,-1.47722 -2.069195,-3.03943 0.877344,-3.42405 1.805412,-0.329 0.86928,-2.5303 -0.342004,-2.73111 -0.534692,-0.15761 -1.638896,-0.49557 -1.369165,0.69299 -1.037917,-0.0594 -0.912577,-1.70035 -1.966974,-2.01352 2.646288,-0.57498 -2.063681,-0.089 -0.275241,-1.90094 0.910602,-0.60197 3.942549,0.47817 1.5664,-0.57715 -1.719803,-1.50144 -3.261822,-2.72206 -5.658709,-2.35592 -2.73367,-0.76918 -1.194577,-6.20148 1.06036,-2.6726 1.66842,1.62957 -1.099267,-4.10889 1.592396,-1.7183 1.158287,1.72988 1.110219,-1.35922 1.806249,-2.00807 0.262173,-0.65131 2.45238,0.88485 1.23845,-0.56993 1.353764,-0.72066 3.111503,-0.91906 1.285967,0.93353 -0.561237,1.48243 -2.634166,-0.99006 -2.236623,1.69118 -0.473539,1.43172 1.718622,3.42733 -0.482691,4.29227 1.127136,2.13238 3.288145,2.35494 5.012864,2.42063 1.235516,1.20354 0.07459,3.35861 1.072552,5.04256 0.954912,1.31031 0.15225,3.65171 2.092252,3.69384 -0.17452,2.33648 -1.921447,3.09815 -3.388724,0.97889 -1.149279,-1.34049 -1.396678,2.26571 0.187446,2.20613 -0.640629,0.7818 -3.963288,2.23259 -1.375332,3.1059 1.85456,-0.0857 1.297649,2.2762 2.484358,3.24004 -0.40511,1.42194 -2.951393,0.60309 -0.943632,2.28893 0.454698,1.28511 -0.543098,0.59412 -0.944823,0.14002 z m -3.858247,-8.5471 c -2.120396,-0.77307 -1.21817,0.41461 -0.390526,0.83123 0.150854,0.58022 0.73551,-0.69045 0.390526,-0.83123 z m 31.267841,3.45324 c -2.13607,-0.0612 -3.97172,-3.48613 -2.48992,-5.32906 1.14927,-1.36451 -1.60486,-1.66597 -0.47555,-3.33173 -3.72387,-1.15953 2.12356,-3.52848 3.00963,-0.85923 1.54364,1.80462 1.35879,-2.6301 -0.11389,-1.55462 -0.97158,-3.32851 2.93805,-0.55083 2.07557,1.41144 1.01232,1.88877 -0.42557,1.29092 -1.14428,1.73939 -0.85252,0.23624 -2.77932,1.87098 -0.41005,1.49052 1.31628,1.06313 1.98817,1.96253 3.00452,-0.18733 0.85671,-2.24263 -0.34576,-3.53459 1.06872,-5.2698 -0.30294,-1.30795 -1.32871,-3.0918 0.34587,-1.17498 0.3716,2.71696 2.32658,4.17262 2.54802,6.87667 -0.48473,1.01354 -1.49324,1.80323 -2.14025,3.0888 -1.27733,-1.79228 -3.75332,-1.39766 -4.56362,0.65269 2.65094,-0.75526 0.18447,3.35841 -0.71477,2.44724 z m 2.63171,-15.42969 c -0.89102,-1.16397 -2.93332,-4.50784 -0.63619,-3.10819 0.46135,-2.42999 3.14271,-2.44037 2.61876,0.24571 0.0711,1.11509 2.61738,3.26612 0.82078,3.64025 -1.74468,-0.86717 -1.86386,0.58216 -2.80335,-0.77777 z m -14.616638,-0.0428 c -0.125745,-2.36398 -0.785061,-1.23058 -2.037204,-0.50214 -2.397548,-0.62226 -0.993342,-6.60651 1.088798,-3.99401 1.117629,-1.23996 1.934343,1.2967 3.108762,-0.72283 -0.05911,-1.62163 -2.674863,-3.91319 0.272104,-3.92625 1.638635,-3.49448 1.88879,3.99867 3.462068,0.67584 0.64134,-1.00889 -3.566518,-4.71996 -0.64531,-3.81333 0.8076,1.29459 1.9954,2.80527 3.15163,2.37769 -1.12906,2.24217 -3.692595,3.93155 -4.987332,6.34158 -1.156772,-0.52418 -0.06334,-1.7432 -1.69938,-0.3338 -2.099764,1.06192 0.452371,3.78625 -1.47453,4.37322 l -0.239596,-0.47594 z m 8.187208,-1.42011 c -0.34846,-1.18019 2.13475,-2.53444 1.31663,-4.25599 -0.75857,-0.17583 -1.37234,-3.35602 0.075,-2.51503 -1.51486,1.28809 2.94415,0.41623 0.97182,-0.94978 2.26637,-1.08965 -0.18661,3.51694 1.33803,2.02503 0.26842,1.52646 1.28301,2.72797 -0.4673,3.19537 1.68948,0.87349 -1.52284,2.1011 -1.16534,0.16365 -0.83867,0.35006 -1.14092,3.03961 -2.06881,2.33675 z m 3.1474,-4.14556 c -0.94911,-2.18764 -2.28317,0.86961 0,0 z m 7.44493,0.85971 c 0.0238,-1.14311 2.06035,0.3832 0.26547,0.24915 z m -1.2478,-2.17293 c 0.55595,-2.6319 -2.67933,2.02696 -2.64478,-1.08502 0.81048,-1.25309 1.38691,-2.85077 -0.58395,-3.11294 -1.5101,1.32166 -2.64759,-0.38104 -1.72307,-1.55423 -0.89711,1.10102 -5.45262,1.57433 -3.3102,-0.53787 1.96449,-0.83972 -0.41033,1.43302 1.4457,0.81826 1.32944,-1.30059 -1.41766,-1.70469 -0.10617,-3.70655 1.73201,-4.29069 2.00271,6.34334 3.61793,1.50415 1.72628,-3.52637 1.36274,1.80385 1.7262,3.18155 0.90837,2.4108 1.58225,-1.03009 1.01252,-0.32383 -1.39065,2.28089 0.19764,-4.13235 1.18773,-0.83653 0.45083,1.72759 -0.91992,4.63719 0.3242,5.13567 -0.48628,-0.0621 -1.17375,2.13152 -0.94611,0.51734 z M 75.931169,209.0328 c 0.1851,-0.85013 -3.367669,-0.0623 -2.241867,-1.2525 -0.01535,-1.16526 1.179807,-4.96033 1.101586,-1.64712 -1.202119,3.16465 3.290991,0.6693 1.403664,-0.29774 -0.970959,-0.41175 1.638641,-2.39224 1.647224,-0.0578 1.411625,3.05864 0.144277,-4.41671 1.140856,-3.61311 -1.216691,-1.6 0.639958,-1.39622 0.815921,-0.60458 0.682067,1.57717 0.463642,-1.94926 -1.11238,-1.15665 -0.896686,-2.21338 -0.02732,3.18058 -1.061833,0.0288 -0.726123,0.40471 -1.689568,0.6273 -0.639158,-0.93177 1.249823,-0.72486 4.038237,1.95817 4.33673,-0.68955 -1.134949,-1.3841 0.03261,-2.95904 1.247835,-1.28874 3.461835,0.76648 -0.742667,2.45037 -1.838556,3.62744 1.047018,-0.2727 4.93902,1.56318 2.643829,3.3085 -1.763703,-0.7112 -4.150454,0.28519 -3.858632,2.6655 -0.182252,1.29778 -2.066442,-0.40457 -2.74089,1.49549 -0.181017,0.12329 -0.698833,0.93889 -0.844329,0.41382 z m 25.780961,-3.0994 c 1.02235,-1.05343 1.20892,1.09211 0,0 z"
         id="path4276" /><path
         style="fill:#ebbc85;stroke-width:0.264583"
         d="m 90.273774,268.32598 c -4.287354,0.46223 -2.070319,-4.47938 -1.566728,-6.92451 -0.181829,-3.30375 2.231287,-6.19782 1.421094,-9.40287 -1.505176,-2.47144 -0.09765,-5.35041 -0.921579,-7.85271 0.841781,-2.25794 2.068155,1.12989 1.936035,-1.36251 -1.059729,-0.70254 -0.932215,-2.62916 -0.333099,-2.54253 -0.769485,-1.66196 0.766921,-2.689 1.814412,-1.26778 0.684511,-1.54695 0.990605,-3.22802 1.452227,-4.85032 -1.052601,-1.3161 -4.914549,-4.39121 -1.207721,-4.64843 1.402196,0.76909 2.242563,1.89887 1.853499,-0.31842 -0.182484,-2.11246 -0.603688,-4.70902 -3.194713,-3.80372 -0.07983,-1.8951 -3.120448,-2.52248 -1.318092,-4.72195 1.246524,-0.10685 3.271446,3.05642 3.261849,-0.15418 0.184763,-1.40324 1.130087,1.92905 2.032934,2.1537 -1.576158,2.59885 0.275026,5.70947 1.632109,8.16927 -1.12381,3.08695 -3.126339,5.90781 -3.687723,9.27038 -0.237003,2.70202 -2.217818,4.24105 -2.219108,7.1968 -0.453789,1.79216 0.783634,5.018 2.223021,3.03267 2.778495,-0.0189 -2.020884,-0.88903 0.731507,-0.85322 -0.313736,-0.86078 -1.27017,-4.21663 -1.19718,-1.28921 0.02993,1.77835 -1.925776,-5.31485 1.082207,-3.4577 1.070559,1.18487 0.31525,-3.08578 0.07756,-3.94815 0.634354,-1.85863 2.157081,-2.73538 2.819807,-0.4468 1.123623,-1.18664 2.475859,3.79552 0.158938,1.73361 -2.969478,1.1817 2.020682,4.20488 -0.70209,6.35224 -1.625967,-2.6585 -2.876678,-0.14061 -1.695882,1.70225 0.329196,1.83655 -1.388161,2.50986 -0.356261,3.65874 -1.330512,2.67964 -2.750403,5.31462 -3.085737,8.33606 -1.088873,2.17818 0.239351,4.87561 0.265471,6.65988 -0.452893,-0.0345 -0.86142,-0.26228 -1.276754,-0.42059 z m 3.41581,-16.77702 c -1.322886,-1.10088 -0.633112,1.46427 0,0 z m 1.681446,-7.81149 c 1.075587,-1.68893 -1.808119,0.48218 0,0 z m -0.358529,-2.22706 c -1.485704,-1.57664 0.822133,2.05851 0,0 z m 1.058333,-0.0156 c -0.508438,-1.37301 -0.565253,1.6958 0,0 z m -3.659417,-0.31512 c 2.300596,-2.62177 -3.422164,0.43505 -0.407263,0.22068 z m -7.759579,27.02742 c -0.362554,-3.61655 0.391485,-7.37497 1.722329,-10.7612 0.770891,-2.64284 -0.410646,-5.15537 -0.583868,-7.87394 0.147397,-1.96659 -5.576996,-2.47478 -2.425337,-4.39175 0.359778,-0.17687 0.132965,2.19832 1.468432,1.04214 -0.202362,-1.00175 -0.07382,-1.81432 -0.739019,-3.19485 1.234001,-0.40476 3.805536,2.20578 2.641819,4.03226 0.120685,1.61791 1.80867,0.86614 1.132613,0.49199 -1.223874,-0.7588 0.713854,-5.04184 -0.222853,-7.0209 -0.785089,-0.13654 0.589952,-2.22193 0.80881,-2.62145 1.475787,1.27345 2.746651,-3.36807 0.66265,-1.85219 -0.856573,-0.69334 -4.105716,-2.77283 -1.445369,-2.98857 1.076214,1.50012 2.138599,0.72374 0.40843,0.002 -0.03301,-0.24952 1.097644,-0.16074 0.136186,-1.34948 0.509639,-0.863 0.707887,0.81959 1.173356,-0.33557 0.365714,-2.79967 -3.801062,0.26518 -4.314127,-0.64889 1.738859,-0.0516 -3.122322,-2.78851 0.172453,-2.46981 1.402276,0.79927 3.613396,0.46548 1.604562,-1.15187 -1.267092,-1.56602 -1.110287,-4.5272 -3.414979,-4.45345 0.137081,-1.80995 -2.939253,-4.44596 0.197562,-4.77097 0.568231,-2.04678 2.409089,1.32869 2.812653,-1.38035 0.03135,-1.49257 -1.886362,-3.62428 -1.380288,-5.3772 2.359977,-1.90479 3.800107,2.68153 5.109834,2.41996 2.214191,-1.23881 3.009499,-4.1887 -0.216702,-4.07232 -2.920195,0.53159 -0.655332,-1.56997 -0.930545,-2.7582 -1.551743,-2.97719 4.370634,0.76589 1.78652,-2.19524 -0.411531,-1.53066 -5.538804,-3.00404 -2.555137,-3.82919 1.921482,0.60756 2.704143,3.92918 4.441092,2.49678 1.734685,0.97795 0.351946,4.31677 2.016882,2.84373 -0.919566,2.26231 -0.71146,5.40517 -2.946115,7.27065 -1.440629,0.89357 -1.992051,1.89119 -1.188971,2.99594 -1.71048,0.26405 0.969936,1.90599 -1.205089,2.60099 -2.557108,2.08221 -0.787334,-4.42213 -2.496695,-1.15309 -1.280382,1.74774 1.090898,3.475 -0.452295,5.3751 0.06897,1.27165 0.407974,3.39475 1.711368,1.73019 2.759663,0.30275 3.262172,3.51257 0.584537,3.52824 1.402607,1.48601 2.377272,4.06638 3.138893,5.30949 1.395807,1.08354 -1.523702,3.31816 -1.564612,5.03835 -0.802465,0.78585 -1.45404,2.24808 -0.584008,1.79188 -0.561277,0.52568 -1.120764,1.97531 -0.07079,1.18405 -1.032779,2.55903 -1.333374,5.46992 -0.878163,8.38825 0.17494,2.9585 0.672723,6.05796 -0.645631,8.82547 0.156085,2.26548 -1.401291,4.43628 -0.919166,6.867 -0.255046,0.82955 0.618841,2.7836 -0.687833,2.56565 -0.623207,-9.8e-4 -1.258742,0.0331 -1.863388,-0.14995 z m 3.296643,-13.00451 c -0.07424,-3.19649 -1.464562,4.03525 -0.0755,0.41652 l 0.0755,-0.41657 z m 5.352682,-50.70722 c -1.1283,-1.90429 -0.199539,3.03496 0,0 z m -12.690877,40.48306 c 1.5555,-1.32637 1.006357,-3.44035 -0.894705,-3.79875 0.560724,-0.77039 2.510167,0.46746 2.401691,-1.70231 1.607568,-0.21649 2.68352,3.56194 0.07349,2.35476 -0.02959,1.08192 1.024654,4.08704 -1.58048,3.1463 z m 18.74802,-3.34104 c 0.857694,-0.73572 -3.256394,-3.72988 -0.641638,-2.90507 1.733532,1.49082 -0.02651,-2.18929 1.998412,-0.34602 2.65418,1.60191 -0.0127,3.53227 -1.634894,3.52561 l 0.27812,-0.27449 z m 0.414631,-1.64834 c -1.225671,-2.01567 -1.616517,-0.008 -0.01834,0.33174 z m -13.258435,1.32292 c 0.06271,-1.33982 -2.390306,-3.72039 0.03938,-2.24168 -0.122798,0.33573 0.934314,3.156 -0.03938,2.24168 z m -7.14257,-1.84669 c -2.613606,-1.0994 -3.569478,-3.1558 -2.283256,-5.54008 0.345957,-1.12487 0.01996,-1.98824 -1.00033,-2.58143 -0.944454,-2.23904 -3.14761,-0.22232 -1.720251,1.1317 1.059088,-1.05539 2.854787,0.9736 0.602299,0.92213 -2.417494,-1.1292 -2.296224,-4.93786 0.65283,-4.69506 0.89026,2.85071 5.283922,-0.91129 2.310532,-2.32162 0.872681,-0.492 3.605841,-2.04057 1.659258,-2.94954 -0.672235,-1.08764 -0.661047,-1.05392 -1.60434,-0.67178 -0.805292,-0.49959 -0.333778,1.87069 -1.253091,0.0928 0.787238,-2.11249 -3.221023,-2.0143 -1.010785,-3.48879 1.895767,0.14726 2.739093,0.35268 0.683363,-0.66191 -1.473832,-2.37844 -3.98206,-1.53586 -6.018614,-2.5589 -1.877608,-2.12232 0.353536,-4.99948 2.097823,-1.87951 1.125128,0.50265 -0.487795,-3.28138 0.630852,-2.47562 -0.729517,1.06005 2.5536,1.27096 2.096908,-0.61518 1.75595,-2.58447 -0.330191,2.49188 1.176922,3.02471 0.332934,1.73231 -2.080404,2.75897 0.38418,3.81742 1.40076,2.20525 3.748744,-0.6506 4.414237,2.14144 -1.064499,2.54036 1.477756,4.89133 1.043171,7.18773 2.113608,0.35161 0.897445,1.79346 0.124215,2.79048 -1.33058,-0.0185 -2.884522,-3.28676 -3.1551,-0.60662 0.70849,0.92852 2.050075,2.13851 -0.280297,2.40597 -1.94058,1.2352 -0.09895,2.52592 1.37806,2.57327 0.203027,1.67687 2.490431,3.77769 -0.693164,3.86354 0.860342,0.55903 1.563163,2.6447 -0.235422,1.09488 z m -1.356735,-8.95496 c -1.406344,-0.63411 -2.825993,-0.0196 -0.57947,0.18132 0.132855,0.25283 0.631959,0.0939 0.57947,-0.18132 z m 0.328554,-8.56018 c -1.141488,-2.69557 -1.44866,0.80552 0,0 z m -2.116667,-1.73869 c 0.118099,-1.48688 -1.51311,1.10236 0,0 z m -0.79375,-5.98143 c -0.670798,-1.65609 -0.936033,2.22167 0,0 z m 23.020198,23.71026 c -1.85828,-0.86045 -3.488031,-1.86082 -1.931721,-3.93641 0.186491,-1.31434 0.684529,-2.43396 2.117334,-1.58816 1.32086,-3.83281 -4.879239,-5.69581 -2.048598,-9.3238 -0.01103,-3.08066 1.694833,-0.14777 2.230992,0.54772 0.664745,-1.28922 6.464381,-1.63465 3.133351,-0.25743 -1.78837,-0.0681 -3.300206,1.03117 -1.16234,1.96837 2.24739,2.22212 -1.05807,3.74702 -0.894758,5.7446 3.750378,-1.03095 4.573668,5.77627 0.665318,3.937 -0.17994,0.8032 -1.092693,3.46708 -2.109578,2.90811 z m 0.660011,-3.04446 c -1.225576,-0.9851 -3.268221,0.91406 0,0 z m 8.069787,-0.29326 c -2.13389,0.22558 -2.57692,-1.98396 -3.18247,-3.64461 -0.1485,-1.44556 2.12261,-2.82442 -0.11028,-3.29407 0.0983,-1.30141 0.70059,-1.85716 -0.94688,-2.16753 -0.0744,-3.09916 4.25262,-1.2468 4.41342,0.3259 -0.12047,-0.74873 1.33898,0.51009 0.8887,-1.30374 0.24421,-1.84855 -2.48567,-0.32787 -1.21472,-2.51589 2.35943,-0.0821 1.96637,2.83382 2.0788,4.61956 -1.31633,-1.1147 -1.11156,1.13904 -2.38229,0.27965 -1.83386,2.33928 2.021,0.57034 2.30589,2.66133 2.00715,-0.55104 1.39503,-3.88496 2.21714,-3.94445 -1.21035,-1.55447 1.38724,-2.60949 -0.34153,-4.66659 1.33817,-0.40971 1.0792,3.87829 2.95809,4.70398 -0.56897,1.26094 0.85232,2.44962 0.32225,3.61148 -1.37852,0.0698 -1.36088,3.48963 -2.88038,1.41443 -0.95756,-2.17513 -5.10438,1.88647 -2.43455,1.62192 0.34697,0.42026 -1.37793,3.22779 -1.69119,2.29863 z M 103.9226,222.4177 c -0.9023,-2.23383 -1.6811,-0.39658 -3.51383,-1.9347 0.44247,-1.58437 -2.72322,-2.49643 -0.194,-3.53415 1.34142,-1.38224 2.90017,1.18765 1.11359,1.98072 0.57945,1.34758 1.54941,-2.11136 1.49632,0.16007 0.91116,-0.16626 3.26018,-0.0898 3.30033,0.94098 -1.17401,0.89776 1.02172,3.53508 -1.81523,2.54411 l -0.38717,-0.15698 z m -0.17885,-1.92604 c 0.32011,-1.56168 -3.10325,-0.48572 -0.7429,0.0848 0.19959,0.59772 0.77689,0.81596 0.7429,-0.0848 z m 6.30418,-1.06887 c -1.04647,-0.95465 -3.35861,-4.28494 -0.93609,-3.51595 0.42665,-1.8551 2.95232,-2.59578 2.56941,-0.0159 -0.41397,1.49273 2.62126,3.10142 0.57615,4.105 -1.40275,-1.57581 -1.77157,0.85542 -2.20947,-0.57314 z m -15.051227,-0.87952 c -0.229054,-2.76764 -2.095918,2.0127 -2.622709,-0.91564 -1.627095,-1.34613 0.626732,-5.20514 1.603699,-2.6989 0.545392,-1.42218 1.185674,-0.80468 1.844018,0.20107 2.640387,-0.92157 -0.100006,-3.08877 1.544085,-4.47313 -1.673312,0.0753 -2.044992,-0.31792 0.137209,-0.44662 0.965615,-3.31112 2.059203,1.63346 2.539725,1.53735 1.52907,-1.24797 1.31517,-2.48064 -0.369006,-3.43377 -1.077915,-3.50171 1.881926,-6.7e-4 2.771206,0.99903 2.81947,0.24912 -1.87655,2.38863 -2.29964,3.67242 -0.301908,1.51691 -2.311797,3.28532 -2.354668,1.55556 -1.858563,0.7487 -2.5351,2.60696 -1.61767,3.94278 -0.706494,1.03957 -0.878234,1.60968 -1.176249,0.0599 z m -1.307119,-1.12555 c -1.322886,-1.10088 -0.633112,1.46427 0,0 z m 9.322876,-0.18282 c 1.34048,-1.24819 2.8426,-3.72521 0.63623,-5.37386 -0.29709,-1.03598 1.97157,-1.87917 0.55351,-0.44277 1.54996,1.25968 1.91357,-1.24693 2.02903,-1.49892 0.62374,1.45147 1.04234,3.3864 1.32883,4.75131 -2.38402,-0.11315 0.73299,1.5845 -1.56894,1.77833 -0.75046,-3.60202 -2.22751,2.90083 -2.97866,0.78591 z m 3.37712,-3.75562 c -0.71913,-2.19032 -2.76006,1.31631 0,0 z m 3.85536,-1.4888 c -0.8171,-1.30953 2.05514,-3.90974 -1.03378,-3.96769 -1.86863,1.47186 -1.67597,-0.71869 -1.57501,-1.59163 -1.15489,-0.98235 -2.99576,-0.83335 -1.89042,-2.84047 1.12894,0.99781 -0.5987,-3.03115 1.18124,-1.30445 0.69315,1.15231 0.59853,5.59839 2.22742,2.64557 0.42917,-2.35075 2.43387,-1.61359 1.60326,0.52746 -1.28504,1.24374 1.8348,3.66336 0.82957,3.41999 -1.10665,-0.945 -0.26112,3.6404 0.23169,0.86577 -0.14755,-1.26644 1.35201,-4.83817 1.47786,-1.76056 -0.29484,1.42559 -0.8775,3.08818 0.3792,3.75254 -1.69117,-1.56155 -2.04929,1.45982 -3.43103,0.25347 z m -33.15796,-1.04503 c -0.642115,-0.88028 0.946177,-0.0915 0.17298,-1.55695 1.203149,-0.18306 2.659797,-0.58609 1.007705,0.95047 -0.263503,0.16824 -0.752998,1.13835 -1.180685,0.60648 z m -1.155811,-1.85894 c 0.437458,-1.09533 -3.878383,-0.55182 -2.063287,-1.36093 -0.13482,-1.29217 1.161453,-4.58709 0.888497,-1.40468 -0.82667,3.67876 3.532596,-0.592 1.44366,-0.64389 -0.93879,0.0781 1.51562,-2.36304 1.633709,0.072 1.847259,3.47859 -0.808563,-4.48517 1.945519,-3.39032 2.341003,0.13002 -1.228907,-2.46008 0.514835,-2.27153 0.928131,-0.23098 2.609649,-0.51987 1.393793,-1.6228 -1.38447,0.65684 -0.664558,-3.34897 0.726216,-0.87279 3.266429,0.59896 -0.40027,2.49431 -1.571863,3.45979 0.370967,0.19747 4.649106,0.83973 2.756758,3.38985 -1.300895,-1.22073 -1.937675,0.77338 -3.51542,0.24864 -0.454977,1.52673 -0.443849,3.71909 -2.077267,2.86905 -0.790159,0.3354 -1.276121,1.3199 -2.07515,1.52758 z m 28.992061,-1.72538 c -2.23025,0.35452 -0.56697,-2.53634 0.25809,-0.42862 0.49375,0.23478 2.24506,-1.42128 1.20826,0.13492 -0.33989,0.27532 -1.0924,0.90496 -1.46635,0.2937 z m 6.75802,-0.70231 c 0.3961,-1.94916 2.34538,-0.13563 0.0777,0.40213 l -0.0672,-0.10348 -0.0105,-0.29868 z m -33.690276,-5.27688 c 0.215358,-2.50856 -2.025552,0.9494 -1.217361,-1.31129 1.877047,-2.83207 1.835364,1.17633 1.217361,1.31129 z"
         id="path4274" /><path
         style="fill:#e8b375;stroke-width:0.264583"
         d="m 90.273774,268.32598 c -4.233293,0.43501 -2.104056,-4.45397 -1.547917,-6.87339 -0.173284,-3.34923 2.218216,-6.31001 1.398523,-9.5644 -1.436768,-2.53383 -0.07411,-5.21547 -0.927197,-7.76645 0.740682,-1.47182 1.52984,-0.55711 1.756924,-0.22779 0.596073,-1.40875 -1.695442,-3.52085 0.0062,-3.72813 -0.826278,-1.40622 0.539529,-3.01949 1.545194,-1.03659 1.4409,-2.02537 1.220895,-4.81979 1.382511,-6.5569 -1.869768,0.69576 -4.21265,-3.79552 -0.799953,-2.97595 1.28726,0.81594 2.400478,1.58538 1.661467,-0.70179 -0.25202,-1.46611 -1.490641,-5.74706 -2.118282,-5.24348 0.733998,0.92907 -1.622601,-1.05795 -0.574554,0.55407 1.826974,0.56828 1.395707,1.29269 -0.460142,1.10703 -0.340229,-1.5554 -3.477102,-3.35188 -0.951776,-4.77847 1.632875,0.66527 0.113917,1.15845 2.114427,1.39055 1.399641,1.16327 0.271256,-3.98645 1.251125,-0.97348 0.673329,0.72168 1.151506,2.0093 1.091522,2.63415 -1.469076,-0.14776 0.540432,3.82608 0.82296,5.10556 2.818191,2.73555 -1.048869,5.08068 -1.405615,7.9092 -0.340849,2.16032 -1.307313,3.65051 -3.338446,4.19892 -0.898998,2.06872 3.348458,-1.05809 1.852743,1.48346 -1.998196,1.987 -1.666755,5.24552 -2.192339,7.65026 0.910546,-0.49049 2.646096,3.50736 2.655596,1.48617 -2.342326,-1.06128 1.734794,-0.67356 0.958235,-2.12036 1.284294,1.93509 -1.513511,3.05485 -0.227232,4.70884 -1.535581,2.67242 -2.487864,5.51459 -3.101612,8.51097 -1.402095,1.91457 1.00946,5.20593 0.238901,6.18975 l -0.498875,-0.14897 -0.592398,-0.23271 z m 1.299144,-29.34473 c -0.660423,-1.2812 -0.512013,1.72688 0,0 z m -6.842287,29.27487 c -0.373732,-2.89229 0.08074,-6.07721 1.052372,-8.87145 1.362892,-2.43679 0.740521,-4.93151 0.448033,-7.48972 0.208306,-2.62604 -1.294959,-4.13475 -3.495622,-4.97266 -1.081192,-1.33877 1.364448,-2.64128 1.212873,-0.56085 1.55591,0.64468 0.100383,-1.42619 1.113792,-1.06745 -0.59621,-1.33575 -1.29046,-3.41059 0.623857,-1.56475 2.491771,0.51137 -0.21832,5.05158 2.415471,4.19906 1.158037,1.05146 0.647067,5.33325 0.894445,7.548 -0.887697,2.93269 -0.6148,4.81483 -1.729448,7.48735 -1.052773,1.64364 1.476983,6.32853 -1.629413,5.1793 -0.264347,0.14784 -0.613385,0.31745 -0.90636,0.11317 z m 3.143671,-12.52436 c 0.721166,-1.14103 0.297714,-3.15316 -0.503988,-0.96675 -0.501079,1.02761 -0.09175,3.32684 0.503988,0.96675 z m 6.056016,-6.94531 c 0.336212,-1.7633 -1.358949,-2.85535 -1.064745,-0.39688 -1.412352,-1.62181 -0.03469,-5.50936 1.658689,-3.31947 0.420444,-1.95017 -1.15352,-5.17431 0.835269,-5.80865 0.09455,0.72788 0.987558,-1.77484 1.067527,0.54207 1.216722,-0.11667 3.39487,3.54153 0.917909,2.24151 -0.598789,-1.27776 -3.799795,2.72061 -1.739103,1.40228 0.311626,-0.27278 2.275754,2.77588 1.245869,3.93336 -0.17853,2.23553 -2.783259,-2.22352 -2.614704,0.67527 -0.258788,-0.56487 0.01331,0.96567 -0.306711,0.73051 z m 2.313797,-1.57609 c -1.233266,-1.44959 0.221648,1.64996 -1.3e-5,0 z m -1.231614,-5.69995 c -1.485704,-1.57664 0.822133,2.05851 0,0 z m 1.190625,0.0441 c -0.622487,-1.1505 -0.874906,1.4582 0,0 z m -8.554246,4.45382 c 0.547971,-2.43299 -0.366624,-4.98723 0.359645,-7.08738 0.04443,-1.45138 2.52204,-0.39323 2.150964,-2.64772 0.37709,-1.18006 -1.399263,0.74148 -1.680795,-0.94046 -2.440071,0.24159 -2.055839,-3.78746 -0.241072,-1.83436 0.858772,-0.97741 -0.917176,-2.54791 0.899913,-1.6266 1.332006,-1.39037 -1.896036,-2.53982 -3.362224,-1.10654 -0.701979,-1.0627 -2.879737,-2.77338 -0.150408,-2.39939 1.417514,0.88945 3.115755,0.0479 1.264553,-1.26533 -1.292583,-1.56263 -1.012976,-4.50651 -3.492929,-4.50448 0.490383,-1.67391 -3.180071,-4.14936 0.112087,-4.47212 0.58097,-1.87117 2.5422,0.90008 3.028259,-1.59839 0.538616,-1.07762 -1.643246,-2.09282 -1.091685,-3.6207 -1.977603,-3.74019 4.218186,-1.32496 4.22776,0.95682 2.329254,-1.24193 4.110993,-4.33262 0.236768,-4.40829 -3.155154,0.49447 0.216933,-2.24058 -1.103088,-3.62558 0.792036,-1.38443 3.953105,1.42378 2.087867,-1.25073 -0.951222,-1.47798 -2.735848,-3.12316 -3.356463,-2.90919 0.554566,0.014 -1.079435,-1.29165 0.730562,-0.88056 1.385045,-0.38512 2.844241,4.51092 4.012447,2.27153 1.823248,0.0962 -0.783774,2.83756 1.135332,2.24974 0.49781,-2.20728 0.115067,2.76145 0.678404,0.93203 1.649478,-0.57653 -0.860115,2.81646 -0.351909,3.99821 -0.211543,2.53351 -4.836449,4.03681 -3.151608,6.07168 -1.89448,0.21044 1.146371,1.975 -1.201567,2.6075 -2.370751,1.99251 -0.891734,-4.57477 -2.594333,-1.05619 -0.627942,1.82875 0.541368,3.7835 -0.358738,5.63999 0.173143,1.34789 0.504371,2.8033 1.695844,1.35622 1.602544,0.24777 4.093023,2.70516 1.298276,3.28333 -2.047172,0.5964 2.968136,3.36394 1.772553,5.35291 0.289198,0.63832 1.623986,0.17564 0.968656,1.66914 -1.298207,1.3062 -1.947495,3.82357 -2.842987,5.45686 0.470031,0.0495 -0.948197,1.3525 0.391012,1.69487 -1.356353,0.96935 -0.836808,4.95108 -2.010139,4.81067 l -0.03676,-0.47543 -0.02419,-0.64154 z m 1.542788,-12.17083 c -0.91463,-1.82481 -0.716229,1.77353 0,0 z m 0.694187,-0.83908 c -0.670895,-2.28931 -0.494694,2.9868 0,0 z m -2.281687,-3.11405 c -0.990713,-1.66312 -0.91098,0.98259 0,0 z m -6.831582,15.15369 c 0.86085,-1.0783 1.415733,-3.94831 -1.003265,-3.64176 -0.09583,-1.28708 2.791538,0.64697 2.346959,-1.86654 0.769256,-0.22862 -0.456786,2.32367 0.851112,0.47905 1.245765,0.33563 0.845605,2.69429 -0.660357,1.6373 -0.672638,1.02539 1.280618,4.041 -1.534449,3.39195 z M 99.667853,241.408 c -0.318896,-0.57822 -2.761856,-3.31534 -1.388195,-2.47684 1.453271,3.06661 1.818372,-0.47452 1.719247,-1.05468 2.351685,1.15496 2.537725,4.01967 -0.331052,3.53152 z M 86.28418,240.19824 c -0.964144,-1.17824 -0.75032,-2.42015 0.264837,-0.81563 0.265774,1.10659 0.343342,3.26863 -0.264837,0.81563 z m -6.869975,-0.75167 c -2.222766,-1.03469 -3.809322,-2.80412 -2.409334,-5.04555 0.129762,-1.19556 0.469127,-2.52325 -0.893532,-3.09936 -1.622754,-3.0508 -3.635664,1.92285 -0.714751,1.26537 1.916015,-0.11211 -0.900229,1.79302 -1.441904,0.0267 -0.809721,-1.85973 -1.308867,-3.25301 1.052515,-3.8925 0.729285,0.32295 2.074025,1.64444 3.476036,0.64995 0.04612,-1.14392 1.10219,-2.481 -0.461668,-2.9729 0.98837,-0.76793 3.156607,-1.25711 2.152198,-3.10109 -1.336273,0.30249 -0.943818,-1.86533 -2.094601,-0.50167 -0.90312,-1.28232 -0.681699,2.19771 -1.326529,0.0156 0.850557,-1.58099 -2.613014,-2.34153 -1.222308,-2.65505 1.653701,0.83763 -0.798095,-1.95664 1.605588,-0.59265 1.766495,0.17813 -2.366955,-1.58849 -2.57639,-2.44044 -2.350281,-0.18334 -6.396863,-1.08607 -4.283887,-4.35843 1.224894,0.40782 3.444633,2.97453 2.41646,0.10852 -0.625376,-2.08263 2.565239,1.62321 2.476624,-1.37289 1.34964,-3.22496 0.07851,1.60051 0.799739,2.31409 1.946909,1.39204 -1.903661,2.84535 0.266596,3.73456 1.071086,1.16364 2.453665,2.04341 3.681849,1.2358 2.19497,0.93568 0.300972,3.54636 1.508498,5.40946 1.196882,1.40005 0.0446,3.51 2.19257,3.97248 -0.599349,1.68481 -1.678468,2.67729 -3.176986,0.72342 -1.94817,-1.36081 -1.220696,1.94676 0.01536,2.36731 -2.022747,0.17556 -3.580894,3.24817 -0.699646,2.99704 0.809382,0.56194 0.474776,2.12122 1.729985,2.64582 0.474711,1.9222 -3.083415,1.00565 -1.062927,2.94357 0.0591,0.80907 -0.85657,-0.30431 -1.009556,-0.37718 z m -1.391851,-8.81987 c -0.82266,-1.06361 -3.081921,-0.16355 -0.736936,0.32242 0.09836,0.51802 0.74234,-0.0585 0.736936,-0.32242 z m 0.321397,-8.82775 c 0.900146,-0.39311 1.623401,-2.17761 -0.0041,-0.75909 -2.051979,-1.1074 -0.660458,2.02467 0.0041,0.75938 z m -2.858611,-7.47609 c -1.310957,-1.73109 -0.460081,2.11223 0,0 z m 22.305486,23.20227 c -3.066963,-0.65254 -1.323715,-3.88159 -0.324701,-5.44087 2.287736,1.2508 1.330363,-4.06404 -0.443431,-4.29148 -2.051338,-1.68017 -0.771148,-4.81639 0.211871,-6.30902 0.757541,1.42148 0.600826,0.76838 1.182744,2.0626 0.251924,1.12173 2.005931,-1.85573 3.376741,-0.89585 2.81362,-0.66042 0.10146,1.26296 -1.30154,0.96894 -2.321511,0.81628 1.59823,2.14361 1.12734,3.81427 -0.0527,1.14446 -3.234658,3.47436 -1.25816,3.80645 2.90464,-1.40463 4.30666,5.89282 0.53799,3.44608 -0.61807,-0.3032 -1.087541,4.92067 -3.108854,2.83888 z m -0.132292,-1.1741 c -1.509517,-1.09707 0.114465,1.48744 0,0 z m 1.178891,-1.16562 c 1.0562,-1.38735 -3.11183,0.0549 -0.574237,0.17228 l 0.57424,-0.17228 z m 8.346105,-0.58502 c -2.25427,0.12338 -2.39561,-2.05179 -3.18707,-3.63549 -0.16037,-1.43351 2.07535,-2.8146 -0.021,-3.10196 -0.0638,-1.32158 0.70863,-2.11567 -1.03151,-2.36656 -0.23546,-3.00341 4.1871,-1.38291 4.24099,0.54495 2.21282,-0.15752 0.57392,-3.53618 -0.30158,-2.72102 -0.28831,-2.68495 2.75435,-0.0947 1.97067,1.32042 0.75523,1.64981 0.17299,2.00017 -0.87673,1.94226 -1.01998,-0.20517 -3.06829,2.45277 -0.56964,1.74094 1.74869,-0.21211 1.01872,3.63137 2.12136,1.1038 1.5098,-1.70463 1.67839,-3.92562 1.49148,-5.11521 1.06488,-0.64919 0.23633,-2.72677 0.63875,-3.175 0.18787,2.18675 1.73222,3.76101 2.21968,5.35584 -0.15532,1.41524 1.2771,2.66403 -0.54659,3.24929 -0.3973,2.86529 -2.54017,-0.0368 -3.52083,0.16848 -1.01178,1.07488 -2.97999,2.23755 -0.92054,2.65129 0.015,0.47715 -1.35589,2.9779 -1.70742,2.03797 z m -3.17255,-12.13847 c -0.4833,-1.17666 0.0411,-3.69864 -1.65609,-2.58845 -2.649451,0.009 2.31086,0.96996 -0.1416,1.18043 -2.453119,0.40415 -1.34006,-2.36466 -3.163463,-3.02304 0.597634,-0.56178 2.468053,-2.53563 2.964983,-0.6157 -1.03871,1.14229 -0.63864,2.83908 0.61731,1.07647 0.34631,1.36846 2.97016,-0.17342 3.5892,1.50892 -2.07601,0.28453 1.30222,3.62259 -1.71665,2.59581 l -0.4937,-0.13449 z m 1.14683,-2.17277 c 0.11867,-2.23217 -1.22802,1.90983 3e-5,0 z m 4.94475,-0.84881 c -1.08488,-0.8393 -2.12376,-2.7675 -1.91099,-3.70859 1.47274,2.30934 1.81933,-3.6437 3.32726,-1.04597 -0.71895,2.16392 2.55316,3.73524 0.81869,5.30768 -0.88657,-0.84944 -2.0196,-0.45091 -2.02513,-0.10195 l -0.20987,-0.45117 z m -15.105657,-0.89708 c -0.257849,-2.52231 -2.306142,1.67785 -2.796413,-1.10994 -1.074403,-0.90133 0.47317,-5.35394 1.603452,-2.49083 0.951548,-2.09094 1.511805,0.46381 2.40318,-0.15205 2.199012,-0.79796 -0.311481,-2.99988 1.078109,-4.11099 -2.02155,-0.0677 1.025721,-0.47561 0.798675,-1.60985 1.810685,-0.0856 1.093667,4.61159 2.864314,1.62628 1.43567,-1.19774 -3.694209,-3.4848 -0.79929,-4.01254 0.85564,1.2776 1.99918,2.75551 3.32741,2.97014 -1.92966,1.63678 -3.4744,3.85393 -5.198524,5.64811 -0.66016,-2.19776 -3.908481,1.71154 -1.979438,2.91135 -0.655598,0.92267 -0.973103,2.24712 -1.301475,0.33032 z m -1.307119,-0.97765 c -0.02356,-1.5863 -1.598435,1.27597 0,0 z m 9.381706,-0.1501 c 1.01394,-0.85627 0.60389,-1.55854 1.88107,-2.77339 0.0802,-1.31908 -2.80911,-4.44653 0.0175,-2.79653 1.73656,-0.0854 0.66255,-3.34585 1.67566,-1.04044 -0.0516,1.80059 -3.25342,3.5805 -0.16601,2.85372 0.15204,-2.12007 0.41897,-1.54212 0.88798,0.0306 1.20056,1.22996 -2.10437,0.88731 -0.5018,2.15258 -1.3349,2.14017 -1.26809,-2.34336 -2.33238,0.46688 -0.3087,0.29089 -0.90995,1.94638 -1.46201,1.1066 z m 7.4695,-5.31455 c -1.18163,-0.98596 0.17653,-3.51263 0.87473,-1.28222 0.77514,-0.8009 0.64918,-5.40811 1.84453,-3.63521 -0.72867,1.5525 0.0787,4.75432 -0.26033,4.33781 -1.46663,-1.45489 -0.92523,1.56341 -2.45893,0.57962 z m -33.344447,-1.13271 c 0.294096,-0.80705 -0.232435,-2.19057 1.55698,-1.74755 1.102192,-0.79179 -1.231545,2.6153 -1.55698,1.74755 z m -1.233842,-2.11326 c -0.776321,-0.56693 -3.052945,-0.19404 -1.848472,-1.93885 -0.252108,-1.5645 0.939632,-2.88064 0.522426,-0.44245 -0.75804,3.03974 3.932384,0.22994 1.689072,-1.31788 1.300948,-2.29122 2.202521,4.12259 2.330712,0.63329 0.305082,-1.92612 -1.293936,-4.17595 1.459062,-3.38155 1.796874,-0.40328 -1.978757,-3.03905 0.746451,-2.13523 0.248065,-1.42624 1.04221,0.44244 -0.02236,0.95201 2.844014,-0.93988 4.476111,4.30466 1.004267,2.72532 -0.539737,0.20057 1.065473,0.14731 -0.313532,0.70465 -3.057554,-1.40573 -0.67546,3.55016 -3.569776,2.89841 -0.635602,0.0946 -1.527004,1.87842 -1.997852,1.30228 z m 33.896629,-0.85884 c -0.77832,-2.01833 -1.21319,2.13489 -2.3557,-0.28684 1.12841,-1.31049 -1.47319,-2.13344 -1.38133,-2.30626 -0.89916,0.72928 -0.87848,-2.10741 0.44515,-1.88317 -1.02466,-3.00557 1.87038,0.45446 1.02735,2.11159 1.5714,1.79716 2.68575,-4.85462 3.18273,-1.09314 -0.76585,1.4789 0.59386,4.0529 0.70997,4.33943 -0.59592,-0.64394 -1.00419,0.38631 -1.62817,-0.88161 z m -5.04399,-0.73356 c -2.08876,0.0466 -0.46173,-2.16015 0.45722,-0.32037 1.64472,0.21059 0.0912,1.19481 -0.45722,0.32037 z m 6.97842,-0.50039 c 0.93935,-2.70117 0.93469,0.40906 0,0 z m -35.140174,-5.95001 c -0.05059,-1.79017 2.582943,-1.98331 1.303026,-0.51064 0.330866,0.9493 -1.031327,-1.30867 -1.100302,0.57331 l -0.105666,0.027 -0.09706,-0.0896 z m 5.595194,-1.77179 c 0.0036,-0.57753 -2.648082,-1.70197 -0.657219,-2.12689 0.938179,0.84355 3.762851,1.43716 1.221687,2.61532 -0.411151,0.2418 -0.805382,-0.0243 -0.564468,-0.48843 z"
         id="path4272" /><path
         style="fill:#e6ab66;stroke-width:0.264583"
         d="m 90.950618,268.58116 c -2.326111,-0.067 -4.455169,-1.22783 -2.5527,-3.82508 -0.327607,-2.15888 1.139806,-5.33107 0.968186,-7.87075 2.691538,-3.11471 -0.838776,-6.55211 0.41687,-9.95096 -0.670671,-0.89341 -0.721496,-4.24608 0.73161,-3.17497 2.225352,1.08726 -1.5446,-3.53175 0.470865,-3.15485 0.972632,-1.29579 0.274303,-1.80618 0.149082,-2.22148 1.424373,1.29915 1.695079,1.01589 2.105639,-0.91385 0.70336,-2.3038 1.571928,-4.98742 -1.005791,-5.60235 -3.060762,-2.08353 1.379357,-3.06088 2.657382,-1.20435 -0.103945,-2.43736 -0.513994,-6.28269 -2.660488,-7.5764 -1.132208,1.13364 0.142966,3.65891 -0.942786,0.87264 -2.139036,-0.007 -1.986156,-4.54298 0.231296,-2.90332 -0.88912,0.46982 3.020459,2.49262 2.011758,-0.0888 0.118512,-2.29722 1.168667,2.51487 1.04632,3.23654 0.118543,2.72502 2.374501,5.14028 2.305998,7.53862 -1.913761,2.33574 -2.191026,5.50729 -3.925638,7.86347 -1.876745,0.24423 -3.048611,3.28935 -0.436894,1.86896 0.953799,1.59033 -1.306893,-0.67917 -0.491814,1.54858 -0.275016,2.81867 -2.506787,5.51791 0.06093,7.80071 0.500643,1.61768 2.711661,1.20264 0.720006,0.1383 -0.345487,-0.20111 2.550076,-1.56221 1.863482,-0.27477 -0.419248,1.21132 -1.36139,2.64889 -0.532884,3.727 -1.715139,-0.42247 -0.238735,1.87402 -1.82432,3.30832 -1.24392,2.22117 -0.404883,3.13767 -1.45016,5.96809 -1.002338,1.41626 1.77908,4.99321 0.08405,4.89068 z m 4.13622,-35.67937 c -1.601233,-0.79461 0.906548,1.40067 -2e-6,0 z m -8.371498,35.41285 c -2.102552,0.3066 -2.885994,-1.43472 -1.560737,-2.92992 -0.798237,0.35331 -0.420941,-3.12275 0.527557,-2.04275 0.970692,-1.46532 1.286904,2.97564 1.494184,3.94479 0.03142,0.23066 0.202536,1.3959 -0.461004,1.02788 z m 0.807722,-9.58882 c -1.385751,-0.95264 -1.138416,-2.81237 0.614132,-2.03995 1.254417,-1.13445 -0.940239,-1.02464 0.213951,-2.58707 -0.441575,-1.24598 -1.878199,1.82171 -2.011352,-0.46322 -0.398985,-2.48036 0.49935,-6.16461 -3.038921,-6.15911 -0.562222,-0.63213 -1.191211,-2.33741 0.239263,-2.00406 -1.315852,0.49985 0.398835,1.3038 0.869294,2.00086 0.548432,-0.6921 1.08578,-1.87215 1.607249,-1.71765 0.290245,-0.86012 -0.462997,-0.62122 -0.413415,-1.70958 2.464049,-0.12108 -0.179354,5.24796 2.833595,4.0096 0.329547,2.99481 0.794893,6.19329 0.167766,9.16538 -0.638315,0.44654 -0.254666,3.64802 -1.081562,1.5048 z m 6.43045,-10.60083 c 0.156339,-1.59307 -1.072976,-2.58902 -1.513753,-2.64583 0.626462,-2.39725 2.364672,1.41045 2.145406,-1.05691 -0.238353,-1.66657 1.510905,-2.58621 0.157443,-0.52452 1.153467,1.00983 -0.273713,1.52375 -0.545755,2.13547 1.815767,0.60154 1.722071,-2.30777 1.78805,-1.97361 1.624795,0.84294 0.742086,4.70498 0.04521,3.66104 0.857717,-0.91407 -2.719407,-1.75255 -1.902669,0.53664 l -0.102449,0.30345 -0.07149,-0.43574 z m -1.582794,-1.12448 c 0.623027,-2.24407 0.373498,1.67384 0,0 z m -4.435821,-0.065 c -0.698486,-2.30877 0.756744,-3.77337 -0.04904,-6.17905 -0.668382,-1.21488 1.283162,-1.92321 0.253014,-2.55998 0.835453,-0.31101 1.810529,0.85256 1.847832,-1.09971 0.400637,-1.52199 0.374994,-1.67591 -0.714162,-0.98784 -0.840605,-0.83912 -4.071352,-2.39192 -1.775048,-3.18958 1.922632,2.25006 -0.05127,-2.60372 1.312377,-1.03201 1.69805,0.55764 -1.716562,2.4795 0.522531,2.63531 0.519409,-0.6106 1.359908,-2.16114 -0.189743,-3.20625 1.260199,-0.007 -1.319949,-2.67826 -2.131509,-0.92666 -1.347363,0.97829 -2.379163,-2.06202 -0.847047,-0.26659 0.852422,-0.44051 2.325986,0.0204 0.617506,-1.20418 0.861179,0.22527 2.41366,-0.0707 0.662179,-1.19701 -1.606489,-1.93812 -1.564125,-5.14442 -4.241869,-5.5105 0.634345,-1.36603 -2.647449,-3.67569 -0.111905,-3.99285 0.918411,-0.0319 1.263133,-2.00781 2.494416,-0.14853 1.593166,-1.2639 0.652231,-2.66616 0.01183,-3.94423 -0.236444,-1.55031 -1.625603,-3.98896 1.355111,-3.15049 2.011559,0.48456 2.1477,4.66594 4.006452,1.80581 3.389414,-2.07501 -0.207868,-3.6052 -2.557178,-3.61582 0.538438,-1.2942 1.178734,-2.14414 0.497498,-3.52383 1.182641,-0.84543 3.929998,2.01196 2.186732,-0.74484 -1.045717,-1.45578 -2.356576,-3.51788 -3.311778,-3.20581 -1.343596,-1.66963 2.337932,-0.57722 2.60634,1.04428 0.805876,0.86481 1.602862,1.86982 1.952859,0.70095 1.545971,0.15992 -0.929051,2.47167 1.447713,2.18508 -0.726675,1.59768 0.720069,0.75079 0.696021,0.34787 -0.605847,2.25395 -0.610666,5.41513 -2.728963,7.28898 -1.254083,0.86486 -2.195289,1.99388 -1.068997,3.04689 -1.850898,0.18387 0.849787,1.94756 -1.339463,2.54252 -2.067765,1.84254 -1.021052,-4.38516 -2.552998,-1.02469 -1.026195,1.65282 0.99939,3.49207 -0.426046,5.22035 0.14038,1.36484 0.45452,3.99273 1.732432,1.81144 1.756841,0.1987 4.154278,2.89662 1.073347,3.21246 -1.823938,0.85079 3.209027,3.25448 1.956259,5.4531 0.478858,1.0119 1.387386,-0.4278 1.107995,1.52909 -1.241824,1.99977 -3.54133,4.62197 -3.130695,7.04479 1.571077,0.26293 -1.587722,2.76341 -0.723389,4.2088 -0.175291,0.27498 0.320838,1.67194 -0.440619,0.63273 z M 81.21062,244.9825 c 0.361409,-0.68833 1.135341,-3.70719 -0.205617,-3.4456 -2.079568,0.14374 -0.676499,-0.93013 0.585837,-0.62781 1.095542,-2.21322 0.381633,-1.03307 0.75203,0.36106 -0.522312,0.53187 0.771232,4.60681 -1.13225,3.71235 z m 14.595631,-2.46969 c 0.817184,-0.91795 1.704268,-3.51207 2.354792,-1.02886 0.866358,1.72813 -0.965341,0.15276 -1.290544,0.21543 -0.392784,0.20251 -0.60965,0.71584 -1.064248,0.81343 z m -12.670856,-0.83499 c -0.404248,-0.43625 0.858931,-1.58768 -0.464226,-0.76509 0.652018,-2.43805 1.683863,1.8169 0.464226,0.76509 z m 16.70164,-0.30385 c -1.359834,-1.52737 1.188955,0.13682 0.09004,-1.27723 0.797365,-0.86265 0.259645,-1.67227 0.06817,-2.1773 2.294645,0.97928 2.382595,3.70014 -0.158208,3.45453 z m -13.552826,-1.25263 c -0.422206,-1.12078 -0.794405,-2.30062 0.232611,-0.72357 0.03131,-0.15982 -0.08766,1.5164 -0.232611,0.72357 z m -6.802723,-0.66409 c -1.385667,-1.06619 -2.727155,-1.28452 -2.75539,-2.75051 -0.947147,-0.98717 1.435966,-3.97286 0.698612,-4.62834 -1.163307,-0.43873 -3.71062,-3.5692 -3.524843,-0.27734 0.433864,1.73653 -2.125706,-3.36451 0.564646,-2.39643 0.864031,-1.76457 1.348158,1.21384 3.148646,0.28476 1.498749,-0.0122 1.837205,-2.68586 0.521641,-3.50033 2.184778,-0.29267 2.902514,-2.48614 1.267286,-3.59641 -0.01102,-1.28117 -2.063147,0.50507 -0.412718,-1.33673 1.866346,-1.23959 -3.464768,-0.46758 -1.450858,0.70021 -1.039698,0.72612 -0.75342,-2.05074 -2.330906,-1.30237 -0.175892,-0.67426 2.138687,-0.0651 0.494479,-1.30051 1.316733,0.0364 3.374439,0.843 1.061982,-0.48601 -1.481956,-2.15673 -3.963669,-2.13043 -6.373578,-2.72215 -1.353519,-1.68372 -0.0127,-5.04366 1.785939,-2.1203 1.995684,1.6748 -0.771284,-3.00498 1.237376,-1.43615 1.676849,1.68812 2.213445,-3.34548 2.450043,-2.18308 -1.137746,2.248 1.621002,4.30869 -0.289476,6.0851 0.273552,2.01723 3.203796,2.86285 4.571277,2.38896 1.913764,1.54038 -0.05987,5.23908 2.175299,7.14856 -1.513375,1.57858 2.555822,1.47903 0.657164,2.99365 -0.551529,3.03667 -4.025463,-3.10489 -3.791652,0.72398 1.412124,1.0202 1.450485,1.9589 -0.421071,2.2092 -1.865468,1.62039 0.227604,2.4339 1.594387,2.54141 -0.739067,0.73074 -0.569317,3.08003 0.117968,1.87539 -0.06073,-0.92327 1.86766,0.71905 0.260414,1.09765 2.340123,0.62331 -2.658813,0.60813 -0.411598,1.93666 0.448491,1.34637 -0.504327,0.40393 -0.845069,0.0511 z m -1.326735,-8.79064 c -0.37148,-1.27883 -3.997953,-0.25157 -1.072801,0.38606 0.506949,0.2894 1.016579,0.36177 1.072801,-0.38606 z m -2.565204,-16.04448 c 0.7148,-1.98817 -2.55683,0.95269 0.02278,0.16115 z m 22.621745,25.01683 c -1.437431,-1.90844 1.358082,0.52952 0.466168,0.37749 z m -0.732374,-2.36076 c -2.667154,-0.46954 -0.948751,-4.79971 0.512939,-4.99132 1.818763,-0.0711 0.443785,-4.22124 -1.113426,-4.72034 -1.818643,-1.70777 -0.513,-4.73872 0.38228,-5.98938 0.742028,0.25866 0.04989,2.34409 0.848843,0.99028 0.224659,3.05908 2.076346,-0.93191 3.916606,0.0823 2.95947,-0.0882 -1.71119,0.81301 -2.344461,1.48317 1.888921,1.3784 2.722791,4.52628 -0.04282,5.65812 -0.506645,2.79851 2.477961,0.16158 3.152141,2.73876 1.78451,2.13872 -1.22188,3.20394 -2.35636,2.16321 0.0598,1.21031 -1.136577,4.34938 -2.625431,2.77415 -0.110104,-0.063 -0.220209,-0.12598 -0.330313,-0.18897 z m 1.766916,-0.53029 c -0.677317,-1.79949 -0.517319,1.74344 0,0 z m -0.955209,0.0472 c -1.235826,-2.91984 -2.130446,1.06547 0,0 z m 1.079296,-1.62142 c -0.360253,-1.85157 -3.835384,0.0765 -1.053626,0.24482 l 0.666354,-0.0587 0.387272,-0.18613 z m 7.717149,-0.67625 c -0.74469,-0.31483 -2.55169,-0.0149 -2.15102,-1.76245 -2.66556,-1.64402 1.77942,-4.58582 -1.15989,-5.25037 1.9849,-1.92753 -2.6869,-1.79681 -0.2172,-3.31663 1.58247,-1.76123 2.7395,1.48787 2.83062,0.93826 0.0321,-0.63883 0.47385,1.62976 1.5202,1.38906 -1.72531,0.18788 -2.5319,2.58627 -0.0645,1.9084 2.39154,1.42686 -1.32288,3.16914 0.25023,4.86011 0.0908,0.34474 -0.50152,2.11896 -1.00841,1.23362 z m 4.22366,-3.96493 c -0.77866,-1.24708 -2.95732,-0.13476 -1.1294,-1.90917 0.33846,-1.0371 1.43527,-3.39823 1.52975,-3.29193 -1.31676,0.0512 -0.9206,-1.75447 0.33477,-0.26859 2.5754,-0.15813 1.50703,2.53683 2.34173,4.09078 -1.84571,-0.58361 -0.9952,3.51993 -3.07685,1.37891 z m -2.75156,-4.15626 c -0.91655,-1.17648 0.24782,-2.73495 0.47454,-0.58869 0.36597,0.54914 0.21594,1.34041 -0.47454,0.58869 z m 3.67605,-1.98269 c -0.30177,-0.70419 -1.40374,-0.10885 -0.47747,-1.04979 0.66892,0.11557 1.28657,2.72096 0.47747,1.04979 z m -11.52262,-3.61177 c -0.11213,-1.38309 -0.744284,-1.90474 -1.564127,-2.9472 1.073007,0.0756 2.073707,-2.1767 2.827227,-0.37973 -1.14123,1.06015 -0.93734,1.97672 -0.37902,2.6777 -0.0259,0.17897 2.40867,0.6923 0.1814,0.93634 -0.37672,0.1495 -0.77531,-0.0648 -1.06548,-0.28711 z m -5.426713,-1.69481 c 1.517116,-2.09493 -1.65924,-1.97679 -2.320851,-0.44431 -1.141965,-1.17448 -1.648971,-3.61194 0.04454,-4.75172 0.632539,2.14599 1.762912,-0.54052 2.821897,1.05825 2.484074,-0.75281 0.50488,-4.36443 1.876186,-5.04205 1.507195,-3.32491 1.507515,4.45496 3.173591,0.90026 1.9827,-1.51129 -2.854075,-2.45383 -1.379659,-4.22202 2.050639,1.48352 4.477939,3.74334 1.265599,5.49565 -0.784064,0.68535 -1.900464,3.83005 -2.632618,2.9181 0.558153,-1.72545 -2.759712,0.28951 -2.528474,1.55807 -1.023953,0.79168 1.699433,1.43567 0.217545,2.22522 0.15062,-0.26087 -0.481691,0.66032 -0.53776,0.30455 z m -1.418839,-1.61247 c -0.0092,-1.48813 -1.821885,1.51808 0,0 z m 14.943452,0.49899 c 0.0133,-1.16797 -1.39017,-2.50029 0.40111,-1.6391 0.001,-2.38354 3.04208,-2.89381 2.4656,-0.007 0.60881,2.02893 -1.68874,2.65782 -2.86671,1.64573 z m -1.65445,-3.31829 c -0.30842,-0.67038 -1.24888,-1.02846 0.39131,-0.71491 0.11238,0.17459 -0.14115,0.97395 -0.39131,0.71491 z m -1.91299,-2.16077 c -0.21735,-0.82448 1.66145,-1.53458 0.7438,-2.61363 1.38806,0.10662 0.23731,3.35218 -0.7438,2.61363 z m 5.31371,-0.37217 c -1.22024,-1.07683 0.35076,-3.39296 0.87156,-1.03894 0.75892,-0.62106 0.18564,-3.18554 1.56867,-1.55078 -0.19408,1.45685 -0.77532,2.51452 -2.44023,2.58972 z m -36.59422,-3.80865 c -0.34902,-0.75566 0.935534,-4.9026 0.498312,-1.41476 -0.787875,1.81593 2.606475,0.5328 0.322142,1.5566 0.284981,0.5932 -0.797115,-0.0808 -0.820454,-0.14184 z m 36.44483,0.19272 c -0.85533,-1.27479 -1.12497,-1.66548 -1.62189,-0.23153 -2.14781,0.55701 -0.3507,-1.70791 -1.34182,-2.34826 1.93533,1.84858 2.15239,-4.69588 3.30599,-1.66974 -0.44174,1.47236 0.13159,3.64082 -0.029,4.3072 l -0.3133,-0.0577 z m 1.99313,-0.66415 c 0.33726,-3.39606 1.7641,1.49443 0,0 z M 79.005209,207.2855 c 0.172331,-1.64362 -1.855398,-5.78386 0.840952,-4.79512 1.272641,-1.85961 4.935796,-0.98114 3.784156,1.66742 -1.249144,0.032 -2.368703,-2.56027 -2.413945,-0.90504 -2.314842,-1.56697 -0.73933,4.00637 -2.211163,4.03274 z m 4.365625,-4.82013 c -1.27673,-1.63029 -1.159398,1.1739 0,0 z m 21.281156,4.58793 c -0.59021,-0.18249 -1.27595,-0.33581 -0.22863,-0.78629 0.93762,0.61136 2.84158,2.09774 0.22863,0.78629 z m -27.483862,-0.26218 c -0.815581,-1.13404 -1.012532,-2.97373 0.403364,-1.51568 0.369846,0.60274 1.035828,3.26522 -0.403364,1.51568 z m 29.390362,-1.39634 c -1.35784,-0.38594 -1.21851,-1.80586 0.37854,-1.57575 0.52785,-0.049 -0.66332,-3.03405 0.3516,-0.55033 0.74506,0.65311 -0.0144,3.4974 -0.73014,2.12608 z m -26.441949,-4.71874 c -0.687227,-1.95703 1.837667,1.38477 0,0 z m -3.616071,-0.12209 c 1.040037,-2.20472 2.696696,-0.92047 0.262518,-0.0397 z m 5.743089,-1.48727 c -0.104242,-0.48236 -2.412458,-2.4016 -0.478165,-2.00948 0.08019,1.4253 3.292432,0.25088 1.408678,1.81148 2.100604,-0.74913 -1.700486,1.78286 -0.930513,0.198 z"
         id="path4270" /><path
         style="fill:#e5a65d;stroke-width:0.264583"
         d="m 90.250001,268.21719 c -1.042576,-0.0157 -3.674983,-0.3766 -1.832681,-1.61778 1.711782,-1.0173 1.531139,-3.03964 0.532869,-2.06048 -1.142956,-1.92612 1.257012,-5.38091 2.263361,-2.81809 -0.91419,2.30659 -0.541698,4.66613 0.408653,6.86056 -0.480988,-0.0146 -0.92623,-0.2089 -1.372202,-0.36421 z m -3.568544,0.0215 c -1.578905,0.23878 -3.073992,-1.05644 -1.423646,-2.26269 2.36869,0.26643 -1.502848,0.41881 0.757926,0.93675 1.273238,-1.36123 1.583893,1.84216 0.66572,1.32594 z m 4.362294,-8.9081 c -1.253071,0.0824 -2.777636,-1.42699 -1.400638,-2.56209 1.041206,2.24209 -0.04665,-1.86517 0.935919,-2.56117 0.268348,-2.03132 -2.36823,-5.86724 -0.351592,-6.8155 0.04054,1.32378 0.701846,1.80561 0.58559,2.78674 0.90592,-0.68433 3.197037,3.11885 2.443714,3.76725 -0.449668,1.54058 -0.590186,4.54155 -2.108279,5.65338 l -0.104717,-0.26858 z m -3.183591,-0.49 c -0.05541,-1.43279 -2.251977,-2.40322 0.277436,-1.96033 1.567951,-0.96216 -0.272127,1.67619 -0.277436,1.96033 z m -0.785159,-5.13509 c 1.601634,-0.6635 -2.038903,-1.831 0.01645,-1.4217 0.692881,-1.32335 -0.211859,-2.53739 -0.965896,-2.69717 1.426614,-1.45263 2.936683,-2.23309 2.5086,0.60323 -0.201731,1.82968 0.828433,4.0087 -1.559158,3.51564 z m 1.14876,-10.29049 c 0.348703,-1.27741 -1.10079,-5.16971 0.291032,-2.12807 0.118772,0.16798 0.325095,3.29404 -0.291032,2.12807 z m 11.809839,-2.26882 c 1.02993,-1.37382 -0.609984,-4.55954 1.41389,-1.76421 1.95134,1.57838 -2.117656,2.24003 -1.41389,1.76421 z M 79.402084,238.4677 c 0.34676,-1.14337 0.812993,-1.19182 1.968985,-0.63656 -0.660496,-0.26907 -1.850421,1.12352 -1.968985,0.63656 z m -1.758862,-0.13052 c -1.443646,-0.50398 0.317799,-1.6998 -1.39703,-2.1612 1.587754,-0.65181 0.506847,-3.17516 1.573697,-3.7937 -0.170588,-1.75219 1.569116,-2.88869 2.508218,-1.23665 -1.821834,0.23213 -4.624419,4.02433 -1.006983,3.07252 2.128687,-0.13621 0.223437,2.57035 -0.856658,1.74105 -0.350014,1.25755 0.934477,0.88216 0.162251,2.2561 0.05017,0.60235 -0.809538,0.19289 -0.983495,0.12188 z m 10.37826,-0.0348 c 1.086389,-0.89928 1.558533,1.01532 0,0 z m 5.30561,0.0887 c 0.659661,-1.89004 -0.157339,-5.33816 2.079125,-4.98506 1.612906,-2.95176 -1.654804,-1.22596 -3.131371,-1.57561 -2.706087,-2.3008 1.747587,-2.76416 2.696611,-0.99614 0.569108,-1.96404 -1.565688,-5.55946 -0.449762,-5.7211 0.393601,2.3826 2.614619,4.59095 2.33975,6.61212 -1.523273,2.03939 -2.197294,4.77537 -3.428032,6.7828 l -0.106286,-0.11704 z m -3.440266,-0.78324 c 0.511788,-1.42751 0.884002,-2.57977 -0.864883,-1.77579 -0.245071,-1.05033 -3.719097,-1.49086 -0.782724,-1.44053 1.276512,1.27254 3.386537,-2.02566 2.487032,0.55725 0.246146,-0.43845 2.262572,-0.52612 0.698346,0.36511 0.115618,0.59341 -1.470235,4.57517 -1.537771,2.29396 z m 8.102237,-0.0744 c -1.471925,-0.73105 2.233697,0.18693 1.488832,-1.77511 0.815245,-1.38608 -1.633785,-1.36557 -1.862884,-2.38469 -0.889622,0.73416 0.535923,0.62819 -0.469116,1.71011 1.525025,0.5795 1.613802,1.07823 -0.03208,0.81197 -2.25807,1.6896 -0.193204,-3.18996 0.47688,-3.61204 2.537695,1.00036 1.072373,-4.58944 -0.809445,-4.81137 -1.842266,-0.96107 0.203703,-5.09998 0.428421,-3.55162 -0.56275,2.10792 1.16707,-2.65602 1.064024,-0.75169 0.572155,2.54952 1.512546,-1.55349 3.415355,-0.46551 1.87607,-0.9322 1.38541,1.18273 -0.56755,0.58492 -1.339917,0.3019 -2.995198,2.13137 -0.8785,1.67744 1.98807,1.51693 1.10653,4.06351 -0.675322,5.11722 -0.163876,2.27879 2.773462,0.0182 3.243332,2.57756 1.60401,2.03063 -0.93571,1.14618 -2.19673,1.69098 -0.60236,0.64545 -0.34358,4.11455 -2.625214,3.18183 z m -17.264062,-0.9178 c 0.679047,-1.23942 0.578932,1.19227 0,0 z m 24.077079,-2.97068 c 1.09786,-1.48969 -2.20484,-2.77865 -0.0255,-4.45963 1.43169,-1.56869 -2.52794,-1.26288 -0.31367,-3.18857 -3.87915,-0.10585 0.93953,-4.17769 1.54448,-0.91413 0.24489,1.63114 3.12218,1.49587 0.53337,1.95096 -1.93042,1.95944 3.80228,1.16676 1.64013,2.83518 -1.97479,0.77264 1.73444,4.73603 -3.37877,3.77619 z m 0.79375,-8.50826 c -1.17427,-2.15049 -2.39611,-0.14423 -0.31351,0.2075 l 0.22902,-0.0543 0.0845,-0.15317 z m -15.467974,6.492 c 0.163176,-1.27856 -3.949406,-2.36049 -1.571885,-2.77659 -0.689863,-1.18843 4.415978,4.64259 1.571885,2.77659 z m 21.186694,-1.26797 c -1.12805,-0.85733 -2.63371,-0.3022 -1.04487,-1.74433 0.15616,-1.54084 1.38879,-1.81587 2.12574,-2.01293 -0.15358,-1.06336 2.50758,-0.74144 1.30996,0.43801 0.45833,0.82893 1.42291,2.61079 -0.32582,2.21189 -0.19873,1.58558 -0.83507,1.44539 -1.59139,1.20975 0.41237,1.07724 -0.24077,0.12758 -0.47362,-0.10239 z m -30.373451,-1.15571 c -1.441578,-0.77235 -2.144847,-1.24684 -1.793936,-2.79793 -1.804932,0.79858 -0.554667,-1.41853 0.869759,-0.77963 1.057537,-2.80799 2.329912,0.0114 2.008505,1.68518 1.652508,0.82589 1.062202,1.595 0.19262,2.81847 -0.499404,-0.19656 -0.885418,-0.57623 -1.276948,-0.92609 z m 7.48306,-1.78365 c 0.575454,-1.92744 -2.417945,-1.31029 -0.952283,-0.29411 1.104954,1.44073 -2.165159,-0.88335 -0.121743,-1.65186 1.193854,-1.90978 5.412231,2.37924 2.017875,2.54647 -0.372972,-0.035 -0.803218,-0.2238 -0.943849,-0.6005 z M 86.21682,225.4176 c -0.13918,-2.50614 1.061627,1.17428 -5e-6,0 z m 5.194577,-0.42441 c -0.357106,-1.95022 0.551295,-0.66902 0.154558,0.32468 l -0.154559,-0.32468 z M 80.6003,223.36275 c -2.195474,0.10581 0.284948,-4.40927 -2.658158,-2.60044 -1.778399,0.78885 -2.730467,-2.63776 -0.415047,-1.03623 1.663004,0.25623 -3.923631,-2.59997 -1.13306,-1.6671 1.252703,0.5542 2.514086,2.18389 3.250649,0.57733 2.590049,0.67533 0.473755,3.11645 1.499997,4.86938 l -0.09429,0.0984 -0.450071,-0.24137 z m 12.610687,-0.11827 c -0.889567,-0.21608 -2.315576,-0.71901 -2.872788,-0.20705 0.475876,1.74005 -1.868545,-3.20803 0.868031,-2.30815 -0.664385,1.20824 3.085141,1.88504 2.749301,3.02875 l -0.316336,-0.16063 -0.428204,-0.35295 z m -9.586692,-0.52636 c 0.03732,-1.53982 -1.196625,-2.3052 -1.423602,-3.54617 0.03662,-1.71465 1.770024,-0.26418 2.053511,-2.00321 1.13659,0.45684 3.679178,4.04327 1.374711,2.56706 -1.339526,1.14511 0.03385,2.12729 0.95137,1.18727 1.107629,2.11384 -1.869616,1.68791 -2.95599,1.79505 z m 17.473625,-1.77348 c -0.90504,-0.86136 -0.72171,-2.23302 -1.831197,-3.04262 0.512718,0.25205 1.588507,-2.14329 2.716757,-0.6606 -1.40193,1.28913 -0.80486,2.87105 0.14158,3.65636 l -0.45561,0.20068 -0.57153,-0.15378 z m 7.85632,-2.62236 c -0.0815,-1.15837 0.0245,-3.47192 1.88754,-3.96794 1.40883,0.93207 0.57065,0.95978 -0.18824,0.9862 2.34265,1.41285 0.37827,3.0883 -1.6993,2.98174 z m -23.040538,-0.31234 c 1.772223,-2.34832 -1.348542,-4.56135 -0.651063,-6.86571 1.466336,-1.52827 2.37062,1.45369 2.178582,0.87825 1.856528,-0.89406 1.566645,3.7136 3.268987,1.06617 1.032265,-1.19067 3.911974,-3.75482 1.110994,-2.67395 -0.636748,-1.98521 -5.176053,-0.29289 -2.407039,-2.89972 0.263034,-0.64758 -1.596452,-2.65755 0.909399,-1.82848 3.671687,2.5026 -2.24256,-5.24826 0.873238,-1.89068 0.832211,1.46649 1.199109,2.96632 3.133926,3.29598 -0.707811,2.84706 -1.423162,5.75679 -4.095108,7.65417 -0.6824,1.05419 1.543537,1.60956 -0.609784,1.8656 1.861072,1.1498 -1.272691,1.36391 -1.730155,1.35184 0.143813,-2.12924 -0.982589,-1.92017 -1.345278,0.0141 -0.111539,0.40039 -0.508471,0.25406 -0.636699,0.0325 z m 0.699307,-4.94886 c -1.355928,-1.48286 -0.540201,1.31887 0,0 z m -0.273309,-1.0347 c -0.981031,-1.51317 -1.817976,0.86198 0,0 z m 5.497801,5.01506 c -0.04664,-1.3625 0.881434,-4.47638 2.093122,-2.00935 0.888106,-1.80518 3.454864,0.83474 1.496046,1.74045 -0.890789,0.44233 -2.807047,0.6404 -3.589168,0.2689 z m -21.310985,-1.0513 c -2.175987,-1.83496 0.839015,-4.90149 1.261391,-1.48291 -0.640167,1.01028 1.907158,1.31538 0.209052,1.40261 2.003308,1.30301 -1.125105,0.73018 -1.470443,0.0803 z m 28.121368,-1.48268 c 1.229933,-1.19659 -0.873572,-2.48812 -0.828306,-3.83819 0.392368,0.40818 1.798517,0.98112 0.52906,-0.28931 -1.591236,-1.98986 1.757252,-1.01747 1.143772,0.86122 0.400578,1.54709 3.52772,-2.13424 1.00773,-2.21758 -1.39142,-0.78224 -1.436227,-3.72677 0.0627,-1.514 3.26141,2.16811 0.19157,4.09577 -0.960763,6.37363 -0.105864,0.6205 -1.962278,2.28446 -0.954193,0.62423 z m 11.622256,-2.54219 c -0.95376,-1.16662 1.0879,-2.84028 0.28609,-1.05545 -0.56138,-0.1881 0.49852,1.77893 -0.28609,1.05545 z m -0.17639,-3.92466 c -0.0672,-0.55606 -1.10888,-2.13429 0.18155,-1.30961 -0.0872,-1.38465 -1.32858,-1.71043 -0.39835,-2.06349 -0.73101,-2.04428 1.75301,-1.16763 0.64434,0.43255 -0.47391,0.68026 1.16792,4.43605 -0.42754,2.94055 z m -32.623844,-1.65364 c -0.985056,-2.08724 0.424405,-1.51378 0.256686,0.19844 z m 1.315562,-1.63075 c -0.752647,-2.4117 1.616344,-1.91807 0.959307,0.13144 -0.06976,1.77875 -0.891787,1.69281 -0.959307,-0.13144 z m 2.225005,-7.23279 c -0.429699,-1.49345 1.953186,0.20193 0.314326,-0.37179 1.061005,0.64347 -0.529027,1.16732 -0.314326,0.37179 z"
         id="path4268" /></g></g></svg>
