<?xml version="1.0" encoding="UTF-8" standalone="no"?>
<!-- Created with Inkscape (http://www.inkscape.org/) -->

<svg
   width="65.961807mm"
   height="21.993612mm"
   viewBox="0 0 65.961807 21.993612"
   version="1.1"
   id="svg4516"
   xml:space="preserve"
   inkscape:version="1.2.2 (732a01da63, 2022-12-09)"
   sodipodi:docname="tapissant-natural_medium.svg"
   xmlns:inkscape="http://www.inkscape.org/namespaces/inkscape"
   xmlns:sodipodi="http://sodipodi.sourceforge.net/DTD/sodipodi-0.dtd"
   xmlns="http://www.w3.org/2000/svg"
   xmlns:svg="http://www.w3.org/2000/svg"><sodipodi:namedview
     id="namedview4518"
     pagecolor="#ffffff"
     bordercolor="#666666"
     borderopacity="1.0"
     inkscape:showpageshadow="2"
     inkscape:pageopacity="0.0"
     inkscape:pagecheckerboard="0"
     inkscape:deskcolor="#d1d1d1"
     inkscape:document-units="mm"
     showgrid="false"
     inkscape:zoom="0.78395062"
     inkscape:cx="107.7874"
     inkscape:cy="-99.496063"
     inkscape:window-width="2560"
     inkscape:window-height="1369"
     inkscape:window-x="-8"
     inkscape:window-y="-8"
     inkscape:window-maximized="1"
     inkscape:current-layer="layer1" /><defs
     id="defs4513" /><g
     inkscape:label="Calque 1"
     inkscape:groupmode="layer"
     id="layer1"
     transform="translate(-49.78565,-174.91412)"><g
       id="g4649"
       transform="translate(23.625,20.925)"><path
         style="fill:#90a9a5;stroke-width:0.264583"
         d="m 49.36388,175.20645 c -0.409057,-2.099 -1.829809,1.16522 -1.944773,-1.15775 -0.178304,-1.05305 -0.699881,-3.24837 -1.080697,-1.25836 -1.130655,0.56144 -1.892562,-1.96386 -2.710264,-0.51139 -1.021958,1.70278 -2.056086,0.61973 -1.870896,-0.3654 -0.986543,2.00724 -3.211577,1.8341 -4.830411,0.86008 -2.158071,0.73571 -4.401351,0.49315 -4.56546,-2.13664 -0.707134,1.18856 -1.785151,2.20593 -2.265673,0.20632 -2.301333,0.43044 -2.262077,-1.6814 -0.730933,-2.72453 1.27842,-1.47708 -2.313975,-1.30992 -3.200686,-2.53957 -0.121755,-1.70747 3.031376,-1.79023 3.087161,-3.59194 1.111288,-0.81425 2.512774,1.22505 3.628694,-0.088 0.890149,0.27382 1.50178,2.68019 1.119404,0.69366 -0.723566,-2.48237 2.725976,0.44631 2.056218,-1.89966 1.227296,-2.54814 2.212339,0.26414 2.292302,1.72844 0.43579,1.45518 0.703227,-2.38962 0.122838,-3.02729 0.0062,-1.51649 2.208083,-0.95975 2.997175,-1.91808 1.276134,3.36416 2.260083,-2.79249 4.169401,-1.64119 0.796689,1.61489 -0.541536,3.5131 -0.423884,4.60254 1.713839,0.98194 1.92136,-4.79461 4.069716,-1.90494 0.481259,-1.17176 -0.196376,-4.43103 2.135227,-4.49336 0.783679,1.30471 1.068685,2.92704 2.729639,2.56467 0.725921,0.80724 -0.694075,4.91603 0.831937,3.74313 0.29407,-1.94247 1.70366,-3.62324 2.756156,-1.18696 1.217805,-1.3103 5.251343,-2.58879 3.833903,0.61067 -0.792559,1.48068 0.461726,2.11679 1.259617,0.64691 1.704354,-0.006 3.125101,-1.49078 4.927239,-1.58913 2.292592,-1.54505 0.688995,3.01135 2.945402,2.74599 1.110296,1.03743 2.420379,-3.12535 3.843695,-1.21286 -1.019705,1.5374 1.424539,0.96835 2.280047,0.85102 1.318235,-1.66606 2.630863,2.80695 2.975163,0.102 0.01388,-1.39488 2.697109,-2.11552 3.518592,-2.5311 0.368012,0.19987 1.639179,1.86687 1.323833,0.95666 -1.749633,-2.26758 1.474299,-2.28234 2.356267,-0.57356 0.689523,0.33911 3.305044,-2.47055 2.82011,0.17051 -0.643097,1.77193 1.991304,0.60247 1.86626,2.50421 1.093629,2.02519 -2.251639,4.58384 0.435811,5.88216 0.03815,1.50852 -2.35907,2.70816 -2.294669,4.66135 -0.926437,0.76617 -3.106415,-1.65742 -2.346373,0.82818 -1.984369,-1.19492 -3.695772,1.73141 -5.77966,0.83783 -0.817045,-1.91611 -2.637209,-1.50578 -3.476712,0.0209 -1.636302,0.74929 0.123501,-3.20356 -1.9739,-2.02483 -1.581638,1.32905 -3.528788,1.80946 -5.375631,1.90164 -0.760983,0.41124 -1.123068,-2.21038 -2.345246,-0.60019 -0.898795,1.32615 -2.021876,-0.51532 -3.177232,0.88567 -1.016498,-0.27621 -1.94884,-2.23966 -2.574947,-0.46869 0.03981,2.58916 -2.161027,1.94096 -2.919553,0.10874 -1.730527,-0.16811 -3.227057,-0.70628 -4.341231,0.29438 -0.935157,-1.6183 -4.196229,2.05799 -3.748779,-0.73064 -0.67035,-1.32662 -0.819218,2.08118 -1.917145,2.54468 -0.162351,-0.25875 -0.324701,-0.51751 -0.487052,-0.77626 z"
         id="path4663" /><path
         style="fill:#6e8f8a;stroke-width:0.264583"
         d="m 49.332011,174.89323 c -0.403261,-1.84327 -1.999273,1.08957 -1.958791,-1.35087 -0.02394,-1.17377 -0.759938,-3.15312 -0.995792,-0.93691 -1.092017,0.62096 -1.968967,-1.8865 -2.758799,-0.42943 -0.777402,1.02999 -1.752841,1.37815 -1.704248,-0.22032 -1.66964,1.64006 -2.859397,1.53005 -4.910538,0.69158 -1.756854,0.24053 -4.11009,1.14518 -4.253268,-1.50386 -0.389344,-2.5999 -4.675485,1.02187 -4.417618,-1.61722 0.194272,-1.27914 3.749757,-2.32908 1.866925,-2.04136 -1.42291,-0.72577 -4.704179,-1.34662 -3.16131,-3.38027 1.523627,-1.56371 0.86004,3.20879 2.664985,1.16062 0.491588,-1.1073 -2.538784,-1.15084 -0.720695,-2.33711 0.267387,-2.97674 2.719088,0.97897 3.800654,-1.05026 0.998722,0.19751 1.451702,3.17397 1.419409,0.60745 -0.674277,-2.3598 2.372053,0.50921 1.959834,-1.79837 1.751992,-2.6141 1.656769,1.70189 2.623355,2.14751 1.015055,-1.48063 -1.825326,-4.8577 1.252659,-4.36958 0.897938,-1.39786 1.801878,-1.0984 2.248154,0.35841 1.035926,-0.70286 3.355445,-5.17309 3.42068,-1.48237 0.272091,1.50391 -1.940275,3.58745 0.77133,3.46706 1.302125,0.95701 1.369956,-1.3876 2.426117,-0.29534 2.259554,-1.45231 -0.639876,-4.5563 1.705616,-5.96522 0.854655,-1.43791 1.081433,0.26489 1.48354,1.04955 0.610909,1.51175 0.129614,0.50033 -0.566685,0.25491 -0.420057,0.87676 0.379499,2.35508 0.42695,3.18528 1.477006,-0.94319 -0.579218,1.11518 1.022844,0.0349 0.243488,0.34257 0.0021,1.49434 0.766432,0.40913 0.336782,1.74823 1.695205,2.211 3.168539,2.24311 1.927333,0.21545 3.052804,2.22446 4.872739,1.95384 -0.07351,-1.81258 2.759303,-1.84349 2.392816,0.12249 0.930818,0.53849 4.039239,-0.17661 1.770414,-1.43067 -1.217338,-0.76275 -0.360344,-1.79559 -0.277555,-2.33466 -0.282785,0.8691 -2.269869,2.33724 -1.836894,0.63997 1.155621,-1.39189 3.698887,-1.89927 5.122319,-1.85977 0.0097,1.54037 0.07804,2.74993 1.825292,2.83641 0.810718,1.65728 2.013561,-3.01143 3.735124,-1.32091 -1.344852,2.3698 2.293712,0.76666 3.513813,0.59994 0.267316,1.03036 1.11518,1.97644 2.042661,1.03528 -0.97236,-1.9179 2.19405,-2.49207 3.28542,-2.90431 0.885663,0.40264 2.170429,2.1607 1.235482,0.32087 -1.327727,-2.74076 1.976985,-0.79853 2.670643,-0.0145 1.131042,-1.20191 3.45214,-1.88107 2.348443,0.59088 0.272915,1.07505 1.750975,0.22329 1.89949,1.83183 1.29531,2.09896 -2.214316,4.66343 0.533912,6.12338 -0.336225,1.5975 -3.500389,2.53655 -3.300467,3.94211 1.557134,-1.11504 1.511433,1.03693 -0.03561,0.3428 -1.303231,-0.84482 -1.726685,-0.39893 -1.47518,0.9897 -1.818641,-1.98639 -4.566375,2.97335 -5.710171,0.17552 -0.782813,-1.68175 -2.820774,-0.0846 -3.79589,0.84121 0.09617,-0.56924 -0.414663,-3.63731 -1.540077,-2.11477 -1.297008,0.68908 -2.900645,1.51915 -4.157529,1.6946 -0.980312,-0.3989 -1.66441,0.7801 -2.134223,-0.81494 -0.974525,-0.50598 -1.964923,0.71297 -2.217885,0.35038 -1.223418,0.35392 -2.996561,1.04225 -4.177182,-0.46 -1.075286,-0.0194 -1.432981,4.23344 -3.01149,1.86044 -0.734424,-1.65537 -3.703438,-1.26849 -4.817169,-1.686 0.493022,0.37234 0.450186,1.48552 -0.860261,0.67844 -1.311511,0.003 -3.385499,1.4863 -3.445161,-0.87164 -0.782801,0.32622 -0.620248,4.34143 -2.036107,2.05096 z m 0.972156,-1.62534 c -1.206722,-1.44342 -1.134845,0.90826 0,0 z m 6.264754,-9.07012 c 0.206493,-1.07183 -0.04174,-1.53731 -0.546748,-0.64078 -1.156424,-0.0306 1.179746,2.9424 0.546748,0.64078 z m -18.105453,0.3653 c -0.643533,-0.80949 -2.51857,-0.32982 -0.928081,0.3902 0.291649,0.004 1.019727,0.0687 0.928081,-0.3902 z m 16.603199,-0.5839 c -1.191967,-2.31063 -0.376682,1.93697 0,0 z m -6.574896,-2.77813 c -0.765231,-1.32263 -0.67646,1.30415 0,0 z m -4.417915,-3.08241 c -0.879094,-0.81971 -0.723071,2.01742 -0.930754,2.81783 0.386505,-0.90138 1.058168,-1.7926 0.930754,-2.81783 z m -13.45284,13.64411 c -0.61927,-1.87369 0.405266,-0.0886 1.32339,-1.03749 -0.129151,0.36793 -0.880746,2.21028 -1.32339,1.03749 z m 30.562688,-9.8042 c -0.446134,-2.71482 2.165062,1.81677 0,0 z m -6.112987,-0.97934 c 0.329603,-2.29646 1.455147,1.18288 0,0 z m 7.547581,-0.18719 c 2.446301,-1.44861 -1.087198,1.69647 0,0 z m -1.986579,-0.18628 c -1.316945,-1.19219 -3.708625,-0.4452 -4.995664,-1.53546 0.274452,-1.53766 1.571303,-1.3478 1.859911,-0.009 1.611453,-0.88685 5.60939,-2.22683 3.678168,1.23359 0.149722,-0.26954 -0.483327,0.66722 -0.542415,0.31041 z m -13.498502,-1.90839 c 0.272406,-1.59183 3.014805,-0.1043 0.943666,0.11892 -0.256887,0.0182 -0.786615,0.19442 -0.943666,-0.11892 z m 6.142273,-1.32207 c -1.416731,-1.60474 2.539534,0.0756 0.480263,0.36097 l -0.216621,-0.15052 -0.263639,-0.21052 z"
         id="path4661" /><path
         style="fill:#5c817b;stroke-width:0.264583"
         d="m 49.393127,175.0328 c -1.172435,-1.74128 0.684677,0.0427 1.001548,0.20464 -0.15686,0.70973 -0.855846,0.1637 -1.001548,-0.20464 z m 11.080708,-0.4969 c -0.02068,-1.83216 -4.678325,-0.26654 -3.249557,-1.82292 1.88276,-1.87049 -2.882539,0.69817 -1.920285,1.21164 -0.654222,-1.43272 -3.802208,1.71827 -3.426487,-0.27064 1.215536,0.89607 2.357152,-0.23211 0.975326,-1.39646 -0.583881,0.21367 -2.475594,1.19457 -2.18127,0.87846 -0.753493,-1.5921 -3.858668,1.93387 -3.593088,-1.20803 -0.07813,-0.80606 1.21906,-2.21172 -0.154773,-0.70702 -0.105503,2.41215 -2.035754,0.98838 -3.075185,0.0544 -0.748307,-0.19112 -2.083551,2.39041 -0.41598,0.88813 -0.901958,1.36472 -1.368854,0.82839 -1.681238,-0.40289 -1.62025,2.06815 -3.789341,-0.13651 -5.78912,0.90949 -1.032187,0.71135 -2.067015,-1.31533 -2.059127,0.27179 -1.445292,-0.56424 -1.123237,-4.39716 -3.398891,-2.59543 -1.524395,0.83912 -3.290848,-0.40558 -1.470524,-1.69238 0.317412,-0.82417 2.30997,-0.172 1.66691,-1.45167 -1.678845,0.0286 -5.502582,-1.18268 -3.347688,-3.17634 -0.08631,0.85386 0.786108,0.4877 0.337102,1.73818 1.233689,-1.37262 0.153899,1.60272 1.607793,-0.006 0.847351,-0.93308 1.352067,-1.63066 2.388102,-2.2397 -0.962427,0.11267 -3.322867,1.72533 -2.955212,-0.13159 0.327033,-1.22029 1.000427,-2.25769 2.355251,-1.07894 1.043619,0.68685 2.086691,-1.43106 2.556649,0.67911 1.13403,2.57146 -0.306862,-3.32287 1.786087,-1.24177 0.838933,0.90379 0.903932,-3.35067 2.152297,-1.51807 0.727643,0.86866 0.47184,5.32806 1.322875,2.25729 0.727722,-1.39184 -1.715712,-4.7827 1.307598,-3.87795 1.403143,1.18966 -0.424134,-1.83528 1.560964,-0.86293 -0.225913,1.88986 2.085172,0.0344 1.162322,2.16687 0.217795,2.10667 2.934744,-2.85149 0.754899,-2.79178 1.023993,-2.14178 2.429371,-1.2233 1.825702,0.79998 -0.377161,1.56781 -1.073449,3.22137 1.369094,3.11133 0.595479,0.72251 2.536585,0.98286 1.435417,-0.22578 -1.279358,-1.09492 1.740685,0.75719 1.150674,-0.96835 0.807465,-0.62665 0.572666,-1.58089 0.66901,-1.94207 0.457355,0.62776 1.757987,-0.053 0.760261,0.96354 1.443999,-0.56778 -0.579306,1.88929 0.819366,1.09192 1.062587,-1.54761 0.967828,2.17555 2.090784,0.35874 0.795111,0.66915 -0.58355,1.68552 1.176447,1.37234 0.124812,1.12992 -1.773344,2.42297 0.451024,2.82812 1.202536,1.11667 1.260157,1.33836 1.953448,-0.36265 1.079673,-4.5e-4 2.902004,-1.09939 3.931313,0.005 -1.089556,1.01553 0.785149,0.43811 0.619239,1.66945 0.121526,-2.20292 3.113213,-0.90933 4.21543,-1.98051 2.032755,-0.59241 -2.153949,-2.46481 -0.127095,-3.84859 -0.614934,-1.06142 2.143901,-0.64626 2.84492,-1.40533 1.13996,0.94574 -2.440531,2.4585 -0.102557,1.6362 0.41294,0.0365 0.355348,1.60375 1.569738,1.26282 1.343018,2.1314 2.424311,-2.80619 3.988575,-1.12735 -0.790798,1.95679 1.282216,0.86477 2.218105,1.26934 1.045226,-1.31269 1.8872,-0.50682 2.341399,0.69752 1.94132,0.30118 0.401583,-2.89296 2.868443,-2.46949 0.941727,-1.32622 2.239516,-0.68684 3.040524,0.38039 -0.325551,-1.03797 -1.199088,-3.14783 0.853045,-2.11208 1.124463,1.27727 1.967722,1.40465 3.149746,0.26053 2.184566,-0.92832 -0.549118,3.38559 2.04639,2.07798 1.432047,1.78508 0.833744,4.0944 -0.113566,6.07161 0.72061,1.05026 1.269156,1.16222 -0.182605,1.0104 -0.336425,1.48603 0.0836,1.2554 0.646538,1.36172 -0.967952,0.57566 -2.485087,2.12053 -2.771844,2.87134 1.496689,0.49773 1.183011,0.90511 -0.113887,0.27211 -1.359324,-0.91603 -1.17665,0.1757 -1.138153,1.14773 -1.741605,-2.10426 -4.517286,2.93404 -5.62588,0.1836 0.16814,-1.1443 -0.457837,-2.29894 -0.392995,-0.54816 -1.629137,-1.25641 -2.308516,1.45176 -3.559685,1.0307 1.08189,-1.83897 -1.404975,-2.79947 -2.376452,-1.16724 -1.602679,0.22094 -2.528136,1.46557 -4.10927,1.06365 -0.788227,0.51223 -1.349875,-1.92389 -2.85466,-0.7027 -1.260921,-0.18264 -3.124231,1.97327 -4.304553,-0.0402 -1.389738,-1.39093 -1.420223,3.52849 -2.956503,2.28605 l -0.244831,-0.34498 -0.275867,-0.42126 z m 26.342832,-2.9751 c -1.011678,-1.90786 -1.709679,0.0511 0,0 z m -55.356129,-2.55966 c 0.473845,-1.69152 -1.85671,2.14997 4e-6,0 z m 1.518691,-2.37075 c 0.337173,-1.51863 -4.113961,-1.21593 -1.54745,-0.64152 0.161208,0.3043 1.855684,1.72177 1.54745,0.64152 z m 5.683271,-1.82816 c -0.377161,-1.30389 -1.65084,-1.11273 -1.793014,-1.27885 -0.431135,1.47253 0.617968,1.92596 1.793014,1.27885 z m 8.995833,9.58388 c 0.464512,-0.81659 1.626999,-0.41636 0.221976,0.41777 l -0.162876,-0.083 -0.05909,-0.33478 z m -17.043545,-2.90419 c -0.415972,-0.85578 1.062383,-0.11285 1.088795,-0.30993 -0.170473,0.48036 -0.832316,1.18422 -1.088795,0.30993 z m 26.356879,-8.34942 c -1.060836,-2.02865 4.371755,0.53212 1.389618,-0.0777 -0.444166,0.26147 -0.894748,0.66319 -1.389618,0.0777 z m 6.036466,-0.21908 c 1.572628,-1.44917 -0.336275,1.75967 0,0 z M 64.2506,160.7219 c 0.376337,-2.42437 1.410583,0.44789 0,0 z m -3.255039,-0.51917 c 0.168533,-0.80669 -2.145391,0.9095 -1.07348,-0.85664 -0.02427,-1.34608 -1.166525,0.94756 -0.850454,-0.71352 1.319112,-1.68122 3.698209,-0.61805 2.185095,1.37785 0.420782,0.17214 -0.52754,0.52346 -0.261161,0.19231 z m -4.983803,-1.4287 c -0.07922,-2.41302 2.454129,1.76532 0.4668,-0.25204 0.294976,0.44929 -0.293701,0.86122 -0.4668,0.25204 z M 49.775,157.37773 c 1.113698,-1.22825 0.312018,-0.47665 -0.120673,-0.98363 -0.325034,-1.60181 2.832719,-2.87731 1.331741,-1.213 -1.237288,-0.92832 0.965482,3.18695 -1.211068,2.19663 z"
         id="path4659" /><path
         style="fill:#4a736c;stroke-width:0.264583"
         d="m 60.522031,174.5625 c -0.662641,-1.73327 -4.73479,-0.48542 -2.744979,-2.65363 -1.711414,0.53453 -4.008869,2.56845 -5.20125,0.51857 -1.608085,0.0618 -4.301565,0.89708 -5.31018,-0.12962 0.874951,-0.60533 -0.774876,-0.48873 0.28202,-1.6375 -0.609095,-0.34113 -1.250897,3.59033 -2.690497,1.27201 -1.76913,-1.00649 1.427424,-1.22925 0.647323,-2.79337 -0.287339,1.62911 -1.593197,-0.58947 -2.016795,1.26884 0.61201,3.24156 -3.679912,-0.3144 -3.399095,2.21505 -1.221134,0.14515 -2.162741,-0.84025 -2.771242,-0.0848 -0.854416,-0.31903 -3.143679,1.16836 -2.427046,-0.56881 0.287103,-2.02249 -2.613924,0.0974 -1.307615,0.90037 -0.916316,-1.19543 -0.979651,-4.36925 -3.180761,-2.61086 -1.900128,0.96234 -2.889387,-0.90641 -0.978606,-1.83628 1.196731,-0.15054 1.409853,0.85393 0.854851,1.42793 1.849325,0.21089 1.469478,-1.50034 2.224346,-2.11779 1.838619,0.50332 2.941094,-2.31818 0.482988,-2.14563 -0.944153,-0.14498 -0.685264,-1.81268 -1.951798,-1.10175 2.391283,-2.5211 -3.233091,1.31319 -2.304477,-1.12615 0.270729,-2.13111 1.883801,-1.24203 3.297515,-0.87714 1.33609,-2.18696 2.262064,3.39398 2.214738,0.20898 -0.795758,-2.73671 2.594709,0.68471 1.852182,-1.5082 0.376921,-2.52478 2.135927,-0.71942 2.026898,0.95419 0.147101,0.74839 -2.092134,0.6146 -1.448786,2.44879 2.379782,2.34128 2.246397,-2.15028 2.35629,-3.6908 -1.31706,-1.31442 1.049415,-3.68403 0.743964,-1.0775 0.62646,0.0656 2.316699,1.15961 1.150281,-0.26117 -0.925307,-1.01127 -0.361736,-0.66995 0.314487,-0.44942 -0.309871,-0.52715 -0.892876,-1.95771 0.477077,-1.11727 -0.171212,1.83584 1.932369,-0.28407 1.249914,1.6014 -0.120567,2.94886 1.833963,-1.46611 2.161333,-2.30542 0.860572,-1.63794 -0.869669,-1.06118 -1.081742,-0.57611 2.261022,-2.54706 1.468673,2.69231 0.864863,3.73825 0.995238,0.70758 1.955951,0.008 1.417408,1.53455 1.084559,0.13123 0.968357,-0.43425 0.458107,-0.55423 1.67953,0.93021 3.157443,-0.5773 2.980729,-2.20816 1.608189,-1.42201 1.0931,0.79225 1.434513,1.20765 1.928505,-1.56359 0.781515,0.34591 1.250134,1.17085 -0.06221,-0.86833 2.606022,-1.47644 1.423147,-0.0314 1.502432,0.19837 1.210595,0.97297 0.24837,1.81217 -0.01681,1.37016 2.146401,2.25551 2.798088,1.85006 0.420381,-1.94964 2.555643,-1.15252 4.113189,-1.41627 -0.03561,1.28396 0.705007,2.66686 2.095857,1.86073 1.051501,0.28588 -0.136946,-1.87654 1.401926,-1.10084 1.078364,0.2103 1.528208,-0.83146 2.444547,-0.92086 -0.554313,-1.68471 -1.896607,-2.14149 -0.870987,-3.92347 0.482068,-0.33561 3.551848,-1.72892 1.569557,-0.2398 0.10831,0.35389 1.076002,0.39092 -0.09302,1.18177 0.721616,-0.178 1.602303,-0.55965 1.916762,0.67508 1.390255,0.751 2.166973,1.16926 2.876804,-0.55618 1.551875,-1.56532 2.01899,-0.34905 2.13851,0.90829 0.961665,-0.64171 1.812532,0.33946 2.715131,-0.1802 0.927785,1.80488 -0.309204,-1.9206 0.980449,-0.22719 0.453256,1.78604 2.518037,0.93324 1.769039,-0.62156 1.037312,-0.63649 2.54884,-1.34339 3.578979,-1.48333 0.696514,1.22838 1.931331,1.24899 0.870052,-0.26498 -0.623015,-2.8918 2.720021,1.40698 3.576196,-0.0253 0.867931,-0.86216 2.661772,-0.85486 1.483456,0.68762 -0.545544,2.0182 2.020271,0.23965 1.981565,2.19226 1.251141,1.81773 -1.274235,3.62043 -0.553853,5.24213 -0.371541,1.84028 -1.625338,3.65427 -2.841376,4.79013 -1.231103,-0.0731 -1.280919,0.72644 -1.655233,-0.77006 -2.022815,-1.0145 0.888603,1.72816 -1.138542,1.79207 -1.856273,2.11882 -4.265905,1.31492 -4.063969,-0.97129 -1.69974,-0.59291 -2.058678,1.21979 -3.127976,2.17596 1.89344,-1.27259 -0.733164,-2.30176 -1.763591,-2.36272 -0.843931,1.48924 -2.815296,0.94737 -3.715297,2.05403 -2.452005,-0.92785 -5.075411,-1.24147 -7.248088,0.2726 -1.16173,-0.517 -2.045048,-2.26609 -2.734486,-0.25745 -0.351036,1.11052 -1.300802,2.87644 -2.102299,0.82214 z M 39.13246,170.54842 c -2.200157,-1.38746 -0.926266,1.03069 0,0 z m 32.46246,-0.99973 c -0.201518,-1.45759 -2.396531,0.38988 -0.268379,0.2071 l 0.15273,-0.0579 0.115649,-0.14919 z m 16.866759,-0.0841 c -1.788124,-0.47927 -0.184756,0.82644 0.311103,0.15524 l -0.311103,-0.15526 z m -4.158554,-4.03385 c -0.7256,-0.67367 -0.285505,-0.70819 -0.4699,-1.39541 -1.463028,-0.009 -0.35184,3.42991 0.4699,1.39541 z m -37.011158,-1.6821 c -0.717562,-1.7989 -0.63566,2.1409 0,0 z m -6.606046,9.01919 c -1.225117,-1.79535 1.784855,-0.74375 0,0 z m 38.986996,-0.32491 c 0.06297,-0.80492 3.015035,0.58989 0.445555,0.18 l -0.445555,-0.18005 z M 30.9698,167.83947 c 0.344739,-0.88096 -1.699579,-1.52621 0.413573,-0.99331 1.847401,-0.15704 -1.349833,2.1759 -0.413573,0.99331 z m -3.086884,-1.34606 c -1.556885,0.15573 -1.220509,-2.35455 -0.332916,-1.15062 -0.02019,0.97997 1.35551,-0.8468 0.648406,0.82601 0.702671,0.35638 2.116508,-1.34963 1.455409,0.31593 1.020424,1.31962 -1.402644,0.19644 -1.770899,0.009 z m 32.214885,-6.68143 c 0.49635,-0.70406 2.046324,-2.0301 0.137888,-1.26801 -1.019381,0.17386 -1.685677,0.41836 -0.360576,-0.37638 1.587387,-1.37598 2.364227,0.99055 1.28907,1.59773 -0.255142,-0.65448 -0.785147,0.80288 -1.066382,0.0467 z m -10.025862,-3.93767 c -0.554555,-0.90807 1.337818,-1.97945 0.40645,-0.1496 0.290292,0.64413 -0.116328,0.64979 -0.40645,0.1496 z"
         id="path4657" /><path
         style="fill:#3c6962;stroke-width:0.264583"
         d="m 60.64212,174.65911 c -0.353043,-2.06809 -4.967607,-0.35593 -2.849113,-2.76365 -1.572451,0.28105 -4.457366,3.06355 -4.934276,0.0949 -1.586757,1.46537 -3.414109,0.58144 -2.867616,-1.32719 -0.609738,1.52591 -1.567647,-0.68296 -1.932289,1.14988 -0.53155,0.42325 0.08377,-0.93855 -0.793237,-0.31727 0.750545,-2.6159 -0.755941,1.02234 -1.348834,1.18346 -1.683347,-0.76574 -1.51257,-1.65639 -0.328741,-2.73572 -0.720381,-1.56762 -2.830039,0.0921 -2.047315,1.1616 -1.566438,-0.18424 0.433846,1.0089 -1.323853,0.74529 -1.242077,0.20861 -0.697217,-2.40158 -1.95796,-0.53052 -0.259253,1.70876 -1.289924,1.19964 -2.338788,0.7397 -0.691707,0.56067 -0.252641,-0.4042 -1.357434,0.49611 -0.888462,0.30475 -0.862221,-0.58398 -1.442474,0.0803 0.10291,-1.70962 -0.686801,-1.95583 -1.922621,-1.09319 -0.66019,-0.77351 -0.993509,-2.43939 -2.316133,-1.57829 1.272917,-0.0805 1.54134,-1.71596 2.59607,-1.03245 0.596106,-0.91206 0.912615,-2.81494 1.653127,-0.89041 0.992752,0.0338 1.369906,-0.76201 1.779379,0.52507 1.335756,-0.19351 2.034441,-2.52308 0.301791,-1.78939 -1.702607,0.002 0.0894,-2.82061 -0.07009,-0.33234 0.531564,0.35134 0.785566,-1.18538 1.492515,-0.11886 -1.210531,-1.77993 2.358968,0.10354 0.45064,-1.11994 -1.903255,-1.11448 2.512773,-3.34205 0.838963,-1.4203 0.881314,0.8214 -2.048438,0.0955 -0.01338,0.84004 1.386228,-0.004 1.157604,-2.88989 0.06588,-2.2342 -0.549158,-0.46758 -1.207152,0.87417 -0.978084,-0.73115 -0.01221,-1.02824 -0.562022,-4.42303 0.295044,-2.14278 -0.677821,1.94026 3.559089,4.26464 2.62338,1.06048 0.03507,-0.92437 -1.399712,-3.32787 -0.57455,-2.68455 0.0094,1.57074 2.483101,0.13451 1.489113,2.03543 0.06544,2.39802 1.682834,-1.90106 2.065682,0.0444 -0.838708,1.41483 -0.517071,-1.19722 -0.909327,0.65697 1.001058,-0.0365 2.932224,0.6479 1.032142,0.71513 0.598139,0.57505 0.682653,2.08003 0.521464,1.90584 1.226227,-1.34025 0.621809,2.91235 1.942361,0.72129 -0.344675,-1.01128 -1.292262,-2.02507 0.174668,-2.37434 0.769505,1.3183 1.525786,-0.92639 2.007827,-0.99487 -0.402341,-1.36799 2.332242,-1.76542 1.058106,-0.13038 0.812954,1.68213 1.769027,-2.10773 1.331427,0.26549 -0.230622,1.91138 3.414023,-1.42695 1.487458,0.78423 -0.648392,0.97253 2.600605,0.068 0.979422,1.35637 -0.908927,0.72904 0.492112,1.96187 -0.726324,2.59511 0.728052,0.17343 2.416229,-1.14585 2.064285,-0.30869 -0.411407,0.44165 1.621899,0.21135 1.579392,-0.88532 0.97878,0.26589 2.737497,-1.10772 3.660342,-0.25983 -2.054176,-0.62216 -1.477524,2.22638 -0.212651,0.70131 0.916365,0.64625 0.676784,2.10787 2.135595,1.1089 1.152151,0.0486 0.415478,-1.90143 2.094761,-1.12632 0.676227,-0.69321 1.451946,-0.72396 2.277043,-0.29375 -0.793867,-1.3054 -1.123267,-2.5375 -0.646528,-3.81351 -0.95692,1.10683 0.262801,-1.88259 0.78204,-0.47253 -0.272215,0.78034 1.323137,2.18783 1.454536,0.32217 -0.03637,1.58974 2.600697,1.39409 3.148759,2.59144 -2.080971,-1.60068 3.253468,-4.65401 1.966925,-1.60057 0.709148,0.95099 1.212395,-0.76373 1.280271,0.66276 0.427511,-0.0897 2.617189,-1.41556 1.204019,-0.0733 0.877908,1.65178 1.572556,-1.47206 2.46377,0.41654 1.92817,0.20598 0.04964,-2.83217 2.375695,-2.43377 1.187978,-0.67354 1.871552,-1.65043 2.80854,-0.10565 1.666043,1.10789 -1.19072,-3.3191 1.389942,-1.76366 0.953379,0.49272 1.715333,2.09027 2.593193,0.67217 1.377543,-1.04413 2.00232,-0.27839 1.246417,1.10148 -0.39848,1.70201 2.130174,-0.20239 1.70516,1.67092 1.456288,1.86187 -0.443581,4.15499 -1.17588,5.82755 1.787758,1.30404 -1.857165,3.53013 -1.119549,1.68252 1.036761,1.14567 1.51681,-2.09662 -0.09224,-0.53899 -0.367303,1.59359 -3.13928,-0.27572 -1.524183,1.14195 -0.6456,0.99397 -1.883014,-0.32552 -1.602885,1.63298 0.750386,1.67907 -3.846839,4.08612 -4.113583,1.74589 0.828629,-1.84774 -1.769501,-1.12643 -2.319338,-2.05905 1.493422,2.82042 -4.772346,-0.27023 -3.515832,0.76265 1.613678,-0.32551 -1.609655,1.62048 -2.370182,1.30361 -1.506531,1.74614 -4.180097,-1.69969 -6.152112,0.0713 -1.422128,1.31437 -2.646502,0.42335 -3.855008,-0.31247 -1.095346,0.47713 -1.117231,3.94551 -2.684738,1.81593 z m -9.544203,-3.03825 c -0.729081,-1.44133 -0.482142,2.0775 0,0 z m 9.519054,0.30692 c -0.04626,-2.90332 -1.469299,1.5592 0,0 z m -8.196138,0.033 c -0.591307,-1.47588 -1.643522,0.89723 0,0 z m -13.07237,-0.709 c 0.778266,-2.15455 -5.202654,-1.92766 -2.14038,-0.26819 0.921132,0.55243 1.538598,0.16829 1.818351,0.88063 l 0.123344,-0.14285 z m 17.911893,-1.27661 c 1.184348,0.0827 1.192275,-0.44988 0.259488,-1.34807 1.382787,-1.42398 -0.726166,-1.42334 0.51189,-2.95145 0.694412,-1.37375 2.17363,1.27167 1.414299,-0.71495 -2.318345,-2.13453 -2.448671,2.721 -4.359093,2.45751 1.26767,-2.05391 -1.884287,1.27353 0.428752,0.92899 0.452504,1.04744 -1.158021,2.48792 0.846886,1.56753 1.200482,0.14724 -1.630597,1.74547 0.56931,0.57789 0.119863,-0.13584 0.393522,-0.28727 0.328468,-0.51745 z m 14.304039,-0.3991 c 0.149973,-1.39502 -1.89807,-1.03866 -2.126163,-0.41601 -0.319738,-0.75262 -1.998297,-0.98655 -0.926219,-1.22492 -0.644152,-1.44261 -1.457289,1.89838 -1.061152,-0.58015 -2.038142,0.21625 0.08971,2.82182 1.526024,2.35657 0.505451,0.45626 1.996474,0.28946 2.58751,-0.13549 z m -29.462312,-3.49912 c -1.677493,-1.55861 0.551911,-1.92491 1.574693,-1.18578 -0.598169,-2.36468 -4.073018,0.45176 -2.083101,1.33347 0.122149,0.15777 0.590177,0.1757 0.508408,-0.14769 z m 42.433177,-0.94223 c 0.886375,-1.32337 -1.002139,-2.06455 -1.629966,-2.66462 -0.910503,1.03238 -0.008,5.02781 1.683671,3.16904 l -0.05371,-0.50438 z m 5.997527,0.81443 c 0.70858,-1.64389 -1.15881,-0.99698 -1.30075,-0.0583 -0.860459,0.28858 1.255371,0.62827 1.30075,0.0583 z m -8.626713,-2.5772 c 0.224515,-0.78042 2.088242,-2.36794 -0.0045,-1.68591 -0.924939,0.51695 1.16868,0.36945 -0.269225,0.8778 -0.387713,0.19548 0.181418,1.88025 0.273679,0.80811 z m -11.907673,-0.17997 c 2.656933,-2.64817 -4.057479,0.82454 0,0 z m 16.718679,7.98387 c 0.716745,-0.71582 2.787397,0.36593 0.596494,0.19497 l -0.275528,-0.0455 z M 28.336794,170.1885 c -0.325017,-1.35976 2.531994,-2.60815 1.128407,-0.5498 0.388663,0.6947 1.263999,0.60891 -0.29939,0.74873 -0.275601,-0.0149 -0.608264,0.007 -0.829017,-0.19893 z m 0.536123,-3.27173 c -0.698855,-0.14912 -2.950691,-1.509 -1.368274,-1.81488 -0.568932,1.19133 1.180368,0.0625 0.70209,1.23789 1.154129,-0.41703 1.031956,-0.57921 0.886167,0.27087 1.398732,-0.19947 0.430029,0.98622 -0.219983,0.30612 z m 5.971653,-0.79094 c 0.605213,-2.21331 1.095417,1.00775 0,0 z m -1.473737,-1.32813 c -1.0902,0.0496 -1.793529,-0.8276 -1.198382,-1.5169 -1.092096,0.26979 -4.565712,1.88431 -2.879126,-0.41502 0.136329,-2.09029 2.73922,0.65569 3.771486,-0.89659 0.430379,0.29788 1.627292,3.72186 0.306022,2.82851 z m 1.152567,-0.45522 c -0.494879,-0.68928 1.621121,-3.24923 -0.288039,-1.46963 -0.959271,-3.23615 4.584396,0.66572 1.62407,0.99142 -1.057943,-0.48795 -0.228738,1.1474 -1.336031,0.47821 z m 1.921154,-2.14027 c -0.92335,-1.29391 1.134047,-3.77269 1.337764,-1.19959 0.505435,1.14416 -0.22146,1.64486 -1.337764,1.19959 z m 1.052587,-1.17433 c -0.611334,0.23752 0.164423,-1.73635 -0.790243,-0.39923 -0.366631,0.35866 0.72328,1.02377 0.790243,0.39923 z m 23.350497,-1.51659 c -0.738083,-0.89858 2.03429,-1.18486 0.319653,0.0344 z"
         id="path4655" /><path
         style="fill:#33625b;stroke-width:0.264583"
         d="m 60.559202,174.43349 c -0.585138,-1.62817 -4.907959,-0.26833 -2.662208,-2.49541 -1.483362,-0.10295 -3.700465,2.41824 -4.477774,0.88681 1.816126,-0.80899 3.629933,-2.31367 5.201903,-3.41591 2.095765,2.6665 -2.111169,-3.38301 1.013448,-2.82815 0.07494,-2.31457 2.348669,0.62607 0.459178,0.7636 1.178337,1.2211 1.399436,-0.68389 1.554129,-1.13697 1.12509,-0.30095 2.816205,0.18066 2.222281,-1.60723 0.843456,0.5127 2.143904,-0.37936 2.013733,-0.28207 -0.601833,0.40853 -0.935269,1.98716 -0.13866,1.44388 1.546128,0.35874 -1.536752,2.74299 0.750478,3.16449 0.986507,1.23375 5.185498,1.9372 5.285309,0.0847 -0.461309,-1.7268 -2.967482,-1.22866 -3.388048,-2.57821 0.717592,-0.41607 -1.37656,0.15468 -0.249197,-1.0789 -0.343157,-0.2396 -2.992283,-1.60603 -0.974145,-0.86857 0.533586,-1.34296 2.110856,-1.15341 2.712678,-0.1958 0.43401,-2.0813 1.717759,-1.62473 2.416051,-0.66669 0.518333,-1.54386 1.410524,-1.56934 0.984306,-0.18536 1.186924,-0.69239 1.955431,-1.16155 0.304844,-1.02813 1.084198,-1.77001 2.373781,1.51292 3.641609,0.39562 1.208965,0.6669 0.698839,-2.38999 1.440515,-0.3742 2.360145,0.68006 0.376838,-2.79665 2.754784,-2.4205 1.103884,-0.38451 1.763549,-1.81358 2.598151,-0.28008 0.792568,1.15206 1.298321,1.29476 1.24723,2.10432 2.031334,-0.38122 -3.133862,-4.18033 0.160459,-3.63116 1.282314,0.53501 1.944006,2.07406 3.065504,0.43354 2.643098,-1.67674 -0.20349,2.4413 1.760489,2.15882 1.642263,-0.41599 1.770513,3.74435 0.612363,4.56841 -0.723472,-1.62891 -1.358894,-0.24315 -2.120085,0.0949 0.631696,-1.23621 -1.630325,-0.73302 -1.622439,-1.99809 -1.043516,-0.15917 -1.720662,0.94713 -1.896922,-0.54023 -0.394391,1.7098 -2.185648,-1.03353 -0.264581,-0.70827 -0.309177,-1.21158 -0.867067,-1.0686 -1.240608,-0.72174 -0.258414,-1.0154 -1.468276,-3.07063 -1.175802,-0.86134 -0.05459,0.35487 -1.549208,0.66085 -1.142742,1.66698 -1.535,-1.77049 0.08776,1.8033 0.84997,2.08106 1.977575,1.33023 -2.692069,2.88485 -0.247855,2.98203 0.808153,-0.35515 -1.559554,1.59502 0.139099,1.40629 0.749502,-1.80751 1.94682,-2.2979 2.751165,-3.87573 0.195476,-1.04728 2.580548,-1.168 1.852709,-0.20731 0.553495,1.04991 1.736852,0.74411 2.249459,2.13119 0.983452,0.30478 -0.706467,-0.92014 0.813795,-0.38307 0.120954,0.59382 1.197033,2.95419 -0.586186,3.34482 -1.290012,-1.05392 -0.841824,-0.57618 0.417684,-0.5325 1.207258,-2.62925 -1.55726,-0.16022 -2.593939,-0.0371 -2.405023,0.62674 -1.078299,4.541 -3.912009,4.68204 -0.659405,0.24528 -0.835083,-2.23456 -1.53678,-0.85835 0.742068,-1.79473 -1.571669,-1.07956 -2.318493,-2.10083 0.496528,2.96508 -3.241272,-0.52589 -4.176884,1.81317 -1.651279,-0.90607 -2.252571,2.06317 -4.441408,0.42309 -2.264836,-2.12268 -4.521156,1.99085 -6.41919,0.12411 -0.865427,-1.50909 -1.550522,-0.13956 -1.901383,1.00816 -0.368572,1.26243 -1.241189,1.33385 -1.785985,0.13583 z m 0.703533,-0.56075 c 1.146657,-0.65119 -1.078622,-0.51179 0.03524,-1.40345 -0.186539,-0.68137 -1.859863,-3.01207 -1.280367,-0.6933 0.898007,0.44088 0.103586,2.65269 1.245127,2.09675 z m 14.787993,-2.56665 c -1.074527,-0.10456 -1.473448,2.26902 -0.246463,0.62328 0.108964,-0.1775 0.324494,-0.38678 0.246463,-0.62328 z m -11.459061,-5.73942 c -0.479071,-2.71817 -0.376381,2.54597 0,0 z m 22.489583,0.25628 c -1.327815,-1.6913 -1.277085,1.08274 0,0 z m 1.691484,-1.99771 c 0.238711,-1.81784 -1.22689,1.33274 0,4e-5 z m -4.48941,-3.58228 c -0.926798,-0.7059 -1.620134,-0.10677 -0.18155,0.36804 l 0.189704,-0.16045 z m -49.285348,11.60756 c 0.416742,-2.02497 -2.917496,0.53363 -2.554225,-2.05615 -0.01494,-1.41542 0.700966,-0.75513 0.672165,-0.006 0.66239,-1.17241 1.656597,-1.27581 1.842417,0.0117 0.887509,-1.03989 1.452446,1.63573 2.981572,1.62862 1.160986,0.74932 -1.233234,0.11334 -1.350597,1.08251 -0.919984,-4e-4 -1.162738,-2.2623 -1.537689,-0.01 l -0.02924,-0.19072 -0.0244,-0.46034 z m 4.003063,0.67246 c 0.783802,-0.70812 0.720928,-3.30333 -0.85883,-2.98756 -0.50463,0.0614 0.746709,-4.26276 1.018228,-2.11663 1.455201,-0.31645 -1.708913,-2.28867 0.508679,-1.30376 0.563857,1.56565 1.041151,-2.16004 1.234646,-0.60005 -1.391342,2.04833 3.745627,1.09975 1.219888,0.82271 1.234676,-0.92278 -1.105622,-1.1793 0.559758,-1.64678 1.74218,1.39148 1.283881,-0.79997 -0.164068,-0.78212 -0.77276,-0.80204 -2.565234,1.13132 -1.305616,-0.9451 2.154755,-0.46564 0.118628,-3.2951 0.70035,-3.91987 1.617175,0.13945 0.130845,2.79424 2.015281,1.67417 -0.158107,1.00824 1.966051,1.52735 0.944637,2.66055 1.520191,0.1585 2.543889,2.86363 2.769724,0.45208 -0.383615,-1.01309 -1.927498,-1.97798 0.309165,-1.74267 1.336611,0.53801 0.701027,-2.28906 2.338652,-0.85179 1.62041,-0.69672 2.876839,1.57548 4.671435,0.93218 -0.262707,0.50086 -1.280421,1.5066 -0.659527,2.43493 -1.680386,1.57782 1.19847,0.44228 1.139316,0.49887 -0.207539,0.66534 -0.363969,2.32925 -0.840107,0.74251 -0.17942,1.28076 -0.476715,2.47645 0.265516,3.02159 -1.355895,0.52873 -0.9303,1.92784 -1.126516,3.4187 -0.981266,0.26584 0.21977,-1.83515 -1.048845,-0.73551 -1.569226,0.19179 -1.008505,-0.74238 -1.441978,-1.48546 -1.278205,0.67996 -2.368132,1.23748 -3.867843,0.54247 -1.02896,1.22221 -1.509539,3.13185 -2.5125,0.68892 1.155553,-1.19158 0.684826,-2.67965 -0.534559,-2.03094 -1.225546,-0.55029 -1.401293,3.95568 -2.965451,1.97645 1.545905,-1.45263 -2.131182,-0.57369 -1.614751,0.89503 -0.06348,0.31749 -0.449937,0.58143 -0.754684,0.38708 z m 14.096829,-1.79191 c 0.834894,-2.79275 -2.666336,1.42168 0,0 z m -9.474431,-3.18003 c -1.075949,-2.30087 -0.685963,1.97401 0,0 z m 8.763498,-4.33907 c 1.037154,-1.67681 -1.716964,0.86192 0,0 z m 2.610453,7.96362 c 0.05823,-0.70331 -1.179006,0.8221 -0.211972,-0.63527 -2.125034,-1.2531 1.443833,-0.2607 0.425575,0.93824 -0.154191,0.13283 -0.501607,-0.0479 -0.213603,-0.30297 z m -26.653638,-1.1284 c -0.09248,-1.39857 2.39656,-1.80415 1.058333,-0.19427 0.05686,0.55227 -0.91038,0.65647 -1.058333,0.19427 z m -0.198438,-3.55475 c -1.351365,-0.25926 -1.806588,-1.95921 -0.308489,-0.4185 0.922074,-0.35392 2.782768,1.57025 0.852392,0.66625 l -0.25215,-0.11493 z m 27.715105,-0.0879 c 1.219169,-2.19544 0.213456,1.55909 0,0 z m -16.999083,-1.58987 c 0.01404,-1.14052 1.652713,0.96558 0.111906,0.31001 z m -10.076612,-0.74729 c -0.25721,-0.61434 0.776796,-0.965 0.761084,-1.73643 0.735342,-0.10859 2.241435,1.69656 1.212466,0.0888 1.124808,0.33963 3.211492,-1.16913 2.601345,1.01019 -1.613665,-0.49235 -3.012158,0.58402 -4.574895,0.63745 z m 5.645205,-0.24562 c 1.003017,-0.48033 1.97566,-2.30044 0.216161,-1.51923 -0.978055,0.96578 -0.362781,-1.85564 0.588614,-0.51124 1.306888,0.0506 2.071147,1.91197 0.495085,1.62269 -0.381964,-0.62353 -0.93357,0.6718 -1.29986,0.40778 z m 1.851323,-3.20875 c 0.931863,-1.93544 1.411243,-0.0522 0,0 z m 14.022917,-0.61819 c -1.616865,-0.62065 1.655445,-0.36545 0.07772,0.19789 z"
         id="path4653" /><path
         style="fill:#2b5b54;stroke-width:0.264583"
         d="m 60.559202,174.43349 c -0.979331,-1.62864 -4.158546,-0.2292 -2.991541,-2.70782 -0.786938,0.60718 -5.416957,2.76953 -2.813538,0.52802 1.331856,-1.29227 4.647271,-3.4944 5.198579,-0.51695 -0.437091,0.74261 -0.821611,0.6474 0.270669,0.96936 -0.403336,1.15406 0.911813,2.2756 1.921933,2.01093 -0.08694,0.9909 -1.405396,0.52286 -1.586102,-0.28354 z m 3.676013,-1.1939 c -0.403452,-1.06131 -2.354187,-0.47286 -1.307198,-0.38519 -1.650497,1.46599 -2.061115,-1.83768 -2.018811,-1.78932 2.346442,0.46348 0.465668,-2.58872 -0.990449,-2.57922 -1.628239,-0.54925 0.48165,-3.06522 0.587578,-1.67395 -1.759568,0.29612 0.935111,1.39846 0.265992,1.89966 0.741465,-1.1926 1.811188,-4.0116 2.7439,-1.9477 0.85952,0.003 -2.12023,1.68213 -0.242002,1.75504 0.669245,-0.58291 2.9286,-2.56167 2.228237,-0.14245 0.07212,1.79296 1.130782,-0.78431 1.119126,1.11324 1.135578,0.37455 3.908289,0.97124 1.406525,1.87147 -1.116557,1.54037 0.498227,0.18713 0.796872,-0.0325 0.506259,1.25234 2.024327,-2.044 1.841212,-0.10126 1.164297,0.23066 0.737751,-1.16043 1.829535,-0.84378 -0.125197,-1.76472 -2.08143,-2.87816 -2.538075,-3.83891 -0.375055,1.77347 -1.021136,-0.49686 0.220609,-0.91213 -1.471362,0.69066 -3.931108,-1.8288 -1.295313,-1.91801 1.18552,-0.28833 0.154669,2.4469 1.221488,0.61902 0.016,-1.8386 1.975807,-0.11495 2.806127,-1.19138 1.691638,0.72246 -0.773498,4.18302 1.229856,2.22686 1.044871,-0.72761 -0.03488,-2.44377 1.706144,-1.46363 0.726713,0.46106 2.543974,-1.0781 3.11174,0.69446 1.41444,0.17217 1.375249,-0.13498 1.942651,-1.26012 0.164692,0.0437 -0.06934,0.97558 0.998964,0.9638 -0.953786,1.35745 1.562019,0.24704 -0.0064,1.52749 -1.562874,-1.28266 -0.100528,2.14323 -1.637006,0.80603 -1.895784,-1.17351 0.658013,1.73051 1.181178,2.28516 1.28398,1.01699 1.904358,-2.17029 1.843521,0.21548 2.266394,0.74665 1.392662,-2.48791 3.427552,-2.19023 -0.863988,-0.66747 -3.211608,-0.027 -1.234292,-1.34248 0.744303,-1.45963 0.158928,1.93133 1.622822,0.73824 0.54575,-0.22311 0.238396,3.00279 0.323534,2.83027 -0.684663,-1.28584 -1.821172,1.43284 -1.513082,-0.44906 -1.991304,1.27715 0.381889,2.95929 -1.681478,4.47106 -1.922976,2.11091 -0.774523,-2.85957 -2.414584,-1.03418 0.471641,-1.28745 -1.844787,0.30331 -2.203217,-1.15984 -0.705225,-0.20523 0.03481,2.17953 -1.610516,1.12644 -0.821863,-1.01493 -3.77208,-0.75419 -2.872528,0.36468 1.21061,-0.89251 1.432823,-1.14717 0.283294,0.0784 -1.001825,-0.0223 -2.040264,0.17979 -2.639813,1.00691 -0.529769,-0.85126 -2.71382,0.36558 -2.237075,-1.03761 -1.308354,-0.64451 -3.065182,0.97646 -4.352731,0.48297 -0.364064,-2.24336 -1.769388,-0.8199 -0.952074,0.55359 1.628774,0.39367 -0.763977,0.5784 -0.991855,-0.33731 z m 20.729368,-2.14753 c -0.537554,-0.88077 -1.519247,1.07979 -0.149627,0.20418 z m -8.944414,-6.37356 c -1.787766,-0.47486 -1.112509,1.86597 0,0 z m -40.064905,7.19817 c -0.895123,-1.47244 -4.634679,-0.27312 -3.138817,-2.90581 -0.411034,2.44455 1.865208,-1.54591 1.456359,0.99604 0.687928,0.27575 1.841168,-0.94237 1.582919,0.78159 2.022545,-0.38628 1.808277,2.70723 0.09954,1.12818 z m 9.612644,-0.33073 c -0.428522,-1.6966 2.248671,-1.52317 2.5654,-3.07376 0.004,1.36023 1.555186,-0.59134 -0.08561,-0.8877 -0.773489,-0.426 -0.45757,1.49968 -1.45458,0.42814 0.132111,1.5583 -1.44023,-0.39382 -0.192884,-0.50048 -0.483715,-1.17305 -1.431404,-1.23902 -1.705237,-0.60966 -1.198103,-0.90363 0.151766,1.02023 0.773504,0.36215 0.611935,2.02804 -2.511658,1.5153 -1.815625,2.49238 -0.939748,-0.30956 -1.716656,0.25064 -0.519359,0.48285 1.61e-4,1.6604 -2.414097,1.81812 -1.177819,0.33829 -0.890132,0.1804 -2.971742,-1.96466 -2.132895,-0.30527 -1.645816,-0.419 -1.630441,-3.05448 0.625636,-2.74001 1.832898,-0.2638 -2.314467,1.42559 -0.07937,1.41127 0.465864,-0.5634 1.908116,1.49906 0.990488,-0.2211 0.728906,0.36431 4.024959,-0.19956 2.388047,-2.25111 -0.269092,-0.7997 -1.531476,-2.32189 0.08953,-1.30026 0.0928,-1.11834 -2.121663,-2.06993 -1.544466,-3.77593 -0.775681,-1.1395 0.631933,-3.27244 0.34943,-0.85623 0.319621,0.83916 0.633394,3.30795 0.765073,1.28301 0.482615,0.78744 1.858449,0.0387 1.180612,1.59693 0.45158,0.82786 1.781934,-0.0973 2.276079,1.29593 1.817896,1.35397 0.380987,-2.15688 0.146377,-2.48882 2.084175,1.79794 1.909451,-2.85661 3.029345,-0.48753 1.178255,0.29487 2.440036,3.39601 2.831275,0.86776 -0.17606,-1.14724 1.029335,0.61155 1.573504,-0.0874 -0.888691,1.65783 -0.09259,3.49541 -0.623399,5.01479 0.206559,2.16425 -3.798493,1.35327 -4.325799,3.33761 -1.151147,0.18405 0.188101,-1.19689 -1.222667,-0.1396 -1.237172,-1.92242 -1.836029,2.86013 -2.704584,0.81377 z m 0.935112,-5.42396 c 0.374084,-4.0986 -1.657588,1.86347 0,0 z m -18.155218,3.83646 c 0.302265,-1.4237 1.641887,-1.41928 0.789698,0.0662 -0.07827,0.38848 -0.776402,0.33971 -0.789698,-0.0662 z m 60.428102,-1.99338 c 1.234333,-0.91449 -1.7495,-0.5123 0.217959,-0.94175 2.273905,-0.11786 -2.016231,2.55072 -0.217959,0.94175 z m 2.282142,-3.6935 c -0.740981,0.0738 -3.586211,-1.95094 -2.534522,-1.89884 1.751978,1.74535 0.930632,-1.62745 -0.602168,-1.30334 -0.399898,-1.05421 -1.952338,-0.54309 -2.576724,-1.48411 -0.259351,0.95674 -1.895186,-2.11948 -0.435092,-1.46693 1.880711,-0.29709 2.778886,3.7898 2.996549,0.87621 2.266231,-2.24123 1.119016,2.03657 2.346488,2.06934 0.822208,-1.61505 0.987059,1.43359 0.6889,1.67259 1.68188,-1.99697 0.388434,1.89231 0.116569,1.53508 z m -62.273324,-0.2442 c -0.748163,-1.00961 3.987661,-0.94304 1.544505,-0.50625 -0.462353,0.2607 -0.957152,1.0314 -1.544505,0.50625 z m 58.966247,-0.43033 c -0.22675,-1.90487 0.897724,0.8639 0,0 z M 32.442124,163.1811 c -0.987042,-0.0429 -2.417032,-1.29542 -0.635388,-0.33651 1.431868,-2.78857 2.403099,1.47189 0.635388,0.33651 z m 8.863792,-0.12506 c 1.624739,-0.88891 -0.4162,1.27931 -3e-6,0 z m 39.037259,-0.98822 c -0.734904,-1.3599 1.684704,-2.92392 1.851979,-1.39922 -0.901421,-0.0529 -1.039586,1.358 -1.724635,0.94564 0.446465,0.91615 -0.307165,2.17149 -0.127348,0.45358 z m 5.462082,0.67558 c 1.04989,-2.42821 0.533339,1.63731 0,0 z m -51.567926,-0.61631 c 1.509171,-2.17076 0.128741,1.75923 0,0 z m 49.477559,-2.42563 c -0.516265,-1.08185 -2.106758,0.72163 -0.785566,-0.63508 0.733314,-0.22598 2.225361,2.13236 0.785566,0.63508 z"
         id="path4651" /></g></g></svg>
