<?xml version="1.0" encoding="UTF-8" standalone="no"?>
<!-- Created with Inkscape (http://www.inkscape.org/) -->

<svg
   width="65.96183mm"
   height="21.993504mm"
   viewBox="0 0 65.96183 21.993504"
   version="1.1"
   id="svg4328"
   xml:space="preserve"
   inkscape:version="1.2.2 (732a01da63, 2022-12-09)"
   sodipodi:docname="tapissant-natural_low.svg"
   xmlns:inkscape="http://www.inkscape.org/namespaces/inkscape"
   xmlns:sodipodi="http://sodipodi.sourceforge.net/DTD/sodipodi-0.dtd"
   xmlns="http://www.w3.org/2000/svg"
   xmlns:svg="http://www.w3.org/2000/svg"><sodipodi:namedview
     id="namedview4330"
     pagecolor="#ffffff"
     bordercolor="#666666"
     borderopacity="1.0"
     inkscape:showpageshadow="2"
     inkscape:pageopacity="0.0"
     inkscape:pagecheckerboard="0"
     inkscape:deskcolor="#d1d1d1"
     inkscape:document-units="mm"
     showgrid="false"
     inkscape:zoom="2.2173472"
     inkscape:cx="121.09064"
     inkscape:cy="-46.902894"
     inkscape:window-width="2560"
     inkscape:window-height="1369"
     inkscape:window-x="-8"
     inkscape:window-y="-8"
     inkscape:window-maximized="1"
     inkscape:current-layer="layer1" /><defs
     id="defs4325" /><g
     inkscape:label="Calque 1"
     inkscape:groupmode="layer"
     id="layer1"
     transform="translate(-55.860653,-219.12672)"><g
       id="g4461"
       transform="translate(14.5125,48.6)"><path
         style="fill:#90a9a5;stroke-width:0.264583"
         d="m 64.551382,191.74395 c -0.409057,-2.099 -1.829804,1.16521 -1.944773,-1.15775 -0.178304,-1.05305 -0.699879,-3.24838 -1.080697,-1.25836 -1.130649,0.56143 -1.892564,-1.96386 -2.710264,-0.51139 -1.021965,1.70279 -2.056086,0.61972 -1.870896,-0.36541 -0.986542,2.00725 -3.211575,1.83411 -4.830411,0.86008 -2.158072,0.73573 -4.401348,0.49315 -4.56546,-2.13663 -0.707136,1.18855 -1.785152,2.20591 -2.265673,0.20631 -2.301337,0.43043 -2.262073,-1.6814 -0.730933,-2.72454 1.278414,-1.47707 -2.313977,-1.30991 -3.200685,-2.53956 -0.121757,-1.70747 3.031373,-1.79023 3.08716,-3.59194 1.111284,-0.81425 2.512775,1.22504 3.628695,-0.088 0.890145,0.27382 1.50178,2.68019 1.119403,0.69366 -0.723568,-2.48237 2.725974,0.44631 2.056218,-1.89966 1.227287,-2.54815 2.212343,0.26413 2.292301,1.72843 0.435788,1.45521 0.703231,-2.3896 0.122839,-3.02728 0.0062,-1.51649 2.208081,-0.95975 2.997175,-1.91808 1.276137,3.36416 2.26008,-2.7925 4.169401,-1.64119 0.79669,1.61489 -0.541539,3.51309 -0.423884,4.60254 1.713839,0.98194 1.92136,-4.79461 4.069716,-1.90494 0.481259,-1.17176 -0.196372,-4.43103 2.135227,-4.49336 0.783679,1.30471 1.068685,2.92704 2.729639,2.56467 0.725921,0.80724 -0.694076,4.91603 0.831937,3.74313 0.294073,-1.94247 1.703661,-3.62324 2.756156,-1.18696 1.217798,-1.31031 5.251345,-2.58878 3.833903,0.61067 -0.792559,1.48068 0.461727,2.11679 1.259617,0.64691 1.704352,-0.006 3.125102,-1.49077 4.927239,-1.58913 2.292586,-1.54505 0.689003,3.01134 2.945402,2.74599 1.110296,1.03743 2.420379,-3.12535 3.843695,-1.21286 -1.019702,1.53739 1.424541,0.96836 2.280047,0.85103 1.318232,-1.66606 2.63086,2.80694 2.975163,0.102 0.01387,-1.39488 2.697109,-2.11551 3.518592,-2.5311 0.368006,0.19987 1.639189,1.86687 1.323831,0.95665 -1.749632,-2.26758 1.474318,-2.28232 2.356278,-0.57355 0.68954,0.33908 3.30504,-2.47056 2.82011,0.17051 -0.64311,1.77194 1.99131,0.60246 1.86626,2.50421 1.09362,2.02519 -2.25163,4.58384 0.43582,5.88216 0.0381,1.50852 -2.35908,2.70816 -2.29467,4.66135 -0.92645,0.76616 -3.10641,-1.65744 -2.34638,0.82818 -1.98437,-1.19492 -3.695772,1.73141 -5.779662,0.83783 -0.817042,-1.91612 -2.637207,-1.50577 -3.476712,0.0209 -1.636302,0.74929 0.123501,-3.20356 -1.9739,-2.02483 -1.581638,1.32905 -3.528788,1.80946 -5.375631,1.90164 -0.760983,0.41124 -1.123068,-2.21038 -2.345246,-0.60019 -0.898795,1.32615 -2.021876,-0.51532 -3.177232,0.88567 -1.016505,-0.27622 -1.948841,-2.23967 -2.574947,-0.46869 0.03981,2.58916 -2.161026,1.94096 -2.919553,0.10874 -1.730524,-0.16812 -3.227055,-0.70628 -4.341231,0.29438 -0.93516,-1.61829 -4.196226,2.05798 -3.748779,-0.73064 -0.670356,-1.32662 -0.81921,2.08118 -1.917145,2.54467 -0.162353,-0.25875 -0.324707,-0.5175 -0.48706,-0.77625 z"
         id="path4475" /><path
         style="fill:#6e8f8a;stroke-width:0.264583"
         d="m 64.519513,191.43073 c -0.403264,-1.84327 -1.999275,1.08957 -1.958791,-1.35087 -0.02394,-1.17378 -0.759941,-3.15312 -0.995792,-0.93692 -1.092021,0.62098 -1.968968,-1.8865 -2.758796,-0.42942 -0.777397,1.02998 -1.752846,1.37815 -1.704251,-0.22032 -1.66964,1.64005 -2.859398,1.53006 -4.910538,0.69158 -1.756855,0.24053 -4.110091,1.14518 -4.253268,-1.50386 -0.389343,-2.5999 -4.675488,1.02187 -4.417618,-1.61722 0.194209,-1.27904 3.749783,-2.32922 1.866925,-2.04126 -1.422909,-0.72577 -4.704181,-1.34662 -3.16131,-3.38028 1.523626,-1.56372 0.860035,3.2088 2.664985,1.16063 0.491593,-1.10731 -2.538789,-1.15084 -0.720695,-2.33712 0.267391,-2.97673 2.719088,0.97897 3.800654,-1.05025 0.998722,0.19751 1.451702,3.17397 1.419409,0.60745 -0.674278,-2.35981 2.372053,0.50921 1.959834,-1.79837 1.751977,-2.6141 1.656777,1.70188 2.623355,2.1475 1.015052,-1.48063 -1.825324,-4.85769 1.252659,-4.36957 0.897937,-1.39786 1.801875,-1.09841 2.248154,0.35841 1.035928,-0.70286 3.355442,-5.17309 3.42068,-1.48238 0.272091,1.50392 -1.940275,3.58746 0.77133,3.46706 1.302124,0.95703 1.369955,-1.3876 2.426117,-0.29533 2.259554,-1.45231 -0.639876,-4.55631 1.705616,-5.96522 0.854651,-1.43791 1.081437,0.26488 1.48354,1.04954 0.610907,1.51175 0.129619,0.50035 -0.566685,0.25491 -0.420057,0.87677 0.3795,2.35508 0.42695,3.18529 1.477006,-0.94318 -0.57922,1.11518 1.022844,0.0349 0.243491,0.34257 0.0021,1.49433 0.766432,0.40913 0.336782,1.74823 1.695213,2.21099 3.168539,2.24311 1.927328,0.21544 3.05282,2.22446 4.872739,1.95383 -0.07351,-1.81257 2.759301,-1.84348 2.392816,0.1225 0.930807,0.5385 4.039241,-0.17662 1.770414,-1.43067 -1.217338,-0.76275 -0.360344,-1.79559 -0.277555,-2.33466 -0.282784,0.8691 -2.269872,2.33724 -1.836894,0.63997 1.155621,-1.39189 3.698887,-1.89927 5.122319,-1.85977 0.0097,1.54038 0.07805,2.74991 1.825292,2.83641 0.810718,1.65728 2.013564,-3.01143 3.735124,-1.32091 -1.344852,2.3698 2.293712,0.76666 3.513813,0.59994 0.267312,1.03036 1.115186,1.97643 2.04266,1.03528 -0.972361,-1.91791 2.194052,-2.49207 3.285421,-2.90431 0.885663,0.40264 2.170419,2.1607 1.235482,0.32087 -1.327733,-2.74076 1.976997,-0.79854 2.670637,-0.0144 1.13105,-1.20191 3.45214,-1.88108 2.34845,0.59087 0.27291,1.07506 1.75096,0.22331 1.89949,1.83183 1.29535,2.09897 -2.21427,4.66345 0.53396,6.12338 -0.33621,1.59751 -3.5004,2.53655 -3.30047,3.94212 1.55714,-1.11504 1.51143,1.03693 -0.0356,0.3428 -1.30323,-0.84481 -1.72669,-0.39893 -1.47517,0.9897 -1.81865,-1.98639 -4.566382,2.97335 -5.710176,0.17551 -0.782831,-1.68174 -2.820767,-0.0846 -3.79589,0.84121 0.09617,-0.56924 -0.414666,-3.63729 -1.540077,-2.11476 -1.297007,0.68909 -2.900641,1.51914 -4.157529,1.6946 -0.980318,-0.39891 -1.664406,0.78012 -2.134223,-0.81493 -0.974526,-0.50598 -1.964922,0.71297 -2.217884,0.35038 -1.223419,0.35392 -2.996562,1.04225 -4.177183,-0.46 -1.075283,-0.0194 -1.43299,4.23344 -3.01149,1.86043 -0.734425,-1.65537 -3.703439,-1.26848 -4.817169,-1.68599 0.49302,0.37232 0.450191,1.48553 -0.860261,0.67844 -1.311511,0.003 -3.385499,1.4863 -3.445161,-0.87164 -0.782792,0.32608 -0.620175,4.34152 -2.036154,2.05085 z m 0.972156,-1.62534 c -1.206701,-1.44343 -1.134865,0.90825 0,0 z m 6.264754,-9.07012 c 0.206492,-1.07184 -0.04174,-1.53731 -0.546749,-0.64079 -1.156416,-0.0306 1.179723,2.9424 0.546749,0.64079 z m -18.105453,0.3653 c -0.643536,-0.80949 -2.51857,-0.32982 -0.928081,0.3902 0.29164,0.004 1.019699,0.0687 0.928081,-0.3902 z m 16.603199,-0.5839 c -1.191967,-2.31063 -0.376682,1.93697 0,0 z m -6.574896,-2.77813 c -0.765255,-1.32264 -0.676436,1.30415 0,0 z m -4.417915,-3.08241 c -0.879095,-0.81972 -0.723071,2.01742 -0.930754,2.81783 0.386505,-0.90138 1.058168,-1.7926 0.930754,-2.81783 z m -13.45284,13.6441 c -0.619268,-1.8737 0.405266,-0.0886 1.32339,-1.03749 -0.129149,0.36794 -0.880752,2.21029 -1.32339,1.03749 z m 30.562688,-9.8042 c -0.446119,-2.71481 2.165054,1.81679 0,0 z m -6.112987,-0.97934 c 0.329599,-2.29645 1.455162,1.18291 0,0 z M 77.8058,177.3295 c 2.446303,-1.44861 -1.087197,1.69649 0,0 z m -1.986579,-0.18627 c -1.316944,-1.19219 -3.70862,-0.4452 -4.995664,-1.53546 0.274448,-1.53766 1.571308,-1.34779 1.859911,-0.009 1.611449,-0.88687 5.609391,-2.22683 3.678168,1.23359 0.149705,-0.26968 -0.483302,0.66728 -0.542415,0.3104 z m -13.498502,-1.90839 c 0.272406,-1.59183 3.014805,-0.1043 0.943666,0.11892 -0.256887,0.0182 -0.786615,0.19442 -0.943666,-0.11892 z m 6.142273,-1.32207 c -1.416734,-1.60473 2.539531,0.0756 0.480263,0.36096 l -0.216621,-0.15051 -0.263639,-0.21052 z"
         id="path4473" /><path
         style="fill:#5c817b;stroke-width:0.264583"
         d="m 64.580629,191.57029 c -1.172429,-1.74129 0.684657,0.0427 1.001548,0.20464 -0.156856,0.70974 -0.855848,0.16371 -1.001548,-0.20464 z m 11.080708,-0.49689 c -0.02068,-1.83216 -4.678325,-0.26654 -3.249557,-1.82292 1.882763,-1.8705 -2.88254,0.69817 -1.920285,1.21164 -0.654227,-1.4327 -3.802204,1.71827 -3.426487,-0.27063 1.215528,0.89608 2.357157,-0.23212 0.975326,-1.39646 -0.583881,0.21367 -2.475594,1.19457 -2.18127,0.87846 -0.753488,-1.5921 -3.858672,1.93385 -3.593088,-1.20803 -0.07813,-0.80606 1.219055,-2.21172 -0.154773,-0.70702 -0.105499,2.41215 -2.035753,0.98838 -3.075185,0.0544 -0.748305,-0.19112 -2.083552,2.39041 -0.41598,0.88812 -0.901965,1.36472 -1.36885,0.8284 -1.681238,-0.40288 -1.620266,2.06814 -3.789336,-0.1365 -5.78912,0.90949 -1.032184,0.71136 -2.067018,-1.31532 -2.059127,0.2718 -1.445258,-0.56423 -1.123331,-4.39695 -3.398891,-2.59525 -1.524394,0.83913 -3.290847,-0.40558 -1.470524,-1.69239 0.317411,-0.82415 2.309967,-0.17201 1.66691,-1.45166 -1.678842,0.0286 -5.502581,-1.18268 -3.347688,-3.17634 -0.08631,0.85386 0.78611,0.48769 0.337102,1.73818 1.233688,-1.37262 0.1539,1.60273 1.607793,-0.006 0.847355,-0.93307 1.352069,-1.63065 2.388102,-2.23969 -0.962428,0.11268 -3.322867,1.72533 -2.955212,-0.13159 0.327033,-1.22029 1.000424,-2.25769 2.355251,-1.07894 1.043619,0.68685 2.086691,-1.43106 2.556649,0.67911 1.134029,2.57147 -0.306861,-3.32288 1.786087,-1.24177 0.838935,0.90379 0.903929,-3.35068 2.152297,-1.51808 0.727642,0.86866 0.471836,5.32806 1.322875,2.2573 0.727722,-1.39184 -1.715712,-4.7827 1.307598,-3.87795 1.403147,1.18966 -0.424139,-1.83527 1.560964,-0.86294 -0.225911,1.88986 2.085172,0.0344 1.162322,2.16688 0.217791,2.10666 2.934745,-2.85149 0.754899,-2.79178 1.023993,-2.14178 2.429371,-1.2233 1.825702,0.79998 -0.377162,1.56781 -1.073447,3.22136 1.369094,3.11132 0.595472,0.72252 2.536587,0.98287 1.435417,-0.22577 -1.279358,-1.09492 1.740673,0.75717 1.150674,-0.96835 0.807465,-0.62665 0.572666,-1.58089 0.66901,-1.94207 0.457352,0.62775 1.757988,-0.053 0.760261,0.96354 1.444,-0.56778 -0.579309,1.8893 0.819366,1.09191 1.06259,-1.54761 0.967822,2.17556 2.090784,0.35876 0.795114,0.66915 -0.583554,1.68553 1.176447,1.37234 0.124811,1.12992 -1.773342,2.42296 0.451024,2.82812 1.202537,1.11667 1.260156,1.33836 1.953448,-0.36265 1.079673,-4.5e-4 2.902009,-1.09939 3.931313,0.005 -1.089556,1.01553 0.785149,0.43811 0.619239,1.66945 0.121516,-2.20294 3.113211,-0.90933 4.21543,-1.98051 2.032756,-0.59241 -2.153949,-2.46481 -0.127095,-3.84859 -0.614935,-1.06141 2.143896,-0.64628 2.84492,-1.40533 1.139951,0.94573 -2.440526,2.4585 -0.102557,1.63619 0.412936,0.0366 0.355354,1.60374 1.569738,1.26282 1.343019,2.13141 2.424303,-2.80617 3.988575,-1.12734 -0.790799,1.95679 1.282218,0.86477 2.218105,1.26935 1.045226,-1.31269 1.8872,-0.50682 2.341399,0.69751 1.941319,0.30118 0.401586,-2.89295 2.868443,-2.46948 0.941728,-1.32622 2.239514,-0.68684 3.040525,0.38038 -0.325552,-1.03797 -1.199089,-3.14782 0.853041,-2.11207 1.12447,1.27727 1.96773,1.40465 3.14975,0.26053 2.18456,-0.92832 -0.54916,3.38558 2.04636,2.07798 1.43205,1.78508 0.83374,4.0944 -0.11357,6.07161 0.72057,1.05028 1.26911,1.16221 -0.18264,1.0104 -0.33641,1.48601 0.0836,1.25541 0.64654,1.36171 -0.96794,0.57572 -2.48511,2.12054 -2.77184,2.87135 1.49668,0.49773 1.18301,0.90511 -0.11389,0.27211 -1.35921,-0.91597 -1.17685,0.17558 -1.13801,1.14773 -1.74172,-2.10432 -4.517384,2.93404 -5.626028,0.1836 0.168138,-1.14431 -0.457838,-2.29894 -0.392995,-0.54816 -1.629135,-1.2564 -2.30851,1.45175 -3.559685,1.03069 1.081895,-1.83896 -1.40498,-2.79947 -2.376452,-1.16723 -1.60268,0.22094 -2.528137,1.46556 -4.10927,1.06365 -0.788231,0.51222 -1.349875,-1.92388 -2.85466,-0.7027 -1.260944,-0.18262 -3.124207,1.97328 -4.304553,-0.0402 -1.389736,-1.39093 -1.420221,3.52848 -2.956503,2.28604 l -0.244831,-0.34497 -0.275867,-0.42126 z m 26.342833,-2.9751 c -0.89772,-1.83166 -1.81327,-0.0586 0,0 z m -55.35613,-2.55966 c 0.473846,-1.69152 -1.85671,2.14997 4e-6,0 z m 1.518691,-2.37075 c 0.337188,-1.51864 -4.113964,-1.21593 -1.54745,-0.64152 0.16121,0.3043 1.855685,1.72177 1.54745,0.64152 z m 5.683271,-1.82816 c -0.377163,-1.30388 -1.650841,-1.11273 -1.793014,-1.27885 -0.431134,1.47253 0.617964,1.92596 1.793014,1.27885 z m 8.995833,9.58388 c 0.464517,-0.81662 1.626997,-0.41633 0.221976,0.41777 l -0.162876,-0.083 -0.05909,-0.33478 z M 45.80229,188.01942 c -0.415973,-0.85578 1.062385,-0.11285 1.088795,-0.30994 -0.170471,0.48037 -0.832313,1.18424 -1.088795,0.30994 z M 72.159169,179.67 c -1.060834,-2.02865 4.371754,0.53212 1.389618,-0.0777 -0.444163,0.26148 -0.894751,0.6632 -1.389618,0.0777 z m 6.036466,-0.21908 c 1.572625,-1.44917 -0.336271,1.75967 0,0 z m 1.242467,-2.19152 c 0.376335,-2.4244 1.410587,0.44789 0,0 z m -3.255039,-0.51917 c 0.168547,-0.80672 -2.145392,0.9095 -1.07348,-0.85665 -0.02427,-1.34606 -1.166529,0.94756 -0.850454,-0.71352 1.319124,-1.68121 3.698207,-0.61804 2.185095,1.37786 0.420782,0.17214 -0.52754,0.52346 -0.261161,0.19231 z m -4.983803,-1.4287 c -0.07923,-2.41304 2.454133,1.76532 0.4668,-0.25204 0.294977,0.44929 -0.2937,0.8612 -0.4668,0.25204 z m -6.236758,-1.3963 c 1.113694,-1.22824 0.312023,-0.47667 -0.120673,-0.98363 -0.32503,-1.60182 2.832719,-2.87731 1.331741,-1.213 -1.237289,-0.92832 0.965483,3.18695 -1.211068,2.19663 z"
         id="path4471" /><path
         style="fill:#4a736c;stroke-width:0.264583"
         d="m 75.709533,191.1 c -0.662641,-1.73327 -4.73479,-0.48542 -2.744979,-2.65363 -1.711414,0.53453 -4.008869,2.56845 -5.20125,0.51857 -1.608088,0.0618 -4.301517,0.89707 -5.310181,-0.12962 0.874944,-0.60535 -0.77487,-0.48868 0.282021,-1.63749 -0.609092,-0.34113 -1.250898,3.59033 -2.690497,1.27201 -1.769129,-1.0065 1.427423,-1.22924 0.647323,-2.79337 -0.287338,1.6291 -1.5932,-0.58946 -2.016795,1.26884 0.612022,3.24155 -3.679913,-0.31441 -3.399095,2.21505 -1.221129,0.14516 -2.162738,-0.84026 -2.771242,-0.0848 -0.854416,-0.31903 -3.143679,1.16836 -2.427046,-0.56881 0.287123,-2.02249 -2.613944,0.0974 -1.307605,0.90037 -0.916318,-1.19544 -0.979647,-4.36925 -3.180761,-2.61086 -1.900128,0.96234 -2.889387,-0.90641 -0.978606,-1.83628 1.196736,-0.15053 1.409848,0.85393 0.854851,1.42793 1.849323,0.21088 1.469478,-1.50034 2.224346,-2.11779 1.83862,0.50332 2.941094,-2.31819 0.482988,-2.14563 -0.944153,-0.14498 -0.685261,-1.81268 -1.951798,-1.10176 2.39128,-2.52109 -3.233092,1.3132 -2.304477,-1.12614 0.270729,-2.13112 1.883799,-1.24203 3.297515,-0.87715 1.336094,-2.18695 2.262062,3.39399 2.214738,0.20899 -0.795759,-2.7367 2.59471,0.6847 1.852182,-1.50821 0.376925,-2.52479 2.135923,-0.71941 2.026898,0.9542 0.147097,0.74838 -2.092138,0.61461 -1.448786,2.44879 2.379782,2.34126 2.246398,-2.15029 2.35629,-3.69081 -1.317061,-1.31441 1.049412,-3.68402 0.743964,-1.0775 0.626464,0.0656 2.316698,1.15961 1.150281,-0.26117 -0.925305,-1.01128 -0.361737,-0.66995 0.314487,-0.44942 -0.309868,-0.52715 -0.89288,-1.95771 0.477077,-1.11728 -0.171216,1.83586 1.932364,-0.28406 1.249914,1.6014 -0.120575,2.94888 1.833961,-1.46609 2.161333,-2.30541 0.860572,-1.63794 -0.869669,-1.06118 -1.081742,-0.57611 2.261018,-2.54708 1.468676,2.69231 0.864863,3.73825 0.995269,0.70759 1.955945,0.008 1.417408,1.53455 1.084545,0.13125 0.968375,-0.43427 0.458107,-0.55423 1.679535,0.93021 3.157442,-0.5773 2.980729,-2.20816 1.608191,-1.42201 1.093099,0.79225 1.434513,1.20765 1.928505,-1.56359 0.781515,0.34591 1.250134,1.17085 -0.06221,-0.86833 2.60602,-1.47644 1.423147,-0.0314 1.502435,0.19838 1.210587,0.97296 0.24837,1.81217 -0.01684,1.3701 2.146509,2.25567 2.798088,1.84996 0.42039,-1.94963 2.555648,-1.15251 4.113189,-1.41626 -0.0356,1.28396 0.705008,2.66685 2.095857,1.86073 1.051504,0.28588 -0.136948,-1.87655 1.401926,-1.10084 1.078367,0.2103 1.528204,-0.83147 2.444547,-0.92086 -0.554314,-1.68471 -1.896607,-2.14149 -0.870987,-3.92348 0.482067,-0.33562 3.551849,-1.7289 1.569557,-0.23979 0.10831,0.35389 1.075999,0.39091 -0.09302,1.18177 0.721606,-0.178 1.602307,-0.55967 1.916762,0.67506 1.390264,0.75101 2.166968,1.16927 2.876804,-0.55618 1.551881,-1.56533 2.018987,-0.34903 2.13851,0.9083 0.961668,-0.6417 1.812535,0.33946 2.715131,-0.1802 0.927783,1.80487 -0.309201,-1.92058 0.980449,-0.22718 0.453252,1.78603 2.518036,0.93323 1.769039,-0.62156 1.037315,-0.63649 2.548836,-1.3434 3.578979,-1.48333 0.696518,1.22838 1.931327,1.24899 0.870052,-0.26499 -0.623013,-2.89178 2.720025,1.40698 3.576195,-0.0253 0.86793,-0.86217 2.66178,-0.85486 1.48346,0.68762 -0.54553,2.01823 2.02029,0.23959 1.98156,2.19226 1.25115,1.81772 -1.27425,3.62044 -0.55383,5.24213 -0.37156,1.84027 -1.62534,3.65426 -2.84139,4.79013 -1.2311,-0.0732 -1.28092,0.72643 -1.65523,-0.77007 -2.022819,-1.0145 0.88859,1.72815 -1.13854,1.79207 -1.856293,2.11882 -4.265907,1.3149 -4.063975,-0.97129 -1.699739,-0.59291 -2.058679,1.21979 -3.127976,2.17596 1.89344,-1.27259 -0.733164,-2.30176 -1.763591,-2.36272 -0.843931,1.48924 -2.815296,0.94737 -3.715297,2.05403 -2.452001,-0.92785 -5.075437,-1.24148 -7.248088,0.27259 -1.16173,-0.517 -2.045045,-2.26609 -2.734486,-0.25745 -0.351048,1.11045 -1.300661,2.87639 -2.102315,0.82225 z m -21.389571,-4.01408 c -2.200157,-1.38746 -0.926266,1.03069 0,0 z m 32.46246,-0.99973 c -0.201513,-1.45761 -2.396536,0.38988 -0.268379,0.2071 l 0.15273,-0.0579 0.115649,-0.14919 z m 16.866758,-0.0841 c -1.78813,-0.47926 -0.18476,0.82642 0.31111,0.15523 l -0.31111,-0.15525 z m -4.158553,-4.03385 c -0.725589,-0.67368 -0.285512,-0.70819 -0.4699,-1.39541 -1.463028,-0.009 -0.351843,3.4299 0.4699,1.39541 z m -37.011158,-1.6821 c -0.717564,-1.7989 -0.635657,2.1409 0,0 z m -6.606046,9.01918 c -1.225119,-1.79533 1.784855,-0.74374 0,0 z m 38.986996,-0.3249 c 0.06296,-0.80493 3.015038,0.58986 0.445555,0.18004 l -0.445555,-0.17999 z m -48.703117,-4.60347 c 0.344731,-0.88095 -1.699573,-1.52621 0.413573,-0.9933 1.847401,-0.15703 -1.349836,2.17591 -0.413573,0.9933 z m -3.086884,-1.34605 c -1.556877,0.15573 -1.22052,-2.35454 -0.332916,-1.15063 -0.0202,0.97999 1.355512,-0.8468 0.648406,0.82602 0.702673,0.35639 2.116508,-1.34964 1.455409,0.31593 1.020428,1.31963 -1.402667,0.19641 -1.770899,0.009 z m 32.214885,-6.68143 c 0.496344,-0.70406 2.046327,-2.0301 0.137888,-1.26801 -1.01938,0.17386 -1.685676,0.41836 -0.360576,-0.37639 1.587387,-1.37597 2.364227,0.99056 1.28907,1.59774 -0.255142,-0.65448 -0.785147,0.80288 -1.066382,0.0467 z M 65.259441,172.4118 c -0.554549,-0.90806 1.337818,-1.97944 0.40645,-0.14959 0.290293,0.64414 -0.116333,0.64977 -0.40645,0.14959 z"
         id="path4469" /><path
         style="fill:#3c6962;stroke-width:0.264583"
         d="m 75.829622,191.19661 c -0.353043,-2.06809 -4.967608,-0.35593 -2.849113,-2.76365 -1.572451,0.28105 -4.457379,3.06354 -4.934276,0.0948 -1.586754,1.46538 -3.41411,0.58144 -2.867616,-1.32719 -0.60974,1.5259 -1.567651,-0.68296 -1.932289,1.14988 -0.531559,0.42326 0.08378,-0.93857 -0.793237,-0.31727 0.750542,-2.61589 -0.755939,1.02235 -1.348835,1.18346 -1.683344,-0.76575 -1.512576,-1.6564 -0.328741,-2.73572 -0.720376,-1.56764 -2.830031,0.0921 -2.047315,1.1616 -1.566436,-0.18424 0.433844,1.00889 -1.323853,0.74529 -1.242078,0.20862 -0.697213,-2.40158 -1.95796,-0.53052 -0.259255,1.70875 -1.28992,1.19964 -2.338788,0.7397 -0.691707,0.56067 -0.252641,-0.4042 -1.357434,0.49611 -0.88847,0.30475 -0.862212,-0.58399 -1.442474,0.0803 0.10291,-1.70962 -0.686809,-1.95581 -1.922621,-1.09318 -0.66019,-0.77351 -0.993508,-2.43939 -2.316133,-1.5783 1.272915,-0.0804 1.541338,-1.71593 2.59607,-1.03245 0.59611,-0.91206 0.912614,-2.81493 1.653127,-0.8904 0.992758,0.0338 1.369907,-0.76203 1.779379,0.52507 1.335756,-0.19351 2.034441,-2.52308 0.301791,-1.78939 -1.70261,0.002 0.08941,-2.8205 -0.07009,-0.33224 0.531563,0.35134 0.785572,-1.18539 1.492515,-0.11885 -1.210528,-1.77993 2.358971,0.10355 0.45064,-1.11995 -1.903255,-1.11448 2.512774,-3.34204 0.838963,-1.42029 0.881312,0.8214 -2.048438,0.0955 -0.01338,0.84004 1.386291,-0.004 1.157509,-2.88972 0.06588,-2.2343 -0.549158,-0.46758 -1.207152,0.87417 -0.978084,-0.73115 -0.01221,-1.02824 -0.562022,-4.42303 0.295044,-2.14278 -0.677822,1.94026 3.559091,4.26464 2.62338,1.06047 0.03507,-0.92437 -1.399715,-3.32784 -0.57455,-2.68455 0.0094,1.57076 2.483104,0.13452 1.489113,2.03544 0.06544,2.39802 1.682834,-1.90106 2.065682,0.0444 -0.838707,1.41482 -0.517071,-1.19722 -0.909327,0.65697 1.001043,-0.0365 2.932231,0.6479 1.032151,0.71513 0.598135,0.57505 0.682656,2.08002 0.521464,1.90584 1.226226,-1.34025 0.621807,2.91235 1.942361,0.72129 -0.344675,-1.01128 -1.292262,-2.02507 0.174668,-2.37434 0.769507,1.31831 1.52578,-0.9264 2.007827,-0.99487 -0.402345,-1.368 2.332245,-1.76542 1.058106,-0.13038 0.812961,1.68212 1.769024,-2.10772 1.331427,0.26549 -0.230625,1.91137 3.414019,-1.42695 1.487458,0.78422 -0.648396,0.97253 2.600601,0.068 0.979422,1.35636 -0.908927,0.72905 0.492111,1.96187 -0.726324,2.59512 0.728053,0.17342 2.416233,-1.14585 2.064285,-0.30869 -0.411401,0.44165 1.621899,0.21135 1.579392,-0.88532 0.97878,0.2659 2.737502,-1.10773 3.660342,-0.25983 -2.05417,-0.62216 -1.47753,2.22636 -0.212651,0.70131 0.916364,0.64625 0.676786,2.10787 2.135595,1.1089 1.152151,0.0486 0.415478,-1.90143 2.094761,-1.12632 0.676227,-0.69322 1.451947,-0.72396 2.277043,-0.29375 -0.793866,-1.30543 -1.12327,-2.53744 -0.646528,-3.81355 -0.956897,1.10704 0.262786,-1.88249 0.78204,-0.4724 -0.272216,0.78032 1.323129,2.18783 1.454536,0.32217 -0.03637,1.58974 2.60069,1.3941 3.148759,2.59145 -2.080971,-1.60068 3.253468,-4.65401 1.966925,-1.60057 0.709147,0.95099 1.212393,-0.76373 1.280271,0.66275 0.427509,-0.0896 2.617189,-1.41555 1.204019,-0.0732 0.877905,1.65178 1.57256,-1.47206 2.46377,0.41655 1.928168,0.20598 0.04965,-2.83217 2.375695,-2.43378 1.18797,-0.67354 1.871558,-1.65042 2.808541,-0.10564 1.666045,1.1079 -1.190722,-3.31911 1.389945,-1.76366 0.95338,0.49272 1.71533,2.09027 2.59319,0.67217 1.37755,-1.04413 2.00233,-0.27839 1.24642,1.10148 -0.39848,1.702 2.13018,-0.2024 1.70516,1.67092 1.45626,1.86186 -0.44359,4.15498 -1.17588,5.82755 1.78775,1.30405 -1.8572,3.53011 -1.11957,1.68252 1.03676,1.14566 1.51682,-2.09662 -0.0922,-0.53899 -0.3673,1.59358 -3.13927,-0.27572 -1.52419,1.14195 -0.6456,0.99397 -1.88302,-0.32552 -1.60289,1.63298 0.75039,1.67907 -3.846843,4.08612 -4.113586,1.74589 0.828632,-1.84775 -1.769498,-1.12644 -2.319338,-2.05905 1.493433,2.82044 -4.772342,-0.27022 -3.515832,0.76266 1.613679,-0.32553 -1.609645,1.62049 -2.370182,1.3036 -1.506535,1.74615 -4.180098,-1.69968 -6.152112,0.0713 -1.422128,1.31437 -2.646504,0.42335 -3.855008,-0.31248 -1.095311,0.47694 -1.117205,3.94573 -2.684714,1.81583 z m -9.544203,-3.03826 c -0.729091,-1.4413 -0.48213,2.07751 0,0 z m 9.519054,0.30693 c -0.04626,-2.90332 -1.469302,1.55918 0,0 z m -8.196138,0.033 c -0.591335,-1.47588 -1.643493,0.89725 0,0 z m -13.07237,-0.70899 c 0.778271,-2.15456 -5.202656,-1.92765 -2.14038,-0.26819 0.921132,0.55243 1.538598,0.16829 1.818351,0.88063 l 0.123344,-0.14285 z m 17.911893,-1.27661 c 1.184348,0.0827 1.192275,-0.44988 0.259488,-1.34807 1.382786,-1.42398 -0.726166,-1.42334 0.51189,-2.95145 0.694414,-1.37375 2.173631,1.27168 1.414299,-0.71495 -2.318344,-2.13454 -2.448678,2.72099 -4.359093,2.4575 1.267671,-2.05392 -1.884288,1.27355 0.428752,0.92899 0.452505,1.04745 -1.158022,2.48794 0.846886,1.56754 1.20049,0.14722 -1.630593,1.74545 0.56931,0.57798 0.119906,-0.13586 0.393555,-0.28732 0.328468,-0.51754 z m 14.304039,-0.3991 c 0.149976,-1.39503 -1.898076,-1.03866 -2.126163,-0.41601 -0.319725,-0.75264 -1.998302,-0.98656 -0.926219,-1.22493 -0.644151,-1.44261 -1.457291,1.89838 -1.061152,-0.58015 -2.038147,0.21626 0.08972,2.82181 1.526024,2.35657 0.505453,0.45627 1.99648,0.28944 2.58751,-0.13548 z m -29.462312,-3.49913 c -1.677485,-1.55857 0.55188,-1.9249 1.574695,-1.18586 -0.598161,-2.36468 -4.073012,0.45176 -2.083093,1.33347 0.122142,0.15781 0.590177,0.17561 0.508398,-0.14761 z m 42.433177,-0.94222 c 0.886378,-1.32341 -1.002136,-2.06448 -1.629966,-2.66467 -0.91051,1.03234 -0.008,5.02778 1.683671,3.169 l -0.05371,-0.50438 z m 5.997528,0.81443 c 0.70862,-1.64381 -1.15883,-0.9971 -1.30075,-0.0583 -0.86047,0.28858 1.25537,0.62827 1.30075,0.0583 z m -8.626714,-2.5772 c 0.224515,-0.78042 2.088242,-2.36794 -0.0045,-1.68591 -0.924933,0.51694 1.168679,0.36945 -0.269225,0.8778 -0.387709,0.19549 0.181411,1.88022 0.273679,0.80811 z m -11.907673,-0.17997 c 2.656927,-2.64819 -4.057467,0.82454 0,0 z m 16.718677,7.98386 c 0.71671,-0.71579 2.78742,0.36596 0.59649,0.19496 l -0.27552,-0.0455 z m -58.380284,-0.98734 c -0.325019,-1.35976 2.531994,-2.60815 1.128407,-0.54981 0.38866,0.69471 1.264002,0.60893 -0.29939,0.74874 -0.275601,-0.0149 -0.608264,0.007 -0.829017,-0.19893 z m 0.536123,-3.27173 c -0.698849,-0.14918 -2.950693,-1.5089 -1.368274,-1.81496 -0.568983,1.19142 1.180352,0.0625 0.70209,1.23797 1.154133,-0.41703 1.031954,-0.57921 0.886167,0.27087 1.398723,-0.19947 0.430041,0.98621 -0.219983,0.30612 z m 5.971653,-0.79095 c 0.605221,-2.21327 1.095408,1.00775 0,0 z m -1.473737,-1.32812 c -1.090199,0.0496 -1.793529,-0.8276 -1.198382,-1.5169 -1.092096,0.26979 -4.565711,1.88431 -2.879126,-0.41502 0.136319,-2.09029 2.739227,0.65569 3.771486,-0.89659 0.430379,0.29788 1.627292,3.72186 0.306022,2.82851 z m 1.152567,-0.45522 c -0.494879,-0.68928 1.621121,-3.24926 -0.288039,-1.46963 -0.95927,-3.23615 4.584396,0.66571 1.62407,0.99142 -1.057945,-0.48796 -0.228736,1.1474 -1.336031,0.47821 z m 1.921154,-2.14028 c -0.923348,-1.29391 1.134041,-3.77268 1.337764,-1.19959 0.505434,1.14416 -0.221456,1.64488 -1.337764,1.19959 z m 1.052587,-1.17432 c -0.611333,0.23752 0.164426,-1.73635 -0.790243,-0.39923 -0.366632,0.35866 0.723273,1.02376 0.790243,0.39923 z M 76.03514,176.0488 c -0.738079,-0.89859 2.034289,-1.18486 0.319653,0.0344 z"
         id="path4467" /><path
         style="fill:#33625b;stroke-width:0.264583"
         d="m 75.746704,190.97098 c -0.585153,-1.62816 -4.907956,-0.26833 -2.662207,-2.4954 -1.483362,-0.10295 -3.700467,2.41826 -4.477775,0.8868 1.816129,-0.80897 3.629938,-2.31366 5.201903,-3.41591 2.095765,2.66652 -2.111168,-3.38301 1.013448,-2.82815 0.07494,-2.31456 2.348669,0.62607 0.459178,0.76359 1.178338,1.22112 1.399436,-0.6839 1.554129,-1.13696 1.125089,-0.30095 2.816206,0.18065 2.222281,-1.60723 0.843457,0.5127 2.143903,-0.37936 2.013733,-0.28207 -0.601833,0.40853 -0.935269,1.98716 -0.13866,1.44388 1.546138,0.35873 -1.536764,2.74299 0.750478,3.16449 0.986512,1.23374 5.185497,1.93721 5.285309,0.0847 -0.461308,-1.7268 -2.967488,-1.22866 -3.388048,-2.57822 0.71759,-0.41605 -1.376559,0.15469 -0.249197,-1.07889 -0.34316,-0.2396 -2.992283,-1.60603 -0.974145,-0.86857 0.533583,-1.34296 2.110856,-1.15342 2.712674,-0.1958 0.434019,-2.0813 1.717759,-1.62473 2.416055,-0.66669 0.518337,-1.54386 1.410519,-1.56935 0.984306,-0.18536 1.186925,-0.69239 1.955431,-1.16155 0.304844,-1.02813 1.08419,-1.77001 2.37378,1.51292 3.641609,0.39562 1.208961,0.6669 0.69884,-2.38999 1.440515,-0.37421 2.360145,0.68006 0.376839,-2.79664 2.754784,-2.42049 1.103876,-0.38452 1.763552,-1.81358 2.598151,-0.28008 0.792561,1.15206 1.298331,1.29475 1.247231,2.10432 2.03134,-0.38122 -3.133862,-4.18033 0.16046,-3.63116 1.28231,0.53502 1.94401,2.07408 3.0655,0.43354 2.64311,-1.67674 -0.20349,2.44132 1.76049,2.15882 1.64226,-0.41598 1.77052,3.74435 0.61237,4.56842 -0.72347,-1.6289 -1.35892,-0.24316 -2.12008,0.0949 0.63167,-1.23623 -1.63033,-0.73302 -1.62245,-1.99809 -1.04351,-0.15917 -1.72067,0.94713 -1.89692,-0.54024 -0.39439,1.70982 -2.185652,-1.03352 -0.26458,-0.70826 -0.309176,-1.21157 -0.867075,-1.0686 -1.24061,-0.72173 -0.258413,-1.0154 -1.468277,-3.07063 -1.175802,-0.86134 -0.05459,0.35484 -1.549202,0.6609 -1.142742,1.66694 -1.535016,-1.77039 0.08778,1.80334 0.84997,2.0811 1.977568,1.33021 -2.692066,2.88486 -0.247855,2.98202 0.80815,-0.35515 -1.559555,1.59501 0.139099,1.40629 0.749502,-1.80751 1.946822,-2.29791 2.75116,-3.87573 0.19541,-1.04726 2.58062,-1.16804 1.85266,-0.20731 0.5535,1.04991 1.73685,0.74411 2.24946,2.13119 0.98346,0.30479 -0.70647,-0.92015 0.8138,-0.38307 0.12095,0.5938 1.19703,2.95419 -0.58619,3.34482 -1.29002,-1.05391 -0.84181,-0.5762 0.41769,-0.53251 1.20725,-2.62924 -1.55727,-0.16021 -2.59394,-0.0371 -2.405041,0.62674 -1.07828,4.541 -3.912008,4.68204 -0.659404,0.24527 -0.835083,-2.23456 -1.536781,-0.85835 0.742049,-1.79473 -1.571674,-1.07956 -2.318502,-2.10083 0.496527,2.96508 -3.241268,-0.52589 -4.176884,1.81317 -1.651272,-0.90606 -2.252568,2.06316 -4.441408,0.4231 -2.264836,-2.1227 -4.521149,1.99084 -6.41919,0.12411 -0.865426,-1.50909 -1.550516,-0.13957 -1.901383,1.00815 -0.368535,1.26239 -1.24124,1.33393 -1.78593,0.13582 z m 0.703533,-0.56075 c 1.146656,-0.65119 -1.07862,-0.51179 0.03524,-1.40345 -0.186539,-0.68137 -1.859867,-3.01206 -1.280367,-0.69329 0.898007,0.44088 0.103587,2.6527 1.245127,2.09674 z m 14.787993,-2.56664 c -1.074532,-0.10457 -1.473446,2.26903 -0.246463,0.62328 0.108964,-0.1775 0.324494,-0.38678 0.246463,-0.62328 z m -11.459061,-5.73942 c -0.479071,-2.71817 -0.376382,2.54597 0,0 z m 22.489581,0.25628 c -1.32779,-1.69128 -1.2771,1.0827 0,0 z m 1.69149,-1.99772 c 0.2387,-1.81782 -1.22689,1.33275 0,5e-5 z m -4.489414,-3.58227 c -0.926798,-0.7059 -1.620134,-0.10677 -0.18155,0.36804 l 0.189704,-0.16045 z m -49.285348,11.60756 c 0.416753,-2.02498 -2.917493,0.53364 -2.554225,-2.05615 -0.01494,-1.41542 0.700966,-0.75513 0.672165,-0.006 0.662383,-1.17241 1.656598,-1.2758 1.842417,0.0117 0.887511,-1.0399 1.452445,1.63573 2.981572,1.62862 1.160987,0.74933 -1.233234,0.11333 -1.350597,1.08251 -0.919982,-4.2e-4 -1.162743,-2.26231 -1.537689,-0.01 l -0.02924,-0.19072 -0.0244,-0.46034 z m 4.003063,0.67246 c 0.78379,-0.70815 0.720934,-3.30332 -0.85883,-2.98756 -0.50463,0.0614 0.746703,-4.26273 1.018228,-2.11672 1.455202,-0.31645 -1.708913,-2.28868 0.508679,-1.30376 0.563854,1.56565 1.041152,-2.16003 1.234646,-0.60004 -1.391342,2.04833 3.745627,1.09975 1.219888,0.82271 1.234706,-0.92278 -1.105649,-1.17929 0.559758,-1.64678 1.742178,1.39148 1.283882,-0.79997 -0.164068,-0.78212 -0.772748,-0.80198 -2.565243,1.13129 -1.305616,-0.9451 2.154752,-0.46561 0.118628,-3.29516 0.70035,-3.91983 1.617191,0.13937 0.130832,2.79422 2.015281,1.67412 -0.158103,1.00824 1.96605,1.52735 0.944637,2.66055 1.520196,0.15849 2.543888,2.86363 2.769724,0.45208 -0.383615,-1.01309 -1.927498,-1.97798 0.309165,-1.74267 1.336599,0.53794 0.701053,-2.28904 2.338652,-0.85179 1.620411,-0.69672 2.87684,1.57548 4.671434,0.93217 -0.262702,0.50087 -1.28042,1.50661 -0.659526,2.43494 -1.680384,1.57781 1.19847,0.44228 1.139316,0.49887 -0.207539,0.66534 -0.363969,2.32925 -0.840107,0.74251 -0.17942,1.28076 -0.476716,2.47646 0.265516,3.0216 -1.355904,0.52873 -0.930292,1.92784 -1.126515,3.4187 -0.981267,0.26584 0.219769,-1.83515 -1.048846,-0.73551 -1.569226,0.19179 -1.008505,-0.74238 -1.441978,-1.48546 -1.278203,0.67995 -2.368131,1.23748 -3.867843,0.54247 -1.028963,1.2222 -1.509539,3.13185 -2.5125,0.68892 1.15555,-1.19157 0.68483,-2.67965 -0.534559,-2.03094 -1.225546,-0.55029 -1.401295,3.95568 -2.965451,1.97645 1.545909,-1.45264 -2.131174,-0.57369 -1.614751,0.89503 -0.06345,0.31757 -0.45007,0.58135 -0.754684,0.38716 z m 14.096829,-1.79191 c 0.834898,-2.79276 -2.666334,1.42167 0,0 z m -9.47443,-3.18003 c -1.07594,-2.30089 -0.685974,1.97401 0,0 z m 8.763497,-4.33908 c 1.037147,-1.6768 -1.716962,0.86194 0,0 z m 2.610453,7.96363 c 0.05823,-0.70331 -1.179009,0.8221 -0.211972,-0.63526 -2.125034,-1.25312 1.443834,-0.26069 0.425575,0.93824 -0.154193,0.13283 -0.501611,-0.0479 -0.213603,-0.30298 z m -26.653638,-1.1284 c -0.09247,-1.39856 2.396567,-1.80419 1.058333,-0.19427 0.05686,0.55227 -0.91038,0.65647 -1.058333,0.19427 z m -0.198438,-3.55475 c -1.351367,-0.25926 -1.806585,-1.95921 -0.308489,-0.41851 0.922067,-0.35391 2.782767,1.57025 0.852392,0.66626 l -0.25215,-0.11493 z m 27.715105,-0.0879 c 1.219181,-2.19542 0.213431,1.55912 0,0 z m -16.999083,-1.58986 c 0.01404,-1.14052 1.652713,0.96558 0.111906,0.31001 z m -10.076612,-0.74729 c -0.257209,-0.61434 0.776797,-0.965 0.761084,-1.73643 0.735346,-0.10858 2.241434,1.69656 1.212466,0.0888 1.124805,0.33965 3.211491,-1.16913 2.601345,1.0102 -1.613674,-0.49235 -3.012159,0.58402 -4.574895,0.63745 z m 5.645205,-0.24562 c 1.003012,-0.48034 1.97566,-2.30045 0.216161,-1.51923 -0.978055,0.96578 -0.36278,-1.85564 0.588614,-0.51124 1.306879,0.0506 2.071156,1.91196 0.495085,1.62269 -0.381959,-0.62353 -0.9336,0.67183 -1.29986,0.40778 z m 1.851323,-3.20875 c 0.931809,-1.93539 1.41129,-0.0522 0,0 z m 14.022917,-0.61819 c -1.616861,-0.62066 1.655449,-0.36544 0.07772,0.19789 z"
         id="path4465" /><path
         style="fill:#2b5b54;stroke-width:0.264583"
         d="m 75.746704,190.97098 c -0.979343,-1.62863 -4.158543,-0.2292 -2.991541,-2.70781 -0.786938,0.60718 -5.416957,2.76953 -2.813538,0.52802 1.331856,-1.29227 4.647271,-3.4944 5.198579,-0.51695 -0.437091,0.74261 -0.821611,0.6474 0.270669,0.96936 -0.403334,1.15405 0.911811,2.27561 1.921933,2.01093 -0.08694,0.99091 -1.405397,0.52285 -1.586102,-0.28355 z m 3.676013,-1.1939 c -0.403453,-1.06132 -2.354188,-0.47285 -1.307198,-0.38518 -1.650495,1.46597 -2.061119,-1.83768 -2.018811,-1.78932 2.346438,0.46349 0.465673,-2.58872 -0.990449,-2.57922 -1.628235,-0.54924 0.481642,-3.06521 0.587578,-1.67396 -1.759572,0.29613 0.935118,1.39847 0.265992,1.89967 0.741467,-1.1926 1.811193,-4.01162 2.7439,-1.9477 0.859512,0.003 -2.120228,1.68214 -0.242002,1.75503 0.669244,-0.58292 2.928605,-2.56165 2.228237,-0.14244 0.07212,1.79296 1.13078,-0.78431 1.119126,1.11323 1.135576,0.37456 3.90829,0.97125 1.406525,1.87148 -1.116558,1.54036 0.49823,0.18712 0.796872,-0.0325 0.506269,1.25233 2.024325,-2.044 1.841212,-0.10126 1.164286,0.23062 0.737768,-1.16038 1.829535,-0.84383 -0.125231,-1.7647 -2.081433,-2.87812 -2.538075,-3.83886 -0.375057,1.77347 -1.021134,-0.49686 0.220609,-0.91213 -1.471366,0.69066 -3.931109,-1.82881 -1.295313,-1.91802 1.185513,-0.28834 0.154682,2.44692 1.221488,0.61903 0.01599,-1.83861 1.975813,-0.11495 2.806127,-1.19138 1.691637,0.72245 -0.773499,4.18302 1.229856,2.22686 1.04488,-0.72762 -0.0349,-2.44376 1.706144,-1.46364 0.726712,0.46106 2.543972,-1.0781 3.11174,0.69445 1.414439,0.17217 1.375249,-0.13498 1.942651,-1.26012 0.164693,0.0437 -0.06934,0.97558 0.998964,0.9638 -0.95379,1.35741 1.562031,0.24707 -0.0064,1.52749 -1.562872,-1.28266 -0.100529,2.14323 -1.637006,0.80603 -1.895782,-1.17353 0.658007,1.7305 1.181178,2.28516 1.283975,1.017 1.904356,-2.17029 1.843521,0.21547 2.266382,0.74663 1.39268,-2.48789 3.427542,-2.19024 -0.864,-0.66749 -3.211593,-0.027 -1.23428,-1.34247 0.74427,-1.45962 0.15898,1.93133 1.62287,0.73823 0.54574,-0.22309 0.23839,3.00277 0.32353,2.83026 -0.68466,-1.28583 -1.82117,1.43284 -1.51308,-0.44905 -1.991309,1.27714 0.38188,2.95929 -1.681481,4.47106 -1.922972,2.1109 -0.774521,-2.85957 -2.414582,-1.03418 0.471644,-1.28746 -1.844788,0.30331 -2.203217,-1.15984 -0.705225,-0.20523 0.03481,2.17953 -1.610516,1.12644 -0.821862,-1.01493 -3.772076,-0.75419 -2.872528,0.36467 1.210612,-0.89251 1.432822,-1.14716 0.283294,0.0784 -1.001825,-0.0223 -2.040264,0.17979 -2.639813,1.00691 -0.529766,-0.85126 -2.713798,0.36557 -2.237075,-1.03759 -1.308361,-0.6446 -3.065186,0.97644 -4.352731,0.48293 -0.364075,-2.24337 -1.769385,-0.81989 -0.952074,0.5536 1.628794,0.39373 -0.764018,0.5783 -0.991902,-0.33727 z m 20.729373,-2.14752 c -0.537556,-0.88077 -1.519255,1.07979 -0.14963,0.20418 z M 91.207671,181.256 c -1.787768,-0.47486 -1.112506,1.86596 0,0 z m -40.064905,7.19817 c -0.895111,-1.47244 -4.63468,-0.27312 -3.138817,-2.90581 -0.411032,2.44454 1.865209,-1.54591 1.456359,0.99603 0.68793,0.27574 1.84117,-0.94236 1.582919,0.7816 2.022535,-0.38629 1.808286,2.70723 0.09954,1.12818 z m 9.612644,-0.33073 c -0.428522,-1.6966 2.248661,-1.52318 2.5654,-3.07376 0.004,1.36023 1.555183,-0.59134 -0.08561,-0.8877 -0.773488,-0.42601 -0.45757,1.49967 -1.45458,0.42813 0.13211,1.55831 -1.440233,-0.39382 -0.192884,-0.50047 -0.483711,-1.17306 -1.431403,-1.23902 -1.705237,-0.60966 -1.198102,-0.90363 0.151765,1.02022 0.773504,0.36215 0.611932,2.02803 -2.511661,1.5153 -1.815625,2.49238 -0.939745,-0.30956 -1.71666,0.25065 -0.519359,0.48285 1.55e-4,1.6604 -2.414093,1.81811 -1.177819,0.33829 -0.890132,0.1804 -2.971742,-1.96466 -2.132895,-0.30527 -1.645816,-0.419 -1.630441,-3.05448 0.625636,-2.74001 1.832901,-0.2638 -2.314466,1.42557 -0.07937,1.41127 0.465863,-0.5634 1.908117,1.49906 0.990488,-0.2211 0.728894,0.36431 4.024962,-0.19956 2.388047,-2.25111 -0.269088,-0.79971 -1.531478,-2.3219 0.08953,-1.30026 0.0928,-1.11834 -2.121654,-2.06993 -1.544466,-3.77593 -0.775682,-1.1395 0.631932,-3.27244 0.34943,-0.85623 0.319621,0.83916 0.633392,3.30795 0.765073,1.28301 0.482615,0.78744 1.858449,0.0387 1.180612,1.59693 0.451576,0.82786 1.781938,-0.0974 2.276079,1.29592 1.8179,1.35397 0.380979,-2.15687 0.146377,-2.48882 2.084175,1.79794 1.909452,-2.85659 3.029345,-0.48752 1.178263,0.29486 2.440033,3.39601 2.831275,0.86776 -0.176049,-1.14724 1.029332,0.61156 1.573504,-0.0874 -0.888689,1.65784 -0.09259,3.49542 -0.623399,5.01479 0.206561,2.16425 -3.798484,1.35328 -4.3258,3.33762 -1.151145,0.18405 0.188101,-1.19689 -1.222666,-0.1396 -1.237172,-1.92242 -1.836029,2.86013 -2.704584,0.81377 z m 0.935112,-5.42396 c 0.37408,-4.09857 -1.657589,1.86345 0,0 z m -18.155218,3.83646 c 0.302256,-1.42369 1.641891,-1.41929 0.789698,0.0661 -0.07826,0.38849 -0.7764,0.33972 -0.789698,-0.0661 z m 60.428106,-1.99338 c 1.23432,-0.91449 -1.7495,-0.51231 0.21795,-0.94176 2.27391,-0.11786 -2.01623,2.55073 -0.21795,0.94176 z m 2.28214,-3.69351 c -0.74124,0.0737 -3.58613,-1.95096 -2.53452,-1.89883 1.75197,1.74535 0.93064,-1.62747 -0.60217,-1.30334 -0.39991,-1.0542 -1.95233,-0.54311 -2.57673,-1.48411 -0.25934,0.95674 -1.895183,-2.11949 -0.43509,-1.46694 1.88064,-0.29711 2.77889,3.7898 2.99665,0.87622 2.26635,-2.24126 1.11885,2.03668 2.34649,2.06934 0.8222,-1.61508 0.98707,1.43359 0.6889,1.67259 1.68183,-1.99708 0.38849,1.89258 0.11647,1.53507 z m -62.273326,-0.24419 c -0.748165,-1.00963 3.987662,-0.94303 1.544505,-0.50626 -0.462361,0.2607 -0.957145,1.03142 -1.544505,0.50626 z m 58.966246,-0.43033 c -0.22671,-1.90488 0.89784,0.8639 0,0 z M 47.629626,179.7186 c -0.987031,-0.043 -2.417039,-1.29542 -0.635388,-0.33652 1.431873,-2.78856 2.403096,1.4719 0.635388,0.33652 z m 8.863792,-0.12506 c 1.624737,-0.88891 -0.416197,1.27932 -3e-6,0 z m 39.037259,-0.98822 c -0.734901,-1.3599 1.684699,-2.92392 1.851979,-1.39922 -0.901417,-0.0529 -1.039584,1.358 -1.724635,0.94564 0.446464,0.91615 -0.307164,2.17149 -0.127348,0.45358 z m 5.462083,0.67557 c 1.04998,-2.42813 0.53321,1.63734 0,0 z m -51.567927,-0.61631 c 1.509212,-2.17072 0.128666,1.75923 0,0 z m 49.477559,-2.42562 c -0.516263,-1.08187 -2.10676,0.72163 -0.785566,-0.63508 0.733314,-0.22598 2.225364,2.13236 0.785566,0.63508 z"
         id="path4463" /></g></g></svg>
