<?xml version="1.0" encoding="UTF-8" standalone="no"?>
<!-- Created with Inkscape (http://www.inkscape.org/) -->

<svg
   width="26.911741mm"
   height="54.681965mm"
   viewBox="0 0 26.911741 54.681965"
   version="1.1"
   id="svg5"
   xml:space="preserve"
   inkscape:version="1.2.2 (732a01da63, 2022-12-09)"
   sodipodi:docname="tige-natural_medium.svg"
   xmlns:inkscape="http://www.inkscape.org/namespaces/inkscape"
   xmlns:sodipodi="http://sodipodi.sourceforge.net/DTD/sodipodi-0.dtd"
   xmlns="http://www.w3.org/2000/svg"
   xmlns:svg="http://www.w3.org/2000/svg"><sodipodi:namedview
     id="namedview7"
     pagecolor="#ffffff"
     bordercolor="#666666"
     borderopacity="1.0"
     inkscape:showpageshadow="2"
     inkscape:pageopacity="0.0"
     inkscape:pagecheckerboard="0"
     inkscape:deskcolor="#d1d1d1"
     inkscape:document-units="mm"
     showgrid="false"
     inkscape:zoom="3.1358025"
     inkscape:cx="50.864173"
     inkscape:cy="61.866142"
     inkscape:window-width="2560"
     inkscape:window-height="1369"
     inkscape:window-x="-8"
     inkscape:window-y="-8"
     inkscape:window-maximized="1"
     inkscape:current-layer="layer1" /><defs
     id="defs2" /><g
     inkscape:label="Calque 1"
     inkscape:groupmode="layer"
     id="layer1"
     transform="translate(-59.145608,-155.25771)"><g
       id="g194"
       transform="translate(-67.8375,2.025)"><path
         style="fill:#a1d0cc;stroke-width:0.264583"
         d="m 140.93095,207.44083 c -0.61505,-0.69168 -0.008,-2.90237 -1.40437,-2.10425 -1.61047,0.53128 -3.63472,0.9205 -4.85613,-0.60067 -0.51289,-0.65326 -1.1487,-0.94269 -1.96581,-0.69547 -1.67128,0.0494 -3.85362,0.77652 -4.87826,-0.9895 -1.5323,-1.69525 -0.72384,-4.02695 0.56865,-5.59086 1.2689,-2.10017 4.65391,-2.08482 5.86378,0.0724 0.60291,2.92222 3.92978,0.86518 5.07807,3.24287 1.79991,2.22144 0.5022,-1.64111 0.65506,-2.67209 0.0755,-1.54279 -0.14138,-2.92274 -1.98269,-2.4927 -1.8518,-0.34028 -3.11299,-2.14274 -3.46527,-3.56914 -1.9837,-0.50463 -4.50312,0.012 -5.991,-1.65712 -1.3486,-1.52544 -1.27799,-4.06363 0.0795,-5.5991 1.8951,-1.6781 4.0277,0.12181 5.39045,1.52133 1.92799,0.81769 3.92142,1.84765 4.9111,3.95744 0.6556,1.50704 0.42816,-2.20942 0.26245,-2.80808 -0.11519,-1.35785 -0.10179,-2.72099 -0.11924,-4.08226 -1.78156,0.45324 -3.86028,0.1538 -5.30275,-1.01345 -0.42048,-2.65482 -4.23534,-0.21298 -4.70528,-2.83464 -0.46288,-1.90229 1.41739,-4.05045 3.27342,-4.36722 1.85847,0.73248 4.17879,1.24242 5.4037,2.88826 0.32869,0.35638 1.04328,2.4494 0.953,1.09312 0.0208,-1.47603 0.16696,-2.9608 0.0159,-4.43149 -1.74144,0.68908 -4.22881,1.5848 -5.57958,-0.33258 -1.21799,-0.87634 -1.7075,-2.65709 -0.0767,-3.35875 -0.83539,-2.8205 2.8286,-3.73918 4.48202,-1.86915 0.63531,0.64569 1.26164,1.33242 1.00702,-0.0455 -0.12644,-0.60703 0.4051,-1.79925 -0.60629,-1.61926 -2.40584,-0.33002 -4.82502,-1.01113 -6.94925,-2.1982 -2.24119,-1.99257 0.29145,-4.39635 2.5992,-3.50332 1.60631,-0.3756 3.22092,-0.80693 4.89114,-0.69676 -0.13074,-1.17745 0.44527,-3.26984 -1.43777,-2.97469 -1.67157,0.13085 -4.46762,-3.06634 -1.56639,-3.1941 1.97791,0.63452 3.66016,-0.76098 5.18486,-1.68319 2.79432,1.03985 0.0142,3.79676 -0.26337,5.46702 -0.32594,1.58482 0.95321,-0.053 1.6537,-0.19937 1.55651,-1.06585 5.1145,0.15454 3.63354,2.32967 -1.21221,1.57791 -3.30195,1.81844 -5.15495,1.76016 0.0595,1.00824 0.11893,2.01647 0.1784,3.02471 1.31528,-1.06869 3.52393,-1.01408 4.71837,0.18391 1.05043,2.15336 -1.43609,3.92732 -3.3252,4.18929 -2.01531,-0.62454 -1.23934,2.10193 -0.95844,2.91724 1.92988,-2.17982 4.16903,-0.34171 4.86415,1.7956 2.39448,1.50007 0.2909,4.24794 -1.95843,4.23063 -1.70468,0.2301 -3.47702,-0.25548 -2.85738,2.10734 -0.23349,1.15595 0.25463,0.95013 0.96296,0.32873 2.36189,-2.02911 3.9864,1.22579 4.01126,3.15675 2.29063,1.02023 1.1739,3.68684 -0.44554,4.74885 -0.96661,1.45605 -2.95208,2.03196 -4.32914,2.14579 0.20546,2.02615 0.3686,4.05833 0.36689,6.09616 0.53707,-1.44402 1.03883,-3.40996 2.87864,-3.54559 1.89378,-0.92492 0.6808,-3.87394 2.34467,-5.20259 2.38655,-1.99628 3.28402,2.12902 4.74634,3.24527 2.26518,1.3666 2.74019,4.17083 0.58943,5.91371 -1.12514,2.22105 -4.38727,1.32059 -5.01403,3.74597 -0.84563,2.15447 -3.09134,2.11825 -4.96706,2.02865 -0.22887,1.28444 1.2953,5.3328 -1.40723,3.73979 z m -2.25074,-4.39207 c -1.56678,-0.92523 -2.80125,-2.48499 -4.643,-2.75625 -1.04399,-0.0488 -1.86809,-2.06654 -1.85863,-0.55347 -2.28706,0.0764 1.49741,0.5143 2.05571,1.07897 1.72933,0.542 3.79323,2.18495 5.026,2.7489 l -0.21765,-0.206 -0.36248,-0.31215 z m -7.60677,-1.69378 c 2.68376,-1.84845 -3.02165,1.23026 -0.54614,0.2942 l 0.27539,-0.13963 z m 12.89843,-0.8424 c 1.15365,-0.89003 1.96434,-2.11843 2.84283,-3.26154 -1.3067,1.45679 -2.61381,2.97372 -4.29526,3.99054 0.53256,-0.10849 0.99609,-0.45014 1.45243,-0.729 z m -13.89062,-0.748 c 1.18867,-0.66622 -2.94083,0.44049 -0.6226,0.14962 l 0.32401,-0.0674 z m 17.76107,-4.10104 c 0.62789,-1.19494 -0.94395,0.97077 -1.07694,1.49672 0.15731,-0.0949 0.87495,-1.05671 1.07694,-1.49672 z m 1.32291,-2.11667 c 0.62788,-1.19492 -0.94395,0.97078 -1.07693,1.49673 0.15733,-0.095 0.87493,-1.0567 1.07693,-1.49673 z m -10.35147,-1.52681 c -0.41937,-0.89759 -2.3968,-3.32724 -2.50901,-2.77308 1.30157,0.89587 2.31351,3.5022 2.9809,3.97875 -0.0969,-0.42262 -0.27811,-0.82001 -0.47189,-1.20567 z m -4.63087,-3.10437 c 0.8605,-0.27544 2.02146,0.0538 0.43313,-0.442 -0.58625,-0.029 -1.46327,1.20103 -0.43313,0.442 z m 4.62961,-6.83057 c -0.58109,-1.10703 -2.16304,-2.75026 -2.83238,-2.95131 0.88913,0.72782 2.29004,2.81725 2.83238,2.95131 z m -5.95313,-4.46063 c -0.72342,-0.68396 -1.5818,-0.84072 -1.86518,-0.14455 0.39338,0.17962 1.91554,0.39085 1.86518,0.14455 z m 10.49991,-2.46896 c 1.76653,-0.23848 -0.32764,-0.39038 -0.97229,0.012 -0.77364,0.45265 -1.56243,1.83876 -0.2653,0.56169 0.3827,-0.24696 0.79439,-0.45916 1.23759,-0.57368 z m -4.70125,-2.13837 c -0.35205,-0.89728 -2.387,-1.05601 -0.68516,-0.34922 0.36093,0.33196 1.58847,1.43109 0.68516,0.34922 z m 3.85864,-6.17707 c 1.48841,-0.56529 0.12861,-0.0745 -0.40392,-0.3638 0.67671,-1.17832 -3.04081,2.46639 -0.976,1.01582 0.43751,-0.26136 0.90259,-0.47468 1.37992,-0.65202 z m -4.7625,-2.87465 c -0.21737,-0.29624 -2.24678,-2.187 -1.73654,-1.63429 0.55826,0.51142 1.12224,1.46907 1.73654,1.63429 z m 3.92343,-3.35919 c 1.00782,-1.52034 -2.45693,1.6196 -0.38039,0.13546 l 0.38042,-0.13546 z"
         id="path208" /><path
         style="fill:#84c1bd;stroke-width:0.264583"
         d="m 141.45833,207.77381 c -1.25579,-0.68602 -0.37318,-3.55163 -2.6558,-2.3147 -1.62652,0.74316 -3.45041,0.32156 -4.41404,-1.19507 -0.47297,-0.65704 -1.42869,-0.0881 -2.12382,-0.181 -1.93337,0.40621 -4.10731,0.2026 -4.93569,-1.92713 -1.07496,-1.91701 0.58721,-4.11667 1.8285,-5.52522 1.65218,-1.34684 4.73593,-0.60793 5.24525,1.51504 -0.72935,0.69827 1.0473,0.42231 -0.51294,1.12085 -0.74372,0.68198 -1.23365,0.20532 -1.67088,-0.51202 -0.44741,-0.74418 -2.48432,-2.88858 -1.26474,-0.93321 0.86749,0.90047 2.33612,2.30979 0.0571,1.76664 -1.04747,-0.40209 -3.58589,0.37282 -1.18457,0.45099 0.97859,-0.0906 4.46401,0.36518 1.95902,0.54418 -0.68597,0.63693 -0.57312,-1.06184 -1.16539,0.43925 -0.41311,0.45067 -2.45332,1.28824 -0.64024,0.89338 1.78901,-1.40398 3.32251,-0.316 5.37968,-0.33353 2.2317,0.21641 -3.53539,1.60842 -0.41665,1.13263 1.57566,-1.00372 3.4513,0.42863 4.30419,0.84523 -0.45777,-1.1137 -3.81256,-1.92195 -1.31192,-2.62463 0.75724,-1.00157 -1.76954,1.06923 -1.3039,-0.58941 1.47327,-1.09725 2.67836,0.0696 3.43666,1.42095 0.723,0.72369 0.27841,-2.0796 0.0788,-2.7059 -0.31612,-1.44704 0.35096,-4.0657 -1.98791,-3.47922 -1.99885,-0.3521 -3.15881,-2.16734 -3.72166,-3.73859 -1.95691,-0.001 -4.22552,-0.22115 -5.66077,-1.25707 -1.54889,-1.13177 -0.44327,-2.29994 -1.07018,-3.5017 -0.19382,-2.62154 3.20553,-3.94254 4.87931,-1.95479 0.98249,0.62671 2.73916,2.50331 0.68925,2.10335 1.06323,1.0259 1.46293,1.34496 -0.25359,0.94131 -0.90319,-0.0931 -4.60559,-0.92756 -2.15195,0.1394 1.78647,-0.17118 3.60026,0.76805 4.95576,1.00114 1.4381,0.42269 2.14289,1.87557 2.77567,3.11783 -0.79405,-0.22314 -3.08369,-0.31722 -1.01653,0.16202 1.19908,-0.85216 2.0359,2.71462 1.79404,0.52148 -0.41282,-2.1024 -1.35596,-2.81403 -3.09888,-4.08953 -0.47318,-1.1051 -1.53659,-0.38819 -1.91593,-1.51132 0.88724,-0.45804 1.4808,-0.53805 0.48019,0.36264 2.04769,-1.32812 3.3346,1.50712 4.34193,3.01313 0.32871,0.60054 1.26662,-1.84325 0.81741,-1.38594 -1.25417,-1.09059 -0.67857,-3.58691 -0.91279,-5.28925 0.31415,-1.10163 -0.92721,-0.63815 -1.60164,-0.7451 -2.07255,0.26436 -3.78113,-1.03082 -4.74637,-2.5561 -1.68569,0.18504 -3.90115,0.0998 -3.70342,-1.97482 0.72485,-1.73331 4.12009,-1.15223 4.81671,-0.60584 -0.7293,0.37905 -3.46296,0.92225 -1.06659,0.67592 1.74217,-1.15703 3.32937,0.27021 4.46479,1.55084 1.09178,0.70693 -0.19138,0.64262 -0.83431,0.78622 -1.54253,0.25167 1.04586,-0.0632 1.42903,0.1724 1.93068,1.73823 -0.14216,-1.1631 -0.17483,-2.12282 -1.17403,-1.61661 -0.23422,0.30031 0.0117,0.84271 -1.52461,-0.63169 -3.3532,-3.13555 -4.07228,-3.40194 1.88934,1.96684 -1.88711,0.51657 -2.0161,-0.74688 0.30244,1.17383 -0.88547,1.59487 -0.73358,0.25169 -0.16652,-1.42485 2.52186,-1.25723 3.64456,-0.34885 1.95412,0.34053 3.41646,2.28182 4.17074,3.40445 0.21721,-1.64541 0.10592,-3.31111 0.13375,-4.96645 -1.43383,0.73558 -3.22435,1.60061 -4.77524,0.77127 -1.31719,-0.9841 -3.10878,-3.045 -0.9282,-4.17028 -0.85536,-2.25657 1.8559,-3.45351 3.60948,-2.40514 0.73126,0.4141 2.65569,2.81015 1.88624,0.48851 0.62079,-2.66387 -2.6987,-1.59693 -4.24628,-2.49946 -1.85523,-0.40817 -4.44133,-1.15873 -4.22622,-3.54513 1.01828,-2.35113 3.88943,-0.67995 5.7421,-1.75979 0.6866,-0.57702 2.74034,0.43814 2.66127,-0.66348 -0.0332,-0.79305 -0.0664,-1.58611 -0.0996,-2.37916 -1.54468,-0.19021 -3.49727,-0.52318 -4.06874,-2.19117 0.0628,-2.12521 2.73551,-0.50047 4.0324,-1.33458 1.12126,-0.7181 2.66054,-2.50501 3.44702,-0.29352 0.55942,1.98056 -1.92821,2.85443 -1.44677,4.77438 0.27585,0.58799 1.65645,-1.24089 2.54025,-0.96141 2.47532,-0.93281 4.3834,2.5739 1.51775,3.47782 -1.18577,0.86453 -2.67139,0.75933 -4.058,0.7695 0,1.14161 0,2.28321 0,3.42482 1.04771,-0.96202 2.46759,-1.35611 3.84662,-0.84663 2.93033,0.91214 0.70805,4.4848 -1.52257,4.67886 -0.66411,0.41708 -2.54357,-0.50039 -2.01606,0.82715 0.14139,1.28762 -0.0604,3.23215 1.5475,1.58696 2.6741,-1.18678 2.92294,2.28239 4.54001,3.43774 1.28928,1.83157 -1.83975,3.63923 -3.56097,3.33745 -1.38107,-0.17834 -2.80854,0.023 -2.05702,1.73607 0.0351,0.81309 -0.21549,2.20217 0.699,0.95291 2.15956,-2.33587 4.4764,0.62823 4.05264,2.8421 2.58468,0.67738 1.43551,3.57748 -0.1468,4.6918 -1.11177,1.22389 -2.62498,2.31978 -4.36509,2.1196 0.15294,2.18584 0.0357,4.47585 0.48024,6.57625 0.31992,-1.74869 1.05345,-3.86003 3.15993,-3.98263 1.464,-1.31467 0.41867,-4.16277 2.27576,-5.44542 2.48354,-1.08205 2.81755,2.75865 4.53262,3.72767 0.82002,0.79307 2.02268,1.87282 2.0291,3.01976 -0.82293,2.09952 -2.31286,4.15628 -4.66667,4.60215 -2.22103,0.1414 -1.77303,3.37006 -3.97768,3.85687 -0.83885,0.40953 -2.52594,-0.49484 -2.99635,0.11055 -0.34167,1.27902 1.4513,4.39944 -0.79582,4.0107 z m 2.333,-7.08319 c 0.51708,-0.6834 3.62046,-1.16104 1.37117,-1.04013 0.71326,-1.16665 1.61965,-2.20207 2.44128,-3.29343 1.40783,0.19894 3.03297,0.44681 4.14559,-0.67523 -1.5798,0.98724 -5.33353,0.90179 -2.85947,-1.51077 1.28554,-2.26456 -1.15097,0.82006 -1.37461,1.61884 -1.40677,2.1666 -3.03399,4.44214 -5.48025,5.49293 0.64462,0.20091 1.26983,-0.22309 1.75629,-0.59221 z m 0.41285,-4.71473 c 0.3265,-1.16651 -0.3025,-1.87424 -0.34333,-0.31267 -0.15042,1.18153 0.15287,2.57853 0.30186,0.66809 l 0.0415,-0.35542 z m 3.9048,-4.42878 c -0.6405,-3.04182 0.13347,3.87423 0.11751,0.85085 -0.0311,-0.28466 -0.0708,-0.56835 -0.11751,-0.85085 z m -17.63423,-1.26006 c 0.17901,-0.78045 3.06532,-0.71198 0.92249,-0.96918 -0.97569,0.006 -3.40411,-0.59978 -1.2498,0.39259 0.40125,1.05479 -2.34744,-0.81704 -0.90563,0.38183 0.94136,0.0156 0.95863,1.69982 1.23289,0.1948 z m 4.10442,-0.46324 c -0.2138,-1.35797 -3.05627,-0.24437 -0.7429,-0.30527 0.28684,0.089 0.35645,0.80659 0.7429,0.30527 z m 7.67291,-0.75763 c -0.55776,-2.32872 2.33333,-1.76668 3.09215,-2.57924 -1.03252,0.21634 -3.17853,0.70927 -1.62806,-0.93651 0.59159,-0.75818 0.9835,-1.29686 0.0193,-0.34472 -0.85884,1.08086 -2.80035,3.51156 -1.65327,4.45951 l 0.12441,-0.22033 z m 1.19783,-6.71146 c -0.73003,0.77482 -0.76312,3.49207 -0.20748,1.1352 0.0902,-0.37408 0.19651,-0.74738 0.20748,-1.1352 z m 1.17297,-5.59683 c 0.0693,-0.28009 -4.07352,-0.75747 -1.60962,-1.51482 1.67139,-0.0302 0.88665,-0.95079 -0.27565,-0.30775 -1.82332,1.09641 1.31765,-3.04651 -0.60451,-0.98064 -0.19617,0.79587 -1.59009,3.55382 -0.17655,2.19744 0.88877,0.14917 1.74713,1.26535 2.66633,0.60577 z m -5.71618,-3.51779 c -0.63602,-0.2562 -2.0751,-2.8585 -1.99923,-1.9976 1.31939,1.32357 -3.70585,-0.44194 -1.7353,0.65602 0.50099,0.0669 2.28469,0.0403 1.37964,0.82474 0.55661,-0.90312 2.95611,1.45813 2.35489,0.51684 z m -3.20305,-0.38516 c -2.37696,-0.13659 -0.66162,0.36037 0,0 z m 6.76644,-3.77458 c -0.30716,0.10659 -1.45643,-1.38748 -0.94224,0.006 0.15553,0.47464 0.86162,0.58835 0.94224,-0.006 z m 0.92811,-1.07613 c 0.76179,-0.16663 -2.26809,-0.9939 -0.32769,-1.23526 1.24959,0.16697 1.93725,-0.53406 0.33191,-0.48005 -0.77291,0.4211 -1.3831,0.31925 -0.94209,-0.6258 -0.77945,0.9009 -2.18644,1.56762 -2.64776,2.13432 0.4926,0.37519 3.14921,-0.90036 2.2244,0.44223 0.4495,-0.10339 0.89567,-0.23233 1.36123,-0.23544 z m -5.32584,-3.47678 c -0.49935,-0.95622 -3.02793,-3.19116 -1.10879,-1.14874 1.36796,1.65126 -2.17737,-0.18823 -3.00273,0.0846 -0.69749,-0.0756 -2.25123,-0.18668 -2.56852,-0.18419 2.2037,0.37845 4.48847,0.61755 6.49414,1.67656 -1.34818,0.11545 -2.73697,0.21503 -4.03083,-0.27146 1.11156,0.99969 4.27157,0.68352 4.80342,0.82758 -0.16014,-0.34777 -0.37188,-0.6687 -0.58669,-0.98431 z m 4.00197,-3.83398 c 1.03723,0.34283 -0.80698,-0.61873 0.66682,-0.59742 1.22665,0.18668 1.70067,-0.90532 0.16239,-0.37207 -0.85209,0.41768 -1.29989,0.36604 -0.95919,-0.1115 -0.90928,0.50012 -2.48404,2.94427 -0.61072,1.12229 l 0.32465,-0.0618 0.41605,0.0204 z m -2.86495,-3.52681 c -0.74323,-0.32754 -2.64309,-1.87785 -1.51353,-0.48241 -0.98539,0.0896 -3.33604,-1.00035 -1.24658,0.23703 0.71407,0.0541 2.4726,0.76976 2.76011,0.24538 z m 1.07183,-1.44671 c 0.63087,-0.96019 0.24541,-1.7061 -0.30276,-0.3419 -0.35458,0.99623 -0.55489,2.09533 0.30276,0.3419 z m -5.56975,44.5738 c 1.40876,-1.02645 0.93474,1.10429 0,0 z m 0.79375,-0.52917 c 0.58796,-0.95554 2.00502,0.63283 0.26634,0.18686 z"
         id="path206" /><path
         style="fill:#6cb6b0;stroke-width:0.264583"
         d="m 141.45833,207.77265 c -1.26918,-0.67426 -0.3663,-3.62105 -2.65651,-2.34087 -2.23323,1.36482 -3.71919,-0.83805 -5.56392,-1.44853 -1.98338,0.0731 -4.49971,0.88996 -5.60349,-1.40172 -1.45329,-1.75867 0.0245,-3.92094 1.10089,-5.43837 1.51368,-1.95569 4.66389,-1.3654 5.68299,0.78925 -0.90909,0.53385 1.04351,1.14498 -0.61332,1.04337 -1.493,1.22984 -2.62746,-2.58279 -3.47123,-1.85878 0.97223,1.00025 2.94518,2.9151 0.21057,2.51529 -1.19917,-0.17562 -2.52483,0.53357 -0.55392,0.44426 0.80254,-0.30383 4.01856,0.52053 1.50461,0.33102 -0.77461,0.43087 -1.91431,1.13244 -2.42977,1.61445 1.09888,-0.0583 2.23335,-0.51958 2.57261,-0.006 1.01041,-0.70907 2.81047,-0.42551 4.36573,-0.25539 -0.56733,0.94948 -2.86087,-0.21154 -2.13671,1.16846 1.97823,-0.53947 3.87792,-0.85029 5.35409,0.88744 0.08,-1.02665 -3.77642,-2.35063 -1.10681,-2.87701 0.94234,0.0329 2.11921,0.89325 2.41488,1.3571 -0.049,-2.14175 -0.59712,-4.23405 -0.6703,-6.38187 -0.52896,-0.73913 -2.50799,-0.0123 -3.31576,-1.04207 -1.92064,-0.84521 -1.12764,-3.8906 -3.77753,-3.16625 -1.36936,0.48149 -3.47091,-1.00858 -1.67981,-1.92354 1.9397,-0.60699 3.30606,0.49663 4.9084,-0.47722 0.92808,0.92437 2.01994,1.8141 2.28521,2.94473 -0.99646,-0.46426 -2.66755,0.0578 -0.75185,0.58297 0.26977,0.55657 1.13931,-0.92504 1.44112,0.44902 0.21749,0.98411 1.68912,0.72876 0.49362,-0.0268 -0.29899,-0.87412 -1.59778,-2.88457 0.0694,-1.90202 -0.45523,-0.93397 1.87182,-2.60543 0.0817,-1.77517 -0.50498,-1.98358 -0.13391,-4.25511 -0.87199,-6.09613 -1.92003,0.19705 -4.28642,-0.19929 -5.42136,-1.91734 -0.55161,-1.71713 -4.04089,0.42712 -3.89984,-2.00413 -1.00547,-1.44937 0.2377,-1.12771 0.93102,-0.29025 0.13849,-0.1354 -0.84757,-1.5102 0.39732,-1.352 -1.5671,1.51699 1.5253,-0.7356 2.33752,0.0546 1.90795,0.0297 -1.77644,-0.6925 -1.35871,-1.92863 0.2336,-2.08738 3.30697,0.50424 4.51638,0.75266 1.48575,-0.0462 1.71505,2.97621 2.58326,2.53466 0.12683,-1.62527 -0.0246,-3.25678 -0.0466,-4.88458 -1.49124,0.76377 -3.51579,1.73682 -5.00609,0.53769 -1.29615,-0.99666 -2.65154,-2.8547 -0.66972,-3.95427 -0.97983,-2.67972 2.71881,-3.6256 4.28515,-1.84344 0.51991,0.24138 1.84421,2.1094 1.35906,0.62121 -0.14604,-1.4467 0.0618,-2.99359 -1.88147,-2.57621 -1.92452,-0.47185 -3.91657,-0.89231 -5.6759,-1.82496 -2.52488,-1.82478 -0.0216,-4.41186 2.38683,-3.61578 1.65234,-0.24467 3.27902,-0.77776 4.96998,-0.65584 0,-0.95933 0,-1.91866 0,-2.87799 -1.56676,-0.21271 -3.59872,-0.46185 -4.18057,-2.18028 0.18227,-2.27232 3.28734,-0.32188 4.67762,-1.52194 1.35582,-2.81976 4.14005,0.26207 2.29313,2.16793 -0.91839,0.2483 -1.34316,2.86171 -0.64358,2.62287 1.30703,-1.08807 3.47271,-1.58799 4.90613,-0.50176 1.41833,2.47235 -2.44723,3.79538 -4.34075,3.66016 -1.08872,-0.39289 -0.8775,0.56031 -0.8599,1.31301 -0.12395,0.99229 0.0524,2.95614 1.18511,1.33644 1.99731,-1.03718 5.57099,0.94787 3.56084,3.17935 -0.96343,0.82988 -2.39425,1.80852 -3.07908,0.47509 -1.03304,-0.57322 2.91628,-0.43575 0.88452,-1.26792 -2.1731,-1.00304 3.30455,-0.69486 0.77685,-1.2841 -1.03059,0.38499 -1.38195,-0.14428 -1.41633,-0.50625 -0.95132,0.72532 -0.61936,0.56226 -0.34131,-0.21161 -0.87107,-0.14546 -1.78952,2.80366 -1.60512,0.89398 -0.84816,1.13852 -0.93082,0.69476 -1.00703,-0.19405 -1.66628,0.48622 1.16182,1.86905 1.70301,2.3054 0.83163,0.92556 0.77134,1.05309 -0.45413,0.61556 0.99006,0.31087 -0.68157,3.38296 0.52813,4.32825 0.94001,-2.67038 4.32483,-1.23336 4.68381,1.08814 1.93172,1.07454 1.42811,3.05393 -0.39233,3.88602 -1.61251,-0.0669 -2.65049,0.92737 -4.36534,0.51103 0.19611,0.68559 -0.3457,3.85782 0.57994,2.88916 1.3841,-1.90438 4.50329,-0.89606 4.09842,1.53289 -0.014,1.56574 2.87918,2.1366 1.4139,4.05397 -0.72928,1.33669 -3.51614,4.22666 -4.38819,3.32003 0.61044,-1.23587 -0.76732,0.70506 -1.32666,0.60361 0.0525,2.11442 0.0323,4.39406 0.31035,6.40093 0.48784,-2.17527 1.93738,-3.61915 3.87332,-4.42113 0.48369,-1.74299 0.22039,-4.52232 2.38176,-5.15814 2.20962,0.48211 2.39727,3.34741 4.29982,4.38975 2.06395,1.36651 1.42421,3.82753 -0.046,5.37586 -1.00013,2.06565 -4.30775,1.11798 -4.79433,3.37338 -0.64422,1.67249 -2.36328,2.86203 -4.16617,2.25523 -0.86482,-0.17404 -1.64532,-0.27043 -1.13059,0.82601 -0.0236,0.7901 0.91075,3.95819 -0.70885,3.35827 z m 2.38125,-7.08203 c 0.6077,-0.58425 3.65711,-1.12185 1.34376,-1.18119 1.21836,-1.66259 2.4149,-3.67515 4.8155,-2.99757 1.22945,-0.081 2.42353,-1.47652 0.49418,-0.44431 -1.80831,0.94833 -3.32336,-0.39056 -1.58435,-1.91389 1.18766,-2.23946 -1.14219,0.83591 -1.36032,1.53551 -1.41191,2.13074 -2.86377,4.42344 -5.27661,5.52337 0.1169,0.46623 1.29824,-0.35775 1.56784,-0.52192 z m 0.52086,-2.38867 c -0.44569,-1.32809 -0.32897,-2.69104 0.70797,-3.49598 -0.74132,1.0823 -1.00444,-1.16293 -1.15711,0.54548 0.0546,1.23411 -0.24097,3.34471 0.60315,4.02034 0.0125,-0.36381 -0.0789,-0.71776 -0.15401,-1.06984 z m 3.75046,-6.74148 c -0.67055,-3.22744 0.14994,4.3541 0.11978,0.8794 -0.0314,-0.29421 -0.0716,-0.58748 -0.11978,-0.8794 z m -11.94476,-1.09414 c -0.49878,-0.98164 -2.44681,0.77589 -0.51038,0.19257 0.15375,-0.0645 0.40662,-0.0231 0.51038,-0.19257 z m 7.36378,-1.15279 c 0.31283,-0.71425 -1.47191,1.19629 -1.27784,-0.48588 -0.473,-2.04062 3.16844,-1.65349 2.86657,-2.34312 -0.83971,0.35768 -2.88033,0.52298 -1.41136,-0.74285 1.44405,-1.68967 -0.45338,-0.36008 -0.95541,0.39688 0.14174,-1.08429 0.78691,-3.01176 0.59688,-3.51847 -0.90695,1.89803 -0.67594,4.11402 -1.5107,6.05671 -0.4627,0.76905 -1.90419,0.10159 -0.31358,0.884 0.57392,0.25071 1.79712,0.68499 2.00544,-0.24727 z m -4.9849,-7.87135 c -0.30906,-0.53367 -1.08315,-3.24182 -1.48895,-2.42566 0.82015,0.87265 0.82126,1.75681 -0.31876,0.60436 -1.20633,-0.65231 -2.44259,-2.88117 -3.30214,-2.94431 2.11385,1.61202 -1.12925,2.04879 -1.95318,2.40379 1.93111,-0.27975 3.97997,-1.05326 5.27698,1.029 0.34326,0.4719 1.80663,1.51144 0.39805,1.13246 -0.82207,-0.12491 -3.55541,-0.28095 -1.24397,0.19692 1.06738,-0.34302 2.64308,0.59296 2.92952,0.61073 l -0.11352,-0.27342 -0.18403,-0.33388 z m 6.2206,-4.69636 c -0.85311,-0.37281 -3.67418,-0.97136 -1.36858,-1.49186 1.85184,-0.65232 -0.88329,-0.48733 -1.34033,-0.19659 0.47969,-0.60115 1.36562,-3.08085 0.18832,-1.25891 -0.30101,0.60526 -1.59473,3.87781 -0.34294,2.33235 0.89443,0.19246 1.98469,1.36162 2.86353,0.61501 z m -6.56684,-4.3388 c -0.58341,-0.46381 -1.69241,-2.45489 -1.18977,-0.61831 -0.6866,-0.43046 -3.71408,-0.17307 -1.6361,0.13642 1.28845,-0.15377 1.96222,0.77451 0.30309,0.78967 -1.03234,-0.16454 -2.46044,0.20364 -0.55569,0.31909 1.39767,-0.2121 2.8068,-0.64396 3.91505,0.33955 -0.19086,-0.39076 -0.53059,-0.671 -0.83658,-0.96642 z m 0.001,-7.74089 c -0.44983,-0.6901 -2.01191,-2.69458 -2.34305,-2.19449 1.02195,0.5077 2.34261,2.44508 0.24639,1.33679 -1.07722,-0.27113 -4.58352,-0.9254 -4.32787,-0.22079 1.96205,0.25475 4.26143,0.11527 5.8631,1.39294 -0.8662,0.67149 -3.81608,-0.68917 -3.61265,0.0831 1.47429,0.58381 3.51319,-0.0593 4.70495,0.65976 -0.10322,-0.3861 -0.32497,-0.72138 -0.53087,-1.05731 z m 2.68281,-3.55504 c 0.25042,-1.03386 3.9042,0.48062 2.03063,-0.50487 -2.23406,-0.43328 3.07514,-0.78878 0.33135,-0.98152 -1.29266,0.46546 -1.43535,-0.34281 -2.45845,1.07496 -0.71691,0.43834 -0.90117,1.69804 0.0965,0.41143 z m -1.67353,-3.94444 c -0.61741,-0.16256 -3.07292,-2.21616 -1.54812,-0.58532 -0.95136,0.33761 -3.35566,-1.07727 -1.2645,0.30756 0.72062,0.0956 2.50838,0.79539 2.81262,0.27776 z m 1.07183,-1.44671 c 1.0127,-1.316 -0.50967,-1.37667 -0.40172,-0.002 -0.59014,1.22351 0.16001,0.89739 0.40219,0.002 z m -1.57749,45.00481 c 0.0971,-1.51213 -2.26723,1.08506 -1.2357,-0.46882 0.8294,-1.64304 2.76819,1.84991 1.2357,0.46882 z m -3.06622,-0.96018 c -0.67439,-0.81381 2.08009,0.40376 0.39388,0.18949 z m -6.35,-9.01145 c -1.05215,-0.10403 -2.36107,-2.70485 -0.39688,-2.55815 -1.93544,0.29824 -1.10437,-2.40911 -0.26973,-3.27038 1.95586,-1.96373 4.42763,0.33505 5.71103,1.92077 -0.26221,0.70086 -1.80459,-0.0286 -0.48275,1.01139 0.8941,0.96706 -2.28511,-0.008 -2.90606,-0.0681 -1.17598,-0.72448 -1.61388,0.19683 -0.24978,0.50337 0.85503,0.0483 4.75673,0.3087 2.20145,0.88126 -0.96351,0.62121 -2.49346,-1.29437 -1.66492,0.24716 -0.84684,-0.21993 -3.19746,-0.71382 -1.22816,0.28525 0.67401,0.85857 -3.04909,-1.87354 -1.12,0.14364 0.38141,0.15791 2.7731,1.70128 0.4058,0.90381 z m 8.73125,-0.28094 c -1.32979,-0.71671 -3.51513,-4.03985 -0.64643,-2.13133 0.34498,0.35085 2.50615,3.05043 0.64643,2.13133 z m -6.96222,-13.75079 c -0.44318,-1.67265 1.26489,0.45737 0.0935,0.31427 z"
         id="path204" /><path
         style="fill:#56aaa4;stroke-width:0.264583"
         d="m 141.45833,207.77265 c -1.38554,-0.5768 -0.15118,-3.79348 -2.45864,-2.41599 -2.03052,1.23404 -3.78071,-0.19464 -5.3013,-1.36343 -1.87593,-0.37205 -4.32231,1.06349 -5.65502,-0.8977 -1.70594,-1.56818 -0.88848,-3.86619 0.32084,-5.4491 1.17639,-2.03726 4.33126,-2.2325 5.68625,-0.26223 0.787,1.39245 -1.23334,1.28691 -1.04861,1.81951 -1.12085,-0.34425 -1.87664,-3.02732 -2.72961,-2.05272 -0.33702,1.38506 2.12763,0.83143 1.84926,2.52384 -1.07823,-0.0525 -2.17215,-0.1439 -1.86237,-0.96858 -0.84898,0.40628 -2.72341,1.5079 -0.58733,1.3973 0.80893,0.0394 2.84615,-0.21867 1.09328,0.57729 -0.69124,1.16268 -1.6878,0.63817 -2.44166,0.5096 0.24706,1.75984 3.78825,-0.25656 2.34605,1.19318 0.86387,-0.21269 3.13845,-1.22075 3.31443,-0.48118 -1.40583,1.51807 1.72643,0.89886 2.47863,0.50797 0.86574,0.32997 1.81682,1.02365 3.0052,1.59766 -0.3522,-0.98688 -2.78528,-2.21566 -0.96435,-2.8552 -0.51392,1.28635 1.82844,-0.24858 1.88837,1.25754 0.76396,-1.16353 -0.3308,-2.75492 -0.31546,-4.32552 -0.28755,-0.70119 0.14384,-2.16652 -0.48398,-2.48148 -2.02473,0.24794 -4.57934,-0.99391 -4.45704,-3.30873 -0.026,-1.7357 -2.09684,0.0244 -3.51408,-0.73451 -2.34265,0.39008 -0.44668,-3.29265 0.57677,-1.35296 0.66871,1.56367 0.69094,0.82823 0.36735,-0.27645 1.39133,-1.44844 1.29553,0.48615 1.62581,1.2965 -0.15624,-0.95839 0.17611,-1.48919 0.65983,-0.50023 0.66877,0.44943 2.54038,0.0119 1.03298,-0.56358 -1.83161,-1.0071 1.82723,-0.72511 1.42735,0.77887 0.64642,0.31093 0.76417,1.94545 -0.0905,0.61279 -1.22615,-1.1824 0.20237,0.85715 -0.90838,0.64892 1.00502,0.39857 1.64109,1.53548 2.43049,0.78992 -0.33096,1.23931 2.34253,1.27044 0.73035,0.0973 -0.53298,-0.97065 -0.007,-2.63176 0.58779,-2.99963 -0.55779,1.31021 1.87028,-0.39601 1.0388,0.93767 0.41619,1.85111 0.42057,4.06522 0.38495,6.05448 -0.77146,1.07477 1.13902,2.41793 0.44315,0.82007 -0.0462,-1.16917 1.91669,-5.02548 1.87664,-1.92083 0.14827,1.02039 -0.13944,2.94877 0.79398,3.38469 -0.26269,-1.3308 -1.18435,-4.96633 1.3062,-3.21877 -0.63831,-0.9501 -1.3528,-0.99802 -1.67012,-1.86558 2.54398,-0.24105 1.1169,-3.62892 2.45433,-5.06558 1.68676,-2.71376 3.3615,0.80529 4.35409,2.18308 1.50764,1.30699 3.79604,3.26387 2.02743,5.33237 -0.78433,2.63381 -3.97925,2.51174 -5.44268,4.06591 -0.47609,2.73735 -3.43002,3.08171 -5.53465,2.80534 -0.40924,0.99819 1.56575,4.64023 -0.63486,4.16821 z m -9.26041,-5.06679 c 0.4801,-0.3427 1.72423,-0.92682 0.29885,-0.6357 -0.62962,-0.16144 -0.99953,1.45102 -0.29885,0.6357 z m 11.6985,-2.01524 c 0.56865,-0.56797 3.92444,-1.24341 1.46017,-1.12897 0.88029,-1.64884 2.20468,-3.65467 4.39293,-3.02775 0.99024,0.13451 2.94885,-1.48149 0.89913,-0.58215 -0.49378,0.33861 -3.21692,0.61001 -2.62647,-0.34236 1.25588,-1.38755 0.10748,-3.09718 0.0362,-4.69753 -0.7518,-1.74066 -0.0887,2.12416 0.0941,2.69402 0.0437,1.80996 -1.48288,3.20748 -2.4191,4.63718 -0.67229,1.32043 -2.78905,2.35404 -3.34428,3.09583 0.55163,-0.0598 1.04795,-0.35541 1.50732,-0.64827 z m -7.72975,-7.29165 c -0.65042,-1.69479 -0.61231,2.02102 0,0 z m -1.5875,8.77517 c 0.37148,-0.82998 2.09709,-0.5777 0.54852,0.10639 -0.11635,0.11371 -0.59261,0.22776 -0.54852,-0.10639 z m -5.29167,-11.40539 c 1.38175,-1.11649 1.06955,0.97203 0,0 z m 14.37757,-0.72696 c 0.24213,-0.99897 0.49967,-1.24748 -0.76759,-0.94673 -0.0295,-0.74913 -1.0397,-0.74094 0.0702,-1.77717 0.58918,-0.0809 3.62835,-0.87924 1.67762,-0.74699 -1.67116,0.78 -1.58625,-0.53467 -0.45761,-1.3444 0.59451,-1.72192 -1.93478,1.93669 -1.11181,-0.63449 0.2679,-0.80705 0.91708,-3.68056 -0.0647,-1.48829 -0.1536,1.85763 -0.88423,3.46552 -1.09485,5.17971 0.0666,1.27531 -3.71914,1.11185 -1.41293,0.47215 1.15606,-1.63636 -1.42273,0.65588 -1.21141,-1.22792 -0.32988,-1.68395 0.67649,-4.85304 -2.06676,-4.02227 -2.04503,0.14308 -3.53646,-1.52487 -4.54735,-2.64309 -1.52655,0.3316 -3.40229,0.21176 -3.30478,-1.69345 -0.7984,-1.3429 0.35299,-0.4567 0.69186,0.22287 0.69581,-0.63219 0.30136,-2.30004 1.66563,-1.22191 1.5763,0.51278 0.42336,-0.75034 1.98063,-0.0564 0.72643,0.562 -4.43797,0.88092 -1.51418,1.15898 1.70898,-0.85026 3.42001,-0.76103 4.69126,0.96292 0.81952,0.71399 1.33889,1.34539 -0.0958,0.96433 -0.8708,-0.15695 -3.03383,-0.17865 -0.87948,0.23723 1.07779,-0.0589 2.31829,0.0238 2.87791,0.83314 -0.28923,-1.15665 -0.93407,-3.25611 -1.9464,-3.52644 0.78005,0.88963 1.26596,2.23401 -0.1331,0.84239 -1.21371,-0.64839 -2.39854,-2.82956 -3.27346,-2.90395 0.79437,0.89223 1.34257,1.43594 -0.16246,0.87818 -1.66809,0.0341 -2.18781,-3.49224 -0.0349,-2.06579 1.87334,0.85959 4.20461,1.44773 5.01052,3.58291 1.45529,2.30596 0.22235,-1.92348 0.56131,-2.84746 -0.15898,-0.46191 0.34852,-2.12262 -0.31111,-1.68403 -1.5633,0.94744 -3.9373,1.58784 -5.27177,-0.0755 -1.29164,-0.91948 -1.67977,-2.56838 -0.12535,-3.4398 -0.97985,-2.67955 2.71872,-3.62573 4.28492,-1.84344 0.52611,0.24043 1.82669,2.11231 1.3811,0.61727 0.31552,-2.15088 -0.85299,-2.77023 -2.75836,-2.73042 -1.39969,-0.39798 -1.2988,-1.32014 -2.68784,-0.87084 -1.9509,0.0538 -4.4936,-2.54223 -2.37941,-4.09341 1.95658,-0.35829 4.08631,-0.48138 6.14294,-0.91103 1.06165,-0.19457 2.66381,0.98495 1.53802,-0.69149 0.2558,-1.7283 -0.48556,-2.76102 -2.30915,-2.73348 -1.74071,0.0607 -2.85849,-3.42662 -0.58758,-2.74555 1.86334,0.46236 3.52786,-0.69323 4.92581,-1.76533 2.69143,1.48684 -0.40934,3.81787 -0.25259,5.78923 -0.0713,1.19191 1.49203,-1.05988 2.29963,-0.68286 1.95073,-1.09014 4.82444,1.78523 2.29451,2.94951 -1.21371,1.23261 -3.01836,1.02764 -4.59629,1.21209 0.11531,1.10426 -0.0178,2.38081 -0.91746,2.53794 2.13931,-0.0468 -0.89686,1.61558 -1.03819,-0.17274 -0.53158,-0.71426 -2.312,-2.91285 -2.52125,-2.38811 0.1087,0.44707 2.10918,1.91514 1.35059,1.7008 -1.80573,-0.69989 -3.77858,-0.99976 -5.7083,-0.89725 1.2013,0.72867 4.20399,0.40131 5.91111,1.44887 0.78223,1.24267 1.95642,2.74211 2.51609,3.81659 0.91122,0.91841 0.62033,3.29001 0.92712,4.91746 0.46544,0.14045 1.1863,-1.96061 2.57334,-1.50926 1.90905,0.58238 2.32666,3.13148 3.65989,4.42226 -0.30385,1.6932 -2.36726,2.44345 -3.33023,1.90835 -0.50758,1.80806 -3.83117,-0.83993 -2.74673,1.95776 -0.0351,1.15545 0.0402,2.72196 1.21967,1.14457 2.12425,-1.72838 3.71843,0.85412 3.56056,2.8259 2.82106,1.20499 1.16121,4.15731 -0.66425,5.48049 -0.46124,0.35391 -1.52889,1.88478 -1.52689,0.31738 z m -1.47913,-13.13511 c -1.72942,-1.7242 3.42107,1.1287 2.24532,-0.43281 -0.76687,-0.0649 -3.20618,-0.7242 -1.21829,-1.07165 1.02383,-0.0332 1.9264,-0.73922 0.35598,-0.91981 -0.65975,0.5994 -2.25256,0.85324 -0.89339,-0.14012 1.54249,-0.10109 0.30468,-2.76407 -0.44488,-0.63171 -0.49165,0.1368 -1.01734,1.45001 -1.33298,0.24831 -1.28865,-0.31387 -0.24353,2.25579 0.14418,0.99238 0.49826,0.33372 -0.0208,2.60208 1.39342,2.20374 l -0.24927,-0.24824 z m -3.10886,-3.58242 c -0.77854,-0.61287 -1.64887,-2.02914 -2.26449,-2.27142 1.2866,1.5596 -3.35705,-0.16206 -1.8551,0.83715 1.00547,-0.11874 2.81036,0.56247 0.77267,0.72259 -1.02203,-0.10354 -2.87767,0.0374 -0.79988,0.37496 1.51277,9.1e-4 2.96144,-0.75181 4.08409,0.52882 l 0.063,-0.1921 z m -1.632,-7.99171 c -0.89435,-0.11271 -3.37013,-0.76774 -3.73107,-0.47505 1.09724,0.64341 2.50432,0.77476 3.73107,0.47505 z m 3.50454,-4.21759 c 0.3702,-0.92234 3.79981,0.46856 1.94831,-0.50871 -1.87624,-0.43585 2.66043,-0.6582 0.60289,-1.01111 -1.48018,-0.40097 -2.80647,0.70949 -3.23311,2.06944 0.26628,-0.13062 0.46973,-0.3498 0.68191,-0.54962 z m -1.74024,-3.9483 c -0.61741,-0.16256 -3.07292,-2.21616 -1.54812,-0.58532 -0.72215,0.45817 -3.38358,-1.12286 -1.57207,0.15574 0.77565,0.23753 2.66931,0.98866 3.12019,0.42958 z m 1.2951,-1.91822 c -0.0687,-2.35724 -1.60275,1.75132 -0.34693,0.87468 0.15756,-0.27257 0.27199,-0.5692 0.34693,-0.87468 z m -3.81626,33.91784 c -0.97254,-0.4003 0.7811,-1.17845 -0.76141,-0.80275 0.82773,-1.63724 3.4234,2.23369 1.07649,1.01623 l -0.31508,-0.21361 z m -5.92837,-0.0442 c -0.78036,-0.62507 -2.69549,0.30484 -2.877,-0.49194 1.65294,-0.61907 3.47105,0.25545 4.67823,-0.18393 3.14445,0.51452 -1.20623,0.95771 -1.80123,0.67587 z m 1.83494,-1.0251 c -0.83422,0.14966 -3.56122,-1.38546 -2.77265,-0.0397 -2.71415,1.09583 -2.52619,-2.28904 -0.87698,-3.34921 1.87428,-1.51557 4.15093,0.46317 5.02358,2.16403 -0.75753,0.21058 -0.90331,1.03939 0.21355,1.25085 0.4001,0.55609 -1.36618,-0.14615 -1.5875,-0.0259 z m -1.5107,-11.43494 c 0.27508,-2.17558 0.94429,1.73897 0,0 z m 11.69716,-7.45681 c -0.59565,-0.46385 -1.12767,-1.31917 0.11339,-0.51027 0.47147,0.75849 0.74911,-0.99347 0.73751,-0.904 -0.86871,-0.98329 2.08364,-1.35997 0.12869,-1.92443 -1.27251,1.2577 -1.02524,-0.26274 -1.90963,-0.72521 1.83263,-0.73069 5.08433,0.8172 3.44894,3.05536 -0.47247,0.1964 -2.32836,2.08814 -2.5189,1.00855 z m -2.91042,-3.04271 c 0.75071,-0.53306 2.52346,-1.18127 0.79222,0.12588 -0.18418,0.12377 -0.78586,0.26643 -0.79222,-0.12588 z"
         id="path202" /><path
         style="fill:#2e978e;stroke-width:0.264583"
         d="m 141.39237,207.78432 c -1.2032,-0.74348 -0.19586,-3.84749 -2.45506,-2.41869 -2.18375,1.30186 -3.79723,-0.68422 -5.58358,-1.41643 -1.83807,-0.16599 -4.37155,0.82438 -5.54193,-1.11112 -1.46817,-2.17263 0.0202,-5.02972 1.83377,-6.48219 2.20262,-0.24322 -1.08918,0.67021 -0.73151,1.69549 -0.85249,0.54304 -0.46257,2.05383 -1.14779,2.96162 0.0437,1.63061 2.81006,0.71383 3.73514,1.58035 -0.32998,0.60292 -1.95048,0.13856 -1.22833,1.17942 1.45875,-0.0396 3.03552,-2.9203 3.80082,-0.41469 0.70202,0.73411 1.65074,-0.91675 1.96751,0.31588 -1.51956,-0.79877 -1.04623,1.78384 -0.55668,0.81952 0.24052,-0.60447 1.95241,0.37204 1.50568,-0.81468 1.09915,-0.71906 3.35998,1.65136 2.25929,-0.63528 0.89834,-0.19831 1.21078,-0.93265 1.60745,-1.38113 1.52144,1.27747 -1.0981,-1.94083 -0.72171,-2.80627 -0.11241,-1.04564 -0.0322,-2.49195 -0.4586,-3.32543 -1.30048,0.0362 -3.3241,-0.0243 -3.63659,-1.53206 0.40281,-2.66829 2.28934,-0.17151 3.7476,-0.0173 1.06129,-0.0227 0.82657,0.84672 0.75536,1.60361 -0.10734,1.0691 0.004,1.8311 0.71451,1.49103 0.28345,0.64953 -0.93216,1.34093 0.54791,1.70328 0.37005,1.59048 1.42241,-0.49241 0.22596,-0.50485 -0.64477,-1.85198 2.13455,-4.23349 1.81263,-1.23932 -0.1649,1.03359 0.9192,3.7882 0.59755,1.20693 0.0228,-0.67156 -0.74599,-2.00892 0.47398,-1.65324 1.90988,0.0522 -0.22875,-1.32566 1.28647,-1.78582 -1.56246,0.93966 -1.74876,-1.10117 -0.0958,-1.34742 -1.04131,0.95098 -0.14155,1.45741 0.26399,0.21888 -0.80322,-1.75768 -0.39817,-5.39763 1.9895,-5.38312 1.92125,0.84471 2.11525,3.44383 4.06633,4.36978 1.94433,1.48853 1.04099,4.08323 -0.42015,5.52231 -1.23,1.87499 -4.36089,1.06244 -4.82145,3.53171 -0.84688,2.21602 -3.36596,2.10943 -5.17514,1.7041 -1.14712,0.58866 -1.8305,1.21781 -0.45176,1.55316 1.18441,0.0604 1.45307,3.66437 -0.16533,2.81194 z m 2.72105,-7.23258 c 0.82047,-0.45706 3.44085,-1.23034 1.17927,-0.88166 0.36546,-0.7384 1.53566,-2.24167 2.30176,-3.11905 1.36593,-7e-5 3.43324,0.36032 4.31779,-0.92569 -1.08959,0.20761 -3.55208,1.18111 -3.97779,0.10044 0.45063,-0.82654 1.48047,-1.7744 1.40945,-2.60136 -1.64532,1.23465 -0.36163,-1.59389 -0.69726,-2.03125 -0.87607,0.49306 -0.60411,-2.09946 -0.95401,-0.37479 0.0469,2.00325 1.12018,4.04974 -0.68499,5.6565 -1.29287,1.94299 -2.74527,3.9521 -4.95907,4.8851 0.12105,0.65698 1.68104,-0.51965 2.06485,-0.70824 z m -13.76759,0.047 c -0.81308,-0.0371 -1.62081,-0.42589 -0.14053,-0.49175 0.72598,-0.17577 0.69112,0.92929 0.14053,0.49175 z m 1.027,-1.29716 c 0.24547,-0.90404 -3.19249,-0.66893 -0.92393,-1.04417 0.92677,-0.57874 2.08972,1.71101 0.92393,1.04417 z m 0.95022,-0.6069 c -0.0183,-0.87179 1.21301,-1.25116 1.44235,-1.65642 1.40794,1.15637 -0.70278,1.33019 -1.24485,1.86911 z m -3.11655,-0.95136 c -0.10099,-1.47182 1.88013,0.73992 0,0 z m 2.72683,-0.35997 c 0.73104,-0.0452 0.84669,-1.95441 0.96742,-0.37809 -0.0666,0.25953 -0.88541,1.03357 -0.96742,0.37809 z m 8.73125,-0.80205 c 0.62597,-0.54834 0.92414,-1.81607 0.67108,-0.20332 -0.0326,0.24783 -0.58105,0.54684 -0.67108,0.20332 z m 3.4892,-0.5374 c 1.09928,-1.53514 0.57339,0.86365 0,0 z m -2.96003,-2.07073 c -0.8012,0.18679 -2.62967,-1.39077 -1.10686,-1.28541 0.20354,0.57206 2.02894,1.2889 1.10686,1.28541 z m -0.26458,-1.4563 c -0.45392,-0.47715 -2.14701,-1.46619 -0.52325,-1.67338 0.21426,0.58647 0.19501,0.81961 0.713,0.44618 0.11666,0.13969 0.0528,2.44815 -0.18975,1.2272 z m -9.47229,-0.96457 c -2.21876,0.0608 -0.1143,-3.41166 0.85803,-0.99928 0.6058,0.86575 0.0861,1.3561 -0.85803,0.99928 z m 1.09105,-1.20711 c 0.88654,-2.94204 2.58819,1.61948 0,0 z m 11.19164,-0.18013 c -0.35904,-1.03036 0.78067,-1.30596 -0.83102,-1.08994 0.20695,-0.62849 -1.13069,-0.96473 0.0366,-1.37351 0.46873,-0.6481 2.52614,-0.63301 2.56286,-1.42291 -0.88969,0.31279 -3.26473,0.9811 -1.67968,-0.61597 1.31374,-1.25143 -0.27543,-1.03894 -0.72072,0.0328 -0.47886,-1.0117 1.1271,-3.27954 0.3339,-3.53438 -1.13588,1.2598 -0.29996,3.59975 -1.2357,4.55187 -1.22434,-1.06855 -0.0659,0.66731 -1.22929,0.28772 1.14161,0.16789 0.95693,2.1515 -0.17465,1.40561 0.60528,-2.08561 -1.80001,1.27344 -1.45513,-0.89704 -0.82846,-1.22445 1.70153,-2.96248 -0.0704,-2.93586 0.18854,-2.44696 -2.63787,-0.43056 -4.06982,-1.49562 -1.75036,-0.35462 -1.63124,-2.97508 -3.74412,-2.11955 -1.48732,0.37643 -2.60703,-0.76705 -0.99463,-1.72082 0.19153,-1.28614 2.98091,-0.58278 0.82731,-0.29119 0.68277,1.42204 3.73312,-1.57418 4.81894,0.61305 0.87487,0.57106 2.08174,2.18697 0.0668,1.54326 -0.75986,-0.34913 -2.5289,-0.0807 -0.74999,0.3283 1.22914,-0.14555 2.62099,0.35347 3.47714,0.76336 -0.53004,-1.25241 -0.95388,-3.17078 -2.18318,-3.73938 -0.009,0.4767 1.85714,2.8605 0.60345,1.6441 -1.17175,-1.05664 -2.47526,-2.01322 -3.32429,-3.35173 -1.95692,-1.45262 1.6101,1.98477 -0.63425,0.82883 -1.67269,-0.0463 -2.37865,-3.4803 0.0144,-2.01782 1.68541,0.89753 3.9526,1.25412 4.67208,3.29672 0.85214,1.90287 1.20132,0.38017 0.83413,-0.78743 -0.0992,-1.23657 -0.0707,-2.47751 -0.0779,-3.71666 -1.65583,0.97446 -4.07893,1.82686 -5.55539,0.10279 -1.46827,-0.8979 -1.64517,-2.67585 0.0944,-3.35011 -1.54488,-2.76491 2.40581,-3.58868 3.99238,-1.93285 0.68241,0.71401 1.92061,1.73171 1.41527,-0.0731 0.52347,-2.96456 -3.27892,-1.13894 -4.21136,-3.05693 -1.28828,0.27762 -0.69211,-1.64691 0.41835,-0.63985 1.71792,0.18162 3.55554,-0.44757 3.91459,1.86485 0.40781,2.01527 2.41139,2.90381 1.7588,5.23304 -0.73788,1.63455 -1.014,3.8786 1.21335,4.57728 -0.33563,0.79763 1.05512,2.83568 -0.58365,1.49064 -0.97676,0.0684 0.0846,2.92835 -0.12894,3.99996 1.14839,-2.22395 4.6697,-2.10513 4.55137,0.76661 -0.0352,1.62233 3.20517,2.42983 1.29779,4.34036 -0.81226,1.22659 -1.90084,2.22991 -3.09255,3.07832 -0.0525,-0.1956 -0.10493,-0.39121 -0.15739,-0.58681 z m 0.66293,-1.96062 c 0.39743,-0.48998 -1.41407,-0.61937 -0.42317,0.41682 l 0.1607,-0.10917 0.26247,-0.30767 z m -2.31405,-3.13796 c 0.16921,-0.88431 -2.76825,-1.01922 -0.76101,-0.25616 0.38439,0.27299 0.24129,1.13092 0.76103,0.25616 z m -3.01137,-11.75229 c -0.87313,-0.81464 -1.5639,-1.80556 -2.35379,-2.62327 1.33415,1.87124 -3.80461,0.0234 -1.82697,1.27052 0.76972,-0.18066 2.92442,0.55035 0.94277,0.54243 -0.98037,-0.24885 -3.15988,0.51611 -0.88366,0.48926 1.49692,-0.0887 2.91451,-0.63162 4.05934,0.52108 z m -2.15041,15.94983 c -0.5167,-0.34903 0.71914,-0.43079 0.85737,-0.42325 0.55118,0.71643 -0.49928,1.23983 -0.85737,0.42325 z m -4.99334,-0.50793 c 0.3473,-0.92498 2.5364,0.50847 0.6245,0.42532 -0.21453,-0.0274 -0.61609,-0.12755 -0.6245,-0.42532 z m 0.39688,-0.75384 c -1.21794,-0.0546 -2.61179,-1.11846 -3.22521,0.0898 -2.64755,0.0937 -0.94162,-3.66718 0.79844,-3.86149 1.57201,-0.5762 4.32794,1.87347 3.73233,2.88864 -1.3393,0.45347 2.00742,1.59233 -0.25786,1.07118 -0.34908,-0.0636 -0.69833,-0.12615 -1.0477,-0.18808 z m 12.15995,-9.6865 c -0.0618,-1.5373 1.40023,1.04019 0,0 z m -1.52631,-0.36229 c -0.89587,-1.09121 1.15554,0.3302 0.28995,-1.04932 1.29876,0.72603 2.19643,-0.63037 0.68915,-0.58933 0.70509,-0.64634 0.49043,-0.44461 0.0245,-1.14272 1.67934,-0.22449 -1.78399,-1.72135 -0.46385,-2.31268 -1.12633,-0.59063 -1.07988,-0.17023 -1.5236,0.49115 -1.57104,-0.1709 2.10261,-2.46354 2.7776,-0.55568 0.4563,1.29837 1.32224,2.35872 2.39885,3.22723 0.25562,0.68295 -0.95956,1.84905 -1.53238,2.2992 -0.73308,-2.16892 -1.71924,0.64434 -2.66026,-0.36785 z m 3.153,-0.56779 c -0.43624,-1.65689 -1.43034,0.44023 0.0377,0.32717 z m -2.66102,-8.60269 c 0.45515,-0.82635 -0.41746,-2.11559 1.06401,-2.2018 -0.16213,-0.59691 -1.71868,-1.92997 -0.24357,-1.31252 2.58605,0.73387 1.11151,3.80305 -0.92159,4.18275 -0.44274,0.23656 0.14848,-0.68575 0.10115,-0.66843 z M 131.7444,165.7052 c -2.62547,-0.91151 -1.4031,-5.07943 1.28309,-3.75085 1.80552,-0.22278 3.91183,-1.09219 5.37362,-0.32065 -0.76329,0.30967 -1.33921,1.03454 -0.009,0.78326 1.32303,-0.96488 -0.66824,1.15271 -1.14487,0.7553 -0.53741,-0.64037 -2.18379,-1.48905 -0.87024,-0.11619 0.25762,0.37773 1.89786,1.67707 0.68159,1.04648 -1.83434,-0.70704 -3.91218,-0.90941 -5.84901,-0.75886 1.72171,0.67624 3.87767,0.3362 5.63569,1.20491 1.48455,1.02439 -2.19508,0.45021 -2.70137,0.051 -1.09662,-0.58828 -0.53217,2.53351 -2.05773,1.27136 l -0.34168,-0.1658 z m 8.39102,-2.35167 c -0.21505,-0.67904 -2.02601,0.0635 -0.56248,-0.8093 1.06361,-0.56192 0.87096,2.13974 0.56248,0.8093 z m 0.46302,-1.19682 c 0.0874,-2.18275 2.18636,-0.81199 3.24114,-1.28546 -0.75802,-0.2562 -2.3112,-0.57665 -0.51355,-0.79375 2.37468,-0.74263 -2.0298,-0.004 -0.8331,-0.73886 -1.15395,-0.19622 -1.96528,2.30621 -2.44641,1.08249 -0.55757,0.0322 -1.01698,-0.79931 -1.02269,0.42809 -0.52385,-1.51011 -0.45439,-3.17506 -2.6099,-3.08545 -1.91503,0.0704 -2.95076,-3.56951 -0.44671,-2.58315 1.60718,-0.2776 3.14883,0.15184 3.95883,-1.44803 2.35456,-1.27571 2.17428,3.04495 0.62244,3.8831 -0.13103,0.65683 -0.52672,2.70134 0.54767,1.47294 1.33258,-1.06184 4.72518,-1.38319 4.81561,0.93616 -0.12497,1.24712 -2.2417,2.57323 -2.92053,1.74514 0.0897,0.71987 -2.64708,0.92718 -2.3928,0.38678 z m -1.25677,-4.99005 c -1.10587,-0.50867 -2.59325,-1.80679 -2.25624,-0.53321 -0.72543,-0.18342 -2.54817,-1.09829 -1.12502,0.10984 0.88353,0.30721 2.65724,0.93849 3.38126,0.42337 z m 1.03245,-1.36239 c 1.07024,-1.49747 -0.90156,-1.84269 -0.6476,-0.20997 -0.0642,0.89495 0.26243,1.55495 0.6476,0.20997 z"
         id="path200" /><path
         style="fill:#168b81;stroke-width:0.264583"
         d="m 140.91939,207.15465 c -0.66602,-1.10174 -0.22191,-3.25107 1.18971,-1.7393 0.53818,0.99207 0.29049,3.20441 -1.18971,1.7393 z m -5.21574,-1.62757 c -1.48174,-1.11049 0.98379,-0.50143 1.55216,-0.20625 1.12058,0.38336 0.60158,-2.7041 1.78001,-1.03646 2.56043,0.87603 -1.6471,1.49358 -2.52766,1.50982 -0.28357,-0.0324 -0.55016,-0.14419 -0.80451,-0.26711 z m -4.2825,-2.09006 c 0.7826,-0.57779 2.51976,-1.93896 2.48672,0.23127 -0.37062,0.15613 -2.98725,0.73297 -2.48672,-0.23127 z m 11.63122,0.0259 c -0.94145,0.31788 -3.63226,-0.72702 -1.49559,-1.11213 -0.80506,-1.69911 -1.69623,-3.88672 -1.64128,-6.10315 -0.73534,-1.2863 -5.15585,-0.6537 -3.35065,-3.29467 1.13638,-0.81944 2.05608,1.44396 3.53413,1.15893 0.43601,1.76656 0.3034,3.95828 1.85385,5.11334 -0.22481,1.15639 -0.30362,1.89217 0.50481,0.5147 0.82409,-1.14674 -1.46574,-3.55151 0.85515,-3.85644 0.57393,1.37599 1.7554,4.4141 -0.59817,4.9145 -1.91229,1.48117 1.57339,0.0463 2.07263,-0.57176 0.70224,-0.045 2.59149,-0.92555 0.83754,-0.82966 0.78544,-1.60365 1.91505,-3.56208 3.99356,-2.71679 1.22743,0.2545 3.75505,-2.02584 1.15398,-0.84957 -0.58593,0.54116 -3.25639,0.61453 -2.69877,-0.30692 0.4212,-0.59866 2.20258,-3.13138 0.90377,-2.25612 -0.65447,0.85591 -0.92083,-1.52702 0.12669,-0.92854 0.16957,-1.02739 -0.42497,-1.47736 -1.01547,-1.33829 -0.21887,-2.13352 -0.65641,0.14152 -0.622,1.04314 -2.4608,0.0443 -1.15201,-3.42077 0.56237,-3.76513 2.17529,0.48642 2.1905,3.4084 4.20163,4.25529 2.18308,1.59222 1.1231,4.71963 -0.78218,6.06655 -1.5784,1.36543 -4.24914,1.02255 -4.54876,3.59092 -0.80922,1.34394 -2.40147,1.80379 -3.84724,1.2718 z m 1.48591,-4.81221 c -0.65844,-1.5014 0.23789,-2.12531 1.4539,-2.43292 0.86605,-1.15661 0.76795,-2.02913 0.32329,-3.30385 2.79928,-0.7986 1.67265,2.69074 0.42106,3.81277 -0.37601,0.30934 -1.85421,3.37661 -2.19825,1.924 z m -15.39865,-1.90721 c 1.24702,-1.00799 1.58786,0.40362 -0.0289,0.26458 l -0.32809,0.0641 0.35699,-0.32871 z m 1.54972,-5.46607 c -0.55696,-0.63436 0.31561,-2.47696 1.38061,-1.12035 0.94001,1.20963 0.4179,1.59314 -1.07186,1.20818 l -0.30875,-0.088 z m 1.93375,-0.92717 c -0.67268,-1.24637 2.51374,-0.89619 0.86447,0.26261 -0.27166,0.27612 -0.78541,0.11306 -0.86447,-0.26261 z m 11.1125,-0.26459 c -0.59188,-1.19339 1.11939,-0.49826 0.92388,-1.88305 -0.0424,-0.63716 -2.33532,-0.76307 -0.23579,-1.0186 1.18788,-0.55653 1.67714,2.20765 1.32734,0.0452 -0.61309,-1.57037 -0.01,-3.82895 1.49637,-1.62966 0.65139,1.97422 -1.79261,4.25257 -3.32226,4.78173 z m -11.80227,-1.16899 c 0.60673,-0.75508 2.34696,0.16432 0.64585,0.26459 -0.14411,-0.0547 -0.59171,0.003 -0.64585,-0.26459 z m 11.12326,-0.28467 c 0.75627,-0.65719 -1.498,-0.44055 -0.032,-0.8548 1.79439,0.11271 -0.60303,2.17856 0.032,0.8548 z m -2.03374,-0.37159 c 0.43655,-1.76908 1.63592,0.60062 -0.0251,0.32745 l -0.0307,-0.12132 z m -13.05726,-0.40145 c -0.87485,-2.10729 1.94614,-4.74158 3.96395,-3.08643 0.8662,0.62507 2.62074,1.78036 1.20309,2.52763 -0.0291,2.05804 -3.28008,-0.86823 -4.30574,0.61362 l -0.48303,0.0418 -0.37827,-0.0964 z m 11.42017,-0.91511 c -0.40985,-2.11221 1.70505,-1.99593 2.66,-1.6722 0.90784,-0.62173 0.68184,2.53011 -0.19639,1.028 -0.63839,0.01 -2.48987,3.47035 -2.46361,0.6442 z m 3.91677,-0.65827 c 2.14403,-2.64197 -0.57831,1.86013 0,0 z m -3.96086,-1.99911 c 0.63292,-1.25513 0.56157,1.21633 0,0 z m 2.54277,-0.24537 c 1.50424,-1.39175 0.27015,1.22036 0,-4e-5 z m 1.87495,-0.3366 c -1.17347,-0.73249 1.79633,-1.21698 1.17093,-0.0795 -1.51562,-1.61497 0.0717,0.72513 -1.17093,0.0795 z m -2.97191,-0.35928 c -1.54015,-0.97966 -3.47815,0.51625 -5.34301,-0.25862 -2.08735,-0.11556 -1.46755,-3.39622 -3.89708,-2.26051 -1.41819,0.69318 -2.60793,-1.51602 -0.62407,-1.28211 0.71826,0.13448 1.59834,1.72219 2.06835,0.1123 0.63941,-2.55085 5.19722,0.73171 3.97835,1.4773 -0.84281,-0.23953 -3.72465,-0.44011 -1.41673,0.34378 1.20777,-0.0262 3.57868,-0.0602 2.66524,1.61851 1.69969,-0.92793 -0.46824,-3.1768 -0.90815,-4.45498 -1.45695,-1.09326 1.10156,2.2894 -0.52771,0.75985 -1.56201,-0.56463 -2.21017,-2.8823 -3.41073,-3.13487 0.052,0.8744 1.69553,2.00474 -0.25139,1.18757 -1.78093,-0.34383 -1.49382,-3.38221 0.52258,-1.73014 1.94688,0.81065 4.10304,1.53333 4.74222,3.79497 1.21641,1.34761 0.43641,-2.21779 0.61078,-2.97359 0.63395,-2.37113 0.1066,1.04747 0.74044,1.62942 -0.9942,1.87159 2.01816,1.52927 1.14333,3.3074 -0.50902,1.33393 0.68082,2.13394 0.79661,0.5282 0.94721,-1.66584 4.08845,-1.10584 3.86816,0.77374 -1.22242,-0.15439 -2.47739,-1.11778 -2.9346,0.17419 0.0976,0.25871 -1.18947,0.0474 -1.71046,0.49107 l -0.11211,-0.10342 z m 5.85821,-6.74896 c 0.34631,-0.54909 -1.74386,-1.87907 -0.0941,-1.06961 1.00141,0.26632 -0.0833,2.65835 0.0941,1.06961 z m -1.40653,-0.37959 c -0.89099,-0.65351 -0.61458,-0.88701 -0.21685,-1.77707 -1.13373,-0.1639 -1.54957,-1.19175 -0.69848,-1.77312 -0.97929,0.0269 -2.09966,-0.64507 -0.48114,-0.53356 1.72812,0.69909 1.51564,3.86952 1.9754,4.61292 -0.287,-0.0126 -0.50701,-0.2686 -0.57893,-0.52917 z m -11.6737,-1.45826 c -1.58896,-0.9216 -1.90036,-3.07512 -0.15034,-3.75209 -1.32693,-2.45495 2.17238,-3.53457 3.68727,-1.9415 0.56993,0.0563 1.8629,2.39483 1.71187,0.98515 -0.0892,-0.95504 0.14113,-2.73355 0.53212,-0.85039 1.29469,1.09412 1.36809,3.02129 0.41228,4.09887 1.25835,-0.2182 -0.35787,1.21001 -0.48484,1.74351 -0.64549,-1.54469 -3.00172,0.97052 -4.55213,0.33527 -0.44825,-0.0513 -0.824,-0.33673 -1.15623,-0.61882 z m 5.66281,-1.45232 c -0.16865,-0.78925 -1.2391,-0.72974 -0.48318,-1.47836 -1.32949,0.98948 -1.84994,-2.48823 -2.17554,-0.21326 -1.30021,0.34499 -1.62553,-2.47403 -2.18613,-0.74369 0.89544,0.43833 -0.91758,1.22746 0.78309,1.15764 0.97546,-10e-4 2.54622,0.51164 0.57422,0.48157 -1.20964,-0.24451 -2.80519,0.54805 -0.70084,0.52589 1.5763,-0.0335 2.934,-0.88736 4.0032,0.75916 0.23992,0.0458 0.14973,-0.46687 0.18518,-0.48895 z m 4.26959,-4.4316 c 0.79282,-0.8601 -0.0187,-1.94077 1.06559,-2.49375 0.20689,-2.67521 2.29654,2.73717 -0.65851,2.72967 -0.23893,0.39528 -0.77278,0.16067 -0.40708,-0.23592 z m -7.63383,-1.9518 c -2.23631,-1.79791 3.8596,-1.70993 2.37423,0.26217 -0.79494,0.0465 -1.6116,-0.0271 -2.37423,-0.26217 z m -3.79841,-1.06895 c -2.4618,-0.69939 -2.18727,-4.82775 0.75028,-3.9073 1.59947,0.45073 4.75608,-2.11606 4.54973,0.71519 0.39847,1.51942 -0.92746,-0.726 -1.54843,-0.68332 0.0557,0.94739 1.20308,1.63045 1.80468,2.39252 -1.88017,-1.07402 -4.17793,-1.17217 -6.28642,-1.02971 -0.29994,0.99405 3.38007,-0.35575 2.08072,1.57021 -0.0136,0.682 -0.63004,1.71583 -1.35056,0.94241 z m 2.77952,-0.98598 c -2.89766,-1.81529 4.41212,-0.0962 1.70517,0.21001 -0.57211,-0.0232 -1.14774,-0.0737 -1.70517,-0.21001 z m 7.01007,-2.7714 c -1.8313,-1.15676 0.41898,-1.59549 1.46532,-0.97074 1.74799,-0.37734 -2.33225,-0.80647 -0.0101,-1.04847 1.95891,-0.50037 -0.73928,-0.27264 -0.85385,-0.75419 -0.40555,-1.00959 -1.48377,2.37221 -2.35073,0.75324 -2.22596,0.37279 -0.86672,-2.87286 -3.2008,-2.22766 -2.27478,0.13893 -3.70048,-3.38377 -0.56744,-2.72837 1.75693,0.39431 2.79744,-0.57679 4.00308,-1.48744 2.80852,0.19766 0.56665,3.28954 -0.005,4.69442 -0.10309,0.72265 -0.5518,2.05684 0.47388,1.01224 1.37082,-0.96617 3.66694,-1.68125 4.93909,-0.22036 0.80961,1.70606 -1.79303,3.32276 -2.85042,2.39302 -0.18286,0.54196 -0.28375,1.11854 -1.04262,0.58431 z m -2.51354,-4.92969 c -1.16085,-0.53012 -2.45141,-1.8222 -2.29621,-0.55005 -0.74345,-0.12672 -2.33441,-1.37171 -1.3227,0.17574 1.05707,0.24674 2.68591,0.8778 3.61891,0.37431 z m 1.03245,-1.36239 c 1.11607,-1.45371 -1.02168,-2.06075 -0.65969,-0.30432 -0.0387,0.82191 0.23556,1.77787 0.65969,0.30432 z"
         id="path198" /><path
         style="fill:#11897f;stroke-width:0.264583"
         d="m 140.91939,207.15465 c -0.94394,-1.35603 0.27086,-3.38595 1.28251,-1.36359 0.42327,1.12499 0.0626,2.62838 -1.28251,1.36359 z m -5.48333,-1.89003 c -0.22486,-0.95925 2.81879,1.02561 2.8208,-0.80465 1.15658,-0.0889 1.92925,0.82925 0.40159,0.8926 -1.03344,0.0845 -2.29435,0.51389 -3.22239,-0.0879 z m -4.03189,-1.51129 c 0.62854,-0.87737 2.4297,-2.02443 2.42934,-0.11274 -0.71193,-0.0363 -1.88005,0.44038 -2.42934,0.11274 z m 12.5677,-0.14453 c -2.17066,-0.26911 -3.01953,-2.57993 -3.57249,-4.37529 -0.12691,-0.68295 -0.42473,-3.34986 0.22681,-1.35711 1.78063,0.80727 0.69695,2.68683 1.64148,3.66341 1.09012,-0.56841 2.81031,1.94415 3.33793,0.71029 -0.69976,0.1749 0.0628,-1.38751 -1.30704,-0.75475 -2.26525,-0.96589 4.23555,-1.98288 1.28785,-2.24421 1.18104,-1.0429 1.60577,-3.4987 3.66655,-2.46642 1.16496,-0.31198 3.13428,-0.71743 1.45149,0.88446 -0.6894,0.42758 -1.66877,1.67029 -0.0485,1.05941 1.44162,-0.53017 2.09679,-2.48403 2.69699,-3.38268 -0.34153,2.78838 -3.02455,4.16002 -5.40911,4.7986 -0.83865,1.55796 -1.75754,3.83851 -3.97196,3.46429 z m -0.69085,-3.27404 c -0.33956,-1.19342 0.64867,-3.30859 0.87374,-1.03276 0.24338,0.36345 -0.57843,1.43672 -0.87374,1.03276 z m 1.26722,-1.64599 c -0.46957,-1.01817 0.43557,-0.90129 0.61427,-1.83461 0.76622,1.04153 1.57848,-1.79645 1.66008,-2.44243 -1.29391,-2.06288 2.59476,-1.45707 0.98826,0.42904 -0.78438,1.65205 -1.89183,3.12041 -3.09033,4.49199 -0.0574,-0.21466 -0.11485,-0.42933 -0.17228,-0.64399 z m -4.45495,-2.65161 c -0.70718,-1.02202 -2.72511,-0.45808 -3.85876,-1.38743 -0.61476,-0.4383 1.03379,-3.23912 1.50863,-1.14228 1.69276,0.29789 3.39442,0.9455 2.55281,2.94255 l -0.0832,-0.003 -0.11948,-0.40989 z m 8.44265,0.10795 c -1.05245,-1.02109 1.94259,-2.7705 0.76325,-4.29735 1.18264,-0.89492 -0.60482,-2.13463 0.0718,-0.30869 -0.89442,-0.69115 -1.78029,-0.83007 -0.89392,-2.11365 -1.26133,-0.16692 -0.57603,2.93282 -2.34671,1.50349 0.0338,-0.91498 0.65668,-1.91471 1.41339,-1.42858 -1.58012,-1.54581 2.44735,-1.34413 2.34005,0.40382 0.41637,1.92647 3.5038,2.66757 3.2608,4.50954 -0.12334,-0.96418 -1.21215,0.83572 -1.88368,0.0973 1.87125,1.12496 -2.03726,1.87165 -2.72499,1.63409 z m -17.21871,-4.77413 c -1.51066,-0.15573 0.096,-2.9872 0.72902,-0.82616 0.63951,1.12662 0.47054,1.07873 -0.72902,0.82616 z m 1.40985,-1.14719 c 0.65073,-1.90682 1.59821,0.87919 0.11324,0.32259 l -0.0828,-0.14524 z m 11.18525,-0.24879 c 0.12303,-0.95111 1.83424,-2.34314 0.0439,-2.42936 0.27888,-0.87973 2.57458,0.10581 1.05156,1.12069 0.13462,0.51439 -0.76263,2.84038 -1.09545,1.30867 z m 1.51475,-0.77814 c 1.2962,-0.96177 -0.50226,-4.48848 1.02262,-4.26157 1.91297,0.7596 -0.13514,4.37105 -1.02262,4.26157 z m -13.36146,-0.2802 c 0.72889,-0.7308 2.09108,0.21419 0.49794,0.26459 3.6e-4,0.0175 -0.63941,-0.0136 -0.49794,-0.26459 z m -4.0783,-2.19595 c -0.13064,-1.12248 1.39422,-2.77478 2.24217,-2.08575 -1.31709,-0.18729 -1.91639,1.7198 -2.24217,2.08575 z m 4.93873,-0.0961 c 0.35872,-1.27452 -3.7155,-2.71862 -1.1578,-1.91114 0.83636,0.26078 2.66621,2.55282 1.1578,1.91114 z m 1.65312,-3.96597 c -1.2334,-0.35763 0.34233,-1.19221 -1.03429,-1.20156 -0.88407,-1.03942 -0.29477,-3.19158 1.4262,-2.6262 1.7943,0.63494 0.17998,1.61777 -0.52173,2.14019 0.36263,0.88417 2.76104,0.47595 0.78327,0.89447 -1.94636,0.7142 2.62126,0.95975 0.42123,1.1607 -0.37083,-0.081 -0.72862,-0.21334 -1.07468,-0.3676 z m 10.54182,-0.47428 c -0.53435,-1.53315 -2.49619,-0.65544 -2.73657,0.0662 -1.37988,-1.27865 3.13256,-1.9848 3.06847,0.11473 0.36497,0.76336 -0.23861,0.22826 -0.3319,-0.18097 z m -9.48349,-3.87578 c -1.09928,0.091 -0.35814,-1.90967 -0.25048,-1.62934 0.97547,0.38217 2.26308,0.5376 2.28944,1.9047 -0.67879,-1.51361 -1.19654,0.36231 -2.03896,-0.27536 z m -2.57969,-0.85149 c -1.45622,-0.22944 -1.3573,-3.06796 0.41219,-1.77925 0.90366,-0.0793 1.89891,1.39386 0.77448,1.42127 -0.29973,-1.5839 -1.64518,-0.51401 -0.26029,0.33 0.22326,0.48048 -0.81532,0.008 -0.92638,0.028 z m 0.63891,-2.66691 c -1.45598,-0.85865 -2.15074,-2.89598 -0.28431,-3.56106 -0.49449,-1.07934 0.2537,-3.30391 1.25229,-2.52725 -0.79788,0.17624 -1.6525,1.66958 -0.53886,1.09692 0.50856,0.55971 -0.14457,1.33712 0.44009,2.16136 2.51771,0.37788 -2.17939,0.62271 -0.16925,1.06061 0.974,-0.10312 1.71745,-0.0484 1.3807,1.11969 0.34651,1.72607 -1.163,1.4148 -2.08066,0.64973 z m 10.8556,-0.86044 c 0.87566,-0.50053 -1.57182,-2.34225 0.0163,-1.33547 0.44815,0.45453 0.81588,1.98446 -0.0163,1.33547 z m -5.6731,-4.72451 c 0.1768,-1.88256 0.14723,2.07406 3.5e-4,0 z m -2.71255,-0.28122 c -1.86286,-0.94053 1.99227,0.32356 0.70772,0.26118 l -0.30196,-0.10881 -0.40576,-0.15215 z m 7.87228,-0.23617 c 0.7133,-0.66458 -0.009,-1.53263 0.74491,-2.17633 0.0743,-0.35505 0.70959,-0.28924 0.0161,-0.97711 1.59576,0.99158 0.28986,3.50363 -1.08958,3.41401 l 0.32871,-0.2606 z m -12.27574,-3.0491 c -2.3496,-0.97022 -1.51732,-4.67415 1.19155,-3.6711 0.79602,0.12065 3.75922,-0.57754 1.55457,0.13135 -0.64563,1.61598 -2.29558,0.57213 -3.36975,1.44855 0.49832,0.74046 2.67543,-0.45632 2.20001,0.83628 -0.0476,0.91382 -0.4831,1.90103 -1.57638,1.25492 z m 12.34096,-4.098 c 0.91447,-0.77119 -1.16825,0.0121 -0.0847,-0.83208 1.78635,-0.33353 -1.63842,-0.32946 0.0846,-0.92854 0.46474,0.0971 1.57226,0.12222 0.17432,-0.42699 0.88813,-1.43217 -1.63453,0.39061 -1.56334,0.0197 0.77338,-1.57876 -2.02917,0.76527 -2.75391,0.55109 -1.94724,0.0993 -0.55765,-2.46456 -2.55951,-2.05854 -1.40256,0.32405 -4.27626,-2.27365 -2.01883,-2.73497 1.0741,0.31048 3.0749,0.13157 3.74133,-0.3285 0.75123,-1.97799 3.60686,-0.81923 2.32122,1.17187 -0.72016,0.92235 -2.16838,3.18926 -0.84847,3.67809 1.31895,-1.21815 4.58578,-2.14516 5.17968,0.21502 0.43322,0.71884 -2.2515,2.56846 -1.67246,1.6739 z m -4.43443,-2.46687 c 0.29883,-0.1472 0.27754,-1.72119 -0.58502,-1.12051 0.7489,-0.72973 1.41818,-0.98432 1.53843,-2.06257 2.30718,-0.58958 -0.80389,-3.23978 -1.14617,-0.90314 -0.0907,1.08531 -2.46836,0.11116 -3.42665,0.63882 -2.53191,-1.03558 -0.55036,2.50926 1.06506,1.68328 0.69863,0.51304 2.90955,0.23647 1.73042,1.95565 0.2415,-0.0517 0.69995,-0.72639 0.82393,-0.19153 z"
         id="path196" /></g></g></svg>
