<?xml version="1.0" encoding="UTF-8" standalone="no"?>
<!-- Created with Inkscape (http://www.inkscape.org/) -->

<svg
   width="26.816561mm"
   height="54.580803mm"
   viewBox="0 0 26.816561 54.580803"
   version="1.1"
   id="svg4704"
   xml:space="preserve"
   inkscape:version="1.2.2 (732a01da63, 2022-12-09)"
   sodipodi:docname="tige-natural_low.svg"
   xmlns:inkscape="http://www.inkscape.org/namespaces/inkscape"
   xmlns:sodipodi="http://sodipodi.sourceforge.net/DTD/sodipodi-0.dtd"
   xmlns="http://www.w3.org/2000/svg"
   xmlns:svg="http://www.w3.org/2000/svg"><sodipodi:namedview
     id="namedview4706"
     pagecolor="#ffffff"
     bordercolor="#666666"
     borderopacity="1.0"
     inkscape:showpageshadow="2"
     inkscape:pageopacity="0.0"
     inkscape:pagecheckerboard="0"
     inkscape:deskcolor="#d1d1d1"
     inkscape:document-units="mm"
     showgrid="false"
     inkscape:zoom="3.1358025"
     inkscape:cx="23.438976"
     inkscape:cy="115.75984"
     inkscape:window-width="2560"
     inkscape:window-height="1369"
     inkscape:window-x="-8"
     inkscape:window-y="-8"
     inkscape:window-maximized="1"
     inkscape:current-layer="layer1" /><defs
     id="defs4701" /><g
     inkscape:label="Calque 1"
     inkscape:groupmode="layer"
     id="layer1"
     transform="translate(-109.58256,-158.58376)"><g
       id="g4837"
       transform="translate(53.15625,3.88125)"><path
         style="fill:#b7c7c4;stroke-width:0.264583"
         d="m 70.221144,208.33994 c -0.127183,-1.44661 -0.624143,-2.28374 -2.152253,-1.41193 -1.619452,0.66456 -3.308493,0.0192 -4.392753,-1.2548 -0.532449,-0.71853 -1.495185,-0.15247 -2.245868,-0.21947 -1.905476,0.44165 -4.112483,0.0424 -4.749152,-2.0623 -0.857062,-1.94828 0.615411,-4.04493 1.934182,-5.40305 2.267605,-1.92376 5.118115,0.0427 6.073023,2.32852 1.553939,0.63316 3.68121,0.2174 4.534914,2.26269 1.0844,1.36574 0.161841,-2.04724 0.275494,-2.8504 -0.03628,-1.50265 -0.04782,-3.29954 -2.031569,-2.76832 -2.134764,-0.20774 -2.819402,-2.53669 -3.732661,-3.60547 -2.246222,-0.27134 -5.139587,-0.17122 -6.353088,-2.49152 -0.741804,-1.91354 -0.294153,-5.10716 2.213037,-5.35255 2.42832,-0.3917 3.339468,2.7634 5.657742,2.86615 1.661008,0.44643 2.649956,3.00784 3.490609,3.50678 -0.0023,-2.26116 -0.213041,-4.51761 -0.288507,-6.77735 -1.855992,-0.62163 -4.748812,0.26776 -5.603452,-2.18595 -1.246134,-1.23439 -4.861853,0.21199 -4.461836,-2.7972 0.395417,-2.02975 2.663581,-4.56907 4.838692,-3.15593 1.59704,0.91948 3.779777,1.1816 4.404579,3.1921 0.485193,1.17909 0.596632,0.78525 0.548361,-0.28073 0.0207,-1.27271 0.141023,-2.55437 -0.003,-3.82136 -1.741443,0.68904 -4.22884,1.58487 -5.579578,-0.33258 -1.217989,-0.87634 -1.707508,-2.65709 -0.07671,-3.35875 -0.835385,-2.82049 2.828596,-3.73918 4.482024,-1.86916 0.635293,0.64567 1.26162,1.33244 1.007012,-0.0455 -0.126447,-0.60704 0.405098,-1.79925 -0.60627,-1.61929 -2.405851,-0.33002 -4.825039,-1.01112 -6.94927,-2.1982 -2.195831,-1.91772 0.195464,-4.37314 2.486384,-3.52966 1.650893,-0.33416 3.300636,-0.76951 5.003957,-0.66998 -0.02237,-0.9362 -0.04473,-1.87239 -0.0671,-2.80859 -1.401693,-0.14869 -2.968123,-0.3167 -3.824235,-1.60774 -1.638456,-1.81808 1.291703,-1.84391 2.335724,-1.73103 1.939534,0.39373 4.140484,-3.55727 5.028755,-0.26235 0.350621,1.89026 -2.076517,2.64274 -1.555869,4.53046 0.369869,0.55618 2.028994,-1.47341 3.109926,-1.04645 2.406641,-0.54846 3.51656,2.71018 1.129575,3.60264 -1.214912,0.81848 -2.700232,0.83335 -4.107209,0.82862 0.05946,1.00824 0.11892,2.01647 0.17838,3.02471 1.315275,-1.0687 3.523934,-1.01407 4.718372,0.18391 1.050445,2.15337 -1.436089,3.92732 -3.325196,4.18929 -2.015347,-0.62446 -1.239254,2.10166 -0.958383,2.91724 1.92983,-2.17987 4.168984,-0.34167 4.864095,1.7956 2.387892,1.49796 0.301975,4.23026 -1.938174,4.24474 -1.357439,0.54979 -3.593656,-0.71392 -2.87764,1.73078 -0.01173,0.75524 -0.194259,1.83278 0.707161,0.86476 1.589597,-1.81538 4.329144,-0.16239 3.974414,2.05385 0.375311,1.37516 2.854678,2.79736 0.985593,4.45711 -1.410116,1.54816 -3.019191,3.56941 -5.36592,3.2453 -0.202112,0.82321 0.252604,2.21592 0.183475,3.2104 0.159955,0.5854 -0.05937,2.90722 0.166037,2.77814 0.486084,-1.5352 1.24593,-3.31593 3.097964,-3.44556 1.426332,-1.24624 0.430646,-3.89605 2.121566,-5.21191 2.252756,-1.6358 3.143747,2.14632 4.517212,3.21793 2.007117,1.34322 3.132413,3.91627 1.008616,5.75071 -1.013701,2.3786 -4.314822,1.63159 -5.141312,3.81698 -0.802996,2.14308 -2.986395,2.59387 -4.998946,2.21202 -0.676479,1.09934 1.384622,5.0484 -1.282287,4.00743 -0.0994,0.23746 -0.406273,-0.90103 -0.408665,-0.64381 z M 68.142707,204.396 c -1.660193,-0.8845 -2.74497,-2.54664 -4.569941,-2.73831 -1.019594,-0.53153 -2.400072,-0.42104 -0.553521,0.1775 2.066827,0.78225 3.99364,1.98568 5.780886,3.18609 -0.175957,-0.24868 -0.442998,-0.41545 -0.657424,-0.62528 z m 5.694559,-2.81393 c 0.681118,-0.65337 1.963303,-2.3092 2.009183,-2.49738 -0.470128,0.86379 -3.210514,2.87749 -2.618705,2.95715 l 0.273139,-0.19283 0.336382,-0.26697 z m -5.561005,-8.21201 c -0.419374,-0.89759 -2.396794,-3.32724 -2.509012,-2.77308 1.301579,0.89588 2.313498,3.5022 2.980914,3.97875 -0.09691,-0.42262 -0.278124,-0.82001 -0.471902,-1.20567 z m -0.0013,-9.93494 c -0.581087,-1.10703 -2.163035,-2.75025 -2.832382,-2.95131 0.889129,0.72782 2.290032,2.81723 2.832382,2.95131 z m -6.085417,-4.46457 c -0.781696,-0.71764 -0.961969,-0.86205 -1.703255,-0.24643 0.135976,0.19903 2.24908,0.61056 1.703255,0.24643 z m 10.515439,-2.46222 c 0.65221,-1.12775 -3.344096,1.96648 -1.270402,0.715 0.3819,-0.29018 0.783472,-0.62815 1.270402,-0.715 z m -4.584491,-2.14117 c -0.352044,-0.89728 -2.386999,-1.05601 -0.685158,-0.34922 0.360929,0.33195 1.588446,1.43109 0.685158,0.34922 z m 3.858636,-6.17707 c 1.488408,-0.56529 0.128621,-0.0745 -0.403922,-0.3638 0.676714,-1.17833 -3.040822,2.46639 -0.975994,1.01581 0.437515,-0.26135 0.902592,-0.47467 1.379916,-0.65201 z m -0.839063,-6.23384 c 1.007813,-1.52034 -2.456919,1.61959 -0.380424,0.13545 l 0.380426,-0.13545 z"
         id="path4851" /><path
         style="fill:#94aca8;stroke-width:0.264583"
         d="m 70.867119,209.13667 c -1.290433,-0.65824 -0.3026,-3.74547 -2.435733,-2.33069 -1.662684,0.78441 -3.593548,0.35038 -4.622234,-1.1812 -0.481882,-0.66171 -1.436008,-0.098 -2.138509,-0.18727 -1.918982,0.41136 -4.058656,0.16897 -4.879163,-1.9316 -1.07051,-1.94124 0.602589,-4.21487 1.923346,-5.58466 1.69412,-1.18163 4.351483,-0.60075 5.230434,1.30856 0.779916,1.17708 -0.986815,1.37614 -1.175296,1.95661 -0.979679,-0.65583 -2.002382,-2.7185 -2.854504,-2.73251 0.51438,1.0792 3.361343,3.07832 0.559382,2.5058 -1.044264,-0.42661 -3.589062,0.34593 -1.188026,0.4293 0.978434,-0.0909 4.466968,0.36494 1.961376,0.54418 -0.650195,0.75587 -0.580175,-1.08283 -0.986018,0.31177 -0.887379,0.66249 -2.672239,1.55014 -0.451364,0.83299 1.773492,-1.40018 3.779481,0.1131 5.792935,-0.10117 -0.327058,0.66105 -3.696518,1.42059 -1.204773,1.08584 1.542586,-1.17439 3.518547,0.5774 4.306029,0.78785 -0.706178,-0.64007 -3.755188,-2.79414 -2.08989,-3.06948 -0.320932,-2.23357 2.358204,0.16887 2.78805,1.16016 0.711051,1.37708 0.596073,-1.4491 0.305989,-1.89232 -0.485233,-1.64963 0.439673,-4.75872 -2.247949,-4.10133 -1.97056,-0.38955 -2.974879,-2.34005 -3.60768,-3.7639 -2.117425,-0.009 -4.607541,-0.11407 -6.127507,-1.80473 -0.884239,-1.27816 0.100195,-1.75578 -0.5571,-2.94394 -0.194259,-2.57593 3.142572,-3.94743 4.840097,-2.03239 0.773853,0.76896 2.633014,1.97403 1.166165,2.56159 1.44196,1.47894 -2.089459,0.1368 -2.856728,0.24043 -2.234664,-0.49479 0.650489,1.01166 1.518798,0.54006 1.744478,0.24879 2.942225,0.67025 4.350773,1.36693 1.346895,1.07682 2.727178,3.34025 -0.06654,2.42568 0.6797,0.47576 2.596758,0.53381 2.823333,1.66995 -0.498761,-2.00359 -0.632333,-3.32646 -2.548551,-4.25539 -1.203874,-1.07221 -1.589141,-1.17627 -2.619177,-2.01142 2.074267,-1.36287 3.767294,1.50116 4.695914,3.01463 0.793391,1.67103 0.781746,-1.1104 0.459051,-1.6512 -0.290903,-1.80631 -0.326062,-3.63915 -0.460685,-5.46075 -1.977034,-0.0429 -4.584459,0.18248 -5.620324,-1.8752 -0.790762,-1.74 -4.728679,0.55626 -4.273698,-2.57544 0.09881,-1.35759 1.182471,-2.39945 1.999065,-1.26465 2.041128,-0.0247 2.99411,0.65377 4.661048,1.39947 0.359031,0.50313 2.733608,1.93631 1.389048,2.039 -0.58664,0.11057 -2.061515,0.3106 -0.661983,0.22115 1.194038,-0.59778 3.060965,1.89741 1.811027,-0.32568 -0.154702,-0.96616 -2.017543,-3.67942 -0.746998,-1.32104 0.205821,1.12854 -1.786879,-1.28837 -2.468833,-1.45709 -0.431447,-0.60026 -2.264041,-2.79996 -1.008925,-0.85922 0.14467,1.32597 -2.288227,-1.05982 -2.569053,-0.66818 -0.233774,1.39986 -0.731434,-1.15787 -1.548935,0.15037 -0.555867,-0.82047 2.883523,-2.66953 4.055176,-1.19993 1.603311,0.83629 3.64934,1.19753 4.209579,3.18757 0.500006,1.2958 0.49266,0.39634 0.486547,-0.49779 -0.05157,-1.19464 0.324783,-2.79904 -0.12033,-3.68824 -1.836405,0.64707 -4.268313,1.49368 -5.591579,-0.53684 -1.192696,-0.90107 -1.322166,-2.46394 0.09943,-3.18916 -0.864908,-2.32696 1.957167,-3.58741 3.720647,-2.28745 0.988275,0.39093 2.473963,2.78797 1.767835,0.38297 0.507725,-2.90724 -3.501504,-1.51396 -5.123564,-2.73995 -2.503689,0.17883 -5.07139,-4.13537 -1.66782,-4.67952 1.844212,0.46621 3.546143,-0.55449 5.384869,-0.53559 0.7461,-0.0498 1.711878,0.0937 1.309604,-0.96673 -0.169585,-0.60415 0.227467,-1.71829 -0.326485,-1.9765 -1.543669,-0.17904 -3.92473,-0.69418 -3.835753,-2.62639 1.06447,-1.5727 4.147295,0.38602 5.121195,-1.7129 2.327681,-2.09305 3.457184,2.56045 1.213377,3.4702 -0.253226,0.46329 -0.706309,2.89511 0.333073,1.7605 1.260977,-1.01794 3.316482,-1.31494 4.61348,-0.23788 1.308925,2.23869 -1.939246,3.47628 -3.692205,3.67767 -2.069773,-0.79538 -1.422032,1.46689 -1.479343,2.68348 -0.184587,1.53419 1.376376,-0.93712 2.20703,-0.37938 2.644864,-0.69369 4.270622,2.96337 1.618617,4.11813 -0.925675,1.05403 -2.709024,0.72312 -3.65846,1.00446 0.311496,0.86439 0.05522,2.7891 0.51024,2.92523 1.171318,-1.23675 3.624304,-1.31412 4.107467,0.62382 0.882667,1.58081 3.200938,3.02834 0.855052,4.6332 -1.235011,1.56499 -5.055108,-0.30748 -4.960654,2.04817 -0.0026,1.1038 -0.108273,2.80852 1.064426,1.12094 2.605008,-1.97914 3.708924,1.54263 3.935435,3.25055 2.619416,0.89116 0.868967,3.76 -0.61518,4.86494 -0.938079,1.28792 -2.802232,1.8037 -4.06209,1.96594 0.142984,2.14675 0.0299,4.39448 0.451378,6.4585 0.279643,-1.88409 1.327505,-4.13467 3.536279,-4.09102 0.708338,-1.8244 0.157412,-4.66533 2.393387,-5.57335 2.285528,0.15679 2.644693,3.15536 4.409096,4.30542 2.19281,1.27763 1.706795,3.73381 0.163388,5.30227 -0.965827,2.07851 -4.135565,1.29123 -4.864645,3.28398 -0.551289,1.68546 -2.259289,3.12677 -4.110315,2.5199 -1.189199,-0.42683 -1.394921,0.28401 -1.124918,1.37388 0.0446,0.90304 1.053742,3.48321 -0.89896,2.78703 z m 2.358904,-7.121 c 0.446183,-0.64047 3.850291,-1.23535 1.398976,-1.01522 0.713254,-1.16666 1.619653,-2.20207 2.441279,-3.29343 0.948244,0.0724 3.539909,0.31473 1.150986,-0.0863 -2.479716,0.25179 2.151756,-4.28479 -0.09356,-2.41969 -1.630967,2.77553 -3.369278,5.82455 -6.352049,7.34528 -0.105146,0.5249 1.299583,-0.40488 1.454372,-0.53066 z m 0.40523,-4.6714 c 0.260888,-1.12863 -0.375839,-1.68355 -0.324435,-0.16436 -0.102294,0.92414 0.170449,2.10281 0.290429,0.4659 z m 4.024429,-4.02287 c -0.35949,-2.44613 -0.52289,0.69502 0.05172,1.35939 0.08926,-0.45246 0.0049,-0.90976 -0.05172,-1.35939 z m -17.718431,-1.68435 c 0.29904,-0.84995 3.070116,-0.70983 0.80152,-0.93906 -0.798652,-0.0512 -2.739606,-0.37773 -1.075015,0.60929 -0.599894,0.21756 -2.296329,-0.78469 -0.652537,0.28091 0.772197,0.21561 0.599941,1.3862 0.926032,0.0489 z m 11.924953,-1.96513 c -0.185291,-1.88021 2.750138,-0.88886 2.895097,-1.93122 -1.437511,0.87247 -3.126429,0.31055 -1.323166,-1.18254 1.128631,-1.33355 -0.613034,0.26487 -0.893545,0.77605 -0.476684,0.83314 -1.850201,2.84396 -1.051598,3.37295 0.19792,-0.31331 0.284687,-0.68062 0.373212,-1.03524 z m 1.062096,-5.95665 c -0.56862,0.41494 -0.909598,3.24902 -0.277474,1.27028 0.114218,-0.41711 0.273057,-0.83116 0.277474,-1.27028 z m -10.205551,-3.51664 c 0.05684,-0.5653 -3.170546,0.52936 -0.837624,0.25163 0.287588,-0.0434 0.58515,-0.0976 0.837624,-0.25163 z m 9.906299,-2.49126 c -2.234573,-0.51486 0.110753,-1.11809 0.802674,-1.47439 -0.798992,-0.44271 -2.656532,0.98467 -1.44067,-0.81305 0.403388,-1.87066 -1.227725,1.43184 -1.064207,2.04018 -0.02196,0.3757 1.266566,-0.0793 1.946846,0.61238 0.30759,0.0345 -0.491862,-0.65764 -0.244643,-0.36512 z m -5.017974,-3.91102 c -0.59599,-0.55071 -1.780095,-2.23191 -0.975658,-0.66889 -0.703532,-0.23073 -3.930673,-0.40213 -1.634525,0.1418 0.516861,-0.006 1.841295,0.1681 1.01745,0.80397 0.99628,-0.79114 3.347977,1.8265 1.784293,-0.059 l -0.19156,-0.21791 z m 2.887046,-4.82663 c 0.629102,-0.70916 2.372116,0.9542 2.519195,0.23172 -1.536367,-0.0168 -1.473891,-1.38146 0.06286,-1.15833 2.195446,-0.19271 -0.957625,-0.63357 -1.581184,-0.0576 0.943991,-1.5675 -0.467547,0.29608 -1.054466,0.0141 0.351137,0.86141 -2.353019,1.13318 -0.304496,1.22437 l 0.358088,-0.25477 z m -2.972054,-3.11087 c -0.503585,-0.9565 -3.009775,-3.16395 -1.095998,-1.13015 1.367967,1.65127 -2.177371,-0.18822 -3.002737,0.0846 -0.697493,-0.0756 -2.251202,-0.18668 -2.568506,-0.18419 2.200674,0.37815 4.476034,0.62027 6.494132,1.64143 -0.441047,0.14402 -2.290998,0.53647 -0.979395,0.37147 0.994989,-0.5004 2.585124,1.43372 1.152504,-0.78313 z m -2.289775,0.68157 c -0.862477,-0.29475 -2.829772,-0.76879 -1.002614,0.0538 0.03994,0.12157 1.73892,0.13825 1.002614,-0.0538 z m 6.217708,-4.79345 c 0.955157,-0.2316 3.214654,-1.10708 0.833634,-0.63931 -0.775106,0.35733 -1.261009,0.37232 -0.855953,-0.16846 -0.768206,0.52505 -2.459144,2.68486 -0.580848,1.14543 l 0.3098,-0.18366 z m -2.778125,-3.23031 c -0.743238,-0.32755 -2.643078,-1.87785 -1.513526,-0.48241 -0.703068,0.33035 -3.180468,-1.18015 -1.588833,0.0996 0.802901,0.098 2.695126,0.91306 3.102359,0.38286 z m 1.164741,-1.62698 c 0.947362,-2.25215 -1.271531,0.51441 -0.419244,0.76748 0.203164,-0.21484 0.316716,-0.49562 0.419244,-0.76748 z m -7.179416,45.23895 c 0.976901,-0.5341 1.801416,0.69189 0.182935,0.28439 -0.16051,0.10058 -0.442852,-0.18151 -0.182935,-0.28439 z m 0.590717,-0.63607 c 0.24633,-1.82277 4.659523,0.08 1.826624,-0.26635 -0.787544,-0.85784 -1.267149,0.81135 -1.826624,0.26635 z"
         id="path4849" /><path
         style="fill:#6f908a;stroke-width:0.264583"
         d="m 70.920832,209.12265 c -1.269183,-0.67427 -0.366293,-3.62105 -2.656512,-2.34087 -2.233232,1.36482 -3.719187,-0.83805 -5.563915,-1.44853 -1.983388,0.0731 -4.499721,0.88996 -5.603497,-1.40172 -1.453289,-1.75867 0.02447,-3.92095 1.100894,-5.43837 1.469444,-1.91991 4.718582,-1.42045 5.628823,0.78899 -0.638487,0.63298 0.723824,1.14249 -0.545534,0.95536 -1.716163,1.39072 -1.942434,-2.24336 -3.540668,-1.97024 0.430239,0.99405 3.253924,2.90348 0.598569,2.70982 -1.109502,-0.20169 -3.124115,0.48457 -0.886107,0.44946 0.802538,-0.30382 4.018559,0.52053 1.504613,0.33102 -0.641165,0.46439 -2.221352,1.14271 -2.350906,1.64568 1.03287,-0.0774 2.417926,-0.64779 1.688331,0.29701 1.567016,-1.0245 3.143014,-0.80844 5.127889,-0.64353 -0.334355,1.04565 -2.880136,-0.18373 -2.093462,1.22212 1.919253,-0.45918 3.837548,-0.9615 5.262406,0.82194 0.889086,-0.51427 -3.566549,-2.25153 -1.206444,-2.69032 1.12906,-0.26684 3.096426,2.23844 2.514704,-0.20359 -0.151861,-1.75745 -0.406034,-3.50367 -0.623335,-5.25373 -2.158581,0.25172 -4.846884,-1.00864 -4.958262,-3.41724 -1.02974,-1.14496 -5.431996,0.53217 -4.194905,-2.35439 0.830474,-0.53707 1.829999,0.27722 1.670003,0.76224 0.109451,-1.47001 1.724627,-1.18658 2.356272,-0.51722 0.03244,-1.57506 2.68456,-0.22881 2.876497,0.95654 1.234679,0.39378 0.70514,2.07842 -0.29092,0.66146 -0.324429,-0.73522 -0.04437,0.8693 -0.970329,0.50579 1.026656,0.24377 1.510776,1.74606 2.437634,0.52072 -0.154806,1.19439 2.178661,1.7077 0.737339,0.44989 -0.500428,-0.87267 0.02332,-3.87928 1.151707,-3.042 1.850837,0.91023 0.348284,3.75869 0.924174,5.52902 -0.04536,1.00546 0.166192,2.98557 0.666878,0.99692 0.144673,-2.82164 4.179384,-1.99704 3.711202,-4.91868 -0.08935,-1.78342 1.659865,-4.92108 3.482804,-2.78685 0.949268,1.786 2.384123,3.16961 3.757001,4.62392 1.444516,1.78531 -0.516507,4.067 -1.861129,5.29201 -1.58384,1.06046 -3.915862,0.86546 -4.23293,3.19256 -0.82546,1.61228 -2.578503,1.87277 -4.17559,1.48959 -1.16418,-0.43877 -0.96884,0.32648 -0.706467,1.17237 -0.02067,0.75836 0.827486,3.66922 -0.736828,3.05285 z m 2.38125,-7.08203 c 0.607678,-0.58423 3.657005,-1.12182 1.343759,-1.18119 1.218361,-1.66261 2.4149,-3.67511 4.815503,-2.99761 1.209422,-0.0708 2.432682,-1.47892 0.512856,-0.44824 -1.160109,0.64259 -3.536619,0.19392 -1.984669,-1.36059 0.361732,-1.25119 -0.514332,-3.00578 -0.667695,-4.0203 -0.166273,1.929 1.121922,4.03883 -0.675437,5.58626 -1.338041,1.89737 -2.779338,3.88324 -4.916849,4.92465 0.115948,0.47893 1.302621,-0.33528 1.572532,-0.50298 z m 0.520859,-2.38867 c -0.445689,-1.32809 -0.328975,-2.69104 0.707973,-3.49598 -0.91643,1.20506 -0.581177,-1.26765 -1.209402,0.29025 -0.104063,1.41063 -0.02149,3.2377 0.633636,4.36809 0.05579,-0.39406 -0.05894,-0.78047 -0.132207,-1.16236 z m -8.194302,-7.83562 c -0.498703,-0.98165 -2.446852,0.77589 -0.510384,0.19257 0.153749,-0.0645 0.406622,-0.0231 0.510384,-0.19257 z m 2.977089,10.71052 c -0.27532,-1.02621 -1.273121,-1.40925 -1.754378,-0.40973 -0.895691,-0.44699 1.704569,-1.51162 1.925009,0.0241 0.361208,0.19121 0.4441,0.92912 -0.170631,0.38565 z m 2.697512,-10.52781 c 0.397139,-0.83911 -2.005253,-1.04089 -0.123205,-1.00518 1.533889,-0.1976 0.121665,2.97677 0.123205,1.00518 z m 0.811959,0.39034 c 0.115962,-0.43274 1.672413,-3.01801 0.248423,-1.46371 -0.960176,-0.0359 -0.650887,-2.88242 1.252285,-2.5214 1.056339,0.11984 1.769748,-1.00503 0.223679,-0.4293 -2.383803,0.79527 -0.137124,-1.24003 -0.18163,-1.82393 -0.581692,0.11253 -1.789907,2.18003 -1.296597,0.61025 0.133168,-0.78843 1.055376,-4.39247 0.03391,-1.86334 -0.485843,1.78269 -0.211139,4.55787 -1.751384,5.55376 -1.904756,1.06599 -1.972859,-2.03563 -2.088843,-3.5105 0.300759,-1.41571 -0.04662,-2.62203 -1.691983,-2.03975 -2.064841,0.0768 -3.616539,-1.40671 -4.730191,-2.66151 -1.281345,-0.14503 -3.272255,0.44478 -3.250469,-1.32907 -0.980263,-1.47131 0.265373,-1.10706 0.968561,-0.3275 -0.798589,-0.62644 -0.03854,-1.77605 1.144538,-1.24904 -0.02144,0.17661 3.386353,-0.0979 2.177408,0.39999 -1.117736,0.23728 -3.623943,0.92566 -0.960215,0.62497 1.804023,-1.17805 3.408655,0.32231 4.543611,1.66601 1.095347,0.82888 0.02578,0.59643 -0.744612,0.51065 -0.91494,-0.18648 -2.617878,-0.0782 -0.636141,0.25316 1.109715,-0.24495 2.478038,0.39757 2.990867,0.68844 -0.449971,-0.68001 -1.423201,-4.00206 -1.822912,-3.05929 0.848913,0.9688 0.702378,1.67228 -0.378654,0.51111 -1.209111,-0.64496 -2.39533,-2.83279 -3.264298,-2.89441 0.925817,0.98305 1.224629,1.41768 -0.285731,0.89825 -1.766939,-0.17132 -1.939742,-3.58871 0.316953,-2.04477 2.247093,0.72204 4.318969,1.97985 5.272152,4.04179 0.298423,-1.68374 0.03159,-3.42391 0.03866,-5.13288 -1.419653,0.73644 -3.196921,1.5308 -4.735935,0.76418 -1.338261,-1.00553 -3.076421,-2.97801 -0.939882,-4.18076 -0.979839,-2.67971 2.718826,-3.62561 4.285159,-1.84344 0.519901,0.24137 1.844186,2.10938 1.359058,0.62123 -0.163252,-1.41088 0.0888,-3.00858 -1.84226,-2.53444 -2.155453,-0.82635 -4.940608,-0.73479 -6.439753,-2.72132 -1.460645,-2.60523 2.039594,-2.99371 3.809071,-2.85757 1.399406,-0.3393 2.824507,-0.63596 4.272376,-0.55948 0,-0.95933 0,-1.91866 0,-2.87799 -1.566759,-0.21271 -3.598716,-0.46185 -4.180565,-2.18028 0.182268,-2.27232 3.287336,-0.32189 4.677619,-1.52195 1.355824,-2.81976 4.140044,0.26206 2.293133,2.16792 -0.918391,0.24832 -1.343161,2.86168 -0.643589,2.62288 1.307034,-1.08806 3.472709,-1.588 4.906137,-0.50176 1.363519,2.29263 -1.962494,3.62891 -3.790361,3.5705 -0.752779,0.0632 -1.761418,-0.10933 -1.410291,0.97065 -0.04492,1.06404 -0.15825,3.522 1.283153,1.75733 1.88772,-0.89358 5.365747,0.79667 3.558841,3.04395 -1.030113,1.23855 -2.788702,1.82846 -3.371387,0.33215 0.859446,-0.053 2.637983,-0.55236 0.818787,-1.17354 -0.923569,-1.05097 3.354737,-0.41951 1.038839,-1.08898 -1.03058,0.385 -1.381946,-0.14428 -1.41632,-0.50625 -0.951323,0.72532 -0.619356,0.56226 -0.341314,-0.21162 -0.871074,-0.14596 -1.788408,2.80279 -1.605596,0.895 -0.745546,1.04005 -0.794666,0.40631 -1.019452,-0.19577 -1.636506,0.5123 1.177325,1.86177 1.715907,2.30614 0.831621,0.92555 0.771354,1.05309 -0.454125,0.61556 0.990051,0.31086 -0.681575,3.38296 0.528126,4.32825 0.94002,-2.67038 4.324827,-1.23336 4.683814,1.08814 1.931725,1.07455 1.428107,3.05392 -0.392338,3.88602 -1.612499,-0.0669 -2.650479,0.92737 -4.365331,0.51103 0.196124,0.68559 -0.34571,3.85778 0.579881,2.88917 1.390193,-1.80539 4.549897,-0.98034 4.098407,1.531 0.158144,1.53975 3.055832,2.6227 1.168041,4.483 -1.143702,1.25029 -2.510897,3.11208 -4.255231,3.16351 z m 2.112925,-14.29355 c -0.68449,-0.25337 -1.631673,-0.49738 -2.160069,-0.87278 -1.060656,-0.13276 3.047413,-1.12406 0.711861,-1.26562 -0.981271,0.73314 -1.820371,0.75431 -0.835081,-0.37638 0.964794,-1.3517 -0.102543,-1.39954 -0.460909,-0.0546 -0.276246,0.62914 -1.295661,3.44333 -0.119317,1.95434 0.894417,0.19249 1.984765,1.36159 2.863515,0.61505 z m -6.56685,-4.3388 c -0.583407,-0.46382 -1.692416,-2.45489 -1.189747,-0.61831 -0.686597,-0.43046 -3.714073,-0.17307 -1.636109,0.13642 1.020042,-0.12275 2.096613,0.63172 0.447264,0.72162 -1.006626,-0.0438 -2.689102,0.15655 -0.719218,0.38657 1.404557,-0.19539 2.820411,-0.65455 3.934415,0.34063 -0.190762,-0.39102 -0.531133,-0.67097 -0.836605,-0.96693 z m 0.613725,-6.64667 c -0.41614,-1.15162 -2.344227,-3.53273 -2.955424,-3.28871 1.021958,0.50768 2.342617,2.44509 0.246403,1.33679 -1.077221,-0.27113 -4.583514,-0.9254 -4.327872,-0.22079 1.949492,0.26006 4.29334,0.0976 5.838561,1.42108 -1.14823,0.33732 -3.585632,-0.49771 -3.882134,-0.14195 1.559977,0.66037 3.762352,0.2856 5.080466,0.89358 z m 2.1302,-4.63848 c 0.34642,-0.96703 3.794998,0.4252 1.970842,-0.51563 -2.244663,-0.45145 3.027401,-0.72435 0.367462,-1.02738 -1.378863,0.66998 -1.32325,-0.406 -2.418383,1.03804 -0.544925,0.37668 -1.284132,1.95672 0.08008,0.50497 z m -1.733325,-3.95522 c -0.617418,-0.16257 -3.072918,-2.21615 -1.548119,-0.58532 -0.951358,0.33761 -3.355657,-1.07727 -1.264496,0.30756 0.71857,0.0951 2.51024,0.79568 2.812615,0.27776 z m 1.071835,-1.44671 c 1.012818,-1.31612 -0.510139,-1.37665 -0.402304,-0.002 -0.589785,1.22359 0.160067,0.89731 0.402346,0.002 z m -10.99371,35.03318 c -1.05215,-0.10403 -2.361061,-2.70485 -0.396875,-2.55815 -1.935442,0.29824 -1.104374,-2.4091 -0.269729,-3.27037 1.955854,-1.96373 4.427627,0.33505 5.711028,1.92077 -0.201684,0.7274 -1.949207,-0.0476 -0.490405,1.07245 0.435894,0.72073 -2.437976,-0.10298 -3.14491,-0.17548 -2.308172,-0.69035 0.544581,1.13706 1.533542,0.67001 0.950972,-0.0733 2.191258,0.74651 0.461932,0.77769 -1.433493,0.46001 -4.086523,-0.6526 -4.28269,0.15475 0.439805,0.71149 2.941776,1.71729 0.908982,1.52542 l -0.03087,-0.11713 z m 8.73125,-0.28094 c -0.425171,-0.65322 -3.371249,-2.58224 -1.743526,-2.72062 0.911646,-0.13101 3.567118,3.3407 1.743526,2.72062 z"
         id="path4847" /><path
         style="fill:#5c827b;stroke-width:0.264583"
         d="m 70.920832,209.12381 c -1.483999,-0.64672 -0.0074,-3.94399 -2.449965,-2.42009 -2.170359,1.40572 -3.805577,-0.50934 -5.496048,-1.41631 -1.981335,0.0159 -4.651346,0.84505 -5.841905,-1.3103 -1.258936,-1.9922 0.0968,-4.4529 1.533913,-5.94278 1.468936,-1.37068 5.6398,-0.43824 4.714865,1.89404 -1.161598,1.20167 -3.152086,-0.71259 -1.735763,-1.9043 -0.404055,-1.0089 -0.970225,1.32084 -1.072119,-0.0386 -1.210128,0.2354 -1.727933,0.41392 -0.60538,0.93349 -0.849259,0.56645 2.272394,0.87884 1.556978,2.06645 -1.073398,-0.65421 -2.356632,-1.27526 -3.172284,-0.30432 -0.385966,-0.0819 -1.198768,1.79009 -0.233014,1.00475 0.425327,0.092 3.193962,-0.78641 2.138992,0.1965 -0.647335,0.75863 -0.725221,1.10301 -0.723663,0.026 -0.294951,1.00582 -0.874343,1.0249 -1.586654,0.38016 -0.222778,1.78028 3.095335,0.6897 3.608038,1.95883 1.250239,-2.16059 2.036288,2.0288 3.216171,-0.07 0.776648,-0.40103 0.09457,0.97496 1.120748,0.55649 0.761131,0.71115 1.605814,-0.3447 0.164396,-0.28211 -0.422711,-1.31784 2.515515,0.94212 2.940342,1.0587 -0.275416,-0.80818 -1.250112,-1.94621 0.205688,-2.51645 0.599704,0.95835 0.774832,0.77539 0.821533,-0.004 1.060511,0.42884 -0.629188,-1.69711 -0.353857,-2.55093 -0.179132,-1.17998 -0.264579,-2.37096 -0.380638,-3.55808 -1.38369,0.0234 -3.455853,-0.0298 -3.98241,-1.43879 1.330801,-1.95425 -0.0066,-1.06376 -0.737971,-0.70736 0.280656,-0.92191 0.604112,-0.76133 0.0864,-1.08973 0.493994,-1.91141 -2.146961,-0.0191 -3.345125,-0.71102 -2.492979,0.50222 -0.781901,-3.49906 0.403297,-1.14618 0.477433,1.2024 2.794682,0.95183 1.991787,-0.16306 0.769339,0.93512 1.703423,0.12286 1.56346,1.44613 1.545599,1.46395 2.621474,1.47252 4.206791,2.34684 2.234792,0.34291 -1.878442,-0.65552 -0.223659,-1.81606 0.668502,-0.63292 -1.227434,0.70105 -0.53975,-0.7276 0.363955,-0.42856 1.89752,-2.06482 1.828498,-0.29883 0.224734,1.44509 0.7657,3.56006 -0.492657,3.93989 -0.343679,0.82562 0.141959,2.98523 0.312186,1.0457 0.521988,-3.16347 0.543363,3.73894 1.125747,1.10087 0.0082,-1.54316 1.935359,-2.85984 1.810994,-0.55092 -0.213164,0.97916 1.093794,4.14842 0.561708,1.46647 -0.4097,-1.2365 -0.260907,-2.51976 0.599583,-3.33461 -1.17505,0.15024 -0.662001,-1.00408 0.378058,-1.02211 1.119379,-1.70683 0.05709,-4.84053 2.562178,-5.65063 2.257891,0.33262 2.330389,3.35979 4.295648,4.29076 0.619779,0.75091 1.765907,1.8165 1.510336,2.82108 -0.8955,2.23286 -2.653827,4.34191 -5.187711,4.62331 -1.495663,1.08152 -2.02969,4.34812 -4.73687,3.7147 -1.725184,-1.0069 -2.230758,0.22981 -1.525799,1.72888 0.113959,0.63264 0.582931,3.19331 -0.835089,2.37485 z m 2.438085,-7.08319 c 0.580398,-0.54395 3.9391,-1.30788 1.429677,-1.07388 0.944668,-1.66531 2.196281,-3.75993 4.46703,-3.08526 1.042372,0.0158 2.947865,-1.50384 0.755128,-0.55074 -0.556919,0.43975 -3.526893,0.46192 -2.366711,-0.6587 0.506008,-0.82105 1.996434,-2.53491 0.332739,-1.90798 -0.14393,-0.6461 -0.752224,-4.61367 -0.825078,-2.19051 0.538169,1.91492 0.685529,3.88621 -0.829158,5.43219 -1.228317,1.80987 -2.643809,3.66088 -4.69229,4.57314 0.44994,0.32489 1.278624,-0.28995 1.728663,-0.53826 z m -1.379751,-1.53774 c -0.297514,-1.04649 -2.4138,-1.86561 -0.826016,-0.49027 0.700499,-0.27928 0.565912,1.54134 0.826016,0.49027 z m 2.645833,-2.85619 c 0.89576,0.0802 0.885289,-0.66627 -0.07462,-0.83362 -0.293247,0.14323 -0.486992,1.81053 0.07462,0.83362 z m -7.123922,6.00532 c -0.589491,-0.64828 1.13746,-0.28577 0.0608,-1.17635 1.224021,-0.16241 0.777331,2.13328 -0.0608,1.17635 z m -1.014114,-11.07835 c -0.348013,-0.84223 -1.453471,-1.26465 -1.50815,-1.69552 0.848928,-0.70517 3.165352,2.62935 1.50815,1.69552 z m -4.440155,-0.75253 c -0.179919,-1.82494 2.605451,-0.77422 0.884081,0.42674 -0.342597,0.29298 -0.826165,-0.0196 -0.884081,-0.42674 z M 73.20339,191.5201 c -0.368878,-1.02241 0.783703,-1.31671 -0.821183,-1.09413 -0.09286,-0.72487 -1.039602,-0.73285 0.04799,-1.75808 0.775772,-0.14493 3.766943,-0.81824 1.402193,-0.89908 -0.815616,0.71673 -1.911361,0.1903 -0.502895,-0.8002 1.277671,-1.25168 -0.342963,-0.93236 -0.768545,0.0557 -0.692689,-1.00548 1.284294,-3.41084 0.322103,-3.51177 -1.171132,1.63135 -0.208828,3.95389 -1.588648,5.25495 0.510659,1.71739 -0.968351,1.85715 -1.288225,0.52905 -2.137319,1.20056 -0.794698,-2.9741 -1.462533,-4.15548 -0.02545,-1.13633 -2.008925,0.3257 -2.925213,-0.46307 -2.446074,0.27168 -2.397085,-3.42749 -4.850735,-2.36109 -1.505024,0.35713 -2.223587,-1.05522 -0.850223,-1.88572 -0.08934,-1.78588 3.520271,-0.21599 0.885389,-0.14277 0.411895,1.5105 3.20001,-1.48585 4.247708,0.18325 1.214559,0.66011 2.37083,2.79309 3.254905,2.97933 -0.291727,-0.89036 -1.446831,-3.76744 -1.890261,-3.15118 1.184191,1.27494 0.640844,1.65539 -0.463938,0.44838 -1.131948,-0.5828 -2.231377,-2.72904 -3.050736,-2.71634 0.822514,0.91162 1.321851,1.43287 -0.191813,0.86744 -2.008525,-0.14554 -1.695941,-3.66678 0.416062,-1.87885 1.689772,0.85996 3.839838,1.31735 4.536129,3.34077 1.568298,2.47667 0.262147,-1.82078 0.614081,-2.78219 -0.166162,-0.47512 0.364312,-2.09475 -0.32534,-1.70982 -1.596256,0.92196 -3.969813,1.62098 -5.298316,-0.11797 -1.503935,-0.90339 -1.426639,-2.73547 0.213011,-3.34269 -1.654425,-2.60198 2.527369,-3.7215 3.969867,-1.89406 0.525558,0.23822 1.832469,2.14544 1.416833,0.63713 0.157964,-1.84731 -0.553686,-2.91305 -2.513794,-2.66357 -1.245522,0.008 -1.637045,-1.47172 -2.474042,-0.94206 -0.1298,-1.65326 -0.553243,0.95724 -1.72618,-0.36968 -2.550198,-0.5248 -2.346266,-4.71029 0.550777,-4.01516 2.107688,-0.12013 4.148201,-0.72825 6.177913,-0.40387 -0.351009,0.66615 -2.271095,1.04948 -0.478825,0.85162 1.664627,-0.79309 -0.253171,-2.05009 0.223512,-3.4248 0.239649,-0.99852 -1.187592,-0.62787 -1.789987,-0.95046 -1.991603,0.18799 -3.642125,-3.53884 -0.770829,-2.68987 1.8687,0.0189 3.175185,-0.67352 4.492547,-1.84125 2.488096,0.71871 0.613952,3.55485 -0.07107,4.92495 -0.193731,1.19621 0.0788,1.47477 0.977189,0.57339 1.504625,-0.92203 4.782883,-1.05328 4.593405,1.44769 -0.762483,1.50544 -2.770224,2.0915 -4.424436,2.12841 -0.947244,-0.11006 -1.394223,0.23561 -1.154739,1.20663 0.919713,1.61682 -2.77988,0.7436 -0.778458,1.62861 1.887397,-0.17076 -1.093492,1.26618 -1.178456,-0.45651 -0.546052,-0.68973 -2.335609,-2.8126 -2.53417,-2.30665 0.112739,0.45267 2.241922,1.99776 1.189961,1.61396 -1.759084,-0.63906 -3.677629,-0.95323 -5.542194,-0.76299 1.085286,0.73033 4.570616,0.25303 6.075448,1.70547 1.357902,1.45132 1.652696,3.58274 3.061367,4.83216 0.376013,1.7908 -0.594968,3.92798 -0.273962,5.11475 -0.442225,1.29898 0.902585,0.70018 1.043036,1.81167 0.854968,0.56029 2.939274,0.27125 3.295901,-0.43782 -0.974237,0.16799 -0.906598,-0.5153 -1.491831,-0.002 -0.32227,-0.80605 -1.721568,-0.38781 -0.114633,-0.99199 0.778476,-0.006 2.262028,-0.71885 0.748056,-0.90729 -0.691587,-0.70482 -0.158932,-2.44687 -1.528399,-0.95713 -0.943921,0.4657 -1.602533,-0.94916 -0.4535,-0.79744 1.758549,-2.06952 3.418134,0.78027 4.179021,2.32162 2.276326,0.9442 -0.0078,4.05591 -1.648136,3.35174 0.676393,-2.13422 -2.433786,2.14223 -1.304841,-0.36857 -0.910328,-0.62384 -0.295457,2.22099 -1.831996,0.67153 -1.193477,-0.71727 0.117051,1.97059 -0.158949,2.72912 0.03395,1.99361 2.099517,-1.69935 3.401367,-0.39138 1.649495,1.08547 0.595733,3.70836 2.74328,4.47382 0.776246,1.94473 -1.482304,3.55452 -2.715555,4.76754 -0.528566,0.30104 -0.718606,0.83908 -0.841464,-0.10579 z m -6.912766,-8.94153 c -0.898151,-0.34737 -3.204061,-0.19239 -1.128613,0.17229 0.399604,0.0554 2.999885,0.14349 1.589157,-0.077 -0.153509,-0.0318 -0.307082,-0.0635 -0.460544,-0.0953 z m 2.248958,-7.90431 c -0.851948,-0.44108 -1.893107,-2.6575 -2.322153,-2.3086 1.452275,1.88954 -3.134097,-0.62445 -2.148892,0.89761 0.87402,-0.14757 3.428609,0.59288 1.143652,0.66001 -1.044244,-0.30727 -3.03456,0.41299 -0.791316,0.42048 1.503261,-0.0563 2.941541,-0.72234 4.055732,0.52256 l 0.06298,-0.1921 z m -1.724554,-7.93296 c -0.607589,-0.47439 -2.94204,-0.4458 -3.831696,-0.86434 0.721721,1.10195 2.657781,1.1578 3.831696,0.86434 z m 1.724554,-1.09872 c 0.754184,-0.0707 1.591291,-0.24248 0.235937,-0.60968 -1.100262,-0.21516 -0.255853,-1.13294 -1.448086,-0.63156 0.532052,-0.0887 0.500761,2.3345 1.212149,1.24124 z m 1.688825,-2.73111 c -0.116466,-1.72586 4.100436,0.17046 2.132018,-0.9548 -1.876204,-0.43585 2.660421,-0.6582 0.602894,-1.01111 -1.588359,-0.40262 -2.669663,0.62101 -3.445927,2.24123 0.152047,0.68567 0.744342,0.13839 0.711015,-0.27532 z m -1.556533,-4.39481 c -0.617418,-0.16257 -3.072918,-2.21615 -1.548119,-0.58532 -0.722145,0.45816 -3.383585,-1.12285 -1.572069,0.15574 0.775653,0.23753 2.669308,0.98863 3.120188,0.42958 z m 1.176713,-1.52135 c 1.009919,-1.57763 -0.920569,-1.52142 -0.660437,-0.0517 -0.124988,1.28979 0.453965,1.20711 0.660437,0.0517 z m -3.596283,33.56004 c -1.461169,-1.81588 2.80099,0.21198 0.746274,0.37527 -0.270874,-0.0722 -0.527514,-0.19949 -0.746274,-0.37527 z m -6.57671,-0.33239 c -0.644844,-0.38582 1.662173,0.42528 0.5283,-0.60927 1.003375,0.94058 1.674144,-0.20024 2.844807,0.57598 -0.92932,0.53834 -2.370568,0.2731 -3.373107,0.0333 z m 2.381697,-0.776 c -0.834211,0.14967 -3.561225,-1.38547 -2.772645,-0.0397 -2.714152,1.09583 -2.526208,-2.28904 -0.876981,-3.34921 1.874279,-1.51556 4.150919,0.46317 5.023575,2.16403 -0.757525,0.21058 -0.903315,1.03939 0.213551,1.25085 0.309336,0.56557 -1.305859,-0.15089 -1.5875,-0.026 z m 0.140959,-9.95635 c -0.757863,-0.72499 2.589868,0.16428 0.501504,0.41594 l -0.21739,-0.12088 z m 9.259411,-1.38445 c -0.805172,-1.29436 1.966009,0.80148 0,-2e-5 z m 1.052301,-7.34321 c 0.907243,-1.10898 -0.197748,-2.57234 1.465282,-2.94963 -0.305123,-0.62208 -1.984562,-1.78935 -0.382683,-1.23159 2.842479,0.53028 1.240447,4.19161 -1.044943,4.24007 z"
         id="path4845" /><path
         style="fill:#4c756f;stroke-width:0.264583"
         d="m 70.854866,209.13432 c -1.203197,-0.74348 -0.19585,-3.8475 -2.455054,-2.41869 -2.183753,1.30186 -3.79724,-0.68423 -5.583588,-1.41643 -1.838068,-0.16599 -4.371543,0.82437 -5.541921,-1.11112 -1.468177,-2.17263 0.02022,-5.02972 1.833763,-6.48219 2.202625,-0.24322 -1.089171,0.6702 -0.731502,1.69549 -0.863426,0.69451 -0.673422,2.48752 -1.143345,3.63837 0.829618,0.54859 3.478882,0.1578 3.577733,1.091 -0.611983,0.56618 -1.183074,-0.58907 -0.974163,0.69718 0.547157,1.00765 3.161698,-2.94787 3.699607,-0.1199 0.702024,0.73411 1.650738,-0.91675 1.967518,0.31588 -1.519578,-0.79877 -1.046209,1.78382 -0.556703,0.81952 0.240487,-0.60448 1.952426,0.37205 1.505664,-0.81468 1.156475,-0.70486 3.317715,1.66121 2.296747,-0.67712 1.228582,-0.3005 1.139524,-1.99646 2.246727,-0.89309 -1.510597,-1.82707 -1.462125,-4.3231 -1.705138,-6.57781 -1.34763,0.0309 -3.046473,0.0272 -3.807736,-1.28002 -0.0512,-2.04193 1.624014,-1.63003 2.622646,-0.6547 0.540565,0.48149 2.167483,0.16014 1.951023,1.13578 -0.05733,1.04859 -0.321028,2.89305 0.663034,2.34414 0.283442,0.64953 -0.932152,1.34093 0.547917,1.70328 0.368884,1.58937 1.422941,-0.4896 0.227358,-0.50472 -0.478279,-1.22333 1.465888,-4.32894 1.801721,-1.76174 -0.302,0.94772 0.889948,4.54926 0.607094,1.72923 0.02275,-0.67155 -0.745995,-2.00891 0.473946,-1.65325 1.909904,0.0522 -0.228722,-1.32565 1.286487,-1.78583 -1.696433,0.77894 -1.432198,-0.74936 -0.367954,-1.65872 0.240395,-1.71676 0.143348,-4.93213 2.525604,-4.85293 1.92125,0.8447 2.11525,3.44383 4.066335,4.36978 1.944328,1.48852 1.040986,4.08323 -0.420158,5.5223 -1.22999,1.875 -4.360887,1.06245 -4.821447,3.53172 -0.846881,2.21602 -3.365953,2.10943 -5.175138,1.70409 -1.264635,0.58884 -1.791688,1.31993 -0.310713,1.55139 1.070598,0.16271 1.235824,3.70814 -0.306364,2.81379 z m 2.721055,-7.23258 c 0.72038,-0.53997 3.55026,-1.05165 1.213593,-1.02816 1.088455,-1.52804 2.164337,-3.64958 4.411628,-2.99668 0.910782,0.17517 3.438564,-1.35732 1.124421,-0.68564 -0.651632,0.48217 -3.579367,0.72001 -2.723594,-0.41898 0.405627,-0.56065 2.107905,-3.0298 0.641938,-1.86425 -1.148307,-0.85318 0.9543,-2.45223 -0.687496,-2.66162 -0.505624,-2.07458 -0.458945,1.43426 -0.0594,2.21855 0.229143,0.74159 0.35408,1.46471 -0.26162,2.05654 -1.45764,2.38288 -3.090136,4.91871 -5.72379,6.0883 0.118359,0.65766 1.681529,-0.51963 2.064325,-0.70806 z m -13.767589,0.047 c -0.813082,-0.0371 -1.620817,-0.42589 -0.140535,-0.49175 0.726057,-0.17578 0.691008,0.92932 0.140535,0.49175 z m 1.027002,-1.29716 c 0.251006,-0.90408 -3.250044,-0.62404 -0.927257,-1.04573 0.926991,-0.58156 2.09413,1.71266 0.927257,1.04573 z m 0.950211,-0.6069 c -0.01826,-0.87179 1.213018,-1.25116 1.442352,-1.65642 1.407936,1.15637 -0.702778,1.33019 -1.244844,1.86911 z m -3.116548,-0.95136 c -0.101017,-1.47183 1.880089,0.73993 0,0 z m 2.726835,-0.35997 c 0.731022,-0.0452 0.8467,-1.9544 0.967408,-0.37809 -0.0666,0.25951 -0.885435,1.03358 -0.967408,0.37809 z m 8.73125,-0.80205 c 0.625965,-0.54835 0.924133,-1.81607 0.671083,-0.20331 -0.0326,0.24782 -0.581053,0.54684 -0.671083,0.20331 z m 0.529167,-2.60814 c -0.801217,0.18682 -2.629663,-1.39077 -1.106861,-1.2854 0.203543,0.57205 2.028941,1.28891 1.106861,1.2854 z m -0.264583,-1.45629 c -0.453916,-0.47716 -2.147002,-1.46619 -0.523249,-1.67338 0.214264,0.58647 0.194994,0.81961 0.712991,0.44618 0.130581,0.19179 0.03534,2.3616 -0.189742,1.2272 z m -9.472282,-0.96457 c -2.218757,0.0609 -0.114306,-3.41166 0.858028,-0.99928 0.605793,0.86574 0.08605,1.3561 -0.858028,0.99928 z m 1.182005,-0.95992 c -0.860653,-2.16346 2.62586,-0.11355 1.41111,-0.0882 -0.288742,-0.51197 -0.697316,0.89746 -1.41111,0.0882 z m 11.100678,-0.42732 c -0.359028,-1.0303 0.780579,-1.30598 -0.831019,-1.08994 0.206919,-0.62849 -1.13066,-0.96474 0.03659,-1.37351 0.46883,-0.64814 2.52591,-0.633 2.562972,-1.42291 -0.889695,0.31274 -3.264871,0.98114 -1.679796,-0.61598 1.313743,-1.25142 -0.275424,-1.03894 -0.720716,0.0328 -0.478783,-1.01168 1.127102,-3.27956 0.333884,-3.53439 -1.135887,1.25981 -0.29996,3.59976 -1.235695,4.55188 -1.179708,-1.00219 -0.111307,0.63072 -1.276625,0.32906 1.488492,0.0676 0.943645,2.22992 -0.123543,1.34113 0.703947,-1.93491 -2.080641,1.33958 -1.476043,-1.12037 -0.748973,-1.17749 1.730113,-2.72065 -0.05329,-2.68934 0.188552,-2.44696 -2.637864,-0.43056 -4.069817,-1.49563 -1.750357,-0.3546 -1.631253,-2.97506 -3.744117,-2.11954 -1.487317,0.37643 -2.607037,-0.76705 -0.994638,-1.72082 0.191533,-1.28614 2.980911,-0.58278 0.827308,-0.29119 0.682778,1.42204 3.733126,-1.57417 4.818938,0.61305 0.874879,0.57107 2.081756,2.18697 0.06682,1.54326 -0.759855,-0.34913 -2.528905,-0.0807 -0.749986,0.3283 1.176915,-0.20484 2.809793,0.48774 3.466237,0.67408 -0.727118,-1.18909 -0.819656,-2.95845 -2.109828,-3.68674 -0.12614,0.52284 1.797892,2.88753 0.533691,1.67943 -1.369405,-1.11633 -2.539162,-2.45468 -3.774037,-3.69347 -0.487915,0.43536 1.804862,1.93614 -0.172903,1.17329 -1.674922,-0.0428 -2.385659,-3.48233 0.01012,-2.01923 1.685409,0.89754 3.952607,1.25412 4.672087,3.29672 0.852132,1.90287 1.201312,0.38016 0.834129,-0.78744 -0.09927,-1.23657 -0.07066,-2.4775 -0.07778,-3.71665 -1.655834,0.97446 -4.078936,1.82686 -5.555388,0.10279 -1.468272,-0.8979 -1.645188,-2.67586 0.09444,-3.35011 -1.544886,-2.76492 2.405815,-3.58868 3.992384,-1.93285 0.68239,0.71401 1.920564,1.7317 1.415418,-0.0731 0.523171,-2.96454 -3.278987,-1.13895 -4.211509,-3.05693 -1.288293,0.2776 -0.6921,-1.64691 0.418352,-0.63985 1.727595,0.17448 3.559218,-0.43635 3.933112,1.87497 0.794071,1.96957 2.368327,3.31485 1.685793,5.69065 -1.179783,1.70738 -0.08881,3.41332 1.317869,4.32661 -0.37239,0.7955 0.988359,2.55913 -0.633709,1.27358 -0.976812,0.0684 0.08467,2.9283 -0.128968,3.99996 1.148393,-2.22395 4.669706,-2.10514 4.551371,0.76661 -0.03521,1.62233 3.205177,2.42983 1.297788,4.34036 -0.812255,1.22659 -1.900843,2.22991 -3.092547,3.07832 -0.05245,-0.19562 -0.104899,-0.39123 -0.157349,-0.58685 z m -1.651114,-5.09858 c 0.169165,-0.88433 -2.768255,-1.0192 -0.760981,-0.25616 0.384416,0.27296 0.241243,1.13093 0.760988,0.25616 z m -3.011371,-11.75229 c -0.873132,-0.81464 -1.563901,-1.80556 -2.353788,-2.62328 1.334134,1.87124 -3.804613,0.0234 -1.826977,1.27053 0.769712,-0.18066 2.924433,0.55035 0.942789,0.54243 -0.980373,-0.24885 -3.159914,0.51611 -0.883682,0.48926 1.496921,-0.0887 2.914515,-0.63163 4.059344,0.52108 z M 66.389165,190.614 c -0.516696,-0.34903 0.719135,-0.43079 0.857368,-0.42326 0.551173,0.71643 -0.49927,1.23983 -0.857368,0.42326 z m -4.993333,-0.50794 c 0.347307,-0.92496 2.536392,0.50848 0.624502,0.42533 -0.214539,-0.0273 -0.616092,-0.12756 -0.624502,-0.42533 z m 0.396875,-0.75383 c -1.217936,-0.0546 -2.611788,-1.11847 -3.225212,0.0898 -2.647547,0.0937 -0.941609,-3.66718 0.798444,-3.86149 1.572016,-0.57619 4.32794,1.87348 3.732334,2.88864 -1.339303,0.45346 2.007379,1.59233 -0.257896,1.07118 -0.349064,-0.0636 -0.698312,-0.12614 -1.04767,-0.18808 z m 10.633647,-10.04879 c -0.895882,-1.09121 1.155545,0.3302 0.289949,-1.04932 1.298769,0.72603 2.196454,-0.63038 0.689152,-0.58933 0.705052,-0.64635 0.490493,-0.44459 0.02451,-1.14272 1.679278,-0.22451 -1.783949,-1.72136 -0.463832,-2.31268 -1.126327,-0.59063 -1.079884,-0.17023 -1.523602,0.49115 -1.571094,-0.17093 2.102589,-2.46353 2.777556,-0.55568 0.456287,1.29836 1.322221,2.3587 2.39882,3.22721 0.255689,0.68295 -0.959533,1.84907 -1.532356,2.29922 -0.733059,-2.16891 -1.719256,0.64431 -2.660202,-0.36785 z m 3.152994,-0.56779 c 7.29e-4,-0.95025 -1.39105,-0.68967 -0.506948,-0.1147 -0.497218,0.25296 0.87581,0.96508 0.506948,0.1147 z m -2.661023,-8.60269 c 0.455154,-0.82634 -0.417448,-2.11558 1.064016,-2.2018 -0.162104,-0.59693 -1.718636,-1.92996 -0.243547,-1.31252 2.586072,0.73395 1.111682,3.80309 -0.921589,4.18275 -0.44273,0.23655 0.148467,-0.68569 0.10112,-0.66843 z M 61.206899,167.0552 c -2.625471,-0.91151 -1.403101,-5.07943 1.283091,-3.75085 1.80552,-0.22279 3.911829,-1.09219 5.373617,-0.32066 -0.73256,0.31591 -1.359317,0.99198 -0.03448,0.8181 0.931405,-1.05709 0.287135,0.70043 -0.55331,0.39758 0.14445,1.89239 -3.078478,-2.20363 -1.44117,0.20098 0.25568,0.37842 1.904604,1.6832 0.686376,1.0522 -1.834346,-0.70705 -3.912196,-0.90942 -5.849036,-0.75887 1.723102,0.68169 3.890361,0.3234 5.641048,1.22384 1.339727,1.29339 -3.355371,-0.19315 -3.266906,0.0432 0.03254,1.1599 -0.733679,2.04371 -1.839227,1.09449 z m 8.391017,-2.35167 c -0.215047,-0.67904 -2.026006,0.0635 -0.562471,-0.8093 1.063606,-0.56192 0.870952,2.13972 0.562471,0.8093 z m 0.46302,-1.19682 c 0.08742,-2.18275 2.186365,-0.81199 3.241146,-1.28546 -0.758024,-0.2562 -2.311186,-0.57664 -0.513551,-0.79375 2.37467,-0.74263 -2.029813,-0.004 -0.833094,-0.73886 -1.153909,-0.19618 -1.96523,2.3062 -2.446403,1.08249 -0.557667,0.0322 -1.016811,-0.79926 -1.022889,0.4281 -0.5234,-1.5104 -0.454347,-3.17485 -2.609705,-3.08536 -1.915019,0.0704 -2.950757,-3.56951 -0.446713,-2.58315 1.607181,-0.2776 3.148837,0.15184 3.958835,-1.44803 2.354569,-1.27571 2.174278,3.04494 0.622444,3.8831 -0.131029,0.65681 -0.52672,2.70132 0.547652,1.47296 1.334824,-1.13992 5.1723,-1.33066 4.813268,1.17764 -0.419802,1.01964 -2.237168,2.35249 -2.918169,1.50361 0.08976,0.71989 -2.647248,0.9273 -2.392821,0.38671 z m -1.25677,-4.99005 c -1.105863,-0.50867 -2.593246,-1.8068 -2.256232,-0.53321 -0.725429,-0.18341 -2.54818,-1.09829 -1.12503,0.10984 0.88353,0.30721 2.657248,0.93849 3.381262,0.42337 z m 1.032449,-1.36239 c 1.070249,-1.49748 -0.901554,-1.84269 -0.6476,-0.20997 -0.06426,0.89495 0.262438,1.55495 0.6476,0.20997 z"
         id="path4843" /><path
         style="fill:#33625b;stroke-width:0.264583"
         d="m 71.185416,209.11514 c -1.964853,-0.47695 -0.866457,-4.63628 0.55056,-2.04621 0.120564,0.55929 0.511409,2.21816 -0.55056,2.04621 z m -6.019271,-2.22579 c -1.526872,-0.68762 1.078076,-1.27161 1.053155,-0.2405 1.60341,0.40827 0.698131,-2.67856 2.33582,-0.97584 2.702931,0.28745 -1.582193,1.78251 -2.614942,1.37755 -0.262543,-0.0177 -0.533323,-0.0455 -0.774033,-0.16121 z m -1.521354,-1.43419 c -0.958866,-0.98329 -3.431244,0.62214 -3.716165,-0.28882 1.434341,-0.31807 2.925136,-2.86315 3.473719,-0.44906 0.372692,0.40159 1.291098,1.61227 0.242444,0.73793 z m -5.96804,-0.95996 c -0.873306,-0.72614 -0.959017,-2.18308 -0.07171,-0.57305 0.274422,1.09511 1.740734,0.91034 1.784164,0.99144 -0.355213,0.95027 -1.355743,-0.003 -1.712455,-0.41839 z m 12.63069,0.0518 c -1.104176,-0.93787 1.919406,-0.90151 0.202686,-1.94779 -0.952417,-1.53943 -0.956388,-3.31543 -1.163361,-5.09518 0.137446,-1.23095 -1.528937,-0.26357 -2.186242,-0.77185 -2.039213,0.26166 -1.892282,-3.18821 -0.170069,-2.59878 0.760778,1.46235 3.601097,0.66729 2.877106,3.06516 -0.359118,1.83309 1.413199,2.42976 1.585244,3.77643 -0.509946,1.74068 1.722487,-1.39042 0.131348,-1.60857 -0.629194,-2.39081 2.400502,-3.03867 1.764256,-0.25676 1.30994,2.06262 -1.002769,2.73263 -1.891651,3.83162 1.385026,-0.55603 3.22997,-1.55262 4.311654,-2.01348 -1.562109,-0.25781 0.940086,-2.69025 1.633472,-3.06127 1.347093,0.46117 3.238403,0.10965 4.07031,-0.96443 -1.131829,0.21308 -3.596523,1.30263 -4.075243,0.17377 0.45369,-0.86355 1.618257,-1.8543 1.341358,-2.7397 -0.736141,1.51034 -1.360951,-0.96714 -0.303308,-1.09288 0.203832,-1.23624 -0.398916,-0.86106 -0.884768,-0.88072 -0.252962,-2.20415 -0.699043,0.23428 -0.412396,1.14568 -0.142188,0.88967 -2.299701,0.29455 -0.796459,0.82154 2.568813,-0.67448 0.488622,3.25487 -0.37061,4.11964 -0.478459,1.21242 -2.444985,3.03214 -2.133429,0.47551 -0.08211,-1.44738 2.163999,-0.72397 1.942808,-2.5063 1.441718,-1.8788 -1.889715,0.94457 -0.332734,-0.83458 0.845671,-0.59451 -0.244208,-2.00654 0.249929,-2.39239 -0.560109,-1.42706 0.580216,-3.03287 1.800807,-3.79392 1.833419,0.80719 2.205906,3.30757 3.990862,4.25343 2.111971,1.19089 1.623728,4.06208 0.20495,5.59723 -1.081165,2.09858 -4.237977,1.25378 -4.952292,3.51406 -0.604641,2.01817 -2.790052,2.66328 -4.6292,2.00928 -0.637181,-0.17441 -1.30325,0.39568 -1.805028,-0.22475 z m -13.409525,-3.3827 c -0.05943,-1.15932 2.258223,-3.40881 0.991015,-1.17418 -0.83109,0.35496 0.72259,1.95379 -0.991015,1.17418 z m 1.650891,-2.56509 c -0.641016,-1.27387 2.803683,-1.01623 0.694566,-0.39503 -0.76813,-0.0975 0.152417,1.4105 -0.694566,0.39503 z m 1.534811,-5.94466 c -0.350725,-0.80846 0.330934,-2.43012 1.44884,-1.14748 0.4615,0.94246 0.986534,1.52662 -0.580522,1.33865 -0.293762,-0.0262 -0.603085,-0.0469 -0.868318,-0.19117 z m 1.993019,-0.97765 c -0.03896,-1.80026 2.511924,-0.24193 0.537846,0.42451 l -0.308671,-0.0982 -0.229175,-0.32633 z m 11.12543,-0.16184 c -0.465541,-0.95949 2.289615,-2.67552 -0.134387,-2.37215 0.568447,0.99943 -1.350809,1.92696 -0.677229,0.40024 -1.062445,-0.40894 1.636119,-1.54694 2.510728,-0.75804 0.855144,2.23216 0.130341,-1.89711 -0.282114,-2.25997 -1.907366,-0.41575 1.639118,-1.18309 1.976487,0.12552 1.08111,1.93265 -1.205655,3.68074 -2.485047,4.87842 -0.480822,0.28087 -0.842486,0.98192 -0.908438,-0.014 z m -11.806235,-1.24838 c 0.606732,-0.75507 2.346949,0.16432 0.645843,0.26459 -0.144111,-0.0547 -0.591698,0.003 -0.645843,-0.26459 z m 9.08952,-0.65626 c 0.436548,-1.76909 1.635915,0.60062 -0.0251,0.32745 l -0.03073,-0.12132 z m -1.681186,-1.3188 c -0.495082,-1.69499 1.669271,-2.66655 2.540504,-1.55866 0.937107,-1.67315 1.108135,2.5546 -0.26195,1.0665 -0.655972,0.4808 -2.375967,3.22247 -2.273154,0.78222 l -0.0054,-0.29045 z m -11.519985,0.89956 c -0.547184,-2.03674 1.667421,-4.60019 3.744754,-3.28094 1.089611,0.71792 3.306428,2.12413 1.689814,3.02847 -1.116251,1.2724 -3.353235,-1.01716 -4.595584,0.52196 -0.290509,0.0176 -0.654446,-0.006 -0.838984,-0.26949 z m 15.480847,-1.5556 c 1.925894,-2.59352 -0.206868,2.09353 0,0 z m 0.309306,-1.88896 c 1.024658,-0.68122 -1.080232,-0.11855 -0.08585,-1.39308 0.450164,-2.41854 -0.724435,1.16227 -1.397889,1.41523 -1.140595,-0.27118 1.505285,-1.66683 -0.514315,-0.9591 -0.886057,0.66232 -2.786815,-0.53812 -4.096723,-0.1024 -1.721677,0.1475 -4.198089,-0.70482 -4.169941,-2.62353 -1.130139,0.0646 -5.213659,0.67261 -3.001279,-1.34177 0.676621,-1.28715 2.184259,1.22939 2.977407,-0.37106 1.247993,-1.34009 4.817002,1.56322 3.612085,2.14765 -0.844103,-0.25495 -3.68012,-0.48512 -1.381909,0.30878 1.08056,0.11187 3.435661,-0.2591 2.751806,1.57974 1.48471,-1.25271 -0.702633,-3.42078 -1.341362,-4.72346 -0.848094,0.14992 1.582522,2.7374 0.555031,1.92264 -1.251288,-1.2008 -2.774387,-2.27938 -3.570527,-3.82442 -1.668319,-0.8303 0.721861,1.52701 0.263229,1.37296 -1.372606,0.0835 -3.149572,-1.60538 -1.915274,-2.64629 1.92029,0.95083 4.547285,1.32495 5.575485,3.41065 0.337245,0.88871 1.299908,2.2426 1.096029,0.35216 -0.241555,-1.21291 0.655051,-4.18525 -0.719596,-4.26439 -1.993575,1.15335 -4.773681,1.09747 -5.886253,-1.24247 -1.315655,-1.69626 2.086933,-1.91141 0.751442,-3.63886 0.309563,-2.42424 4.037564,-1.40418 5.006129,0.13792 1.142523,1.42071 1.184648,-3.42151 -0.627896,-2.69251 -0.917605,-0.21453 -3.311799,-0.23607 -2.152909,-1.37242 -0.671687,0.3624 -2.273837,-0.89623 -0.792523,-0.52289 2.249139,-0.13296 4.512895,0.62848 4.749023,3.1895 0.806185,1.29699 2.028284,2.88311 0.919498,4.36916 -0.336061,1.75394 -1.202065,3.73803 -0.272427,5.38224 0.892969,-0.87637 1.432358,-0.70311 0.376458,0.2578 -0.801233,1.12998 -0.102997,0.75351 0.383985,0.15977 0.704065,1.18716 -0.245914,3.79388 0.687979,4.26203 0.304382,-3.03172 5.160377,-2.14008 4.268344,0.91285 -0.602543,1.46777 -0.114868,-2.16996 -0.851527,-0.74758 0.601404,0.73481 -2.446989,2.77789 -1.195725,1.28515 z m -5.165209,-11.85027 c -0.65291,-0.42843 -2.059045,-2.93859 -1.588938,-0.92971 -0.96238,0.43863 -3.232056,-2.33876 -2.134152,-0.18668 -1.52555,0.77401 3.974317,0.66354 1.115568,1.07392 -0.902359,-0.21992 -3.161258,0.44696 -0.961486,0.52866 1.522839,0.0229 2.957126,-0.86446 4.072746,0.58026 0.3298,-0.27445 -0.359239,-0.848 -0.503738,-1.06645 z m 0.802611,11.7486 c 0.44618,-2.1698 1.463793,1.51443 0,0 z m 6.640867,-7.43585 c -0.640662,-0.57531 -1.101154,-1.2429 -1.71202,-1.67159 1.615597,0.29928 -0.302693,-0.92729 -0.261742,-1.35244 -0.25688,-0.61279 -0.252555,-0.54823 0.140954,-1.19819 -0.992699,0.32891 -1.817943,-0.45057 -0.341392,-0.50298 1.725579,0.72624 1.687075,3.01298 3.348795,3.99245 0.191358,0.88406 -0.479131,1.46247 -1.174595,0.73275 z m 0.412708,-0.79169 c -2.271009,-1.34578 1.072088,1.61587 0,0 z m -2.810727,-7.19291 c 1.275574,-0.67456 -0.919226,-2.44783 1.017199,-2.07483 0.683574,-0.16985 -1.162936,-1.38721 0.366954,-1.37569 1.866847,1.25306 0.140167,3.71012 -1.471852,3.7884 l 0.0877,-0.33788 z m -11.691043,-3.19926 c -2.519753,-0.92244 -1.587046,-4.68548 1.163922,-3.74783 1.572022,0.35041 4.89497,-2.12427 4.449873,0.74884 0.217025,1.35411 -1.205542,-0.86805 -1.743114,-0.55662 0.154537,0.66614 1.996237,2.00563 1.724904,2.12381 -1.920882,-0.85596 -4.142544,-1.12046 -6.209549,-0.86932 1.677795,0.88161 4.500887,0.16828 6.156632,1.54859 -1.168511,0.99517 -3.477438,-1.16963 -3.831289,-0.30045 -0.106932,0.98081 -0.725484,2.10123 -1.711379,1.05298 z m 10.186458,-3.4993 c -1.850208,0.38046 -0.75596,-2.22219 0.719854,-1.12097 2.025142,0.0866 0.453799,-0.46754 -0.322979,-0.71329 0.701492,-0.16101 2.729003,-0.73708 0.809413,-0.71525 -1.063619,0.43378 -0.608967,-1.45949 -1.584261,0.0635 -0.550961,1.70024 -2.403561,0.467 -3.042104,-0.14668 0.302113,-2.62428 -4.316756,-1.03257 -4.214889,-3.87552 1.109543,-1.62769 4.363339,0.49449 5.178652,-1.68701 2.858848,-1.6293 2.416652,2.79603 0.904751,3.9986 -0.515612,1.37852 -0.06792,1.84885 1.133379,0.9061 1.622856,-1.33644 5.423841,-0.50828 4.073616,2.08612 -0.936106,0.56904 -1.902066,1.35583 -2.659532,0.60857 -0.103175,0.24876 -0.839079,1.41343 -0.9959,0.59588 z m -2.645833,-5.00926 c -1.109221,-0.49531 -2.510787,-1.85758 -2.256232,-0.55005 -0.723136,-0.18756 -2.545074,-1.10461 -1.17925,0.15255 0.996434,0.31231 2.539725,0.91947 3.435482,0.3975 z m 1.090104,-1.5892 c 0.882841,-1.53928 -0.949223,-1.5105 -0.706295,-0.009 -0.134114,1.32615 0.387429,1.37413 0.706295,0.009 z"
         id="path4841" /><path
         style="fill:#295a52;stroke-width:0.264583"
         d="m 70.381892,208.50465 c -0.631189,-1.05084 -0.273159,-3.2299 1.137919,-1.77961 0.50309,0.99282 0.421454,3.26717 -1.137919,1.77961 z m -5.297035,-1.79288 c -1.284348,-1.33843 3.369095,1.30447 2.340729,-1.19892 0.592069,-0.64649 1.056497,0.85099 2.012207,0.58382 -1.152314,0.60104 -3.165509,1.64545 -4.352936,0.6151 z m -4.20121,-1.92475 c 0.783199,-0.77852 2.45347,-1.43073 2.626704,0.37491 -0.485824,-0.15855 -3.090197,0.6762 -2.626704,-0.37491 z m 11.141556,-0.10583 c -1.037362,-0.18126 -2.175199,-0.49157 -0.853783,-1.31263 -1.392579,-1.51858 -1.621954,-3.74492 -1.798491,-5.80202 -0.464058,-1.36002 -4.862859,-0.45372 -3.487051,-2.81637 0.167485,-1.91288 1.653865,0.7741 2.745899,0.57158 2.49636,0.29652 0.252479,4.31213 2.75833,4.91383 -0.279086,0.91337 -0.08673,2.45444 0.694721,0.85288 0.939463,-1.01602 -1.73437,-3.76111 0.814299,-3.52991 0.727509,1.76602 1.412121,4.41094 -1.236397,4.8731 -0.02304,1.37717 2.598167,-1.39943 3.659005,-1.15522 1.563949,-0.67209 -1.387453,-0.24165 0.290625,-1.47227 0.539373,-0.62262 0.945884,-1.62014 1.56693,-2.02893 1.327191,0.72075 2.887519,-0.26698 4.028536,0.0919 -0.162652,1.55278 0.432625,-2.53936 0.971278,-0.63078 0.811393,-0.3839 -0.383994,-0.86392 -0.125877,-1.38227 -1.048667,1.2235 -3.44907,2.23579 -4.680858,1.39529 0.534291,-1.00098 1.6339,-1.90051 1.551732,-3.0767 -0.257265,-1.08778 -0.811139,-1.75857 -1.388679,-2.29019 -0.226659,-1.51157 -1.057656,1.1145 -0.793746,1.27042 0.452024,0.67459 -2.109084,-0.9 -0.988557,-1.58522 0.385127,-2.03454 3.049668,-2.4228 3.624723,-0.25198 0.642498,2.01833 3.486594,2.52088 3.486286,4.8231 -0.06017,2.47592 -2.111902,4.45624 -4.441392,4.99298 -2.08016,0.51412 -1.87921,3.95064 -4.432166,3.9223 -0.663807,-0.0688 -1.316423,-0.22199 -1.965367,-0.37292 z m 1.985052,-4.64428 c -0.792255,-1.4592 0.428436,-1.85972 1.421862,-2.223 0.7207,-1.3355 1.179402,-2.00748 0.337909,-3.42264 2.313476,-1.13543 2.022945,2.02162 0.789056,3.14185 -0.525904,0.3802 -2.024222,3.81706 -2.548827,2.50379 z M 58.485416,198.2077 c 1.263056,-1.40276 1.924989,0.29655 0,0 z m 19.496116,-3.73213 c -0.363237,-1.83492 1.23164,0.44433 0.0932,0.31191 l -0.09319,-0.31191 z M 60.650821,192.7198 c -1.649947,-0.0295 0.374707,-2.9717 0.859576,-0.75287 1.251352,0.99117 0.35473,0.98252 -0.859576,0.75287 z m 1.465448,-1.11741 c -0.113264,-1.46562 2.199939,-0.36626 0.573379,0.44848 -0.285745,0.0765 -0.524997,-0.19143 -0.573379,-0.44848 z m 11.318105,-0.0128 c -0.479282,-0.50692 -0.431955,-1.07405 0.372825,-1.10961 0.790639,-1.03018 0.359629,-1.29954 -0.938957,-1.64478 1.685843,-1.09372 2.657439,0.70012 1.699264,1.66064 1.523189,-0.91299 0.01074,-3.87209 0.824695,-4.40786 3.001348,1.0656 0.390591,4.12861 -1.138715,5.30147 -0.10756,0.12484 -1.009887,0.85272 -0.819112,0.20014 z m -12.038542,-1.32292 c 0.606732,-0.75507 2.346949,0.16432 0.645843,0.26459 -0.144111,-0.0547 -0.591698,0.003 -0.645843,-0.26459 z m 9.321052,-0.84336 c 1.112802,-1.41705 0.660704,1.18976 0,0 z m -1.912718,-0.23236 c 0.930748,-0.74591 -0.595269,-2.15386 0.660278,-2.11237 -0.228916,0.91582 1.791074,0.50572 0.662638,1.49916 -0.2466,0.59139 -1.09588,0.0726 -1.030025,0.89518 l -0.206855,-0.0828 z m -11.545883,-0.37921 c -0.05328,-2.12066 1.866929,-3.77212 3.939072,-2.8401 0.951145,0.59457 1.676683,1.69931 1.937152,2.11389 -0.876383,0.0972 -1.284276,-0.23655 -1.942917,0.57539 -1.230892,0.064 -0.818513,0.0671 0.03069,0.49539 -1.535994,-0.8055 -2.685067,0.52288 -3.963995,-0.34457 z m 4.137549,-0.79402 c 1.301495,-0.46312 -0.705333,-2.56274 -0.304389,-0.76116 -0.165467,0.58258 -0.760841,1.90932 0.304389,0.76116 z m 9.737892,-0.34933 c -0.457429,-0.84182 1.432419,-1.86209 0.931143,-0.0823 -0.0424,0.48323 -0.684698,0.1661 -0.931143,0.0823 z m -6.366962,-3.34829 c -2.090881,-0.0965 -1.32549,-3.10559 -3.679611,-2.25551 -0.905819,0.10685 -2.589407,-0.23897 -0.715991,-0.29044 1.350286,0.26834 2.390046,-0.28306 2.590489,-1.59036 1.392907,-0.67621 4.205446,1.55109 3.607858,2.28881 -0.895177,-0.18424 -4.132345,-0.64685 -1.648849,0.29714 0.908262,0.34886 3.920057,-0.20442 2.246517,1.49373 -0.847006,-0.13532 -1.553411,0.55985 -2.400413,0.0566 z m 3.60423,-0.5434 c 0.06031,-0.88056 1.270999,-0.54802 0.883287,-1.69233 0.971788,0.57157 0.595394,0.43703 0.854767,-0.40551 0.396501,0.34991 0.597053,2.79728 -0.441254,1.72828 -0.49842,-0.21484 -1.464601,1.60859 -1.2968,0.36956 z m 6.055569,0.22933 c -0.435762,-0.66546 -1.037121,-2.00192 -1.389062,-0.61852 -0.977134,-1.46419 -0.378843,1.28185 -1.896126,0.36617 0.03541,-1.66503 3.798972,-2.0229 3.900843,0.2413 0.0012,0.35217 -0.534522,-0.0167 -0.615655,0.0111 z m -6.700972,-2.28986 c -0.152841,-1.1999 -1.19457,-2.88922 -2.13755,-1.45821 -1.186986,-0.24573 -2.211197,-3.57009 -2.760308,-2.20154 1.944559,1.76632 -2.375574,0.54114 -1.40521,-1.15569 1.285751,-0.49611 3.796284,1.17189 5.240385,1.9942 0.519085,0.92228 2.058402,3.93121 1.89528,1.15154 0.147585,-2.50144 0.418139,0.54023 0.338223,1.41038 1.42154,-0.18869 -0.990685,0.61836 -1.17082,0.25932 z m -4.681355,-5.61313 c -1.410861,-0.86532 -2.113772,-3.00215 -0.261268,-3.554 -0.631389,-2.28251 1.435022,-3.55878 3.334048,-2.34995 0.945054,0.15718 2.603119,3.13021 2.731954,1.33011 -1.11304,0.25219 -0.349255,-3.24937 -0.197625,-0.7703 1.170732,0.82108 0.54555,3.08879 -0.778609,1.39574 -0.703318,-0.7931 -2.308379,-2.98497 -2.278038,-0.76414 -0.553765,0.57964 1.513397,-0.15769 0.688695,1.23543 -1.315283,0.88837 -1.87629,-1.78285 -1.790755,-2.10406 -0.40595,0.95768 -1.69425,-0.86904 -1.453191,0.90549 1.167093,-0.88237 1.10614,1.54476 0.893081,1.828 1.914884,0.32333 -0.0596,0.58559 -0.68461,0.87147 1.55438,0.15708 2.976792,1.21997 4.3639,1.46818 -0.210424,-0.78575 0.474424,-1.12884 0.227268,-0.19274 1.198518,0.0177 -1.807485,1.3186 -2.472677,1.23818 -0.822444,0.17149 -1.702145,0.0899 -2.322173,-0.53741 z m 10.854627,-1.06484 c 0.69291,-1.62962 -2.946507,-1.21291 -0.622533,-1.51892 1.713924,-0.25608 1.247704,3.71029 0.622533,1.51892 z m -5.062453,-1.24928 c -0.966641,-0.98827 2.180047,-1.18832 0.246824,-0.11575 1.265653,-0.29412 0.805515,0.59573 -0.246824,0.11575 z m 4.273338,-3.62391 c 0.525091,-0.69915 0.810988,-0.84403 0.363905,-1.73341 0.674771,-0.096 1.777355,-1.52649 0.540417,-0.83732 0.425343,-2.07849 1.9971,2.09562 0.233098,2.29378 -0.250773,0.0426 -1.318617,1.23838 -1.13742,0.27695 z m -7.348289,-1.77691 c -1.13058,-0.49302 -0.798501,-0.34736 -0.132291,-0.61509 0.278867,-0.47301 1.225112,0.82214 0.354936,-0.34645 -0.304824,-0.97947 1.245387,0.85175 0.935938,-0.55566 0.528093,0.26689 0.554502,1.28009 0.710279,1.48865 -0.598569,0.19299 -1.260905,0.15742 -1.868862,0.0285 z m -4.265533,-1.26714 c -2.661262,-0.85019 -1.888416,-4.95632 1.082746,-3.7812 1.416974,0.10473 4.315465,-1.71703 4.21549,0.81977 0.252876,1.22149 -1.426087,-1.58859 -1.545801,-0.57849 0.126292,0.61617 1.898244,2.02768 1.623754,2.0474 -1.048391,-0.8009 -3.160581,-0.92037 -3.52402,-1.46658 0.165386,0.92524 -4.108024,0.0329 -2.019048,0.94852 2.395914,-0.96732 1.839557,2.90921 0.166879,2.01058 z m 2.860855,-0.8916 c -1.968268,-1.42972 4.305529,-0.11989 1.656032,0.19844 -0.555259,-0.0227 -1.114651,-0.0665 -1.656032,-0.19844 z m 6.646323,-3.18678 c -1.375477,-1.89793 3.233229,-0.0104 0.439058,0.34486 l -0.193231,-0.14322 -0.245824,-0.20166 z m 1.938716,-0.16028 c 0.590188,-0.88098 -0.06337,-0.78664 -0.830361,-1.19063 0.743512,-0.19335 2.299259,-0.76443 0.559205,-0.74704 -1.129819,0.43753 -0.498922,-1.41892 -1.547941,-0.0161 -1.090651,2.06286 -3.212674,-0.40364 -3.494225,-1.5935 -1.41364,0.34591 -5.061163,-1.60347 -3.169491,-2.82146 1.600369,0.19828 3.799665,0.33416 4.774158,-1.31561 2.778402,-1.15115 2.05353,3.0244 0.514904,3.95803 -0.417134,0.94075 -0.0594,2.82687 0.870121,1.31425 1.430757,-1.53796 5.994278,-0.75732 4.261204,1.78102 -0.422346,0.20186 -1.645509,1.62522 -1.937574,0.63109 z m -4.005361,-4.36563 c -1.17561,-0.70889 -2.684171,-1.72991 -2.428496,-0.53321 -0.738376,-0.15161 -2.335281,-1.38664 -1.322709,0.1589 1.085855,0.2712 2.892589,0.88917 3.751205,0.37431 z m 0.883571,-1.20307 c 1.052339,-0.92824 -0.574114,-2.71132 -0.658587,-0.84872 -0.137458,0.63202 0.157161,2.29648 0.658587,0.84872 z"
         id="path4839" /></g></g></svg>
