<?xml version="1.0" encoding="UTF-8" standalone="no"?>
<!-- Created with Inkscape (http://www.inkscape.org/) -->

<svg
   width="38.833157mm"
   height="57.751575mm"
   viewBox="0 0 38.833157 57.751575"
   version="1.1"
   id="svg357"
   xml:space="preserve"
   inkscape:version="1.2.2 (732a01da63, 2022-12-09)"
   sodipodi:docname="touffe-natural_low.svg"
   xmlns:inkscape="http://www.inkscape.org/namespaces/inkscape"
   xmlns:sodipodi="http://sodipodi.sourceforge.net/DTD/sodipodi-0.dtd"
   xmlns="http://www.w3.org/2000/svg"
   xmlns:svg="http://www.w3.org/2000/svg"><sodipodi:namedview
     id="namedview359"
     pagecolor="#ffffff"
     bordercolor="#666666"
     borderopacity="1.0"
     inkscape:showpageshadow="2"
     inkscape:pageopacity="0.0"
     inkscape:pagecheckerboard="0"
     inkscape:deskcolor="#d1d1d1"
     inkscape:document-units="mm"
     showgrid="false"
     inkscape:zoom="2.2173472"
     inkscape:cx="185.58212"
     inkscape:cy="80.276107"
     inkscape:window-width="2560"
     inkscape:window-height="1369"
     inkscape:window-x="-8"
     inkscape:window-y="-8"
     inkscape:window-maximized="1"
     inkscape:current-layer="layer1" /><defs
     id="defs354" /><g
     inkscape:label="Calque 1"
     inkscape:groupmode="layer"
     id="layer1"
     transform="translate(-66.091667,-153.80832)"><g
       id="g490"
       transform="translate(18.9,-13.5)"><path
         style="fill:#b6c7c4;stroke-width:0.264583"
         d="m 61.405676,222.21675 c -2.158402,-5.02498 -3.589446,-10.33648 -6.039972,-15.24284 -1.366564,-3.02909 -2.731605,-6.07555 -3.903894,-9.17736 0.56978,-1.98375 -1.081674,-4.19462 -1.245474,-6.31988 -0.358792,-2.73208 -2.091883,-5.04821 -3.024669,-7.60529 2.214226,-0.11055 3.250695,2.96877 4.670256,4.43544 0.688346,1.16726 1.899554,2.34305 1.14887,0.16107 -0.847637,-1.48451 0.783271,-2.57275 1.106803,-0.55364 1.322309,3.7164 2.512035,7.53232 4.346899,11.02838 -0.191714,-2.08308 -1.203067,-4.36759 -1.587545,-6.55293 -1.253216,-4.28964 -2.51579,-8.57629 -3.445342,-12.95058 -0.150069,-1.65986 -1.749072,-3.96051 -1.08234,-5.24341 1.762768,1.22142 2.104354,3.64984 3.182602,5.42696 1.443789,3.12163 2.933035,6.27901 4.06663,9.49612 0.0071,-1.90048 -0.716994,-3.99907 -0.987067,-5.97538 -0.372247,-2.42659 -1.492834,-4.67888 -1.859402,-7.0882 1.80336,-0.12707 2.384194,3.42523 3.203944,4.9939 0.63743,1.37274 1.462823,5.23856 1.987544,5.00603 0.185849,-6.05692 -0.103165,-12.15616 0.704202,-18.17664 1.503273,-1.05639 1.619222,3.37097 2.120097,4.70696 0.48542,1.96287 0.814551,3.95925 1.036621,5.96798 0.05484,-1.23003 1.397569,-3.86186 1.60783,-1.14058 0.368243,1.83985 0.06491,6.30159 0.657565,6.56194 1.157199,-5.0996 2.790836,-10.12321 4.976501,-14.87742 0.247183,-1.31942 2.413542,-3.00955 1.736602,-0.48576 -0.826016,3.0073 -2.018067,5.91639 -2.340822,9.04312 -0.882268,4.73968 -2.024008,9.4463 -2.609024,14.2319 0.917349,-1.8122 1.450372,-3.96605 2.248051,-5.90115 0.690345,-1.09443 0.915688,-4.50017 2.463332,-3.71215 -0.150624,1.04904 -0.587444,2.96524 0.141427,1.04041 0.183361,-1.25791 1.980472,-2.36679 1.330302,-0.32564 -1.215643,3.59851 -1.673019,7.40012 -2.895368,10.99536 3.584774,-5.67046 6.704374,-11.74798 11.339201,-16.66692 1.081385,-1.40143 2.258624,-0.42902 1.062214,0.87861 -3.503658,7.41226 -7.330747,14.66827 -10.812507,22.09016 1.091897,-0.95314 2.04563,-4.80037 3.292532,-3.95649 1.220004,-0.7823 1.946572,-4.10111 3.323645,-3.63337 -1.505471,4.29163 -3.618691,8.36426 -5.380093,12.56231 -2.749941,6.3612 -5.597645,12.6812 -8.128416,19.13475 -1.017133,1.08398 -2.842929,0.42747 -4.243804,0.59531 -1.109562,0.37028 -1.238748,-0.76938 -1.614667,-1.52903 -0.184421,-0.41402 -0.368843,-0.82803 -0.553264,-1.24205 z m 2.21643,-13.01621 c -0.710323,-5.66244 -0.806256,-11.41802 -2.050362,-17.00259 -0.765244,-0.92036 0.312943,2.53164 0.301689,3.21911 0.839407,5.3855 0.865774,10.90566 1.910842,16.24103 0.06374,-0.81732 -0.08848,-1.64437 -0.162169,-2.45755 z m -3.47137,-0.78712 c -1.97511,-4.24839 -3.455731,-8.70087 -5.181935,-13.04647 0.08698,1.57722 1.238488,3.85058 1.832746,5.6407 1.298404,3.12622 2.373082,6.41068 4.070832,9.329 -0.114386,-0.67298 -0.464613,-1.29583 -0.721643,-1.92323 z m 6.10266,-11.33946 c 0.0089,-1.92396 0.119974,-4.67478 -0.09463,-6.0725 -0.276248,5.455 -0.344019,10.92096 -0.592326,16.37724 0.335201,-3.4261 0.5711,-6.86405 0.68696,-10.30474 z m 2.234543,8.59896 c 0.372892,-2.89027 1.130039,-5.71844 1.769345,-8.54754 -1.082125,1.66449 -1.195442,4.16586 -1.645279,6.21788 -0.113498,1.28334 -0.78006,3.50363 -0.551423,4.18174 0.250072,-0.58445 0.331015,-1.22854 0.427357,-1.85208 z"
         id="path504" /><path
         style="fill:#92aba7;stroke-width:0.264583"
         d="m 62.89687,224.77263 c -0.936015,-1.79005 -1.93637,-3.56182 -2.687053,-5.63147 -1.574435,-4.6287 -3.292933,-9.20497 -5.398025,-13.62182 -1.085555,-2.61208 -2.358576,-5.15224 -3.333384,-7.80589 0.707512,-2.18628 -1.415844,-4.50478 -1.235687,-6.80958 -0.09174,-1.88675 -1.69231,-3.83351 -2.418962,-5.69906 -1.475021,-2.66371 1.740873,-0.54548 2.078642,0.62179 1.237017,1.49252 2.322804,3.13459 3.497817,4.64893 -0.129506,-1.00812 -1.276842,-5.08605 0.521779,-2.77473 1.00196,2.53566 1.532391,5.23837 2.800254,7.6754 0.721458,1.53337 1.960221,4.90001 2.501117,5.13734 -0.293193,-1.01792 -1.373854,-3.27485 0.02538,-2.51837 0.850828,-1.21887 -2.578574,-1.51433 -0.181915,-1.50815 0.153884,-1.50372 -2.036381,0.22408 -1.049052,-1.6215 1.427579,-0.43 -1.98479,-1.18453 -0.661836,-2.671 -0.809884,-1.36412 -1.764765,-4.41668 -2.334756,-6.48367 -0.492355,-2.12297 -1.595539,-4.68104 -0.797858,-6.62924 -1.270954,-0.54107 -2.282596,-3.66305 -1.73999,-4.76182 1.682632,1.79472 2.380158,4.3993 3.561831,6.57415 1.302879,2.69379 2.295895,5.52985 3.535522,8.24252 0.599621,0.37853 -0.362399,-2.42563 -0.408478,-3.36969 -0.484065,-3.17565 -1.491054,-6.23188 -2.30576,-9.32177 0.536702,-1.78281 1.889865,1.98675 2.329473,2.67112 0.882241,2.13505 1.167208,4.45246 2.185282,6.55124 0.304181,0.76821 0.758624,2.39443 0.619573,0.64066 0.03594,-5.82974 0.243152,-11.65737 0.568206,-17.47598 0.763189,-3.15592 1.799585,2.01807 2.002067,3.21083 0.592721,2.03337 0.462923,4.42538 1.266876,6.27476 0.297583,-1.09462 1.237106,-3.50732 1.462484,-0.93439 0.4973,2.96233 -0.168345,6.0634 0.602432,8.96345 0.841426,0.25507 1.316376,1.69722 2.544246,0.57601 0.136587,0.92978 -1.098966,4.03712 -0.796653,1.74413 0.392723,-1.00244 -1.031673,0.82398 -0.507441,1.18164 -1.392702,0.9897 -0.34192,1.10541 0.552191,0.3689 0.602638,0.96954 -2.703389,1.00691 -1.785995,2.22989 0.441494,-1.54721 2.677333,-0.62031 1.332596,0.70578 1.7782,0.19204 0.46482,-1.66279 2.002455,-2.46477 -1.588005,1.0345 0.11852,-2.65095 0.936833,-3.16125 -0.191838,-1.13387 0.598431,-3.88699 1.710886,-5.46679 1.355225,-0.47566 -0.679086,4.60581 0.785593,1.45386 0.175291,-1.38113 2.384055,-2.36296 1.193698,-0.26617 -0.0967,1.20797 -1.224621,2.73054 -1.471378,2.91641 0.540388,2.34625 -0.515182,4.7537 -1.168329,7.00209 -0.225856,0.8298 -1.202645,2.99769 0.144222,1.49325 0.785884,-0.073 -0.122907,-1.68578 0.962535,-2.40273 3.052931,-5.18603 6.212858,-10.37273 10.135316,-14.9529 2.716356,-2.159 0.172967,2.73898 -0.33627,3.73208 -2.5537,5.13438 -5.175671,10.24851 -7.790513,15.34368 -0.5432,0.35378 -1.721081,-1.20404 -1.175485,0.30136 1.702132,1.36412 -1.377883,4.12835 -1.555533,6.03704 -0.979551,2.94968 0.964591,-1.5398 1.372169,-2.4233 0.923922,-1.61979 1.878571,-4.60562 3.356298,-4.20457 0.830259,-0.72218 2.139735,-4.34515 2.902492,-3.18568 -2.39416,5.74182 -4.940459,11.4259 -7.494455,17.10286 -2.020983,4.81892 -4.15223,9.59589 -6.142149,14.42971 -1.429699,0.53732 -3.210549,0.63552 -4.713308,0.33541 z m 1.129819,-12.81586 c -0.954286,-6.57065 -1.090091,-13.23901 -2.21569,-19.7859 -2.100332,-2.29414 -0.101716,1.98666 -0.09684,3.06186 1.075277,5.74458 0.950395,11.66013 2.185014,17.37637 0.313761,0.68936 0.163843,-0.58851 0.127518,-0.65233 z m -3.819943,-3.55489 c -1.983654,-4.242 -3.509523,-8.67863 -5.140925,-13.05695 -0.691985,0.37223 1.079142,3.6249 1.399736,4.96018 1.415874,3.5419 2.704307,7.16821 4.554574,10.50985 0.231905,-0.38799 -0.615579,-1.7979 -0.813385,-2.41308 z m 6.033542,-8.81438 c 0.125664,-3.48471 0.336369,-7.01606 -0.115562,-10.47814 -0.292288,1.90833 -0.167563,4.18752 -0.260371,6.23818 -0.0054,4.50489 -0.340746,9.0002 -0.54136,13.49463 0.470938,0.57061 0.408678,-2.82548 0.560403,-3.67572 0.126947,-1.85913 0.241905,-3.71906 0.35689,-5.57895 z m 2.079826,7.0776 c 0.673757,-3.32054 1.184605,-6.73307 2.243053,-9.93591 -1.482421,1.37479 -1.40175,4.1865 -1.971806,6.18507 -0.111284,1.18524 -1.104782,5.04589 -0.490965,4.73187 l 0.108299,-0.44168 z m 3.347808,-9.94162 c 1.203336,-2.4289 -1.619624,0.61325 0,0 z M 64.125,193.36755 c 0.379903,-1.18285 -0.397839,-3.11432 -1.004558,-1.02412 0.935943,0.81481 -0.09829,1.89995 0.882462,3.27532 0.154478,-0.73296 0.09647,-1.50539 0.122096,-2.2512 z m 5.820833,0.3835 c -1.533525,-1.16433 -0.662178,1.1802 0,0 z m -9.950182,-2.78415 c 0.256894,-1.64552 -0.208125,-1.03137 -0.533821,0.0259 -0.986961,0.57192 0.538364,0.45437 0.533821,-0.0259 z m 12.01724,-1.9462 c -0.206192,-0.92183 -1.258596,1.10042 -0.183763,0.27925 z m -2.679703,-2.30487 c 0.3757,-0.96738 0.32286,-0.8478 -0.692061,-0.73168 1.508329,-1.37982 2.886774,0.11891 0.809973,0.75384 l -0.117914,-0.0222 z m -1.328642,-1.81271 c 0.726281,-4.48904 2.575822,-8.67273 3.7897,-13.02566 0.626217,-1.24023 1.79906,-4.95433 3.088243,-4.41326 -0.434439,2.98237 -1.799455,5.7592 -2.257571,8.75319 -0.628661,2.96532 -0.979733,6.01268 -1.89164,8.90537 -0.986562,-0.23264 -2.582031,0.0818 -2.797409,0.3545 l 0.02622,-0.24382 0.04245,-0.33033 z"
         id="path502" /><path
         style="fill:#6f908b;stroke-width:0.264583"
         d="m 62.506239,223.66458 c -1.155156,-1.94555 -2.21466,-4.02773 -2.899236,-6.25869 -1.171931,-3.61578 -2.519034,-7.16656 -4.179622,-10.58662 -1.209926,-3.19473 -2.983926,-6.19926 -3.844883,-9.50751 1.262826,0.76337 -0.627056,-2.46506 -0.729007,-3.62278 -0.541744,-2.21527 -0.630606,-4.40348 -1.998567,-6.36473 -0.732069,-0.99526 -2.094349,-5.1248 0.159562,-2.46775 1.60592,1.83979 3.134578,3.99966 4.399167,5.95137 -0.07059,-1.07291 -1.007087,-5.51824 0.604846,-2.91056 1.020082,1.51361 -0.28863,3.04311 0.70388,4.31319 1.102631,1.13309 1.862838,3.27602 2.788708,5.15359 0.387943,0.75409 1.456812,3.87607 1.745589,3.12671 -0.798696,-1.83136 0.886722,-3.35456 -0.461383,-5.20944 -0.730448,-2.08261 -1.047258,-4.4107 -1.956398,-6.36057 -2.029044,-1.14794 -1.81608,-4.2739 -2.583449,-6.32654 -0.392353,-1.443 0.820391,-1.09037 -0.437189,-2.4595 0.277598,-0.91621 0.525304,1.13332 1.712167,0.48801 1.271037,1.6267 2.446881,4.4101 2.81125,6.04328 -1.087078,-0.71489 -1.788277,-1.58669 -2.052618,-0.11341 -0.720081,1.77859 3.015264,1.75681 2.531416,4.01512 0.389335,1.93836 1.660635,4.17545 1.598811,5.68629 -1.05411,0.25382 1.429344,0.95156 1.511194,0.38345 0.768347,5.76712 0.932171,11.63486 2.207442,17.32185 0.247049,-1.51791 -0.564003,-4.65697 -0.636396,-6.73725 -0.238063,-3.14359 -0.803148,-6.30063 -0.626051,-9.4544 0.745173,-0.25788 0.812618,-1.38397 -0.337934,-0.81677 0.696442,-1.12295 -1.187984,-3.85481 -0.497094,-5.74825 0.506227,-1.70959 -2.220332,0.71696 -1.557265,-0.85222 1.167354,-0.40774 1.683742,-1.78572 1.640265,-3.40291 0.823639,-0.0889 3.2355,-0.39499 2.578617,-2.58066 0.527589,-2.27762 0.03133,-4.05461 1.283815,-5.91003 0.108991,-1.80004 2.321614,-0.55146 0.52051,-0.32896 1.18857,0.13606 0.54921,2.62181 0.474834,0.60555 -0.573279,1.14338 -0.519493,2.07504 -0.967536,2.91047 -0.09241,2.22193 0.880586,3.63802 0.377174,5.31378 0.279046,0.72477 0.07781,3.78752 0.536992,1.51787 0.45943,-0.83035 0.05037,-1.82115 -0.134188,-2.10927 0.742497,-0.27747 0.576929,-3.76698 0.731598,-1.35866 0.109895,1.7355 1.072666,1.70393 0.360874,3.28917 0.04591,2.34539 -0.272291,4.83977 0.24613,7.09662 1.309746,-0.37226 -1.590787,1.97261 0.273765,1.8469 1.853698,-0.77378 0.140988,-2.97838 1.622673,-3.26796 0.860959,-2.19965 1.758755,-4.41967 2.685534,-6.55578 -0.120252,-1.45002 1.960163,-2.27526 2.176777,-4.20831 0.797922,-2.22184 1.947435,-0.9119 0.693009,0.70971 0.222758,1.41436 -2.853492,2.26162 -1.392255,3.19747 0.866498,-1.63652 -0.167859,1.95016 -0.06622,2.70504 -0.431417,1.9586 -0.714011,4.15964 -2.574744,5.05526 -0.529682,1.5591 -1.592383,4.71965 -1.161787,5.65853 0.515831,-1.92938 1.335235,-3.90414 2.802193,-5.3125 -0.938536,0.74872 -0.849871,2.71577 0.276474,0.97315 1.030652,-2.0488 1.266891,-4.26406 2.20864,-6.23383 0.584758,-2.81359 3.961355,-0.59113 4.388318,-2.76117 -1.223268,-0.85045 -0.288785,-1.46347 -0.34185,-2.33708 -0.846627,-0.30567 0.580446,0.95398 -1.01055,0.8091 0.147793,-1.72944 2.733287,-4.24826 3.940989,-6.13171 0.49591,-0.93012 3.787412,-4.63406 2.78387,-1.59696 -0.943564,2.90677 -2.585227,5.52246 -3.996187,8.21478 -0.478145,0.70292 -1.258814,-0.62839 -0.549327,0.58882 -0.162069,2.0464 -2.676883,5.08822 -2.851044,5.81154 0.09824,0.9086 -1.387468,2.19467 -0.825484,0.48791 -0.882746,0.51954 0.724379,-0.97192 -0.607201,-0.66245 1.542005,-1.63579 -1.680423,0.58504 -1.206868,1.88266 -0.371697,1.30947 -0.835703,3.1918 0.177995,3.62402 -0.937007,2.3795 -2.216776,4.74187 -2.835246,7.18172 1.7405,-2.94995 2.677509,-6.386 4.826401,-9.09453 0.707689,-0.25999 -0.343628,2.21943 0.652951,0.56548 0.744197,-0.95916 2.191626,-4.33921 2.875041,-3.72529 -1.554561,4.45662 -3.743842,8.65414 -5.507181,13.01572 -1.062972,2.1262 -2.215335,4.10613 -2.81212,6.40503 -1.934324,4.05231 -3.467217,8.3393 -5.375625,12.36253 -1.533296,0.91366 -2.198443,-1.47024 -2.789064,0.0489 -0.879371,0.19357 -2.034743,0.18216 -2.107901,-0.9855 z m -2.699533,-16.18601 c -1.819731,-3.95104 -3.125088,-8.11248 -4.731497,-12.14345 -0.974505,-1.09402 -1.1728,2.0038 -0.324287,0.67534 2.144472,4.91518 3.687777,10.11534 6.209405,14.87055 0.518257,0.0893 -0.981146,-2.83556 -1.153621,-3.40244 z m 6.637195,-11.99211 c -0.118286,-2.12892 0.548153,-4.56579 -0.400645,-6.48223 -0.399138,5.66146 -0.08631,11.36662 -0.635175,17.02807 -0.16308,0.8763 -0.192247,5.42827 0.22915,2.37644 0.446921,-4.29342 0.638404,-8.61038 0.80667,-12.92228 z m 2.172216,9.92187 c 0.49581,-2.92686 1.124496,-5.89778 1.970169,-8.70179 -1.533969,1.17431 -1.330827,3.77811 -1.904877,5.58226 -0.163207,1.32315 -1.182595,5.37602 -0.506632,5.16468 0.201388,-0.66873 0.328205,-1.35699 0.44134,-2.04515 z m -13.290698,-7.01482 c -0.323439,-2.42896 -0.974909,1.13937 0.206707,1.32307 0.01487,-0.45134 -0.124107,-0.88527 -0.206707,-1.32307 z m 10.219393,-2.37472 c -1.699866,-1.07931 -0.845786,1.68595 0,0 z m -1.378632,-5.0724 c -0.163358,-1.24883 -2.593643,-0.59616 -0.83493,-0.0901 -1.127791,1.26575 0.332937,3.13746 0.424296,4.64512 0.256644,1.59857 0.283795,0.51011 0.318594,-0.4888 0.06543,-1.3536 0.171872,-2.71164 0.09204,-4.06618 z m -10.294686,2.69887 c 0.914466,-0.41421 -1.514943,-3.98396 -1.263621,-2.32186 1.665047,0.71863 -1.831404,1.9056 0.563592,2.51947 0.204962,-0.14284 0.416088,-0.36586 0.700029,-0.19761 z m 18.814264,-0.73415 c 0.518507,-0.44166 -0.528014,-2.52469 -0.709138,-0.56733 -0.728587,1.21556 0.04071,1.64592 0.709138,0.56733 z m 5.342162,-2.13282 c 0.281527,-1.15503 -2.207542,-2.87891 -0.702967,-0.88333 0.243968,0.46804 0.289358,2.37723 0.702967,0.88333 z m -16.835384,5.45139 c -0.190974,-1.048 -1.174586,-5.53588 0.0646,-2.36303 0.103379,0.41938 0.952549,2.63906 -0.0646,2.36303 z m 12.641455,-2.85657 c 1.085318,-2.11891 -0.05761,1.31105 -0.275151,0.65167 l 0.113867,-0.29339 z m -13.77874,-3.72135 c -0.329628,-2.26252 -1.06186,-4.45139 -1.380517,-6.74035 -0.362798,-2.37281 -1.51287,-4.59091 -1.667356,-6.98467 1.474451,1.01919 2.447913,3.47199 2.784326,5.40365 0.286275,1.0402 0.625121,2.66407 0.662884,2.7282 -0.837226,1.09243 1.524536,0.88616 0.379292,2.01756 1.69323,-0.40027 -0.648832,1.47233 0.77614,1.05682 -0.620763,0.71376 -1.78123,0.70858 -0.854646,2.06218 -0.04775,0.22828 -0.550657,1.18432 -0.700123,0.45661 z m 12.271832,-3.92125 c 0.488356,-0.66122 1.26225,-4.53718 2.02354,-3.21325 -0.406738,1.10565 -0.204367,3.63244 -2.02354,3.21325 z m -2.301573,-0.71487 c -1.088454,-0.13505 -2.359985,-2.43413 -0.478596,-1.39304 0.822783,-0.79821 -0.139813,1.04667 1.28595,0.83576 0.231757,0.52662 -0.386956,0.83787 -0.807354,0.55728 z m -7.748543,-1.07639 c 0.267825,-1.60082 3.614186,-0.1 0.953881,-0.2795 -0.39294,-0.33463 -1.072241,1.11147 -0.953881,0.2795 z m 8.242261,-0.51884 c -0.146517,-1.05401 0.320528,-1.90497 -0.754161,-2.63054 0.450715,-1.47286 -1.19485,0.36247 -0.369688,-1.28674 2.238103,-0.92491 1.220112,-4.36945 2.076959,-6.32499 0.386924,-2.18273 1.584189,-4.20377 2.993411,-5.86981 0.824002,1.8983 -1.198871,4.44962 -1.394456,6.61125 -0.89719,3.23076 -0.966259,6.69896 -2.138338,9.83475 l -0.11437,0.003 -0.29935,-0.33698 z m -8.203967,-1.36156 c -0.246071,-1.60066 0.62332,0.59733 0.520575,0.67682 -0.683122,1.04736 -0.516584,-0.25624 -0.520575,-0.67682 z m 0.02323,-2.65491 c -0.103998,-1.52436 0.366913,-1.54269 0.263498,-0.0289 0.608586,0.40305 1.44048,0.1729 0.04502,0.76933 -0.481028,1.1212 -0.203302,-0.59927 -0.308523,-0.7404 z m -7.609578,0.34528 c 0.667097,-1.02352 -2.67568,-1.77746 -0.786988,-1.95076 -1.24743,-0.29682 -2.69004,-5.07089 -0.735077,-2.74401 0.509932,1.52519 2.290368,3.81217 1.774416,4.95388 -0.143831,0.0679 -0.365038,-0.12109 -0.252351,-0.25911 z m 11.777337,-3.03256 c 0.495851,-2.0222 1.018933,1.66015 0,0 z m -2.116667,-1.34684 c 0.877532,-1.26493 0.790386,0.9544 0,0 z m 0.1147,-1.81967 c 0.07861,-1.10862 -1.884405,0.36501 -0.74926,-0.86434 -0.996191,-0.32286 -0.28985,-3.1567 -0.934904,-1.023 -1.480635,-0.92578 2.222436,-2.43029 -0.207169,-1.79768 0.381973,-1.96771 2.1596,0.90826 1.774591,2.0304 0.15502,0.22672 0.804164,3.46354 0.116742,1.65462 z m -2.099075,-0.42098 c -0.122328,-1.63134 1.267455,0.45963 0,0 z"
         id="path500" /><path
         style="fill:#5c827b;stroke-width:0.264583"
         d="m 62.978473,224.54653 c -0.764857,-2.16412 -2.407739,-4.00314 -2.999823,-6.32041 -1.328312,-3.90366 -2.792436,-7.75828 -4.494062,-11.51431 -0.829899,-2.02086 -1.914953,-3.9911 -2.630246,-6.08985 -0.210692,-1.31091 -1.062766,-2.3522 -1.291331,-3.29259 1.248134,0.50609 -0.5632,-2.74304 -0.595412,-3.54921 -0.667027,-2.40984 -0.652121,-4.79695 -2.272833,-6.90576 -0.581832,-0.88695 -1.879147,-4.39456 0.131597,-2.16019 1.411744,1.17051 2.424022,2.74451 1.191252,3.93425 1.228552,0.0634 -0.568009,0.38636 0.504454,1.04983 1.737553,-0.14672 -0.416126,-3.03834 1.385787,-1.06904 0.799872,0.83118 1.672524,2.78884 0.148488,0.98499 -1.242468,-0.20846 0.977152,2.14036 -0.819953,1.32718 0.08532,1.26983 2.146639,4.76628 2.94361,2.55141 -0.655252,-2.09433 -1.074566,-4.32206 -1.03822,-6.50528 2.26769,0.71422 -0.127613,4.01386 1.542393,4.79805 -0.561521,1.28474 1.862835,0.85855 0.854303,2.20294 1.668978,1.39086 1.859348,3.90703 3.01266,5.73648 0.431763,1.28762 1.347413,2.19915 0.588595,0.27868 -1.056904,-1.68185 1.288822,-2.06601 1.885138,-1.21623 2.335525,-1.60887 0.786126,2.65983 1.500453,3.81067 0.475593,3.7453 0.558595,7.58933 1.628116,11.22591 0.49657,0.0766 -0.433166,-3.37451 -0.37949,-4.49345 -0.371283,-3.70512 -0.895757,-7.41005 -0.941788,-11.13716 0.593179,-0.95197 1.68501,-1.64561 3.11052,-1.55392 -0.27776,4.41954 -0.792152,8.85879 -0.58552,13.28188 0.695171,-2.48714 0.50078,-5.26636 0.879777,-7.86406 -0.076,-1.9694 1.354944,0.99034 2.241034,-0.76104 0.452548,1.52704 -0.637064,4.49849 -0.719796,6.58805 0.04574,1.78471 0.883594,-2.17609 0.93728,-2.76074 0.534264,-1.61242 0.0699,-4.57768 1.805681,-4.50393 0.584438,-0.94 0.876125,-3.73194 1.734415,-3.5986 -0.03638,1.09318 -1.618536,3.8071 -0.538422,4.03737 0.460731,-2.13929 1.965212,-3.9979 2.357217,-6.23444 1.08602,-1.58639 0.565311,-5.36293 2.957575,-5.23988 0.852922,1.91074 -2.328368,3.26633 -1.804122,5.52586 -0.724268,2.6307 -0.996991,5.35676 -1.844979,7.93589 -0.565689,1.24369 -0.873908,2.9777 0.10383,0.857 1.291425,-2.66693 2.236398,-5.58537 4.164664,-7.87943 0.394158,2.89523 1.773188,-2.31876 2.868385,-2.92315 1.506918,-1.74649 -0.652476,1.68536 -0.5729,2.46834 -1.84232,4.53389 -3.783914,9.03828 -5.942521,13.42949 -0.960742,1.08149 -1.033025,3.89861 -2.274482,5.48767 -1.62402,2.62083 -2.060812,5.80963 -3.722108,8.41475 -1.107645,0.47367 -0.707883,0.95961 -0.575052,1.4244 -1.568995,-0.49621 -4.600493,-1.16985 -4.284782,0.35385 l -0.149432,-0.13228 z m -1.878272,-14.04497 c -1.950298,-4.60063 -3.848737,-9.22431 -5.511073,-13.93876 -0.09672,-1.57955 -1.845381,-2.33708 -1.593139,-0.26664 0.544896,1.45483 1.11153,3.99548 1.959503,4.73093 -0.02288,-0.88775 -1.389396,-5.23853 -0.180166,-2.55864 1.655098,4.41473 3.228388,8.92297 5.575963,13.01846 0.06217,-0.32762 -0.188847,-0.67045 -0.251088,-0.98535 z m 12.918366,-2.07216 c 0.405387,-1.97119 -1.158666,1.37232 -5e-6,0 z m -7.181588,-8.70353 c -1.017857,-1.52697 0.07268,-4.28173 -0.279527,-6.32977 0.205193,-1.92432 0.02257,-4.22684 1.003189,-5.84958 0.378251,3.57026 -0.164037,7.2539 0.402247,10.77262 2.261502,-0.46915 0.870468,-3.41963 2.813565,-4.43834 0.907545,-1.92718 0.874196,1.47131 0.22771,2.25398 -1.12687,0.75012 -1.438421,2.65835 -2.596409,3.15152 -1.229461,-1.45212 -0.279623,1.28022 -1.570775,0.43957 z m 3.235743,-1.09045 c 0.210992,-1.34818 1.028164,-1.75262 0.46301,-0.14339 -0.166257,0.91952 -1.113083,2.24688 -0.46301,0.14339 z m -10.813753,-2.37567 c 0.652563,-0.73729 0.74162,-0.70759 -0.349498,-0.97328 -0.785079,-2.1485 -0.560991,-4.10803 -1.715743,-6.11256 -0.255798,-0.50437 -2.485492,-1.16798 -0.683794,-1.1239 1.720364,0.0753 3.103993,3.99586 2.389545,4.48357 -0.363919,0.31702 2.123575,1.89189 -0.02396,1.31473 0.331671,0.87297 2.642634,2.36639 0.383452,2.41144 z m 6.309939,-0.62272 c -0.05787,-1.01069 -1.424615,0.70606 -1.16903,-0.81203 -0.06324,-1.45344 0.380512,-6.41566 -1.638179,-4.23333 0.107521,2.94569 -1.660433,-2.90077 -0.364902,-2.23342 0.454035,1.04779 0.781236,-1.6767 1.619601,-0.3259 -1.241217,0.48408 0.668288,1.74101 -1.292357,1.16367 0.06937,1.50175 2.962964,-0.74643 1.17905,-1.76137 1.460001,-2.17838 0.818985,-5.04756 1.669838,-7.46223 0.69795,1.03796 0.263146,4.43957 0.697318,6.35821 -0.06458,1.49125 -0.235133,3.84162 -1.009191,4.71246 -0.900097,-1.07429 0.228016,0.86513 0.573769,0.90259 0.0863,0.82748 0.435676,4.00677 -0.265917,3.69135 z m -3.295991,-0.97271 c 1.523435,0.1292 -1.039408,-2.25672 0.464927,-2.33151 -0.304419,0.74701 2.208489,3.10751 -0.464927,2.33151 z m 9.962369,-0.6155 c -1.103342,-1.06379 2.084949,-0.16751 0,0 z m -1.495703,-1.60825 c 0.832821,-2.21488 1.823948,-4.3841 2.949197,-6.46572 0.04291,0.91934 -0.860477,3.03241 0.469977,3.71924 -0.08629,1.27137 -1.041178,4.34989 -1.576628,1.55314 -0.76202,0.0974 -0.714173,2.06973 -1.842546,1.19334 z m 7.276042,-0.52599 c 1.202464,-0.88557 -2.020125,-4.15433 0.742736,-3.05597 0.485279,1.0505 1.601681,-1.3825 1.054286,0.49461 -0.470283,0.48524 -1.046334,3.22316 -1.797022,2.56136 z m -18.337527,-4.49791 c -0.802814,-3.28597 -1.237439,-6.67061 -2.428822,-9.86027 -0.485834,-0.89028 -0.249808,-2.62327 0.592283,-0.83602 1.121333,1.18797 1.465909,3.64746 1.656506,4.24935 0.378615,0.90969 0.827593,2.34062 0.660045,3.67575 0.971227,1.30079 -0.493526,1.82842 -0.153099,3.31027 -0.0164,0.38592 -0.268005,-0.51416 -0.326913,-0.53908 z m -4.371896,-0.73916 c -0.443038,-1.02011 -1.11179,-4.57475 -0.736894,-4.22178 0.3241,2.04437 0.961336,-1.9958 2.04924,0.0351 0.59351,0.90729 0.74012,1.76278 -0.124642,2.08898 1.598506,-0.39625 2.404258,2.96562 0.641637,0.78885 -1.711993,-0.90223 -0.166002,1.88789 -1.829341,1.30882 z m 0.755335,-3.51412 c 0.335816,-1.9733 -1.145543,1.81832 0,0 z m 25.268134,2.70352 c 1.012086,-1.96361 -2.186947,0.33686 -0.647759,-1.19916 1.835465,-1.60894 -0.831575,-1.50679 -1.33987,-0.21459 1.072852,-2.28891 2.904077,-4.16372 4.352119,-6.2308 0.6065,-1.13083 2.979527,-2.50983 1.711774,-0.15721 -0.991152,2.16256 -1.868899,4.54533 -3.494324,6.28563 0.919579,-0.14369 -1.192511,2.91903 -0.58194,1.51613 z m 1.448454,-2.94816 c 0.918666,-1.76098 -1.273908,0.72997 -0.27541,-0.98096 -0.367015,-1.93762 -0.528567,0.15621 -1.017539,0.29438 -1.080201,0.23915 1.637113,2.30822 1.292949,0.68658 z M 74.44375,184.5 c -0.256406,-1.2638 2.60735,-3.98967 1.394183,-1.34527 -0.190708,0.34458 -0.869073,1.83022 -1.394183,1.34527 z m -1.045866,-1.18438 c 0.201514,-1.37272 1.641552,-1.35652 0.557506,-0.0282 0.02444,-1.05556 -0.3776,0.39717 -0.557506,0.0282 z m -2.552467,-2.62286 c 0.659222,-1.06877 -0.123721,-1.10506 -0.537334,-2.16697 1.553723,-1.16569 -0.01378,-3.18 1.404396,-4.45343 -0.645146,-2.3267 1.509797,-4.58482 2.53982,-6.58535 1.237561,0.89524 -1.005928,4.17507 -1.120892,5.90082 -0.750308,2.54801 -0.741101,5.31623 -1.8406,7.75086 -0.429646,0.66902 -0.519664,-0.0864 -0.44539,-0.44593 z m -4.927751,-1.09662 c -0.296552,-1.75682 1.579399,-1.02451 0.380924,0.13962 l -0.191497,-0.0193 -0.189427,-0.12033 z M 53.54626,177.31362 c -1.178001,-0.63551 -2.037956,-4.55846 -0.256264,-2.053 0.307824,0.4502 1.803963,3.51908 0.256264,2.053 z m 9.951754,-6.10268 c -0.58065,-1.33916 0.971886,-0.9445 0.755656,0.27973 -0.160779,0.63127 -0.77995,0.15568 -0.755656,-0.27973 z"
         id="path498" /><path
         style="fill:#4c756e;stroke-width:0.264583"
         d="m 63.951113,223.3545 c 0.915082,-1.78096 -2.358531,0.60948 -2.375221,-1.5148 -0.784285,-1.67041 -1.498853,-3.7627 -2.255127,-5.6387 -1.027001,-3.1013 -2.309543,-6.10601 -3.59235,-9.1029 -0.596369,-1.63874 -1.878695,-3.90793 -1.940325,-4.66346 -1.676617,-2.35621 -1.449256,-5.39156 -2.561322,-7.98457 -0.859702,-1.29226 -1.145228,-5.60722 0.379606,-2.26187 0.141846,1.4336 3.324516,3.65344 2.514591,0.94249 -0.53035,-0.97393 -0.405782,-2.98776 0.293054,-1.05475 1.145819,1.44735 2.003366,3.21473 2.914182,5.11324 0.596067,1.02511 1.756092,4.63679 2.191184,3.95347 -0.520306,-1.18355 -1.158336,-3.46053 0.911342,-2.19814 3.081381,-0.69989 1.559307,3.84354 2.277519,5.60131 0.370491,3.20697 0.548102,6.48029 1.43618,9.59405 0.477452,-1.38004 -0.603609,-4.64753 -0.557505,-6.70357 -0.259991,-3.06711 -0.71708,-6.13617 -0.700055,-9.21417 0.970185,0.18637 1.996881,-2.19012 2.830705,-1.02289 -0.09415,0.61671 -1.890802,2.22477 -0.236316,1.32234 0.370333,3.04764 -0.147278,6.18115 -0.229059,9.26044 -0.247267,1.14306 0.17575,3.53338 0.419322,1.10481 0.318113,-2.36868 0.125055,-4.8236 0.739466,-7.13839 1.086095,0.12181 2.702102,-0.45994 2.007823,1.54107 -0.06316,1.69648 -1.05794,4.30066 -0.608305,5.41314 1.014816,-2.32882 0.744435,-5.2005 1.907826,-7.37217 2.154878,-2.01276 0.471818,2.53288 0.805942,2.52566 1.235133,-2.03338 1.529112,-4.67775 3.117694,-6.43372 0.01747,-1.38512 1.078197,-0.91765 0.400977,-2.10708 0.918982,-1.90247 0.963187,-3.86655 1.899315,-5.6437 0.714766,-0.917 2.064583,1.56013 0.442304,1.97283 -1.506978,2.03198 -1.34522,4.76542 -2.08462,7.10871 -0.289771,2.16146 -1.26714,4.64571 -1.544776,6.5045 1.847379,-2.93183 2.464298,-6.66921 4.958772,-9.15852 0.814933,1.23926 -0.785013,2.35109 -0.331607,3.34872 2.19055,-1.48195 -0.378649,3.3359 -0.128116,0.56447 -0.566702,0.27634 -1.071972,2.34338 -1.614802,3.4379 1.792476,0.01 -0.386969,2.52114 -0.823713,3.47684 0.490619,-1.17857 0.07521,-1.73941 -0.53737,-0.29818 -0.199552,0.70343 -1.826997,3.98211 -1.014479,3.40989 0.80357,-0.46355 -0.694905,2.32475 -1.02122,3.11874 -1.369487,2.2113 -2.173276,4.57672 -3.006672,7.03357 -0.312889,1.73963 -1.558126,3.50479 -3.449271,2.46299 1.283983,1.26489 -2.228473,1.05226 -1.835573,0.7004 z m -3.800702,-15.20653 c -1.943638,-4.18418 -3.301842,-8.61024 -5.095031,-12.85041 -2.689854,-1.34619 -0.216221,3.09264 0.04923,4.28436 0.278234,0.85585 1.575406,3.2608 0.837467,0.85607 -0.450999,-1.22415 -0.742426,-3.42525 0.123642,-1.01874 1.63817,4.09708 2.988816,8.3925 5.278708,12.17272 -0.03701,-1.11251 -0.783972,-2.34336 -1.194013,-3.444 z m 15.219381,-3.00422 c 0.729861,-0.52906 -0.01344,-2.16883 -0.325496,-0.42113 -0.250021,0.23617 0.612379,1.1397 0.325496,0.42113 z m -4.466651,-5.24108 c -0.06196,-1.13101 1.663933,-4.06671 0.787177,-1.33219 -0.06599,0.32283 -0.203798,1.86187 -0.787177,1.33219 z m -3.576058,-0.5053 c -2.05071,-0.19524 1.005279,-3.32044 0.243358,-0.59708 -0.03867,-0.0163 -0.135582,0.79027 -0.243358,0.59708 z m 10.986238,-0.81463 c -0.05694,-1.79335 0.354228,-3.14433 1.671591,-4.79963 0.640171,-1.16042 1.4135,-1.45124 0.44329,-0.0461 -0.556634,1.61261 -0.813056,3.72113 -2.114881,4.84569 z m -19.479988,-3.47152 c -1.190144,-2.28751 1.843588,0.56965 0.116582,0.17159 l -0.116582,-0.17158 z m 7.672917,-0.81539 c 0.215567,-3.10672 2.478345,1.86229 0.09745,0.85242 l -0.07656,-0.32339 z m -1.966272,0.21014 c -1.016199,-0.9334 0.313307,-3.83403 0.818586,-2.26066 0.696141,-1.11845 1.005915,1.63416 -0.09597,1.33371 0.954659,1.02415 -0.700855,0.42898 -0.03292,1.34963 -0.28961,0.11935 -0.542291,-0.29597 -0.689702,-0.42268 z m 8.547782,-2.01812 c 0.141768,-2.02188 -1.085164,-0.95575 -2.013877,-0.45992 0.522846,-2.00998 1.575951,-3.96485 2.467365,-5.86654 0.131667,1.19898 -1.268055,2.96945 -0.182977,3.82311 -0.181194,-2.93729 1.315189,1.13506 0.172941,2.00216 -0.03257,0.0657 -0.351883,1.17567 -0.443452,0.50119 z m -15.055627,-0.94809 c -0.135887,-1.61879 -1.298429,-2.65149 -2.08261,-3.40881 1.667156,-0.66214 2.577481,1.85809 2.222352,2.38688 0.872043,-0.15829 0.800997,1.47865 -0.139742,1.02193 z m 20.512645,-0.94716 c 0.570422,-0.91309 -2.209001,-1.46674 -0.437909,-1.68531 0.786493,0.63411 1.497878,0.3196 1.883754,-0.22506 -0.186111,0.59058 -1.683353,4.53244 -1.445845,1.91037 z m -16.36968,-0.33166 c -0.384905,-0.74662 0.0036,-3.0669 0.267489,-0.9189 0.138228,0.41472 0.08639,2.37139 -0.267489,0.9189 z m -8.854858,-1.02228 c -0.540845,-1.12727 -0.178788,-3.62245 0.61047,-1.21786 0.809811,0.90112 -0.485384,3.72321 -0.553716,1.46373 l -0.03137,-0.13591 z m 13.867775,0.6254 c -0.287128,-0.98811 0.522512,-3.01025 0.35383,-0.79375 0.108331,0.54245 -0.112141,2.32042 -0.353827,0.79375 z m -2.827718,0.1043 c 0.652258,-1.70928 -0.46952,-3.34618 1.479424,-4.63263 0.268081,1.56408 0.623503,3.4143 -0.459541,4.84737 -0.316428,0.0604 -0.857136,0.14636 -1.019883,-0.21474 z m -12.276506,-0.70393 c -0.707605,0.23961 -0.821772,-1.59953 -1.213911,-1.62518 0.422541,0.11296 2.240979,2.44076 1.213911,1.62518 z m -2.966106,-1.56311 c -0.783875,-1.10885 -2.307879,-5.30579 0.0034,-2.67479 0.956156,0.86174 2.294118,2.70264 0.234202,2.32357 0.213377,0.50906 0.220942,1.28291 -0.23761,0.35122 z m 10.527599,-0.61538 c -0.612842,-2.58014 -1.006112,-5.21243 -1.708011,-7.77445 0.377478,-1.15625 -1.700404,-2.14488 -0.693521,-3.21119 0.95595,1.14919 3.199201,4.35653 1.541299,4.62709 2.162015,0.67349 -0.744221,3.89082 1.859167,4.82027 -1.094697,0.14786 -0.310193,3.17362 -0.998934,1.53828 z m -4.481542,-1.0559 c -0.814552,-0.78599 -0.400126,-4.20933 0.314418,-3.15491 -0.597283,1.92418 1.696753,0.42733 1.140383,-0.22096 1.477348,1.4018 -1.087545,1.56612 -0.695634,3.175 -0.116874,0.68405 -0.285025,1.5104 -0.759167,0.20087 z m 19.28436,-1.58769 c 0.07848,-1.41132 2.580439,-3.76339 1.196849,-0.97962 -0.04141,0.20698 -0.99982,1.72442 -1.196849,0.97962 z m 5.395365,-0.94756 c 0.649873,-1.33197 1.458264,-1.37883 0.272074,0.0531 -0.457551,0.65196 -0.87383,1.09293 -0.272074,-0.0531 z m 2.806417,-2.20764 c -1.07436,-1.69286 1.551506,-3.48033 2.762152,-4.55512 0.100826,1.07222 -0.466342,4.57544 -2.408954,4.0059 0.205526,0.16978 -0.413642,1.36863 -0.353198,0.54922 z M 71.25955,180.4294 c 0.493623,-1.00679 -2.030779,-1.87411 -0.0097,-2.35652 0.923655,1.06855 -0.68281,-2.85581 0.283507,-1.10725 0.55914,1.73444 0.977911,-3.26365 -0.595352,-1.19063 0.827991,-0.79366 0.37504,-2.82896 1.757747,-2.90414 -2.501124,0.14327 0.459622,-3.07934 0.888981,-4.33884 1.218518,-1.72669 -0.589061,1.7223 0.744201,-0.065 0.170138,-3.01294 0.687659,1.73154 -0.58135,1.69545 0.143276,2.16818 -1.554153,3.78422 -1.258822,5.85157 0.322469,1.58889 -1.33261,2.68428 -0.771559,3.52964 0.45167,0.47702 -0.839347,2.52934 -0.457616,0.88568 z m -17.907859,-3.31876 c -1.131181,-0.70868 -1.455633,-4.13421 -4.84e-4,-1.63464 0.264917,0.43626 1.560066,3.18275 4.84e-4,1.63464 z"
         id="path496" /><path
         style="fill:#33625b;stroke-width:0.264583"
         d="m 67.78601,222.52596 c -0.427315,-0.73884 -1.951445,-1.08552 -2.589441,-1.70857 -0.947547,0.20259 -2.056492,0.75393 -0.289295,0.6543 2.141571,1.99902 -3.300204,-1.50463 -2.46096,0.93274 -1.991243,-0.50031 1.810609,-2.04759 -0.430226,-1.65439 -1.405817,-1.14635 -2.051098,-3.46852 -2.753377,-5.19769 -1.02035,-2.27258 -1.75067,-4.76773 -2.766529,-6.969 -0.383652,-1.91001 -1.955046,-3.90068 -2.291002,-5.54803 -0.02896,-0.80746 -1.115806,-3.16981 -1.113022,-2.1279 -0.540539,-1.69239 -1.092124,-3.87168 -1.064209,-5.13438 2.298545,1.22409 -0.610798,-2.73093 -1.015638,-3.53394 0.207927,1.1931 0.994999,4.41453 0.04307,1.57881 -0.562592,-1.00037 -1.073878,-4.45637 0.349029,-1.82626 1.656922,2.45816 2.6973,5.21911 3.760221,7.96407 0.294006,1.00001 1.530499,2.85033 0.900199,0.66182 -0.253942,-0.73345 -1.068566,-4.3074 -0.182713,-1.7361 1.597366,4.32433 3.265733,8.63908 5.331533,12.76366 0.786127,0.0833 -0.969015,-3.39509 -1.501085,-4.54016 -1.834467,-3.93354 -3.018823,-8.13298 -4.732445,-12.10729 -1.8699,-0.76577 1.365769,-3.00282 0.580333,-0.90442 0.478107,1.13959 2.914495,3.77717 0.994377,3.49153 0.879269,1.08577 2.378404,2.90458 3.151745,4.62264 -0.11958,-1.31369 -0.367676,-2.33242 0.314671,-0.51002 0.525336,1.63775 0.265363,0.17573 0.173665,-0.69167 -0.207801,-2.33916 2.876967,-1.29195 2.205977,0.61971 0.40326,4.20991 0.767257,8.44566 1.684829,12.57996 0.887466,1.27064 -0.04244,-2.32896 -0.02817,-3.0134 -0.424206,-4.09346 -1.04772,-8.21849 -1.201486,-12.31062 1.716705,-0.70446 1.435306,1.2557 2.525426,1.11816 0.332043,1.32719 0.01856,3.55241 -0.06063,5.51765 0.05115,1.29625 -0.333161,3.93548 0.180143,4.43885 0.565426,-2.44855 0.181947,-5.06905 0.893673,-7.47282 3.272872,-0.94167 1.312087,3.31078 1.367394,5.09155 -0.379328,3.34464 1.002691,-1.47416 0.998616,-2.56323 -0.428191,-1.24947 1.629744,-4.25286 1.579186,-1.62028 -0.295739,0.86745 -0.805876,2.81605 0.06221,0.94909 0.943099,-1.87044 1.664443,-4.33913 2.858339,-5.76253 -0.676213,-1.37655 1.235976,-0.94724 1.312284,-2.14544 -0.214331,3.13589 -1.513749,6.08433 -1.974503,9.165 1.348912,-1.9269 2.116263,-4.86959 3.470141,-7.06071 0.360274,-0.82727 1.856631,-3.45161 1.420689,-0.95473 -1.180614,4.31002 -3.238718,8.32089 -4.689617,12.54371 -1.124228,1.81981 -0.782592,4.27537 -2.188992,5.50642 -0.571325,2.50676 -1.459496,5.05348 -2.838341,7.23884 -0.207351,0.0539 -0.155941,-0.35851 0.01393,-0.34493 z m 0.696857,-1.57336 c 0.874783,-1.13966 -0.53239,-0.0489 -0.843266,-0.64154 0.782622,0.49411 -0.709993,2.22114 0.63152,0.97548 l 0.211763,-0.33389 z m -3.8287,-0.49609 c -1.073583,-0.81377 -1.646385,0.79614 -0.05181,0.0899 z m 5.273069,-3.47266 c -1.47565,-0.95752 -0.127219,2.49795 0,0 z M 58.814902,208.0059 c -0.932586,-1.27886 -1.506024,-4.25341 -2.686298,-4.44004 0.68627,1.96548 2.020149,3.88044 2.914502,5.84838 0.594975,1.3499 1.483875,2.28476 0.52812,0.28443 -0.241985,-0.56871 -0.49571,-1.13238 -0.756324,-1.69277 z m 17.720117,-9.08574 c 1.002479,-1.78199 0.03452,-1.09775 -0.511688,0.1996 -0.768756,1.16397 -0.578848,1.92787 0.244433,0.29885 l 0.136985,-0.2471 z m -2.015318,-3.73012 c -0.917011,-1.39955 1.757485,-4.04224 0.746811,-1.08915 -0.160471,0.22173 -0.288446,2.46028 -0.746811,1.08915 z m 4.421966,0.57018 c 0.420242,-1.37945 1.926331,-2.73001 0.526431,-0.5985 -0.07244,0.032 -0.536111,1.06501 -0.526431,0.5985 z m -14.552084,-2.53834 c 0.650425,-1.6948 0.612303,2.02106 0,0 z m -10.241571,-0.52365 c -0.468018,-2.25051 1.03266,2.02149 -2e-6,0 z m 19.059409,-1.24667 c -0.109448,-1.33619 1.611272,-2.64901 0.571778,-0.53528 -0.139073,0.88539 -0.71122,2.18793 -0.57178,0.53528 z m -1.240793,-1.30854 c -0.0399,-1.12897 1.306351,-2.43542 0.74118,-0.39488 -0.04838,0.28376 -0.469299,0.70175 -0.74118,0.39488 z m -14.553372,-0.74583 c -0.609714,-3.24757 1.500226,1.4201 0,0 z m -4.218479,-1.1936 c -0.764236,-1.94591 0.941,-1.17639 0.810953,0.22653 -0.501992,-0.43704 -0.619111,0.73619 -0.810953,-0.22653 z m 12.25314,0.4598 c -1.043801,-1.12556 0.431106,-2.77379 0.79375,-1.01045 0.01167,0.4695 -0.21277,1.06115 -0.79375,1.01045 z M 48.48968,186.42512 c -0.192709,-0.95249 -1.410687,-3.40747 0.345591,-1.71685 0.918176,0.84031 2.760816,2.89852 0.35606,2.35755 -0.364681,0.01 -0.614594,-0.32753 -0.701651,-0.6407 z m 6.676219,-0.52981 c -0.397953,-1.33583 -0.981036,-3.35344 0.407951,-1.40983 0.08693,0.7117 0.155593,3.63226 -0.407951,1.40983 z m 19.677546,-2.36681 c 0.344622,-1.41468 1.867831,-2.2077 0.81409,-0.21476 -0.236568,0.75186 -1.703605,1.86422 -0.81409,0.21476 z m 8.773007,-3.0327 c -3.028573,0.18592 0.80419,-2.76206 1.609631,-3.59537 0.630454,0.0678 -0.54994,4.2784 -1.609631,3.59537 z m -30.272096,-3.58971 c -0.933018,-0.52863 -1.529148,-3.72864 -0.120136,-1.67608 0.185868,0.3328 1.537602,2.94018 0.120136,1.67608 z"
         id="path494" /><path
         style="fill:#2c5d55;stroke-width:0.264583"
         d="m 59.163618,215.00285 c -0.396325,-0.64323 -1.692866,-4.37888 -0.657887,-2.18116 0.513493,0.49501 0.798722,2.15838 1.442173,1.09436 -1.463652,-0.54053 1.10379,-1.57133 -0.945254,-1.55079 -0.856311,-1.04423 0.79907,0.43412 1.130179,-0.48645 1.504826,2.45576 0.02573,-1.4852 -0.192985,-1.73592 0.718236,0.6159 1.979723,3.29518 1.544267,1.01357 -1.008281,-1.30596 0.690012,-2.76156 -0.3917,-3.79115 1.161029,-0.60263 0.178475,-2.29739 0.136092,-0.63392 -0.633402,-1.14898 -1.887195,1.10028 -2.06865,-0.87377 -0.569544,-0.64488 -0.491116,-2.60983 -0.04129,-1.12313 0.755223,-0.4025 2.376194,-0.15452 1.379863,0.85816 -1.641267,-1.22617 0.216634,1.1077 0.924021,-0.26364 2.442249,-0.3305 1.229712,3.7951 1.968754,5.36353 -0.01672,1.36824 1.14406,4.14669 0.542691,4.57003 -0.665987,-0.6129 -0.274468,1.74708 -1.299864,0.20828 -0.06997,-1.71736 -4.837349,-0.62351 -1.752374,-0.4448 1.78326,0.39576 -1.394846,0.30584 -1.183949,0.55685 0.944461,1.87145 -0.26238,0.34125 -0.534084,-0.58005 z m 7.842353,0.11817 c -0.675983,-0.74931 0.424891,-1.96398 -0.92309,-0.84814 -1.005447,0.20025 -1.25444,1.6403 -1.508928,-0.14153 -0.565911,-2.74689 -0.813455,-5.54389 -1.137838,-8.32614 1.803185,-0.31249 1.316687,-2.78369 -0.301597,-2.9618 0.377758,-0.25658 1.631575,-0.92162 1.473175,-1.93299 1.057658,0.4358 -0.545042,1.63037 0.704859,2.24935 0.262339,2.41278 -0.404175,4.90034 0.06053,7.27565 0.773438,-2.33998 0.285069,-4.94791 0.988478,-7.32277 0.705544,-0.72832 2.482536,0.7788 1.78904,1.80052 -0.130776,1.08099 -1.006795,4.10235 -0.204402,3.77354 0.72541,-1.77798 0.34847,-4.19751 2.178863,-5.27208 -0.272834,1.16996 -1.222244,4.6028 0.114388,1.68557 0.14457,-1.01747 2.192073,-3.76442 0.86852,-1.5028 0.134851,0.94294 2.6249,-3.07531 1.979267,-0.42885 -0.777064,2.20217 -1.761193,3.88286 -2.457739,6.18105 0.138833,1.70388 1.434697,-3.65303 2.367402,-1.96269 -0.768274,-2.28839 1.671397,-4.21912 2.459016,-6.24524 0.494809,-0.75552 2.133774,-4.18833 1.243213,-1.48167 -1.828338,4.98838 -3.80845,9.92295 -5.774837,14.85646 -0.345291,-0.42036 -3.550737,-2.28798 -2.53052,-0.002 -1.251434,-0.5191 -1.002733,0.56366 -1.068826,0.84044 l -0.318982,-0.23398 z m -10.646643,-7.44974 c -0.549874,-2.34078 -2.028626,-4.46206 -2.807855,-6.9531 -1.19851,-2.76733 1.268669,1.11671 1.716922,2.04503 0.872314,1.85746 2.527293,3.87714 2.852327,5.66316 -1.424248,-1.59259 -1.028101,1.07291 -1.761394,-0.75509 z m 2.088005,-0.74159 c -0.560952,-0.91819 -1.322418,-3.62149 -0.12125,-1.52779 0.462937,0.91879 1.80913,4.39509 0.251866,1.80682 z m -1.577608,-3.67589 c -0.800455,-0.9169 -0.06129,-2.73662 0.143001,-0.61655 0.670878,0.77932 0.655443,1.97045 -0.143001,0.61655 z m 1.507819,-1.05292 c -0.863502,-1.33073 1.514038,-1.50549 0.291127,-0.49671 -0.815054,-0.1537 0.738284,1.33096 -0.291127,0.49671 z M 73.247219,201.175 c 0.0043,-1.22479 1.362058,-3.81486 0.537724,-1.11291 -0.201471,0.6574 -0.7809,3.0037 -0.537724,1.11291 z m -20.322383,-5.71579 c -1.250803,-2.62219 0.862311,0.22555 0.822721,1.36476 -0.373334,-0.38854 -0.574148,-0.89642 -0.822721,-1.36476 z m 2.629513,1.06394 c -0.900587,-1.78891 1.102728,-1.84545 1.016082,-0.17651 -0.189066,0.44218 -0.820481,0.91735 -1.016082,0.17651 z m 19.222218,-3.19746 c 1.475948,-2.04112 -0.179605,2.13101 3e-6,0 z"
         id="path492" /></g></g></svg>
