<?xml version="1.0" encoding="UTF-8" standalone="no"?>
<!-- Created with Inkscape (http://www.inkscape.org/) -->

<svg
   width="38.833157mm"
   height="57.751575mm"
   viewBox="0 0 38.833157 57.751575"
   version="1.1"
   id="svg545"
   xml:space="preserve"
   inkscape:version="1.2.2 (732a01da63, 2022-12-09)"
   sodipodi:docname="touffe-natural_medium.svg"
   xmlns:inkscape="http://www.inkscape.org/namespaces/inkscape"
   xmlns:sodipodi="http://sodipodi.sourceforge.net/DTD/sodipodi-0.dtd"
   xmlns="http://www.w3.org/2000/svg"
   xmlns:svg="http://www.w3.org/2000/svg"><sodipodi:namedview
     id="namedview547"
     pagecolor="#ffffff"
     bordercolor="#666666"
     borderopacity="1.0"
     inkscape:showpageshadow="2"
     inkscape:pageopacity="0.0"
     inkscape:pagecheckerboard="0"
     inkscape:deskcolor="#d1d1d1"
     inkscape:document-units="mm"
     showgrid="false"
     inkscape:zoom="2.2173472"
     inkscape:cx="21.872984"
     inkscape:cy="73.962256"
     inkscape:window-width="2560"
     inkscape:window-height="1369"
     inkscape:window-x="-8"
     inkscape:window-y="-8"
     inkscape:window-maximized="1"
     inkscape:current-layer="layer1" /><defs
     id="defs542" /><g
     inkscape:label="Calque 1"
     inkscape:groupmode="layer"
     id="layer1"
     transform="translate(-99.504168,-157.18333)"><g
       id="g678"
       transform="translate(90.45,6.075)"><path
         style="fill:#b6c7c4;stroke-width:0.264583"
         d="m 23.268177,206.01675 c -2.158402,-5.02498 -3.589448,-10.33648 -6.039972,-15.24284 -1.366562,-3.0291 -2.73161,-6.07555 -3.903894,-9.17737 0.569782,-1.98374 -1.081671,-4.19461 -1.245474,-6.31987 -0.358789,-2.73208 -2.091884,-5.04821 -3.0246693,-7.60529 2.2142263,-0.11055 3.2506923,2.96877 4.6702563,4.43544 0.688354,1.16727 1.899552,2.34305 1.14887,0.16106 -0.847637,-1.48451 0.783276,-2.57273 1.106803,-0.55363 1.322311,3.7164 2.512034,7.53232 4.346899,11.02838 -0.191715,-2.08309 -1.203066,-4.36759 -1.587545,-6.55294 -1.253212,-4.28963 -2.515794,-8.57628 -3.445342,-12.95058 -0.150069,-1.65985 -1.749073,-3.9605 -1.08234,-5.2434 1.762768,1.22142 2.104354,3.64984 3.182602,5.42696 1.443789,3.12163 2.933035,6.27901 4.06663,9.49612 0.0071,-1.90048 -0.716997,-3.99907 -0.987067,-5.97539 -0.372244,-2.42659 -1.492832,-4.67888 -1.859402,-7.0882 1.803353,-0.12708 2.384194,3.42524 3.203944,4.9939 0.637433,1.37274 1.46282,5.23856 1.987544,5.00603 0.185849,-6.05692 -0.103165,-12.15615 0.704202,-18.17663 1.503266,-1.0564 1.619221,3.37097 2.120099,4.70697 0.485415,1.96287 0.81455,3.95925 1.036619,5.96798 0.05484,-1.23003 1.397568,-3.86185 1.60783,-1.14058 0.368243,1.83985 0.06491,6.3016 0.657566,6.56194 1.157198,-5.0996 2.790836,-10.12322 4.9765,-14.87743 0.247182,-1.31941 2.413541,-3.00954 1.736602,-0.48575 -0.826015,3.0073 -2.018067,5.91639 -2.340822,9.04312 -0.882268,4.73967 -2.024006,9.4463 -2.609024,14.23189 0.91734,-1.81215 1.450373,-3.96605 2.248051,-5.90115 0.690345,-1.09442 0.915685,-4.50016 2.463332,-3.71215 -0.150626,1.04905 -0.587441,2.96525 0.141427,1.04041 0.183363,-1.25791 1.980473,-2.36678 1.330302,-0.32563 -1.215643,3.59851 -1.673019,7.40011 -2.895368,10.99535 3.584773,-5.67046 6.704378,-11.74797 11.339201,-16.66692 1.081384,-1.40143 2.258625,-0.429 1.062214,0.87862 -3.503656,7.41226 -7.330752,14.66826 -10.812507,22.09016 1.091893,-0.95314 2.04563,-4.80039 3.292532,-3.95649 1.220005,-0.78231 1.946574,-4.10111 3.323645,-3.63337 -1.505471,4.29163 -3.61869,8.36426 -5.380093,12.5623 -2.749945,6.3612 -5.597639,12.68121 -8.128416,19.13475 -1.017123,1.084 -2.842929,0.42748 -4.243804,0.59532 -1.109563,0.37028 -1.238747,-0.76938 -1.614665,-1.52903 -0.184422,-0.41402 -0.368844,-0.82804 -0.553266,-1.24206 z m 2.21643,-13.01621 c -0.710323,-5.66244 -0.806254,-11.41802 -2.050362,-17.00259 -0.765243,-0.92036 0.312943,2.53164 0.301689,3.21911 0.839407,5.3855 0.865773,10.90565 1.910842,16.24102 0.06374,-0.81732 -0.08848,-1.64436 -0.162169,-2.45754 z m -3.47137,-0.78712 c -1.97511,-4.24839 -3.455731,-8.70087 -5.181935,-13.04647 0.08698,1.57721 1.238488,3.85058 1.832746,5.64069 1.298404,3.12623 2.373082,6.41069 4.070832,9.329 -0.114387,-0.67298 -0.464614,-1.29582 -0.721643,-1.92322 z m 6.10266,-11.33946 c 0.0089,-1.92396 0.119974,-4.67479 -0.09463,-6.0725 -0.276248,5.455 -0.344019,10.92096 -0.592326,16.37723 0.335202,-3.42609 0.5711,-6.86404 0.68696,-10.30473 z m 2.234543,8.59895 c 0.372892,-2.89027 1.130044,-5.71844 1.769345,-8.54754 -1.082125,1.66448 -1.195442,4.16586 -1.645279,6.21788 -0.113497,1.28334 -0.78006,3.50363 -0.551423,4.18175 0.250073,-0.58446 0.331016,-1.22855 0.427357,-1.85209 z"
         id="path692" /><path
         style="fill:#92aba7;stroke-width:0.264583"
         d="m 24.759371,208.57263 c -0.936012,-1.79005 -1.936373,-3.56181 -2.687053,-5.63148 -1.574431,-4.62869 -3.292936,-9.20496 -5.398025,-13.62181 -1.085558,-2.61208 -2.358571,-5.15224 -3.333383,-7.80589 0.707511,-2.18628 -1.415845,-4.50478 -1.235688,-6.80958 -0.09174,-1.88675 -1.69231,-3.83351 -2.4189615,-5.69906 -1.475022,-2.66371 1.7408715,-0.54548 2.0786415,0.62179 1.237016,1.49252 2.322807,3.13458 3.497817,4.64892 -0.129508,-1.00812 -1.276841,-5.08604 0.521779,-2.77472 1.001964,2.53566 1.53239,5.23837 2.800254,7.6754 0.721458,1.53337 1.960221,4.90001 2.501117,5.13734 -0.293195,-1.01792 -1.373851,-3.27487 0.02538,-2.51837 0.850837,-1.21888 -2.578577,-1.51433 -0.181915,-1.50815 0.153886,-1.50373 -2.03638,0.22407 -1.049052,-1.6215 1.427582,-0.43001 -1.984788,-1.18452 -0.661836,-2.671 -0.809889,-1.36414 -1.764762,-4.41668 -2.334756,-6.48368 -0.492357,-2.12297 -1.595539,-4.68104 -0.797858,-6.62923 -1.270955,-0.54109 -2.282598,-3.66304 -1.73999,-4.76182 1.682634,1.79472 2.380158,4.39929 3.561831,6.57414 1.302881,2.69379 2.295895,5.52986 3.535522,8.24253 0.599622,0.37852 -0.362399,-2.42562 -0.408478,-3.36969 -0.484067,-3.17565 -1.491051,-6.23188 -2.30576,-9.32177 0.536707,-1.7828 1.889865,1.98675 2.329473,2.67112 0.88224,2.13504 1.167208,4.45245 2.185282,6.55124 0.304181,0.76821 0.758624,2.39443 0.619573,0.64066 0.03594,-5.82974 0.243152,-11.65738 0.568206,-17.47599 0.763193,-3.15591 1.799585,2.01808 2.002067,3.21084 0.592721,2.03337 0.462923,4.42538 1.266876,6.27476 0.297583,-1.09461 1.237104,-3.50733 1.462484,-0.9344 0.4973,2.96234 -0.168346,6.0634 0.602432,8.96345 0.841425,0.25508 1.316377,1.69723 2.544246,0.57602 0.136588,0.92978 -1.098965,4.03712 -0.796653,1.74413 0.392727,-1.00245 -1.031673,0.82398 -0.507441,1.18164 -1.392706,0.9897 -0.341912,1.10541 0.552191,0.3689 0.602628,0.96953 -2.703389,1.00691 -1.785996,2.22989 0.441483,-1.54722 2.67734,-0.62031 1.332597,0.70578 1.778206,0.19204 0.464813,-1.66279 2.002455,-2.46476 -1.588001,1.03449 0.11851,-2.65096 0.936833,-3.16125 -0.191837,-1.13387 0.598432,-3.887 1.710886,-5.4668 1.355228,-0.47566 -0.679089,4.60582 0.785593,1.45387 0.17529,-1.38114 2.384054,-2.36297 1.1937,-0.26617 -0.0967,1.20797 -1.224626,2.73054 -1.47138,2.91641 0.540388,2.34625 -0.515182,4.7537 -1.168329,7.00209 -0.22586,0.82981 -1.202641,2.9977 0.144222,1.49324 0.785883,-0.073 -0.122904,-1.68577 0.962535,-2.40272 3.052928,-5.18603 6.212856,-10.37273 10.135316,-14.9529 2.716355,-2.159 0.172968,2.73898 -0.33627,3.73207 -2.553704,5.13438 -5.175671,10.24851 -7.790513,15.34369 -0.543201,0.35376 -1.721084,-1.20403 -1.175485,0.30136 1.702133,1.36412 -1.377884,4.12835 -1.555533,6.03704 -0.979566,2.94966 0.964593,-1.53979 1.372169,-2.4233 0.923922,-1.61979 1.878566,-4.60561 3.356298,-4.20457 0.830253,-0.72219 2.139735,-4.34515 2.902492,-3.18568 -2.39416,5.74182 -4.940462,11.4259 -7.494455,17.10286 -2.020982,4.81892 -4.152233,9.59589 -6.142149,14.4297 -1.429691,0.53733 -3.210569,0.63554 -4.713307,0.33541 z m 1.129819,-12.81586 c -0.954285,-6.57065 -1.09009,-13.23901 -2.21569,-19.7859 -2.100332,-2.29414 -0.101716,1.98666 -0.09684,3.06186 1.075278,5.74458 0.950395,11.66012 2.185014,17.37636 0.313768,0.68936 0.16383,-0.58852 0.127518,-0.65232 z m -3.819943,-3.55489 c -1.983654,-4.242 -3.509524,-8.67863 -5.140925,-13.05696 -0.691985,0.37222 1.079143,3.62491 1.399736,4.96018 1.415874,3.5419 2.704307,7.16821 4.554574,10.50986 0.231905,-0.38799 -0.61558,-1.7979 -0.813385,-2.41308 z m 6.033542,-8.81438 c 0.125664,-3.48471 0.336368,-7.01606 -0.115562,-10.47815 -0.292288,1.90833 -0.167563,4.18753 -0.260371,6.23819 -0.0054,4.50489 -0.340747,9.0002 -0.54136,13.49463 0.470937,0.57061 0.408678,-2.82548 0.560403,-3.67572 0.126948,-1.85913 0.241905,-3.71906 0.35689,-5.57895 z m 2.079826,7.0776 c 0.673757,-3.32054 1.184601,-6.73307 2.243053,-9.93591 -1.482421,1.37479 -1.40175,4.1865 -1.971806,6.18507 -0.111279,1.18524 -1.104788,5.04587 -0.490961,4.73187 l 0.108297,-0.44168 z m 3.347808,-9.94163 c 1.203323,-2.42889 -1.61962,0.61329 0,0 z m -7.542922,-3.35592 c 0.379902,-1.18284 -0.397838,-3.11434 -1.004558,-1.02413 0.935945,0.81482 -0.09829,1.89997 0.882462,3.27533 0.154478,-0.73296 0.09647,-1.50539 0.122096,-2.2512 z m 5.820833,0.3835 c -1.533525,-1.16433 -0.662176,1.18019 0,0 z m -9.950182,-2.78415 c 0.256894,-1.64553 -0.208123,-1.03138 -0.533821,0.0259 -0.986957,0.57192 0.538357,0.45436 0.533821,-0.0259 z m 12.01724,-1.9462 c -0.20619,-0.92183 -1.258597,1.10042 -0.183762,0.27924 z m -2.679703,-2.30488 c 0.375707,-0.96738 0.322852,-0.84779 -0.69206,-0.73167 1.508328,-1.37982 2.886769,0.1189 0.809972,0.75383 l -0.117914,-0.0222 z m -1.328642,-1.8127 c 0.726278,-4.48904 2.575825,-8.67273 3.7897,-13.02567 0.626218,-1.24022 1.799061,-4.95432 3.088243,-4.41325 -0.434439,2.98237 -1.799455,5.7592 -2.257571,8.75319 -0.628661,2.96532 -0.979735,6.01268 -1.89164,8.90537 -0.986569,-0.23265 -2.582031,0.0819 -2.797408,0.35451 l 0.02622,-0.24382 z"
         id="path690" /><path
         style="fill:#6f908b;stroke-width:0.264583"
         d="m 24.36874,207.46458 c -1.155156,-1.94555 -2.21466,-4.02773 -2.899236,-6.25869 -1.171931,-3.61578 -2.519034,-7.16656 -4.179622,-10.58662 -1.209928,-3.19473 -2.983924,-6.19926 -3.844883,-9.50751 1.262826,0.76336 -0.627056,-2.46506 -0.729007,-3.62278 -0.541743,-2.21528 -0.630607,-4.40349 -1.998567,-6.36474 -0.7320693,-0.99526 -2.0943482,-5.1248 0.159562,-2.46775 1.605924,1.83979 3.13458,3.99967 4.399167,5.95138 -0.07059,-1.07291 -1.007091,-5.51824 0.604846,-2.91057 1.02008,1.51362 -0.288626,3.04311 0.70388,4.3132 1.102634,1.13309 1.862832,3.27602 2.788708,5.15358 0.387944,0.7541 1.456809,3.87608 1.745589,3.12672 -0.798698,-1.83136 0.886725,-3.35457 -0.461383,-5.20944 -0.73045,-2.08262 -1.047258,-4.41071 -1.956398,-6.36057 -2.029043,-1.14794 -1.816078,-4.2739 -2.583449,-6.32655 -0.392351,-1.44299 0.82039,-1.09036 -0.437189,-2.45949 0.277598,-0.91621 0.525304,1.13332 1.712167,0.48801 1.271037,1.6267 2.446881,4.4101 2.81125,6.04328 -1.087083,-0.71489 -1.788276,-1.5867 -2.052618,-0.11341 -0.720081,1.77859 3.015264,1.75681 2.531416,4.01512 0.389333,1.93836 1.660638,4.17545 1.598811,5.68629 -1.054112,0.25382 1.42935,0.95156 1.511194,0.38344 0.768346,5.76712 0.93217,11.63486 2.207442,17.32186 0.247049,-1.51791 -0.564003,-4.65698 -0.636396,-6.73725 -0.238064,-3.14359 -0.803147,-6.30064 -0.626051,-9.45441 0.745171,-0.25786 0.812623,-1.38395 -0.337934,-0.81675 0.696444,-1.12295 -1.187984,-3.85481 -0.497094,-5.74825 0.506227,-1.70958 -2.220325,0.71694 -1.557265,-0.85222 1.167351,-0.40775 1.683742,-1.78573 1.640265,-3.40291 0.823584,-0.0888 3.235513,-0.39498 2.578618,-2.58067 0.527587,-2.27761 0.03133,-4.05461 1.283814,-5.91002 0.108978,-1.80005 2.321626,-0.55146 0.52051,-0.32897 1.188552,0.13607 0.549222,2.6218 0.474834,0.60556 -0.57328,1.14338 -0.519492,2.07504 -0.967536,2.91046 -0.09241,2.22194 0.880583,3.63802 0.377174,5.31378 0.279046,0.72478 0.07781,3.78752 0.536992,1.51787 0.459434,-0.83035 0.05036,-1.82115 -0.134188,-2.10926 0.742494,-0.27746 0.576927,-3.76697 0.731598,-1.35867 0.109888,1.7355 1.072668,1.70394 0.360874,3.28918 0.04592,2.34539 -0.272291,4.83977 0.24613,7.09662 1.309745,-0.37226 -1.590786,1.97262 0.273765,1.84689 1.853701,-0.77378 0.140986,-2.97837 1.622673,-3.26796 0.860961,-2.19964 1.758758,-4.41966 2.685534,-6.55578 -0.120249,-1.45002 1.960166,-2.27525 2.176777,-4.2083 0.797921,-2.22185 1.947437,-0.91191 0.693009,0.70971 0.222756,1.41435 -2.853493,2.26163 -1.392255,3.19747 0.866498,-1.63653 -0.167859,1.95016 -0.06622,2.70504 -0.431415,1.95859 -0.714012,4.15964 -2.574744,5.05526 -0.529686,1.55909 -1.592384,4.71966 -1.161787,5.65853 0.515831,-1.92939 1.335237,-3.90414 2.802193,-5.3125 -0.938535,0.74872 -0.849872,2.71577 0.276474,0.97315 1.030647,-2.0488 1.266893,-4.26406 2.20864,-6.23383 0.584751,-2.81359 3.961359,-0.59114 4.388318,-2.76119 -1.223267,-0.85044 -0.288786,-1.46347 -0.34185,-2.33707 -0.846626,-0.30568 0.580446,0.95398 -1.01055,0.80909 0.147793,-1.72944 2.733287,-4.24825 3.940989,-6.13171 0.495912,-0.93011 3.787414,-4.63405 2.78387,-1.59696 -0.943561,2.90678 -2.585228,5.52247 -3.996187,8.21479 -0.478144,0.70292 -1.258814,-0.62839 -0.549327,0.58881 -0.162075,2.0464 -2.676885,5.08823 -2.851044,5.81154 0.09825,0.9086 -1.387458,2.19467 -0.825474,0.48792 -0.882744,0.51954 0.724378,-0.97192 -0.607201,-0.66245 1.542008,-1.63581 -1.680421,0.58504 -1.206868,1.88266 -0.371697,1.30947 -0.835702,3.1918 0.177995,3.62402 -0.937008,2.3795 -2.216782,4.74187 -2.835246,7.18171 1.740499,-2.94994 2.677509,-6.386 4.826401,-9.09453 0.70769,-0.25999 -0.343629,2.21943 0.652951,0.56549 0.744201,-0.95916 2.191625,-4.33922 2.875041,-3.72529 -1.554563,4.45661 -3.743845,8.65414 -5.50718,13.01572 -1.062972,2.1262 -2.215336,4.10613 -2.812121,6.40502 -1.934324,4.05231 -3.467215,8.33931 -5.375625,12.36254 -1.533302,0.91366 -2.19843,-1.47024 -2.789064,0.0489 -0.879374,0.19356 -2.034725,0.18216 -2.107911,-0.98549 z m -2.699533,-16.18601 c -1.819731,-3.95104 -3.12509,-8.11248 -4.731497,-12.14345 -0.97451,-1.09401 -1.172795,2.00379 -0.324287,0.67533 2.144467,4.91519 3.687775,10.11534 6.209405,14.87055 0.518253,0.0893 -0.981146,-2.83554 -1.153621,-3.40243 z m 6.637195,-11.99211 c -0.118287,-2.12892 0.548153,-4.56579 -0.400645,-6.48223 -0.399138,5.66146 -0.08631,11.36662 -0.635175,17.02807 -0.163081,0.8763 -0.192246,5.42828 0.22915,2.37643 0.44692,-4.29342 0.638403,-8.61037 0.80667,-12.92227 z m 2.172216,9.92187 c 0.49581,-2.92686 1.124491,-5.89778 1.970169,-8.70179 -1.533969,1.1743 -1.330827,3.7781 -1.904877,5.58226 -0.163208,1.32314 -1.182595,5.37602 -0.506632,5.16467 0.201388,-0.66872 0.328204,-1.35698 0.44134,-2.04514 z M 17.18792,182.19351 c -0.32344,-2.42896 -0.974908,1.13937 0.206707,1.32307 0.01487,-0.45134 -0.124107,-0.88527 -0.206707,-1.32307 z m 10.219393,-2.37472 c -1.699866,-1.07931 -0.845786,1.68595 0,0 z m -1.378632,-5.0724 c -0.163359,-1.24883 -2.593639,-0.59617 -0.83493,-0.0901 -1.127792,1.26575 0.332939,3.13746 0.424296,4.64512 0.256644,1.59857 0.283795,0.51011 0.318594,-0.4888 0.06542,-1.3536 0.171872,-2.71164 0.09204,-4.06618 z m -10.294686,2.69886 c 0.914452,-0.41419 -1.514956,-3.98398 -1.263631,-2.32184 1.665048,0.71863 -1.831404,1.9056 0.563592,2.51947 0.204954,-0.14286 0.416098,-0.36584 0.700039,-0.19763 z m 18.814264,-0.73415 c 0.518507,-0.44166 -0.528018,-2.52469 -0.709138,-0.56732 -0.728605,1.21556 0.04074,1.64592 0.709138,0.56732 z m 5.342162,-2.13281 c 0.281523,-1.15504 -2.207544,-2.87893 -0.702967,-0.88333 0.243967,0.46803 0.289355,2.37722 0.702967,0.88333 z m -16.835384,5.45139 c -0.190972,-1.048 -1.174586,-5.53588 0.0646,-2.36303 0.103381,0.41938 0.952548,2.63906 -0.0646,2.36303 z m 12.641455,-2.85657 c 1.085314,-2.11892 -0.05761,1.31104 -0.275151,0.65167 l 0.113867,-0.29339 z m -13.77874,-3.72135 c -0.329626,-2.26252 -1.061861,-4.4514 -1.380517,-6.74035 -0.362796,-2.37281 -1.512872,-4.59091 -1.667356,-6.98467 1.474451,1.01919 2.447913,3.47199 2.784326,5.40365 0.286275,1.0402 0.62512,2.66407 0.662884,2.72819 -0.837228,1.09243 1.524536,0.88616 0.379292,2.01757 1.69323,-0.40027 -0.648831,1.47232 0.77614,1.05682 -0.620763,0.71375 -1.78123,0.70859 -0.854646,2.06217 -0.04776,0.22831 -0.550667,1.18431 -0.700123,0.45662 z m 12.271832,-3.92125 c 0.488353,-0.66123 1.26225,-4.53718 2.02354,-3.21326 -0.406739,1.10565 -0.204365,3.63245 -2.02354,3.21326 z m -2.301573,-0.71487 c -1.088456,-0.13505 -2.359984,-2.43413 -0.478596,-1.39304 0.822784,-0.79822 -0.139815,1.04668 1.28595,0.83576 0.231758,0.52663 -0.386954,0.83786 -0.807354,0.55728 z m -7.748543,-1.0764 c 0.267844,-1.6008 3.614178,-0.1 0.953881,-0.27949 -0.392946,-0.33463 -1.072248,1.11147 -0.953881,0.27949 z m 8.242261,-0.51883 c -0.146515,-1.05401 0.320525,-1.90497 -0.754161,-2.63055 0.450714,-1.47286 -1.19485,0.36249 -0.369688,-1.28673 2.238103,-0.92491 1.220112,-4.36946 2.076959,-6.325 0.386927,-2.18272 1.584185,-4.20376 2.993411,-5.8698 0.824,1.8983 -1.19887,4.44962 -1.394456,6.61125 -0.897189,3.23076 -0.966261,6.69896 -2.138338,9.83475 l -0.11437,0.003 -0.29935,-0.33698 z m -8.203967,-1.36156 c -0.246072,-1.60067 0.623319,0.59732 0.520575,0.67682 -0.683121,1.04735 -0.516584,-0.25624 -0.520575,-0.67682 z m 0.02323,-2.65492 c -0.103999,-1.52436 0.366915,-1.54267 0.263498,-0.0289 0.608585,0.40304 1.440481,0.1729 0.04502,0.76934 -0.480992,1.12115 -0.203335,-0.59924 -0.308523,-0.74041 z m -7.609578,0.34529 c 0.667095,-1.02353 -2.675684,-1.77746 -0.786988,-1.95077 -1.247433,-0.29682 -2.690039,-5.07088 -0.735077,-2.744 0.50993,1.52518 2.290372,3.81217 1.774416,4.95388 -0.143831,0.0679 -0.365038,-0.12109 -0.252351,-0.25911 z m 11.777337,-3.03257 c 0.495849,-2.02215 1.018932,1.66016 0,0 z m -2.116667,-1.34683 c 0.877514,-1.26493 0.790407,0.95437 0,0 z m 0.1147,-1.81967 c 0.07863,-1.10864 -1.884408,0.365 -0.74926,-0.86434 -0.996194,-0.32287 -0.289849,-3.15672 -0.934904,-1.023 -1.480635,-0.92579 2.222436,-2.43028 -0.207169,-1.79769 0.381971,-1.96772 2.159602,0.90826 1.774591,2.03041 0.122359,0.18282 0.854567,3.53484 0.116742,1.65462 z m -2.099075,-0.42099 c -0.0757,-1.78306 1.271382,0.47654 0,0 z"
         id="path688" /><path
         style="fill:#5c827b;stroke-width:0.264583"
         d="m 24.840974,208.34652 c -0.764862,-2.16412 -2.407737,-4.00313 -2.999823,-6.32041 -1.328314,-3.90366 -2.792439,-7.75828 -4.494062,-11.51431 -0.829903,-2.02085 -1.914953,-3.9911 -2.630246,-6.08984 -0.210693,-1.31091 -1.062763,-2.3522 -1.291331,-3.29259 1.248134,0.50609 -0.5632,-2.74304 -0.595412,-3.54922 -0.667026,-2.40983 -0.65212,-4.79694 -2.272833,-6.90575 -0.5818314,-0.88695 -1.8791478,-4.39456 0.131597,-2.16019 1.411743,1.1705 2.424024,2.74451 1.191252,3.93424 1.228553,0.0634 -0.568009,0.38637 0.504454,1.04984 1.737553,-0.14672 -0.416125,-3.03834 1.385787,-1.06904 0.79987,0.83118 1.672524,2.78883 0.148488,0.98499 -1.242468,-0.20846 0.977151,2.14035 -0.819953,1.32718 0.08532,1.26983 2.14664,4.76627 2.94361,2.55141 -0.655249,-2.09433 -1.074566,-4.32206 -1.03822,-6.50528 2.267694,0.71421 -0.127616,4.01386 1.542393,4.79804 -0.56152,1.28475 1.862834,0.85856 0.854303,2.20295 1.668977,1.39086 1.859347,3.90703 3.01266,5.73648 0.431766,1.28762 1.347412,2.19913 0.588595,0.27867 -1.056904,-1.68185 1.288831,-2.066 1.885138,-1.21622 2.335525,-1.60895 0.78613,2.65976 1.500453,3.81057 0.475592,3.74531 0.558596,7.58933 1.628116,11.22591 0.496571,0.0766 -0.433166,-3.37451 -0.37949,-4.49345 -0.371283,-3.70511 -0.895757,-7.41005 -0.941788,-11.13716 0.593183,-0.95193 1.684995,-1.64569 3.11052,-1.55382 -0.277762,4.41954 -0.792151,8.85878 -0.58552,13.28187 0.695172,-2.48713 0.500779,-5.26635 0.879777,-7.86405 -0.076,-1.96939 1.354945,0.99034 2.241034,-0.76104 0.452548,1.52703 -0.637063,4.49849 -0.719796,6.58804 0.04574,1.7847 0.883594,-2.17609 0.93728,-2.76074 0.534266,-1.6124 0.06989,-4.57768 1.805681,-4.50392 0.584423,-0.93998 0.876167,-3.73205 1.734415,-3.59858 -0.0364,1.09316 -1.618534,3.8071 -0.538422,4.03735 0.460735,-2.13929 1.965211,-3.9979 2.357217,-6.23444 1.086017,-1.5864 0.565315,-5.36293 2.957575,-5.23988 0.852926,1.91074 -2.32837,3.26633 -1.804122,5.52586 -0.724267,2.6307 -0.996993,5.35676 -1.844979,7.93589 -0.565694,1.24369 -0.873905,2.9777 0.10383,0.85699 1.291424,-2.66693 2.236399,-5.58536 4.164664,-7.87942 0.394163,2.89522 1.773193,-2.31876 2.868386,-2.92315 1.506916,-1.74649 -0.652477,1.68536 -0.572901,2.46834 -1.842318,4.53389 -3.783914,9.03828 -5.942521,13.42949 -0.960742,1.0815 -1.033026,3.8986 -2.274482,5.48767 -1.624018,2.62083 -2.060811,5.80963 -3.722108,8.41474 -1.10765,0.47367 -0.707881,0.95961 -0.575052,1.4244 -1.568999,-0.49618 -4.60049,-1.16982 -4.284782,0.35386 l -0.149432,-0.13228 z m -1.878272,-14.04496 c -1.950296,-4.60063 -3.848736,-9.22431 -5.511073,-13.93876 -0.09672,-1.57955 -1.845381,-2.33708 -1.593139,-0.26664 0.544899,1.45483 1.11153,3.99548 1.959503,4.73093 -0.02287,-0.88775 -1.389397,-5.23853 -0.180166,-2.55864 1.655099,4.41473 3.228389,8.92297 5.575963,13.01845 0.06217,-0.32761 -0.188847,-0.67044 -0.251088,-0.98534 z m 12.918366,-2.07216 c 0.405398,-1.97119 -1.158656,1.37231 5e-6,0 z m -7.181588,-8.70353 c -1.017856,-1.52698 0.07268,-4.28173 -0.279527,-6.32977 0.205193,-1.92432 0.02257,-4.22684 1.003189,-5.84958 0.378251,3.57026 -0.164037,7.2539 0.402247,10.77262 2.26151,-0.46917 0.870465,-3.41963 2.813565,-4.43834 0.907539,-1.92719 0.874203,1.4713 0.22771,2.25397 -1.126856,0.75013 -1.438429,2.65836 -2.596413,3.15152 -1.229442,-1.45211 -0.279654,1.28021 -1.570771,0.43958 z m 3.235743,-1.09045 c 0.210992,-1.34818 1.028164,-1.75262 0.46301,-0.14339 -0.166257,0.91952 -1.113083,2.24688 -0.46301,0.14339 z M 21.12147,180.05975 c 0.652562,-0.73729 0.741622,-0.7076 -0.349498,-0.97328 -0.78508,-2.14851 -0.560994,-4.10803 -1.715743,-6.11257 -0.255796,-0.50436 -2.485494,-1.16796 -0.683794,-1.1239 1.72036,0.0753 3.10399,3.99587 2.389545,4.48357 -0.363923,0.31703 2.123577,1.8919 -0.02396,1.31473 0.33168,0.87297 2.642623,2.36639 0.383452,2.41145 z m 6.309939,-0.62272 c -0.05787,-1.01069 -1.424617,0.70605 -1.16903,-0.81203 -0.06324,-1.45344 0.380519,-6.41565 -1.638179,-4.23334 0.107525,2.94571 -1.660436,-2.90076 -0.364902,-2.2334 0.454038,1.04779 0.78123,-1.6767 1.619601,-0.3259 -1.241219,0.48408 0.668289,1.74101 -1.292357,1.16367 0.06937,1.50175 2.962964,-0.74643 1.17905,-1.76137 1.460001,-2.17839 0.818985,-5.04756 1.669838,-7.46224 0.697949,1.03796 0.263146,4.43957 0.697318,6.35822 -0.06458,1.49125 -0.235137,3.84162 -1.009191,4.71246 -0.900096,-1.07431 0.228012,0.86512 0.573769,0.90259 0.0863,0.82747 0.43568,4.00677 -0.265917,3.69134 z m -3.295991,-0.97271 c 1.523434,0.1292 -1.039405,-2.25674 0.464927,-2.33152 -0.304424,0.74702 2.208492,3.10752 -0.464927,2.33152 z m 9.962369,-0.6155 c -1.103338,-1.0638 2.084948,-0.1675 0,0 z m -1.495703,-1.60826 c 0.832821,-2.21489 1.823952,-4.3841 2.949197,-6.46572 0.04291,0.91936 -0.86048,3.03241 0.469977,3.71925 -0.08629,1.27138 -1.041184,4.34989 -1.576628,1.55313 -0.76202,0.0974 -0.714181,2.06975 -1.842546,1.19334 z m 7.276042,-0.52598 c 1.202466,-0.88557 -2.020124,-4.15433 0.742736,-3.05597 0.485285,1.0505 1.60168,-1.38251 1.054286,0.49461 -0.470282,0.48524 -1.046334,3.22316 -1.797022,2.56136 z m -18.337527,-4.49792 c -0.802817,-3.28596 -1.237438,-6.6706 -2.428822,-9.86026 -0.485833,-0.89028 -0.24981,-2.62328 0.592283,-0.83602 1.121339,1.18796 1.465908,3.64746 1.656506,4.24935 0.378616,0.90969 0.827593,2.34062 0.660045,3.67575 0.971231,1.30079 -0.493528,1.82842 -0.153096,3.31026 -0.0164,0.38595 -0.268008,-0.51416 -0.326916,-0.53908 z m -4.371896,-0.73915 c -0.443038,-1.02011 -1.11179,-4.57475 -0.736894,-4.22178 0.324102,2.04437 0.961331,-1.9958 2.04924,0.0351 0.593511,0.90728 0.740116,1.76276 -0.124642,2.08897 1.598507,-0.39626 2.404258,2.96563 0.641637,0.78886 -1.711998,-0.90222 -0.165991,1.88786 -1.829341,1.30882 z m 0.755335,-3.51412 c 0.335819,-1.97331 -1.145543,1.81833 -1e-6,0 z m 25.268134,2.70351 c 1.012084,-1.96359 -2.186949,0.33685 -0.647759,-1.19915 1.835463,-1.60895 -0.831572,-1.5068 -1.33987,-0.21459 1.072847,-2.28891 2.904074,-4.16372 4.352119,-6.2308 0.6065,-1.13083 2.979527,-2.50983 1.711774,-0.15721 -0.991152,2.16256 -1.868899,4.54533 -3.494324,6.28563 0.919577,-0.14369 -1.192522,2.91904 -0.58194,1.51612 z m 1.448454,-2.94815 c 0.918669,-1.76097 -1.273908,0.72995 -0.27541,-0.98096 -0.367018,-1.93765 -0.528565,0.15622 -1.017539,0.29437 -1.0802,0.23917 1.637122,2.30822 1.292949,0.68659 z m -8.334375,1.58124 c -0.256401,-1.2638 2.607351,-3.98966 1.394183,-1.34526 -0.190714,0.34457 -0.869048,1.83021 -1.394183,1.34526 z m -1.045866,-1.18437 c 0.201509,-1.37273 1.641555,-1.35652 0.557506,-0.0282 0.02444,-1.05557 -0.377583,0.39715 -0.557506,0.0282 z m -2.552467,-2.62286 c 0.659222,-1.06878 -0.12372,-1.10505 -0.537334,-2.16697 1.553722,-1.16569 -0.01377,-3.18 1.404396,-4.45344 -0.645145,-2.32669 1.509797,-4.58481 2.53982,-6.58534 1.23756,0.89524 -1.005928,4.17507 -1.120892,5.90082 -0.750307,2.54801 -0.741104,5.31623 -1.8406,7.75086 -0.429647,0.66902 -0.519663,-0.0864 -0.44539,-0.44593 z m -4.927751,-1.09662 c -0.296552,-1.75682 1.579397,-1.02451 0.380924,0.13962 l -0.191497,-0.0193 -0.189427,-0.12033 z m -12.371406,-2.28253 c -1.178002,-0.63551 -2.037954,-4.55845 -0.256263,-2.05299 0.307828,0.4502 1.803959,3.5191 0.256263,2.05299 z m 9.951754,-6.10268 c -0.58065,-1.33916 0.971889,-0.94449 0.755655,0.27974 -0.160779,0.63128 -0.779955,0.15567 -0.755655,-0.27974 z"
         id="path686" /><path
         style="fill:#4c756e;stroke-width:0.264583"
         d="m 25.813614,207.1545 c 0.915078,-1.78096 -2.358521,0.60948 -2.375221,-1.5148 -0.78429,-1.67042 -1.498849,-3.76271 -2.255127,-5.6387 -1.026996,-3.1013 -2.309542,-6.10602 -3.59235,-9.1029 -0.596384,-1.63875 -1.878692,-3.90797 -1.940335,-4.66346 -1.676619,-2.35621 -1.449255,-5.39155 -2.561322,-7.98456 -0.859703,-1.29226 -1.145227,-5.60722 0.379606,-2.26187 0.141849,1.43361 3.324521,3.65344 2.514591,0.94248 -0.530352,-0.97393 -0.405776,-2.98775 0.293054,-1.05474 1.145824,1.44734 2.003364,3.21473 2.914182,5.11324 0.59606,1.02509 1.756123,4.63687 2.191184,3.95343 -0.520334,-1.18356 -1.158308,-3.46049 0.911342,-2.1981 3.081378,-0.69988 1.559308,3.84354 2.277519,5.60131 0.37049,3.20698 0.548102,6.48029 1.43618,9.59406 0.477453,-1.38005 -0.603608,-4.64754 -0.557504,-6.70358 -0.259992,-3.06711 -0.717081,-6.13616 -0.700056,-9.21417 0.970188,0.18638 1.996879,-2.19012 2.830705,-1.02288 -0.09415,0.61671 -1.890802,2.22477 -0.236316,1.32234 0.370335,3.04764 -0.14727,6.18115 -0.229049,9.26044 -0.247261,1.14306 0.175736,3.53338 0.419312,1.10481 0.318113,-2.36868 0.125055,-4.82361 0.739466,-7.13839 1.086097,0.12181 2.702103,-0.45994 2.007823,1.54108 -0.06316,1.69648 -1.05794,4.30064 -0.608305,5.41314 1.014817,-2.32882 0.744433,-5.20051 1.907826,-7.37217 2.15487,-2.01277 0.471827,2.53286 0.805942,2.52565 1.235137,-2.03337 1.52911,-4.67774 3.117694,-6.43371 0.01746,-1.38512 1.078197,-0.91765 0.400977,-2.10708 0.918977,-1.90247 0.963187,-3.86655 1.899315,-5.6437 0.714773,-0.91701 2.064579,1.56013 0.442304,1.97283 -1.506981,2.03198 -1.34522,4.76542 -2.08462,7.10871 -0.289771,2.16146 -1.267141,4.64571 -1.544776,6.5045 1.847379,-2.93183 2.464301,-6.66921 4.958772,-9.15853 0.814935,1.23927 -0.785013,2.3511 -0.331607,3.34873 2.19055,-1.48197 -0.378645,3.33591 -0.128116,0.56447 -0.5667,0.27634 -1.071976,2.34337 -1.614802,3.43789 1.792471,0.01 -0.386959,2.52114 -0.823713,3.47684 0.490652,-1.17859 0.07518,-1.73939 -0.53737,-0.29817 -0.199554,0.70343 -1.826996,3.9821 -1.014479,3.40989 0.803571,-0.46356 -0.694903,2.32475 -1.02122,3.11874 -1.369492,2.2113 -2.173277,4.57672 -3.006672,7.03357 -0.312889,1.73964 -1.558124,3.50478 -3.449271,2.463 1.284013,1.26488 -2.228566,1.05227 -1.835563,0.70036 z m -3.800702,-15.20653 c -1.943638,-4.18418 -3.301842,-8.61024 -5.095031,-12.85041 -2.689846,-1.34615 -0.216218,3.09263 0.04923,4.28436 0.278237,0.85584 1.575406,3.2608 0.837467,0.85607 -0.451002,-1.22416 -0.742424,-3.42525 0.123642,-1.01874 1.63817,4.09708 2.988812,8.39249 5.278708,12.17271 -0.03701,-1.11251 -0.783973,-2.34335 -1.194013,-3.44399 z m 15.219381,-3.00422 c 0.729852,-0.52906 -0.01343,-2.16883 -0.325496,-0.42113 -0.250021,0.23616 0.612377,1.13971 0.325496,0.42113 z m -4.466651,-5.24108 c -0.06196,-1.13101 1.663934,-4.06671 0.787177,-1.3322 -0.06599,0.32283 -0.203798,1.86187 -0.787177,1.3322 z m -3.576058,-0.50531 c -2.050712,-0.19522 1.005276,-3.32043 0.243358,-0.59708 -0.03867,-0.0163 -0.135589,0.7903 -0.243358,0.59708 z m 10.986238,-0.81462 c -0.05694,-1.79336 0.354231,-3.14433 1.671591,-4.79963 0.640172,-1.16042 1.413503,-1.45125 0.44329,-0.0461 -0.556633,1.6126 -0.813055,3.72113 -2.114881,4.84569 z m -19.479988,-3.47152 c -1.190147,-2.28751 1.843584,0.56964 0.116582,0.17159 l -0.116582,-0.17158 z m 7.672917,-0.81539 c 0.215556,-3.10671 2.478351,1.86227 0.09745,0.85242 l -0.07656,-0.3234 z m -1.966272,0.21014 c -1.016194,-0.93339 0.31329,-3.83403 0.818586,-2.26066 0.69614,-1.11845 1.005914,1.63416 -0.09597,1.33371 0.954667,1.02415 -0.700859,0.42899 -0.03291,1.34962 -0.289607,0.11935 -0.542288,-0.29596 -0.689702,-0.42267 z m 8.547782,-2.01812 c 0.141771,-2.02189 -1.085161,-0.95577 -2.013877,-0.45992 0.522845,-2.00998 1.575952,-3.96485 2.467365,-5.86654 0.131669,1.19897 -1.268055,2.96946 -0.182977,3.8231 -0.181191,-2.93728 1.315186,1.13508 0.172941,2.00216 -0.03257,0.0657 -0.35188,1.17567 -0.443452,0.5012 z m -15.055627,-0.9481 c -0.135887,-1.61879 -1.298439,-2.65147 -2.08261,-3.40881 1.667177,-0.66215 2.577476,1.85815 2.222352,2.38688 0.872033,-0.15829 0.80101,1.47862 -0.139742,1.02193 z m 20.512645,-0.94716 c 0.570409,-0.91308 -2.209,-1.46674 -0.437909,-1.6853 0.786495,0.63411 1.49788,0.3196 1.883754,-0.22506 -0.186118,0.59059 -1.683355,4.53245 -1.445845,1.91036 z m -16.36968,-0.33166 c -0.384906,-0.74662 0.0036,-3.06688 0.267489,-0.91889 0.13823,0.41472 0.08638,2.37139 -0.267489,0.91889 z m -8.854858,-1.02227 c -0.540842,-1.12726 -0.178793,-3.62246 0.61047,-1.21787 0.809812,0.90112 -0.485382,3.72322 -0.553716,1.46374 l -0.03137,-0.13591 z m 13.867775,0.6254 c -0.287127,-0.98811 0.522512,-3.01026 0.35383,-0.79375 0.108331,0.54245 -0.11214,2.32041 -0.353827,0.79375 z m -2.827718,0.1043 c 0.652258,-1.70928 -0.46952,-3.34617 1.479424,-4.63263 0.268077,1.56408 0.623506,3.41431 -0.459541,4.84737 -0.316429,0.0604 -0.85711,0.14639 -1.019883,-0.21474 z m -12.276506,-0.70393 c -0.707601,0.2396 -0.821774,-1.59952 -1.213911,-1.62518 0.422541,0.11296 2.240979,2.44076 1.213911,1.62518 z m -2.966106,-1.56311 c -0.783875,-1.10885 -2.3078787,-5.30579 0.0034,-2.67479 0.956159,0.86174 2.294115,2.70262 0.234202,2.32357 0.213376,0.50906 0.220943,1.28291 -0.23761,0.35122 z m 10.527599,-0.61539 c -0.612843,-2.58013 -1.006113,-5.21242 -1.708011,-7.77444 0.377476,-1.15625 -1.700405,-2.14488 -0.693521,-3.2112 0.955953,1.14919 3.199199,4.35654 1.541299,4.6271 2.162017,0.67348 -0.744223,3.89082 1.859167,4.82027 -1.094702,0.14785 -0.310191,3.17363 -0.998934,1.53827 z m -4.481542,-1.05589 c -0.814552,-0.78599 -0.400125,-4.20933 0.314418,-3.15491 -0.597281,1.92418 1.696754,0.42732 1.140383,-0.22097 1.477349,1.40181 -1.087542,1.56613 -0.695634,3.175 -0.116873,0.68405 -0.28502,1.51042 -0.759167,0.20088 z m 19.28436,-1.5877 c 0.07848,-1.41132 2.580438,-3.76338 1.196849,-0.97961 -0.0414,0.20697 -0.999842,1.72443 -1.196849,0.97961 z m 5.395365,-0.94755 c 0.649868,-1.33196 1.458266,-1.37884 0.272074,0.0531 -0.45754,0.65194 -0.873837,1.09293 -0.272074,-0.0531 z m 2.806417,-2.20764 c -1.074361,-1.69286 1.55151,-3.48033 2.762152,-4.55512 0.100825,1.0722 -0.466339,4.57545 -2.408954,4.00589 0.205524,0.1698 -0.413638,1.36859 -0.353198,0.54923 z M 33.122051,164.2294 c 0.493621,-1.00679 -2.03078,-1.87412 -0.0097,-2.35653 0.923655,1.06857 -0.682811,-2.85582 0.283507,-1.10725 0.559139,1.73446 0.97791,-3.26366 -0.595352,-1.19062 0.828003,-0.79364 0.37501,-2.829 1.757751,-2.90404 -2.501113,0.14327 0.459628,-3.07935 0.888987,-4.33884 1.218518,-1.72669 -0.58906,1.7223 0.7442,-0.065 0.17014,-3.01294 0.68766,1.73154 -0.581349,1.69544 0.143278,2.16818 -1.554152,3.78422 -1.258822,5.85158 0.322466,1.58888 -1.332608,2.68428 -0.771559,3.52963 0.451662,0.47697 -0.839338,2.52946 -0.457626,0.88559 z m -17.907859,-3.31877 c -1.131186,-0.70868 -1.455629,-4.1342 -4.84e-4,-1.63464 0.264913,0.43627 1.560068,3.18276 4.84e-4,1.63464 z"
         id="path684" /><path
         style="fill:#33625b;stroke-width:0.264583"
         d="m 29.648511,206.32595 c -0.427323,-0.73884 -1.951445,-1.08551 -2.589441,-1.70856 -0.947549,0.20258 -2.056491,0.75393 -0.289295,0.6543 2.141573,1.99902 -3.300206,-1.50463 -2.46096,0.93274 -1.991244,-0.50032 1.810611,-2.04759 -0.430226,-1.6544 -1.405822,-1.14634 -2.051096,-3.46851 -2.753377,-5.19768 -1.020351,-2.27258 -1.750667,-4.76773 -2.766529,-6.969 -0.383649,-1.91001 -1.955048,-3.90068 -2.291002,-5.54803 -0.02896,-0.80745 -1.1158,-3.16981 -1.113022,-2.12791 -0.540541,-1.69237 -1.092119,-3.87169 -1.064209,-5.13437 2.298546,1.22408 -0.6108,-2.73093 -1.015638,-3.53394 0.207932,1.19311 0.994997,4.41453 0.04307,1.5788 -0.562589,-1.00036 -1.07388,-4.45635 0.349029,-1.82625 1.656918,2.45816 2.697299,5.21911 3.760221,7.96407 0.294009,1.00001 1.530498,2.85033 0.900199,0.66181 -0.253938,-0.73344 -1.068568,-4.30739 -0.182713,-1.7361 1.597364,4.32433 3.265731,8.63908 5.331533,12.76367 0.786127,0.0833 -0.969018,-3.3951 -1.501085,-4.54016 -1.834464,-3.93354 -3.018828,-8.13298 -4.732445,-12.1073 -1.8699,-0.76577 1.36577,-3.00282 0.580333,-0.90441 0.478122,1.13958 2.914491,3.77717 0.994377,3.49153 0.879267,1.08577 2.378401,2.90459 3.151745,4.62265 -0.11958,-1.31369 -0.367676,-2.33242 0.314671,-0.51002 0.525336,1.63775 0.265363,0.17573 0.173665,-0.69167 -0.207798,-2.33916 2.876954,-1.29196 2.205977,0.6197 0.403259,4.20991 0.767256,8.44566 1.684829,12.57996 0.887466,1.27065 -0.04244,-2.32896 -0.02816,-3.01339 -0.424206,-4.09346 -1.047719,-8.2185 -1.201486,-12.31062 1.716707,-0.70447 1.435304,1.2557 2.525426,1.11815 0.332044,1.32721 0.01856,3.55243 -0.06063,5.51765 0.05115,1.29625 -0.333161,3.93548 0.180143,4.43885 0.565426,-2.44855 0.181947,-5.06905 0.893673,-7.47282 3.27287,-0.94164 1.312086,3.31077 1.367394,5.09155 -0.379326,3.34463 1.002691,-1.47417 0.998616,-2.56323 -0.428193,-1.24947 1.629744,-4.25286 1.579186,-1.62028 -0.295738,0.86745 -0.805876,2.81604 0.06221,0.94909 0.9431,-1.87044 1.664443,-4.33913 2.858339,-5.76253 -0.676215,-1.37656 1.235975,-0.94724 1.312284,-2.14544 -0.214331,3.13589 -1.513754,6.08432 -1.974503,9.16499 1.348911,-1.92689 2.116261,-4.86958 3.470141,-7.0607 0.360274,-0.82727 1.85663,-3.45162 1.420689,-0.95473 -1.180614,4.31002 -3.238719,8.32089 -4.689617,12.54371 -1.124226,1.8198 -0.782592,4.27536 -2.188992,5.50642 -0.571325,2.50676 -1.459496,5.05348 -2.838341,7.23884 -0.207356,0.0539 -0.155933,-0.35852 0.01393,-0.34494 z m 0.696857,-1.57335 c 0.874763,-1.1396 -0.532416,-0.049 -0.843276,-0.64164 0.782621,0.49411 -0.709993,2.22114 0.63152,0.97547 l 0.211763,-0.33388 z m -3.8287,-0.49609 c -1.073583,-0.81377 -1.646385,0.79614 -0.05181,0.0899 z m 5.273069,-3.47266 c -1.475644,-0.95756 -0.127227,2.49796 0,0 z m -11.112334,-8.97796 c -0.932592,-1.27885 -1.506025,-4.25341 -2.686298,-4.44003 0.68627,1.96547 2.020152,3.88043 2.914502,5.84837 0.594977,1.3499 1.483874,2.28477 0.52812,0.28443 -0.241985,-0.56871 -0.495711,-1.13238 -0.756324,-1.69277 z m 17.720117,-9.08574 c 1.002481,-1.78199 0.03452,-1.09773 -0.511688,0.19961 -0.76876,1.16398 -0.578843,1.92787 0.244433,0.29885 l 0.136985,-0.24711 z m -2.015318,-3.73012 c -0.917009,-1.39956 1.757487,-4.04224 0.746811,-1.08914 -0.16047,0.22173 -0.288448,2.46029 -0.746811,1.08914 z m 4.421966,0.57019 c 0.420243,-1.37946 1.926332,-2.73002 0.526431,-0.5985 -0.07244,0.032 -0.536111,1.06501 -0.526431,0.5985 z m -14.552084,-2.53834 c 0.650413,-1.6948 0.612314,2.02103 0,0 z m -10.241571,-0.52365 c -0.468018,-2.25051 1.03266,2.02149 -2e-6,0 z m 19.059409,-1.24667 c -0.109451,-1.33619 1.611276,-2.64902 0.571779,-0.53528 -0.139078,0.88538 -0.711217,2.18793 -0.571781,0.53528 z m -1.240793,-1.30855 c -0.03989,-1.12897 1.306351,-2.4354 0.74118,-0.39487 -0.04838,0.28376 -0.469307,0.70174 -0.74118,0.39487 z m -14.553372,-0.74583 c -0.60973,-3.2477 1.500238,1.42023 0,0 z m -4.218479,-1.19359 c -0.764237,-1.9459 0.941,-1.17641 0.810953,0.22652 -0.501936,-0.437 -0.619164,0.73618 -0.810953,-0.22652 z m 12.25314,0.45979 c -1.043805,-1.12556 0.431113,-2.77377 0.79375,-1.01044 0.01425,0.46527 -0.216413,1.06516 -0.79375,1.01044 z m -16.958237,-2.23826 c -0.192706,-0.95249 -1.4106907,-3.40747 0.345589,-1.71686 0.918176,0.84031 2.760817,2.89853 0.35606,2.35756 -0.36468,0.01 -0.614595,-0.32753 -0.701649,-0.6407 z m 6.676219,-0.52981 c -0.397948,-1.33583 -0.981042,-3.35345 0.407951,-1.40984 0.08692,0.7117 0.155597,3.63227 -0.407951,1.40984 z m 19.677546,-2.36681 c 0.344622,-1.41468 1.867831,-2.2077 0.81409,-0.21476 -0.236563,0.75186 -1.703605,1.86421 -0.81409,0.21476 z m 8.773007,-3.0327 c -3.028572,0.18592 0.804189,-2.76206 1.609631,-3.59537 0.630454,0.0678 -0.54994,4.2784 -1.609631,3.59537 z m -30.272096,-3.58971 c -0.933019,-0.52863 -1.529149,-3.72865 -0.120136,-1.67609 0.18587,0.3328 1.537601,2.94019 0.120136,1.67609 z"
         id="path682" /><path
         style="fill:#2c5d55;stroke-width:0.264583"
         d="m 21.026119,198.80285 c -0.396319,-0.64323 -1.692869,-4.37888 -0.657887,-2.18117 0.513491,0.49502 0.798717,2.15837 1.442173,1.09436 -1.463653,-0.54052 1.103791,-1.57132 -0.945254,-1.55078 -0.856312,-1.04422 0.799073,0.43412 1.130179,-0.48645 1.504824,2.45577 0.02574,-1.4852 -0.192985,-1.73592 0.718232,0.6159 1.979722,3.29517 1.544267,1.01357 -1.008282,-1.30597 0.690012,-2.76156 -0.3917,-3.79115 1.161029,-0.60263 0.178475,-2.2974 0.136092,-0.63392 -0.6334,-1.14899 -1.887194,1.10028 -2.06865,-0.87377 -0.569545,-0.64488 -0.491115,-2.60984 -0.04129,-1.12313 0.755224,-0.4025 2.376194,-0.15452 1.379863,0.85816 -1.641263,-1.22617 0.216625,1.10769 0.924021,-0.26363 2.442249,-0.33049 1.229712,3.7951 1.968754,5.36353 -0.01672,1.36824 1.14406,4.14669 0.542691,4.57003 -0.665984,-0.6129 -0.27447,1.74707 -1.299864,0.20828 -0.06998,-1.71735 -4.837345,-0.62351 -1.752374,-0.4448 1.78326,0.39576 -1.394851,0.30581 -1.183949,0.55685 0.944466,1.87145 -0.26239,0.34125 -0.534084,-0.58006 z m 7.842353,0.11817 c -0.675982,-0.74932 0.424891,-1.964 -0.923089,-0.84814 -1.005445,0.20025 -1.254442,1.64029 -1.508929,-0.14154 -0.56591,-2.74688 -0.813456,-5.54388 -1.137838,-8.32613 1.803184,-0.31249 1.316689,-2.78369 -0.301597,-2.9618 0.377767,-0.25658 1.631571,-0.92163 1.473175,-1.933 1.057663,0.4358 -0.545046,1.63037 0.704859,2.24935 0.262339,2.41278 -0.404175,4.90034 0.06053,7.27565 0.773438,-2.33998 0.285068,-4.94791 0.988478,-7.32277 0.705539,-0.72831 2.482538,0.7788 1.78904,1.80052 -0.130773,1.08099 -1.006796,4.10235 -0.204402,3.77355 0.725415,-1.77797 0.348463,-4.19752 2.178863,-5.27208 -0.272838,1.16996 -1.222242,4.6028 0.114388,1.68557 0.144567,-1.01748 2.192075,-3.76442 0.86852,-1.5028 0.134864,0.94293 2.624903,-3.07532 1.979267,-0.42885 -0.777068,2.20217 -1.76119,3.88286 -2.457739,6.18105 0.138841,1.70386 1.4347,-3.65303 2.367402,-1.96269 -0.768274,-2.2884 1.671398,-4.21912 2.459016,-6.24525 0.49481,-0.75552 2.133778,-4.18834 1.243209,-1.48167 -1.82833,4.98839 -3.808447,9.92296 -5.774833,14.85647 -0.345293,-0.42036 -3.55074,-2.28799 -2.53052,-0.002 -1.251434,-0.51911 -1.002734,0.56366 -1.068826,0.84044 l -0.318982,-0.23398 z m -10.646643,-7.44974 c -0.54987,-2.34078 -2.028627,-4.46206 -2.807855,-6.9531 -1.19851,-2.76733 1.268669,1.11671 1.716922,2.04503 0.872315,1.85746 2.527294,3.87714 2.852327,5.66316 -1.424127,-1.59243 -1.028197,1.07258 -1.761394,-0.75509 z m 2.088005,-0.7416 c -0.560956,-0.91819 -1.322418,-3.62149 -0.12125,-1.52778 0.46294,0.91878 1.809127,4.39509 0.251866,1.80682 z m -1.577608,-3.67589 c -0.800458,-0.91691 -0.06129,-2.7366 0.143001,-0.61654 0.67088,0.77933 0.655439,1.97043 -0.143001,0.61654 z m 1.507819,-1.05292 c -0.863504,-1.33073 1.514036,-1.50548 0.291127,-0.49671 -0.815058,-0.15371 0.738284,1.33099 -0.291127,0.49671 z M 35.109721,184.975 c 0.0043,-1.22479 1.362058,-3.81486 0.537723,-1.11291 -0.201469,0.6574 -0.780901,3.0037 -0.537723,1.11291 z m -20.322384,-5.7158 c -1.250804,-2.62218 0.862319,0.22557 0.822721,1.36477 -0.373332,-0.38855 -0.574147,-0.89642 -0.822721,-1.36477 z m 2.629513,1.06395 c -0.900587,-1.78891 1.102725,-1.84547 1.016082,-0.17652 -0.189036,0.44206 -0.820434,0.91749 -1.016082,0.17652 z m 19.222218,-3.19746 c 1.475941,-2.04113 -0.179592,2.13099 3e-6,0 z"
         id="path680" /></g></g></svg>
