<svg id="Capa_1" enable-background="new 0 0 512 512" height="512" viewBox="0 0 512 512" width="512" xmlns="http://www.w3.org/2000/svg"><g><g><g><g><g><path d="m183.324 156.236c.42 62.585 25.502 118.549 64.86 156.467 38.844-38.443 63.173-94.74 62.753-157.324-.413-61.571-24.696-116.734-62.958-154.61-1.045-1.035-2.747-1.024-3.778.025-37.75 38.386-61.29 93.871-60.877 155.442z" fill="#8bc727"/></g></g></g><g><path d="m239.631 235.403c-9.173-24.371-14.33-51.101-14.519-79.167-.34-50.606 15.512-97.091 42.126-133.36-5.93-7.885-12.363-15.281-19.258-22.107-1.045-1.035-2.747-1.024-3.778.025-37.75 38.386-61.29 93.871-60.876 155.441.389 57.917 21.909 110.153 56.307 147.675v-68.507z" fill="#81b823"/></g><g><g><g><g><path d="m106.475 428.228c31.787 31.363 72.678 46.944 111.665 46.218.203-38.993-15.926-79.671-47.713-111.034-31.272-30.855-71.355-46.435-109.768-46.241-1.05.005-1.902.87-1.894 1.919.321 38.413 16.438 78.283 47.71 109.138z" fill="#8bc727"/></g></g></g><g><path d="m169.003 436.979c-14.789-7.44-28.834-17.391-41.445-29.834-25.703-25.361-41.159-56.811-46.03-88.537-6.97-.987-13.947-1.472-20.87-1.437-1.05.005-1.902.87-1.893 1.919.321 38.412 16.438 78.282 47.71 109.138 28.549 28.168 64.44 43.597 99.701 45.924z" fill="#81b823"/></g></g><g><g><g><g><path d="m79.22 269.183c30.133 29.731 68.894 44.501 105.852 43.812.192-36.963-15.097-75.523-45.229-105.254-29.644-29.249-67.64-44.018-104.054-43.834-.995.005-1.803.824-1.795 1.819.304 36.413 15.581 74.208 45.226 103.457z" fill="#8bc727"/></g></g></g><g><path d="m137.368 276.905c-13.606-6.988-26.529-16.229-38.163-27.708-24.365-24.04-39.016-53.854-43.634-83.927-6.607-.935-13.221-1.396-19.783-1.362-.995.005-1.803.824-1.795 1.819.304 36.413 15.582 74.207 45.227 103.456 26.902 26.543 60.682 41.151 93.916 43.49z" fill="#81b823"/></g></g></g><g><g><g><g><path d="m333.889 262.393c-40.7 41.25-60.919 94.312-59.977 144.905 50.601.263 103.387-20.667 144.087-61.917 40.04-40.581 60.258-92.596 60.006-142.444-.007-1.362-1.128-2.469-2.49-2.457-49.848.417-101.586 21.332-141.626 61.913z" fill="#8bc727"/></g></g></g><g><path d="m475.514 200.481c-49.847.417-101.585 21.331-141.625 61.912-37.444 37.951-57.538 85.899-59.782 132.724l45.485-45.485c9.911-21.428 23.808-41.791 41.656-59.88 32.91-33.355 73.722-53.411 114.892-59.732 1.281-9.045 1.911-18.099 1.865-27.082-.007-1.363-1.129-2.469-2.491-2.457z" fill="#81b823"/></g><path d="m414.437 265.395c-2.931-2.93-7.679-2.929-10.607 0l-149.199 149.199v-309.48c0-4.142-3.358-7.5-7.5-7.5s-7.5 3.358-7.5 7.5v252.841l-149.041-149.041c-2.929-2.929-7.678-2.929-10.606 0-2.929 2.929-2.929 7.678 0 10.606l159.647 159.647v107.226l-121.453-121.452c-2.929-2.929-7.678-2.929-10.606 0-2.929 2.929-2.929 7.678 0 10.606l134.255 134.255c1.357 1.358 3.233 2.198 5.305 2.198 4.142 0 7.5-3.358 7.5-7.5v-68.693l159.806-159.806c2.927-2.929 2.927-7.678-.001-10.606z" fill="#09a76d"/></g></g></svg>
