<?xml version="1.0" encoding="UTF-8"?>
<svg width="42.372mm" height="38.229mm" version="1.1" viewBox="0 0 42.372 38.229" xml:space="preserve" xmlns="http://www.w3.org/2000/svg"><g transform="translate(-56.878 -176.65)"><g transform="translate(-36.872 -1.4344)" stroke-width=".26458"><path d="m101.88 216.19c-0.87975-2.2851 0.06-4.8223 0.92105-6.9758 0.76826-1.4755 2.177-4.3186 4.2053-3.3437 1.2853 0.43313 2.1443-2.6206 3.4285-0.63649 0.49446 0.6245 2.9229 2.4107 1.3548 0.73109-1.0916-1.311-3.49-2.6747-4.1622-0.21586-1.9705-1.1991-3.719 0.74834-4.7602 2.2999-1.8636 0.43028-3.7812-1.1543-5.0901-2.4277-1.4175-1.5878-2.3822-3.6669-2.4785-5.8029 1.4463 9e-3 3.0792 2.406 5.0218 2.5023 1.1105 0.0494 3.5442 1.3045 3.927 0.93983-2.536-2.7952-5.958-4.6044-8.4572-7.4237-0.50863-0.84339-2.5307-2.928-1.932-3.2106 2.0158 0.92345 3.9961 2.1359 6.2993 2.0858 2.6558 0.14204 5.6936 0.70879 7.204 3.1636 1.1867 1.49 2.0627 3.1208 2.6487 4.9302 0.9362 1.3671-0.42618-1.8641-0.55428-2.4632-1.586-5.362-1.1088-11.008-1.2768-16.529 1.22 1.4543 2.4436 2.9753 3.1066 4.7504 0.19743 0.68094-0.53936 0.78141 0.20838 1.5181 0.33015 3.7263-0.18316 7.5356 0.66599 11.211 0.91938 1.4656-0.10996-1.8924-0.0612-2.4278-0.35952-4.1631-0.21234-8.4669 1.2476-12.423 0.66465-2.4569 1.1297-4.9645 1.4082-7.4939 1.4689 4.406 1.423 9.1178 1.7748 13.705 0.26711 1.1275-0.65271 2.011-1.029 3.0062-1.72 3.438-2.9881 7.3597-2.137 11.225 0.27549 1.2726 0.28095 2.7504 0.97896 3.838-0.60328-3.4168-1.4716-6.9917-0.3308-10.401 1.1593-4.2891 3.7557-7.9803 5.3586-12.095 1.0849-2.2272 0.69795 1.8539 0.75869 2.6724 0.0249 4.6414-0.6238 9.3466-2.5785 13.594-0.64228 2.6639-2.1951 4.9778-3.0939 7.5433 1.4785-2.1897 2.1358-5.0534 4.2465-6.7839 1.3716-0.0349 2.6869 0.6982 4.0024-0.33279 2.0741-0.0886 2.7715 2.5016 3.835 3.8629 0.51958 1.096 2.7073 2.2396 0.28609 2.283-2.4939-0.0962-4.254-1.9936-5.8877-3.6381-0.41958-0.99865-2.6777-0.55409-1.0125-0.34507 0.71014 0.38864 2.0214 1.068 0.64479 1.5009-2.1724 1.3589-3.5939 3.6771-5.8347 4.9064-0.74006 0.0117-1.9434 0.78808-2.2512-0.26226-1.0448-1.7114-2.279-3.3001-3.6962-4.7189 0.28427-0.77847 1.0912-2.0906 0.88811-2.554-0.89579 1.7562-1.7164 3.665-3.5264 4.6826-1.982 1.3817-2.0331 4.2191-3.9245 5.6561l-0.20024 0.0218-0.14634-0.12667zm15.427-10.345c0.77809-1.9833 1.694-3.933 2.1387-6.0387 0.66409-2.2376 0.7984-4.5948 1.346-6.8472 1.1393-2.2086 3.1148-4.4286 5.8001-4.398 2.4632-0.25736 5.0155 0.21558 7.4227-0.41837 1.1488-1.3101 2.8507-0.22271 1.7496 1.2634-1.1325 2.8293-3.6068 5.1336-6.6711 5.6313-2.788 0.56491-5.8911 1.2168-7.6395 3.6969 1.6228-1.1617 3.5889-1.7986 5.6054-1.7573 2.3292 0.0236 4.6437-0.2781 6.8632-0.98461 1.7097 0.17505-1.196 2.6587-1.6979 3.4949-2.1509 2.5898-5.3144 4.0808-8.4548 5.0948-1.6794 0.0653-3.1581 1.05-4.8457 0.22729-0.62177 0.11566-1.0174 1.1501-1.6168 1.0356zm-9.3965-7.6475c-1.0939-2.109-3.3286-3.0454-5.4508-3.7261-2.4341-1.8032-2.8843-5.1076-3.2768-7.9102-0.18285-2.6482-0.45685-5.2955-1.1187-7.871 0.09147-1.8462 1.9977 1.0898 2.4983 1.5804 2.5688 3.2141 4.8668 6.6298 7.1402 10.056 0.14289 2.8016 0.36217 5.6058 0.91197 8.3566-0.075 0.62433-0.62907-0.42047-0.70419-0.48527z" fill="#a3d0cd"/><path d="m101.87 215.98c-0.59413-3.4172 0.51751-7.2121 3.0345-9.6305 0.85256-1.0682 1.8682-0.61845 2.7382-0.2042 0.7676-1.2419 1.8827-2.3025 3.0342-0.68303 0.57719 0.70012 2.6466 2.0198 1.0513 0.45929-1.0864-1.5156-3.2246-2.3467-4.2261-0.32854-1.786-0.93742-3.3384 0.63378-4.329 2.035-0.30275 1.0336-0.96687 0.73595-1.6834 0.28588-2.6407-1.1974-5.3939-3.2542-5.6969-6.3624 1.7757 0.2556-1.5041-2.9537 0.5062-1.2765 2.2718 1.8746 5.2601 2.5859 8.0902 3.1462-0.20661-1.0877-2.5034-2.4016-3.6755-3.4086-2.7612-1.9621-5.4044-4.314-6.9473-7.3816 1.8993 1.071 3.8924 2.0885 6.1313 2.1175 2.5765 0.31264 5.7014 0.43163 7.2384 2.9004 1.1575 1.5388 2.2644 3.1014 2.7121 5.0088 0.31423 1.2938 1.0699 1.1544 0.43329-0.086-1.5249-3.8914-2.1829-8.0984-1.8934-12.27 0.0649-2.1302-2e-3 -4.2635-0.24472-6.3775 1.0055 1.1387 2.3023 2.6238 2.7172 3.89-1.4645-0.86939 0.6777 1.2486-0.79041 0.38634-1.5101-0.70752-0.52951 1.9294 0.60044 1.9009-0.84985 1.3718 0.43887 1.3129 0.91593 0.39993-0.61393 1.5081-0.15669 3.1276-0.12774 4.8459 0.18228 2.1516 0.0579 4.5512 1.0119 6.4988 0.20028-1.5619-0.53656-3.3647-0.4988-5.0508-0.37536-1.2798 0.13824-2.8089 0.89843-3.366-1.4028-1.0599-0.52405-4.4693 0.48844-4.9316 0.74484 0.77521 2.1299 1.2119 0.74479 0.0178-1.2299-0.11722-0.71664-3.2047 0.13491-1.8726l1.5577 1.5606c-0.60498-1.2067-2.1468-2.1071-1.8267-3.5684 0.28977-0.85404 0.23161-3.5368 1.2236-2.5675-0.71516-0.45864-0.5005-2.6242 0.15637-1.0152 0.61386 4.1228 0.94919 8.2828 1.19 12.443-1.9367 3.8734-4.063 8.0312-3.313 12.503 0.25585 1.3314 0.35989 4.3316 1.1567 4.5136-0.82731-3.9643-1.4676-8.3176 0.37274-12.113 1.5348-3.715 3.413-7.2748 5.054-10.941 0.49165 2.3519 0.44031 4.8834 0.21413 7.2969-0.4283 3.6692-1.535 7.2078-2.8005 10.66-0.21607 1.8038-1.6276 3.2819-2.1902 5.0406-0.57005 0.98522-0.69204 2.2566 0.1191 0.54719 1.1186-2.153 2.0638-4.5194 3.9999-6.0879 1.2078 0.99317 2.5074 0.7508 3.7596-0.0454 1.9803 0.30769 2.5551 2.7512 3.661 4.1474 0.53584 0.97444 2.2975 2.1212 0.0889 1.9547-2.9845-0.10555-4.3956-3.2175-6.8998-4.3241-1.8821 0.25406 2.9243 1.0389 0.39849 2.1266-1.7316 1.3383-3.12 3.0633-4.8303 4.4149-1.174 0.75809-1.7694-1.1084-3.0533-0.71496-1.1202-1.3286-2.0873-2.8135-3.4384-3.9422 0.23045-0.70452 1.2816-2.3806 0.79162-2.4538-1.018 1.8214-1.8862 3.7008-3.7794 4.7688-1.9087 1.2908-1.6883 4.3862-3.833 5.3054l-0.14743-0.17179zm16.106-11.507c1.6892-3.6228 2.0477-7.6574 2.9211-11.507 0.74997-1.5807 2.5261-4.1185 4.279-3.7199 0.5261 1.1274 0.18003 2.8132 1.2808 2.7829-0.18631-1.0332 0.0924-1.7651 1.051-1.8283-0.70857-1.1574 1.773 1.2669 1.0205-0.51047-0.88945-0.48556 0.55669-0.35693 0.54498-0.66141 1.6466-0.76075 4.0106-0.0552 5.7374-1.2246 2.5391-0.85368 0.28484 2.9876-0.42486 3.9562-2.0455 2.796-5.67 3.2432-8.7844 4.0395-1.4428 0.26577-3.9682 2.1327-3.9209 2.959 1.6036-1.219 3.5805-1.7916 5.5918-1.6865 2.2513 0.14064 4.4219-0.49363 6.6083-0.87476 0.76509 1.1554-1.61 2.9978-2.4966 4.1003-2.1534 1.9399-4.7867 3.3932-7.5453 4.267-1.6699-0.12735-3.1964 1.2471-4.7079 4e-3 -0.65346 0.4458-2.2847 2.0339-1.2858 0.16662l0.13079-0.2628zm-9.9394-6.2452c-1.1997-2.0259-3.4098-3.133-5.5864-3.7848-1.7961-1.5219-2.4941-3.9946-2.921-6.2445-0.24667-1.7569-0.38629-3.5703-0.1217-5.3283 0.66022 0.55569 1.4914 0.93638 2.2895 1.1387 0.49814 1.2151-0.15099 1.2866-1.0393 0.62706-0.4305 0.0352 0.6402 0.86166-0.46178 0.38783-1.037-1.4851-0.82115 3.3431 0.79441 1.5306 1.0389-0.0998 0.53911-1.379 1.5604-1.0507-0.18067-0.81881 3e-3 -2.5491 0.96218-1.1597 1.6028 1.9378 2.85 4.133 4.2102 6.2411 0.14965 2.6269 0.21409 5.2802 0.87177 7.8423 0.16719 1.0297-0.45949 0.0508-0.55829-0.1996zm-7.8804-12.154c0.80849-1.7828 0.8961 0.89434-0.0153 0.19307zm-1.6024-5.6973c-0.44915-0.97954-0.89573-3.334 0.66941-1.6005 1.3644 0.83054 1.683 2.7905 0.18042 3.319-0.49461 0.0319-0.64494-1.3241-0.84983-1.7185z" fill="#6db6b0"/><path d="m101.87 215.94c-0.54656-3.0491 0.38187-6.359 2.259-8.8091 0.85494-1.4346 2.4419-1.4751 3.6849-1.0136 0.6816-1.8661 2.2668-1.6616 3.3305-0.22724 0.64411 0.8497 2.0935 1.5416 0.69388 0.15498-1.0651-1.1836-2.9637-3.0299-4.0463-0.82171-1.0639 0.56812-2.8982-0.52717-3.6834 1.2299-0.77711 1.3-1.718 2.383-3.2401 1.1668-2.261-1.0737-4.2805-2.9582-4.8911-5.4564 0.12687-0.87999 1.4879-2.0215 1.5191-0.60053-1.0429 0.21748 0.97703 0.97628 1.1392 1.161 0.83484-1.7693 0.43976 1.9024 2.0636 1.1819 2.1099 0.95389-2.0604-2.0006 0.46168-1.1425 0.83369-0.17748 3.5734 1.5437 3.1785 0.28185-2.9169-2.9443-6.7931-4.9076-9.2703-8.291 0.06085-0.35392 1.8139-0.28778 0.34415-0.83419-0.0547-0.47151 2.6618 0.9581 3.7523 0.84212 2.5248 0.32549 5.5017 0.0839 7.3221 2.2418 1.7506 1.7007 2.7216 3.9761 3.6324 6.1911 1.1804 1.2063-0.61598-2.3582-0.61569-3.0416-0.98122-3.2331-1.363-6.613-1.0943-9.9807 0.15981-1.9487-0.10811-4.6534-0.15608-6.1186 0.61571 0.9851 3.7029 3.6428 1.1344 3.8641-0.59297 1.2626 1.3606 2.0591 0.66629 3.2241 0.83233 0.838 1.713-1.7627 1.2575 0.19272-0.62101 1.6396 0.33704 3.9108 0.19509 5.7877 0.22761 1.2901 0.17602 4.2938 1.1212 4.4595-0.47467-2.4919-0.65635-5.0693-0.52189-7.6012 0.79735 0.24954 1.8676-1.7127 0.48534-0.76297-1.0285-0.62378-0.0601-1.948 0.74357-0.92103-1.6217-0.8286-1.1038-4.7958 0.99358-3.0698 2.4275 0.84596-2.7946-2.3057-0.28537-2.5698 0.46649 0.40365 1.5948 2.6674 1.3759 0.85763-0.3692-0.83617-1.2774-1.456-1.6019-2.2484 0.31999-1.0722 0.33104-2.3688 1.2502-3.1168 0.47198-1.7114 0.67959 1.8377 0.47075 2.1222-1.4551-0.89142-0.55913 0.92267 0.19262 1.0671 0.47355 2.5992 0.51453 5.2613 0.77271 7.8905-1.7156 3.6214-3.6245 7.4036-3.4795 11.506 0.24857 1.9947 0.46288 4.0331 1.1175 5.9388 0.93459-0.0735-0.52292-2.572-0.31342-3.5835-0.50279-3.4527-0.11287-7.0494 1.4953-10.179 1.5571-3.2219 3.194-6.4085 4.5719-9.7137 0.37625 3.5871 0.48019 7.2468-0.47719 10.761-0.4971 2.5232-1.3733 4.9415-2.2405 7.349-0.10081 1.8928-1.6669 3.4092-2.2675 5.221-0.59341 0.82038-0.46105 2.6113-1.6843 1.8448-1.9226 0.30822-2.5015-2.7236-3.9797-3.6808-0.76035-0.61615 1.8012-3.6283 0.0557-2.4949-0.65002 2.1552-2.1282 3.7059-3.8931 5.0096-1.5608 1.3242-1.4235 3.8228-3.1885 4.908l-0.17496-0.0518-0.17579-0.12457zm12.804-2.8477c-0.0562-1.853 1.3734-3.5413 2.1185-5.2151 0.79053-1.5919 2.1855-3.5756 4.0467-2.1646 1.9589-1.3122 4.1107-0.24048 4.8231 1.9141 0.30999 1.1697 1.3328 2.1377 1.7173 3.1177-0.47317 0.56306-3.2414-0.28889-1.5275-0.16159 1.4112 0.31318 0.0293-1.1161-0.32319-1.5604-0.60027 0.78601-1.1831-0.61374-1.3301 0.72795-1.8108-0.24379-2.8002-2.8709-4.7863-3.1514-1.1761 0.58661 2.9157 0.98749 0.67399 2.2242-1.6817 1.3779-3.241 2.9023-4.7962 4.4047-0.20526 0.14648-0.48437 0.0663-0.61647-0.13565zm3.2665-8.5675c1.7313-3.6227 2.1363-7.6654 2.9813-11.538 0.66077-1.6917 2.0658-3.1593 3.6945-3.9404 0.55753 0.37871 0.87262 1.5899 1.01 2.416-1.074 0.82423 2.1694 2.6415 0.4408 0.92157-1.3494-0.94132 2.0132 0.96289 0.68922-0.58099-1.061-2.0481 1.185-1.089 1.2585-0.82903 0.3863-1.0222 2.2491 0.269 2.04 0.3205 0.46316-0.63511-1.1659-1.4942 0.42444-1.819-0.49475-0.70234-2.2637 1.4342-1.0894-0.18593 1.8568-0.8836 4.0908-0.42803 5.8666-1.6483 1.4282 0.61388-0.48721 3.2597-1.1756 4.3455-1.6537 2.2607-4.4929 2.959-7.102 3.4012-2.1781 0.38974-4.5584 1.5719-5.522 3.5187 1.6498-1.3058 3.7603-1.8157 5.8456-1.8273 2.1032 0.0967 4.1561-0.32764 6.1904-0.78329 1.8142 0.0149-0.89383 2.2982-1.2396 3.0134-2.0174 2.4669-4.9986 3.8979-7.9 5.0554-1.7815 0.12708-3.637 1.457-5.1534 0.14823-0.8217 0.3011-2.3806 2.1785-1.3864 0.26798l0.12706-0.25569zm-9.7463-6.0494c-1.0011-2.1537-3.3174-3.245-5.4608-3.9407-1.4845-0.0233-0.76866-2.4396-1.3982-2.3399 0.17174 2.1529-1.1954-1.4216-1.3057-2.1398-0.61532-0.95785 1.3822 0.10735 0.42269-0.93192 0.59626-0.59799 6e-3 -2.2955-0.53385-1.0684 0.93039 0.38383-0.93282 1.5766-0.51108-0.10474-0.10696-0.81502-0.06864-2.9827 0.34609-0.96383 0.87732 0.26918 1.9965-0.72035 2.8771-0.0839 0.81891-0.666-2.0195-1.8408-0.25665-1.0454 1.8558 0.93294-0.87507-3.1567 1.0174-1.5826 1.5761 1.9885 3.1034 4.0787 4.2197 6.3581 0.28929 2.2299 0.13326 4.5246 0.70714 6.7287 0.061 0.26805 0.39433 2.4851-0.12375 1.1144zm-8.1974-14.013c-0.18599-0.86577-0.94772 0.82607-0.61607-0.46513 0.53058 0.22779 2.3712-0.27061 2.087 0.75388-0.76218-1.1146-1.1526 0.53631-1.471-0.28875zm-1.1949-3.501c-0.60412-0.98318-1.1144-4.1619 0.5763-1.9052 0.73427 0.50344 1.7556 2.4375 0.19911 1.0772-1.3197-1.2466 1.1127 2.2167-0.62696 1.0499l-0.14845-0.22184z" fill="#55aaa3"/><path d="m101.86 215.7c-0.44383-2.4226 0.3411-4.932 1.3291-7.136 0.86865-1.4246 2.491-3.7542 4.3233-2.3012 0.62221-0.63346 2.1394-0.32895 1.0739-0.95643 1.0315-2.0618 3.23 2.0781 3.8792 1.4494-0.98659-1.0461-2.9244-3.8832-4.28-1.9437-0.65444 1.4162-1.3458 0.0974-1.8439 0.1127-0.74652 0.24067-2.5933 1.662-1.384-0.10188-0.19931-1.1101-1.609 0.0909-0.72618 0.69884 6e-3 0.37089-1.3625 3.7222-3.0653 2.2089-2.0872-1.0874-4.4732-2.5957-4.8982-5.0808 1.1446-0.49556 1.9995 0.33022 2.3088 1.1637 0.95766-0.2275 2.2915 0.41347 1.3538 1.0972 0.66489 0.80912 1.1673 0.86054 1.3802 0.0952 1.104-0.53794-0.78895-0.0947 0.19921-0.80633-0.0914-0.58614-1.5437-2.2915-0.19378-1.0488 0.0967 0.74248 2.0172 2.5235 1.4415 1.4582-0.17789-0.4288-1.6393-2.3816 0.0166-1.4905 0.81918 0.56612 2.7398 0.81481 1.2007-0.49214-2.194-2.0902-4.7745-3.7146-7.0662-5.6903 0.80276-0.12937 1.2971 3e-3 1.1309 0.3928 2.2739 0.98633 0.37587-1.9982-0.73585-2.0258-1.0456-0.72504-0.9406-1.3242 0.2942-0.74658 2.977 0.63262 6.5836 0.0238 8.8967 2.4113 1.4746 1.7822 3.021 3.8053 3.2789 6.1657-0.93373 0.54855 1.3492 0.9334 1.4429 1.3609-1.5923-3.4154-2.8217-7.1085-2.7326-10.924-0.0742-3.1495 0.0507-6.3646-0.30634-9.4718 0.7583 0.82464 2.5223 2.6653 2.161 3.3643-0.4667 7e-3 -0.19012 0.78087-1.065 0.46485-0.48054 2.2438 1.7791 3.3317 1.8996 5.3376 0.5076 2.7916 0.0446 5.7772 1.1878 8.4365 0.527-0.82439-0.45057-3.3714-0.26133-4.8483-0.32749-1.6516 0.088-2.7066 1.1568-3.7736-0.53338-0.99127-0.88393-0.60881-0.32211 0.0352-0.97666 0.0879-1.1695-1.547 0.19115-0.99288-0.32277-1.4341 1.6065 1.2654 0.9799-0.88021-0.44157-1.0833-0.61003-0.51385-0.53548 0.13989-2.1306 0.36874-0.90415-4.1976 0.63795-2.1014 2.4427 0.79746-1.4446-1.3141 0.0798-1.9011-0.21911-0.45523-1.5632 0.574-0.40782-0.54078 1.5612-0.26042-0.49148 1.7088 1.1433 1.5999 1.0077 0.57947 0.38928-2.2668-0.51396-2.4961-0.54143-0.58922-0.48007-2.9863 0.29401-1.3383-0.87961 0.44688 1.0501 1.6154 0.6508 0.29302 0.81829 1.5183 0.49853 3.546 0.7752 5.2636 0.0419 1.1353 0.24166 2.3021 0.18439 3.4176-1.9862 3.8724-4.0088 8.1304-3.2401 12.594-0.0582 1.7559 1.2712 4.1771-0.0253 5.5473-0.91831 1.7996-2.4012-1.6635-3.2788-2.3632-0.47551-0.51112-1.1634-0.98633-0.54062-1.6831 0.50848-0.76907 0.93914-3.0064-0.21027-1.2484-0.42013 1.9945-1.825 3.4515-3.5471 4.4551-1.4504 1.4557-1.6618 3.745-3.1561 5.1572-0.24737 0.1912-0.51244-0.1229-0.55538-0.33767zm12.848-2.6734c0.15011-1.9416 1.3194-3.6795 2.2149-5.3776 0.55226-1.0296 1.3488-1.8832 2.2272-2.6399 1.1963 0.81119 2.4844 0.82401 3.7124 0.0339 1.872 0.12219 2.973 2.1675 1.5719 3.5007-0.19766 3.0432-2.6097-0.89366-3.7556-1.4497-0.78784-1.2176-2.7666-0.0653-0.75039 0.173 1.3497 0.53019 1.2019 1.0795-0.0322 1.5786-1.6433 1.4255-3.0441 3.17-4.8506 4.3885-0.15416 0.0612-0.28507-0.0859-0.33775-0.2075zm4.718-7.1229c-0.77575-1.3323-1.4727 1.9955 0 0zm-5.5563 5.6002c0.84277-2.6038 0.61683 2.0383 0 0zm12.827-0.9338c0.33619-0.72947-1.2817-1.3387-0.0444-1.0733 0.40596 0.409 1.3666 1.8188 0.0444 1.0733zm-12.148-0.24307c-1.1315-3.7511-1.3901-7.9388 0.10207-11.64 1.4339-3.7343 3.4016-7.2352 5.1102-10.842 0.48573 1.8636 0.41314 3.9335 0.36995 5.8838-0.3927 3.0262-0.98491 6.0723-2.1079 8.9178-0.6479 0.89866-0.0229-1.7522-0.65521-0.26323 0.15321 1.5447-0.20527 3.1311-0.52982 4.4094-0.90694 0.77112-1.1946 3.7158-2.2893 3.5351zm3.3896-5.6518c1.7692-3.6376 2.0976-7.7364 2.9731-11.631 0.67178-1.7304 2.365-3.526 4.0162-4.0424-0.39212 1.0816 1.4976 2.4455-0.47526 2.1798 0.40396 1.2812 2.9677 3.3712 2.467 0.63646-0.78905-0.81377 1.0397-0.38683 0.0356-1.3345 0.4677 0.0355 1.0428 1.3408 1.1363 0.3145 0.89179-0.31729 2.0642 0.35562 0.94671 0.84984 0.71382 0.692 1.1836-1.0012 1.7839 3e-3 0.0242-0.35605 0.0361-1.5502-0.49986-0.77875-1.6764-0.91546 1.7244-1.297 0.0458-1.5924-1.5497-0.65475 3.1714-0.70298 1.6295 0.78782 0.38624 0.64992 0.0551 2.0629 0.74129 0.6527-0.50473-1.534-0.16191-2.4299 1.5724-2.6484 1.3662-1.2896 1.9011 0.16491 1.1872 1.3334-0.97427 3.3443-4.2446 5.4051-7.5738 5.7807-2.541 0.35265-5.2324 1.4828-6.6071 3.7486 1.7283-0.99631 3.7322-1.9674 5.8734-1.835 2.011 0.0814 3.9972-0.24523 5.951-0.67744 1.8467 0.69009-1.2939 3.1526-2.1016 4.1341-1.9714 1.8165-4.4804 2.9511-6.9584 3.8978-1.8046-0.11865-3.3618 1.4544-4.8929 0.0539-0.92036 0.3831-2.3867 2.1311-1.2505 0.16641zm-21.375-2.5407c0.0526-1.171 1.315-1.2657 0.54825-0.15417 0.20482 0.42497-0.43498 0.49968-0.54825 0.15417zm11.627-3.7144c-1.0343-1.9687-2.986-3.2462-5.1206-3.7377-0.92117-0.0143-2.9053-2.9911-1.1958-1.6942 0.74123-0.75677 1.3422 0.57318 1.4793-1.0018 1.0364-0.87542-0.69566-1.5925-0.61623-0.26053 1.0625 1.4648-1.9022 0.0583-2.3041-0.46056-0.91354-1.377 0.42272-1.4986 1.1454-0.68961-0.43248-1.0115-1.6452-1.4717-0.73132-2.7037-1.0519-0.89947 0.73694-1.2715 1.2172-1.0603 1.1721 1.5083 1.8973-0.90437 0.69303-1.7974 0.67756-0.30763 0.18231-0.61661 0.2661-0.88951 1.9154 1.8274 3.1467 4.2512 4.6772 6.4 0.21956 1.2464-0.0371 2.6211 0.17846 3.9026-0.0353 1.3158 0.86817 3.6814 0.4388 4.3466l-0.12749-0.35394zm-8.6274-9.9506c-0.49414-1.0032 0.0094-2.3784 0.24563-0.58845 0.0041 0.12103-0.0126 0.81018-0.24563 0.58845zm15.101-5.428c-0.8099-1.1859 1.9816-0.42149 0.37499 0.20641zm-16.231-3.3694c-0.67729-1.2328 0.09607-2.1013 0.92373-0.64953 0.63236 0.66596 1.7527 2.2936 0.22784 0.7934-1.217-1.2907 0.5528 1.9066-0.75892 0.84973-0.18304-0.30788-0.28701-0.65417-0.39265-0.9936z" fill="#46a39b"/><path d="m101.86 215.51c-0.46122-2.4756 0.37806-5.0824 1.5981-7.2125-0.21878 0.96348 0.49921 2.3556 1.1542 1.0201 1.166-0.13811-2.195-2.1577 0.15133-2.4833 0.36993-0.82781 2.0563-1.3182 2.025-0.62645-2.1537-0.199 0.0579 1.3257 0.4407 2.1541 0.82991 0.81679 1.7774-2.7218 1.3726-0.68958-1.1527 2.1889-3.6476 3.2489-4.6553 5.5527-0.24218 0.59797-1.3452 4.1317-2.0866 2.2849zm12.859-2.4616c0.0362-1.9301 1.4924-3.5813 2.0479-5.4084 0.26883-0.77085 2.4626-2.7357 2.2736-2.2096-1.0839 0.68142-0.90287 2.1659 0.64406 1.7758 0.6102 0.11018 0.64766 1.5564 0.7659 0.43841 0.97518 0.93204-2.1605 2.0036-2.6202 3.1515-0.89435 0.55517-2.0854 2.6574-3.1112 2.2524zm-2.1775-1.0725c-1.0296-0.37478-1.8177-1.7561-2.7347-2.7057-0.67923-0.48141-0.84097-1.054-0.3331-1.7447 0.69461-0.84392 0.59312-3.7284-0.09-1.4972-1.49 1.0329 0.40877-0.7083-0.43193-1.2466 1.4597 0.1691 2.21 1.7484 3.5898 2.1536-0.7222-1.655-1.6534-2.4101-3.482-2.961-0.85743 0.32803-1.7055 1.3484-1.787 1.6572-0.50319-0.43886-2.9711-0.69335-1.677-1.4391 0.63924 0.54476 1.8291 1.3216 0.94748-0.11302 0.26206-0.97099-1.7723-2.1798-1.4323-0.41691-0.29272 0.81316-1.5591-0.0253-0.43976-0.14293 0.0868-1.6433-2.7649-1.6362-2.5684-3.6433-0.52827-0.66353-1.2514 0.0854-0.40884 0.0741-0.84729 0.67652-3.5903-2.1173-3.4316-2.1884 1.7758 1.5056 1.0198-1.2856 0.66093-1.8791 0.94575-1.5411 2.933-0.83791 4.5535-0.61327 2.7401 0.55544 4.2508 3.149 5.5464 5.3737 0.67644 1.0559 0.82651 4.5236 2.3452 3.6164-0.50962-0.36541-0.4971-1.253 0.0618-0.34693-0.61509-1.2768-2.0098-2.709-2.1257-4.5404-1.239-4.5033-0.73615-9.2091-0.85969-13.823-0.0763-0.88389-0.0436-1.4789 0.59948-0.45596 0.54587 0.68164 2.4896 2.992 0.64484 1.9896 1.2786 1.1856-0.59863 0.36315-0.51394 1.0499-0.64534 1.054 1.0389 1.9018 0.38694 3.0829 2.1093-0.11802 0.51943 2.5457 1.6468 3.6351 0.37923 2.2556 0.11905 4.6797 1.0651 6.8055 0.95569-0.19272-0.42684-2.997-0.14444-4.2002-0.21175-1.7352-0.2376-3.2434 1.0851-4.342-0.13322-0.80493-1.6043-0.70031-0.20345-0.96787 1.6282 1.0057 1.2411-1.5035 0.61595-2.0382 0.9154-0.0303 1.3956-0.0495 1.6871-0.36699 0.44291 0.0898-0.23638-0.76314 0.42146-1.2179 0.14327-1.0018 1.0649 1.9989-0.0186 1.9027 1.2679 1.6219 0.34395 3.9982-0.56705 5.6486-1.0896 2.054-1.537 4.3509-2.3292 6.5079-1.3008 0.92953 0.7834 1.283 0.22306 2.6695-0.20432 1.5849 1.4033 3.7788-0.26529 4.6329-1.2095-0.17202 0.52034 1.5662 0.52176 0.24626 0.33841 0.68887-0.40321 2.1367-0.68299 2.146l-0.0753-0.30028zm-7.9375-11.713c-0.97324-2.0558-1.4371 1.0977 0 0zm-3.5049-1.8309c-1.3827-0.85155-0.7336 2.2824 0.0876 0.57631 0.10335-0.1852 0.0572-0.42742-0.0876-0.57631zm8.9933-3.8264c-0.76585-1.0004-1.5974-0.57973-0.36084 0.28028 0.21768 0.96238 0.89669 0.2579 0.36084-0.28028zm4.4686 15.736c-0.90392-2.7655-1.0721-5.7896-0.71845-8.6747 0.7621-4.9326 4.0084-8.9548 5.7544-13.539 0.37917-1.2865 0.31428 0.13439 0.38719 0.71508 0.57091 4.7094-0.44892 9.4516-1.9533 13.895-0.0544 0.0913-0.32055-3.0058-0.66128-0.74172 0.22111 2.2346-0.47437 4.3486-1.4033 6.3614-0.41657 0.42472-0.73037 2.4541-1.4053 1.9836zm8.4887-1.1175c-0.84052-0.58885-0.87994-1.2169 0.075-0.69554-0.46552-0.8077-0.9319-0.70392-1.0739-0.3967-0.66716-0.74628-2.6001-1.8319-2.2033-2.6569 1.7062 0.85563 3.9992-1.8005 5.0071 0.95436 0.78589 0.7523-0.86776 0.92406-0.43375 2.1074-0.12476 0.77047-0.66683 1.5541-1.3711 0.68732zm-21.885-1.6126c-1.3946-0.52532 0.92112-0.38007-0.0671-1.3081 0.65677-0.98107 3.0136 0.45149 2.2411-1.26 1.4536 1.1904-0.72227 4.1404-2.174 2.5681zm-1.6592-0.79073c-0.38894-0.92959-1.9599-0.95659-2.5147-2.421-1.6833-1.1542 1.1451-1.8 0.79593-0.26096 0.37442 1.7143 2.055-0.56709 1.9973 1.3349-0.43335 0.45894 0.93846 2.2723-0.2786 1.3471zm18.468-2.1645c1.5371-3.3646 2.2362-7.0353 2.7291-10.679 0.3456-2.2342 2.1531-3.8553 3.9306-5.0517 1.0234 0.40536-0.2538 0.99806-0.40786 1.1396 1.1718 0.51923 1.1282 0.71034 0.13774 1.1864-0.94032 0.784 0.97972 1.4932 1.5369 1.8327 1.1276-0.20727 0.89887 0.79809 1.7035 1.0133 0.7883-0.51209-0.87535-2.7826 0.54478-1.7073 0.79615-1.3925 1.9346 0.73459 2.2317-9e-3 1.2738-0.22826-1.7624-0.39578-0.12079-1.0783 0.55901-0.58539 0.39861 1.2867 0.80938-0.12205 0.0307-1.0313-1.1738-0.70996-0.13814-1.2684 1.0234-0.76178-1.7797-0.76526 0.0526-1.048 1.901 0.0754 0.76721 1.6235 0.80944 2.2376 1.4067 1.0347 1.8366-1.5211 0.85774-1.4169-0.98785-1.8451 2.1548-0.60376 1.7268-1.369 1.1954-2.0226 1.8465 0.63426 0.81124 1.5253-0.7086-0.88677-2.1128-0.25088-0.56942 0.24417 0.75213 1.478-2.0242 3.4643-3.4806 4.0942-3.0862 1.264-6.9549 1.0394-9.2823 3.7976-1.133 1.2551-0.18441 1.1731 0.65148 0.2877 2.996-1.718 6.6226-0.72914 9.8344-1.6953 3.0336-0.57878 0.11232 2.7336-0.83848 3.5142-2.0104 2.1163-4.7688 3.3122-7.4446 4.3467-1.5265-0.31649-3.5108 1.6553-4.3792-0.0731-1.1349-0.13495-2.8585 2.7419-1.7061 0.29938zm3.5642-0.22071c-0.39056-0.61988-0.95483 0.9021-0.86534-0.59063-1.2378-0.74357 0.47681 2.1477 0.86534 0.59063zm1.6162-0.6993c-0.26468-1.4627-1.9511-1.4418-2.1998-0.33073 0.68839-0.90921 1.4133 0.0823 1.1596 0.17295 0.50826-0.37617 1.498 1.2642 1.0402 0.15778zm0.99923-2.0222c1.0563-0.84315-0.46083-0.39804-0.69297-0.28421 0.67251-2.6046-2.1889 1.4898 0.14211 0.52366l0.27464-0.10366 0.27622-0.13578zm1.7502-0.62769c-0.66533-0.63279 6e-3 -2.1877 0.0661-2.046 1.5401 0.0977-1.1542-0.9537-1.781-1.1238-0.28201 0.92867-1.0707 2.6187 0.52731 2.6821 0.48689-0.40017 0.92336 1.2913 1.1876 0.48769zm-2.9449-8.5949c0.31364-1.3997-0.27595-0.88124-0.50978 0.0828-0.86643 0.693 0.55592 0.60593 0.50978-0.0828zm-20.362 11.256c-1.2125-1.482 0.40739 0.12852 1.2012-0.31674-1.0795 0.33423 0.59139 1.8015-0.8914 0.68282l-0.15491-0.17336-0.1549-0.19272zm4.8359-6.4299c-1.0604-1.5993-2.8878-2.3295-4.6709-2.7634-1.6662-0.0425-0.73454-2.372-0.14095-1.4673 0.31121 0.63268 1.4253 1.037 0.458-0.0619 0.39286-0.87541 0.82802-1.6245 0.39961-2.6451 0.79709-0.55715 1.1098-0.0629 0.8953 0.45988 1.4796-0.25097-0.84608-1.0672-0.22965-1.9064-0.70948-0.43358 0.77151-1.2213-0.6737-0.72908 0.0912 1.1416 0.15443 1.7526-0.952 2.5902 0.93706 0.14929-0.62096 1.7975-1.5475 0.85539-1.5338-0.30633-0.24311-2.8395 0.0154-0.94397 1.0001 0.44411 0.60099-1.4905 1.9323-0.59953-0.16377-0.72526-0.89063-2.0374-0.83288-0.73966-1.3042 0.64655-1.0204-1.3082-0.94203-2.1759 0.70471-1.0828 2.6037 1.7916 2.4394 0.10747 0.15334-0.53863-0.24495-1.5706-0.60116-2.4133 0.48818 0.69833 1.7966 2.0682 0.80652 0.36323-0.28865-1.1669 1.3277 1.5232 1.7201 2.0336 0.70099 1.1416 1.5672 2.2325 2.1667 3.4063-7e-5 2.6487 0.24353 5.2906 0.78952 7.882-0.39695-0.36504-0.69701-0.83174-1.032-1.2524zm8.0866-9.9181c-0.91999-1.4277 0.99414-0.78289 0.3638 0.38571l-0.12051-0.11763z" fill="#2d968e"/><path d="m101.81 214.9c-0.15671-2.195 0.53054-4.468 1.5494-6.3821-0.26463 0.69288 0.0998 2.1751-0.1095 2.8321 0.84247-1.2005 1.266 1.07 1.761-0.63048 1.2693-0.30874-1.0714 1.5188-0.99439 2.272-0.71213 0.65079-0.79694 3.6816-2.0108 2.7648-0.0919-0.2788-0.15173-0.56666-0.19574-0.85637zm12.935-1.9831c0.1727-1.8966 1.4706-3.5881 2.2497-5.3249 0.23808-0.73939 1.6014-2.6065 1.2069-0.58829-0.10736 1.0812 1.6304-0.13442 1.1719 1.1245 0.68059-0.10601 1.5296 0.41295 0.32437 0.46353-1.3086 1.7124-2.8784 3.2476-4.5421 4.6104l-0.17242-0.0838-0.2383-0.20145zm-4.6492-3.2743c-0.28077-0.36701-1.6126-1.6828-0.48953-1.2973-0.205-1.3595 0.43896-0.62962 0.51071-0.27469 0.47663 0.0508-0.27833 1.5132 0.7778 1.9546 1.0737 1.3881-0.4641 0.16598-0.79898-0.38251zm4.3339 0.0538c-0.52621-2.0577-1.0144-4.2293-0.72769-6.3548 0.78855-0.0806 1.9365-0.83064 0.28238-0.60931-0.6873-1.7022 0.97745-3.9768 1.5033-5.7785 1.327-3.0556 2.8753-6.0072 4.3315-9.0017 0.57713 3.6094 0.17251 7.2805-0.70509 10.808-0.10636 0.82477-0.24228 1.573-1.0093 0.68801-1.9627-0.94297 0.44614 1.3491-0.72222 2.2015-0.0199 2.0898-0.12526 4.0607-1.1135 6.0072-0.4548 0.51961-1.3472 4.2826-1.8394 2.04zm1.2851-5.1478c-1.4248-2.0239-0.59527 1.1654 0.76359 1.354-0.14245-0.49532-0.4981-0.91814-0.76359-1.354zm2.7572-6.0308c-2.5274-2.6211 1.0226 2.2891 0 0zm-12.431 10.847c-0.50592-2.1782 1.8866 1.0285 0.11833 0.84884-0.14031-0.26319-0.0954-0.56564-0.11833-0.84884zm7.0673-0.57619c-1.0806-0.25807-1.9188-0.30778-2.2934-1.6095-0.66997-0.40005 0.37867-2.1197 0.83905-0.57718 1.2216 0.95351 1.2846 0.032 0.25744-0.61148 0.0537-0.93975-0.20854-1.1506-0.39001-0.57107-0.58831-0.98961 1.4108-4.0735-0.1837-4.0481-0.89149 0.45949-0.75629 0.85195-0.43087 1.7017-1.1605-1.3668-1.3288-3.3154-1.822-4.9965-0.25613-1.6949-0.9441-3.6023-0.50928-5.2319 0.91065 0.53822-0.4238 1.8622 0.99241 2.5742 0.70327 0.40991 0.25605 2.181 1.1402 0.81793-0.0421-0.45825-0.59857-2.1124-0.91093-3.0401-0.55143 1.6761-0.62648-0.69182-1.3363-1.0755 0.0547-1.1778-0.17238-3.3868 0.5805-3.9404-0.0158 0.96809 0.5013 2.4817 0.15871 2.513 0.87478-3e-3 -0.91382 2.1095 0.38174 0.88468 2.1795-0.40467 0.0713 2.2347 1.5954 2.9573-0.26926 1.8896 0.37323 3.6353 0.56258 5.5014-0.18748 0.9537 1.3601 3.2154 0.90187 1.0369-0.42085-2.1951-0.66626-4.4909-0.44056-6.7156 1.4665-0.14057 0.60564-2.4013 1.7895-1.7876 0.52913-0.62508 0.28348-3.035 1.0892-1.4893 0.67469 0.40145 0.68104-0.88435 1.1169 0.45014 0.47297 2.9568-1.7937 5.2875-2.4598 8.0175-0.14685 1.9773-2.1354 3.5823-0.69531 5.2965-0.10135 1.3535 0.60998 3.2573 0.34127 4.2008l-0.27468-0.25791zm-11.082-0.78889c-0.94802-1.0372 0.7847-1.823 1.0736-1.1264 0.63787-0.56239 1.4271-1.3733 0.54988-0.1793-0.43481 0.50856-0.76112 1.7655-1.6234 1.3058zm21.101-1.28c-0.58326-0.56792-1.1775-1.6154 0.16685-0.94691 1.5067 0.5818 1.3132 2.7746-0.16685 0.94691zm1.187-0.66545c-0.69872-0.66326-2.969-1.333-0.73521-0.83968 0.66948 0.22058 1.9472 2.0695 0.73521 0.83968zm-1.008-2.1596c-0.53613-1.3091 1.131-2.4385 2.3044-2.1593-0.98526 1.0116 1.1908 1.5428 1.1041 0.69761-2.218-1.1937 2.0961-1.824 0.39816-3.1949 0.66437-0.94162 0.20335-2.6298 1.8447-1.8155 1.4222-0.31195 3.1712-0.86333 4.5289-0.88671-0.99731 0.6111 0.30826 1.9023-1.0839 2.5949-2.2058 2.7005-5.5184 4.0079-8.5392 5.5452-0.31952-0.09-0.40297-0.53742-0.55713-0.78137zm6.6918-3.1942c-0.90346-0.5882 0.40893-2.4021-0.47627-3.1075-0.73123 0.3756-1.5283 1.8258-0.1522 0.89377-0.0462 0.75647-1.6518 1.6297-0.16919 1.4724-0.83179 0.76122-0.58567 2.6236 0.59992 1.0211l0.19774-0.27979zm-10.878 3.5353c-0.0453-1.5878 0.13553-3.636 0.86088-5.3175 0.36611-0.81411-0.22379 2.0417 0.50087 0.67327 0.57845-1.7209 0.35076 1.3661 1.0949-0.45164 1.124-0.95303 3.931-2.7876 4.768-1.0873-0.83252 0.24651-2.5905-0.96793-2.6027 0.90186-0.66508 1.3194-1.2158 2.6015-2.671 2.832 0.20349 0.59525 1.3133-0.77704 0.24787 0.58979-0.6726 0.90629-2.0077 0.51273-1.6386 1.7199 0.0358 0.27131-1.1728 0.59366-0.56023 0.13955zm-10.28-0.44337c-0.67659-0.22981-2.7928-0.2742-1.1878-1.0971 0.86574 0.59872 0.20877-1.8635 0.75803-1.7477 0.11932-1.2718-1.094 1.4057-1.7771 0.30772-1.2225-0.16903-2.1812-2.2558-3.2069-1.4637 0.59735 1.8578-2.0084-0.20375-0.0674-0.49477 0.25445-0.75735 1.7198-1.801 0.0697-1.1337-0.73411 0.87015-1.073 1.2932-2.1216 0.2464-2.1441-1.1517-0.49236 1.5397-0.92121 1.1456-1.2246-0.62717-1.6668-2.876-0.45961-3.6768 0.04106-0.81391 2.4258-1.2953 1.4968 3.2e-4 -0.13343 1.3502 2.4898 0.14934 0.75772-0.15021-0.12714-1.5126 2.7961 0.10697 3.6352 0.66863 1.5037 1.5336 2.9592 3.2997 3.5466 5.3986 0.64213 0.7445 0.48149 1.889-0.52236 1.9967zm-3.4396-4.0842c-0.5769-0.37599-0.74671-2.0322-0.85472-0.43721 0.0207 0.31097 0.73539 1.1116 0.85472 0.43721zm20.265 0.59772c-0.32863-1.4642 2.7366-0.1642 0.54931 0.0419-0.17676 0.0169-0.38985 0.0744-0.54931-0.0419zm-18.096-2.8517c-1.0244-1.7609-3.0323-2.3215-4.7646-3.0517 1.1061-0.24893 0.19715-1.8925 1.0076-2.6601 0.4348-0.82844 1.069-0.39125 1.7115-1.2946 0.88674-0.79281-2.4145-1.1221-0.65194-2.3822 1.2786-1.2226-1.5337 0.34763-0.69874-1.1486 0.66242-0.67124-0.50161-2.2492 0.55599-0.66364 0.79995 1.2727 1.2238 2.3777 2.2892 3.3748 0.9291 0.97318 0.44335 1.426-0.44465 2.0137 1.5297-0.33239 1.1252 3.2377 1.032 4.5498 0.77087 0.6882 1.5882 3.9098-0.0364 1.2625zm-2.0046-2.8259c0.10562-1.2871 0.18835-2.2366 0.1459-3.5892-0.82929 0.0115-1.3468 1.9846-0.31889 0.86382-0.68577 0.90722 0.26959 1.8178-0.63962 1.7387 0.86134 0.77904-0.89016 0.79037 0.43938 1.2896l0.19624-0.0943 0.177-0.20869zm15.71 3.3909c0.46699-0.67659 1.2409-0.73296 0.0132-0.93546-0.56852-0.40567-1.0184 0.81215-0.0607 0.3355-1.8659 1.3568-0.34212-2.4775-0.51994-3.441 0.26697-1.816 1.7778-3.4684 3.1452-4.4585-0.40739 1.7184-2.1741 2.4846-1.88 4.264-0.13063 0.64169-1.2442 3.2051 0.13883 1.623 0.96137-0.48831 0.6184-3.2334 1.4037-2.7578-0.21151 0.94323 0.99464 1.2288 0.81771 2.2395 2.004 0.64836-1.5188 1.7932-1.988 2.5918-0.21031 0.0974-0.91805 1.0186-1.07 0.539zm3.8451-3.3213c-1.2618-2.6518 2.1531-0.57117 2.147 0.48253-0.69616-0.84262-0.96055-0.0484-1.3897-0.0151 0.21335 0.85272-0.76744-0.26246-0.75729-0.46747zm3.4971-0.0623c1.7909-1.1534-1.7699 0.0156-0.38533-1.5208 0.5686-0.52512 0.12474-1.6266 0.55095-0.21437-0.0771 1.8748 0.80456-1.2015 1.9153-0.0668 0.70585 0.6147 1.0641 0.96639 1.401 0.11299 0.83409 0.42097 1.5973-0.99475 0.28846-0.40525 0.0972-0.61791 2.365-1.8458 1.7926-0.79401-1.2611 1.9469-3.6054 2.9615-5.8611 3.1054l0.0289-0.068 0.26931-0.14911zm2.5119-2.248c-0.77879-1.1243 1.3465 0.60889 0.46495-0.74875-0.12898-1.1293 1.3864 1.3871-0.46495 0.74875zm1.6836-3.152c-0.48358-1.2439 2.1853-0.58074 0.56701-0.20001 0.92972 0.49389-0.39336 0.96337-0.56701 0.20001zm-31.381-0.90444c0.0189-0.65408 1.514-0.19911 0.30822-0.98463 0.75151 8e-3 1.7769 1.183 0.48553 0.92802-0.0602 0.42574-0.88353 0.71173-0.79375 0.0566zm32.983 0.14717c-0.13596-0.85789 1.9436-0.9258 0.68874-0.33266 0.77948 0.7069-0.37669 0.86942-0.68874 0.33266zm-24.663-0.69939c-1.1905 0.30194-1.4284-1.2457-0.99338-1.7596 0.64178 1.1455 0.22099-1.3545 0.98509 0.0629 0.81571 0.77745 0.77854 1.5612-0.22207 0.52012-0.40352 0.27907 1.2098 2.0614 0.23036 1.1766z" fill="#178c82"/><path d="m114.78 212.86c0.63642-2.2521 1.7091-4.4022 2.92-6.4035 0.90152-0.88983-0.36659 1.7469 0.90599 1.3934 0.21586 0.77924 1.4546 0.88271 0.18252 1.7521-1.1808 1.252-2.3287 2.5716-3.712 3.6014l-0.15508-0.10087zm-0.32628-3.2285c-0.41632-1.9665-1.0439-4.0146-0.7456-6.0318 1.2824-0.68568 0.90742 1.6559 2.098 2.1048 0.92922 1.6952-0.44999 3.408-1.0669 4.9853-0.0952-0.35278-0.19035-0.70555-0.28552-1.0583zm0.73924-4.0694c-0.44162-1.2823-1.77-0.99902-1.0475 0.38954 0.17398 0.53445 0.94482-0.11509 1.0475-0.38954zm-2.2908 2.5483c-0.53188-0.46014-3.0065-2.7637-1.1063-1.3755 1.6364 1.0726 0.60803-0.51988 0.10081-1.1562 1.356-0.53502-1.3002-2.3824 0.40322-1.6765 0.78542 1.2801 1.0064 3.0777 0.83885 4.4872l-0.23655-0.27899zm3.5667-1.4106c0.24721-1.5118-1.1203-2.9676-1.7643-4.1843-1.9364 0.11446-0.0845-2.8408 0.0589-3.9389 1.3477-2.867 2.604-5.8832 4.2464-8.5501-0.3973 2.4942 0.80508-0.11438 0.82924-0.0177-3e-3 2.3511 0.0765 4.7416-0.38612 7.055-0.32107 1.0886-0.094-2.2545-1.181-0.84555-0.56039-0.69533-2.7206-0.0206-0.98603 0.40933 1.7722-0.51107-1.9087 1.0952-0.68844 1.732-0.0338 1.5997-0.42958 0.70413-0.61075 0.33778-0.90241 0.4919-2.316 3.8949-0.42006 1.8984 0.3707-0.59424 2.7022-1.0769 1.9276 0.56799-0.82146 1.8656 0.24108 4.3826-1.1885 5.9212l0.1629-0.38504zm1.5801-12.735c0.14666-0.71437 1.0473-0.69028 0.20578-0.0856 0.48085 0.98886 1.1494-1.439 1.4154-1.9408 0.0255-0.53085-0.78159 0.26218-1.0395-0.33241 0.20929 0.62352-2.3527 2.182-0.55487 2.678l-0.0268-0.31928zm5.4088 9.9297c-0.87275-1.6926 1.2613-0.21384 1.9621-1.0924 0.4079 0.64927 2.7778-0.70536 1.1415 0.45759-0.93041 0.17319-2.959 2.4877-3.1037 0.63485zm3.7771-1.506c-1.859-0.50123-0.11537-2.1531 0.328-1.2008 0.0582-1.2291-0.55303-2.9771 1.0892-3.2002 0.19657 0.47907-1.0222 1.4392 0.2282 0.97963-0.55895 0.80049-1.1747 4.3478 0.48602 2.4593 0.63414-0.33112 0.52573-1.7524 1.1565-0.68719-0.0661-1.3889 1.9849-0.84713 0.31-0.041-1.1186 0.62158-2.1726 2.3407-3.598 1.6904zm-14.694-2.0501c-0.60519-1.0236 0.50106-2.3212-0.23537-2.5856 0.28243-1.0561-0.55591-1.8509 0.14929-2.6659 0.13894-1.4649 1.5996-1.2327 1.6648-2.5208-0.0248-1.2704 1.3479-1.5114 2.0584-1.2159 0.48019 2.7559-1.5794 4.957-2.2716 7.4745-0.36708 0.81348-0.89238 4.315-1.2994 1.8187l-0.0662-0.30502zm-2.1376 1.0486c-1.2471-1.3773-1.2878-3.4739-1.6196-5.2389-0.18909-0.81183-0.19453-2.7279 0.29551-0.85118-0.15215 1.293 0.87377 0.56751 1.093 1.7638 1.6417 0.26201 0.2338 1.8094 0.37204 2.4508-1.1892-0.71851-0.13517 1.6931 0.57148 1.968-0.24225 0.0795-0.47891-0.0576-0.71242-0.0925zm-2.8742-0.53478c-0.77872-0.27408-0.89388-1.2033-1.229-1.4911-0.57607 1.187-1.3341-1.09-1.6092-1.3017-0.64847-1.1433 1.1386-0.52009 1.5248-1.3447 0.92061 0.44283 1.1722 2.1176 1.1146 2.0993 0.88998 0.0566 2.2483 2.4215 0.82172 1.5638-0.13251 0.0614-0.47947 0.7942-0.62291 0.47443zm-3.0043-1.0934c-1.0313-0.67242-0.40342-1.682-9e-3 -0.33647 0.68345 0.46968 1.4026 1.6076 9e-3 0.33647zm6.3693 0.56354c0.52132-0.56464 0.27228-2.5091 0.67199-0.73357 0.5485 0.63955-0.70842 1.1307-0.67199 0.73357zm-11.239-1.9174c-0.01669-0.99354-1.0602-2.5727 0.74853-1.72 0.88528-0.28558 1.86-0.0613 2.0859-0.0657 0.12727 0.82883 1.6958-0.33193 0.61818 0.89952 1.3808-0.1612-0.83818 1.9257-1.2913 0.96095-0.71074-0.74245-1.9036-4e-3 -2.293 0.42916 0.04386-0.168 0.08801-0.33597 0.13169-0.50399zm8.3947-0.22924c-0.47987-1.119-2.2992-2.5713-1.4138-3.7392 0.52173 0.37573 1.6821 0.60217 0.97346 1.3691-1.9724-0.65041 1.825 1.8485 0.44036 2.3701zm-3.0929-1.5064c0.0659-1.3489-0.93578 0.49985-1.0113-0.80757-0.93235 0.49583-2.6445-0.91152-0.70896-0.52782 0.70477-0.2316 3.3518 1.3908 1.7203 1.3354zm17.38 0.15843c0.40439-0.83478 2.6937-0.9532 0.79146-0.0986-0.19114 0.0653-0.79621 0.60427-0.79146 0.0986zm-18.852-2.0699c-1.9486-0.62636 1.338-0.29924 0.60183-1.7999-0.59481-1.2517 1.1151-1.9027 0.42535-0.43785 0.30561 0.82116 0.56938 3.0747-1.0272 2.2377zm2.8291-0.84422c-0.48265-0.74783-0.25524-0.84323 0.45635-0.45702 1.7464-0.81423-0.0441 0.83642-0.45635 0.45702zm2.1913-0.62652c0.24907-0.73822 0.1347-0.76351-0.14309-1.4398 0.93421-0.619 0.61542 2.3395 0.14309 1.4398zm24.15-0.21189c0.22973-0.89545 1.9555-1.5031 0.66733-0.24951-0.22924 0.34623-1.677 1.0552-0.66733 0.24951zm-11.642-0.0842c0.11601-0.90309 2.3304-3.0699 1.0416-1.1952-0.44466 0.21116-0.29304 2.1257-1.0416 1.1952z" fill="#11897f"/></g></g></svg>
