<?xml version="1.0" encoding="UTF-8"?>
<svg width="42.073mm" height="38.203mm" version="1.1" viewBox="0 0 42.073 38.203" xml:space="preserve" xmlns="http://www.w3.org/2000/svg"><g transform="translate(-27.83 -174.07)"><g transform="translate(-47.25,3.375)" stroke-width=".26458"><path d="m82.924 208.64c-1.0198-2.3011 0.08141-4.886 1.0987-7.0005 0.86292-1.4351 2.1158-3.8635 4.099-3.2188 1.2527 0.43235 2.1158-2.598 3.4381-0.64113 0.47974 0.63985 2.9166 2.4106 1.3452 0.73573-1.1317-1.4642-3.5505-2.5105-4.2924-0.16196-1.6972-1.205-3.5633 0.40691-4.3567 1.9115-1.9366 1.41-4.1702-0.95924-5.4325-2.3091-1.3251-1.6251-2.5875-3.7406-2.252-5.8801 1.5932 1.1291 3.2149 2.5601 5.264 2.9273 1.3488 0.27457 2.6779 0.65464 3.9321 1.2262-2.8765-3.5799-7.5458-5.3335-9.967-9.3507-0.72265-0.71463-1.167-2.1913 0.27755-1.1855 1.7624 1.1443 3.8308 1.5622 5.9023 1.6396 2.4385 0.17721 5.1337 0.85937 6.4966 3.0921 1.0904 1.4415 2.0405 2.938 2.5369 4.6912 1.191 1.9352-0.6125-2.3536-0.71522-3.1841-1.2424-5.0747-0.86064-10.336-1.0042-15.514 1.203 1.405 2.42 2.8909 3.0556 4.614 0.0444 0.60086-0.40122 1.0921 0.50671 1.4645-1.3452-0.24006 0.27756 1.2963-0.14814 2.3534 0.10067 3.0053-0.13416 6.0706 0.59547 9.0145 1.0496 1.3424-0.44254-2.4112-0.19343-3.1148-0.14475-1.5545-0.31632-3.8705 0.4619-4.7759-1.0448-1.8032 0.21444-4.1151 0.64329-6.0109 0.73603-2.7671 1.4589-5.5683 1.6546-8.432 0.7661 1.181 0.73638 3.4722 1.0449 5.1046 0.39861 3.133 0.59376 6.2858 0.77444 9.4374-1.8502 3.5057-3.5947 7.2438-3.4314 11.313 0.05483 2.0601 0.37148 4.1508 1.1079 6.077 0.05396-2.0701-0.88412-4.1407-0.7684-6.2627-0.16074-5.9087 3.5608-10.786 5.7182-16.005 0.19871-0.98894 1.0548-1.6851 0.90873-0.16667 0.38524 5.7133-0.49833 11.53-2.8688 16.761-0.49209 2.4198-2.0269 4.4656-2.7866 6.7955 1.556-2.1461 2.1965-4.9588 4.2135-6.7541 1.3193-0.30932 2.5444 0.9776 3.7924-0.26908 2.046-0.5157 2.9008 2.0839 3.8345 3.4128 0.46794 1.1871 3.0218 2.8582 0.24826 2.6673-1.9721-0.37501-3.7746-1.5992-4.9743-3.1893-0.42958-0.85428-3.3985-1.5651-1.3139-0.62051 2.1237 1.1284-1.7303 2.3011-2.3276 3.53-1.2941 1.2347-2.5492 2.8848-4.5073 2.8982-0.79763 0.33234-0.93948-0.81569-1.398-1.2488-0.92615-1.4348-2.0459-2.7279-3.2321-3.9515 0.31885-0.86062 0.91693-1.7214 0.97441-2.6084-1.0677 1.5881-1.6613 3.612-3.4517 4.6098-2.15 1.3219-2.129 4.3664-4.1272 5.7641-0.1033 0.2914-0.36474-0.33409-0.37637-0.18541zm15.499-10.144c1.2305-2.766 2.1601-5.6655 2.7004-8.6518 0.5222-2.0508 0.22737-4.4939 1.8891-6.0786 0.82529-1.5686 3.045-2.3758 4.0763-2.5031 0.656 0.89111 0.32563-0.86389 1.6329-0.29299 2.1294-0.12163 4.3384 0.30992 6.41-0.27553 1.0237-1.2438 2.6641-0.44312 1.7584 1.0733-0.87917 2.994-3.5564 5.1242-6.5448 5.7831-2.7486 0.57879-5.7978 1.1494-7.6282 3.5053-1.0901 1.0436 0.7863-0.3686 1.2073-0.51989 3.3319-1.7488 7.316-0.408 10.731-1.9279 2.35-0.23931-0.81715 2.7351-1.3722 3.523-2.312 2.1767-5.0325 4.0939-8.098 5.0146-1.7948-0.10323-3.358 1.1043-5.1455 0.21439-0.64265 0.17566-0.99374 1.034-1.6168 1.1361zm-9.3633-7.748c-1.1226-2.2034-3.559-3.0583-5.7155-3.8083-2.251-1.9297-2.6288-5.1337-3.0283-7.9065-0.2261-2.5689-0.35216-5.1735-1.1528-7.6422 0.2384-2.0828 2.3196 1.1505 2.8676 1.8315 1.0277 1.928 1.8635 2.7501 3.23 4.3588 1.1695 1.803 2.501 3.5636 3.5652 5.4087 0.13186 2.7641 0.38313 5.5259 0.88724 8.2433-0.06966 0.67084-0.60897-0.40947-0.65334-0.48552z" fill="#94ada9"/><path d="m82.979 208.53c-0.76229-2.7919 0.3784-5.7258 1.7902-8.1238 0.76095-1.7386 2.6036-2.5819 4.1269-1.6784 0.53057-1.4702 1.9584-2.1621 2.9763-0.63415 0.57406 0.7198 2.6689 2.1011 1.0803 0.48924-1.0926-1.1705-2.9887-3.0136-4.0405-0.75883-1.1088 0.30603-2.9047-0.15371-3.9085 1.3071-0.86768 2.6302-3.5488 1.1158-4.9794-0.19305-1.2716-1.1751-4.0104-3.5084-2.3426-5.186-0.09941-0.7113-1.2903-1.561 0.21998-0.55672 1.0441 0.41942 0.38307 1.8756 1.298 0.9734 1.939 1.1571 4.3906 1.0978 6.4151 2.1168 0.22622-0.97382-2.4016-2.4635-3.3404-3.3882-2.1203-1.6941-4.5633-3.2099-5.9854-5.5862 0.1293-0.8177-2.4938-2.7297-0.38716-1.53 2.5287 1.7478 5.6856 1.4364 8.5525 2.0211 2.2093 0.40723 3.8928 2.09 4.8902 4.025 1.3426 0.96429 1.1526 3.8654 2.368 4.2278-0.67752-1.7835-1.485-3.566-1.6959-5.4998-0.78128-4.6434-0.20808-9.3997-0.78235-14.045 0.71687 1.0009 2.7188 2.5056 2.1601 3.6879 1.2051 1.5135-1.5774-0.55127-0.99343 1.1313 0.48899 0.94011 1.5585 1.433 0.79617 2.2658 1.8963 1.127 1.0044 3.5062 1.3698 5.3504 0.27093 1.4928 0.30203 4.7426 1.1774 5.186-0.4798-2.4907-0.66314-5.0707-0.52126-7.6026 1.6147 0.10494-0.7564-2.1747 0.14751-3.216-0.03507-1.8463 1.2014-2.6166 2.5605-1.4766-0.88681-0.65165-2.1476-2.9432-0.70826-2.7566 0.34802 0.43501 2.0208 2.217 1.2815 0.82709-1.9297-1.3303-1.5268-4.1561-0.25776-5.6283-0.76909-0.66055-0.16773-2.0873 0.11319-0.53056 0.79034 3.9857 1.0001 8.0556 1.3037 12.1-2.0434 3.9957-4.0827 8.3782-3.299 12.984 0.30445 1.4666 0.19731 3.32 1.0906 4.4823-0.08154-2.3522-1.0199-4.6548-0.78642-7.0492 0.31014-5.6767 3.8576-10.372 5.8994-15.496 0.34078-0.98292 0.54661-1.1548 0.53138 2e-3 0.65817 5.7486-0.53338 11.565-2.6903 16.887-0.18269 1.8108-1.5161 3.2102-2.1039 4.9116-0.58189 0.97275-1.0104 3.0092 0.0042 0.96256 1.0907-2.117 1.9816-4.4656 3.8875-6.0052 1.2036 0.85911 2.4613 0.68444 3.7333 0.11724 1.7328-0.21279 2.6407 1.8556 2.8232 2.6843 0.51134 0.90535 1.8779 2.6 2.0721 2.9632-0.93619 0.27496-2.7235 0.25057-3.1175-0.61126 1.358 0.61067 0.87255 0.40913 0.14125-0.47847-0.0696-1.3886-0.83472 1.4201-1.5273-0.25616-0.9653-0.86144-3.3803-3.5595-4.0405-2.2895 2.2534-0.28803 1.4181 1.917 9e-3 2.4914-1.4257 1.156-2.5234 2.7352-4.1077 3.6715-0.70196-0.40982-0.98775 0.48665-0.8874-0.65457-2.3347 0.47577-3.1105-1.9902-4.4058-3.3374-1.9923-0.62345 0.90375-3.0712-0.17572-3.3453-0.9773 1.8793-1.9164 3.7935-3.8028 4.9431-2.0161 1.2642-1.5941 4.427-3.8069 5.2119l-0.12538-0.10677zm16.097-11.488c1.5936-3.504 2.1343-7.3644 2.8306-11.109 0.78067-1.789 1.984-3.5852 3.7666-4.4777 1.3996 0.46653 0.34527 3.6887 2.4986 3.3328-1.0239-1.0734-0.38053-2.5546 1.1281-1.6833 1.7522 0.0569 1.1809-0.53297 0.63194-0.41872-0.5116-1.3453 2.1257-1.6995 3.3662-1.5004 1.2376 0.25435 4.3113-2.3998 3.5128 0.31936-0.64611 2.703-2.7718 4.8988-5.4488 5.6415-2.7915 0.71417-5.639 1.4288-8.0799 3.0389-0.98015 0.19269-1.6297 1.898-0.22713 1.0166 1.3128-1.4457 3.5149-1.3271 5.3107-1.5624 2.1432-0.10983 4.3088-0.26033 6.3596-0.92598 1.2264 1.1493-1.657 3.3295-2.6283 4.3304-2.1793 1.7265-4.5029 3.5993-7.2911 4.1357-1.6903-0.10705-3.1335 0.98983-4.7575 0.0985-0.98018 0.0408-1.788 2.0506-1.1 0.0266l0.12758-0.26259zm-9.9303-6.264c-1.1246-1.8611-3.101-2.9605-5.0801-3.6828-2.9249-1.982-3.8457-5.8924-3.5314-9.2375-0.11568 1.6959 1.1916 2.1213 2.2935 1.1837 1.324 0.82957 0.43065-0.21087 0.13085-1.021 0.94775 0.79661 1.4482 0.27913 0.65687-0.74515 0.36062-2.1798 2.0502 1.2389 2.6935 1.9484 1.1023 1.7998 2.8532 3.514 2.5829 5.801-0.05476 2.129 0.60873 4.2189 0.67571 6.3114-0.25171-0.051-0.25519-0.42976-0.42185-0.55815z" fill="#6d8f89"/><path d="m82.973 208.25c-0.76467-2.8539 0.51699-5.8527 2.109-8.1937 0.75551-1.2763 2.3077-2.1672 3.634-1.2802 0.80682-0.14068 1.2022-2.2044 2.0055-1.5197 0.93066 0.48935 2.3229 2.3185 2.8409 2.0626-0.99266-1.5247-3.3274-3.9266-4.71-1.4696-0.98012 0.30434-2.4194-0.62801-3.2374 0.7663-0.99918 1.6116-2.6969 2.7213-4.3312 1.173-1.6012-1.0677-3.3912-2.3717-3.9511-4.2887 0.27011-0.64285 0.49227-2.5934 1.4283-1.5155-0.98625 0.37866-0.62905 1.5436 0.28521 0.78047-0.01708 1.2184 1.5833 1.4955 2.5297 1.9509-0.31778 0.64142-0.91431 1.5954 0.28535 0.78927 1.6441-0.61926-0.49198-2.1516-0.19995-2.323 1.4443 0.17582 2.8102 0.78345 4.2169 1.0288-0.94458-1.5131-2.6399-2.5116-3.9978-3.6769-1.7763-1.429-3.8036-2.6826-5.1199-4.5806-0.45551-1.1022 1.9925-0.0698 0.5618-1.1587 0.40216-0.18176 3.145 0.80759 4.4171 0.68321 2.3978 0.11056 5.0706 0.65194 6.5147 2.7765 1.2274 1.6622 2.5084 3.5547 2.6664 5.6518 0.91668 0.73101 1.3571 0.15194 0.62196-0.70174-2.6511-5.2504-1.7275-11.302-2.0983-16.965-0.21265-1.1101-0.20613-2.0568 0.67774-0.67133 1.1335 1.0593 2.0919 2.998 0.20042 3.2173 0.01812 1.854 1.4522 2.9884 1.9172 4.6452 0.60152 2.9105 0.04427 6.0248 1.2355 8.8165 0.50077-0.84881-0.41858-3.4269-0.2344-4.9251 0.04114-1.2303-0.45913-2.699 0.77572-2.9862 0.6065-0.9693 0.46506-0.85573-0.34394-0.69272-1.3465-1.1836 0.4521-0.72475 0.58028-1.2919-0.04485-0.62369 1.497 1.3398 0.96033-0.37257-0.23565-0.77529-0.88338-1.3032-0.54533-0.21224-2.0909 1.2926-1.0818-4.129 0.44395-2.0531 1.5837 1.0596 0.98947-0.45969-0.01172-0.96217-0.3849-0.32537 0.64455-1.5916-0.19447-0.74042-1.3961-0.38238 1.0956-1.2692 0.90587 0.26347 0.72686 1.7369 1.2203-0.50819 0.38762-0.98296-0.97498-1.0057-1.3363-2.9761-0.2943-4.2874 1.2461-0.44789 0.35629 0.9917 0.0091 1.2924-0.19916 0.89526 0.57084 2.6975 0.63692 1.151 1.025 1.2018 0.46435 3.3782 0.78702 4.9507 0.03893 1.2329 0.23021 2.4958 0.17465 3.7101-1.8314 3.6952-3.7958 7.6134-3.2816 11.866 0.51338 1.6868 0.0288 4.339 1.0982 5.4573 0.7615-0.97283-0.72874-2.6393-0.55562-3.9476-0.728-5.8268 2.1856-11.219 4.6977-16.257 0.49956-0.7345 1.2358-2.9869 1.5508-3.0388 0.70991 5.5-0.23265 11.112-2.2601 16.248-0.35982 1.9828-1.1185 3.6531-2.1376 5.413-0.75962 1.2685-1.6366 3.9911-3.3955 2.9322-1.1519-1.1981-1.8682-2.7844-3.209-3.8182 0.38148-0.88976 0.9908-1.732 1.061-2.7153-1.5409 0.75191-1.223 3.2599-2.9556 4.1118-1.6471 0.95722-2.6116 2.6046-3.3098 4.3205-0.32083 0.42253-1.1691 2.8137-1.8422 1.5701zm12.821-2.6035c0.14503-1.9429 1.3399-3.6953 2.215-5.4129 0.54508-1.0418 1.3198-1.9246 2.1881-2.7061 1.2227 0.87586 2.5435 0.69795 3.8328 0.0627 1.9287 0.0528 2.8052 2.4502 1.7021 3.5986-0.48273 2.8519-2.4201-0.56204-3.6036-1.2682-0.53201-0.98517-2.4916-0.42256-1.708-1.5003-1.6101-0.0305 0.14872 1.7815 1.1127 1.4158 0.54058 1.8053-2.3302 2.8475-3.3413 4.1998-0.74428 0.38353-1.4474 2.333-2.3976 1.6106zm3.1525-8.2143c1.7662-3.622 2.1648-7.6968 3.0568-11.577 0.48085-1.891 2.3441-3.9986 4.0739-4.243-0.62991 0.95498 1.8451 2.7866-0.27594 2.086-0.0482 0.76183 2.3807 3.4876 2.2628 0.94791-0.96271-1.1666 1.355-1.0876 1.9998-1.3362 1.7138-0.27959-0.14638 0.78394 0.63593 1.1066 1.0824-0.67868-0.13127-2.1045 0.89266-2.2352-2.2792-0.5119 1.1254-1.3531 1.8548-0.29391 0.3477-1.1222 2.5063-1.4865 3.4376-1.6451-0.0263 2.4597-1.6242 4.8249-3.6987 6.0977-3.0876 1.7858-7.262 1.1619-9.8026 3.9586-0.93244 0.72635-0.98347 1.5219 0.17416 0.54455 2.9732-1.9128 6.6811-0.69041 9.894-1.7745 2.4796-0.92226 1.2694 1.7272 0.17432 2.5065-2.2644 2.589-5.338 4.4879-8.6209 5.4772-1.7366-0.13964-3.2417 1.4-4.7024 7e-3 -0.72145 0.17581-2.456 2.2057-1.3562 0.37302zm-9.6443-6.4664c-1.0011-2.1076-3.2718-3.1741-5.3799-3.861-0.91326-0.0514-2.5901-3.1074-1.1192-1.5457 1.6661-0.49945 0.40164-1.1414-0.59444-1.1084-1.5462-0.67999-0.87168-2.6226 0.33899-1.6435-0.89813-0.77381-0.98583-1.5052-0.62861-2.5957-0.73886-1.2494 1.4951-1.0495 2.0307-0.49494 0.85799-0.39641 0.69765-0.60884-0.0095-0.19011 0.46337-0.79275 0.02054-1.569 0.09221-2.2434 0.86209 0.21083-0.94379-1.5628 0.5203-0.36406 1.5909 1.9803 2.9091 4.1594 4.3449 6.2516-0.09245 2.6122 0.19187 5.211 0.6827 7.7735 0.08126 0.71961-0.09121 0.68636-0.2781 0.0218z" fill="#5c827b"/><path d="m82.924 207.72c-0.19968-2.8099 0.80862-5.6463 2.2419-8.0306 0.80836-0.69569 1.23-0.87972 2.0528-1.4039 1.2075 1.0127 2.124 0.1428 3.0176-0.89495 1.3801 0.0401 2.1317 1.6346 3.4246 2.108-0.72237-1.5461-1.4331-2.2717-3.1904-2.6892-1.5481-0.59415-1.9212 2.6824-2.769 0.582-1.1241 0.83824-2.5294-1.0084-1.9046-1.4575 0.04429-1.5557-2.9727-1.3971-2.4632-3.3918-1.5212 0.65666-3.436-1.5873-4.2227-2.4693 0.72795 0.35641 2.1841 0.87002 1.1923-0.44909-0.39762-0.93547 0.18442-0.8612-0.34249-1.5082 1.0767 0.0455 1.0087-1.3026 2.4555-0.66325 2.216 0.35762 4.7041 0.9382 5.9552 3.0034 1.08 1.5658 2.2273 3.2455 2.4866 5.1693-0.71817 0.88215 0.76499 0.42114 0.93634 1.3941 1.5539 0.20936-0.6822-2.1827-0.86356-3.1569-1.5382-4.5884-1.4523-9.4888-1.3153-14.263 0.20013-0.78792-0.50101-2.7899-0.27477-2.8999 0.80257 1.007 1.9058 1.9102 2.2489 3.1656-0.89842-0.21778-0.7871-0.33335-0.33557 0.52781-2.1833-0.22017-0.47569 2.0998-0.28204 3.33 1.5147 0.24777 1.093 2.0667 1.3901 3.3276 0.19828 2.3915 0.28602 4.8511 1.013 7.1481 0.99216-0.11565-0.42767-2.9919-0.13365-4.1804-0.08959-1.5629-0.40912-3.1629 0.95289-4.0162 0.57702-1.0739-1.7076-1.0394-0.06219-1.2951 1.4677 0.70623 1.3531-1.534 0.60948-2.0406 0.60901-0.37882 1.5988 0.34461 0.78523-0.47357 0.99282-0.0439 1.4297 0.53723 0.98103-0.73832 0.19396-0.80162 0.11511-2.6562-0.38292-2.8684-0.54442 1.1469-0.83404-1.6066 0.23743-0.36899 0.82949-1.3272 0.61425 2.0157 0.829 2.7654 0.08864 1.7126 0.33946 3.4678 0.31637 5.1638-1.3709 2.6165-2.592 5.3246-3.2321 8.2229 0.03628 1.0564-1.5726 1.4358-0.27668 1.9464 0.08187 1.9618 0.79153 4.0129 0.57323 5.9081-0.90366-0.20996-0.93409 1.6556-0.15647 0.41228 1.1518 0.18333-0.58136 3.4518-0.83269 1.649-1.1117 0.5163-1.7239-1.8902-2.7917-2.5845-0.77198-0.44791-0.61552-1.0682-0.2139-1.7341 0.5759-0.79191 0.56928-2.7647-0.32593-0.96159-0.56858 2.0402-2.0557 3.4214-3.6727 4.6699-1.7977 1.1051-1.3357 3.8134-3.0039 4.6913-0.35478 0.0227-0.61748-0.32452-0.6511-0.64612zm12.848-2.2398c-0.16004-1.5809 1.4281-3.0976 1.8823-4.6775 0.8117-1.7166 2.357-3.8934 4.3961-2.4756 1.518-1.1366 4.2161-0.66543 4.1551 1.5631-0.87901 0.7722-0.70923 3.578-2.3191 1.605-1.4471-0.83273-2.3199-2.9956-3.7172-3.393-0.86438 0.42927-0.81356 1.9057-0.16198 1.2375 0.32727 0.41498 2.9671 0.99558 1.7195 1.5852-2.049 1.2717-3.2899 3.5863-5.4899 4.6649l-0.28979 0.028-0.17493-0.13752zm-0.12228-2.6282c-1.7532-3.3316-0.94645-7.2951 2.39e-4 -10.747 1.1714-4.3029 3.7873-7.9972 5.3364-12.146 0.32961 3.3505 0.51181 6.7624-0.35606 10.054-0.44421 1.7574-0.70862 3.622-1.5885 5.2249-0.40291 0.0964 0.41064-1.3669-0.51677-0.43667 0.13741 2.1304-0.44838 4.2299-1.4299 6.1331-0.34405 0.27122-0.8893 2.7345-1.4454 1.9177zm3.4224-5.6491c1.5155-3.2693 2.0605-6.8821 2.7562-10.387 0.7442-2.0553 1.7982-4.2192 3.6304-5.5037 1.0469-0.19994 0.68606 1.5031-0.15589 1.1682 0.63811 0.18838 1.6852 0.84316 0.38318 1.1706-0.64327 0.75942 1.5495 2.8304 2.4621 1.8351-0.73782 2.0016 1.4053-0.23923 0.12379-0.94839-1.3825-1.4051 3.4919-0.54527 0.9336-0.39047-1.7634 0.0394 2.0386 0.82744 2.3151-0.40039 2.0106-0.58308-1.7325-1.2121-0.0891-1.1161 1.3057-0.62076 0.45202-0.81093-0.17059-1.0554 1.055-0.51289 2.7852 0.0801 1.8751 1.2724 0.2127 2.2883 1.6576-0.25803 0.48179-1.1754 0.0432-0.95327 2.2235-0.94495 3.0555-1.5338 0.35675 0.79292-9e-3 3.0688-1.1836 1.8688 1.6 1.9326-1.1205 3.661-2.6794 4.3947-3.0942 1.6793-7.1725 1.2607-9.6883 4.0311-0.98582 0.77773-0.8074 1.7782 0.24767 0.56331 2.7552-1.8728 6.2617-0.98091 9.3444-1.709 1.8169-0.98897 3.0833 0.49343 1.2756 1.8614-2.2982 2.7948-5.5176 4.8177-8.9488 5.9054-1.4177-0.39005-3.5902 1.645-4.242-0.1369-1.1448-0.11192-2.9003 2.7628-1.7268 0.28541zm-10.521-7.3248c-1.1003-1.7192-3.0939-2.3179-4.9152-2.888-1.7762-0.81335 0.03362-1.7012 0.49614-1.39 0.68289-0.9344 0.72508-1.8416 0.38375-2.8406 1.9359-0.0246-0.73477-3.5219 0.29277-0.89434-0.3655 0.72704-1.3795 1.5348-0.54659 1.622-0.454 2.073-4.226 0.34943-2.4875-0.9866 0.56129 0.82678 1.0623 0.95007 1.0828-0.0375 1.044-0.54799-2.4503-0.33063-0.94246-1.2158-0.03243-1.3728 0.88163-2.5545 2.0486-1.1633 1.1785 0.50685 0.77088-0.23789 0.63364-0.47425 0.51803-0.71006-1.7185-3.417 0.15971-2.1313 1.6412 1.7198 2.7965 3.8181 4.1419 5.7628-0.05328 2.5532 0.13673 5.1057 0.65879 7.6076-0.10894 0.54985-0.84691-0.91539-1.0063-0.97079z" fill="#4b746d"/><path d="m82.929 207.46c-0.03722-2.1942 0.30471-4.6073 1.5884-6.4346-0.02315 1.0701 0.57833 2.184 1.4684 0.89174 0.45433-0.0777-0.55862-1.284 0.09912-1.7027-0.60372-0.0824-0.75683 1.133-1.0542-0.0902 0.37649-0.81331 1.8255-0.4561 1.6914-1.1098 0.52058 0.7643 1.4111 1.7497 1.3056 2.2215-0.87353 0.81058 1.2831 0.33528 1.265-0.32551-0.86004 1.7489-3.1414 2.2847-3.8721 4.1776-0.60099 0.90234-1.0776 3.982-2.2968 3.223-0.09159-0.27702-0.15122-0.56328-0.19496-0.85115zm9.6879-3.53c-0.85426-1.3358-2.8508-2.9393-1.9383-4.5865 1.2995 0.83324 1.001-2.1383 2.0468-0.32088 1.8133 1.5347-0.18483-1.163-0.10375-1.3495-0.31662-0.23943-0.80825-1.5668 0.09224-1.7996 1.3211-1.0257-0.66917-2.4921-0.58309-1.3163 1.4552-0.28359-0.44231 1.7886-0.60504 0.17273-1.4963-3.9704-1.8615-8.277-2.1823-12.478 0.01173-1.4077-0.29954-3.9698 0.60373-4.6748-0.38643 0.8163 0.68157 1.7683 0.31762 0.43096 0.51964 0.12347 1.9918 2.5872 1.29 1.9142-0.78785-0.97025-1.1341 0.10164-0.28466 0.67537-1.4621-0.94957-1.3027 1.47-0.48478 2.2134-0.83568 1.4531 1.9022 0.73179 0.98898 2.4083 0.08693 1.7238 0.94653 3.6626 0.86882 5.6037 0.1872 1.0767 0.2846 3.4702 1.2615 3.6226-0.50125-2.4575-0.89844-4.9958-0.67566-7.5037 1.6484-0.0285 0.0939-2.5992 1.6748-2.0502 1.4808-0.44981-1.1173-3.2052 0.86915-1.8564 0.78506 1.1873 0.83109 0.41511 0.37954-0.50792 1.5457 0.12126 1.6028 2.7602 0.87944 4.197-0.96214 2.5302-2.2264 4.9591-2.7714 7.635-0.34061 0.98868-1.2417 1.5266-0.29628 2.1923 0.15651 1.6507 0.75457 3.7398 0.55404 5.1419-0.56869 0.26391-3.2468 1.0935-1.4032 0.98113 1.4792 0.67715 0.59297 1.718-0.35134 1.4918l-0.14687-0.23611zm3.0676-1.0216c-1.6546-3.2408-0.96076-7.074-0.12959-10.453 1.1187-4.4203 3.8062-8.1878 5.4348-12.409 0.29992 3.2168 0.48087 6.4916-0.36422 9.6504-0.46132 1.7843-0.73311 3.6771-1.4956 5.3499 0.03062-0.7272 0.11912-2.5676-0.57444-0.83489-0.5423 1.5012 0.70409 2.1679-0.34918 3.5946-0.51024 1.5456-1.2893 4.6749-2.5218 5.1018zm3.1059-5.1291c0.95365-0.91201 1.8596-1.3444 1.286-2.6783-0.08412-1.5718 1.09-3.3368 1.5112-4.3077-0.345-1.9448 0.13631-3.998 0.71943-5.8646 0.78585-1.1999 2.3866-3.4189 3.789-3.0019-0.30905 0.7983-1.2918-0.381-0.4825 1.0148 0.20969 0.66845-1.6375 3.2462 0.27344 2.7687 1.3721-0.8692 2.1816 2.0154 3.0572 0.57813-0.0855-0.97832-0.98799-2.5302 0.1126-1.0348 0.2612-0.12791 0.54332-1.2161 1.2416-0.13627-0.4606-1.249 1.7261 1.3228 1.88-0.70281 0.98843-0.31157-1.4344-2.6719 0.52866-1.9275-0.34719 1.2973 1.8133 3.0809 1.6056 1.0428 0.45757-0.7799-1.8154-2.8031 0.46144-2.5432 0.40276-0.66707 3.0883-0.87077 1.4868-0.24542 1.1216 0.35791-0.86586 0.89466 0.29312 1.071 0.19049 1.1049-2.3049-0.73161-1.2628 0.58513 0.31457 0.95141-1.4541 2.1914 0.34167 1.2195 0.15835-0.90537 0.10859-1.4204 0.40659-0.2114-0.6309 2.0354-2.9637 2.8317-4.7537 3.5866-3.03 0.98639-6.7306 1.2045-8.7446 4.0472-0.63042 1.6067 2.2326-1.3344 3.2804-1.0714 1.137-0.43775 2.9674-0.59969 1.9823 0.91664 1.0316 0.90399-1.37-0.14444-1.936-0.37759-1.2489-0.0956-1.3613 2.1463-0.94646 2.7664-1.1702-0.9524-0.41316 1.2256-1.4428 0.75256 0.14095 1.0208 0.95015 1.5595 0.96654 0.66529 1.3098-0.86938 2.7123-0.90136 2.572 0.61143-0.0987-1.5203-0.69202-3.7596 1.2057-3.5018 0.35116-1.2596 0.23949-2.5778 2.0571-2.1084 1.4086 0.46186 3.7174-1.4818 4.5586-0.16849-0.93989 2.3012-3.0998 3.8643-5.0674 5.271-1.8084 1.0652-3.7687 2.5962-5.9821 2.1861-0.91348 0.27478-1.832 0.90919-0.78813-0.29397-0.14108-0.98548 2.0901 0.74402 1.23-0.48525-0.29085-0.59866-0.5817-1.1973-0.87255-1.796-0.75372 0.70947-2.1411 1.2737-1.9501 2.4916 1.3431 1.0928-0.35039 1.1835-0.46023 0.0705-0.5676-0.87294-3.1445 2.5595-2.1576 0.81138zm-11.318-2.0788c-1.1535-0.69916-2.1128-0.82346-0.83418-2.1346-0.93533-0.84878-0.62775 1.9252-1.9956 0.95737-0.90803-0.22504-1.9918-2.3047-0.639-0.84358 0.88818 0.101-1.5174-2.2307-1.6989-1.6253 1.81-0.88524-1.9018-2.002-0.88255-0.32056 1.2238 1.5268-3.6669-2.1425-1.1613-0.96081 0.76832-0.52595-0.52405-2.3057 0.5689-3.0079 0.20334-0.67493 0.70225 0.84976 0.91391-0.38081 2.0521-0.35982 4.018 0.96312 5.6276 2.106 1.3688 1.3205 2.5398 2.9616 3.2694 4.7148 0.7197 1.6069-0.71076 2.5123-2.0068 2.0386-0.1013 0.69553-0.9588-0.40924-1.1614-0.54311zm1.1517-5.7592c-1.163-1.7514-3.1891-2.4532-5.0953-3.0083-1.3249-0.51714-0.19315-2.1253-0.04803-0.35584 0.36831-0.0476 0.63574-0.38531 1.1678-0.0278-0.63628-1.1434 0.20099-2.511 0.40173-3.64 0.2577 0.49605 1.6307 0.92638 0.93763-0.45958-1.0733-0.28453-0.25333-2.1466-1.1967-2.022 0.93896-0.88425-0.70527-1.8033 0.60247-1.6996-0.22474-1.7874 0.55281 1.1479 1.4172 1.1674 1.7089 2.1299 2.0051 4.9348 2.1661 7.5611-0.11662 0.91758 0.99441 3.4325 0.28196 3.3246-0.21987-0.27371-0.42524-0.55873-0.63484-0.84002z" fill="#3c6962"/><path d="m95.682 202.91c-0.88415-2.0706-1.016-4.4589-0.68167-6.6701 0.09961-0.63873 1.9562-0.97313 0.2802-0.96253-0.97615-1.5259 0.62345-3.6684 1.0871-5.2997 1.3973-3.2197 3.0311-6.3284 4.5688-9.4818 0.57528 3.6113 0.17578 7.2842-0.70322 10.813-0.13787 0.68836-0.15938 1.6779-0.91628 0.76415-1.3994-1.017-0.80224 0.47546-0.45413 1.2253-0.95508 1.8222 0.03511 3.8111-0.96726 5.6337-0.63036 1.0704-1.1481 3.9341-2.2135 3.9778zm-1.4565-1.5633c-1.0806-0.25807-1.9188-0.30778-2.2934-1.6095-0.66997-0.40005 0.37867-2.1197 0.83905-0.57718 1.4596 0.97798 0.95422-0.0654 0.19908-0.84545 0.19773-1.0678-0.27161-0.622-0.33165-0.3371-0.56953-1.4238 1.378-3.4106 0.01666-4.2527-1.1009 0.45808-0.22788 3.1108-1.2392 1.0406-1.1787-3.2244-1.911-6.6853-1.873-10.127 0.26441-1.1488-0.31228-3.4195 0.60508-3.901 0.11783 1.286 0.66523 2.6856 0.29544 3.8066 0.58738-1.2215 2.0537 0.1617 1.1592 1.1776 1.1544 1.5004 0.32196 3.5331 1.0437 5.2881 0.20252 1.1218 0.10729 3.0034 1.2347 3.4947-0.4327-2.4665-0.91624-5.0046-0.56962-7.5163 1.405-0.25725 0.64621-2.4247 1.7962-1.859 0.52913-0.62508 0.28348-3.035 1.0892-1.4893 1.2879 0.60208-0.62573-1.4619 0.90544-0.0403 0.90776 1.8839-0.37588 3.9453-1.1386 5.6711-0.94116 1.838-1.3131 3.8818-2.0312 5.7972-1.1282 1.1224 0.8017 2.3838 0.33489 3.8622-0.16545 0.25891 0.97583 3.655-0.04207 2.4168zm10.201-4.894c-0.77031-1.5783 1.2016-2.3464 2.3517-2.1976-0.85503 0.81287 0.56604 1.8158 1.1696 0.73136-1.9308-0.2578 0.2016-1.9408 0.70502-2.286-0.80346-0.8693 0.12917-2.2142 0.38754-2.9328 1.6995 0.43345 3.5172-0.47522 5.2463-0.77904 0.85647 0.0124-0.96798 0.80908 0.3992 0.81981-0.4456 2.0743-2.775 3.2326-4.3346 4.5082-1.7104 1.1437-3.6101 2.1272-5.4738 2.8861-0.2156-0.20348-0.33042-0.48671-0.45105-0.74991zm-14.47-0.10223c-0.56548-0.26775-2.8492-0.29233-1.2713-1.0868 1.0122 0.64617 0.2629-1.8594 0.8415-1.758 0.19841-1.1-1.4446 1.3403-2.2161 0.21692-0.59715-0.30155-3.3143-2.8378-2.6362-0.78328 0.40135 1.054-2.1858-0.75373-0.37554-1.1115 1.0356-0.99712-0.48932-1.405-0.53197-0.12803-0.79663-0.7212-3.5166-1.586-2.1577 0.32634 0.1863 0.57815-1.7533-1.0764-1.1531-1.9222-0.7911-1.6661 2.8361-3.6644 2.2732-1.4095 0.3659 0.59939 1.8818-0.15713 0.54871-0.40988-0.23605-1.4487 2.9482 0.0536 3.654 0.88266 1.4884 1.3025 3.109 2.8106 3.4129 4.86 0.52628 0.88998 0.97181 2.0656-0.38836 2.3232zm-1.2701-6.3381c-1.0302-1.6919-2.9344-2.3792-4.7137-2.9571-0.79887-0.47554 1.3598-0.24076 0.54235-1.2713-0.24304-1.1414 1.25-2.9506 1.6232-1.6274-0.88457 0.52318 1.1692 2.2351-0.29267 1.8983 0.91907 0.86278-0.95076 1.0156 0.54875 1.3035 0.92272-0.48472 0.07748-0.87932 0.45608-1.7191-0.76262-0.0888 0.8937-1.4537-0.25591-1.2198-0.97542 1.0705 1.3035-1.5612-0.23819-0.78965-0.61054-0.97573 1.4529-0.57561 0.08587-1.384-2.41-0.0159 1.2319-2.8575-0.95304-2.0752-0.67768-6e-3 0.51479-1.9563-0.1374-2.0856 0.54195 1.1854 1.6377 2.297 1.9526 3.2738 1.0702 0.72922 2.0643 2.2908 0.38556 2.842 1.5433-0.36053 1.1541 3.2364 1.0353 4.5448 0.76624 0.7026 1.5857 3.908-0.03886 1.2668z" fill="#34635b"/><path d="m95.689 202.71c-0.5482-2.0475-1.2492-4.2452-0.73906-6.3647 1.0073-1.0235 1.4128 1.0162 0.21494 1.1328-0.25018 1.4218 1.2187 0.93613 0.75937-0.15017 0.68356 0.33189 2.2054 2.078 1.2512 0.2926-0.74236-0.78781-1.1369-3.0919-2.1818-2.3314-0.04045-1.8605 0.94352-3.6146 1.5137-5.3632 1.1753-2.7312 2.1533-5.6378 3.9512-8.0299 0.65674 0.0113-0.13794-1.8744 0.53401-0.19796 0.25882 3.1144 0.0828 6.3222-0.69402 9.3544-0.64849 1.1485-0.0938-0.77184-1.0317-0.59708 1.4582-0.1183 1.1779-2.6868-0.11554-1.0432-1.1822 1.3096-1.7598 2.8172-3.2458 3.855-0.1525 1.2743 1.5443-1.6029 2.5371-0.63916 0.49584 1.4492-0.54397 3.6641-0.31421 5.4644 0.44448 1.2836-1.7546 1.1704-0.56565 1.5392-0.52438 0.78919-1.0458 3.1589-1.8739 3.0785zm-5.543-6.9421c0.22121-0.52007-2.077 0.69289-0.45472-0.33073 0.85706-0.0642 0.78552-1.5606-0.1923-1.1532 0.96965-1.165-0.55251-1.2415-1.051-0.52177 0.41206-0.88888-1.4579-0.80216-0.37121-0.062-1.6015 0.4345 0.0096-2.7805-1.4288-0.93919-0.28863 1.3267-1.7967-1.4999-1.824-2.0839-0.94828-0.24474-1.4065 1.5077-2.1707 0.38218-0.63836-1.3454-2.594 1.2676-1.8668-0.56951-0.77163-1.0227-0.40414-2.033 0.98217-1.5128 0.71888-0.34342 0.95816-0.50184 1.2071 0.29572 0.85693-0.90486 1.7619 0.81614 3.1192 0.3525 0.9864 0.51054 0.67498-1.438 1.5031-0.12948 0.82676 0.44929 0.85465 1.9366 0.83232 1.8751 1.564 0.60487 2.2569 2.9454 2.2222 4.5865-0.19401 0.38127-0.81225 0.32139-0.50664-0.18954zm2.7203-0.31511c1.0222-0.38601-0.70086-2.323 0.60138-0.99318 0.93173-0.36391-0.39869-2.9624-0.12409-4.1483-0.33252-0.84012 0.67128-0.72793-0.21792-1.5984 0.04828-1.958 2.3352-2.7322 2.4827-4.7531 0.53708-0.40328 1.6112 0.026 1.9132-0.36246-0.15206 3.6999-2.5128 6.7887-3.2273 10.361-0.14155 0.49837-0.82252 2.3269-1.4281 1.4939z" fill="#295a52"/></g></g></svg>
