<?xml version="1.0" encoding="UTF-8"?>
<svg width="78.512mm" height="96.23mm" version="1.1" viewBox="0 0 78.512 96.23" xml:space="preserve" xmlns="http://www.w3.org/2000/svg"><g transform="translate(-63.636 -106.77)"><g transform="translate(.675 19.238)" stroke-width=".26458"><path d="m104.6 183.18c-0.99744-9.0033-1.4072-18.099-1.3437-27.159 0.24511-2.3851 0.0948-4.9413 0.58944-7.2415 4.3638-6.0092 9.3997-11.522 15.302-16.058 3.4613-3.1443 7.4924-5.6753 10.688-9.0909-2.5858 0.44329-5.8671 4.533-8.2638 5.0926 1.1627-4.1672 4.6245-8.2172 5.5382-11.902-2.7313 2.6108-4.0912 6.5531-6.2024 9.7406-1.4451 1.9392-1.8093 4.8262-4.2435 5.8443-1.9653 1.1667-6.4533 5.0851-4.1393 0.60368 1.9038-5.1368 3.5979-10.366 5.3915-15.53-2.7585 0.93773-3.5277 7.5371-5.3213 10.671-2.1284 5.9288-4.2879 12.147-9.1799 16.425-0.29194-2.7405 1.0855-7.7711 1.2453-11.46 0.9635-2.0769-0.11765-7.0125-0.79704-2.2293-0.35668 1.6645-0.82862 7.6501-1.9761 2.8253-1.9763-2.8186 0.4286 3.1431 0.60281 4.5084-0.74626 3.0796-1.3062 6.5005-2.6592 9.201-2.5988-3.1088-4.9888-7.046-3.5319-11.226 0.41064-4.0749 1.7825-8.3497 1.508-12.29-1.54 4.4085-1.7955 9.2735-3.2198 13.745-2.6826-6.4058-4.3923-13.247-6.7717-19.792-1.2055 0.68335 1.3085 6.5851 1.7666 9.2362-3.3988-2.6576-6.1746-6.4553-9.0713-9.7515-0.0803 2.2451 4.5171 6.3233 6.329 9.1676 3.3767 2.9965 4.5442 7.2284 5.0566 11.568-2.5609-1.2043-6.1883-5.3258-9.2524-7.4886-1.5778-0.63869-4.9646-5.6753-5.7535-3.714 5.4367 5.9798 12.29 10.565 17.337 16.894 2.1086 3.723 4.9457 7.3704 5.6155 11.678-0.03856 9.2202-0.44925 18.475-1.4768 27.637-0.28824-4.2286 0.51124-9.0244 0.64116-13.466 0.09995-4.5005 0.69125-9.0674 0.19834-13.538-2.4348 1.1316-5.4424 0.55863-8.1046-1.0333-1.4117 0.99869-4.539-0.15313-3.9124-1.2357-1.6519-0.49624-4.0839-3.008-7.231-2.5037-4.0418 0.29171-3.8201-5.0936-6.6166-4.6034-3.6478-1.8411-4.7868-6.1634-6.4858-8.32 1.3933 0.40481-2.1811-2.2985 0.02331-1.9988 1.3661-1.9261-3.5964-3.0171 0.28609-4.7679 1.1234-2.2244-3.031-2.0253-1.1684-4.0169-2.111-2.525-2.386-6.2481-1.1996-8.8517-0.32154-1.4891-1.8288-0.85693 0.49447-2.0494 1.5507-2.0952-0.44574-3.8062 1.7524-5.4303 0.22779-2.1901 0.65025 1.3736 1.3942-1.017 0.98406 2.7167 0.73609-3.1887-0.16579-3.7198 2.6799-1.7877 1.0699 2.2411 1.6988 3.0441 1.4225-0.37361-0.38241-2.8401 0.43332-3.553-2.09-0.30806 0.20488-4.6936 0.86147-4.0815 0.16906-2.5841 4.9334-3.0193 7.4858-3.8097 0.43231-2.5695 0.39191 0.92244 2.4662-0.13422 1.6214 0.43835 6.1242 1.2088 4.0019 0.17322 2.5795-0.29374-0.62866-3.0349 1.9322-3.408-2.077-2.1422 2.7232-3.3949 0.10871-3.8539 1.129-0.42679 2.1056-1.5878 2.5285-2.2442 2.4194-0.02919 4.9529-1.9786 6.3524-0.63811-1.1431 0.81653 4.6591 0.78567 2.5409 0.39596 2.8975-2.3712 6.121 0.96317 9.2766-0.80718 2.8871 0.03613 6.9901 0.37728 8.786 1.6608 1.1994-1.4974 2.3461 2.1519 3.4438 0.94093-1.4175-0.46548 3.302-0.70324 3.6699 0.97786 2.4546 1.0379 2.9538 3.4965 5.1629 3.1396 1.7878-0.46123 1.7114 4.6443 1.9316 0.44456 1.1196-0.74034 2.6775 3.2473 3.8184 3.9845-2.466-1.2215 1.0473 2.5382-0.0635 3.3576 0.80531 1.233 0.8888 2.0575-0.45186 1.8507 0.0786 1.5051-0.38707 2.2585 0.45105 2.5017-2.2507 0.92214-2.1055 3.4215 1e-3 1.4668 0.93715 0.64404-0.2026 2.0018 1.7586 3.3433-0.33204 2.2382 0.42135 4.1924-0.53498 4.708-0.62335 2.4282 2.8087 2.1934 1.7419 4.4297 2.5106 2.1037 1.3799 3.497 3.5281 5.7761 0.11297 2.0021 0.99787 5.2448-1.2233 6.6344 2.4101 0.59091-1.6225 3.5636-0.17188 5.4908-2.0074 0.15179-0.6292 1.1749-1.9753 2.7843-0.28647 0.26639-2.3815-0.71609-1.9945-0.21255 1.6973 2.442-1.9317-0.59892-1.3611 1.7903-2.5132-0.29564-2.9686 4.4264-4.5391 2.785 1.3505 1.3567 0.36359 3.2996-0.81475 1.5468-0.096 1.486-3.3189 2.3484-3.4531 1.6188 0.16599-0.66856-1.1356-0.60073-0.70183 0.89967-2.0158-0.70584-1.7317 3.0337-4.6881 2.088-0.0537 1.2782-5.8806 3.2659-8.1556 2.0638-0.0527 2.6779-7.6577-0.17836-8.4508 3.0144-0.10805 9.0289 0.71768 18.088 1.1124 27.064l-0.18485-0.58407zm23.21-35.681c-1.5763-2.2354-0.30481 2.3158 0 0zm-2.0193-0.94396c2.9462-2.1937-1.5578-0.50278-0.17964 0.26544zm3.369-0.53607c-0.22978-1.1566-1.0284 1.3446 0 0zm-2.911-1.0567c-0.24494-1.2656-1.2514 1.8027 0 0zm2.7935 0.27679c0.45369-1.5891-1.1876-2.7698-1.1336-0.86929-0.95122-0.48029 1.5367 0.94805 0.40766 1.0487l0.39943-0.19663 0.32641 0.0173zm-3.5165-1.3772c-0.41188-2.0042-0.6943 2.4349 0 0zm4.2102-0.48554c-2.0161-1.0573 1.294 1.5625 0 0zm1.2525-0.39367c-1.0966-1.7112-1.1819 1.5547 0 0zm3.0942-1.5625c-0.92181-1.4212-1.9242-0.30286-0.0725 0.21208zm-64.955-21.441c1.0423-2.068-1.8815 0.94216 0 0zm68.391-1.1569c-1.2403-8e-3 -0.32503 1.7127 0 0zm-2.948-3.8338c-1.661 0.11069 0.15197 1.9174 0 0zm-65.837-3.3408c-1.8649-0.99973 0.60714 1.3467 0 0zm46.833-6.9689c-1.7431 0.48305-0.83455 1.2336 0 0zm1.5835 0.52783c-0.59726-1.4185-0.90421 0.8643 0 0zm-28.949-7.236c0.18678-2.8721-2.7543-0.33869 0.28403 0.55778l-0.28404-0.55778zm44.316-0.10983c2.1549 0.40459-0.91825-1.1971-0.55556 0.40705l0.55556-0.40704zm-11.335-3.1413c-0.61585-1.6706-1.3906 2.0963 0 4e-6zm-14.437-1.3728c-1.9582-1.1264-1.2761 1.1683 0 0zm13.051-1.44c-0.77458-1.1043-2.1619 0.6773-0.23059 0.12493zm2.6099-1.5159c-1.6272 0.37339-0.47002 1.7366 0 0zm-3.9328 0.11571c-0.97811-2.5329-0.68461 2.1125 0 0zm-55.491 31.074c0.69322-1.5002 0.53361 1.4898 0 0zm75.486-1.5881c-1.2131-0.98454 2.402 0.28448 0 0zm-75.389-1.2551c-0.67218-1.4246 1.7645 5e-3 0 0zm12.316-23.089c-2.2137-2.65 2.9465-0.0045 0.82807 0.74301l-0.38816-0.24655zm2.9373-0.53988c-2.059-2.7579 0.98672-1.4677 0.49388 0.52512l-0.29172-0.15259-0.20216-0.37252zm3.6316-0.22321c0.35178-1.8679 1.7591 0.60029 0 0zm6.225-5.3148c0.05901-1.3382 1.2677 0.94568 0 0z" fill="#a3d1cd"/><path d="m104.62 183.04c-0.95924-8.574-1.1741-17.236-1.3284-25.859 0.22109-2.7691 0.0729-5.7359 0.60647-8.4218 4.1611-5.5323 8.6048-10.906 14.183-15.084 3.7815-3.3718 7.9921-6.2519 11.653-9.7525-1.9403-0.68782-6.1915 4.5829-8.1679 4.7424 1.4243-3.2779 4.0895-9.3793 5.9224-10.309 0.50388-1.5927-1.6888-3.399-1.1569-1.6263 0.77594-0.12326-3.0161 5.254-3.8531 7.056-2.237 3.3873-3.4488 7.7832-7.406 9.6334-1.4852 0.93462-4.3676 3.4537-2.6516 0.12495 1.9407-5.2974 3.7416-10.71 5.5629-16.007-2.5718-2.2489-2.0691 4.4901-3.7006 6.1499-3.101 7.2279-4.7272 15.651-11.107 20.884 0.76905-5.2912 1.7516-10.611 1.7967-15.971-2.0678 0.51327-1.2456 10.86-3.2474 4.5383-2.1928-1.3081 1.6126 4.8236 0.39505 6.4043-0.73988 2.0932-1.1985 7.4738-2.4952 7.8568-1.6823-2.8897-4.3386-5.7694-3.4865-9.3658 0.49241-4.7115 1.5032-9.3499 2.0791-14.048-2.1843 2.1038-1.6532 6.689-2.7909 9.742-0.40619 2.1141-0.90201 5.6827-1.7281 1.6316-2.168-5.9566-3.7694-12.136-6.0756-18.024-1.2626 1.9369 2.1258 7.3704 1.3822 9.2505-3.2656-2.3845-6.1434-7.9075-8.9984-8.9362 3.0749 4.6181 6.9928 8.6639 10.11 13.219 0.28441 1.8576 2.6551 7.4073 1.1174 6.9914-4.6518-4.0302-9.375-8.1151-14.129-11.942 0.26932 3.2352 5.1741 5.5295 7.3486 8.2851 4.268 4.0066 9.2685 7.5181 11.794 12.989 0.83805 2.6621 5.8306 7.4855 1.6152 8.8722-0.48553 1.0863-0.64265-3.0259-1.784-1.0139 1.3414 0.0464-0.21964 1.5542-0.5385 0.24446 0.8935-2.033-2.7574 0.47298-2.594 0.26061-0.86725-3.214-5.9308-1.1367-7.9446-3.6984-3.3807-1.493-8.0715-0.0609-9.7648-4.1391-0.97737-2.1597-2.5711-0.81765-3.9193-3.1285-2.8627-1.9152-3.2265-5.6517-4.3347-8.6582 2.2398 2.0154-0.78283-1.882-0.83587-2.9394 1.5558-3.2258 4.8361 2.0905 3.3898-1.7701 1.1051 1.1432 2.5756 3.58 0.99885 0.69591-1.2393-3.0745-4.7415-1.398-4.9422-5.0784-0.65932-1.51-1.9454-5.82-0.56167-5.4268 1.0286 0.61855 7.1752-0.39576 7.3202-2.8356-1.31-3.7155-0.09924-7.5945-0.62981-11.224-0.7556-1.2517-1.0651-2.3054-1.3355-4.5171 2.3729 0.9642 3.7543-5.679 7.1696-3.2981 1.4565-1.6903 3.2778-0.11051 5.0582-0.90679 2.6671 1.0889 3.8573 1.9593 6.8851 0.33202 2.001-0.45981 2.2456-0.0631 2.266-1.111 2.5976 1.1283-0.20572-3.4243 0.78539-4.7208-2.5696 1.143-2.4669-3.164-0.62929-0.98738-0.37649-1.8681-0.27158-1.0466-0.26944-2.4726 2.0679 0.53382 2.3729 0.29082 2.8995-0.79188-1.0388-0.93017 2.5417-0.07372 4.5692-0.0455 1.3068-0.92764 2.332-1.6019 4.2725-0.72444 1.1885 2.2063 2.4127-0.28553 4.1616 0.5427 0.36708-2.66 0.9588 2.3305 1.7786-0.53206-1.4496-1.585 3.7638 0.65616 2.8039 0.44373 1.9892-0.96194 4.204 2.4261 5.1819 1.6895-0.48063 1.89 2.3696 1.3998 1.4175 3.7963-0.3772 3.0806 1.6049 2.8511 2.9953 1.5958 0.35004-1.6449-0.72715-1.7075-2.3538-1.4755 0.35234-1.5867-0.33483-4.5644 1.7421-3.5881 0.7265 1.8351 3.5431-0.34407 1.1943 2.2383 0.2574 1.5631-2.4182-1.4424-0.36606 1.2276 1.156 1.4541 0.86424-3.8317 2.9055-0.60961 4.4455 0.40465-0.982 6.1213 2.114 5.658-0.28629-0.97152 0.13808-3.6975 0.56875-1.3745-0.89818-2.1868 2.2917-4.3182 2.7524-1.0938 1.9374-1.537 1.7375 3.7649-0.12786 1.5305 1.3894 2.1241 3.0248-1.5837 2.8846 1.5589 2.4306 0.83895-0.37123 5.925-0.15481 6.3509-0.53837 0.78172-1.5714-0.47311-1.963 1.7637-2.3735-0.38318 1.4317 2.6838-1.8335 2.6823 3.1597-0.84231 1.23 2.8147 4.0824 1.619 2.026-0.43097 2.0446 2.4494 2.1066 3.0874-0.15205-1.714-6.5691 1.295-2.1795 0.47026 2.2671-0.88738 3.5166 1.6241 1.1702 1.7676-0.0976-0.73467 2.0322-1.1298-0.46725-0.88611-1.4697 1.4607 0.75256 5.0979 1.2458 4.0831-1.3441-2.8102 6.2587 1.59 2.4878 3.1409 1.4825 1.3599 3.0804 2.3856 2.2193 4.1201 0.30762 0.51143 1.0142 6.1956-0.94224 3.2622-2.6322 0.94935-0.0898 3.1262-1.956 4.1482 1.4673-0.2241 0.20416 0.98039-1.1455 0.34161 1.798 0.0156-0.10225 2.3128 1.4511 1.6532 0.57134-1.1942-0.0293 2.6308-1.7377 0.65496 1.2808 2.5579-2.256-0.78062-2.7339 1.5287-0.46937-2.5669-0.357 3.4235-3.1089 2.9648-1.3864 0.40529-6.3995 0.22543-5.6608 1.2043 0.26133 1.0142-0.84558 1.4328-0.51926 3.2434-1.4716-1.4186-0.23034 4.0771-0.38753 3.8528-1.3513-2.2076-2.9578 0.86992-4.0345 1.9-1.9621 0.9552-5.8869 1.21-7.4558 1.1932-0.45576 2.848-7.1237-0.83332-7.9546 2.4177 0.0304 9.0603 0.6028 18.182 1.2139 27.175l-0.16795-0.41603zm-25.569-33.796c-1.0883-1.0981-1.5083 1.3725 0 0zm1.2478-0.75806c-1.8324-0.44527 1.5273 2.091 0 0zm-8.2315-11.615c-0.71079-1.1385-2.048 0.93329 0 0zm59.636 0.0774c-1.2579-2.0642-1.0718 0.88782 0 0zm4.4979-2.3034c-0.76241-1.1257-0.9256 1.3928 0 0zm-64.666-0.57987c-0.29537 0.17776-2.0687-0.42609-0.4875 0.40927l0.31348-0.13802 0.17401-0.27122zm58.346-14.287c-0.43279-3.94-2.5715 2.5272 0 0zm3.41-1.4829c-1.0527-1.6984-1.1246 0.60133 0 0zm-0.20704-1.9839c-0.87383 0.32256-3.8106 1.7166-0.93049 1.5618 0.43658-0.40825 0.95458-0.90787 0.93049-1.5618zm-7.4676-0.5631c-0.0111-2.259-0.30818 1.4281 0 0zm-2.3391-1.851c-1.1188-2.068-1.2783 2.8941 0 0zm1.1489 0.53126c0.29235-2.563-1.7199 1.4831 0 0zm-5.8195-0.79222c-1.0141-2.5662-1.8048 2.9727 0 0zm7.0115-4e-3c-0.97423-1.0648-1.0151 1.035 0 0zm5.69-0.31126c-2.8332-3.4414-0.63026 1.4388 0 0zm1.0203-0.0856c1.0824-2.3554-1.5096 0.45878 0 0zm-11.473-0.66146c-0.69997-1.0069-1.6668 1.0461 0 0zm4.8588-0.39535c-1.0614-0.95643-0.33079 1.2886 0 0zm-1.4534-0.66298c1.1609-1.4239 0.25166-3.2023-1.1138-1.2137 1.815-0.93931-0.96709 2.6436 1.1138 1.2137zm2.1509 0.17278c-2.0926-2.8365-0.83018 3e-3 0 0zm-10.83-4.2335c-1.8218-3.3846 1.4086-1.145 1.6051-2.1792-1.8342-2.3126-3.9836 1.1403-1.9878 2.8917-1.5468 1.5928 1.5156 0.0395 0.38268-0.71254zm1.2593 0.60039c-0.10725-1.6537-1.0864 2.2518 0 0zm7.7182 0.54989c-0.97427-1.0648-1.015 1.0351 0 0zm-4.9778-1.5943c-1.2554-1.5062 0.51851 2.2058 0 0zm10.755 0.0396c0.21327-1.4536-1.7383 0.82094 0 0zm-11.633-1.4211c-1.4477-1.4468 0.79054 2.1053 0 0zm1.2434-0.66641c-1.4862-0.32872-0.53401 1.5976 0 0zm-17.018-0.19419c0.0627-3.6583 4.6772 0.54589 3.6534-3.1368-1.0124-0.55999-2.7021-2.3174-1.6393 0.29636-1.9796-1.8033-0.16643 0.66947-1.9044 0.30688-2.6956 0.57371 1.3528 0.74957-0.85573 1.4967-0.21272 0.44681 0.12294 2.0939 0.74605 1.0369zm19.962-0.80711c1.2726-2.4081-4.247 1.694-0.51179 0.2961l0.51179-0.29614zm-13.681 0.21179c-1.7136-3.3981-2.3477-0.25812 0 0zm-4.3982-0.46302c-0.45585-1.412-1.2825 1.251 0 0zm13.819-0.0316c3.4642-0.96895-3.5699-1.7459-0.55352 0.23482l0.62362 0.1629-0.07-0.39776zm-8.7956-0.77065c-1.7164-1.5078-0.16688 1.9804 0 0zm10.433-1.5768c-1.7689 0.35629 0.86037 2.6515 6e-5 0zm2.0002 1.5192c-1.7327-0.97652-1.7804 0.88649 0 0zm7.0584-0.46942c0.46563-1.9646-1.8751 1.3297 0 0zm-26.233-0.98579c0.53615-0.0786-2.6685-0.96102-0.50582 0.59531zm-13.027-0.91243c-1.7359 0.032-2.4221 2.3835 0 0zm16.992-0.52223c-1.4578-0.65156-0.18565 1.2979 0 0zm10.188-0.21899c-0.81244-1.6868-1.0273 1.3322 0 0zm-14.046-0.41436c-1.3235-1.5948 0.2987 2.1229 0 0zm20.83 0.45484c-1.3392-2.2842-1.8105-0.46508 0 0zm-21.623-1.9991c-1.0223-1.0377-1.6247 0.96618 0 0zm11.436-0.29036c0.076-0.64361-0.77429-1.4945 1.0986-2.0327-2.2216-1.198-2.7353 3.6794-1.0986 2.0327zm7.1163 0.10842c-0.17953-2.7916-1.6196 1.4903 0 0zm-21.289-0.37266c2.1128-0.63545-0.58662-1.6586-0.14362-2.4746-3.0613 0.22806-2.9739 3.8642 0.14362 2.4746zm30.418-0.06615c-1.1221-2.0366-0.22571 2.0957 0 0zm-18.144-1.6118c3.3746-2.3627-1.7052-0.69801-1.0203 0.479 0.36261-0.092 0.59698-0.60802 1.0203-0.479zm-17.548-0.17413c-1.665-1.7671-0.90358 1.4519 0 0zm22.566-0.52917c-0.84028-1.738-0.17753 1.7587 0 0zm-12.14-0.39688c-1.9361-1.7164 0.78906 1.9595 0 0zm1.726-1.2573c-1.582-1.7152 3.8221-3.9468-0.27913-2.5707-3.0083 1.7635 1.4687 4.5106 0.27913 2.5707zm11.478-0.17349c-2.955-2.5253-0.0149 1.4857 0 0zm-22.117-0.54548c-1.2173-2.4097-0.85791 2.0169 0 0zm6.9876-0.31322c1.8082-3.7815-2.5543 2.3158 0 0zm0.75864-2.1265c-0.53239-0.68852-1.1305 1.114-0.12308 0.22967zm7.7979-0.23739c-1.1383-1.3396 0.18238 2.1893 1e-5 0zm-0.38953-1.066c-1.5412-1.6997-1.92 1.6165 0 0zm-12.651 91.709c0.44893-8.1535 0.88898-16.357 1.2994-24.487 0.31901 7.8833-0.55104 15.84-1.0817 23.73 0.0076 0.10674-0.22104 2.2111-0.2177 0.75632zm-4.8032-24.465c0.5504-2.4007 1.4868 0.88923 0 0zm27.798-4.8733c-0.31495-1.7916 1.7226 1.3227 0 0zm9.991-8.3653c0.86537-3.6444 1.8951 0.17519 0 0zm5.2312-3.578c0.41193-0.84511 1.2954 1.2818 0 0zm1.4209-2.2272c0.57095-2.1832 0.49482 1.7503 0 0zm0.79781-12.253c0.40602-1.3077 0.57003 1.7778 0 0zm-0.53322-0.97657c0.48367-1.3728 1.1353 1.0459 0 0zm-68.108-7.7c-4.1671-0.90753 3.7109-0.33591 0 0zm-1.4832-1.5859c-0.06888-1.7231 2.7619-1.6964 0.67077 0.36857l-0.36071-0.0366zm62.83-5.0403c0.13315-1.9264 1.5573 0.92506 0 0zm-60.549-0.87554c-2.1251-2.9878 1.5435 0.13622 3e-6 0zm18.292-10.404c-2.8861-2.2381 2.5727 0.05544 0 0zm-0.33911-1.596c-1.3849-2.1141 0.49405-5.3454 0.74222-1.724-0.93939-0.60667 0.25406 3.2228-0.74222 1.724zm2.3832-2.2004c1.1644-2.9415 0.99637 1.1212 0 0zm32.687-2.4739c0.9539-1.4738 0.75247 1.0966 0 0z" fill="#84c1bd"/><path d="m104.35 180.9c-0.27599-3.3784-0.82654-10.565-0.52957-11.851 0.26964 4.5445 0.63307 9.0951 0.83266 13.637-0.20886-0.57308-0.22351-1.1886-0.30309-1.7859zm-5.8931-0.99219c0.11884-3.28 0.1188 3.5914 0 0zm0.37173-5.0271c0.0981-1.7807 0.40011-7.7297 0.48391-6.9922-0.05258 2.3134-0.30356 8.1944-0.55017 8.4493l0.02666-0.61694zm4.627-12.068c0.23192-0.95451-0.63506-8.3877-0.0442-5.1909 0.35635 3.006 0.13126 6.0386 0.10275 9.0566l-0.0585-3.8657zm-3.9985-0.25741c-0.08863-1.9411 0.41509-7.6334 0.30784-2.622 0.01744 2.0067-0.29571 8.4365-0.31165 3.2797l0.0038-0.65768zm-1.3432-7.0294c-1.2208-2.4464-5.5235 0.0833-4.6602-2.0484-1.5709 0.0713-6.3143 0.7986-7.3923-1.7544-2.1732-0.0319-3.405-1.4455-6.1362-0.68511 0.39787-0.92369 2.3791-3.7915-0.77555-2.9213 2.4216 1.7907-0.31573 2.9183-2.1968 1.8871-2.5606-3.2135 5.3947-1.7148 1.1359-3.4234-0.55572-0.80744-1.8509 0.54487-1.2243 1.2021-2.3292 0.94681-1.8915-2.9801-3.9221-1.3598-1.4485-0.91902 2.1095-2.3326-0.96071-1.417-1.8414-0.69352-1.1506-3.7874-0.09073-3.1322-1.3622-1.5685-2.0107 3.7053-2.8899-0.2528-0.20795-2.2978-2.6885-5.0776-0.87105-5.3853 0.84332-0.68625-2.9307-2.3895-1.3951-3.6239 2.0194-3.0738 5.5197 5.2551 4.325 0.0408-1.427-3.8411-4.7496-1.8346-5.3474-5.7787 0.06773-1.6372-3.3532-6.4252 0.07906-4.5238 3.0508-1.3446 8.4737-2.1006 6.3094-6.4852-0.31264-4.0254-0.0112-7.7018-0.54196-11.566 0.26734-4.5053 5.4541-5.8207 8.8784-4.8155 2.2812-1.709 3.1069 0.26462 4.5194 0.56033 1.5673 1.2661 4.3502 2.0207 6.0507-0.1515 2.3528-0.11141 1.7405-4.7365 3.5105-3.5415 1.3158 0.5689-0.912-2.7914 1.1922 0.05698 2.3316 0.83325 0.16274 1.5605 3.2734 1.2665 1.8519-0.50544 2.0051-0.81118 1.6356 0.73086 1.6468 0.56266 2.9435-0.83772 2.6543-1.8806-2.8905-0.19242-1.0396-0.09137-1.1072-1.0304-2.7873-1.7559 0.78339 1.5312-2.408-0.0226 1.7367-1.0094-2.9386-1.9494-1.9992-0.55052-0.3944-2.203-0.59854-3.5996-2.8631-2.7003-0.03494 2.3405-0.84168 2.2132-1.8003 3.4988-1.9134-1.0295 3.1426-2.344 0.34755-3.1525 0.21563 1.9685-0.91065 0.45532-2.3843-0.18118 0.21989-1.4572 1.2729 0.53073 1.3958-1.4181 0.54092-1.8401 3.8586 1.7042 1.829-0.71321 1.2454-2.5766 3.379-0.80714 5.3029-1.1096-0.37729-1.5338 1.8412 0.04884 1.7506-1.372 3.9603-0.92136-1.4657 8.2298 2.4716 3.3219 1.2292-0.39978-1.1864-2.779 1.3978-1.4262 1.0142-1.5106 2.9463-1.9369 3.2466-0.41112 1.2906 0.95627 0.75416-2.8605 2.348-0.78247-2.8232 0.22374 0.81013 0.44318 0.87229 0.23153 0.95602-1.1752 7.2212 1.8996 4.4971 4.1847-0.73556 2.1657 1.987-1.3527 1.1635 1.5147-1.6752-0.96196 0.0146 3.8048 0.3694 0.02456 1.2883-2.6927-0.98568 3.9691 0.92626 1.1539 0.19133-1.8627 0.55235 2.0458 0.97295 1.6555-0.82038 2.0611 3.4551-0.56841 0.50305 2.1528 1.4124 1.4858 2.0477-3.2465 1.3898-4.1334 0.72454-0.8695 1.7259 0.49474 1.7729-1.711 0.20616-1.9887 2.1433 1.1038 3.1861 1.7591-0.20229 1.7547-0.55566 4.2382-1.5077 4.0236-1.4158-0.21058-0.37942-0.93582-1.8668-0.71618-0.79477-0.25705 0.7199 2.6329 1.341 1.7065 0.76056 3.3504 0.19099-1.7691 2.5167 0.3882 1.1548-0.67718-1.0917-5.3318 1.5144-2.6832 2.0477 2.3876-2.5454-4.2644 0.60961-2.388 1.4315 0.72583-0.38734 3.3652 2.8726 3.4354 2.6638 0.41253 2.4864 3.9486 0.73563 5.876 0.30279 1.2456-2.612-0.33286-1.028 1.4921-0.97699 0.54383-2.7459 1.7674-1.1299 3.1745-1.7756 0.79188-2.5849 1.9859-1.1634 2.294-0.30245 1.2267 0.60528-3.2008 1.6512-0.86972-1.912 1.1754 1.7149 0.68303-1.0003 1.3253 2.445 1.6916-2.083 3.7709 0.70146 3.6378 0.27405-2.9239 1.7485-3.3828 3.1795-1.7463 1.5257 0.88446-3.8951 0.42613-2.5698 2.2824-0.15949 0.57029 2.9803-2.0925 0.36904 0.52741-2.2221-0.35676-1.1373 2.9484-2.7 0.40846-0.26089 2.8633-2.1247-0.60016-1.2854-1.4609-2.6453-0.84529-0.4357 2.2622-2.193 1.7819-0.274-1.1832-1.2057 4.2869-2.6428 5.2836-2.3784 3.2732-3.3246 7.8126-7.0969 9.8325-1.8429 1.374-5.2952 3.8967-3.0185-0.22591 1.873-5.04 3.4822-10.2 5.3345-15.229-1.1412-0.75776-3.0694-3.1075-1.6196 0.0232-1.4814 5.1386-3.9777 10.055-5.6385 15.189-1.489 4.5744-4.097 8.7696-7.6869 11.986 0.84612-5.2892 1.8614-10.676 1.914-16.002-2.0935-0.2629-1.2351 8.0991-2.6504 6.1619-0.16986-2.0182-2.5325-3.4373-1.1479-0.36105 2.1996 3.7833 0.0898 10.238-1.8265 12.533-2.6315-3.447-4.3632-7.5882-2.8761-11.933 0.29575-3.6621 1.7042-7.7171 1.4642-11.107-1.844 3.035-1.7958 7.5807-2.8855 11.211-0.78443 5.7121-2.4581-4.3448-3.5431-6.1802-1.499-3.9034-2.2264-8.1744-4.1503-11.868-0.93812 2.2984 2.568 8.3209 1.2904 9.1246-3.2245-2.1413-5.8881-7.8568-8.7114-8.5925 3.1005 4.5027 6.6907 8.6521 10.001 12.995 0.93867 2.384 1.475 5.3986 1.8192 7.6705-4.8525-4.1497-9.6366-8.4689-14.698-12.326-0.12008 3.1688 5.1779 5.4271 7.2588 8.174 4.8877 4.3609 10.078 8.7112 12.823 14.829 0.58851 1.8962 4.5974 6.6081 0.90025 6.5409zm-19.824-5.9021c2.8204-0.27973-1.9097-2.61-0.55122 0.24363l0.23721-0.19339 0.31401-0.0503zm-6.3537-12.843c-1.6197-1.4316-1.1117 1.3421 0 0zm52.874-20.704c2.0499 0.0309 0.70657-3.5308-0.28876-2.9536-1.8593 3.0237-1.4175-1.1208 1.0912-0.54551 2.0954-1.4507-2.016-2.3138 0.52204-3.2832-2.4939-0.41666-3.4387 1.3545-2.8572 3.7492-3.1217 0.83873 1.5536 3.6077 1.6982 0.97423 2.2559 1.8332-4.6359 2.1588-0.16538 2.0589zm-0.46028-3.7197c-1.3398-1.2945 2.8146-1.1867 0 0zm-5.7344 1.7933c1.371-2.4572-1.1021-1.8577-1.612-0.83352 0.83787 0.75546-0.1143 1.6891 1.612 0.83352zm8.7979-0.57063c-1.0145-1.4372-0.72026 1.167 0 0zm1.755-0.0534c-1.689-1.0606-0.59514 1.1547 0 0zm-12.675-0.95529c-2.07-1.4726-1.2528 0.23267 0 0zm4.3656 0.0283c-0.72606-1.3412-1.5916 1.0313 0 0zm2.1167-1.3668c-1.3229-1.1009-0.6331 1.4643 0 0zm-6.0854-2.2778c2.5261-3.6929-2.197 1.5168-1.4901-2.6368 1.0813-3.6036 0.24553 3.2261 1.0138-0.26329 2.9914 0.43002-0.83183-3.5902-2.1746-0.4544 0.13392 2.0819-0.0854 2.8805 0.63145 2.5838-2.1102 2.1071 2.9593-0.41043 1.0495 1.7022 0.40038-0.20469 0.88981-0.43008 0.97-0.9315zm2.6784-0.22016c-1.5423-1.4168-3.5752 1.3006 0 0zm4.9945-0.1606c-1.0184-1.0222-1.0182 1.4148 0 0zm-2.1207-0.18078c-0.92771 0.17244-1.2632-0.35247-0.33819-1.5636-1.4994 1.0905 0.86789-2.3353-1.054 0.26837-0.38025 2.0922-2.8412-3.0237-1.4492 0.74824 0.68008 0.0439 1.9304 1.6158 2.8415 0.54696zm2.7099-1.0477c2.3056-1.2883-0.43032-5.4832 0.6326-1.8537-1.7323 0.64928-0.47094 1.3572-1.2014 2.2907zm-4.6335-1.2379c-1.5745-1.0785 0.57732 2.5864 0 0zm8.6462 0.75321c0.56993-2.3176-1.4388 1.6327 0 0zm1.4835-6e-3c-0.99149-1.91-1.5788 1.6277 0 0zm-28.598-1.0303c1.3069 0.1881 3.8611-3.5005 4.2191-1.7028 2.0799-0.8805 1.4431 2.0464 3.9606 0.19222 0.11214-2.26-1.0215-1.4034-1.9687-1.6818-0.6193-0.40978-2.305-1.6443-0.9212-2.2786-1.7799-3.397-3.0468 1.2434-5.2898 0.41801-0.92059 0.99397 2.6922 1.3348 9e-3 1.5117 0.19217 1.2805-2.0133 3.0198-0.47449 4.6569l0.22432-0.58612 0.24132-0.52916zm3.1983-5.1787c1.3535-3.6611 1.3286 1.0393 0 0zm7.4394 5.4979c0.8438-1.9077-1.7171 0.41402-1.1685-2.3971-1.4799-2.1466-0.13055 4.716 1.1685 2.3971zm6.319-0.0368c3.1083-2.9204-1.254-1.6679-0.44969 0.25865 0.16489 0.26481 0.54995-6e-5 0.44969-0.25865zm2.7781-1.473c3.8454-1.5766-0.94148-1.9656-0.92605 2e-5l0.57751 0.24639 0.34853-0.24639zm-2.3436-1.2128c1.7471-0.5268 2.2912-3.7844 0.22183-1.8877 1.437 2.239-3.1827-0.52199-2.2055 2.1152 1.1924 1.2572 1.0628 0.0694 1.9836-0.22747zm-18.726-1.389c0.3288-0.33516 0.99521-1.2732-0.26555-1.402-2.1774 0.7987 0.89552 3.2208 0.26555 1.402zm21.731 0.73182c-0.85898-1.3957-2.8653 0.96055 0 0zm3.8617-0.28763c-0.53954-1.2247-1.5914 0.71233 0 0zm2.9645-0.012c0.85267-2.2021-2.0369 0.92611 0 0zm-44.079-0.18228c0.78332-1.3872-1.9942-2.251-0.5286 0.19738 0.18134-0.0571 0.40929-0.76794 0.5286-0.19738zm2.4579-0.27247c0.85774-1.033-3.22-1.4609-0.70878 0.20423l0.70878-0.20425zm35.14-0.56579c-0.52732-2.3006-1.5476 2.009 0 0zm7.0631-1.1113c-2.222-1.0049-1.4496 2.3762 0 0zm-46.16-0.14288c-2.7684-1.0519-0.83518 1.2712 0 0zm18.379-0.46608c-0.41365-1.5963-0.91711 2.3115 0 0zm19.957 0.2613c1.3849-2.3395-1.7909 1.6848 0 0zm-4.7719-0.26732c-0.0933-2.0124-1.352 1.4185 0 0zm-16.555-0.18625c-0.0921-1.469-1.4619 1.2949 0 0zm2.759 0.16495c-0.90628-2.0866-1.2895 0.86354 0 0zm6.2839-0.59363c-1.0739-1.3571-1.5001 1.8339 0 0zm5.887-0.47689c-2.4545-3.1787 0.23374 2.5015 0 0zm-10.914-0.48754c-3.0575-0.32878-1.5143 1.6251 0 0zm14.618 0.48439c-0.97435-2.2867-0.29527 1.4887 0 0zm-11.631-0.60345c-1.0209-1.7602-0.0693 2.1609 0 0zm-1.1349-0.23601c-1.3293-1.817-0.63764 1.2647 0 0zm7.2605-0.16901c-0.82451-0.86287 1.1798-1.9325 0.9098-2.351-1.7286-0.61992-2.8149 3.6208-0.9098 2.351zm2.5043-0.5507c-1.4486-0.9689 0.6168 1.5026 0 0zm-1.2981-0.49922c-0.66947-1.3778-0.53916 1.3282 0 0zm-2.9917-0.99725c3.6895-3.0884-2.7791-0.19142-1.2776 1.0493 0.37573-0.39274 0.68517-0.97034 1.2776-1.0493zm-7.2707-0.68598c1.1666-0.14004 3.3171-1.4988 1.4467-2.4165 0.99205-1.5918 3.4713-3.0173 0.249-2.1032-2.676 1.249 0.30256 5.2525-2.3736 3.8278-0.86931 1.5902 0.42661 0.12366 0.67791 0.69194zm3.1187-0.16885c-0.66947-1.3778-0.53916 1.3282 0 0zm7.1019-0.66146c-2.8696-2.9016 1.8599 2.834 0 0zm0.65492-0.9567c-0.94989-0.6956-4e-3 1.612 0 0zm-3.7881-1.7215c-0.78747-1.3707-0.60921 1.7913 0 0zm3.5184 0.12059c-0.98298-1.229-0.41843 1.2274 0 0zm-4.3468-0.44327c1.8107-1.6282-0.51801-1.7196-0.7096 0.35511l0.37969-0.1043 0.33004-0.25077zm-7.549 62.675c-0.74197-4.6471 2.7676-7.8813 5.3874-11.204 5.567-6.5645 12.735-11.507 19.279-17.031 1.7754-0.8519 2.3091-2.4934 1.6363-4.3406-0.38826-1.1405 1.6129 0.66114 0.7998-1.1197 1.747-1.3412 1.6164-1.7729 3.2719 0.5111 2.6142 2.1608-0.11587-2.3619 2.4879 0.52318 0.80337 0.47342-0.39499-1.8212 1.1899 0.26434 2.1307 0.91155-1.1433 4.0304 2.1547 4.5466-1.2918 1.6211 1.1908 5.4233-1.6275 5.5057-3.1445-0.16802 1.3223 3.8424-0.90738 2.6786-2.1379-0.58512-1.1883 1.861-2.1593 2.0322 2.7878-6e-3 -3.9158 2.254-0.35062 1.5244 3.2624-1.6881-0.60694 2.0556-1.823 0.73944-1.2574 1.703-1.4376 4.6186-2.7721 3.407-2.4456 1.8036-8.1211-0.46116-7.2086 4.5051-0.12978 2.7541-1.8124 4.4605-4.0445 6.0984-1.7051 1.0403-4.6504 1.7757-7.0028 1.2593-0.0312 2.0256-4.2346-0.0277-5.7944 1.1405-0.62167-1.3874-3.5841 2.8486-2.5244-0.95159l7e-3 -0.0887zm8.9066-0.80428c-0.66949-1.3777-0.53916 1.3282 0 0zm19.311-15.941c-0.86539-2.1834-2.0893 0.56601 0 0zm-9.4548 13.296c-0.94959-1.9057 1.593 0.93466-5e-5 0zm-51.577-16.472c-1.0293-2.3583 1.7668 1.7343 0 0zm51.21-5.8208c1.6192-2.5469 3.2118-8.6644 5.4622-8.8852-0.27902 1.2333 1.4893-0.0573 1.2438 2.2045-1.0388 2.021 2.5254 1.1964-0.25663 2.7912-2.1719 1.3078-5.0557 4.0916-6.7238 4.5903l0.27426-0.70074zm8.8977-8.795c-0.98693-3.2446 2.4895-0.15259 0 0zm1.9859-1.5575c1.4642-2.5663 0.57962 1.0688 0 0zm-43.656-17.697c2.1743-2.4743 2.3406 0.15255 0 0zm42.046-1.4603c-2.7661-2.6554 1.4562-1.299 0 0zm-10.362-1.7112c-1.8288-1.4811 2.7276-0.08235 0 0zm-24.993-1.6538c-1.5429-1.3642 1.9936-1.5765 0.25291-0.04462l0.01775 0.57379-0.27067-0.52917zm2.1006 0.21515c0.95546-1.3473 0.75961 0.70034 0 0zm21.371-1.2579c1.1441-1.7521-0.68741-3.4429 1.7492-3.7743 1.18 1.6792 0.45288 3.9816-1.7492 3.7743zm-1.1465-0.98575c-0.54553-1.4752 1.8294 0.21699 0 0zm3.7924-0.54919c1.772-2.7073 2.3005-0.70965 0 0zm-5.023-1.5679c-1.3895-2.1194 1.5018-0.36717 0 0z" fill="#6cb6b0"/><path d="m98.446 180.04c0.15107-2.9626 0.14276 2.9694 0 0zm5.8172-0.92604c0.19641-2.5369 0.11731 2.7943 0 0zm-5.5526-3.0427c0.15107-2.9626 0.14276 2.9694 0 0zm5.2992-0.92604c0.11866-3.28 0.1191 3.5914 0 0zm-5.0472-2.3812c0.21527-2.0344 0.11719 2.2576 0 0zm4.7865-3.175c0.14659-3.8409 0.13438 4.046-2.5e-4 0zm-4.4997-0.66146c0.12766-3.5258 0.1102 3.5822 0 0zm4.2463-6.0854c0.12337-6.986 0.15119 6.6001 0 0zm-3.9753-0.79375c-0.02908-3.5735 0.32925 1.0405 0.02911 1.406l-0.02129-0.52922zm-1.6725-6.9989c-2.2547-1.755-3.7976-0.31981-5.6461-1.7783-2.8407 0.73247-5.9107-0.23521-6.9532-2.105-0.71343 0.21576-5.1398-0.6309-5.0059-0.66377 0.72508-0.27012-2.3906-1.7091-0.26049-1.2285 2.3462 1.555 1.0032-3.5146-0.28441-1.3651-0.91398-3.1412-3.1874-0.58012-4.9786-0.91936 0.36767-3.8508-2.0712-0.86694-3.4717-3.3946-2.0897-0.72458 3.6631-3.3229 0.3225-2.313-2.9346-1.2394-0.51359 4.0016-2.5722 0.42679 0.9569-1.6124-2.293-4.9708-1.4741-4.9124 0.53706 0.1296 1.477-1.883-0.5264-2.2662-0.9696-5.0022 3.0794-0.64517 4.4971-0.0855 0.42393-2.3151-3.3349-6.0801-4.0673-4.4899 0.11947-1.507-3.1911-4.4058-0.30514-2.9088-0.18361-1.4029 1.4481-2.2196 0.94753-0.45163 1.9989-0.61021 5.3729-0.4063 6.2464-2.1025 2.3923 3.3243-0.20393-3.5997-1.5062-0.2184-2.5041-1.2378-0.837 1.1925-0.68761 1.0527-1.3306 0.35293-2.8395-1.6534-1.3394 0.61384-1.7473 0.85811-4.7711-3.8917-3.3017-0.63885-0.25994 1.4223-1.9818-2.3965-1.6582-0.29425 0.87156 2.3594-2.8028-3.3746 0.9867-2.827 2.3886-1.6282 1.8752 0.82765 3.7083-1.5812 6e-3 2.25 1.0528-1.0093 1.7212 0.24894-0.28492-1.8116 1.1203-5.5931-0.23619-6.0242 0.15515-3.0883 0.38008-7.0963-0.27154-10.482 0.03419-4.9634 5.5577-5.4304 9.2164-5.0927 1.5878-2.2477 1.9689 1.816 0.87829 1.554 0.20976 2.1048 2.6634 3.3527 0.88752 1.1858 2.4068-1.0705-1.572-0.012 1.1356-1.5875-0.86033 2.2858 1.8035 3.0235 3.7705 1.7133 2.0418-0.97423 4.0592-2.4746 5.8919-2.9541-1.2647-1.4258 4.6036-1.7546 4.7098-0.23554 1.3959-1.4136 3.3886-0.21821 3.9443-0.47329-0.56298 1.8895-4.0545-1.1101-1.8368 1.4562 3.2958-0.78936-3.9008 2.0202 0.12593 3.0314 1.0196-0.34513-0.38395 5.4494 1.3767 3.5475 1.5228-1.0693 2.3845-1.1466 4.003-2.8823 0.46618 1.1362 3.0242 1.8784 4.6987 0.81134 0.26027 2.9001 2.0104 1.8947 3.832 2.5862-2.1142 0.0941-0.76354 4.5035 1.1195 1.6962 0.22273 0.92174 0.80769-0.0576 0.46334 1.1619 2.377-0.53742 1.9828-4.146 0.4049-2.3005-2.8275-1.7463 1.7692 0.82208-0.5889-1.5043-0.0242-1.4149 1.1757 0.59263 2.9208 0.86881 2.3094 1.5998-3.8055 2.1264 0.4328 2.2851 0.64664-0.90615 2.2311 2.0483 1.5147 0.29516-0.27419-2.3621 0.88032 0.6952 1.9702-0.26987 0.43758 0.0596-0.41987-3.8463-0.57942-3.5217-2.7081-0.57288-0.9184-1.954-0.26531-0.63601 1.0764-0.0788 2.1672-0.27064 1.1506 0.36774 0.43306 0.19412 3.0368-2.8767 0.74624-1.9298-0.55916-1.3542-3.2109 1.0799-0.83549-1.0737 1.5886-0.74845-2.3628-3.0177-0.65065 0.0893-0.83548-0.13684-0.57791-0.25441-1.5901-0.44385 2.6008-1.2669-2.2681-1.0877-1.4708-2.0381-2.387 2.2743-0.26755-1.5845-2.3482-0.82173-1.3802-1.0268-1.0472-1.1673-1.9887-3.0584-0.76905 2.0434 0.5354 2.8227 1.7576 3.5734 0.27541 0.89499 2.8541 2.1359 0.54196 3.1685 0.57972 2.6496 4.595-0.56419 1.838 1.8446-1.6866 1.8456-0.99636 9e-3 -2.6542-0.27908-1.578-0.10438-4.1994 2.461-2.1528-0.11819-2.621 0.74762 1.146-2.8175-1.764-0.76387-1.3996 2.2618-0.065-1.9936-2.0961 0.35748 2.2924-2.1824-3.932-5.1009 0.0354-3.822 0.63958-1.8766-3.9231-0.84682-2.0383-0.095-1.733 1.571-1.3985 1.1231-0.77902 0.049-1.2592-3.4928-3.1293 1.2679-4.8144 0.37938-1.324-0.28169 0.45297-1.0155 1.0134-0.59005-1.6949-1.8978 1.6094 0.28304 0.75438-1.8256-3.7352 1.6699 0.42892-4.3852 1.6028-1.7202 1.4364-0.9461 2.8122-2.7985 0.39048-1.0836-1.829-0.42617 1.9211-1.9044 0.27666-2.6948 2.2466 1.8478 3.0017-4.3267 0.34004-0.54343-0.65067-0.70503 2.2818-1.6956 1.8375-2.7327 2.3729 2.1867-0.25174-1.5622 1.5137 0.13561 1.6575-0.52526-1.6323 3.3196 1.0235 1.7521 0.2706 2.4998 0.33127-2.5461 0.58797-2.2493 1.4476-1.9061 3.1222 1.786 2.6311 1.9845 1.2177-1.8304 3.7908-0.55766 1.5544 0.90175-3.2243-1.9882 1.5186 2.7217-1.2033 0.84528-2.7941 0.31948 1.926 3.5191-0.0448 1.2554 1.6008-0.3467 1.9781 3.4375 4.1452 3.3837-0.32179 0.46978-1.3597 3.0804-0.39284 1.7088 1.4935-0.20232 1.6085-0.27165 1.5075 1.5206 1.0594-0.91464 2.2271 0.61814 2.0864-1.6523-1.5776-0.25093-0.0809-2.2118 0.98425-2.6899-2.7756 1.7242 1.0669-3.8526 0.37531-0.68384 1.9902-0.4629-2.2718-4.0259 0.40283-2.009 0.67966-0.17626 3.2551 2.7445 1.5261 2.0149-0.57906 0.65556 1.6681 1.005 0.24669 2.6303-8e-3 1.5729-2.2789 0.29072-1.1197-0.62953-2.97-1.5157-1.2317 4.2534-0.46424 5.5041 1.4879-0.61337-1.4092-0.74561 1.1612-1.3268-0.3752-2.0458 5.2387-1.5272 2.6692 1.5317 1.5836-1.1144 3.6088-4.6154 0.18511-3.3393-2.298-1.6297 0.1637-2.1998 0.97542-0.96229 0.94131-2.2598-1.9082-2.3504-1.0217-3.1235-0.0682 0.79854 2.521-0.60315 1.2004 1.35 0.76323 2.8032 6.2295 2.3205 4.2799 5.7603-0.47973 2.7048-2.0212 3.223-4.1545 2.2622-1.1058-1.085-0.56629 0.55837 0.19549 1.2903-2.2096-0.17819 0.0424 1.3069 0.82119 1.2963-1.7591-0.0679 1.0885 2.726-1.8703 2.9078-0.77614 1.7343 4.4144 3.4381 0.62082 5.223 0.76864 2.8674 2.3734-3.6525 2.9513-1.3083 0.79454-3.18 1.7652 1.0286-0.92922 0.78751-1.1834 1.9823-1.485 4.212-2.3422 1.557-0.57742-0.85043-2.5186 2.1768-1.0011-0.66026-2.4304-1.5591-1.4564 2.5056-3.078 0.56366 0.0387-1.3218 1.1082 0.93956 1.063-1.8511 2.0336 0.7288-1.7411-2.1137 0.40204-2.6892 0.69751-2.3888-1.779-4.5261-3.2513-1.5625-1.6512 0.28294 0.22558 2.2709 2.0309 1.0053-2.145 0.75206-4.6512 2.9947-1.024 4.9663 2.4728 3.2754-2.1192 6.5548-3.1958 9.6751-1.4796 4.154-4.8906 6.7852-8.6723 8.763 0.2272-2.8872 2.6627-7.5196 3.5759-11.137-0.13745-2.6635 4.3742-6.2839 0.74155-7.7738-1.0837-0.51982 0.72977 2.6265-0.89473 3.8735-2.7146 6.2978-4.5551 12.986-7.827 19.022-1.0941 1.5777-3.7902 5.3626-4.5498 4.7801 0.87505-4.993 1.6416-10.082 1.8382-15.125-2.3889-0.38016-1.3853 10.175-3.2701 4.6942-2.4795-2.691 0.8808 3.8669 0.41058 5.2375-0.83589 2.0707-1.2304 8.7052-2.8531 8.2686-1.8818-3.0288-4.2904-6.2605-3.1467-10.04 0.53033-4.3205 1.5693-8.5755 1.9881-12.905-2.3886 2.064-1.7713 7.0031-2.9587 10.162-0.21866 2.3774-0.89932 4.6111-1.6431 0.92587-2.0465-5.8294-3.7579-11.777-5.7899-17.605-1.9883 0.47672 2.2188 8.2166 0.90348 8.7869-3.309-2.2738-5.7858-7.6607-8.797-8.8407 2.1208 2.4962-5.1673 2.0152-1.6679 3.033 0.09032 1.7777-3.1343 2.0675-0.55328 2.7098 0.39308 0.53916-4.5798 0.66355-1.8649 1.2048 1.2961-1.4611 3.7872 1.4153 2.2503-1.778-0.60693-2.9817 4.1746-0.0927 1.2485-2.0748 1.3169-2.5539 2.4514-0.0743 3.5105 1.1784 2.4816 3.2171 5.2497 6.3 7.5535 9.6003 0.2743 2.1661 1.5182 5.5219 1.0917 6.7119-4.7402-4.0927-9.5233-8.1469-14.273-12.221-0.85406 3.1478 5.1645 5.4444 6.9061 8.1229 4.609 4.4793 10.111 8.4088 12.692 14.515 0.57118 1.7704 5.2828 7.4181 0.99037 6.6103zm-23.467-11.047c0.77801-1.5808-5.017 0.25616-1.5183-0.0405 1.5191-1.2452 0.82375 1.7007 1.5183 0.0405zm-4.7728-3.4001c-0.15131-1.3146-0.98482 1.6404 0 0zm2.4992-3.8875c-1.6473-1.464-1.5081 1.5226 0 0zm-2.9138-12.154c-1.0947-1.557-1.3591 0.4415 0 0zm-3.4231-0.92941c1.1549-1.911-2.0267 1.3051 0 0zm2.311-0.41572c0.48559-2.9436-1.0806 1.994 0 0zm8.1232-1.3834c-0.78143-0.95578-0.81286 2.2489 0 0zm45.284-1.2098c-0.47679-1.2145-1.2885 1.3785 0 0zm-2.0423-0.55297c-1.7703-0.0559 0.5921 1.2255 0 0zm-41.651-0.85692c0.73391-2.1119-2.4509 1.597 0 0zm43.976-0.83745c1.822-3.2012-2.4025 0.38627 0 0zm-5.6817-0.71c-0.76993-2.9112-0.64472 1.1709 0 0zm-39.683-0.44324c-2.0393-1.2416-3.8343 0.16985-0.65702 0.16105 0.04577 0.10985 2.1318 0.35235 0.65702-0.16105zm45.761-0.55611c0.65622-1.6246-2.4407 1.0006 0 0zm-1.4622-1.478c2.7282-1.4075-1.8638-0.0935-0.3151 0.5825l0.28236-0.31465 0.0328-0.2679zm7.9247-0.64522c-0.97474-0.63007-2.2312-3.8483-1.7441-0.64772 0.61015-0.17388 1.5231 1.779 1.7441 0.64772zm-9.5584-0.0519c-0.32532-2.1437 0.46152-3.4026-1.7235-1.5852-1.2535-1.1338-4.8365-1.3472-1.4613-0.24234 2.5301 0.57565 0.49788 1.675 0.90996 1.8444 0.74532 0.0468 1.5439 0.17147 2.2749-0.0169zm-19.125-0.85003c1.0875-1.3661-2.0323 0.98547 0 0zm29.312-0.0765c-2.5355-2.2335-0.54516 1.8605 0 0zm-14.377-0.0945c1.549-1.6995-1.6503 0.20097 0 0zm5.5607-0.6266c2.1977-1.7719-2.5981 0.53834 0 0zm-46.746-1.2174c-1.3403-0.0524-0.32453 1.7649 0 0zm54.374 0.52349c0.0911-1.9473-2.8574-0.23312 0 0zm-6.1594-0.93801c-1.3527-1.607-0.83062 2.0063 0 0zm-47.092 0.28965c4.5401-2.4052-2.958 5e-3 0 0zm39.773-0.41136c-0.64063-1.1668-1.5441 1.4433-0.0582 0.3052zm0.67406-0.74836c-1.2545-1.339-0.44242 0.52133 0.36783 0.64332l-4e-3 -0.18897zm4.378 0.20858c0.0423-1.5511-1.8896 0.93096-1e-5 -3e-5zm-43.975-0.42963c1.876-1.4396 0.51578-2.7736-1.3593-1.5045 2.1952-0.24268-2.1307 2.9696 1.1229 0.6848 0.51727 0.0929-1.6875 1.788 0.23634 0.81966zm52.176-0.0894c1.0434-1.4511-1.6827 0.31321 0 0zm-3.0508-1.3691c-0.66955-1.9764-2.166 1.7512 0 0zm1.4431-0.65368c-1.9099-0.55082 1.7363-4.8401-1.1388-4.9723 1.0897 1.8745-0.51337 3.2584-0.68561 4.9698 2.0529-1.1163 0.6092 2.395 1.8245 2e-3zm-49.831-0.31095c-1.509-2.006-2.0886 0.72481 0 0zm13.325-2.1364c2.5188-1.572-1.5922 0.0973-0.16686 0.25994zm40.995-0.64668c-1.1334-1.1502-0.40011 1.6666 0 0zm-54.476-0.1123c2.6768-2.514-2.2142 0.68243 0 3e-5zm16.264-1.1592c-0.26166-1.8528 4.3744-0.98362 1.7377-3.2167 3.4208 3.2244 0.79012-3.9889-0.0057-0.85483 2.1328-0.09039-6.4788 2.1311-3.1831 1.9328 3.4277-1.0185-1.2659 2.0221 1.3495 2.257l0.10164-0.11825zm0.34954-2.4087c-0.22834-1.9889 2.078 0.95949 0 0zm-12.561 1.6528c-1.7466-0.37234-0.04695 1.2634 0 0zm47.019 0.13284c-1.0602-0.95518-0.57754 1.4169 0 0zm-0.96955-0.71642c-1.404-1.3878-1.0791 1.4985 0 0zm-27.721-0.82691c-1.1779-0.88573-1.4544 0.95017 0 0zm13.162-0.24345c0.49541-3.7098-1.4424 1.5958 0 0zm-13.956-1.5966c-1.413-0.98038-0.54055 1.3043 0 0zm10.319-0.75978c-0.178-2.7707-2.5532-2.3594-1.9906-0.74653 1.7494-1.0032 0.16738 1.4707 1.9906 0.74653zm6.0854-1.9302c-0.96435-0.12382 2.0374-2.9612-0.68895-1.4433-1.4552 0.78488-0.57629 4.5368 0.68895 1.4433zm3.08 0.4634c-0.12248-1.0472-3.4378-1.1402-0.69305 0.26101l0.69305-0.26102zm-4.9321-0.1549c-1.3462-1.7652-1.2656 0.59628 0 0zm-1.1197-1.0866c2.4626-0.65998 2.9758-3.1378 0.17369-1.3229-0.70261-0.43073-1.3304 3.0587-0.17369 1.3229zm-2.1888-1.0604c2.4438-2.0717-2.3613 0.55831 0 0zm2.3486-1.3757c-1.5781-2.2086-2.6136-1.7524-2.3904-0.57564 2.8053-0.88598 0.89086 2.536 2.3904 0.57564zm2.4408-1.4382c-0.85246-1.8762-0.99813 2.6217 0-3e-6zm-1.0014-1.1363c-0.20624-0.92182-1.2586 1.1004-0.18377 0.27926zm-3.1633-0.83931c-2.1534-1.0076 0.90195 1.4695 0 0zm3.3592 0.05162c1.027-1.9246-1.3097 0.73444 0 0zm0.17124-1.663c-1.6574-0.62831 0.0347 1.1927 0 0zm-9.7505 65.348c0.58493-2.0897-0.69707-4.7252 1.2487-6.2756 3.689-4.9812 7.709-9.7349 12.675-13.5 4.1136-3.5934 8.7192-6.6496 12.566-10.529 0.40639-1.5592 0.55296-2.7645 1.2072-1.7042 0.88887-1.8591 2.9613-2e-3 0.71491-1.7755 2.183 0.95506 4.3544-0.0709 5.7198 2.0122-0.59084 2.1402 2.842 4.2742 1.3554 6.7861 0.99588 0.68816-3.3667 1.9765-0.6547 1.998-3.0352 0.94342-0.33083 3.2441-2.6026 2.7958-1.8247 0.25648 0.36379 1.3338-0.74236 2.4087-1.1313 0.44423-3.9187 4.3097-4.3239 5.5374 0.14492-3.0065-0.4105-1.9815-0.81792 0.18151-2.5734-0.57891-2.1824 0.68276-5.5362 0.8837-3.0086 1.3587-0.25621 6.8806-3.933 7.5523-0.41601 1.0191-5.0646 4.6429-7.8973 2.9445-1.019-2.2034-0.10353 2.45-2.597 1.3683-1.9956-1.7467-5.5079 0.68983-6.4913 0.22006 0.0364-0.30152 0.072-0.6033 0.10898-0.90465zm28.218-17.258c-1.3179-2.3005-1.6284 1.4793 0 0zm3.2376-9.1437c-0.41888-2.4922-2.1373 0.93056 0 0zm-4.4472-2.797c1.2193-1.5474-0.69925-0.41585-0.53847 0.41577zm4.766-0.69106c0.79997-3.4605-1.9437 2.3307 0 0zm1.3035-2.1191c0.22899-1.7624-4.8473 0.9538 0 0zm-60.044 26.774c1.9774-2.7801 2.7532 0.53588 0 0zm-3.7491-2.8536c1.444-1.9301 1.0776 1.8989 0 0zm-2.7143-4.29c0.97424-1.0648 1.0151 1.035 0 0zm51.733-13.253c1.2303-3.1121 2.7807-6.0873 4.4134-9.0053 3.4109 2.3636 1.8325 6.0468-1.612 7.352-0.74587 0.31339-2.2759 2.1991-2.8015 1.6533zm3.2857-4.3041c-0.67802 0.14135 0.78417 1.9357 0 0zm-1.7057-8.637c1.3659-1.0149 0.56144 0.92793 0 0zm6.1576-4.0769c0.85464-1.8597 1.0974 1.8936 0 0zm1.0303-0.33283c-0.59978-1.5796 1.2907 0.62626 2e-5 0zm-10.1-5.1169c-1.1364-2.1408 2.3247 1.7897 0 0zm-11.943-3.3625c-2.0907-0.97875 1.8177-2.8688-0.26684-0.86405 1.7387-0.67224 0.94973 1.4511 0.26684 0.86405zm10.843-0.14158c-2.2701-4.1724 2.0074 0.94768 0 0zm-18.565-0.37482c-0.60221-1.1084 1.8314 0.70738 0.33207 0.24914zm22.546-3.4647c-0.16934-2.3204 1.3398 0.3674-4e-5 0zm7.4587-0.47885c-1.3759-2.5361 1.8108 0.5794 0 0zm-27.932-2.1188c-1.5701-1.0005-1.5155-3.1229-2.5585-1.8015-2.4875 1.1827-1.7804-2.4024-3.3599-2.6335-2.6629 0.03199-1.5605-4.3109 0.81479-2.3872 2.4026 0.06395-1.0191 2.2647 1.9286 0.58365 1.444-0.74379 2.11-3.3904 3.0116-0.74991 0.0113 1.7449-1.8286 5.8291 0.39656 3.2474 2.2987-1.4374 3.1693 3.5093 1.0897 1.7601-1.867 0.14933 0.23994 2.9193-1.3228 1.9811zm-3.8731-5.006c1.3625-2.3501-1.2293 0.92152 0 0zm17.686 3.0325c0.11608-3.2894 1.1411 1.3059 0 0zm2.5908 0.0011c0.15643-1.1378 2.0921 0.55489 0 0zm0.38764-1.0641c-0.1483-1.5063 0.81961-3.8371 1.512-1.4369 1.4924 1.0866-0.84418-0.08248-0.86141 1.6526l-0.34429 0.02994-0.30621-0.24564zm-28.103-0.18051c-0.71752-0.81823 3.339-1.9261 0.42659-0.03158zm1.9708-1.0308c0.20012-1.3979 1.5745-0.73962 0 0zm11.343-0.77679c-0.63847-2.6136 4.5997-2.6111 2.3854-1.5195 2.2965 0.20204-2.2797 1.6086-2.2691 1.9831l-0.0606-0.24164z" fill="#55aaa4"/><path d="m103.99 175.14c0.21496-2.0342 0.11789 2.2578 0 0zm-0.25925-5.6885c0.15571-2.4271 0.14879 2.4324 0 0zm-4.5033-0.39687c0.21527-2.0344 0.11719 2.2576 0 0zm4.2459-5.424c0.15106-2.9626 0.14278 2.9694 0 0zm-3.9687-1.3229c0.15107-2.9626 0.14276 2.9694 0 0zm-0.9178-7.3569c-2.551-1.7168-7.4108-1.3029-9.1942-2.8835 1.3876 3.6661-4.1782-2.4763-6.1427-1.2829-2.8489-0.21638-0.93153-4.4162-3.8592-4.5674 1.0279-2.2272-6.2929 3.3731-4.2984-1.0271 0.79127-4.1386-3.7736-0.56903-3.8131-2.6182 2.6333-0.0887 0.17627-3.6079 2.2692-1.9715 2.873-2.1768-5.2896 0.81491-4.5063-2.3697 0.04444-0.91509-1.7007-3.5208-1.4446-4.0465-1.8737-0.90966 2.2847-1.426-0.45144-2.0082 2.0515-1.6076 4.0949 4.9396 4.4494 1.3034-1.8833-2.2369-0.56003-4.804-3.9961-5.5001 1.1209-0.72976-1.6494-0.96694 1.1531-1.3196 1.6375 1.4449 3.2331-1.9285 6.4024-0.8063 3.227-0.44018-0.06573 0.53113 1.0972-1.4849 1.112-0.84274 6.6718 2.2196 3.8511-0.11368-3.9735-0.47216 3.0938-1.9076 1.9595-3.506 2.7039 3.5134 5.7437 6.8922 8.3116 10.45 0.44932 2.3006 1.0048 4.5848 1.3237 6.9076-4.4599-4.0348-9.4375-7.5419-13.557-11.936-1.8142-4.0764-2.1159 2.7557 0.8524 3.0452 5.0082 4.766 10.437 9.1402 15.019 14.325 1.9386 3.6213 4.7922 7.2313 5.5501 11.207l-0.16448 0.16523-0.81107 0.0384zm-24.537-13.776c1.0465-1.9087-2.2866 1.615 0 0zm-3.6876-2.745c-1.4393-0.4993-0.03329 1.2506 0 0zm1.8112-1.6831c-2.1846-1.6813-1.0137 1.8667 0 0zm10.98-7.4781c-2.0182-1.1423-0.37149 0.85031 0.57756 0.41593zm0.89379-0.8024c0.85973-2.3076-2.0348 0.99968 0 0zm-7.3761-1.0955c-1.3208-1.7755-6.8286-0.23714-2.3003-0.39807 0.8403-0.24207 1.4477 1.3747 2.3003 0.39807zm-4.8132-0.27283c-0.84666-1.0648-0.89513 1.1179 0 0zm7.7236-1.2188c-0.52796-0.71234-1.4075 2.4476 0 0zm24.736 28.486c-2.1566-2.8553 0.48449-7.4079 2.9836-9.7852 6.1551-7.7895 14.257-13.615 21.89-19.841 2.1922 1.359-0.0672 5.4302 2.9663 5.0962 0.95861 1.0427 4.2279-1.6351 2.7616-3.0914 0.71357 0.13184 1.118-5.5411-0.17883-2.8133-1.0591 1.1964 0.46262 1.0459-0.83542 2.2513 0.0474 1.8845-1.7896-1.749-2.2906-2.9399 0.82891-3.8065 0.67003 2.1002 1.2848-0.61662 0.36931-1.6111 1.3553-1.927 1.5252 0.41803 3.1115-1.3521 4.7173 2.054 2.788 4.2726-2.2015 4.6209 2.9303-4.6106 1.596-0.0899-0.37754 2.5479-1.8295 3.1474-2.486 5.8783-1.9804 0.21849-2.4266 2.9092-1.0369 2.3229-1.9732 1.1688-4.4585 4.7936-4.2031 5.5379-0.68952-2.9416-2.5253 1.5987-4.6718 1.1645-4.0561 0.0877-4.9466 3.8179-4.0458 6.871-2.2356 1.2798-3.623 3.0213-6.0058 4.3102-1.0613-0.0911-0.70602-0.98014-1.8732 0.43145-2.751-0.8312-2.7879-3.877-2.9216-0.11715 0.41815 1.5122-3.2007 0.6554-3.6129 0.11565-1.1935 0.34969-2.7401 0.89278-3.6335 0.62398zm14.774-4.291c0.19444-1.6026-1.2996 2.517 0 0zm12.563-13.366c-2.2778-2.2587-0.77292 1.8001 0 0zm2.0928-1.3809c-0.79722-1.4271-0.65682 1.8855 0 0zm-1.1834-3.0094c1.6013-3.0855-6.493 0.62926-2.3374 0.46813 1.9077-1.4358 1.315 0.11916 1.3451 0.19488l0.50974-0.31793 0.48245-0.34505zm3.6183-1.2982c1.1634-2.8844-1.127-1.2211 0 0zm-1.3264-0.91763c0.016-1.7753-1.6592 2.5778 0 0zm-55.114 17.542c1.1505-1.4531 0.17048 1.1456 0 0zm18.694-2.332c-3.3597-3.5913-2.2107-8.4122-1.4588-12.737 0.09494-2.5757 1.9488-7.2802 0.62283-8.533-1.3333 4.3609-1.9385 8.9069-3.0463 13.326-2.4832-6.5184-4.3414-13.262-6.6564-19.836-1.8881 0.38313 1.0363 6.1844 1.2389 8.4802-1.4061 0.3716-5.3085-5.2774-7.2476-7.307-0.56873-0.86878-2.4625-2.6456-1.9364-0.49664-2.2228 0.53626-5.0724-1.9724-6.3403-2.0832 0.08142-1.5414 0.08354-1.7192 0.50383-1.9406-2.6909 0.44213-0.46087-1.2198-0.2432-1.4219 0.08335-0.72341 5.4657-4.0293 4.2275-1.6807-3.0051 0.48388 0.26109 0.18596 0.61722 0.31324-1.1229 0.48103 2.1065 3.7444 0.73066 1.0084 2.5958 0.29262 2.3117 1.4798 3.4802 0.29432 1.1861 0.92976 2.5129-2.9862 1.6444-0.15229 2.8674-0.18854 2.4049-2.9178 0.77709-2.561-0.9986 1.4226-3.5648 1.7265-1.6945 0.13565-0.0083-1.7708-0.70064-2.2627 1.4049-2.6689 2.0768-3.0588-0.64212 3.1236 1.589 0.13292 0.65584 0.71519 3.9523-0.27314 5.0239-1.7128-1.9757-2.0496 4.0024-3.5527 5.7098-3.2732 2.0615-0.6179 2.4548 1.0385 1.9804 1.6315 2.3883-2.0105 0.23326 5.1819 2.6638 2.4013 0.34005-0.35678 2.0252-1.5721 1.334 0.18504 0.66915-0.50512 1.6107-2.4536 1.9994-2.0342-0.30363-1.8516 2.1387 0.33582 1.9251 1.4334 2.1153-2.4335 3.0297-0.63731 3.3269-0.22477 1.7201 0.64378-1.8057 2.6063 0.93421 1.603 1.4542-0.71562 1.9875-1.0801 1.2355 1.1821 1.097 1.4501-0.53865 2.1047 1.5188 1.3606 0.91618-0.0314 2.6398-0.57521 3.0609 0.65483-1.0343-2.7015 4.1139-1.3622 0.69735-0.29227 0.0971 1.0217 1.6148-0.5176 0.3114 1.6136-1.7958 2.3147-4.8614-4.011-5.251 0.0364 1.8451-1.43-0.0693 1.531 1.4424 0.65273-1.4904 1.8758 1.9317 0.16553 1.7576 0.14663 0.84613 1.0057 0.17815 2.3576-0.49019 2.6587-2.0061 0.33902 1.8134 1.5404-1.2758 1.248 3.0201 2.0595-0.31405 5.5047-1.0238 8.4497-2.7814 6.6305-4.3471 14.327-10.271 19.023 0.78443-5.0557 1.7396-10.211 1.883-15.362-2.3078-1.6904-1.3338 9.826-3.2105 4.5194-2.0939-2.9252-0.1697 3.0078 0.46282 4.4564-0.69411 3.186-1.4591 6.3659-2.5192 9.4514-0.58538-0.61558-0.97805-1.3767-1.4388-2.0808zm-5.5512-26.682c0.71632-2.0405 0.62038 1.2577 1.3251-0.0968 2.2373-1.1057-2.1194-1.7076-2.2033-0.99571-1.7171-1.1341-3.014 1.1237-1.3982 0.74194-0.61552-1.8104 3.1876 2.8504 2.2764 0.35055zm-3.5797-0.42653c-1.035-0.42097 1.2093-2.3565-0.67187-1.3691-0.11738 1.2262-0.09835 1.73 0.67187 1.3691zm4.9435-1.698c4.3002 0.108-2.9976-2.1657-0.53591 0.19752 0.10724 0.1103 0.77453 0.1848 0.53591-0.19752zm-3.0212-0.8316c1.6643-0.0209-1.4859-0.79765-0.08058 0.23354l0.08058-0.23358zm8.7272-1.0078c0.99564-1.2163 2.3843-2.9566 0.53758-1.9532-0.16124 0.37108-2.2349-0.8209-2.5438-0.25635 1.6921-0.37202-1.446 2.3724 0.52282 1.2392 0.66506 0.0373 0.86418 1.8156 1.4834 0.97036zm-14.883-5.6612c-0.18519-1.1878-2.1665 2.8414-0.17496 0.57084zm14.618-3.443c-1.0831-1.1228-0.55943 1.3543 0 0zm-30.248 35.612c1.0904-2.2497-0.02638 1.3926 0 0zm42.531-6.2809c2.1655-5.1815 3.4622-10.692 5.7072-15.83 1.0879-0.19653 2.403 1.0318 1.361-1.6033-1.3122 0.9273 0.27068-2.0021-2.215-1.1401 0.17354-2.7526 3.1618-0.97707 4.1293-0.0819 0.44148 1.2082-0.20271 3.332-0.12149 5.0479 2.0576-0.34776 3.2201-5.4241 4.0079-1.7574-2.0905 1.2236-2.5853 8.2955-5.3881 5.1846-2.98 0.70566 3.212 1.2516 0.6459 1.975-1.9567-1.9181 1.0327 1.7348-0.94856 2.7824-1.1131 2.552-5.5917 4.9899-7.1782 5.4227zm8.3548-13.338c-0.72504-2.4636-2.8048-1.0894-0.37956 0.35988l0.26807-0.1658zm2.3812-0.12603c0.40491-1.1142-2.0128 1.2128 0 0zm1.3229-1.2946c2.2393-2.4732-1.9499 1.108 0 0zm-54.844 9.6234c-2.9213-1.2808 0.83873-1.0517 0.38561 0.32412zm52.934-2.0639c1.414-1.5951 4.1264-3.0338 4.9101-4.178 1.5034-2.2787-3.1894-3.9361 0.049-3.0064 1.7283 1.9686 0.95108 4.622-1.491 5.3886-0.88054-0.28518-4.6826 4.804-3.4681 1.7958zm9.9555-0.0867c0.2624-1.2289 2.0577 1.1773 0 0zm-8.8391-2.3143c-0.29648-2.1934 5.0131-5.046 2.5888-1.9529-1.4253-1.5646-1.3479 2.031-2.5888 1.9529zm-43.392-2.8655c-2.403-1.5252 1.9337-0.55681 0 0zm0.26458-1.9244c1.2225-1.0701 1.4227 1.0357 0 0zm-3.8365-0.52916c2.4782-0.75643-1.2839 1.013 0 0zm0.13229-2.1167c0.97424-1.0648 1.0151 1.035 0 0zm47.492-0.26419c-1.1762-1.511-2.5509-1.9456-2.4532-3.5895-1.3142 1.4629-0.59147-2.3165-2.0103 0.23468-1.8703-0.9577 5.8899-3.6433 2.566-0.62454-1.0538 1.6963 4.0926 3.8708 1.8974 3.9793zm4.7262-1.2413c0.45742-1.5786-1.7394-0.26575-1.508-2.0003 2.2854 2.1879 2.1379-0.95133 2.2788-1.3853 2.5846 1.3789 0.47375 1.7009-0.77079 3.3856zm-1.2348-2.8212c1.3626-3.1504 1.301 0.79666 0 0zm-8.2378-1.1634c-0.0103-2.0664 3.2769-2.0378 1.8675-3.175 1.6397-0.47519 3.2508 2.4121 0.15416 1.6554 0.10379-0.39615-2.5169 3.8699-2.0216 1.5196zm-37.454-0.46302c-0.38605-1.5029 1.42 1.2621 0 0zm3.4396-0.89774c1.2091-1.5221 1.082 0.92935 0 0zm41.117-0.13743c0.0515-2.0467 0.29073-2.2168-0.48546-4.0015 2.9762 1.3558-0.88264-0.80106 1.3993-2.4436-1.7527-1.5857 2.3203 1.0137 0.43463-1.004 0.0376-2.0824 0.68347-1.8726 0.58844 0.0236 0.57316 0.28679 0.674-0.99241 2.1818-1.5398-1.3664-3.4703 2.479-2.3507 3.1255-0.66531 0.30008-1.0746-0.44909 2.7501-0.54743 2.6782-0.7248 1.6954-2.8325-0.25796-3.2293 0.71576-2.0046-0.60338-0.81562 3.8678-0.0381 3.5155 2.3323 2.6072-4.0517 2.0948-0.89412 0.97249 1.3762 0.13913-1.4947-2.4172-0.76721-0.14088-1.7026 0.70603-0.31114 2.4277-1.768 1.8895zm1.216-5.1982c2.1567-1.25-1.5562 0.49892 0 0zm2.2346-2.0349c-0.92993-3.5486-0.26317 3.8182 0 0zm1.2074-2.5768c-1.7482-0.94515 0.35447 1.3 0 0zm-51.781 9.0174c0.2257 0.2994 3.5965-2.0492 2.7734 0.07-0.66842-1.1689-2.4545 1.5417-2.7734-0.07zm-6.5552-0.67431c1.574-3.4446 1.9589-0.32084 0 0zm5.4167 0.0387c1.0705-1.4712 2.5907-0.28771 0 0zm4.3656-0.33285c-1.8735-1.464 2.7095 0.83889 0.56104 0.33694zm-2.4644-0.52575c-0.11568-1.7039 4.3882-2.1444 5.7862-3.9542 1.8144-1.019 4.0329-1.9862 1.0858 0.0661-1.8454 1.6507-4.9238 2.008-6.0597 4.1288l-0.8122-0.24068zm43.266 0.099c0.76188-1.2162-1.7673-1.7313 0.69275-1.809 0.39428 1.6985 0.97859 0.71611-0.69275 1.809zm-5.4796-0.66744c0.60952-1.3312 3.0182 0.56257 0 0zm-44.377-0.93178c-4.2414-0.61918 3.2609-2.9701 0.66323-0.22515 0.74264 0.65406-0.33608 0.67372-0.66323 0.22515zm3.9566-0.12237c0.88671-1.4889 1.2831 1.414 0 0zm10.181-0.21794c0.40622-1.835 0.91382 1.3767 0 0zm36.524-0.444c-1.4886-1.1859 2.0348 0.0745 0 0zm-45.758-1.0037c1.3364-2.9212 1.49-0.0536-0.0051 0.65638zm9.0462 0.0282c2.6381-0.81144-2.1297 1.1086 0 0zm30.171-0.0705c1.5498-2.2748 1.0283 0.78148 0 0zm-2.3893-1.1714c2.1848-0.5549-3.6795-1.7591-1.4491-3.1036-0.73819 1.8666 1.9986 0.66934 0.99187 1.9368 1.6236-0.0203 2.0339-3.5164 2.6636-1.3944-1.8858-0.77175 2.8213 1.7083-0.97925 0.96405-0.63304 0.33739 2.447 2.8752 0.0959 0.95432-0.17318 0.62062-0.57142 1.3059-1.323 0.64281zm-42.026-0.69491c1.6558 0.74886 2.4813-2.3248 1.9727-2.4686-1.197 0.17366 3.4643-2.8434 1.6822 7e-3 1.5508-2.694 4.5966-0.99286 1.9111 1.2878 2.058-0.64245-1.7312 1.1278-0.62614-0.4732-1.8392-1.7813-2.6763 4.0008-4.9398 1.647zm4.828-0.0435c2.548-0.93216-0.66769 1.3141 0 0zm-1.5948-0.45349c1.6534-2.0113-0.20184 1.7764 0 0zm12.599 0.16765c1.1015-1.7354 1.1934 1.178 0 0zm37.306 0.0168c0.87496-1.7341 1.0919 0.57274 0 0zm-53.975-0.13238c0.91149-2.0158 1.158-2.7157 1.7485-1.891 0.44339 3.0524-3.66e-4 0.44396-1.7485 1.891zm7.4758-0.70356c1.6562-1.7005-0.49721 1.505 0 0zm0.72623 0.17293c0.45331-0.6091 2.1152-2e-3 0.66146 0.10145zm10.02-0.22928c2.3168-1.2975 0.51021 0.34929 0 0zm6.0443-0.64943c0.78779-1.0731 0.87416 1.5129 0 0zm31.033-0.60902c1.4829-1.2927 0.10261 0.99488-0.3621 0.37258zm-30.429 0.20856c1.427-2.5245 2.8503-0.62678 0 0zm-16.043-0.60224c-2.8148-1.127 1.8943-1.7847 0 0zm32.635-0.0777c-0.0267-1.7868-3.953-0.0655-2.9504-3.7046 3.2633 1.5918 0.0734-0.41249 0.76711-0.67142 3.855-2.5881-0.21171 1.0617 2.0966 2.9719 0.86393-0.62122 0.36144-2.7033 0.63127 0.40272-1.0069 1.9355 1.296-2.014 1.7613 0.57624-0.23289-1.608 1.8717 1.1161-0.49421 0.41254-0.60311 0.0319-1.2093 0.0729-1.8117 0.0126zm15.225-0.53545c-2.0899-1.0512 3.3554-0.93822 0 0zm-11.074-0.62516c-0.96533-3.6513 0.71281-1.5767 0 0zm-22.211 0.0688c-1.5037-2.0788 4.0478-0.7865 0.73898-0.17-0.1875 0.1258-0.87129 0.75628-0.73898 0.17zm8.8775-0.25478c0.99452-4.0178 2.7682 0.78318 0 0zm5.6351 0.32969c-1.0677-2.7939 1.3867 0.57982 0 0zm-1.4035-1.3543c-3.8723-4.4276 2.3762 0.67444 0 0zm-4.9784-0.09931c-1.9151 0.71446 0.66466-2.5885 1.198-0.06953-0.50372-0.09327-0.93014 0.94135-1.198 0.06953zm18.482-0.20938c2.0903-3.5449 0.25323 2.0752 0 0zm3.068-0.94045c1.673-1.539 0.60349 0.62259 0 0zm-20.632-0.266c-0.054-2.8193 1.1688 0.50039 0 0zm19.143 0.12607c1.9865-1.7583 1.4278 0.85598 0 0zm-14.552-0.52917c-4.1856-1.1542 2.4931-0.67777 0 0zm13.758-0.3088c1.0985-1.4884 5.1732-0.89526 0 0zm-20.108-0.20314c-1.3424-2.2757-0.30467-3.8443 0.1672-0.66199 0.44869 0.26855 0.42283 1.4212-0.1672 0.66199zm6.8792-0.56201c-0.9293-0.78348 2.4883-0.47473 1.9258-2.1547 3.2118-0.93621 0.49286 0.20966 0.33423 1.2596 3.7863-2.2829-2.014 1.8126-2.2601 0.89509zm-1.6784-0.71199c1.4657-0.91911 1.6207 0.48479 0 0zm-8.6404-0.16801c2.148-2.0974 1.273 0.18618 0 0zm3.9232-0.49345c0.25887-4.7528 1.93 1.632 0 0zm10.26 0.17528c-0.37942-1.8803 1.196 1.024 0 0zm11.217 0.15545c-1.8387-0.7933 1.4756-0.29159 0 0zm-14.597-0.38583c-0.11267-0.69302-0.88082-3.9337 0.21559-3.1845-0.97325 1.6478 1.022 0.44526 0.12994 2.1301 1.3913-0.65429-0.64863 1.7756-0.34553 1.0544zm-11.23-0.69744c-1.1672-2.5256 1.2466 0.06006 0 0zm14.979-0.42813c0.36132-2.8043 1.7872-1.2262 0 0zm-2.1489-0.31515c2.9204-2.393 1.4005 0.61842 0 0zm-12.139-0.37002c0.97659-1.6357 4.4575-4.434 2.0544-0.6826-1.5145-0.59914-1.1312 1.5171-2.0544 0.6826zm15.618-0.6153c0.86542-1.6519 2.0088-0.35065 0 0zm-10.327-0.4477c1.0318-2.9107 3.2458-1.2647 0.54216 0.19661-0.14783 0.24271-0.64372 0.1499-0.54216-0.19661zm8.7312-0.08011c-1.3696 0.45427 0.11496-3.0521 0.44621-0.04735 0.33706 0.56016-0.51785 0.65472-0.44621 0.04735zm-1.7544-0.22683c-0.24761-1.5826 1.1227 1.0829 2e-5 0zm-11.116-1.0637c1.7456-1.2498-0.71077 1.403 0 0z" fill="#2e978e"/><path d="m98.168 154.72c-1.6364-0.5891 2.1158-2.6045-0.90427-1.1476-0.66573 1.1939-1.133-2.4335-2.0562-0.0221-3.8277-0.43449-4.63-4.8535-8.5872-2.5458 0.16699-1.035-3.7789 0.0231-3.6667-1.9846-0.42569-1.7792-0.01689 2.8865-1.2298 0.39687-0.30453-1.6644-1.5338-4.2126-1.5153-4.7245-1.069-0.30151 1.8096-1.8362-1.0449-1.1304 0.23655-0.23567 3.4698-4.6015 0.2958-2.5248-1.9145 2.0654-5.563-1.6003-0.93306-0.91067 4.7588 0.54593-0.87715-4.5684 1.3452-5.444-2.7965-2.5256 3.2175-0.39758 1.1509-3.1769-1.2097-1.8453-3.5243-0.93448-2.4999-0.23883-1.172 0.98291-1.0071 2.9169-2.5276 2.6808 2.0007 1.4468-0.7435 1.47-1.3071 1.6266 0.27644-1.8088 3.0375-3.3445 2.4619-3.9402-0.4347-0.84329 2.2914-2.9541 0.357-3.6766 5.5648 5.2969 11.667 10.083 16.695 15.911 1.9133 3.4735 4.6582 7.1101 5.209 10.936-0.40101 0.16988-0.84429-0.0789-1.2425-0.0851zm-12.316-5.518c1.2566-2.4036-1.7438-0.8318-1.6457 0.58296 0.53085-0.21727 1.0222-0.70133 1.6457-0.58296zm4.2547-0.52244c-4.4918-2.4992 1.4953 1.9696 0 0zm-6.8215-1.6089c-0.50872-0.50811-2.0884 0.39266-0.66146 0.2279zm20.836 7.1245c-2.0874-3.6187 1.6415-7.5459 3.5152-9.7951 4.2529-5.973 10.197-10.453 15.875-14.987 1.3459 0.0863 1.7526-2.0503 2.0683-0.69294 1.2948 0.16661-0.58216 1.3926-0.0899 2.2347 1.7914-0.49416 0.82065 1.6843-0.57139 0.6048-1.0596 1.4392 1.6031 0.65679 2.2541 1.0411 0.60595-0.67617 3.5891-1.1924 3.4449-2.8992-3.0229-3.18 2.9811 1.3679-1.1376 2.0455-2.8307 1.6774 3.6927 1.2291-0.56783 1.7532-3.1801 1.4105 2.6495-0.1808 2.9623 0.60414 0.36761-1.8966 2.1574-1.6989 3.073-3.8739 1.9145-1.9732-2.6384 4.5734-0.1906 1.4893 1.9507-1.2248 1.7286 1.2721 0.50513 0.82684-0.92755 1.9412-4.7559 3.3058-4.8001 1.8412 0.51523 1.1934-2.7872 4.1239-0.95633 3.3799 1.1164 0.027 7.1775-3.1489 3.3746-0.95026-1.834 1.0577-1.082 4.1978-2.8502 2.7814-2.331 2.3495-3.9189 2.6553-6.4407 2.5122-1.0903 0.0521-2.5234 3.8529-1.9137 6.0451-0.40089 2.712-4.4174-0.99591-5.2034 1.8763-1.7855 0.76325-0.16316 1.4861 0.62599 0.58712 2.9094 2.7113-2.7076 0.93666-2.6667 3.132-1.5942-0.63418-3.2534-4.2806-2.9609-0.62074 0.78322 2.4632-2.6292-0.23733-4.5094 0.6884-3.4897-2.1944 0.26337 0.53314-2.8394 0.37535zm5.8491-0.84693c0.33603-1.6431-1.7867 0.91338 0 0zm5.5826-12.604c1.0566-1.6314-2.3465 0.9839-0.30854-0.0266l0.30822 0.0266zm2.1503-0.12513c1.7968-2.0718-3.8749-1.3743-0.16877-0.70981-1.0862 0.5982-1.9284 1.4182 0.16877 0.70981zm-2.8167-1.5599c-1.2562 0.29566-1.8721 2.5578 0 0zm6.7924-3.4204c0.63069-2.797-2.9227-2.0016-0.47984-0.63786-1.3034 0.79951-1.8389 2.5189 0.47984 0.63786zm-1.6165-0.0971c-0.53237-0.68852-1.1305 1.1139-0.12308 0.22968zm-2.0816-0.25471c1.686-2.4288-2.4206 2.0007 0 0zm5.8782-2.7461c-2.1239-3.8098 0.13641 2.8194 0 0zm-1.0185-1.4026c-1.005-2.5104-1.4709 2.9787 0 0zm1.4117-0.12402c0.19972-3.9718-1.5995 0.69009 0 0zm-26.081 13.794c-3.1572-3.4976-1.7677-8.1534-1.1424-12.294 0.0041-2.4281 2.1409-7.5914 0.52616-8.5255-1.3866 4.3341-1.9305 8.895-2.9853 13.318-2.0037-5.3534-3.8809-10.815-5.2416-16.371 0.2303-1.8465 1.7465 0.52845 2.1589 0.51762 0.20836 0.43449 3.7269-0.11718 3.5159-2.4243 1.66-1.4942-0.17286 0.71637 2.0403-0.54238 1.3422-1.4934 6.2165-2.5827 5.7739-4.8035-0.77497 0.11909 0.41287-1.2096-0.90299-1.0438-0.5832-2.5756-5.0548-3.1613-7.4005-1.1544-0.37663-1.8726-2.5693 0.42054-2.2127-1.4759-2.135-0.77618 0.50525-1.3295 0.33868-2.2804 0.84699 0.42201 5.8735-0.85089 3.8592-0.9517-1.6245-0.2491 4.0244-1.6833 3.2286 0.44296 0.81542-2.4776 0.89249 1.9135 2.6075 0.47089 2.1122-0.61939 2.4316-1.749 5.4868-1.2684 3.323-1.8217 0.0923 0.84715 0.8847 1.3231 1.3177 0.0126 2.1158-1.447 0.98345 1.355 1.0857-1.1506 4.3685-2.0902 1.9054 0.83575 2.4498-1.1742-0.0958 1.5251 1.1405 3.1864-1.1779 1.8484 2.032-1.1237 0.48235 1.0278 2.3776-0.82212 1.6112-7e-3 1.1565 1.0499 3.417-0.83531-1.4171 2.0696 0.12179 3.0725-0.26977 1.5925 2.9908-0.39342 0.86998 2.3464-2.8988 6.4969-4.6135 13.551-8.3216 19.659-1.1777 0.42514-3.8443 0.8755-1.1779 1.0161-0.98289 1.8142-3.6224 4.9024-2.1916 0.8923 0.69992-4.473 1.4487-9.0105 1.3449-13.54-2.4346 0.0905-1.2605 10.43-3.2132 4.4438-2.5252-1.6702 0.60825 3.7579 0.48974 5.4184-0.79925 3.0197-1.4506 6.0868-2.4982 9.0337-0.54245-0.91108-1.0852-1.8237-1.6275-2.7338zm12.98-15.551c-0.94034-1.4099-1.9219 1.4928 0 0zm1.2382-12.748c-0.87938-1.7106-0.90382 2.868 0 0zm-3.9365-2.3233c-0.62468-1.7138-0.87118 0.94557 4e-5 -4e-5zm-1.0139-6.3755c-0.0443-1.6432-0.8489 1.6627 0 0zm-8.2787-0.80644c-0.99495-1.4328-1.1341 1.4966 0 0zm-1.0583-0.51647c-1.1438-0.93147-1.4561 0.49765 0 0zm-22.49 40.06c1.6566-1.4658 1.3656 1.0452 0 0zm1.4552-0.91763c-0.211-0.38379 4.8824-1.0102 1.0583 0.11496l-0.52917 0.0245-0.52917-0.1395zm-0.06615-5.9809c-1.0371-1.1322 2.451 0.0329 0 0zm11.53-4.2631c-2.8668-1.4978-2.4644-4.5933-4.0367-6.0939-0.20015-2.7763-3.5418-2.4308-3.2605-5.3372-0.20273-2.3854 1.2923-4.2818 2.5157-1.0821 2.4853 3.8112 6.8381 6.7196 7.2369 11.575 0.58004 2.1989 1.3027 5.1341-1.2511 2.0157l-0.58265-0.5188-0.62173-0.55844zm-3.0165-6.0687c-1.5127-0.92116 0.63161 1.6272 0 0zm-15.34 8.2362c0.05163-2.0266 3.2956-1.6257 0.47042-0.84603 2.1641 0.79693-0.89044 1.4794-0.47042 0.84606zm3.7002 0.18309c-1.6624-2.6944 2.7866 0.20836 4e-6 6e-5zm-4.3485-1.3506c0.95218-0.92701-0.78392-2.1793 0.88078-0.52094-0.02255 0.42012-0.844 1.7292-0.88078 0.52094zm3.974-0.26136c-0.4288-1.1844 1.8052 0.23434 0 0zm39.317-3.3603c1.714-4.3848 2.8507-9.0209 4.8247-13.284-0.45072 1.771 0.35896 1.5196-0.47159 2.6021 1.4102 0.98027 1.3146 4.2979 2.6633 6.1221-1.0445 2.5513-4.3163 5.1939-7.3333 6.7536-1.0002 0.79094 0.33394-1.944 0.31697-2.194zm-39.058 1.7258c2.452-2.7086 0.01851 2.008-0.27979 0.23482l0.19083-0.16016zm-1.8932-0.54352c1.0332-4.3521 0.98225 1.2131 0 0zm2.0254-1.7939c0.15297-0.88104 1.4854 0.6244 0.23207 0.18686zm10.313-0.47131c-1.7899-1.2375-3.971-3.6707-1.1045-1.1745 1.3825 0.1983 3.9207 2.573 1.1045 1.1745zm-7.7998-1.6149c1.4772-2.0914 1.441 0.39868 0 0zm-2.2338-1.464c2.2517-1.3334-1.3038 1.6102 0 0zm5.7864-0.44955c-1.6141-1.0489 3.0205 0.0985 0.4117 0.36153l-0.4117-0.36156zm56.781-1.1974c1.3114-3.0269 0.15951 1.8539 0 0zm-49.786-2.42c-2.8615-2.582-3.1365-4.5538-5.5459-6.5074-1.607-1.2916 2.916-0.10861-0.56957-0.9523-3.1359-0.84676 4.101-0.0286 0.19844-1.0623 1.8239-0.50951 3.5902 0.8821 3.6209 2.1092 0.27511-3.3726 1.5614 1.8314 2.1698-0.55293 0.85131 3.0818 1.6837 6.1758 2.4038 9.2917-0.78511-0.74941-1.5263-1.543-2.2774-2.3258zm33.615 1.0531c-2.2161-2.8185 2.3493 1.327 0 0zm16.85 0.0195c-1.1943-3.0205 1.9258 0.4934 0 0zm-16.538-0.7779c-0.7291-1.9505-2.3533-0.43286-0.4528-2.8585 1.7225-1.273-0.0687 2.2424 0.68605 2.909l-0.18036 0.0543-0.0529-0.10479zm-0.97912-4.2085c0.86929-2.2761 0.35914 1.6916 0 0zm-29.905-1.5318c-0.01255-1.0096 2.3023 0.21114 0.34851 0.32968zm-10.813-1.2318c-1.6231-0.8579 2.4904-0.19246 0 0zm16.536-0.25748c0.97423-1.0648 1.0151 1.035 0 0zm1.3891-0.31099c-2.7102-1.0745 3.7901 0.32941 0 0zm-22.172-1.6649c-1.3323-3.9964 2.1823 3.1758 0 0zm41.95 0.64641c1.555-1.49 2.8701 0.26097 0 0zm-20.902-0.27126c1.5445-1.5858-4.5469 0.0552-1.263-2.1799-1.1533 2.1365 5.1079-0.41902 2.0077 2.3254l-0.74466-0.14552zm1.9803-0.7739c-0.84328-1.2072-2.7448-2.1019-0.06206-1.0285 0.70675 0.21805 0.93168 1.5232 0.06206 1.0285zm-23.585-1.7378c-0.21377-1.6358 1.1891 1.395 0 0zm46.475-0.52473c1.4818-1.7212 3.2622 0.47771 0 0zm-3.9688-0.62935c-3.0682-3.937 4.6257 0.50208 0 0zm2.4405-0.0718c-0.15427-1.3769 1.6363-0.94375 0.32499-0.25798l0.0828 0.5392-0.40777-0.28121zm2.5866-1.6594c-1.166-2.3629 2.5979-0.12698 0 0zm7.1438-0.92417c0.19506-2.9209 1.4739-0.0362 0 0zm-0.92475-3.1885c0.42684-2.6381 0.62478 0.64234 0 0zm-30.098-1.6423c-1.5473-2.9611 3.3056 1.8814 0 0zm29.237 0.13086c1.6135-0.29258-0.0799-2.6716 1.758-0.72415 0.0196 0.53574-1.9145 1.4306-1.758 0.72415zm3.5349-0.73112c-2.9244-1.7428 1.6899-1.5236-0.0527-4.004 3.4465-1.5464 2.3037 5.5255 0.0528 4.004zm1.3846-2.5301c-0.49801-1.5821-1.1455 2.2802 0 0zm-36.155 2.2436c-0.30805-2.4013 5.6073 0.41182 1.4084-0.52255-1.7651-0.56984 0.46914 1.8063-1.4084 0.52257z" fill="#168b81"/><path d="m98.789 154.68c0.13839-1.5409 1.2875 0.42765 0 0zm4.9231-2.2903c-0.17569-2.1362 0.56305-4.9826 1.7189-4.2039 1.4643-0.76198 1.9151-3.4154 3.1345-1.1005-1.2904-1.4691 3.2169-0.31378 1.4427-1.9717-1.6144 0.96617-3.3322-1.9621-1.4165-1.5729 0.33312 2.8256 1.9907-1.7886 3.1004 1.4504 1.2651-0.36074 5.1459-4.0922 5.553-0.55342 1.3994-0.0942 1.2968-2.7541 3.7432-3.5579 2.3119-0.0536 0.0621 4.5251 0.36213 5.88 1.0329 3.0977-0.46815 2.2658-2.4839 2.0413-1.9378-1.7243-6.3416 3.6967-1.5761 2.4546 1.9079 1.636-3.4267 0.16951-2.9059 2.4654-2.387-1.2623 0.36183-0.94285-2.4183-2.3605-1.5534-0.43775 0.27801 3.498-2.076 1.329-2.3478 0.51211-4.1884 0.40227-4.0492-1.095-1.4978-0.47794-2.3725 3.2698-2.1289 0.79499zm16.218-4.3692c-0.92243-1.3356-1.0541 1.6568 0 0zm-26.243 4.9209c-2.4777-1.6528-1.0876-4.3876-4.0445-4.9779 1.1121 0.68027 4.6536-3.2594 1.3876-2.1403 1.0721 1.8139-2.2279-3.0207-1.0222 0.43521 1.3763 2.4823-2.7532-4.0046-1.1622-0.85345-0.92183 1.4414-1.5933 1.1895-0.0045 1.3441-1.9067 0.80607-4.9613-0.78883-5.1475 0.27805-0.98227-1.2081-1.0946-0.88951-3.0439-0.88387 3.0948-2.3862-0.61347-3.9518 3.2677-5.3917 2.2437-0.30147 1.8145-2.6513 3.028-3.6425-1.5227-0.44518-3.5927-3.5373-4.1283-4.1692 5.2051 4.7395 11.231 9.0728 14.079 15.754 0.1298 1.3326 3.3635 3.8631 0.82601 4.2043-1.3658-0.0217-3.661-2.3766-2.0614 0.43785-0.69814 0.19467-1.3621-0.12006-1.9739-0.39431zm2.9801-3.4452c0.43678-1.0822-4.1315-1.03-0.9342-0.12531 0.11546 0.5454 0.67267 0.60057 0.9342 0.12531zm-0.82034-2.0075c-2.1055-1.0633 0.93421 1.5305 0 0zm-9.0185-3.0581c-0.23882-2.4936-1.4379 1.6664 0 0zm4.0151-2.6727c2.7385 0.86871-2.8362-4.4827-1.1053-0.61294 1.0872 0.76208 0.26746 2.4015 1.1053 0.61294zm-1.4773-1.1716c-2.7778-0.46488-0.05792 1.5631 0 0zm9.2959 5.0172c-2.7995-1.7768 2.2789-3.6568-0.21828-3.9914-2.1104 4.0545-2.961-4.1333-1.8616-6.0227 9e-3 -3.3107 2.7985-10.47 0.88179-11.607-1.2771 4.4435-1.9594 9.0366-2.9343 13.554-1.2456-3.8687-2.6294-7.6974-3.7503-11.603 0.7626 1.8592 2.8965-0.3538 0.50685-0.28607-0.39518-1.7972 0.05729-4.888 0.8822-1.9646 1.5953 2.1679 1.0422 0.26859-0.2628-0.84403 1.6327-0.16855 1.8293-0.12488 2.148-1.0635-0.23837 1.7848 3.3666-0.2999 0.89447 1.5627 0.88076-0.38038 1.9352-1.1286 1.9664-0.93097-0.38774-1.4277 2.422 2.7644 1.0085-0.47175 2.7414 0.67025-0.43445 4.0901 0.30672 6.4551-0.29441 1.8046-0.12615 2.8758 1.9926 3.988 1.1243 0.29678-2.2275-2.6014 0.64108-1.9858 0.027-1.2394-3.5396-0.22497-1.578-1.5254 2.6965-0.0303 4.026 0.71777 3.474 2.4885 0.70733 0.0774 1.4015-5.7681 3.1985-2.4636 0.69523-2.3131 3.4989-1.0871 2.3791-4.345-0.74765 0.88267-2.1192-1.0434-3.1578 0.25554-0.7331 1.7337-0.73566-1.9434-2.0465-2.6696 1.9361-1.0038 0.7587-2.0517 0.4358-4.0849 2.3893 1.6409 8e-3 -2.9298 2.4834-1.1203-0.46048-1.8442 2.127-3.2974 2.1127-1.6131 0.58522-2.4793 1.8072 3.5436 3e-3 1.1168-1.029-0.93202 0.41863 2.3629-1.2266 0.38974-0.45025 1.7348-0.90689 2.1553-1.5514 3.7741 0.87122 1.3117 3.4791-0.7449 1.9666 1.1641 1.5403 1.9208 2.5118-1.87 0.80744-0.51493 1.6977-1.5246 2.5825-2.6116 4.6151-2.4677 1.7312 0.89189 4.0703-0.77768 2.5889 1.6557-1.5506 1.7779-1.5965 6.3969-3.8241 8.5426 0.35246-3.5229-4.544-8e-3 -2.4838 1.4592-2.9365-1.8001 0.25122 2.448 0.28625 0.67323 1.8847-0.57704-0.6291-0.57134 1.9583-0.52973-0.17908 2.9003-1.7455 4.2623-3.0357 3.3518 2.9457 1.2719-0.33177 4.1208-1.041 6.0977-0.66081 0.74749-1.6825-0.48059-1.9742-0.0456-0.68857-0.20863-1.7622 1.5708-1.0304-0.90439-0.0589-3.467 1.912-7.8444 0.37449-10.822-1.7319 2.4156-1.0524 9.6422-3.0559 4.2249-2.2363-0.019 0.87035 4.0016 0.74118 5.8203-0.66949 2.0948-0.70621 4.6205-1.9528 6.372 0.1244 0.0915-1.6768 2.5968-0.1322 1.4641-0.065 2.2177-1.1148 0.0657-1.536-0.53273zm0.52521-0.83278c-1.2483-0.53604 0.3765 1.282 0 0zm1.0167-0.73823c2.0792-1.1303-2.3909-5.8038-1.7389-5.9328-4.2048-0.33959 1.0451 2.8959 1.6768 4.8375-1.1052-1.1735-2.2895 2.1038 0.0622 1.0953zm5.78-4.8058c0.26909-5.4638-3.1223 1.5866 0 0zm2.9653-2.8865c-1.271-0.41828-0.3573 2.1834 0 0zm-8.5867-1.9348c-0.30032-1.6976-0.91157 2.5646 0 0zm5.9368 0.42735c-0.49906-2.3008-1.4684 1.7215 0 0zm-11.42-2.7645c-0.37298-2.6063 1.4676 1.3184-0.16649-1.4608-1.8108 1.2024-0.8718-1.5299-1.7797 0.46309 0.56871 1.1186 0.70888 2.5847 1.7038 2.4876-0.08534 2.1822 0.78372-1.2462 0.2424-1.4899zm4.1 1.1469c-1.2024 0.46526 0.31965 1.5935 0 0zm0.97364-0.25663c-0.78368-3.3282-0.71182 2.6819 0 0zm8.2422-0.12315c0.3488-1.4097-3.0158 1.8539-0.32168 0.054zm-1.4583-0.75761c2.0515 0.85868-0.43426-3.2237 0.83616-2.7861-4e-3 -3.4073-4.521 4.3625-0.88233 3.2395l0.082-0.18145-0.0358-0.27198zm2.416 0.28636c-1.1816-1.441-0.20422 1.0938 0 0zm-13.676-3.0848c-0.39037-2.7411-0.52981 1.3449-2e-6 0zm13.007-1.5042c-1.2477-0.75179 0.37309 1.978 0 0zm0.62275-0.28554c1.2491-3e-3 0.7275-0.82467 0.24254-1.7873-0.71061-3e-3 -0.53788 3.2862-0.24254 1.7873zm-15.907-0.11445c0.78409-1.8062-0.98841-0.0387 0 0zm19.923-2.3202c-0.59229-0.82991-1.1132 1.4006 0 0zm-6.8145-1.4385c1.6364-0.10225-1.3503-0.61938-0.0806 0.23354l0.0806-0.23358zm6.7062-2.712c3.0026-2.2518-2.4293 0.41265 0 0zm0.43348-1.5753c-1.4463-1.2061-1.2274 1.4151 0 0zm-1.3891 25.369c0.47433-2.1762-0.51867-2.2412-1.1845-0.77305-0.89439-2.3086 2.2323-2.9689 2.059-0.77795 0.0606 0.20254-0.80029 0.57329-0.87449 1.551zm-8.6651-0.90723c0.47272-1.5107 0.4539 1.4522 0 0zm5.887-1.1618c1.5156-2.6117 4.0914-4.4472 6.1515-6.6434-1.8991 2.169-4.4258 3.946-5.6885 6.5528 0.13479 0.75231-0.53556 0.98442-0.46302 0.0907zm14.751-1.4841c1.5132-1.2997 3.6872-3.35 2.4006-0.13463-0.82404-1.0616-1.969 1.014-2.4006 0.13463zm3.3734-0.15265c-0.19206-2.422 1.605-2.4468 1.9223-1.7656 1.5433 1.2357-1.699 1.1654-1.9223 1.7656zm-6.813-1.4265c-1.4664-1.8124 2.3894 1.6356 0 0zm-6.8185-0.85174c1.0145-1.4372 0.72024 1.167 0 0zm11.39-0.24721c0.45161-1.9279 0.90494-3.4073-1.3662-3.6445 2.1347-0.54649 4.0336-2.2553 5.8692 1.1322-0.10005 0.5902-3.515 2.329-1.4261-0.14415-0.86089 1.3434-1.784 1.3248-2.1062 1.2166 0.21158 0.58346 0.1253 2.5356-0.97073 1.4398zm1.6179-3.5613c0.37107-1.8021-1.3155 1.4929 0 0zm2.9042 3.2628c0.62894-2.6528 1.2051 2.3351 0 0zm-2.2145-0.16604c1.5617-2.3015 1.0254 0.88581 0 0zm-36.607-0.57904c-1.7255-2.2772-6.0973-4.8033-7.5785-6.7238 1.4331 1.6089 5.008 3.2571 3.6495 0.32468 1.7745 1.3418 1.7463-1.9533 1.4218-1.4928-1.1142-0.77975-2.9531-5.7259-4.017-4.1512-1.1147 1.334-3.6756-1.7465-1.8935-2.0778 0.20145-3.8718 2.8861 2.5955 4.5754 3.7012 3.0945 2.1288 3.8882 7.2512 4.374 9.5786 0.20603 0.64505 0.6689 1.984-0.53177 0.84114zm-0.48332-2.1857c-1.4018-0.93221 1.3075-2.9678-1.9358-2.2193-2.676 0.34928 1.1607 2.1761 1.795 2.7458l0.14075-0.5262zm-0.21601-3.4757c-0.88822-3.3958-1.8009 2.6641 0 0zm25.797 3.8908c1.1069-1.4876 7.6109-5.9415 4.0284-2.9107-1.1357 1.2829-2.6786 1.9046-4.0284 2.9107zm-3.5108-1.9094c1.836-3.795-0.76086 4.456 2e-5 0zm18.46 1.3216c1.3025-0.74351 5.7664-3.5869 2.5652-0.91923-0.8306 0.34781-1.6464 0.85566-2.5652 0.91923zm-16.651-2.089c-2.0859-2.6951 1.5583-7.213 2.444-10.712-0.47864 2.5517 0.73789-0.32273 1.471 2.6871-3.2599 0.27328 3.359 1.749-0.37243 1.7635-2.5382-0.0917 0.11707 0.59032-0.14522 0.82594 2.7998-0.48008 0.41284 5.1547-2.2728 5.4653-0.24802 0.60442-1.0262 0.46372-1.1245-0.0295zm1.8119-2.1918c-2.4406-1.4794-0.87089 0.45958 8e-3 0.8501l0.10831-0.40566-0.11631-0.44438zm1.7736-0.104c1.8733-1.6439-2.842-0.53009 0.0101 0.3149l-0.0101-0.31515zm14.738 2.4044c1.0224-1.0534 1.2089 1.0921 0 0zm-53.415-3.3829c-2.5319-2.7485 2.8376 2.6906 0 0zm6.3779 0.61359c-0.23074-1.0721 1.5853 0.65546 0.22257 0.17395zm13.278-2.206c-0.13177-1.657 1.5891 0.70509 0 0zm1.7727 0.13315c-1.6284-1.5601 2.0149-3.1835 0.25419-0.48221 0.54326 0.38601 0.88435 1.083-0.25419 0.48221zm-12.249-2.4176c0.0129-0.23605 0.09591-3.0645-1.3188-1.7796 0.61773 2.1754-4.5421-4.9876-1.6636-2.1488-2.0323 0.59094 4.7293 0.99047 1.466-1.1995-2.233 2.3393 1.6156-1.8983-0.7726-0.41113-3.5957 1.1248-0.86029-2.5451 0.8721-0.99647 0.14528-0.30608 3.0612 8.1511 1.4168 6.5355zm-2.5476-6.331c-1.3897-0.0844-1.2907 1.2029 0 0zm16.996 4.0986c-0.76322-2.2752 0.39692-1.1931 0 0zm-13.371-1.6827c-0.69985-3.1553 1.1688 2.7512 0 0zm13.302-0.50775c1.6574-0.97136-0.70002 1.4028 0 0zm-21.03-3.0761c-2.3902-2.889 2.2586 2.3769 0.56902-0.2787 3.1193-0.69698-0.01988 2.4412-0.56902 0.2787zm18.544 0.14665c0.66719-1.3495 1.5776 0.30665 0 0zm12.455-0.85031c-7e-3 -1.1994 2.4167-0.69042 0.39644 8e-3zm0.34697-1.3022c-0.96777-2.0626-0.66535-1.0974 0.406-1.2209 1.1182-2.108-0.0313 1.948-0.406 1.2209zm-10.971-0.27746c0.95317-2.646 4.3076-2.0369 0.94159-0.76417l-0.665 0.6244zm-8.2021-1.0472c1.7786-0.91006 1.8326 0.82318 0 0zm12.012-2.0778c-0.78354-3.0234-0.59401 0.91381-2.9886-0.55996-0.14838-2.596-4.0191-3.131-6.8118-1.7174-1.0464-1.0267 0.34395-0.38422-0.73651-2.0349 2.892-0.2543-0.20695-1.1097 2.3835-1.2281 0.38976 1.4033 0.8315 0.23239-0.06799 1.521 3.2451 1.1898 0.54866-0.19375 2.5975-1.4642-0.29057 1.8469 0.2436 2.2276 0.61843 0.73552 0.36951 2.3379 3.7076-1.0754 3.6901-0.65415 0.45296-0.18641 3.1476 1.8924 2.4033 3.3404 0.9706 0.3046-0.44492 2.218 0.0426 2.1976l-0.4608-0.0249-0.66974-0.11075zm-0.1645-2.6826c1.1554-1.4507-0.59208-1.41-0.6398-1.8978-0.0555 0.29963 0.14375 4.01 0.6398 1.8978zm5.7964 2.4279c0.43619-1.659 1.9699-1.2048 0 0zm-3.8191-2.0762c-1.0403-1.824 1.9007 1.426 0 0zm-15.444-0.10786c0.21924-1.0264-2.0374-0.82654 0.60003-1.3929 0.72504 0.48596-1.0565 2.4251-0.60003 1.3929zm1.0884-0.58586c-0.34424-3.2841 1.749 0.0263 0 0zm14.554-0.46561c0.94801-1.9917 1.0579 0.92555 0 0zm-2.7655-2.5694c-1.0293-1.2015 2.026 0.88616 0 0zm26.495-2.6546c-0.9338-0.61063-2.9594-0.88324-0.20471-0.83987 1.2091-2.6278 0.24826 2.2611 0.20471 0.83987zm0.80041-2.4814c0.82617-1.6058 0.74379 1.9013 0 0zm-0.83948-1.0744c1.3965-0.9978 0.88181 0.94311 0 0z" fill="#11897f"/></g></g></svg>
