<?xml version="1.0" encoding="UTF-8"?>
<svg width="68.872mm" height="150.52mm" version="1.1" viewBox="0 0 68.872 150.52" xml:space="preserve" xmlns="http://www.w3.org/2000/svg"><g transform="translate(4.1125 -101)"><g transform="translate(-77.625 -.675)" stroke-width=".26458"><path d="m116.51 251.88c-1.4466-11.236-2.4071-22.595-2.4386-33.933 0.67409 11.433 1.4903 22.873 2.7243 34.25l-0.13174-0.0272-0.15392-0.28998zm-11.399-1.1245c1.8025-10.666 2.8353-21.441 3.8297-32.2-0.23656 11.158-1.6433 22.337-3.9309 33.259 0.0337-0.35278 0.0675-0.70555 0.10124-1.0583zm2.49-32.898c-3.948-2.0482-7.3888-1.2486-8.8999-3.5969-3.4936 0.82607-5.9617-2.6277-7.7248-3.7131-2.2064 0.92515-3.791-4.3034-6.7856-5.2532 3.2413-2.5318 2.0775-4.7687-0.627-4.8066 2.4774-2.5403-0.08001-2.8194-0.96722-4.457-2.604 1.1782-1.8136-6.4056-4.5982-7.6824 0.47813-2.3487-3.1902-4.2962-0.96765-5.2133-1.8256-0.71267 0.1288-3.4837-1.0687-4.2134 1.7428-2.259 3.0253-3.4021 0.13154-2.5744-0.94498-2.1268 0.9091-5.6359-2.5797-5.8718 1.0824-1.8511 0.32184-1.8731 1.9867-2.5622-2.0895-1.747-1.8532-5.0071 0.65908-3.7758-0.72847-2.2883 0.57548-1.3535-2-4.1673-0.1726-2.752 3.7185-1.5696 3.4848 0.8463 1.0414-0.20866 1.4706-3.0484 1.9154-4.4141-3.0165-2.3533-1.2519-4.9563 0.72851-3.0791 1.0583-1.7282 1.4491-1.6312 1.6428 0.46302 3.7623-0.10149 1.3979-3.7612-0.21526-3.9688 2.8166 1.5118-5.0781 1.3629-4.7625 2.7781-2.5737-2.9523-1.3354-7.2237 1.8669-6.2706 1.0931-2.1313-2.6029-3.3609-0.10721-6.1667 3.3281 0.68652-0.05303-4.233 3.164-3.0111 3.7241-3.4959-0.81186-1.1506-1.2494-2.1338-2.1195 2.1708-0.43433-3.7317-1.8476-4.9451 0.52064-4.4701 4.7719 1.1474 3.2041-3.2697 2.4613-2.7288 0.63267-6.355 2.8991-8.7532 1.621-2.3387 4.2889-7.3234 6.8412-5.101 2.221 1.478-1.3522-2.5514 1.0234-0.69091-1.3737-1.5635 2.8895-5.9334 5.5081-5.8237 2.2041 0.28903 3.0685-4.3907 7.3868-4.189 3.8659 0.0674 10.799-2.1967 12.392 1.8987 1.7062-0.61505 2.7709 3.0453 4.6903 4.5128 1.1396 1.6606 2.9062 6.6016 2.2198 8.9483 3.2814 0.41822 4.7072 2.5157 5.7526 4.8074-0.90118 2.8728 6.741 6.2825 3.4844 8.4475-1.1228-1.0237-0.87102 4.1225-2.3972 1.769-0.31192 1.9234 0.99007 2.747 0.71293 1.4321 1.0427 1.7712 0.34826 9.8464 2.3865 5.4419 1.4756 1.0909 3.0586 3.8621 4.9958 6.7349 1.0872 2.3122-1.3478 6.8563 1.5351 9.381 2.1054 4.7074 0.2538 8.9194-0.57157 13.572-1.4066 3.2637 1.8806 4.5726-1.0047 5.9292-0.0366 2.1457-0.59802 5.0747-2.0731 5.449 0.32322 1.7752 3.292 1.3377 0.62569 3.5761 1.341 2.4268-1.1483 2.1853 0.41673 3.6481-1.7269 3.401-3.6203 7.3414-3.8499 10.994-0.39343 3.3971-2.0001 5.9509-4.2108 7.7236-1.4548 2.349-5.4027 3.5524-7.427 4.7606-2.9662 0.47288-9.6536 7.6248-9.5943 2.8783-0.55205-5.6498 0.15172-11.285 3.107-16.232 0.89541-2.2516 6.273-10.564 1.181-6.8762-1.7453 2.4026-5.2493 9.6819-4.1416 2.7549-0.11364-12.644 3.5012-24.856 5.3238-37.265-2.8297 0.53286-2.5559 11.09-4.7115 12.385-2.5537-5.6201-2.7794-11.997-4.6588-17.733-0.73455 5.0599 1.5072 11.125 2.077 16.536 0.14604 3.3215 2.3233 6.6834 0.68604 9.8956-1.0794 2.4942-2.1443 11.385-3.722 4.9703-2.59-7.4479-5.7562-14.691-8.4731-22.08-4.4029-0.47032 1.7181 8.1437 1.7822 11.282 2.3875 7.7428 5.5793 15.312 7.2961 23.218 0.0884 2.721 0.74078 12.573-2.0777 5.3246-3.4092-5.5161-6.5606-11.197-9.8569-16.767-3.7214 2.058 2.9777 7.9057 3.9754 11.414 3.4611 7.0058 8.658 14.048 7.6293 22.273-0.0878 0.44291-1.2609 1.1847-1.5416 0.61227zm-27.618-42.883c-0.4389-2.9181-2.4405 1.4397 0 0zm-1.8408-2.3996c-0.57052-1.1248-1.658 0.71878 0 0zm-0.73178-8.4697c1.3724-1.7805-2.7607 1.7119 0 0zm1.3951-13.848c-2.0779 0.12657-2.0845 2.1733 0 0zm-0.8405-2.6445c-0.98802-1.5346-1.0715 1.784 0 0zm1.1051-4.8067c-0.13224-2.4407-0.93842 1.3144 0 0zm10.458-22.655c-0.03049-2.0316 1.615-1.5529-1.2237-3.3972-1.1755 0.45378 0.63324 5.9939 1.2237 3.3972zm2.2417-5.9044c-0.67327-1.8054-0.56024 1.3524 0 0zm-12.435 38.257c-2.6222-1.7829 1.4173 0.16535 0 0zm-3.4958-6.283c-0.63717-3.211 1.2879-5.8494 0 0zm1.0157-2.2556c0.03035-3.729 1.2411 2.1834 0 0zm57.513-8.6998c0.50289-4.7246 1.766 0.28842 0 0zm-0.26458-2.926c1.4028-1.9185 2.0285-0.17301 0 0z" fill="#b0c9ae"/><path d="m105.44 248.9c0.56575-4.0027 0.0306 2.6733 1e-5 0zm10.47-2.6458c0.17396-2.0069 0.10762 2.2643 0 0zm-0.25563-2.3812c0.16509-2.5035 0.099 2.8448 0 0zm-0.26098-2.7781c0.15106-2.9626 0.14278 2.9694 0 0zm-8.3646-2.249c0.52813-5.1004 0.0309 3.5795 0 0zm8.1001-0.92605c0.15106-2.9626 0.14276 2.9694 0 0zm-7.6801-2.3812c0.13514-2.3207 0.13512 2.3207 0 0zm7.4231-1.1906c0.0701-3.5328 0.27571 3.4849 0 0zm-7.1549-1.3229c0.16509-2.5034 0.099 2.8448 0 0zm6.8903-2.9104c0.0701-3.5328 0.27572 3.4848 0 0zm-6.64 0.52916c-0.0421-0.87078 0.88417-9.5834 0.60326-5.491-0.10713 1.6617-0.23998 5.1684-0.60326 5.491zm6.381-4.6302c0.14019-4.5736 0.13116 4.5832 0 0zm-0.26633-5.1594c0.0646-4.0507 0.26966 3.9669 0 0zm-5.3031 0.39687c0.15106-2.9626 0.14276 2.9694 0 0zm-1.2831-3.6883c-3.7018-1.193-6.6237-2.1867-8.0527-2.6688-1.5266-2.1324-6.6908-0.31123-8.0743-4.7137-1.8125 1.59-5.2768-3.4907-6.0658-5.9296 2.5127-2.0988 0.61069-3.1249-0.49696-4.9616 3.3222-1.8884-1.56-1.4657-0.54624-5.1452-1.6434 0.54242-2.0984-3.8194 0.99142-2.1073-0.51078-2.0654-5.024-0.80522-5.0023-0.98383-1.6716-1.8726-4.0002-5.5836 0.57899-6.0407 0.5485-0.6137-2.8012-1.0802-0.85431-1.4154 2.3433 0.083 4.5862-1.086 1.0579-1.0082-1.7898 0.53752-0.60563-2.0423-3.2341-0.71403 1.3112-0.84888 5.3493-1.3738 1.4053-1.3756 3.6757 0.96127 7.6566-6.367 3.5929-4.245-0.5911-1.8621-0.804-2.9256 0.16765-5.9407 1.4882-2.609 1.74-5.7961-0.84493-6.1266 0.0176-1.4103-1.4096-4.5616 0.65213-5.5219-5.68-1.037 0.16109-5.0611 2.7448-6.6554 0.9218-1.5367 0.07339-1.7707 0.88494-3.2457-3.4248 2.3381-2.1574-0.11083-1.9498-0.67798-0.76309 0.4874-3.8381-0.29479-2.4737-1.3145-0.70245-1.5536-0.10254-5.1608 0.23395-4.7436 0.5297 1.5109-0.4218 2.994 1.5036 3.7814 2.0098 2.7977 3.5911-0.53133 1.4375 0.22516-1.0504-0.0987 1.0261-5.2418 1.7746-5.279-0.60824-1.1564-2.2727 3.1118-3.3127 1.6571-0.61684 0.45217-1.4833-2.1703 0.94272-0.73314-1.7158-2.219 1.6182-1.5164 1.9292-3.9035 2.601-0.9015-5.975 3.6224-1.7025 0.0555 1.101-2.8854-2.7645 2.5924-1.4834-0.67151 2.0059-0.71559 3.0894-5.3848 0.62177-3.3041 0.36892 1.7567-6.4317 0.85449-3.46-2.8197 0.87697-2.3456 3.7115-3.7547 3.9793-2.8641 2.834 1.8494 0.05219-4.0791 3.2336-0.58242 1.4967 1.4104-0.4738-3.4813 2.2815-0.38889 0.30828-1.8186 1.6094-2.7979 2.9888-4.9937 1.303-2.2069 2.6852-3.095 0.51221-4.5756 0.21466 5.5668-1.7106-2.3988 1.0239-1.4078 0.9654 2.5636 2.9983 2.5269 0.83174 0.19178 1.4575-0.64966-0.63599-2.7891 0.92092-4.1079-0.79726-0.21441-3.4933 2.5429-1.984-1.1372 1.0208-1.3643 1.5089-1.9431 1.1476-3.157 1.115-1.1754 3.2699-0.46256 3.6297-0.41562 1.9521-0.74967 3.0303-5.0753 2.6382-1.3371 1.268-1.6789-0.0999-2.7531 1.7575-0.15847 2.8694 1.7656-1.803-3.5564 1.1849-0.8833-2.7128-4.6862 5.1683-0.4147 2.7694 0.64357-1.4667-1.7941 1.844 4.5783 0.89681 0.18259 1.6673 0.89826 2.77-3.0863 4.2026-2.0749 3.4088 0.55184-5.1102 6.3079 1.1345 3.6081 0.69034 2.56 0.60735 7.8938 4.7766 3.954-0.37681-2.0484 2.3121-5.4518 3.1834-2.3317-1.0173 2.4438-0.65739 5.9155 0.75414 5.644 0.79339 1.6079-1.9538 0.76003 0.27093 1.7271 1.9426-1.9754 4.2573 3.9189 3.3906 5.5936 1.0466 2.503 1.1976 2.5886 0.98436 0.15546 1.6452 1.1751-0.8191 4.9448 2.3256 2.1648-2.4762 2.7456-0.0895 0.10028 0.45977 1.4525-2.5508 0.45944 1.7988 1.1344-0.0783 3.9988 1.1984 2.9263 1.5209 5.5611 2.0668 6.9578 2.0798 1.2784 0.51334 5.8238 2.4201 8.2322 0.77104-0.11517-1.0513-3.3 2.0522-1.4063 1.5536 0.27111-0.41431 5.0578 2.5452 3.326 0.33084 3.5865-3.923 3.2545 0.10067 5.4292 1.3239 1.3979-0.32725 3.4398 1.7125 1.5814 0.77998 3.2498-0.78449 3.619-0.22574 1.9044-1.5066 2.3809-1.498 1.9692-3.405 3.3462 1.5493 0.42651 0.21525 1.7688 1.7565 1.1765-2.0321 1.349 1.8492 0.9623 1.4468 1.207 2.2543 0.39392-0.50995 4.4912 0.64036 6.8294-0.73445 3.4598-2.8764 7.7655-2.1162 10.724-2.1794 0.36234 0.35262 4.9726-1.4607 7.6995 1.3182 0.76884-1.4037 0.46603 0.42155 1.904-1.7215-0.44131 0.56725 4.8022-2.579 4.8802 0.52356 2.7375-1.4993 5.5577-0.55929 6.3864-0.84684 2.6652-2.623 6.413-6.6915 8.6428-4.2613 1.9997-9.4585 4.6326-12.627 5.9704-2.3637 2.4197-0.80418-4.667-1.4236-5.9809-0.19605-6.1334 3.7559-11.326 6.1003-16.738 2.2519-5.6266-4.4993 0.98357-4.724 3.3836-2.7127 3.9822-0.25451-7.7016-0.72639-10.666 1.0453-9.4928 3.588-18.754 4.7932-28.216-2.9572-0.0124-2.5787 11.741-4.779 11.913-2.8311-5.2317-2.1418-12.623-4.8961-17.17-0.33183 4.9475 1.4322 10.094 2.0265 15.097 0.2436 3.1419 1.6913 6.3135 1.5231 9.408-1.082 3.1284-1.7717 6.7984-3.1472 9.5096-2.772-8.4694-6.617-16.532-9.3683-25.003-4.953 0.10174 1.3803 7.3572 1.1666 10.313 2.4198 8.1702 5.97 16.041 7.6569 24.402 0.15168 2.9938 0.78965 11.771-2.0484 5.1067-3.4629-5.54-6.5543-11.321-9.9568-16.879-3.5008 2.8225 2.6602 7.5981 3.6389 11.032 3.2337 6.1735 7.2891 12.348 8.1576 19.381-0.0288 1.3701 0.27014 4.5567-1.673 3.9436zm-14.392-53.739c0.65312-2.5567-2.012-2.6993-2.0381-4.0556-1.3912-0.22231-2.7347-5.7573-3.1929-1.3278-0.44793-1.4975-1.9218 0.22166-1.4079-2.5237 0.24736-3.1231-4.3562 2.6494-0.57604 2.7431 0.68501 2.1379 4.2669 0.40836 4.702 4.5071-0.29761 0.79117 1.7437 1.5853 2.513 0.65687zm-8.1526-6.5127c-0.80356-1.384 1.7014 0.43153 0 0zm9.578-1.6524c0.35532-2.5056-5.0839 1.0472 0 0zm-5.1154-17.288c0.6588-0.81663-1.1641 0.22871-1.0825-0.26088-0.35526 0.78481 1.055 1.2397 1.0825 0.26088zm-0.23734-1.7859c-1.0426-3.2826-0.50488 2.8776 0 0zm-2.3882-0.49856c-0.22869-4.8415-1.3854 1.4964 0 0zm1.8128-1.2481c1.623-0.83247-0.70331-3.0285 0.85528-3.7031-0.87563-0.954-2.1462 1.439-1.156-1.1767-2.8836-2.7958 0.21174 5.5224-1.8192 1.9443-0.48999 1.3118 1.7801 4.4533 2.1199 2.9354zm-0.80398-0.46987c-1.3803-1.9353 2.1439 0.24936 0 0zm-5.254-0.69385c0.91737-1.3732-2.2794 1.3731 0 0zm39.784-12.432c2.1122-1.0819-1.6823 0.0161 0 0zm-2.1464-1.5905c3.6743-1.5975 3.6796-3.9117 9e-3 -1.7111 0.76358-2.9969-2.3522 1.8956 0.17517-1.067-0.42668 0.99483-2.6988 3.5204-0.18439 2.7782zm-21.453-10.343c-0.11686-1.4309-1.4262 2.722 0 0zm6.98-1.4539c-3.2746-2.2027 2.2347 2.4689 0 0zm5.004 0.53004c-0.76092-1.8279-0.35523 1.4639 0 0zm-0.90143-1.4336c1.8592-2.1989-3.057 1.5991 0 0zm-3.4925-2.7781c-1.9342-2.4034 0.0185 2.1159 0 0zm-24.54 90.654c-1.4685-5.5498 3.0215 2.7966 0 0zm0-2.8556c-1.1217-1.3524 1.5689 0.13975 0 0zm-3.9503-26.022c0.70944-1.7867 8.2875-0.89591 3.8048 0.15462-0.72125-0.12195-3.4086 0.6004-3.8048-0.15462zm6.7945-15.497c0.76239-1.1257 0.92564 1.3928 0 0zm-5.2876-1.5522c-2.9091 0.0263 1.0165-3.7985 0.47375-0.0595-0.1779 0.016-0.58093 0.83828-0.47375 0.0595zm60.056-1.3205c0.45923-2.0224 1.1261 1.6406 0 0zm-61.535-1.0683c-1.1649-1.2867 2.0196 0.90408 0 0zm2.0574-1.2639c-1.5106-3.16 2.5313-0.26173 0 0zm8.3711-19.648c-2.3013-3.8948 0.10645 0.029 1.4075-2.0985 1.345-1.1447-0.49604 3.7001-1.4075 2.0985zm32.85-12.315c2.1573-1.7241 2.3498 0.44681 0 0zm-4.452-3.7038c-1.6261-2.2636 2.7885-2.9271 0.11845-0.30663 0.30176 0.25892 1.3658 1.3722-0.11845 0.30663z" fill="#92b48e"/><path d="m115.65 243.88c0.17397-2.0069 0.10764 2.2643 0 0zm-0.25924-2.7781c0.13514-2.3207 0.13512 2.3207 0 0zm-0.26458-3.175c0.13514-2.3207 0.13512 2.3207 0 0zm-0.25736-3.4396c0.15106-2.9626 0.14276 2.9694 0 0zm-0.2682-4.3656c0.16509-2.5035 0.099 2.8448 0 0zm-6.359-2.3812c0.17396-2.0069 0.10764 2.2643 0 0zm6.1007-1.5875c0.0851-3.0245 0.2768 3.0087 0 0zm-5.8361-1.3229c0.17397-2.0069 0.10764 2.2643 0 0zm0.26459-3.7042c0.17396-2.0068 0.10762 2.2643 0 0zm5.2917-0.52916c0.17396-2.0069 0.10764 2.2643 0 0zm-6.0435-4.0898c-1.0875-0.84252-2.9198-1.6279-3.5253-1.4773-1.549 1.3878-3.2716-1.0516-5.1622 0.31977 1.4854-2.7435-5.5072-4.4766-3.9836-1.4073-1.4722-1.1162-3.865-4.8636-5.5861-3.1936-0.38813-2.4606-5.6832-4.4558-3.8119-7.8055 3.3674-1.3705-1.8018-2.6538-0.68139-3.7491 3.5096-1.5176-1.253-2.018-0.24466-2.7109 0.76254-1.5907-4.3763-5.0549 0.4808-4.662-0.74455-1.4837-5.4672-0.89439-6.3639-3.0575-3.0201-2.9191 4.679-4.329 4.4426-5.9749-2.8322-2.4172 1.8389-0.71992 0.67001-3.4826-4.4315 2.8219-0.11436-1.0806 1.2309-1.8552-2.6157 0.0959 1.9293-1.982-2.1145-2.2211 0.87126-2.6733-1.7845-2.1264 0.55398-3.7198-1.6218-1.8655 3.0311-5.5236-0.84769-7.6433-2.9425-3.2745-0.29347-2.722 2.0251-3.7114-1.7377-0.0865-3.58-0.23423-1.4945-1.0538 1.7137 0.0874 1.1754-1.8422 3.2694 0.88685 3.8128-2.3693 2.2828 7.0501 5.542 4.8946 1.6296-2.4449 0.52426 2.1335 1.6742-1.7066 3.206-1.363-1.934-2.198-1.7923-2.8775-2.0129-2.0936-3.3848-3.6164-2.1167-5.3745-0.21875-1.2686-1.7282-0.18964-2.2394 0.83362-1.2332 3.4111-0.54948-3.0366-2.2093-3.4918 0.75347-1.7746 3.3074-0.59846 0.21534-1.8605 2.8636 0.60125 2.775-1.3693 1.8916-2.1582 3.471 2.3835 1.5408-1.5736 4.3162-3.7929-1.474-4.0071-0.4925-1.3643-3.8798-1.0136 2.1473-1.5979-0.31092-1.8502 1.3761-4.0722-3.3318 2.2395 2.5636-4.0716 2.7469-3.2043 1.16 2.4748 2.3605 0.37435 1.2256 0.74072 2.0563-2.242-1.6711-1.2834-2.7797-2.8904 1.3096-1.2447-0.18035 1.7786 1.7894-0.61658 0.31274-2.6694 1.6535-5.2011-1.1482-4.7776 0.26936-1.4128 1.4708 0.64475 0.94405-1.5539 1.0259 1.667 0.05073-1.383 0.65154-1.3068-3.3821 1.5432-1.4905-1.8287-0.49604-1.5892 2.5226-1.5618 1.2726-3.8001 3.7074-4.7627 1.4638-0.51789-0.1089-3.5889 1.9083-2.3172-4.1988-2.7694 1.684-6.3073 2.134-6.4282-0.37255-1.0382-2.4004-1.7301 0.37732-1.5177 0.96562-2.7313-2.0195 0.89189 0.27952-2.1133 2.1801 3.0606 1.3508-2.4977 4.0054 0.91653 2.4302 4.7534 0.58364-1.5729 0.92605-3.1063 2.3556 2.0299 3.3472 6.3746 4.8809 5.3902 3.6378 1.8266-0.49537-4.7406 2.6959-0.53447 0.85471 4.0172 1.9338 4.159 5.2826 2.3036 0.22122-3.3707 2.1404-4.3213 1.3779-0.39547 0.57569 0.53951-0.23553 3.2558 0.75673 3.6636-2.8902-0.4769 0.59051 1.5511-2.3793 2.9283-0.24931 5.1891 5.2304-1.8213 5.9468-1.178 1.3255 2.2478-1.7943 3.3088 0.79732 2.5065-1.1614 2.0297 0.96139 8.3231 2.549 7.588 3.4996-1.3397-0.13479 5.6678 2.3686 5.5347-0.37303 1.5163-1.1871 2.5928 0.0949 4.3948 2.1976 2.0104-2.5078 2.9298 1.0088 2.9096 0.29797 3.2086 2.0531-2.0254 1.1957 1.7408 0.47913 0.18279 0.18829 5.5672 3.57 4.2584 1.9312 0.75361 2.5605 4.2441 1.3683 3.7184-0.48775-1.5288-1.6784 3.057 0.72206 3.1254 1.7039-0.89403 0.58918 4.1907-0.98648 4.5304-0.7892 0.0916-0.19233 1.2778-0.84863 2.6238 1.6544 0.5639 1.5888 3.888 4.8059 4.0782-1.7084 0.83299-3.1425 5.078-0.95196 4.5573-0.1913 1.2112-0.51085 3.1875-1.1983 5.8654-1.8575 2.6832-0.29943 6.5063-2.2165 8.9646 2.1023 2.6768-1.5197 2.0404-1.3083 3.183 0.65373 2.4917 1.6582 2.8531 0.90531 5.986-1.7913-0.40757-0.39486 3.2723-2.9762 3.3498 0.74618 0.53115 1.8426 1.1661 0.0943 2.9626 0.83087 1.9126-1.7496 7.8966-5.4622 9.7123-3.7872 0.30749-3.0499 0.62779-6.3334 2.7926-2.4883 1.4906-6.0748 2.8427-7.6205 4.0549-0.25136-5.0979-1.0753-10.471 1.813-15.051 0.31211-3.418 6.2617-8.7755 3.8662-10.781-2.941 0.952-7.0323 12.319-5.6839 3.6111-0.17886-12.587 3.7289-24.714 5.1818-37.108-3.2545 1.8827-2.4807 9.7526-4.6442 12.709-2.2671-5.4849-3.0142-11.453-4.2343-17.212-2.6213 1.2891 0.90023 9.4589 0.87435 13.222 0.46945 3.5304 1.5455 7.0686 1.8754 10.559-1.0412 3.1978-1.9616 7.1239-3.0094 9.8278-3.2036-8.2614-6.4866-16.511-9.5599-24.822-4.8619-0.96903 0.91867 7.0817 0.96626 9.7792 2.6042 8.338 6.0031 16.494 7.931 25.002 0.0311 3.1638 0.57087 11.559-2.2131 4.6822-3.3114-5.4334-6.4643-10.965-9.5825-16.503-4.2638 1.491 2.4028 7.8708 3.4783 11.119 3.2684 6.3892 7.7652 12.746 8.0028 20.135-0.0579 0.48416 0.0791 2.7197-1.1076 1.8797zm25.027-13.754c-0.7242-1.4898-0.94999 0.86528 0 0zm-50.422-17.183c-0.96979-1.4978-1.3455 1.0071 0 0zm11.876-15.812c-1.181-2.9225-2.2605 0.20376 0 0zm-0.46938-1.6981c-1.2262 0.45083-4.4487-4.4838-1.8849-0.0683 0.52394 0.39177 1.353 0.51745 1.8849 0.0683zm0.52764-1.5675c0.41336-1.4507-4.7604-0.27434-1.1714 0.0279 0.66876-0.0161 1.5288 2.1998 1.1714-0.0279zm-9.2941-3.3097c0.33168-1.609-3.4548 2.1604 0 0zm-0.63713-0.39688c-1.6257-1.0097-1.2798 0.75726 0 0zm-0.39421-0.79806c2.8357-1.2671-2.4575 0.41779 0 0zm1.5658-0.87597c-1.1005-1.2321-0.10319 2.518 0 0zm8.5651-5.258c1.1677-3.1914-4.7687 1.1397 0 2e-5zm-3.3867-2.5424c-0.96137-2.9159-1.097 0.98984 0 0zm1.2176-6.2588c-0.47997-3.7947-1.5666 1.5132 0 0zm1.6895-3.589c0.80142-2.1254-3.7185-3.6198-1.2301-1.0768 1.8141-0.76888 0.18493 2.1451 1.2301 1.0768zm-0.52583-2.6058c-0.92696-1.9387-1.4002 0.50296 0 0zm37.533-0.53254c0.5027-0.84856-2.0197 0.15199 0 0zm-38.216-1.7771c1.5566-1.3615-2.2354 0.45772 0 0zm-0.43689-1.571c-0.85901-1.4474-0.52333 2.2373 0 0zm37.095-3.5979c-1.2344-1.3744-0.86601 2.5679 0 0zm-7.6704-4.8533c0.56516-1.0375-0.93208-0.0943-0.83969-1.5183-1.8274-1.5749 0.0544 2.4774-1.4695 1.014 0.0282-1.3689-2.5475 0.11165-0.12248 0.71655 0.81167 0.0802 1.652 0.0439 2.4317-0.21232zm4.071-2.4782c-1.8797-3.2503-0.81836 2.7552-0.36416 1.323l0.3652-0.64085-1e-3 -0.68206zm-1.7729-1.1764c0.33548-1.917-1.8357 0.45558-6e-5 0zm0.46759-1.8026c0.84496-3.2361-1.1314 0.20465 0 0zm-1.9661-1.5735c2.3378-1.8625-1.8966 0.0121 0 0zm1.6128-2.793c0.50872-1.5281-1.9258 1.4579 0 0zm-19.689-5.0168c-1.1011-2.1126-1.8472 2.8124 0 0zm2.2822-1.4166c-1.3879-1.5871-0.12374 1.7425 0 0zm-4.5794 103.41c-2.0435-1.6581 3.0476 1.8061 0 0zm-20.202-21.082c0.80305-3.8032 0.8798 1.3816 0 0zm57.39-31.69c-1.0294-3.086 2.1 1.7088 0 0zm1.814 0.18034c-2.2312-2.0373 1.0529 0.11957 0 0zm-60-5.198c-1.7967-1.6522 3.3858-4.6239 4.1451-4.4924-2.4891 1.5595 0.44183 2.7944-1.9077 4.4586-0.59019-0.98419-2.4453 1.1363-2.2374 0.0339zm3.9994-8.6651c0.81478-2.8244 0.84996 0.57727 0 0zm-2.0686-1.802c-2.5121-2.2912 3.0808 1.106 0 0zm5.9936-1.4734c0.50928-1.5136 1.8813 0.21927 0 0zm2.1392-1.5288c0.22339-2.473 1.2634 1.2818 0 0zm-5.9834-3.3024c-0.05656-2.4842 1.4734 1.723 0 0zm0.73165-1.3221c-1.0835-1.7172 4.7079-0.25523 0 0zm1.6461-2.124c-0.33837-1.8323 1.1639 1.3976 0 0zm1.3108 0.10963c1.269-1.731 0.3828 1.5937 0 0zm-3.3736-0.19844c1.6823-2.3406 0.34827 1.6204 0 0zm-2.315-3.3734c-0.13935-1.9493 1.609 1.5272 0 0zm-2.7023-1.2423c0.35545-2.2216 1.5036-0.091 2.2554-3.5403-3.2118-0.35578 2.6374-0.69488-0.15752 2.0383 1.2607-2.4763 1.7827-0.75432 2.7302-2.162 0.23618 2.7394 2.137-3.022 0.47511 1.664-2.302 1.1666-4.227 3.4577-5.3031 1.9999zm9.6537-2.4779c-3.7964-0.90319 1.1819-4.7264 0.88277-1.114 0.64414-0.8296-0.09288 2.9899-0.88277 1.114zm-6.663-1.8098c-0.93094-2.1076 2.207 1.956 0 0zm3.7479-0.42314c1.5548-2.513-0.34458 2.3371 0 0zm7.6619-17.097c-0.99066-2.3982 3.4714 0.96366 0 0zm1.1341-1.9279c1.3411-1.1263 0.95719 1.3308 0 0zm1.32-0.28936c-0.86547-2.6574 1.4102-1.0372 0 0zm13.39-1.3852c-0.84292-2.842 1.9516 0.61766 0 0z" fill="#81a97d"/><path d="m114.86 234.48c0.13515-2.3207 0.13513 2.3207 0 0zm-0.26992-4.3656c0.17396-2.0069 0.10764 2.2643 0 0zm-0.25202-3.8365c0.15106-2.9626 0.14276 2.9694 0 0zm-10.927-11.001c-1.3444-2.9592-2.4343 0.75372-3.9037-0.26187 0.47666-1.6615-1.9268-3.8682-3.4456-2.2722-0.79654-3.7337-3.8208 2.0115-4.1822-2.8026 1.812-1.996-3.2467 3.2499-2.2094-0.861-2.0798 0.53205-3.0766-3.7449-4.1233-4.9265 2.0153-2.0905 1.3742-3.01-0.49178-4.7991 3.022-0.70253 0.82825-3.1354 0.56277-3.1048 0.01154-1.2056-4.9195-4.9052-0.36594-4.1877 1.7796-2.2485-2.9224 0.0224-2.8089-2.1304-3.5993 1.1103-5.3941-6.3022-0.7108-3.6224 2.4371-1.4611 3.0383-2.4324 2.1859-3.1338 2.4997 0.20715-3.0947-1.5131 0.83326-1.2588 0.7415 1.2379 1.3607 1.1046-0.15343-0.71682 0.04384-1.971 3.0036 0.68078 0.79198-2.12-5.2359 0.47398 2.0274-1.5574 1.2294-1.4563-0.9541-1.4388-3.8066-2.7091-2.6269-3.5638 1.6903-2.1307-0.81667-1.021 0.23909-3.2497-0.88662-3.0632 2.3705-3.3006 0.27416-5.2707-1.0254-1.6446-3.7452-5.263-0.7145-4.3646-2.9886 1.6039 3.3609 4.6613 1.8202 1.9729 2.4732-0.31948-4.1769-1.5337 0.932-1.3135 1.7711 0.96169 2.9285-0.93109 2.5901 0.81048 1.5148 0.55326 3.3661 8.9003 5.4626 6.366-2.6219-2.2778 1.3144-0.70241 0.63089-4.6452-0.46012-2.1224 0.87276-4.7825-1.3126-3.0942 0.01408-2.0274-2.2219 0.50034-1.585-2.6746-2.7788-1.1772-1.527-0.60872-0.54838-2.02-2.7704-0.13983 6.5389-1.4425 1.3981-1.6537-2.5542 1.0627-1.583-1.8716-1.5755-2.7682-2.4147-0.50425 0.29568-0.98644-3.1362-1.1844 1.2952-0.75597 0.6658-3.032 1.6991-0.89204 1.7189 0.55307 1.4307-1.6748 0.25355-1.6667-0.84282-2.8555 1.4148 0.46682 2.1179-1.3097-1.2966 3.1249 2.4803 0.85075 0.72731-0.42967-3.5367-0.94273 0.07016-3.6617 2.0697-2.2701 1.6844-0.85934 0.51661-5.3753-0.19649-1.2707-1.9368-2.537 2.6711-1.5304 1.2374-3.707 0.01308-1.7095-2.6046 1.2532-3.6967-0.15743-2.5369 1.9432-1.9938-2.9823 1.1828-0.10271-0.48912-0.53729 0.43996-2.3869 0.66705-1.181 4.3274 1.2791-1.045-1.5248 0.2834-1.6633 0.92167 0.6099 0.91581-2.8663 1.6002 0.0759-0.16254-1.7599-3.2379-3.4452-2.4492-1.7807-1.6051-0.35989 0.08595-7.4597-0.0962-4.1518-0.11456 4.1392 1.5645-3.8092-0.31255-2.5232 2.8235-1.3302-1.0684 0.26567 0.06717-2.6996-0.03584-0.94117-3.0473 1.2963-0.66726-1.0253 0.89152-1.6855 2.6998-0.15404 3.3116-2.9766 1.7763-0.24138-2.0157-1.1271 1.4353-2.1572 0.94076-3.15 2.5287-0.10754 1.5546-3.3867-0.89301-0.80813-0.60572 2.905-2.1986-0.26102-0.0996-2.986 3.3813-3.1 2.9144-3.8524 1.6788 1.1291 0.40476-2.5562 1.4333-2.249-1.1664-2.8707 2.9208 0.80366 1.0949-2.5093 2.9926 0.84984 1.1774 0.58554 1.4401 1.9645 0.59001 1.0901 0.94145-1.2235 1.4676 0.65419 2.6766 1.5344-1.2995 1.0952 0.90601 3.4915 0.26717 2.9559 1.586-6.0852 0.12264-3.614 0.69129-3.5776 0.29978-1.1428 2.9444-0.26926-0.21478 2.7441-1.5158 4.5765 0.58154 2.1189 0.93615 2.6972 3.4533-4.4384 4.1008 0.0618-0.13655 3.4865 3.7484 2.477 4.8984 0.64284 2.1732-4.8995-0.37708 3.204 0.36758 4.3379 0.0868 0.28866-1.604 3.67 5e-3 4.336 1.125-0.2678 4.495-2.9736 4.7988 0.32336-1.2368-0.47442 0.85302 1.0647-1.0502 1.0203 1.4447 1.3198 1.6258 2.6273-0.49743 1.8632-0.0456 1.6388 2.1285 1.8267 1.8532 3.1692 0.65706 2.2394 1.4599 0.5047 2.0041 1.6462 0.39333-2.6918 3.9069 4.6172 1.9671 4.5647-0.19084 2.2544 0.81062 3.2422 1.5577 4.8086-2.2645 2.3409 1.5463 5.3584 1.5756 4.8802 2.3578 1.2979 3.0754 5.585 5.2771 4.0558 1.9223 2.3117-0.16249 1.5676-0.59129 3.4325 0.40043 2.7582 2.0516 1.8892 2.7839 3.2902-0.18653 2.7128-4.0421 4.936-2.7976 5.7488 0.18414 1.0386 0.86496 0.59145-0.12754 1.0156 2.8189 0.20592-0.53761 5.5001 1.5615 2.4647 2.5579 1.0931 2.0366 3.8475 0.81903 5.5033 2.5353 0.63297-0.67114 0.9957 1.5877 1.7744-0.79445 1.9929-2.3013 4.7626-1.994 6.9568-0.51685 2.5028-1.0102 5.3485-1.0893 7.4301-3.9751 2.0122 0.5057 4.2538-0.79983 7.2063-2.0063 0.63664-0.17598 4.2081-2.8162 4.3475-1.6521 2.2602 2.9038-0.74905-0.15431 2.2669 0.0271 2.1564-1.4984 3.3334-0.42274 5.2928-1.9679 4.1537-6.02 5.1866-9.2955 6.0002-2.037 1.7062-3.082 3.005-2.6674 1.1774-1.892 4.1255-5.3152 1.3317-6.7511 5.009-0.01-5.014-1.2364-10.362 1.5948-14.887 0.52656-3.5863 6.089-8.906 4.1572-11.284-3.3168 0.8278-6.7992 11.988-5.7314 3.6545-0.12692-12.43 3.4719-24.425 5.1617-36.639-2.7232-0.24215-2.8547 8.7954-4.4556 12.042-2.343-4.3741-2.9488-9.8559-3.9412-14.816-1.6964-6.7109-1.7252 2.365-0.67339 4.7053 0.78769 5.5938 2.1288 11.232 2.9198 16.76-1.0146 3.2466-1.7879 6.5875-3.0878 9.7306-3.1375-8.268-6.3736-16.526-9.5595-24.768-4.7475-0.67509 1.2386 7.8179 1.3883 10.849 2.4865 7.8212 5.5479 15.503 7.5102 23.468-0.0571 1.6155 0.80943 11.21-1.1739 6.9036-3.5276-6.0096-7.1164-11.988-10.45-18.101-4.7448 1.5567 3.1254 8.6116 3.9581 12.121 3.0844 6.3013 7.7789 12.736 7.2268 20.047-2.3441 0.0771-3.4847-0.75022-5.4985-0.30336zm-10.388-4.5279c-2.5565-1.2303 1.4101 1.7314 0 0zm39.325-13.906c0.64637-2.8302-1.4718 2.2889 0 0zm-45.488-20.813c0.23013-3.7833-2.9623 0.32016 0 0zm0.92141-1.1471c-0.57031-2.981-0.90054 1.013 3e-6 0zm-2.1021-2.5135c-0.7183-2.9065-0.3968 1.8101 0 0zm0.26864-2.1497c-0.11843-3.6024-1.5897 0.20504 0 0zm1.4552-6.6477c2.3933 0.45701-0.6065-0.84646 0-1e-5zm9.6573-18.256c-1.9751-1.0746-2.664 1.0096 0 0zm2.0899-1.3229c-1.4447 0.16082-0.95996 3.2021 0 0zm-1.3325-0.59701c-0.86714-5.1538-2.3146 5.4714 0 0zm3.7707 0.88024c0.20614-1.6043-3.6901-4.953-1.4724-1.7736-0.2893 0.57229 2.0899 2.964 1.4724 1.7736zm-3.0666-1.057c-1.3334-2.1795 0.24161 2.3777 0 0zm0.24695-1.06c-2.4293 0.2884 1.776-3.7645-0.70471-1.5007-1.6467-0.75343-1.0644 2.3893 0.70471 1.5007zm23.24-1.2561c2.2519-0.24191-1.9932-0.93066-0.35087 0.65264l0.30316-0.31667zm-18.334-0.58191c-1.4104-3.0392-1.467-0.39468 0 0zm-5.6092-0.61448c-0.71639-0.83791 0.67957-1.817 1.298-2.0005-2.0831-0.79559-3.5505 1.2778-1.298 2.0005zm2.6988-1.9098c-0.46096-2.4612-1.2868 0.59093 0 0zm-0.81235-1.5554c-2.2345 0.45233-0.18486 1.864 0 0zm12.983 0.27944c-1.9826-3.8109-1.0134 0.63372-0.59531 0.57165l0.59531-0.57167zm-13.626-3.5485c-2.5815-2.95 0.86363 1.8425 0-2e-5zm-1.984-0.88573c-0.98914-2.1262-1.1713 0.48865 0 0zm-1.9066-0.99219c2.343-0.29614 1.0261-2.4767 0.19264-1.1062-0.60184-2.3108-0.7581 3.0209-0.19264 1.1062zm25.058-2.1828c2.5088-0.88703 5.2011-2.2916 0.59532-2.2924-2.1316-2.3413-2.0927-0.1205-2.2374 0.814-1.4222-3.1721-0.94106 3.5793 1.6421 1.4784zm-21.352-0.3175c1.3397-2.0915-1.984 1.0769 0 0zm18.306-0.47625c0.99531-2.8863-2.6174 1.4285 0 0zm-3.1117-2.3136c-1.5854-0.83636 0.37021 3.2019 0 0zm-17.306-0.8823c-0.45547-2.1891-1.7885 2.379 0 4e-5zm25.173 0.41155c0.082-2.2538-2.3119 1.2018 0 0zm0.43346-3.7682c2.0743-1.5823-3.4414-2.3183-0.91068-0.22262 0.0542 0.4311 0.64975 0.45679 0.91068 0.22262zm-12.439-6.944c0.87696-2.018-1.8243 1.3947 0 0zm-5.9366-0.26183c3.1379-3.1513-4.5332 0.10147 0 0zm4.8342-0.23043c-1.0003-2.948-1.3987-0.0555 0 0zm-28.23 71.772c0.61398-3.4652 1.2927 1.1845 0 0zm11.092-18.562c0.44329-1.6432 1.7822-0.66785 0 0zm-4.847-5.7283c-3.9157-0.9979 1.1803-2.6521 0.79563-1.2754-0.31191 0.61263 1.1857 2.4567-0.79563 1.2754zm-6.1514-4.2316c0.74295-3.0339 3.5035-3.3669 3.1542 0.21626-1.9898 0.13792-2.194-1.811-3.1542-0.21626zm6.5631-1.6787c-1.6109-2.493 0.92773-4.2107 1.4861-0.99181-3.3465-2.5863 0.16041 1.9101-1.4861 0.99181zm3.1214-0.69148c-0.94587-2.2377 1.5453 1.5955 0 0zm-6.8989-0.65177c0.20457-1.4977 1.6727-0.52295 0 0zm5.7825-0.97186c-0.65628-0.57408-3.3796-4.4666-0.14192-0.92427 1.715-0.20857-0.36191 2.6523 0.14192 0.92427zm-2.9705-0.95535c-0.97778-2.7903 1.3099 0.57413 0 0zm5.4709-9.5051c0.33595-2.7414 2.8099 1.8839 0 0zm-2.0629-1.4079c-2.3211-1.4469 0.84744-1.3569 1.1599-0.60367-0.45406-0.25171-1.3154 1.3816-1.1599 0.60367zm3.1443-0.1505c1.8411-2.1994 2.719-0.13761 0 0zm2.4342-1.1309c-1.1212-2.3444 1.2845 0.5135 0 0zm-7.1967-0.33054c2.7881-3.3163 2.3932-1.0559 0 0zm40.746-0.39167c1.448-1.8459 1.2357 0.38895 0 0zm-46.463-7.0517c0.76092-1.8279 0.35522 1.4639 0 0zm1.4908-1.557c0.22151-1.6922 1.7909 1.1259 0 0zm4.5463-1.0893c0.59874-2.2963 2.0037-1.8275 1.3509-1.0645 2.5097 0.18139-0.70318 1.6056-1.3509 1.0645zm8.3794-11.098c0.71432-2.7654 0.73712 0.6756 0 0zm26.093-0.65364c1.3793-0.96775 0.73919 0.95992 0 0zm-3.6362-3.7609c1.6195-2.4-0.28596 2.5593 4e-5 0z" fill="#79a374"/><path d="m114.85 234.35c0.17397-2.0069 0.10764 2.2643 0 0zm-0.52021-7.9375c0.1651-2.5035 0.099 2.8448 0 0zm-0.43823-15.539c-1.055-6.4689 2.9068-12.066 5.4067-17.695 3.0368-2.6609 0.0635-5.3077-1.7898-1.6473-1.707 2.4834-4.6482 8.3449-3.4173 1.9518-0.2588-12.495 3.6025-24.542 5.1304-36.832-2.4155-1.2318-2.6272 7.5203-3.8069 9.9329-1.3716 5.3496-2.7859-5.1526-3.4569-6.9106-0.69395-1.6098-1.0972-10.946-2.7096-7.2221 0.86257 7.6989 2.734 15.37 3.828 22.97-1.0712 3.1917-1.7616 6.695-3.0486 9.6768-3.0916-8.2628-6.3642-16.468-9.5493-24.689-4.6873-1.1769 0.94142 7.6473 1.2805 10.557 2.4032 7.9635 5.6901 15.679 7.6019 23.774 0.0119 1.8039 0.44119 8.938-0.69672 7.656-3.6592-6.4888-7.6409-12.797-11.104-19.391-4.1629 2.6494 2.4348 7.7968 3.4063 11.296 3.3413 6.6509 8.155 13.22 8.0835 20.95-2.6209 0.19629-3.055-0.6119-5.379-0.31232-2.3151-2.2472-2.2962-0.48305-4.1212 0.3844 0.3612-1.2901-2.3725-6.1826-2.3687-2.9331-2.4196 1.5736-1.5405-5.0281-2.538-1.056-0.96698-0.34332-2.6899-2.0354-0.77017-1.7884-1.9881-0.17887-3.4096-3.1885-3.3284-0.84225-1.2684-2.4515-2.2405-3.7116-5.0996-3.76 0.93129-2.5891 2.6317-3.5459 0.16256-5.4141 2.4458-1.3667 0.84657-3.668 0.06005-5.0905-3.0938-0.89251-2.8626-2.5516 0.07733-2.8128-0.49443-1.8501-3.68 0.48835-2.9956-2.6945-0.24823 0.0466-0.02533-1.8576-1.0014 0.62434 1.0273 1.0181-4.593-3.6545-1.8085-2.827 2.393 2.2489 1.2808-1.3441 3.512-0.85198-0.8857-2.7863 4.7342 0.1881 0.66029-2.3476 4.0526 0.76298 0.64213-1.6581 3.2983-2.2959-1.4632-0.61923 1.3605-2.8436-1.9953-4.6946 4.5217 0.96013 1.0676-3.1399 0.96467-5.4824-0.32736-2.9372-2.8018-6.1107 0.43766-5.0001-2.805-2.2491 2.9025-3.3802 2.589-0.69763 2.2176 1.7025 5.4394 7.0928 7.6971 3.4172 1.2462 0.15345-2.4476-2.7345-0.50135-4.0946-0.69249 3.0696-2.6285-1.8613-0.21587-1.0233 1.2719-3.1168-2.2172-0.39571-0.04329-3.3047-1.1559 1.2598-1.4521-2.0706-3.1703-0.81437-1.7998-3.287-0.60878-3.7505 0.63367-1.3635 1.1466-1.6046 0.5678-1.2968 0.60458-2.2935 1.9668 1.0797 2.9102-0.36854 0.55529-1.7145-0.41599 0.49073-1.9498-1.9488-1.2307 0.43647-2.9605 1.4782-2.0965-3.7312 0.01393-1.782-0.90806-1.3322 0.0704-3.2425 0.86246-0.94519 1.1191 1.7963 0.12935-2.4596-1.3256-2.1989 0.36358-1.3194 1.3643-2.7008-1.045-3.6191-1.1191-2.1176 2.2661 0.11459 1.7833-1.9392 1.7866-6e-3 1.6859 2.9919 3.4401 2.6232-0.63701-4.3112 1.0436-0.32431 1.0758-1.2219 2.5077 1.3118 1.6252 1.0343 1.1287-1.5259 1.7434 2.0818 4.8428-1.1119 1.0916-1.7519-2.3391-2.5577-1.6844-4.9306-0.23403-1.0268 2.686-0.70948-1.7424-1.3111 1.2924-2.2484-2.1923 0.64667-2.7816-1.8407 0.34391-0.53071 0.6195 2.6622 3.1813 4.5131 0.74229 0.27201-1.7637-2.7952 1.5838-3.4651-1.734-4.2712-1.8545-1.5292-2.8934 1.9035-0.55054 0.11879-0.30475 2.6978-0.52084 1.9809-0.27541 0.56271-1.9531 2.2265-2.5683 2.5793-3.1724-0.0542 2.4948 0.53105-0.31637-1.4121 2.618-1.7617 2.8588-3.11-3.0596-1.5796-1.9001-2.7097 0.8566 0.72451-1.8927-1.5516-1.7449-2.2343-2.2971-0.40923-1.1579-3.3767-0.38272-1.5387-1.0855-2.9654-2.9069-5.2286 0.26067-1.4652 0.24822 3.103 4.3244-0.60836 1.4054 2.159-0.33022 4.0672-0.0749 0.25486 1.7413-0.32241-1.9488 1.5258 0.70526 4.6158 0.26722 1.8682-0.33092-2.5651 2.2958 1.7493 2.2375-0.76721-1.0288-0.57666-2.8603-3.5639-3.2949-2.6677-1.421-3.9478 2.0131 1.018 1.6553-0.28641 1.7928 0.6668-0.84645-3.051 1.1186-4.2327-1.9954 1.2896-0.86642 4.3598-2.4743 1.5951-0.4941 2.3783-2.8766 2.0278-2.5938-0.89646 1.3282 0.93044 2.9241-2.7455 2.9189 0.33732 3.6257-1.1672-3.0189-2.1629-0.42532-4.654-0.10038 4.3638 5.0915 0.34631 1.7722 0.96216-0.65394 1.3954 0.21606-3.895-2.6261-3.8309-0.56479-1.2903 0.41129-0.52851 2.0375-1.8043 1.8279-0.91598 2.36-4.6212 3.5276-3.3769 0.81999-0.44332 1.0862 0.22989 1.4386-0.35338 2.0911 1.1375-0.71691 1.2682 0.44459 2.6302-3.8227 1.2471-1.9078 4.467-0.33063 2.2641 1.0653-1.3491 2.5036 1.9103 2.5042-1.1942-0.68237-2.2651 0.30884-6.0878 1.9098-3.2427-0.77896 1.7898-0.28247 5.2262 0.16546 1.7922 0.91784 1.5697 1.3698 1.09 1.9805 2.2774-0.39074-2.2709 1.2305-2.7515 1.8589-2.2196-1.1041-2.0274 3.6047 3.2117 0.83473 3.7625-0.98629 1.387-2.5438 4.921-0.75434 4.7854 0.21181-2.6309 1.9462-7.2166 4.5792-6.4003 2.3923-3.4265 1.2077-0.69491 1.0559 0.78553-1.1486 0.88177-0.5495 2.8449-0.39669 4.4281 0.0814 1.9493 0.51946 4.0837 1.3018 2.1056 1.6673-3.3223 2.1099 5.3919 2.35 2.0233 0.82434-0.18766-0.7832-2.2144 1.575 0.2145-2.7096-0.40846-3.1526 4.3949-0.90577 2.3176-1.2414 3.7861-3.2509-3.1107-4.648 0.88093-1.3654 0.921-0.66066-2.4414-1.3532 0.76556-2.3222 0.83544 3.4686 2.8055 5.9894 1.3919 0.93068-1.1682 2.1628-0.36109 2.7142 0.8764 0.42488 0.24125 0.69051 2.3528 0.96499-0.2429 0.36387-1.853 0.42848 1.2192 1.3929 1.8111 0.17968 2.2863 0.50671 5.8788 1.4667 6.9306-2.8244 0.77475 1.8512 5.6671-0.84372 3.5542-1.163 4.224 4.5432-0.18714 2.0457 3.8297-2.1408-0.56009-2.4294 1.5666 0.0355 0.69813-2.2226 3.5745 0.83299 1.4218 1.0301-1.7963 2.2125-2.1232 0.37449 3.1616 3.8987 3.4578 1.2749 2.2147-0.0178 5.203 3.3218 5.8813 0.1738 2.9243-6.4791 6.305-1.5094 8.1584-2.173 3.399 0.97347 1.8693 1.3181 2.8107 1.1862 2.8452-1.5378 3.4174 0.92732 4.7164-2.6548-0.0708 0.83976 3.7964-1.85 3.423 2.5238 2.3699-2.4908 2.8863-0.31764 5.4644-0.22527 1.0879-2.1851 2.9688-0.55388 1.9396 0.67491 2.6454-0.61288 3.5401-1.0661 5.4267-2.8191 2.0972 2.4983 4.2394-0.72505 6.8441-0.48154 3.7246 0.031 1.8776-2.0742 3.2873-1.395-2.6972-1.5348 4.5434-0.55523 3.8811-1.0726 2.3524 1.0289 6.1086-3.1012 7.9374-2.3051 1.831-6.7004 1.1075-7.879 3.5909-2.0447-1.3567-3.5308 4.4143-5.9639 2.7119-1.9058 4.1372-1.5594-0.23288-1.6548-2.2361l-0.0123-0.33081zm-19.217-12.926c-0.27314-2.5671-2.3028 0.56782 0 0zm-5.6815-18.83c-0.35156-5.0584-1.6066 0.66593 0 0zm46.805-0.91709c-1.6107-0.85636 0.6294 1.6586 0 0zm-1.1712-1.6626c-0.60712-1.726-1.5591 2.0804 0 0zm-41.195-2.736c-0.18896-2.3278-1.4432 1.2005 0 0zm42.199-2.3907c-2.9404-1.0238 0.0496 1.4656 0 0zm-47.57-6.5252c-1.0188-1.536-2.0579 2.2643 0 0zm8.4949-6.6043c-0.92702-2.9587-2.417 0.72418-1.0171 0.47147-0.44897 1.0891 0.95673-1.0172 1.0171-0.47147zm4.1462-5.439c-0.41579-1.0354 1.4128-2.1905 0.84023-3.1012-1.452-0.25451-2.6109 4.7986-0.84023 3.1012zm-3.4801-0.78841c-0.75164-1.5013-2.8462-1.5518-0.61335 0.48601l0.53783-0.0284 0.07552-0.45767zm2.2121-2.2466c-3.856-1.5859 0.137 2.3243 0 0zm4.9138 0.024c-1.4009-3.1041-1.2931 0.52105 0 0zm-3.8112-1.2581c0.88906-2.7573-1.8664-1.8474 0 0zm-2.157-0.77532c2.1754 0.28547-0.59223-1.563-0.68711 0.81399 0.38499-0.0627 0.66829-0.43446 0.68711-0.81399zm-2.3451-0.80454c-0.77131-3.007-0.09755 4.1105 0 0zm-1.0074-1.0375c-1.9119-1.4379 0.41852 3.8983 0 0zm8.6442 1.0807c0.65102-0.0769-3.2093-1.5745-0.87196 0.35877zm-2.1532-0.68405c-1.7385-2.4064 0.33695 2.3068 0 0zm2.3054-1.7656c-1.2726-0.0216 0.0838 1.8337 3e-5 0zm0.71158-1.8096c0.1132-2.5765-1.5 0.66259 0 0zm23.412-0.28881c-1.455-1.7558-0.3463 0.72282-1e-4 0zm-6.3896-0.73241c5.1195-3.3765-4.0246-0.1259 0 0zm-17.07-1.709c-2.3585-2.0177 1.737 2.27 0 0zm-0.42941-1.378c0.68007-4.255-1.821 1.0588 0 0zm8.7348-0.97856c0.19961-3.1635-2.3354-3.5807-1.0235-0.15779 0.55539 0.0321 1.5865 1.9351 1.0235 0.15779zm-7.031-5.4046c-1.9408-1.779 0.21069 1.6401 0 0zm-5.2154-2.4814c-1.3139-0.51981 0.41748 2.4176 0 0zm4.6665 0.36471c-0.89154-3.4595-0.21267 2.2164 0 0zm-2.9598-0.39688c2.689-0.27666 0.85266-2.9945-0.51664-0.10152-0.33232 0.46558 0.68516 0.92864 0.51664 0.10152zm22.321-0.34634c-0.79398-0.78946-1.8972-0.0438 0 0zm-20.227-2.0098c0.72965-4.5038-1.1952 2.7087 0 0zm10.905 0.011c-1.321-0.0311-1.4583-4.3881-1.2712-0.1387 0.29207 0.10195 2.2592 1.5095 1.2712 0.1387zm-12.156-2.0446c-0.39552-1.5451-1.7905 2.0345 0 0zm-5.4944-2.3572c1.5858-3.2427-2.5858 1.9571 0 0zm5.0812-2.0798c-1.2912-1.6787 0.12902 2.5835 0 0zm12.951-2.7955c-0.20187-1.3086-0.0972-0.47649 0 0zm-2.2214-1.6566c-0.3886-1.0795-1.1652 1.6467 0 0zm-0.87644-1.0749c-0.83636-2.1936-4.6393-1.1225-2.249-0.39688 0.31409-1.2886 0.84692 2.0847 2.249 0.39688zm-3.9192-1.2998c1.2795-1.0725-2.0986-1.4359-0.87815 0.96231 0.29817-0.19697 0.28293-1.3196 0.87815-0.96231zm5.1142 0.11189c0.31667-0.55074-0.1484-2.9473-1.4518-1.5958 0.69804 0.18349 0.81938 1.8759 1.4518 1.5958zm-23.786 96.607c-0.56214-2.7775 2.716 0.0832 0 0zm-2.8673-3.6281c-0.65003-1.1817 1.5571-1.8344 1.3454 0.47544-0.49871 0.59425-1.2631 0.22629-1.3454-0.47544zm45.416-8.6457c-0.92413-3.4612 1.9296 0.14278 0 0zm-49.035-16.312c2.57-1.9091 0.37671 1.7249 0 0zm1.3379-1.0974c1.7263-1.3327 0.94628 1.6826 0 0zm-0.54522-6.428c-0.22035-1.9835 1.9054-0.91812 0 0zm10.594-5.4477c-1.4758-2.4233 3.0783-1.6746-0.03477-0.82779 0.20388 0.33146 1.2218 2.3499 0.03477 0.82779zm-10.557-4.1848c1.7583-1.4281 1.0068 0.79395 0 0zm3.9067-1.7855c0.31076-1.7083 3.2444 0.33378 0.24612 0.16788zm6.8633-0.14114c3.2883-1.3433-0.93648 1.0536 0 0zm-12.412-0.20143c-0.0936-2.5927 0.78048 1.4069 0 0zm4.3746-0.34014c2.5826-0.47611-1.682-1.8428 2.012-0.63701 0.04121 0.25041-2.5946 1.4543-2.012 0.63701zm-0.98277-1.7852c-1.5451-1.914 4.0133 0.3475 0 8e-5zm2.553-6.1868c-3.1243-2.791 1.345-0.98692-3e-6 0zm3.5465-4.1779c0.89435-3.9776 0.6163 3.7743 4e-6 0zm-2.422 0.47083c-1.5851-1.5932 1.5706 9e-3 0 0zm-0.33405-1.2785c-1.2326-1.1657 2.4222 0.83351 0 0zm10.278-6.4097c-3.0138-3.6946 3.7681 2.6443 0 0zm-4.5476-1.1817c-0.06904-2.3505 0.95062 1.5361 0 0zm1.4396-0.36127c-1.8166-2.5945 2.8616 2.3624 0 0zm-2.4743-1.849c-0.09001-2.5276 1.3346 0.55492 0 0zm1.2965-2.5601c0.0956-3.4058 3.3233 1.2998 0 0zm5.5235-0.39056c1.0932-3.5051 0.23354 1.6527 0 0zm-4.6334-2.1545c1.8468-1.9982 0.64472 1.0155 0 0zm1.1245-1.0119c-1.0237-1.0191 2.8521-0.31636 0 0zm-3.7339-1.1424c-0.27238-2.3062 1.2706 2.1369 0 0zm1.0835-0.1888c-0.33313-2.8186 3.3286 0.27834-0.0544 0.43598l0.05441-0.43602zm8.3002-24.484c1.7504-2.5615 0.11778 1.2332 0 0z" fill="#6c9a66"/><path d="m99.593 214.9c1.8683-2.9352 0.47005 1.3244 0 0zm14.434-2.0403c-1.2426-5.7795 1.0372-11.094 3.5622-16.155 0.66375-2.0969 5.8763-8.7832 0.86584-6.5231-1.3277 0.66345-4.7162 9.1625-4.4177 5.1601-0.19604-12.877 3.2087-25.387 5.2294-37.995-1.2399-4.0028-2.8127 5.0712-3.2795 6.7014-0.62285 2.2047-1.226 7.6216-2.2872 2.2007-2.1949-4.5312-1.4658-12.418-4.3874-15.12 0.17333 6.6853 2.0131 13.333 3.0045 19.974 0.60548 2.3136 1.1461 4.5992-0.0263 6.8315-1.1392 2.7366-1.8748 11.147-3.5196 3.8488-2.1633-6.6238-5.3201-12.886-7.4131-19.521-0.0915-1.8749-3.3169-6.2269-0.3876-5.1459 0.37811-1.1201 1.4047 1.0127 1.8262-0.79881-1.3504 2.0427-1.3077 2.1205 1.9472 1.511 1.0409-2.0887-0.66187-3.037-2.0607-2.4859-1.1792-2.8321 3.3542-5.2481 3.0393-8.2662-0.9621-2.8614 1.5939-4.4807 3.7125-2.4862-1.0775-2.5895 2.1936 0.2003 0.98453-3.3356-0.46039-3.3589 2.6342 0.74127 0.98406 0.51079 2.3396-0.95446 2.9824 2.7006 4.0909 1.5433-0.11656 2.6648 3.5037 0.17058 1.5083 0.32982-2.1858-0.86776-0.73867-3.5559-0.36219-4.1444 1.0796-1.807 0.96491-0.70259 1.4969 0.88988 1.7722-0.72591 1.8001-2.758 0.0263-2.9461-1.4122-1.726-2.6661-3.5593-2.7091-0.85822-1.4916 0.10626 1.4152-4.0082-1.2616-2.0785 2.0161-2.4042-3.4471-2.0487-2.0672-4.2355-1.1343 3.1264-0.83805-1.7302-2.6859 0.0188 2.0617-2.4484-1.2416-6.0005 0.27426-1.3194-1.489-0.64013-1.5176-5.028-3.8323-6.3116 0.70648-3.7807 4.0816 3.4396 1.9012-1.1527 1.3467 0.30637 1.7166-3.9367 1.6697-0.0881 0.81019 1.4781 3.5897 1.3128 3.7597 4.0072-1.1578 0.41823 1.4045 5.0441 2.8229 3.0482-1.364 2.6386 3.319-0.30524 1.523 1.2235-2.1673 0.16506 1.8617 2.5414 0.82603 0.14514 1.9685-0.98983 0.79604 4.6613 3.8121 3.0253 2.117-0.56931 2.9071 1.8649 4.6126 2.1343-1.0801 1.5958 0.89501 3.2929-2.5816 1.8118 0.17311 4.2023 0.012-0.34461-1.0683 0.43719-1.5845 1.751-1.8739 0.92118-2.9872 0.91405-0.25344 3.1873-2.3288 1.6275-0.96668 4.1886 0.55251 1.269-0.12783-3.0139 2.1353-0.0524 2.5395-1.1483 1.7282 1.3648 2.4444-1.1606 1.7526 1.9283 4.477 3.3837 0.79297 5.2332 3.1292 0.91628 6.2807 3.0941 8.5045 0.13269 0.7026 2.4348 0.19375 6.1152 3.1425 5.7237-2.1553 0.46652-2.5017 3.5981-1.3097 2.4718-0.70249-0.14044 5.9322-0.2421 2.5822 1.7311-2.3798 0.91557-2.0496-1.7963-1.8636 1.7899-1.4234 2.6569-0.0416 3.7502-0.0615 5.6411 4.273 0.0316 2.1885 2.4555 2.4004 4.6569 0.43799 4.3124-3.4906 1.1854-5.8733 3.4489 0.93532 0.96796 1.9746-0.68976 2.2747 0.8262 5.8708-0.57506 0.55042 3.8903-1.5992 3.6067-0.55216 2.157 3.7818 1.115 2.704 4.0093-0.70969 1.1048-2.221 1.4982-0.46109 1.6673 1.2455 0.6375 1.6119 5.1855-0.40386 1.4848-0.15425 1.9516 0.82273 4.829-0.41807 6.6533 3.7482-3.1536 0.0496 4.1207-1.9449 3.9634-0.91023 1.7544-0.97191 1.9248-1.4189 4.1048 1.9264 3.4727 0.25422 3.4959-1.6425 5.3937 1.7994 2.5456-0.82292 1.8378 0.16214 3.6996-3.1774 1.3454-6.7689 0.91159-9.5361 3.1833-3.5998 0.92233-2.6456 3.4121-5.4591 2.8361 0.71079 1.1994-0.94064 3.3578-0.32992-0.53231zm23.393-44.718c0.95718-2.3882-4.2245-3.6904-0.67903-0.61281 0.23493 0.17785 0.40211 2.2545 0.67903 0.61281zm0.21774-2.8508c-1.1172-1.3323-0.27285 1.3808 0 0zm-35.399-3.8365c-0.62694-1.8022-0.6278 1.773 0 0zm-0.15119-1.5592c-1.8831-2.5663-0.26193 1.7235 1e-5 0zm-1.8679-2.561c-1.3283-0.78798 0.97963 2.4447 0 0zm34.627-1.155c-0.38863-1.0795-1.1651 1.6468 0 0zm-21.723-9.1345c-0.66636-2.3738-1.1517 2.3249-1e-5 -3e-5zm5.3685-4.2624c-0.92712-3.0379-1.81-1.2191 0 0zm4.5052-5.8527c3.1816-2.7169-3.2977 1.3578 0 0zm-3.1586-0.44986c0.48106-2.1052-0.80695 1.1379 0 0zm-0.74297-1.4833c-0.7427-0.0407-1.8953-1.8565-0.53102 0.91569l0.33725-0.31743 0.19353-0.59824zm-1.5662-1.9848c0.84624-2.4976-1.0817 1.5121 0 0zm-1.1247-0.74661c-0.7418-4.3628-1.6492 3.3048 0 0zm-5.1889-7.2844c-0.32975-3.5516-1.8152 2.9687 0 0zm-1.1214-0.27034c-1.2008-3.89-1.0628 1.2231 2e-5 0zm-1.5242 89.925c-0.8536-0.85529-4.4807-0.30025-1.738-2.5248 0.88279-1.3852-3.4279 0.95605-1.9192 1.6445-2.2142 0.92502-3.394-2.8314-4.0377 0.11449-3.1353-0.92972-3.2093-4.4499-4.8487-5.1163-1.6237 1.9268-0.81688-2.1005-2.9802-0.54749-2.2261-2.7456 0.36499-5.8493-0.44843-7.6492 0.7989-1.8654-3.644 0.99966-1.0256-1.2334-1.8611-2.4454-6.7608-3.4469-3.1825-6.1556-0.26498-2.552-1.5548-3.8302 0.09642-4.6001-2.5221-1.1819 5.0693-2.7953 1.9821-3.6309 1.0012-1.2736 0.15706-3.5543-0.54875-1.2532-1.8243-2.3008 0.79047-5.0087-0.28072-6.1255-1.3003 1.7558 0.59047-3.4361 2.7916-1.8224-1.8546-0.66506-4.4271 0.97398-3.1542-1.8379-2.3507 1.4412-1.5984-2.2889-0.57411-0.2615 3.0944-3.4133-2.9182-3.3925-1.3071-3.295-1.3695-1.33 2.6441-4.5574 2.7956-2.6082 0.76056-4.5022-0.16768 1.4105 1.9499 0.49733-1.2122 2.4366 6.3869 3.3611 5.9868-0.12565 1.6591-1.9898-2.2861-3.6389 0.54641-3.3125 2.2456 0.11737 3.5296 9.244 5.1991 12.633 1.7187 6.5181 5.2739 12.671 5.5683 19.483-0.45936 1.1014 0.39722 8.2353-1.1441 4.7031-3.5749-6.0839-7.1929-12.147-10.645-18.297-4.3924 2.1266 2.9181 8.6426 4.0624 12.384 2.9053 5.9658 7.2072 11.817 7.2168 18.686l-0.12244 0.51534-0.23938-0.26459zm-11.413-16.023c1.5588-0.85875-4.1816-5.337-3.9277-0.28198 0.72385 1.6309 2.7853 0.98726 3.9277 0.28198zm-6.7887-2.6709c0.65191-1.5646-2.3866 2.0198 0-4e-5zm3.1209-9.308c-0.52646-1.1871-0.92217 1.5186 0 0zm-1.1906-6.3162c-0.92831-1.2109-0.89893 2.5423 0 0zm3.8003-2.8571c-0.61446-1.1525-0.8914-2.4809-2.3914-1.5828 1.6152 0.5418-2.6809 1.3634 1.6073 1.6107-0.05249 0.69754 0.43338 0.60786 0.78414-0.028zm-3.4217-0.63071c-1.2044-1.387-2.0311 0.66031 0 0zm1.1092-2.6093c-0.71534-2.1946-0.43764-2.9709-1.1814-2.6862-0.65726 0.56937 0.298 5.0281 1.1814 2.6862zm1.9639 38.181c-0.91466-4.777 4.1145 1.2916 0 0zm22.653-0.34209c-0.19777-1.6101 1.72-0.4481 0 0zm-28.556-1.2858c0.65296-2.6852 1.0014 0.85395 0 0zm0.35411-4.0386c-0.74038-4.2525 3.1699 0.15819 0.27374 0.33999zm-3.6086-2.6547c-1.7491-2.6153 5.3413-3.9583 1.3778-0.43981-1.7016-1.9295-0.4985 1.3481-1.3778 0.43981zm44.142-1.1026c2.1267-1.6876 0.23066 1.3153 0 0zm-46.61-9.4908c-0.7145-1.4954 1.5981-0.93944 0 0zm2.3527-3.4572c-3.5831-0.5402-1.651-4.7012-0.11658-1.9298-1.9908-7e-3 1.8189 1.8626 0.11658 1.9298zm-1.7859-3.8947c-1.2226-1.4664 1.3586-0.14058 4e-6 2e-5zm2.0505-13.997c0.71057 0.496 1.9692-2.7324 2.1414-0.15724-0.55269 0.26319-1.9716 1.1341-2.1414 0.15724zm51.216-0.23787c-1.2727-1.8917 2.489 1.4345 0 0zm-49.893-7.5349c1.4695-1.1529 0.94506 1.0738 0 0zm9.4455-4.2224c0.92736-2.1311 0.14819 1.6379 0 0zm38.104-6.364c1.6822-1.2824 0.92401 1.2571 0 0zm-20.429-12.432c-4.3715-4.2482 1.7034-0.29633 0 0zm-5.424-0.54186c-2.7255-1.6232 1.3231-0.75435 0-4e-5zm13.491-0.91679c-0.42139-1.9697 1.7236 0.6639 0 0zm-12.136-0.68087c-0.78383-3.0648 1.7133 2.2578 0 0zm10.119 0.18918c0.70664-1.3437 1.8729 1.2222 0 0zm-12.646-0.84668c-1.4037-1.885 2.0063 1.1027 0 0zm0.0252-1.0835c-1.109-2.8498 2.0908 0.80636 0 0zm2.1282-0.35278c0.19306-1.8237 0.93479 1.7776 0 0zm3.0532-1.7627c-1.9304-2.767 1.2282-0.39839 0 0zm-5.3578-0.29784c2.0626-2.8075-4.6768-1.8953-1.5966-5.0139 3.2689-1.5361-0.9017 0.97598 1.5966 1.2619 0.18709-0.23844 2.602 4.1275 3e-5 3.752zm2.3151-1.9294c-0.68476-1.1448 3.162-1.2184 0.52651 0.26275l-0.52651-0.26273zm11.507-1.0336c-1.2315-2.6047 2.8272 1.336 4e-5 0zm-20.789-0.17998c-0.21798-1.7672 2.6425 0.17381 0 0zm19.138-0.60175c0.58212-1.1054 1.3122 1.0585 0 0zm-0.60159-0.72518c-0.71516-2.1711 3.6579 0.66997 0 0zm0.98805-1.4239c0.7537-1.0082 1.5539 0.9774 0 0zm-15.732-0.21535c0.96998-2.1678-1.0032-3.9549-1.2013-5.5555-0.89038-1.5202 2.0043-5.5123 1.4381-1.0707-1.9106 0.6954 0.16548 2.7501 0.54892 1.0517 1.7969 1.8113 8e-3 3.8234-0.69106 5.7219l-0.0944-0.14742zm10.215-1.5097c-0.10491-1.9725 1.0475 0.80431 0 0zm-8.1641-0.43214c-1.8799-3.506 2.2375 1.8794 0 0zm12.814-2.4792c-3.0388 0.53378 1.8408-2.2166 0.50279-3.7809 1.1844 0.33563 0.95987 5.3168-0.50279 3.7809zm-5.9566-0.22228c0.65787-2.8122 0.99513 1.552 0 0zm2.5317-1.1326c-1.5337-1.225 2.1803 0.21953 0 0zm2.8588-0.39246c0.97821-2.9199 0.14209 1.9765 7.3e-4 0.05l-7.4e-4 -0.05zm-3.6106-1.1398c0.88138-2.8566 2.8464-0.61464 1.6434-0.83385-0.62959-0.22735-2.4892 2.9623-1.6434 0.83385zm-1.5408-0.57645c0.29419-2.9758 1.1236 1.6402 0 0zm-8.4494-0.40794c1.3709-0.79921 2.2502-2.2647 1.8371-3.4876-3.6734-0.44528 0.30742-3.1401 0.58002 0.25482 1.1468 1.2844-0.52816 4.1276-2.4172 3.2328zm5.2586-0.47994c-1.0551-4.2782 2.3792 0.53469 0 0zm-8.271-0.16861c0.99145-1.5377 1.848-0.7039 1.8745-1.8533 3.6059 0.94243-2.6361 2.599-1.8745 1.8533zm3.1585-0.89744c1.2593-1.5438 0.3931 0.94778 0 0zm-1.1961-1.7474c-0.62387-3.5637 1.3396-0.68922 0 0zm-2.2929-0.81579c1.7728-0.91344 1.2387 0.78938 0 0zm-0.25889-2.8575c0.96365-1.7121-0.16398-4.3011 1.1471-1.8351-0.19488 0.50255-0.58507 1.9617-1.1471 1.8351z" fill="#4f8749"/><path d="m95.597 211.97c0.56553-1.768 2.2738-0.45217 0.21378-0.17167 2.3029 0.17916 1.1249 1.4716-0.21378 0.17167zm11.737-0.76537c-1.7315-0.76007-2.7986-2.2111-4.6162-2.3748-1.1749 3.4079-0.01-0.9143-1.7668 0.19029-1.6772-1.0806 1.0234 4.4931-0.97964 0.21157-1.9824-0.79123-1.1558 2.7881-2.5703 0.17887-0.21295-3.6599-3.9253-0.12717-3.8937-3.3818 4.696-3e-3 -1.0189-3.7859 3.0011-5.1368-2.592-1.6228 3.5997 0.66549 1.7411-3.1372-1.9639-0.96127-2.5873-6.8176-0.06883-5.6199 0.98501-3.3256 3.8182 4.9619 4.9555 6.2392 1.7559 4.4359 5.4075 9.1415 5.0626 13.589l-0.86478-0.75791zm-2.8647-3.1924c-0.59266-1.3812-0.49267 1.7036 0 0zm9.9232 2.7749c-0.35881-2.5288-0.68744-6.9388 1.5654-10.389 0.21354-3.3133 6.568-9.0682 3.678-10.838-2.5609 0.14337-5.0597 8.3024-5.6401 6.4964 0.21097-7.9646 0.73476-15.919 2.5591-23.709 1.4851-4.5925 0.59087-8.0508 3.4984-11.399 0.85648 4.4601 1.0672-2.5492 0.89538 0.94775 1.6172-0.16572 1.3755 2.2067 1.4483 4.1237 0.96381-1.0886-0.0471-2.1918 1.862-2.375-2.4458-2.4547 2.5614 0.30774-0.54355 2.2601-0.45213 1.9354-3.5754-0.17119-0.46077 1.8329-0.0488 4.1812-4.7952 1.4013-0.92877 1.3971 1.2102-2.2575-1.0708-1.0653-2.3088-1.9803 2.1422 1.3405-2.9516 2.351 0.45941 1.9751-3.3977 0.43827-1.2687 3.9974 0.91949 3.3084-0.79221-3.4681 2.2446 0.4318 0.13593 0.9209-1.95 1.2155-1.1301 1.1451 0.81802 0.55605-0.1192 1.7068-1.5304 4.8146 0.79475 4.0133 0.20313-2.5725 5.3528-0.88915 5.0206-1.2887 0.30367-1.9341 0.42415-4.671 1.4766-3.1454 1.3099-0.91756 8.1173-0.12427 5.5786 1.4082-3.3033-0.39575-7.842-0.0222-4.7684 2.8814-0.12244 4.0121 4.218 4.2916 3.8703 8.4001 1.7505 4.463-5.6557 0.78852-2.1429 0.80699-2.2366-1.972-2.2184 1.8955 0.14717 2.1485-0.73586 0.96559 0.0951 4.6606-2.1981 5.9349-0.42668 1.2903 0.7225 3.539-1.456 2.2118 1.1604 1.1932 0.46125 2.217 0.60148 2.7544 1.6447-1.5905 1.6899 1.8247 0.13303 0.50233 0.0937 2.8941-4.0549 4.0394-3.1532 0.77567-2.4228 0.74192-1.4462 3.9867-2.3542 4.7041-2.1718-3.2411-0.54543 0.73286-2.6028 0.88599 2.6996 3.7765-2.997-1.9268-3.115 0.45522 2.7965 2.6289-0.0715 3.4096-1.5887 0.28137-4.2258-0.15113 0.51117 0.51514-1.7873 0.931 1.7784-0.20706-0.14037 2.8246-0.41362 2.2117zm10.965-12.522c-0.10505-3.5845-1.9737 1.6883 0 0zm0.49817-6.8994c0.29379-3.0729-0.21637-3.0892 0.0444-6.3262-1.6352-0.43417-2.7438-4.61-3.9258-1.9571-0.5038 2.2367 1.691 4.5804-0.13948 7.3708 0.32192 0.14272 3.4989 2.6734 4.0208 0.91254zm-2.7583-6.7825c-1.705-3.7596 1.9463 0.86242 0 0zm6.1326 2.9284c1.6715-1.948 0.23251-3.88 1.3638-4.629-2.7149-1.3868-2.7718 2.8073-1.1845 3.516-0.35334 1.1811-2.1233 2.9821-0.17931 1.113zm-7.2979-5.9416c0.77705-2.9118-2.1767 1.4459 0 0zm9.4636 0c-3.1786-2.0207 0.74957 1.7696 0 0zm-11.768-0.26459c-0.27136-2.0224-1.1992 1.9078 0 0zm1.7754-1.3709c-0.64147-1.2202-1.4738 2.0877 0 0zm-0.81235-1.341c-1.3892-0.44698-0.48459 2.3282 0 0zm0.0931-4.9609c0.0399-1.4802-2.2084 1.1583 0 0zm-0.57083-10.116c0.96244-2.4174-3.417 2.1927 0 0zm-4.0016 47.253c1.4199-1.8424 1.7727-0.29314 0 0zm0.15532-1.1536c2.0326-2.699 0.53403 1.3059 0 0zm-0.2612-1.164c2.0805-2.1702-5.8e-4 1.22 0 0zm-25.723-1.866c0.22279-2.9294 2.9241 1.3006 0 0zm35.502-1.896c0.0728-2.2012 2.1396 2.12-4e-5 4e-5zm-38.125-1.3622c-1.1127-3.382 2.4914 0.47438 0 0zm20.011-2.9131c-2.6224-5.0394-6.6534-9.6538-8.1781-15.052-0.26124-0.47059-1.536-4.0399-1.4171-3.6661-1.9408-2.615 5.2887-1.7324 2.2201-3.8847-1.3629 2.3788-1.2312-5.2622-0.28185-3.8505-1.7838-2.4241 0.32243-7.2426 1.1535-2.8128-0.74927 3.0406 1.5163 3.8718 0.54074 0.64262 2.5954 4.1023 2.0256 9.3006 4.585 13.056 2.1947 5.2191 3.6874 10.78 2.8906 16.465 0.14384 3.3076-0.63619 0.21138-1.5128-0.89711zm-3.4655-18.183c-0.77257-2.0632-0.64664 2.0324 0 0zm-1.0854-2.6458c-1.3006 0.39414-0.0123 1.9914 0 0zm7e-3 -2.4474c-1.2877-0.98834-1.9387 0.46237 0.359 0.72761l0.0111-0.21374-0.37015-0.51387zm-12.353 20.838c-1.5005-7.1146 6.9564 1.4371 0 0zm18.846-14.025c-2.2979-7.2292-5.8121-14.079-7.985-21.331 1.2812-2.018 5.7505 2.1352 4.6868-0.15355-2.3877-0.19287-2.8162-1.3341 0.17077-1.9796-0.71203 1.893 2.8066 2.4306 1.2286-0.77676 1.2413 1.4276-3.8571-2.9288-0.48744-3.7279-1.6193-2.5801 3.2769-1.5992 2.2792 1.2682-1.1299-2.9491 1.7453 5.0828 1.0664 6.7534 1.105 2.2522 1.5078 5.9362-0.1844 4.2498 2.6707 3.652-1.8279-1.1737 0.85425-0.40954-3.847-1.1836-1.1572 2.4618 0.73479 3.308 2.1716 3.9176-0.67315 9.2776-1.7441 13.725-0.10679 0.85875-1.1766-2.2397-0.61981-0.92614zm-0.0176-19.685c-3.3616-2.506 0.41505 1.5606 0 0zm0.1589-4.0947c-1.6379-2.8039-0.44617 1.2677 0 0zm-0.42564-1.4671c-1.1937-1.6985-0.65085 1.4158 0 0zm23.907 21.5c-2.5077-2.6395 4.5247 0.0629 0 0zm-3.3734-3.4246c1.3763-0.93823 1.9145 0.79481 0 0zm-6.71-0.15559c-0.51931-1.3898 1.5774 0.0538 0 0zm4.537-4.0645c-1.0138-3.8884 0.15745-1.3591 1.3933-0.92817-0.62739-1.8208 3.2083-1.1817 0.56758 0.85636-0.62759-0.1359-1.3464 0.46946-1.9609 0.0718zm5.9433-2.2942c-3.491-2.6373 6.7063-2.4139 0.8599-0.0786zm-12.325-1.307c-0.46315-1.657 1.5552 0.49068 0 0zm-6.8143-0.48507c-0.95165-2.3627-1.9028-6.7535 0.94351-2.2478-0.39011 0.22141-0.48805 3.4322-0.94351 2.2478zm-14.476-0.18521c-0.98864-3.0528 1.954 0.93639 0 0zm30.044-2.1043c0.13844-4.3792 1.4974-1.9409 0 0zm1.9174-0.10006c0.70986-2.805 1.2524 0.91635 0 0zm-3.8731-1.3146c-1.9212-5.3458 4.3149-0.53889-4.3e-4 0zm3.7601-0.10463c-0.80986-0.84891 2.5878 0.17945 0 0zm-19.268-2.284c-0.19223-2.5862 0.81035 1.8475 0 0zm0.94003 0.0497c-1.7441-1.1802-3.1794-9.6262-1.1357-5.6758 1.222-5.233 0.10243 4.8855 3.3678 2.5948-0.88625 0.75669-0.81695 3.8545-2.2321 3.081zm-0.41015-4.1241c0.583-0.43862-2.7597-5e-3 3e-5 5e-5zm2.4474 2.6266c1.6385-2.0898-0.28959 2.044 0 0zm-12.171-0.38292c0.76686-2.5158 2.7713 1.849 0 0zm25.286-3.0266c1.103-1.5079 1.4943 0.87723 0 0zm-4.5827-6.5701c-0.54471-2.0075 2.4534-1.827 0.53481-0.0139l-0.53476 0.0139zm-2.3263-2.8326c-3.6917-5.3544 2.8353 1.0123 0 0z" fill="#45803e"/></g></g></svg>
