<?xml version="1.0" encoding="UTF-8"?>
<svg width="78.756mm" height="96.46mm" version="1.1" viewBox="0 0 78.756 96.46" xml:space="preserve" xmlns="http://www.w3.org/2000/svg"><g transform="translate(-59.858 -124.28)"><g transform="translate(38.419 -7.9093)" stroke-width=".26458"><path d="m63.09 228.07c-1.0072-9.0005-1.4034-18.096-1.3425-27.153 0.2438-2.3771 0.09272-4.9238 0.58538-7.2172 4.2279-5.8864 9.1104-11.294 14.874-15.722 3.592-3.2815 7.7798-5.9192 11.118-9.4571-2.5958 0.44484-5.8416 4.5256-8.2742 5.095 0.85606-3.9811 5.4743-9.0923 5.1962-11.76-2.6865 3.5196-4.6242 7.6766-6.9144 11.502-0.81669 1.5384-1.434 3.2527-3.1828 3.9411-1.9647 1.1667-6.4491 5.0811-4.1354 0.60113 1.914-5.1334 3.585-10.369 5.3917-15.529-2.7382 0.95252-3.5304 7.5338-5.3196 10.67-2.132 5.9276-4.2887 12.147-9.1817 16.425-0.2921-2.7404 1.0856-7.7711 1.2453-11.46 0.96349-2.0769-0.11763-7.0125-0.79704-2.2293-0.35669 1.6645-0.82861 7.6501-1.9761 2.8253-1.9768-2.8186 0.42949 3.1437 0.60268 4.5089-0.74612 3.0794-1.3063 6.5001-2.659 9.2003-2.6716-3.1482-4.98-7.1666-3.527-11.405 0.39299-4.0176 1.7936-8.2386 1.5057-12.115-1.5434 4.4076-1.7981 9.2733-3.2129 13.749-2.7052-6.4093-4.4242-13.286-6.8007-19.853-1.1453 0.9238 1.3206 6.6006 1.7911 9.3139-3.5365-2.7475-6.1214-6.4644-9.0764-9.7694-0.08015 2.2456 4.5171 6.3234 6.3291 9.1677 3.3767 2.9965 4.5442 7.2284 5.0566 11.568-2.564-1.1985-6.195-5.3156-9.2524-7.4843-1.5748-0.64314-4.9634-5.6799-5.7535-3.7183 5.4426 5.9759 12.283 10.574 17.339 16.896 2.1096 3.7682 5.0469 7.4422 5.6203 11.819-0.04688 9.1725-0.4491 18.38-1.4853 27.493-0.29823-3.2868 0.34206-7.2771 0.48251-10.819 0.18912-5.3817 0.85421-10.834 0.35745-16.188-2.6272 1.37-5.7928 0.0205-8.9101-0.81958-2.7546 1.2538-3.5968-2.3765-5.5284-2.7718-2.8512-1.4359-8.1482-0.72501-9.0336-4.3087-1.3657-2.2853-4.6787-2.0197-6.3157-5.3593-1.4809-1.2173-0.68502-3.6008-2.7042-4.1254 2.0484 0.50516-2.4691-3.5526-0.09827-1.7774 1.8887-2.2365-3.2438-3.5234 0.51291-5.6509 0.75283-2.2006-2.9787-1.6222-1.1307-3.6631-2.1762-2.5055-2.3577-6.2166-1.2093-8.8402-0.10691-1.3639-1.9644-0.98551 0.42574-2.1526 1.1511-1.9245-0.2244-3.9727 1.8031-5.3874 0.75192-2.7331 0.13638 2.0934 1.2083-0.81603 2.345-0.69042-1.4952-5.2211 1.5552-4.1 0.21066 1.0169-0.32209 5.183 0.64119 1.7576-0.05426-1.607-0.22903-1.9653-0.81382-2.8251-0.06391-1.3943 0.87857-3.6546 1.6587-3.2949 0.02689-2.2365 3.567-2.6614 5.6675-3.5521 2.5753 0.0849 1.6949-2.3196 2.9102-0.34542 1.3038-0.71668 7.5783 1.9185 5.1594-0.0112 3.0054 0.29457-0.77392-6.4925 2.0016-3.0658-1.6625-2.0865 1.4285-2.1206-0.68134-4.0063 0.81973 0.85301 3.1642 0.88549 0.86856-0.28554 0.3708-0.42746 2.9737-0.15996 2.0205-1.9212 2.8382-0.26444 4.4137-1.6634 7.2523-1.0067-2.2534 1.3174 4.4461 0.97812 2.2177 0.67515 2.293-1.1402 4.9688-1.7435 6.1643-0.13815 3.2692-0.6854 8.3704-1.231 10.77 0.82325 1.8883 0.24762 2.6422-0.37238 4.0557 1.431 0.42111-1.7922 3.3826-0.10614 4.6181 0.6799 1.3936 1.3645 2.363 2.2527 3.4428 2.9652 1.0588-0.0744 3.3092 0.57139 3.0963 2.3488-0.8316-4.1158 2.7557-0.65334 1.825 0.89642 0.76757 1.3243 0.76696-1.453 1.6667 0.77222 1.3809 0.77848-1.8815 0.28867 0.40541 1.7896 0.42997 1.6984 0.25639 2.4132 0.52456 4.033-1.4586 0.15775-1.4818 2.9612-0.46984 2.0545-0.91547 0.39759-2.6023 3.0538-1.2357 2.5631 2.3301-2.0823 0.81743 1.477 2.9185 2.6419-0.3249 2.2368 0.42281 4.1929-0.53188 4.7084-0.51588 2.321 2.7738 2.4362 1.6526 4.3542 1.6766 1.1604 3.6367 4.8679 3.4562 7.0686 1.9001 2.423-0.96172 4.4291-0.21005 6.4888-1.5984 1.5231-0.67279 5.2562-2.2422 5.1618 0.20284 2.1778-2.1496 2.2297-2.3982 2.3294 0.7138 1.9453-1.8411-1.2332-1.6875 1.4547-2.2039 0.44513-3.743 3.178-4.1059 3.4768 0.88646 2.905-2.4295-0.64835-2.5652 2.4171-3.7609-0.53846-4.5731 2.8589-7.3748 2.9876-1.1012 1.4865-6.1976 2.9924-8.9174 1.9892 0.56922 3.2063-8.2604-0.75448-7.8829 3.4467-0.04754 8.8741 0.73235 17.778 1.1284 26.599l-0.18485-0.58407zm23.226-35.558c-1.5965-1.6511-0.34834 1.4947 0 0zm-1.7654-1.3452c1.4246-4.2372-2.6319 2.6956 0 0zm2.5996-1.6911c0.98088-1.5128-1.128-1.8255-0.82743 0.24533l0.82743-0.24531zm-3.1342-0.72353c-0.41186-2.0042-0.69432 2.4349 0 0zm5.4507-1.1003c0.24384-1.0385-2.0941 0.8351-0.36398 0.26505zm2.9451-1.4626c-1.4027-1.75-0.34344 1.1689 0 0zm-64.794-21.319c1.0423-2.068-1.8815 0.94215 0 0zm65.443-4.9907c-1.5657 0.0853 0.02971 1.9144 0 0zm-46.639-17.626c-1.8996-3.2552 0.01402 2.781 0 0zm33.096-2.3976c-0.07639-1.9822-1.5929 1.4857 0 0zm-14.282-1.618c-1.9582-1.1264-1.2761 1.1683 0 0zm12.655-1.6573c-2.2678-0.8925 0.29647 1.5786 0 0zm2.9186-1.2896c-1.3055 0.33935-0.34209 1.6128 0 0zm-3.9125 0.0939c-0.90056-2.5469-0.55669 2.0417 0 0zm-55.257 31.867c-0.84227-2.0488 1.3328-1.0069 0 0zm75.366-2.2991c-1.7153-1.3459 2.6821 0.4066 0 0zm-75.483-1.422c0.07469-1.0973 2.3484-0.12886 0.27138 0.1376l-0.27138-0.13767zm12.496-22.728c-2.519-4.3305 3.8052 1.9233 0 0zm2.6534-0.80121c-1.4718-0.82829-0.04473-3.502 0.70698-0.55236-0.82339 0.68536 0.69604 1.5361-0.70698 0.55236zm3.458-0.57165c-0.74862-0.53558 1.7077-0.48699 1.9045-0.95137-1.6054 0.36125-0.05075 1.9938-1.9045 0.95137zm3.1533-0.66546c-0.107-1.8368 1.3348-0.21818 0 0z" fill="#d6e6ca"/><path d="m63.115 227.78c-0.97515-8.4503-1.1758-16.991-1.3277-25.491 0.20694-2.8504 0.08044-5.884 0.60829-8.6481 4.1523-5.5368 8.5984-10.906 14.174-15.083 3.7815-3.3718 7.9921-6.2519 11.653-9.7526-1.9259-0.70068-6.2434 4.6259-8.1578 4.7289 1.4562-3.2539 4.0578-9.3824 5.9123-10.295 0.50368-1.5924-1.6883-3.3992-1.1572-1.6263 0.8807-0.33318-2.7286 4.7526-3.4926 6.4018-1.7089 2.729-3.0898 5.7448-4.8762 8.3749-2.0478 1.3474-4.0783 2.7218-6.1488 4.0342 1.9602-6.0202 4.1993-12.024 6.1698-18.004-2.565-2.2808-2.0235 4.4374-3.6449 6.0166-3.165 7.2465-4.7236 15.768-11.163 21.017 0.76904-5.2912 1.7516-10.611 1.7967-15.971-2.1101 0.69265-1.2067 11.005-3.4063 4.3266-2.0995-0.46892 2.0714 5.1161 0.44467 7.1301-0.77731 1.6662-1.1148 7.937-2.5208 7.1313-1.8879-3.0032-4.3747-6.1831-3.261-9.9565 0.50971-4.4379 1.449-8.814 1.9885-13.246-2.1843 2.1038-1.6532 6.689-2.7909 9.742-0.40619 2.1141-0.90201 5.6827-1.7281 1.6316-2.168-5.9566-3.7694-12.136-6.0756-18.024-1.2626 1.9369 2.1258 7.3704 1.3822 9.2505-3.2656-2.3845-6.1434-7.9075-8.9984-8.9362 3.0749 4.6181 6.9928 8.6639 10.11 13.219 0.28441 1.8576 2.6551 7.4073 1.1174 6.9914-4.6518-4.0302-9.375-8.1151-14.129-11.942 0.37787 3.3764 5.4507 5.7801 7.7601 8.6628 4.4622 4.0133 9.3915 7.8105 11.868 13.474 1.8724 2.5404 4.3496 8.5046 0.70726 7.9121 0.79614-1.1866-2.6064-1.932-0.98792-0.58564 1.0214 0.27724-2.0189 0.85161-0.52971-0.52763-2.3528-1.6472-2.8161 3.0618-3.5425-0.87542-3.7243 0.0924-6.7046-1.8286-10.117-3.1935-3.9191 1.4838-6.4532-2.056-8.0682-4.6074-1.9042 0.47504-4.5692-2.9866-5.5141-5.0804-0.28914-2.0433-2.9404-6.2939-0.67083-4.616-1.4355-1.7584-3.2332-4.9802 0.86624-4.4383 2.3927 3.143-0.752-2.9011 1.5871 0.23774 2.1662 3.6879-1.3203-4.7317-2.8869-2.209-2.1949-2.0425-3.419-5.9965-2.8119-8.7265 0.1738 0.94061 6.1282-0.3272 7.6539-2.1294-1.102-3.7453-0.48839-7.669-0.58707-11.316-0.56413-1.5656-1.627-3.3482-1.1931-4.9022 2.128 0.12024 3.6672-5.6085 6.9182-3.459 1.4564-1.6903 3.2778-0.11055 5.0582-0.90679 2.6671 1.0889 3.8573 1.9593 6.8851 0.33199 2.001-0.45987 2.2456-0.063 2.266-1.111 2.5976 1.1284-0.20572-3.4244 0.78539-4.7208-2.5696 1.143-2.4669-3.1639-0.62929-0.98734-0.37649-1.868-0.27158-1.0466-0.26944-2.4726 2.0679 0.53382 2.3729 0.29082 2.8995-0.79189-1.0388-0.93016 2.5417-0.0737 4.5692-0.0455 1.3068-0.92764 2.332-1.6019 4.2725-0.72444 1.1885 2.2063 2.4126-0.28558 4.1616 0.54265 0.36707-2.66 0.95882 2.3304 1.7786-0.5321-1.4496-1.585 3.7637 0.65615 2.804 0.44374 1.9892-0.96195 4.204 2.4261 5.1819 1.6895-0.48062 1.89 2.3695 1.3998 1.4175 3.7963-0.37731 3.0806 1.6051 2.8511 2.9953 1.5958 0.35003-1.6448-0.72717-1.7076-2.3538-1.4755 0.35236-1.5867-0.3349-4.5644 1.742-3.5881 0.72646 1.8351 3.5431-0.34406 1.1943 2.2383 0.25746 1.5631-2.4181-1.4424-0.36602 1.2276 1.1559 1.4536 0.86446-3.8311 2.9055-0.6096 4.4455 0.40464-0.98202 6.1213 2.114 5.658-0.2863-0.97152 0.13808-3.6975 0.56874-1.3745-0.89815-2.1868 2.2918-4.3182 2.7525-1.0938 1.9374-1.537 1.7375 3.7649-0.12786 1.5305 1.6786 1.7814 2.7829-1.1873 3.0921 1.5427 1.9873 1.2724-0.52092 5.8709-0.36231 6.367-0.53835 0.78179-1.5714-0.47325-1.963 1.7636-2.3735-0.3832 1.4317 2.6838-1.8335 2.6823 3.1597-0.84231 1.2299 2.8147 4.0824 1.619 2.026-0.43096 2.0446 2.4494 2.1066 3.0874-0.15203-1.714-6.5691 1.295-2.1795 0.47026 2.2671-0.88738 3.5166 1.6241 1.1702 1.7676-0.09769-0.73466 2.0323-1.1297-0.46724-0.8861-1.4697 1.4608 0.75248 5.0979 1.2458 4.0831-1.3444-2.8103 6.259 1.5901 2.4878 3.1409 1.4819 1.3604 3.0808 2.3853 2.2193 4.1201 0.30757 0.51144 1.0142 6.1956-0.94228 3.2622-2.6323 0.94936-0.08973 3.1262-1.9561 4.1482 1.4674-0.22409 0.20418 0.98038-1.1455 0.34161 1.7981 0.0156-0.10226 2.3127 1.4511 1.6532 0.57127-1.1942-0.02931 2.6308-1.7378 0.65496 1.1455 2.3781-2.2593-0.53014-3.0609 1.5128 0.49702-2.4554-0.69006 3.6593-2.8959 3.1655-1.4048-0.10631-6.9347 0.24353-5.3027 1.1522-0.7573 0.58297-0.53778 2.5759-0.94924 2.7524-0.88967-0.24025-0.56658 4.1529 0.02652 3.9614-1.2317-0.17591-1.7221-1.3099-2.8547 0.68219-1.8458 1.3505-3.9733 3.0797-6.9793 2.6055-2.3851-1.0262-1.4403 1.7049-4.6311 1.2335-3.1354-0.83408-6.5703 0.15718-5.1974 4.124 0.17835 8.0815 0.62507 16.248 1.2092 24.25l-0.16751-0.51853zm-25.575-33.653c-1.0883-1.0981-1.5083 1.3725 0 0zm1.2478-0.75806c-1.8324-0.44528 1.5272 2.091 0 1e-5zm-8.2315-11.615c-0.71079-1.1385-2.048 0.93329 0 0zm59.636 0.0774c-1.2579-2.0642-1.0718 0.88782 0 0zm4.4979-2.3034c-0.76241-1.1257-0.92562 1.3928 0 0zm-64.666-0.57988c-0.2954 0.17776-2.0687-0.42609-0.4875 0.40926l0.31348-0.13801 0.17401-0.27123zm58.346-14.287c-0.43281-3.94-2.5715 2.5272 0 0zm3.203-3.4668c-0.87382 0.32256-3.8106 1.7166-0.93049 1.5618 0.43658-0.40826 0.95457-0.90787 0.93049-1.5618zm-7.4676-0.5631c-0.01099-2.2592-0.30823 1.4282 0 0zm-2.3391-1.851c-1.1185-2.0686-1.2784 2.8942 0 0zm1.1489 0.53126c0.2922-2.5628-1.7197 1.4829 0 0zm-5.8195-0.79222c-1.0141-2.5662-1.8048 2.9727 0 0zm12.701-0.31488c-2.8332-3.4414-0.63025 1.4388 0 0zm1.0203-0.0856c1.0824-2.3554-1.5096 0.45879 0 0zm-11.473-0.66152c-0.69995-1.0069-1.6669 1.0461 0 0zm3.4053-1.0583c1.1608-1.4239 0.25169-3.2023-1.1138-1.2137 1.815-0.93931-0.96709 2.6436 1.1138 1.2137zm-8.6787-4.0607c-1.8219-3.3846 1.4086-1.145 1.6051-2.1792-1.8342-2.3126-3.9836 1.1403-1.9878 2.8918-1.5468 1.5928 1.5157 0.0395 0.38266-0.71254zm1.2593 0.60039c-0.21932-1.436-1.0944 2.3304 0 0zm2.7404-1.0444c-1.2554-1.5062 0.51851 2.2058 0 0zm10.755 0.0396c0.21328-1.4536-1.7382 0.82094 0 0zm-10.389-2.0875c-1.4862-0.32872-0.53401 1.5976 0 0zm-17.018-0.1942c0.06271-3.6583 4.6772 0.54588 3.6534-3.1368-1.0124-0.55998-2.7021-2.3174-1.6393 0.29635-2.0034-1.8256-0.21775 0.637-1.9044 0.30689-2.6956 0.5737 1.3528 0.74959-0.85573 1.4967-0.21272 0.44683 0.12296 2.0939 0.74606 1.0369zm19.962-0.8071c1.2726-2.4081-4.247 1.6939-0.51178 0.2961l0.51178-0.29614zm-13.681 0.21179c-1.7136-3.3981-2.3476-0.25815 0 0zm-4.3982-0.46302c-0.45577-1.412-1.2826 1.251 0 0zm13.819-0.0316c3.4642-0.96898-3.5701-1.7458-0.55362 0.23481l0.62362 0.1629-0.06996-0.39776zm-8.7956-0.77065c-1.7164-1.5078-0.16689 1.9805 0 0zm10.433-1.5768c-1.7689 0.35628 0.86039 2.6515 3.3e-5 0zm2.0002 1.5192c-1.7327-0.97652-1.7804 0.8865 0 0zm7.0584-0.46942c0.46562-1.9646-1.8751 1.3297 0 0zm-26.233-0.98579c0.53617-0.0786-2.6685-0.96099-0.50582 0.59531zm-13.027-0.91243c-1.7359 0.032-2.4221 2.3835 0 0zm16.992-0.52221c-1.4578-0.65157-0.18568 1.2979 0 0zm10.188-0.21899c-0.81244-1.6868-1.0273 1.3322 0 0zm6.7835 0.0405c-1.3392-2.2842-1.8105-0.4651 0 0zm-21.623-1.9991c-1.0223-1.0377-1.6247 0.96618 0 0zm11.436-0.29036c0.07603-0.64361-0.77427-1.4945 1.0986-2.0327-2.2216-1.1981-2.7353 3.6794-1.0986 2.0327zm7.1163 0.10842c-0.17956-2.7916-1.6196 1.4903 0 0zm-21.289-0.373c2.1128-0.63545-0.58661-1.6586-0.14362-2.4746-3.0617 0.228-2.9734 3.8645 0.14362 2.4746zm30.418-0.0661c-1.1221-2.0367-0.22571 2.0958 0 0zm-18.144-1.6118c3.3746-2.3627-1.7053-0.69802-1.0203 0.479 0.36261-0.092 0.59698-0.60803 1.0203-0.479zm-17.548-0.17413c-1.665-1.7671-0.90358 1.4519 0 0zm10.427-0.92605c-1.9361-1.7164 0.78905 1.9596 0 0zm1.726-1.2572c-1.582-1.7151 3.822-3.9469-0.27913-2.5706-3.0092 1.7647 1.4702 4.5103 0.27913 2.5706zm11.478-0.17349c-2.955-2.5253-0.01492 1.4857 0 0zm-22.117-0.54548c-1.2173-2.4097-0.85791 2.0169 0 0zm6.9876-0.31322c1.8082-3.7815-2.5543 2.3158 0 0zm8.5565-2.3639c-1.1383-1.3396 0.18235 2.1893-3e-6 0zm-0.38952-1.066c-1.5412-1.6997-1.92 1.6165 0 0zm-12.651 91.709c0.44893-8.1535 0.88898-16.357 1.2994-24.487 0.31902 7.8833-0.55104 15.84-1.0817 23.73 0.0076 0.10674-0.22104 2.2111-0.2177 0.75632zm-4.8032-24.465c0.5504-2.4007 1.4868 0.88923 0 0zm27.798-4.8733c-0.31493-1.7916 1.7227 1.3227 0 0zm9.991-8.3653c0.86544-3.6444 1.895 0.17519 0 0zm6.6521-5.8052c0.57094-2.1832 0.49481 1.7503 0 0zm-67.843-20.929c-4.1671-0.90754 3.7109-0.33589 0 0zm-1.4832-1.5859c-0.06888-1.7231 2.7619-1.6964 0.67077 0.36857l-0.36071-0.0366zm62.83-5.0403c0.13316-1.9265 1.5573 0.92506 0 0zm-60.549-0.87554c-2.1251-2.9878 1.5435 0.13622 3e-6 0zm18.292-10.404c-2.8861-2.2382 2.5727 0.0555 0 0zm-0.33911-1.596c-1.3849-2.1141 0.49406-5.3454 0.74222-1.724-0.93937-0.60698 0.25406 3.2228-0.74222 1.724zm2.3832-2.2004c1.1644-2.9416 0.99637 1.1212 0 0zm32.687-2.4739c0.95391-1.4738 0.75246 1.0966 0 0z" fill="#c6dcb6"/><path d="m63.006 226.65c0.21527-2.0344 0.11719 2.2576 0 0zm-6.0675-1.7198c0.147-3.4992 0.13815 3.507 0 0zm5.8181-0.92604c0.14219-3.1893 0.14135 3.3401 0 0zm-5.5514-2.9104c0.11884-3.28 0.1188 3.5914 0 0zm5.2973-1.1906c-0.02952-3.1992 0.33628 0.93387 0.02975 1.258l-0.02176-0.47351zm-5.0402-2.1167c0.15107-2.9626 0.14276 2.9694 0 0zm4.7798-3.3073c0.13898-4.8224 0.13001 5.0331-4e-5 0zm-4.5006-0.79375c0.13224-4.5396 0.14249 4.3315 1e-5 0zm4.2446-6.2177c-0.02322-5.1796 0.29697 1.4119 0.02682 2.146-0.02608-0.71505-0.0254-1.4306-0.02682-2.146zm-3.9729-0.39687c0.15307-6.4541 0.1156 6.3602 0 0zm0.23925-4.7625c0.19589-2.5371 0.1184 2.7941 0 0zm-1.6551-1.8921c-1.71-2.3766-4.7241-0.19435-5.239-2.1969-1.5516 0.55263-6.4032 0.68162-7.1943-2.0877-1.8138 1.0405-3.612-1.4639-5.8185-0.33365 3.0355-2.3685-0.74445-3.6902-2.2473-4.533-1.7023 0.34976-0.45316 1.9399-1.926 1.156-0.56253-0.22977-1.3618-2.155-2.8185-1.1691-0.53206-0.98632 1.478-2.1567-0.87578-1.4958-3.385-1.8234 1.068-3.3706-0.74254-3.3344-2.039 4.5984-3.15-3.8086-3.8146-4.9495 1.3948 0.53127-0.1589-1.0551 0.93274-1.216-4.3858-1.1225 0.15225-5.9032 1.9467-1.4829 3.028 2.6428-0.9376-6.6782-2.8129-3.7469-1.1504-1.7736-2.1825-4.5741-3.3237-7.9228 1.4145-0.13716 8.6202-0.72403 8.368-4.5217-0.71622-3.0149-0.55851-5.641-0.64528-9.099-1.1391-3.662 0.11242-9.7586 5.0088-9.1725 2.5499 0.26456 5.5741-1.1641 6.2486 9e-3 1.3967-1.8073 3.3355 4.4702 1.3348 0.94577-1.4896-1.2186-3.2431 0.55477-0.54096-7e-3 -0.50311 1.8375 1.8094 3.0688 1.9336 0.61309 1.315 3.0794 5.6956-1.4357 6.2404-2.0043 1.5498 1.3691 1.0727-2.6131 2.7098-2.4262 0.93887-0.94581 2.5614 2.5437 4.6853 1.2838 1.5201 0.23509 3.534 1.4863 4.0201-1.3433-0.81523-0.5175-3.6003-2.4785-2.134-0.73187-2.1741 0.24112-0.24838-1.8495-2.7511-1.2904-1.7248-0.63598-0.7393-3.1513-2.0125-2.255-0.92907-0.16222-2.5059-2.9895-0.68937-3.352 1.1906-0.51244 5.4506 2.0802 3.7669-0.60132 1.2614 0.67563 3.924-1.9959 3.1602 1.587-0.64611 2.0944-1.6512 3.676 1.1821 2.023 1.0944-0.0574-0.44544-1.1516 0.36708-1.304-1.0176-2.2594 0.63034 0.42637 1.2138-1.7119 2.2655-0.61652 3.5265 1.6668 4.3303-0.94206 2.0842 0.47005-2.411 0.52933 0.46114 1.212 1.3085-0.0223-1.1021 4.0596 0.7062 1.3004 1.0545 0.0253 0.43558-3.6755 3.1168-1.3576 3.0504 0.66041 2.387 3.2231 2.0308 4.8827 1.1714-2.7173 1.1413 1.7422 0.42906 0.16224-1.5826 2.7343 4.9164 2.1249 1.8416 4.6238 1.976 1.2361-0.62601-1.4554 1.9008-0.46651 1.4082-1.1564-1.6303 3.556 1.0729 1.0063 0.45979-0.55224-0.73327-0.0921 0.25628-1.7351-1.336-0.69763 2.0122-0.34097 0.02668-1.9256-0.4381-1.4456 1.6341 0.36975 1.6091-2.2207-0.99068-1.6203 2.0926 0.52083 2.459 1.4495 1.0798 1.1197-0.2168 5.9986-1.4223 4.103-0.58056-1.2384-0.96688 0.67032-1.7137-0.53541 0.83332 2.8335 1.3137 1.1273 2.4262 3.3075-0.67267-3.1549 3.55 0.53477 1.8906-2.5772-1.2976-4.9173 3.2225 2.7168 1.8943-1.8407-3.3032-2.4518 2.0523-2.24 0.72756 0.58942-0.52305 1.8932 5.4349 0.42554 4.25 4.3459-0.87574 2.2152-0.87448 3.6911-2.8567 3.323 1.1146 1.0201-2.3492 2.0434-0.5716 4.0516-2.3252 0.15863-2.1589 3.2962-1.0193 2.0826 0.32747-2.1313 2.5826-0.75828 0.50177 0.88912 2.7536 1.1291-2.4876 4.2368 0.9207 3.0803 0.47714-2.5019 0.71139-3.0668 1.1571-1.1569 0.67962-1.5005 1.8227-2.292 1.2154-0.87669 2.5476 1.7472-2.2261 0.5572-2.3064 2.738 0.93732 0.98032-1.0156 1.1222-1.3081 1.8687-1.13-1.9143-0.58628 1.7943-2.0892-0.29605 1.2475-1.9324-1.7358-2.7883-1.3341-1.2181-1.1754 0.43675-1.9973 4.7489-3.9449 7.2078-2.1884 3.571-3.5562 7.9538-7.7216 9.752-1.8185 1.5094-3.4799 2.1149-1.8886-0.78363 2.0473-5.0592 3.2443-10.45 5.5756-15.388-1.6645-1.0976-3.0758-2.9626-1.8801 0.29517-2.2891 6.5071-4.7769 12.977-7.4709 19.33-1.0863 2.3749-4.3308 7.0434-5.6884 6.8133 0.972-4.9217 1.546-9.9283 1.9186-14.926-2.0156-1.688-1.4183 8.0894-2.7524 5.7933-0.17991-2.0224-2.526-3.4453-1.1475-0.35018 2.2347 4.054-0.09168 8.4267-1.1708 12.45-0.76873 1.3164-2.0054-2.9676-2.9127-3.6814-2.3873-3.7861-0.24044-8.3177 0.03849-12.401-0.19124-1.9081 2.1904-6.4825 0.2601-6.6524-1.0921 4.4505-1.8332 8.9798-2.8875 13.439-2.5101-6.5628-4.3421-13.37-6.7536-19.966-1.6631-0.8148 0.72073 4.9552 0.80747 6.3856 0.8554 2.0316 0.87355 3.5674-1.0714 1.1189-2.7445-2.1281-4.8035-6.5154-7.4939-7.7402 1.0329 3.2026 4.659 5.942 6.637 9.0204 3.463 3.0448 4.4591 7.3932 5.2337 11.73-2.809-1.8163-5.9312-5.1852-8.9816-7.4483-1.6979-0.6916-5.4265-6.227-6.1542-3.7784 5.6617 5.9273 12.416 10.823 17.615 17.182 1.5216 3.4206 5.5595 7.7031 4.769 10.918-0.51619-0.43371-0.79126 0.68914-1.07 0.48294zm-26.177-18.745c-1.6197-1.4316-1.1117 1.3421 0 0zm1.4694-11.963c-0.49693-1.8194-1.2406 2.1078 0 0zm51.289-9.0735c-1.1467-0.383-2.096 0.55912-0.05199 0.64525l0.10363-0.34743-0.05165-0.29782zm1.2572-0.6322c-0.73706-2.1914 1.0532-3.4687-0.4219-4.922 1.4985-2.773-4.9348 1.3118-1.658 1.7031 3.6277-1.0472-1.6149 1.2971-1.6249 1.9997 0.1483 4.6484 3.8295-2.7358 2.769 1.6794 0.2902 1.0801 1.144 0.18793 0.93579-0.46029zm-2.8133-0.83762c0.59548-1.4018 1.5546 0.9532 0 0zm0.36668-0.86763c1.0809-1.6706 2.2069 0.71185 0 0zm-4.6167-0.39806c-0.27785-2.5278-3.5691 1.9856-0.55272 1.293l0.39838-0.48561 0.15434-0.80734zm8.5248 0.57133c-1.0145-1.4372-0.72025 1.1669 0 0zm1.755-0.0534c-1.689-1.0606-0.59511 1.1547 0 0zm-12.675-0.95533c-1.8707-1.25-3.0934-0.19636 0.04565 0.23125l0.05296-0.0497zm4.305-0.0496c-0.8867-1.4889-1.2831 1.414 0 0zm2.1773-1.2889c-1.3229-1.1009-0.63311 1.4643 0 0zm-5.9739-1.6368c1.555-2.7201-2.7535-0.7748-1.4562-4.2346 1.1983-1.0096 0.19328 3.6767 0.70168 0.8694 3.2292 0.13339-0.56623-3.7893-1.9971-0.60163 1.2603 1.4208-1.6991 2.7514-0.04905 3.0022 1.6023-2.307-1.1058 2.4382 1.1811 0.0842 2.0407 0.47111-0.64602 1.56 1.6195 0.88044zm2.567-0.86115c-1.5424-1.4167-3.5751 1.3006 0 0zm2.315 0.11429c1.5215-0.27608-1.3346-0.70452 0.4056-1.6712-1.4658-0.22668 0.373-1.7251-1.0202-1.1549-1.192 1.153-1.1543-3.9741-2.2622-1.0372-1.7338 0.76906 0.39838 2.4084 0.94285 2.9795 1.162 0.79374 0.6686 0.95945 1.9339 0.88388zm-1.1349-1.2388c-2.0198-0.24102-1.5223-3.5048-0.43089-0.45563 0.33049-0.26011 1.2307 1.1444 0.43089 0.45563zm3.659 1.3613c0.97292-1.4174-1.919 0.2114 0 0zm0.72993-1.6008c1.5007-0.6427 1.0154-4.3474 0.31056-3.047 1.0349 1.4958-1.4153 1.9661-0.5543 2.6624-0.83806 0.58094-0.62287 1.3381 0.24374 0.38458zm4.1151-0.67015c0.07152-3.3907-0.91388 3.543 0 0zm1.3959 0.16669c-0.86133-2.4624-1.5336 1.4069 0 0zm-28.84-0.52949c1.4143-1.0527 2.3703-1.6308 4.1844-2.7346 1.8169 0.98906 1.6916 0.19858 2.5626 1.4466 2.4755-0.23475 1.5806-3.9198-0.06291-2.121-1.0533-0.93071-2.5574-2.6805-0.86326-1.7041 2.1926-1.3069-0.55725-0.39572-1.2966-1.3803-2.7786 2.71 1.9652-2.6445-1.2243-0.27754-0.87191 0.76033-3.8498 2.0399-3.9499 1.189 3.2501-1.3296-2.1168-2.156-0.74878-0.93642 3.5182-0.72719-3.0109 2.0601 0.14614 3.1589-0.83385-2.2863 3.8434-0.90828 1.155-0.34511 0.18128 1.1295 1.1495 0.55837-0.77691 1.2723-0.05345 0.35557 0.09148 4.5898 0.87453 2.4323zm10.735-0.0505c3.3536 0.0746-2.2025-0.51554-0.0033-2.5594 0.50005-1.197-1.9429 2.7398-0.91988-0.54091-1.9394-0.36672-0.25786 4.1983 0.9232 3.1003zm0.58496-1.3891c0.49014-1.3653-1.7147 1.2717 3e-6 0zm8.6653-0.27924c3.4553-1.2681-0.36609-2.2022-1.1735-0.25835 0.25041 0.33506 0.90351 0.81836 1.1735 0.25835zm-1.9696-1.1714c1.3709-0.75646 1.8296-3.7555-0.16118-1.9144 1.4329 2.174-3.3272-0.40165-2.3038 2.1046 0.98423 1.2205 1.4595-0.0911 2.4649-0.19017zm-27.276-0.83068c-0.69592-1.2386-0.67974 2.1881 0 0zm29.898 0.14686c-0.859-1.3957-2.8653 0.96055 0 0zm2.2471 0.0209c-0.93297-1.0553-1.8014 0.74144 0 0zm4.3086-0.15033c2.2325-3.0363-2.978 1.7134 0 0zm-5.6019-0.69141c-0.37798-0.92839-2.8456-1.0328-0.20563 0.23237zm-4.3993-1.6087c-0.93462 0.0559-1.3654 2.6266-0.15634 0.33445zm11.16 0.0662c0.19942-1.4086-1.8322 1.1399-2.4109-0.75456 1.1879 1.24 0.4921 2.5332 2.4109 0.75456zm-8.1303-0.41577c1.3849-2.3395-1.7909 1.6848 0 0zm-18.566-0.34491c-0.80274-2.4413-0.89056 1.7267 0 0zm13.873 0.0866c1.3722-2.0429-2.96 1.2803 0 0zm-7.4918-0.33076c-0.28301-1.8824-2.6087 0.98843 0 0zm-5.3715-0.84726c0.58986-0.78069-3.1391-0.37224-0.46066 0.69768 0.12943-0.24287 0.14352-0.61045 0.46066-0.69768zm11.164 0.044c-0.50779-1.6089-1.2457-3.564-0.88522-0.81411-0.88415 0.48855 1.6684 2.2862 0.88522 0.81411zm-7.9321-0.57346c-1.5066-1.9251 0.15957 1.9635 0 0zm-1.3941-0.52554c-1.4733-0.35095 0.71734 1.4455 0 0zm7.5196 0.12051c-0.36781-1.0704 0.26593-1.3627 1.1905-2.4974-1.6408-0.20464-3.4602 3.4794-1.1905 2.4974zm9.6729 8e-3c0.25672-0.68653 2.0411 1.2718 0.5028-0.61397-0.9937-0.23168-1.2911 1.8538-0.5028 0.61397zm-7.2998-0.68772c-2.2494-1.927 1.0502 2.1097 0 0zm-4.0602-1.2983c3.6385-3.6013-3.2698 0.42513-1.1744 0.74814 0.33624-0.32264 0.69914-0.65776 1.1744-0.74814zm-7.9449 8e-3c-0.10207-1.0889 4.2915-1.423 2.2124-2.9402 0.67153-2.3337 3.9652-3.052 0.08997-2.3662-2.4845 0.78174-0.03436 5.7432-2.1437 3.6067-1.0878 0.1917-0.75593 3.1106-0.15869 1.6997zm4.9435-0.78467c-0.71686-1.4744-0.6442 1.6156 0 0zm15.155 5.6e-4c-0.55922-2.4263-1.2547 2.0162 0 0zm-9.3807-0.95368c-2.6743-2.5255 1.9729 2.6652 0 0zm-13.638-4e-3c-0.73644-1.3335-0.5015 1.7006 0 0zm8.5711-1.33c0.40822-3.2559-1.272 1.7682 0 0zm2.0123-1.2003c-0.78747-1.3707-0.60922 1.7913 0 0zm3.5353 0.16469c-1.0619-1.3654-0.36146 1.3782 0 0zm-11.915 62.17c-0.73053-5.5635 4.0761-9.2261 7.1416-13.194 5.784-6.1605 12.935-10.831 19.105-16.566-1.8587-0.98207-5.6345 4.4638-7.805 4.2052 1.5082-2.9075 2.7341-7.7169 5.3034-9.1106-0.83236 0.13895-0.07566 1.7765 0.53719 1.49 0.70314-2.88-0.1977 2.812 1.2953 2.2994 2.162 1.2474-0.21638-3.0719 1.6924-2.1658 1.0448-2.0808 1.694-2.3659 2.9363-0.0795 2.5415 1.8461 0.50072-1.6894 2.6271 0.48597 0.84775 0.5176-0.13663-1.9494 0.97105 0.31717 2.1783 0.43307-0.30099 1.3869 0.68238 3.2976 3.0659 0.24807 0.77392 4.916 1.0538 5.4913-0.59275-0.19525 0.06313 1.8888-2.2422 1.5994 0.97399 2.6188 1.3817 2.4362-0.88686 2.3248-1.3081 0.80987 0.30637 1.1676-0.69467 2.1787 1.4152 0.17223-3.4657 1.8745-3.5612 3.6423 0.35528 2.2194-1.26 1.9547-1.5197 1.5568-1.5118 1.6945-4.8859 0.3263-6.9571 2.1925-0.35502 3.1374-0.44801 6.1345-3.4501 7.8871-2.465 2.4134-5.7456 2.137-8.3513 2.3626 0.29416 1.9246-4.3885-0.54621-5.7478 0.83589-2.1406 7e-3 -2.6035 1.8978-2.1299-1.0507zm28.224-16.935c-1.5576-2.4993-1.3079 1.9085 0 0zm-54.632 13.221c-2.5101-3.9062 5.049-1.7136 2.537-0.13098-0.98755 1.0428-2.5676-0.43251-0.34949-0.57998-1.845-3.7867-1.1109 1.7644-2.1875 0.71096zm58.038-12.643c2.1055-0.95195 0.3785 1.0306 0 0zm-4.725-24.977c0.6009-2.1425 1.0236 0.67214 0 0zm-43.131-11.074c-0.99288-1.1861 2.8073 1.1789 0 0zm1.8521-1.2724c1.308-1.7602 1.8089-0.4348 0 0zm41.854-1.7529c-1.9741-3.475 2.126 1.3384 0 0zm-10.186-1.6925c-0.85699-1.6285 2.1449 0.95963 0 0zm-2.245-0.21618c-0.39434-2.5789 1.3068 0.83226 0 0zm-1.2797-1.0611c0.64166-2.2642 1.438 0.51857 0 0zm2.0192-1.2377c1.1392-1.7569-0.66055-3.45 1.695-3.7668-0.31517 2.5827 4.4762-0.14364 1.0915 2.3067-0.36686-1.2151-1.485 1.5353-2.1482 1.5491l-0.52862 0.14546-0.1097-0.23446zm-26.458-0.94123c-2.2493-0.42087-1.5176-1.0326-0.63654-1.5737 0.80356-0.94723 1.8878 0.47683 1.03-1.4694 2.443 2.1376 1.224 3.793-0.10441 2.8081 0.45463 0.42105 0.0498 0.78283-0.28909 0.23508zm25.311-0.0445c-0.54554-1.4752 1.8294 0.21699 0 0z" fill="#b9d5a5"/><path d="m56.926 225.19c0.15569-2.4271 0.1488 2.4324 0 0zm5.8155-1.1906c0.21527-2.0344 0.11719 2.2576 0 0zm-5.5509-3.0427c0.15569-2.4271 0.14879 2.4324 0 0zm5.2989-1.0583c0.15107-2.9626 0.14276 2.9694 0 0zm-0.26458-5.5562c0.15107-2.9626 0.14276 2.9694 0 0zm-4.4952-0.39688c0.1587-3.1442 0.12973 3.3458 0 0zm4.2403-5.6885c0.12766-3.5258 0.1102 3.5822 0 0zm-3.967-1.1906c0.14657-3.8409 0.13446 4.046-1.51e-4 0zm-2.4142-7.7406c-2.4839-1.2728-5.3095-0.70443-8.9213-1.5584-2.5526-2.0989-4.5919-1.6564-7.1094-2.3449-0.02404-0.0238 0.9597-4.8856-1.3453-2.6289 0.29242-1.6626-2.2241-1.1605-0.14938-2.1005-3.2715 1.1845-5.5789 2.106-5.0646-2.3917-3.2158 0.93271-5.0093-0.64855-1.9339-1.9073 0.22155-2.9673-5.1365 3.0431-2.7693-1.2905 1.335 0.13391 3.5075-0.24904 0.11505-0.27909-2.2637 0.2883 0.43851-0.73131-2.0536-1.9331 0.35102-1.6094 0.5233-2.8798-0.68924-3.9127-1.0334-3.7136 3.0779-1.1202 4.0784 0.63674 0.83004-1.47-1.0381-4.0496-1.3589-4.4314-1.4051-2.2774-2.8763 0.68107-2.4581-1.5263 3.0451 0.29023 0.82381-0.13329 0.05918-0.78694 0.4833-0.31935-2.1129 0.55704-0.01149-1.1421 3.5889-0.51606 7.406-1.156 10.179-2.6242 1.5789 0.50287 5.0506 1.6128 1.4861-0.12905-2.5881-0.64754 1.6227-1.2107 0.05832-2.444 1.2157-0.26402 1.6221 2.3012 1.5075-0.2846 1.397 0.77396 0.92366-0.72467-0.61012-0.89888 2.4681 0.0105-1.424-1.7306 1.4559-0.20179 2.9812 3.5903 6.1118 7.189 8.8035 10.96 0.40433 2.3226 1.1219 4.7525 1.4111 6.9715-4.7519-4.1015-9.6225-8.097-14.269-12.305-2.2566 1.9218 3.9993 4.6428 5.1936 6.7114 4.9686 4.8609 11.042 9.0068 13.99 15.522 0.47087 1.6005 6.1526 9.0808 0.4059 6.3194zm-22.812-14.617c-1.0496-0.78289-2.5433 0.78237-0.29146 0.18138zm-2.1827-3.1089c-1.6473-1.464-1.5081 1.5226 0 0zm2.4471-10.186c-1.1534-0.86103-1.831 1.014 0 0zm29.751 28.136c-1.3627-0.6913-0.39606-3.8712-0.51463-5.7189 4.542-6.0107 9.4924-11.753 15.572-16.275 3.3636-2.5078 6.3874-5.6937 10.057-7.6563 1.174 1.6826 2.0182 0.22926 1.4598-1.1344-2.3634 1.4705 0.95918-3.0884 2.3361-2.5795 0.78049-1.0148 1.7845 2.4017 3.6004 1.5704 1.6133 1.6413 3.4049 4.7016 1.5308 5.7739 2.6209 1.1362-3.1457 2.0425-0.38081 2.6034-1.5036 1.0942-2.4736 2.4615-3.3514 3.6804 0.86527 0.39454 0.41791 1.6801 0.19843 1.5763-2.0284 0.43911-3.0172 3.8989-3.9429 4.718-4e-3 -3.7456-2.7837 2.0397-5.2793 1.4065-2.648-0.87298-2.4664 2.0542-2.7834 2.6725-0.74287-0.55938 0.25676 3.7083-1.7956 4.8696-2.7675 0.74138 0.47052 0.92812-2.5369 1.8594-2.0313 2.0071-5.6924 2.6139-6.7542-0.56581 0.12733 0.53154 0.65744 3.9317-1.871 3.1065-1.1375 0.0573-2.479-1.3117-4.1217-0.13713-0.33074-0.64139-1.5375 0.87984-1.4228 0.23013zm27.399-17.868c-1.3178-2.3004-1.6285 1.4793 0 0zm-0.26665-4.9766c-1.4321-0.47378-1.4906 1.609 0 5e-5zm1.0449 0.54361c0.31885-1.2495-1.1523-1.3241-0.46791-0.0371-0.70797 0.0784 0.22114 1.1433 0.46791 0.0371zm1.49-3.0121c2.6255-0.72138-0.2174-4.465-1.0122-1.2103-1.3065-0.74896-0.47643 3.0397 1.0122 1.2103zm-1.069-0.62654c1.9545-2.2504 1.8007 0.72857 0 0zm2.3351-3.5196c1.1382-3.0258-1.4191-1.5945-0.47108 0.21871-2.0254 0.53383 0.26272 1.1723 0.47108-0.21871zm-36.783 20.146c-3.2728-3.5142-2.3614-8.2092-1.5397-12.455 0.13132-2.6948 1.957-7.4282 0.69307-8.8584-1.3254 4.365-1.9503 8.9082-3.0499 13.332-2.6092-6.4795-4.3375-13.288-6.6715-19.865-2.2273 0.22687 2.2716 8.3182 0.89243 8.7763-3.2981-2.5111-5.5843-6.9032-8.6754-9.0413 1.0051 1.8679-2.3251 1.0689-2.6485 0.90469-0.60626-2.353-6.256-1.577-2.467 0.28959 1.4891-1.2724 2.9977-0.6139 0.83369 0.0248-0.64265 1.0273-1.9742-0.59353-2.0869 0.99219-1.8722-0.51772 0.3582-2.7301-1.3715-3.7901 2.4081 0.84975-1.5731-1.988 1.0303-0.56833 0.27322-1.5276-2.2566-0.14167-1.2216-1.9916 0.27943-1.86 0.08662-3.2169 0.61697-5.506-2.9257-1.5815 0.22414-8.864 3.0791-7.4637 0.51482-1.4381 4.5846-0.25169 6.0523-1.1382 1.1763 2.5038-0.34476 1.2999-1.9275 2.2271 2.2299-0.53958 3.9086 3.5922 0.7697 3.4906-0.13212 2.4881-1.1048 1.5479-0.87324 0.9582-0.56469 0.81892-1.6786 2.2391-1.4996 1.9678 2.2188-0.0496 3.2753-1.2227 3.7064-2.1263 0.38454 1.5457 1.4834 0.35235 0.40836 0.0416 0.58197-1.8084 5.1768-0.233 5.2757-3.0342 1.1687 1.2751 2.0571-0.47544 1.6833-1.295 1.4522-0.81762-0.22646 1.578 2.2018 0.30152-0.27101 1.569-5.4637 2.3772-1.6483 2.7713 0.474 1.1818-2.7038-0.73088-1.5186 1.0163 0.4473-1.7847 1.6144 2.0653-0.17494 1.3293 0.94986 1.3358 3.525-0.83341 2.447-2.3798 0.54379-0.9303 3.0232-0.98712 3.428-1.8323-0.59017 1.1882 5.1916-2.0049 1.7046-2.6936-2.8706-2.709 3.7275-2.1939 1.2642 0.39528 1.4168-0.85765 3.4986-1.758 1.8442 1.3921 2.3768 1.3669 0.87885 4.1986 2.5579 5.7581 0.60943-1.6295 2.9372-1.3874 4.3369-3.4315 0.0435 0.67813 3.2279 1.8507 4.762 0.76281-0.54219 2.2837-0.1516 0.92843 1.2766 2.6522 2.7535-1.8125 0.36541 1.797 1.3522 2.0066 1.9762 0.61927 0.4015 0.37576 2.4381 1.6953-1.6955-0.74057 1.0662-3.2478-7e-3 -0.94487 1.7179-1.932 6.6408-0.19454 2.3714 0.56334 1.3922 1.0421 3.2043-0.0907 3.0539-1.6861 0.23238 0.97097 3.0594 0.71098 1.3795-1.1257-1.8127-2.9284 3.1329 0.0981 1.0744-2.2524 2.0725 0.40052 0.32933-2.9261 1.9596-1.0546-0.57424 1.7446-2.0397 2.8321-1.4016 3.7703-3.0162-1.4195 1.8473 1.578-1.0897 1.781 0.17662 2.6018-2.3942-0.16896-2.7107 2.0293-1.4176 1.3208-1.3955-1.1119-2.9957 0.7905-1.3038-0.57362-4.3984-3.2342-3.605-1.0054 1.2654-0.52446-0.70396 1.6199 1.3563 0.60734 2.2561 0.4496 1.8022 1.5531 1.6815 2.2677 2.7038 0.42581 1.2672-2.6384 3.7301-1.9504 1.4029-1.7047 3.7836-0.40552 1.9435 0.21639-1.8183 2.7216 3.5192 3.898 2.3623 6.6332-1.4653 2.019-2.3378 4.8645-4.1798 6.2954-0.06012-0.22029 0.01222 2.4477-1.054 0.72259 0.84598 4.324-4.3875 6.477-7.3808 8.4774 0.36632-2.8473 2.5439-7.3228 3.5183-10.875-0.24305-3.1672 4.8541-6.0238 1.1249-7.7672 0.02409-2.0552-2.1192-0.36285-0.41623 1.2421-2.537 6.6738-4.9407 13.44-7.8134 19.981-1.0825 2.0747-4.516 6.8701-5.2903 6.0151 0.79214-4.9818 1.7157-10.018 1.6556-15.069-2.0658-0.13214-1.3244 8.5206-2.5576 6.1337-0.22773-2.0435-2.5004-3.4392-1.2044-0.29891 2.212 4.0098-0.14587 8.2775-1.103 12.296-0.32262 2.0423-1.1478-1.023-1.6831-1.4083zm21.486-24.036c-1.7448-3.6418-0.24329 2.113-1.2e-5 -2e-5zm1.7842-0.74164c0.39781-3.224-2.4764 2.3246 0 0zm-2.1925-1.542c-0.76074-1.1532-0.91906 1.395 0 0zm3.1748-0.70556c1.9239-1.231-0.72617-0.7063-0.70477-2.3091-3.2592-1.2598 2.2852 3.6797-1.1093 1.6889-0.0689 0.84717 1.5327 1.7137 1.8141 0.62021zm-6.6461-1.0515c-1.6063-1.2026 0.50102 2.5919 0 0zm5.3378-2.262c1.3987-0.83815-1.9135-0.33454-0.80814-1.3828-0.84625-0.32012-1.7317 1.4436-1.8293 1.4251 2.2129-1.1256 0.68014 1.9743 2.6374-0.0423zm-21.064-1.3065c-0.13456-1.7208-2.1048 1.4969 0 0zm15.189-0.48851c-0.60681-2.0929-1.8463 1.7738 0 0zm-41.939-0.96381c2.2559-0.83082 4.1477-2.598 3.5045-4.8852-2.7052 1.8014 3.6429-3.9172-0.5236-1.047-1.3612 0.82475-0.22202-1.7693-1.9147-0.0311 0.70203 1.4797-1.2947 2.5214-1.1811 3.4466 1.6991-1.4947-3.273 6.3012 0.11489 2.5167zm44.095-2.3788c-0.78897-0.82656-0.78156 2.4731 0 0zm-34.261-2.1774c3.1703-0.87942 0.40256-1.2283-1.1332-0.0381-0.8996 0.74667 1.0699 0.23806 1.1332 0.0381zm3.036-2.0892c-0.87006-1.0458-2.2062 1.8977 0 0zm-9.8547-0.68131c0.94724-0.75791 2.9624-1.1767 0.06038-1.4545-0.77556 0.57801-3.8285 0.44711-1.2581 1.506 0.40967 0.0713 1.4709 0.92615 1.1977-0.0515zm-1.9979-0.5743c1.0993-1.5351 0.57341 0.86366 0 0zm13.049 0.54408c1.1157-2.1954-2.448 1.8037 0 0zm-14.26-0.19681c0.56939-2.2907-2.6946 1.2224-3e-6 0zm8.3421-1.4295c-1.8698-1.4713 0.29819 2.767 0 0zm-1.7632 0.31656c2.823-1.2082-2.3915-0.44078 0 0zm18.925-1.0543c0.23794-2.7287-3.9457-1.5484 0 0zm-19.511-0.80936c0.60091 1.2973-0.04517-1.9862-0.80204 0.48497l0.22487-0.15429 0.57717-0.33073zm-6.6171 44.384c1.2766-1.5259 0.98011 1.3985 0 0zm49.029-17.711c0.41574-2.5918 3.5527-5.8282 3.6408-6.9905-1.1792 1.5559 1.2137-4.1135 1.9512-0.49551 1.6242 2.2785 0.33899 4.1642-1.9173 5.074-1.2724-0.0951-2.8236 3.3952-3.6748 2.412zm1.6148-1.9212c1.6941-2.3683-1.5599 0.74422 0 0zm2.1617-1.9811c-0.44596-3.8479-1.4692 2.9535-3e-6 3e-5zm-51.019-1.0557c1.438-0.95066-4.6597 4.1e-4 -1.478-2.0184 0.84424 1.891 2.857-0.60071 2.1795 1.9857-0.0044 0.2536-0.74861 0.43621-0.70154 0.0327zm-8.7312-0.69536c2.8335-2.1417 2.1451 0.29129 0 0zm4.9124-0.36984c-0.94856-1.0748 2.0561 0.3708 0 0zm3.0251-1.2032c-0.07129-1.0188 2.5082 0.88521 0 0zm-1.0583-0.37573c0.93205-2.1683 1.5966-0.0371 0 0zm1.4696-0.62472c1.1113-1.4663 4.9126 0.25596 1.1132 0.14958-0.22761-0.71105-1.5003 0.58051-1.1132-0.14958zm4.2699-1.3434c0.72635-1.3378 1.4172 0.83123 0 0zm51.15-1.4109c0.03578-2.7264 1.2323 0.74124 0 0zm-1.6589-1.4708c-0.4966-1.3868-3.8472 2.0333-1.1827-0.7276-0.33006-1.7777 0.65024-0.83177 2.438 0 0.71572-2.2666-1.4945-2.3497-1.0969-1.2224-2.226-1.4291 1.5967-2.4725 1.0995-1.2684 3.1509 0.52075 0.44552 3.6088-0.91156 3.8245l-0.34644-0.60603zm3.5949-1.1044c-0.7266-1.8521 1.1873 0.73932 5e-6 0zm-3.801-3.6011c-3.3075 0.48115-0.16807-5.8284-2.5708-2.1076 0.02311-1.9446 0.97103-3.5079 2.0243-4.2321-2.2006-1.1466-0.3688-2.2711-1.2967-3.1249-0.46244 0.54446 3.1906-2.6784 2.5052 0.27711-1.3031 2.2698 1.2152-0.2656 0.96384 2.0527 0.94986-2.626-0.81213-3.1206 1.868-4.8 4.0877 0.58225 2.5706 4.8776 0.39702 5.6578-1.4367-1.3559-4.0896 0.21674-2.4458 2.4736 2.6266-0.13451-0.42034 0.45106 1.1642 2.186-1.7644-0.0687-1.3959 1.7953-2.6093 1.6172zm0.35544-0.67273c-0.81011-3.4861-0.76406 1.9859 0 0zm-0.76197-7.5502c-0.84672-0.93291-0.77112 1.703-0.01332 0.26174zm-9.4932 4.7508c-0.30294-2.0232-2.2178-0.74984-0.65117-1.7343 1.4012 2.0033 1.5529 1.7693 1.6826 1.099 1.4675 1.1199-1.2647 1.7061-1.0314 0.63536zm12.356-1.9856c-1.1822-1.3607 2.0953 0.52645 0 0zm-16.867-0.35394c0.48473-1.8873 1.3989 0.92278 0 0zm4.0952-0.14786c0.4471-2.6898-4.6357-0.25449-2.9707-1.4661 0.90628 0.95066-1.8544-3.2492-1.6379-2.4371-1.5431 0.25599 1.8839 2.6434-1.0079 1.7592 0.19236-1.1329-0.05337-3.2511 1.2824-2.795-1.3199-1.186-3.0531 1.1683-2.4853-0.88333-1.4874-0.42914-3.7748-2.5552-4.03-3.6917 1.6495-0.99528 4.0047 0.50689 2.9236-1.186 0.85866-1.8795 3.2397 0.23979 0.52954-1.8411 2.9502-1.3958-3.8816-0.54579-0.3732-1.9863 2.0755-2.4778-0.91253 1.9128 2.113 1.3761-0.27012-1.7461 0.11761-4.2497 1.4837-3.4857-3.0156 0.93349 3.3346 0.28387 1.0038 2.0007 1.7484-0.28557-0.88518 4.333-0.49 0.39823-1.4459 0.56535 0.25472-2.5297-1.524-0.7742-0.11484 1.3964 0.36247 1.0712 1.3289 1.3644-1.844 0.64634 1.0155 1.2286-1.5699 2.2805 0.977 0.79126-3.0153 1.7572-1.0046 2.6282 1.2211-1.1597 3.2288-1.3427 2.8839-3.2428 0.73591 1.3194-2.8988 5.7722 0.62984 4.2108-0.96632-2.8112 0.8407-0.55801 0.01935 1.2103 2.2911-1.925-0.31087 1.8906 1.7808 0.26222 0.76915 1.7231 2.0402 3.4613 0.59413 4.179 1.2839 1.6706 3.8317 0.94449 0.5207 2.1197zm-1.9978-2.6359c1.2727-1.8917-2.489 1.4345 0 0zm-0.64214-1.1566c-1.195-2.2502-0.69507 1.3111 0 0zm-5.4128-4.2435c2.1162-2.5547-2.7284-0.1002 0 0zm3.0315 0.0102c-1.3462-1.7652-1.2656 0.59629 0 0zm-0.90265-4.9879c-1.1358-0.1511 0.56622 1.952 0 0zm-26.867 11.809c0.38281-1.8374-3.9264-2.1438-0.36422-1.5505 3.4345 0.0881 2.5811 1.4024 0.36422 1.5505zm26.117-0.82967c0.81478-2.8244 0.84998 0.57724 0 0zm12.786-1.3229c-1.4371 0.15996-0.09043-3.3997 0.16724-0.22058 0.22846 0.0789-0.26439 0.87487-0.16724 0.22058zm-23.335-1.8045c2.3452-1.0191 0.3154 0.79638-0.639 0.45214zm1.8829 0.31148c1.8235-1.2621 1.2435 0.41532 0 0zm-10.054-0.29289c1.4679-1.1143 0.93207 1.0055 0 0zm11.625-0.33915c-1.593-1.9083 0.73609-0.66942 0.67786 0.32232zm15.134 0.14553c-1.9717-0.75831-1.8477-1.5167-1.7088-2.3673 1.5695-0.78705 2.541-0.40605 1.0044 1.4615 0.66709 0.42747 3.3792 1.1748 0.70436 0.90583zm9.7115-0.17648c-2.1701 0.37671-0.88783-3.1974 0.09844-0.56785 1.6-2.1977 2.1802 1.7096-0.09844 0.56785zm-24.388-0.93073c-1.2991-0.59613-1.9291-1.4899 0.02206-2.2048 0.64676 0.4554 0.75996-2.4708 1.9177-0.0659 1.8559 0.22173-2.1036 1.6646 0.94738 1.5426 1.5194 2.8511-1.7735-0.67149-2.3534 1.4999l-0.3133-0.22668-0.22045-0.54498zm18.08-0.24942c-1.4207-2.8489 4.9865-1.2066 3.1526-3.144-0.10205 1.7997-3.3888 0.62673-3.3417 0.31745 2.6802 1.0966 2.1587-3.8793 3.0825-1.2822 1.1037-0.16244 1.8371 3.1448-0.14528 3.3264-1.6546-3.2119-2.1425 1.9238-2.7481 0.78233zm8.3627-0.98493c0.03132-2.3787 1.2437 1.5029 0 0zm-1.5609-0.90702c-0.21748-2.2277 0.88885 1.4623 0 0zm-0.98099-0.26197c-0.8223-2.4448 1.2676 1.6742 0 0zm-12.777-0.61161c1.0246-1.32 2.094 1.3468 0 0zm-12.527-0.31291c-2.7029-1.839 0.17147-3.4048 2.2176-3.1065 0.76786 1.8326-2.5111 1.5648-1.9946 3.4664l-0.223-0.35987zm3.0872-0.59683c0.33913-1.7531 3.7184 1e-3 2.4413-1.5504 5.1544-0.58692-1.9393 2.023-2.4413 1.5504zm9.7453-0.044c-2.5288-3.4098 2.4238 0.66161 0 0zm-16.276-0.67604c0.10037-1.6899-2.1251-0.90425-0.99656-2.6253-3.5667-0.0953-2.9216-3.782 0.63516-2.1447-2.2175 1.8217 0.86073 3.1094 0.43988 1.2993 1.7809 0.76774 0.77438-2.7942 2.9233-2.0536 0.17579-2.9234 1.3085 4.691-1.4478 3.2937 2.2837 0.32275-1.6356 3.162-1.5539 2.2306zm1.378-1.0575c0.76863-1.3662-2.5948 1.3912 0 0zm19.561-0.14502c-1.0278-0.20068-0.17034-3.3877 1.1114-0.80141-1.6233-2.0629-0.19162 1.9462-1.1114 0.80141zm-11.904-0.25884c2.3517-2.365 0.4487 1.1446 0 0zm-3.3769-1.8298c0.20097-2.3463 3.9825-2.7502 1.0936-0.33156-0.18095 0.0373-0.99143 1.1386-1.0936 0.33156zm10.397 0.19029c0.37301-2.7741 2.1167 0.54589 0 0zm-6.6146-1.0896c2.4709-2.6529 0.68922 1.6787 0 0z" fill="#a9cb90"/><path d="m57.912 199.97c-1.9596 0.42318-1.9382-1.6711-2.0289-1.4427-1.3344 0.87992-1.2103-2.2908-1.8938 0.0248-2.2675-0.0678-7.6998-3.2758-5.7008-0.18226-2.1938-2.5892-6.7846-2.0805-8.3103-4.4187 0.35271-2.2897-1.5818-2.2766-1.8106-3.6884-1.2593 1.0764-7.2541 2.2248-3.4331 0.31202-0.45926-0.7958-1.9047-4.4041-3.8372-2.4171-3.9374-0.55699 3.8655-0.80177 1.7979-3.6288-2.867 0.35808-5.5333 0.0834-5.0676-2.9058-1.4032-0.87595-1.6714-6.6924 0.38647-3.6189-2.1065 1.077-0.34204-0.11464 0.2912 1.6399 3.0026 0.35754 1.428-2.1428 0.53764-4.0419 2.0712 0.035-2.5994-4.1664 1.1993-3.1454 2.0411-0.7543-0.16601 1.6216 2.2052-0.10904 0.79654-0.89152 5.5942 2.7609 2.6159-0.3886-3.6381-1.8661 1.4777-0.91286 2.0674 1.5157 5.3021 5.2884 11.271 9.9537 16.098 15.693 1.6537 3.4831 4.7592 7.0397 4.8834 10.802zm-11.046-3.845c0.16139-1.2044-3.0378 0.65111 0 0zm-11.106-7.6105c-0.29525-2.0396-2.6443-0.67223-0.99858-0.63302 0.39948-1.0996 0.2505 1.5293 0.99858 0.63302zm3.4627-4.4695c-1.3716-1.4154-0.67909 1.4322 0 0zm-10.4-0.52917c-0.73297-1.0866-1.2137 1.4026 0 0zm9.5969-0.0418c-0.1088-1.6819-2.046 0.16715 0 0zm-7.8083-0.95039c1.3125-1.628-2.8178-1.5565-0.31992 0.22238-0.19178 0.72744 0.6131 0.17904 0.31992-0.22238zm0.24618-6.0193c-0.04124-0.5631-2.8152 0.97065 0 0zm0.75768-0.94768c-0.76092-1.8279-0.35522 1.4639 0 0zm30.586 20.915c-0.039-1.5998 0.01457-3.1643 1.3806-4.229 6.3951-8.8478 15.15-15.54 23.686-22.178 2.6911 0.29669-0.05637 3.9429 2.6598 4.983-2.6619 1.839-2.7795 3.0796-0.13383 2.7024-1.3733 1.7168 3.1139-1.3088 1.7005-1.7085 0.69056 0.93902 0.52688-1.9831 1.257-0.17441 1.2711-2.7749 1.9561-4.1069 1.8523-6.6267 2.2015-0.32446-2.6122-0.61547 0.52815-1.1966 3.1929 1.8774-0.46444 4.4624-0.84673 6.7654 0.21337 1.3525 1.2282 4.1237-0.53811 3.0784-0.61936 1.4439-7.1574 3.5686-5.2279 4.0659 1.719 1.1983 1.0265-1.4388 1.6606-0.95151 1.4052 0.0279 4.777-1.1056 1.6864 0.6831-1.096 0.95298-2.2099 3.3663-2.4675 3.3303-1.6416-0.77848-4.4643 3.1696-7.2416 2.4979-3.0112 1.8262-0.71276 5.0883-2.3712 6.7857-1.6824 0.31143-4.4595-1.2643-3.4767 1.0716-0.96868 0.39932 1.8522 1.2329-0.80648 2.3407-1.5 1.4981-0.15658-1.9381-1.9791 0.12025-1.2304 2.8514-4.3478-4.6633-3.3513 0.35826 0.02804 2.4837-5.0716-0.84562-7.437 0.94898-1.3022 0.41105-0.29548-1.9792-0.53416-2.6668zm26.139-17.719c1.1497-1.0978-3.6958 1.3034 0-1e-5zm0.26458-3.3797c-1.7076-1.2936-0.82316 1.218 0 0zm-3.4396-1.4285c-0.93904-2.997-1.0444 1.3057 0 0zm2.3932-2.2033c-0.54707-2.1936-0.52351 1.0622-2.2766 0.45149 0.82799-0.0506 1.571 0.83387 2.2766-0.45149zm8.4547-1.0259c-1.4642-2.5664-0.57963 1.0687 0 0zm-18.587 24.712c0.47213-1.7043 3.8166-0.51282 0.3165 0.27163l-0.3556 0.23449zm-20.482-5.2074c-3.2184-3.4381-2.3566-8.0248-1.5314-12.186 0.05514-2.701 2.1953-7.9497 0.64117-9.1722-1.3861 4.3716-1.9322 8.9674-3.0433 13.414-2.3543-6.1312-4.0312-12.634-6.124-18.736 3.3068-1.32 3.9243 1.6702 3.6859 1.7072 1.3513 2.6882 3.704-2.5099 3.8166-4.6845-2.5305 0.13858-4.7734-1.5127-4.5464-2.0503-0.19751 0.45927-2.8875-1.4916-0.19844-0.78214 2.8812 1.6826 6.2143-2.03 7.3656 1.7331 2.1516 2.5277 4.4184-4.3911 2.1151-2.0966-1.3079-0.64498-0.87189-1.7038-1.9295-1.7647-1.0126-1.0185-3.1953 0.84689-4.5743 0.82491 0.90856 2.7541-0.69033-0.37714-0.57109-0.47304-1.7137 1.241-7.778-1.7359-2.7816-0.52596-0.22454-0.66656-4.1953-1.6411-0.67501-1.6036 2.7036 0.77658-1.5984-1.1128 1.8038-1.6619 0.86824-0.14692-0.79362-2.0194 1.343-0.41538 1.5497-2.0827-0.9696-1.4479-1.1247-1.8504 1.4787-1.0159 2.0452-1.8472 4.0408-2.1252 1.7853-0.29267 3.518-0.42178 3.2874 1.7452 2.3683-1.2102-3.7177 2.1521 0.35526 1.1515 0.49858-0.79432 1.4616 3.9584 2.4279 0.5412 1.3071 0.53959-0.02299 1.9078 2.0957-0.0967 1.8377-0.25157-1.7709-1.6465 1.9775-1.1083 0.39535-2.2309 0.20752 3.3627 2.4626 0.41785 3.1048-1.3843-2.1136 3.5617 1.4658 1.105 1.6921 0.16608-1.3951 2.59 1.7032 1.0545 1.9014-0.5848-0.455 4.6448 2.1169 2.5146-1.7513 1.3522-0.93788 2.2449-0.29561 2.1463-0.41576 1.2333 1.7497 8e-3 -0.2818 1.625 1.4426-0.3692 3.032-1.0292 1.5114 0.92484 1.4674-0.47385 0.82062-3.4476 1.7754-1.0153-0.08567 1.4334-2.8741 2.0498-1.1751 2.7337-3.0575 0.36408 0.65055 1.4758-1.0743 2.2598 3.1637-0.29064-1.2217 5.3946-1.4848 7.746-2.4218 5.9624-4.0962 12.531-8.9671 17.081-1.554 2.2944-0.37721-1.1484-0.33966-2.1978 0.61693-4.2603 1.4931-8.5741 1.2832-12.881-1.8677 0.77943-1.4767 4.393-2.1285 6.4449-0.116 1.3937-2.3744-5.8541-1.834-1.3083 0.33719 2.1397 1.9518 4.1705 0.86243 6.3291-0.62487 2.5018-1.2436 5.0107-2.1124 7.4414-0.44783-0.73548-0.89565-1.471-1.3435-2.2064zm3.1669-29.706c0.8969-1.642-2.2454 1.3649 0 0zm-7.707-1.3832c1.8172 0.1535 3.3648-0.5252 0.31319-0.49119-1.2505 0.17867-3.2155 0.87678-0.71869 0.78117zm12.492-8.1804c0.31127-1.9801-1.1108 1.3891 0 0zm-10.539-0.49911c0.61738-0.31493-2.6103-0.24832-0.02331-1.0597-0.03675-2.1899-3.7337 2.2508 0.02331 1.0597zm1.8179-0.17079c1.1972-1.2082-2.5081 1.0666-0.04771 0.20485zm-8.6933 30.413c-2.4448-3.1166-9.1806-6.057-9.3416-9.192 1.4698 1.8298-0.65166-2.8806 1.4-0.11438 1.4192 3.4722 0.65357-0.0972 0.13297-1.525-3.3237-1.173 1.0672-1.4919 0.66007-4.2956 3.0042 3.241 5.6062 6.8608 8.4242 10.276 0.4815 2.3481 1.0781 4.6773 1.417 7.0511-0.98998-0.59449-1.8128-1.4573-2.6926-2.2002zm-4.275-5.455c-2.5561-1.6656-2.0238-2.0172-0.23851-1.2603-0.08786-2.4587-1.2509-0.25825-2.1645-1.8839 0.75705 1.7373-2.4688 1.6276 0.59642 2.6786 0.58844-0.14394 1.9475 1.4738 1.8066 0.46548zm28.101 2.4064c1.7601-4.5736 2.9497-9.3691 4.912-13.856 1.5444 0.85579-0.48864 4.0621 2.3469 3.0922-0.16346-1.6548-1.0002-3.1357 0.21856-3.0924-0.59477-3.0113-0.64114 1.1177-1.5166-2.1895-1.3217-0.1751-3.1132-0.93063-1.1363-1.7637 1.0596 1.0809 2.3453-0.83709 2.3432 1.3063 2.9033 0.17554-1.4681 6.5638 2.1559 4.5876-0.58864 1.7817 0.60187 2.0326-1.2626 1.6699 1.2302 1.6877-0.18863 5.6491-0.6951 2.8839-1.827-1.7454 0.11909-4.4198-2.0847-1.5531 0.69332 0.62648 1.4387 2.6266 1.7592 4.2449-1.1315 2.8354-3.5992 4.6189-6.1667 6.0918-2.4966 2.1158-1.3015 0.0948-0.87371-1.4217zm8.0374-8.4076c-1.3403-1.578-1.4893 0.67929 0 0zm-2.6635-4.4984c-1.4283-0.23856-0.47074 2.0639 0 0zm18.125 11.474c1.1863-1.9057 0.82636-4.3609 2.7195-5.3903-0.56119 2.6342-1.1985 3.5963-2.2148 5.5893l-0.26085 0.0113-0.24381-0.21028zm-67.255-2.7549c-1.1424-0.77266 0.82485-1.46 0.70476 0.20405l-0.70476-0.20407zm53.069-0.91092c2.0406-1.6097 1.745-0.55573 0.27639 0.69108-0.72831 0.99001-0.55865-0.40308-0.27639-0.69108zm-34.901-2.8565c-2.8693-2.4932-4.0419-5.6882-7.1419-7.7464-0.10036 1.8892-4.5082-0.33043-5.3829-1.6618-2.6274-3.7663 3.9865-5.2818 3.5969-1.7451 0.30409 1.9854 1.5473 2.5922 2.7971 0.42781 1.5774 0.42027 5.4064-2.6118 4.4273-0.71266 1.1705 0.6553-4.3427 1.1314-3.641 2.2098 2.4568-0.54129 3.8144 1.001 4.088 0.44646-1.5392 2.8057 4.2817-1.7491 1.3779 1.1319-0.95779 1.0896 0.51179 2.8979 0.55152 4.2828 0.09123 1.9907 3.3736 8.527-0.67279 3.3672zm-8.7751-8.5292c0.67941-2.2586-3.3349 1.0927 0 0zm-6.2839 10.045c1.3706-1.0635 1.937 0.37911 0 0zm6.6146-1.1664c1.7163-1.7018 1.4686 1.4099 0 0zm44.715-0.61039c0.5787-1.86 1.4242-0.58063 0 0zm10.319-1.4706c-1.1193-3.4084 1.6752-0.16309 0.07037 0.691zm-6.4172-0.25247c-0.16825-3.2741 1.3524 1.4567 0 0zm-40.943-8.4961c1.8167-1.6595 2.726 0.032 0.42544 0.20694 0.23015 0.77935-0.64871 0.24515-0.42544-0.20694zm34.512-0.56241c0.64574-0.68233-1.2143-0.82196 1.3381-1.633 2.1284-0.0483-3.2112 3.6189-1.3381 1.633zm8.5369 0.042c-1.2387-1.9435 0.83375-0.27941 0.48916 0.44741l-0.12091-0.0179zm-41.197-0.95587c0.56076-1.2584 1.7272 0.9294 0 0zm7.176-0.25467c-0.8127-2.2109 2.4075 1.14 0 0zm20.891-0.34063c-1.9923-1.0373-1.2512-1.6589-0.20111-0.66181-0.76297-1.3814-1.3131-1.9537 0.64462-1.4098-0.5516 2.8122 2.1495-2.6959 2.4578-0.32034-2.4802 0.19723 1.2307 2.659-2.1195 2.7202l-0.78184-0.32835zm2.7255-0.0691c-0.03149-1.508 5.3427-3.9419 2.8145-1.3175-1.4926-1.0407-1.6675 2.7458-2.8145 1.3175zm-30.263-0.40398c0.33899-1.3308 2.5906 0.85349 0 0zm7.7869-0.0351c0.76311-2.4766 1.1291 1.0114 0 0zm30.119-2.5501c-0.06642-0.98962 2.2206-0.1889 0.07012 0.99218zm2.046 0.8563c0.41397-2.2959-0.95792-2.7174 1.4154-1.4 0.38917 0.10595-1.2639 1.8988-1.4154 1.4zm-5.162-2.2497c-2.2573-1.1181 1.6409-0.08 0 0zm3.5971-0.32642c-1.3611-1.1036 0.65328-2.0716 1.3323-1.5214-0.1655 0.44596-1.0183 3.05-1.3323 1.5214zm0.74127-0.89597c-1.4537-0.64678 0.4622 1.5287 0 0zm-1.0742-1.3852c0.3218-2.2102 0.52848-0.436 1.3687-0.95996-0.39126-2.1642 1.5396 1.7098-1.5509 1.1363zm3.9379-0.82767c-2.4056-1.5837-1.012-1.5408 0.25477-3.1146-2.3109-3.9314 4.5137-0.23768 1.8447 1.576-0.17566 0.69394-1.477 3.0337-2.0995 1.5386zm1.3996-2.5356c-0.76075-1.1532-0.91905 1.395 0 0zm-17.723-1.5992c0.80919-1.5489 2.257 0.79564 0 1e-5zm14.482-0.28093c-1.4936-1.2548 2.2182-0.0139 0 0zm-17.041-1.0648c1.2625-5.1225 0.22221 2.469 0 0zm-0.88438 0.0565c-0.50287-1.0779 0.26953-1.5848-0.47546-2.1372 1.4613-1.1886 0.9105 3.8894 0.47546 2.1372zm-6.6146-0.0877c1.4729-1.9658 1.6866 0.0289 0 0zm-1.5875-1.0295c1.4667-2.5224 2.9009 1.067 0 0zm9.3531-1.2719c-2.7693-0.5665 1.8135-0.69436 0 0zm1.7678-4.241c0.46952-1.6706 1.2239-0.90315 0.12006 0.047zm-0.70792-2.3672c0.48734-2.0017 0.42171 1.6832 0 0z" fill="#9dc481"/><path d="m57.087 199.59c-0.09539-1.1267-2.0678 0.78527-0.1126-1.5172 1.4852 0.32283-2.558-0.63579-2.9103-0.68246 0.61027 2.5403-4.9951-0.83112-3.3044-0.82955-1.8037 0.27194 0.0269-3.1372-2.8033-3.4324-2.2573-0.82283-1.3764-0.11995-0.62765 0.44232 0.10906-0.21467 2.6441 0.83893 2.3622 2.1005-2.186-1.6638-4.0964 0.23662-6.4322-0.20734-3.0045-0.0846 1.2179-4.3137-2.3081-1.9169-0.7878 3.6686-0.37707-3.9388-1.9905-2.0868-0.53416-1.6054 1.4163-1.6035-0.02371-2.6603 1.5589-1.0042 0.60348-1.9873-0.83521-0.46512 0.22027-0.0742 3.1506-4.0823-0.16518-2.5693-3.2026 0.70365 3.7247-1.033 1.3229-1.9608-2.1201-2.3062 0.57573-3.516-1.2877-5.2792 2.252 0.35109 1.7415-3.5068 3.554-0.59425 5.0429 4.8254 11.112 9.0327 13.922 15.665 0.13671 1.0022 4.3352 6.5635 1.6402 5.9938zm-13.33-4.8286c0.31072-0.43325 2.6025-1.5818 0.30112-2.2486-1.8702 1.0527-1.7897 2.5781-0.30112 2.2486zm-2.0505-2.1901c0.62737-2.6591-3.2605 1.5145 0 0zm-1.4363-3.8631c-1.0721-1.6129 0.26161 2.3906 0 0zm3.1633-4.3398c-1.04-1.8432-3.2953 1.5228 0 0zm-1.3037-1.1072c1.5052-3.0256-2.5925 1.5363 0 0zm20.479 15.814c-1.9041-2.7974 0.93658-6.8255 2.1562-8.0861 2.0122-1.251 2.707-4.708 5.7719-6.8959 3.0317-2.5549 5.4529-4.9036 8.589-7.5186 3.2559-2.7405-0.19438 0.11218 1.1869 0.64772 1.7914-0.41508 0.87956 2.4524 2.4621 0.80405 0.52354-0.64515 2.0629-1.4769 3.2158 0.33073 0.13753-2.9815 0.12024 2.7065 2.2978 0.58677 3.136-0.69924-0.66319 0.5648 0.36654 2.0415-2.3136 0.8997-1.1745 1.8555-0.83832 1.8798 1.0487-2.5503 2.8159 2.9123 1.4697 1.4284-2.0459 1.2548-3.35 2.4285-5.2573 2.4102-0.0579 0.79314-1.5688 0.40514-1.1662-0.26083-1.8184-0.81641-1.7627 2.0638-2.6979 3.8752 0.73614 3.1099-0.6082 5.0703-3.4716 3.1514-2.4749 0.58794-0.95038 0.86957-1.6161 1.434-2.3756-0.48593-0.35012 2.2999 1.3949 1.308-0.13073 2.0349-3.2538 0.12419-3.6756 2.4377-1.4354-1.2934-3.2507-4.0153-2.9317-0.618-2.028 1.9142-4.1031-0.21232-6.1962-1e-3 -0.01419 0.71368-0.14454 1.4192-1.0599 1.0452zm5.8793-0.86397c0.75995-1.6891-2.0509 0.91338 0 0zm9.8381-5.367c-1.4393-0.49929-0.03327 1.2506 0 0zm-3.4353-6.6338c-2.0475-1.2403 3.5204 0.62119 1.431-1.9032-1.9834-0.62537-0.96974-1.6287-2.7519-0.9431 0.76095-3.2504-0.6925 2.2621-2.1638 1.0787 1.2508 1.4428 4.3726-1.5346 2.022 0.72328-0.98011 1.1535 1.2398 0.0854 1.9257 1.7664l-0.0901-0.25766-0.37292-0.46422zm8.6505-2.4428c-0.49538-1.0486-1.0298 1.8361 0 0zm-7.1473-2.3187c0.55247-1.9201-2.1966 1.8801 0 0zm1.6267-0.049c0.2515-0.31586 2.6028-0.11829 2.4476-2.5016-0.0029-2.8254-0.34964 0.5606-1.7893-0.41775-0.53708 0.65631 1.44 2.8278-0.60509 0.97599-2.8584-0.11405-3.0964 1.5856-0.75849 1.2525-0.81727 0.88783 0.08822 2.1389 0.70525 0.69081zm3.9688-0.0597c-1.8736-1.9699-0.41087 1.7546 0 0zm-25.343 8.3295c-3.2537-3.6363-1.6593-8.5108-1.051-12.782-0.01195-2.2287 2.2013-7.4791 0.43513-8.0041-1.3695 4.3348-1.9251 8.8858-2.9733 13.306-2.1292-5.3669-3.6865-10.969-5.464-16.468 2.7904 0.56214 5.2271 1.1241 6.1173-1.9331 2.3597 0.58728 2.4146-0.55709 4.1373-2.0546 1.8948-0.53814 4.7001-2.291 3.1272-3.635 0.99858-1.1606-3.8773-4.4463-6.0332-2.5689-1.6534 0.27396-2.1728 1.2645-2.7028-0.45565-2.1007 0.0298 1.3785 1.2946-1.6208 0.44382 0.60946-0.85305-1.8243-1.021-0.18988-1.9471 0.85155-0.31236 4.1585-0.87698 5.4414-1.8701 0.13742-0.32983 2.4752 1.3187 1.0849-0.33073 0.527-1.8158 0.95072 2.1522 1.015 1.3287 1.2466-3.8778 0.35484 1.484 2.7302-0.37079 1.3696 1.1264 2.8653-2.7708 4.8064-0.51232 0.49481-0.72523 4.6529-1.8772 1.2186 0.4821-0.33216 2.1087 3.784-2.1074 1.4093 1.3788 0.38652 1.1163 0.90095-0.9617 1.5644 0.32902 1.6312-2.64 1.0188-0.25518 0.72339 1.1106 1.2375 0.12732-0.06532 4.9294 1.5369 3.2056-0.54278 1.5958 3.2584-0.78432 0.87135 1.6674 3.8256-1.1242-2.3468 3.0371-0.10149 3.2912-0.44082 1.7309 3.3554-0.75996 1.2012 1.6381-2.4422 6.3023-4.4796 12.815-7.5515 18.856-0.03279 1.6262-5.2262 2.8732-3.3579 3.188 1.564 0.0456-0.62394-0.99261 1.2746-1.0047-0.44643 1.8307-3.7714 5.2478-2.1322 1.1114 0.69982-4.4697 1.4334-9.0007 1.358-13.527-1.9332 0.61654-1.5029 4.3432-2.1562 6.3575-0.1618 1.6499-1.7769-5.2141-2.1272-1.537 0.62934 2.1135 2.137 4.2555 1.141 6.4852-1.081 2.0414-1.1785 11.312-3.7321 4.8226zm12.721-15.764c-2.2585-2.5589-2.0476 2.4881 0.0039 0.74695l0.20676-0.54969-0.21066-0.19731zm-20.108-7.3669c-1.3825-1.3244-0.93617 1.4091 0 0zm21.605-4.7184c1.4793-1.8545-3.1821 0.0188-2.5709-0.54751 1.7751 0.72503 1.4194 2.6525 2.5709 0.54751zm-2.7061-3.0427c-0.29048-1.0409-1.5333 1.1983-1.3501-0.52917-2.7673 0.94135 1.0895 1.583 1.3501 0.52917zm-2.0439-6.0854c-0.63112-1.4986-1.4282 1.5771 0 0zm-31.75 38.629c2.2494-0.89606-0.29182 0.97605 0 0zm1.4571-0.79072c1.1034-0.71171 3.5902-0.64903 0.36213 0.24105l-0.21125-0.0553-0.15088-0.18574zm-0.05936-4.7382c1.7639-2.345 1.2171 1.3403 0 0zm12.493-4.438c-1.632-1.6895-7.3086-6.0122-6.871-6.2056 1.9033 1.3318 2.3908 1.2325 3.0274 1.9636 3.52e-4 -1.6092-0.21445-4.0554-2.6169-4.812-2.0203-1.479-2.6308-4.2835-1.2937-6.6336 2.754 3.6246 6.1275 6.9151 8.3256 10.881-0.09888 1.5787 3.413 9.566-0.57145 4.8063zm-3.1937-8.5841c-1.5157-1.0264-1.4617 1.3961 0 0zm-1.5084-0.94478c-1.3924-1.8756-0.78271 1.513 0 0zm46.005 10.875c-0.34129-0.90696 5.145-2.8774 1.597-0.86331-0.46987 0.0596-1.1221 2.0741-1.597 0.86331zm-18.24-5.0473c1.9266-2.8709 1.6611-9.8365 4.9633-10.312 0.09396 3.6532 3.4038 5.269 0.56829 8.2545-1.4077 1.3481-5.6433 4.571-6.3231 4.1932 0.26384-0.71191 0.52768-1.4238 0.79151-2.1357zm17.991 2.379c1.4149-1.5349 2.3058-3.0359 4.4831-4.9947-1.4427 1.58-1.7751 3.7612-0.03295 1.0444-0.69044 0.63798 2.5244 0.47256 0.64242 1.2042-1.17 0.29001-3.042 3.1221-5.0926 2.7462zm-2.3812-1.8521c-1.0966-1.3819 4.5839 0.37562 0.42304 0.14954l-0.42304-0.14956zm0.06652-1.4452c-0.24154-0.41917 3.0816-0.91117 0.43469 0.091zm-48.344-1.0904c-1.8129-0.49639-1.6802-0.95528-2.6673-2.771 0.79116 0.48458 5.3232 5.008 2.6673 2.771zm44.312 0.0496c1.5821-2.6896-0.69028 2.8978 0 0zm-1.5457-0.44653c0.82315-1.2271 0.62062 2.1793 0 0zm2.5457-1.2164c0.08307-0.74953-1.5941-1.2996 0.6435-0.51849 0.2058 0.4366-1.6041 1.3882-0.6435 0.51849zm-38.244-4.3345c-2.5768-2.231-3.5762-4.9453-5.9843-6.99-0.26108-0.51781 2.4341-0.28818 0.64872-0.88148 1.5751-0.19142-2.3773-1.7669 0.69021-0.69769 2.2099-0.0792 1.4508 3.328 2.6774 0.7184 0.53314 0.77643-0.2214 2.8148 1.4825 0.93798 0.52659 2.2205 2.8175 7.5899 1.7325 8.1181l-0.56684-0.52579-0.68017-0.67945zm33.248 0.7076c-1.1755-2.1355 1.8911 1.6829 0 0zm-0.41785-1.8657c-1.6572-0.06 2.1815-3.3472 0.42658-0.65385 0.14223 0.30487 0.0049 1.5395-0.42658 0.65385zm-3.2622-2.5073c1.1562-1.1603 1.3577 1.3693 0 0zm-37.881-3.5498c1.381-1.0413 0.9394 1.0628 0 0zm0.92604-0.79375c1.6745-1.0989 1.3722 0.99331 0 0zm-4.9221-1.2152c-1.2551-3.8333 2.1824 3.3259 2e-6 0zm21.478 0.18761c-0.01453-1.6076 2.5058 0.20455 0 0zm-2.3341-0.48819c-0.97296-0.79083 0.88661-1.5973 0.76763-0.41785 3.9167-1.0717 0.97163 0.99182-0.76763 0.41785zm27.641-2.496c1.491-1.2972 0.58758 1.0134 0 0zm-4.7548-0.40828c-2.8292-3.7908 4.1699 0.63261 0 0zm4.8795-1.9482c0.47928-2.5158 1.6827 1.196 0 0zm-23.466-5.3773c-2.1562-2.1457 2.4736 0.32849 0.11199 0.2603zm29.964-0.50739c0.90971-2.2755 0.42452 1.6326 0 0zm2.712 0.0822c1.5141-0.93299-3.0013-0.81188-0.39688-1.993 0.6944-1.0477-0.26374-4.1045 1.8521-2.0254 1.3015 1.0268-0.26928 3.9971-1.4552 4.0184zm1.1906-2.8064c-0.6942-2.1246-1.3442 2.8502 0 0zm-36.079 2.1391c-1.0313-1.4782 2.9004-0.69113 0.09556-0.43876 0.3827 0.35475 1.3605 0.91047-0.09556 0.43876z" fill="#98c07a"/><path d="m62.221 196.37c-0.13688-4.1828 2.4167-3.3918 4.1976-5.6484-1.105-2.5022 1.9898-3.5072 0.56193-0.84936-0.41572 2.9684 3.5525-0.80382 0.47783 0.1683 0.5071-1.7051-0.1585-3.6637 1.8526-4.6949 0.88298-1.2652 6.0105-5.281 3.5948-3.1846-1.6668 1.3258-5.492 5.3245-4.0104 5.4586 0.18356-1.7347 3.7665-1.4219 2.4581 0.29296 1.3108 0.86984 4.3886-1.149 4.4433 1.3607 3.0897-0.51299-1.9287-2.7899 1.1661-1.8873 1.647-1.2267 3.7042-2.9786 4.2089 0.17616-1.7888 1.4895-1.3276 4.3056-0.93827 6.2753-1.7715 0.59011-6.643-1.705-6.5169 2.276 1.818-0.60227 4.1682 1.1442 1.1585 0.92808-1.9474-0.25273-1.7409 2.7429-3.352 0.50449 1.994-0.027-3.6662-3.0202-1.6249 0.47277-1.7002-0.93826-6.7109 1.0548-5.1377-1.5494-2.4062-0.0341-2.8128 4.1216-2.5397-0.0992zm16.197-3.4623c-0.90777-1.4244-1.2271 1.7271 0 0zm-8.0134-4.4943c-0.48816-2.5985-0.68141 2.5069 0 0zm-18.225 9.4382c-2.4779-1.1008-0.90567-4.4906-3.5044-4.3887-2.0788-1.5891 3.7047-0.52251 1.5434-3.173 0.48517 2.1989-3.1901-1.0463-1.0749 1.3026 0.55225 0.50522-3.4866-1.5033-2.3972-0.11926 1.9912 2.4466-2.9126-0.89603-4.2658 0.27206 1.0584 1.2239-1.8731-0.7298-1.3255-0.89218-2.3044 1.9835-1.366-1.0452-0.74428-2.8524-1.3178-1.3152 2.9126-3.7269 0.18828-0.91857 2.8512-1.1608 4.9849-5.1925 2.4847-4.9485 2.549-1.8688-1.5265-1.1068-0.80774-3.1408-1.801-0.89759-1.9814 0.81702-1.3169-1.3142 0.90218 0.33266 5.0879 4.4172 7.1386 6.2615 4.3829 3.4351 6.7326 8.5065 9.2389 13.32-1.4355 1.9619-4.1042-1.9817-3.4628 1.0404-0.60619 0.057-1.1589-0.21795-1.6944-0.44845zm2.8568-3.6835c0.0043-1.3352-1.5763 1.0848 0-5e-5zm-1.2138-0.48062c0.15258-1.1621-1.7029 1.093-3e-6 0zm0.49844-1.267c-1.986-0.94111 1.1832 1.3854 0 0zm-4.9869-5.7693c1.9755 0.11127-0.56519-1.0272-1.3534-2.2206 0.21388 0.8913 0.77282 2.2769 0.77207 3.0974 0.34266-0.12773 0.6728-0.48046 0.58128-0.87682zm-1.5174-1.2573c-2.4454-0.19865 0.14188 1.5706 0 0zm-2.3897-3.0292c-0.99701-3.2679-1.6045 1.0795 0 0zm11.259 7.3044c-3.0195-3.3447-1.8938-7.789-1.2438-11.774 0.14153-2.5368 2.3223-8.8326 0.51174-9.0256-1.3284 4.3814-1.8351 8.9631-2.9479 13.398-1.6482-4.6573-3.1764-9.3635-4.5638-14.105-0.20351 1.6423 2.7108 4.1024 2.499 2.7819-2.5865-0.21157-0.22104-3.6355-2.7262-3.4912-1.4557-3.7004 0.60809 1.1484 1.9547-0.33811 0.3049 1.609 1.6981-2.7657 0.9937 0.29588 1.4682 1.0448 0.77772-1.9281 1.6725-0.0926 1.811-0.85515 2.5399-0.34675 2.9256 0.0547 2.4067 2.0725-0.82512-1.8704 1.9393-0.28015 0.60832 0.70293-0.88662 3.7266-0.49263 4.4658-2.4666 2.3676 3.7009 2.156 3.946 2.2282-0.05863 3.5012 2.2394-3.3572 2.9392-0.27698 0.88812-1.4976 1.9368-2.4542 2.8919-2.0845-0.43001-3.5704-2.6207-1.2632-4.1608-1.4155-0.22361-2.0514 0.2516-2.4255-1.4229-1.1141-1.4615-1.2458-0.98475-2.1163-0.0214-3.7109 0.97307-1.2709-0.41831-1.7349 0.70869-2.1612-0.07315-1.2653 2.9324-4.1638 1.4424-1.8628 1.4907-0.65387 2.2199-1.3258 1.5559-2.0076 2.1865-0.42619 4.3846 4.3507 1.6265 2.8491-1.9173 1.298-2.4358 2.2645-2.6465 4.0201 1.4767-0.57273 5.7086-0.58596 5.0498-3.0041 0.24615 1.1933 1.7191-0.13875 4.1012 1.2518 2.3898-1.2832-0.10423 1.3672-0.03885 2.8755-0.60008-0.32103-1.4228 4.44-2.487 6.2407-0.5134 2.6739-1.42-3.0959-3.0931-0.15897-2.2947-0.04 1.9631 3.3701 2.3882 1.9961-0.58263 1.9257-1.3617 5.5057-3.0575 3.2604 2.3312 1.6523 0.08946 3.7498-0.8253 5.8178-0.59008 1.1968-3.6105 0.77557-3.5959 0.99205 0.10531-3.9092 2.0675-8.726 0.5777-12.152-1.57 1.5264-1.1473 9.7786-2.7786 4.8804-2.9097-3.4593-0.29188 2.1272 0.21778 4.0472 0.5276 2.8945-1.4628 7.0902-2.0834 8.8571 0.55043 2.6085-1.3152-0.42562-1.7563-1.2576zm1.2271-1.0004c2.6941 9e-3 -1.794-1.3098-0.07772 0.19393l0.07772-0.19344zm1.4506-1.0416c-1.3634-1.2375-1.8457-4.5009-2.6778-4.477-3.1842-0.70521 0.34406 2.3197 1.5878 4.1167 0.26064 0.10593 0.65768 1.009 1.09 0.36027zm-1.7869-0.56095c-1.7882-2.9082-0.18367 1.9049 0 0zm6.9025-3.1379c-0.32877-0.27445-0.66669-3.3499-1.161-0.41828-1.0514 0.77518 1.0726 1.2087 1.161 0.41828zm-11.063-6.7579c0.36321-2.027-1.463-2.0082-0.64129-0.25949-2.9442-1.438 1.9759 2.6017 0.64129 0.25949zm10.982-0.40294c1.8117-1.0008-1.6155-3.3395 0.07561-0.32641-1.0295-0.11466-0.85445 1.0937-0.07561 0.32641zm3.1863-0.50225c1.1404-2.5886-2.1315 0.20141 0 0zm-1.8065-0.55177c-0.84418-1.8066-0.5369 1.7612 0 0zm-7.3356-0.59281c-1.4221-1.9358-2.5601 1.9988 0 0zm7.1438-0.47722c-1.3008-2.09-1.3281 0.80362 0 0zm2.1564-8.5873c-0.77557-1.3386-0.69131 1.3059 0 0zm4.3646-1.9016c-1.6128-0.89191-1.4479 0.82568 0 0zm-8.7339-1.6703c-0.92225-1.0375-1.5587 1.288-0.17226-0.15839-0.39877 0.68852 0.1599 1.4593 0.17226 0.15839zm1.4131 28.364c2.7283-2.9432-2.3161 2.997-0.10823 0.14246zm-2.9703-2.0321c1.0955-1.987-0.05058 2.0265 0 0zm21.894-2.4576c0.98127-1.5054-2.5403 0.75977-0.30725-1.004 0.86046-1.5554 2.798-1.7384 1.7389-0.19853 1.0412 0.87558-2.1047 1.8227-1.4317 1.2025zm2.1152-0.59363c0.22791-1.4227 1.5476-4.3971 1.7253-1.3703 0.32608-3.9547 2.3215-0.28836 1.1819-0.61827-0.76561 0.87312-1.6463 2.435-2.9072 1.9886zm-5.1043-0.48806c-0.55583-1.7697 1.6691 0.42824 0 0zm-3.1236-0.8129c-1.088-1.5362-0.38263 1.4075-0.8669-0.71941 0.95296-1.0662 2.546 2.1456 0.8669 0.71941zm1.3684 5.3e-4c-0.73093-1.6311 1.9507 1.5767 0 0zm-6.6592-0.65512c0.05703-2.3939 1.2549 0.91046 0 0zm11.619-0.28905c-1.0453-1.7482 2.5144-3.6956-1.2133-3.1965-0.56094-1.4045 2.312-0.82013 2.4593-2.0457 1.7073 0.7312 3.9981 3.5403 1.9449 3.0578-0.69809 3.0494-1.3354 0.33274-0.45498-0.58877-0.86639 1.5302-1.7578 1.1956-2.0393 1.1672 0.09067 0.27899 0.26657 3.0211-0.69658 1.606zm-34.573-1.2101c-1.4475-2.0419-7.1648-5.6641-7.2383-6.5107 1.7009 1.5741 3.864 2.9251 3.3639-0.086 2.8224 0.28802-0.0017-3.5524-1.0385-4.4141-1.1725 2.7213 0.492-2.9587-1.4396-0.18582-1.1818-1.5174-3.9037 0.0129-2.1651-3.2471 0.93066-1.0982 0.0099-1.7081 1.5298 0.0836 2.3855 3.7034 6.7366 6.4888 7.0533 11.218-0.70352 0.71304 1.9208 4.6716-0.06533 3.1424zm-0.47761-2.091c-1.4487-1.9527-1.2104 2.0539 0 0zm25.707 0.17637c1.4508-1.686 5.8626-4.6253 2.9707-1.6025-1.1174 0.26648-1.924 1.2176-2.9707 1.6025zm-3.6527-1.7386c2.1778-3.4549-1.0275 2.0738 1.6684-0.0963-0.80116 0.80502-2.7774 2.3823-1.6684 0.0963zm18.469 1.3066c1.2668-1.0266 3.4782-1.3738 1.6472-2.0534 1.7677-0.53708 3.3722 0.22279 0.48935 1.3366-0.6955 0.25653-1.3661 0.74249-2.1365 0.71688zm-1.8521-0.26705c1.8433-1.7366 3.2952-0.67438 0 0zm-14.782-1.2612c-2.2339-3.2796 1.4819-7.599 2.4446-11.245-1.3529 0.9446 2.9063 2.2425 0.74273 3.032 1.9748 1.001 1.0047 1.8773 2.2179 2.7644-1.8246-0.35473-0.60904 4.598-3.9218 4.6818-0.4862 0.26366-0.92553 0.65419-1.4835 0.76673zm1.6342-2.8326c-1.9784-1.211 0.90142 2.0098 0 0zm1.9038-0.22041c1.8197-0.39483-2.0754-1.5076-0.34455 0.48276 0.32201 0.3817 0.57211-0.30935 0.34455-0.48276zm2.5866 1.9076c1.6317-3.5347 0.49216 1.2702 0 0zm-34.705-1.9389c-0.45286-1.5276 1.6672 0.72073 0 0zm-6.908-1.0931c-3.5932-4.0561 4.0983 3.9285 0 0zm6.7197-0.26464c-0.9483-1.2537 2.0401 0.88922 0 0zm15.241-0.56682c-2.8242-2.1772 2.056-4.1297 0.77332-1.7061-0.87942 0.77244 0.74973 2.2214-0.77332 1.7061zm-1.9503-0.30395c-0.15485-2.1383 1.4326 0.42498 0 0zm-12.403-4.3504c-1.8648-2.1548-3.3228-2.8094-0.44841-2.8771-0.29283-0.84177-1.326-1.7682-1.7351-0.19199-2.1851-0.92301 4.1187-3.7128 3.5385 0.35872 0.52398 2.3158 2.5093 7.4037-0.83478 3.2412l-0.52023-0.53091zm1.9842 1.1944c-1.1483-3.8977-1.6637 0.67021 0 0zm-0.8539-2.8601c-0.98321-0.11625 0.22221-2.7678-1.6754-0.56439-0.71055 1.1169 1.2125 1.3854 1.6754 0.56439zm7.2696-0.6717c-0.19457-0.76681 2.3352 0.39369 0-1e-5zm4.0533-0.0312c0.39082-1.5737-0.15199-4.2137 1.1429-1.9874-0.47013-0.0118-1.3306 3.3116-1.1429 1.9874zm-17.171-3.1518c-1.7225-2.6271 2.179 2.5188 0.62158-0.36275 3.1779-0.61976 0.17653 2.65-0.62159 0.36275zm18.806 0.70959c-0.86941-1.6846-1.4287-1.9743 1.0014-2.6808-1.7109 0.80927 0.52843 1.2721 0.39194 1.2399-0.7104 0.79886 0.69737 2.0906-1.0218 1.3517 0.26392 0.54216-0.31422 0.6563-0.37152 0.0892zm12.094-1.3778c0.65562-1.7803 2.6998-0.44096 0.18036 0.12757zm0.43552-1.6114c-1.5071-1.029-0.52558-1.647 0.35745-0.7167 0.65449-2.6588 1.4345 2.2838-0.35745 0.7167zm-10.942 0.0111c0.90444-2.7232 4.3453-2.0231 0.90643-0.67425l-0.64017 0.58306-0.26626 0.0912zm8.6273-0.50522c-0.55299-2.4816 1.1315 1.2942 0 0zm-1.5148-0.0445c-1.7254-1.3313 2.3866-0.78471 0.16752-0.13963 0.82519 0.43305 0.07216 0.42442-0.16752 0.13963zm-15.315-0.55119c1.7786-0.91006 1.8326 0.82318 0 0zm18.025-2.0613c-0.76327-1.2468 1.1957-1.9103 0.44057-0.20806 0.84468 0.53317-0.15647 0.62592-0.44057 0.20806zm-5.8857 0.0454c-4.4465 0.69334-3.1751-4.5721-7.8109-2.8984-1.5443 1.1853-3.4075-0.0934-2.0344-0.29702-1.7885-0.78799 0.11139-2.8947-2.294-0.49303 1.0591-0.48612 1.2229 3.7761-0.28434 0.75923-0.16585-1.8772-1.1288-1.8038 0.85223-1.7922 0.85103-1.2243 3.2659 0.94856 2.0935-0.71872 1.9299-0.56038 2.5128 0.55478 2.0051 1.143 1.0698 1.4254 1.4865 0.46282 0.17532-0.30452 1.2976-0.32125 1.4525-1.453 2.9705-0.0526-2.2361 1.3587 2.1977-1.0434 2.3278-0.33075 1.1514-1.2536 4.0499 1.0572 2.8497 2.8428 0.44601-1.4377 3.4848 8e-3 0.62491 0.26197-2.0735 1.7474 2.1207 1.9586-1.4755 1.8802zm0.29186-3.4522c-0.09314-1.7327-2.1405 1.1068-0.18882 0.1979zm-5.7249-0.86847c-1.2419-1.8949 0.32247 2.3792 0 0zm-8.326 1.82c0.09288-1.037-2.0401-0.70524 0.70529-1.4798 0.46681 0.58792-0.78392 2.4555-0.70529 1.4798zm18.156-0.5547c1.8265-1.6532 1.1978 0.56813 0 0zm-2.6131-0.47621c1.0894-2.2369 1.3205 1.0394 0 0zm23.81-5.1952c-0.64364-0.27885-3.2364-1.6318-0.48904-0.70371 1.7011-3.0219 0.99278 1.8556 0.48904 0.70371zm0.76516-2.2684c-1.043-1.6863-0.31083-2.0403 0.78025 0.14412-0.11482 0.20461-0.86243 0.21343-0.78025-0.14412z" fill="#95bf76"/></g></g></svg>
