<?xml version="1.0" encoding="UTF-8"?>
<svg width="68.731mm" height="150.64mm" version="1.1" viewBox="0 0 68.731 150.64" xml:space="preserve" xmlns="http://www.w3.org/2000/svg"><g transform="translate(-49.202 -101.05)"><g transform="translate(-17.899 -1.4319)" stroke-width=".26458"><path d="m109.76 252.55c-1.4702-11.326-2.4651-22.768-2.4435-34.197 0.69378 11.605 1.4893 23.22 2.7431 34.769l-0.13263-0.0668-0.16698-0.50466zm-11.515-0.54153c1.9084-10.923 2.9063-21.973 3.9676-32.994-0.27492 11.166-1.576 22.432-3.9109 33.376l-0.05667-0.3815zm2.5061-33.502c-3.0901-1.7035-7.0254-1.3876-8.2098-2.8659-2.444-1.2369-6.4588-0.76273-8.0372-4.7561-1.8302 2.1683-3.6211-3.1821-5.8081-4.0901-3.897-0.40451 5.1035-6.5022-1.7171-5.0693 1.4349-2.1847-0.07255-3.8671-2.2156-5.6587-2.381-2.0091-1.0281-5.7167-3.7638-7.7495 0.55342-1.9138-3.057-4.645-0.55991-4.305-1.8172-1.0062-0.37628-3.9107-1.4015-5.057 1.2024 1.5612 1.7953-2.5662-0.29788-2.9173 1.8959-2.9898-1.6061-4.0698-1.6428-5.6424 0.62879 0.27202-0.04908-3.0542 1.1046-0.93509 0.30057-2.0308-2.634-5.1778 1.1363-6.0514-1.1203-1.211-4.2364-4.53 0.77515-5.1311 5.7297-0.95526-2.21-5.5764-1.4044-8.9791-0.08548-1.6087 1.682-1.406 1.8987-2.8775 2.6483 2.0627 1.8311-3.0676 0.55023-1.168-0.20852-2.1106 0.1724-5.4236 2.4344-4.5706 0.41104-2.4768-1.4912-3.9528 1.5128-2.888 3.1529-2.5651 0.30351-2.7856-1.3991-1.1626-2.0667-1.2268-2.0782-10.154 1.382-7.3715 0.0518-1.3017 2.3297-6.0781 1.848-8.902 2.0193-2.6884 5.4133-9.4606 7.9193-7.0314-0.85824-1.609 0.89569-1.7857 2.133-3.4 0.71533-3.0843 5.6753-2.8039 5.6855-3.1565 3.2542-5.3593 10.355-4.0577 15.689-4.2912 3.565-0.0825 4.7526 4.6055 6.6836 4.028 0.0376-1.5345 0.71667 0.78516 2e-5 0.82085 1.648 2.0971 2.7734 3.4499 3.1467 7.4402-0.18201 2.6314 1.6552 5.4052 2.7855 2.3812-0.51421 2.3037 1.8151 3.708 2.3376 3.7459-0.0822 4.4351 4.9701 6.9948 5.4838 11.53 0.13251 1.8899-0.0463 5.3615-1.1048 5.397-0.61492-1.7338 0.51752-3.1665-0.19445-4.945 2.5269-3.8346-3.0368 1.2962-1.0962 2.9757 0.31377 2.9228-0.27636 6.4489 2.2596 4.91 2.0604-0.91185 2.1079 4.3574 4.4233 6.0192 1.1597 2.9414-1.2425 7.1408 1.9279 10.082 2.1159 4.8114-0.51597 9.1874-0.93705 14.07 1.9914 3.4494-1.4726 4.3637-1.3505 6.8242 2.1001 1.3786-0.58291 3.4975-2.0705 3.0934 1.3874 3.3906 3.0754-1.7152 1.9146 3.0234-1.5112 2.1352 0.71902 5.0798-1.9492 7.6643-2.1146 3.8865-1.8396 7.8051-3.7875 12.234-1.1137 2.5852-2.7144 3.419-4.8206 5.2343-4.2935 2.2204-7.2436 4.4446-10.505 5.6231-2.7161 2.0063-5.8713 3.3925-4.5766-1.7054-0.98992-6.3171 1.9598-12.052 4.6605-17.533 2.3704-2.2852 2.5956-7.274-0.62691-3.2442-1.6589 2.3962-4.9869 9.1387-3.8472 2.2097-0.1533-12.61 3.475-24.802 5.3243-37.161-2.8128 0.60628-2.5823 10.824-4.6628 12.454-2.6428-5.6153-2.8328-12.007-4.703-17.793-0.72498 5.0931 1.5447 11.24 2.1213 16.7 0.0405 3.0337 2.1931 6.0899 0.87498 9.0237-1.1779 2.4652-2.2442 12.29-3.9596 5.6679-2.5904-7.4477-5.7563-14.691-8.4734-22.08-4.3419-0.43342 1.7119 8.1468 1.8227 11.369 2.2849 7.777 5.6839 15.265 7.3172 23.204 0.13295 3.2162 0.48361 11.958-2.2659 5.0771-3.3683-5.4559-6.4762-11.078-9.7359-16.586-3.73 2.1055 3.1681 8.1194 4.0774 11.55 3.5232 7.019 8.7638 14.224 7.4186 22.479-0.22661 0.48244-1.1202 0.46549-1.5239 0.24354zm-29.398-58.098c0.01648-1.635-2.1581 1.7331 0 0zm-0.40091-0.81313c1.4004-1.974-2.7442 0.63181 0 0zm4.737-5.3384c2.4678-1.1342 1.2221-1.8546 0.46449-2.7136 0.0089-1.5854-1.6029-1.3316-0.42672-0.22764-1.6511 0.41454 0.4867 2.7213-0.79042 3.1397 0.24608-0.0262 0.62198 0.0901 0.75265-0.19848zm-4.027-1.1373c2.4949-0.0518 1.9646-1.521 0.02783-0.65058-0.97241-1.0714-1.1297 1.9775-0.02783 0.65058zm-0.45156-4.8377c-0.98802-1.5346-1.0715 1.784 0 0zm1.1886-5.5343c-1.499-0.74746 0.25286 2.3549 0 0zm53.099-8.7611c-1.4375-0.61455-0.14207 2.0346 0 0zm-42.863-14.736c1.7044-1.3939-1.3877 0.0129 0 0zm3.5055-6.7376c-0.26005-3.1383-0.5839 2.5778 0 0zm-17.092 34.307c-1.4306-4.689 3.1011-3.246 1.1587-1.7355-0.89254-3.3172-0.7236 2.9659-1.1587 1.7355zm50.255-31.826c-0.88471-3.5135 1.7797 0.19422 0 0z" fill="#eaf2d7"/><path d="m98.256 251.94c0.4171-2.7694 1.4009-8.6841 1.7628-9.366-0.52058 3.0297-0.84998 6.8466-1.7628 9.366zm11.171-2.6238c0.17397-2.0069 0.10764 2.2643 0 0zm-0.3313-1.759c-0.52437-6.1974-1.1454-12.392-1.2886-18.614 0.34001 6.2591 1.3552 12.781 1.3328 18.847zm-8.8668-7.8983c0.52327-3.9476 1.003-10.7 1.5682-13.097-0.39593 4.3883-0.86292 11.361-1.6645 14.271l0.0963-1.1741zm7.3717-12.965c0.14019-4.5736 0.13116 4.5832 0 0zm-0.26311-5.1594c0.26232-4.4592 0.0632 4.5791 0 0zm-5.3036 0.52917c0.0851-3.0245 0.2768 3.0087 0 0zm-1.275-3.8403c-3.5696-0.60283-5.8442-2.5058-8.1679-2.1712 0.43703-3.276-4.6282-0.17891-5.5734-2.7665-1.6819-1.7283-2.3371-2.5578-3.8711-1.7685-1.5496-2.4156-6.8381-5.6862-3.2036-9.0984-2.5576-1.7697-1.6221-2.5561-0.23412-4.216-2.826 2.0408-1.9803-6.623-3.1281-1.9899 0.67398-1.9854-2.6513 1.1323-1.7456-1.7977 2.4115 0.34614 1.4616-1.6785 0.88967-3.087 0.39654 3.2387-0.51426 1.8917-1.7778 0.28368-0.63506 1.4082-5.1413-5.8759-0.67918-5.7679 1.603 0.63443 0.03783-2.1177-2.1975 0.49413-2.3254-0.67382 2.5863-3.3452-0.11667-1.6771-2.2536-0.10213 4.6249-3.1343 0.20182-1.6263 0.4222-2.1733 5.4342-2.9301 5.7707-4.8929 1.6562-2.5227-1.9394-0.5693-2.1408 0.20902-3.7426 0.24961 3.1015-2.6601-0.2612-3.5939 1.1774-0.90413 1.8218-5.8356 2.4274-7.6433 1.2675-1.8437-3.834 0.0468-3.6687-0.0202-1.8346 2.4315-2.8178-1.7023-5.081-1.0665 0.74798-0.21588 4.9418-0.47595 5.7043-0.71605 2.49 0.49863 0.60021-4.865-0.58758-7.054 0.13175-1.8185-1.4052-3.5718 1.2446-2.9929 3.9756-0.18063 5.0308-4.3655 1.9603-5.0343 1.1733-0.66009 0.75252-0.93295-0.16328-1.4154 0.45686 1.4678-1.1969-0.0838-2.0283 1.0154 0.74507-1.5273 0.6881-4.7628-0.15819-4.5373-0.89284 2.5216-2.5634-2.3273-0.28146-0.73442 1.5761-1.7173 1.0274-4.0248 3.6098-3.2471-3.15-2.8736 0.78262-3.1089 0.78192-7.0805-0.54021 2.4228-7.6273 1.1612-4.759-2.6488 1.9638-2.1551-3.0957-1.1223 1.2047-2.5144 1.1498 1.0846 1.8626-2.327 4.0715-0.2646-1.2872-1.1542-0.63497-1.224-0.55925-1.9545-0.69612-1.8206 1.7705-1.6716 0.06431-3.466-0.08786-0.83031-1.5396-2.169-0.04318-2.6997 0.75167 1.5284 1.3672 3.3414 3.4142 2.9224-0.35452-2.033-1.049 1.5055-1.0415-1.7045 1.7099-2.2012 1.6546 3.1644 1.6819 2.731 0.62372-3.4367 1.6129 2.0861 3.6598-0.5152-0.9821-2.1037 1.4359-2.3638 0.96414-3.8775-1.8626 1.1339-2.0745 1.3312-0.97543-1.9052 0.22521-2.6757 3.8631-1.4815 1.8131-2.6105 1.4298-1.213-2.078-1.3914-0.47038-4.1858-1.172-2.9523 4.0903-3.8615 6.3401-4.2959 0.07033-4.8712 3.6475 0.18525 3.8645-0.359-2.9719-2.9611 2.8924-4.6852 2.5239-2.9703 1.9889 2.2961 0.17435-1.1445 2.787 1.1461 1.7409-0.78314 5.3639-1.2154 4.6854 3e-3 -1.6253 1.5818-1.5603 2.1104-1.3777 3.2866 2.4878-2.5723 0.69188 8.3802 5.0508 4.3816 1.2696-3.0126-4.4227-0.98116-0.87598-4.6818 2.052-0.96564-0.14937-0.31991 1.907-1.7382-0.61836 2.4866-2.2384 4.1098-0.61204 4.5044 1.2737-4.3898 4.2457-1.1581 3.0981 2.0338 0.8693 0.99334 2.3159-1.1949 1.5398 1.0025-0.1148 1.5523-0.0907 2.8064 1.4552 2.5136 0.42945 1.1004 3.0815 8.0501 2.3526 5.3644 1.9301 0.79319 1.1881 3.5726 1.8274 3.6207 2.3686-0.95539 0.72904 0.54034 0.95109 1.3336-0.17824 2.6328 0.99672 5.8172 1.8486 8.5842 0.79435 2.0743 1.7155 4.69 1.9317 8.5934 3.9037-0.78055 3.5807 1.257 4.4502 3.6011 5.0244-0.86382-0.5003 4.3371 1.323 5.69 0.5209 0.36429 3.5633 4.0911 0.73246 5.1316-1.7709 1.6304-1.6994 2.4694-0.15408 3.9153 2.4633-0.0782 2.2437 3.647 1.5466 4.7009-0.6129 0.84929-0.4419 4.8806-1.9677 7.0943 0.30932 2.5601-1.9321 4.5505 0.0534 6.2783-4.2172-0.0115 1.4082 6.5611-1.7942 6.6012 1.6671 4.0168-2.7995 6.93-2.7691 10.461-0.33324 2.7229-0.26454 4.49-2.076 7.8413-1.7325 2.698-7.1646 5.4134-8.7844 5.9979-3.4665 2.6106-7.332 2.8029-9.8461 5.118-0.42265-5.1604-1.0221-10.939 1.9144-15.622 0.18329-2.9588 6.8435-9.4593 3.3948-10.234-2.3399 0.60006-6.4505 11.993-5.4226 4.1449-0.15858-12.45 3.4001-24.493 5.1828-36.712-1.1296-3.3288-2.4339 5.4831-2.9821 6.8705-0.51175 2.6728-1.5971 7.5063-2.6359 2.0869-2.01-3.9616-1.5686-13.014-4.2348-14.211 0.89578 7.8729 2.7072 15.737 3.9049 23.496-1.1023 3.288-1.8412 6.744-3.1746 9.9127-3.0749-8.3704-6.4545-16.639-9.5903-24.978-4.2662 0.47269 1.2696 7.2568 1.4419 10.523 2.2581 7.4567 5.0995 14.737 7.2419 22.219 0.28772 2.6777 1.0384 9.257-0.33346 9.4705-3.8988-6.3923-7.5904-12.928-11.384-19.365-3.3948 3.7353 3.5891 8.6837 4.6556 12.854 3.2249 6.6804 8.3488 13.555 6.8122 21.362-0.18112 0.59958-1.0393 0.19575-1.3524 0.11556zm-22.09-26.058c-1.7107-2.1398-2.2912 2.5235 0 0zm7.7287-27.896c0.58327-2.7488-2.3988-2.5687-0.21282-0.24218-1.4339-0.0218-3.425-5.1812-2.8573-1.0984 0.51506 1.4815 2.1643 1.6805 3.0702 1.3406zm-2.7016-4.1511c-0.96188-3.1225-4.01-0.10364-6.1771-2.707 0.29829 1.7692 4.913 3.8354 6.1771 2.707zm-3.9688-3.8463c-1.0853-0.92219-1.6052 3.1303 0 0zm7.888-0.73527c-0.93768-0.44729-1.4554 1.2884 0 0zm45.497-0.0658c-1.0145-1.4372-0.72023 1.1669 0 0zm-55.668-10.361c4.1383-3.2988-4.132 0.98629 0 0zm4.4339-11.88c0.6148-1.8814-2.3564 1.9708 0 0zm-0.97818-1.2768c-2.0628-1.3412 1.0083 1.9206 0 0zm0.48859-0.80597c-0.08988-2.4904-1.0298 1.1271 0 0zm0.10565-3.4206c-0.88085-1.5891-2.0034-6.1968-2.0805-1.8534-0.69398 0.15476 1.6719 3.0299 2.0805 1.8533zm2.0265-0.36652c0.17575-5.231-1.5523-0.53843 0 0zm30.073-7.2478c3.8453-3.016-3.4997-0.64355 2e-5 -6e-5zm2.3331-1.7651c0.6345-2.3597-1.7608 2.351 0 0zm-0.74561-3.5719c0.44873-1.3264-2.8429 1.595 0 0zm-26.194-4.6302c-0.7988-2.7395-0.39698 2.7996 0 0zm13.56-3.7262c-0.53251-2.2365-2.8786 0.61893 0 0zm-28.985 88.623c-0.47579-3.4478 1.1597-1.0327 0 0zm-0.8377-15.428c0.52742-1.4727 1.7564-0.19259 0 0zm-3.5813-2.9257c0.03367-1.1604 2.1087 0.97756 0 0zm-0.13229-5.2917c0.55832-1.2095 2.4202-0.0119 0.2088 0.20617zm3.3073-7.5406c0.56213-1.2841 0.82682 1.3727 0 0zm62.509-1.4451c0.0392-1.9249 2.0223 0.40234 0 0zm-2.0085-1.6435c-0.59109-3.2914 2.4922 2.6321 0 0zm1.7571-0.30645c0.56746-2.5138 0.49549 1.1276 0 0zm-60.297-9.4756c0.30617-1.3814 1.8378 1.1421 0 0zm-4.2095-0.68549c2.7594-1.4254-0.18794-5.364 2.9183-1.8541 1.3572 1.969-2.4221 2.19-1.9982 0.92432 0.1677-0.24206-1.3868 2.3253-0.92009 0.92974zm5.091-9.8924c-1.6061-1.7805 2.0017 0.28857 0 0zm0.39908-12.735c0.75342-2.0506 0.46684 1.473 0 0zm0.99219-1.169c-2.2618-1.1294 3.6725 0.70391 0 0zm0.52917-0.57746c-1.8871-1.2029 2.8508-2.6618 0 0z" fill="#e2edc7"/><path d="m109.16 246.93c0.17396-2.0069 0.10762 2.2643 0 0zm-0.25563-2.3812c0.16509-2.5035 0.099 2.8448 0 0zm-0.2682-2.7781c0.13514-2.3207 0.13512 2.3207 0 0zm-0.25736-3.175c0.15106-2.9626 0.14276 2.9694 0 0zm-7.9501-0.13229c0.17396-2.0068 0.10762 2.2643 0 0zm0.26458-2.3812c0.17397-2.0068 0.10764 2.2643 0 0zm7.4284-1.0583c0.0701-3.5328 0.27571 3.4849 0 0zm-7.1585-1.1906c0.13515-2.3207 0.13513 2.3207 0 0zm6.8918-2.9104c0.147-3.4992 0.13816 3.507 0 0zm-6.6272 0.26458c0.13514-2.3207 0.13512 2.3207 0 0zm0.26819-2.7781c0.16509-2.5035 0.099 2.8448 0 0zm6.0987-1.7198c0.1434-4.0363 0.13437 4.045 0 0zm-5.8341-1.1906c0.16509-2.5035 0.099 2.8448 0 0zm5.5674-3.9688c0.0701-3.5328 0.27571 3.4849 0 0zm-5.3064 0.39687c0.13514-2.3207 0.13512 2.3207 0 0zm-1.9104-4.4672c-2.8357-1.6564 0.84306 1.3917-2.7495-0.11723-2.3866-2.3014-3.6852-0.51781-4.6819-1.7482-1.3324-2.359-7.0295-0.16438-8.1596-4.9977-1.2579 2.3668-2.359-1.3013-3.8167-1.7522-2.9757-2.3418-1.5756-4.5457-0.7922-6.9597-4.6111-1.3879 2.7348-4.0909-2.164-4.0351 0.97402-2.9445-4.2572-5.7046 0.99842-5.3815-1.202-0.99141-4.276-1.9944-5.3138-0.546-0.08714-1.0837-4.6089-5.1582-0.18127-5.5484 3.4001-1.6706-3.1691-1.181 1.3912-2.4503 2.3981 2.0756 1.7067-3.1034-1.1441-2.6758-1.9937 0.0608 5.4944-1.9103 4.3804-3.7771 0.41166-1.875-3.4518-0.76144-2.0163-3.2892-0.5915-3.0844 1.7688-4.3619 1.5588-7.8861-2.0886-1.1276-3.4275-4.4985-1.3354-6.9421-1.5619-0.60642-3.1332-0.3266-2.0917-2.5136-0.41911-2.0022 6.2799-3.26 5.3343-5.4606-0.73861-1.2092 3.0836-3.0064-1.1674-1.3044 0.61927-2.4457-2.6633-1.013-2.8013-1.9663-0.91389 0.37916-0.41993-2.5422 1.1906-1.0831-2.593-2.9362 3.4628 1.9784 4.2049 1.5406-2.0731-2.1997-2.8201-6.6116 0.23335-5.4127 0.69233-3.6921-1.8144-1.4711-2.6833-1.2665-3.259-1.1198 3.1743-2.1166 1.1828-3.0838 2.6138-2.253-6.0975 3.6695-1.0816-0.3477 1.5717-1.9951 1.3063-0.95801 2.0064-3.3735-0.72994 5.1748 4.755 1.0557 2.2865 0.15366 0.99726 1.9245-3.3949 0.68007 0.24667-0.82077 0.99858-0.55363-2.152-1.0444 0.43504-2.0806-0.06495-0.61492-3.7027-4.3775-3.7847-0.50114-1.2405-0.50467 0.90581 5.3051-0.90496 4.4554-1.8403 3.1282 0.55557-2.3231 0.07478-2.6542-0.92616 0.36235-3.5448 3.1888-5.22 0.95525-1.6515-2.5926 2.7421-3.822 1.6313-4.4215-0.94255 0.0124 2.7458-3.3285 2.4145-0.8448 2.5739 0.52682 2.1611-0.56353 2.3338-1.963 1.3312 2.543 2.506 0.53919 1.9259-0.49622 2.0891 2.1859 2.3735 0.25269 2.0316-1.2762 2.3687-0.37331 2.5517-3.7853 3.8279-5.0417 1.8086-2.8556-0.30308-1.0576-0.45311-1.7402 0.44865-2.431 3.8472 1.1837 2.6223-1.0668-1.1074 1.3092-0.29748-2.6471-0.50039-2.1766-0.53104-0.88311 3.1154-5.0346 0.22545-2.5233 0.08256-3.3076-2.5362 3.5099-2.4816-0.0951 1.8823 1.3454-0.44609-2.7032 1.9347-2.5442-0.74315-3.1137 0.487-0.44642 1.9348-2.8766 1.618 0.54472-0.98596 3.0346 2.1112 0.93334 1.4446-2.7443 2.2286-3.9971 1.2066-0.58384 1.0791-1.9938 4.4786-0.0596 3.8207-1.5834-2.7794-0.30464 3.6068-1.9 2.2222-0.21278-1.7662-0.0352 2.8687 4.5954 1.0676 0.47591 1.5987-0.0551 0.48814 4.3699 2.0926 0.42643-0.42502-1.8196 2.5789-0.32569 1.9596 1.1294-3.5422 2.0125 3.0412-1.412 1.6466 2.154-0.87197 4.0536 4.9331 4.0701 4.8921 1.0721-0.18816-0.89751 1.4329-4.0845 2.2538-2.1886 0.26743 0.97771 0.23659 2.781-0.52477 5.523 0.17731 1.0039 3.7205 2.1134 0.46122 1.4925 0.0131 1.4092-3.0011 2.8307-1.0424 2.1815-3.1756 3.4595 2.3098 2.091 3.6747-0.51391-0.16599-4.1671 3.9376 6.3465 2.0544 3.8935-0.28936 1.0612 0.76473 1.9968 0.39316 2.4771 0.69376 2.4028 2.702 1.3672 2.3792 1.9485-0.74685 1.3738 1.3574-0.7201-0.0166 1.5246 3.2856-2.071-0.48543 8.4895 1.9946 4.8152 0.95478 3.2167 0.2769 3.8332 2.0601 6.3282 0.41988 2.2889 1.1316 8.8956 2.3147 6.6491-1.9445-3.1264 3.3369-0.46779 2.324 2.1539 3.7085-0.44233-0.59165 3.7476-0.36079 3.8477-0.11308 1.4606 4.2989 1.2854 2.3479 4.4022-0.7377 2.8904-0.73136 3.152-2.0462 4.146 0.80611 2.2385 1.1776 2.4481 4.1057 3.0354 0.51841 2.4006-1.7679 2.9891-0.80359 3.6601-1.5379 2.571 1.7835 2.2218-0.59238 5.607-0.75674 3.4734-1.9858 6.2402-1.0989 8.1067-2.896 0.0279 1.0059 6.99-2.4054 7.3955 2.7437 4.3367-2.5056 8.2752-2.5848 13.123 0.88948 2.2441-1.5803 5.1648-4.131 7.1907-3.5876 2.394-5.6953 2.6307-8.8379 4.6588-2.2511 1.5657-5.4592 1.7839-6.5853 3.2578-0.55298-5.2586-0.84202-10.823 1.987-15.542 0.21964-3.1296 6.2591-8.583 3.5571-10.149-3.5366 1.9624-6.8682 12.324-5.5516 2.8072-0.17783-12.172 3.6132-23.9 5.1223-35.876-2.961-0.18411-2.6585 11.129-4.7587 11.91-2.1982-5.3921-2.9999-11.2-4.1445-16.846-2.5643 1.1422 0.98972 9.3664 0.94981 13.076 0.47368 3.574 1.5645 7.1553 1.875 10.696-1.0018 3.3444-2.0586 6.6775-2.9388 10.054-2.8923-7.3876-5.7698-14.826-8.6185-22.246 0.42664-3.382-4.9292-4.4061-2.5107-0.23798 3.4634 10.314 7.2135 20.57 10.201 31.022 0.21424 3.0918 1.1292 13.211-2.0398 5.8587-3.5973-5.3716-6.3045-11.716-10.042-16.714-2.9977 3.9525 4.0641 9.1489 5.1839 13.494 3.0982 6.3233 7.6482 12.836 6.625 20.227-0.22318 1.0835-1.7362 0.45177-2.13-0.12363zm-9.0096-4.3221c-1.3572-0.63712-2.9 2.0332 0 0zm-6.4455-47.501c-0.99162-1.5208 3.7145-0.8748 1.8908-3.7008-2.2317-0.15019-3.0299-4.2818-4.3253-3.9124-3.5263 2.2819-1.3225-6.1221-4.3491-1.4724-1.2905 3.7576 3.5076 3.4004 4.846 5.0507 0.83728 0.19419 1.533 5.6822 1.9376 4.0348zm-2.7987-8.4387c-0.52566-0.43844-0.28529 2.5985 0 0zm5.942-0.89588c-0.69228-2.5221-3.8652 1.6769 0 0zm-4.5855-7.8688c-2.2738-2.4648-1.8115 0.16095-0.18867 0.19313-1.0722 1.3322 0.40723 1.0355 0.18867-0.19313zm-3.1304-2.5034c-0.89572-4.0589-1.0375 0.8293 0 3e-5zm4.2493-0.29751c-1.848-0.97397-2.3003-2.2865-3.2993-0.23807-2.1924 0.16388 4.2099 0.7999 3.2993 0.23807zm44.869-0.67102c-1.6076-1.7522-1.0532 1.0887 0 0zm-47.694-4.0804c-2.2054-2.6904 1.055 2.6243 0 0zm0.58435-1.2322c1.7544-2.1673-1.2944 1.258-0.23302-1.3303-0.85532 0.68667-2.0925 1.5024 0.23302 1.3303zm1.7163-1.5883c2.4941-2.9915 0.27254-2.8165-0.11202-0.46647-1.5083-1.1091-1.1188 1.4667 0.11202 0.46647zm-6.4651-4.5268c-1.3427-0.87087-3.5947 2.5739-0.34975 0.29198zm7.3642-0.25101c-0.44459-2.1085-1.6653 0.0686 0 0zm0.95828-0.55772c0.67593-2.687-1.5847-3.3065-0.59542 0.81778-0.32771 0.86615 1.0211-0.57478 0.59542-0.81778zm30.651-11.087c-0.86931-1.3929-1.7394 1.6284 0 0zm-27.185-2.6952c-1.9617-0.39259 0.97879 1.103 0 0zm2.4556-7.5201c1.6221-3.3849-2.6309-0.77115 6e-6 0zm7.9813-2.107c-2.452-3.0192-1.1083-0.38854-0.36057 0.33941l0.25466-0.0997 0.10592-0.23968zm4.3203-0.59155c-0.97423-1.2136 0.1036 2.3496 0 0zm-28.927 86.612c-1.9457-2.3886 3.8661 1.0174 0 0zm-1.7876-12.369c1.8918-1.525 1.0889 1.0437 0 0zm-1.3874-0.75278c2.5986-1.1406 4.1445 0.20451 0 0zm-0.68036-15.557c1.0196-2.5962 5.5882 1.3098 1.9022-0.18504-0.22534 1.458-1.6732-0.50662-1.9022 0.18504zm61.126-9.165c0.88145-2.9046 0.44955 2.2029 0 0zm0.69585-1.0228c-0.69799-3.9632 2.6638 1.0681 0 0zm-61.338-7.2938c0.07319-3.098 3.3111 0.97045 0 0zm1.6104-3.3312c2.1966-5.0945 0.18049 1.5937 0 0zm1.4975-0.64665c1.3019-3.3531 0.94222 1.37 0 0zm2.9104-2.0843c0.84084-1.7678 1.217 0.45879 0 0zm2.1291-1.238c-0.15794-1.7193 1.2586 1.1745-3e-6 0zm1.7515-15.64c-1.012-2.8958 1.9639 0.91816 2.6e-5 0zm38.736-2.5791c-0.77701-1.6919 1.3607 0.83183 0 0zm-6.6482-5.4188c3.3299-2.3562 0.29584 0.90223-2e-5 0zm-27.237-0.29241c1.1682-2.7944 1.9061 0.80658 0 0zm23.019-8.3464c1.5748-3.2575 1.6601 0.54079 0.50684-0.58129 0.0913 0.2584-0.18993 1.7416-0.50684 0.58129zm-4.1149-3.3202c-1.0792-4.1477 3.6279 0.098 0 0zm-7.736-2.1346c0.96105-1.1572 1.6697 2.1014 0 0z" fill="#deecc0"/><path d="m108.9 244.55c0.17397-2.0069 0.10764 2.2643 0 0zm-0.25924-2.7781c0.13514-2.3207 0.13512 2.3207 0 0zm-0.26458-3.175c0.13514-2.3207 0.13512 2.3207 0 0zm-0.25736-3.4396c0.15106-2.9626 0.14276 2.9694 0 0zm-0.2682-4.3656c0.16509-2.5035 0.099 2.8448 0 0zm-6.359-2.3812c0.17396-2.0069 0.10764 2.2643 0 0zm6.1007-1.5875c0.0851-3.0245 0.2768 3.0087 0 0zm-5.8361-1.3229c0.17397-2.0069 0.10764 2.2643 0 0zm0.26459-3.7042c0.17396-2.0068 0.10762 2.2643 0 0zm5.2917-0.52916c0.17396-2.0069 0.10764 2.2643 0 0zm-6.0102-4.0666c-2.8961-2.9538-3.9926 1.1397-6.4664-1.2527 3.8152 0.94228-1.0225-1.1128-2.2246 0.0301 1.3768-2.7193-5.5273-4.4195-4.0134-1.3656-1.4943-1.1482-3.8687-4.7753-5.5861-3.1936-0.38813-2.4606-5.6832-4.4558-3.8119-7.8055 3.3674-1.3705-1.8018-2.6538-0.68139-3.7491 3.5096-1.5176-1.253-2.018-0.24466-2.7109 0.71922-1.539-4.3553-5.0673 0.48076-4.662-0.74455-1.4837-5.4672-0.89439-6.3639-3.0575-3.0201-2.9191 4.679-4.329 4.4426-5.9749-3.0023-2.3733 2.2939-0.88628 0.34977-3.3757-5.16 2.7014 3.6375-2.4356 0.57233-2.3018 2.6393-1.4348-3.2901-1.8412-0.99456-3.7342-2.0962-0.9786 1.0288-0.80524-0.13575-2.5616 2.669-4.1256 0.35075-5.8271-1.6887-9.8119 3.5098 0.0103 4.2966-1.6077 0.83771-0.79807 0.74161-2.2126 2.0948-0.58852 2.9311-1.9274 1.4875 2.4958 4.3271 0.84475 4.6648 4.6017 0.71433 4.2243 3.2939 1.4991 4.2642 0.17016 2.6924-1.4633-1.5284-1.1879-0.90824-1.2568 0.13262-1.5541-3.3264-2.6034-3.4084-4.4259-1.5034-1.0094 1.8283-2.6068-0.84267-3.1882-0.879 0.6883-0.79657 1.8854-2.4002 2.6943 0.49554-2.8744-1.1969-5.1401-0.61143-6.6664 4.3267 1.0443-0.0299-2.6022 2.924-1.7913 1.0093 2.0411 2.1751-4.1193 2.898-4.6804 0.01808-2.9927-4.2003 1.5128-3.4198-1.1966 1.9648-0.7184-1.4965-3.6224 0.8358-4.6774-1.4527-0.12276 3.0336 0.32207 2.511-2.2135 1.6185 3.6994 3.0289-1.7859-0.21854-0.96659-3.507-0.0443 0.51519-1.8612-0.30746-0.33564 1.8491-0.92882 2.9483-6.6452 0.41132-5.4326-1.0003-1.9067 1.5163 0.44711 0.6002-1.847 0.86014 1.5071-0.16334-1.57 0.66857-1.3506-3.4789 1.5005-1.4879-1.5561-0.55231-1.7516 2.7942-1.1313 1.4401-4.5965 3.87-4.4623 0.6021-1.4231 0.48316-3.1592 1.6867-2.6219-3.6244-2.1036 0.14802-6.1642 2.6458-6.3998-3.7792-1.6753 0.76397-0.67461-0.18213-2.5535-1.1292 2.1274 0.16582-3.7109 1.6108 0.0981-0.16675-2.1182 3.6612-0.33225 3.675 1.2615 1.3945 1.8871-0.79538-3.823 0.05565-4.4449 1.7537 2.345 3.6444 4.9794 4.3553 5.5064 2.5862 1.561 1.5809-3.5945 2.3759-1.273 1.3565-1.2648 1.0069 4.594 3.1088 4.3807 2.8116-1.0783 3.5627-2.1472 3.803-4.6614 1.8251-0.46141-0.3699 3.3558 1.1141 3.7855-1.7938 0.84767 1.6145 3.5202 0.0419 3.2253-2.2559-0.96738 0.47393 1.161-2.1844 2.3924-0.2495 4.4116 4.6222-0.0238 5.7995-1.739 1.8077 2.4511-1.7691 4.0109 0.94457 3.0676-0.98674 2.0807 0.65176 8.254 2.7846 7.6303 2.6194-0.75049 1.3807 5.6946 0.54828 6.4357-0.76038 1.0975 3.5572-1.8845 1.4117-0.0118-1.4514 2.465 0.79267 1.9926 0.59342 4.5675-0.16993 1.6362-0.17195 0.94148 1.3135 3.1059-0.44501-3.0592 0.25723-3.5131 1.0741-0.22523-1.9888 1.2227 1.1973 1.7353 0.65417 4.7238 3.3374-1.1964 5.5526 4.2016 3.7752 3.9183-0.48808-1.5288-1.6783 3.0571 0.72206 3.1254 1.7508-0.84429 0.43994 4.2334-0.87811 4.5002-1.5704 0.0217 0.6574 1.3459-1.2203 2.2737 1.473 0.5007 3.2205 5.3666 3.015 2.6338 2.4346 1.161 1.4294 2.218 0.28199 4.0217 0.19032 2.0304 1.1554 3.2104 0.45484 4.1014-0.25629 2.6183-1.5214 5.4983-1.8014 7.4147 0.8546 2.7791-0.91531 1.1518-0.16357 4.7745-1.2211 1.9059-0.53149 3.1464-1.9202 5.8338 1.2821 0.96152 0.6849 3.569 0.0148 4.9478-1.7927 0.18996-0.43995 2.8179-2.6208 2.7522 1.0278 0.66881 1.5172 0.36743 0.5754 2.8752-0.4097 0.97509-1.2957 7.744-5.4402 9.3413-2.0005 1.6887-4.0258-0.35639-4.2602 1.6291-2.7553 0.75646-4.6716 3.4937-7.4692 4.0101-2.2219 0.397-3.0159 3.249-2.783-0.76916-0.91489-5.3544 0.43217-10.526 3.0183-15.222 1.289-2.4126 6.378-11.618 0.81114-6.5382-1.4624 1.7287-4.7996 8.5856-3.7597 2.8955 0.0348-7.6179 0.98505-15.16 2.5631-22.609 0.75633-5.2409 2.4469-10.444 2.5689-15.707-3.1775 2.6872-2.3946 9.7861-4.5515 12.861-2.2494-5.483-3.0481-11.432-4.2351-17.191-2.6167 1.2899 0.90038 9.4591 0.87607 13.223 0.46903 3.5306 1.5464 7.0691 1.8752 10.559-1.0412 3.1974-1.9614 7.1233-3.0092 9.8271-3.2084-8.2697-6.4912-16.53-9.5716-24.849-5.0095-0.59025 1.4396 7.9603 1.3732 10.973 2.4775 7.9479 5.7288 15.718 7.5358 23.834 0.0311 3.1638 0.57087 11.559-2.2131 4.6822-3.3114-5.4334-6.4643-10.965-9.5825-16.503-4.2638 1.491 2.4028 7.8708 3.4783 11.119 3.4178 6.6049 8.1443 13.362 7.922 21.09 0.17776 0.64007-0.30502 1.5153-0.99359 0.94999zm27.904-30.462c-0.67734-1.7995-0.51731 1.7434 0 0zm-53.332-0.49908c-0.96979-1.4978-1.3455 1.0071 0 0zm11.876-15.812c-0.80231-2.2879-2.0753 0.17785 0 0zm-2.2056-2.0209c-2.4713-5.4345 0.07912 2.3713 0 0zm1.593 0.21642c-0.8324-1.0848-1.0942 1.42 0 0zm0.68213-2.1368c-1.0581-1.6392-0.07028 3.0335 0 0zm-1.5269 0.0932c-1.7418-1.2615-0.58934 1.6803 0 0zm-7.808-2.7354c0.46535-1.5927-3.481 2.1333 0 0zm-1.0019-1.1866c2.8349-1.2667-2.4573 0.41757 0 0zm1.5991-0.76639c-1.003-1.7009-0.14989 2.5183 0 0zm8.5318-5.3676c1.1677-3.1914-4.7687 1.1397 0 2e-5zm-3.5757-2.8616c-0.96579-2.1104-0.25156 1.8575 0 0zm1.408-5.9414c-0.32206-1.3678-2.2581 0.77152 0 0zm1.6881-3.5872c1.0251-2.3454-4.0507-3.1411-0.93842-1.1956 1.2347-0.34392 0.07169 2.2926 0.93842 1.1956zm-0.89102-3.1168c-1.8441-0.94702 0.83919 1.6686 0 0zm-0.7463-3.1406c-0.9078-1.2833-0.59884 1.7105 0 0zm29.416-8.6803c0.44956-0.88381-0.41473-0.7528-1.3531-1.2256-0.14949 2.5978-1.7906-1.4276-1.9152 0.7977 0.81916 0.59434 1.9293 1.0015 3.2683 0.42795zm4.0686-2.4782c-1.1153-3.2982-0.90886 5.2716-2.5e-4 0zm-1.6449-1.2181c-0.84477-2.186-1.6984 0.82263 0 0zm0.29387-2.0373c1.1619-3.0361-1.4414 0.80698 0 0zm-1.9179-1.2972c2.3378-1.8625-1.8966 0.0121 0 0zm1.6128-2.793c0.50872-1.5281-1.9258 1.4579 0 0zm-19.671-5.026c-0.66648-2.4042-1.723 2.7852 0 0zm-22.517 80.923c0.80305-3.8032 0.8798 1.3816 0 0zm59.204-31.51c-2.2312-2.0373 1.0529 0.11957 0 0zm-60-5.198c-1.7934-1.6517 3.3656-4.6608 4.1451-4.4924-2.4891 1.5595 0.44183 2.7944-1.9077 4.4586-0.59019-0.98419-2.4453 1.1363-2.2374 0.0339zm3.9596-8.7551c1.2116-2.8002 0.55112 1.0715 0 0zm-2.0288-1.712c-1.6307-2.2215 1.3814 1.4659 0.65514-1.2863 0.60959 0.68401 0.77182 2.1367-0.65514 1.2863zm6.0123-1.4246c0.24039-2.6223 2.5823 1.0003 0 0zm2.1847-1.388c-0.69793-3.0042 1.5053 0.36759 0 0zm-4.6082-1.1401c-2.5144-1.668 0.90889-0.4779 0 0zm-1.5259-2.3584c0.66642-2.2153 0.81856 1.5576 0 0zm0.81798-1.3157c-0.59697-1.8218 4.1688-0.0127-4e-6 -6e-5zm1.6867-2.0482c0.21323-1.9225 1.3411 0.96944 0 0zm-2.1117-0.13939c1.355-1.4841 1.4084 0.0574-0.0063 0.2522zm-0.66789-0.92207c-0.11278-2.0041 1.5394 0.78225 0 0zm5.5063-0.35788c-0.10514-2.5515 1.2385 1.2597 0 0zm-8.9584-1.7163c0.82538-1.5435 1.6863 0.11432 0 0zm1.8133-0.40249c-0.13935-1.9493 1.609 1.5272 0 0zm-2.6592-1.224c0.06885-2.578 1.6585 0.60301 1.5913-2.5763 1.1918-1.0076-1.4943-1.9537 1.144-1.1536-0.9363 4.7117 1.0615-1.0084 0.31678-1.1729 0.86072 4.7297 4.0649-2.0862 2.2077 2.8748-1.0953 0.30783-5.4766 4.9194-5.2598 2.028zm5.5045-2.8837c-1.3559-1.4829-0.5402 1.3189 0 0zm4.106 0.38744c-4.1181-0.6979 0.3547-4.3122 0.943-1.9315 0.59369 0.6241 0.26339 2.9702-0.943 1.9315zm-2.915-2.2329c1.5548-2.513-0.34458 2.3371 0 0zm1.1231-1.4708c0.59267-1.3812 0.49268 1.7036 0 0zm6.8876-15.036c-2.7224-2.6708 3.6973-1.0949 0 0zm0.78534-2.5427c0.82561-1.5747 1.3423 1.5981 0 0zm1.32-0.26459c-0.86547-2.6574 1.4102-1.0372 0 0zm13.232-1.8212c1.1717-2.952 0.96198 2.1886 0 0z" fill="#d9e8b6"/><path d="m108.1 235.03c0.17397-2.0069 0.10764 2.2643 0 0zm-0.26458-4.2333c0.17396-2.0069 0.10764 2.2643 0 0zm-0.25563-3.7042c0.1651-2.5035 0.099 2.8448 0 0zm-5.6239-10.913c-2.2088-0.5172-3.9121-0.42964-5.9864-0.82002-0.47662-2.9617-3.2463 2.5274-3.0141-0.31185-1.3362-0.54027-1.8316-5.6097-2.8825-1.6289-2.4595-0.88166-1.5045-3.2412-2.8396-1.6554-1.4914-2.1755-1.7717-1.6848-2.1029-0.62483-0.63056-0.88049-2.9145 1.5813-1.6049-0.88313 3.7364-0.36513-2.6114-1.7112-1.8665-1.0509-1.3682-0.88616-1.0779-3.5013-2.9095-3.8987 1.2959-2.6541 2.6615-3.1446-0.15106-5.1428 4.4684-1.4508-3.1943-6.4962-1.3785-7.1823 4.8801-1.0905-3.9561-1.933-3.0533-3.4746-1.1822 0.36357-3.3954-4.9374-0.23126-1.9657 2.6105-0.33853 2.9678-2.1292 4.1523-3.0992-3.2431-0.50229 2.8668 0.21981 1.0505-1.8569 4.1308-0.79379-3.9974-0.71114 0.47708-1.0644 2.7555-2.0179-2.6922-4.4096 0.55996-5.0953 0.5795 1.4763 1.4835 6e-3 0.2818-2.1163-2.6281 2.5006-0.83875-2.1529-1.1283-2.6799 0.11121-0.53657-2.2297-5.5708-0.12791-5.6734 1.7821-3.5525 3.3734 0.13787 4.9474 0.28778-0.49586 2.4299 5.9951 7.2955 3.3638 2.352 2.9028-1.415 0.73102 1.5875 1.3945 2.0052 1.9554-1.0626 0.80059-4.9764-0.09558-3.8773-0.57463-1.6021 0.18952-2.7397-0.09243-2.7332-1.3255 0.56012 1.9783-3.7376-0.96408-2.5458 0.61086-2.1912-1.7079 0.16814-2.2771-2.8726-2.3669-0.7477 1.437 0.0473-0.27591-1.6724 2.3965-1.1541 6.224 1.4155 3.1558-1.5106-1.0741-2.5852-3.0297 1.9521-3.6529-0.94784 0.20132-1.3168 0.59154-2.0875 1.6375-0.96793 0.89764 0.13347 0.40321-4.1142-0.79248-1.0463-0.22718-1.4281-1.7506-5.5085 0.74292-2.0594 2.9506-2.1741-3.7416-4.9613 0.29141-4.6613 0.94414 0.70482-0.22477-2.3939 1.6848-0.21005 3.9955-2.0267-2.0928 1.6984 2.7801 1.5829-1.6562-3.6375 1.0935-1.0548 0.75879-0.47274-0.02069-3.4012 2.4436 3.2544 0.88148-1.4852-1.4592-1.52-0.16888-4.7829-0.59694-5.3863 1.7702-2.3789 2.9394 0.4103 0.94926-0.0616 3.4547 2.2882 1.7729-5.9893 0.56848-4.8133 2.0717 1.4269-1.9659 4.1793 0.1769 0.82005-1.982 2.0919-2.6966 2.8401-3.9296 0.0878 1.2827 2.8766-2.1779-5.5522-2.3803-1.7067-2.3388-0.9494 0.77758-2.8369 0.49034-2.4354 1.4708 0.23535 1.3586 0.0473 1.9926 2.3721-2.6245-0.42161 2.654 2.8565 0.34638 0.0946 1.9157-0.90622 3.2222 1.1098 2.2284-1.4926 2.551 0.71706-0.72171-1.2963-0.85911-0.52044-2.6912-0.83107-1.3711-4.3947-2.8596-1.6418-0.17774-2.4305-0.34388-0.0654-1.564-1.6272 0.42137 0.33972 1.9216-3.2156 0.32244-2.7596-1.2344-4.4486 1.6843 0.10682 2.5858 0.53244-0.51365-1.0412 1.5504-0.74675-0.25041 0.82314 4.0014-1.1552-1.7347-2.3878-0.75904-3.8626 0.80048-1.4806 1.481-3.593 2.9386-5.2731 0.37444 2.9446 0.57702-0.22608 1.3918 0.2114-0.24386-2.3779-4.5866-3.3427-1.9428-4.6343-0.78695 1.8347 1.4558-0.61442 1.8311-1.1677 1.2721 0.93437 2.2717-4.2262 1.4346-3.1938 1.6511-0.16948 1.9652 0.0507 0.79375-1.993 2.3241-0.18257 0.96014 1.7106 1.9287 2.2581 0.78204-0.88822 2.1273 1.3192 0.37975 1.7473 1.7367 1.9707 1.4529 1.5612-0.18671 1.3872-3.7513 2.6866 0.44834 2.5673 1.0225 1.0332 2.12 3.1778 1.5557-2.2679 1.775-3.2872 0.23898-1.556-2.2111 0.27218 0.59094-1.7621 2.6332 0.22549 0.5295 5.7088 1.3273 4.3185-0.7607-2.2314 3.1188 1.7133 2.577-1.8488 2.2693-0.57386 3.0862 3.365 3.8725 4.0345 0.054-2.4437 4.1064-1.0891 4.0485-3.7649 0.0899 2.5847-2.0608 5.4501-1.1016 8.1267-0.49499 4.2064 4.0802-1.0636 3.2718 0.42232-2.0923 0.51777 0.23923 2.8879 1.4415 2.8782 1.6076 0.72532-2.1681 1.5593-0.10987 3.4507-3.1822 2.2466-2.9618-2.7493-5.5223 0.96298-0.97504 1.2201-2.4074 0.48169-0.26456 1.3127 0.0402-2.0484 2.6125 3.4171 4.9511 0.2235 2.0342-2.2122 2.9293 1.8706 4.2218-0.20905 0.914 1.8875 2.0336 3.0821 1.6483 6.689 1.4092 2.4939 1.5203 3.0111 0.96817 3.8148-0.17252 1.5321 0.80231 3.429 0.0461 4.4868 2.491-0.67216 3.6522 0.48935 4.796 2.8551 0.98837 1.5029 3.028 3.204 2.6031 5.9002 3.3628 1.1971 2.0167 4.5072-0.81767 6.4969 0.67157 2.301 1.1726 3.8341 0.97772 5.3953 3.0047-2.2151 2.0827 3.7818 2.0996 4.2765-0.68527 0.80679 1.9204 0.76215-0.0752 1.4667 3.0096 0.92112-1.7208-0.1253 0.30692 2.5643-1.9259 1.3289 1.2242 2.5418-1.8448 3.5212 0.10001 1.1311 1.1181 4.5452-0.92962 4.0915 2.4982 1.5387 0.38905 4.3289-0.65814 5.7871-2.0541 2.7574 2.8949 4.3437-0.90001 7.7449 0.75389 4.0203-0.91684-0.30099-2.0353 3.197 0.57984-4.3568-2.1383 2.8828-0.0636 0.43187 1.3997 2.7731-2.2295 0.55271 0.1761 2.7326-1.8166 1.8119 1.0965 5.9844-3.4463 7.8037-1.9796 2.8293-5.8506-0.23589-7.4905 3.6468-2.0144-1.5431-3.6851 4.726-6.2769 2.4259-1.7552 4.1407-1.7826 0.62299-1.7407-1.6808-0.95029-5.2348 1.0712-10.069 3.4615-14.61 0.98197-2.1043 5.9054-10.086 0.63409-6.3129-1.8656 2.4724-5.2116 9.5197-3.9205 2.4739-0.16792-12.42 3.5315-24.413 5.1282-36.622-2.3003-1.219-2.6457 7.4372-3.7712 9.8199-1.3166 5.7774-2.8477-5.0136-3.4768-6.7814-0.13967-2.0772-2.3784-12.755-2.5403-5.9944 0.94325 7.2334 2.5474 14.495 3.6651 21.634-1.0664 3.2155-1.7556 6.7439-3.0602 9.7412-3.1682-8.2686-6.3888-16.545-9.5896-24.795-4.711-0.57362 1.1039 7.6365 1.3738 10.809 2.3768 7.9751 5.763 15.672 7.5424 23.805-0.0185 1.5713 0.59099 9.728-0.85882 7.1959-3.5616-6.2637-7.3598-12.399-10.811-18.718-4.523 2.0665 3.3968 9.0487 4.3764 12.873 2.8936 6.0666 7.3832 12.132 6.8615 19.171 0.0465 0.40202-0.26758 0.19903-0.22334 0.0666zm-19.638-9.0464c-3.3666-2.4012 0.35802 1.9043 0 0zm5.1545-9.0128c-0.20828-1.939-1.0787 1.8588 0 0zm-11.567-8.0509c0.71744-1.4627-2.479 0.11663 0 0zm6.2434-11.025c-0.80317-3.4286-0.37202 3.1972 0 0zm45.728-1.8582c-0.56677-1.3553-0.97169 1.7939 0 0zm-47.89-3.1426c-0.67734-1.7995-0.5173 1.7435 0 0zm48.773-2.0004c-1.8891-0.89871-1.3067 1.2658 0 0zm-47.521-6.5459c-1.1672-0.78226-2.1285 1.9007-0.1706 0.28345zm8.3387-7.1051c-2.0046-1.3522-1.4196 1.1499 0 0zm-2.1826-1.0329c-1.1844-1.2725-0.83902 1.6086 0 0zm6.8262-4.006c-0.71264-1.7007 2.3349-3.2723-0.64393-2.2486 0.92763 0.30716-1.0084 3.4052 0.64393 2.2486zm-3.724-0.74084c-1.1386-1.9486-0.18693 1.8257 0 0zm2.328-2.2175c0.80681-1.8556-1.6954 1.4485 0 0zm4.1732-0.53617c-2.0393-1.4711 1.4384 2.0377 0 0zm-7.7964-1.9427c-0.38451-3.3674-0.25688 4.2106 0 0zm6.9266-0.19552c-2.504-1.198 1.0907 1.5666 0 0zm-8.0582-0.11261c0.96515-2.2477-1.438 0.61704 0 0zm36.135-1.5273c0.29115-1.3042-3.0823 0.8246 0 0zm-28.531-1.081c0.42367-1.8023-0.79911 0.70816-1.1607-1.5231-2.1454-3.0845-2.2543-1.5065-1.0969 0.3871 1.5792 2.7284-3.3886-2.6225-0.10428 1.087 1.1064-0.34972 1.429 1.2253 2.3619 0.0489zm19.906-2.7987c1.2751-3.4552-3.9994 1.502 0 1e-5zm-21.571-0.96559c-0.58407-1.9299-0.54303 1.8586 0 0zm2.5372-1.1229c-1.5352-2.9734-1.0858 0.95284 0.21018 1.2303 0.55984-0.1617-0.33728-1.2386-0.21018-1.2303zm0.54954-0.84217c1.547-4.425-1.5828 0.75851 0 0zm9.0841-0.65875c0.13286-1.5915-2.0559-4.3436-1.389-2.0537 0.68438 0.30179-0.13359 1.5526 1.389 2.0537zm-13.166-8.2241c-0.70339-1.9836-2.2123 1.7995 0 0zm2.4146 0.13399c2.8902-2.3727-1.4021 0.21088 0 0zm-4.462-0.92774c-0.02688-3.9937 5.7866 2.6706 3.0314-1.6818-1.7195-0.97806-3.5136-1.2082-3.4005 1.9983l0.40297 0.44633-0.03387-0.7628zm1.6018-0.46303c-0.62917-2.6484-1.0773 2.5105 0 0zm24.195 0.0441c-0.76077-1.1532-0.91904 1.395 0 0zm-19.194-0.97014c-1.0356-2.5604 0.01278 2.0267-2e-6 0zm10.941-0.0737c-3.167-1.554 1.6084 2.0831 0 0zm-0.93011-0.65395c0.062-4.4638-1.2725 2.0464 0 0zm3.3629-1.074c-0.59266-1.3812-0.49269 1.7036 0 0zm4.4022 0.14791c0.50757-2.97-1.952 0.37456 0 0zm-21.366-0.80981c-2.3925-0.81416 1.5495 1.3666 0 0zm-0.66807-1.3069c0.84299-3.2194-1.0344 0.90465 0 0zm-0.80586-0.99219c-1.1435-0.66377 0.06662 2.5146 0 0zm22.982 0.16773c-1.9806-0.24731 0.62391 1.7424 0 0zm-24.698-0.0623c1.5021-2.4784-2.2669 1.874 0 0zm2.1539-1.4283c-0.23856-1.3229-1.9568 2.0231 0 0zm2.8075-0.66213c-0.9367 0.42696 0.55278 2.3484 0 0zm-4.1433-0.44678c-1.1285-0.16645-1.0135 2.3457 0 0zm2.8224-1.0283c0.5414-2.0478-0.32815-0.81262-1.4494 0.17687 0.50147 0.0238 0.94166-0.38482 1.4494-0.17687zm11.765-0.51798c1.5708-3.4596-1.6336 0.32256-5e-5 0zm1.7803-3.2117c0.37907-3.3941-1.7744 2.5172 0 0zm-4.4159-1.5724c-1.8789-0.555 0.0637 2.931 0 0zm1.1836 0.82471c-0.0276-1.6555-2.0332 2.0929 0 0zm-2.7487-1.5904c-2.7647-1.2056 1.4551 2.4861 0 0zm4.9008 0.24529c-0.73442-3.1253-1.1067 1.5122-4e-5 0zm-30.235 68.73c2.6814-1.0764-0.1157 1.3774 0 0zm1.2324-3.3641c1.3808-1.6301 1.443 0.51571 0 0zm-0.75063-3.5469c0.01295-2.5369 2.5066-1.9269 0 0zm0.99316-2.8783c-2.3388-0.73935 1.4527-1.0821 2e-6 0zm-0.11339-4.499c-0.39859-2.814 0.96641 2.1765 0 0zm-0.5974-2.9247c0.34899-1.7224 2.8886 0.74294 0 5e-5zm5.6604-0.63128c0.40624-1.835 0.9138 1.3767 0 0zm-4.5051-0.95182c1.3492-1.1831 0.58077 1.4365 0 0zm-2.5083-0.15645c-1.0012-2.3447 1.5303 0.30394 2e-6 0zm5.3602 0.0353c0.97919-1.9507 2.8236 0.95507 0 0zm-1.7859-0.51265c-3.4059-2.1924 2.8263 0.82852 0 0zm0.9352 0.0763c-0.15871-1.4955 3.8481-0.89286 0 0zm-0.32908-1.1157c1.9378-1.8996 1.3828 1.2481 0 0zm-1.0926-0.89943c-1.0376-2.103 4.0664 0.73561 0 0zm-3.6699-4.7746c0.97034-3.1006 1.7054 1.441 0-1e-5zm6.2085-1.4888c-3.7376-3.5702 2.4512-0.25525 0 0zm0.7101-1.2341c-0.90839-1.4359 1.8284 0.18493 0 0zm0.8129-1.9418c-1.7004-2.9964 2.1367 2.4438 0.87242-1.2223 0.80178-1.1487 0.62934 3.5022-0.87242 1.2223zm-0.52162-1.6436c-1.8509-1.1532 1.0883-0.60597 0.94182 0.25506l-0.16663 0.0362zm47.627-1.1157c-3.469-5.2594 2.1754 0.68224 0 0zm-44.518-5.6768c0.97166-1.3367 0.89719 0.9156 0 0zm2.6539-0.5419c-2.0794 0.73882 1.3129-2.4826 0 0zm1.7361-0.0549c-1.1869-1.5928-0.34417-3.61 0.62599-0.24033 0.25783 0.0637-0.91497 0.77328-0.62599 0.24033zm-7.5649-1.5638c-1.5981-1.4505 1.8779 0.13668 0 0zm2.2991-1.3282c0.0857-0.97296 1.9519-0.54752 0.23462 0.49986zm2.3934 0.3919c-0.11326-2.5765 1.5 0.66259 0 0zm1.3162-2.4877c0.35417-3.8838 3.3136 1.6269 0 0zm5.4723-0.80438c0.95203-3.3368 0.36163 2.6114 0 0zm-3.7287-4.723c-0.20758-1.8022 1.5818 1.7536 0 0zm26.632-5.107c-0.52496-3.8071 1.353 1.802 0 0zm-30.769-2.2857c2e-3 -2.2792 1.175 1.1118 0 0zm4.9176-7.8927c-1.5108-3.5155 1.9364 0.76381 0 0z" fill="#d2e4a9"/><path d="m92.841 215.58c1.8298-2.9347 0.5379 1.2793 0 0zm14.327-4.2502c-0.90881-6.3488 2.9398-11.899 5.3956-17.444 3.6833-3.2286-0.823-5.3121-1.9348-1.463-1.4284 1.941-4.4096 8.1718-3.2743 1.9708-0.20458-12.601 3.5263-24.783 5.2459-37.154-3.1539 0.0265-2.8956 8.5941-4.5072 12.011-1.7143-2.0132-2.7724-8.8371-3.5824-12.545 0.4947-3.2765-2.981-7.4472-1.8383-1.7863 1.0101 7.0647 2.5515 14.174 3.6289 21.159-0.98975 3.2284-1.9748 6.6732-2.8867 9.7672-2.8866-7.3592-5.7722-14.742-8.6176-22.121 0.65748-2.5594-3.8339-5.5937-1.813-7.1464 1.575 1.7241 2.7921 0.73137 2.7954-0.22673 2.9775 0.56646-2.6456-2.4711 1.4815-4.6434 1.711-1.9076 1.6504-5.5858 1.6321-7.1019 1.3658-1.1299 5.0848 0.79917 4.5874-1.8513-2.7888 1.5899 0.66433-0.70841-1.6181-2.4031 1.3432-0.43794 1.9532 2.6417 2.1342 0.25133 2.9354-0.24907 2.0612 3.3978 4.1982 3.5171 1.7429-3.1255 1.2446-3.2325 2.7236-6.1038-0.12355 2.6594 2.7918 0.9662 0.0686-0.13645-1.2531-1.1673-1.664-3.84-1.6077-0.59918-2.4576 0.23438 1.3324-1.3051-2.3018-2.0136 1.06 2.6927-2.5926-1.5657 0.8887-1.3607-2.6947-2.4151-1.5012 1.2854-4.3882-0.65138 3.6796-0.85753 0.42843-0.18594 0.20301-2.5063-0.82014 0.97094-0.16 2.5273-1.1018-5e-3 2.0801-2.1786-1.1637-5.6539 0.26912-1.1459-0.64211 0.75898-3.1468-6.7644-2.3364-4.1889-1.5716 2.8278 1.5773 4.7205 1.6894 7.1096 0.80389 1.5794 0.45038 4.4021-0.34968 2.7606 0.36065-2.7977-0.71522 0.78858-1.4476-1.8184-1.3255 0.23218-1.4402-2.3174-0.0353-2.682 1.9628 3.8253 0.34364-2.3598-0.79688-2.6129-0.77477 3.6411-1.691-3.8519-2.5697-3.7866-1.2084-2.0765 2.5621-5.7956 1.4847-1.2618-1.7005 1.4545 0.37742 1.4909 0.71881 1.1658 0.48243 0.73071 0.48332-2.5059-0.39995-3.2154-0.35674-1.9183-3.9828 1.279-2.1512-1.5315 2.3527 1.3284 0.0999-2.7314 2.373 0.97169 1.431 2.2926 2.5193-5.8683 2.7104-2.7571-0.99813 1.9603 3.7504-0.24554 0.63707 1.9139 0.90679 2.9139 1.0526 3.2716 2.6595 4.1707 1.4563 0.19682 1.4418 2.9198 0.87411 4.1296 1.0339-1.9669 1.8181 4.0658 3.349 1.087-1.1087 2.3305 3.1785 2.1866 0.19189 0.76671 2.9399-1.2944 2.9194 3.0711 4.287 0.76365 2.3199 0.21831-2.2452 3.8157 1.278 2.7188-0.62098-2.2275 1.3136-1.3091 2.9379 0.94583-0.18278 0.80603 3.257-0.49204 0.88145 1.0957 3.155-1.5273 0.50963 0.67844 0.84052 2.3571 2.5946-3.2818-0.2765 2.9606-2.298-0.24586 1.8887 2.1857-2.6085 4.5742-0.34554 1.5619-1.0486-3.2888-1.4883 3.7979-3.6295 0.45353-1.6591 3.9992 1.518-0.23393-0.30882 2.7856 1.6278 0.80553 4.5729 0.71398 3.5615-0.97912 2.4756 3.0016 5.089 3.947 1.3944 6.2012 2.4077-0.71611 5.3821 2.6449 6.0584 1.1262 3.0544-4.2071 1.7544 2.4848 3.8238 2.9755 1.1022 4e-3 -2.8483 1.535 0.88234 1.0721 1.2574 0.18423-4.0281 4.1744-0.0642 1.8621 3.2022-1.6752-1.7662 1.3394 1.9424 1.1445 2.8063 0.79069-2.8543 1.4279-2.0094 3.4086-0.2795 2.7585-0.36448 2.831 0.055 4.4748-0.89543 1.7795 4.8686 1.0683 2.4966 3.6152 0.75704 0.41625-1.1269 1.2411-0.1005 2.8657-0.44242 3.1767-3.1073 0.42947-4.8628 2.6958 0.22757 1.5887 1.021-1.3566 1.5929 0.79323 2.2851-1.6731 2.1761-0.53185 2.7842 1.6697-0.67563 1.955-2.3444 1.3549-4.8483 1.5614-0.41736 2.1384 3.8808 1.798 3.0684 4.1134-1.9628 1.5086 2.5181 5.2788-0.95235 4.8317 0.64623 1.974-1.96 6.6836 1.434 4.4562-0.68767 3.2396-4.3737 4.5456-4.7079 6.3076 0.74536-0.16167-1.3693 3.4812 0.16939 5.2125 1.3771 1.9462-1.959 2.7703-1.6317 2.0844-0.17773 2.3316 0.20089 5.4327-3.8243 5.159-3.1402 0.43419-6.7043 1.9845-8.814 4.0397-1.1093-1.5581 0.33551 3.2951-1.9555 0.90261-1.8159 0.22418-0.91242 3.6984-1.3947 0.11558-0.0549-0.87758-0.093-1.7577-0.1225-2.6346zm14.577-11.294c-1.7979-1.7898-0.42306 1.5306 0 0zm6.8776-15.123c-0.34737-2.0899-1.8326 1.3874 0 0zm2.0289-16.097c-0.87859-1.7093-0.0954-2.7827-0.78618-0.85984 0.37033 0.18181 0.55668 2.1079 0.78618 0.85984zm0.23545-2.8443c-1.1172-1.3323-0.27285 1.3808 0 0zm-35.55-5.5719c-1.501-2.3322-0.59388 1.4819 0 0zm-1.8679-2.3847c-1.3283-0.78798 0.97964 2.4447 0 0zm2.8236 0.72843c3.0325 0.13551 2.0122-4.0143 0.63187-1.3708-0.38674-1.011-1.8248 2.3291-0.63187 1.3708zm31.803-1.8834c-0.38863-1.0795-1.1651 1.6468 0 0zm-21.84-9.2014c-1.3991-1.4344 0.053 2.0727 0 0zm3.3897-2.7876c2.2526 0.8668-0.28688-1.882-0.69688-0.46278 0.50162 0.0691 0.18331 1.9046 0.69688 0.46278zm5.1638-5.531c-1.2415-1.33-2.1794 0.25371 0 0zm-2.5301-3.2664c-0.0201-1.0974-2.0478 1.002 4e-5 0zm-2.7992-3.3986c-1.3228-3.5894-0.0636 3.3114 0 0zm-5.0796-7.78c-1.437-1.2159 0.19232 2.8542 0 0zm-1.4099-0.14717c-0.82836-2.4402-0.62733 0.85953 0.18749 0.98867l-0.18753-0.98867zm-1.783-2.2696c-0.49392-1.7218 2.296 0.17443 0.82044-2.4861-1.4053 0.84625-2.2826 3.1784-0.82044 2.4861zm0.40017 92.748c-2.5864-0.21649-2.4221-1.0603-2.3591-2.4476-0.81285 1.9293-2.791 2.4531-4.4291 0.28153-1.5543 4.2487-3.9315-3.0774-6.247-3.0209 0.38178-1.5246-2.0871-0.82067-2.4958-1.6578-1.9684-1.866 1.1981-8.1003-1.5303-6.2534-0.83925-1.2693-0.60896-2.7871 0.20523-1.8562-1.2356-3.6232-1.8564 0.68666-2.8666-2.3116-2.069-1.0058-1.9663-2.8015-0.59556-4.328-0.79954 0.47257 1.3395-1.7652-1.1288-1.2012 1.7645-2.8019-1.3048-1.8574-1.1153-0.82346-2.4381-1.9209-0.85612-7.9455-0.71007-3.9036 1.9934 0.48538 1.0395 3.6822 3.3585 0.28081 1.8499-2.1171 1.2627-2.1724 2.4405-4.4334-1.5426 2.5141-1.8881-3.6857-1.1921-4.483-2.2491-1.9281 2.4851-2.0238-1.2913-2.8368 1.3905-0.0138-2.1787-3.7176-0.07972-2.18 1.1823-0.0122-0.01959-1.232-1.5798-1.2318 1.7411-1.144 1.6203-2.039-0.03175-0.86225-0.11636-2.1833 1.8156-4.3801 3.1535-3.7407 0.54578 1.1804-5e-3 -4.3335 1.6931 0.14121 1.1384 2.9689 4.0963 3.7428 6.8848 1.3436 0.58042-2.1178-2.6318-5.9484 1.0709-4.351 3.3709 9.5767 6.6355 19.211 9.636 28.907 0.54511 2.6804 0.22088 7.4861-0.20998 9.194-3.6948-6.5241-7.6587-12.896-11.286-19.455-4.5051 1.5612 2.2096 7.5846 3.1439 10.71 3.1079 6.0932 7.1948 12.076 8.1683 18.954-1.0371 0.23099 0.78692 2.88-0.60658 1.5651zm-11.377-5.3146c-2.1847-1.0996 1.2554 2.029 0 0zm0.21194-10.683c1.0821-2.8281-5.4013-3.9107-3.2324 0.64422 1.1112 0.44825 2.2841-0.0763 3.2324-0.64422zm-8.7312-10.106c-1.2675-0.45961 0.12235 1.6313 0 0zm5.0271-2.1167c-1.3118-0.50783 0.0609 1.7258 0 0zm-2.249-0.56002c-0.8887-1.051-2.1111 1.4719 0 0zm0.87329-5.2718c-0.16556-1.806-1.2027 2.3756 0 0zm3.6825-3.5766c-5.3326-1.656-1.0336 1.5074 0 0zm-3.3454-0.0846c-2.4707-1.6483-0.18172 1.0031 0 0zm3.2876-0.82568c-1.2225-1.0701-1.4227 1.0357 0 0zm-1.9751-1.8404c-1.7499-5.2814-1.4723 2.5774 0 0zm1.9872 38.235c-0.91466-4.777 4.1145 1.2916 0 0zm22.668-0.31785c-0.25835-1.5874 1.8207-0.54802 0 0zm-28.571-1.3101c0.65296-2.6852 1.0014 0.85395 0 0zm0.33565-3.9416c-0.09884-2.2523-0.60125-3.7824 1.5864-0.60871-0.01722 0.69675-1.0983 1.5077-1.5864 0.60871zm-3.6011-2.6694c-1.835-2.3429 5.0236-4.3816 1.8151-0.65905-2.2903-1.1534-0.53939 1.6075-1.8151 0.65905zm-2.287-10.533c-1.3146-1.5268 1.9514-1.1034 0 0zm53.512-21.857c-1.322-1.7683 2.8868 1.6938 0 0zm-51.858-3.1594c0.63258-1.9722 0.62973 1.6154 0 0zm2.1167-4.1167c0.15512-1.503 1.661 0.89872 0 0zm9.3821-3.0599c0.23555-4.3434 1.1951-0.016 0 0zm7.5512-19.408c0.95389-1.4738 0.75248 1.0966 0 0zm9.7234-0.95704c-2.6767-3.5434 1.7978-0.20906 0.57946 0.46864l-0.57936-0.46864zm-6.4757 9e-3c0.29032-1.6062 2.2512 1.9016 0 0zm2.8067-1.5409c-1.1958-3.5026 2.0493 1.3237 0 0zm4.2736-0.29381c-0.9875-3.3378 1.4634 2.1669 0 0zm-6.6239-0.54656c-4.4046-1.2152 3.7152-0.54397 0 0zm7.2972-0.23029c0.27555-1.6563 1.1402 0.21882 0 0zm-8.3658-1.338c-0.13982-2.8494 3.0526 1.4868-0.101 0.33498l0.101-0.335zm3.0726 0.0689c-0.0674-2.3372 1.287 1.4995 0 0zm-1.1596-0.36975c-0.4263-1.795 1.3569 1.3574 0 0zm-0.84446-1.0363c1.6093-1.7551 1.1195 0.8282 0 0zm-7.2264-3.8799c-0.80126-1.971 3.8182 0.11076 0 0zm19.578-2.6046c-0.56393-1.56 2.4622 0.73733 0 0zm-5.5021-1.5902c-0.86909-2.5198 1.1346-0.50643 0 0zm-8.4405-0.93452c-0.5025-3.6172 2.0156 2.9033 0 0zm13.097-1.8383c-3.4304-0.59823 2.3-1.4217 0.13557-4.0069 1.4965-1.2987 1.397 4.5873-0.13557 4.0069zm-6.0381-0.64742c0.65787-2.8122 0.99513 1.552 0 0zm4.9675-1.099c1.6066-4.048 1.3887 1.4627 0 0zm-5.2917-0.25162c2.5015-1.3538-1.1911 1.3112 0 0zm2.5953 0.20685c-0.78258-1.6208 3.762-0.73634 0 0zm-4.0349-0.83513c-1.6406-0.21599-2.2347-4.443-0.44076-3.5725 2.079 4.1345-1.3561-2.2344 0.0532 1.8372-1.079 0.31993 2.231 0.72008 0.38756 1.7354zm3.4133-0.20404c-0.23356-3.0096 4.2664-2.1638 0.95854-0.63714-0.10663-0.30432-1.452 1.7213-0.95854 0.63714zm-1.3964-1.0218c0.53707-3.9417 1.2225 1.5614 0 0zm-8.3174-1.9904c1.2593-1.5438 0.3931 0.94778 0 0zm8.662-0.3142c-1.2172-3.0829 1.5666 0.57029 0 0zm-13.146-0.75692c-1.462-2.7084 1.4616-0.0232 0 0zm3.2565-0.83058c0.15435-0.90617-4.5777-0.18509-0.40548-1.329 1.2913-2.0498 0.95986 2.8801 0.40548 1.329zm1.52-0.46004c-2.354-2.4087 4.255-0.78551 0.40951 0.51249l-0.40951-0.51247zm-3.8968-1.0336c2.4257-2.1585 5.3522-0.50895 0 0zm3.4109-0.57563c-0.09129-1.5984 1.1467 0.63177 0 0zm-3.4912-2.3919c1.3916-1.8646-0.84898-2.1029 1.6136-2.9819-0.72483 1.0187 0.05746 5.2976-1.6136 2.9819zm5.0971-0.75334c0.31688-1.3623 1.6543 0.16087 0 0z" fill="#cbe09b"/><path d="m96.66 213.46c-2.1398-2.1725-1.8726-6.8e-4 -3.8508-1.7084-0.73225-1.4195-0.41756-1.6248-1.4088-0.13413-0.95315-4.1492-7.9139-2.8637-4.5521-8.4016 0.24587-2.6915-0.40582 5.1547 1.1467 2.3592-0.48638-1.8108 0.04442-5.9891 2.9872-5.6708-0.68591-0.0972 1.3275-2.5842-1.0028-2.4706 0.69661-0.73176-2.0759-5.8957-0.21403-4.1483 0.44574-2.2587 2.29 0.41214 0.99072-3.3069-0.74506-3.1032 3.0245 4.6879 3.7131 5.5315 2.8428 5.5962 6.3816 11.124 7.6231 17.31-0.66878 0.1927-5.8679-2.5515-6.0363-1.2116 1.4693-0.32323 1.8287 2.3382 0.60414 1.852zm-7.8359-0.64601c0.06748-3.9963 3.2801 1.7801 0 0zm18.353-2.943c-0.50442-6.1623 3.5461-11.455 5.9191-16.864 2.7604-6.3861-4.8194 0.77904-5.2717 3.6708-1.4292 2.2852 0.11356-4.8884-0.29204-6.0447 0.12599-10.852 3.3622-21.419 4.9684-32.02 1.1928 1.3366 3.8338 0.6491 3.2598 4.2358 3.2422 1.3651 3.1126-0.45885 1.8619-1.3866 3.1373 0.79144 0.74677-5.6689 0.74907-0.26763-0.57856-1.9214-2.0474-3.2336 0.1647-2.5839 1.2761-1.7804 1.0827 2.771 2.2011 2.7257-1.3294-2.0468-1.8749 3.6598 0.38646-0.17758-0.75117-1.8166-1.1969-3.7544-0.0777-3.6649 1.9185-0.92893 3.9737 1.1355 0.99243 1.9138-0.92798-0.43755-0.53268 2.7197 0.4988 3.5162 3.2242 1.5887 0.19498-0.75942 1.9-1.5175 0.82317 2.136-0.33809 3.3326 1.4424 1.8485-0.33132 0.52289 2.9404-3.5019 1.1974-0.32429-0.30565 1.3909 2.7821-0.43298-0.22446 1.5345 0.54874 1.4659-3.3358 5.8912-0.66323 4.346 1.1262-0.73811 5.5956 0.41943 2.9278 2.6483 0.0322-1.8258-6.3419 2.2219-2.874-0.79617-4.4694 1.0594-1.0464 2.9725 1.4928 3.807 3.3756-2.1076 1.6837 3.2054-1.4679 1.4456-1.4755 1.819-2.5924 4.3642-1.2165 6.101 3.5935-0.27912 3.4317 6.3677 1.8089 7.5323-1.7645-0.19067 0.84241 2.3324-1.4877 3.1187-0.69659 3.1222-2.1231 4.9387-1.3389 8.417 1.1593 2.2494-3.5309 1.7606-3.3958 5.6658-1.1399-1.3062-2.487 2.1393-4.163-0.69925 0.19945 3.5828-2.4224 4.1143-4.2678 4.8821-3.017-0.68549-5.1755 5.6674-5.0305-1.0632zm6.5482-1.3939c-1.7544 1.0391-0.89753 1.9029 0 0zm5.9043-4.9358c-0.17656-2.2174 2.1682-1.4448 2.7734-4.5672-1.0962-1.5914-5.109 6.4614-2.7734 4.5672zm2.9385-3.5381c-1.5696 0.33904 0.1596 1.8326 0 0zm-3.5346-8.7083c-3.1782 0.30201 0.12576 2.532 0 0zm-1.5706-0.26347c-0.0604-1.8654-1.7022 1.832 0 0zm0.98033 0.0845c0.0541-1.5692-1.4065-4.8943 0.0915-2.1531 0.78353-3.0136 0.0497-4.2667-3.1511-2.8782 0.0343 1.4989 1.9942 4.514 2.5346 4.9312-0.61916 0.19202 0.13925 1.2808 0.52494 0.10003zm-1.3954-1.2039c-0.55243-1.8498 0.61495-1.3009 2e-5 0zm-1.0729-0.20677c-0.0714-2.4141-1.1208 3.012 0 0zm1.8561-13.353c0.60161-0.73507 2.239-1.3913 2.3316-0.31806 3.6927 0.19669-2.3889-4.0684-0.17955-4.3784-1.091-1.9212 2.4694-1.7819 1.9856-3.1282 1.0471 3.0246 1.1465 1.1749 1.5231-0.5331-0.6535-1.3418-3.8211-4.1768-1.497-0.89192-1.6848 1.8198-1.6949-2.1565-0.99686-3.6489-2.6879 0.47402 0.32473 0.43424-1.5238 3.0761 1.8432 3.1228-0.55854 2.0601-0.96073 0.47528-1.256 2.6611 0.96563-4.4967 9e-3 -2.311-2.0365 1.9906-5.1798 12.191-0.69153 11.658zm0.43599-1.9011c0.36661-3.4982 1.9088 0.71387 0 0zm-0.30775-3.589c-0.8459-2.6737 2.4246 0.8918 0 0zm0.85989-1.2566c-3.2864-2.4546 2.709 0.0182 0 0zm6.2622 0.83139c1.1537-0.58385-2.5439-3.172-0.57908 0.10694l0.5786-0.10691zm-3.2877-7.7769c-1.3966-1.744-2.5565 0.95653 0 0zm-3.3687 45.456c0.22046-1.5323 1.6828 2.0704 0 0zm-34.899-0.87564c0.58087-3.43 2.7144 1.7744 0 0zm-4.3283-3.4182c1.2221-1.5214 1.0914 1.2197 0 0zm1.4186-0.0194c0.24991-3.6963 2.9856 1.6588 0 0zm20.323-2.6598c-2.8588-5.3903-6.9078-10.308-8.8921-16.068 0.30742-0.53131-1.59-3.3922-1.2817-3.2986-0.60111-0.76096-1.1251-1.589-0.19886-3.7703-0.76089 2.6006 5.1707 2.9688 1.4278 0.25947 1.3512-2.4886 0.27625-4.9095-0.13275-5.5534-1.2557-4.0572 3.8842-2.7239 3.0174-0.40768 2.6165 6.0044 4.2747 12.577 6.5818 18.782 1.6635 4.0216 1.093 8.3728 0.88801 12.587-0.46987-0.84343-0.93985-1.6868-1.4096-2.5303zm-16.825-2.2656c-2.3566-3.886 4.9439-3.3773 2.043 0.097-0.46313 0.76129-1.5485 0.35124-2.043-0.097zm42.974-6.1747c1.1629-3.206 2.143-0.4605 0 0zm-40.746-2.273c-1.9598-1.1857 1.6453 0.51957 0-5e-5zm-0.7276-3.842c2.0619-0.46962 0.17057-4.3329 1.873-2.5714 2.8985-1.5194-1.4498 1.3954 0.15681 1.8679 0.22117 0.7596-2.5035 1.5562-2.0298 0.70354zm17.692-0.67374c-2.3819-7.6358-6.0958-14.86-8.3482-22.493 1.1011-2.2952 0.91181-5.3217 2.6133-3.5966 0.65114-1.255 2.507 3.0054 2.6504 0.64187-2.4841 0.42631 0.30038-1.1412-2.206-1.5795 2.3745-2.3052-0.50836-4.7771 2.1093-3.9927 3.4389-1.0648 3.637 7.8969 4.4222 11.387 0.17809 3.4752 2.0028 6.9958 1.5466 10.409-0.94429 3.0693-1.7982 6.1756-2.7876 9.2244zm-14.583-1.4258c2.8142-0.46432-3.4271-5.4613 0.34808-2.6155 1.0675 0.0148 1.2432 3.5847-0.34808 2.6155zm37.658-3.3667c-3.8042-2.8447 4.386-1.6097 1.0452 0.27951l-1.0452-0.27952zm-33.039-12.232c-3.17-6.052 2.5085 0.0669 0 0zm13.841-1.3575c-1.1968-4.0468-3.052-9.7292-2.3839-13.171 1.4045-1.391 1.767-4.69 3.6871-4.5383-0.8159-3.3118 2.3222 0.82859 1.4793-3.1188 1.6342-1.4224-0.64603 1.3668 1.6985 0.0214-2.3118-3.4579 4.9301 3.7139-1.0163 1.3532-1.3292 3.6899-1.4839 2.7427-2.4218 3.5903 2.5264 0.94744-1.1778 3.3111 0.11391 5.062 2.9816 1.9852 1.3943 5.8464 0.57741 9.2889-0.24833 1.4983-1.062 5.0685-1.7342 1.512zm-0.0194-12.413c-0.42379-3.3244-0.76257 3.2636 0 0zm-1.0589-0.33063c-0.2225-2.7092-0.43575 3.3475 0 0zm1.6975-2.2816c-0.10581-2.9769-0.82194 1.4321 0 0zm20.24 12.378c-0.0204-3.16 1.6499 1.923 0 0zm-10.267-1.573c-0.10066-2.0781 1.5094-5.2e-4 0 0zm4.8159-2.7403c-1.5001-0.96046 0.96612-0.38157 0 0zm2.7786-0.22692c-1.684-2.3506 3.228-0.24014 0.46212-0.49131 2.4109 0.82741-1.1671 0.85717-0.46212 0.49131zm-9.3839-1.9008c-0.75826-3.3624-2.1986-0.79882-2.3647-0.28198-1.184-1.9456-2.2713-3.8316-0.46101-2.3482 1.7452-0.64095-0.96889-3.1702 1.7551-1.183 0.13549 1.9121 1.6253-1.6773 3.4426 1.5986-2.1507-1.8769-1.3697 4.4813-1.898-0.29501-2.6229-2.8206 1.289 4.7442-0.47394 2.5096zm7.7959-0.0174c1.874-2.2791 2.7694-1.2936 1.4831 0.13424-0.24712-0.0274-1.4866 0.44624-1.4831-0.13424zm-2.1872-1.7951c-0.90812-3.8343 1.7868 1.8398 0 0zm-0.9945-0.0677c-2.973-0.80348 0.58884-2.0729 7e-3 -0.40014 0.47865-0.20926 0.79604 1.4788-7e-3 0.40014zm2.5202-0.48074c-1.376-2.2601 1.4199 1.0244 0 0zm-13.233-1.235c-1.9369-3.9937 5.8535 0.089 1.2798-0.028 2.9448-0.54798-4.1653-3.0407-0.25673 0.65638 0.34371 0.77937-2.1593-0.11963-1.023-0.6284zm13.717 0.43281c-0.17027-0.98926 0.66355 0.90032 1.0495-0.79347 2.0616 0.14261-1.4779-1.6888 1.0174-1.2201 2.1301-0.44564 0.13097 2.5741-1.3318 2.1235l-0.31977 0.24799-0.41527-0.35792zm-5.0642-0.84727c0.34854-1.225 1.0778 1.5068 0 0zm-4.4149-0.90174c2.6846-1.8707 0.70138 0.73314 0 0zm-16.09-0.14883c1.2593-1.5438 0.3931 0.94778 0 0zm15.307-1.5341c0.36977-1.1432-1.8842 0.49792-1.9586-0.1672-1.7676-0.0367-1.5743-1.1236 0.38881-1.6587 2.0227 2.0512 2.4144-0.0285 1.2946-1.0628 3.0196 0.3813 0.5192 4.8787 0.27519 2.8887zm2.7494-0.94499c-1.9629-1.889-3.5295-7.424-0.17335-3.278-0.0442 4.4516 1.5814 1.6577 3.6303 2.4412 1.1711 1.1632-2.6346 2.9262-3.457 0.8368zm-9.274-3.7094c-0.94632-1.6555-1.7241-4.3421 1.7956-1.701 1.9778 0.32034-0.34287 2.9053-1.7956 1.701zm9.4178-2.2575c0.26789-1.665 1.4774 0.97507 0 0zm-4.2267-0.60249c2.5242-1.895-1.6651 1.8884 0 0zm-10.249-18.511c-1.7011-3.0046 1.124 0.22541 0 0zm11.867-0.77851c0.49259-2.6937 0.83586-0.0118 0 0z" fill="#c7de94"/></g></g></svg>
