<?xml version="1.0" encoding="UTF-8"?>
<svg width="78.667mm" height="96.251mm" version="1.1" viewBox="0 0 78.667 96.251" xml:space="preserve" xmlns="http://www.w3.org/2000/svg"><g transform="translate(-113.2 -119.57)"><g transform="translate(72.225 -29.362)" stroke-width=".26458"><path d="m82.665 244.6c-1.0029-9.0668-1.3956-18.228-1.3369-27.35 0.24749-2.3261 0.0903-4.8278 0.58868-7.0686 4.3549-5.8992 9.2163-11.449 15.103-15.877 3.5729-3.1308 7.7564-5.8187 10.868-9.3304-2.7945 0.80053-6.1474 4.7693-8.2291 5.0282 1.4253-4.1059 4.2741-7.959 5.7203-11.785-3.53 3.1097-5.1289 8.2513-7.7671 12.22-0.63482 1.5351-1.5296 2.8338-3.0904 3.5266-1.9671 1.159-6.2694 5.0059-3.9034 0.46663 1.8168-5.1711 3.6347-10.356 5.3578-15.551-2.7536 1.0036-3.5192 7.5297-5.3108 10.677-2.1638 6.0338-4.39 12.384-9.4467 16.659 0.65163-5.19 1.5144-10.417 1.9298-15.642-2.1918-2.0923-1.0097 9.8273-2.9559 5.1522-2.0411-4.1247-0.28786 2.1207 0.41378 3.6618-0.76914 3.1613-1.3356 6.6637-2.7058 9.4478-2.5907-3.1132-4.9983-7.039-3.5325-11.22 0.42823-4.0894 1.7256-8.2348 1.5494-12.286-1.7243 4.2948-1.7884 9.3009-3.2677 13.742-2.6765-6.4118-4.3913-13.25-6.7698-19.797-1.6319 0.19598 1.8764 6.9535 1.2499 8.7715-3.4079-2.6925-5.7078-6.5539-8.9018-9.3958 1.2848 3.2777 4.7006 6.4545 6.9191 9.608 3.4339 2.9412 4.286 7.3077 4.8392 11.579-4.8413-4.0859-9.6623-8.2526-14.516-12.302-0.56015 2.5156 5.1526 5.6149 7.2014 8.0937 4.7746 4.3207 10.005 8.5455 12.586 14.636 0.89229 2.2831 3.1074 4.2355 2.607 6.8617 3.03e-4 9.1751-0.46901 18.355-1.4351 27.475-0.15048-6.4206 0.87036-13.076 0.9174-19.595 0.08299-2.5618 0.14964-5.1242 0.22518-7.6862-2.4446 1.6868-4.293 0.1984-7.1325 0.092-1.0086-2.1408-4.0441 0.4788-4.46-1.3533-2.212 0.0596 1.7776-1.3379-0.79131-0.79603-1.0542-0.30965-2.9436-2.6891-6.2855-2.375-3.9071 0.1209-4.8475-3.5755-6.8676-5.0835-4.0674 0.0478-4.8021-5.8567-7.012-7.4375 0.82305-0.52864-1.1644-1.5078 0.36213-3.4898-2.7437-1.6282-0.79156-2.776 0.11156-4.8809-0.96548-1.4109-2.7098-1.2443-1.4349-2.9779-3.0754-3.0299-1.087-7.1539-1.5905-9.8666-1.4937 0.10149 3.3001-2.5674 1.3255-4.0365-0.54721-1.6568 2.0145-2.2233 2.2924-2.0272 1.1394 1.0946 1.2449-2.057 1.506-1.1478-0.89377-0.97132-0.42968-2.9008-1.2578-3.9918 3.4469-0.14242-0.0012-2.7034 2.4977-4.4483 0.80629 0.96448-0.29649-2.6672 1.9425-1.6023 0.58555-1.074 3.1416-1.3142 5.2018-2.3905 1.7235 0.10239 0.66009-2.2226 1.8515 0.0962 1.4471-1.2091 0.62087 1.6625 2.0724-0.0295 2.823 1.2589 3.8403 0.34441 5.6809-0.48678 2.4578 2.838-1.1178-4.6427-0.62071-0.76985-1.5434 0.15477-0.3281-2.5104 0.7289-2.2916-2.1199-0.71137-0.32938-2.0384-0.0036-1.6148-1.2264-1.5624 1.6478-1.3648-0.02971-2.5623 2.306 0.1299 2.0731-0.88364 2.2187-1.7129 2.7981-0.23723 3.7765-1.7107 6.6536-0.99777-2.042 1.2075 4.2576 1.4344 2.4459 0.35588 2.7589-1.5752 5.1614 0.72048 7.3615 0.0136 2.711-0.77519 7.5505-0.69113 9.3538 1.0143 1.3859-0.017 4.0174 3.6669 2.2875 0.57306-0.85185-2.4361 2.1188 3.0805 2.7292-4e-3 2.2803 0.21465 0.24804 3.0752 2.4555 0.40991 0.81261 1.4934 3.5114 2.6327 4.025 4.1468 0.90988-0.72458 0.93234 1.0139 2.6796 0.0624 0.76935 1.4883 1.0878 3.6784 1.1486 0.4872 1.1198-1.0732 2.6548 3.0295 0.68954 3.2878 1.3431-0.76984 3.1592-0.74104 2.5621 0.64603-0.72803-0.93106 0.56104 3.0617 0.87158 3.9218 0.6957 2.559-0.70829 4e-3 -1.0825 0.52607 1.3688 1.2272-1.4072 3.6501 0.8829 2.9498-0.95057 0.56906-2.9856 2.9014-1.1906 2.7576 0.24722-0.23444 1.8704-2.0738 1.6908 0.19174-1.1034 0.7489 2.8265 3.205 0.65695 5.0884 1.411 1.7495-1.3135 1.7514 0.43035 4.65 0.80395 1.4712 1.2894-0.1631 0.26459-0.10814 1.6622-1.5458-0.02 2.877 2.2267 2.9572 0.87169 1.879 0.67527 3.3767 2.4011 5.1915-1.2299 1.2369 1.6552 3.5358-0.80259 5.1929-1.3709 1.4791 1.7574 1.0031-0.53966 2.672 0.15022 1.7995-2.0284 1.8186-0.38151 2.3503-1.7012-0.26636 1.4304 2.1483-0.84696 1.2294-0.4171-0.28323-0.16184 3.541-1.3494 2.4125-0.42242 1.3708-2.889-1.4313-0.99978 1.265-1.6282-0.29703-5.183-2.2957-1.9493 0.31098-1.5593 0.084-3.4672 4.2302-3.6366 3.3734-1.9277-1.5285 0.74136 2.7309-0.92178 1.8413-2.0438-1.9499-0.93351 2.8444-3.8834 0.92632-2.603-0.9647 0.48333 2.1393-2.7293 0.72066 1.3232 2.7761-3.4631 1.9844-3.2564 3.0861-2.2131 1.8792-6.8075 1.7378-8.2668 1.7791-0.8339 2.7851-8.9511-1.1518-8.1409 3.7156-0.01011 8.6891 0.74515 17.414 1.1317 26.047l-0.18391-0.58056zm21.584-35.65c-0.65473-1.4412 1.4169-2.3738-0.30719-2.8215-1.4557 1.8759-1.0606 3.8722 0.67155 3.216l-0.36437-0.39454zm1.7892 0.14506c0.4435-1.3884 2.0898-2.3612 0.99953-4.1437 2.0529 1.2932-0.36435-1.215 1.9023-0.1835-0.0138-2.298-5.0787 1.1658-2.7436 1.5001 1.7405-0.97994-1.847 2.3058 0.616 0.33809-0.47013 2.0227-4.6138 1.2028-1.0426 2.9075l0.22648-0.0829 0.0418-0.33571zm-2.4512-3.7488c-0.87984-2.6777-0.64985 2.3905 0 0zm-56.089-24.09c0.04123-1.9488-1.993 1.6025 0 0zm65.137-4.847c-1.661 0.11069 0.15197 1.9174 0 0zm-63.939-5.7006c-0.70514-0.76259 0.47908-5.0016-1.2105-2.1447 1.5935 0.92404-1.1541 3.5323 1.2105 2.1447zm44.798-4.3383c0.58528-1.5507-2.3089 2.0671 0 0zm-16.801-9.0345c0.18149-0.84827-2.3577 1.6841 0 0zm22.553-1.1955c-0.61582-1.6706-1.3906 2.0964 0 3e-5zm-33.799-0.93568c-1.9578-1.4987 1.0163 1.6748 0 0zm19.153-0.54679c-1.1613-0.58548-1.2145-1.5735-0.63828 0.37693 0.11761 0.0275 1.1374-0.0247 0.63828-0.37693zm13.26-1.3316c-1.4125-1.7228-2.4047 1.4272 0 0zm-56.881 29.992c0.61945-2.2669 1.1787 1.0936 0 0zm12.828-25.731c-1.0344-1.8622-0.96057-1.7394 0.92604-0.8274-1.0629 0.41177 0.88718 1.4459-0.92604 0.8274zm2.5135-1.3312c-2.1593-1.6804 1.3309-1.9188 0.108 0.13958l-0.10799-0.13958zm3.7082 0.0497c0.35174-1.8679 1.7591 0.60017 0 0z" fill="#b0c9ae"/><path d="m82.69 244.32c-0.98999-8.729-1.2092-17.559-1.3299-26.333 0.83577 8.6182 0.42934 17.441 1.543 26.087 0.45266 0.0915-0.3155 1.6116-0.21312 0.24686zm-6.2093-2.5896c0.47384-8.1008 0.81387-16.22 1.4193-24.313 0.0259 8.4855-0.63686 16.995-1.3465 25.452-0.16133-0.35228 0.05463-0.78446-0.07273-1.1388zm-2.9532-24.54c1.0637-2.8492 0.90118 0.97531 0 0zm1.976-0.33073c-1.8517-1.5949-4.815-0.51355-7.276-1.9146-1.9729 1.007-4.733-1.898-4.6021-1.6854-2.2877-1.0382-5.3987-0.71369-8.0033-1.5449-1.9562-0.90337-2.2896-5.3473-4.7509-3.8262-0.83205-2.5914-4.7603-4.1206-4.8855-7.8296-1.5494-2.4029-0.17511-1.7941 0.06536-2.3066 0.94748-1.3883-4.2549-2.8597-0.28927-4.5372 1.8926 0.18696 4.7048 2.7527 2.6674 2.0776 2.7962 1.5586-1.4063-6.1515-3.0724-4.0486-2.0638-1.5916-1.72-4.7346-3.0021-6.9568-0.52086-2.6895 3.6888 0.0258 5.322-2.0999 5.5422-1.0046 0.39609-7.3819 2.4046-11.065-0.64322-2.7602-0.37712-3.3137-1.6862-5.1217 2.0649-1.5801 3.6037-6.7081 7.6764-5.3788 1.8604-0.0807 4.5889-0.70597 5.1746 0.0147 2.0444-0.91138 4.7344 4.2345 6.7633 1.2575-2.4743-1.8574 2.9411-1.1888 3.3016-2.6954-1.3593-2.3111 0.70171-3.3867-1.2313-4.8397-1.547 1.7002-1.2136-2.7518 0.15798-0.82812-0.76487-1.7708 0.08646-2.6191 0.55792-1.4283 0.22418-1.464 2.6588 0.87274 0.96169-0.99514 2.9091 0.45298-0.88963-2.6241 2.3424-1.0404 2.5033 0.2855 3.2892 1.3819 4.0564-0.59225 0.62658 0.37614 2.6366-1.1542 3.1652 0.18301 1.3397 0.85472 1.6208 1.7043 3.0483 0.13487 1.7678 0.53775 0.96462-0.8373 2.7864 0.81536-0.30734-0.90807 1.9205-1.6978 1.246-0.81001-2.209 1.7576 2.8707-1.1122 1.2627 0.6509 2.0307-1.7252 4.9694 1.7281 5.6789 1.4763-1.0947 1.0699 3.2878 1.8873 1.0159 4.1965-1.2074 2.454 1.3055-1.0248 0.96959 2.2093 1.5344-0.98031 2.8198-0.50873 2.5705-2.2199 0.16412-1.848 0.59664 2.0677 1.2841-0.63513 0.0784-0.17656-1.447-0.56815 0.5508-1.474 1.0335 0.87274 2.5585 2.8282 2.9125 2.0565 0.92948 2.0536-2.4388 4.7951-0.55136 4.7902 1.1003-0.76803 0.15104 2.1737 1.2542 0.71271-0.52792-2.2341-0.57956-3.7067 1.6141-2.2285-0.4078-1.3163-1.7355-0.0534-1.1704-2.6606 3.0407-1.1928 1.3785 2.0911 2.2403 2.6968 1.5738 2.7808 3.2078-1.4121 2.8962 1.881 3.0605 0.46508-0.48081 5.5383 0.0626 6.132-0.83079 1.2235-1.5731-2.3191-1.4014 0.48319-2.776 1.0878 0.2832 3.6149-2.4743 4.1456 2.8581-0.88714 1.5156 2.4364 4.0273 1.663 1.3185 0.67382-0.48977 1.6396 0.9354 1.7069 0.64892-3.4507 1.1296 1.5222-1.1366 1.1962-1.8242-0.47139-1.9853 1.8292-0.15376 0.48939-0.65378 1.761-4.1769 3.2984-1.1267 2.2395 1.2195-0.28579 0.52456 1.0844 1.4275 1.0913 0.66249-2.6825 0.42773 3.1387 2.2189 1.8428-1.0023-2.7967 0.79289 0.62781 1.4717-0.37354 2.7732 1.3298 0.88306 2.3492 1.3117 4.3272 2.8399 0.69766 1.4548 2.307 1.4801 3.6779 0.0894 0.89925 0.82311 3.5643-2.42 3.2593 0.82734 1.5457 0.79774 3.2661-2.1924 4.3435 1.4877 0.16382 2.5631-0.0159 0.87216 1.0708 2.541 1.3165-1.3844 0.68547-1.9309 1.6544-1.6185-0.92006-2.0666 1.7762-2.342 2.7681-2.2508 1.8778-5.293 0.54465-7.9193 1.9018-1.1201 1.7088-0.8623 6.6265-1.195 6.9319-1.4486-0.86415-3.3028 2.4794-4.513 2.3843-1.9094 2.5883-6.4898-0.66951-6.4309 1.8522-3.4247 0.48098-4.4875-0.83225-7.9247 0.96098-0.78825-4.4836 1.1179-8.6531 4.3358-11.81 6.0389-7.8756 14.666-13.074 21.838-19.775-1.8091-0.64027-5.6117 3.7134-8.1667 4.9876 1.5364-3.7156 3.2062-7.5032 5.6438-10.707 1.0012 2.5905 0.95027-2.2722-0.30118-2.4735-0.81071 1.2312-2.4289 5.0495-4.2138 7.6396-2.3422 3.4509-3.5102 8.037-7.5659 9.9621-1.482 0.93764-4.3813 3.4867-2.6619 0.14436 1.9515-5.2851 3.7057-10.692 5.5733-15.973-2.672-2.7847-1.9848 4.4058-3.6254 5.893-3.1876 7.2662-4.7136 15.857-11.24 21.063 0.93692-5.1503 1.6806-10.366 1.9659-15.591-2.1814-1.2476-1.2528 10.571-3.2412 4.5556-2.4631-2.8432 0.92638 3.92 0.39174 5.2095-0.79744 2.1725-0.90023 8.5312-3.0877 7.9482-0.86842-1.8981-2.5833-3.5818-3.0332-5.5964-0.08968-5.7158 1.4095-11.3 2.1098-16.93-2.1923 1.9289-1.8402 7.2671-3.0047 10.526-0.30903 2.3165-0.84748 3.9519-1.5233 0.69438-2.1716-5.9512-3.7765-12.125-6.0832-18.009-1.5741 1.5852 2.9423 9.0792 0.98452 8.8979-3.1964-2.3792-5.529-7.398-8.6899-8.7148 3.1517 4.8018 7.1953 9.0433 10.481 13.705 0.51162 2.3966 1.0772 4.7829 1.5229 7.1928-4.9248-4.1637-9.8109-8.5353-14.822-12.503 0.15456 3.3248 5.2422 5.579 7.4084 8.3589 4.6639 4.1819 9.8113 8.1832 12.365 14.102 1.0471 1.9129 4.7868 8.0629 0.79906 6.8767 0.02268 0.2064 0.23035 0.88006-0.2316 0.18707zm-18.179-6.3118c-0.47821-0.49055-2.0708-1.212-1.086 0.39785 0.38285 0.0925 0.91403 0.0202 1.086-0.39785zm1.3413-0.52386c-1.2519-1.9598-0.25796 2.5065 3e-6 -3e-5zm-2.7966-1.631c-1.2427-1.7883-0.5519 1.8332 0 0zm56.979-9.6573c0.75182-1.3771-1.8919 1.2359 0 0zm-62.755-0.37859c-0.04438-0.9798-2.6455 0.27276 0 0zm59.671 0.0479c-0.82779-2.0859-1.9964 0.62019 0 0zm4.502-2.3151c-0.83416-1.3919-1.3147 1.4636 0 0zm-6.4242-13.343c0.13362-1.8304 1.3247-2.2548-0.31988-3.2018-1.0181-1.0008-1.4029 2.3353-0.25588 3.7441 0.32588 0.35749 1.2443 0.13203 0.57576-0.54225zm-4.2504-3.6013c0.21373-1.6358-1.189 1.395 0 0zm0.35588-2.1209c-1.1537-1.4675-0.73742 1.6361 0 0zm4.4892 0.13373c1.7709-1.3645 0.1293-1.6276-1.0216 0.2451 0.30943-0.10188 0.732-0.79396 1.0216-0.2451zm-6.5232-0.84852c1.9133-3.2175-2.2223 1.7067-0.34724-1.226-2.3306-1.4789-0.94752 3.2512 0.34724 1.226zm1.7112-0.73424c-0.68189-1.3474 0.69327-3.568-0.60461-0.90637-0.0436 0.36881 0.64932 2.9962 0.60461 0.90637zm-6.9743-0.65203c1.0609-3.6721-3.4114 2.3256-0.01532 0.41946zm12.758 0c1.0252 0.2049 2.49-1.6119-0.55248-0.96086-2.0476-0.9465 0.62381 2.1636 0.55248 0.96086zm-14.853-0.92604c-2.058-1.4749-1.156 0.19759 0 0zm4.3656 0c-0.69995-1.0069-1.6669 1.0461 0 0zm3.273-0.88595c0.75203-1.4491 3.5134 1.0135 0.91183-1.2514-0.25857-0.81509 1.8516-0.7201-0.48071-1.0911-2.856 1.3292 0.32462 0.2719-1.3425 2.5436l0.12168 0.15561 0.78974-0.35679zm5.2803-0.17681c-0.16246-1.2367-1.6777 0.78756 0 0zm-10.002-2.6916c-1.7332-1.1259-2.3701 0.94978 0 0zm5.1532-0.24265c-1.0184-1.0222-1.0182 1.4148 0 0zm-7.6068-0.0754c1.4207-2.0279-2.406 0.92949 0 0zm-1.3345-1.0405c-1.6502-2.696 0.57581-1.9389 1.6459-1.9633-1.585-4.0614-4.492 3.2797-1.3869 2.4067zm4.1309-0.20825c-0.93717-3.0888-0.40621 2.4221 0 0zm5.512-0.10508c1.342-2.4636-1.8777 1.7163 0 0zm5.0656-0.0912c0.28141-2.0632-1.789 0.84334 0 0zm-9.532-0.51829c-0.78166-1.1725-0.91519 1.3378 0 0zm-8.4477-0.80698c-1.5657 0.0853 0.02969 1.9144 0 0zm6.6522 0.29435c-0.61139-2.1385-1.0959 0.74808 0 0zm-16.64-0.64632c1.7703-0.4147 0.49344-1.2048 2.4147-1.6926 0.82891-1.5102 2.6636 1.1591 3.3233 0.10642-0.30932 3.5905 3.4065-2.818 0.1816-0.84279-0.12671-1.1778-1.4663 0.0883-1.3097-1.2794-1.2286-0.70785-3.6262-2.1228-2.1189-0.044-1.4774-1.3859-4.5607-0.12061-1.826-0.0273 0.44292 0.24947-1.0882 2.7842-1.3642 3.8309-1.4867 0.60339 0.39687 0.53725 0.69925-0.0511zm17.563-0.11279c0.95104-1.7436-2.4367 1.313 0 0zm-18.347-1.0675c-1.0476-0.82091 0.43354 2.0992 0 0zm9.815 0.39258c-0.41035-3.8004-0.35039 2.1536 0 0zm10.258 0.0449c2.293-0.9705 1.7447-2.1521-0.17154-0.7276 0.10169-1.2603-1.8002 2.101 0.17154 0.7276zm4.3656-0.26458c-2.3749-1.9743 1.0514 1.7223 0 0zm-7.1698-0.68891c2.4779-0.20731 2.2741-4.7989 0.86954-1.6689 1.2509 1.2027-4.1218-0.20997-1.9679 1.8207 0.26736 0.42797 1.0514 0.34377 1.0984-0.15181zm-16.25-0.56786c-0.6411-2.5371-1.6321 1.1956 0 0zm19.688-0.28663c-1.3628-0.91191-2.2071 0.84304 0 0zm7.044-0.44737c0.39195-2.1002-1.8534 1.3448 0 0zm-42.074-0.53108c-1.513-2.2433-0.84319 1.417 0 0zm-2.1207-0.0578c-0.61943-2.2668-1.1787 1.0936 0 0zm22.225-1.3229c-0.6009-2.1425-1.0236 0.67214 0 0zm17.467-0.0945c2.1504-0.59625-1.8831-1.8959-0.0584 0.20685l0.0585-0.20685zm-7.5772-0.63315c-0.81244-1.6868-1.0273 1.3322 0 0zm3.2416-0.0173c1.2423-0.32753 1.6196-3.7595-0.19139-0.43905-0.44146 0.22703 0.54028 1.4971 0.19139 0.43905zm-17.029-0.0256c-0.98564-2.1707-0.98793 0.8848 0 0zm20.571-0.36955c-2.5942-2.747-0.26293 1.7899 0 0zm-8.6668-1.0345c-2.0626-1.2712 1.3234 2.512 0 0zm-10.648-0.0968c-2.019 0.20573-0.6656 1.4321 0 0zm15.694-0.0285c3.3268-2.7183-2.757-0.9267 0 0zm-17.899-0.52735c0.94692-2.9694-3.7276 1.6024 0.02097 0.18058zm11.334-0.0408c0.04345-0.85578-0.24964-1.4624 1.0075-2.1438-2.0205-1.0795-2.8373 3.5121-1.0075 2.1438zm-13.957-0.0779c2.6233-1.1858-0.45935-1.8081-0.02272-2.9989-1.2961 0.87111-4.3004 2.039-2.6646-0.48273-0.19049-1.8467-3.6827-3.1272-1.3614-0.78241 1.6764 0.89606 0.34834 2.6887 0.78904 3.1525-3.1142-2.8902 0.79742 2.7337 3.2596 1.1116zm12.144-1.9607c3.6906-2.5672-1.9123-1.0143-1.1189 0.72204 0.37328-0.22488 0.61643-0.75337 1.1189-0.72204zm-17.427 0.083c-1.9085-1.924-0.86624 0.74166 0.16301 0.37916l-0.16301-0.37916zm22.408-1.0165c-1.1822-0.19808 0.60349 2.7298 0 0zm-11.999-0.0994c-1.7364-2.0498-0.15124 1.676 0 0zm1.0362-0.37125c1.683-0.82453-1.3417-2.4593 1.7752-3.7302-0.17024-1.265-3.8821 1.8541-2.277 3.955-0.40251 0.52243 0.87889 0.81673 0.50181-0.22485zm8.829-0.23769c-1.1445-1.5184-0.58503 0.3567 0.34114 0.66146zm3.2346-0.3119c-0.16368-4.186-3.3993 2.0151-1.0421-0.86343 0.78613 3e-3 0.23121 2.5799 1.0421 0.86343zm-15.15-1.3707c1.4233-1.8886-0.36152-5.3963-0.22094-1.1477-0.12265 0.45168-1.6323 2.56 0.22094 1.1477zm8.7158-2.0877c-1.1258-2.3244-0.52406 1.7425 0 0zm21.083 27.334c0.58694-3.2166 1.9563 0.16041 0 0zm-63.745-3.3586c1.4862-1.0786 0.07299 1.8643 0 0zm18.523-13.687c-2.5043-0.9902 0.90908-0.59569 0 0zm43.338-2.1015c-2.0614-2.3352 2.106-2.4927 0.57217 0.46302l-0.57243-0.46302zm-41.955-2.0728c-0.6847-1.6523 1.3125-0.0389 0 0zm-0.39422-2.3297c-0.13428-1.9791 0.99324 0.052 0.24026 0.77208l-0.12857-0.17181zm30.799-0.41997c0.62516-1.2982-0.07842-3.905 1.7939-2.9159 0.79573 1.9482 3.5809-0.32954 0.96976 2.125-1.1818-0.35965-1.9935 3.4411-2.7636 0.79084z" fill="#92b48e"/><path d="m76.511 241.33c0.14219-3.1893 0.14135 3.3401 0 0zm5.8181-0.92604c0.15107-2.9626 0.14276 2.9694 0 0zm-5.5508-2.9104c0.147-3.4992 0.13815 3.507 0 0zm5.2959-1.0583c0.12766-3.5258 0.1102 3.5822 0 0zm-5.0404-2.249c0.19589-2.537 0.1184 2.7941 0 0zm4.7807-3.175c0.1322-4.5396 0.14252 4.3315 1.32e-4 0zm-4.5011-0.79375c0.14657-3.8409 0.13446 4.046-1.5e-4 0zm4.2454-6.0854c0.15018-7.0112 0.11447 6.8834 0 0zm-3.9737-0.39687c-0.02864-3.948 0.32303 1.1476 0.02855 1.554l-0.02088-0.58493zm0.23876-5.0271c0.15569-2.4271 0.1488 2.4324 0 0zm-2.3872-2.4499c-1.3098-1.7406-3.4969 0.0662-4.5061-1.4184-2.7186 0.74949-6.6652-0.42675-7.6311-2.1649-1.2542-0.22455-5.2856-0.47459-4.9885-0.74797 0.38243-1.5578-1.8708 0.58342-1.1757-1.6855-1.4012-2.9929 3.0784 3.4128 1.9416-0.70351-0.63404-1.243-1.8596 0.30149-2.9226-2.0286-2.1938 1.3723-2.8966 2.5267-4.014-0.0825-2.938 1.9913 0.80408-2.8067-1.7539-1.1977-3.5351-1.3649 1.5148-4.16-2.1587-2.9681-0.19941 0.40362 0.30495 2.382-1.0587 0.20186 0.51247-2.5167-3.0459-5.4572-0.9803-5.8049-0.62039-0.47087 1.0917-1.1254-1.118-1.6664-1.3107-4.2277 3.2236-2.1562 4.0596 0.0932 1.5558-1.8993-2.5292-6.0046-3.7675-5.0304-1.629-1.1785 0.94398-1.0223-0.94851-1.6519-1.1538-1.9666 0.36656-1.5652-1.1475-2.9999-0.42459-2.655-1.166-2.3105 2.0191-3.0727 2.9094-0.32181 6.7933-2.3726 5.1288-6.5862-1.014-2.5884 0.34757-7.1336-0.76582-10.4-0.10083-4.7482 4.5683-6.1038 8.3059-5.7794 1.4621 0.0408 2.1419-0.9076 3.2682 0.40977 2.6863 0.19747-2.2056-0.0778-0.78387 1.3226-1.0818 0.44385 1.3873 1.8739 0.49605-0.0771 2.1498-1.5486 0.43534 3.3842 2.8675 1.1791-0.16855-1.7262 1.7692 1.9353 3.1874-0.39208 2.9186-1.8442 3.4862-2.5198 6.1036-3.7943 3.5798 0.0798 3.6952 0.74937 6.9556 0.3612 1.8281 1.8571-4.7868 0.20367-1.0862 1.5336 2.3849-0.11437-3.2016 1.9956-0.58114 2.9513 1.2208 1.3488-0.50226-2.4922 1.447-0.39044-0.72219 2.171-1.0197 0.66188-0.79839 3.5712-1.1383-1.5753 1.0167 3.307 1.215 0.0256 2.4275-0.13745 2.3628-2.1177 3.7606-1.8697 0.85783 0.89582 3.1986 1.031 4.8328 0.6704 0.31259 2.5372 2.4198 2.0689 3.0449 1.5308-1.2055-1.2828-0.10508-1.4835-1.364-1.7415 1.1082-2.2979-2.0201 1.777-0.80322-1.4609-2.6887 2.6825-0.27474-1.109-1.6833-1.5825-1.1188-0.56383-3.2148 2.0396-1.7989-0.44189 2.1266-2.1309-3.298 1.854-0.81338-0.50585 1.342-1.0546-0.76934-0.41865-1.4496-1.7445-2.2171 1.7389-2.2022 2.138-4.3162 1.9569 0.28073-1.9376 1.5255-0.21878 1.9967-0.96888-1.9544-1.5244 2.0868-0.43301 0.67255-1.469-3.1968 0.80297-0.0084-3.3272 1.3407-3.2866 1.011-1.7053 1.8252-0.83566 1.0117-2.4161 0.52495 0.34108 1.85-0.72407 1.5644-0.90253 2.633-2.6012-3.5658 2.3257-0.8903-0.62482 3.4116-2.262-3.9225-0.088-2.1902 2.3302 1.3249 2.5687-1.7943-1.0541-1.5682 2.3166-0.80325 1.7839-2.9947-2.3238-4.6879-1.1575-1.5603-1.5336-1.3832-3.2662-3.6389-3.0778 0.45484-0.35882-0.49925-3.6212 1.5313-2.2369 0.52488-1.3481 3.7862 2.0782 3.8876-0.55892 2.1607-2.4651 2.6525 1.124 1.808 3.0022-2.0284 2.5321 3.4662 0.0382 2.1757-0.95691 0.94509-3.1918 3.434-1.4829 5.1538-0.72169 0.52985-0.0796-0.99976-1.7379 1.1607-0.63317-1.0314 2.3712-0.20161 2.6187 1.0574 0.41162-1.0924-2.7104 3.858-0.30788 3.0422 0.98847 0.38159-1.7155 3.0712-0.0885 1.7145 0.23394 0.97186 2.5792-4.8939 1.746-1.0933 3.905-1.5776-3.5548 1.6235 2.1774 2.5237 1.7983 1.718-0.50676 0.16417 3.8264 1.217 2.071-0.49001-1.3158 1.7567 0.0964 0.92515 1.3158 1.1026-0.0552 2.3623-1.7199 1.2159 0.34646 2.5389-1.7403-1.5516-1.0506 0.45608-2.4702-1.297-1.369 1.3132-0.54449 0.0987-2.2072 2.0938-1.0992 0.45611-4.2623 2.2017-2.1462 1.9151 0.19156 2.2156 3.7291 1.4051 5.1554-1.2682 1.3261-1.7148-1.3042-2.307 0.0531-1.0591-1.0174 0.44591 3.756 0.8758 4.2665 0.56451-0.45985-0.57237-0.76302 0.97028-1.8124 0.22275-1.7658 2.1175 0.29507 3.0172-0.96089-0.14927 3.2134 3.9711-2.1455 0.54496-0.16276-2.3616 0.37481-1.253-1.1354-1.7783-3.0716 2.069 3.018 3.128 1.6004 0.66463-1.0534 0.78079-0.10683 2.2218-0.85704 1.9285 1.0127-0.75942 2.4184 5.823 2.0197 4.1737 5.2876 6e-3 2.095-2.4424 4.6847-3.8456 3.3508-1.2376-1.7486-1.4602-0.11465-0.20576 0.51012-0.50564 2.0426-0.35437-1.7605-1.0459 1.0819 2.8946 0.0253 0.86716 0.49241 1.1858 1.1516 1.7893 1.6758-3.3502 2.6908-0.65939 4.1078-0.42324-0.75615 1.8362-3.0392 1.644-1.1785-1.6014 1.4004 1.0207 3.4107-1.4962 4.5759 2.54 1.3704 1.6559-3.5662 3.0592-1.3812 0.84881-3.0751 1.223 1.3462-1.2198 1.0649 0.54786 1.8364-0.73239 1.3759-0.61095 2.2273-0.11197 1.3292-1.9288-1.259-2.2283 0.77707-1.6673-0.77004 0.61209-3.7066-2.3505-2.2276 0.40022 0.98961 0.7747 0.20057-0.94222 1.1746-0.26557 3.9104-3.6025 7.04-5.1361 10.63-1.0695 3.3682-5.6553 6.1178-7.903 6.7782 2.2038-5.7547 3.8072-11.736 6.2122-17.411-1.6621-1.1028-3.0247-2.9089-1.8457 0.32111-2.2258 6.4095-4.7415 12.744-7.3071 19.026-1.1141 2.3719-4.7102 7.5902-5.7677 6.8407 0.882-4.8701 1.5516-9.8057 1.8028-14.743-2.26-1.2756-1.4392 10.545-3.128 4.7517-2.6259-3.3133 0.67084 3.6374 0.27299 5.0883-0.8144 2.0646-1.2354 8.623-2.8539 8.1828-1.8688-2.9377-4.247-6.0824-3.1503-9.7868 0.53176-4.4087 1.485-8.7576 1.9837-13.169-2.5183 2.6498-1.9254 8.1439-3.2839 11.858-0.26986 2.6484-0.72328 1.5536-1.218-0.3828-2.0046-5.9817-3.8439-12.023-5.8881-17.987-1.9952 0.52656 2.2611 8.1819 0.91366 8.7922-3.1962-1.8887-6.2515-8.7487-8.796-8.3438 2.0234 3.0508 4.8795 5.9106 7.1129 8.97 3.282 2.9241 4.0617 7.1569 4.8531 11.266-2.8861-1.8768-6.0644-5.3092-9.1759-7.6689-1.5683-0.71525-5.8448-6.3644-5.7808-3.407 5.6068 5.9108 12.348 10.754 17.481 17.099 1.704 3.5579 4.7232 6.9143 5.1306 10.854-0.78978-0.27742-1.5158 0.43035-2.2125-0.21044zm-22.556-10.024c-1.3774-0.40698-1.0981 1.6511 0 0zm-2.886-8.0309c-1.6197-1.4316-1.1117 1.3421 0 0zm-4.8915-11.554c-0.81135-0.6069-2.2727-1.2051-0.39927 0.30955zm6.4715 0.0611c1.3294-2.1836-3.1649-0.60856-1.1534-0.1943-0.5139 0.63314 1.766 0.55938 1.1534 0.1943zm2.3642-1.1053c-0.65905-1.0953-1.7351 1.5926 0 0zm2.3093-2.4165c0.61948-0.94275 2.8495-2.7288 1.0578-2.2993-0.24488 0.5721-2.2894 2.3583-1.0578 2.2993zm-0.57432-2.6903c1.4206-1.9724-2.2888 1.4537 0 0zm43.904-0.9493c-1.9577-1.4986 1.0162 1.6748 0 0zm7.0791-0.89586c1.6528-1.9405-2.5547 1.1418 0 0zm-3.3821-1.2192c0.96174 2.171 0.29303-3.5871 0.85535-3.3833 0.833-2.4447-1.0214-4.8307-3.0013-2.1754-1.1015 3.561 3.725-0.38717 1.3738 1.9217-4.0875 0.18081-1.1523 4.9436 0.50076 2.2479 0.50151 1.1805-3.5404 1.6164-0.2199 1.7596l0.49133-0.37053zm-1.7111-2.6112c0.64783-1.6235 1.5815 0.0786 0 0zm-4.6176-0.0997c0.39856-1.9827-2.6972 0.32411-3.9813-1.5224-1.6495 0.58491 3.0722 0.99086 2.5668 2.7012 1.079 0.51395 1.5863-0.1994 1.4145-1.1788zm8.5864 0.36206c-1.0152-2.165-1.3647 1.2986 0 0zm1.6832-0.16469c-1.6564-1.4103-0.82173 1.3322 0 0zm-8.7119-0.6549c2.1977-1.7719-2.5981 0.53834 0 0zm2.3985-1.55c-0.6225-1.1505-0.87489 1.4582 0 0zm-3.1971-0.74342c0.40575-1.6082-2.5459 1.016 0 0zm1.2638-0.56245c-0.72325-2.4743-1.4294 0.85409 0 0zm-44.872-0.6809c1.4533-3.0526-2.2445 2.6364 0 0zm40.895 0.22084c1.347-2.3485 0.87009-2.248-1.2281-2.2418-1.2209-1.7448 1.7592-3.0971-0.03503-0.55122 1.0023 1.7228 0.44131-2.3792 2.4147-0.41882 1.0783 0.98596 2.1242 2.748 4.3052 2.58-0.5558-1.9671-0.63774-2.4475 0.27506-4.1163-1.412-0.0129-0.18194 2.5012-1.8019 0.28424-1.0594 0.0988 1.6115 2.5788-0.58192 0.39381-0.91762-1.95 3.0558-0.10295 3.1187-1.4104 2.1185 0.15959-0.61426-2.245-1.54-0.39741-0.48858-1.0602 1.6156-0.76369-0.2921-1.3263-0.51982-0.0713-1.976 0.22916-0.19454-0.98187-2.5981-2.22-0.71383 3.6561-2.9976 0.37548 0.96544-2.6385 0.3879-0.65629-0.83194-1.1269 1.7732-1.1968-2.6659-1.8892-0.04004 0.44453 1.7657 1.2321-2.2556 2.7635 1.227 3.1342 2.0476-2.03 3.096-0.51368 0.58686 0.36659-1.6624 1.4465-1.5364 1.191-2.8062-0.19153-3.3478-0.0218-1.3722 2.972-2.9012 4.3323 0.74613 0.47235 1.7664-0.92568 0.18523 0.89722 2.5716-1.209 1.2699-0.27762 3.138-0.0457zm2.6798-3.0759c0.49884-2.1439 0.4802 2.1189 0 0zm-0.05342 2.0687c-2.8301-0.47693-2.0224 1.1686-5.72e-4 0.57668l0.09112-0.31657-0.09059-0.26011zm5.2482 0.12209c-0.24965-1.6529-1.9552 1.6435 0 0zm1.6083-0.44231c-2.747-0.3495 2.0039-4.2225-1.2561-4.2876 1.7508 1.5874-1.155 2.3908-0.26535 3.0748-1.8478 1.2746 1.1072 0.97534 1.5214 1.2128zm-34.131-4.8471c0.56808-1.8221 3.4424-1.3644 1.9551-2.9516 0.38427-1.4781-0.82418 2.1425-2.2196 2.0951-0.24725 0.13889-0.31407 1.6867 0.26458 0.85649zm36.814-0.81612c1.2626-2.9639-2.4222 1.8287 0 0zm-2.8138-0.0206c-0.8182-1.7589-1.3854 1.0322 0 0zm-2.9369-0.42447c-0.33764-1.3337-3.01-1.5936-0.20144 0.41799l0.20144-0.41795zm-30.719-1.2522c-0.96942-1.1252-1.4581 1.2185 0 0zm3.447-0.59237c-1.9025-2.0228-0.21802 1.9747 0 0zm13.728-1.4819c-3.042-0.44035 0.07959 2.3456 0 0zm6.6259 0.0985c1.1806 0.32429-2.7906-1.4608-0.30363-1.3406 2.4541 0.69425-0.8826-2.0771-0.86088-0.31658-1.0902-2.8272-0.87397 3.6868 1.1645 1.6573zm-8.5749-0.57914c-1.7853-3.792-0.375 2.2995-3e-6 0zm-1.5424-0.79038c-1.4733-0.35095 0.71734 1.4455 0 0zm7.5196 0.12051c-0.1267-1.0547-0.2579-1.288 1.2062-2.1665-0.55131-0.8204-2.5891 0.17816-1.9504 2.5019l0.27686-0.0283zm9.6729-0.0326c0.84152 0.5034 1.951-0.0812 0.0537-0.45012-1.0375 0.0974-0.30187 1.6526-0.0537 0.45012zm-11.112-0.32756c-1.3462-1.7652-1.2656 0.59629 0 0zm-1.1197-1.0866c1.6172-0.885 3.5887-2.2808 1.0141-1.6937-1.1399-0.49976-2.4763 3.1234-1.0141 1.6937zm-5.2303-0.11289c2.164-2.2605-1.6835 1.121 0 0zm3.0891-0.85496c0.60103-2.3339-1.3963 0.34191 0 0zm15.167-0.48736c-0.57859-2.1266-0.94529 2.2499 0 0zm-23.019-0.66146c-0.67733-1.7995-0.51731 1.7435 0 0zm9.9087 0.0213c-1.4466-2.8131-0.72869 0.70774 0 0zm-1.3376-1.4993c0.40822-3.2559-1.272 1.7682 0 0zm6.2456-0.67078c-0.4683-0.61518 0.04805-1.718-1.3375-0.19638 0.08603 0.52336 1.0773 0.55133 1.3375 0.19638zm-4.2333-0.5295c-0.78747-1.3707-0.60922 1.7913 0 0zm1.4993-1.7315c-1.491 0.26184-0.51852 1.6951 0 0zm-9.8776 64.226c0.45843-2.145-0.59724-4.7112 1.3979-6.2599 4.3632-6.0264 9.5907-11.366 15.558-15.817 3.1384-2.6812 6.817-5.207 9.6164-7.9731-0.88563-0.72173 0.39973-0.54119 0.59179-2.5121 1.3089-1.2727-0.61686 2.1176 1.2746-0.27447-0.57713-1.667 0.6183-2.0293 2.1177-0.2026 1.9384 0.89469 2.9956-1.2333 3.8811 1.4154-1.0241 2.4901 2.576 3.9519 1.2209 6.8824 0.54086 1.3158-2.4197 1.4153-1.0544 2.2038-2.1704 0.48631-0.39208 2.9654-2.9418 3.5001 0.93347 0.60608-0.19304 1.4066 0.45408 1.7288-2.9238 0.58752-3.8825 3.3166-4.9625 5.6472 0.28366-3.8177-0.8181 1.4039-2.7932-0.38788 1.8706 1.7372-5.5804-0.4734-4.7142 2.7518-0.048 3.6866-2.1062 6.7826-5.5716 8.2866-1.3478 2.2389-6.1611-0.46862-5.8326 1.5265-2.2649 0.9768-4.3398-1.012-6.0152 0.0807-0.37574-0.68341-3.3456 2.8714-2.2265-0.59559zm28.222-17.07c-1.3179-2.3005-1.6284 1.4793 0 0zm3.1038-9.4896c-1.1796-1.2192-1.0704 1.1971 0 0zm0.44443-3.226c0.66104-3.7693-0.60198 2.2741 0 0zm0.9315-2.1426c-0.31924-1.3756-3.606 1.414 0 0zm-59.539 27.939c-0.94609-2.2942 3.4717-3.0688 0.97115-0.63239 0.26499 0.66799-0.57434-0.61515-0.97115 0.63239zm45.138-21.481c1.3251-2.441 3.2436-8.4201 4.9096-8.601 4.0754 3.4356 0.0929 5.6072-3.0152 7.6564-0.25777 0.0248-1.9912 1.8263-1.8944 0.94463zm-13.362-25.816c1.9876-2.9066 1.2041 1.0025 0 0zm-23.721-1.7853c-0.46483-2.4024 1.5169 2.103 0 0zm39.065 0.26356c-0.23057-2.0837 1.6172 0.98825 0 0zm-18.518-0.65855c0.67733-1.7995 0.51731 1.7435 0 0zm25.714-2.127c-1.9545-4.0103 2.2867 2.0602 0 0zm-30.146-2.5577c-2.101-1.269 2.2933 0.44294 0 0zm16.436-0.41208c0.64166-2.2642 1.438 0.51857 0 0zm-0.26325-1.0414c-1.7636-1.0802 1.2153-2.041 0 0zm2.2824-0.22107c0.63597-1.9379 0.72551-5.6598 2.7189-2.2362-0.98464 0.33779-1.5222 2.6141-2.7189 2.2362zm-24.82-1.3301c-0.72264-1.0578-4.5271 1.1387-2.9657-0.84321 0.76034 0.13291 2.9945-0.43503 1.6382-1.6906 0.79284-0.55768 2.1092 4.1526 1.3275 2.5338z" fill="#81a97d"/><path d="m76.505 241.6c0.19589-2.537 0.1184 2.7941 0 0zm5.8172-0.92604c0.15569-2.4271 0.14879 2.4324 0 0zm-5.5526-3.0427c0.19589-2.537 0.1184 2.7941 0 0zm5.298-1.0583c0.14219-3.1893 0.14135 3.3401 0 0zm-5.0423-2.3812c0.21527-2.0344 0.11719 2.2576 0 0zm4.7826-3.175c0.11883-3.28 0.1188 3.5914 0 0zm-4.5001-0.39687c0.147-3.4992 0.13815 3.507 0 0zm4.2487-6.6146c0.12545-6.4184 0.15359 6.0773 0 0zm-3.9764-0.52916c-0.02952-3.1992 0.33628 0.93387 0.02975 1.258l-0.02176-0.47351zm4.0315-9.2131c-0.54486-4.8518 3.8739-7.9235 6.3151-11.539 6.102-6.7748 13.979-11.616 20.556-17.861-0.49087-1.5582 1.5476-2.072 2.7189-2.04-0.60194-2.2488 3.6532 1.0356 1.136 0.44118 1.5053 0.98987 4.1048-0.65841 2.8933 1.1566 1.1113 1.7045 2.8237 4.369 1.332 5.8967 2.1698 0.71181-2.8204 1.9317-0.44569 2.438-2.0326 1.6137-0.95492 2.6713-2.8443 2.9475-0.79122 1.0063 0.76911 2.0229-0.87369 2.3335-1.2613 0.69182-2.9299 4.0368-3.4661 4.6141-0.26516-3.6613-0.99723 1.4498-3.2982 0.88328 0.46408 0.65557-6.2604-0.21057-4.4716 3.3523-1.2502 2.6005-0.30331 4.4312-3.2146 5.3722-0.18752 0.40063-4.2127 4.1196-6.1938 2.5554-1.4746-0.19797-1.6483-1.6814-1.9314 0.19588 0.20878 1.7424-3.1298 0.83298-4.2153 0.32215-1.6263-0.21027-4.8957 2.9724-4.0388-0.24917 0.01413-0.27312 0.02825-0.54623 0.04238-0.81935zm19.159-7.3675c-0.41155-1.7128-0.42435 2.131 0 0zm8.9958-8.6715c-1.3179-2.3005-1.6284 1.4793 0 0zm2.1167-7.5562c0.12006-1.3441-2.6249 0.88959 0-4e-5zm0.89166-2.1828c-2.0727-0.73738-0.0766 1.4011-0.12955 1.0135-1.1433 2.2242 1.5562-0.42249 0.12955-1.0135zm0.47769-1.9216c1.0788-3.1259-1.3051-1.1194-0.48585 0.25558-2.2602 1.177 0.55772 0.73151 0.48585-0.25558zm-4.3078-0.56988c0.17858-2.1215-2.7634 2.3018 0 0zm-33.801 29.893c-2.3701-1.0621-5.5395-0.72633-8.9856-1.5646-2.7419-2.1037-4.7847-2.0443-7.9061-2.0551 0.7128-0.20111 2.0818-3.8109 0.1387-3.3581-0.8078 0.67689-2.2058-2.8773-4.4999-0.37694-1.9264 0.46892-0.93367-3.1366-1.2104-3.1399-0.2151-0.74721-6.3463-0.23068-2.5741-1.8504 1.4087-2.0602-0.17834-0.88286-1.8717-0.25152 0.94947-0.9885 1.2437-1.6173-0.48931-0.0928 1.7365 3.2018-1.8443-0.27923 0.0368-1.5493-1.9744 2.0967 0.41641-1.8797-1.739-1.9252-1.6666-1.5996 2.1635-2.4843-0.95547-3.7244-1.2016-4.2751 3.199-2.0031 4.1133 0.17082 1.4659-1.6652-2.4221-6.43-3.7626-5.0433-0.62148-1.7206-1.3463-2.3265 1.378-3.46 2.1868 0.19287 5.4914-0.23105 5.4626-1.7133 1.7345 2.2912 0.96426-1.3691 3.1152-0.57606 1.1354 0.84789 3.301 0.46375 0.83791-0.42379-1.5139-3.1021 6.5696-2.105 1.9773-2.6168-1.8331-0.88265 1.977-2.0482 2.3645 0.42782 2.5979 3.2834 5.4728 6.4731 7.8534 9.8788 0.43924 2.3484 1.0688 4.6959 1.4709 7.0214-4.8913-4.0897-9.7079-8.2909-14.547-12.435-1.1424 2.8079 4.5406 5.0264 6.1058 7.4197 4.7622 4.6374 10.51 8.6583 13.301 14.901 0.49349 1.6115 6.1432 9.0999 0.3858 6.3371zm-24.975-17.744c-1.6473-1.464-1.5081 1.5226 0 0zm4.5639 12.131c2.4963-2.9265 1.1845 0.87042 0 0zm21.914-3.2221c-3.0715-3.406-2.7167-7.9377-1.7753-12.091 0.07206-2.8902 2.0491-7.7922 0.86521-9.5429-1.4987 4.2843-1.9241 8.9772-3.1279 13.392-2.6654-6.5215-4.2951-13.439-6.8136-20.003-1.3981 1.765 1.4409 6.6098 1.4506 9.1838-3.5691-2.5013-5.8433-7.0071-9.1088-9.3894 1.9881 3.2522-4.2799 0.56105-4.0884 2.2889 1.5491 0.21153 1.1019 0.93775 2.2156 1.0337-1.7262 0.25524-0.2607 1.0461-0.89965 1.5172-0.5197-0.53205-1.9545 2.504-1.0381-0.4504 1.3379-1.8258-2.2121-0.82827-0.56299 0.2142-0.94356 2.4077 3.1172 0.80007-0.52006 1.9853-1.0258 0.76531-1.2456-1.875-2.3619-0.48886 1.7602 1.4729-3.1042-1.0036-1.5495 0.96814-0.82329 2.2677-0.84178-1.3128-1.9509 1.5101 0.45077-1.9277-0.85984-2.2998-1.9972-0.51971 0.80163-1.5254 1.7216-5.3753 3.7501-3.4682-1.1996-1.2159 2.5313 0.32019 1.2993-1.1577 0.55304-1.0964 0.35038-5.118-0.10764-5.7311-0.60629-1.2182-0.01146-5.5974 0.49192-7.2314-2.6127-1.5398-0.43531-7.7475 2.3489-7.8383 2.133-0.67301 5.4076-0.25797 6.824-1.1046 1.6163 2.3215-0.92379 2.0375-1.5625 2.6959 2.4507-0.80076 3.455 4.0084 0.34483 3.288 0.05201 2.3702 1.2218-0.16847 1.6837 0.30561-0.34724-0.82864 4.2218-2.2582 0.4878-2.4781 0.02418-1.0735 1.6496-1.5526 0.0079-1.3296 2.5052-1.6165-0.90509 2.1322 2.0489 1.5103 1.6617-0.66791 2.2441 0.73663 2.2942 0.60548-0.17869-1.3372 6.722-4.6363 2.7964-1.6402 2.9027-0.95543 1.7634 1.6107 0.43555 1.6564-0.91195 2.228-1.5908 2.4955-0.12588 2.4845 1.0732 0.9995-0.41575-3.2222 2.3421-2.3592-0.14239-1.0762 3.5798-1.3439 2.6311-1.9624 2.5433 0.2802 0.11804-2.4867-0.65015-2.8405-3.8235 0.3569 5.24-2.3984 2.6579 1.2872 0.65122-0.78976 3.3245-1.2773 1.8859 0.39698 3.3945-1.1863 1.5033-0.0418-0.23891 0.95644 0.2584 2.2448 3.3746 0.92612 1.6446 4.0842 0.06247 3.0094 2.1732 0.10286 3.4533-0.16712 0.5703-0.91562 1.0006 0.0806 1.6987-1.4935 0.88961 1.7245 3.4988 0.86009 5.0287 1.1267-1.3542 1.8708 1.9841 1.9251 2.5436 1.8947-0.78849 2.5952 1.1526 3.4051 2.7536 2.4227-0.67979 2.5409 1.3356-1.6935 2.1269-0.1071 1.8503-0.64931 1.5178 1.1942 2.8743 0.95378-1.4212-1.1077 0.0028-1.9657 0.38694-0.71913 2.8018 1.3777-0.23154-2.505 1.1398-3.1982 1.214-2.2206-0.4249-5e-3 1.4136-0.66299 0.70481-0.31143-1.1435-1.105 0.75857-2.084-0.2918-2.294 3.4934-1.6012 0.34855-2.606 2.4159-0.48927 4.4212-0.0641 2.93 2.5363 1.4493-0.89237 3.5961-4.7184 0.25807-3.3805-1.8892-0.89629-0.48321-2.443 0.59146-0.70016-0.31484-3.7546 2.6418 1.0414 4.6845 1.2162 0.89648 2.454-0.45484 4.7138-2.895 5.3873-1.9976 0.0295 1.3831-1.1002-0.3079-1.3444-1.324 0.35219-2.119 0.7735-0.98299 1.0211 1.1152 0.94684-2.2451 1.2665 0.33801 1.923 1.7801 0.21258-1.1949 0.54482 0.61886 2.0066-1.2829 1.5259-3.7995 2.0576-3.8002 2.5443-0.75371-1.6018-0.28761-2.491-1.6427-3.46 1.1516-1.9876-0.1438 2.3972 1.6038-0.34408-2.491-0.88695 1.368-3.0568-0.76972-4.7576 1.2063-3.0358-1.5687 0.52276-0.18629 1.8347-1.1159 1.0667-0.96946 2.4784-1.6148 3.8906 0.45481-0.0746-1.1059 2.406-1.4738 1.7439-0.7177 2.4561-0.97624-1.5746-2.2331 1.3466-2.0573 1.7958 5.7567-1.8279 2.4075 1.0153-1.988 2.147 3.3213 3.649 2.2523 5.2463-0.91521 3.854-4.0463 7.1674-5.6578 10.892-1.2302 2.7394-5.3778 4.878-7.2488 5.6055 2.0805-5.4978 3.6499-11.208 5.9219-16.619 1.6607-0.64766-4.2673-4.5125-1.5082-0.82168-2.1967 6.5237-4.7905 12.928-7.3494 19.318-1.2269 2.7158-3.9957 6.3003-5.7891 7.3831 0.62992-5.1739 1.9348-10.364 1.706-15.584-2.1737 0.36282-1.3318 10.035-3.1324 4.8454-2.4911-2.7814 0.85892 3.9407 0.40185 5.2824-0.8536 2.0483-1.2409 8.6531-2.8538 8.2031-0.27395-0.44273-0.5479-0.88546-0.82185-1.3282zm-28.264-23.527c-1.166-1.665 0.18625 1.8301 0 0zm49.53-0.84666c-1.7623-4.4323-0.19777 3.0258 0 0zm1.7277-1.2722c-0.37333-1.849-1.4553 3.1043 0 0zm-46.82-0.41426c-0.67839-2.925-1.427 2.4795 0 0zm2.3797-1.2654c1.0256-2.1734-6.3091-1.3265-1.625-0.91571 3.832 0.0694-1.359 1.4313 1.625 0.91569zm44.59-0.0839c1.1026-0.2441 1.6904-0.94381-7.32e-4 -1.2302-0.7726 0.46935-0.79742 2.1837 7.32e-4 1.2302zm-0.1992-1.4273c3.7284-1.2194-2.4398 0.16736 0 0zm-0.18279-1.834c1.1573-0.70791-2.126-0.63684-0.95284-1.2922-0.71559 0.35518-0.74116 3.9076 0.95284 1.2922zm-3.3341-0.42718c1.8191 1.6563 1.39-4.6984-0.07636-1.8371-1.3535-0.33023-5.6732-1.4627-2.0781 0.0728 2.9333 0.51959-1.1462 2.7279 2.1545 1.7643zm-17.793-1.0373c-0.72011-0.99507-1.6232 1.5362 0 0zm15.095-0.12299c0.46786-1.913-2.2271 1.1108 0 0zm-41.866-1.0456c1.0605-0.77831 4.2619-2.0625 2.0758-2.1589 1.6268-0.77591 0.39814-0.97543 1.8725-2.7593-3.1991 0.57657-3.7236 2.1712-4.4873 4.6496-0.73137 1.1186-0.23972 1.4347 0.53901 0.2686zm0.31298-1.5909c1.6004-2.1876 1.4558 0.89124 0 0zm40.993 0.61487c-0.73416-1.6915-2.1328 1.5294 0 0zm0.51518-0.99996c-2.6585-1.8492 1.5183 1.9591 0 0zm3.586 0.34753c2.8764 0.47782-0.94494-1.3248-0.40844 0.0661l0.21637-0.20346zm9.1118-0.14707c0.3863-2.9517-1.5437 0.21194 0 0zm-51.454-3.2166c1.8377-1.7383-2.8956-0.0147-0.59471-1.2131-0.93534-1.9644-1.7883 3.3403 0.59471 1.2131zm4.2592-0.7629c0.56904-1.0532-2.8507 1.25 0 0zm43.411-0.0466c-2.5883-1.5158-0.3332 1.0362 0 0zm-47.854-1.6194c0.60312-1.0306 3.4438-0.97678 0.70442-1.2033-1.2573-0.24328-2.0582 1.9402-0.70442 1.2033zm-3.0983-0.41249c-0.73643-1.3336-0.5015 1.7006 0 0zm11.642 0.0465c-1.3728-0.75329-1.9866 0.52132 0 0zm-3.0509-0.67903c-0.76881-1.7368-1.1001 0.34798 0 0zm45.473-0.87317c-0.8265-0.8226-0.7221 1.656-0.0236 0.24036zm-46.841 0.15434c-1.3586-1.2156-0.83799 1.2989 0 0zm18.177-1.6426c-1.4441-0.94172-1.8625 0.89718 0 0zm-25.863 44.615c1.3721-1.5896 1.118 1.4403 0 0zm-0.98092-1.5033c1.3431-1.2869 3.348-0.0987 0.2393 0.15512l-0.2393-0.15512zm50.013-16.217c1.0811-3.1125 2.9582-5.6635 4.204-8.5979 2.2225-0.0971 3.2065 5.5877-0.28914 6.1402-1.1674 0.62431-2.9511 2.7156-3.9149 2.4577zm3.7135-3.7897c-0.23421-2.8439-1.2629 2.0926 0 0zm-59.565 2.5075c-0.63773-0.94543 2.6477-1.3076 0.42632 0.37004zm0.2735-3.4945c-3.5213-0.2945 5.1732-3.7698 1.3257-0.86139 0.47387 0.7623-1.2502 1.8354-1.3257 0.86139zm63.384-6.2106c1.0818-3.5036 1.393 1.1125 0 0zm-3.8859-1.1245c2.9125-0.9893-1.6548-3.912 0.70454-3.3734 0.25678 2.9853 1.9831-2.6312 2.4833-0.56826 0.16961 0.13972 3.3158 1.4862 1.1422 2.648-0.81308 2.6911-2.5524 1.0871-2.6822 0.8615-1.0999-0.53553-2.5895 2.5478-1.6478 0.43219zm3.3341-1.5875c0.97831-0.4036-1.6185-2.8656-0.59274-0.28054-1.7939-1.3715-0.89569 0.93369 0.59274 0.28054zm2.3516 0.18183c-0.35786-1.2612 1.3166-0.0342 1.6751-0.98467 0.70439 1.0741-2.4848 1.7675-1.6751 0.98467zm-7.3746-2.8531c1.8941-1.3031 1.1027 0.97868 0 0zm5.6957-0.25072c-0.80531-2.4688 1.6222 0.66603 0 0zm-11.9-3.9989c-0.22643-2.3985-2.6661-0.1269-1.8329-2.6041-0.46807 1.3026 4.7324 1.6756 2.4761 3.117-0.36494 0.25036-0.8603-0.17758-0.6432-0.51284zm-4.3152-2.1305c0.01247-1.0089 0.37554-3.1229-0.59061-2.3256-1.9257 1.3036-0.80799 0.9573-1.7882-0.50593-1.1993 2.9586-0.02806-2.2396-0.77279-2.0235 0.74861-1.51-3.6177-0.3262-0.62075-1.1722 0.50237-1.3567-2.8872-0.86294-2.7575-3.0893-1.1096 1.1096-1.6237 1.1828 0.11612 1.9977 1.1512 2.0759-2.1335-0.98504-2.5635 1.19-1.3165 1.7015-3.778 0.0971-0.84645 0.16503-1.8071-2.1104 1.6309 0.41342 0.72474-1.8268-3.1272 1.3621-0.50266-2.489 0.18378-1.7652 0.51233-1.4371 1.6299 0.91242 3.0319-0.95924 1.388-1.8827-3.5718 1.1861-1.0973-1.3564 2.5467-0.0422-1.2109-1.1029 1.8039-1.3499 2.2855-1.8186-0.6267 1.9197 0.9081 0.9063 0.36594-1.2669 0.53602 1.0039 1.5352 0.10361-0.38039 1.8042 1.6205-0.5423-0.83378-1.0546 2.5588-1.0825-3.0614-0.18117-0.94708-1.7978-1.5672-2.0387 2.3637-2.1332 0.11816-0.44661 0.70037 1.133 0.95697-1.7922 1.4194 0.50667-1.203 1.5203 1.4604-0.49954 0.95639 1.1013 0.99712-1.3486-0.49304-4.14 1.8255-3.2999-2.4489 0.0609 3.6711 1.1237 0.9248 2.0177 0.4054 0.0694 1.5766 1.7415 1.5719 2.6051-2.0712-2.4333-1.1979 2.2823-2.9638 3.12-0.51186 3.1748 1.8406 0.87119 1.057 0.0392 2.6298-1.2658 1.5835-1.0641 1.2382-2.8026 1.8125 1.1272 2.0931 3.798 0.332 3.0847 1.8378 2.8514 1.5839-1.6263 2.3828 0.18166 3.0203-0.43204-1.6322 3.2217 1.5274 2.38 1.5338 1.7039-3.0953-0.15835-3.163-0.82419-1.7144 0.20063 0.49786 1.8583 0.47643 1.7829 2.7538 1.2069-0.88296 2.9024 1.5042 4.0086 3.4091-1.6006 0.04752 1.1286-0.71048 1.3646-0.35202-2.9562-3.1617-0.28164-3.9828 0.045zm-1.0078-3.6486c1.907-1.0027-1.2852-0.372-0.53519-2.0733-2.1315 1.5276 0.45938 1.9916-0.0045 2.5363l0.53965-0.46302zm3.0139-4.601c-0.95035-3.6914-1.6628 3.5702 0.24632 0.33394l-0.24632-0.33394zm-3.1281-0.13316c-1.3462-1.7652-1.2656 0.59629 0 0zm-1.1059-1.1088c1.8265-0.31733 3.4156-2.554 0.80908-2.1158 0.54057 0.65748-3.0196 1.8125-1.1072 2.5066l0.2981-0.39083zm-2.0691-1.0142c0.77575-2.5683-1.6634 1.3434 0 0zm4.6279-3.005c-0.35557-4.2806-1.1691 4.1314-3e-6 -1e-5zm-1.0024-0.9782c1.6636-3.812-1.8606 1.4985 0 0zm8.8099 14.554c-3.5919-2.3328 1.7745-0.16519 0 0zm0.26458-2.2589c1.0521-2.3125 3.3754 1.2132 0.91389-0.54488-0.18956 0.20129-0.65687 1.0414-0.91389 0.54488zm-0.26458-1.0583c-0.20719-1.6514 0.89468 1.0789-4.5e-5 0zm-1.1393-0.0369c0.0099-1.9311 1.4001 0.74403 0 0zm-1.307-0.66882c-2.134-1.2238 3.6729-2.2668 2.1156-0.54101-1.6709-1.9979-2.0504 1.8684-2.1156 0.54101zm4.2984 0.18826c-1.3589 0.50174-1.0521-2.4061-0.0236-1.7315-0.11838 0.0868 0.4734 2.9892 0.0236 1.7315zm-31.618-1.7315c0.53462-0.88293 4.3339-0.56757 0.877 0.13754-0.23685 0.0786-0.75104 0.23081-0.877-0.13754zm30.096-0.43982c-0.58757-0.81941 1.4872 0.29996-0.0391-1.4654-1.2587-1.6725 3.1973-1.3871 2.0841-2.194-3.1685-0.0779-0.99101-0.37098 0.35924-1.0372-1.7982-2.7153 2.6648-0.17965 1.5335 1.096 0.50455 1.9988-1.1308 2.2611-2.1379 0.87462-2.8091 1.3308 3.974 0.79548 0.97817 2.0025-1.516-2.0303-0.47203 0.6301-2.2416-0.84994 0.0775 0.71902 1.1637 2.2539-0.53634 1.5734zm3.7671-3.7274c-0.68985-1.8877-0.48478 1.4873 0 0zm-24.735 3.1088c1.2493-2.0324 1.6902 0.19829 0 0zm-2.6458-0.25926c1.5024-1.6028 2.6464-0.0625 0 0zm32.175-0.95452c-0.44646-2.4227 1.4956 0.89819 0 0zm-2.2767-1.1675c-1.3414-2.7101 1.3703 1.5163 0.74282-0.826 1.8096-0.21247-0.14912 2.1601-0.74282 0.826zm-25.332-0.42506c-0.89103-1.0405-2.7676-3.0205 0.11073-3.4532 1.5362-2.7981 3.6937 3.1592 1.245 1.1166-1.4838 0.1944-0.53561 2.3438-1.3558 2.3366zm-4.1144-2.0416c0.21074-1.731-1.0906-1.0592-1.6388-2.7627-2.2394 0.26548-2.228-3.4922-0.28416-2.4699 2.7823-0.43016 0.70411 1.6571 2.4641 2.8262-0.26462-1.6802-0.04072-1.3138-0.74106-1.5934 2.4908-0.37755 3.3719-4.5014 4.1401-0.89852-0.09457 1.7107-1.6404 6.0388-3.9402 4.8984zm24.228-1.0602c1.0835-1.177 0.87056 1.0733 0 0zm-3.3364-0.089c0.54532-1.0478-0.30479-2.0735 1.0143-2.5432 0.29888 1.9577 1.299 1.2394-1.0143 2.5432zm-28.194-0.29615c0.85711-2.1725 2.9235-0.64945 0 0zm24.379-1.1341c-1.9306-1.9532 1.6074-2.0979 0.5687 0.11781zm-11.036-0.74293c-0.41017-2.4906 4.5817-2.4753 2.3943-1.4376 2.6894 0.0914-2.6153 1.683-2.3943 1.4376z" fill="#79a373"/><path d="m76.76 237.63c0.21527-2.0344 0.11719 2.2576 0 0zm5.297-1.1906c0.15569-2.4271 0.1488 2.4324 0 0zm-0.26097-5.424c0.19589-2.537 0.1184 2.7941 0 0zm-4.4979-0.52917c0.19589-2.537 0.1184 2.7941 0 0zm4.2466-5.6885c0.12766-3.5258 0.1102 3.5822 0 0zm-3.9688-1.3229c0.12766-3.5258 0.1102 3.5822 0 0zm-2.369-7.613c-1.8477-0.59128-5.5089-1.6286-7.0519-1.363-2.0655 0.70238-4.987-3.0013-7.9356-2.6209-2.7592 0.29659 0.62802-3.176-1.6436-3.2684-0.56579 1.804-1.1578-1.2316-1.7799-0.91046 2.3964-2.1394-6.3882 3.5655-3.7637-1.3989 0.99857-2.6158-5.5233-0.30565-3.3927-2.4565 2.6247-1.6134-0.02683-1.5746-1.2102-1.9232 0.85081-0.80089 5.8799 0.17266 2.4906-0.75726-2.0993-0.28359-4.0215 1.3619-4.0285-0.97336-1.9507-1.0039 6.44e-4 -3.9341-1.3529-4.5047-1.6514-2.7703 2.2301-2.5282 3.4636 0.50145 1.8348-0.90039-0.95885-4.1523-1.0187-4.4618-1.8757-1.2776-4.2436-2.0763-0.5267-1.1806-0.0383-0.34816-2.3956-1.0116-1.8436-1.6374-1.0309-0.85938 4.6884-1.288 5.9291-1.684 2.52-0.2831 4.0662-3.014 6.964-0.57841 1.8984-0.43509-4.4884-2.1217-0.96206-1.9395 1.3295-0.12089 2.7429-2.5942 2.4146-2.6626 2.7935 3.5331 5.8849 6.8944 8.3737 10.636 0.37315 2.0345 3.0851 9.4689-0.65758 5.1293-3.3183-3.4586-7.9691-5.8225-10.647-9.7543-0.61148-1.0485-4.0776-0.57998-1.1854 1.45 5.3829 5.1797 11.272 9.8768 16.232 15.471 2.0007 3.6183 4.6482 7.2102 5.6445 11.188-0.55908 0.74535-1.9085 0.0237-2.5122-0.30027zm-25.038-17.721c-1.6473-1.464-1.5081 1.5226 0 0zm2.5474-10.172c-1.2331-0.66336-2.2271 0.75614-0.1865 0.15809zm29.649 28.124c-2.0373-3.2471 0.37078-7.7285 3.085-10.21 6.0423-7.8363 14.271-13.453 21.802-19.726 1.8947 3.9808 3.5732-2.9913 0.66126-0.30364 1.4993-0.94287 3.8361-5.6784 4.4979-1.9787 1.979-0.4193 5.3288 2.4686 4.5548 4.8648 0.34009 2.1376-1.58 0.0588 0.14097 2.3371-2.6293-0.44084-1.2602 3.361-3.7452 4.0209-1.6602 1.0726-0.61236 1.9605-0.3322 2.0835-1.8095 1.4228-3.7147 4.6338-4.0902 5.5244 0.018-3.6803-2.7677 1.681-5.2044 1.3245-3.773-0.31803-3.0496 3.371-3.3742 4.3086 0.51982 2.6546-2.3565 3.6725-4.0726 5.2248-2.0082 3.1016-6.2423 0.60962-6.5753-0.2649 0.72405 1.068-0.50569 3.461-1.4734 2.4224-1.9147-0.14747-3.6648-0.56099-5.8745 0.37232zm11.42-2.0372c-1.2558-0.95805 0.0251 2.1662 0 0zm15.931-15.915c-2.2778-2.2587-0.77292 1.8001 0 0zm-0.65764-4.3564c0.011-1.7239 2.1775-0.34742 0.49117 0.50068 3.0187-1.244-0.9148-2.5058-1.7287-0.86883-2.2894 1.0422 0.574 0.96578 1.2375 0.36815zm2.9177-2.757c2.9168-2.8514-0.96735-3.31-1.493-1.625-0.68488-0.4258 0.23997 3.5482 1.493 1.625zm-1.7544-0.36434c-3.0898-0.92031 2.1215-3.0546-0.37145-3.711-1.6727 1.6315-2.7145 3.059 0.29834 4.1861l0.089-0.0971zm5.1001-1.074c-0.43032-1.3124-1.1076 1.8576 0 0zm-1.8521-1.5466c-0.51631-1.0018 0.93346-5.3155-0.71176-2.5019-1.3424 1.2933 1.0014 0.67084-0.61116 1.875 0.28469-0.12676 1.0529 1.4769 1.3229 0.62694zm-36.953 18.734c-3.2744-3.514-2.3574-8.2086-1.5363-12.454 0.13023-2.6933 1.9619-7.4409 0.68973-8.8593-1.3287 4.3684-1.946 8.9177-3.0601 13.342-2.4772-6.5379-4.363-13.29-6.6661-19.884-2.324 0.24005 2.3539 8.4426 0.8966 8.797-3.2855-2.5272-5.586-6.9087-8.6747-9.053 0.05734 3.6376-4.6503-1.9902-7.2342-0.60239-1.1906-0.75196 2.4705-2.5554-0.76806-2.3822 1.4755-2.6454 4.819-3.6043 6.0447-5.3025 3.515-2.4869-2.5763 0.78133-0.55266-1.1083 0.27283-2.211-4.3541-3.204-2.7273-0.56415-1.8825-1.2325 0.72389 1.849-2.1136 2.5298-0.72257 1.1059 1.8078-0.86314 0.03406 1.2388-1.8657-1.0513 1.8615-4.8043-0.42873-3.8575-0.68322 0.34587-0.73102-3.0344 1.1156-2.5163-0.03275-1.2612-1.606-1.0575-0.74008-1.645-2.0662-1.3473 3.1683-2.8819 3.411-3.6286 2.0727 0.34945 8.1522-1.056 4.7392 1.2412-1.0969 0.14756-3.1072 1.649-1.4791 1.5446 0.488-2.5302 4.2793 1.284 2.5574 1.3891-0.78945-2.5667-5.1632 0.98788-1.0891-0.0661 2.7152 0.43856-2.6174 3.1047-2.2084 3.3133-2.7412 1.2472 3.0839 1.2489 1.8562 0.0828 1.7405-0.33059 0.75777-0.55773 3.1828-1.0894-0.49594-1.174 4.9525-1.8107 6.1102-3.7918 4.6596-1.697-1.6869 2.0824-1.8222 2.0451-1.8859 0.47903-2.5041 2.2629-4.4396 2.8106-2.5048 0.8208-2.6262 2.1865-0.34219 1.1003 2.078-0.0295 2.0049-2.1381 3.8993-1.9883-0.43021-1.1849 3.5839-1.3426 1.1005 0.35461 2.1501-1.266-0.93255 1.7522 1.0049 0.83473 1.8524 0.0328 2.3784-1.8065 1.8096-3.0985 2.9134-0.84033 4.3624-1.5955 5.9862-3.096-0.7476-1.6894 0.23483-0.0552 1.7294-1.6173-0.13741 1.1118 0.9957-0.036 0.28802 1.5264-2.4016-0.21416-2.0152 1.7946-0.93446 1.2644 0.62093 0.87013 2.7196 0.38103 1.901 1.8868 1.0993-2.9431 0.23371 5.6787 1.9586 2.5353 0.21539-0.78326 2.0133-1.0285 1.6237 0.30194 1.192-2.2486 1.8283-3.7688 3.5977-1.9631 1.6354 1.0483 3.9652-1.6123 3.0608 1.5648 1.2523-0.97705 1.3846 2.2993 3.1866 0.12032-1.9763 1.6982 0.63731 3.8549 1.1332 3.0873-0.129 1.2499 2.0096 1.7636 0.62046 0.0462 0.49702-0.43904 2.3197 0.77865 2.1221 0.86278-1.1448-2.2337 3.5704-1.3941 2.1582-0.57747-3.0736 0.80075 0.62963 1.0776 1.8815 0.35057-1.4639-1.9697-0.41884-1.7142 0.84195-0.92312 2.3954-0.51463 1.8938-0.15473 0.69119 0.90996 0.34959 1.3445-2.6876-0.19051-2.6575 1.8119-2.4649 2.4535 5.4288-2.3202 2.211 0.80552-1.7803 2.7475 3.5682 3.8731 2.4206 6.6333-1.1445 2.1903-2.6391 3.4268-3.3431 5.5256-1.0625 0.80646-1.2081 2.0336-1.715 1.9068 0.03006 4.3051-4.7464 6.1699-7.856 8.1734 2.0711-5.4256 3.576-11.079 5.8669-16.413 0.36664-0.45122 2.6172 1.4359 1.0619-0.25551 0.41791-1.2155-1.3524-0.9925-0.49038-2.0276-3.3085 0.24062-0.79459-2.239 0.77123-1.6925 1.8386-0.66912-2.7509 0.5813-0.09734-1.0846 0.07354-1.1541 0.06467-2.6107-1.734-1.056-1.1482-0.42518-4.5963-3.0193-3.5082-0.8949 1.6595-1.0835-1.391 2.5358 0.94278 0.62343-1.8067 2.1537 3.4807-0.57426 2.1345 1.5747-0.57372 1.0704-0.39243 1.2104-1.1843 2.2054 1.9825 1.514-2.4657 0.45687 0.36681 2.2334 0.90126-1.3303-1.5261 4.2761-2.0199 5.6215-2.9254 6.7966-4.4185 14.612-10.127 19.792-1.478 0.97435 0.59651-4.5217 0.3809-6.2263-0.22505-2.7481 1.8774-7.0664 0.28095-9.0659-1.4541 1.4187-1.0804 9.9287-2.8477 4.4262-1.9852-1.3868 0.35031 3.6494 0.69969 5.0836-0.8501 3.1734-1.4191 6.4424-2.6211 9.5067-0.45046-0.73983-0.90098-1.4803-1.3514-2.2197zm21.56-23.973c-0.84325-3.3132-1.7167 0.85872 0.19002 0.34063l-0.19002-0.34063zm1.4606-0.46693c-0.23775-2.6074 2.2825 0.35408 0.45606-2.226 1.0748 0.33657 2.0409-1.6667 0.7644-1.6017 1.4878-0.66727-3.5442-1.7449-0.92141-2.6232-1.6264 0.62083-1.669-2.838-1.7439 0.5155 0.6062 1.1513 1.8313 1.8154 1.2228 2.7924 0.98533 0.15692-1.734 4.3611 0.22213 3.143zm-26.548-2.7765c-0.48043-0.43798-2.1263-0.65626-1.3229 0.14254-0.02885-0.55331 0.6383 1.1276 1.3229-0.14254zm4.6768-3.5521c2.7589-1.8203-2.4427-2.1826-1.1755-1.043 0.78173-1.0475 0.70443 2.593 1.1755 1.043zm-16.099-2.5138c-2.7105-1.7005 0.5018 1.6672 0 0zm-3.8555-0.0919c-0.58533-2.0946-1.1212 0.29525 0.15742 0.25557zm3.2569-2.2508c-2.0537-0.76548 0.99649 2.0608 0 0zm-2.9941 0.0251c-1.2029-1.0066 3.1573-0.48351 0.11806-0.90539-1.9807 0.0516-0.43781 1.5155-0.11806 0.90539zm-1.7277-4.3403c-0.64438-1.2464 1.4167-1.5414-0.6077-2.0946-0.35015-7e-3 -1.6509 0.22265-2.9058 0.65152 1.6289 0.24946-1.4535 0.097-0.27843 1.1337 0.741 0.26664 3.3827 0.11506 3.4819 1.1169l0.23451-0.34656 0.07554-0.46092zm-5.2176 0.41452c0.35325-1.6401-1.7975 1.4859 0 0zm34.864-0.0827c-0.78166-1.1725-0.91519 1.3378 0 0zm-27.985-0.84336c-0.42342-1.7866-1.7243 2.1681 0 0zm-3.5162-2.1167c2.2935-1.3819-0.80203-1.6059-0.6805 0.46302 0.29644 0.23616 0.64784-0.20955 0.6805-0.46302zm-3.4439 43.487c0.0099-1.9311 1.4001 0.74403 0 0zm-3.423-5.2564c0.97228-2.7181 0.33001 1.8096 0 0zm52.33-12.616c0.86018-2.9175 2.6495-1.7424 4.296-4.2843 1.7657-0.91641-3.1716-1.101-1.0669 0.62779-4.0826 3.2843 0.1711-4.6798 2.0221-2.672-0.49016-0.7217-2.3915-2.9058 0.0842-1.5404 1.4336 1.8875 1.3204 4.217-1.0204 5.0643-1.6424-1e-3 -3.2818 3.5865-4.315 2.8047zm-47.73-5.4839c1.9526-2.3745 1.224 0.72697 0 0zm-1.3605-0.38713c0.9095-2.2726 1.2956 1.2181 0 0zm7.1438-0.16468c-2.3829-1.8383 2.1758 0.24327 0 0zm0.59531-1.513c-1.2017-1.3209 2.1566-0.0871 0 0zm-4.4979-0.51435c-0.93112-1.2131 2.7177 0.11244 0 0zm-2.3263-1.1657c-1.6292-1.0718 1.7912-1.3702-3e-6 0zm54.752-2.7817c1.3868-0.84516 0.20534-4.6438-0.0659-2.5596-2.2513-0.28523 0.91257-2.5029 1.9304-0.20292 1.6885-0.0667-1.9352 3.9634-1.8645 2.7625zm-2.4739-0.34072c1.0434-1.1859 1.3258-2.823 2.4348-0.51837-0.78824-0.0357-0.8995 0.0305-1.4726 0.0816-0.53324-0.18242-1.736 1.9303-0.96217 0.43674zm0.24867-5.1994c-0.21452-1.6126 1.0258-3.6322-1.0351-2.6542 1.5846-1.6736 1.5516-3.8332 1.7867-4.4668 1.7928-2.0523-0.90758-2.7221 1.3335-2.7612 0.45522 1.6181-1.0213 2.7593 0.96585 2.0291 0.41025 3.247 0.75821-2.3988 0.31184-1.8104 0.58526-2.6865 3.1998-1.8974 3.6232 0.0282 2.5027-1.1282-1.9172 5.4421-2.7976 3.1924-2.9616 0.50173-1.0976 3.2298 0.0494 4.8598-1.34 1.6781-2.6163 1.6485-2.6522 0.15117-0.74167 0.47382-0.0391 2.3211-1.5856 1.4319zm3.1796-2.0068c-1.1643-0.95993-1.7293 0.9091 0 0zm-6.5887-0.80525c-0.95942-2.9464 3.7316 0.90273 0.26107-0.1386 0.63047 0.46791 0.6515 1.6094-0.2611 0.13862zm-4.926-0.17281c-0.49367-1.4901-2.304-2.3576-0.06796-1.0846 0.93983 1.6857 1.3954-0.86749 1.2605 1.4475-0.33204-0.0125-1.1886 0.23337-1.1925-0.36288zm6.5833-1.2429c-1.8911-0.57991 0.78275-1.5442 0.31569-1.644 0.48383-0.12165-0.2202 2.8837-0.31569 1.644zm-41.796-1.08c1.0367-3.1527 0.95708 1.9678 0 0zm34.829-0.30607c0.09488-2.8886-2.7469-0.0857-1.949-1.4711-0.08898-0.12859-3.2999-1.36-2.2825-3.3104-1.5903-2.4259-2.3189 2.0102-3.2458-1.6427-1.2617-1.861 1.2636-3.0225-0.99744-2.6938-0.67683-0.12526 0.87982 4.7565-0.65966 1.4614-3.6978-2.7207 2.3079-2.0357 2.8867-1.291 1.7851-1.2307 2.8166-1.6352 1.5947 0.61363 0.18789 3.7265 1.8625 0.51524 1.5298-0.76185 0.73272-8e-3 -0.42032 3.6694 1.418 2.2099-1.9735 1.3043 2.843 1.2706 0.08826 2.287-0.72667 2.013-1.9818 2.3172 0.16031 2.3158 1.8834 0.32991 3.312 2.7102 1.4565 2.283zm-2.6004-4.3911c-2.3422-1.829 0.33838 2.8656 0 0zm-4.0618-2.0278c-1.4882-2.6095 0.52713 2.5577 0 0zm1.627-1.4744c-0.95211-2.0874-1.6093 0.45073 0 0zm-27.781 6.7971c0.51561-0.72802-0.09046-1.9418 1.1906-0.0882-0.38904-0.31029-0.8916 0.44963-1.1906 0.0882zm41.01-1.1053c1.7877-1.9494 2.07 0.60238 0 0zm-9.633-0.65932c-0.89767-4.625 4.6381 1.7612 0 0zm-3.4716-1.1254c-1.2026-1.943 1.1434-0.23201 0 0zm16.213-1.2925c-2.4977-1.4125 0.50891-0.26861 0.78557-1.7512 0.72829 0.99504 1.0759 1.7279-0.78557 1.7512zm-33.08-0.41293c-1.5759-2.6624 4.4776-1.256 0.67383 0.28451l-0.29885-0.0385-0.37498-0.246zm22.11-0.19843c-1.8195 0.52219 0.53607-3.9364 0.23268-0.97691 0.13214 0.32933 0.13584 2.3493-0.23268 0.97691zm-13.496-0.07723c-0.35934-1.4434-2.9591-1.1834-0.23442-2.7202 0.9713 1.3326 0.34042-2.7567 1.7184-0.0692 1.8636 0.49927-1.8726 1.7087 1.2374 1.6512 1.4577 2.5526-1.8033-0.62143-2.4117 1.4799l-0.27722-0.0978-0.03241-0.24406zm1.2443-2.5181c-0.86008-0.82169-0.41079 2.3787 0 0zm16.621 1.3943c0.28267-1.9185 2.3066-1.9744 0.43543 0.38645 0.2321 0.94064-0.76013-0.0837-0.43543-0.38645zm-4.013-0.51876c2.4793-1.5668-0.12468 1.1053 0 0zm6.8767 7e-3c-2.4567-0.81816 1.5012-2.4495-2.0095-1.3618-1.2045 0.089 2.7658-1.488 1.515-2.7301 1.5449 0.83218 0.4299 1.8949 0.64259 3.3315 1.084-2.8937 1.5938-0.056 0.0931 1.0442l-0.22404-0.0607-0.0171-0.22295zm5.6544 0.12575c-0.0711-1.4607 0.82713 0.88235 0 0zm-27.869-2.0285c-0.90396-2.0291-1.881-2.1704 0.35278-2.9936 2.5035-2.4763 1.3823 2.4331 0.08758 1.1616-0.17071 0.29476 0.47592 2.502-0.44036 1.832zm6.7028-0.62141c4e-3 -0.61452 3.6463-1.482 0.91155-1.4391-1.0677-0.45146 0.27516-1.6586 1.2052-0.55827-0.64285-2.0964 3.2541-2.2429 1.1398-0.71626 2.0701 0.0956-2.8374 2.5792 0.36401 0.9301-0.357 0.80357-2.5643 2.1826-3.6205 1.7835zm-3.5692-0.26485c1.0288-2.1228 2.1877 0.58876 0 0zm7.8496-0.13131c-0.78155-3.71 1.1784 0.71975 0 0zm1.7394-0.36992c-1.9021-1.0656 0.89002-0.60247 0.79554 0.32384l-0.79554-0.32379zm-7.6072-0.047c0.50413-0.59269 3.3668-0.21694 0 0zm-8.2021-0.50579c2.7683-1.7244-1.3169 1.7654 0 0zm8.377-0.19844c2.0453-0.89714 1.6672 0.51822 0 0zm-9.2717-0.87821c-0.9629-3.1214 2.0918 2.3237 0 0zm9.626 0.0276c1.7267-2.2951 0.82405 0.91939 0 0zm-8.1987-0.28155c-1.5447-0.17261 1.5246-5.7371 2.4383-2.396-0.91244 2.1795 0.24695 1.2558-1.8939 1.84 0.71106 0.6239-1.2888 1.1428-0.54441 0.55599zm13.676 0.10516c0.38295-2.0677-1.295-1.3568-0.8934-2.9256-0.75408 0.53842-1.1193 2.1318-0.76381 0.0862 1.862-1.2049 2.8397 0.40364 1.9035 0.74227 0.8046 0.56712 1.5233 0.80262-0.24632 2.0972zm-4.3173-1.2149c-0.04577-1.3589 1.3753-1.4502 0.57314 0.23035 2.4297-0.23333-0.17318 1.389-0.57314-0.23035zm-12.719-0.33603c-2.0521-0.21592 1.512-1.0679 1.8231-1.6139-0.2759 0.43346-0.96028 2.4371-1.8231 1.6139zm8.046-0.12078c0.32757-1.9393 3.5383-2.9068 1.1553-0.35307-0.19102 0.0137-1.0367 1.1563-1.1553 0.35307zm10.4 0.33302c0.40368-2.5097 2.3802-0.16393 0 0zm-18.733-1.4543c1.0145-1.4372 0.72025 1.1669 0 0z" fill="#6c9a66"/><path d="m77.465 216.49c-2.9075-0.17928-0.91664-1.8034-3.0568-1.5373-0.12836-1.7331-1.5987 1.521-3.3144-0.48113-2.1785-0.62804-4.6461-1.8372-3.2303 0.44341-2.1938-2.5892-6.7846-2.0805-8.3103-4.4187 0.32733-2.0319-1.3298-2.4374-1.8669-3.6884-1.2683 1.0752-7.185 2.2342-3.3768 0.31203-0.44561-1.4573-2.2939-4.3747-4.5374-2.2742 2.9938-1.1956 4.047-4.9203-0.38364-3.8054-3.1521 0.58914-1.1212-3.0424-2.8577-3.9027-1.4521-1.5483 0.28721-4.8965 0.8525-2.5964-2.3895 1.2933 0.14605-0.26109 0.49703 1.6482 3.5023 0.58231 0.4579-2.7488 1.0068-3.9335 0.25051-1.4077-2.2431-3.7866 1.1942-3.2392 1.1988-0.92997-0.54389 2.0296 1.8502-0.0403 0.8345-0.90257 5.6875 2.5868 2.3355-0.55585-2.8517-2.6602 2.4939 0.85619 3.0947 2.4342 5.0412 4.8011 10.327 9.4141 15.111 14.453 1.7979 3.6982 4.3753 7.1655 5.2528 11.193l-0.08926 0.0977-0.17142-0.10812zm-11.024-3.8199c0.16139-1.2044-3.0378 0.65111 0 0zm-10.674-8.8187c-2.2776-0.8191-2.8124 0.52245-1.1379 1.5235-0.29599 0.89842 1.8368-1.3613 1.1379-1.5235zm2.1716-0.81387c2.1162-2.9138-2.3828 1.9807 0 0zm0.85588-2.4559c-1.9723-1.5832-0.10908 2.0091 0 0zm-10.397-0.52069c-0.73297-1.0866-1.2137 1.4026 0 0zm2.1688-0.20943c1.4221-2.846-2.4228 1.5299 0 0zm7.4281 0.16763c-0.1088-1.6819-2.046 0.16715 0 0zm-3.1948-0.26572c-1.1061-2.0553-0.95763 0.5022 0 0zm-4.6937-1.152c1.8717-1.4732-3.3378-0.23436 0-4e-5zm0.64556-5.2536c0.01909-1.0361-3.4501 0.31108 0-1e-5zm1.0054-0.93124c-0.92479-2.6217-1.9296 0.26086 0 0zm30.019 20.6c-0.0376-1.5977 0.01299-3.1617 1.3776-4.2253 6.1492-8.5138 14.541-15.08 22.741-21.431 2.243-0.31844-2.2228 1.3368-0.5913 1.7088 0.27524 1.4274 3.8909-2.0697 1.4009-2.019 2.6126-1.575 5.9e-4 3.6725 2.6045 4.0481 0.25838 1.5728-4.7867 3.8868-0.25124 2.9705 0.65825-0.52158-1.0163 2.1742 1.0342 0.24214 1.1371-1.1682 3.8827-3.1224 3.3008-4.8104 1.4159-1.1109 0.14134-3.2724 1.2767-4.2177-2.7875-0.17807 1.7617-1.3761 1.3724 1.305-0.22684 2.0588-3.9385 4.8845-1.4296 7.2914-0.92446 1.0927-4.3484 1.8218-6.3394 4.0892-2.3134 1.0539 1.0273 0.79171 1.6674 0.38947-0.97711-0.83815 5.5083-2.2914 1.4912-0.0553-1.9934 1.0898-1.5622 4.5414-3.3207 2.8388-1.7831 3.4502-9.2401 1.519-7.9089 6.6663-0.12621 1.8562-0.12842 3.4088-2.6297 3.0672-2.1073-1.0691-2.0201 0.65691-1.8584 1.4882 1.6527 1.2643-2.7785 2.9077-1.2301 1.5122-1.4955-0.19831-2.5093 2.8126-3.7796-0.0378-1.9012-3.3108-0.42044 2.42-1.4322 1.8737-2.0862-1.0771-6.1271 0.3045-7.5922-0.51339 0.03231-0.72661 0.06482-1.4572 0.09701-2.1813zm26.139-17.719c1.1497-1.0978-3.6958 1.3034 0-1e-5zm0.21812-3.3238c-1.4625-1.6635-0.84638 1.4749 0 0zm-3.5288-1.3009c-0.67523-3.5299-0.90823 1.0266 0 0zm10.984-3.4126c-1.4642-2.5664-0.57961 1.0687 0 0zm-18.587 24.712c0.47213-1.7043 3.8166-0.51282 0.3165 0.27163l-0.3556 0.23449zm-20.482-5.2074c-3.2184-3.4381-2.3566-8.0248-1.5314-12.186 0.05514-2.701 2.1953-7.9497 0.64117-9.1722-1.3861 4.3716-1.9322 8.9674-3.0433 13.414-2.0531-5.5735-3.8336-11.319-5.4548-16.992-3.1497-3.1004 5.9661-2.0702 2.3978 0.0657 0.4115 0.0996 2.431 1.6029 3.2767-1.177 1.7329-2.5753 1.173-4.5582-2.1971-4.3203 1.2444-1.6944 4.0632 0.27401 3.2984-1.755 2.209 0.33693 4.8947 3.8141 5.5616-0.37832 1.4309-1.8008-2.4786 0.70511-1.6065-1.7059-1.3575 0.43082-0.65723-1.7227-2.6706-0.26414 0.15712 2.2841-1.1346-1.6223-2.4 0.71649-0.78323 0.35207 0.05666 2.1767-1.0819 0.18799 0.85958-1.3856-3.0579 0.43628-3.6086-2.0139-4.089-1.1526 3.5703-0.42164 0.39561-1.0698 1.7079-1.6267 1.7599-1.4571 1.8504-2.6103 2.732 2.4581 0.20958-1.9961 1.5846-2.5186 1.4874 0.115 2.9543-1.4438 4.2625-0.52088 2.4426-1.2347-0.08489 2.5704 2.1505 1.2562-1.2243 1.0602-3.2569 1.8686-0.46466 1.3915 0.58701-0.0948 1.3708 3.7699 2.4919 0.76356 1.0454 0.47997 0.08702 1.7083 2.026-0.21834 2.0586-0.13606-1.9577-1.6652 1.571-0.91558-0.46636 2.8543 6.4761-2.0659 3.044 1.4363-1.0226 1.743 1.0508 0.51452 1.4552-0.0648 1.3147 0.45892-1.4476 2.3658 1.5388 1.01 2.0582-0.56467-0.55955 4.6581 2.117 2.5176-1.7513 1.3522-0.93788 2.2449-0.29561 2.1463-0.30963 1.293 1.6792-0.0631-0.27167 1.6417 2.7779-1.2325 1.4514 0.1513 1.8345 0.82044 0.92033-1.0263 0.65065-3.0292 1.4422-0.92753-0.12474 1.3982-2.8834 2.044-1.1751 2.7337-2.6613 0.37668 0.08407 1.5012-0.77829 2.5461 2.5033-0.49175-1.6916 5.9301-2.0248 8.0838-2.2964 5.77-4.014 12.055-8.7075 16.441-1.5381 2.279-0.36825-1.1802-0.34544-2.2088 0.58187-4.2505 1.5244-8.55 1.2855-12.842-1.8871 0.72615-1.4846 4.3842-2.1394 6.4263-0.11436 1.4177-2.3751-5.8535-1.8351-1.3019 0.23275 2.0616 1.9684 4.0076 0.92408 6.0828-0.64651 2.5836-1.2765 5.1771-2.174 7.6876-0.44784-0.7354-0.89568-1.4708-1.3435-2.2062zm3.1979-29.729c1.2303-1.7661-2.3858 1.2697 0 0zm-6-9.8184c1.8378-0.71439-3.1486-0.57446 0.31878-1.0262 1.3799-1.2112-3.864-0.64836-1.0559 1.1585l0.73717-0.13237zm2.0319-0.39249c0.93755-1.3256-2.3313 1.3247 0-2e-5zm-8.7127 30.394c-3.2859-3.0978-7.0683-5.6914-10.198-8.9228 1.7456 0.13156 1.3101 0.60383 1.4668-1.3332 1.1317 1.3418 1.2803 3.1812 2.4568 2.8052 2.2311 2.0832 2.0299-1.1718 0.40493-0.67772-2.328 0.0536-1.1618-3.1896-3.3586-3.8891 2.0542 0.55647 1.6357-5.3499 3.4369-1.6545 2.3285 3.0482 4.9829 5.9495 7.1386 9.0836 0.46515 2.2667 1.0411 4.5154 1.3645 6.8075-0.9966-0.60093-1.8257-1.4698-2.7119-2.219zm-4.3656-5.5177c-1.1596-1.8004-4.9568-2.0374-1.6966-0.40111 1.1369-0.0387 0.60149 1.0998 2.0712 0.78196l-0.37459-0.38084zm28.211 2.4878c1.7592-4.5704 2.9475-9.3627 4.9084-13.847 1.509 1.4764-0.02985 2.5553 0.48315 4.6362-0.26957 1.2434 2.0847 2.9925 1.5287 4.757-1.3043 3.388-4.7175 4.9472-7.5491 6.8487-0.08895-0.78494 0.41759-1.6307 0.6289-2.395zm5.408-12.872c-1.4351-0.61836-0.66548 2.1867 0 0zm18.091 11.44c0.99329-1.5266 1.5979-6.3068 2.0325-2.0163-1.2347-0.0711-0.86392 2.508-2.0325 2.0163zm-67.255-2.7549c-1.1424-0.77261 0.82466-1.46 0.70476 0.20405l-0.70476-0.20407zm53.069-0.91092c2.0406-1.6097 1.745-0.55572 0.27639 0.69108-0.72831 0.99001-0.55865-0.40308-0.27639-0.69108zm16.085-0.46579c-0.54231-1.4262 2.0958-1.4342 0.24785 0.0196zm-50.986-2.3907c-2.8693-2.4932-4.0419-5.6882-7.1419-7.7464-0.10036 1.8892-4.5082-0.33043-5.3829-1.6618-2.3913-3.3346 2.6524-4.9416 3.7837-2.5094-0.41017 1.6286 0.73136 4.708 3.2636 2.7632 2.8081-0.64368 4.4527 2.3371 6.6294 0.48076-2.1216 1.0134-1.1121 2.8499-0.66992 4.5742 0.21804 2.1927 3.5203 9.1953-0.48196 4.0994zm-8.1812-8.6237c-0.75382-1.5378-4.2516-0.0851-1.7444 0.25478 0.55503-0.0758 1.2576 0.13227 1.7444-0.25478zm41.488 10.092c0.6445-0.95598-3.2525-3.7576-0.80416-3.425-2.1965-0.43931 2.1934-1.6627-0.43852-3.0764 1.2223-0.20078 1.1932-2.3327 0.09428-2.2475 0.90627 2.1445-1.2402-2.478-2.7725-1.4772 0.54542-1.7256 2.7649-0.9945 3.3294-0.33186 1.0819 0.57885 1.3127 2.7066 0.71884 4.0746-1.2218 3.0128 2.6346-0.4365 1.0362 2.4138 1.6338 0.99315-2.3799-0.6978-0.2937 2.3094 0.61888 0.33108-1.3082 2.9739-0.86991 1.7602zm0.3175-1.9222c-1.3403-1.578-1.4893 0.67929 0 0zm-41.883 1.0141c-0.79213-1.5016 3.0117 0.11918 0 0zm44.529-0.82162c0.57861-1.86 1.4244-0.58052 0 0zm10.319-1.6353c-0.78847-4.4688 1.6036 2.9307 0 0zm-6.346-0.61695c0.54344-2.0034 0.52949 2.5533 0 0zm-47.894-6.516c1.0219-1.6252 4.9837-2.4998 6.1241-3.0381-1.1406 1.7918-4.5994 2.7431-6.1241 3.038zm6.8792-1.3553c0.96046-1.0947 1.9846 0.0431 0.42219 0.10285 0.25651 0.6778-0.58955 0.38958-0.42219-0.10285zm5.0271-0.1323c1.7192-1.3245-0.42044 1.414 0 0zm29.485-0.52572c0.86686-0.74939-1.392-0.60225 1.0369-1.5782 2.6715-0.57775-2.9003 3.784-1.0369 1.5782zm8.4955-0.11115c-1.1152-2.7936 1.5788 2.3728 0 0zm-37.187 0.10771c0.43845-1.5272 2.8536 0.45512 0.3168 0.26084zm-1.6536-0.0429c0.53075-0.68527-1.8467-1.1285 0.66759-0.72673 1.2732-0.26213-1.2376 1.5114-0.66759 0.72673zm4.2041-8e-3c-0.67216-1.4245 1.7645 6e-3 0 0zm1.7325-0.6267c1.0993-1.5352 0.57342 0.86365 0 0zm-0.92415-0.44911c-1.6515-1.8095 2.3887 0.25872 0 0zm20.739-0.37863c-1.59-0.9482-1.9626-1.9016-0.16529-0.67903-1.4324-1.3758-0.54544-2.3275 0.78588-0.97625-1.119 1.6557 3.534-2.9361 1.8059-0.62688-1.3621 0.48421 1.3467 2.5817-1.6447 2.6105l-0.78184-0.32835zm2.7255-0.0691c0.50572-0.865 3.8271-3.9979 3.469-1.6562-1.9466-0.43903-2.2185 2.4275-3.469 1.6562zm-30.099-0.35836c1.5048-0.97097 1.9093 0.49338 0 0zm0.36524-1.1435c-1.0952-2.0815 3.0321 0.98653 0 0zm37.402-1.4874c-0.10177-0.97802 2.1639-0.20965 0.0394 0.99218l-0.0395-0.99218zm2.0212 0.74321c0.85681-3.7895 2.5249 0.0318 0 0zm-5.0271-2.1606c-2.4748-0.92779 1.2975-0.25421 0 0zm3.5691 0.0238c0.87821-0.90888 0.81917-1.5265-0.33179-1.0474 2.0276-3.5023 1.982 0.86041 0.33179 1.0474zm-20.841-2.4433c-0.22218-2.0822 0.61208-0.0357 0.24207 0.82928l-0.24208-0.82928zm20.419-0.17579c-0.0571-2.0543 1.8707 0.16061 0.98136-1.7102 3.1561 0.37044-1.0743 2.496-0.98136 1.7102zm3.9197-0.8164c-1.9869-1.4556-1.6326-1.6417 0.32555-2.8537-2.0434-3.4774 1.7813-1.3347 2.449 0.21797-0.58279 0.38904-1.7126 4.5183-2.7745 2.6357zm1.3996-2.5356c-0.76075-1.1532-0.91905 1.395 0 0zm-17.727-1.637c1.5532-0.87796 1.7601 0.49818 0 0zm14.486-0.24309c-1.4936-1.2548 2.2182-0.0139 0 0zm-17.926-0.98619c-1.2388-3.7385 1.5618 1.5409 0 0zm-6.6146-0.10973c1.4729-1.9658 1.6866 0.0289 0 0zm-1.5875-1.0295c1.4667-2.5224 2.9009 1.067 0 0zm8.64-1.727c1.5095-0.87683 1.3551 1.0024 0 0zm2.481-3.7859c0.46952-1.6706 1.2239-0.90315 0.12006 0.047zm-0.70792-2.3672c0.48734-2.0017 0.42171 1.6832 0 0z" fill="#4f8649"/><path d="m76.56 216.06c0.8182-1.7589 1.3854 1.0322 0 0zm5.1721-2.1304c-0.68459-2.7354 2.2472-6.6692 3.4791-7.2098-2.825 3.5346 0.99472 1.3015 0.57109-1.0496 2.3632-3.0586 5.1678-6.8608 8.6677-8.1173 0.67154 1.6031-0.9144 1.9616-1.6833 0.88434 0.24686 2.1602-1.0982 2.813-1.3685 1.2033 0.10338 1.32-3.7596 2.3455-0.89389 3.1432 1.4585-2.3634 1.6093 0.9571 0.55524 0.69419 1.4796 2.7126 1.6926-1.0396 4.1519 1.2977 2.9818 1.8467-2.1683-2.7612 1.2944-0.64572 0.06163-1.5487 5.3109-2.5032 1.6024-3.0371 0.0456 1.7085-6.0716-2.3022-1.7542-1.1462 0.85313 0.56715 1.4656-2.4001 1.7833 0.50472 0.86945-1.5819 3.1122-4.3407 1.6305-0.99595-0.40906 1.5501 1.6494-0.93039 0.23278 0.95326-2.7971-0.54883 1.3438 1.1236 1.7099 1.2298 1.5476 2.0041 3.2448-3.1132 0.055-1.3426-0.0277-1.0878 0.21697-2.805-1.5084-4.3335 1.6203 0.94752 2.7923-0.80901 4.9268-1.1899 1.2599 0.83981 1.7102 2.4076 3.4296 0.55439 1.6167-0.0184-3.5965 1.7154-0.38401 1.8216-1.4636-0.0154-2.2355 3.3928-2.6964 2.3341-1.5125-1.9748-1.5575 1.4081-0.44498 0.3187 0.13473 2.7049-1.1807 3.8403-3.3419 2.6003-1.3274 0.47845-2.1016-1.1812-1.0488 1.06-2.2296 2.6071 0.91775 9.1336-3.8501 6.7906-3.375-0.92202-5.1129 3.3994-0.74947 2.943-1.2143 1.1526-3.4886-0.26919-3.7054 1.9692-2.3286-1.2945 0.42919-0.98138-2.38-2.3872-1.0987-0.38954-0.26273 3.6851-2.0078 1.2775-1.1731 0.61531-3.5654 1.4152-1.1084 0.22436-2.2116 0.81301-3.1203-0.38814-3.116-1.0246-2.2635-0.57605-1.6798 3.9836-2.0482 0.67533zm16.12-4.2074c0.75996-1.6891-2.0509 0.91337 0 0zm5.2387-12.396c-0.78168-1.1725-0.91518 1.3378 0 0zm-31.294 17.071c-1.6361-1.5185-2.7591-3.9883-4.1554-5.529 2.9505 1.1204-2.0973-3.3657-0.59481 0.0324-1.3086 0.85822-3.5766 0.23963-1.8649-0.15763-2.2708-0.73656-2.9514 0.44005-4.5621-0.80091 0.84339-1.2308-1.2516 1.2162-1.549-0.20227-1.0751 0.14565 1.753-2.5301 0.64534-4.2552-0.77188-1.86 0.60123-1.3825 2.5167-1.8885 1.9681-0.97017 2.1258-2.7592 0.08742-2.562 0.49729-0.84988-1.7593-2.8025-3.4092-3.565 1.6219-4.5281 4.8573 2.8177 7.7942 4.0414 1.8186 2.3817 4.989 4.1093 6.5775 7.4948 1.2395 2.2508 2.4359 4.5249 3.6325 6.7987-1.2534 1.7932-3.6405-1.3665-3.5071 1.1273-0.57612-0.0425-1.0918-0.31228-1.6111-0.53403zm-10.303-18.156c0.86328-1.5925-1.1857 0.24984 0 3.3e-4zm-0.94001-1.9476c-1.3384-0.1389-1.0555 1.5756 0-9e-5zm16.19 12.766c-2.0832-3.1228-3.3525-6.8824-1.9589-11.05 0.06212-3.2067 2.4395-8.9216 0.83311-10.6-1.3825 4.3231-1.9295 8.8715-2.9742 13.285-1.6135-4.6366-3.5843-9.2885-4.4231-14.113-0.71958-1.3052-1.1951-3.3751 0.10365-0.86175 1.7056-0.0884 2.2376-0.0126 2.1188-0.92807 0.5568 1.6377 4.309-1.2292 5.1923 0.5931 1.3336-0.26712-0.96404-1.3192 0.5244-2.8609-0.64095 0.71139-3.3838 0.48463-0.14368-0.2742 3.7108 0.0519-0.45395-2.8449 3.4893-2.3532 0.65064 1.1482 0.49691 0.94962 0.18162 1.833 2.0155 0.68911 2.3285-1.8983 2.8896-2.9569-1.3109-0.0154-3.8415 1.8703-1.3536-0.62329 0.30239-1.5151 5.5557-0.11119 2.3498-1.8075-0.0233 0.14392-0.88974 1.3607-1.7684 0.24424 2.1909-0.18923-4.0693-2.0452-2.9465-3.232-2.1206 0.63937-6.6012 9e-3 -5.7247 1.0231-0.70719 0.96896-2.3672-1.797-2.8218-0.47391 0.08549-1.2291-1.8423-0.30195 0.47495-1.8466 2.0186-0.77231 4.6483-0.99948 6.5729-1.2403-0.45325 2.1502 1.4826-1.2976 1.0787 1.0106 1.7276-0.78662 2.048-1.4401 1.3996 0.39943 1.9881-1.2853 2.3728-2.3331 4.9295-0.32506-0.21782 1.192 1.7272-0.81183 0.24746 1.4582-0.55695 2.2657 1.2885-1.4052 2.5205 0.84019 1.894-0.9986 3.6095-4.6855 1.9819-0.60153-1.5641 0.13622 0.53931 1.8256-1.3514 1.098-1.0664 2.0862-4.8042 1.9511-1.8393 3.8626 1.4501 0.95664-0.70751-1.3575 2.2232-0.48826 1.5352 0.9018 1.8771-0.19002 3.5983-4e-3 0.06624 1.3073 0.35694 0.95387-0.52081 1.8154 1.8653 0.84059-2.76 2.0783-0.4669-0.0927-0.29814-1.7689-2.7734 0.72941-2.676-1.39-2.3865 0.95241 0.90066 4.7917-3e-3 2.1974 0.58651 2.6634 2.5558 1.0944 5.0357 1.8898 0.68987 0.16217-1.3077 4.366-2.1327 6.6922-1.3381 3.6524-2.9079 7.2776-4.2376 10.748 0.01915 3.1111-4.2302 4.8686-5.0527 3.8492 0.03519-3.9175 2.1165-8.7224 0.45817-12.101-1.1908 1.6657-0.94963 4.5078-1.5872 6.6543 0.12304 1.4939-2.7768-5.3791-1.9325-0.87043 1.9807 3.5001 0.94662 9.1161-1.2434 11.663 1.2407 2.0103-0.65346 1.5388-1.0451-0.061zm2.0667-3.1466c-1.7326-1.9498-1.4594-2.8669-3.0533-4.0074 0.16839 1.3234 2.0996 4.052 3.0533 4.0074zm-3.2364-3.1966c-1.3683-1.7099 0.21882 1.8764 0 0zm13.871-9.3999c1.2416-3.8327-4.5135-1.3864-1.5471 0.22195 0.89179-0.21579 0.86712 1.2811 1.5471-0.22195zm-8.1212-1.7126c-0.97543-1.1231 2.0684-3.111 1.29-0.71069 0.96764-1.5291 0.19933-1.4056 1.3993-0.2319-0.07348-1.4646 2.0803-0.59993-0.31956-1.5058-1.744-1.142-2.9693 2.0493-3.73 1.0894-1.108 0.98183 0.74216 1.8862 1.3603 1.359zm-3.2427-2.712c-1.53-1.7399 3.173 0.0548-0.27936-1.2713-1.6382 0.0519 0.47961 3.0441 0.27936 1.2713zm2.7082-1.1611c-2.4158-0.50451 0.66572 1.4941 0 0zm-0.85458-0.464c-0.14092-0.47837 0.13382-3.4869 1.1189-3.8492-2.6881 0.0662-1.7427-0.21056-1.9076 1.5221-1.2819-1.1368-0.03965 0.97712-0.89036 1.5077 2.122-0.71204 0.10066 2.0998 1.679 0.81945zm-3.0493-3.0713c-1.368-1.8273-0.45697 1.4494 4.2e-5 0zm1.3957-0.38126c-0.62832-1.8127-0.61818 1.3309 0 0zm7.1438 0.11667c2.418-1.1738 1.1062-0.64628 1.3131-2.9104 0.24452 0.86384 0.40008 2.18 1.178 1.1303-1.3893-4.3109-3.5599 2.5454-2.4911 1.7801zm-1.3229-5.0238c-2.2311-3.1275-0.74114 1.2174 0 0zm2.5496-3.6273c-1.2458 0.27013-0.24272 1.5895 0 0zm-1.0392 0.25062c1.8297-2.7466-2.0727 1.4794-2e-6 0zm1.9292-0.61093c-1.3229-1.1008-0.63309 1.4643 0 0zm-14.023-1.8772c-0.34584-1.0474-1.5968 0.80117-0.16132 0.1482zm10.844-0.0822c-0.19646-2.269-1.8411 1.3807 0-4e-5zm-11.423-0.68121c1.889-2.6187-2.9709 2.0279 0 0zm8.4641 34.908c0.52065-1.9442 3.1653-1.2208 0.37877-0.6988 0.43486 0.4897-0.58646 2.2701-0.37877 0.6988zm24.196-2.55c-1.6837-2.4222 0.5527-1.4328 1.379-3.3674-0.22737 2.296 1.7268-2.96 1.8114 0.91835-1.7797 0.78875-1.3798 2.1006-3.1904 2.449zm-15.358-0.29422c-0.55585-1.7697 1.6691 0.42823 0 0zm12.022-0.75149c-0.67216-1.4246 1.7645 6e-3 0 0zm-42.788-1.8381c-0.76122-0.9818 2.2236-1.8666 1.6525-0.17508-2.1951-1.1067-0.05763 1.6865-1.6525 0.17542zm9.1741-1.1277c-0.60238-2.4051-1.4357-0.90254-3.4909-3.1067-1.378-1.1881-6.0089-5.1896-2.1498-2.2263 2.3076 2.2444 1.7485-0.57322 0.6487-1.8434 5.5833 0.0506-1.1598-4.3849-3.3928-3.7028 1.0084-1.3194-0.98041-0.45307-0.61143-2.443-0.52335-2.6455 1.9127-0.79993 0.95444-2.2586 2.7719 3.8058 7.0608 6.9466 8.1875 11.659-0.1466 0.85414 2.2338 6.9858-0.14571 3.9221zm-9.7127-0.22401c0.78794-1.9845-2.3656 0.78995-0.36249-1.1564 1.7899-2.272 3.8812 1.2205 0.79005 1.3241l-0.29069 0.0126zm1.3534-1.1811c-1.832-0.84397-0.6907 1.4868 0 0zm33.867-0.25882c1.7754-1.6112 3.6429-3.1168 5.4736-4.6641-0.65479 3.1763-3.355 3.1853-5.6427 4.8903zm-3.395-2.3824c1.4961-3.2101 2.471-8.8787 4.1888-10.686 1.9269 2.165 1.1757 4.9488 2.8013 5.0924-0.38102 1.2904-1.4794 4.3955-4.3851 5.4906-1.1064-0.28332-4.0395 1.3609-1.3816 0.7614-2.3662 2.2709-2.1678 1.5347-1.2233-0.65876zm1.2277-0.76154c-0.84664-1.0648-0.89515 1.1179 0 0zm16.984 2.6944c1.5221-1.282 3.2739-1.2079 1.6795-2.2687 1.5603 0.35127 3.5268-1.5702 1.6755 1.0037-1.1185 0.39206-2.1538 1.1703-3.355 1.265zm-50.744-0.2533c0.41751-0.87779 1.9239 0.77066 0 0zm42.976-0.43692c0.81245-1.6868 1.0272 1.3322 0 0zm10.337-2.1497c-0.15316-2.0964 1.5091 0.0656 0 0zm-54.692-2.8774c-3.5932-4.0561 4.0983 3.9285 0 0zm6.7574-0.22419c-0.9885-1.7127 2.594 1.3163 0 0zm1.3672-4.6635c-1.3904-2.0592-3.7586-3.6808-3.0247-4.7941 3.7202-3.2097 4.6563 3.3235 4.6519 5.727 1.7249 2.4247-1.104-0.34192-1.6272-0.93288zm1.2126-7e-3c-0.98711-2.3492-1.2397 1.4309 0 0zm-1.1965-2.3809c-1.2515-1.1692-3.1629-2.2099-0.71101 0.24336 0.04837 0.43147 1.5114 0.38914 0.71101-0.24336zm-5.2332-3.7078c-1.9099-1.7643 5.272 0.21155 0.83583 1.0555-0.27855-0.35186-0.5575-0.70359-0.83583-1.0555zm12.174-3.6211c1.5146-0.52484 3.5852 0.62308 0.18987 0.34636l-0.14554-0.13576zm16.964-2.2622c0.15019-0.58617 2.426-1.8499 1.6754 0.22252 1.2503 1.0515-2.4597 0.38512-1.6754-0.22252zm5.6798-0.42751c-0.74436-2.4242 2.8421 0.087 0 0zm5.4902-1.7112c0.94987-1.4217 0.83138 1.3735 0 0zm-12.678-0.27081c-3.8861-1.7033 0.95465-1.5233 0 0zm-3.8011-2.803c-1.3042-1.7644 0.51128-0.35262 0.87611 0.38385 0.41787 1.0074-0.91702-0.45569-0.87611-0.38385zm1.045-0.013c0.6339-1.475 1.6308 0.32587 0 0zm-8.1043-2.2436c-0.28524-1.576 1.2248 1.0034 0 0zm33.142-0.79373c-0.7101-0.25947-3.212-1.6453-0.45825-0.67819 0.82977-2.6324 1.7515 1.4858 0.45825 0.67819zm0.76447-2.2709c0.39308-1.7479-2.7516-0.25623-0.69664-2.2871 0.0559 0.31094 2.6202 3.254 0.69654 2.287z" fill="#45803e"/></g></g></svg>
