<?xml version="1.0" encoding="UTF-8"?>
<svg width="78.999mm" height="96.711mm" version="1.1" viewBox="0 0 78.999 96.711" xml:space="preserve" xmlns="http://www.w3.org/2000/svg"><g transform="translate(-57.235 -126.72)"><g transform="translate(10.547 38.138)" stroke-width=".26458"><path d="m88.408 185.14c-1.1429-9.5682-1.4486-19.26-1.3054-28.895-0.6305-4.4014 1.7967-7.9392 4.581-11.028 6.3207-7.5174 14.369-13.288 21.929-19.473-2.4-0.605-6.3548 4.87-8.312 4.6545 0.6172-3.5969 6.0966-9.8404 5.006-11.507-3.0291 4.642-5.5183 9.7271-8.4758 14.358-2.1082 1.3246-4.129 2.8102-6.349 3.94 1.9739-6.0003 4.2765-11.945 6.1002-17.977-2.448 0.88168-2.9914 6.5466-4.6056 9.2268-2.4989 6.412-4.4423 13.662-10.162 18.013 0.83656-5.2453 1.7932-10.555 1.8829-15.88-1.9046 0.84614-1.1038 10.825-3.1039 4.7728-2.0821-2.265 0.99841 3.4376 0.70155 4.8622-0.76799 3.0393-1.3538 6.1495-2.5302 9.0622-2.7134-3.0899-5.0986-7.0779-3.7368-11.334 0.42314-4.0516 1.7104-8.2573 1.6973-12.191-1.7187 4.2685-1.8608 9.1666-3.3825 13.564-2.7419-6.6134-4.4037-13.645-7.0274-20.285-0.53053 2.8536 2.1882 7.3694 1.6786 9.655-3.2437-2.9722-6.0137-6.4157-8.7105-9.8799-0.11037 2.7685 4.2864 6.02 5.9953 8.8937 3.4614 3.1685 4.9952 7.4732 5.4456 12.052-2.3605-0.92028-5.6713-4.7615-8.4448-6.7634-2.0922-0.88839-4.954-5.741-6.5563-4.5888 5.3607 6.387 12.769 10.836 17.722 17.585 2.3143 4.4221 6.0417 8.683 5.1365 14.018-0.06416 8.3682-0.42961 16.788-1.4687 25.075-0.21822-6.3463 0.88522-12.744 0.93383-19.123 0.09921-2.666 0.16757-5.333 0.25157-7.9994-2.4647 1.535-5.0576 0.0499-8.1594-0.3726-1.2006-0.74325-2.6299 0.78998-2.4136-0.23031-2.6198-0.66816-5.2858-5.1467-9.2164-4.3011-3.7276-0.0444-4.0168-5.0009-6.6493-4.7862-3.7342-1.5651-4.0819-5.7651-6.3758-7.7038 0.09697-1.318-2.7029-3.9441 0.18521-2.1475 0.6856-2.1202-3.2757-3.4766 0.12846-5.1461 0.47952-2.2478-2.4672-2.0644-1.3218-4.4594-2.8403-2.1926-1.2587-6.8468-1.3625-9.174-1.7624 3.1763-1.0551-4.0768 0.58471-3.6789 2.6572-1.965-2.4924-2.1191 0.38169-3.3107 2.2574-0.1053 3.9247-1.7149 1.7919-2.6182 1.8167-2.1827 2.546-3.795 3.877-6.9066 0.76642-1.7429 3.5281-3.2889 4.1067-4.4617 0.30678-0.98338-1.1856-4.0637 1.3033-2.3955 1.7931-1.2802-1.0659-3.3359 2.0868-1.7322 0.67845 1.2706 5.0793-3.5138 2.3376-0.20563-0.5498 2.2472 2.4021-1.9138 2.4338-1.9601 2.5283-1.3312-0.33075 1.4692 1.5461 1.4462-0.83635-0.78696 4.0574-4.0078 0.67929-2.0319 1.7127-2.4844 5.6211-1.0999 8.4597-2.7212 2.2479-0.15622 2.1131 0.74627 2.502 1.1109 0.80995-2.4776 1.242 1.2035 1.9434-0.6622 0.66345-0.5491 2.206-0.38728 3.7157-0.37093 2.2956-1.8947 1.9984 1.9546 3.9814 0.29995 2.7729-0.12054 7.0083-0.18062 9.9673 0.66703-0.63504 2.4069 2.3986-1.1584 3.6846 1.6881 1.1213-1.0733 4.9648 0.67724 6.5836 2.7045 1.5528 1.8338 4.4566 0.82864 5.4447 2.0464 2.9772 1.7209 2.6639 4.603 4.324 6.1419-0.13767 2.7904-1.506 3.6278-1.1683 5.6316 0.73707 2.1392 2.402 5.0154 1.7155 7.7038 0.16968 1.2792-1.8943 3.9004 1.3353 4.2763 1.9426 1.1972 2.6942 3.7772 2.607 6.3703 3.0409 3.5855 0.0927 8.4047-0.61972 12.232 0.47269 2.4415-3.0492 4.3878-3.3975 4.4635 0.69695 1.5603-2.3378-0.664-1.7412 1.7342-3.2772 0.1706-3.3435 5.7798-7.2204 5.7778-1.1424 1.2938-1.8952-0.32987-2.1513 1.0747-3.097 0.5693-5.6613 2.7028-8.8216 3.5298-4.223 0.70314-8.7644 1.3734-12.743 2.0076-0.45511 8.112 0.3837 16.265 0.81964 24.373-0.06308 0.45521 0.6587 4.2686-0.05523 3.2916zm-41.512-61.259c-0.93697-2.6024 1.6948-0.85284 0 0z" fill="#f2f7e8"/><path d="m88.408 184.87c-1.1556-11.354-1.8126-22.838-0.88396-34.235 4.5712-6.2232 9.7943-11.971 15.951-16.665 3.3041-2.9837 7.1902-5.3563 10.179-8.6591-2.3602 0.0339-7.373 6.0392-8.0132 4.4316 1.4493-3.8726 3.7251-7.3498 5.538-11.033-2.6718 0.95617-4.0213 6.2177-6.0795 8.8734-1.245 1.879-2.0649 4.1552-3.5836 5.7784-1.9889 1.2985-3.9089 2.7159-5.9875 3.8669 2.0853-6.0197 4.1896-12.048 6.2179-18.086-2.7962 4.8e-4 -2.8686 6.5071-4.6598 8.9262-2.5775 6.4361-4.4241 13.693-10.109 18.202 0.69034-5.2446 1.7532-10.501 1.7363-15.808-1.8874-0.11836-1.0438 10.351-3.0446 4.8091-2.1655-2.7865 0.52061 3.2739 0.60845 4.823-0.851 3.1465-1.438 6.3852-2.6665 9.4133-1.3691-2.4166-3.1768-4.7598-4.0231-7.3651 0.46502-5.458 1.8062-10.81 2.2653-16.255-1.7358 1.8476-1.7253 7.1269-2.7076 10.25-0.21634 1.965-0.95991 4.5944-1.6188 1.1461-2.1975-5.9555-3.7367-12.154-6.0618-18.05-1.2735 1.3733 1.8999 6.9247 1.5053 9.1356-3.4111-2.7427-5.7775-6.5943-8.9971-9.4595 1.2485 3.2576 4.6686 6.43 6.863 9.572 3.4154 2.9657 4.3194 7.3354 4.8886 11.617-4.8841-4.0504-9.6446-8.3307-14.55-12.324-1.0226 2.349 4.6402 5.0419 6.3048 7.3489 4.7153 4.3911 10.175 8.315 12.932 14.344 1.0284 2.066 2.3931 4.0565 3.2086 6.1788 0.02135 9.3465-0.46253 18.686-1.3301 27.991-0.14231-8.6387 1.4029-17.34 0.72483-25.992-2.1952 1.5937-7.8924 0.24876-7.9252-1.7776 1.0866-0.45713-1.8683-0.97692-0.479 0.96892-2.2154-0.41781-1.9762-1.7622-3.8403-1.3741-1.1723-0.41242-1.652-2.0372-4.6958-2.4077-4.1618 0.84346-6.3913-3.0202-8.3019-4.9874-3.6817 0.20208-4.5609-5.7439-6.8125-7.1038-0.64932-1.0672 1.4552 0.22062-0.09129-1.6643-0.51307-2.3786 0.47334-1.0631 0.9481-1.1421-1.2902-2.11-3.6244-3.3251-0.46283-5.4126 1.6122-1.3767-3.6406-1.2636-1.6238-3.5193-1.465-2.6526-2.714-6.3455-0.90063-8.5811-0.88806-2.5648 2.6099-2.2971 1.8571-4.1383 2.0226-0.83554-2.9139-0.66885-0.51525-2.3783 2.0011-0.083 3.0818-1.9503 3.8837-0.57958-0.10425-0.98669 1.3601-2.0484-0.69952-1.6052 0.78436-1.9314 2.2049 0.23347 0.97828-1.8901-1.2216-1.6006 0.56082-1.849-0.54332-3.3816-0.41993-1.3338 1.5187-2.7505 2.6318-4.2356-1.5227 1.8882 2.3855-2.7739 4.0645-2.2045 0.60025-0.0744 5.3821-1.2154 3.4705 7e-3 1.1632-0.28411 5.3253-0.10089 6.1134 1.2917 1.3101-0.30786-0.38218-2.7002 0.86795-1.9398-0.63225 2.0261 3.2808 0.75654 0.95762-0.55319-0.87892-2.3062 0.58625-1.8892-0.7084-4.0136-0.02408 0.28456 0.56431-2.1193 0.70753-2.2965 1.6608-1.9294 2.0086-0.94804 1.5079 0.62434 0.94774-0.51415 1.7924-1.9634 1.8038-2.2874-3.3706 0.27497 0.18216-1.0831 1.879-0.31456-2.4388-0.86126 2.9921-2.3936 2.9411-0.368 1.3668-0.93821 3.6129 0.8764 2.7864-0.55843 2.8272-1.3759 5.2605 0.41591 7.6636 0.08376 1.9884-2.2095 8.312 1.3399 7.9387 0.20545 0.95342-1.1841 0.99978 1.8953 2.8243 1.3964-1.1994 3.9509 4.0706-1.5297 4.3874 0.83389-0.3569 2.1235 1.2802-1.8904 1.4346 0.29811 2.8357 0.81212 0.58492 2.2184 3.558 2.5995 0.8946 1.9692 3.9004-0.05688 3.8553 3.0831 1.4727-5.1484 0.15283 4.7281 2.317 0.94467 0.92016 3.6077 0.12843 0.36943 0.76158 1.3335 0.95156 1.6079 0.44967 4.0722 0.24125 6.1728-2.5107-0.39097 1.6313 1.6965-0.94551 2.5596-0.97388 2.4854 0.66221 3.6625 1.1038 1.0508 0.95515 1.4311 4.0244 3.5115 1.3215 4.8137 0.18209-2.6938-1.0932 0.81651 0.45428 1.2744-1.3018 3.2812 1.1675 4.4903 2.7669 6.8141 0.57969 1.1199 2.0287 5.0314 2.1424 4.8417-1.0749-0.0778 2.6225 4.8663-0.48177 4.1968 0.58676 0.047-1.2728 3.1653 0.58653 2.6893-0.44121 0.81257-4.0027 1.1656-1.837 1.477 1.6349-0.71846-1.1628 2.482-0.14978 2.497 1.8502 2.1671-2.2907 0.0327-1.1 1.7024 0.48655 0.49609 0.22813 0.89644-0.22272 1.9391-0.74673-0.33898-0.69255 0.95388-2.0236-0.57782 1.866 3.7121-4.3268-2.0401-2.7022 1.4768 3.3431 0.19362-2.3173 1.4364-1.3818 2.7349-1.0778 1.0986-0.16547-1.1967-1.5371 0.74443-2.0634-0.28091 3.7-3.555-0.55944-2.5776-2.2129 0.96475-2.4367 0.74987-3.7528 1.655-0.0883-2.6705-1.6064 0.0517-0.32172 0.69005-2.1561 0.2354-1.1174 0.90695-0.45525 0.58078-0.39431 2.8399-2.9403 2.6224-1.3403 4.6354-3.2221 1.2264-6.4558 4.2277-10.376 3.5579-2.1735-0.76544-0.9946 1.5833-4.0869 1.2088-2.5943 0.22876-6.5724-0.90399-5.4333 3.2849 0.02074 8.3912 0.67977 16.805 1.107 25.153l-0.16245-0.32771zm-35.215-63.2c-0.18558-1.5991-1.0203-4.1056 0.03567-2.6113 0.37778-2.5911-3.0107 1.0372-1.3534 1.2811 0.31895 0.0859 0.14114 2.8072 1.3178 1.3298zm65.273-1.6605c-1.871-1.1754 1.4347 2.051 0 0zm-0.0611-2.7004c0.58872-2.2248-2.0199 1.2092 0 0zm-19.648-9.7176c0.45521-1.2361 4.1049-0.6236 0.42826-1.1725-1.9369-0.059-0.01917 2.9409-0.42826 1.1725zm-16.682-9.3355c0.42128-1.0831 1.8374 0.44342 0.71113-1.0508-1.2173-0.74573-1.8816 1.9963-0.71113 1.0508zm21.646-0.50494c1.4056-1.7109-2.3077 1.0062 0 0zm1.2008-1.2516c2.1678-1.679-2.7791 0.39087-0.12894 0.42165zm-14.684-1.2854c0.34603-0.77194-1.9819-2.0139-0.6993 0.2368zm13.361-1.533c-1.1603-1.9694-2.5728 1.2356 0 0zm8.599 54.705c2.002-2.0168 2.3611 0.7109 0 0zm-58.973-38.212c-2.1263-1.3683-0.62511-2.6371 0.30898-2.1659-1.0195 0.35625 0.96428 3.2667-0.30898 2.1659zm62.647-11.53c0.89822-2.7002 0.28363 2.2933 0 0zm-13.489-6.8383c-2.478-1.7364-0.10772-1.5034 0 0z" fill="#eaf2d7"/><path d="m88.421 184.72c-0.95926-8.574-1.1741-17.236-1.3284-25.859 0.22234-2.7689 0.07134-5.7372 0.60713-8.4226 4.1611-5.5319 8.6043-10.905 14.182-15.083 3.7969-3.5049 8.3149-6.2649 11.798-10.068-2.4396-0.0773-7.4885 6.1242-8.0339 4.5044 1.4744-3.6194 3.3528-7.3218 5.5325-10.389 0.54305-2.998-2.1962-0.76641-0.87891-1.3667-0.45548 2.2509-3.5764 6.1616-4.9513 9.0326-1.8031 3.8614-4.2481 7.3335-8.2252 9.1824-3.2365 1.8704 1.4102-5.8662 1.6705-8.29 0.09404-3.0815 4.879-7.9188 1.4854-9.5967-0.78681 4.8502-3.3598 9.2713-4.8839 13.942-1.7013 5.1907-4.1543 10.371-8.419 13.944 0.76905-5.2912 1.7516-10.611 1.7967-15.971-2.1067 0.67179-1.2068 10.983-3.3904 4.3518-1.6565 0.38185 2.1927 5.7892 0.21428 8.171-0.59731 1.9475-1.1567 5.3722-2.0197 6.5146-1.7199-2.9724-4.4925-5.9077-3.6382-9.6037 0.49241-4.7115 1.5032-9.3499 2.0791-14.048-2.3528 2.9043-1.923 8.3079-3.2834 12.128-0.7051 3.4211-1.9382-3.636-2.699-5.0231-1.6159-4.481-2.6639-9.2061-4.5812-13.553-1.298 1.4429 1.9228 7.0106 1.5025 9.1612-3.421-2.7516-5.7506-6.7244-9.0436-9.4865 1.6312 3.8496 5.2623 7.0766 7.7606 10.616 2.9054 2.7418 3.2975 6.8773 4.0477 10.589-4.914-4.176-9.8228-8.4981-14.816-12.498 0.26932 3.2352 5.1741 5.5295 7.3486 8.2851 4.4411 4.1009 9.5202 7.8066 12.07 13.483 0.98147 2.6608 5.6324 7.5265 0.91636 8.5453 0.55981-2.5845-4.2478-1.6936-4.4941-0.67574-0.84491-3.2695-6.2155-1.1017-7.9619-3.6776-3.3914-1.462-8.0702-0.14326-9.7475-4.1599-0.97737-2.1597-2.5711-0.81762-3.9193-3.1285-2.6209-1.4828-4.108-7.2226-3.8875-8.2433 1.8259 0.14082-4.2735-4.405 0.58222-4.5328 1.7613-2.56 4.4289 4.1584 2.5234 0.10444-1.2589-3.0693-4.7389-1.4128-4.9631-5.1009-0.63464-1.5012-1.9448-5.7602-0.52978-5.4175 1.2561 0.76383 5.897-0.72606 7.375-2.1885-0.47494-3.1743-1.3746-7.8081-0.3914-9.9943-0.68184-2.7861-0.91468-2.7079-1.4398-4.944-0.7771-2.1888 2.0207-0.72017 2.6204-3.5646 2.4543-1.8252 5.3414-2.0463 7.7634-1.6067 2.0668-2.417 4.2848 2.3818 6.4327 0.50883 2.0148-1.2332 4.8525-0.35396 4.36-1.7426 3.6211 1.4142-2.5159-6.0078 0.381-4.021 0.39657 2.4103 1.1372-2.2058-1.1211-0.53225-2.5156-1.9113 1.8575-1.445 0.53046-2.4205-0.97357-1.034 0.46746-0.34008 0.69806-1.2613 1.6515 0.92081 1.7768-0.04331 2.3003-0.75316-1.0388-0.93017 2.5417-0.07372 4.5692-0.0455 1.289-1.402 3.6043-1.8509 5.4173 0.28286 0.77692-0.50686 3.589-0.66198 3.6618-1.1482-0.89929 1.7742 1.7332 0.08154 0.76794-0.50919 2.8537 0.97674 5.2509 0.55977 7.5489 2.9963-0.69691-1.8503 1.5564-0.48452 0.51378 0.88631 2.6231 0.16298 1.3023 2.9825 2.2608 5.5309 1.5612-0.63675 3.7468-1.5763 1.7278-2.8577-2.7903 1.8044-1.1136-2.8727-1.0894-3.31 0.93529-1.9186 2.082 2.1339 3.3734 0.61363-0.85441 1.7371-1.0675 2.1552-2.1828 1.7913 1.9064 2.9209 1.0894 0.01907 2.483-0.75596 2.3084 1.1 3.8301 3.1548 3.1596 4.6273 2.0834 0.57756-0.24884-2.1612 2.295-2.2898 0.74869 0.68051 1.9894 2.1158 2.3858 1.7912 0.41729 1.9321 0.16774 2.605-1.282 1.6756 1.6464 1.8078 2.8044-1.2124 3.1082 1.5385 2.5134 2.0077-1.1544 5.3713 0.0614 6.3992-1.225 0.55999-1.5376-0.50727-2.3549 1.6412 0.81954-0.0819-2.3727 0.14931-0.34407 1.5232-1.9735 1.6405 1.7624 0.99425 0.56689 3.0135 2.5546-1.8748 5.0251 2.229 3.7735 2.8417-0.50312-1.3279-6.2205 1.4064-1.5394 0.63775 2.2641-1.1809 2.9265 1.8662 0.85106 1.7228-0.45038-1.4054 1.5784 0.17728-1e-3 -1.0968-1.6307 1.64-0.47265 5.3531 1.2593 3.2006 0.0704 1.1243 4.327 1.1473 2.913 3.3562-1.9383 2.2548 3.5639 2.5466 1.3746 5.5792 0.64247 1.138 0.56423 5.3524-1.0432 2.6396-1.9083 0.70763 0.44785 2.5262-1.4808 1.4196 1.1713 1.3611-0.0783 1.9856-0.32549 2.7453 1.2626-0.55832 0.07 1.6443-1.0271 0.13043-0.0318 0.6907 2.2718 1.8181 1.359 3.778 0.30967 1.3587-1.6034-2.771-1.7479-0.76215 0.69042 1.5721-2.5553-1.0805-2.8689 1.0386-0.77625-2.1713-0.4308 1.835-0.29648 3.341-0.54908-0.54895-1.7119-0.74295-3.7141-0.12994-2.147 0.044-6.5039-0.0199-4.5998 1.9401-1.509 0.90128 0.12571 2.5473-1.2498 1.8625-0.92372 2.2249 1.7941 5.5414-1.1863 3.4511-1.3186 1.9584-2.9823 2.257-4.8286 3.4561-2.5022 1.1699-5.2459-0.7467-5.8714 1.2173-3.0666 0.8505-8.8446-1.1395-7.3372 4.2604 0.11133 8.1865 0.5767 16.434 1.1762 24.552l-0.16796-0.41603zm-24.321-34.554c-1.8324-0.44535 1.5272 2.0911 0 1e-4zm49.582-28.708c-0.5553-3.4928-2.2544 2.0037 0 0zm3.0596-1.8609c0.44574-2.6255-0.51612-1.0722-2.2954-0.33582 0.78428-0.63596 3.0981 1.5651 2.2954 0.33582zm-9.6633-4.02c-1.1182-2.0691-1.2786 2.8943 0 0zm-4.6692 0.26222c0.0615-3.5934-1.8988 1.1363 0 0zm13.72-0.92368c1.0484-2.4394-1.3279 0.61515 0 0zm-8.0376-1.8521c0.25176-0.44849 0.67584-1.6738 0.29937-2.0336-2.718 1.1224-0.081 0.39094-1.2212 2.4329 0.37965 0.48786 0.58112-0.63224 0.92181-0.39932zm-8.7642-4.0137c-1.6997-3.3323 1.4871-1.0216 1.6607-2.0939-2.4653-2.3846-3.3836 1.3832-2.1347 3.0653-1.0347 1.3493 1.3736-0.29913 0.47404-0.9714zm-12.597-2.6009c1.1037-2.4768 1.9617-1.6392 1.8139-0.98384 4.1089 0.40599 0.40624-4.4758-0.02779-2.854 0.78286 1.9516-1.7789-1.0826-0.7038 1.2778-1.9664 0.29256-2.7456 0.31571-0.96529 1.0255-0.71664-4e-3 -1.5067 2.5823-0.11698 1.5344zm19.965-0.89462c1.7158-2.4606-4.664 2.4521 0 0zm-13.749-0.0976c2.2778-2.5446-2.7694 0.48903-0.04606 0.36058l0.04606-0.36055zm9.4383-0.2368c3.3822-0.7739-3.1057-1.6031-0.73066 0.21897 0.13549 0.0512 0.9159 0.24235 0.73066-0.21897zm10.745-1.1587c0.46559-1.9646-1.8751 1.3297 0 0zm-2.3055-4.1608c-0.8922-1.6939-2.1907 1.8695-0.0611 0.90991l0.0936-0.38603zm-13.239-0.72757c-1.12-0.90678 2.5314-2.6615-0.26999-1.82-0.96215-0.0184-0.68619 3.4523 0.26999 1.82zm7.1777 0.10842c-0.54459-3.0466-1.2938 1.7209 0 0zm-21.289-0.373c2.024-0.88846-0.73699-3.5283-2.2086-1.2061-1.0404 1.4836 1.008 1.8412 2.2086 1.2061zm12.274-1.678c4.1567-3.393-4.4447 1.5748 0 0zm-5.3957-2.3574c-1.582-1.7152 3.8221-3.9468-0.27913-2.5707-3.0099 1.7657 1.4716 4.5101 0.27913 2.5707zm11.395-0.16709c-2.2136-2.3342-0.44046 1.178 0 0zm-15.046-0.86509c1.8081-3.7814-2.5543 2.3158 0 0zm7.9369-3.3236c-1.241-1.8117-1.756 1.2864 0 0zm-12.421 91.603c0.3595-8.1929 1.0923-16.378 1.1477-24.585 0.80696 4.0132-0.21581 9.8354-0.25737 14.498-0.23613 3.116-0.4256 8.4518-0.89035 10.087zm-2.9596-24.757c1.0805-2.5774 1.9626 1.5308 0 0zm42.659-19.557c0.0953-3.3495 0.80635 2.1234 0.0577 0.93202zm-72.499-15.812c1.1199-3.5784 0.92964 1.0389 0 4e-5zm4.2615-4.3742c-1.1172-0.16211-1.8769-2.8009 0.24399-2.9111-0.47283 1.8842-0.1019 3.4174 1.171 2.0355 0.22364 0.89876-0.79892 1.4572-1.415 0.87561zm61.694-6.5398c-1.0257-2.5572 2.1886-0.52245 0 0zm-60.564-0.89859c-2.4366-2.6297 1.9096-0.41568-0.03315 0.2609zm17.86-10.426c-1.8007-2.9099 3.132 0.78576 0 0zm0.02239-1.6602c-1.3241-2.2213 0.36634-5.4122 0.89188-1.779-0.20446 0.14356-0.29554 2.8038-0.89188 1.779z" fill="#e2edc7"/><path d="m82.251 181.73c0.147-3.4992 0.13815 3.507 0 0zm5.8181-0.92605c0.14219-3.1893 0.14135 3.3401 0 0zm-5.5514-2.9104c0.11883-3.28 0.1188 3.5913 0 0zm5.2973-1.1906c-0.02952-3.1992 0.33628 0.93387 0.02975 1.258l-0.02176-0.47351zm-5.0375-2.249c0.14219-3.1893 0.14135 3.3401 0 0zm4.7784-3.3073c-0.02864-3.948 0.32303 1.1476 0.02855 1.554l-0.02088-0.58493zm-4.5004-0.79375c-0.02907-3.5735 0.32925 1.0405 0.02911 1.406l-0.02129-0.52921zm4.2438-6.2177c-0.02079-5.3529 0.29396 1.6528 0.02616 2.243-0.02544-0.7474-0.02518-1.4955-0.02616-2.243zm-3.9736-0.26458c0.15307-6.4541 0.1156 6.3603 0 0zm-1.4159-6.6739c-1.7419-2.3264-4.7222-0.17356-5.239-2.1776-1.6127 0.8161-6.4534 0.0559-7.4441-1.8812-1.3759-0.12236-4.5304-0.62652-5.4149-0.91852 2.9478-2.3815-1.6269-3.2246-2.3855-4.1704-1.8559 0.28177-0.35409 2.0132-1.9417 1.172-0.54867-7e-3 -1.2948-2.397-2.6619-1.0667-1.1971-1.14 1.7403-2.1337-1.1271-1.6772-3.2944-1.8732 2.2392-4.4462-1.6574-2.4978-0.65485 2.414-2.6151-5.0376-2.805-5.7072 1.3947 0.53134-0.15889-1.055 0.93274-1.2159-4.097-0.90712-0.2406-5.7108 1.7073-1.9303 2.9877 3.8999-0.09071-6.0434-2.5767-3.3052-1.1472-1.7661-2.1811-4.5748-3.3205-7.9171 1.4482-0.19104 9.536-0.77878 8.2506-5.1859-0.70145-2.7712-0.33377-5.7104-0.56918-9.0222-1.3111-3.5862 0.78856-9.6933 5.4239-8.4475 2.4739-0.11841 5.2294-1.1962 5.8749-0.12849 1.7765-1.3171 3.554 5.235 6.1823 1.7266 1.643-0.67429 1.2485-2.0904-0.21922-1.1256 1.2663-2.5659 2.2544 1.3723 3.2621-1.2068 2.8861-1.2495-0.82291-2.6307 2.9851-2.2002-1.1872-2.1222 2.6869 2.6612 4.1228 1.1936 2.4117-1.5313-0.17355 1.1851 2.3191 0.23792 0.67515 1.4322 2.7057-1.9969 0.76891-2.1521-0.81072-1.088-2.4632-1.2215-1.1677-0.08-1.9875 0.23729-0.50703-1.9565-2.8423-1.3634-1.3346-0.90333-0.57468 1.597-1.0792-1.1547 0.28175-1.7157-0.85594-0.5574-1.6882-1.5156-1.9494-0.39096 0.0693 3.5563-2.376 0.87262-1.0831-0.27559 0.76019 1.8221-1.364 0.18166-2.1129-0.48927 0.49342-1.2092 0.62461-1.7005 1.5934 0.96261-0.30285-2.4359 1.5461-0.06303 1.2039 1.5121 0.55956-3.8101 2.3784-2.1863 1.2123-0.35841 4.0626 1.5891 3.1102-0.63308 1.2366 0.73184 3.7211-2.2073 3.1867 1.499-0.57302 2.161-1.8246 3.7738 1.1555 2.1111 0.9034-0.15904-0.14416-1.0063 0.29368-1.4331-1.4614-1.5953 0.95082 0.0168 1.2872-1.5827 1.8546-0.4047 2.1168-1.089 2.786 0.43349 1.3677 0.8381 0.56935-2.6118 2.3561-0.8361-3.1225 0.01471 2.2802 0.76296-0.45491 2.622-0.20884 0.63538 2.7936-1.3586 1.0305-1.7017 1.5962-2.7239 7.5663 1.8189 4.8066 3.5187-0.95829 2.0785 2.2461-0.98693 0.92576 1.0274-1.6157 1.2397 0.53361 3.3403 0.59929 0.50606 0.70777-0.13139-0.44276 3.4031 0.93123 1.1544 0.84148-0.85865 0.2144 4.3349 2.7441 2.4348-2.4609 1.3408-0.12495 3.0764 0.1801 0.40711 0.45992-1.0427-0.74397-1.4266 0.76435-1.6332-1.2247-1.6203-0.35317-2.4837 0.55276-1.5831 0.71799-2.049-0.24724-3.1026 2.1165-1.6519 1.4118 1.3327 2.1455 4.3013 0.10882 5.5251 1.0071 1.3316-1.5323-1.7609-1.7744-0.11659-1.0924-2.1932 0.11227 3.119 0.9628 0.98368 0.43156 2.8645 0.86433 1.1518 1.6054 0.17231 3.2426 2.7184-0.66195-5.0097 2.4425-2.046 2.6395 2.9654-2.7079-4.8689 1.1263-2.1685-0.68137 3.1324 3.6901 2.7651 4.7645 5.0727-0.85793 2.2678-0.89415 5.2102-3.1361 4.5815 1.8105 0.92052-3.4311 1.5558-0.43471 1.2698 1.6494-0.29018-2.555 1.4861-0.15564 2.2535-0.7353 1.4564-3.221 2.3662-1.145 2.83-0.87692 0.80054 1.6201-3.1334 1.5023-0.63365-1.6109 1.4155 0.97952 3.3094-1.3732 4.6462 2.432 0.39863 1.897-4.6377 2.5937-1.416 0.61362-2.5567 1.3582-3e-3 2.1054 0.10372-3.1742-0.2752-2.4752 2.087-3.3873 2.6605-0.90425 0.34383-0.7438 1.7443-1.8019 0.19372-0.34746 2.9335-1.8484-0.66613-1.5572-1.5454-2.3083-0.326-0.29184 1.9499-2.2662 1.4948-0.34942 3.9822-3.8712 7.4675-5.5249 11.245-0.78712 1.4891-1.4662 3.0778-3.1343 3.7543-1.8361 1.1277-6.1084 4.7961-3.7614 0.31916 1.8883-5.0562 3.4922-10.246 5.3309-15.296-1.4929-0.89775-2.8398-2.9696-1.6853 0.36915-2.2303 6.4256-4.7572 12.773-7.3211 19.074-1.144 2.4276-4.6264 7.4253-5.8247 7.0204 0.95366-4.8543 1.4423-9.7947 1.9352-14.71-2.118-2.5919-1.5077 10.579-3.2462 4.4201-2.5204-3.2054 0.73093 3.7687 0.32973 5.1591-0.80952 2.0617-1.2477 8.6429-2.8521 8.1831-1.7032-2.9228-4.2693-5.8775-3.1896-9.5151 0.56482-4.4603 1.4093-8.8886 2.0694-13.328-2.3271 1.588-1.764 6.9862-2.9416 9.9949-0.35392 2.0379-0.83597 5.0367-1.6026 1.3142-2.0956-5.8811-3.7915-11.901-5.9262-17.765-1.6565-0.80918 0.72278 4.9553 0.81046 6.3859 0.8554 2.0316 0.87356 3.5675-1.0714 1.1189-2.7445-2.1281-4.8035-6.5154-7.4939-7.7402 0.97514 3.1335 4.5633 5.7297 6.4414 8.7529 3.4685 3.1688 4.7204 7.5111 5.4294 11.997-2.809-1.8164-5.9312-5.1852-8.9816-7.4483-1.6979-0.6916-5.4265-6.2269-6.1542-3.7784 5.6617 5.9273 12.416 10.823 17.615 17.182 1.7862 3.6332 4.8564 7.0566 5.1929 11.147-0.74753-0.27369-1.0329-0.15453-1.494 0.23468zm-26.177-18.726c-1.6197-1.4316-1.1117 1.3421 0 0zm1.4606-12.494c-1.2659 0.19266-0.95168 2.0537-0.02551 0.3156zm51.298-8.5427c-1.1472-0.38329-2.0955 0.55944-0.052 0.64525l0.10363-0.34743-0.0516-0.29782zm1.2572-0.63219c0.31948-2.912-2.1337-1.3691-2.8133-0.83762-0.10949-2.2009 5.3024-0.98979 2.1558-3.9648 2.4923-2.0159-4.4333-0.70478-1.8003 1.9971-0.4721 1.1676-2.4063 1.342-0.43039 3.0439 1.7038-0.17706 2.3075-2.7952 1.9526 0.22172 0.29017 1.0804 1.1445 0.18735 0.93551-0.46025zm-1.6019-2.7547c-1.492-1.2825 2.9024-1.0092 0 0zm-5.4613 0.65138c-0.27784-2.5278-3.5691 1.9856-0.55269 1.293l0.39838-0.48561 0.15434-0.80734zm-1.8864-3.4127c1.5555-2.7201-2.7535-0.77482-1.456-4.2346 1.1965-1.0082 0.19685 3.6779 0.69972 0.86747 3.1692 0.21653-0.47937-3.7003-2.006-0.62838 1.2104 1.4694-1.4756 2.3332 0.1531 2.8852 1.1995-1.8967-1.212 2.559 0.98977 0.22985 2.0407 0.47113-0.64585 1.5601 1.6194 0.88045zm2.567-0.86114c-1.5423-1.4168-3.5752 1.3006 0 0zm2.8738-0.19844c-1.381 0.18306-0.39309-1.1856-0.72358-1.603 0.77241-1.6765-1.7574 0.32873-1.9608-2.98-0.50319 1.0555-2.5362 2.081-0.61236 2.7764 0.0258 1.6763 2.4731 2.4004 3.2968 1.8066zm-2.1964-1.041c-1.5191-1.6671-0.87297-2.1928 0.3208-0.31948 0.41435 0.16547 1.0505 1.3638-0.3208 0.31948zm4.8916-0.1245c1.5007-0.64271 1.0154-4.3474 0.31052-3.047 1.0669 1.5426-1.4294 1.7569-0.57056 2.7014-1.4707 0.59589-0.0448 1.2105 0.26004 0.34556zm-23.329-1.0329c1.3578-0.64149 3.5239-3.8223 5.4059-1.7945 1.2363-1.5989 0.63052 2.0572 2.7112-0.19512 0.65489-0.93904-0.09756-2.9083-1.433-1.4178-1.1322-0.71239-2.4945-2.6955-0.86321-1.7363 2.1745-1.1311-1.1651-0.52218-1.6526-2.3812-1.755 1.4465-3.4134 2.6011-5.1659 2.3069 2.7232-1.0381-0.07924-3.1114-0.61298-1.2581 3.8574-0.89505-2.5288 1.7886 0.15315 3.0739-0.04083-1.0043 1.4493-2.1806 2.3289-0.50404-0.8467-0.708-1.3634 1.2393-0.44228 1.0058-2.4662-0.9393-1.0411 4.9283-0.42919 2.9004zm3.4396-5.9375c1.3007-2.6629 1.1976 1.0174 0 0zm7.3629 5.7952c2.9382 0.0368-2.3095-0.5535-0.08026-2.6834-1.5196 3.1529-0.51716-1.8951-1.834 0.48725 0.50399 0.3541 0.93045 3.9926 1.9142 2.1962zm9.1735-1.5619c3.7271-1.5235-0.86233-2.0514-0.89631 0.024l0.55363 0.2231zm-1.9606-1.1861c1.3709-0.75652 1.8296-3.7555-0.16117-1.9144 1.4328 2.174-3.3272-0.40165-2.3038 2.1046 0.98424 1.2205 1.4595-0.0911 2.465-0.19016zm2.622-0.68383c-0.859-1.3958-2.8653 0.96058 0 0zm6.8262-0.29967c0.85267-2.2021-2.0369 0.92612 0 0zm-44.118-0.21166c1.2399-1.1054-0.5081-0.89394-1.0634-2.1998 0.15275 1.1798-0.40945 2.8326 1.0634 2.1998zm38.246-0.30955c-0.37798-0.92838-2.8456-1.0328-0.20563 0.23237zm6.7607-1.5425c0.27079-1.4858-1.4381 0.95091-1.8704-0.46266 0.47495 2.2429 0.49688 1.2865 1.8704 0.46266zm-12.779-0.83211c0.12332-1.9101-2.047 1.6557 0 0zm-7.6355-0.54372c-1.0342-1.369-1.9569 1.8489 0 0zm-5.2723-0.47625c0.58973-0.78102-3.1391-0.37169-0.46066 0.69814 0.12952-0.24296 0.14306-0.60955 0.46066-0.69814zm11.159 0.0772c-2.4544-3.1787 0.2337 2.5015 0 0zm-1.8015-1.0116c-0.36781-1.0704 0.26594-1.3627 1.1905-2.4974-1.6408-0.2047-3.4602 3.4792-1.1905 2.4974zm9.6729 0.0084c0.61622-0.04169 1.6645 0.07949 0.0409-0.50601-0.40071 0.0061-0.75358 1.8579-0.0409 0.50601zm-11.444-1.9844c3.6742-3.1886-2.7452-0.29547-1.2719 0.91711 0.38644-0.34852 0.74703-0.77918 1.2719-0.91711zm-6.063-1.43c1.6389-0.14727 0.3161-3.5575 2.2764-4.0923-4.2788-1.3135-1.8599 6.1977-3.9808 3.817-1.2037 1.6998 1.3427 1.5383 1.7044 0.27524zm8.9203-0.30185c-2.6743-2.5255 1.9729 2.6652 0 0zm-11.435 59.801c-0.72104-4.6396 2.7647-7.8686 5.3899-11.186 5.5716-6.5692 12.745-11.515 19.295-17.043 1.9626-0.88694 2.244-2.7688 1.5793-4.7039 1.1944 1.1138 2.5498-4.5668 3.9425-0.18846 1.7522 1.0091 1.4243 0.31764 1.5092-0.31961 1.7823 1.4416 1.3196 0.75538 1.5267 0.16446 2.0834 1.3476 1.4663 1.755 0.91549 3.3458 1.3784 1.9088 2.7262 2.4205 1.474 5.3316 0.54858 1.658-1.0097 0.68661-0.25915 2.0449-4.3226-0.44427 0.65297 4.2852-2.2537 2.8504-2.1136 0.25776-0.5611 1.29-1.4014 2.2779 1.3404 0.16838-3.3882 1.9538-3.5611 3.6423 0.37027 2.1794-1.3494 2.1908-1.5197 1.5069-1.1443 2.1424-6.5698-0.26752-6.9736 3.2655-0.45227 3.0807-1.0026 5.8504-4.2306 7.3573-1.5996 1.1304-4.4231 2.4209-6.5891 1.4415-0.74464 1.3754-3.0821 1.3452-5.3734 0.72428-1.2366 0.4134-2.253 0.56343-3.6203 1.0846 0.05009-0.53189 0.10072-1.0644 0.1505-1.5959zm28.224-16.935c-1.5576-2.4993-1.3079 1.9084 0 0zm-52.652 13.678c-2.7796-0.64497 2.0343-1.4422-1.0326-2.1154-0.16851 2.16-1.3613 2.5256-1.4964 0.0708 1.9724-2.5939 5.108 1.2668 2.5908 2.2085l-0.06184-0.16386zm42.745-22.055c1.0288-2.3274 4.0745-10.017 5.324-8.7931-1.2278-0.69805 1.4759 2.6843 0.63346-0.0437 1.5458 1.1048-0.85116 3.3968 1.8349 3.6277-0.59315 0.42488-5.0269 3.5838-6.9387 4.9925-0.14385-0.0328-0.89113 0.8045-0.85366 0.21661zm9.1632-30.122c-1.7568-3.1205 2.1609 1.1697 0 6e-6zm-10.237-1.6776c-0.91012-1.4877 2.5271 0.66229 0 0zm-1.4541-2.5298c1.1367-1.7417-0.66-3.424 1.695-3.7668-0.31585 2.5843 4.4742-0.14684 1.0942 2.308-0.22828-1.4946-1.58 1.6919-1.8995 1.3652-0.20499 0.16666-0.85575 0.64591-0.88973 0.09364z" fill="#d9e8b6"/><path d="m87.802 176.7c0.15107-2.9626 0.14276 2.9694 0 0zm-0.26188-5.424c0.14219-3.1893 0.14135 3.3401 0 0zm-4.4979-0.52916c0.14219-3.1893 0.14135 3.3401 0 0zm4.2403-5.6885c0.12766-3.5258 0.1102 3.5822 0 0zm-3.967-1.1906c0.14657-3.8409 0.13446 4.046-1.51e-4 0zm4.0646-8.8635c-0.73776-4.7084 3.1362-7.8214 5.6486-11.223 5.7245-6.4061 12.707-11.515 19.433-16.8 1.7795 0.0768 2.7821 1.0338 2.2401-1.4209-2.5181 1.4354 1.029-2.8655 2.309-2.5551 0.77325-1.0762 1.786 2.3984 3.6052 1.5519 1.5684 1.58 3.5617 4.9131 1.3785 5.7095 2.9214 1.2447-3.0354 2.0859-0.22852 2.6678-1.3078 1.2197-3.7096 3.1519-3.2191 4.168 1.871 1.1103-3.8591 2.4934-3.4823 5.9496-0.80291-0.78677-0.58533-2.7044-1.7995-0.51521-2.3086 1.4024-7.3907 2.1372-6.6246 4.2648-0.90837 0.14596 0.41076 4.5052-2.455 5.2917-2.016 0.60334 1.2328 0.77641-1.6784 1.3901-1.7984 1.716-5.8466 3.3969-6.7043-0.26241-0.65603-0.22621 0.49959 3.0773-1.0706 2.9371-2.148 0.27425-3.8542-1.1069-6.5987 0.33909-0.3646-0.81818-1.2479 0.84074-0.7534-1.4936zm28.124-16.521c-1.318-2.3005-1.6284 1.4793 0 0zm-0.8599-4.5174c1.161-1.554 6e-3 -1.3919-1.4015 0.27906 0.47974 0.12203 0.9462-0.23289 1.4015-0.27906zm1.6381 0.0845c0.31886-1.2495-1.1523-1.3241-0.4679-0.0371-0.70797 0.0784 0.22116 1.1433 0.4679 0.0371zm1.49-3.0121c2.6255-0.72139-0.21737-4.4649-1.0122-1.2103-1.3065-0.74896-0.47641 3.0397 1.0122 1.2103zm-1.0583-0.57697c1.9416-2.2052 1.7949 0.54813 0 0zm-2.0994-0.98946c0.7162-2.1792-0.91807 0.36746 0 0zm4.3482-1.2998c1.2485-3.0188-0.92121-3.8478-0.36151-1.6141-1.0636 1.1796-1.0781 0.88058 0.3747 1.9878l0.15697-0.0862-0.17017-0.28757zm-38.061 27.955c-2.4839-1.2728-5.3095-0.70443-8.9213-1.5584-2.5526-2.0989-4.5919-1.6564-7.1094-2.3449-0.02404-0.0238 0.9597-4.8856-1.3453-2.6289 0.29242-1.6626-2.2241-1.1605-0.14938-2.1005-3.2715 1.1845-5.5789 2.1061-5.0646-2.3917-3.2158 0.93272-5.0093-0.64854-1.9339-1.9073 0.22154-2.9673-5.1365 3.0431-2.7693-1.2905 1.5984 0.22254 3.5403-0.49994 0.15871-0.29725-2.3394 0.3411 0.40312-0.6929-2.0611-1.9222-0.25902-1.7173 1.3881-2.577-0.88179-3.62-0.69823-3.7221 2.8784-1.8008 4.2346 0.35194 1.0012-1.4312-1.1428-4.0511-1.3587-4.4316-1.4051-2.2774-2.8763 0.68106-2.4581-1.5263 3.0451 0.29024 0.82381-0.13329 0.05918-0.78694 0.47684-0.306-2.145 0.52637 0.0844-1.1232 3.5744-0.55337 7.3307-1.2262 10.101-2.6441 1.8218 0.91125 4.7779 1.0548 1.3837-0.17329-2.4009-0.74856 1.7212-1.135 0.14279-2.3988 1.8467-0.75818 0.23316 3.0208 1.6703 0.33139-0.70131-0.4643 2.3353-1.0811-0.13629-1.0504-1.8086-0.62031 2.1497-0.76476-0.4911-1.1399 2.3663 0.41386 4.3281 4.5498 6.4101 6.6401 1.1788 1.7115 2.9254 3.1553 3.7504 5.0335 0.17954 2.0126 1.7315 5.662 1.0392 6.4943-4.6052-4.0702-9.4131-7.9293-13.944-12.068-2.2566 1.9218 3.9993 4.6428 5.1936 6.7114 4.9685 4.8607 11.043 9.0083 13.99 15.522 0.47102 1.6002 6.1526 9.0818 0.40587 6.3188zm-22.812-14.617c-1.0496-0.7829-2.5433 0.78238-0.29146 0.18139zm-2.1827-3.1088c-1.6472-1.464-1.5081 1.5226 0 0zm26.342 8.6543c-3.2547-3.532-2.3625-8.2196-1.5333-12.473 0.13508-2.7023 1.9471-7.4055 0.69995-8.8667-1.3208 4.3695-1.954 8.9137-3.0565 13.34-2.6099-6.4791-4.3376-13.288-6.6717-19.865-2.2273 0.22685 2.2716 8.3182 0.89243 8.7763-3.2981-2.5111-5.5843-6.9032-8.6754-9.0413 1.0218 1.8586-2.372 1.0919-2.6416 0.89186-0.59811-2.3331-6.2976-1.6406-2.4738 0.30242 1.4891-1.2724 2.9976-0.6139 0.83369 0.0248-0.64265 1.0273-1.9742-0.59353-2.0869 0.99218-1.5474-0.49293-0.42222-2.9628-0.92958-3.7042 2.21-2.1172-1.7168-0.5919-0.65274-2.6824 0.33335-1.8238 0.08803-3.2011 0.63655-5.4694-2.7488-1.729-0.07515-7.9077 2.6891-7.7232 0.72928-0.34569 5.2281-0.93122 6.5628-0.52594 0.5561 2.1501-5.4063 2.571-2.3984 2.6426 2.1618-2.4765 4.5421 3.1033 1.121 2.7209-0.31817 2.0446-0.58349 1.8637-0.90091 0.97384-0.59366 0.89653-1.4398 1.9159-1.4728 1.9535 1.9957-0.10955 3.6904-1.1229 3.4753-2.1618 0.23848 1.6216 2.2974 0.25885 0.48387 0.27845 0.53786-2.2169 5.2658-0.24833 5.4074-3.2356 0.0083 2.0116 5.8122-2.8132 2.8364-0.11503-1.4361 0.62144-3.1291 2.7311-2.0165 2.6286 1.699-0.21868-1.4419 3.4387 1.2568 1.8487 0.16523-0.41152 2.234-1.2678 0.93762-2.6192 0.66455-0.65848 2.955-0.96791 3.428-1.8327-0.5929 1.1892 5.1872-2.0028 1.7092-2.6886-2.9993-2.6375 4.1069-2.3387 1.0795 0.19804 1.3328 0.20393 2.5737-1.6215 2.667-0.0329-2.0081 2.5718 2.5848 3.4623 1.0597 6.3169 0.79872 2.7133 2.3645-2.1933 2.7394 0.44279-0.13738 0.55758 2.2894-3.9679 2.6514-2.4108 1.4319 1.0653 3.4694 0.51319 4.6093 0.66458-1.2191 1.5082 1.1605 2.8312 2.6322 1.678 0.2254 1.8155-1.3824 2.6513 1.0754 3.0458-0.58196-0.26494 2.2728 2.4365 0.63495 0.42579 1.1606-1.8667 0.42473 0.80431 2.6898-0.82575 1.9271-0.65634 3.2609 1.2434 0.35333 1.3418 1.3922 1.0421 3.2042-0.0907 3.0539-1.6861 0.62468 1.1129 2.8412 0.53908 1.4332-1.5793 0.70458-0.88815-2.0895-1.4168 1.1812-0.69926 0.77255-0.24545-0.85285-0.87276 0.90184-1.3646 0.0889-0.67288-0.3929-0.89628 0.56394-1.5559 0.91607 1.7812-2.0097 3.5282-1.0681 4.5368-3.0162-1.4195 1.8473 1.5781-1.0897 1.781 0.17662 2.6018-2.3942-0.16896-2.7107 2.0293-1.4176 1.3208-1.3955-1.1119-2.9957 0.79049-1.1871-0.63235-4.6187-3.1449-3.5698-1.0405 1.1893-0.39965-0.7152 1.622 1.3212 0.64247 2.2561 0.4496 1.8023 1.5531 1.6815 2.2677 2.3663-0.31795 2.498-2.4813 5.3336-2.6597 2.4137-0.60626-2.2312 3.5579 1.7978 4.4854 1.4509 1.5186 1.2068 3.3662-0.12971 4.8071-1.4959 2.5645-3.5478 5.768-4.0185 5.7074 0.0143 4.2846-4.7337 6.1909-7.8445 8.1849 1.8797-5.2955 3.6209-10.65 5.5475-15.929 2.5997-1.1653-1.425-3.3148-1.1773-3.8038 0.16215 3.0432-1.8465 7.7127-3.353 11.399-2.3406 5.9632-4.0667 12.515-9.0184 16.955-1.5111 0.92807 0.46059-4.6909 0.36448-6.4556 0.04877-2.7788 1.6022-6.7548 0.2618-8.8526-1.2669 1.3951-1.1096 6.9194-1.9409 6.7147-0.30078-1.7396-2.7205-4.3898-1.3825-0.78897 2.2031 4.0055-0.12495 8.2716-1.1018 12.28-0.36048 2.0937-1.1243-0.93217-1.6932-1.3802zm21.493-24.054c-1.7045-3.7073-0.31953 2.2892 2e-5 1.9e-4zm1.4938-0.47564c1.3848-3.8357-2.3777 1.7385 0 0zm1.3274-2.5476c1.823-1.1923-0.78545-0.68538-0.75951-2.2751-3.2593-1.2596 2.2854 3.6793-1.1095 1.6894-0.14153 0.89775 1.7592 1.6942 1.869 0.58573zm-6.7269-1.0527c-1.5173-0.96848 0.63101 2.8478 0 0zm5.3638-2.2268c1.3987-0.83816-1.9136-0.33452-0.80809-1.3828-0.84624-0.3201-1.7317 1.4436-1.8292 1.4251 2.2129-1.1256 0.68022 1.9743 2.6373-0.0423zm-21.119-1.2244c-0.09489-2.0547-3.1482-0.15217-0.30303 0.23636zm15.244-0.57056c-0.64359-2.0718-1.8873 1.7144 0 0zm-41.939-0.96381c1.053-0.91414 4.9988-2.0895 3.0276-2.3868 0.80269-1.4649 0.88694-3.0933-0.32309-2.1391 1.5534-0.77435 2.0271-3.8409 0.89479-2.5492 1.4419 0.41123-2.5967 2.1895-1.2511 0.58366-1.7825-0.29494-0.95528 1.8928-1.5733 1.5557 0.46562 1.1595-1.9028 2.5831-0.42964 2.4362-0.72428 0.41724-2.5786 5.6674-0.34528 2.4994zm9.7971-4.5371c1.4385-0.14859 1.8587-1.5081 3.5111-1.8561-1.3806-0.92613-2.7759 1.0472-4.2106 1.8524-1.5663 0.0328 0.21248 0.73566 0.69956 4e-3zm-6.7818-2.7896c0.70634-0.68914 3.1104-1.1993 0.22462-1.389-0.02943 0.52076-4.1997 0.0648-1.747 1.4952 0.47183-0.33514 1.8006 1.0544 1.5224-0.10625zm11.051-0.0302c1.1248-2.1899-2.4989 1.7041 0 0zm-14.26-0.19682c0.53736-2.5401-2.6959 1.1888 0 0zm8.341-1.3867c-3.474-0.89299-2.3418 0.40874-0.72279 0.71795 0.15232 0.58079 1.6727-0.4105 0.72279-0.71795zm17.163-0.78046c0.17824-2.8164-3.9359-1.4827 0 0zm22.901 25.864c1.1321-2.6148 2.6415-7.3695 5.4095-6.5146-1.1206-1.705-3.5114 1.5013-1.4577-1.5403 0.74344-2.2 2.5676 2.1592 2.3474 3.3447-1.1195 2.1033-4.3102 2.632-5.7783 4.7547 0.0746 0.2386-0.92806 0.46061-0.52087-0.0445zm1.6148-1.9212c1.6941-2.3684-1.5599 0.74432 0 0zm2.108-1.904c0.12194-5.4816-1.8152 3.7182 0 0zm-50.965-1.1328c0.41188-0.91657-4.3186-0.24603-1.478-2.0185 0.3757 1.08 4.6306 0.76572 1.478 2.0185zm-1.8521-2.6441c0.93204-2.1683 1.5966-0.0371 0 0zm1.4596-0.5987c1.9519-1.4312 4.265 0.66944 0.74209-0.043-0.23614-0.32043-1.0001 0.73994-0.74209 0.043zm53.771-4.2511c-0.49665-1.3865-3.8472 2.0331-1.1826-0.7276-0.33006-1.7777 0.65065-0.83183 2.4383 0 0.71577-2.2665-1.4944-2.3496-1.0969-1.2224-2.226-1.4291 1.5967-2.4725 1.0995-1.2684 3.156 0.48381 0.44163 3.6197-0.91155 3.8245l-0.34645-0.60603zm-0.20609-4.7364c1.02 0.1994-0.0796-3.3362-0.6682-0.21144-2.5558 0.1162 0.75792-4.1729-1.5717-2.9235-1.2722 2.6271 0.85675-3.5503 1.61-3.3286-0.99947-1.2041-1.969-1.7553-0.46127-2.539-2.8264-0.33988 1.5805-1.5554 1.5913-1.2181 0.43687 1.6338-0.9955 2.7037 0.96643 2.0171 0.56353 2.3756 0.27221-2.3715 0.63056-2.2633 1.1377-3.408 5.869 0.34998 3.5636 2.7022-0.29127 0.34321-2.1029 2.3973-2.9891 0.99171-1.8667-0.60466-2.784 3.5519 0.13002 3.1324-1.8074 8e-3 1.3324 2.9489-1.8959 2.8711 0.17653 0.60439-0.30992 1.1356-0.90571 0.76934zm-9.8998-3.4412c-0.3031-2.0233-2.2177-0.74979-0.65117-1.7343 1.4014 2.0036 1.553 1.7694 1.6826 1.099 1.4675 1.1199-1.2647 1.706-1.0314 0.63537zm-0.416-2.4874c0.40828-2.5754-4.5858-0.44677-3.0255-1.4579 2.9926 0.35568-2.5119-1.02-1.1422-2.9583-0.1134-2.8011-4.009 1.5015-2.22-1.498-1.3098 0.10192-6.1529-2.8976-3.1871-4.0149 1.6414 0.03151 2.5377 0.61796 1.5325-0.74559 3.1543 0.43326-0.58871-1.8242 2.1301-0.63355-1.2555-1.0745-1.9709-1.3154-0.533-2.0104-3.3377 0.18924-1.913-1.1267-0.43774-2.026-1.5646 3.0471 3.1868 1.8055 1.094-0.58826 1.5642-1.2705 2.0993-1.0485 0.64781-0.03895 2.5556-0.82566 2.1732 1.1512 2.3856 1.5538 0.97255 0.62882-1.4714 3.1106-0.64566 0.54298-1.3617-0.45782-0.52462-0.76594-1.0047-1.7698-1.2243 0.61231-0.83101 2.3007 0.55174 1.9968-1.844 0.64635 1.0155 1.2286-1.5699 2.2805 0.97788 0.79408-3.0143 1.7502-1.0059 2.6301 1.3976-1.4999 3.4885-2.0909 1.8012 0.4246 0.57702 2.2763 2.0399 0.10845 1.5196-0.83041 0.72954-6e-3 -0.41297 3.6679 1.4107 2.204-1.3317 1.9933 1.4797-0.32479 1.3976 2.4129 1.8642 1.831-2.1112 2.5394 1.4215 3.474 1.8652-0.27203-1.6476 1.8699-1.1207 1.0523zm-2.6399-3.7926c-1.195-2.2502-0.69506 1.3111 0 0zm1.0583-0.14745c2.3215-2.9799-1.8405 1.1901 0 0zm-6.0854-3.2055c-0.22656-2.0831 1.1494-1.9718-1.1223-2.0089-0.42908 0.08882 1.0291 2.8197 1.1223 2.0089zm-20.492 6.5703c0.27634-2.0946 1.572 1.1759 0 0zm-4.5831-1.055c1.3603-2.4697 2.6724 0.80817 0.10401 0.5386zm27.392-0.99992c-1.3683-2.3354 2.7751 1.2711 0.01301 0.53867zm-29.304-0.26458c0.21071-0.87333 2.8827 1.1885 2e-6 0zm40.085-1.1316c0.69644-3.8587 0.56017 2.1413 0 0zm-10.65-0.49998c0.47395-1.9063 0.94744 2.0979 0 0zm-12.003-0.63594c2.3452-1.0191 0.3154 0.79637-0.639 0.45214zm3.454-0.32056c-1.593-1.9083 0.73609-0.66943 0.67786 0.32231zm15.134 0.14552c-1.9717-0.75832-1.8477-1.5166-1.7088-2.3673 0.97444-0.3316 1.1307-0.40367 2.0495-0.05291-3.8937 1.2307 3.2822 2.844-0.34066 2.4202zm10.018 7.7e-4c-1.3842 6e-3 -2.2149-1.6446-0.73243-1.7674-0.0454 2.2861 2.785-1.0045 1.8152 1.3998l-0.5851 0.5397-0.49813-0.17196zm-24.694-1.108c-1.2991-0.59614-1.9291-1.4899 0.02206-2.2048 0.30178 0.76142 1.2307-2.8748 1.1759-0.07341-0.81876 1.0385 2.4321-0.48112 0.73856 0.7358-1.0627 0.27948 3.0155 2.4647 0.66094 1.7714-0.70078-1.5769-2.4821 1.8525-2.5974-0.22895zm18.08-0.24942c-1.4207-2.8489 4.9865-1.2066 3.1526-3.144 0.26605 1.4922-3.2479 0.79909-3.0865 0.3791-0.28909-3e-3 3.3844-0.43166 1.9182-2.0348 1.6429-0.26823 0.33087 1.4981 2.249 1.5563-0.5173 1.9602-0.97259 3.428-2.806 1.545-0.92373-0.01941-0.94224 2.8889-1.4274 1.6984zm8.3627-0.98493c0.0313-2.3787 1.2437 1.5029 0 0zm-27.846-2.0935c-1.5461-0.52726 0.69975-1.0575-1.1546-1.3066-0.2095-1.7437 4.5808-2.8193 3.081-0.53296-1.7801-0.22537-1.0326 2.9499-1.9264 1.8396zm3.0872-0.59683c1.1518-2.4291 2.6783 0.41762 0 0zm7.9094-0.13229c-0.64606-3.8877 1.4693 0.71101 0 0zm1.8478 0.08095c-1.6756-1.4985 0.68547-1.3921 0.62475 0.0727-0.0085 0.05832-1.18 0.29883-0.62475-0.0727zm-7.6329-0.48574c-0.12431-0.32511 1.5903-0.07213-0.01553-1.0842 2.9481-0.69845 2.5984 1.1089 0.01553 1.0842zm-8.7474-0.06035c1.3238-0.96014 2.4246-2.1891 0.124-0.94416-2.2276-0.12124 0.31406-2.1848-2.2362-2.1503-4.3356-1.6506 2.6225-3.0683 1.4503-1.2574-0.9458 2.8236 0.87949 0.69816 1.3373 1.1663 1.1557-1.5822 0.46546-2.4029 2.4275-2.4394 0.60629-1.2167 0.79194 4.5993-1.2789 3.0935 1.4127 0.75569-0.50294 2.519-1.824 2.5314zm21.034-1.3208c-1.1591-3.1579 0.83282-1.5845 0 0zm-15.281-2.0823c0.23748-2.318 3.9675-2.7707 1.0908-0.3422-0.17873 0.02999-0.97991 1.1278-1.0908 0.3422zm10.53 0.0979c0.76514-2.5401 1.2946 0.97193 0 0zm-6.7504-1.0078c2.4708-2.6528 0.68932 1.6788 0 0z" fill="#d2e4a9"/><path d="m82.828 156.65c-1.9964-0.23606-1.956-1.8027-3.2296-2.0526-0.86677 1.9314-5.6285-1.4264-6.5523-0.73318 2.9619 2.8906-5.3619-0.95388-0.75079-1.4212-2.8919 0.78685-7.584 0.32001-7.4103-3.4362-2.0397-0.43505 0.04098-3.1115-3.0044-1.375-2.6882 1.7292-4.0817 0.66658-1.7702-0.91323-1.5281-1.6876-2.6693-2.6954-5.0571-1.8305-0.03159-0.36081 5.9764-3.3509 1.6699-3.5753-2.474 0.4795-4.2952-0.10659-3.5382-2.947-1.7166-0.13628-1.9028-6.4201-0.01561-3.8082-0.15534 2.1418 0.786 1.4892 0.66202 1.0344 2.6621 2.4863 1.2049-2.1532 0.16228-3.2378 2.2727-0.6943-1.6616-2.9284-1.5788-2.704 1.2445-0.64817 0.52922 1.0182 1.6164-0.50419 1.3529 0.42865 2.884-0.43666 2.4045 0.72368 1.4745-2.1087 3.3182 0.2685 4.8705 0.10406-1.6651-1.2479-3.8758-3.1882-0.9316-1.7836 5.5942 6.3963 12.767 11.331 18.074 17.996 1.2817 3.0232 5.4729 7.722 4.3797 10.464zm-26.99-18.486c-2.6931-1.0031 0.58741 2.1747-3e-6 -3e-5zm31.675 15.108c-0.04018-1.6016 0.0159-3.1665 1.3831-4.232 6.4135-8.9028 15.253-15.57 23.786-22.292 2.3783 0.32965 0.19734 4.0378 2.5572 5.0976-2.6588 1.8414-2.7818 3.0817-0.13384 2.7047-1.3189 1.5302 2.9936-0.93488 1.9845-2.3026 0.96357-0.64438 0.50986 1.3007 1.7369-0.58138 0.38568-1.9159 0.71493-4.1366 0.70371-4.955 0.77159-1.0044 1.4101-0.87105-0.16016-1.4588 3.4874-0.89985 2.3545 3.6088 0.63149 5.3108-1.2615 4.5466 1.4967 0.36612 1.7586-1.9227 2.1123-2.6472-0.34947 1.7875 0.13054 2.9569-1.5382-0.63136-1.1654 4.7774-2.6872 2.9008-0.82465 1.8237-6.0711 2.9822-5.7308 4.4016 1.4184 0.022 0.32568-0.54222 2.0839 0.0142-1.155-2.1259 1.4102-0.50538 3.122-1.6726-1.6667 1.241-3.8693 4.4855-4.0335 4.6647-1.1814-1.1517-4.2792 3.1944-6.8498 2.344-3.4466 1.2485-0.70631 5.3296-2.8744 6.9582-1.4915-0.0438-4.1235-1.2019-3.3654 1.1197-0.17983 0.0794 1.5877 1.2958-0.79197 2.2084-1.0568 1.1868-1.7785-2.0158-2.183 0.82714-2.109 0.20094-3.6976-4.5936-3.0966-0.37313 0.16945 2.3348-3.3837-0.38021-5.2827 0.69088-0.30796-0.19524-3.7207 1.2869-2.7298-1.479 0.01341-0.30995 0.02839-0.62104 0.04075-0.93024zm25.081-24.518c2.1218-3.2123-3.0471 2.1425 0 0zm-9.8488 23.441c0.23468-1.5647 4.0143-0.57464 0.58856 0.14402-0.0459 0.44547-0.98614 0.56103-0.58856-0.14402zm-20.488-5.1738c-3.1967-3.4071-2.3747-7.9393-1.5428-12.069 0.05443-2.7239 2.1781-8.0634 0.6405-9.2772-1.3642 4.3737-1.9273 8.9578-3.0313 13.402-2.357-6.1286-4.0235-12.632-6.1265-18.729 2.1594-0.93754 1.6743 0.0934 4.2423 0.52301-2.613 1.676 1.576 3.1417 2.104 0.10263 1.9912-2.6006 0.73341-4.6102-2.0876-4.191-2.2662-0.40202 0.30588-2.7972-2.1073-0.53604-2.4267 0.0636 1.2243-0.42973-0.86307-1.8034 2.3951 0.65858 6.2812-0.12861 7.7452 0.41429 1.1348 3.9922 5.1126 0.13923 3.8787-1.2381-1.4926 1.4226-3.7191-2.9708-4.4035-0.79407-2.4483-1.8138 0.68486 3.6898-1.5875 0.87987-1.0348-1.3338-0.59932 2.2718-1.6216-0.13646 0.16469-1.4293-5.1061-0.0992-5.1854-1.7148 3.3723-0.14206-2.2675-1.1408 1.2454-1.3052 0.76273 0.0727 1.3082-1.5972 2.5292-1.9323-2.5689 0.13571 4.3161-1.9976 0.08345-1.6807-0.52795 0.15419 1.2766-1.8412 2.1769-1.8127 1.4133-0.48359 2.9546-0.84632 4.8752-0.60964-1.1526 1.5428 1.7453 2.6658-1.319 2.8298 2.0242-0.69285 2.392 0.91595 3.2359 1.9144 2.1426-2.9873 0.76903 1.7006 3.0062-1.3895-0.67271-1.4535 2.241-0.93347 2.4175-1.7462-0.98422 3.8166 5.4713-1.2916 2.1855 2.5819-0.23315 0.27422 3.6547-1.5055 1.3256 0.97129 1.1286 0.0171 3.219-1.3849 2.5034 1.1291 0.41428 0.99729-0.54662 2.1444 1.3477 1.0935-2.2081 1.8165-0.0471 1.7918-0.61866 2.4829 1.1906 0.51133 0.99879 6e-3 0.04402 1.3527 1.4928-0.61981 2.9253-0.96203 1.4219 0.90299 1.2187-0.92304 1.0957-3.2668 1.8558-1.0583-0.56064 1.1855-0.52152 1.8075-2.0434 2.304 1.4893 0.0928-1.0727 1.9263 0.06131 2.0532-0.6981 1.4 2.4032-0.0888 0.53876 2.2984-2.6199 6.2942-4.5158 12.936-7.8275 18.913-0.88072 0.89758-4.2123 5.96-4.2411 4.5164 0.87413-5.064 1.7536-10.202 1.6971-15.344-1.8676 0.78323-1.4767 4.3971-2.129 6.4508-0.11737 1.3736-2.3738-5.8545-1.833-1.3137 0.33824 2.1409 1.9526 4.173 0.86147 6.3329-0.62454 2.5006-1.2431 5.0081-2.1114 7.4375-0.44777-0.73495-0.8962-1.4726-1.3436-2.2059zm-4.5401-31.089c1.0608-0.0211 3.8138-0.23733 0.81201-0.46661-1.9148-0.27063-3.6174 1.4187-0.81201 0.46659zm-4.9233 21.563c-2.877-3.2244-8.1092-5.6715-9.8049-9.1893 3.1007 2.055-2.2296-3.4912 1.0361-1.202 1.552 2.4348 0.96733-1.7001-0.47813-1.6448 2.1029-0.016 1.8375-5.3797 3.8849-1.1023 2.1731 2.8693 4.6851 5.5814 6.6903 8.5322 0.46505 2.2663 1.0409 4.5147 1.3643 6.8065-0.98401-0.62104-1.8197-1.4391-2.6926-2.2002zm-5.8237-6.6529c-0.60658-1.2074 0.06661-2.0739-1.6267-1.8532 0.25317-2.4128-0.68422 2.6578 1.116 0.42697-1.5497 1.1029-1.0155 2.0776 0.9334 2.0193l0.08309-0.10613-0.50581-0.48696zm1.3647-0.42928c-1.4404-3.1926-1.8974 1.9772 0 0zm27.438 6.1773c2.1573-5.3171 3.6567-10.871 5.7531-16.207 1.8623 0.62478-0.17131 4.553 1.2194 2.6038 2.5768 3.2499-0.74857-4.1619 1.2983-2.0067 0.24545-1.1477-0.88292-2.715-0.66193-0.92564 0.0321-2.4542-4.6382-1.914-1.9711-3.3483 1.462 0.86169 1.8892 0.78635 1.898 0.0147 1.4098 1.3967 2.2105 3.7352 0.8377 5.9352 1.2412 0.57451 2.1555-0.79386 1.3808 1.2995 1.9423-0.73283 1.3834 0.6403-0.2088 0.354-0.95694-1.147 0.61738 5.0228-1.113 3.5173 1.3065-1.3681-4.0033-2.304-0.97654 0.51448 1.4668 1.598-1.1095 3.7114-2.046 5.0194-1.4994 0.88339-4.4779 3.5213-5.4101 3.2293zm7.2962-10.961c-0.71501-1.2637 1.2528-1.9868-1.0685-0.35167-0.56704 0.78664 0.9656 1.0865 1.0685 0.35167zm2.8639 3.7202c2.0406-1.6097 1.745-0.55571 0.27639 0.69108-0.72831 0.99-0.55865-0.40308-0.27639-0.69108zm-35.181-3.1211c-2.4407-1.4736-5.7742-9.0939-7.6041-6.4548-2.6812-0.69934-6.6501-2.9659-4.5988-5.9449 1.1504-0.57184 4.2999-0.96298 3.6167 1.5651 1.039 1.8217 0.52236 3.0847 1.9663 0.97884 2.1147-0.54855 5.1764-2.7019 5.7477-1.5161-0.9939 1.2003-3.5826 1.2841-4.5509 2.2495 3.1437-0.80582 2.8497 1.1054 5.5738 1.5008 1.076-1.8348 1.4626-0.48615 1.1442 0.21307 0.94281 1.5891-2.3054-1.3319-0.90483 1.8979 0.02517 1.8655 2.7421 7.9937 1.2054 7.1455-0.53635-0.54056-1.067-1.087-1.5955-1.635zm-8.6154-8.8049c-2.2936-0.72807 0.43049 1.9012 0 0zm48.606 9.2122c0.69932-1.3926 0.67059-5.116 0.95732-1.4122-0.0871 0.57638-0.40717 1.1588-0.95732 1.4122zm6.8478-1.3333c-1.086-1.9218 1.0925-2.8954 0.29597 0.33071l-0.19607-0.0971-0.0999-0.23358zm-10.74-7.1687c-2.6071-2.2112 3.5267 1.9916 0 0zm-35.663-1.4964c0.28718-1.8714-1.3954 1.3738-0.81208-1.2336 1.5654 0.44447 3.3227-2.9048 1.7381 0.1494-0.05888 0.48917-1.0652 3.1146-0.92599 1.0842zm33.586-1.1872c0.64574-0.68231-1.2143-0.82198 1.3381-1.633 2.1284-0.0483-3.2112 3.6189-1.3381 1.633zm8.5369 0.042c-1.2387-1.9435 0.83375-0.2794 0.48916 0.44741l-0.12092-0.0179zm-13.13-1.5512c-2.1797-1.3221-1.0191-1.3741-0.19833-0.67294-0.90246-1.3815-1.1646-1.9957 0.69749-1.4103-0.18825 2.6435 0.67413-1.5373 1.8612-0.76332 2.2284-0.1226-2.5342 1.4902 0.23885 1.7207-0.36401 1.2458-1.4071 2.0346-2.5992 1.1258zm2.7255-0.0691c0.12344-1.0294 4.28-4.1331 3.3794-1.5048-1.6051-0.89582-2.2939 2.8317-3.3794 1.5048zm-30.475-0.46246c-1.34-1.5112 3.9829 0.42848 0.47412 0.24923l-0.47411-0.2492zm38.018-1.9976c-0.36835-2.4856-0.28079-2.7311 0.71005-0.76803 1.3672-1.0501-0.84662 2.2148-0.71005 0.76803zm2.146 0.32713c0.77687-1.9511-1.2285-2.6854 1.0271-1.7474 1.3338 0.3134-0.74784 2.0436-1.0271 1.7474zm-5.1373-2.1792c-2.8673-1.8312 2.7311-0.6125 0 0zm3.5724-0.39687c-1.8799-1.0973 1.9193-2.6112 1.1124-1.0906 1.0454-0.32774-1.4482 2.7172-1.1124 1.0906zm-0.5517-2.0817c0.7763-1.0148-0.13666-2.1115 1.5033-0.84621-1.1283-2.3213 2.5985 0.11121-0.55029 0.75197l-0.67309 0.16283-0.27996-0.0686zm4.101-1.0272c-2.3609-1.6179-0.92104-1.5449 0.31041-3.1146-2.2938-4.0299 4.7109-0.0319 1.793 1.6983-0.0354 0.72744-1.5861 2.9088-2.1034 1.4164zm-16.268-4.1348c0.8092-1.5489 2.2569 0.79564 0 1e-5zm14.482-0.28092c-1.4936-1.2548 2.2182-0.0139 0 0zm-17.085-0.9421c0.51891-2.0672 0.82688-1.5865 0.52757-0.2211 1.3121-1.6524-0.4917 2.0487-0.52757 0.2211zm-7.4175-0.0565c1.5347-2.2603 1.0911 0.72475 0 1e-5zm6.5456 0.18879c-0.455-1.1776 0.50817-2.1295-0.69406-1.6833 1.3952-3.0871 1.6448 2.4853 0.69406 1.6833zm-8.1708-1.3157c1.4667-2.5224 2.901 1.067 0 0zm9.3531-1.2719c-2.7694-0.56649 1.8136-0.69438 0 0z" fill="#cbe09b"/><path d="m82.342 156.41c1.897-2.5005-2.4021-1.6749-2.9654-2.2206 0.57093 3.0856-6.0655-2.1954-3.2325-0.72318-0.51138-3.5677-4.902-4.1795-6.9942-4.2359-1.4025 1.1739-1.9364 4.8004-1.501 0.96179 1.5583-1.3908-1.2964 0.11776-0.69628-1.59-1.9689-0.35442-0.3658 5.6329-1.3519 1.4755-0.05582-2.0714-2.9536-2.3874-0.09338-3.713-0.0095-1.5062-1.5576-4.135 0.75409-4.3747 0.46938-0.83686-2.592-0.71751-2.4867-3.1325-0.92852-1.4041 1.3524-1.4081 0.19808-2.8604-1.6241-0.11735 1.7773-2.0415 1.9061-2.0802 4.9711 4.7901 11.133 8.7494 14.163 15.176 0.22165 1.406 5.1629 7.3096 2.2998 7.3171zm-13.471-15.405c1.2871-1.4446-4.1903-2.7013-1.2676-0.94303-2.6933-0.17388-1.1509 0.31697-0.13145 0.93064-2.5332 0.0232 1.3538 1.6884 1.3991 0.0124zm19.05 14.87c-1.74-2.9122 0.95666-8.5947 3.6469-8.9158-0.35297-3.4523 4.6952-4.7038 4.5965-6.2913 2.3618-1.8402 4.5363-4.3049 7.2551-6.4616 2.8395-2.07 2.2443-2.5291 1.9154-0.0823-0.39581 0.20701 0.41355 1.9322-1.0855 0.86268-2.0069 0.77703 2.2467 3.0231-0.945 1.1804-3.3307-1.2798-1.9766 5.2162-4.146 3.755-0.25842-3.0346-0.56014 2.2876-2.44 1.4139 0.99249 1.1732 2.5604-0.9284 1.3557 1.675 1.5259 1.2143 0.54864-2.0531 1.777 0.50308 0.61949 0.5759 2.2026-1.2507 2.5039-0.44675 1.1304-2.0567-4.1838-2.2808-0.99116-4.0225 0.82528-2.9481 0.79997-1.3613 0.85822 0.3351 0.26361-0.20501 1.4836-1.6126 2.4774-0.11492 0.94745-0.0898-1.9658-1.6882 0.66682-0.84154-0.0335-2.2548 0.57467-3.0759 1.0617-3.1535-0.86416-2.6694 0.3573-0.0609 1.0554 0.074 3.177 0.82223 0.0135-0.76845 2.2161-1.442 1.7802 0.52743 1.8417 0.57335 2.5151 2.2076 3.322-0.63964 2.5628-1.0626 1.6117 0.94184 0.58966 1.0493-2.5156 2.0717-0.88324 2.4034-0.01 0.52701 3.2774-0.93729 4.6915-1.787-0.049 1.0953-4.0477 1.4497-2.6374 3.769-0.98854-0.62518-4.3882 2.2699-6.3104 2.3963 1.9806 0.4132-1.4855 0.0397-0.51165-0.59235-2.0117-0.63658-1.1785 1.5474-2.7281 3.3678 1.0178 3.4577-0.76286 5.6492-3.4582 3.4791-3.4003 0.95499-3.1213 3.3059-0.12344 3.2938-0.92773 1.2087-3.1898-0.0728-3.7565 2.0661-1.1846-1.0236-3.5026-4.2332-2.7537-0.73451-2.0843 2.2297-4.8763-0.36374-6.5211-0.0256 0.13903 0.6372 0.0535 1.774-0.91314 1.1875zm5.8547-0.85042c0.78887-1.7336-1.9485 0.79412 0 0zm15.062-14.373c-0.24299-1.4691-2.5369 2.2427 0 0zm-1.5359-2.3214c-1.9-3.0215-0.68101 1.8305 0 0zm-36.769 13.975c-2.9028-0.97818 1.2859-2.8486 1.7628-1.5398 2.3362-0.99877 2.1158 1.7468 0.07522 1.0642-1.1874 0.8012-0.73494-0.22732-1.838 0.47542zm11.587-5.5572c-3.279-3.6434-1.9348-8.4763-1.2414-12.786 0.0078-2.3692 2.0973-7.4281 0.47634-8.293-1.3793 4.3364-1.9381 8.8927-2.9853 13.318-2.1269-5.3741-3.697-10.978-5.464-16.486 2.1656 0.13318 6.207 1.5862 5.4525-0.98543 0.97728-0.85949 6.305-1.6322 3.362-1.803 1.1173-1.5482 6.966-2.7729 4.4147-4.5698 2.0202-0.46009-1.7483-1.958-1.4921-2.9041-1.9709-1.9338-6.3386 1.6754-6.6683-0.0334-2.1127-1.076 0.10892 1.5083-1.8498-0.10543-0.51962-0.85016-1.708-0.6285 0.36535-1.7951 1.4411-0.43064 4.7704-1.8428 5.5706-1.6737 0.07644 1.9165 2.2667-2.4481 0.9676 0.9618 1.3557-2.3901 0.77356-1.4101 1.8705-0.0101 1.8065-1.0294 0.42957 1.3919 2.2002-0.47686 1.9565-1.774 3.2257 0.0826 5.0744-0.93782 3.9045-2.2877-2.7792 2.2794 0.8746 1.531 1.925-1.6495 0.1715-0.0849 0.44708 1.7019 0.52445 0.51656 0.69585-1.8384 1.516-0.59745 1.6312-2.64 1.0188-0.25517 0.72339 1.1106 1.2128 0.48523 1.0985 4.7667-2.043 3.2688-0.57303 1.1084-3.7513-1.1658-2.0171 0.85621 2.2186-0.17288 3.0567-0.12941 5.3086-0.19785-2.1986 1.3156 4.0991-1.4412 0.66146 1.0407 3.1207-0.67935 0.94053 0.27476 0.92604 1.0605-0.53789 2.0844-3.7675 2.2353-2.0878-0.49276-1.4288 1.0898-4.3331-1.0238-2.1482 1.4275 1.697 0.11663 0.09885 1.5323 3.0622 1.0343 0.87437-0.11334 1.0024 1.5823 2.4968 0.62013-3.0985 6.774-5.0309 14.192-8.5839 20.819-1.2529 1.0112-4.8682 2.7937-3.3099-0.60733-0.37222-2.9653 2.5047-9.1338-0.02514-10.33-0.8929 2.0484-0.95817 9.803-2.705 3.7364-2.1262 1.1538 2.479 6.0933 0.1094 8.7243-0.7751 1.0998-1.0004 8.3874-2.5504 5.0523-0.23611-0.39277-0.47222-0.78553-0.70834-1.1783zm12.629-14.744c0.84029-0.70305-0.22952-3.0043-0.25014-2.2025-3.2993-0.0996-1.0212 2.3828 0.25014 2.2025zm-19.197-8.2428c1.0663-1.1303-2.1625 0.21617 0 0zm4.6394-1.8886c-1.4711-1.5477-2.3209 1.2343 0 0zm11.236-12.503c-0.97642-1.3422-1.2366 2.9888 0 0zm-30.14 38.117c3.3204-1.8342 1.8495 0.12926 0 0zm3.0648-1.3948c-0.57531-1.8768 2.3731 1.0794 0 0zm22.932-1.2788c-0.13087-2.1027 1.1315-0.59552 1.708-0.81591-0.78079 0.66078-2.5492 4.0184-1.708 0.81591zm-26.074-1.8987c-0.01387-1.8049 1.776-0.59724 0 0zm1.3656-0.32711c2.2572-1.5372 1.5501-0.36561-0.15984 0.4139zm10.993-4.4338c-2.0091-1.9926-6.3851-5.2681-7.1448-6.3873 1.6897 1.5562 4.7612 3.1298 3.048-0.18737-0.04701-2.45-3.6759-2.1765-3.6011-4.2462-2.1268-2.0472 0.41813-6.1883 2.1337-2.1755 2.4244 3.5521 6.4268 6.3461 6.7767 10.939-0.0964 1.7862 2.4756 6.0891-1.2126 2.0571zm-2.153-7.1722c-0.44984-2.3356-4.1725-1.4743-0.62515-0.85422-2.5485 0.28077-0.16375 0.95711 0.62515 0.85422zm-2.7772-2.732c-1.8814-0.8809 0.81919 2.382 0 0zm27.994 6.2033c1.8509-2.7788 1.7593-9.8489 4.7971-10.174-0.48648 0.5795 2.2818 4.6714 1.8211 5.5494-0.40378 3.3392-4.5715 5.1223-7.2639 7.0171-0.78376 0.74041 0.66126-2.0941 0.6457-2.3925zm17.994 2.1877c1.7462-0.31401 0.65838-3.022 3.0241-2.1802 3.7125-3.4639-1.1831 3.9366-3.0241 2.1802zm-2.4008-1.9029c-0.86602-0.76368 3.9446 0.39679 0.66469 0.38369l-0.42317-0.11587-0.24152-0.2678zm7.38-0.75382c-0.97735-1.8826 1.9374 0.51785 0 0zm-2.376-0.14206c0.92304-2.063 2.879-2.5237 0.6562-0.30135 0.0345 0.32216-0.4451 0.63744-0.6562 0.30135zm-53.566-1.6436c-1.8854-0.21084-1.0462-0.71633-2.3413-2.5069 0.54119 0.44194 5.9056 5.2187 2.3413 2.5069zm7.3687-5.7018c-2.3885-1.748-3.2466-4.767-5.2871-6.1834-3.0242-2.0054 2.942-0.46975-0.4582-1.7714 2.0212-0.82436 2.8635 0.45286 3.2526 1.1757 1.009-3.1314 0.14657 2.8194 2.0072-0.16914 0.51064 2.2374 2.82 7.6143 1.7325 8.1534l-0.56684-0.52579zm6.8352-9.5173c-1.5932-1.48 5.479-0.30473 0.99219-0.0197zm23.019-2.9145c-2.4164-2.6001 3.8901 0.0932-3e-5 0zm4.7472-1.9455c0.81088-2.5036 1.382 1.424 0 0zm-23.466-5.3773c-2.1817-2.8089 2.5592 1.19 0 0zm32.669-0.43674c1.737-0.75472-3.3655-1.1507-0.19791-1.6299-0.61673-1.9764 1.9673 0.95051 1.1972-1.7266-2.4243 0.29665 0.21754-3.2521 0.85989 0.19301 0.69958 0.16465-1.1969 3.9604-1.8592 3.1635zm-35.271-1.0468c3.3226-1.3323 0.88675 0.2785 0 0z" fill="#c7de93"/></g></g></svg>
