<?xml version="1.0" encoding="UTF-8"?>
<svg width="69.047mm" height="150.49mm" version="1.1" viewBox="0 0 69.047 150.49" xml:space="preserve" xmlns="http://www.w3.org/2000/svg"><g transform="translate(-117.65 -98.699)"><g transform="translate(83.025,-1.35)" stroke-width=".26458"><path d="m77.375 250.23c-1.5213-11.341-2.4385-22.79-2.4555-34.235 0.61726 11.533 1.5923 23.056 2.6309 34.545l-0.1754-0.31016zm-11.527-0.57941c1.905-10.924 2.9101-21.972 3.9744-32.994-0.2705 11.174-1.6114 22.432-3.914 33.385l-0.06036-0.39062zm2.5003-33.508c-3.0999-1.7304-7.0221-1.4006-8.204-2.8601-2.3753-1.2723-6.4023-0.86425-8.0008-4.7676-1.8797 2.2053-3.634-3.1611-5.8446-4.0785-3.8458-0.52991 5.2092-6.547-1.9052-5.1272 2.0234-2.967 0.30036-3.2202-1.8256-5.4792-2.4714-2.1378-1.5837-5.8782-4.0904-8.311-0.36949-2.1435-1.5789-3.3877-1.0827-4.37 0.17375-0.56642-0.91109-5.2197-0.78436-3.9937 4.0018-1.5593-2.3588-3.1792 0.27541-5.9918-0.37032-1.8017-3.2128-2.0045-1.9251-3.617-0.39703-2.0017 2.8433 0.0404 0.06206-2.4829 0.24394-1.5445-0.93858-4.1206 1.7207-2.6406-0.97232-1.8211 1.0729-1.8232-1.7555-3.8454-1.2526-3.3876 9.113-1.9961 3.4928-6.5281-2.8478-3.6465-2.211-5.8244-0.52631-7.9556 2.7497 1.2284 1.7817-1.9365 0.88213-1.7198-1.5035-4.7174 4.5082-3.018 1.9286-7.5007 2.9012 2.7711 4.6017-4.7925 1.4011-0.60009-2.423 0.36784-1.6889-3.3209-2.4266-6.1397 0.5775-4.2952 4.5545 1.4687 3.093-3.0235 2.4122-4.2376 1.1305-9.0625 5.5934-12.604 1.2995-3.2565 3.4095-1.3639 4.0032-1.86-1.2213-2.5158 2.8398 1.5608 0.45382-1.2774 2.5535-1.673 3.1764-5.0813 6.1635-4.7046 2.3663 0.58178 3.3476-4.512 7.7814-4.2948 4.1624-0.37473 10.908-0.94506 12.953 1.773 2.4578 3.7685 5.0481 3.686 5.2459 7.6885 1.609 2.1804-0.04951 5.7798 1.9825 6.5269 2.7425-3.7485 0.77854 1.8878 3.3577 2.0274 1.7669-0.69978 0.62406 5.2984 3.2989 6.3461 3.1311 3.4378 1.8953 4.3124 3.1034 7.9748-1.5061-0.13314-0.2483 4.4443-1.8171 1.5323 0.63195-1.2065 1.0632-5.3208-0.32052-4.5491-1.7509 2.9703-0.25448 5.9741 0.05468 9.4219 1.0078-2.3512 1.898 0.45323 2.6277-0.27288 1.1588 2.9549 4.1882 5.0173 3.7617 7.7311-1.7148 4.4553 1.9634 7.224 2.5997 11.709-0.63252 3.9978-2.5893 8.7098-1.6038 12.62 0.57722 2.3085-3.231 3.5242-1.5212 6.5246-0.8276 2.0993-4.0976 0.11405-0.80742 2.6564 1.7243-2.2217-0.6574 3.8147-0.42507 4.6709-1.336 0.43801 2.51 0.95923-0.79408 2.9883-1.8395 4.5561-2.3893 8.7928-4.0859 13.678-0.4909 2.4227-2.155 2.1989-2.8753 3.8749-2.5587 1.9964-5.5874 3.3822-8.3456 4.7202-1.9554 1.4924-4.9196 3.0175-7.9195 4.0793-1.5184-2.069-1.2559-11.059 1.1137-15 0.55166-3.5316 5.8676-8.7502 4.1246-10.92-3.1021 0.90896-6.6966 12.123-5.7824 3.6586-0.18531-12.579 3.5529-24.738 5.2677-37.098-2.9079 0.91854-2.4346 10.79-4.683 12.608-2.4565-5.6804-2.7893-12.044-4.6499-17.837-0.74547 5.0749 1.5422 11.24 2.1127 16.696 0.04141 3.0239 2.1827 6.0681 0.87341 8.9943-0.97862 2.8554-1.5273 6.0727-2.8889 8.6341-2.9281-8.4309-6.3996-16.67-9.54-25.01-4.4342-0.40689 1.8086 8.371 1.9598 11.723 2.2573 7.6702 5.5668 15.072 7.186 22.899 0.0426 2.6394 0.55116 12.165-2.0682 5.3637-3.4074-5.5717-6.6391-11.256-9.9152-16.894-3.8388 2.2386 3.7083 8.7874 4.6213 12.559 3.265 6.6625 8.2951 13.712 6.7609 21.471-0.43672 0.15816-1.0495 0.76266-1.4417 0.20518zm-29.223-58.277c-1.9476 0.44812 1.1498-2.4864-1.7355-1.0831 1.1905-0.35694-0.55272 3.3474 1.7355 1.0831zm4.1672-5.9664c2.4678-1.1342 1.2221-1.8547 0.46449-2.7136 0.01013-1.5858-1.604-1.3305-0.4262-0.22936-1.7388 0.58178 0.49669 2.5996-0.79141 3.1414 0.24616-0.0263 0.62237 0.0902 0.75312-0.19848zm-2.1653-0.88824c-2.0492 0.27776 1.9667-2.1955-0.94356-1.03-3.1548 0.0261-1.6152 1.5276 0.94356 1.03zm-1.8831-2.0665c-1.0951-0.99621-1.5098 1.9404 0 0zm-0.43014-3.0203c-0.98803-1.5346-1.0715 1.784 0 0zm1.1886-5.5343c-1.499-0.74746 0.25286 2.3549 0 0zm52.998-8.9905c-1.2452-0.80087 0.22462 2.2731 1e-6 3.8e-4zm-42.763-12.779c-1.0303-0.97477-0.4085 1.5421 0 0zm0-0.91873c-1.6475-1.565-2.3339-0.91091 0 0zm0-0.80937c1.7519-1.056-1.7315-0.76891 0 0zm-13.548 27.741c-0.54012-3.7772 1.0975-4.6412 0.1793-0.23141l-0.0923 0.26696zm1.0134-2.3567c0.03036-3.729 1.2411 2.1835 0 0zm49.31-29.87c-0.40164-3.5609 1.2978 1.9099 0 0zm-5.1575-7.934c0.66557-1.0006 1.4067 0.98296 0 0zm0.8599-0.55121c-0.96543-1.9187 2.1418 1.8882 0 0z" fill="#d6e6ca"/><path d="m65.856 249.57c0.41709-2.7694 1.4009-8.6841 1.7628-9.366-0.52058 3.0298-0.84996 6.8466-1.7628 9.366zm11.171-2.6238c0.17417-2.0069 0.10688 2.2641 0 0zm-0.59246-4.8592c-0.63662-6.9524 0.55776 0.19966 0.44807 3.3052-0.26175-1.084-0.32501-2.2007-0.44807-3.3052zm-8.6064-4.7981c0.52212-3.9479 1.0095-10.7 1.5723-13.097-0.39937 4.3875-0.86678 11.362-1.6681 14.271zm7.9387-2.7366c-0.29576-3.4407 0.11493-4.2545 0.24371-0.47919 0.17889 2.5901 0.12805 6.3391-0.24371 0.47919zm-0.30513-5.9946c0.14338-4.0363 0.13437 4.045 0 0zm-0.26109-4.2333c0.14018-4.5736 0.13115 4.5832 0 0zm-0.26311-5.1594c0.26281-4.4593 0.06225 4.5787 0 0zm-5.3063 0.39688c0.15107-2.9626 0.14276 2.9694 0 0zm-1.2691-3.7028c-3.4938-1.0514-6.5968-1.9324-8.0813-2.6273-0.5398-2.5866-4.9958 0.27872-6.2196-2.7015-1.6229-3.339-3.3923 0.23422-4.353-3.1578-3.0049-0.77758-4.1154-5.3914-2.3292-7.8733-3.9334-1.4286 2.0183-4.0966-2.1732-4.158-0.19872-2.7203-0.0674-3.6407-1.149-1.7204 0.52672-2.102-1.2765-7.3488-0.72377-2.3189-1.8875-2.8004-2.2126-0.42764-2.901-3.0831-4.05-2.6362 0.05106-4.1598 1.2768-5.6149-3.1575 1.4004-4.9886 1.4374-1.36-1.0864-4.8902 1.2211 2.8822-2.5109-0.88564-0.96596-2.0452-0.28328 2.088-1.2722 0.78613-2.02 2.5557-0.23203 7.1739-4.035 3.8926-4.1876-1.7204 2.7604-2.6556 0.0511-0.52221-1.3763-3.1287-0.29061 0.44515-1.8876 0.05464-4.2054-0.643-1.6651 3.3719-5.3728-0.38038-4.6965-2.297 0.2484-2.3974 0.74015-3.7693 1.6019-0.20647-2.3685-6.0305-1.912-2.2244-2.1572 2.8018-0.52738 6.5823 0.29234 5.4475-3.2421-0.3134-2.9474-0.91127-1.976-1.5334-5.6952-2.8925-2.4923 2.7259-1.0304 4.4259-3.4197 1.3395-2.7354-1.8496-3.159-1.1008-4.4691-1.3708-1.1079 0.46177 1.1663-1.71 0.0166-2.1083 1.6472 0.69968-2.3594-0.6678-3.2516 0.0134-4.1021 0.56672-3.5045 2.9402-4.5134-3.4605-2.9747 1.6329-3.3991 0.32068-7.1991-0.45853 3.7019-7.733-0.34312-3.8504-3.0318 1.2484-1.7294-3.7192-0.35289 0.75744-2.0072 1.1212 1.0728 1.8925-2.2016 4.0781-0.25949-1.0529-2.3832 0.67573-3.4854 1.3414-1.139 4.4992 2.6252-3.1551-5.7707 1.0988-3.4779 1.6992-1.6663-1.949-1.5898-0.02546-2.5737 2.3589 0.6742 0.03662 5.5559 1.6923 1.4844 1.2163 0.47579-0.79928 5.7754 0.35999 3.7476 1.252-2.4976 3.4302-3.6396 3.0005-4.925 1.8006-1.5621 0.58458-3.6062-0.07214-1.4058-2.0805 2.5566 0.13631-5.7124 2.2439-3.6264-0.05773-2.5583-2.0222-2.3614-1.3137-5.4228-0.70976-1.0309 2.1138-3.6959 4.2411-3.9388 2.7215 2.0944 3.2484-5.7607 5.3023-0.85851 1.7323 1.5481-1.3999-3.5148 1.5655-3.012 2.0558-2.0394 1.4219 2.1874 2.227 1.3169 0.46164-1.3286 2.3648 1.9142 4.6856-0.82613 1.6244 0.37171 2.709 0.91817 1.3956 2.048-1.0019 0.31235-0.70628 3.2995 0.42844 1.6972 0.58342-0.92567 0.31484 8.515 3.7107 4.5442 1.7586 1.0587 0.52516-3.6408 2.3056-3.5487 2.9066-1.8849 0.6644 6.485 3.6179 3.9634-0.85897 0.86435 0.43133 2.1948-0.62166 2.714 0.97241 0.83493 2.1759 0.58484 2.8091 3.8797 1.2944 1.0678 1.3061 4.7867 1.5011 2.3057 0.73616 1.8819 2.4247 3.0072 0.71597 2.9428-0.4892 2.4097 2.8859-1.2805 1.7507 1.4264-0.5074 0.52906 0.39294 5.6357 1.4012 7.1751 0.61736 3.7148 1.8964 3.9796 2.2141 8.5459-1.3316 3.2004 6.7204 2.5964 3.688 3.2342-0.60983 3.6384 6.0859 1.4584 2.1088 5.3518-0.73882 1.92 0.51735 2.134 0.84175 4.2372 3.2422 1.0403-0.52293 4.5951-1.098 4.7913-1.3716 1.615 1.6901 2.7406 2.4391 3.4052 0.92344 1.7232 0.23212 4.5619-0.28873 3.4016 0.11413 1.3326 0.28338 3.7366-0.93853 6.0786-0.8641 2.2519-0.71176 5.117-1.6879 6.5626 2.6174 2.3083-2.9194 0.94781 0.03144 4.0996 0.2885 3.4122-0.71805 3.171-0.46308 6.4118-1.0638 1.2597-1.4293 4.6481-2.6013 5.9358-0.933 3.7183-0.13784 4.4424-1.5059 7.6705-1.3079 3.9203-5.5416 6.4791-9.4502 8.0184-1.0406-0.55127-5.7167 4.9661-8.4628 3.2722-2.7784 5.0086-1.9023-5.8931-1.8795-7.8726 1.3647-5.6 4.701-10.587 6.9209-15.815-3.5161-2.3075-6.0073 9.3992-6.9296 5.9038 0.15408-8.2236 0.95042-16.401 2.7274-24.441 0.69087-5.1162 2.4692-10.187 2.4818-15.327-3.0063 2.2132-2.3033 10.932-4.6609 12.582-2.1658-5.4678-2.8554-11.387-4.1882-17.052-2.3407 1.5107 0.99985 9.131 1.007 12.844 0.50714 3.6843 1.6159 7.3773 1.9473 11.029-1.0964 3.2685-1.829 6.7052-3.1566 9.8545-3.0745-8.3688-6.457-16.636-9.5783-24.978-4.2567 0.6272 1.3534 7.5529 1.5639 10.987 2.2782 7.9214 5.7933 15.51 7.3712 23.609 0.26593 3.4517 0.65794 11.743-2.2529 4.7718-3.425-5.3976-6.4015-11.079-9.7274-16.519-3.5931 3.5768 3.4903 8.5046 4.4501 12.458 3.2317 6.7906 8.5296 13.754 7.0214 21.694-0.17075 0.59082-1.0194 0.28437-1.3518 0.18387zm-22.094-26.063c-1.7107-2.1398-2.2912 2.5235 0 0zm6.8792-28.528c-2.1784-1.5178-1.6627-7.0095-5.5214-4.7171-3.3007-2.831-2.5205 0.40903 0.41292 0.94325-1.9981 1.3566 3.9443-0.56094 2.5304 2.87 1.2274 0.40186 0.84613 3.3445 2.5782 0.90385zm0.90227 0.64079c1.0994-2.1129-3.0276-3.0812-0.24081-0.32987-1.9752-0.0835-0.53056 1.5465 0.24081 0.32987zm-7.1143-6.8433c2.3445-3.153-3.2857-0.76256-0.45929 0.17684zm7.7871-1.2676c1.3962-2.659-2.5535 1.8319 0 0zm45.989-0.69614c-1.0145-1.4372-0.72022 1.167 0 0zm-0.75564-6.182c0.92459-2.76-1.6017 0.28135 0 0zm-54.867-3.2716c-0.7817-2.3348-0.2771 2.6267 0 0zm0.72897-0.98997c1.2857-1.9598-1.1658-2.5148-1.8423 0.31965 2.2552-1.4303 1.2782 1.8526 1.8423-0.31965zm2.3735-10.359c2.0347-1.9628 1.1012-3.0576-0.44752-0.0162-0.21892 0.31654 1.1341 0.28751 0.44752 0.0162zm0.72199-2.1256c-1.8265-2.5999-1.3261 0.5341 0 0zm0.07359-1.3962c0.01271-2.137-1.3634 0.34117 0.13044 0.23069zm32.068-10.816c2.6634-1.1056 3.2087-3.101 0.92335-1.7766-0.45695-1.3331-3.2989 2.7269-0.92335 1.7766zm-24.131-5.4901c-1.6976-3.0704 0.05514 1.5117 0 0zm25.933-0.0661c-0.47232-1.4109-2.3542 1.4714 0 0zm-26.27-4.6303c-0.72164-2.3482-1.3075 2.4226 0 0zm15.986-1.3512c1.5647-1.2859-2.6309 0.52333 0 0zm-4.2778-1.882c-1.87-2.7609 0.23839 1.5385 0 0zm1.8521-0.49294c-0.75643-2.637-2.6722 0.70013 0 0zm-27.207 89.493c-2.5815-2.3698 2.7867-1.6318 0 0zm-1.7617-0.85373c-0.37695-2.2662 0.99937-2.8726 0 0zm-4.3031-18.37c0.66556-1.0006 1.4067 0.98294 0 0zm-0.13229-5.2634c1.1088-1.3817 2.1175 0.0664 0 0zm3.175-7.5689c0.56213-1.2841 0.82681 1.3727 0 0zm62.522-1.4256c0.11706-2.5412 2.1676 0.82831 0 0zm-1.9349-1.6226c-0.46819-3.652 1.9892 2.6301 0 0zm-62.836-10.508c2.7944-1.623-0.15297-5.4327 2.9664-1.7058 1.3295 1.1886-2.0701 1.6488-1.6125 1.4792 0.59413-3.2549-1.8279 2.174-1.3539 0.22654zm2.8205-4.7125c-0.80864-3.0257 3.1341 0.11161 0.3019 0.43102l-0.3019-0.43101zm2.0819-5.4012c-0.79271-1.4074 2.0919 0.7301 0 0zm0.5933-12.433c0.85181-2.3352 0.37885 1.6026 0 0zm2.0449 0.11968c0.56212-1.2841 0.82682 1.3727 0 0zm-0.3577-1.3738c3.1767-2.7136-1.1527 1.5914 0 0zm1.6848-1.0125c1.8534-1.0902-0.14752 1.2751 0 0zm-2.3854-0.25953c1.225-1.2176 1.8963 0.58312 0 0zm2.1167-0.66146c0.22274-1.0709-1.8506-3.3964-0.4055-3.8829 0.11821 1.8679 2.6178 2.0142 0.4055 3.8829zm31.568-14.009c-2.757-1.6542 2.1326-3.1909 0.89811-1.5104-2.2628 0.29196 1.5675 2.7532-0.89811 1.5104zm0.71253-2.9176c0.08583-2.1264 3.1594-0.19615 0 0z" fill="#c6dcb6"/><path d="m76.498 242.19c0.17417-2.0069 0.10688 2.2641 0 0zm-0.25924-2.7781c0.13514-2.3208 0.13514 2.3207 0 0zm-0.26458-3.175c0.13514-2.3208 0.13514 2.3207 0 0zm-0.25466-3.5719c0.08458-3.0247 0.27761 3.0086 0 0zm-7.159-1.3229c0.17417-2.0069 0.10688 2.2641 0 0zm6.8917-2.7781c0.15107-2.9626 0.14276 2.9694 0 0zm-6.6271 0.13229c0.17417-2.0069 0.10688 2.2641 0 0zm0.26992-2.5135c0.13514-2.3207 0.13514 2.3207 0 0zm6.1002-1.7198c0.07026-3.5328 0.2755 3.4848 0 0zm-5.8356-1.1906c0.13514-2.3207 0.13514 2.3207 0 0zm0.25924-3.8364c0.17417-2.007 0.10688 2.2641 0 0zm5.3006-0.52917c0.16478-2.5035 0.10005 2.8448 0 0zm-6.6903-3.4175c0.4153-2.6659-4.8227-1.3256-3.0427-0.56934-2.3083-0.61534-3.1058-2.4937-4.2099-0.96987-1.163-1.3668-1.8461-3.7092-3.681-2.8624-2.1106-1.5542-0.23884 3.3492-2.643-0.33524-2.0922-1.2208-2.1365-3.1846-3.751-1.4062-0.58276-2.6505-6.5092-4.472-3.9827-8.2463 3.072-1.3883-2.6619-2.8566-0.12279-4.287 1.7582-2.0749-2.9489-0.84351-0.65297-2.5579-1.0777-1.3472-3.9649-4.8097 0.23177-4.208-1.5636-1.0777-5.3449-1.4275-7.1438-3.0368-1.4862-3.6936 5.213-4.1194 5.0533-5.9463-1.8905-1.1299 0.89238-2.3167-2.8962-2.5292 2.5348-0.46812 6.5248-3.073 3.6269-4.4749-1.9587-0.86405-0.27572-2.7705-1.3261-3.4931 0.49033-2.5135 2.6356-6.6378-0.16395-8.7934-2.4224-2.4481 0.05586-2.4903 0.48807-3.2187-1.3562-0.12004 1.1009-3.5357-2.1288-2.0524-0.32224-2.2024-0.4793-2.6872 1.2031-3.143-0.59464-0.51385 5.2818-3.1518 3.7578-4.5109 1.1455-1.6511-0.38897-0.51703 1.9455-1.1876-1.7676-0.36841 1.9305-2.8064 1.7143-0.40599 0.79254-2.1063 3.5584-6.7882-1.403-5.4077-3.4953 4.2145 1.4891-2.6131-0.07942-3.3313-0.65875-1.1444-4.2796-0.4837-1.4309-0.96826 2.806 0.81978 4.7259-4.6833 5.9279-3.2159 3.4103-0.86522-4.1811-1.5065-1.9826-1.8957-0.78782-1.9736 1.1768-0.16249 1.6701-1.0474 0.18222-2.9864 1.31-1.4793 0.04175-3.7764-2.5968-2.4239-0.5536 0.40791-0.79298 2.5043-1.0635-0.46729-5.2608-3.7804-2.5998-3.4968-2.8158-3.85 3.2567 0.59604 1.7044-0.93432 0.14625-1.1527 0.45365-3.0477 1.7842-3.3734 0.9045-3.3181 5.2883-4.6924 4.1929-8.3751-0.14733-2.8271 1.3452-3.2228 2.225-4.9475 4.253-0.21657-2.3964-1.1751 1.1607-1.6155 0.73716-0.3434-1.6861-0.61364 0.09331-1.9349 0.67193-0.30488 1.9445-0.0965 2.1109 0.89452-0.18872-3.9489 1.6603-0.26354 3.4553 0.073 1.1025 4.3427-0.01084-1.5249-0.31365-1.2509 1.3678-0.50342-0.62811-2.5143-0.83362-1.1172 1.1965-4.3587 4.1159 5.5085 3.8854 1.0835-0.60173 3.4274 1.7284-0.0922 1.7469 1.107-0.83571 1.1015-0.86192 3.823 0.70944 1.5666 0.03634 1.7523 1.5548-2.2397 2.0082-0.92371 1.4936-1.2546-0.1467 6.2357 3.379 4.2539 4.1785-0.21537 1.6575-3.9428 3.5554-4.2804 2.7934-1.1065-0.774 1.2459 0.72127 3.0936 0.29662 1.3247-1.1864 1.9184 0.28392 3.0872 2.1236 1.1996-2.9007 2.0361-1.9676 3.8009 0.14739 5.7165 5.6717-5.5288 6.1725-0.17261 0.04886 2.2172 0.55541 4.8658 0.69008 5.6705-0.69431 4.5499 5.9395 1.154 3.7141 6.1532 0.56216 2.3178-2.0491 5.3678 0.79767 1.999 0.50786 3.2171-1.6591 0.41938-0.24538 3.6971 1.2789-0.27888-0.0085 3.1684 2.3605 2.8875 1.418 1.7572-0.49834 7.2411 2.2128 6.8978 3.2465 0.29875 5.1464 3.6571 1.7094 4.7787 1.54 2.0814 3.8511 2.9087 2.0848 6.2756-3.1323 0.7925-0.81618 3.5249-0.57076 5.6998 2.5698-1.0894 4.7634 0.98213 2.3521 2.1044 0.1729 0.3475-1.6794 3.5764 0.27995 4.2116-0.56515 1.6492-1.5719 6.2537-2.4829 9.4226 0.97385 2.2224-1.0948 1.0319-0.08698 4.5414-0.26702 2.887-2.3645 3.4338-1.0464 6.1942 0.79768 2.1861-0.98847 3.5338-1.79 5.6575-0.53853 1.7442-1.446 5.2704-1.649 7.3244 0.28739 2.533-4.1881 6.3315-7.2057 7.4616-1.8488-1.4219-1.3547 1.5651-3.7437 1.6048-2.6042 1.8312-7.3827 3.7847-8.4164 4.1989-0.23725-4.7777-1.0286-9.8386 1.5704-14.166 0.56331-3.6738 5.9233-8.6932 4.1962-11.312-3.0386 0.82404-6.701 11.69-5.7535 3.8448-0.18964-12.043 3.2321-23.701 4.9869-35.511 0.14312-5.5135-2.7406 3.8263-2.7933 5.4132-0.69736 2.7309-1.3448 8.8095-2.7336 2.4903-2.2143-4.1242-1.3758-12.223-4.2007-14.269 0.69277 7.8871 2.4321 15.722 3.8988 23.526-1.0429 3.4068-2.0873 7.019-3.0508 10.299-3.1536-8.396-6.6751-16.678-9.5944-25.168-5.0929-0.13357 1.1922 7.2148 1.0364 10.173 2.5804 7.8857 5.4731 15.689 7.7149 23.674 0.0945 2.7566 0.92675 12.813-1.8746 6.1354-3.3931-5.507-6.5509-11.157-9.7062-16.794-4.4019 1.3529 2.3802 7.8917 3.4168 11.076 3.3088 6.8868 8.6683 13.751 7.7997 21.801-0.13589 0.13204-1.6663 1.8034-1.5778 0.84323zm-4.3574-1.7286c-2.4009-1.6834-1.3622 0.28563 0 0zm-18.64-34.343c0.81202-3.3249-2.1058-0.056 0 0zm10.033-11.322c-1.4923-2.6932-1.2839 0.50671 0 0zm-2.8976-2.8658c0.28968-3.9674-1.0691 2.0925 0 0zm3.0216-0.92895c-0.60332-1.9359-0.38805 2.7665 0 0zm-2.3356-0.82444c1.5294-1.1056 3.936-4.537 1.0467-2.9231 1.2714-2.2432-3.2127-1.645-2.3711-3.884-1.8651-1.3939-3.3798-2.7585-0.33388-2.9453-2.1566-1.7334-2.0823 0.8261-2.7357 1.9285-1.8161-0.56657-0.4223-5.5362-2.7588-3.5537 0.21404 0.97608-2.8476 5.5853-0.04866 4.4222 0.92871 3.1116 4.9329-0.0425 4.7327 4.1209 1.1931 0.76571 0.34588 3.9171 2.4686 2.8345zm-0.89452-0.66959c-0.52603-1.5059 1.6444 0.68522 0 0zm-6.4188-1.0502c0.19902-0.94574-2.6425 1.1863 0 0zm9.6243-7.8641c-0.38592-2.6042-3.9824 1.7088 0 0zm-2.7452-12.244c-1.3369-1.4122-0.8073 0.81069 0 0zm2.3251-0.84821c-0.37865-1.8943-0.45984 2.2463 0 0zm-4.7179-0.21729c0.98217-1.956-2.9326 0.68406 0 0zm3.7458-0.63573c-0.75175-3.7074-0.62736 2.0054 0 0zm38.879-2.492c-1.8987-2.8608 0.46091 5.4062 0 0zm-38.44-2.3949c0.37468-2.8073-1.7629 2.2026 0 0zm27.797-8.1042c0.22765-1.4003-2.7342 0.79781 0 0zm-2.6013-0.53791c0.99912-0.51149-1.8913-0.53 0 3e-5zm6.8184-1.9681c-0.63528-1.9182-0.22975 2.5387 0 0zm-2.8497-4.762c1.7302-2.4045-2.485 0.69854 0 0zm-2.2194-5.8392c-2.5149-0.86131 0.0089 1.5793 0 0zm-16.213-1.902c-0.48356-2.3894-1.107 2.3176 0 0zm-22.388 81.086c0.21932-2.6318 1.363 1.0095 0 0zm-0.98378-11.3c1.4695-1.1529 0.94502 1.0738 0 0zm-0.79375-1.1906c1.269-1.731 0.3828 1.5937 0 0zm4.8594-33.07c1.5432-3.8423 1.7223-0.50571 0.20232 0.24813l-0.20232-0.24813zm-2.4208-1.6293c-1.2861-2.3509 0.44515-0.30363 0.37252-1.5292 2.7321-1.4661 0.79206 3.3886-0.37252 1.5292zm4.2473-1.2465c1.071-1.3445 1.2962 1.0176 0 0zm2.0994-0.42584c2.974-2.9586 0.93717 2.2691 0 0zm-3.1721-1.509c0.174-2.1252 0.69544 2.4922 0 0zm48.974-0.0213c-0.87957-3.4982 1.1848 1.938 0 0zm-44.996-0.1323c1.1091-1.2525 1.232 1.3252 0 0zm-3.2411-0.54239c-2.6123-3.0608 1.8592-0.29872 0 0zm-1.3229-2.3081c-2.5924-2.3428 2.3051-1.4116 0 0zm0.097-3.2349c1.8506-3.002 1.3162 0.59804 0 0zm1.2259-0.25136c2.0168-1.902 3.4571 0.20882 0 0zm2.3812-0.0638c0.88378-2.1122 0.6958 1.5675 0 0zm-4.1894-1.1735c-0.3445-1.3012 1.8134 0.44045 0 0zm5.6355-0.46621c1.1126-4.2786 0.41224 2.4566 0 0zm-1.7016-1.1711c2.1001-1.3972-0.18886 2.245 0 0zm-7.7482-0.26869c-2.1936-2.1753 0.7094-3.1021 1.7646-5.2541-2.7158 0.46276 2.6274-3.8801 0.96061 0.0471 0.07326 0.0926 0.79126-1.5962 1.0603 0.73024 0.33747-2.8941 3.3087 0.36642 0.78675 1.5054 0.28642 2.4274-2.381-1.1379-4.1564 2.1468-0.21624 0.44076 5.4186-1.2828 1.0247 0.38035-0.56823 0.0654-0.77892 1.2743-1.4406 0.4442zm4.9279-0.54105c0.57475-3.8528 0.41309 2.8021 0-3e-5zm4.1341-1.819c0.92014-1.0903 1.4929 1.1375 0 0zm-3.7703-3.1033c-0.94632-1.0869 4.613-2.1911 0 0zm40.848-3.5774c0.45462-1.6646 0.70299 2.4553 0 0zm-32.58-12.601c1.0348-2.0221-0.29857-2.9937 1.357-2.885-0.54043-2.5236 3.8864-3.7356 1.3022-1.5564-0.19329 0.29086-1.1916 4.1701-2.6593 4.4414zm2.3812-2.414c0.0059-2.037 1.3058 1.6196 0 0zm20.108-2.6017c1.0891-2.1964 0.35032 1.6786 0 0zm-6.35-1.026c2.1385-3.2538 2.1352 2.7997 0 0zm1.4487-2.1391c0.2145-2.8532 1.3853 2.0876 0 0z" fill="#b9d5a5"/><path d="m75.704 232.66c0.17417-2.0069 0.10688 2.2641 0 0zm-0.26458-4.2333c0.17417-2.007 0.10688 2.2641 0 0zm-0.25563-3.7042c0.16477-2.5035 0.10004 2.8448 0 0zm-7.484-11.15c-1.0025-0.79902-3.7941 0.77475-4.4979-1.2856-1.1312-0.70331-3.1598 3.2854-2.8723-0.3765-2.1987-0.25203-1.1115-4.7795-2.6592-0.86142-2.5208-0.31419-1.3429-4.3426-2.8528-0.9211-0.4919-2.2452-2.353-2.7058-2.0729-1.3596-0.807-0.69639-3.074 1.1872-1.4982-0.78652 1.363 0.69674 1.3524-3.3203 0.22453-0.75037-2.2619-1.3594-2.6501 0.91259-3.7115-2.792-1.3749-0.69395-1.6388-3.212 0.36527-4.4557-3.3697-2.1219-0.54447-2.1188-0.5964-4.908-1.2726-2.4528-5.8288-4.7156-0.93662-5.0967-1.0557-1.2591-4.8478-0.90279-4.7447-3.0038-1.4389 1.7304-3.4314-5.402-0.22945-1.8133 2.5327-0.53095 4.412-3.3986 3.469-3.414 4.5439 0.64991-1.4293-3.1506 2.3255-2.9358 1.4887-2.1011-2.4837-4.1238 0.29904-4.7976 1.2999-0.38038 0.38457-3.1031 0.04897-0.98821-3.0919-1.7746 1.2061-3.4581-1.2463-6.5801-1.1248-2.245-2.0265-4.7961 0.17204-3.3173-2.7873 2.3372 3.9423-3.4325 3.3826-8e-3 1.9537-0.61277 3.2288 6.6123 5.8062 4.9244-1.651-3.0074 3.8951-4.5763 0.06262-3.2637-0.14438-1.6302 1.5024-3.8128-0.3251-3.0208 1.9973-2.0312 0.36578-2.6968-0.22826-3.8658-0.15477 1.9189-4.6165-3.2039-2.0988-2.2242-1.6258-3.6195 5.9385 0.76334 3.4586-2.1326-1.5305-1.0232-6.1998 0.0597-4.0687-2.3575-0.75326-1.8453 3.4666 1.201 0.98416-1.997-0.55692 3.2974-2.6398-6.7806 0.08203-1.0884 2.3299-2.0798-0.93621-3.5706-0.93516-4.6934 1.1607-1.1533 2.714 1.5594 1.4001-1.2238 2.8051 2.1944 3.2612-2.5573 3.4546 0.64053-3.959 0.76412 2.7294 3.4646 0.48639 0.13021 1.516-0.2834 0.85612 2.2624 1.8714 0.44779 2.0275 2.8984-0.46874-1.6004-0.73914-2.0843 0.71389-1.7483 0.63807-4.1565 0.27459-5.2376 0.34227 1.7323-0.61654-1.7968 1.9002 0.14167 3.5091 0.69714-1.1078-7.0598 0.22266-2.056-2.0822 2.9085 1.0498-3.4377-1.6499 0.74949-2.4351 2.6902-3.4288-6.391-4.8606-3.5435 0.2719 1.863-2.411-2.067 0.138-1.238-0.47918-2.5906 1.1344 0.57222 1.7244-0.85411-0.33993 2.6457 1.053 4.1521 1.5785 3.287-1.4122-2.7637 3.5331 0.81003 1.5366-2.3133 2.1146 1.3911-0.36939-2.3451-0.92084-0.34775-1.8963-1.1202-0.35896 2.2234-1.4004-1.2034-0.42376-2.1857-1.6061 0.91823-1.7202-2.2664-0.09809 1.7695-2.6436-0.92678-0.19556-0.66461-0.57985-1.8265 0.58336-1.6345-1.169-2.5072 2.4657-1.3817-1.6613-1.4081 1.0447-1.7212 1.3488 2.7112 2.1924 3.4383 2.1278 1.7172 0.40236 3.2513 1.4651 0.93415-0.07416-0.94176-2.3714 1.1806-0.68231-3.7736-0.19043-2.202 1.3634-1.4423 1.8329-0.61798 0.14651-1.8723 1.6176-1.4039 1.7967-3.214 3.0129-1.5985 0.3156-1.9718-1.9935-3.8866-2.7083-4.2995 2.0198-2.293 3.1803-0.45351 4.1842-3.266 0.84828-3.0131-0.41948-1.3943 1.9569-2.3367-2.1736-1.1908 1.4094-2.471 0.43303 0.40422 0.98954-0.0857 1.2261-0.0976 2.5543 2.033-1.3663-1.0388-2.2254-0.31627-0.17432 1.8332-0.9725-2.5977-5.6946 3.3314-1.4677 1.2334 0.74116-2.3234 2.35 2.5162 2.4474-0.9243 0.47538-2.5367-0.427-3.5489-0.5142-4.6363 4.2707-0.61286 1.2239 3.0176 2.8432 4.7285-0.76703-2.65 0.12416-0.99158 2.156-1.2468 0.24197-2.9541 3.2546 0.54186 3.594 2.1555 0.13303 2.104 1.0383-2.3719 2.9673-0.96914 2.3987-4.7027 1.0147 0.99812 0.4854 2.6249 1.7596 1.3108-1.8161 1.6691 0.11858 4.7055 0.80638 1.2865 5.0281-2.7614 2.4146-0.39115-1.5466 1.294 3.7378 2.8183 2.2871 3.0488-2.0821 0.1535 1.4794 5.128-2.6418 3.0716-0.86883-1.5555-3.6202-0.36222-2.4148 2.5508 2.2753 1.7434 5.873-2.5635 6.5405-0.12663 1.9096 0.098 2.1253-0.47944 2.3173 1.2027 1.9815 2.1462 1.4201 0.78534 0.66087 4.3615 0.62448 2.3807 2.476 3.8324 1.0825 4.352 0.56221 1.6299 0.0029 3.9656 0.57086 4.7625 1.9987-1.6743 4.2984 1.6502 4.1453 3.175 3.1973 0.51077 2.1175 4.2289 3.5592 6.2704 4.965 0.35473-3.1272 6.4089-0.82566 5.9137-1.5296 1.7659 1.6216 3.2669-0.02232 5.0172 2.1507-0.51433 2.4208-0.95306 2.4085 2.9114 0.09538 1.3124-0.8516 1.7528 0.74004 2.6513-2.481-0.23009 2.3885 1.6174-0.88574 0.80717 1.0727 3.1255-1.1084 2.4557 0.04496 4.9545-2.9237-0.18759-0.5641 5.0533-2.1305 4.7536 2.3389 3.0113-0.99251 4.6641-1.5087 7.1576 0.74979 2.0577 1.8543 4.1102-0.50314 6.7448 0.91728 2.9468-0.58536 0.54034-2.0418 2.637 0.04403-2.9226-1.7357 3.085 0.09388 0.63066 2.7276 2.0227-3.2911 0.92352 0.71863 2.7108-3.2661 0.9767 1.295 5.9569-3.7231 7.5353-2.2016 2.5241-6.8714 1.6058-8.2929 3.6908-2.0081 0.12879-3.7104 4.324-5.8541 2.8842-1.9107 4.1452-1.5704-0.2129-1.6634-2.2295-0.94356-5.1315 1.1916-9.8298 3.4737-14.285 0.98198-2.1043 5.9054-10.086 0.63409-6.3129-1.8615 2.4634-5.2104 9.5201-3.9206 2.4843-0.15452-12.423 3.5259-24.421 5.1283-36.632-2.7652-0.41489-2.7557 8.9984-4.5119 12.152-2.9146-5.4581-2.5042-12.435-4.9269-17.808-1.107 4.6642 1.2885 10.237 1.7036 15.238 0.19125 3.2515 1.8952 6.5454 1.4232 9.7306-1.0099 3.0021-1.6128 6.3419-2.883 9.1066-3.1145-8.2919-6.4057-16.535-9.5779-24.795-4.7389-0.44251 1.2118 7.8756 1.4903 11.175 2.3375 8.0537 5.9598 15.774 7.4891 24.031-0.19672 1.4585 0.54475 9.7304-1.0826 6.3146-3.6404-6.2408-7.3014-12.492-10.874-18.753-4.0487 2.2799 2.2044 7.2648 3.0704 10.489 3.4068 6.749 8.2976 13.351 8.5141 21.171 0.52616 1.1427-1.8568 0.86231-2.2073 0.53899zm-17.859-8.8262c-3.2715-1.9518 1.1545 1.8151 0 0zm5.236-8.9958c-0.20828-1.939-1.0787 1.8588 0 0zm-6.8815-16.007c-0.93375-1.4776-2.3571 1.6348 0 0zm1.557-3.065c-0.81448-3.4182-0.33364 3.2234 0 0zm45.729-1.8622c-0.56678-1.3553-0.97169 1.7939 0 0zm-46.838-0.60921c-1.2717-0.87269 0.26316 2.6174 0 0zm-1.0517-2.6813c-0.61958-1.4465-0.61236 1.854 0 0zm48.773-1.8525c-1.8891-0.89869-1.3067 1.2658 0 0zm-39.192-1.8452c1.6104-3.3373-2.0088-0.43008-0.66146 0.40196l0.66146-0.402zm-8.5246-4.3495c0.65213-1.9-1.9395 0.86873 0 0zm8.53-7.4746c-1.4858-0.98835-1.32 0.9453 0 0zm-2.1778-1.0146c-1.1844-1.2725-0.83897 1.6086 0 0zm0-2.9272c-0.73047-1.4205-0.50623 1.6824 0 0zm6.8262-1.0788c1.276-2.823-2.6426 1.1934 0 0zm-3.724-0.74083c-0.99138-1.8516-0.23989 1.6764 0 0zm4.8352-1.826c-1.2514-0.58688-2.9605 2.4672 0 0zm-6.1304-2.8704c-0.38452-3.3674-0.25688 4.2106 0 0zm-1.1317-0.30813c0.96513-2.2477-1.438 0.61705 0 0zm36.053-1.5973c-0.68244-1.1305-1.7957 1.0943 0 0zm-28.671-0.78748c0.0984-0.52266-3.57-5.6348-2.6009-2.5872 0.50161 0.55634 1.1524 3.4715 2.6009 2.5872zm-2.0065-0.61436c-3.3603-4.1114 0.28007 2.0322 0 0zm22.134-2.4078c1.2706-3.8044-4.0273 1.4425 0 0zm-21.571-0.9656c-0.58407-1.9299-0.54302 1.8586 0 0zm2.849-0.52916c-2.0184-3.3763-1.6733-0.29789 0 0zm0.25027-1.3891c1.6027-3.0559-1.3648 0.33258 0 0zm8.7554-2.5042c-1.6288-3.2456-1.4921 1.2365-0.41148 0.47686-1.3011 1.9392 1.4519 0.19843 0.41148-0.47686zm-13.045-6.3739c0.26748-1.7902-2.3387 1.4971 0 0zm3.1947-0.60856c0.1403-1.1285-1.9767 2.2836 0 0zm-5.0468-0.23677c0.46495-5.1099-1.1846 2.0824 0 0zm1.6018-0.46302c-0.62915-2.6484-1.0773 2.5105 0 0zm2.3251 0.34427c-1.0741-3.3657-2.4543 0.43547 0 0zm21.87-0.30018c-0.76077-1.1532-0.91904 1.395 0 0zm-5.9662-0.97309c-0.33266-0.33313-1.287-0.2923-1.271 0.44738 0.30403 0.68375 1.4587 0.32927 1.271-0.44738zm-13.228 3e-3c-1.0356-2.5604 0.01278 2.0267-2e-6 0zm10.941-0.0737c-1.571-1.7194 0.75895 2.2407 0 0zm-15.691-0.44257c0.46662-2.2104-2.4965 0.78951-0.473 0.05zm14.704-1.3359c-1.1654-0.6737 0.29016 3.3933 0 0zm7.7747 0.033c0.32164-3.2112-1.7285 0.98065 0 0zm-22.792-2.9434c-1.2354-0.85293 0.15488 2.5455 0 0zm22.982 0.16772c-1.9806-0.2473 0.62391 1.7424 0 0zm-24.514-0.20237c0.79257-1.8171-1.793 1.3287 0 0zm1.97-1.2883c-0.23856-1.3229-1.9568 2.0231 0 0zm1.4866-2.1372c0.5414-2.0478-0.32815-0.81262-1.4494 0.17688 0.50147 0.0239 0.94165-0.38482 1.4494-0.17688zm11.88-0.97012c-0.78443-2.7532-0.56204 2.6507 0 0zm1.6621-2.7532c0.50484-3.2479-1.5925 2.3004 0 0zm-4.413-1.5787c-1.8789-0.55508 0.06368 2.9311 0 0zm1.1836 0.82472c-0.13192-1.4302-1.79 2.089 0 0zm-2.7487-1.5904c-2.7647-1.2056 1.4551 2.4861 0 0zm4.7154-0.59238c0.50923-1.0154-2.5062 1.1803 0 0zm-20.864 99.049c-0.44116-0.88359 2.3047 0.25859 0 0zm-9.186-29.482c2.6814-1.0764-0.1157 1.3774 0 0zm1.2103-3.4779c1.7034-1.4306 0.81595 0.85389 0 0zm-0.72858-3.4331c0.85856-3.8942 1.7396-0.457 0 0zm0.99316-2.8783c-2.4707-0.0615 1.2579-2.6479 0 0zm-0.18417-4.3174c-0.56229-2.7592 1.2786 1.4014 0 0zm5.191-3.2187c-0.80432-2.4706 1.5069-0.67606 0 0zm-4.5691-1.4532c1.3462-1.2298 0.65203 1.5914 0 0zm-2.5015-0.17403c-1.0012-2.3447 1.5303 0.30395 2e-6 0zm5.3602 0.0353c0.97916-1.9507 2.8236 0.95504 0 0zm-1.7089-0.37928c-3.4198-1.376 6.3913-1.1167 0.70383-0.17739-0.48919-0.46292-0.16758 1.3039-0.70383 0.17739zm0.52917-1.1728c1.9378-1.8996 1.3829 1.2481 0 0zm-1.0926-0.89943c-1.1462-2.0874 4.315 0.67312 0 2e-5zm-3.6699-4.7746c0.97035-3.1006 1.7053 1.441-1e-5 0zm5.329-0.56156c-1.8199-3.4103 1.9303-2.4308 1.0886-0.85064-2.6319-2.0044 0.03922 0.51182-1.0886 0.85064zm1.5798-2.1762c-0.61616-1.3685 2.1234 0.46742 0 0zm1.0287-1.678c2.2669-0.14161-3.5954-1.0106 0.59687-1.4374 0.66433-1.2379 1.0695 3.156-0.59687 1.4374zm-0.9412-1.9449c-1.2097-1.917 3.0175 1.4008 0 0zm47.536-0.78185c-1.8086-3.7059 1.0803-1.4599 0.63363-0.16582-1.655-1.1588 0.78068 1.5124-0.63363 0.16582zm-44.213-5.9583c0.97167-1.3368 0.89718 0.91562 0 0zm2.6539-0.39143c-2.827-0.0192 2.0431-2.7024 0 0zm1.4291-0.1952c-1.2614-1.9766 0.96189-2.5824 0.92566-1.7073-1.9135-0.76269 1.0722 2.7494-0.92566 1.7073zm-7.258-1.574c-1.5979-1.4503 1.8777 0.13651 0 0zm2.2991-1.3282c1.1182-2.9514 1.3296 1.7162 0 0zm2.3642 0.339c1.4752-2.7211 1.5563-0.13008 0 0zm-0.16131-1.5749c1.0591-2.5362 0.67185 0.85006 0 0zm1.5059-0.86347c0.06052-4.1074 3.4538 1.7761-3e-6 3e-5zm5.3027-0.15121c-0.08975-3.6762 2.244-0.24096 0 0zm-6.9949-10.765c0.27401-4.039 0.33165 2.4774 0 0zm30.069 0.2851c-0.52454-3.8071 1.3537 1.8017 0 0zm-31.353-1.7322c2.4779-3.5194-0.45721 2.4781 0-2.9e-4zm5.5008-8.4462c-1.7134-3.8857 2.0111 1.0539 0 0zm8.9691-8.9964c-0.80437-1.6973 1.3375 0.69563 0 0z" fill="#a9cb90"/><path d="m60.443 213.22c1.8683-2.9352 0.4701 1.3244 0 0zm14.434-2.0556c-1.2424-5.7744 1.042-11.083 3.5625-16.14 0.66376-2.0969 5.8763-8.7832 0.86584-6.5231-1.3276 0.6626-4.7175 9.166-4.4176 5.1588-0.19588-12.876 3.2087-25.386 5.2294-37.994-1.24-4.0028-2.8127 5.0712-3.2795 6.7014-0.60957 2.3917-1.2524 7.4261-2.3059 2.1658-2.2182-4.5554-1.3422-12.005-4.3334-15.043-0.09841 5.4379 1.6178 10.913 2.3173 16.344 0.03262 3.0617 2.1095 6.1738 1.006 9.1522-1.0703 2.0842-1.5921 8.8145-2.896 7.724-2.5892-7.4589-5.9093-14.658-8.4176-22.132 0.03383-1.6293-3.1697-6.4204-1.6927-5.6496 1.233-0.0877 2.8797 0.98037 3.2375-0.21464-1.0644 4.4524 4.7462-1.5835 0.91414-0.84671-3.1443-0.7915 0.61547-4.4827 1.8596-7.2561-0.74152-3.2732 0.32899-4.8451 2.9614-4.5877 1.9196 2.3627-0.71856-2.1398 1.9293-0.13819-0.68013-1.9692-2.4611-5.6131-0.40391-2.5627 0.29219-2.7011 3.5646 1.6044 4.5486 2.9525 1.0082 0.32688 3.4341 1.0481 2.6437-0.53816-2.6296 0.25855-1.3971-4.504-0.44049-3.6596 0.39262-2.7049 1.6188-0.0728 2.0497-0.18309 1.5983-2.2044-0.89938-1.2079-1.9637-3.4623-0.53407-3.3679-2.8979 3.7591-1.7281-1.5565 0.99839-1.1273-2.5068 1.0238-0.73189-1.5343-2.3697-1.5583-2.2467 1.3008-4.185-0.58285 3.3864-0.49404 2.5418-0.043 1.4821-1.5687 0.3194-1.7124-0.94276 3.1328-1.1391-1.0947-2.1696 2.8147-0.2424-5.2699-1.2683-2.5696 0.49138 5.6598-1.4874-4.2783-2.724-2.6575 1.0428 0.65074-1.1542 3.4411-0.84363 3.6353-0.63707 2.0592-0.22942-3.1587-1.4607-3.5911-0.34642-1.3119-1.2157-3.6763 0.14286-3.5425 1.4748-2.8165 0.23357 2.3835 0.63386 3.257 0.40989-1.9758 2.4772 1.0624 0.69425-1.6566 0.66682-1.9233 1.4827-0.8948 2.7923 0.57483-1.7431-2.4798 0.65649-1.9381 0.75915-3.5745-0.40265 3.3683 1.993 2.3634 3.4706 4.4971 0.03232 1.8708 0.26514 4.3722 2.5543 4.7625 0.08145-0.89928 1.9878 3.225 2.952 1.7214-2.6678-1.3532-1.1318-1.8942 0.81334-1.1257-0.33168 4.3659 5.1348 2.2444 5.5612 4.5617 3.9719-1.4916-1.0082 1.7508 2.2729 0.57205-1.2552 2.2197 0.4059 3.6949-2.8046 2.165 2.0237 2.162-2.7404 4.5265-0.34896 1.5654-0.25859-4.0961-0.39976-1.1635-2.1524 0.38063-0.6863-1.6778-2.6333 0.0565 0.71795 0.58262-1.9334-0.12227-2.4183-0.16736-2.0478 1.5496-2.2564-1.2868 1.3241 2.6268 2.7313 0.92609 0.37216-1.7869 1.2392 0.95439 3.4454 1.7632-0.28715 2.2004-3.9088 3.7328 0.63356 3.3587 2.6041 2.3026 4.0546 1.1834 5.8405-0.7656 0.72158 2.5105 0.10354 6.4486 3.1604 6.0591-2.8402 1.475-2.3017 3.4539 0.12724 2.4448 4.6952 0.28063-0.85533 2.4837-0.85068 1.8418 0.89191 2.4918-1.6996 5.191 0.33668 6.7348 0.15364 1.4758 4.811 1.3109 1.9357 4.3565 0.40077 2.5684-0.57996 4.529-3.5384 3.377-3.4341 0.96317-1.0531 1.0339-0.716 1.3986 0.76291-0.85667 1.4606 1.417 3.1099-0.5716-1.1533 0.43624 2.5658 4.1746-1.9878 3.7763-3.8707 0.63702-0.90325 2.5296 1.161 3.4118 0.5423 2.5819-3.2985 2.6959-0.78463 3.079 1.2455 0.63749 1.6119 5.1855-0.40386 1.4848 0.42327 1.9376-0.43841 6.1314 0.15427 6.5801 3.2345-2.2471-1.8042 4.5921-3.2449 5.1257-0.47805 0.49632-0.17274 5.1618-0.03479 6.1948 0.50661 3.1407-1.0842 1.0778-1.5444 1.072-0.30572 2.9914 2.09e-4 3.7978-1.7135 5.628-4.2295-0.68989-6.903 2.1707-10.618 3.2691-0.91722 2.6473-3.5478 1.8015-3.499 3.1966l-0.0563-0.79064-0.03008-0.98938zm23.393-44.714c0.96925-2.3655-4.2252-3.6668-0.67987-0.64564 0.10292 0.23541 0.63052 1.7925 0.67987 0.64564zm0.21857-2.8396c-1.1172-1.3323-0.27284 1.3808 0 0zm-35.528-3.6784c0.48027-2.0784-1.2492 1.1571 0 0zm-0.02135-1.8778c-1.7882-2.6938-0.43548 1.9682 0 0zm-1.8679-2.4004c-1.3283-0.78797 0.97963 2.4447 0 0zm34.627-1.155c-0.38854-1.0795-1.1652 1.6467 0 0zm-21.722-9.1333c-0.7515-2.3424-1.0216 2.2134-5e-6 -3e-5zm6.6908-4.5132c-1.2738-3.9794-0.961 0.41003-0.15242 0.203l0.15242-0.203zm-0.71931-7.5363c-0.69519 0.35681-1.5591-2.127-0.85616 0.67557 0.38436 0.73751 0.89133-0.40633 0.85616-0.67557zm-2.691-2.7314c-0.64658-4.7039-1.5801 3.0752 0 0zm-5.2813-7.1027c0.4615-3.3021-1.6797 1.8395 0 0zm-1.3822-1.0953c-0.692-2.5102-0.85204 1.118 0.19248 0.97579l-0.1925-0.97579zm-1.4135 90.398c-1.319-0.61837-3.2425-0.1318-2.0634-2.2255-2.187 0.19244-1.5307 3.1864-4.441 0.52768-0.07992 1.8125-3.7588 0.14297-4.4281-2.3909-2.8015-0.75133 1.8619-0.27465-1.3648-1.7445-0.9671 2.4385-1.0251-1.9499-2.9939-0.38531-1.8566-2.2437-0.09978-6.8523-0.63161-7.7242 1.6158-1.7097-3.7175 0.78-1.0817-0.80313 0.39014-1.4156-5.8369-4.6206-4.2193-4.518 2.0072-2.0903 0.80795-3.9169 0.44425-5.5618 0.87199-0.76312-0.01242-2.6362 3.6557-4.0766-2.1721 0.11805 0.93529-4.3683-1.4217-2.0559-1.1918-1.99 0.21438-4.8037-0.14519-5.9458-1.2966 1.7436 0.5942-3.4372 2.7938-1.8261-2.0366-0.15332-5.6252 0.40889-3.434-2.9333 1.6833-3.969-1.9737 1.4-1.99-1.0293 1.1862 1.0277 2.1102-3.7419-0.25139-0.41071-0.08319-1.6585 2.2026-5.6085 3.4356-3.6291 0.76056-4.5022-0.16768 1.4105 1.9499 0.49732-1.2122 2.4367 6.3867 3.3608 5.9868-0.12565 1.6394-1.9654-2.4252-3.7888 0.5892-3.2355 1.5306-1.4446 2.8054 6.7774 3.9822 8.9648 2.0475 7.2552 5.3551 14.173 6.7364 21.594-0.3133 1.3496 0.30681 8.2458-0.81764 6.7623-3.6321-6.3054-7.4278-12.52-10.965-18.876-4.3924 2.1276 2.92 8.6457 4.0652 12.387 2.7825 5.5552 6.474 11.003 7.247 17.278-1.0207 0.25958 0.79019 2.9513-0.63742 1.4856zm-11.171-15.853c1.5344-0.50201-3.6624-5.4636-3.8247-0.77822-0.22647 2.2957 2.7527 1.4945 3.8247 0.77822zm-3.6678-11.979c-0.52646-1.1871-0.92217 1.5186 0 0zm-1.1906-6.3162c-0.92831-1.2109-0.89893 2.5423 0 0zm3.8003-2.8571c0.14062-1.3733-2.3856-2.3787-1.913-1.6082-0.14276 0.78885-1.9856 1.359 1.2961 1.5394 0.20287 0.62503-0.63061 1.0256 0.61683 0.0687zm-3.4217-0.63071c-1.2044-1.387-2.0311 0.66035 0 0zm1.0775-2.6093c0.15756-3.1696-1.6874-3.4809-1.0287 0.0755 0.17141 0.66571 1.2949 0.94071 1.0287-0.0755zm1.9956 38.181c-0.91466-4.777 4.1146 1.2916 0 0zm22.653-0.34209c-0.19783-1.6101 1.7201-0.44813 0 0zm-28.556-1.2858c0.65296-2.6852 1.0014 0.85395 0 0zm0.35411-4.0386c-0.77965-4.2666 3.376 0.31817 0.25854 0.33052zm-3.6086-2.6547c-1.7491-2.6153 5.3413-3.9583 1.3778-0.43981-1.7016-1.9295-0.49852 1.3481-1.3778 0.43981zm-2.4728-10.596c-0.8072-2.0497 2.19-0.3349 0 0zm1.5639-3.7822c-3.629-1.8039 0.65088-3.845 0.55096-1.6138-1.8788-0.30841 2.6139 2.8185-0.55096 1.6138zm-0.99219-3.5666c-1.2226-1.4664 1.3586-0.14057 4e-6 2e-5zm2.9152-12.635c0.50663-2.0906 1.5175 1.0586 0 0zm50.351-1.5994c-1.2727-1.8917 2.489 1.4345 0 0zm-49.893-7.535c1.4695-1.1529 0.94502 1.0738 0 0zm9.4455-4.2224c0.92736-2.1311 0.14819 1.6379 0 0zm38.094-6.3266c1.8351-1.5593 1.2279 1.1217 0 0zm-27.255-12.78c0.40615-1.0808 1.5816 1.3987 0 0zm6.8355 0.31044c-4.3718-4.2483 1.7036-0.29627 0 0zm-4.1747-1.8552c-1.1781-3.2586 2.1254 1.352 0 0zm-2.3742-0.90753c-1.4962-1.7618 1.8878 0.62696-2e-6 0zm-0.02164-1.1178c-1.1089-2.8498 2.0908 0.80637 0 0zm2.1282-0.35278c0.11993-1.6909 0.96352 1.7028 0 0zm15.839-0.44154c-0.14942-1.1489 1.7322 0.23883 0-4e-5zm-12.786-1.3212c-2.011-3.0449 1.2863-0.49172 0 0zm-5.3578-0.29784c1.9631-2.9217-4.4416-1.7559-1.8835-5.0296 0.47782-1.932 3.5512 1.5105 1.027 0.15649 0.52845 1.7651 1.7881 1.0015 2.2397 4.5704-0.6176-1.0261-0.81012 0.46762-1.3832 0.30269zm13.059-2.7637c0.11218-2.2935 3.5349 0.55533 0 1e-5zm-20.026-0.37917c-0.21798-1.7672 2.6425 0.17384 0 0zm19.138-0.74965c0.74915-1.3923 1.4455 1.6704 0 0zm-0.60159-0.57728c-0.71522-2.1711 3.6577 0.67 0 0zm1.1817-1.2135c-0.18322-1.5574 1.9981 0.45928 0 0zm-5.7113-1.9355c-0.10491-1.9725 1.0476 0.80429 0 0zm-8.1641-0.43213c-1.7807-3.284 2.2767 1.7529 0 0zm12.814-2.4792c-3.003 0.45731 2.1713-1.9582 0.49704-3.801 1.374 0.36381 0.97236 5.3593-0.49704 3.801zm-5.9566-0.22228c0.65786-2.8121 0.99514 1.552 0 0zm4.9473-1.0843c0.95776-3.0981 1.888 0.45444-0.17081 0.21587zm-2.4156-0.0483c-1.5336-1.225 2.1802 0.21951 0 0zm-0.75634-1.5179c0.69709-2.1496 2.9898-2.2616 1.511-0.16266 0.78803-2.6204-2.7215 2.805-1.511 0.16266zm-4.5369-0.0146c0.94921-2.567 0.42 2.3 0 0zm3.0006-0.57614c0.64046-3.7923 1.0605 1.9076 0 0zm-8.6175-0.37177c1.6794-0.98042 3.0651-3.1019 1.3826-3.7292-3.0781-1.1998 1.7045-2.1189 1.5328 1.304 0.80397 0.70862-1.5256 3.4637-2.9155 2.4251zm5.4268-0.51612c-1.0897-2.5113 2.1905-0.0232-1.5e-5 0zm-8.271-0.17195c0.99485-1.5323 1.847-0.70181 1.8745-1.85 2.8747 1.4391-2.1639 2.3932-1.8745 1.85zm3.1585-0.8941c1.2593-1.5438 0.3931 0.94778 0 0zm2.8385-1.086c0.262-1.0372 2.8132 0.75356 0 0zm-4.0347-0.66136c-0.62385-3.5637 1.3396-0.6893 0 0zm-2.4015-0.71639c2.9772-1.7103 2.255 1.1749 0 0zm-0.0067-0.93158c0.5506-1.6061 1.5204 1.0021 0 0zm1.1735-0.65688c1.2176-1.4263 0.97748 0.7029 0 0zm-1.3229-1.3818c1.2152-2.2996-0.68561-2.9854 1.6825-3.9107-0.91193 1.0302-0.04557 3.5166-1.6825 3.9107z" fill="#9dc481"/><path d="m69.281 211.48c-0.16867-2.5852-5.7288-3.1635-4.3244-0.34082-1.9313-0.36993-3.6688-0.6335-4.6852-1.5926-0.8246-2.2096-1.1304 1.0338-2.6344-2.3538-1.0103-1.2656-5.7024-1.5046-3.6186-5.6174 1.1585-4.5026 0.0051 4.3193 1.2988 1.6796 0.23892-2.3729 0.13817-5.8606 3.2653-5.7104-0.2636-0.23106 0.6176-2.9839-0.81834-2.032-0.43347-1.1931-0.14461-3.6286-1.3674-5.2106 2.1785 1.3309 2.2301-2.094 1.8122-3.2522 1.7597 1.724 5.6408 9.3941 7.7284 13.482 1.3458 2.6995 4.9138 10.117 3.3436 10.948zm-12.85-1.0079c0.07855-4.5143 3.7766 1.6265 0 0zm18.346-2.9608c-0.50443-6.1623 3.5461-11.455 5.9191-16.864 2.7608-6.3853-4.8187 0.77736-5.2708 3.6691-1.4305 2.2891 0.11236-4.8856-0.29303-6.043 0.09325-10.752 3.3965-21.144 4.8049-31.716 1.6532-1.2844 0.46595-2.4949-1.0482-3.7269-1.1975-2.7812-1.3316-1.3514-0.83066 0.46789-2.2129 0.1299 0.21032-4.0761 1.0385-1.9953 3.0773 0.42534 3.9044 1.4045 5.7909 1.4445 0.11252 1.6884-0.38915 2.0153-0.69966 2.7502-1.4648-0.0978 4.2878 1.7291 1.5162 3.2987-0.02226-2.2686-4.4327-6.2946-4.4252-2.505-0.78583 1.3646 3.5664 0.47784 1.8375 3.6962 2.5876 2.509 1.3955-0.83102 2.5535-0.61174 1.3158-1.6501 2.3645-2.7278 1.7684 0.43657 1.0037-2.4273 1.8422 0.33896 0.1575-3.0689-0.15646 1.6813-2.5025-1.3721-0.43357-1.0891 0.66396 0.91944 2.1268-1.4396 4.2833-0.79964 1.834-1.7987-2.4869 3.5254 0.86035 0.37172 1.6477-2.1491 1.9392 1.4174-0.79582 1.1908-2.2783 0.87894-3.0506-0.38013-1.9771 2.9427-1.5024 0.32989 4.0002 3.8283 2.0938-0.0447 0.53112-1.124 1.9257 3.1978 3.1543-0.20237 1.7516 0.95125-1.432 2.4961 1.0601 2.113 1.426 1.5518-0.85579 2.1977-0.22461 0.4023-2.6765 1.4618 0.48922 2.5672-2.3843 3.6735-0.31926 2.9404 5.4017-0.92314 4.1203 3.3561-0.07535 1.2447-1.8736-0.66808-2.953 0.28237-2.339 0.52288-4.6619 0.84955-0.57518 2.5137 1.3557 0.86219 4.9547-0.65167 2.723 2.0022-4.7993-1.2046-4.7438 4.057-0.79047 4.3145 0.10253 3.3482-4.8451-2.3261-3.6032 0.55524 2.7841 1.9336 4.398 5.6453 2.7181 9.4015-2.4808-1.7971 0.61158 1.8455-1.8751 2.5889-0.75725 3.1206-2.39 5.4046-1.0771 8.7856 0.31808 1.0299-3.9277 2.5512-4.0128 5.6482-2.3698-2.782 1.3347 2.7443-1.6476-0.21167 1.3661 3.2097-1.1813 0.43075-1.9681-0.37974 0.11352 1.0744-2.3326 4.7917-3.6088 3.8587-3.1076 0.33356-3.4681 3.5434-5.7426 1.7697l-0.09022-0.99735-0.07254-1.2788zm12.401-6.3131c0.26975-3.0383-1.4593 1.8909 0 0zm-0.53274-12.251c-2.1577 0.18909-0.07835 2.5944 0 0zm-0.41214-1.1072c-1.9199-1.7606-0.64499-3.6352-0.09263-1.4622 1.1238-2.8694-0.748-3.3326-3.3077-2.7811 0.48447 1.4624 2.3054 6.3773 3.4003 4.2433zm-1.7601-1.0804c0.75202-2.7814 0.48158 2.809 0 0zm-0.90192 0.40354c-0.77209-1.2412-0.6324 2.8901 0 0zm1.8561-13.104c0.99089-1.1844 0.06567-5.4859 1.7529-1.7154-1.4921-2.2834 0.1915 2.8592 0.53026 0.85545 2.9434 1.221-1.7612-3.4322-0.60551-3.7113 0.52615-0.73055 1.7371-4.1675 1.9063-2.0534 0.13285-3.3866 2.2346 1.7254 1.5093-0.77575 2.1383-3.1559-5.009-1.1001-1.8123-5.2242-1.4538 0.0182-1.1282 3.1168-1.7341 4.5296 2.8924-2.5603-1.471 4.2754-1.4746-0.63629 1.0586-4.7685-1.414-1e-3 -1.0407 1.4023-1.3774 0.96222-2.2038 8.2818 0.96857 7.3289zm-0.1737-5.9555c-0.74428-2.2461 2.1083-0.0252 1.3931 0.26998-0.47276 0.87558-1.2201 0.25701-1.3931-0.26998zm3.173-2.6612c0.04075-2.4519 1.0459 1.4151 0 0zm5.1444 3.1035c-0.68188-0.97216-1.3896 1.2498 0 0zm-0.99989-0.54288c-1.0888-2.6676-1.2836 0.22892 0 0zm-5.2917-1.201c-0.58732-4.1871-2.6731-0.9846 0 0zm6.3066-0.51325c-0.2487-1.1791-2.2332 1.4333-0.24588 0.37775zm-4.9097-6.3947c-3.2501-0.37039 1.8026 1.4113 0 0zm-7.8792-6.4724c2.6811-2.0059-3.1545-1.924 0.02287 0.52916l-0.02286-0.52916zm-29.671 51.459c0.58087-3.43 2.7144 1.7744 0 0zm-4.3283-3.4182c1.2221-1.5214 1.0914 1.2197 0 0zm1.4186-0.0194c0.24991-3.6963 2.9856 1.6588 0 0zm20.323-2.6596c-2.8547-5.3939-6.9228-10.312-8.8881-16.078 1.4094-2.2713-2.6302-1.6998-3.4823-0.29327 2.7878-2.0243-0.98223-2.2913-0.34207 0.55045-0.89363 0.27094-0.60607 0.80841-2.5899 2.0866-0.04224-1.873 1.138-3.1251 0.32968-0.95368 1.8227-2.1666-0.59195-3.098 2.1853-2.9078-0.71505-0.94652 0.95964-0.91305-0.34865-2.6964 1.4203 0.27641 1.4614 2.8372 3.4188 1.3351-0.63648-0.73411-1.6207-1.4043-1.0479-2.9671-0.02186-3.436 1.9768 3.0616 3.1552 0.52802-2.6175-0.96884 0.15521-7.5111-1.8763-7.8034 0.3961-2.262-1.1708-1.9788 2.5118-2.0212 1.4142 2.7057 2.4502 6.3576 3.8053 10.257 2.1573 7.0398 5.9125 13.991 4.6825 21.576 0.03094 3.5612-0.36613 0.97825-1.5133-0.61155zm-8.2476-27.635c-0.67733-1.7995-0.51731 1.7435 0 0zm-6.193 27.089c0.0061-1.7505 1.4501 0.9053 0 0zm-2.3847-1.7193c-2.3566-3.886 4.9439-3.3773 2.043 0.097-0.46313 0.76129-1.5485 0.35124-2.043-0.097zm-0.15349-6.1871c1.269-1.731 0.38281 1.5937 0 0zm43.127 0.0125c1.2571-3.9344 2.4898-0.42839 0 0zm-40.392-1.6403c-2.9355-1.8743 2.2989-2.7824-0.71586-1.2392 0.79549 0.23512 1.4259 1.2152 0.71586 1.2392zm0.90855-2.3409c0.074-3.4993 1.3261 1.6891 0 0zm1.0229-1.8521c1.584-1.6994 0.02459 1.5332 0 0zm14.467-1.5875c-2.4462-7.4718-5.8991-14.585-8.2935-22.059 1.3047-0.93958 0.97403-5.5611 2.5388-3.3285 2.3553-1.1496 1.1703-5.0877 1.6385-5.1152 2.3423 1.4794-1.0651-2.9122 1.8961-0.41508 2.8957 1.3507 2.1104 4.8568 2.8899 7.4362 0.67584 4.7618 1.9299 9.5451 2.52 14.253-0.99651 3.2531-1.9195 6.5389-2.9316 9.7791l-0.25826-0.55034zm-2.9941-24.913c-1.0096 0.30692-1.1832-0.2015-1.3189-1.0977-0.51966 0.50226-1.4804-0.75567-0.20249 1.8717 0.56389 0.0889 1.3295-0.19169 1.5214-0.77398zm-6.7065 8.6259c-3.0364-4.9928 2.1299-1.4146 0 0zm13.788-1.4623c-1.4257-3.9614-2.7629-10.317-2.5837-13.223 0.6941-1.8776 3.3873-4.36 3.8984-6.545 3.7658 1.2937-5.6904-1.7736-1.9734-3.4736 3.7145 1.2134 2.2126 4.0874 4.4537 0.97631 3.27-3.3649-1.0748 1.8908 2.5245 2.7915-3.3369-1.2766-4.9647 3.9761-1.7595 2.0335 1.4501 2.0938 1.0688-1.0458 1.2568-1.3597 1.4091 1.0904 2.7415 2.4685-0.07181 3.692-2.7518-1.2077-2.6039-1.1988-4.7809-1.3218 2.0874 1.7964 0.79444 1.184 0.45462 3.5304-0.74614 1.5387 0.19498 2.8161 1.6707 3.5794 0.16987 3.347-1.4095 7.269-2.1865 10.907-0.49588 0.61692-0.68789-1.697-0.90298-1.5876zm0.56628-15.125c-1.4066-1.7652 0.35349 1.7279 0 0zm3.6953-5.6951c0.22335-1.2162-2.3463 0.86712 0 0zm10.876 13.828c-1.0561-1.6736 1.9791 0.30984 0 0zm2.9466 3e-3c-1.1802-3.2209 2.3972 0.9197 0-2e-5zm-1.3536-0.38821c0.83246-1.0848 1.0941 1.42 0 0zm2.6762-0.2749c-2.3067-2.1858 2.2595-1.248-0.49781-0.92104 0.47019 0.72124 2.9937 1.5571 0.49781 0.92104zm-4.7929-2.8892c-3.2078-3.2268 0.95678 1.0306-2.5432-0.79471-3.4955-2.0439 5.6147-0.91408 2.6299 1.0614l-0.08679-0.26674zm1.3229-0.87028c-1.2738-2.426 1.3121 0.95458 0 0zm0.43768-0.82362c0.59377-3.352-0.15225 1.5339 1.2822-0.77408-0.13359-0.24428 0.4134-2.4446 2.0768-0.67944-0.46252 1.4919-2.3517 1.7748-3.3589 1.4535zm-5.2172-0.72709c-0.33702-1.7294 2.1652 1.4754 0 0zm3.9942-0.16228c1.3032-2.7633 0.22472 1.358 0 0zm-24.35-0.81072c1.9063-3.8683 0.05419 1.9154 0 0zm16.14-0.0648c2.3182-1.1076 4.1289 0.53226 1.1586-0.012-0.50056-0.47694-0.72233 0.82108-1.1586 0.012zm11.046-1.4764c-1.5756-1.8523 1.7446 0.81907 0 0zm-8.5578-0.36568c-1.6578-1.4656-4.7884-8.5243-0.61866-4.3095-0.702 4.6199 2.8228 2.7315 2.7158 1.0749 1.3959 0.88907 1.3971 4.9885 0.2765 2.6586-0.25111 0.5246-0.77701 1.38-2.3736 0.57592zm-17.041-4.7914c1.1348-2.8653 0.40111 1.4304 0 0zm16.657-2.0834c1.2626-1.9138 1.1928 1.3183 0 0zm-2.6707-0.41181c-0.86091-0.96536 4.1433 1.0111 0 0zm-9.0664-0.23659c-1.2166-1.8944 2.8583 0.55992 0-2e-5zm2.6871-12.91c-2.1094-1.9413 2.1566 0.76206 0 0zm-3.175-1.0002c-1.7893-3.781 2.2807 2.2199 0 0zm1.5214-0.93411c2.3339-0.98021 0.58104 0.20099-0.25676 0.37373zm-3.7717-3.5057c-1.8495-3.6461 1.8075 1.0334 0 0zm11.872-0.77212c0.49259-2.6937 0.83585-0.0118 0 0zm-12.995-1.2784c-1.5157-2.3939 1.6824 0.61034 0 0z" fill="#98c17a"/><path d="m68.587 209.76c-2.1919-1.9158-0.61301-5.8938 0.67269-1.3273-2.7504 0.31815 1.9477 1.7287-0.67269 1.3273zm-6.053-1.3211c0.52137-3.1902 2.0997 1.3984 0 0zm-3.5652-0.26237c-1.1581-0.71378-1.6934-5.7367-3.0837-2.2065-4.6623-1.3521 3.6782-2.1404-0.17022-4.8822 1.312-1.8145 6.0549-3.7815 2.1955-6.4847-1.3363-4.1771 2.4449-7.4929 3.9433-1.7846 0.94414 3.195 6.8113 9.3932 4.4596 11.283-3.4307-4.213-2.3084 2.1951-5.4925 2.7773-0.98249-0.70844-1.8442 1.8309-1.8521 1.2977zm7.2394-1.9758c-0.46313-1.4018 3.8052-1.7476 0.15324 0.39688l-0.17104-0.11658 0.01781-0.28029zm8.5401-0.67595c0.86385-5.5098 3.6719-10.845 6.5721-15.596 1.2902-5.6325-5.2106 1.5337-5.7214 4.1009-1.7785 3.293 0.0725-4.6742-0.47076-5.6666-0.3462-3.5704 1.3188-9.7347 1.371-11.101 0.9235 3.4441 2.4489 0.49652 1.033-0.61107 1.7571 0.21483 1.3363 2.6933 1.9772 4.464 0.87584-0.6499-3.7614-1.4748-2.1794-0.3321 1.6197-0.53975 1.7736 2.9337-0.43151 0.98836 1.6432 1.6877 2.1859 2.0541 0.91329 2.8838 1.7152 1.7142 1.91-4.0522 2.7253-3.6733 2.5801 0.0142 0.86426 1.8862 1.26 3.2986 2.3096-0.43339 0.81047 2.3536-0.73541 0.7118-1.056 1.5989 2.852 1.6088 1.0669 4.5861 2.0791-0.88594 1.6064 3.524 2.6565 1.3056-1.7246-2.2334 3.1052 1.4716 2.5749-2.8212 0.13775-2.7005 0.55234-4.6088-1.9219-6.9356-1.7297-1.641-0.49756-1.1147-0.03206-0.9218 2.4609 0.2649-4.1206-3.7447 0.83467-2.8145 2.3467-1.2568 1.0321-2.644 3.5275-2.0044 0.47831-3.3009 3.009 6.2204-0.62018 4.376 0.79299 3.01-3.2804 7.1386 0.71829 8.0536 1.3678 0.52248 0.90792-2.9268 1.984 0.63623 2.3488 2.8448-3.9236 7.0733-2.2967 8.459 0.87947 0.82737 0.84334 3.5945-0.14937 2.4359-1.0007 2.8373-2.3506 1.7484-1.7002 0.63379-1.0265-1.5342-3.6781 0.81613-2.695 2.7754-1.1231 1.0367-4.0937-1.1737-2.221 1.2186-0.84947 2.5176-3.271-0.44805-4.8808 1.6885-0.83819-0.55992-3.1629 1.16-3.159-0.13886zm14.292-8.3671c-1.3911-0.0826 0.56446 1.6018 0 0zm-2.4402-1.0111c1.0773-4.7592-3.9367 2.3428 0 0zm-6.6004-9.9622c-0.61882-2.2665-3.3616 1.138 0 0zm1.3267-2.8701c0.05389-2.1341-1.5176 1.2458 0 0zm6.634-1.3229c1.7618-3.9912-2.4572 2.3161 0 0zm-0.77047-3.7835c-0.62351-1.9564-2.5245 2.4639 0 1e-5zm-35.563 26.9c0.11099-2.1147 0.91144-0.20752 0 0zm17.132-5.9835c-2.4343-4.7636-6.2436-9.0775-7.8403-14.099 0.35584-1.6193 2.52-0.5567-0.29686-2.2175-2.571-1.9602 0.0764-7.2421 1.6316-3.0613 0.04388 3.758 1.2988-2.6994 1.642 0.56607 1.3904 1.1766-0.79003 2.7037 1.8382 0.70407 3.0011 4.4237 4.7362 10.709 4.4104 16.263-0.1894 1.5952 0.23391 5.8169-1.1597 2.2499l-0.16089-0.28962zm-17.044-2.7102c-2.1369-2.9195 3.025-3.1286 1.8364-1.4635 1.5745-0.88013-0.61065 3.2865-1.8364 1.4635zm1.1686-0.0824c0.22509-1.8505-1.8136-3.0547-0.98486-0.11906 0.08444 0.14791 0.88081 0.59352 0.98486 0.11906zm40.911-10.16c-2.1582-4.6566 4.1998 0.46207 0 0zm-1.7938-2.4927c-2.7175-3.6693 3.8507-4.7103 2.253-1.2688 0.47551 0.35975-1.2773 1.7401-2.253 1.2688zm-21.345-0.88042c0.45271-1.9251-0.92759-5.2539-1.5351-5.613-0.10032 3.0043-2.2064-6.1026-2.4466-6.0934-1.5527-2.2011-2.1478-5.3079-2.205-7.2618 0.89831-4.3492 2.9081-0.67324 3.2696 1.7566-0.82596-2.7428-2.4881-2.0394-2.4317 0.78034 2.0388 2.9081 0.89984-2.6156 1.9837 1.4692-1.6942 2.5427 1.7236-0.94642 2.1007 1.593 1.6241-0.0766 4.3034 1.3202 4.4044 4.2367-0.06733 2.9655-3.1346 5.7578-2.5239 1.3713-1.9158-0.76076-2.6547-1.539-1.6658 9e-3 -0.74859 0.87239 2.5635 2.3798 2.7116 3.7478-0.84485 0.15298-1.0734 6.7319-1.6618 4.0043zm-1.6611-10.235c-1.0336-2.0613-0.40406 2.5192 0 0zm2.6477-0.19658c-0.22163-2.878-2.2503 2.6607 4e-6 0zm-3.2719-3.0234c-1.4472 0.3351-0.69086 2.061 0 0zm-3.0481-5.6084c0.59756-2.0068-1.6063 2.4076 0 0zm-1.4143 15.829c0.04607-2.809 2.6783 0.34919 1.2794 0.0462 0.40776-2.0836-1.2909 1.7468-1.2794-0.0462zm19.668 0.26751c0.16677-1.8474 2.1874-1.6217 0 0zm-20.794-1.6437c-0.19371-1.7832 1.3168 0.90783 0 0zm31.113 0.0995c0.64703-2.1137 3.1917 0.92737 0 0zm-29.303-0.66036c-3.1499-2.3871 1.7116-0.70802 0 0zm21.988-1.3286c-3.3396-2.7374 1.9505-1.3697 0 0zm-26.035-0.52462c-0.87518-4.513 3.9902-2.2933 0.56725 0.0396-0.23317 0.13879-0.774 1.1813-0.56725-0.0396zm16.946-0.20571c1.0938-2.6534 2.5321-0.45338 1.8521-0.45579 0.68733-1.9068-1.9316 1.2364-1.8521 0.45579zm-0.60896-1.1834c-1.1361-3.0426 3.7419-1.7145 0.5879-0.25426-0.10941 0.32051-0.08362 0.72766-0.5879 0.25426zm2.8894-0.46932c-0.74688-3.7155 1.3145 1.3058 0 0zm-16.901-0.98588c-0.52174-5.3277 0.96131-1.2865 0 0zm28.394-0.25708c0.27394-2.5816 4.9022 0.12125 5.6198 0.0398-1.4926 0.37768-4.4504 1.133-5.6198-0.0398zm-12.9-0.57746c-3.8914-1.6195 4.4615-1.6977 0.6739-0.57985 0.3613-0.19228 1.4099 1.5721-0.6739 0.57985zm-17.13-1.1929c-0.02534-1.7751 0.59256-4.8309 0.58641-0.62923 0.04918 0.0681-0.26193 1.2464-0.58641 0.62923zm16.84-0.60514c-1.0553-2.2135 1.4679 0.56158 0 0zm-8.5845-1.1585c0.51578-3.3486 2.7373-0.0415 0 0zm25.465-0.85128c-2.9205-2.2414 5.0124-1.5971 0.57886 0.0186zm1.8521-1.1406c-0.89058-0.9725-0.94424 1.3608 0 0zm-17.727-0.23299c-2.1334-0.82084 3.0261-2.3049 0-3e-5zm-10.616-1.1939c-3.0617-4.13 3.4529 0.72392 0 0zm13.499-0.33073c-0.60796-2.498-0.45226-0.37035-2.2125-0.59531-1.7892 1.7544-0.40374-1.353 0.85159-1.1574-0.05756-0.91162 1.9616-2.7554 2.4447-0.69307-1.0384 0.90257 0.0052 3.7392-1.0838 2.4458zm7.1265-3.2411c0.70139-3.4863 0.79156 3.3156 9e-6 0zm-18.366-0.72327c-0.30132-1.6341-2.6552 0.13576-1.6952-2.8893 1.2327-0.74333 2.5856 4.3112 1.6952 2.8893zm3.6698-1.8218c-2.1161-1.1149 1.1048-3.9858 0.4443-0.31877 0.27492 0.25675-0.58282 0.75731-0.4443 0.31877zm-0.43984-3.4445c-1.664-2.3929 2.3205 2.1694 0 0zm-5.3075-0.76532c-2.0609-2.5755 3.2794 1.5464 0 0z" fill="#95bf76"/></g></g></svg>
