<?xml version="1.0" encoding="UTF-8"?>
<svg width="54.883mm" height="57.915mm" version="1.1" viewBox="0 0 54.883 57.915" xml:space="preserve" xmlns="http://www.w3.org/2000/svg"><g transform="translate(-44.936 -179.27)"><g transform="translate(-82.688 19.912)" stroke-width=".26458"><path d="m151.38 216.7c-0.85055-4.9277-2.9158-9.5801-4.9335-14.129-1.233-1.6827-3.673-1.5329-4.5861-3.0606-1.2175 0.92369-1.2922-1.8597-2.8852-0.46281-0.2316-0.51464 0.47987-1.5547-0.79189-0.12446-1.2559-0.30888-2.9686-2.6251-3.9451-3.6326 1.0204-1.6103-1.0452 1.0489-1.7203-0.54979-1.0534-0.19423-1.7236-1.3646-2.3003-0.64447 0.83395-1.2521 3.1026-4.4531 0.28142-3.3465-0.82274-0.57101-3.1111 2.0107-1.8552 0.20651 0.73828-1.2842 1.4264-3.2694 0.54464-4.3482 1.5186 0.25195 0.98388-2.1744-0.21151-1.0854 0.99142-1.722-0.73516-1.2372-0.80757-1.0597-2.0199-2.1142 2.1792-2.3195 3.0982-3.9772-0.87954-0.35502-1.5038 1.1802-1.5157-0.337-1.0897-0.91445 0.0278-1.0962 0.75294-0.23937-1.2527-1.6337 3.7975-0.56008 1.4583-2.0636-3.1608-1.7249 2.1048-0.93352 1.756-1.4489-1.6055 0.0733-1.0137-1.9227-0.0921-0.57352 2.2312-0.54806 1.0802-0.93241 2.892-2.3336-1.9104 0.9266-0.37795-1.4834-2.0634-1.0439 1.4613-0.96684-2.0707-1.3161-0.20129-2.5194-0.34275-1.1167 0.81996-2.13 1.5592-3.0949 0.75172 0.92724 3.1519-0.83669 3.763-0.14579 2.2724 0.50132 0.64054-2.6633 3.3756-2.4846 1.2296-0.35914 2.5517-1.4916 1.2842-1.5285 1.7178-1.3112 5.2297-0.46848 7.4721-1.5916 1.3909 0.28835 2.743-0.68834 2.7668-1.0497 0.99503 1.0542 0.60783-1.1607 2.2409-0.0384 0.74294 0.66828 2.2586 0.77324 0.86768 0.1808 0.11433-2.2075 2.0129 1.5063 2.8948-0.82477 1.5038 0.65096 4.7897 0.73213 4.8402 2.5258-0.66085 0.99311 1.2866 3.4678 1.6088 1.1668 1.3362-1.8352 2.0851-1.4187 3.837-1.1696 3.001-1.5554-2.6626 4.7708 1.5916 3.7513 1.1983-1.0714 1.8338 1.4653 2.3881 1.5628-3.062-0.28327-0.39062 2.8451 1.1787 2.7217 1.1351 0.31803 0.11249 1.0728 0.5557 1.2012 0.28074-0.0884 1.5397 0.84283 1.0945-0.55155 0.81314 1.1764 3.1214 1.041 2.7003 2.246 0.89896 0.33465 1.078 1.9081 1.0231 2.4568-1.1194 0.66696 1.5711 1.8848 0.46772 2.6543 0.26631 0.96097-1.4486 5.1741 0.74526 3.3602-0.83053 2.057-0.74865 4.3991-1.5886 6.0718-1.4502 0.59476-0.83093 3.552-2.1491 2.054-0.50397 0.87359-0.0666 3.6975-1.6881 2.7702 0.84247-2.1988-1.4306 1.1988-0.15199 1.5393-0.30194 1.208-0.4866 1.1765 0.80804 0.71983-1.2323 1.0529-2.4617 3.443-2.7344 4.1168-0.1742 0.10866-2.1726 2.5812-3.4188 1.5983-1.879 1.5363-4.1484 0.70892-6.0594 1.6118-2.5784 0.90861-3.7679 4.033-5.8772 5.7464-2.5765 2.7786-5.257 5.8077-5.9765 9.6514-0.36323-2.7086 1.764-5.1551 3.285-7.2318 3.6968-4.4865 8.5267-8.3716 10.21-14.174 1.2008-4.0184 4.7214-6.6434 6.9614-10.026-1.7966 1.1807-3.8403 4.0681-5.2397 4.6281 0.44947-1.8693 1.9172-5.3198 1.7434-6.2296-2.4744 5.5438-4.0398 11.509-7.3876 16.638-2.2155 4.4362-6.7248 7.0544-9.1166 11.365-1.746 1.2219-0.3925-3.3027-0.2542-4.2536 2.0921-7.7445 5.2029-15.195 6.8177-23.076 0.48814-2.677 1.5393-5.1697 2.6893-7.6088 0.19107-1.601-1.8752 2.9927-1.3042 8e-3 0.42385-1.2811 0.0116-3.2233-0.3165-0.8079-1.36 4.2559-1.9145 8.7526-3.4708 12.936-1.3178-2.9121-2.0737-6.1115-3.5133-8.9926 0.18838 2.2794 1.2911 4.5636 1.8167 6.8502 1.0888 2.6961 1.17 5.5815-0.0195 8.2566-1.4277 4.5862-2.8467 9.1833-4.2077 13.784-1.6766-1.5375-2.0108-5.5014-2.6661-8.0597-0.74528-2.7362-1.693-5.5831-0.70805-8.4063 0.30432-1.7763 1.2961-4.6397 1.1208-5.8123-1.1039 2.0297-1.4646 5.7368-2.5563 6.8972-1.5333-3.8446-2.494-7.9462-4.3088-11.662 0.25376 2.5755 1.5147 5.1751 2.1496 7.7723 1.5633 5.5262 3.4057 10.973 4.9399 16.504-0.41062 2.9018-2.1782-3.4751-2.8277-4.5339-2.2728-5.4484-5.0629-10.679-7.5639-16.028-0.92914-0.94957 0.75382 2.7453 0.96329 3.4637 1.9152 3.6218-2.0155-0.72717-2.2891-0.24591 2.0437 2.1567 4.4922 4.071 5.243 7.0937 1.6399 3.9017 3.812 7.5373 5.2172 11.541 1.0676 2.9136 2.4108 5.8277 2.6676 8.9512 0.14638 0.40805-0.67871 1.0446-0.36932 6e-3zm6.8696-10.313c0.77764-1.0154 3.9816-3.3802 3.0558-3.8743-1.9057 0.23305-3.9296 0.0614-5.7211 0.75922-1.0765 2.7572-1.6471 5.7191-1.8738 8.6713 1.2569-2.0488 2.8138-3.8855 4.5391-5.5563zm-4.7567-2.1828c1.2609-1.8152-0.62698-1.4345-2.0508-1.5511-2.4008-0.32661 0.66611 4.9524 0.65529 5.7191 0.51775-1.3699 0.87175-2.7985 1.3955-4.168zm-4.0976 0.11834c-0.11259-1.4401-1.741-2.3163-0.58652-0.33101 0.23042 0.74491 1.2399 3.1466 0.72969 0.8633l-0.14324-0.53229zm23.834-4.9744c1.0106-2.3949-2.6743 1.029-0.37374 0.29707zm-34.972-1.4656c0.0445-1.8689-1.4479 1.561 0 0zm37.853-5.9226c1.2876-1.6342 0.44056-1.3247-0.55649-0.3542 0.0868 0.22542 0.92646 1.0244 0.55649 0.3542zm-43.107-9.543c-0.20264-2.0629-0.97503 0.21233-1.0518-0.33406 0.0789-1.1651-1.8364 1.5544 0.3047 0.60119l0.34103-0.0623 0.40605-0.2048zm46.092-8.8066c-0.0333-1.1555-2.0538-2.2369-1.3472-0.26307 0.0668 0.19047 2.4287 0.97252 1.3472 0.26307z" fill="#d5e5c9"/><path d="m151.4 215.95c-1.189-4.9373-3.1827-9.6765-5.3282-14.266-0.69032-1.359 1.8623 2.4853 1.8539 3.4321 1.3449 3.5603 3.0832 7.0819 3.6246 10.869l-0.10471 0.29686-0.0457-0.33156zm2.3968-0.63064c0.11811-1.1168 2.1833-3.9888 0.88627-1.4602-0.28885 0.37416-1.2672 3.701-0.88627 1.4602zm-0.44808-4.3686c0.10657-1.1673 0.76805-5.2381 1.0591-4.3136-0.14753 1.5068-1.3612 5.2884-0.5037 5.2806 1.4283-2.8656 3.7642-5.1085 6.2684-7.042-2.3917 2.3432-4.6126 4.853-6.5258 7.5982-0.6644 0.48905-0.2588-1.2685-0.29798-1.5232zm2.4081 0.6251c1.6219-2.4614 3.939-4.4045 5.812-6.6849 0.71249-0.86718 3.3401-3.5602 1.4058-1.2173-2.3753 2.8797-5.1005 5.4623-7.4205 8.384l0.20273-0.48175zm-3.9785-2.4772c-1.317-3.995-1.8296-8.1815-3.137-12.175-0.37389-3.457 1.4247-6.7259 1.6532-10.126-1.5871 1.7487-1.4755 5.171-2.7341 7.3053-1.1308-3.8289-2.4126-7.7818-4.0009-11.508-1.2997-1.6344 0.37468 2.5753 0.49232 3.2942 1.7521 5.3871 3.2559 10.862 4.9314 16.264 0.47681 1.4298 1.7982 4.5311 0.9725 5.1763-1.7941-3.9696-3.526-7.9822-5.2335-11.994-0.99259-2.4008-2.5287-4.634-3.5488-7.077-0.33259-1.0999-2.4091-4.7569-1.364-1.5141 0.13267 1.2923 3.1543 5.8523 0.32361 3.2333-0.78899-0.94056-2.5168-1.6241-0.86132 0.0299 2.0068 1.9524 3.887 3.9832 4.725 6.7188 0.85366 0.92458 1.7684 4.4841-0.14611 3.3841 0.71426-1.9086-2.5428-0.73731-3.5318-1.587-1.0346-0.72447-1.176-1.8235-2.3143-2.2182 0.67022-1.5604 0.48639-2.287-0.58579-3.3879 0.67845-0.62233 2.5988-0.18544 1.0082-1.1895 2.3631 0.17384-0.99522-0.64097-1.1409 1.0205-0.2966 1.4149-3.9404-1.3871-3.9763 0.59395 1.2478 0.88913 0.63285 1.0816 0.24189 1.4547-0.60597 0.10739-1.8572-3.4599-0.0439-4.3219-1.3576-2.8116 3.5331-1.5858 2.7656-4.2198 1.408 0.16918 3.3504 0.31478 2.0208-1.7412-0.91597-1.6078-1.9134 3.2992-2.0937 0.2634 0.47378-1.6445-1.8494-1.3433-0.44177-0.78997-1.3231 0.34587-2.1363 1.8494-2.0157 1.9462-1.4386-0.4771 0.12402 1.5673-1.5944 1.4102-0.84913 0.98593 0.81638-2.1912-0.65964-0.27524-0.92554 0.33961 0.90254-1.232-0.35406-1.5699 1.7259-1.6869-0.0901-0.46022-0.73483-1.451-0.86839-2.0409 4.0604 0.14788 1.5345 1.2272 0.37547 2.137 1.8424-0.90276 1.3712-1.3993 1.6127 1.5319 1.1873-2.5709 1.8267-1.5199-0.83087 1.179 1.3131-1.2021-0.64901-0.46898-0.89123-0.0421-4.0583-1.003-2.1067-1.9788 0.33372-1.4674 2.0809-0.0195 1.6623-1.0954 2.0462 4e-3 2.5486-1.1264 2.1897-2.3416 1.4746-1.1969 2.5169-1.0929 2.0048-3.4862 0.26887-1.3786-1.5587-5.5684 0.48944-3.9219 1.1332-0.38266-1.212 1.0881 0.40301 1.134-0.64263 0.23875 2.0467 2.8155 0.9642 0.34478 1.0972-1.3601 0.2432-3.8008 1.5722-4.7454 0.15985-1.6399 2.1889 0.23057 2.3675-1.7812 1.6834-0.2629 1.4362-1.1693 1.7246-1.2778 1.7848 0.92337 2.0127-1.687 3.4496-0.22287 0.96611-0.76123 2.8529-0.042 0.84194 0.3345-0.92403 1.0709-1.4014 0.5848-1.0919 0.0339-2.4255 0.83881 0.80176 1.764 0.71615 2.5082-1.6861-1.7085-0.70244 1.0841 0.50723-0.0356-0.48631-2.1249 1.6302 1.8333 1.533-0.92076 1.2159-1.7097-0.36763 2.1895 1.0088 0.14176 0.78792 0.18936 0.47043 0.80881 1.5187-0.0205 1.5073 0.64088 0.84538-1.9504 0.54632-0.23434-0.54499-1.8324-0.87003-7e-3 -1.1597-0.41198-1.4686 0.11701 0.82311-1.3267 0.48755-1.8729-1.6859 2.7556-1.1268-1.6239-0.53182-0.62716 0.53555 0.74127 1.8012-0.8005 2.6831-0.13438 1.9359-0.33391-2.763 0.3838-0.57134 1.2382 0.41342-0.976 1.8646 1.3222 0.0294 1.0285 0.48713 1.5895 2.226-0.24855 3.3033-0.17971 0.64405-0.97563 1.4343 0.8044 1.6168-1.0709 0.64124-0.27839 1.4822 1.4131 1.1055-0.58195 0.86474-0.014 2.5776 2.7287 0.56648 2.6167 1.3612-1.6141-1.3613-1.166-1.3727-0.018-0.53514-0.68354-2.6278-0.28853-1.3193-0.16116-0.12151 0.60812 0.75574 1.5622 1.4528 0.39465 1.8523-0.58215 1.8592 1.5322 2.0945 2.6886 1.2137-0.19763 2.493-1.0702 0.40196-0.61948 0.5074-0.68697 1.0278-1.1603 1.5399-0.70978 0.20506-0.61954 1.505-2.2382 1.1516-0.71631 2.0218-0.55038-1.5645 1.4288-1.2658 2.5349-0.8918-0.95407-0.94741 1.2561 0.39542 1.5636-1.8422 0.91185-0.50636 0.43795-0.14991 1.5717-0.17782 0.71779 1.2788-0.37718 1.2784 0.84567 0.9595-0.63786 2.4916-0.8834 2.9874-0.2767-1.091-0.74965-2.0054-1.163-0.10992-1.4359 0.64073-0.77422 3.5633-1.4921 1.3262-0.20143-1.3136 0.38044 1.192 0.9167-0.83625 0.78518-1.0505-0.22742 0.95512 1.4796 0.6583 0.88916 0.50606-0.80274 1.2917 0.43214 1.3849 0.1913-1.6316 1.5914 2.6733 1.4265 0.41085 0.94709 0.49428-1.9347 2.5368 0.2985 3.7949 5e-3 -1.0609 0.13929-4.1023 0.42244-1.3559 0.52842 1.2142-0.0949 2.3134-0.23944 2.0267 1.5926-2.2647 1.1918-0.27542 3.5179 1.213 2.5251 0.32151 2.032 1.9701 3.969 1.8114 5.2516 1.37 1.0256 0.41535 4.2954 0.40246 4.8962-0.81312 0.23211-0.75052 2.023-2.2085 0.39451-0.22775-0.10806-3.0776 0.71158-1.1526 1.562 0.28788 1.2478-1.7434 2.191-0.79616 0.40312-1.9722 0.68647-0.0115 4.1626-0.87327 5.6478 0.24302 1.7583-0.50076 2.8173-2.4206 3.0003-0.45424 0.76419-3.2383 3.099-1.9046 1.8257-1.7956-1.028-4.2454 0.16844-5.592 0.2335 1.076-2.3931 1.9334-4.8912 3.0413-7.2642 1.6365-2.725 4.2664-4.7801 5.7752-7.5475-1.7032 0.81173-4.0435 4.4479-5.0081 4.2587 0.51053-1.8468 1.6347-4.6113 1.5606-5.9848-2.5347 5.1695-3.6482 11.061-7.17 15.715-0.59019 2.1071-4.8965 0.83883-4.613 1.7676 1.5063 1.192-2.3026 1.4103-1.1788 0.10016-2.5114 1.8557-0.73644-3.3737-0.29623-4.4769 1.9873-5.5171 2.8575-11.356 4.7228-16.901 0.74053-1.1556 2.2194-5.1268 0.23219-2.2688-1.0858 1.6076 0.96512-5.1782-0.44978-2.0694-1.5068 4.2923-2.0097 8.8864-3.5792 13.145-1.1014-1.5967-1.5737-4.4617-2.5832-6.4865-0.18527-1.2012-1.7248-3.2443-0.87564-0.74714 1.007 3.2008 2.1606 6.4314 2.5848 9.7613-0.91089 5.0077-3.0432 9.7072-4.2001 14.663-0.30526 0.38584-0.81156 4.0997-1.4712 2.9694zm1.4178-3.7439c0.73577-1.6388 1.1906-3.4431-1.275-2.8804-0.50416-0.37354 0.68723-1.5441-1.1404-1.0408-0.81573 1.0927 0.30698 4.1799 0.90796 6.1929 0.60006 2.765 1.1154-2.0152 1.5074-2.2717zm-3.6655-0.70393c-0.0197-1.5009-1.9177-3.562-0.85032-0.84038 0.37904 1.3556 1.849 4.2861 0.95591 1.2314zm4.0317-2.8213c1.171-0.22825-1.3327-1.3356-1.2824 0.39057 0.34491 0.0101 0.99698-0.93012 1.2824-0.39057zm-12.412-3.9882c-0.21858-2.2641-2.4441 1.0028 0 0zm-1.0484-2.0656c0.96569-1.3124-2.0737 0.44057 0 0zm34.198-2.552c1.932-2.5856-3.3369-0.77075-0.6111 0.31169l0.33372-0.0512zm-37.284-12.612c1.8572-0.86415-0.88988-1.3084 0.85991-1.8744-0.59699-0.34037-2.6885 0.45251-2.0662 0.7897-0.66476 0.6753 2.1744 0.1576 0.0818 0.91268-1.1849 0.2223-2.8256 1.3767-0.60915 0.97649 0.6176-0.16336 1.2241-0.41256 1.7336-0.80451zm2.712-6.3399c-1.017-2.1246-1.09 1.073 0 0zm1.8813-3.7975c-0.95212-2.1208-0.80814 1.6765 0.0797 0.42615zm2.5528-1.7911c0.75541 1.4185 0.57108-0.89449 1.5297-0.7764-0.98276-0.42206-2.6841-0.78982-1.6487-1.861-1.3163 0.48848-2.1231 0.27735-1.6693 1.4468 1.3689-0.0496 0.30718 2.3788 1.7884 1.1906zm2.9622-0.9116c0.37453-0.85119-0.84329 0.44569-1.2336-0.32326 0.47589 1.3112-0.44925 1.5406 1.2336 0.32326zm5.214-0.52787c0.73872-0.96704 1.9108-2.0587 0.11296-0.68354-0.73606 0.26781-0.39926 2.0748-0.11296 0.68354zm9.8792-2.0948c-1.4954-1.3282-1.9026 1.6547-0.33384 0.71475l0.23577-0.39827 0.0981-0.3164zm-17.198 0.35925c-1.4712-1.0748-1.8338 1.0314 0 0zm0.26458-0.94166c1.8492-1.2338-2.6834-0.38077-0.31811 0.39668l0.22638-0.13848zm15.796-1.1465c0.79221-1.8288-1.6286 0.98548-0.24451 0.31107zm-6.3662 41.511c0.18133-1.622 1.158-2.8405 0.34554-0.45618-0.0922 0.43202-0.66302 1.98-0.34554 0.45618zm6.6555-1.8341c1.9176-2.437-0.68746 2.0651-0.25286 0.38372zm12.415-3.9913c1.0437-1.5834 0.34306 1.3124 0 0zm-41.664-7.6022c0.23569-1.2351 1.9585-2.8632 0.68815-0.7219-0.0146 0.0209-0.86061 1.4221-0.68815 0.7219zm-2.5603-2.1539c-0.1086-1.6855 2.4628-2.2966 0.75612-0.32701-0.0579 0.0129-0.54455 0.63856-0.75612 0.32701zm49.858-11.403c-0.52171-0.99176 1.7278 0.59535 0.62841-0.6784-1.158 0.42682-2.1423-3.404-0.21151-1.8302 0.77607 0.28191 2.377 4.6047-0.4169 2.5086zm-12.806-6.8372c-0.22803-1.6336 2.8835-5.1008 3.7246-4.0624 1.2603 1.9548-2.6385 3.1305-3.7246 4.0624zm-3.2461-5.9812c-0.57552-1.7333 1.3134-0.62407 0.11891 0.37976l-0.14405-0.11156 0.0252-0.26822zm6.6462-0.48012c-1.114-0.67644-4.2822 0.50532-3.0547-1.0308 1.2479 0.85021 1.544-1.9923 1.6209 0.29173 0.10313-1.5616 3.335-1.3285 2.3445-0.78272-0.10996-0.84046-0.56952 2.804-0.91064 1.5217z" fill="#c7ddb6"/><path d="m153.47 212.44c0.72121-0.92578 3.177-4.8873 1.4034-1.6549-0.31382 0.45022-1.1092 1.8434-1.4034 1.6549zm2.3594-1.0192c0.49186-1.215 2.6486-2.576 0.71837-0.61948-0.0848 0.0183-1.1873 1.5116-0.71837 0.61948zm4.4046-4.9609c0.72631-0.83841 3.9452-4.208 1.79-1.6786-0.8672 0.94474-3.0564 3.4433-3.3033 3.3765 0.48864-0.57979 1.0017-1.1384 1.5133-1.6979zm-3.1771 1.2825c0.91803-0.87896 4.1342-3.8944 1.7198-1.3942-0.38204 0.57812-4.1722 3.8886-1.7198 1.3942zm-7.3475-0.62102c-0.60526-1.4605-0.1876-1.1685 0.35593-0.19844-0.32822-1.3211 0.0288-1.9198 0.21875-0.0735 0.13245 0.63602-0.32012 1.0994-0.57468 0.2719zm3.2785-1.1245c0.0752-1.169 1.2135-2.5719 0.36526-0.52917l-0.25427 0.53744c-0.12589 0.23394-0.0457-9e-3 -0.11099-8e-3zm-2.6439-1.9591c-0.33499-2.6934-1.1163-5.2947-1.9076-7.8863 0.48274-3.1538 1.4367-6.2263 1.9828-9.3509-1.684 1.415-1.7574 4.8293-2.7183 7.0236-1.5221-3.7764-2.4762-7.7988-4.234-11.492-1.2996-0.81408 0.51547 2.9026 0.65088 3.9081 1.6504 5.0914 3.0929 10.249 4.6242 15.374 0.64998 1.0499 1.2597 4.2973 0.38119 1.48-0.49083-1.4435-1.6332-0.83637-0.83053 0.28377-1.0331-2.2777-1.9673-4.6516-3.096-6.9135-0.90509-2.9155-2.8613-5.3484-4.0036-8.2048-0.16734-0.92735-2.5451-4.9411-1.5749-1.8255 0.59795 1.5744 1.2427 3.1304 1.8666 4.6946-1.1691-0.51518-2.3095-3.0597-2.9915-2.3948-0.88244 0.981 4.4259 3.1284 2.1701 4.8277-0.43794-0.62361-0.11184-1.4857-1.4283-0.61558 0.66361-2.7536-2.0296-1.0683-2.2625 0.5292-0.96905-0.62516-2.1914-1.2113-2.9518-0.96881 1.9529-0.21497 1.7745-3.1769 0.26398-0.86625-0.56794 0.45509 0.20161-1.3827-1.0648-0.52769 1.9022-0.35836 0.19583-3.9796 2.0162-2.0484 0.3962-1.0232 1.5733-0.30871 1.298-1.5875 0.64171 1.6454 1.1449-1.1457 2.1054-1.4355 0.30462-1.2726 0.51859-4.4349 0.033-4.6085-1.1337 1.1432-0.49575-1.8653-1.4927 0.34282-2.2202-0.20494 1.3563-1.5885 0.35926-2.7119 0.54527-0.9929 0.64256-5.3901 1.24-4.6393 0.51637 0.63278 0.23963 1.8826 1.1147 0.24256 1.8963-0.35184 1.5621-2.5707 0.59757-1.5438 0.28588-1.4563-2.1163 2.0453-2.0225-0.64304-0.51432-2.8391 1.1634 0.71049 2.4626-1.0049 1.0125 0.6815 1.0405-0.58541 1.3545-0.17164 0.82203-1.3767-1.7014-0.70993-1.4069-2.7242-0.58473-1.5615 0.85493-3.1 0.85026-0.75784 0.21484 1.3636 2.4614 1.4082 2.1694 2.1079 0.88932-0.4245 3.5929 2.772 2.8731 0.0935 0.96241 1.0843 2.8577 1.4056 1.686-0.71487 2.1096-0.48706-2.9583-0.61819-1.0845-1.6664-1.0958-1.1242 1.557 0.65573 2.1383-0.78616 0.9028 7e-3 1.1194 0.62373 2.0563-0.27388 0.80078 3.0323 3.1247-1.2921 4.5587-1.9967 2.1718-2.0697 5.5903 1.339 5.5146 3.3127-0.32487 1.8274 3.0197-2.2394 2.0768 0.81931 0.16086 0.25429 1.7146 0.50594 0.37226 0.7984 0.1285 1.608 1.3084 0.48237 0.89868 1.9511 1.2558 0.21592 2.1439 1.4924 2.5582 0.098 1.5153-0.75992 2.8306 1.878 1.087 0.64664-0.11667 1.8109 1.3965 0.0984 1.6179 0.5763 1.0968 1.1127 5.171-0.51625 5.4696 1.5826 2.6211-0.81208-1.781 1.5566-0.66191 3.1518 0.069 1.1768 0.51207 3.5375 0.80376 1.1711-0.50186-1.836 0.87882 0.31879 0.69301-1.434 0.19734 1.4387 2.0751 0.23466 2.141 2.3924 0.23038 1.2089 0.59392 3.7801 1.2503 3.527 1.3858 0.46938-1.2442 2.8913-1.0491 0.95737 0.65788-1.6184-2.7809-2.0805-0.43328-0.52784 0.37435 0.62018-1.7427-0.54291-0.35092 1.0608 1.0922 1.5193-1.6603-0.73664-0.0189 1.2217 0.66272 0.3396 2.6487 0.60613 2.2269 1.5385-0.74916-0.80637-1.5321-1.1353-0.71877 0.21265-1.6195-0.0837-4.2304 0.15732-4.3851 1.876-0.51494 0.3126-0.77425 3.0595-2.3674 2.939-0.0477 2.2031 3.3873-0.6231 2.188 2.33 0.1182 1.5302 0.20444 2.8234-1.8254 3.2965-1.5092 0.89903-1.8655 3.082-3.7361 1.7022-1.5357-0.50752-5.3565 2.0232-3.293-1.2046 1.1409-2.6474 1.7906-5.5808 3.9001-7.6975 0.9713-1.4925 3.993-4.0524 3.659-5.0478-1.7555 1.2546-3.1128 3.2746-4.7935 4.4119 0.45028-1.6582 2.151-5.65 1.5562-6.225-2.1561 5.0511-3.6865 10.406-6.4845 15.162-1.2938 2.0506-4.2523 1.426-5.6094 2.1399 1.8486 1.4878-0.29557 0.78442-1.0859 0.26574-1.969 0.36032 0.0457-4.2604 0.47312-5.6946 1.789-5.1911 2.5913-10.665 4.3745-15.848 0.57967-0.94495 2.5706-4.8462 0.42652-2.5985-1.2736 2.5291 0.55102-4.889-0.75716-1.6493-1.3505 4.3621-2.1391 8.891-3.55 13.227-1.2526-2.8611-2.0622-5.9384-3.4694-8.7261-0.27802 2.1874 1.329 4.7333 1.7108 7.0958 1.1406 2.6763 0.85448 5.5357-0.11069 8.2115-0.80413 1.5702-0.89897 5.5185-2.8067 5.364-0.96822-0.53169-1.3296 2.1176-2.2302 0.31662-2.5121-0.96499 0.33992 5.9379-1.0434 2.7499zm23.779-8.514c-0.76239-1.1257-0.92562 1.3928 0 0zm-38.785-5.9695c-1.1261-0.66194-1.4261 2.6407-0.10387 0.34587l0.10372-0.20806zm17.946-20.283c-0.33743-0.99866-1.8778 0.0522-0.34426 0.46506l0.19762-0.16006zm0.61889 34.014c-0.52534-1.0966 0.11193-1.5634 0.31016-0.1106 0.11976 0.20048-0.81523 1.1769-0.31016 0.1106zm-9.7631-3.341c1.4021-1.4187-1.831-1.0595-2.5595-1.7745-1.0497 1.0304-2.9495-1.2407-0.78886 0.13691 1.9591-2.1668-2.7989 0.11235-1.0621-2.0212 1.8164-1.8483 4.3039-0.33369 4.879 1.9453 0.99534 0.75544-0.32569 2.492-0.46864 1.7135zm-2.175-4.8129c-2.6128 0.14198 1.4073-3.041 0.26012-1.3049-0.5592 0.52887 1.0039 0.15002-0.1071 1.1383 1.091-0.79701 0.53674 0.9325-0.15302 0.16657zm-8.6935-1.1711c-2.9048-3.9639 3.1316 2.3771 0 0zm4.5154-0.57473c-0.26499-1.675 2.184 0.47114 0 0zm-1.4993-8.9209c1.3008-1.8424 0.8926 1.2637 0 0zm0.52916-7.3069c0.44878-0.21225-1.3611-0.80087 0.21359-0.72754 1.5344-1.5346-0.2995 2.0378-0.21355 0.72754zm43.049-0.7074c-0.0205-0.11816-1.7507-0.85013-0.38901-0.92386 1.5902-0.51769 0.29914 2.3314 0.38901 0.92386zm-12.707-6.6675c0.70659-1.7449 1.0123 0.4429-0.0155 0.36381zm-23.259-2.7288c0.85547-0.93562 1.7357-2.7043 2.8388-3.1145 0.32242 0.0879-0.99235 0.6469-0.92896 1.6407-1.7022 1.7756 1.7351-0.3324 2.0772 1.1233-1.4432-0.34476-2.5116 1.3415-3.987 0.35057zm20.766-0.10351c0.73291-1.9777 1.4358-0.58841-0.19072 0.27854l0.19072-0.27858zm-22.028-0.93352c-2.4427-0.30947 1.0226-1.2826 1.01 0.0637-0.24102 0.15894-0.93573 0.4336-1.01-0.0637z" fill="#bad5a6"/><path d="m159.71 207.05c2.0856-2.1262 0.21411 0.32602-0.90114 1.0583 0.22694-0.41023 0.59518-0.71233 0.90114-1.0583zm-12.038-5.1866c-1.0594-2.7053-2.4109-5.3121-3.4498-8.0137-1.0759-1.854-2.1396-3.8409-3.1186-5.9058-0.34527-1.1459-2.465-4.3653-1.5007-1.4305 0.37904 1.3823 3.0221 6.0198 0.25852 3.1736-0.90858-1.1902-0.75735-1.9124-1.822-1.3147-0.74947-1.8058 1.0717-1.8526 1.3642-3.9027 0.0286-0.51767 0.73752-3.5332-1.1493-3.3093-0.87017-1.3774 1.2027-1.5701 1.0397-2.816 0.23545 1.7493 1.0387 0.58298 1.2884 0.36249 0.39024 1.4642 0.86636 2.6078 1.8757 3.5708-1.5992-0.64332-0.46988 0.6634 0.48964 0.6935 1.5903 4.1612 2.6158 8.5344 4.0426 12.761 0.24582 1.9792 2.0933 5.2606 1.3528 6.4616-0.16822-0.0582-0.62084-0.0459-0.67116-0.33056zm10.054-0.50192c-2.7306-1.1425 0.38458-4.4451 0.49842-6.6392 1.8423-4.9567 2.2514-10.337 4.2743-15.223 0.94681-0.97778 1.6155-4.4997-9e-3 -1.9107-0.73193 1.1238 0.24111-2.1742-0.13172-2.6872-1.1785 1.7783-1.602 5.0242-2.3237 7.4053-0.74642 1.7446-0.71336 5.7552-1.9823 6.2789-1.0989-2.643-1.6483-6.1777-3.4393-8.1704 0.44709 3.117 1.8727 6.0624 2.4521 9.1827 0.26347 1.0808 0.67349 2.1653 0.11035 3.2246-0.75762 2.3757-1.2251 4.9073-2.4874 7.0728-1.6323-0.16708-2.5719 2.4056-4.3088 0.90067-0.4918 1.0475-1.1234-2.4345-1.5495-3.3585-0.73946-1.4172 0.14781-2.9479 0.26641-4.4157 0.0468-1.8023 2.048-5.6351 0.93695-6.0965-1.0731 2.175-1.6608 4.6469-2.3189 6.8962-0.69363-2.6761-1.8414-5.1639-2.5027-7.8477-0.82291-0.95705-1.4577-4.0543-1.9964-4.5126-1.3768 0.59397-1.0361-2.318-2.0364-3.115 0.85604-0.70659-2.8077 0.0808-0.50523-0.77089 0.78263-0.52968 4.7013-1.0883 2.1113-2.166-1.359 0.84347-0.86569 0.97139-2.5867 1.3123-0.70228 1.0288-1.5342 1.6258-1.7503 0.63277-0.0951 0.0668-0.0805-1.017-9e-3 -1.0645 2.039 0.19407 2.7395-1.2777 4.7291-1.6061-1.3729-1.1584 0.0361-1.4429-1.1259-2.9404-0.21698-1.1729 1.7576 1.7704 0.62029-0.52319-0.0408-0.4504 0.53833-0.0671 0.19534-0.93215 0.9292 0.16231 2.1225 0.66869 0.84587 1.1917 0.59749 0.75082 0.41965 1.2786 1.2703 0.21584 1.3175 0.88637 2.305 1.508 3.6742 0.24939 1.6183 0.18877-0.42428-1.3084 1.3698-0.87831 0.24292-0.76031 3.5585 1.7486 3.0923-0.67696-1.1798 1.5866-2.7268-0.73319-0.7255-0.0676 2.0292-0.30847 2.338-4.4153 4.4185-2.4474 1.238-0.45429 0.27974-2.9019 1.0362-0.75198-0.45772 0.80008-1.4959 2.7899-0.22608 1.413 0.10908-1.3487 3.1298-1.9912 1.1715-0.68304-2.2206 1.8686 2.4973-0.96717 2.7198-0.3327-0.36327 1.2564 1.9406 0.94932 0.28322 1.9086 2.8441-0.79083 3.5914 4.1657 6.7026 3.0705 0.26708 0.62185-0.86443 1.5064 0.91071 0.81431 1.9974-0.30475 1.5844 0.28932 1.6831 1.5599-1.5858 0.40797 3.4814 0.42814 2.2966 2.3128 0.91734 0.83284 0.42212-1.2285 1.5435 0.0488-0.82898 0.96635-0.83442 3.478 0.31651 2.2454-1.5434 1.5227 1.5415 3.8408 2.3615 3.982-0.14638 1.9091-2.604 0.71872-2.9427 0.97502 1.0993 0.57185-0.18293 3.0196 1.0457 1.2091 0.38282 1.7235 1.7896 0.39069 2.3252 1.6576-1.0526 0.11373-3.8553-0.83491-1.8939 0.32404-2.2965 0.31789-0.88375 4.5372-3.2391 4.829 0.0907 1.6638 2.8234 1.5682 1.4853 2.6644 0.99521 2.3193-1.7796 3.2063-3.3786 4.5698-1.8271 0.19186-4.5439-0.55124-5.4926 0.68104 1.0083-2.3797 1.8162-4.8775 2.9737-7.1703 1.7015-2.7034 4.1752-4.8626 5.7382-7.6459-1.7408 0.67161-4.203 4.5213-4.9897 4.1261 0.40396-1.4542 2.0906-5.4802 1.2206-5.5718-2.2574 4.6697-3.3345 9.8842-6.1158 14.295-1.0475 2.6033-4.656 1.6987-6.0636 2.9566 1.747 1.0306-0.26134 0.81597-0.54858 9e-5zm13.369-3.3189c-0.35506-1.1476-0.62466-2.8535-0.76435-0.47557-0.13428 0.54404 0.43812 1.1772 0.76435 0.47557zm3.0337-2.502c-1.3846-1.8243-1.125 1.593 0 0zm1.5893-12.275c-1.5448-1.8917-1.0165 1.1762 0 0zm-29.17-2.0127c-0.2941-1.1838-1.8296-0.18911-0.32645 0.14579-0.0652 0.30266 0.68897 1.0941 0.32645-0.14579zm-2.2247-2.3151c-1.4182-0.78345-2.9638 0.73177 0 0zm0.70336-1.023c-1.4703-0.50691 2.3451-1.8557-0.1427-1.2659-1.4949-0.23971-1.467 2.8181 0.1427 1.2659zm1.0956-2.0858c0.13829-0.64941-1.8586-0.32864-0.33512-1.387-1.67 0.1521-1.8706 2.0403 0.0296 1.4342l0.30554-0.0472zm-0.37406-2.3882c-0.67592-1.9259-1.1743 2.0378 0 0zm24.678 0.62182c-0.91912-1.2284-3.0189 0.39258-0.56648 0.0769l0.29445-0.0223zm-9.8402-2.7076c-0.34781-0.54096-4.059 0.66431-1.1737 0.44672 0.3889-0.091 0.91071-0.0933 1.1737-0.44672zm-17.123 26.596c-1.3594-0.13905-2.3278-0.26488-3.4695-1.0387-1.4395 0.59518 1.4216-2.5971 2.5062-0.97797 1.3612-0.78055 3.0017 3.6416 0.96337 2.0166zm-2.3452-3.6511c1.0146-1.4372 0.72023 1.167 0 0zm-3.235-1.0083c-0.77903-1.1415 1.675 0.14637 0 0zm-1.3898-0.36873c-1.6516-2.8543 1.8328 1.0746 0 0zm0.88818-1.1866c0.8413-1.3034-1.6235-2.6284 0.0273-3.0613 1.1298 1.2042 3.4235 2.2172 3.6597 3.7609-1.7402 0.22501-2.7311-2.1638-3.9788 0.13779 0.0973-0.27913 0.1945-0.55826 0.29175-0.83739zm-1.6158-0.82635c-0.96836-0.9155 0.90724-4.1108 0.66133-1.2693-0.32215 0.31838-0.18758 2.8154-0.66133 1.2693zm42.865-3.4326c-0.60148-1.9258 1.8957 0.88712 5e-5 -3e-5zm-2.0527-4.8458c-1.8452-0.45264-0.35069-2.4906 0.26282-1.1996 0.0554 0.96141 1.0727-0.85613 0.51237 1.0416-0.071 0.32376-0.53968 0.42984-0.77519 0.158zm-0.26926-2.4571c-1.1132-1.2777 0.91841-2.778-0.0261-0.90883 0.16138 0.17881 0.91901 1.5967 0.0261 0.90883zm-2.004-3.9952c-0.8551-2.409 2.075-0.28451 0 0zm-2.6876-1.6734c1.504-0.56924-1.1395-1.1152 0.97131-1.1493 1.3458-0.86613 3.6746 1.5817 1.5422 1.1493-0.86761-1.1036-1.5183-0.55021-2.3045 0.21785l-0.20902-0.21785zm-30.021-4.7451c-1.295-2.7594 1.7171 0.92293 0.24442 0.32939zm8.7749-0.0703c-0.74994-1.8549 1.9694 0.91923 3.9e-4 1e-5zm12.706-1.052c-0.11095-1.4863 0.92479-0.85558 0.4347 0.3112l-0.43468-0.3112zm-15.405-0.35026c-0.90009-0.64313 1.6704-0.56377 1.9341-1.4228 2.9581 1.6728-0.76283 1.9527-1.9341 1.4228zm8.7312-1.0427c-0.70714-1.0697-2.0173-0.64579-2.1083-0.0598-0.53173-1.8061 4.1497-4.1848 4.0653-2.5845-1.9222-0.23047 0.68534 2.3156-1.2503 0.74214-1.5108 0.19151-0.96299 1.3705-0.22195 1.931-0.0208 0.26235-0.59087 0.36542-0.48469-0.0289z" fill="#a8ca8f"/><path d="m147.74 201.43c-1.8066-1.9683 2.1379 0.51004 0 0zm3.3023-0.56404c-0.62078-1.5048-0.81368-0.42677-1.1249-0.34563-0.98955-2.3805-1.6366-5.0314-0.78986-7.5575 0.16699-1.8634 2.0503-5.2182 0.87823-6.1778-0.36367 1.4312-2.1791 4.6433-2.1483 1.2965-1.1194-0.46748-1.0076-0.49773-1.9632 0.22587 0.57407-1.7694 4.1146-1.8516 4.5875-3.6845-0.80825-0.85435-1.7294-1.2318-0.87177 4e-3 -1.2865 0.98735-0.68141-1.3977-2.2218-1.191-1.1202-0.79789-2.4825-0.72109-0.51298-1.2952 1.4011-0.69061 3.5498-0.81533 4.6264-2.1363-1.8135-0.8278 3.3036-1.7628 0.78042-1.816-0.068 0.91407-3.7314-0.96924-2.5976 0.7377 0.54739 0.41893-2.2081 2.3239-1.1429 0.63691-3.0054-0.0677-0.0393 1.1218-0.0126 1.7636-1.4225-0.72875-3.8348-1.8023-2.0605-3.0832-2.2914 8e-3 1.1657-0.10323-0.0991-0.86251 1.6149 0.0186 1.6256-1.6454 0.98184-1.6053 0.59367-1.1914-1.7364-0.0338-0.28653-1.5536 1.0053-0.88056 3.0146-1.3568 2.0724-2.1295 0.88433 0.21403 0.85909 1.7861 2.3169 0.63207 1.4862-0.40517 1.3969 1.7158 2.9283 1.5772-3.1427-0.52463 1.4698 3.1228 2.5008 1.1449-0.0726 0.7723-3.4065 1.8472-1.1407 1.3506 2.2827 0.75093 2.2833-2.3023 4.0975-1.5181 1.9702-1.0644 2.6821 0.10421 1.3556 1.7555-1.4811 0.4752-5.1984-0.11754-5.4634 0.65369 1.2209-0.12898 2.8927 0.20011 0.72049 0.57903-1.4518 0.31428-3.4934-1.3548-2.4488 0.53517 0.89483-0.17145 4.7202-0.1115 1.9144 0.31881 1.4812 0.80102 2.7711 0.37377 2.87-0.63425-0.13197 1.2374 3.1299-0.32856 1.5807 0.71062-1.3838 0.24738 1.3109 0.46667-0.034 1.7846-0.62861 2.5205-1.7169 4.6105-1.7409 7.2439-0.23907 2.1463-0.75853-0.83226-0.98598-1.4746-0.61018-1.9939-1.6919-4.9376-3.0033-6.2868 0.56791 3.685 2.2915 7.1426 2.7162 10.868-0.41097 2.8718-1.3286 5.7283-2.498 8.3768-1.4019-0.21991-2.9218 1.532-3.7805 1.1562zm-0.19844-1.8998c-1.3264-1.4468-1.1309 1.6665 0 0zm0.65016-1.6821c-0.3768-1.6297-1.5301 0.9617 0 0zm-3.0355-14.107c-0.51-2.8963-1.2335 1.6296 0 0zm5.0311-5.9752c-0.46929-1.4625-2.026 0.97082 0 0zm-2.922-0.71274c0.81183-0.28256 3.512-0.57043 0.84662-0.6661-1.1002 0.13032-2.1798-0.47745-2.1248 0.36139-1.402 0.55405 0.54758 1.0456 1.2782 0.30471zm9.5366-0.0106c-0.78442-0.97031-2.3506 1.0842-0.20119 0.31616l0.1522-0.12896zm-2.6649 23.807c-1.7987-1.4016 1.3473-5.1302 1.3409-7.3441 1.6792-5.1411 2.1266-10.704 4.7655-15.5 1.0868-2.7596-2.1749 1.6372-1.1805-1.0558-0.45373-2.8183 3.4013-1.9254 4.6182-2.6722 1.4611-0.19251 1.2639 1.5349 2.2072 2.0016-1.6912 0.82196 1.7664 1.2738-0.72777 1.2929-1.6179 1.1797 0.74562 2.2717 0.23639 0.73595 0.96879 0.51751-0.11953 2.9962 0.87251 0.7809 0.77587-0.89546 0.34523 1.0593 1.2514 0.11086-0.15392 1.1239 0.93869 1.1125 0.32751 1.6752 0.55493 0.7614 0.90801 1.5545 0.85385 0.0209 0.12949 1.1997 3.9732 1.8403 1.2199 1.7452-0.12833 1.5788 1.1046 2.7024-0.58642 3.8044-0.0539 1.5341-2.3134 3.1943-3.3575 3.8848 0.40733-1.0949 1.6118-3.5446 1.3809-3.6136-0.46715-0.0782 0.95833-4.3083-0.43928-1.6104-1.0274 2.4338-2.1279 4.8134-2.867 7.3532-0.36099 2.1191-2.4606 4.3432-2.6317 5.9363-0.69165 1.0033-3.0778 0.43272-2.1023 1.9417-1.5506 0.36528-3.3073 1.5289-5.1817 0.51175zm4.6608-2.12c-1.4419-0.96891 0.47895 2.1195 1e-5 0zm5.9457-10.633c0.20574 0.24433 1.0355-0.42558 0.19438-1.0478-1.4543-1.497-0.221 1.8606-1.8176 0.29139-0.2172-0.47681 1.604 0.14868 0.0852-1.1577-0.89246-0.47298-0.93898 2.1268-2.3802 2.0926 0.83207 0.60021 2.0789-1.22 2.5231-0.34065 0.91476 0.20482-0.30375 1.8058 1.2411 0.55353l0.15411-0.39131zm-20.908 12.208c-1.8151-1.7008-1.4966-4.2-2.4761-5.5156-1.1063-0.95759 1.9465 0.4492 0.17157-0.73044 2.4091-0.57584 2.4723 4.3487 3.0779 6.243-0.13883 0.31574-0.59317-0.0527-0.77332 3e-3zm23.352-0.16065c0.67833-0.49173 1.8542-1.0245 0.29745-1.1265 1.453-0.17938 0.11248-1.3655 2.2385-1.4016 3.1983-0.0343-1.3312 0.97875-1.5896 2.3092-0.0755 0.1072-1.1118 1.0172-0.94634 0.21888zm-4.1828-0.61599c1.1224-0.53115 2.1079-0.43469 0.30044-0.81466 1.0497 0.0767 2.6191-0.2483 2.383-0.8045 3.278 2.0742-2.9908 2.1915-2.6835 1.6192zm-23.355-1.46c-1.5471-0.43763-4.1077-1.2674-1.2591-2.0021 1.0046 0.61794 2.8624 0.80426 2.4894 2.5072-0.46826 8e-3 -0.83602-0.31146-1.2304-0.50504zm29.085-1.6019c-0.96112-2.5609 1.3685 0.93848 0.29079 0.55287zm-4.356-0.36012c-0.18907-2.4687 2.7261-3.8429 2.9002-4.9326 0.16156 0.43583 3.1646-5.2098 3.4659-1.8856 0.31694 1.1035-0.77616 3.7261-0.62331 1.0246-1.873-0.17967-0.0321 2.3602 0.23811 2.1316-1.0735 0.34291-1.7172 2.4142-2.6682 1.5375-0.36099 0.92972 1.3098 2.2588-0.49269 0.81175-1.6121-1.0808-0.66083 2.7072-2.82 1.3129zm4.8593-1.0213c0.47831-1.3272 3.1873-0.27866 0.73993-0.34535-0.29962-0.23866-0.47712 0.609-0.73993 0.34535zm-24.937-0.84813c-0.88098-1.7014 0.96856-0.74598 0 0zm-8.0211-1.4066c-0.51811-0.81692-0.19142-3.111-0.0482-0.92019 1.0322-0.70898 2.698 1.505 0.30847 1.0691l-0.30565 0.0587 0.0453-0.20763zm3.4153-0.67915c-1.2277-2.3772-2.7401-4.832-3.0642-7.5202 0.0496-2.0628 0.21504-0.55924 0.84226 0.44312 0.59703-0.31992-0.42656-2.6995 0.5459-2.8277-0.58292 1.3337 1.7488 4.365 1.4562 2.7126-0.50424-1.0821 1.822 1.4588 1.341 2.6434-0.10797 0.79467-0.44629 2.5384 1.1219 3.1555 1.2232 2.2483-1.6624 1.4461-2.2449 0.60667 0.061 0.16361 0.87333 1.6398 2e-3 0.78655zm0.63705-3.7148c-0.17364-1.8469-2.6617 0.79892-0.28614 0.60519 0.20908-0.11984 0.29005-0.37843 0.28614-0.60519zm-5.8565 3.3566c0.5203-2.1578 1.3473 0.44942 0 0zm9.0209-0.31428c0.70221-2.6928 1.5106 1.4597 0 0zm-6.1934-0.59494c-0.46048-1.7725-1.6773-2.5573-1.1948-4.3726 0.15919 1.5386 1.8212 3.7783 1.6236 4.8168l-0.42886-0.44413zm6.9317-5.2255c-0.0186-2.1374 1.4993 1.0877 0 0zm7.4121-11.199c0.50892-0.50172 1.7175-1.2802 2.1338-1.5352 1.767 1.979-1.457 2.7454-2.1338 1.5352zm3.9259 0.0879c-1.0719-0.53735-0.41339-1.4961-0.78497-1.7697 1.0674-0.0742 2.7075-0.2316 0.98024 0.53595-0.19129 0.58871 1.0753 1.985-0.19523 1.2337zm1.9253-0.1405c-0.78543-1.4679 3.981 0.3461 1.0148 0.18207-0.30032 0.0635-0.87552 0.29867-1.0148-0.18207zm-6.6514-0.65934c-1.6999-0.0879 1.7549-2.4652 0.68105-0.47512 0.62974 0.35555-0.44171 1.1254-0.68105 0.47512zm10.983-0.19662c2.3535-2.3719 1.0002 0.42039 0 0zm-2.4105-1.5784c-0.87324-1.8692-2.179-1.2457-3.3925-0.16714-1.5301 0.38167-1.2776-1.2449-0.36007-0.62445-0.62972-2.5823 3.1253-2.9977 2.5955-1.6624-1.0526-0.0327 1.2405 1.8192 2.23 1.6887 0.73267 0.66108-0.69973 0.72229-1.0729 0.76527z" fill="#9dc481"/><path d="m151.34 200.36c0.3633-1.9417-2.0177 0.98795-1.9685-1.6812-0.8156-1.7184-1.245-5.3212 0.61805-6.1247 2.1088-0.85428-0.85307-3.8811 0.5214-5.8496 0.54366-1.0545 1.1802-0.64918 1.5218 0.23604 0.66149-0.42113-1.0826-3.7484 0.67091-1.4647 0.80976 1.7708-0.27523-2.5957 1.5383-1.815 0.30193 0.25233-0.78441 1.6355 0.44305 0.36926 1.057-1.0923 0.9454 2.7116 1.5149 3.0814-0.25612 0.88127 1.1715 2.6055 1.1858 4.0995 0.084 1.19-0.64213 2.3547-0.87623 3.5348-0.87706 2.2702-0.67078 5.6341-3.8345 5.4601-0.35705 0.0592-1.1223 0.67835-1.335 0.15409zm-0.34637-1.2795c-0.82027-2.1878-1.9628 2.2472 0 0zm0.55344-2.2002c-1.7814-1.4768-0.24322 2.2988 0 0zm7.0003 3.5796c-0.13821-1.4245-2.8867 0.1281-1.4758-1.9238-0.0405-1.4429 3.3935-1.2158 0.88523-2.1847 0.32434-2.3752 1.4388-4.7777 1.9446-7.1933 0.64996-1.7414 0.53165-5.9158 2.9998-5.2981 1.0544-0.79346 1.837 0.63036 2.4058-0.4695-0.335-0.71913-1.981-2.3186-2.3601-0.75644-0.0964-1.4519-2.5295-1.8726 0.17844-1.8821 2.2496-0.71643-1.6158-0.96226 0.63759-1.3337 2.6244-0.0191-1.1042-0.61929-0.73468-0.4761 2.3206-0.86099 0.10898-3.1627 0.42749-3.7709 1.039 0.17175 2.6406 2.8218 1.652 0.4265-1.6668 0.17228 2.0806-0.68107 0.31226 0.20082 0.52355 0.7489 3.2448 0.85 1.9032 2.0297-1.1316-1.9757 0.54231 1.566-1.0473 0.31216-1.603 0.10357-2.2363-7e-3 -1.0205 1.4911 0.14999 1.2205-0.73076 1.6946 0.40342 1.9091 0.51991 0.71615 0.0456-2.1901 0.86271 0.0822-0.13659 1.8825 0.72006 2.2045 1.5185 0.82035 0.86329-0.72732 0.83148-0.94517 1.1479 0.14403 1.1602-1.3877 3.8047-1.0243 2.6853 1.115 1.9096-0.84053-0.89529 1.4398-0.4793-0.80609-1.4494 1.4132-1.63 4.9038-4.2641 2.7716-1.931-0.35808-3.393 1.7605-4.2198 3.3104-1.2019-0.58355-0.61338 1.5305 0.53363 0.57832 0.34289 2.981 2.5599 0.98071 3.7733 0.54456 0.3248-1.8691 0.61307 1.5529-0.15544 2.1579-0.32175 0.58937-1.4914 3.0072-2.6924 2.1554 1.6-0.90478-3.5551-0.0587-1.642-0.10427 2.115-0.23236 0.69904 1.1965 0.21031 1.1022 0.79414 0.72116 3.1035 0.17266 1.281 1.3097 0.90052 0.63624-1.2886-0.0305-1.1665-0.45407-0.57457-0.72645-4.1718-1.8002-2.5916 0.31019 0.0192 0.78218 1.779 3.9382-0.46492 3.7302 1.8462-0.97375-1.2262-5.2006-0.80436-1.7256-0.38291 0.63206 1.0487 2.8796-0.64371 1.8771zm5.7886-18.811c-0.92151-2.0017-1.3297 0.60991 0 0zm-17.84 17.157c-1.2706-1.3055 1.3173-1.6347-0.54208-1.8168-1.8512-0.35668 0.362-5.1532 0.88304-1.5548 0.34443 0.94172 2.1719 6.1979-0.34096 3.3716zm25.645-0.7531c-0.38552-1.2801 3.5522-0.80727 0.91286-0.11641-0.17881 0.30842-0.71209 0.56483-0.91286 0.11641zm-28.443-0.26458c-2.1003-0.63676 0.0287-0.90555 0.69471 0.19098-0.21704 0.12255-0.6268 0.11407-0.69471-0.19098zm0.20382-6.5326c-0.20882-1.478-0.38763-2.1783 0.64435-0.7591 1.4955-0.49975-0.44194 0.79485-0.64435 0.7591zm20.169-1.112c1.5448-1.8917 1.0165 1.1761 0 0zm1.4708-0.21799c0.16116-1.11 0.52252-2.7252 0.90347-0.7407 1.0715 0.38216-1.5062 1.6618-0.90347 0.7407zm6.6619-0.78708c-0.79103-0.90832 1.0723 0.39692 0.58028-1.0926 1.94-0.78692 0.7981 2.067-0.58028 1.0926zm-23.901-0.94147c0.97164-1.5146-2.2854 0.39943-0.46025-1.0937 3.2035-1.2705 0.88551 1.3362 0.10795 1.6838 0.11744-0.19671 0.23487-0.39343 0.3523-0.59014zm9.8755 0.43546c-0.47467-1.5129 1.5777-3.3274 0.46714-0.86746-0.1685 0.18117-0.0294 1.1653-0.46714 0.86746zm12.331-2.8413c-0.12767-2.6224 1.6882-0.93106 1.1682-0.24958-0.3616-0.37344-1.5928 1.2743-1.1682 0.24958zm-29.174-0.66824c-0.0818-2.7464 1.089 1.681 0 0zm15.832-0.13753c-0.56622-0.48005-1.5655-2.3001 0.0151-1.5106-2.2611-2.5311 3.0792 1.8828 2.1366-1.396-0.5119-1.0352-2.1686-1.0214-0.82335-1.6569-0.97223-0.92128-2.2658 3.3567-1.6564 0.81501-1.4465 1.1915-2.3918-2.1891-0.46406-0.68808 0.89896-1.3457 5.3386-1.3296 3.65 1.0997-0.47942 1.5104-0.38934 3.9458-2.8579 3.3369zm3.9929-1.4691c1.0362-2.583 1.4018 0.23467 0 0zm-8.3415-0.55637c0.508-1.5004 0.18459-1.6208-1.1305-0.80305-1.6436-1.0742 1.7684-3.8135 2.8584-1.482 0.63899 0.92241-0.81482 3.1057-1.728 2.285zm0.8192-2.1347c-0.29857-1.6495-3.2026 0.23474-0.67974-1e-3 -0.0122 0.4525 0.58172 0.28492 0.67974 1e-3zm13.777 1.1689c-1.1238-3.4424 1.3463 0.017 0 0z" fill="#99c17b"/><path d="m152.85 199.81c-1.3519-0.27851-1.001-4.4926-2.2555-2.6423 1.6177 0.97067-1.4413 1.4739-0.424-0.0671-0.61304-0.54735-1.3506-1.0158 0.0313-1.2243-0.0854 1.371 1.4781-0.29352 0.11093-0.89455-0.7217-0.95148-2.1959 1.4606-1.3523-1.059-0.14622-1.6973 2.3345-0.9567 2.5691-1.5089-0.9306 2.1642 0.80963 1.0676 0.49341-0.39183-0.98265-1.187 2.0003-2.6769 0.36117-0.55482 0.3406 1.1626 0.0347 1.642 1.8655 1.1849 0.93287-0.42804 2.4988 0.43647 1.5106-1.308-0.55086-0.843-1.9098-2.6017 0.25482-2.1723 1.3382-0.6779 0.92089 2.3223 1.0256 3.1828-0.64822 0.69388-0.17804 3.8618-1.845 4.8404-0.35343 0.32769-0.87293 0.25114-0.26871 1.0544-0.92769 0.11268-3.873-1.2311-1.9512 0.6647 1.4513-0.16625 1.9142 1.3296-0.12556 0.89585zm3.6807-9.162c-0.65832-1.2556-2.2247-0.60167-0.42105 0.23684l0.22759-0.0287zm0.36775 8.401c0.64805-1.3237 3.3068-1.4011 1.7486 0.33073-1.1413-1.9023-0.33018 0.85657-1.8168 0.15878l-0.023-0.18066zm15.772-1.2568c0.97749-0.85255 2.284-0.40244 0.38489 0.0177-0.14545 0.46855-1.1098 0.7587-0.38489-0.0177zm-12.811-1.2568c-0.85216 0.24777-0.2262-0.6089-0.70818-0.7855-2.0858 0.95418 0.11836-3.4046 0.27495-4.5094 0.74602-1.8419 1.1378-4.1023 3.3847-4.613 0.34652 1.4111-0.72177 2.1241-1.5069 1.7337 0.17729 0.88484-0.91749 1.5572-1.0052 2.4073-1.5498 1.6727 2.1992-1.2564 2.3209-0.24558 1.9756-0.13509-2.2868 1.1691 0.45389 0.76315 0.81489 0.28324 2.63 1.132 1.2154 1.4526 1.1602 0.33666 1.2667 2.2242 0.0473 0.96432-1.1127-0.8638-1.5723 0.80217-2.3035-0.66931-0.0451 0.7485 1.0571 2.9654-1.3062 2.4845-1.9363-2.2716 0.61139 2.7911-0.86705 1.0172zm1.6804-4.2737c-2.1556-0.60571-1.585 0.6822 0 0zm-15.789 2.6463c2.1095-2.0144-1.1906 2.1237-0.0482 0.0839zm4.8508-6.4424c2.2621-1.1169-1.4172 1.8124-4e-5 0zm17.967-2.6578c-1.348-1.2001-0.47664-1.143 0.18687-0.91829 0.68291-1.4295-1.7583-0.76328 0.086-1.803 1.3629-0.69213 1.8172-0.90472 1.3875 0.91393-0.11642 1.1541-0.71703-1.3912-1.0283 0.67619 0.85061-0.19204 0.77201 2.2402-0.632 1.1312z" fill="#95bf76"/></g></g></svg>
