<?xml version="1.0" encoding="UTF-8"?>
<svg width="54.178mm" height="43.123mm" version="1.1" viewBox="0 0 54.178 43.123" xml:space="preserve" xmlns="http://www.w3.org/2000/svg"><g transform="translate(-16.304 -189.95)"><g transform="translate(-80.662 19.912)" stroke-width=".26458"><path d="m120.14 212.95c-5.3778-0.48943-10.618-2.0496-15.572-4.1437-2.5968-0.98975-4.0817-3.3328-5.9251-5.2555-1.1388-1.3791-1.9358-3.9003-0.89668-5.3354-1.5047-2.178-0.53836-4.3106 0.35742-6.4473 0.95938-1.7095 2.4476-2.9669 2.8052-4.532 0.56901-0.87617 1.5557-2.0038 0.2166-2.3925 0.13529-1.4079 1.5367-1.3747 2.7853-1.9412 4e-3 -1.3475 3.6404-3.0414 2.9866-1.023 1.1795 0.06 0.81427-3.8669 1.3167-1.2035 0.96577-0.50496 2.3108-1.4076 1.8892-2.8504-0.13761-0.20987-1.3254-1.6582-0.0908-2.2205-0.67571 1.9394 2.4841-0.50527 1.869-1.3613 1.5201-1.2439 0.29043 2.4602 2.0924 1.4574 0.91041 0.0798-0.79576 1.8729 0.61141 0.5855 0.76433-1.2717 0.23957-1.1268-0.42031-2.3384-0.28752-1.4061 1.7828 0.43492 2.3251-0.3845 0.66514 0.75244 1.8519-1.432 2.6242-2.0113 0.66839-1.3892 1.3132 1.4484 2.013 0.76219 1.2188-0.81488 3.4889-1.4946 4.701-0.84114 0.52213 0.84184 0.37423-1.833 1.1728 8e-3 0.51901-1.6508 3.0801-1.6865 4.326-1.0884-1.5544 1.5859 0.87872-0.59086 1.676 0.29545 2.2905 0.18211 5.039-0.44594 6.1112 2.1487 1.5702 1.7295 4.3669 1.5558 5.4032 3.9434 1.6094 1.7032 1.7685 4.1709 3.8042 5.6452 0.8733 1.7002 2.5285 3.1147 2.4704 5.4126 0.8188 1.8099-0.0161 3.5669-0.38088 5.169 1.5238 2.7309-1.8142 4.7758-0.91782 7.5922-0.71723 2.4126-1.4264 4.8688-2.525 7.1388-0.91541 0.22767-1.9956-0.0826-2.0814 1.39-2.3365-0.061-3.4678 2.8786-5.976 2.8562-1.3063 0.0432-3.6448 0.73675-3.6234 0.0395-1.8548 6e-3 -3.9317 0.50826-5.972 0.71857-1.4828 0.0607-6.296 1.4179-4.2661-1.5556 3.5542-3.2309 7.7263-5.7138 11.797-8.239 1.0374-0.72347 4.2214-2.1228 3.9655-2.4828-3.0969 1.3578-5.9941 3.1343-9.1033 4.4629-0.48011-1.2001 1.5166-3.9928 0.60474-4.3346-1.2876 2.0272-1.1009 5.1272-3.5048 6.3071-1.1105 0.54149-3.2644 2.8495-3.6342 2.2532 1.5718-3.3315 3.2771-6.6144 5.336-9.6742 3.8196-1.7982 7.6887-3.511 11.526-5.2516-2.2674 0.4551-4.7548 1.766-7.0785 2.625-1.1771 0.51696-4.7247 2.1066-2.383-0.25711 2.0106-2.6596 4.4401-4.981 6.4828-7.5989-1.6818 0.52094-3.3079 3.9885-4.0155 0.85293 0.4697 2.4728-1.7696 4.0406-3.2253 5.7651-2.9509 3.4412-5.7356 7.0755-7.8528 11.093-1.5009-0.95118 0.60756-4.1121 1.4907-5.4862 0.67354-1.2278 2.2536-3.0831 2.3386-4.0003-1.5206 1.7561-2.8951 3.6334-4.3328 5.4573 0.29954-2.355 0.28269-5.0668 2.416-6.613 3.6993-3.5433 7.6111-6.8586 11.329-10.38-1.997 0.6984-3.6818 3.0878-5.3687 3.7542-1e-3 -1.2169 1.1926-3.2374 0.63083-3.9464-1.0883 2.0487-0.86251 4.7902-2.9834 6.1893-1.4192 1.1307-3.7638 3.9737-4.7477 3.8222 0.72095-3.2624 1.9946-6.4644 2.4912-9.731-1.3361 1.9366-1.8464 4.5505-3.0222 6.4268-2.6925-2.2724-4.5768-5.35-7.1169-7.7735 0.38829 1.4442 2.7312 3.5846 3.8792 5.2206 1.8259 1.8901 3.7418 4.0037 2.254 6.714-0.24393 1.4319-0.52448 4.5078-2.3964 2.3387-2.2684-1.7628-5.2029-3.1543-6.1204-6.0985-0.70689-0.95502-0.75255-3.0687-1.7539-3.4594-0.10683 1.2698 2.0516 4.3523 0.89191 4.3877-1.0609-0.58179-3.7758-2.9208-3.7573-2.417 3.9275 3.4343 8.0657 6.6231 12.101 9.9306-0.18658 1.3544-0.13398 4.2341-1.665 1.9136-0.93045-1.1669-1.6181-1.2815-0.52073 0.17301 1.1078 1.4465 2.0873 3.1171 1.5668 4.9896-0.13271 0.64794-0.86296-1.1709-1.2395-1.5298-2.2198-3.3662-4.2923-6.8477-6.8203-9.9941-0.22416 1.0692 1.98 3.715 2.703 5.2673 0.58565 1.2499 2.1495 3.0025 2.0104 4.0403-2.515-1.5304-5.415-2.5805-7.5261-4.6798-0.86087-1.8097-3.5956-3.082-3.4292-5.6652 0.16553-1.3301-0.87742-2.3656-0.61557-0.39415 0.17227 2.6626-2.0481-3.0003-3.0473-2.4453 1.3143 2.6425 3.5529 4.791 4.7316 7.5103-0.6569 0.3509-4.8666-1.8194-2.2983-0.05 2.0544 1.0803 3.9788 2.4062 6.0191 3.4175 2.504 1.2953-2.1317 0.13739-3.0818 0.29367-1.1091-0.18073-5.4862-0.0695-2.1367 0.32828 2.8279 0.43473 5.8107 0.32602 8.4976 1.3867 2.2201 1.2212 4.7187 2.4849 5.5802 5.0607 0.44987 1.1427 1.6044 3.1493-0.77524 2.2827zm-21.137-9.9407c0.07518-0.91224-0.89888-5.0359-0.85712-2.1416-0.08562 0.56846 1.0032 4.3716 0.85712 2.1416zm0.19496-6.3249c-0.66745-1.0186 1.5805-4.7576-0.34583-2.5594-0.53628 1.3602 0.11392 2.2062-0.96061 1.6452 0.46377 1.0559 0.27912 2.963 0.88718 3.4922 0.68623-0.67852 0.46026-1.7223 0.41926-2.578zm2.2918-4.2584c2.0282-2.1604-2.6496-1.8865-1.9986-0.091 1.7822-2.4163 0.0162 1.3096 1.4298 0.77336l0.27768-0.27258 0.29112-0.40976z" fill="#add5d2"/><path d="m124.63 212.2c0.84335-2.3123 3.5118-3.2206 5.2963-4.7233 3.5552-2.4944 7.3104-4.6798 11.05-6.8733-0.17177-0.93842-2.837 1.2731-3.9026 1.6171-1.6648 0.59524-4.0553 2.7477-5.3636 2.3649-0.20058-1.2315 1.3428-3.6416 0.68252-4.0938-1.4865 2.0895-1.1277 5.4384-3.8355 6.522-1.0699 0.79007-4.311 3.4681-2.511 0.46323 1.4071-2.6197 2.5857-5.4391 4.5001-7.7316 3.5593-2.1886 7.5803-3.5307 11.313-5.3944 0.45196-1.1118-3.2944 1.182-4.3714 1.4127-1.8426 0.64644-3.8329 1.8066-5.6743 1.9485 2.1561-3.0956 4.9216-5.6951 7.3004-8.6062-0.61498-0.48258-2.5832 2.0309-3.4589 2.1804 4e-3 -1.1972-0.94891-2.5104-0.82579-0.35064-0.072 2.6501-3.0157 3.9567-4.2845 6.0584-2.5308 2.9647-4.589 6.2854-6.6904 9.5503-1.1822-1.8194 1.0938-4.0155 1.9184-5.716 0.51924-1.1209 2.3882-3.0437 2.0536-3.7336-1.5388 1.4178-2.7922 4.0998-4.1737 4.9941 0.0372-2.516 0.56321-5.1598 2.8846-6.5612 3.4986-3.3036 7.2369-6.3766 10.631-9.7765-1.959 0.3005-3.8251 3.2856-5.2036 3.4041 0.41727-1.1192 1.2982-5.6389-0.0498-2.4506-0.48833 1.2923-0.72109 2.7376-1.29 3.9728-1.9041 1.6487-3.7108 3.423-5.7338 4.9245 0.61039-1.8744 0.46662-5.0358 2.4093-5.8366 1.3278 0.19532-1.4842-1.5487-0.19258-2.5623 0.52547-0.91438 0.40869-3.0639-0.36148-0.93487-0.0305 2.1698-2.7104-0.37013-2.1891 2.0728 0.49346 2.0225-3.3676-2.771-3.0695 0.1887 0.95374 0.89514 3.1652-0.33579 2.2974 1.5459 0.25411 0.57009 1.6726-1.4529 1.0986 0.48101-0.36083 3.5923-2.7152-0.94568-3.8776-1.8386-1.2895-1.2554-3.0867-4.047-4.2968-4.1878 1.5784 1.6734 2.4252 3.6113 4.0682 5.0767 1.0662 1.2434 2.0718 2.537 3.1062 3.8067-0.70989 1.963-0.76934 4.1016-1.4602 6.0539-2.0704-0.8334-3.918-2.6571-5.7698-4.034-2.0204-1.5839-2.369-4.3379-2.7661-6.4724-2.3063-0.2018 0.75118 4.0233 0.25182 4.7587-1.3185-0.64541-3.4232-3.1259-4.377-2.6535 3.7208 3.0045 7.3851 6.0936 11.188 9.0024 1.6006 0.86473 0.96234 2.6607 0.83831 4.0928-0.73938-0.64757-1.4354-1.8875-2.4136-2.3895 0.14726 1.4637 3.4688 4.1704 1.4126 4.714-1.3178-0.97977-2.2618-2.7754-3.2448-4.274-1.3718-2.0427-2.5362-4.3107-4.3691-5.982-0.42946 0.80939 2.0649 2.4689-0.25102 2.7074-0.89964 1.2373-0.0876 3.4562 0.90098 1.0991 2.1952-0.40013 2.8896 3.6204 4.202 5.087 0.81623 1.65-2.3874-0.96634-3.2354-1.2206-2.1577-0.7033-3.5268-2.547-4.8791-3.8565-1.0009-0.90077-0.53679-1.5891-0.9583-2.7383-0.82482 2.5212-2.3306-2.5481-0.32906-1.528 0.27116 1.6465 1.2685 0.6444 0.43236-0.15457 0.79154 1.7155 2.2813 0.0493 1.0872-0.23549-1.195 0.3185-2.8851-1.4306-2.527 0.13602-0.10573-1.1119-1.0913-2.7838-1.0481-0.61955 0.37224 2.2159-2.3622-1.4266-1.2966-2.1598-0.44338-0.60905-2.6383-0.46251-1.5346 0.82571-0.4154 0.9222 0.57056 2.806 0.30725 0.70869 1.2588 0.57901 2.4239 3.1604 3.4855 4.6089 2.0866 2.9205-2.7481-0.6939-2.5173 0.80781 1.1605 0.91743 3.6595 1.4202 3.352 2.8302 1.9143-0.29317-0.1129 2.0863-1.4619 1.175-1.3416-0.72172-2.7836 0.59257-1.0886 1.3216 1.4725 0.40367 0.54959-1.4633 2.2717-0.63866 2.4607 0.37334 0.93707 2.8347 0.55032 3.3154 0.40852 0.56894-1.1774 0.62484 0.36306 0.73285 0.2937 0.73672 1.023 3.1323-0.76612 1.3848-0.76328-0.72616-0.7778-2.2689-1.9491-1.668 0.0935-1.025-1.738-1.0956-2.317-1.7341-1.4868 1.3172-4.1086-1.1386-4.6477-2.818-0.52153-2.9937-0.14316-6.0954 0.21044-9.0915 1.5927-1.1963 4.2358-3.4987 2.5186-5.6014 1.4084-1.6892 2.144-4.1838 4.3833-5.0627 1.6178-0.71472 4.9723-0.97612 4.7306-2.5555 0.27722-0.92922-2.5128 0.0754-0.80307-0.97264 1.2699-1.1562-0.0216-1.8169 1.623-2.8715 0.13627-0.56388 0.80665-0.34159 0.67725-1.3324 2.0045 0.24133 0.28461 2.5311-0.84816 2.922 2.0473-0.22717 2.2017-2.1657 3.2829-3.3154 0.99361 0.0459 1.7558-2.4438 3.0672-1.6413 0.38-0.33072 0.44183-2.7843 1.6148-2.6956-1.4755 0.47308-0.6323 2.573 0.45891 1.1877 0.69021 0.19176 1.7241 1.5 2.244 0.0393 0.8802-0.93497 1.6155-0.81118 0.30375 0.17136 0.36 0.72596 2.074-0.81959 2.972-7.3e-4 0.51819-0.9132 1.6676-1.4107 2.3264-1.7092 0.23103 1.0781-1.9183 2.1568 0.31009 1.8834-0.43456-2.9267 1.7681-0.18615 3.1223-0.6217 1.0484 1.1749 2.3998 2.2467 2.8368-0.0367 1.3221-2.0451 4.0087-1.6165 4.7368 0.63693 1.2118 0.20029 0.42564 4.1802 0.95624 2.8831-0.2422-1.1948 1.7063-2.3161 1.0232-0.27896 1.4295 1.175 1.7023 3.7421 3.2223 4.618 0.70389 0.91916 2.5567 0.0445 2.3887 1.093-1.1413 1.9222 2.6476 2.2279 2.9219 4.3262 0.1788 1.5475 0.17036 3.5019 0.96009 5.1786-1.2415 0.54448-0.49763 0.66841 0.14515 0.95557-1.9452 0.84971 0.93452 2.8918-0.4136 4.5597-1.634 0.17503-2.0572 2.598-0.74878 3.416 0.0108 1.6789-0.84665-1.0546-0.62094 0.79228 0.1281 2.0786-0.83719 3.9934-1.4572 5.9903-0.13032 0.95897-1.6673 0.74624-0.83833 1.3534-0.52488-0.63085-3.2084-0.78682-2.4034-0.073 1.6093-0.94917 0.15911 1.4713-0.97816 1.3664-1.0474 1.1285-2.5244 2.8613-3.3636 1.8161-1.414 2.2408-3.8663-0.5731-4.9986 0.91655-1.274-0.77693-3.9337 1.128-6.041 0.84821-1.4547 0.12705-2.9131 0.20252-4.3699 0.30038 0.053-0.26434 0.1056-0.52886 0.15882-0.79308zm-23.138-11.261c1.2813 0.0333-1.2693-2.3644-0.50829-0.20535-0.0472 0.34886 0.3908 0.77557 0.50829 0.20535zm43.323-0.17446c-0.26157-1.3947-2.0808 1.172-0.23794 0.21992l0.23794-0.2199zm-33.983-1.9375c-0.0996-0.77437-2.0232-0.8459-0.45243 0.36643 0.32887 0.57848 0.36809-0.29139 0.45243-0.36643zm8.7506-4.443c-0.12521-0.52717 0.0808-1.4035-0.69287-0.12404-0.9534 1.7936 1.3946 0.94059 0.69287 0.12404zm-1.6637-1.2207c1.0574 0.0956-0.0162-1.5644 1.2109-2.0813 0.99744-1.5471-1.1738 0.78244-0.24235-1.1374-1.6372 1.373 1.0067-1.9325-0.69941-1.16-0.0889 1.0729-1.0148 2.1332-1.818 2.7836-0.604-1.6217-2.0128 0.88415-0.0928 0.23802 1.9462-1.3072 1.2862 1.0827 1.2658 1.54l0.16572-0.1908 0.21027 8e-3zm6.2174-7.1951c-0.35965-0.12057 2.0095 0.0394 0.81207-0.48809 0.38756-1.0391 0.6311-2.1229-0.63586-1.2394-2.9149-1.0288-0.065 2.8617-0.17621 1.7274zm-2.1265-3.5144c0.92487-0.56526-0.0365-1.5735-0.64986-0.42045-1.3168-1.0721 0.0293 1.5934 0.64986 0.42045zm-6.3951-2.4542c1.2114-1.6921-2.3896 0.85075-0.36883 0.52375 0.0908-0.11035 0.45965-0.29003 0.36883-0.52375zm8.4438-1.7991c0.13695-1.1072 1.6194 0.53464 1.0795-0.77628-1.0229 0.18141-3.3865 0.0489-3.5854 1.0409 0.80869-1.0858 2.1396 1.0834 2.5059-0.26458zm13.02 0.26458c-0.0391-0.14419 2.1392 0.10533 0.41415-0.48973-1.0074-0.34705-0.85502 1.4469-0.41415 0.48973zm-11.668-1.693c-0.16785-1.2838 1.0141-1.7496 1.7461-2.1278-0.7666-0.7056 0.23726-2.667-1.3765-1.3788-2.1337 1.2057 1.7393-0.42013 0.47971 0.80431 0.24106 1.6298-2.8524-0.29149-1.2925 1.3874-0.28651 0.26924 0.54764 2.4721 0.44322 1.3149zm-6.0213 35.692c-0.58747-0.60523-1.7827-0.3602-0.46838 0.0647-1.9246 0.42457-3.3427-1.3123-4.5002-0.60039-1.0322-0.26864-3.605-0.9592-3.6922-1.3013 1.1087 0.41792 4.404 1.3915 2.1916-0.57509-1.4094 0.84657-0.32089-1.7629-1.4149-1.2007-1.4974-0.26092 2.0592-2.8556-0.52102-2.4067-0.9761-1.6589 0.53259-1.429 0.53137-1.0917 2.0191-1.2162 4.815 0.84659 6.655 2.083 1.2525 1.103 1.3417 2.8392 2.9504 3.7604 1.1478 1.1424-1.103 2.012-1.7317 1.2679zm-8.769-2.5891c-1.584-0.54865-0.0796-4.0365 0.0547-1.6652-0.45725 0.77204 2.2333 2.6246-0.0547 1.6652zm-0.13229-6.2528c-0.96951-1.7835 1.0981-0.48122 0.26458 0.24294l-0.18686-0.0714zm-12.931-4.255c0.06668-1.3071 1.2571-2.3682 0.37301-0.39687 0.31814-0.43603-0.38137 0.83098-0.37301 0.39687zm-0.25274-2.8651c-0.61682-1.7483 1.0447-3.4464 1.3078-5.0031 1.8489 1.8991-2.2765 3.6703-0.93815 5.7834-0.23999-0.18185-0.24467-0.53596-0.36961-0.78034zm2.7987-6.2854c0.37522-1.9504 1.8797-3.8232 2.0907-5.8148 0.91308-1.2722 2.109-0.77926 2.8498-2.4301 1.4205-1.1672-0.14726 1.341 1.3378 0.0111 2.0668 0.79557-0.89254 2.33-1.5009 1.1103-0.72381 1.2281-1.6917 1.4962-1.4479 3.2012-0.97068 1.3443-1.8802 2.9309-3.0126 4.0628-0.0521 0.18763-0.30615-0.25846-0.31693-0.14056zm25.049-1.6423c-0.72669-1.9224 1.005-1.3544 0.31826 0.0909zm0.21911-16.344c-0.9816-1.7103 1.7479 0.79885-4e-5 0zm8.3995-0.51152c1.349-1.5724 0.35614 1.1088-0.38246 0.50322l0.12467-0.20539z" fill="#93c9c5"/><path d="m124.72 212.04c1.2506-2.306 3.9674-3.4239 5.9482-5.0639 3.2654-2.3633 6.8432-4.2376 10.258-6.3541 0.47244-1.1489-2.5071 1.0129-3.231 1.2136-1.9251 0.81896-4.2873 2.6955-5.9916 2.8544-0.13899-1.1346 1.448-3.923 0.66008-4.1588-1.4753 1.9795-1.1663 5.1398-3.6192 6.3201-0.96442 0.47073-2.9275 2.5399-3.3298 2.0965 1.6077-3.302 2.9871-6.8675 5.5761-9.5429 3.7327-1.9955 7.7896-3.3775 11.531-5.3578-2.1632 0.1605-4.4746 1.6205-6.6578 2.3512-1.2342 0.4272-3.2577 1.4558-4.1595 1.5169 2.1299-3.229 5.0293-5.8419 7.4408-8.8376-0.77436-0.32087-2.3805 1.6158-3.4666 2.3497-6e-3 -1.1968-0.95292-2.7703-0.85228-0.45118 0.0172 2.6155-3.0333 3.7774-4.1812 5.8935-2.527 3.1336-4.9128 6.4024-6.8574 9.9338-0.52544-1.6003 0.16803-3.1628 1.0724-4.4872 0.76276-1.684 2.9978-3.8692 3.0129-5.2022-1.5866 1.5503-2.6736 3.5279-4.1852 5.1438 0.0296-2.156 0.2886-4.6042 2.1628-6.0071 3.6352-3.61 7.635-6.8305 11.306-10.4-1.657 0.0553-3.4023 2.5102-5.0732 3.4686-0.39119-0.29418 1.6059-5.3308 0.04-3.184-0.80916 2.1537-1.1485 4.651-3.214 5.7911-1.169 1.0519-2.9293 3.3185-4.015 3.4483 0.73334-1.6783 0.66881-5.1601 2.6175-5.4535 1.3207 0.70658-0.50707 1.3859 0.96451 1.5241 0.46504-0.39077-0.36624-2.0682-1.5117-2.6858-0.31904-0.90797 0.60464-2.1788 0.6461-3.2087-0.40079-1.6207-1.5285 3.9373-2.2457 0.92241-0.13142-1.3965 0.92062-5.1472-1.1727-4.6427-0.69125 1.3586-2.4314 0.38439-1.9754 2.1128-1.0044 1.4799-0.30245-0.22291-1.4058 0.33425 1.0334-1.0484-0.62431-0.60463-0.6834-1.6804-1.2872 0.77502 0.43715 4.4018 2.301 3.8443 0.85372 0.15373 0.81631 2.2298-0.0667 0.85419-0.97783-0.37829-2.2791 2.0452-2.0453-0.17865 0.56208-0.38403-2.6895-0.96432-1.123-1.383 1.8582-0.55391-1.2873-1.6284-1.1855-2.7433-0.52149-1.045-1.1442 0.78381-0.11515 0.89832 0.98026 1.3484-0.46861 0.76597-1.211 0.24186 0.84493 1.2907 1.2187 2.2467 0.2722 3.597 0.57405 1.4341-1.4772 2.045-0.24658 2.9027 0.0655 1.8802-2.1263-2.2142-2.1777 0.45283 1.3656-1.0228 0.70403 0.4958 0.21957 0.73129 0.90391 0.59767 3.4428-0.72687 1.9758 0.74649 1.0916 0.34022-0.21667 2.5118 1.0202 1.2255 1.5425-0.0247 2.0615-1.9765 2.4298-3.4554-1.553-0.0357-0.47867-3.0023 0.55979-0.76765 0.42676 0.78574-0.17897 1.3757 0.69527 1.0167-0.46554 0.55354-1.0681 1.9909 0.12259 1.2349 3.1581 0.27764 1.7752 3.592 1.3584 5.6341 0.0844 2.2001-1.0431 2.4827-2.4536 0.8722-1.6394-1.4124-3.8102-2.3781-4.9452-4.2719-1.2585-1.6362-1.1182-3.4592-1.3429-5.1176-1.5759-1.2148-1.72 1.6461-0.7633 2.2702 0.38816 1.1253 1.6574 3.4836-0.29406 1.7114-0.98269-0.55117-2.5995-2.3169-3.3549-1.9164 2.0817 2.0456 4.6782 3.5106 6.6133 5.715 1.9465 1.3369 3.9499 2.702 5.5623 4.4355-0.1205 0.71959 0.38326 4.2003-0.72205 2.3843-0.64458-0.95365-2.7056-2.699-1.2814-0.47375 0.77456 0.89988 2.8644 4.2479 0.13847 2.7254-1.8223-2.415-3.5317-4.9606-4.8974-7.6617-0.70633-0.63307-3.0102-3.2244-1.7489-0.75395 0.88994 1.1933-1.6806 1.9627-0.98277 3.6952-0.033 2.1335-1.6302 0.41312-1.5593-0.76258-1.2291-0.0179-0.50018-1.0272-1.4528-0.62061 0.23517-1.2085 1.7081 0.70971 1.4386-0.98215 1.6878-2.2617-1.5392 0.97754-1.3437-1.3092-0.41465-1.0242 2.4852-1.9244 1.632-2.3831-0.79852 1.2607-0.45999-0.67009-1.6889 0.2648-0.27366-0.81352-0.76472-1.2621-1.2942-0.204 0.2197-1.9457-2.0711-1.6368-1.7536 0.31812-0.10794 0.57479-1.542-1.685-1.3724-2.1024 1.2398 1.1443 0.0887-1.7346 1.1826-2.178-0.80725-0.51902-2.551-0.59843-1.0969 0.61545 0.0997 1.326-2.7802 0.4211-1.3715 1.8484-0.80658 1.4496 1.3558 3.3547 0.50789 1.0202 0.201-1.0599 1.6372 2.2497 2.2585 2.796 0.97938 0.89985 2.5724 4.042 0.0803 2.2644-0.53746-1.5074-3.0273-0.37542-1.0512 0.40971 1.4982 0.0497 3.312 2.8252 2.0899 3.5204-1.1564 0.14871-2.7281 3e-3 -3.5489-0.0475-0.62741-0.90122-1.5751-0.0109-2.3419-0.68813 0.37245 1.9287 2.2969 0.4351 3.3705 1.694-0.0705 1.1147 2.9653 0.94917 2.0477-0.0919 1.6568-0.88522 2.5864 2.2543 0.6201 1.2008-0.20129-1.3039-2.4838 1.6505-0.32756 0.70383-0.10761-1.2201 1.9434 1.8181 0.26799 1.3816 4e-3 0.99185 2.3711 0.77301 0.64087 1.6683 1.7199-0.3554 0.60301 2.1898-0.30758 0.28097-0.52572-2.07-2.6163-2.2818-4.0758-3.2885-1.7042 1.291-4.7149-1.5161-4.7574-3.6198-0.13645-2.7674-0.29786-5.6216 0.33492-8.3346 1.6658-1.0966 4.1629-3.5063 2.503-5.4474 1.469-1.8098 2.2906-4.4982 4.7304-5.2388 1.6398-0.77269 5.0636-0.58932 4.5311-2.9248-1.5938-1.1464 1.171-1.7048 2.2889-2.6168-0.57585 0.99081-0.11604 2.8706 0.57468 0.91156 0.50809-0.79157-0.65671-2.1687 0.94524-2.8526 1.1951-0.57327 0.57605-2.0623 2.4371-1.8545 0.83519-0.33975 1.2535-0.29158 1.1548-1.2963 1.0349 0.68762 2.1681-1.0825 2.5593 0.41102 1.0947-0.86936 2.7003-0.53289 3.6401-0.91562-0.2828 1.542 0.58241 1.7181 1.2855 1.0173-0.025 2.6483-3.1207-1.5552-2.4729 1.2412 0.26499 0.0796 0.0142-1.0712 0.62008-0.0333-0.76623 2.0659-1.6599-2.5783-1.7515-0.30024 0.71656 0.76196-0.63581 2.2897 0.8869 2.6599-0.0186-0.94981-0.36661-1.5746 0.73792-0.37264 0.57443-0.76843 1.2946 0.98395 1.5803-0.46109 0.72225 0.92335 0.17118-1.1341 1.6529-0.3856 1.2506-0.0241 1.4969-1.095 0.32547-1.1372-0.26894-1.3233 1.9144-3.652 2.1251-1.1013-0.70121 1.674 1.9093-0.47858 0.0869-1.0388-1.6863-1.6672 0.96202 0.19483 1.3786-0.35276 1.6822 0.73194 0.30769 1.4489-0.18859 1.8492 0.63557 0.30372 2.0558-0.64555 2.1674 0.4964 0.32375-1.7832 2.5519-5.0976 4.2856-2.9215-0.0892-1.4938 1.4289 1.8851 2.1421 2.1229-0.33854 0.95634-0.55849 4.76 0.47406 1.9706-0.24524-2.1219 1.3102-0.78898 0.59224 0.51058 0.67357 0.7944-0.29188 4.485 0.7129 2.0561 0.92709-1.5901 0.89864-0.62056 1.6554 0.39534-0.50984 2.1735 4.7438 1.546 2.7191 3.3576 1.0242 0.35697 3.1956 2.1595 2.9072 2.6547-0.4386-1.4636-3.0315-1.6247-1.8569-0.84081 0.72649 0.44517 1.6725 1.5777 2.2253 1.7091-0.93731 0.49149-1.8656-0.20796-0.85557 1.1951 0.27192 0.89938 1.2814 1.5722 1.0701 0.0665 0.85127 1.0935-0.82207 2.5214 0.72329 3.4974-1.0658 2.0842 0.88252 3.3912 0.19272 5.4629-0.51171-0.26408-2.8304 2.3096-1.4323 3.2616-0.0497 1.8274-0.32507 4.6246-1.3822 6.5708 0.10934 2.4745-3.8045 0.63181-3.6501 2.2122 0.83424 0.72622-3.2935 2.463-1.2875 0.60877-1.5243-1.395-3.2157 0.89262-0.92124 1.2208 0.71009 0.78843-1.4072 1.7485-1.0312 0.43126-0.82171-0.17411-3.5396 1.5993-2.6731 1.4506 0.97358-0.67576 2.3698-0.84252 0.51314 0.18065-1.4529 0.43658-2.7422-1.5396-3.7601-0.13872-1.584-0.4599-4.251 1.1744-6.3511 1.011-1.1236 0.0134-2.8646 0.33408-3.7575-0.0147 0.0331-0.22831 0.068-0.45677 0.0997-0.68497zm-22.935-11.561c-0.57763-2.5254-1.2407 1.6921-0.39669 1.3651 0.14944-0.41335 0.67817-0.94201 0.39669-1.3651zm44.729 0.80555c0.87756-0.79075 0.1263-2.6455-0.33089-0.68874-0.37623 0.51524-0.48269 1.7689 0.33089 0.68874zm-1.533-0.29617c0.9213-1.5423-0.47122-1.9112-0.62288-0.95706-1.4948 0.47887-0.70778 2.0332 0.62288 0.95706zm-42.702-2.6142c-1.3457-1.2379-0.43106 2.2975 0 0zm-0.11973-1.1651c-0.58104-1.3769-1.1271-1.1654-0.78609 0.31938 0.62031 0.12823 2.3056 0.63076 0.78609-0.31938zm44.57-0.95161c0.44386-1.2207-2.1388-1.8508-0.63814-0.8827-2.2574-0.21876 0.16204 1.3398 0.63814 0.8827zm-28.526-0.76861c0.72961-0.81565 0.36928 1.2806 1.2751-0.21636 1.62-1.5475-0.66346-2.4283-1.4527-0.29616-0.7091 0.32388-1.1119 1.627 0.1776 0.51252zm-3.5987-10.645c0.64746-1.0325 0.75499-1.7221-0.25283-0.38427-0.65057 0.26199 0.37473 1.0118 0.25283 0.38427zm0.68426-2.8809c-0.12721-1.48-1.7947 2.7618-0.11937 0.91115 0.17715-0.26678 0.1849-0.60876 0.11937-0.91115zm6.956 0.60196c0.56442-0.59651 0.99279-2.7289-0.30408-1.5943-0.28896-2.7141-3.3797 2.1844-1.4016 0.27142 1.1709-1.5471-0.42032 1.7719 0.46996 1.8886 0.93024 0.20405 0.49738 0.50721 1.2357-0.56573zm-7.647-1.4362c0.75188-0.81646 3.101-2.2744 2.0611-2.8448 1.0634-1.0766-1.7776 7e-3 -0.35309 0.57681-0.9422 0.63692-2.301 0.78309-2.1444 1.8406-0.85318-0.58717 0.89014 1.295 0.43645 0.42739zm27.981-1.9613c0.31298-1.8999-1.7049 0.54451-0.16096 0.25052zm-19.498-0.32884c0.0404-1.0974 0.88482 1.5206 0.89791-0.22686-0.40683-1.4238 2.2604-0.0466 0.85947-1.309-1.2355-0.22635-3.3038 0.88825-1.6598 1.8868zm14.871-0.2635c0.70745-1.7695-3.6511 0.90585-0.84 0.18871l0.34491-0.0697zm-15.563-0.76995c0.57486-1.0792-0.93991-1.983-0.50799-0.23401-1.1662 1.348-0.0189 1.2976 0.50799 0.23401zm-4.3275 0.2618c0.55119-0.49675 0.726-2.0628-0.40909-0.95898-0.36967-0.60477 0.78036-2.8395-0.6259-1.656-0.0247 0.9592-0.82902-0.30908-0.70338 1.0163-0.91754 1.2938 1.2742-0.80832 1.0083 0.93474-0.0438 0.24824 0.81774 1.7925 0.73006 0.66394zm-0.84433 34.022c-0.43414-0.75491-1.4464 0.17235-1.9547-0.59703-1.8023-0.71517 0.97804 1.1066-0.83013 0.35913-1.0684-0.04-0.30939-1.877-1.653-2.333-0.0754-0.78202 0.55335-3.0502-0.82895-1.812 1.6524-0.18253-2.0613 1.3321-0.14322-0.40234 0.52819-0.74532 1.2354-1.7453 0.84382-2.2688 2.3473 0.15929 4.4747 1.5372 6.1686 3.0847-0.11573 1.5646 1.4803 2.4656 2.296 3.109 0.37246 2.2271-2.3311-0.20386-3.216 0.84965-0.1322 0.023-1.0117 0.50204-0.68243 0.0106zm-6.1938-5.8249c-0.51755-1.3597-0.19832-1.5248 0.50959-0.41543 0.87119 0.2394-0.35341 1.2639-0.50959 0.41543zm4.4549-1.9358c-1.7252-0.67036-3.8673-2.2484-1.7567-3.6769 1.7543-1.8691 2.6323 2.4217 3.7706 3.513 0.8541 1.1471 1.1541 2.2158-0.43226 1.0301-0.52987-0.2839-1.0567-0.5734-1.5817-0.86628zm-7.1766-6.4852c-2.0126-0.56379 0.84094-3.4465 0.36744-1.1915-0.62418 0.49778 0.90829 1.506-0.36744 1.1915zm-10.221-4.2764c2.0386-3.2892-0.61508 2.6127 0 0zm25.572-1.933c-0.58556-0.63075-3.3142-3.8967-1.2091-1.8893 0.61573 1.3548 2.3421 0.68336 2.428 0.45216-0.17512 0.48141-0.4381 2.768-1.2189 1.4372zm-22.843-2.52c-0.0596-1.9721 1.725-2.8754 2.0011-4.2995 0.5936-0.39286-0.99203-1.0354 0.48935-1.4946-0.0261 1.2814 0.15305 2.7423-0.59792 3.998-1.0135-0.0375-1.8343 4.7577-1.8925 1.796zm22.808-1.2568c-0.13862-1.2535 2.6178-1.7462 0.51724-0.33279-0.024 0.44067-0.0868 1.1224-0.51724 0.33279zm-19.186-4.9408c2.2594-1.9938-1.3382 2.5524 0 0zm1.2901-0.10515c1.2825-2.2191 1.2222 0.50481 0 0zm5.7508-3.7169c-0.32674-1.2566 1.8162-2.6311 0.49989-0.64046-0.1183 0.16795-0.20569 0.82757-0.49989 0.64046zm14.631-6.1043c-0.21387-1.0366 1.7047-1.8778 1.6944-0.90455-0.78888-0.41884-1.1574 1.0836-1.6944 0.90455z" fill="#84c1bc"/><path d="m124.75 212.03c1.2242-2.3125 3.9419-3.3845 5.9094-5.0062 3.2873-2.3661 6.8809-4.2486 10.287-6.4225 0.11176-0.93184-2.7219 1.1142-3.62 1.4211-1.8009 0.80247-3.9833 2.3911-5.6125 2.6198 0.0277-1.3499 1.3154-3.6034 0.69605-4.3579-1.4397 1.9428-1.124 4.9645-3.2947 6.3356-1.1033 0.34767-3.3656 2.9617-3.6911 2.3023 1.4481-3.2249 3.1496-6.3344 5.0576-9.3101 3.955-1.855 7.9645-3.6143 11.923-5.4408-1.3711-0.46704-4.2556 1.5403-6.1548 2.0543-1.5284 0.62864-3.0688 1.227-4.6157 1.8085 2.2604-3.2873 5.1834-6.04 7.6946-9.1244-1.4265-0.33293-3.7902 4.166-4.053 0.78649-0.68106 0.90081-0.41921 3.6082-2.2359 4.4814-3.5807 3.7372-6.5526 8.0061-9.1892 12.448-0.38102-1.8762 0.4483-3.6539 1.5518-5.1407 0.62926-1.1563 2.9912-4.0606 2.3042-4.2569-1.4299 1.3156-2.4932 3.7482-3.9882 4.4955 0.11449-2.1575 0.50427-4.5586 2.4847-5.808 3.107-3.0091 6.4433-5.7675 9.6101-8.7011 0.76467-0.57508 1.9884-2.3668 0.2028-1.0868-1.4754-0.19886-1.2132 1.6717-2.9308 2.3382-2.6627 2.6032 1.1949-3.8375-0.79887-2.7328-1.1115 1.458-0.83622 5.3489-2.8436 5.3034-1.0161-1.1151-3.534-2.5305-1.9979-4.7156 0.56297-2.737-0.89637 0.41527-1.4364 1.1004-1.6029-1.8615 0.28626-4.7793-0.41782-7.0656-0.93316-0.28497-1.4707 1.9372-2.3441 0.57241-0.6762-1.2627-1.2553-2.1061-2.3846-0.63675-1.2794 1.3928-1.1088 0.1381-0.8062-0.75781-1.5816 0.9726-0.54299 1.2718-0.47988 2.7872-1.008 0.43597-1.3138-1.5926-2.1028-0.4549-0.87446 0.92513 0.1663 1.7766-4e-3 2.6056-2.0849-1.3551 0.84858 1.7651-0.55765 1.9799-0.58118 1.3714 0.2327 2.9605-1.0241 3.356-0.70203 1.0667-1.8451-0.65807-0.214-0.77101 0.64462-1.1403-3.3109-0.73955-2.881 0.48049-0.87727 0.11934-3.155 0.80543-0.80467 0.68913 2.2652-0.30437 1.4083 3.714-0.4402 1.551-0.79164-0.76147-2.6225-1.5245-1.0231-0.0508 1.5436 1.6365 2.7756 2.3854 4.5082 3.7243 1.2248 0.80492 1.605 1.6554-0.0461 2.0957-0.25382 0.56827-2.6721-2.3901-2.3274-1.0336 2.1131 1.4613-0.96511 3.1263-0.47068 5.1747-0.80954 1.5709 0.0955-1.7006-1.0612-0.30878-0.8732-1.0105 0.85749-3.9252-0.10139-3.7523-0.10225 0.9898-2.1722-1.4081-0.68131-0.99125 8e-3 1.9856 1.6398-3.2854 0.44618-1.2104-0.58738-0.98359-1.6624 0.80688-1.5257-1.1675-1.4752 0.34262-1.3574-2.5352-2.5836-0.76507-0.61895 0.42276-0.54181 2.0925-1.4969 0.47199-0.78641-1.1694 1.4073 0.38769 1.6528-1.1008 1.1238-0.89334-0.73994-1.1186-0.8094-1.9446-1.0499-0.41438-2.525-0.38284-1.0287 0.73778 0.30299 1.256-2.4571 0.98893-1.1269-0.31958-0.37175-0.66956-1.552 2.4546-0.0587 2.1809-0.51939 0.51723 0.158 2.6624-0.95921 1.6735 0.3312 1.2189 2.008 1.0732 1.8926-0.26457 0.89577 1.6993 3.0371 3.4964 3.1109 5.2432-1.4244-0.0168-2.7306-3.0524-3.1966-0.56429 1.3379 0.78584 3.0206 1.3422 2.816 2.5512 0.48183 0.0831 0.52319 2.1336-0.71031 1.416-1.7768 0.50015-3.447-1.6574-4.6291-1.2954 1.3414 0.70298 1.0892 1.1361-0.16291 0.38082-1.711-0.81218 0.82056 2.4344 1.883 1.7067 0.31067 0.94076 3.7267 0.46336 2.6493 1.5697-1.3295 1.0148 3.0982 0.0136 1.5862 1.911-1.6107-1.8269-0.27086 0.73549 0.67585 1.008-1.0891 1.0956 1.0733 0.36914 0.46889 1.6396-1.4431-0.58401-1.9297-2.4882-2.8633-3.3643 0.23746-0.60904-1.1219 0.98449-1.4812-0.23196-0.94734-1.2413-2.1726 1.1182-3.1401-0.70826-2.6188-1.1605-2.9873-4.3705-2.5834-6.8521 0.78207-2.0518-0.76229-5.0144 1.923-6.1395 1.0675-1.1198 2.6129-2.811 0.92544-4.0778 1.6023-2.2774 2.9386-5.3458 6.0618-5.6907 1.8739-0.55595 4.3154-1.1061 3.1046-3.4214-0.69605-1.4607 3.5687-0.43534 1.7007-0.18461-2.2447 0.10923 3.573 1.2745 1.6946 2.8165-0.23263 0.67763-0.67604 4.0935 0.4106 1.834 1.1937-0.2037-0.60681-1.5888 0.34806-2.4544-1.4694-1.229 0.73472-1.11 1.4396-1.913-2.0368 0.11098 0.64473-0.6812 0.80843 0.72133 0.83373-1.6432-2.0532-1.176-0.17291-1.8878 1.4945 0.0264 0.85451-0.44862 0.86965-1.1412 1.0743-0.22863 0.48399 1.8115 1.7058 0.21892 1.2083-0.88987 0.76-2.0484 0.52858-2.2644 0.7085-1.642-1.8223-0.12681-2.5823-0.79438-1.1606 0.21758-2.6598 0.38656-0.83597-0.34658 1.7535-0.39642 3.324-2.2403 4.9401-0.30846 0.67972 0.59751 1.3947 1.2229 0.43228 1.5564 0.7394 2.062-2.2324-1.672-0.75294 0.55351-0.0281 0.54279-0.35128 1.2185 0.30548 0.56129-1.0842 1.3641-0.34172 2.339 0.78308 2.0195 0.3358 0.60871 0.55608-1.093 0.91006 0.26431 0.38456-1.6605 1.5476-1.1556 2.6202-2.3133-1.3209 0.71693 0.87636 2.4353-0.20838 0.78005 2.1656 1.0589-0.60957-1.7478 0.97038-1.1402 0.43099 1.8821 1.3644-0.96305 1.8311-0.82581 0.5844-0.90267-0.58593-1.483 0.80577-1.9366-1.1059 2.0256 2.096 1.8364 3.0646 0.43551 1.4948 1.4855-2.3466 0.83984-0.12252 1.4234 1.7091-0.38012 0.99249-4.0187 3.2616-4.4281 2.4338-1.2148-0.29417 2.7137 1.5426 1.6423 0.1618-1.6311 0.26617-0.61705 0.87637-0.11313 1.7435 0.6604 1.133 2.7407 0.81853 4.5092 0.68858 0.8754 1.284-1.9676 1.5342-2.477 0.779 0.7483-0.42406 2.2582 0.53614 3.3232-1.7427 2.5484 3.5591 0.6232 3.2022 3.408 0.40973 0.97325 3.0973 1.2952 1.0676 1.4079 0.54004 1.5796 1.9972 0.87606 1.7505 2.2866 1.2301 1.4156 1.7075 4.0816 2.6734 5.1163 0.0894 0.46107-0.59432 3.2038 0.58467 4.1869-0.0211 1.2457-0.95031 1.3319-0.49771-0.0785-0.24793 1.1888-1.8955 3.0564-1.8754 3.7179 0.70536 1.9264 0.66639 4.6899-0.43506 6.5059 0.0732 2.3419-2.4614 2.0536-4.1423 3.02-0.91044 1.3879-3.0638-1.2024-3.474 1.1199 7e-3 1.9049-2.9501 3.4438-4.5071 2.3161-1.2242 0.46715-2.6381 0.99152-4.2049 0.92991 1.4104-1.1675-1.023 0.21589-0.5032-1.012-1.0114 1.9551-3.206 1.865-5.1263 1.8227-0.86891-0.0695-1.4613 0.41012-1.0111-0.83392zm23.015-10.295c0.48727-0.76004 0.42377-2.28-0.24072-0.63726-1.2746 1.0853 0.74304-2.889-1.0632-1.1662-1.8521 1.3563 0.55583 3.4739 1.3039 1.8035zm-45.589-0.10267c0.5325 0.3173-0.99375-0.97141 0.18526-1.543-1.3874-1.3288 2.4361-3.0562-0.20848-3.1948-1.2083-0.9056 1.7885-0.1879-9e-3 -1.2562 1.1255-1.4779-1.6832-2.8407-1.0206-0.23624 0.0927 1.9377 0.6272 3.7815-0.34659 5.1883 0.24975 1.059 0.37906 1.3855 1.3993 1.042zm41.783-0.14331c1.679 0.16668 1.8978-3.7239 0.23685-1.6944-1.2419-0.0683-1.7241 2.7931-0.23685 1.6944zm-40.897-2.6591c1.1583 0.56666-0.3843-2.1888-0.43283-0.099-0.28436 1.2946 0.3407-0.41988 0.43283 0.099zm43.626-3.0956c-1.0556-2.494-2.2896 1.4764-0.0251 0.4838zm-40.433-6.2079c-2.3221-0.33766 1.9535-1.4417 0.16855-1.2804-1.2734 0.93385-0.73711-1.4788-1.4593 0.32246-0.61812 0.53134 0.81784 1.7634 1.2907 0.95794zm5.4792-0.39277c-0.58011-0.6059-1.4301-2.3944-0.83911-0.50198-0.11159 0.46932 1.7144 0.9175 0.83911 0.50198zm2.288-2.3626c0.24361-1.4653-0.9953-1.1175-0.70259 0.0611-0.0616 0.10208 1.0304 0.1422 0.70259-0.0611zm0.80402-0.40826c0.75101-0.059 0.98387-2.4593-0.34142-0.74879-0.66568-0.0729 0.76594 1.7394 0.34142 0.74879zm30.158-1.5309c-0.88896 0.0484-1.4676 1.9626-0.17104 0.5022l0.12285-0.22711zm-12.619-3.5512c0.93682-1.8866-1.6317-0.33971-0.15297 0.36463l0.16575-0.10711zm5.9041-1.4937c-0.74446-0.98269-0.3007-1.225 0.52905-0.45312 0.0481-1.4558-2.1974-1.8594-2.9848-0.33694 1.1857-0.38157 2.7961 1.608 1.0005 0.54609-0.14345 0.59906 1.5029 1.4355 1.4553 0.24397zm-8.0248-1.4922c-1.7343-0.10235-1.8898 1.9062 0 0zm3.4692 0.21642c-0.28243-0.80358-2.2483 1.4551-0.25322 0.29006zm-1.4191-2.0536c1.5161-0.87915-2.7375-0.49096-0.46302 0.13971zm-12-1.9654c1.7301-1.3575-2.4446-0.29491-0.39708 0.19343l0.39712-0.19343zm-0.65111 37.631c-0.62671-1.0374-3.7377 0.01-5.2438-1.0024-1.3751-0.26822-0.3631-2.6362-1.3192-2.8059 0.97128-1.0784-2.0451-1.2724-0.0774-2.5452 2.0283-1.3214 4.673 1.2576 5.8541 2.8033-1.5314-0.31178 3.0333 3.5143 0.11194 1.4866-1.0228-0.82726-1.8893 0.0852-2.8506-1.0229-0.13673 2.1633 2.4632 2.111 4.161 1.8706 1.2798 0.0758 1.1846 1.4565-0.23701 1.2256l-0.3992-0.01zm0.9029-6.0678c-1.8147-1.5373-2.8735-3.8039-4.1279-5.8-0.51871-1.4118-2.0608-2.9802 0.35324-2.8965 2.0087 0.75801 4.3444 2.4513 5.1953 4.45-0.20204 0.69963 0.32415 3.459-0.74553 1.7156-0.64751-0.95127-2.7124-2.6822-1.2892-0.4618 0.25055 0.61764 3.0777 3.9494 0.6141 2.9927zm-4.2379-1.2922c-1.2623-0.88687-4.6468-2.0298-2.6925-2.6971-1.0624 0.0716 1.2274-2.6643 1.5206-1.8244 1.0854 1.8606 2.264 3.6723 3.2335 5.5961-0.71757-0.29052-1.3812-0.70819-2.0616-1.0747zm3.7798-6.7379c-1.0504-0.41614-2.9386-2.7413-1.0685-2.0828 0.19798-1.413 3.0887-1.3414 1.122-2.017-0.57463-0.72274 2.2568-1.6954 2.4516-1.1328 2.5594 0.0322-0.0999 3.6688 0.17817 5.1882-0.0126 2.5208-1.5083 0.73887-2.6832 0.0443zm2.8348-4.1061c-2.4713-1.1726-1.1232 1.9946 0 0zm-14.817 3.6006c-0.72504-0.98832-0.54389-1.1649 0.15857-1.0039-0.45058-2.9809 1.6156 3.2777-0.15857 1.0039zm8.8658-1.8484c1.2687-1.495-1.5627-0.0523-1.695-2.048-1.8418-1.5759 1.7844-2.429 1.1101-1.042 0.97665 0.58005 0.26975 1.2673-0.083 1.86 1.3682 0.85663 3.2915-2.1722 3.5625-1.42-1.1035 0.70478-1.7193 2.1622-2.8945 2.6501zm7.803-0.0555c0.47114-0.98383 0.66027-4.2513 1.6961-3.614 0.37625 0.1875 2.3624 0.11337 0.98519 1.3258-0.85378 0.77946-1.6578 1.7562-2.6813 2.2882zm-11.082-2.2975c-1.2593-2.0787 1.8969 1.299 0-2e-5zm10.18-1.5208c-8e-3 -1.3183 1.577-1.1342 0.45168 0.19951-0.0671 0.45868-0.51825-0.0202-0.45168-0.19951zm-3.6817-0.73527c0.2611-1.2138 1.2129-1.5455 0.54082 0.0413 0.20481 0.54557-0.54268 0.27719-0.54082-0.0413zm24.745-9.4705c-1.2079-1.6998 3.0051 0.11022 0.70268 0.30553l-0.38459-0.0985zm-30.395-2.5338c0.918-0.87222-1.5638-1.8138 0.23341-2.317 1.8009-1.679 1.7297 0.49181 0.043 0.93572 0.25472 1.2246 2.5534-2.1739 1.7383-0.14318-1.6295 0.58826-0.39858 1.9747-2.3464 1.9677l0.33171-0.44323zm5.0604-1.5763c0.86439-1.9644-3.1878-0.81932-1.1691-1.4851 1.995-1.6922 1.4111 2.8362 1.1691 1.4851zm3.4342-3.5013c0.64747-1.2374 2.3919-1.547 1.8965 0.36144-0.63997-2.6077-1.7208 1.3182-1.8965-0.36144zm5.5937-0.77234c0.48007-2.0335 1.9761 1.0798 0 0zm2.0981 0.0321c-0.99838-0.91907-1.2652-1.6019-0.0279-0.37725 0.60345 0.5876 2.178-0.86693 0.70795 0.43251-0.19518 0.1855-0.50913 0.12375-0.68-0.0553z" fill="#6eb6b1"/><path d="m125.77 212.7c0.97486-0.78119-2.3363-0.11276-0.4832-1.5917 1.835-1.4309 3.6603-2.8903 5.6354-4.2431 3.1296-2.2011 6.4629-4.0831 9.7899-5.9557 1.3019-1.3962-2.0522 0.49332-2.583 0.70788-2.1681 1.0925-4.3113 2.2334-6.4665 3.351 0.14749-1.6062 1.0341-3.1144 0.99674-4.7027-1.1382 0.65032-1.2669 2.6953-1.8973 3.9961-0.30209 0.81776-0.44708 1.7568-1.3606 2.1025l-4.0562 2.7885c1.3797-3.1414 3.0076-6.1767 4.8487-9.0706 3.7233-2.1601 7.7058-3.9029 11.702-5.502 2.3191-0.9889-1.8837-0.36794-2.5132 0.30406-2.4748 0.94033-4.8663 2.286-7.4569 2.8214 1.6534-2.2999 3.5326-4.5165 5.6022-6.4743 0.84662-0.51102 2.6908-3.663 0.41953-1.7121-1.1435 0.85922-2.4213 2.5394-2.7041 0.26103-2.1632-0.48539 0.62265-2.582 1.5297-3.4714 0.71983-1.6332-2.9632 1.5591-3.9569 1.9176-1.1365 0.47362-0.14096-1.5936 0.66844-0.79483-0.57234-0.2464-1.1453-1.7824-0.29443-0.87759 0.15982-1.2163-1.5101-2.5184-1.8788-1.747 0.28592 1.5134-3.8487 1.3844-1.2272 2.688 0.0536 0.57913 0.82845 1.3988 0.0837 1.35-0.37137-1.4012-2.9126 0.35972-2.9492-1.8368 0.70759 0.11551 0.76513-3.3721-0.36996-1.1703-0.0698 2.2263-2.3776 1.0781-0.994-0.078 0.70406-0.6012-0.0661-1.004-0.52679-0.58896 0.55203-2.1797 0.92799-4.5808-0.05-6.7047 0.032-1.5073 2.1602 1.5629 2.0097-0.77002-1.1077-1.2061 1.1001-0.01 1.4166-1.4229 1.1483-0.71168 0.34604 2.2671 0.90174 0.63967 2.2761 0.79146-1.2743-2.2218 0.41677-1.1025 0.90431 0.32885 1.3814-0.64591 1.1239 1.008 0.50218 0.34628 3.3447-0.84642 2.5799-2.2599-0.22033-1.4436 1.7613-2.7345 0.57835-0.71884-0.82016 1.966 0.99937-1.1826 2.0245-0.33905 1.7725-0.80536 1.0597-0.21616 0.85178 1.2133-1.2437 1.2004 0.39237-1.3807-0.84432-0.13501-0.56311 0.60936-0.59332 2.9812-0.80229 0.87359-1.9772-1.3132-1.2181 2.7002 0.25409 2.7107 1.9492-0.8554-2.0088-0.8594 0.16958-1.3597 0.28995-1.6818 1.6605-1.2591 0.75038 0.11868 0.431-0.33479 1.5719-2.8332 1.885-0.45853 1.2876-0.0792-0.53127 1.9334 1.2909 0.88598 2.4722-1.0924-0.54465 2.9566 1.8502 2.2695 2.0762-0.0296 2.7242 1.6284 3.092 3.5783 0.68426-1.2554 1.3022 1.7142-0.068 1.3538-1.0874 0.85072-0.74455 0.41382-0.17449-0.35872-1.3264 0.70476-0.5745 3.4241-1.8337 3.5631 1.8541-0.28418 0.95426 3.2756 1.9134 0.96508 0.97753-1.4246 1.6673 1.5797-0.0302 0.60717 1.6425 2.1336 1.3988-1.2257 1.0605-1.49 2.1703-0.14714-0.4482 1.8825 1.2858 1.7999-1.3064 1.525 3.1368-2.6018 2.4948 0.50913 0.49088 2.6784 0.44811 5.6965-1.3598 7.8971 0.18504-2.5356-0.51363 1.7575-1.8407 1.6114-1.9286 1.6181 0.33332 3.3225 1.6329 2.5326 1.4815-0.13105-0.66783 3.7617-1.8917 4.3024-1.8264 0.32912-3.1722 2.6381-4.7292 0.8448-1.6261 0.24941-2.1371 4.3403-3.9304 3.2898-0.60586 0.40756-0.83653 1.1861-1.611 0.25572-1.4008 0.76093-2.9618 0.20124-4.3515 1.438 1.1511-1.425-1.14-1.853-1.4625-0.89525-0.80576 0.61806-0.0221 1.6183-1.7516 1.2139-0.73737-0.0321-1.8877 0.2376-2.4096 0.0625zm17.529-10.548c0.38148-1.1008 0.67986 1.2636 1.3308-0.36286 1.616-0.95312 0.80581-5.3606-0.51144-2.481-1.7255 0.67634-1.7199 1.8008-1.3484 2.8438-0.6713 0.58052 0.63844 0.48373 0.52904 0zm3.5336-6.0193c0.21982-2.7427-3.4685-0.18179-0.63248 0.44812 0.32863 0.31166 0.66095-0.16154 0.63248-0.44812zm-5.2677-2.7701c0.0301-0.89499-2.2046-0.32686-0.37598 0.43322l0.20304-0.11446 0.17294-0.31878zm-0.37325-2.4381c-1.0281-1.4861 1.2682 0.5334 0.85273-1.3724-0.56346-0.29237-0.41554-0.18876-0.71808-1.1045-0.53512 0.16513-0.43503-1.9564-1.0314-0.22674-0.22063 0.97545-0.33905 3.295 1.0206 3.0683l-0.12352-0.36463zm2.0669-0.51145c1.0232-0.58753 0.11499-2.3256-1e-3 -0.85283-1.0861-0.35287-1.04 2.3012 1e-3 0.85283zm-1.2303-2.4701c-0.26554-0.67973 0.95484-1.8555-0.45257-0.81764-0.88194 0.6813 1.0724 1.989 0.45257 0.81764zm-6.5344-3.3859c-0.69015-0.57878 1.1847-1.2754-0.53034-1.3384-0.20121-0.99593-0.50115-0.8642-0.68135-1.4268-1.0171 1.3863 0.94563 1.4907 0.76379 2.957 0.1656 0.12895 0.37921-0.0454 0.4479-0.19187zm-1.7198-2.5459c-0.65208-1.3345-0.96755-0.88433-0.29972 0.40672-1.7226-1.1632-0.83963 1.2461 0.18314-0.0525l0.11658-0.35416zm4.7019-0.0505c-0.47997 0.0997-1.7316-1.8512-1.2054-0.0888 0.58017 0.0629 0.66875 1.122 1.2054 0.0888zm5.4515 4e-3c0.0786-1.6444-2.35 0.36523-0.1133 0.10502l0.1133-0.10503zm-11.476-0.71497c-0.18154-0.45023 0.66413-1.3458-0.51677-1.543-0.73941 0.30774-0.46187 2.4367 0.66256 1.7449l-0.14579-0.2019zm-2.1167-1.7398c-0.19616-0.87928 1.8047-1.4321 0.12308-2.0626-1.1932 0.0599-2.3984 2.486-0.56853 1.5076 0.23858 1.1709-0.54371 2.4477-0.34001 0.59024-1.3483 1.1139 1.2336 1.8242 0.78546-0.0352zm8.7269 0.68416c1.1714-1.6694-2.5885-3.483-3.0484-1.3147 1.2575-0.11839 0.0992 1.6277 1.9828 1.5715 0.37157 0.0262 0.74999-0.0611 1.0656-0.25674zm-5.2278-1.545c1.0752-1.3552-1.9676-2.0173-1.5742-0.51752 1.413-1.5021 0.16786 0.37593-0.0367 0.97383 0.47299 0.30246 1.2402-0.13751 1.6109-0.45631zm-5.162-0.1549c0.42497-2.9167-2.506 2.2109 0 0zm-8.0118 33.324c-0.79113-0.75373-5.2021 0.41118-2.432-0.59502 0.89243-0.61508 3.8158-0.0473 2.6794 0.78185l-0.24741-0.18693zm-6.3986-0.7248c-1.5394-0.83943 0.47299-0.65985 0.32837-0.64637 0.17658-1.0682 0.28659-0.13162 1.138-0.97361-0.44024 0.83995 1.8268 0.85823 0.17296 1.6477-0.52483 0.22435-1.105 0.0533-1.6394-0.0278zm-5.938-1.3346c-0.94155-1.1632-0.62889-1.9499 0.0893-0.23046 1.0732-0.21362 0.46266 1.3154-0.0893 0.23046zm9.0469-0.31494c-1.202-0.42527-1.9688-1.3061-2.852-0.56867 0.0202-1.5094-1.1848 0.4801-0.99553-1.2176 0.81322-1.3155 0.37535-1.2563-0.80045-0.61838-0.98169-1.4597 2.4585-2.4693 3.4021-0.88443 0.82522 8e-3 3.0755 2.6728 1.7751 1.8181-0.40307-1.2779-0.88728 1.4775 0.20428 0.76004-0.0975 0.0427-0.79076 1.463-0.73348 0.71095zm-12.321-2.5467c-0.95075-1.3684-2.3486 1.0442-3.415-0.81076-2.5149-1.2319-2.9699-4.5192-2.4579-6.9989 0.85509-1.1454 0.90151-1.0619 0.22501-2.3338-0.85081-1.7398 2.1678-4.4579 1.5874-1.2687-0.33699 1.1248 1.0126 3.6915 0.16903 3.8127-1.5166 0.32323-7e-3 3.1607 0.67969 4.35 0.81202 1.8295 2.8755 1.1523 4.2429 1.6494 0.89541 0.18239-0.67611 1.4392 1.0181 1.3013 0.92562-0.65195 1.7845 1.3468 0.13657 0.45993-0.85682-0.6323-1.6208 0.91736-2.1858-0.16117zm18.671-1.4569c0.34091-2.7563 2.5004-4.8268 3.8191-7.1686 1.7369-2.7197-1.5919 0.54089-2.0183 1.5495-0.66102 1.0275-2.3226 3.5493-1.6424 0.70893-0.11923-2.8362 2.2683-4.5066 4.1127-6.2363 1.5462-1.4027 3.2378-3.1027 4.9034-4.0898 0.79693-1.7407 3.0553 1.1993 1.4595 2.5615-4.1341 4.0694-7.4474 8.8706-10.537 13.752-0.11477-0.34798-0.0802-0.71842-0.0965-1.0774zm-3.4165 0.37583c-1.7654-1.9555-3.2711-4.2464-4.2524-6.6928 0.0951-2.4076 3.0989-0.60095 4.1832 0.50145 0.51158 0.59903 1.625 0.93601 1.7466 1.7048-0.042 1.2969-0.0894 3.513-1.4048 1.4571-0.79949-1.2368-1.6986-1.0175-0.66029 0.29687 0.3895 0.6936 3.2286 4.2852 0.38766 2.7326zm-4.7038-1.4874c-1.0782-0.54434-2.747-1.242-1.7996-2.4407-1.3872 0.25284 0.95949-0.93155 1.0353-1.6473 1.1995 0.9813 2.8878 4.1633 3.0672 5.2503-0.78724-0.34636-1.5454-0.75613-2.3028-1.1622zm-11.404-1.5256c-1.088-0.42915-0.78674-1.6881-2.0424-1.5316 0.56588-1.2718 1.5779-1.3693 2.2869-2.8194 0.1905 0.7151-1.5549 2.7594 0.73146 2.1891 1.71-0.40816 2.2901 4.1834 0.58722 1.9351 1.9015 0.65511 0.0832-1.4407-0.5397-0.14733-1.0869-7e-3 1.1162 1.2136-0.73052 0.72185l-0.29297-0.3477zm0.47418-1.0805c-0.59225-1.3288-0.89684 1.7796 0 0zm7.2968-0.60821c-0.0237-1.312 0.57296-1.8905 0.31858-0.23105 0.0274 0.84123-0.57791 1.7142-0.31858 0.23105zm-1.2114-0.25757c1.0067-1.3342-0.3211-2.8027 1.8734-3.1897 0.11787-1.1012 1.8448 0.4192 0.48184 0.62974-0.31783 0.28467-0.9254 1.4699-0.57325 0.28691-0.78359 0.59834-0.69516 2.0753-1.782 2.2731zm-3.4396-0.90283c-0.84121-0.29466-1.7293-1.1887-0.54933-1.5102-0.41814 1.0286 2.55 1.8784 0.54933 1.5102zm13.16-1.6499c-0.95556-1.1257-3.2232-1.6794-1.2463-2.3831 0.93109-0.52806 1.1848-1.0562 2.2779-1.217-2.1858 1.6668 3.2397-0.26702 1.4281 2.2539-0.45519 1.3842 0.2297 3.6276-2.4597 1.3462zm-17.128-0.25327c0.85662-0.49968 1.3372-0.90898 0.87045-1.7716 1.9154 1.5926-0.45464-2.9406 1.1497-0.54343 1.1966 1.5643-0.62636 2.883-2.0201 2.315zm7.7775-0.70377c-0.9524-1.35 1.1152-2.2393 1.3736-2.6498-1.177 0.0145 0.13445-1.8252-0.0318-0.41175 1.7238-0.75449 4.3812 2.7428 1.9974 3.0578-0.80764-1.3078-2.7237-2.2563-2.8258-0.10908l-0.22984 0.13889-0.28347-0.026zm13.733-2.018c0.51-1.4601 0.71647-4.1022 2.4701-2.488 1.0939 0.10901-2.0862 2.5778-2.4701 2.488zm-21.944-0.58551c-0.775-0.78419 1.9536-2.0028 0.52546-0.50764 0.14504 0.34128-0.60479 1.5406-0.52546 0.50764zm6.9774-0.0711c-0.67635-0.63717-1.9288-0.37008-0.45857-1.6596-1.2829 0.59686-0.5234-1.7801-1.4377-1.6591 0.1052-1.9288-3.9775 0.44162-1.5407-1.3174 1.9702-1.336 2.0438 2.6103 3.362 1.1123-0.30553 1.0969 3.3486 1.2358 1.401 2.9465-0.31193 0.39423-0.80899 0.68226-1.326 0.57727zm5.7597-0.7888c-0.0381-0.66929-1.4896-1.6684 0.34899-1.8479 1.3562 0.62461-1.0569-0.19697 0.21264 0.94923 1.0111 0.68576-0.94619 1.646-0.56163 0.8987zm-14.42-0.5424c0.96107-2.0297 1.165 0.5273 3e-5 0zm6.35-1.1198c-1.5197-0.70848-0.55211-1.983 0.19716-0.21244 0.33471 0.32296 0.0224 0.81461-0.19716 0.21244zm-4.6318-0.96929c-0.25699-1.623-1.3248-2.7545 0.48723-4.014 0.8466-2.3799 3.131-3.6185 5.5106-3.9907 1.2995-0.56571 2.1367-0.26596 1.9066 0.91735 0.58014-1.267-0.43347-2.2437 0.78327-2.2678-0.16793-0.76006-0.48424-2.5467 0.4588-1.4733 2.8749-0.48709 2.8491 3.7679 1.4445 4.9977-0.39124 0.38799-0.55449 2.4539 0.81858 1.4044-0.72348-2.3831 1.0396 1.7602-0.8664 1.6502-0.5039-2.4275-1.0486 3.2774-0.99989 2.9e-4 -0.44425-0.37728-0.97576 1.4592-1.3328-0.27835-0.87205-1.0556 1.5466-4.1371-0.65327-2.1076-0.47893 0.42702 0.0414 2.3748-0.61489 0.91499-0.65707-0.14232 0.49121-1.0331-0.0831-1.5825 0.84745 0.26035 1.7417-1.066 0.448-0.19907-1.1805-1.0043-1.8912 1.7946-2.7774 2.3041 0.27383 1.9623-2.0112-1.2231-0.19516-0.4771 1.1596-0.68159 1.1828-3.116 0.11347-0.88732-0.73882 1.2935-0.21697-0.95139-1.2282 0.66237-1.0005 1.4165-0.53748-0.55067-1.3584 0.80143-0.77841 0.90722-1.5457 2.1496 0.0998 2.4426-0.69654 0.96641-1.7146-0.84008-1.2709 0.92315-0.35059 0.6632-0.91657 2.2318-0.69052 0.25916zm10.387-9.5392c-0.85216-2.0631-2.1634 1.7046 0 0zm-1.8522 9.9569c-2.631-1.9637 3.6556-1.7974 1.2369 0.27945-0.39493 0.41293-0.9035-0.0552-1.2369-0.27945zm17.682-1.2115c-0.86754-1.3351 1.6922-0.23809 1.6948-0.58449-0.30482 0.90089-1.0982 1.9043-1.6948 0.58449zm-20.282-0.41116c0.59571-0.97147-2.5432-0.36384-1.1238-0.80564 0.15807-1.152 2.1789-0.29307 2.9554 0.60481-0.65176 0.38885 0.11791 1.517-1.2451 0.68784-0.28178 0.94574-0.64968-0.0981-0.58646-0.48701zm6.5114-0.18516c1.3322-0.5702 0.0353-2.9172 1.2439-2.9509-0.0434 0.94778-0.0939 3.5752-1.2439 2.9509zm-6.1034-1.3521c-2.895-1.3019 2.717 0.2078 0 0zm21.493-0.91295c-0.51493-2.0666 1.7388-0.98662 0.51766 0.75225-0.0315 0.6057-0.41281-0.6809-0.51766-0.75225zm13.23-0.38158c0.59378-1.1095 4.3862-0.10289 1.4983-0.13718-0.36511-0.10949-1.7294 1.0068-1.4983 0.13718zm3.2168-0.71867c-0.92838-0.70437-0.82169-2.903 0.1355-0.88672 0.34602 0.44087 0.92617 1.4424-0.1355 0.88672zm-30.977-3.4102c-0.21307-2.5564 1.2786 6.9e-4 0 0zm-0.93-1.3565c-0.65009-3.1854 1.8731 2.5211 0 0zm1.8139-0.0172c-0.13585-1.14 2.6572-0.2303 0.67071-1.1948-0.61305-0.7885 1.7586 0.0973 0.56386-1.0099 1.3877-0.84502 2.583-2.3944 2.9828-3.5089 1.0473 1.9568-3.1024 3.5578-2.2592 4.8999-0.46968 0.37343-2.1841 1.0853-1.9581 0.81371zm7.1578-2.2096c-0.58861-2.1183 1.3973 1.1945 0 0zm-9.4628-2.3956c0.32544-1.0374 2.0303-1.0885 0.54261 0.14142l-0.31117 0.0167zm6.6373-1.5507c-1.5935 0.0718 0.14622-3.1215-0.2205-0.72491 0.0726 0.2972 0.97771 1.4724 0.2205 0.72491zm-2.3484-0.67391c-1.4839-0.27137 0.86047-2.0952 0.30425 0.13786 0.16362 0.54538-0.47335 5e-3 -0.30425-0.13786zm19.086-0.2675c-1.8577-1.0108 1.3267 0.29421-0.0214-1.038 1.1873-2.2194 2.2751 2.7664 0.0214 1.038z" fill="#56aba4"/><path d="m126.27 212.3c-2.962 0.13125 0.15023-2.4079 1.2223-2.7576 3.2985-2.9543 7.2223-5.1383 11.035-7.363 0.8695-0.23393 4.5329-2.7443 1.6519-1.607-2.8751 1.3894-5.6853 2.9073-8.5213 4.3738-0.0224-1.5007 1.6343-3.7594 0.75162-4.5894-1.4946 2.0362-1.2588 5.1501-3.6924 6.4455-0.84644 0.83871-3.4503 2.0793-2.1662-0.22845 1.251-2.367 2.4493-4.8634 4.1859-6.8948 3.6379-1.8296 7.295-3.7502 11.208-4.9184 1.4064 0.24663 2.6247-0.6119 1.0598-1.742-0.0813 0.93693-2.0139 0.9568-1.1039-0.18543-0.12012-0.4702-2.9619-2.306-2.7646-0.63738 0.78847-1.2592 1.6433 1.5713 1.2484 2.2529-2.6925 1.0687-5.3359 2.2733-8.0735 3.2187 0.2073-1.4118 2.6516-3.8902 4.1097-4.9642 0.21928-1.7156 2.288-0.81951 2.1022-2.5953 1.7446-2.3352-2.0532-0.63272-3.0781-0.35806 0.7708-0.8935-0.77828-1.3511 0.69515-1.7269-1.4979-0.70563 3.0848-3.2178 0.99352-2.4854-1.2734 1.6126-2.1903-0.23745-1.322-1.1455 1.2834-1.5339-2.7053-2.8326-1.6296-2.9022 1.4713 0.68077-1.2866-1.2227 0.2186-1.7463 1.5409-2.2554 3.7638 3.1262 5.0888-0.27794 0.15506-1.6357-5.5481-2.4531-2.6199-2.432 0.6296 0.59425 1.2045-0.52507 1.0072 0.62191 1.0937 0.71426 3.1718-1.5041 2.8302 0.65692-1.1724 0.36378 0.57395 1.9198-0.71733 2.7955-0.17754 1.5802 1.9184 1.8118 1.5069 3.6274 0.94349 1.7133-2.0009 2.171-1.5225 4.2709-0.43266 1.5172 1.6081 3.7191 1.7594 1.4093 0.40567-0.7866 0.67932-3.8461 0.83523-1.173 0.0795 0.82444-0.60464 2.0888 0.62528 2.2278 0.99926 0.76918 1.7054 0.40024 2.3802-0.23594 0.77329 0.26654 1.8962-1.9672 3.2323-2.2548 0.89053 0.0786 0.75917 2.5432 0.85218 3.5554 0.19696 1.4874-0.83658 5.3769-1.374 4.7827 0.052-2.223-1.2786 3.16-1.4766 1.2568-0.92113 1.0042-1.1992 1.6662-1.1701-0.14067-1.4076-1.4513-2.1019 2.9862-3.3871 1.052 1.1251-0.35126 1.052-1.611-0.20197-0.95975-0.90057 1.531 0.86297 3.2379 0.0779 4.7729 0.99041-0.49873 2.5129-0.87255 3.1835-1.7477 1.2271 0.86218-1.7569 3.6786 0.54379 2.7312 0.36504 0.5708-0.14302 2.2427 0.16481 1.7214 1.4723-1.2724 0.91184-3.9843 2.225-3.5818-0.24612 1.7333-1.5082 4.5006-3.5413 4.4968-1.3881 0.10418-1.9945 1.9812-3.1181 0.32027-1.3825 0.22802-2.784 0.78349-2.306 2.0426-1.0866 1.6993-0.0948-2.0112-1.2016 0.14848-0.67126 1.5245-0.69913 0.18365-0.81342-0.1846-0.73202 0.51931-2.3 2.5058-2.4462 2.0391 0.40093-1.5771-2.6138 1.4684-2.9444-0.13891-0.93045-1.2145-3.646-1.3134-3.1994 0.13062 2.1958 2.0196-1.5077 1.2494-2.403 1.0233zm19.801-15.574c2.005-0.20034 0.25547-3.3994-1.0458-1.3705-0.0215 0.36454 0.90174 2.1357 1.0458 1.3705zm1.7179-3.8578c0.8743-0.94633 1.6232-1.4764-0.14231-1.0128 0.18678 0.8611-1.2072 0.84781-0.38447 2.0178 0.2587-0.27982 0.4694-0.62215 0.52678-1.005zm-9.2604-0.6985c-0.84214-0.0555-1.5251-0.92288-0.93645 0.65108 0.37811 2e-3 0.76586-0.32708 0.93645-0.65108zm0-10.034c-0.18504-1.6173-3.3527-1.61-1.4396-0.0605 0.35957-0.42171 1.1085 0.98326 1.4396 0.0605zm-2.9104-2.0681c-0.40644-1.2624-1.7962 1.145-0.15545 0.17458zm-19.159 28.729c-0.25579-0.612-0.90465 0.3073-1.2511-0.60929-0.72476 1.826-0.49215-1.045-1.4783 0.0335-0.039-1.1567 0.74316-2.6193-0.98381-1.3426-0.79566-1.0723 2.1901-2.2883 3.022-0.84553 1.0581 0.60403 3.311 2.0393 1.6521 1.8305 0.25556 0.66956-0.38902 2.3007-0.96095 0.93343zm-11.638-2.1976c-0.63905-1.1914-1.1618-0.0814-1.7074 0.57471-1.0082-0.78632-2.2772-1.9773-0.43586-2.3026 1.3543-0.47004 5.2999 2.0401 2.5093 2.0627l-0.36601-0.33477zm18.907-1.1105c0.26537-2.6746 2.3661-4.6938 3.6375-6.9476 1.0175-1.0836 0.68964-2.2797-0.3475-0.63561-1.0481 1.1016-2.2611 3.4054-3.2325 3.8236 0.17288-1.3213 0.22682-2.7692 0.61706-4.0142 1.4693-1.3268 2.8061-2.8261 4.4413-3.9485 1.2514-0.43044 2.2759-3.0537 3.4736-2.3159 0.7706 1.3176 0.75988-1.7561 2.0204-0.18854 0.90254 1.8848-2.6881 3.5736-3.553 5.351-2.6012 3.0257-4.7345 6.4077-6.8912 9.7518-0.31245-7e-3 -0.0623-0.70636-0.16567-0.876zm-3.2626 0.34014c-1.6761-1.9522-3.943-4.1948-4.0337-6.8778 1.7514-1.8016 3.9568 0.88554 5.356 2.034 0.40101 1.2235 0.094 4.1274-1.2203 1.7586-2.3404-2.37-0.22182 1.3796 0.53123 2.2634 0.76313 1.0554 0.597 1.613-0.63328 0.8217zm-20.094-0.57319c-0.87379-0.42621-1.4754-3.8512-1.0549-3.2602 0.34951 0.84198 0.95435 2.7024 0.8176 0.69373-0.71086-1.9827 1.363 0.73794 1.2465 1.3837 1.8136-0.2884-0.50717 1.6557-0.69969 0.42283-0.60378 0.62604 1.3039 1.8321-0.3094 0.75999zm15.469-0.83297c-1.4101-0.57979-2.3498-1.4572-1.9182-2.547-0.83116-0.83887 0.94676 0.23093 0.42958-0.76446 1.1864 0.59741-0.44826-1.5873 0.97906-0.23717 1.0852 1.5594 1.9213 3.1078 2.778 4.6905-0.79031-0.30056-1.5203-0.75133-2.2685-1.1419zm-16.733-3.2019c-0.85529-0.97605 0.92031-2.2728 0.54565-1.0583-0.44386 0.17982-0.2578 0.78746-0.54565 1.0583zm21.5-2.8463c-2.1983-0.50431-1.2787-3.7743 0.3831-1.9124 0.26458 0.815 2.9393-2.0674 1.9212 0.64381-0.33318 0.90131-0.28523 3.4139-1.5467 1.8302-0.25249-0.18724-0.5054-0.37429-0.75761-0.56165zm-20.865-0.10497c0.78748-0.19264-0.40365-1.5471 0.47718-1.9365 0.75424 0.52723 1.2592 2.99 0.21359 1.9112 0.0281 0.47541-0.58601 0.34269-0.69077 0.0253zm14.639-0.91204c0.6878-1.1432 0.16907-1.6252-0.42122-2.5362 1.4759 0.22393 2.1455 2.0513 0.42122 2.5362zm-13.886-1.339c-1.0971-0.80378 0.62816-2.9857 0.13633-0.78503-0.37087 0.26556 1.0925 0.94467-0.13633 0.78503zm12.698-5.3e-4c-0.91224-0.8699 0.33895-3.0679 0.27683-0.77207 0.37368 0.49461 1.0139 1.106-0.27683 0.77207zm12.055-1.8171c-0.16683-2.2857 2.9074-0.25024 0.69448 0.50366-0.99556 1.0925-1.2878 1.0502-0.73953-0.34179l0.0372-0.13367zm-15.824 0.0149c-1.4905-0.87922 2.0283-0.22541 0.0907 0.25275l-0.0906-0.25276zm6.2479-0.81695c-1.6632-0.46754 1.2917-1.1054 0.42332 0.41364l-0.2335-0.12151zm-6.1999-0.3799c-0.96021-0.46216 0.14339-2.0045-0.10492-0.43567 1.3687-1.9248 0.9687 2.1158 0.10492 0.43567zm1.8322-1.5573c-1.3797-1.2696 1.135-1.0196 1.1181-0.79573 0.98455-0.79707 0.16627 1.3777-0.22809 1.2649-0.33741-0.0691-0.62155-0.26724-0.89005-0.46917zm-1.8245-1.2311c-0.4834-0.83645 1.9239-0.59035 0.53297 0.38069l-0.23321-0.0995-0.29977-0.28118zm26.667-0.0797c1.4632-1.8459 1.9577 0.54338 0 0zm-33.867-1.3112c1.6686-2.1071 2.8878-5.2159 6.0544-5.3314 0.61862 0.3587-3.709 1.4049-1.1304 1.6477-0.78206 1.0139-2.0769 1.1722-1.4813 0.0883-0.63727-7e-3 -2.058 1.7356-0.6515 1.308-0.54395 0.58773-1.8414 2.0419-2.7912 2.2874zm10.069-0.55757c-0.78103-0.10572-1.8699-0.97532-0.23718-0.98901 1.1516-1.0017-0.51066-0.99595-0.0331-1.9298-0.32765-0.6727-0.0967-1.8152-1.0412-1.5442 0.18642-1.187 1.4661-2.4499 1.0345-0.8544 0.91658-0.45719 2.2284-2.4059 2.4917-0.85585-0.93176 0.62519 0.39716 3.2348-1.278 3.0064 0.47967-1.2891-0.18423-1.5111-0.60912-0.0329 0.90611 0.68497-0.11084 2.0979 1.4927 2.4721-0.44959 1.1607-0.52633 0.75608-0.86255 0.1728-0.71715 0.16791-0.38168 1.71-0.9577 0.55491zm21.945-1.605c-1.7625 0.0658 0.16118-1.7517-1.5045-1.7508-1.0477-0.5653-2.199-0.9751-2.9231-1.902-0.17414 1.1683 2.3998 2.0336 0.0294 2.3546-0.90604-0.0247-1.3634-0.0372-1.0854 0.92147-1.9275 0.88021 0.58491-2.5183 0.5205-3.3948 1.6558-1.7301-0.55431-0.0421-0.80285 0.82343-1.3877 0.47126 0.92761-2.5006-0.77423-0.79434-0.62035 0.90907 1.1447 2.4582-0.8681 1.8453 1.0497-0.62393-1.9713-1.4414-1.0081-2.8795 0.45881-1.073-1.0559-4.5009 0.47056-3.1187 0.61465-0.40606 0.0525 0.93758 1.0885 0.16537 1.693-0.6361 2.1543 4.0415 2.9065 1.278 0.48344-1.7448 1.7618-4.1146 3.4014-4.1396-0.58373 0.91168 2.387 3.2895 0.32235 1.7912-0.88232-1.8461-2.4657 0.0525-2.3265 1.0081-1.2617 0.5123-0.95274 4.4664 1.1051 3.6894-0.39652 1.6996 1.2546-0.96452 1.0274 0.56075 1.732-0.21698-2.4536 2.1526-0.14912 0.82602 1.4681-0.0121 1.8192 2.2501 0.44264 2.1447 0.44765 0.19923 0.73638 1.3006 0.1275 0.57131zm-4.4022-1.7281c0.0292-3.3469-1.2826 1.6153 0 0zm-3.0061-2.2773c2.2566 0.1986-2.0773-1.987-0.56352 0.2472 0.20383 0.11341 0.53322 0.0131 0.56352-0.2472zm16.184 1.1964c-0.7128-1.1641 1.4821-1.5804 1.0121-0.10977 0.65083 0.5155-0.9231 0.70125-1.0121 0.10977zm-10.205-3.744c-0.72416-1.0379 2.2899-1.8926 0.90017-0.62743 0.0101 0.40312-0.49544 0.94315-0.90017 0.62743zm9.2417-0.0584c-2.0829-0.0238 0.7126-1.0702 0.43773 0.25302l-0.24464-0.0743-0.1931-0.1787zm-14.692-2.1126c1.1043-2.7511 0.56872 1.9254 0 0z" fill="#46a39b"/><path d="m125.96 212.07c-2.683-0.97016 2.6635-2.8452 2.3448-1.023 1.1966 1.1267-1.33 1.1557-1.6961 0.2422-1.7035 0.28507 1.7234 0.73861 0.0284 1.0432l-0.40013-0.0663-0.277-0.19574zm7.9492-1.8331c0.35684-1.6982-1.0262 0.95453-0.69045-0.92387-1.0498-1.0541-2.522 1.7434-3.1325-0.27729-1.3793-0.46819-1.0157-0.98597 0.0534-1.5897 3.4956-2.6068 7.3991-4.5814 11.098-6.8648-0.46418-0.97319-3.37 1.2293-4.6411 1.7406-1.6396 0.88104-3.2683 1.7836-4.9332 2.6163-4e-3 -1.6136 1.5682-3.4688 0.80396-4.77-1.4401 1.844-1.2945 4.6127-3.1039 6.1626-0.95492 1.2826-4.2344 2.0013-2.4463-0.37892 1.4697-2.6313 2.5421-5.9323 5.5776-7.1726 3.0752-1.375 6.081-3.0226 9.3506-3.8848 2.0068-0.45581 2.9501 1.3691 4.1883 2.2424 0.63404-0.50682 2.566-3.3462 1.876-0.97161-0.6405 1.6805-0.82411 2.7417-1.0066 1.0942-0.76378 1.2885-2.6924 0.51679-2.9179 1.7459-1.2977-1.8836-4.138-0.51271-2.1758 1.1342 0.12795 1.3286 0.24263 2.4661 0.30164 3.567 0.96512-0.28587 4.2281-1.506 1.9744-0.19455-0.61336 0.76094-4.0099 2.2673-1.9658 2.649-0.84555-1.1184 1.6202-0.2104 1.645-0.067-0.9444 1.8287 1.7543-0.22089 0.45934 1.0293-0.65114 0.26284-2.5029-0.6563-1.7986 0.71549-0.84793-1.4289-4.4009-1.385-4.3381-3e-3 1.2663 0.7162-1.9267 2.1118-1.8623 0.28635-0.4213 0.13973-4.0763-1.5517-2.6618 0.52875 0.5018 0.33228 3.0944 1.8894 0.34629 1.5862zm5.3293-5.2279c-0.29216-0.74074-1.1695-1.2519-0.8195 0.0682 0.0521 0.12552 1.4798 0.15084 0.8195-0.0682zm3.0763-7.6591c0.20573-1.0334 1.1096-1.0401-0.39836-1.0592-0.85902-0.71145-3.2475 0.17595-0.97528 0.21055 1.9638-0.15856-1.4646 1.9958 1.0868 1.2712 0.17965-0.024 0.40184-0.22249 0.28683-0.42255zm-27.566 11.086c-0.60625-0.76715-1.0778-1.1625-0.47211-2.1081-0.74356-0.71995-2.2632 1.3572-1.0188-0.44252 1.8304-2.4123 4.2227 3.3386 1.7683 2.3715-0.0841 0.0969-0.31893 1.0886-0.27732 0.17909zm8.9704-2.8988c0.39622-3.0716 2.9347-5.2925 4.2374-7.9973 0.0728-1.4245-2.0068 1.7465-2.4414 2.258-0.61459 0.78116-2.2119 3.3565-1.597 0.86889-0.10668-2.3243 1.4162-4.269 3.2843-5.3265 1.8423 1.1843 2.8291-0.39944 2.7248-2.4213 0.83036-1.4083 1.0461 1.1896 2.2642-0.40303 1.0011 1.7841 0.65217-0.74381 1.7447-0.0262-1.0185 2.1088-3.0608 3.6506-4.3755 5.6266-2.1255 2.717-4.067 5.5733-5.8363 8.5337-2e-3 -0.37087-3e-3 -0.74243-5e-3 -1.1128zm-3.1341 0.29525c-1.0325-0.53956 0.58528-1.6276-0.8553-0.63762-1.1523-1.568-3.0259-3.6913-1.978-5.7296 1.448-1.6581 4.355 1.1037 4.1506 2.796 0.10983 3.4502-2.1344-1.6109-2.9168-0.0835 0.89415 1.0858 2.6648 2.8221 2.3676 4.0559l-0.31515-0.11753-0.45292-0.28367zm-3.0497-0.50936c-1.1761-1.3454 1.1491-0.24997 0.38614 0.23655zm3.4665-6.6784c-1.4684-0.21251-1.3395-2.4723-0.0229-1.5108-0.32145 0.9834 2.6716-2.3292 1.8179 0.28728-0.12253 1.3432-0.35249 2.6523-1.795 1.2236zm11.403-1.5858c0.93467-1.791 2.8676-2.992 3.8778-3.602 0.50652-0.66541 0.90563-2.4982 0.79663-0.48768-0.76252 0.99185-0.21338 3.3566 0.68514 1.0706 0.81415-2.5111-0.013 1.3594 1.6246 0.41539 0.53665-0.27625 1.6829-1.2722 0.81285-0.0376-2.6983 1.2262-5.4346 2.3862-8.2322 3.3689 0.0822-0.27584 0.2845-0.49011 0.43516-0.7276zm16.602-1.4582c-0.037-0.72469-0.93192-0.88167-0.44529-2.0675-1.1638 1.0675-2.8192 1.407-4.1449 0.87505-2.1704-1.1296 1.7961-0.25377 1.383-2.0746 0.37465-1.6817 1.8168-2.6483 3.1813-3.4913 0.63629 2.2504 0.88478 4.7196 0.17184 6.9722l-0.2315 0.30765 0.0855-0.52156zm-1.2164-2.1798c0.83294-1.6608 1.5483 1.2957 1.4541-0.8599 0.35802-2.9027-2.9778-0.57556-2.6564 1.2571 0.15851 0.70761 0.9696-0.20041 1.2022-0.39722zm0.92604-3.2632c-0.62937-1.0899-0.76991 1.4463 0 0zm-23.68 4.9378c0.072-1.2509 2.0019-1.4014 0.65331-0.21176-0.0692 0.0245-0.66257 0.72332-0.65331 0.21176zm16.981-3.6627c0.0499-2.6093 0.80369 0.60654 0.10353 0.97823-0.10498-0.31418-0.0981-0.65185-0.10353-0.97823zm-2.7756-1.4452c-0.66372-0.48567 0.83845-1.9718-0.85511-1.0164-0.8683-0.88247-2.3043-2.0971-0.75279-3.224 1.579-0.52469 0.37186-1.6923-0.35778-0.30431-1.2778 1.7351-2.124-1.142-1.0319-1.3193 2.1043 1.9369 1.1197-2.3626 2.9394-1.4052-1.1235-1.0244-0.66104-2.2134 0.41218-3.204-0.15482-0.86922-1.7491-2.1568 0.0498-1.2098 1.6475 1.3151-1.3874 4.2773 1.5593 4.5994-0.19065 1.1958 1.2542 3.4491-0.64197 3.4154-1.099 1.3188-0.50581 2.2808-0.89175 3.8093-0.0909 0.0528-0.44669 0.017-0.42931-0.14115zm-0.5677-3.5592c0.79095-0.43488 1.2016-1.6195-0.13002-0.68351-0.64744 0.13374 0.34412 1.4658 0.13002 0.68351zm1.5264-0.18441c-0.56905-0.8421-1.9169 0.85853-0.0519 0.27451l0.0747-0.11348-0.0229-0.16102zm-6.437-1.2947c-0.62451-1.9739 1.3664 0.89709-2e-5 0zm2.6168-1.0535c-1.159-1.2125 0.57891-2.8104 1.1627-1.1488 0.11449 0.48324-0.68739 1.5782-1.1627 1.1488zm-1.5568-2.1138c1.9463-0.28299-1.6043-0.88248 0.72711-1.4581 0.32782-0.63199 0.3483-1.7263 1.0046-0.15908-0.72564 0.0552-0.0766 2.8621-1.8731 1.8189l0.14127-0.20148zm-4.6208-0.33364c0.11301-1.0057 0.64728-2.4285 0.66952-0.56713 0.78631 0.57534-1.054 1.6084-0.66952 0.56713zm-2.3662-1.5592c-0.0334-1.8889 1.7672 1.653 0 0z" fill="#2c968d"/></g></g></svg>
