<?xml version="1.0" encoding="UTF-8"?>
<svg width="55.07mm" height="57.85mm" version="1.1" viewBox="0 0 55.07 57.85" xml:space="preserve" xmlns="http://www.w3.org/2000/svg"><g transform="translate(-80.308 -167.44)"><g transform="translate(52.65,-8.775)" stroke-width=".26458"><path d="m51.481 233.48c-0.8841-4.889-2.9302-9.5098-4.9374-14.031-1.2394-1.6662-3.7195-1.6179-4.7672-3.162-0.89709 1.3362-1.2783-1.5154-2.8945-0.52715 0.54666-1.8005-1.2566 1.4497-1.9367-0.72185-1.0466-0.99012-1.8954-2.4644-3.1107-2.3416 0.99763-1.1038 0.86414-1.2279-0.31862-0.56212-1.0441-0.91346-2.9251-1.0588-3.412-1.2944 1.1192-1.1362 3.2618-4.3134 0.65108-3.1918-0.92624-0.70868-3.3102 2.0919-1.97 0.12 0.16881-0.94584 0.64511-2.2277 1.037-3.2312-1.4497-1.2671-0.22035-0.92707 0.44909-1.6286-0.33415-0.98302-3.1439-1.15-2.5241-3.112 0.8832-0.86134 3.7985-1.6556 3.2364-2.5839-1.2091 1.5258-0.95355-0.29337-1.6384-1.0907 0.57678-0.19789 1.7622 1.4482 1.1407-0.26658 1.3847 0.42165 3.5051-0.91874 0.99292-1.2429-2.0774-1.817 3.1836-0.74423 1.1121-2.1301 1.193-0.12733 1.6601-0.1639 3.0072-0.57588-1.4124-0.67256 2.6543-1.8661-0.16265-1.407 0.22398-0.97925-1.3937-1.1343-0.52743-1.9047-2.2087-1.2293-0.18679-3.3682 0.73749-4.6536 1.383 0.31238 2.1112-0.29403 3.2997-0.67105 0.73434 1.3467 2.584-0.19718 2.3879-1.4961 1.3595-0.3819 3.6077-1.379 2.6949-2.534 2.6741-0.46352 5.4713-0.61444 8.1569-1.3318 0.67192 0.14996 3.4964-0.45142 1.7034-1.0131 0.77347-0.40855 1.649 1.1872 1.4328-0.27171 1.4184-0.27651 3.3603 1.928 2.2147-0.0622 0.94086-0.76834 2.3576 1.4524 3.1116-0.34702 1.8096 0.18334 3.6532 1.2854 5.0212 1.9895-0.90072 1.1688 0.85452 4.1953 1.2289 1.7179 1.1551-2.1262 3.5679-1.1478 4.1911-1.1836 2.5682-2.1008-2.4612 4.7579 1.0264 3.6343 1.6103-0.6861 2.0041 1.231 2.9795 1.3495-1.0466 0.48068-2.567 0.77845-1.0182 2.1825 1.6264 0.38591 2.3997 1.8233 3.6738 2.2053-0.13588-1.6116 1.6534 1.0318 2.6535 0.72043 1.2819 1.5987 0.78963 2.953 1.0457 4.025 1.5132 1.8135-0.44457 3.5079 0.15214 5.9351 1.1061-2.009 1.6832 1.502 0.37385 1.9077-0.55823 1.91-0.288 3.9331-2.2664 5.1505 0.54932 2.0759-1.1876-0.69136-1.2204 1.5962 0.36346 2.0055-1.6513 2.1168-1.2934 0.78813-0.38967 0.88697 0.08567 1.6892-0.67692 1.8158 1.3497 0.6201-0.64894 2.5106 1.1816 1.1772-0.40004 1.5968-2.7552 2.5952-2.2545 4.3221-1.522 1.219-2.7983 1.7302-4.1527 1.7878-2.2868 1.4167-5.9614 0.21317-7.7029 2.7152-3.3116 4.1577-7.9268 7.6033-9.5211 12.871-0.82344 2.7138-0.2425-2.4674 0.801-2.9864 3.5471-5.9737 10.012-9.9264 12.219-16.739 1.0273-4.3005 4.8065-7.0209 7.0719-10.592-1.8193 1.1961-3.6157 3.8856-5.1065 4.6546 0.33533-1.7819 1.9667-5.6045 1.6309-6.1764-2.4175 5.5065-4.0385 11.383-7.3011 16.492-2.183 4.3292-6.4757 6.9857-9.0189 11.06-1.8841 2.2115-0.59509-2.837-0.4148-3.8037 2.0479-7.6834 5.1797-15.058 6.742-22.88 0.48149-2.9338 1.8167-5.5793 2.98-8.2696-0.49651-0.35944-1.8932 3.0098-1.4955 0.38168 0.3128-1.2281 0.21791-3.0551-0.29121-0.86347-1.3049 4.1672-1.9725 8.5088-3.3229 12.658-1.207-0.40306-1.636-4.4849-2.627-6.2191-0.23795-1.1956-1.6509-3.7795-0.89758-1.0551 1.0199 3.5052 2.5282 7.0169 2.5341 10.708-1.7201 5.5958-3.4349 11.202-5.108 16.806-1.677-1.5365-2.0114-5.498-2.6561-8.058-0.74989-2.7472-1.6978-5.6118-0.72083-8.4476 0.25052-1.7406 1.5525-4.9502 1.0488-5.7204-1.071 2.1019-1.3594 5.4591-2.4633 6.9178-1.2146-3.7999-2.6453-7.5267-4.0199-11.274-1.1207-1.0436 0.64504 2.8882 0.72737 3.664 1.9653 6.6796 4.0647 13.323 6.026 20 0.13913 3.1641-1.7262-1.8333-2.0843-2.6977-2.4127-6.0002-5.4165-11.748-8.2328-17.564-1.0449-1.1981 0.70495 2.6632 0.93801 3.3662 0.67205 1.2798 0.70882 2.2264-0.62436 0.81063-0.70056-0.73919-2.8404-2.1876-1.0354-0.39306 2.5346 1.9859 4.135 4.6528 5.1651 7.6588 2.7823 6.1376 6.094 12.188 7.2998 18.882 0.21835 0.60771-0.56205 1.3739-0.35099 0.23796zm3.2631-6.0478c1.9941-3.0229 5.0527-5.1362 7.1372-8.0789-1.9537 0.19065-3.9249 0.27228-5.8694 0.48705-1.4899 2.5145-1.7339 5.6199-2.264 8.4679-0.27188 1.3908 0.55979-0.20595 0.80831-0.57045zm-1.1651-6.3213c0.7193-1.145 0.41831-1.656-0.9337-1.5139-4.0187-1.1307-0.57795 3.6949-0.62139 5.7847 0.69897-1.0356 0.97043-2.9476 1.5551-4.2708zm-4.0935 0.0659c-0.0533-1.3919-1.4722-2.0156-0.55994-0.22824 0.27958 1.0931 1.2786 2.5222 0.65604 0.56722zm23.861-4.9736c1.1046-1.8115-2.1085-0.11359-0.78774 0.47316l0.40374-0.1636 0.384-0.30956zm-43.984-14.739c-0.91072-1.6611-1.2893 0.91516 0 0zm3.589-2.4531c-0.4057-1.2873-0.88888 1.8512 0 0zm45.75-8.7914c0.32725-2.0993-2.341-0.62819-0.33986 0.34795l0.33986-0.34795zm-3.2474-4.526c-1.2152-1.123 1.8706-2.1068 0.19029 0.12556-0.10354 0.44283-0.53554 0.25586-0.19029-0.12556z" fill="#afc8ac"/><path d="m51.504 232.83c-1.1535-4.8113-3.0557-9.4496-5.1593-13.92-1.7074-2.3791 1.4218 1.2032 1.3504 2.2663 1.5219 3.8144 3.2893 7.6394 3.9564 11.704l-0.10093 0.26952-0.04655-0.31932zm2.3968-0.63064c0.12266-1.0908 2.1567-3.984 0.87237-1.4849-0.29245 0.37406-1.2463 3.7362-0.87237 1.4849zm-0.45095-4.104c0.1866-1.3241 0.61973-4.8104 1.097-4.8286-0.29842 1.7714-1.0807 4.5668-0.74007 5.8122 1.5939-2.7605 3.689-5.2002 6.2174-7.1509-2.2184 2.3353-4.4221 4.7033-6.224 7.3802-0.69139 0.52635-0.31479-1.0331-0.35041-1.2128zm2.3718 0.4362c2.1937-3.1002 5.0167-5.6936 7.6269-8.4398-2.5558 2.9957-5.2769 5.8496-7.8021 8.869l0.17513-0.42918zm-4.2326-3.7435c-0.87235-2.5702-1.3863-5.2153-1.9069-7.8646-1.0064-2.3642-1.3518-4.8633-0.47466-7.3435 0.139-1.8784 1.6492-4.648 0.97992-5.9153-1.3166 1.7216-1.368 6.2924-2.5886 6.7511-1.176-3.7452-2.5018-7.4529-4.0054-11.077-1.2633-1.0501 0.47459 2.6611 0.58075 3.5192 1.743 5.3593 3.1876 10.82 4.9179 16.176 0.47169 1.4442 1.7829 4.4901 0.97495 5.1881-1.7997-3.9475-3.4815-7.9623-5.2083-11.947-0.85552-2.3061-2.4476-4.3824-3.3901-6.7317-0.28463-1.1239-2.799-5.4288-1.6736-2.1697 0.21249 1.1135 2.2266 4.6589 1.5652 4.4381-0.99907-1.0577-4.1133-3.3222-1.7288-0.65297 2.143 1.8409 3.7131 4.0712 4.577 6.768 0.51354 1.1942 2.3131 4.4669-0.25791 3.082 0.51791-2.2232-5.0278-0.32649-4.8674-3.3356-2.0681 0.43101-2.2067-1.2101-0.47622-1.8141 0.21901-0.67597-1.6756-3.0795-1.523-1.4262-0.64842-1.0512-5.5606-1.2848-2.8287 0.29757 0.99386 0.37521-1.4965 1.9178-1.3186 0.23322-1.3242-0.97017 0.79796-3.5383 0.26447-3.7348-1.103-3.0442 4.082-1.2991 3.0244-4.1471 1.2022-2.6862-2.9165-1.9737-2.1842-0.0538-2.0203-1.4515 0.62795 1.7367-1.1716 0.94969-1.9283 1.7739 0.25346-1.519-1.2589-0.0503-0.80455 0.88994-0.90918 2.5113-2.0853 2.1994 0.59381-1.3658 2.9187-2.8519 1.5492-4.1119 1.6056-1.142-2.3797 0.41272-0.81078-1.5403-0.7105-1.3084 2.9342-0.58505 1.1229-0.15754 2.6992 0.0553 0.99203 1.6771 0.81006 2.2519 1.0897 0.80808 0.96252-3.0401 2.2357-1.7467-0.778-1.393-0.80713-0.98384 0.10518-1.4716-1.3311-0.99442-3.9483-2.0242-1.9112-3.0497 1.1798-0.69739 2.9551-0.55886 3.7655-1.6087 0.2505-0.27154-1.1916-1.7116 0.72026-1.9844 2.2165-1.19 0.66374-4.5032 0.66095-6.5587 0.78087-1.5068-1.888-1.2511-0.8776-1.9402 1.1579 0.34417 1.5096 1.9104 2.5127 2.2536-1.6931-0.35663 1.9899 3.5301 0.60522 0.53247 1.7235-0.54569 0.06059-3.5403 1.563-3.7913 0.32471 0.99285 0.88016 2.274 1.803 1.7272-0.29907 1.9352 1.0208 0.2281 1.6055 1.0916-0.10712-1.2549 1.7466-1.5702-0.5821-1.8129-1.7323-0.2275 0.91161-1.961-1.0757-0.95281-2.5222 0.97334-0.96088-2.7524-0.2164-1.2184 0.1543-1.0548 3.4332-1.7574 2.4161-2.4365 1.7975 1.0549 2.3334-1.5803 3.577-0.18713 1.0786-1.2983 3.2971 0.19417 1.6231 0.35372-0.87833-0.48903-2.4475 1.7919-1.8349-0.0255-2.1398 1.82 1.544 1.3288 2.3359 2.4326 0.97563 0.99312-1.5096-1.8703 0.59213-0.90227 0.54204-1.1588 1.0882 1.2362 1.6592-0.66242-1.2438 0.20875-1.1967-0.6832-0.3204-0.31174-0.57049-1.2837 0.30091-2.8986 1.077-1.8113 1.1553-0.71375 1.5117-1.0993 2.2076-0.43839 1.4119-1.2122-0.91122 2.0097 0.94724 0.87112 2.176 0.81943-3.3657 2.5661-0.38207 1.7358 1.4635-0.69203 2.6537-0.76315 3.9697-0.14679-1.5131-0.96598 0.2727-2.2591 1.003-0.80023-1.3982-3.2328 3.2048 1.306 0.58308 2.0157 0.10836 0.26161 0.59864 1.1649 0.91844-0.11633-0.60169-1.7277 1.5351 0.20181-0.06005 1.1668-1.1889 1.5166 1.6305 1.1374-0.04346 0.5678 0.69216-0.87963 2.0374-1.6006 1.6976-0.58556 0.31931-1.9253 2.4961-1.2599 1.0133 0.1773-0.65055 0.96362-1.6937 2.8073-1.3879 1.3512-1.2841 1.0786 1.988 1.933-0.09339 2.6322 1.6256 0.1253 0.79104 0.54943 0.93438 1.0183 1.8525-1.2016 2.376-2.9837 3.6717-4.5801 0.52594 0.16644 2.8565-0.83537 1.6842 0.51599 0.8097 0.50117-2.9437 4.0254-0.45399 2.242 1.5585-0.79647 2.4606-0.4856 0.80413 0.67693-0.8165 0.70965-1.9035 1.3203-0.46854 1.4203 1.0881-0.30299 1.9836 0.0327 0.93039 1.2196 0.82622 1.243 2.294-0.13726 0.63884-0.0455 0.23083-0.80239 1.5634-0.84622 1.3497-1.2548 1.2817-0.0174 1.7482-0.0123 0.27086 0.77362 1.2229-0.0724 2.3604 0.63429 3.0214 0.90393 1.3888 0.17107-2.2209 3.0596-0.39902 3.4142-1.0621 0.76267 1.1451 1.5073 1.7647 0.9052-0.5248 1.7376 2.3222 0.71207 0.13431 0.66156 1.5259-0.78256-1.0263-3.4718 1.7052-3.6377-0.09428 0.54998-1.66 0.93411 0.15554 1.1781 0.0301 1.6054 2.3769 3.0352-0.57833 3.0967-2.5202 0.65673 1.6753 3.6803 0.18526 3.8003 1.3726 1.2164 0.44462 4.3542 0.38306 5.0539-0.70278 0.37092-1.0654 1.8319-2.3367 0.35571 0.01673-0.03-2.7611 0.87674-0.98489 1.6108 0.17806 1.1262-1.5617 2.2338-0.90293 0.58117-1.5445-0.11354-0.56045 3.1862-0.50185 4.3886-0.89806 1.2355 1.1296 0.1369-0.22426 1.1986-0.14592 1.1458-0.2716 3.1729-1.581 2.3741-1.315 0.61355-3.5075 3.52-3.5525 2.4091 1.1314-0.22652-2.4999-0.91025-3.1942-0.14939-1.5685 0.91092-2.1239 0.35228-1.0307-1.1055 1.3164-2.7805 1.8612-5.9846 4.1422-8.2286 1.0471-1.5081 3.9381-4.0646 3.7217-5.0114-1.7384 1.2895-3.1246 3.3028-4.8284 4.4237 0.4084-1.6742 2.1549-5.8239 1.7058-6.2588-2.6569 5.0902-3.5869 11.063-7.2095 15.627-1.3682 1.9135-3.2409 1.648-4.9485 1.6404 1.2526 0.15142 0.50255 1.9331-0.69806 0.90925-0.58202 0.5619 0.27389-1.4904-1.0083-0.0399-1.2265-1.6672 0.66272-4.5367 1.0689-6.5264 1.8288-4.9514 2.4659-10.238 4.1379-15.226 0.6567-1.1076 2.5334-5.4164 0.35018-2.5605-0.91112 1.1573 0.81637-4.9458-0.44476-2.0585-1.4987 4.2616-2.1125 8.7739-3.4854 13.064-1.1502-0.66302-1.535-4.306-2.5468-5.9841-0.23447-1.0486-1.8141-3.9019-1.0349-1.1734 1.0068 3.1947 2.0536 6.413 2.6249 9.7135-0.69613 4.3308-2.7084 8.3415-3.5827 12.633-0.87368 1.3702-0.95444 5.183-2.0432 4.9762l-0.18238-0.48374-0.18325-0.59071zm1.6417-2.3151c0.40593-1.3426 1.6134-3.4691-0.5508-3.2088 1.0675-0.14015 1.9773-1.0306 0.64551-1.1892-0.82836 0.67483-2.301 2.1823-1.2819 0.26759-2.8444-0.53972-0.90187 3.0986-0.60569 5.0295 0.25254 1.5693 1.0652 2.8481 1.3466 0.51371 0.15052-0.47036 0.29921-0.94132 0.44626-1.4128zm-3.5802-0.94899c-0.02129-1.5161-1.9538-3.5371-0.87944-0.82032 0.36896 1.3846 1.8702 4.1431 0.98613 1.2084zm-8.3967-6.8027c-0.21856-2.2641-2.4441 1.0028 0 0zm33.013-4.5724c1.3179-0.92554-2.8972-1.6532-0.84427 0.13792 0.19598 0.41657 0.61877-0.17694 0.84427-0.13792zm-35.509-1.2368c-1.7613-0.73634-0.43547 1.5872 0.31499 0.23199l-0.31499-0.23202zm0.09106-6.6329c-1.7389-2.8204-2.2695 2.5828-0.0017 0.38916l0.0017-0.38912zm-3.1155-4.2844c1.4653-0.064 1.7852-1.5344 1.8494-2.1124 1.4995-0.9364-3.0044 0.13194-1.4893 0.45806-1.3202 0.80171 2.5764 5e-3 0.20523 0.9945-1.5995 0.17724-2.934 1.5373-0.56537 0.65979zm4.0984-6.8424c-1.2008-2.2768-0.90734 1.0583 0 0zm36.089-1.1969c-1.203-1.0253-1.7108 0.72274 0 0zm-7.7073-2.4617c-1.0587-0.27943-2.9498 1.6454-0.75197 0.73267 0.25458-0.19841 0.71169-0.36106 0.75197-0.73267zm-26.5-0.13892c-0.94673-2.1325-0.72843 1.7153 0.0722 0.42372zm5.3245-2.4333c0.60955-1.2412-0.63672 0.23975-1.043-0.59274 0.67057 0.95267-0.73756 1.7518 1.043 0.59274zm7.8754-2.6575c-1.4999 1.0503-1.6153 2.6516 0 0zm-4.7625-8e-3c0.45523-0.72571-0.88024 0.16353-0.7897-0.0662-0.1076 0.65046 0.63139 0.45302 0.7897 0.0662zm-4.3947-1.2455c-1.9894-0.75953-1.5213 1.8353 0 0zm16.887-0.78739c-1.3186-0.62831 0.48749 1.7581 0 0zm-7.8257 41.588c0.18133-1.622 1.1579-2.8405 0.34554-0.45618-0.09219 0.432-0.66306 1.98-0.34554 0.45618zm6.4415-1.4571c0.90155-1.3386 1.3421-1.1911 0.22449 0.022-0.4518 0.47832-1.0799 0.85703-0.22449-0.022zm12.501-4.3637c1.3992-1.5345 0.8011 0.96284-0.18876 0.37373zm-37.103-4.1574c1.7519-0.76091-1.3952-0.82981 0.62926-0.9618 1.056 0.4351-0.26964 2.0494-0.62926 0.9618zm-4.4895-3.3985c0.83862-2.3366 1.1485-0.40387 0 0zm41.663-21.019c1.9374-1.0319 1.7595 1.0859 0 0zm-6.6801-5.0932c-0.9775-1.2935 0.02733-2.0386 0.32958-1.9844-0.10852-1.4541 0.91084 1.0558 0.92222-0.72494 0.25878 1.7006 3.5165-1.9355 2.748 0.85723-1.2097 0.5553-0.27549 2.3326-1.4321 0.73659-0.87993-0.14804-1.7067 2.1744-1.5762 0.91701 0.81227-1.3309-1.5936-0.42311-0.59434 0.77008l-0.15212-0.13305-0.24509-0.43864zm-8.335-2.7323c-0.53155-1.371 1.7633-0.57755 0 0zm2.1217-1.6401c0.62831-0.94315-0.229-0.62858-0.18506-1.5604 1.6975-0.77541 0.63562 2.7693 0.18506 1.5604z" fill="#94b590"/><path d="m59.675 224.06c0.91231-1.0148 2.3012-2.0674 0.55057-0.29232-0.82769 0.94745-2.8016 2.6155-0.83656 0.58464zm-9.6841-0.85996c0.27773-2.7208 0.5043 3.5423 5e-6 0zm9.6841-0.99212c2.2476-2.2878-0.59374 1.2134-0.59504 0.65402l0.25697-0.29446zm-10.426-2.1559c-0.80271-2.115-1.3294-0.024-0.91835 0.15086-1.2168-3.177-2.8222-6.2581-4.0396-9.3959-1.8096-2.8177-2.8589-6.0723-4.7456-8.8397-0.10269 1.5735 1.0932 3.3572 1.6298 5.0026 1.0538 2.0082-0.48898 0.17188-1.2925-0.45314-0.84609-0.98889-2.3172-1.2964-0.84045 0.0913 1.4827 1.1875 3.3172 3.0989 1.4967 4.6113 1.1144-0.75313 2.4978-1.7541 2.4498 0.41286 0.56514 1.5956-3.2665-0.0985-2.6282-1.3291 1.1333-2.2632-3.7392 1.4726-2.3076-0.73454 2.0182 0.49855 1.4835-2.4262-0.1024-0.74607-0.56919 2.4422-2.6643 0.36064-4.1974 0.60581 1.3986 0.0335 2.4968-3.0207 0.90403-0.99392-1.1054 1.0664-0.44205-0.79774-1.4509-0.48667 1.7482-0.54784 0.42031-3.7661 2.3071-2.0382 0.05483-1.308 1.4196-0.23843 1.1216-1.5338 1.9088 0.11514-0.45754-1.4985 1.7006-1.0718 0.71708-0.85277 1.2819-3.2366-0.07709-3.4819 0.7478-0.76093 1.1325-2.3668 0.18414-1.1068-1.3605-0.14056-4.2823 2.9376-2.7289 0.31429 0.60676-0.41522 2.4396-2.163 2.0695-3.4726 0.33349-1.1043-0.10504-2.0439-0.88324-0.85953 0.11279-1.0563-0.01269-0.6269-0.5921-1.0944 1.0485-0.65084 1.614-1.4825 1.9363 0.0894-0.20416 0.14668 0.11307-4.4334 1.0974-1.8416-0.5232 1.3217 1.4869-1.1877 1.6323-1.7592-2.4475 2.1268-2.8084-1.9604-2.9452-3.8419 0.68857-0.51018 0.46414 3.8979 2.5864 2.3806 0.60278-0.54544 2.8539-1.1574 0.93981-1.7332-0.90444-0.97811-0.82371-4.3974 0.14613-1.9899 0.3746 1.0365 2.6201 0.78792 1.8612 2.2315 1.5278-1.5766 1.573 0.93661 3.1485 0.8303 0.97816 0.37816-0.54941-2.0323 1.0975-0.4753-0.34777 1.3213-0.21262 1.2576 0.46212 0.40094 1.2854 0.33176 0.15493-2.2066 0.82159-1.9755-1.6727-0.72623-2.9893-1.1853-1.7887-1.5976-1.6303-0.0945-0.1858-2.0801-1.5583-0.21133-2.3671 0.66325-1.4823-1.3305-0.16538-2.1005 0.01685-1.8492 3.1453-1.5689 0.99877-0.15081-1.1516 1.0346-0.6608 1.3741 0.36907 0.28221-1.0226 1.8763 2.2774 0.11621 0.93391 2.2215 0.7452 0.54585 3.1878-2.2387 2.5882-0.43237-0.36707 0.92014 1.9454-1.7601 1.5592 0.59818 2.4648 0.0371 3.2707-3.7445 5.9644-3.862 1.6065 0.5899 4.6289 2.5924 3.5876 4.4617 0.951 0.68536 2.4507-2.4553 2.3176-0.0383-0.7858 1.1906 2.3014 0.72947 0.31141 1.3247 0.41283 0.98113 1.0515 0.92732 1.172 2.0816 1.4173 0.28152 4.6809-0.47608 4.5886 0.24211-1.6653 2.2659 0.63195-0.13835 1.277-0.46819-0.05137 0.8442-0.76418 0.9493 0.33416 1.0223-3.1638 0.90666 3.01 0.70243 3.7042 1.0334 0.90319-0.29764 0.1132 1.7569 1.4673 0.58538-0.0084 0.98235-1.8271 1.2164-1.296 2.0605-0.93969 0.85983 0.78504 5.7614 0.23595 1.926 0.48588-1.2578 1.9593 1.3285 2.3914-0.42599 0.4701 1.9767 1.8957 3.7679 1.7717 5.3074 1.0563 0.39396 0.31064 3.5722 0.37487 4.5226-1.6468-2.1289 0.33486 1.6463-1.8169 0.47614-2.7382-0.60095-3.3594 2.0714-4.0704 3.9713-1.5985-0.15614-1.5971 2.2085 0.08634 1.3339 1.7912-1.627 0.37759 2.6724 0.80752 3.4626-1.4667 0.96098-3.1647 3.134-4.5158 3.4526-1.5767-1.4805-6.4599 1.9795-4.4865-1.4439 1.2589-2.6624 1.8168-5.7032 3.9988-7.8524 0.95911-1.4748 3.9603-4.0196 3.6144-4.9957-1.7566 1.2546-3.1123 3.2765-4.7963 4.4119 0.48108-1.9542 2.111-4.9766 1.7274-6.3962-1.9858 4.1367-3.2168 8.6328-5.2732 12.758-0.83704 2.48-3.0802 4.8151-5.9002 4.3364-2.3911-0.45939 0.10805 1.1504-0.57128 1.3406-0.89685-0.6501-1.6566-0.53716-2.2031-0.50733-0.73721-2.8099 1.3538-5.5664 1.8233-8.3325 1.4656-4.458 2.0438-9.1736 3.7243-13.557 0.61588-0.85242 2.3817-4.6636 0.33888-2.4653-1.4712 2.8426 0.68155-5.256-0.81638-1.4238-1.3916 4.2492-2.045 8.7346-3.5596 12.927-1.1462-2.8444-2.0089-5.8675-3.4667-8.5925-0.19448 2.2142 1.376 4.6883 1.7392 7.0535 0.91345 2.4868 1.1149 5.1436 0.05945 7.6309-0.98286 1.7355-0.81156 6.6236-3.4196 5.824-1.0131 1.9772-1.381-0.0522-2.7479 0.61069-0.20488 1.2929-0.09434 2.8263-0.35258 0.70904-0.39185-2.8896-2.1908-5.684-1.1077-8.6377 0.14397-2.1312 1.8206-5.2337 1.131-6.7247-1.2624 1.9282-1.4939 5.547-2.5026 6.8093-1.3679-3.7667-2.4177-7.6662-4.1169-11.306-1.3726-0.32159 1.0049 4.0566 1.1071 5.3648 1.6345 4.9057 2.8296 9.9575 4.5506 14.828 0.35808 0.3099 0.42474 2.1056 0.03352 0.68519zm24.929-7.7494c-0.20619-0.92183-1.2586 1.1004-0.18376 0.27925zm4.6839-9.6077c-0.58844-1.0057 1.7649 1.3251 0.81924-0.59958-0.40073-0.5699-2.8861-0.0628-1.3563 0.45268 0.0054 0.50147 0.76594 1.3124 0.53702 0.1469zm0.15122-1.7143c0.83188-1.2826-2.7892-2.1578-0.45138-0.62185 0.31102 0.7504-1.752-0.0985-0.2777 1.1921 0.36068 0.42398 0.67901-0.38837 0.72908-0.57025zm-25.688-14.904c-1.7067-1.1429-0.57502 1.1952 0 2e-5zm0.67244 34.18c-0.4662-2.5607 0.7144 0.67908 5e-6 0zm-9.8113-3.6603c0.08406-1.9465-5.0397-0.88201-4.0524-1.8426 1.7748 1.28 1.1969-2.0145-0.35357-0.3919-0.89263-1.2171-0.74978-1.7214 0.02675-1.1548 1.8184-2.0582 4.5127-0.2673 5.0063 2.1878 0.783 0.48514-0.46447 2.9589-0.62703 1.2016zm-10.796-5.7503c-1.2705-0.72096 0.13187-2.0616 0.13805-0.41415 0.85352 0.58963 1.0542 1.4788-0.13805 0.41415zm5.5607 9e-3c0.15887-2.3042 1.2932 1.0486 0 0zm-2.5066-8.9937c0.45914-0.86768-0.18458-2.7243 0.90586-0.89197 0.13512 0.63084-1.0361 2.5596-0.90586 0.89197zm-3.6883-3.9913c-0.66716-0.91724 3.8689 0.15934 1.5187-1.2944 0.4678-1.3261 1.042-0.45173 0.38307-0.18702 2.9919 1.0162-1.5788 1.9722-1.9018 1.4814zm47.159-4.3695c-2.0714-0.4558 0.35027-1.9978 0.46457-0.41223 0.24742 0.16174-0.67337 1.1482-0.46457 0.41223zm-12.644-6.268c-4.4e-4 -2.5478 1.9462-0.91195 0 0zm1.3987-1.1403c0.62243-0.89503 2.5096-1.5355 0.92604-0.26459-0.44977-0.13826-0.53719 1.1211-0.92604 0.26459zm-3.8775-2.3359c2.2431-3.4572-0.47947 1.8711 0 0zm-22.052-0.97136c-0.05523-0.72949-1.6088 0.48161-0.53266-0.59261 1.8877-0.71673 1.962 1.9196 0.53266 0.59261zm23.192-0.36178c-1.0722-1.3114 1.7777 0.10676 0 0zm-18.434-0.20982c0.36498-2.3658 0.88274-0.85933 0 0zm7.9726-2.1105c3.2036-1.6681-0.28307 1.2423 0 0z" fill="#81a97d"/><path d="m59.929 223.86c0.70298-0.90084 2.0503-1.7961 0.47143-0.29491-0.65893 0.61271-2.3898 2.2899-0.88358 0.73403 0.13738-0.14637 0.27476-0.29275 0.41215-0.43912zm-12.16-5.1207c-0.88965-2.5349-2.3839-4.83-3.1241-7.4215-2.042-2.9202-3.078-6.4221-5.0901-9.3521-0.47404 1.4743 2.2525 5.0214 1.4943 5.5646-0.70988-0.9037-3.5083-3.553-2.1273-1.0209 0.94827 0.96831 1.9289 1.9042 2.8938 2.8558-1.276-0.16123-2.8026 0.84274-2.5422-0.97309-1.215-0.5597-2.0833 1.7453-1.838-0.60596-0.50144 0.89001 0.27357 3.2978-1.6546 1.848-0.5704-0.33166-0.77314-3.6355 0.76195-4.9586 0.02078 1.7673 0.99827-1.0407 1.3479-0.22401 1.0004-1.5276 1.7954-3.9977 1.0821-6.3128-0.67921 0.25291 0.52854 1.5287-0.80484 0.23263 0.44566-2.0609-3.2686 1.3047-0.80357-0.92162 0.92551-0.59371 0.85835-2.9824 0.91811-0.83816 1.1739-0.34785 0.1415-2.6349-0.43619-1.436 0.05643-1.9876 1.5949-2.5267 2.5143-3.7936 0.74274-0.5409 3.0735-1.4668 0.98553-1.95 6.42e-4 -1.2944 0.52636 0.52896 0.4645-1.1524 1.6508 0.32711 0.44932-4.1074 1.5715-1.2421 1.5678-0.10409 3.0322 3.568 4.7469 1.368 0.31714-1.1476 1.3356 1.4494 1.2707-0.65764-0.23867 9e-3 -0.25521-1.4045 0.41554-1.8891-0.43012-0.56433-4.5201-0.70476-1.4778-1.3113 0.88688-0.66311 1.6233-1.1656 2.3419-0.4842 1.2755-1.5623 1.469 1.1252 0.26449 0.37898 2.6705 2.0652 3.81-3.1588 6.3511-3.4447 1.8604-0.97807 2.2983 1.9092 4.0937 2.2345 0.30718 1.1601 0.40285 2.6355 1.6632 2.714-0.52466-1.2336 1.3481-2.5847 0.68296-0.49224 0.13136 2.3625 2.9178 4.0485 4.3928 3.9919 1.0579 0.0493 1.1785 1.0129 2.273 0.0484 0.44585 1.6454 4.4296-0.19925 5.041 1.3629 1.1729 1.2039-1.3194 2.5883-0.17683 4.6214 0.2222 2.5175 1.0195 0.89669 0.61844-0.62815 1.5974-0.87169 1.3991 2.0494 2.0056 1.4399 0.78078-1.7573 1.5738 2.4513-0.6629 1.3052 0.95179 0.81631 2.1386 1.1334 0.46042 1.8124 0.83313 1.2147 0.53904 0.87032 0.15432 1.6513 1.2651 1.4236-0.20159 0.3234-0.37815 0.49158 0.84916 1.0119 0.44552 3.332 1.7992 1.6449 0.77395 2.8334-2.841-0.0765-3.7618 2.2898-1.3198 1.1539-0.49528 3.8318-2.5463 3.8716 0.01095 2.1236 3.1748-0.52606 2.095 2.2311-0.5096 1.3448 0.40465 2.8301-1.5533 3.2062-1.6418 1.2201-2.0974 3.1224-4.2131 1.8564-1.5624-0.3262-5.1567 1.8315-3.0257-1.1326 1.2603-2.7139 1.8756-5.793 4.1295-7.9358 0.99699-1.5122 3.8466-3.9068 3.6604-5.0742-1.4636 0.80269-3.8788 4.3149-4.6495 3.8909 0.20874-1.7184 2.0792-4.6164 1.204-5.6752-1.8684 4.7339-3.4993 9.5928-5.8209 14.133-1.0361 2.8235-4.1666 2.7463-6.4029 3.2514 2.1716 2.0606-1.8831-0.0162-1.9352-0.78308 1.8674-5.4724 3.5771-10.999 4.7197-16.675 0.29653-2.586 2.0444-4.773 2.5287-7.211-1.0363 0.25508-1.6619 2.5358-1.2852 0.23981 0.30004-1.0942-0.12649-3.0174-0.58888-0.77554-1.2539 4.1745-2.0372 8.4784-3.3296 12.638-1.4509-1.8041-1.8589-6.0785-3.6806-8.298 0.0017 2.2814 1.4875 4.6146 1.8128 6.9949 0.84538 2.6195 0.98729 5.4038-0.06542 7.9909-0.52843 1.1699-1.4858 6.0547-2.1318 4.7883-1.1182-1.3435-1.7775 3.0706-2.9821 1.0902-1.332-0.80162-0.97287 2.141-1.4682-0.26786-0.99161-2.7517-1.7439-5.6452-0.6619-8.5047 0.13582-1.7861 1.6045-4.5052 0.86884-5.6673-1.1609 2.1186-1.6523 5.0144-2.4 6.9757-1.3643-3.7765-2.4862-7.6975-4.1218-11.385-1.4691-0.90153 0.38459 2.836 0.51616 3.7856 1.6847 5.2783 3.2069 10.626 4.7313 15.939-0.3094 0.19527-0.96008 0.12117-1.1346-0.24359zm26.458-6.3446c-0.76239-1.1257-0.92564 1.3928 0 0zm-37.493-4.6054c-0.9173-1.3464 0.0299 1.9239 0 0zm41.198-4.6005c-0.38862-1.4511-2.5388-0.70721-0.52917 0.0914 0.0107 0.42292 0.60118 0.29031 0.52917-0.0914zm-34.131-10.512c-1.3372-0.99791-0.7839 1.2253 0 0zm29.369-1.2946c-0.08838-2.4641-0.97236 2.5973 0 0zm-20.984-3.366c-1.1616-0.82011-3.142-1.275-0.85573-0.0921 0.44834 0.40579 2.4679 0.19428 0.85573 0.0921zm1.044-1.6422c0.6231-0.10993 1.7615-1.5426-0.01423-0.73598-1.1879 0.29829-3.3504-0.6251-1.2536 0.68184-0.11406 1.2757 0.76341 0.72885 1.2678 0.0541zm-10.137 29.026c-1.4563-0.39426-2.1444-2.0068-3.4693-1.1446-0.61532-1.5371 2.7622-1.5697 1.4892-3.2941 1.0026-0.84783 1.9935-1.2181 0.93683 0.14454-1.5944 1.6283 4.4527 2.4055 1.8388 4.273 2.2185 0.47725 0.27508 0.68159-0.79557 0.0212zm-9.7593-4.7484c-1.781-1.5466 0.78558-0.0958 0.91323 0.78644-0.39739-0.0272-0.61103-0.5832-0.91323-0.78644zm4.6475-0.48364c-0.77902-1.1415 1.675 0.14638 0 0zm-3.7828-2.2423c-0.66343-0.40357 1.0112-3.3362 0.53274-1.2362-1.4701 1.7013 1.5349-0.0512-0.10205 1.4244l-0.18708-0.0367-0.24361-0.15147zm45.156-6.4337c-0.96836-1.447 1.9377-1.0174 0.16567-0.62242 0.40718 0.26682 0.51634 1.399-0.16567 0.62242zm-0.42965-1.5768c-1.6548-1.6106 2.1407 0.0914 0 0zm-40.496-7.9377c-0.39536-2.1817 1.4236 0.14847 0.33285 0.70052l-0.18235-0.20377zm0.69846-2.3812c0.59222-1.6734 1.3879 0.0691 0.38108 0.7276-0.3361-5.5e-4 -0.39318-0.52246-0.38108-0.7276zm7.0556-1.2536c1.3438-1.2319 1.5185 0.947 0 0zm-4.3612-1.4445c-0.9502-1.0672-0.93094-3.6788 0.05849-1.2921 0.63256 0.39168 1.0699 2.4321-0.05849 1.2921zm2.4239-2.9562c-0.94123-0.67717 2.7067-2.5394 1.2376-0.59918 1.2723 1.1498-0.61415 0.97811-1.2376 0.59918zm-1.3658-1.0197c0.05495-1.3803 1.7807 0.56845 0 0z" fill="#79a374"/><path d="m59.94 223.79c2.2476-2.2878-0.59374 1.2134-0.59504 0.65401l0.25697-0.29445zm-12.171-5.065c-0.83575-2.5232-2.4071-4.7776-3.0277-7.3695-2.1252-2.8949-3.1621-6.4337-5.1738-9.3937-0.61265 1.4486 2.2538 4.9995 1.4935 5.5877-1.1543-0.59712-2.2384-3.6016-2.9412-1.867 1.069 1.2342 5.1933 4.2595 1.3306 3.7142-0.07359-2.9502-2.2929 0.36546-2.757 0.66451-1.1419-1.2604-1.7492-6.2039 0.15733-4.1397-0.03214-1.4179 1.1479 0.45194 0.88623-1.1953-0.26582-1.499 1.8501-1.2754 1.4567-3.3139 0.94382-1.6589 0.11313-3.5917-0.94986-3.6298-0.09966-0.98228-0.55888-1.5954 0.51391-1.0058 0.33614-1.9632-0.61246-2.6836-0.31546-3.7794 1.77 0.42074 1.2638-1.8705 3.0612-0.96429 1.1029-0.64454 2.7029-0.22568 0.52994-0.86094-0.47658-0.2765 1.1097-0.63708 0.41618-1.2318 0.52736-1.019-1.6811-1.918 0.27797-1.6919-0.80268-0.9032 1.0074 0.0606 0.22802-1.0887 0.75678 0.0704 2.2623 0.78775 0.84446 1.0156 1.0528 0.48145 2.171 0.20143 3.153 1.4515 1.2208-0.4741 2.6711-0.87611 2.6134-1.6878 1.2452-1.1 3.402 2.0908 3.6859-0.74042-1.3045 1.8777-2.1339-1.1424-3.6045-6e-3 0.08655-1.6802 2.1208-1.2808 2.2499 0.15205 2.5369-0.0811 2.8341-4.6167 5.3286-2.7343 1.7168-2.1278-1.4365-2.6062-1.0705-1.2561 1.359-0.16293 0.58028 1.8582 0.18523 0.40811-1.5068 0.72882-1.2852-1.5025-1.7896 0.4261-0.92163-0.67389 2.8569-4.8576 4.6526-2.9004 0.46649 0.1049-2.733 0.0278-1.1341 1.3667-1.0215 0.78736 1.1876 0.72808-0.15778 1.7574 1.0462-0.3851 1.9324-1.9793 1.816-0.2259 1.2903-0.27999-3.1186 1.658-0.06937 0.74612 1.8751-0.2747 0.17176-1.4712 0.38839-2.312-0.39812-1.6553 0.78008 1.7017 1.133 1.1298 0.7356-0.0669 0.57154 1.988 1.2693 2.0675-1.3649 0.83919 2.3841 0.01 2.1537 1.9138 1.1151 1.7315 4.292 1.4543 4.3097 2.4612 1.9164 4e-3 5.3918-0.81218 6.425 1.1409 0.96072 0.72027-1.3678-0.4031-0.1627 1.1251-0.321 0.92553-2.4318 0.53974-0.68346 1.3203 0.99328-0.62565-0.10937 1.2216 0.27294 1.4312-0.07039 0.75369 1.4985 2.5304-0.24332 1.0538 0.61674 1.0158 0.60647 2.2519 1.4741 2.9601-0.6606-1.0517 0.26578-1.7431 0.74174-1.4993-1.7496-0.78344 0.20644-3.9681 0.14524-1.6334-1.1274 0.45831 1.4826 2.5738 1.2356 3.1218-1.3085-0.70766 0.4746 2.9038-1.8727 2.6322-1.1439 0.42851 0.51385 0.67698 0.5893 1.6017 0.47951-0.73934 2.1933 1.2476 0.44639 0.87868-3.0935 0.38626-2.1217 4.4095-4.3283 5.2447 0.0753 1.3471 3.182 0.62176 1.7204 2.512 0.86109 2.9758-2.9074 2.6911-3.3746 5.0939-1.5583-1.0899-4.2293-0.80163-5.7052 0.053 0.94999-2.3278 1.837-4.7147 2.8576-7.0178 1.7176-2.7672 4.291-4.9329 5.8692-7.7835-1.6874 0.62134-4.0517 4.3979-4.921 3.9604 0.3151-1.7959 1.7892-4.2379 1.3071-5.7269-2.4009 4.8311-3.4585 10.289-6.4215 14.837-1.1491 2.3719-4.2499 1.6651-5.8729 2.6531 2.052 1.9613-2.6899-0.3787-1.6032-1.5365 1.6897-5.5382 3.3313-11.095 4.5823-16.754 0.0062-2.1395 2.7474-4.9645 1.9531-6.4186-0.95221 1.4334-1.2185 1.758-0.88976-0.0847 0.29283-3.7998-1.2275 1.2107-1.4727 2.5022-0.97401 3.2434-1.4341 6.677-2.7106 9.8063-1.1431-2.8026-1.8476-5.8587-3.3138-8.4822-0.38082 2.2628 1.3868 5.0964 1.7847 7.5664 0.19603 1.3316 0.87889 2.6891 0.79755 4.0212-0.8516 2.6823-1.3684 5.5331-2.7546 7.9954-1.6323-0.16708-2.5719 2.4056-4.3088 0.90068-0.49195 1.0474-1.1236-2.4352-1.5498-3.3593-0.73616-1.4062 0.14068-2.9246 0.2632-4.381 0.01096-1.8339 2.075-5.4777 0.943-6.1905-1.3423 1.7187-1.495 6.1141-2.5727 6.5679-0.61658-2.858-2.0771-5.4945-2.5514-8.3714-0.27547-0.40154-2.5152-5.2316-2.3261-2.5836 1.7292 3.3152 2.354 7.1012 3.5944 10.618 0.96471 2.977 1.7131 6.1248 2.6186 9.0555-0.34143 0.0611-0.97654 0.11483-1.1262-0.29873zm23.34-4.3763c-1.3186-0.62831 0.48749 1.7581 0 0zm3.1159-1.9359c-1.6185-1.8572-0.68263 1.3916 0 0zm-36.68-3.9094c0.43219-1.3854-1.3992 0.34829-0.41307-1.3487 0.02003-1.5008-1.9268 2.4328 0.19043 1.8496l0.22264-0.50058zm4.5458-10.757c0.84111-2.961-1.5451 0.80564 0 0zm-0.74182-2.1472c-1.6261-1.7912 0.51635 2.0681-3e-6 0zm-0.99322-1.0338c1.8189-1.8248-2.7779 0.78869-0.52716 0.34137zm4.5189 0.26848c-0.6162-0.80705 2.3004-1.8673-0.26607-1.1155-1.4538 0.56296 0.37245 2.0052 0.26607 1.1155zm-1.0753-1.9878c-0.66755-1.4282-3.3423 0.73135-0.64344 0.41334 0.25833 0.38001 0.69353-0.11191 0.64344-0.41334zm2.5186-0.36036c-1.7277-0.81856-0.91287 1.0733 0 0zm26.85-0.44608c0.45155-0.63466 1.4133 0.49848 0.50538-0.90663-1.4107-1.498-0.64386 1.7935-2.3558 0.46907-0.67919 0.76082 1.8832 1.0996 1.8504 0.43756zm-27.524-0.38654c0.76651-1.5119-1.7016 0.96376 0 0zm15.038-3.4259c-0.36757-0.65068-3.4031 0.88166-0.73647 0.39642 0.25491-0.0793 0.59687-0.12836 0.73647-0.39642zm-17.147 26.689c-1.2161-0.0452-2.1629-0.33172-3.0372-1.0098-1.9916 1.1366 0.07199-1.7222 1.123-1.748 1.1587 0.25981 3.7596 1.8002 2.4718 3.0324l-0.39372-0.0806zm-2.2547-3.4388c1.1933-2.7583 1.763-0.45655 0 0zm-3.3009-1.3132c-0.77902-1.1415 1.675 0.14638 0 0zm40.599-5.8443c0.16346-2.2714 1.9449 1.3771 0 0zm-36.886-17.687c-1.295-2.7594 1.7171 0.92293 0.24442 0.32939zm21.329-1.2004c0.92669-3.5787 1.0302 1.6353 0 0zm-15.253-0.27295c-0.90757-0.6614 1.6923-0.52136 1.9282-1.4545 2.964 1.8204-0.46992 2.1188-1.9282 1.4545zm3.5719 0.133c0.59146-0.94197 2.2887 0.71506 0.30979 0.18686z" fill="#6c9a66"/><path d="m47.604 218.22c-0.76299-2.3028 2.4311 1.4135 0.25275 0.56009l-0.25275-0.56004zm3.3931-0.43453c-0.49797-1.4473-0.7758-0.77794-0.7883-0.0794-1.4129-2.6881-1.8216-5.7877-0.79693-8.6897-0.05855-1.4998 2.0034-4.9322 0.68682-5.32-0.8601 1.17-1.5445 5.7276-3.2021 4.1463 0.53079-1.2711-1.202-1.6648 1.0901-1.4002-0.7182-0.55963-0.89287-2.3256-1.5954-0.59305-0.3293-0.82294-1.8012-3.1091 0.02023-1.5121-1.8083-1.662 3.8489-1.3108 0.90656-2.3507 0.05049-0.26567-0.51409 1.8674-0.97924 0.35095-0.71389-1.6253-3.3334-1.1296-0.41571-1.646 2.2578-0.51606-0.8884 1.4485 1.2245 0.65193 1.3067-1.9953-3.1485-0.88466-1.768-2.8198-0.05008 1.8228 4.5114-0.96013 1.1667-1.054-1.1595-0.0898-1.4787 0.0501-0.25163-0.63296-2.092-0.77074-1.4641-1.6214-0.24895-2.5176-3.2929-0.0182 3.9077-0.56391 0.93881-1.3422 1.7734-1.5859-2.0653-0.0941-0.48902-1.9707 1.9289-0.15083-1.2996-1.6134 0.6874-0.92379 0.99503 1.0172 2.2164-2.5281 2.7689-0.69344 0.18951 1.7517 2.8158-1.666 3.6094 0.64229-0.96285-1.1796 2.1637-1.7811 1.9493-1.7791-0.55945 0.79572 1.8404 0.84769-0.26265 1.0319-0.03615 1.5633 4.7492-2.0452 5.054 0.1748-0.57907 1.1113-1.7594 3.0321 0.32104 2.0144-1.5007-1.8506 2.1081-3.2315 4.0795-2.5825-1.1153 0.41812-1.6181 1.3728-1.1346 2.237 1.4643-0.0395 1.2511-2.1248 1.5796-0.0586 1.2422-0.24852 2.6345-1.8917 3.4037-0.10918 0.71709 1.8982 1.5344-0.68905 2.2441 1.1392 0.61681 0.63662 1.4212 2.0539-0.20369 1.4956 0.66261 0.36835 3.8077 1.1184 1.7838 1.8329 1.0055-1.16-1.8496-1.2444-0.23963 0.37611-0.18355 1.9233 2.1627 3.4907 1.2675 0.76212-0.82608-1.341 1.4841-0.27977 0.92413 0.55192 1.1072 0.87445-1.174 1.3361 0.66354 1.3609 0.77916 0.59169 0.40899 1.492-0.24023 0.68275-0.01241 2.0098-0.51974 0.72001-0.93722-0.2029-1.324-0.29212 0.61749 2.8086-0.15097 2.9772-0.52981 1.5115-3.9146 4.9558-4.3122 4.6956 0.54148-1.8103 1.8754-4.8674 1.4646-6.0782-2.6035 5.0026-3.7091 10.765-6.9335 15.433-2.0389 1.3921-5.029 2.2187-7.2412 1.5343 0.30294-2.5599 1.6819-5.2997 2.3042-7.949 1.6411-5.0685 2.1269-10.512 4.6148-15.285 0.93839-2.8627-1.946 1.9885-1.1389-0.55408 0.39703-1.2771-0.17011-3.1635-0.65688-0.75325 0.08556 1.668-1.1912 1.2811-2.4022 1.1573-0.98284 0.17612-0.81151 0.9347-1.9841 1.1968 1.7458 0.27776 4.7227-0.58256 3.1466 2.1788-0.70218 2.8481-1.4188 5.6929-2.0738 8.5524-0.9627-2.9356-1.9271-5.8948-3.3449-8.6423-0.90097 1.0767 1.1497 4.7213 1.4402 6.7344 0.89984 2.5098 1.1409 5.2209 0.07454 7.7166-0.66647 2.5984-1.282 5.3362-4.3502 5.5883-0.44553 0.39816-0.53042 1.0439-1.2725 0.32405zm-0.05292-1.9315c-1.0686-1.5994-0.93528 1.5452 0 0zm0.56885-1.8521c-0.77557-1.3386-0.69131 1.3059 0 0zm-1.6652-11.647c1.0879-0.86701-0.19658-2.1909-0.25884-0.63096-1.0087 0.63561-1.6772-2.0604-1.1371 0.47544 0.20308 1.0676 0.861 0.87111 1.3959 0.15552zm1.6034-5.31c-0.68919-0.24359-1.9201 0.12939-1.097-0.78701-1.209 0.17543-2.5439 1.85-0.41971 1.148 0.51109-0.092 1.0348-0.15213 1.5167-0.361zm20.064-1.8282c0.23751-2.045-2.0344 0.9353-0.47745 0.0793-0.0057 1.2618 0.62348 0.94686 0.47745-0.0793zm-20.627-2.0934c-1.4854-1.7482-1.3344 1.0613 0 0zm18.576 0.10847c1.4609-0.22233 1.1622-0.8786-0.19871-0.59573-0.32183 0.19844-0.1502 1.4058 0.19871 0.59573zm-13.122-0.92637c1.092-0.26483 3.119-1.7441 1.7048-1.5168-1.3349 0.9884-5.9266 0.23409-2.6334 2.1783 0.34982-0.15953 0.63444-0.42161 0.92856-0.66148zm-1.9196-1.7856c-3.0845-1.3882-0.50421 1.468 0 0zm8.6915-0.59532c-0.84878-1.5424-0.81823 1.5144 0 0zm-15.222 27.106c-2.4497-1.3498-2.2696-5.0717-4.0765-6.9745 1.3834-0.78333-1.2559-3.4702-0.02733-1.1739-1.5691-0.52396-2.2954-4.3276-3.5128-6.0795 0.14581-2.1561-1.6911-4.8782-0.93047-6.4942 0.32346 1.3002 0.79814 2.7106 1.5362 1.7274 1.568 0.0543 0.13095 1.6137 1.2909 2.8427 1.1983-2.566 2.3204 2.7839 1.967 3.8683-0.25246 1.0365 1.2854-0.35037 0.4291 1.0404 1.1881 1.6147 1.9894 4.8259 0.2982 2.7905 0.26789 0.77024-1.4371 2.3442 0.15689 1.9056 0.99452-2.1792 2.1533 2.5113 2.4104 3.4813-0.0143 0.5192 1.4321 3.826 0.45826 3.0659zm-4.357-12.281c-1.0743-2.225-0.1433 1.9963 0 0zm26.865 11.782c0.40471-1.1738 0.69253-1.8672 2.3422-2.8021-0.78383-0.14778-1.9851-3.419-1.7595-1.2444-1.2819-0.3153-3.3305 2.2562-3.3579-0.27856 0.57953-2.8538 3.1282-4.3257 4.5306-6.645 0.52969-1.1831 3.7769-3.7258 2.175-0.95645-0.27786 1.1999 1.461-0.84782 0.64174 0.96136-1.3008 0.9973 0.23155 4.0478-2.2089 3.7074-0.1686 1.3055-1.3195 2.23 0.29 3.578 0.97568-0.19073-0.55678 1.3931 1.2434 1.0954-0.54529 0.69555-2.6198 1.7575-3.575 2.8064l-0.17614-0.0393-0.1456-0.18268zm-4.3757-0.22784c-0.21728-1.96 2.8105-1.2703 2.5292-1.9051-1.4121-1.6003 3.7291 0.92625 1.2009 0.59936 1.6767 1.7599-2.99 1.2679-3.7301 1.3057zm-22.339-1.6105c-1.3065-0.62868-5.6356-1.2292-2.2239-2.162 1.1537-0.82257 4.4966 2.7191 2.2239 2.162zm29.055-2.5274c-1.1932-2.1646 2.5786-1.7124 1.948-0.73938-0.7713-0.53673-0.85358 0.22177-1.6072 0.17019 0.0866 0.42745 0.56922 1.1836-0.34077 0.56919zm-25.113-1.8683c-0.69898-1.4882 1.2175-2.1654 0.31257-0.39684 0.20942 0.30043-0.05762 1.3427-0.31257 0.39684zm-7.9028-1.2333c-0.47335-1.2754-2.5393-0.70603-1.8824-2.164 1.3942-2.3382 0.53602 2.0128 1.4248 0.0899 0.99278 0.89327 3.8045 2.8641 0.45752 2.074zm0.53992-2.3324c-0.64382-0.96666-1.2456-2.1773-1.9058-2.5783 1.205 0.61496 0.3753-2.7834 1.3852-0.54697 0.19058 1.044 2.8342 5.6741 0.52065 3.1252zm38.636-2.2993c-0.87803-2.1455 1.5758 0.88663 0 0zm-34.953-4.7496c-0.37426-2.3206 1.0509 2.1549 0 0zm-1.2808-2.1751c-0.08029-0.43801 1.9709-1.054 1.8077-0.2167 1.3778 0.5432-1.6128 0.82725-1.8077 0.2167zm-0.45475-1.9083c-0.47992-0.32887 1.3511-2.5952 0.6104-0.55334-0.04483 0.24302-0.22722 0.89491-0.6104 0.55334zm1.2328-3.7588c-0.7401-1.386-0.71306-1.0792 0.50762-0.85302 0.49422-1.2469 1.1122 0.68802 0.32118 0.72287 0.52437 0.44839-1.0372 0.53078-0.8288 0.13015zm21.893-1.824c-0.02367-1.7897 3.0486-0.22392 1.1234-0.0946-0.25177 0.32882-0.8802 0.60263-1.1234 0.0946zm-14.342-1.3357c-1.161-1.4225 1.7512 0.47138 0.28641 0.22424zm2.0658-0.12712c2.0272-2.1029 1.3815 0.8002 0 0zm3.9667-0.0667c1.2539-1.4119 2.1461-0.90188 2.6208-2.8816 0.20387-1.9735 4.1029 0.67289 1.6214 0.22519 1.0571 0.46019 1.7226 2.6533 2.1796 0.54966 2.4197 1.3676-0.26149 2.812-1.4133 1.3613 0.0068-0.13169-1.0813 0.84842-0.5738-0.63075-1.2689 0.53291-3.2132 1.515-4.4347 1.3761zm-8.3344-3.1404c-1.8439 0.0401 0.80274-1.7255 0.1392-0.32291 1.0732-1.1936 0.8686 0.61176-0.1392 0.32291z" fill="#51884a"/><path d="m51.732 217.19c0.69776-2.3851-2.1401 0.8253-0.98333-0.95354 1.1914-2.0356-1.5949 0.92245-1.4428-1.0596-0.6763-1.1754-0.88062-2.9311 1.0682-2.6888-1.2635-0.15455-1.9339 5e-3 -1.3148-1.7083-0.33018-2.0922 3.2372-0.60665 1.693-3.0497-1.069-0.9351 2.0593-1.5352-0.18573-1.4282-0.78558 0.57162 0.21826-5.3076 0.9279-2.5564 1.8793 0.0681 2.9368 1.2402 4.4641-0.0479 0.41071 1.3253 1.3642 2.7546 1.5285 4.3961 0.09584 1.1454-0.61288 2.266-0.83374 3.4017-0.81092 2.4604-0.91819 5.6851-4.1462 5.6998-0.14012 0.0102-1.442 0.69587-0.77515-5e-3zm-0.08383-2.9342c-0.42076-2.8401-1.7365 1.6831 0 0zm1.9409-7.7874c-0.66536-2.0342-2.4173 1.1794 0 0zm5.0822 10.934c0.65403-1.5833-3.0248 0.0579-1.4418-2.1383 1.6993-3.7505 3.2034 3.349 1.4418 2.1383zm1.5324-0.28177c1.6867-0.12635-0.34965-3.2052 1.0485-1.1278 0.7525 0.98325-1.7415 1.6652-1.0485 1.1278zm-13.26-0.92838c-0.23983-0.89434-0.47858-1.0956 0.41968-1.2706-0.82856-0.0234-1.7534-0.28384-0.41141-0.58428-0.86535-0.63648-2.3916-0.75745-1.2567-2.4584 1.8449-1.9534 1.3941 3.5998 2.1692 4.2471 0.26133 0.56582-0.86897 0.4844-0.92073 0.0661zm25.299-1.2568c-0.38552-1.2801 3.5522-0.80727 0.91286-0.11641-0.17881 0.30842-0.71209 0.56483-0.91286 0.11641zm-28.443-0.26458c-2.5605-1.2755 2.2727 0.73684 0 0zm16.073-0.17523c1.0835-1.2222-3.2651-0.95577-1.4506-3.0491 1.1554-2.972 1.5393-6.175 2.6085-9.1614 0.62279-1.2385 2.6554-2.177 3.0549-1.2405 2.7687 0.5695-0.19493-3.5758 2.235-2.1728 0.97987 0.52673-1.4094 3.3967 0.13244 1.8961 0.32513-0.95373 1.0676 0.32305 1.2661-0.82767 1.1796-0.3275 3.6771-1.6894 3.9326-0.67297-0.16684 0.71317 1.4035-0.84745 0.19194 0.42746-1.9671 0.55436-1.6097 5.0575-4.3751 2.851-2.1292-0.71888-3.5416 1.8322-4.9283 3.1841-1.5836 2.0785 2.0976-0.22516 1.4633 2.328 1.2668 0.0527 1.5054 0.17662 1.2931 0.77117 0.66246-0.8937 0.74308-0.74639 1.2389-0.10036-0.09705-0.43055-0.37992-2.6052 0.71456-1.5406-1.3266 0.70137 1.7031 0.0445 0.0024 1.032-0.10707 0.94349-0.77796 3.0369-0.89964 1.0927-1.3292-0.15597 0.06803 2.5978-1.558 2.3036 0.87853-2.0396-4.6449 0.0231-0.98403-0.1082-0.18604 1.907-4.8608-0.35879-3.3968 1.4818 0.22789 0.73445 0.78362 1.9518-0.54142 1.5057zm3.9392-1.0154c-0.4758-0.60945-1.6686-0.85101 0.26244-0.74438 2.5107-0.83564-0.60287 1.8356-0.26244 0.74438zm0.69414-6.665c1.9506-1.0087-0.80698 1.327 0 0zm1.6379-0.29779c-0.69128-1.4663 0.26315-2.0133 0.41741-0.30837 0.45324 0.28484-0.20973 0.54095-0.41741 0.30837zm6.6296-0.90858c0.2404-2.3294 2.0893 1.0158-0.02333 0.38917l0.02332-0.38918zm-14.556-0.28243c-0.21538-2.0492 1.5353-2.0538 0 0zm-9.2145-0.74302c-1.2546 0.0126-1.9173-0.396-0.26842-0.57794 0.95015-0.29932 1.4497 1.259 0.26842 0.57794zm5.858-0.77996c-1.1279-0.38801-2.7753-0.92249-0.57499-0.99186 0.44304-0.95509 0.58693-0.87324 1.3409-0.90403 0.21468 0.37602-0.22066 2.4751-0.76594 1.8959zm15.681-0.95382c0.3606-1.5363 0.70443-2.1882 1.5306-0.44473-0.639-0.35444-1.1053 0.40275-1.5306 0.44473zm-12.33-1.4196c0.34771-2.4013 2.4058 0.57563 0.26519 1e-3 0.28286 0.16318-0.1968 0.66348-0.26519-1e-3zm1.0655-4.4735c-0.56389-0.671 2.6425 0.28437 0.47588 0.16281zm4.7442-1.63c0.29156-1.0779 0.01846-3.2179 1.1132-1.4256 0.40364 1.3364 0.76707-2.0717 1.4522 0.0501 1.5137 1.839-2.2694 0.3825-2.3499 1.6042l-0.21559-0.2286zm3.1271-1.1599c-1.1969-2.071 1.9773 1.3928 0 0z" fill="#45803e"/></g></g></svg>
