<?xml version="1.0" encoding="UTF-8"?>
<svg width="55.038mm" height="57.92mm" version="1.1" viewBox="0 0 55.038 57.92" xml:space="preserve" xmlns="http://www.w3.org/2000/svg"><g transform="translate(-67.483 -162.38)"><g transform="translate(-3.0375 19.238)" stroke-width=".26458"><path d="m94.339 200.47c-0.79725-4.8717-2.9401-9.4077-4.9112-13.897-0.99644-1.8303-3.653-1.838-4.7867-3.3653-0.80046 1.1895-1.4349-1.4573-2.8999-0.51479 0.38582-1.6233-0.97387 1.3945-1.7488-0.51372-1.1253-1.0427-1.9861-2.693-3.2961-2.5601 0.99762-1.1038 0.86412-1.2279-0.31864-0.56211-1.0441-0.91348-2.9251-1.0588-3.412-1.2944 1.1192-1.1362 3.2618-4.3134 0.65108-3.1918-0.92624-0.70867-3.3102 2.0919-1.97 0.12001 0.16881-0.94585 0.64511-2.2277 1.037-3.2312-1.4498-1.2671-0.2203-0.92703 0.44909-1.6286-0.33414-0.98304-3.1439-1.15-2.5241-3.112 0.8832-0.86134 3.7985-1.6556 3.2364-2.5839-1.2091 1.5258-0.95355-0.29338-1.6384-1.0907 0.57677-0.1979 1.7622 1.4482 1.1407-0.26658 1.3847 0.42163 3.5051-0.91874 0.99292-1.2429-2.0774-1.817 3.1836-0.7442 1.1121-2.1301 1.193-0.12732 1.6601-0.16389 3.0072-0.57586-1.4124-0.67257 2.6543-1.8661-0.16265-1.407 0.22398-0.97925-1.3937-1.1342-0.52743-1.9047-2.2085-1.2291-0.18871-3.3582 0.73191-4.6489 1.5286 0.57929 2.8749-1.3567 3.9189-0.18585 1.0041-0.10972 1.7796-0.36754 1.3913-1.7168 1.1647-0.78132 4.1771-1.3091 3.0778-2.8032 2.6741-0.46351 5.4713-0.61444 8.1569-1.3318 0.67192 0.14996 3.4964-0.45142 1.7034-1.0131 0.77347-0.40855 1.649 1.1872 1.4328-0.27172 1.4184-0.2765 3.3603 1.928 2.2146-0.0622 0.94084-0.76833 2.3575 1.4524 3.1116-0.34702 1.8096 0.18334 3.6532 1.2854 5.0212 1.9895-0.90072 1.1688 0.85451 4.1953 1.2289 1.7179 1.1552-2.1262 3.5679-1.1478 4.1911-1.1836 2.5682-2.1008-2.4612 4.7579 1.0264 3.6343 1.603-0.6766 2.0268 1.224 2.9762 1.3619-1.8927 0.2315-2.157 1.7155-0.37003 2.6205 1.3659-0.43816 2.6414 2.9949 2.9814 1.1407 1.91 0.68455 3.5906 2.0438 3.8785 4.0146-1.2641 0.92273 1.1543 2.4711 0.31915 3.3073 0.30639 0.72419-1.4708 5.3462 0.5374 3.1939 1.0768 2.0436-1.5997 3.4846-0.90463 5.6676-1.0442 0.8094-1.891 2.8961-2.1079 2.9608-1.4273-1.1015-0.18797 3.8177-2.2459 2.4266 0.86695-1.728-0.83318-0.22377-0.0789 0.79208-1.633 0.0656 2.01 1.794-0.14729 2.7703-2.0969 1.1273-0.63214 3.6767-3.4758 4.0936-0.97086 1.2506-1.8202-0.45488-2.9915 0.99583-2.4425 0.84207-5.6602 0.19627-7.227 2.7204-3.0914 4.038-7.6431 7.2325-9.1056 12.308-0.79554 3.3393-0.60053-1.365 0.4013-2.1533 3.2742-6.3953 10.221-10.262 12.456-17.3 1.1082-4.3216 4.7894-7.1336 7.2077-10.662-1.8143 1.1549-3.7918 4.0076-5.233 4.5843 0.37412-1.7968 2.0194-5.6589 1.756-6.2308-2.4818 5.417-3.891 11.322-7.2198 16.335-1.8127 3.8252-5.337 6.295-7.8739 9.5645-0.51337 1.0103-2.5834 4.1951-2.241 1.1202 0.84617-6.4492 3.6682-12.422 5.3803-18.661 1.4766-4.3034 1.8348-8.9522 3.7086-13.114 0.72444-0.89933 1.6404-4.1619 0.12687-1.4865-1.16 2.0037 0.1506-4.8371-0.78719-1.2848-1.2916 4.0347-1.9246 8.2463-3.2387 12.271-0.98123 0.87232-1.1518-3.0341-1.9006-3.9658-0.47994-0.98467-1.4936-4.6885-1.8522-4.1135 0.85544 3.7462 2.5462 7.335 2.8003 11.2-1.6022 5.7782-3.4879 11.494-5.1803 17.246-1.4094-1.0788-1.6669-4.3867-2.3842-6.3671-0.34049-3.2043-2.1602-6.2945-1.1271-9.5685 0.31845-2.0115 1.3697-4.7625 1.272-6.3184-1.1265 2.0164-1.479 5.7187-2.5701 6.8739-1.524-3.8334-2.4904-7.9113-4.2926-11.62 0.26695 2.6886 1.7208 5.6764 2.392 8.4927 1.4382 4.5583 2.5567 9.2214 4.2221 13.7 0.75375 1.3044 0.45949 4.8118-0.58538 1.7438-1.9268-4.8011-4.0635-9.5038-6.3931-14.126-0.93863-1.5219-2.6573-6.4258-3.2201-6.0603 0.12753 1.3553 2.391 4.8798 1.2901 4.8804-0.73465-0.67694-3.6175-3.2026-1.5435-0.90519 2.2314 1.8569 3.8575 4.1714 4.7359 6.935 1.5935 3.6735 3.6139 7.1292 4.9494 10.917 1.0675 2.8912 2.3864 5.7907 2.6362 8.8934 0.15076 0.43838-0.70053 1.0297-0.36821-0.0196zm6.8697-10.282c0.78002-1.0152 3.983-3.3876 3.0592-3.8767-1.8066 0.23744-3.7165 0.0612-5.4244 0.7479-1.5004 2.2041-1.7178 5.1293-2.1012 7.7446-0.39116 1.9211 0.72044-0.47173 1.2292-1.0145 0.98799-1.2777 2.0888-2.4668 3.2372-3.6012zm-4.9072-1.752c0.32967-0.93443 1.1102-2.1607-0.49561-1.8424-1.4147-0.17944-3.2875-0.49281-2.0406 1.5346 0.56484 0.82115 0.7629 4.5169 1.384 3.8546 0.36574-1.1882 0.73363-2.3759 1.1522-3.5468zm-3.954-0.33623c-0.02105-1.2303-1.4474-2.15-0.56915-0.34343 0.39958 1.3261 1.3416 2.9344 0.56915 0.34343zm23.861-4.9736c1.1046-1.8115-2.1085-0.11356-0.78775 0.47316l0.40373-0.1636 0.38401-0.30956zm-43.984-14.739c-0.91074-1.6611-1.2893 0.91516 0 0zm3.589-2.4531c-0.4057-1.2873-0.88888 1.8511 0 0zm45.75-8.7914c0.32724-2.0993-2.341-0.62822-0.33991 0.34795l0.33986-0.34795zm-3.2474-4.526c-1.2152-1.1229 1.8706-2.1068 0.19029 0.12556-0.10354 0.44281-0.53554 0.25587-0.19029-0.12556z" fill="#add6d3"/><path d="m96.56 199.69c1.0542-3.2388 3.0908-6.0304 5.548-8.3485 1.6454-1.8108 3.282-3.6304 4.9897-5.3831-3.1268 4.4604-7.8799 7.7974-9.9294 12.969 0.12896 0.20978-1.0185 2.654-0.60832 0.7629zm-2.5902-1.4819c-1.2696-4.2459-2.872-8.4094-4.8222-12.39-1.5482-2.3865 1.5796 1.385 1.4462 2.324 1.5342 3.7057 3.1147 7.4415 3.9721 11.37 0.01425 1.14-0.56016-1.1864-0.59616-1.3046zm2.3356-3.4524c0.43769-2.5293 0.96197-5.8995 2.0117-7.8342-0.56949 2.97-1.7717 5.9075-1.6624 8.9586 1.3661-2.2262 3.2062-4.489 5.2725-6.2701 1.125-0.72992 2.9291-3.8925 3.3931-3.5173-2.598 3.4691-6.1055 6.1974-8.4071 9.91-0.93862 1.1629-0.64612-0.78217-0.60784-1.2471zm-1.5735-1.8521c-1.3168-3.9905-1.8802-8.165-3.1218-12.174-0.35996-3.4616 1.3752-6.7363 1.6287-10.143-1.3089 1.8308-1.7109 4.709-2.4018 7.0103-1.1979-1.3003-1.869-5.3359-3.0066-7.6932-0.37559-0.90744-1.3836-4.6036-1.9086-3.7629 2.1168 6.4947 3.9916 13.07 5.9425 19.613 0.63318 1.4758 1.8369 4.5962 1.0654 5.395-1.8534-3.9971-3.5664-8.074-5.2916-12.132-0.79936-2.1439-2.3397-4.1208-3.2303-6.3378-0.45347-1.3457-2.6127-5.3576-1.5233-1.7915 0.19593 1.2478 2.9598 5.4505 0.24392 2.9207-0.65826-0.79695-2.6272-1.8118-0.99608-0.14039 2.0468 1.942 3.9339 4.0994 4.8457 6.8252 0.42214 1.58 2.7592 4.763-0.15799 3.4406 0.11318-2.0954-4.7117-0.39711-4.869-3.0681-1.6964 0.24961-1.979-1.0822-2.1379-1.6755-1.184-0.235 1.0498-2.0954-0.79959-0.7965 0.69083-1.028-1.9977-0.54217-0.14039-1.3807 0.09865-1.003-4.6548-0.52779-1.7453 0.60871 1.3423 0.0632-1.7075 2.0857-1.1202 0.37749-1.7709-0.4898 0.60052-4.2456 0.03169-3.5835-0.92858 1.404-1.3075 0.77879-0.24041-0.50599-0.38126-1.01-2.2181 0.71651-1.421-0.74961-1.1975 0.0934-2.0828 1.8399-2.0173-0.0336 0.43914-0.55767 1.1533-2.0486 2.1325-3.0072-0.97854-0.71581-0.71716-1.2525-0.5349-1.5324-1.8894 0.82738-1.1546-3.0857 0.46702-1.8104 0.57329 0.32737 2.57 1.7235 2.5589 0.10434-2.3425 0.0443 1.289-0.74909-0.83985-1.153-0.58838-1.1993-2.3339-1.1051-0.92984-2.2472-0.57345-0.81337 2.8922-0.5839 3.6441-1.6677-0.99819-1.1154 1.7614 0.61463-0.04417-1.1264 0.02734-1.479 2.8965-0.98304 2.2659-2.676-0.15385-1.2294 0.22872-4.0276-0.94172-2.4324 0.27681-0.98607 1.3093-3.5726-0.28037-3.8014 1.1766 1.7716-2.2499-1.9077 0.35511-0.46658 0.96236-1.1114 0.80366 0.9432 1.1772 1.0229-0.6875 1.225 2.8613-0.7938 0.89078 0.48985 1.1372 1.8197 1.5525-1.3006 1.548-2.4147 1.5145-0.33553-0.12227-1.2341 1.6437-1.8419 1.3192-0.72825 3.5043-1.5549 3.1657-2.031 1.6559 0.75292 2.3072-1.6126 3.5176-0.2466 2.1723-0.80671 4.5675-1.2475 6.4126-1.8947 1.1614-0.44008 3.3079 0.4019 3.5974 0.31261-1.0258 0.18357-2.6544 1.1093-0.79923 1.1175-0.27203 1.0205 1.9506-2.1382 1.3639 0.28446 1.8073-1.006 2.8278-0.86143 3.8062 1.3656 0.35341 1.2048 2.0111-0.0261 0.52251 1.3641-1.1284 1.0107-1.2621 2.0235 0.11325 0.56563 0.68499-1.4461 3.2394-0.036 2.459-2.1243 1.2435-1.1701 4.0852-1.2261 4.7028-0.84244-0.52676 1.1605-1.6031 4.0162-1.9372 1.9011-1.0288 0.61375-0.67686 1.2848-0.16947 1.0422 8e-3 0.57823 3.1427 0.67427 1.3527 1.3662 0.29446 1.5285 0.40647 0.37187 1.1367 0.37909-0.80782 1.0392-2.6598 2.1538-0.19954 1.5419 2.52-0.9017-1.3975 0.97103-0.21328 1.6846-2.4955 0.24476 0.49072 0.62689 0.81417 0.96482-1.9887 1.2416 1.7362 2.1144 0.7028 1.061-2.2161 0.0981 2.4426-2.8371 2.186-0.3564 0.98538-1.2347 1.346 1.8854 2.2051 0.2287-0.51953 1.3955 0.3875 2.2495-1.0389 3.0655-0.30249 1.0703 0.85781 2.552 2.2712 0.89045-1.0244-1.2969 2.6605-3.2204 1.3243-0.97325 0.93462 7e-3 0.75606 2.1612 1.4934 2.7378-1.1002 0.56511-3.5691 0.36154-1.9898 2.3251 1.0644 1.227 0.87669 3.5895 2.0852 1.8493-0.19749 1.0724-1.0185 2.6799-0.30918 2.748-0.0791 1.6342-0.21282 1.8342-0.86751 1.0786 0.83666 1.3934-0.653 1.3194-0.70197 2.2926-1.2816-0.55423-4.6285-0.37425-2.356 1.2976-0.32487 2.2977-3.0804-0.30103-1.7315 1.9752 0.95741 0.64154-0.29999 2.3217 0.22942 0.52922-0.92583 1.1238-0.0891 1.2981 0.56885 0.98766-1.3686 1.5622-0.53457 1.6985 0.0566 1.7865-1.1908 1.346 2.2214-0.85175 0.22843 0.71238-2.1876-0.24465-0.98433 3.4994-2.9916 3.8454 0.8089-1.2444 1.0091-2.2533-0.46722-1.2899-0.90523 0.82673-3.1788 3.3541-2.9098 1.9393 0.80096-0.40593-2.8657-0.60531-3.6965 0.0212-2.7999 1.0042 1.2926-3.999 1.1569-5.4952 1.3551-3.5176 4.6331-5.8439 6.4244-9.0724-1.7893 1.0461-3.7763 4.2428-5.0326 4.5924 0.30372-1.7142 2.0519-5.7448 1.5579-6.1546-2.3196 5.1521-3.7491 10.74-6.8126 15.532-1.7946 1.5938-3.1235 1.597-4.9491 2.8779-0.69244-0.21408-3.215-0.41308-2.6547-1.0514 0.52324-1.8073 1.5455-5.6515 2.3962-8.1915 1.4822-4.4988 1.9646-9.2945 3.7891-13.676 0.73597-1.1237 2.0309-4.405 0.0543-1.7781-1.109 1.6798 0.78577-4.5678-0.44844-2.0118-1.4545 4.3836-2.1232 9.0186-3.6858 13.349-1.1669-2.9036-2.0729-5.9485-3.3223-8.8363-0.35289 1.9674 1.3477 4.8078 1.7024 7.1453 0.27218 1.3894 0.97462 2.7801 0.96571 4.1688-1.5988 5.8535-3.639 11.579-5.197 17.443-0.0066 0.38169-0.64617 0.43409-0.62286-6e-3zm1.3175-3.3734c1.2256-2.1011 0.76453-3.2388-1.5432-3.4514 0.7094-1.8462-2.287 0.60386-0.94844 1.5798 0.52116 1.504 0.73148 3.4579 1.6159 4.5866 0.3118-0.89836 0.59018-1.808 0.87573-2.7149zm-3.5525-1.0744c-0.01524-1.4981-1.924-3.5595-0.84448-0.84624 0.42131 1.3697 1.8086 4.2013 0.95034 1.237zm4.0251-2.8413c0.86741-0.42956-1.0877-0.70246-1.5249 0.53683 0.43273-0.13725 1.1536-1.0664 1.5249-0.53683zm-12.505-4.2616c-1.0263-1.717-1.5143 1.8154 0 0zm-2.4953-2.7002c-0.15985-1.0473-2.2667-2.9357-0.97536-0.66931 0.34616 0.50448-0.06463 1.5398 0.97536 0.66931zm35.615-1.6473c0.86349-1.2973-2.938-1.1119-0.63252 0.34551l0.26381-0.1051 0.36867-0.24041zm-35.765-1.1296c-0.58225-1.1978-0.80858 1.7039 0 0zm-6.6873-3.5047c0.98025 1.125 3.4592-0.61725 4.3714-1.802 0.89297-1.8699-1.2443-3.3938-2.2662-1.2497 0.58666 0.24868 1.0182-0.87607 0.6336 0.6977-0.68686 0.28194-1.9376-0.88115-0.8928 0.78675 0.6779 0.29673-1.7977 0.14991-1.7733 0.71415 1.0597-2.4556-1.2553 0.9734-1.6259 1.9778 0.33281-0.15173 1.2531-1.4304 1.5532-1.1247zm6.9478-3.0311c-0.13062-1.3123-0.94067 1.6843-0.07486 0.45746zm-0.52512-0.77564c-0.76179-0.72604-1.5582 1.6666-0.15544 0.23899zm-2.4038-3.7943c-0.93827-0.507-2.4956 1.0317-0.31124 0.12748l0.31125-0.12748zm1.6319-0.80082c0.45427-0.6631-0.79305-1.0568 0.40877-1.3489-1.2893-0.0391-3.0203 1.7081-0.72691 0.83198-0.01425 0.68649-1.9959 1.8293-0.11669 0.94758l0.43484-0.43074zm41.88-2.958c-1.1753-1.0652-1.5234 0.73673 0 0zm-39.26-6.2077c-1.0854-4.0254-0.38901 2.0126 0 0zm1.5309-0.33073c-0.74574-2.0557-0.11669 2.0898 4e-6 0zm24.759 2e-3c0.80753-2.0404 2.2072-2.5364 2.6741-4.3841-1.2516-1.0051-3.1768-0.72928-3.8906 0.96615 2.11-0.16231-2.4907 1.4329 0.19111 1.8322 0.28947 0.86466-1.9933 0.87874 0.2214 1.2175 1.0556-0.20213-0.89123 1.4124 0.80406 0.3686zm0.70167-3.565c1.6826-2.1159 0.89189 0.97283 0 0zm-22.299 0.46714c-0.92745 0.16833-1.6603-1.6625-1.654 0.22534 1.6174-0.0752 1.5492 2.7421 1.8451 0.12024l-0.06001-0.20691-0.13109-0.13868zm23.534-2.7441c-0.66331-1.1606-0.93119 1.8265 0 0zm-17.804-0.83171c0.12581-1.7845 1.2178 1.9938 1.7131-0.34018 0.56202-1.5422-1.2216 0.44122-2.0165-0.82386 0.30058 1.0454-3.4414 1.6172-0.97577 1.188 0.19698 0.58708 1.5539 0.96017 1.2792-0.024zm9.967-0.84668c-1.0387-0.89952-1.9332-0.52785-0.39484 0.0155 0.26615 0.6266 0.89965 0.90696 0.39484-0.0155zm-7.4701-1.329c-0.20619-0.92183-1.2586 1.1004-0.18376 0.27925zm14.606 39.208c1.0942-2.0686 1.3398 0.0462 0 0zm-32.085-5.2756c-1.6024-1.349 1.7964 0.21723 0 0zm45.279-14.568c0.0676-0.99969-0.99749-1.9714 0.22173-0.93592 0.11427 0.26792-0.0814 2.2232-0.22173 0.93592zm-3.4082-5.3422c-1.9076-0.62409 1.3392-1.0773 0.0744 0.15196l-0.0743-0.15196zm-3.5656-4.9924c-0.17989-1.3794 3.2142 4e-3 0.30941 0.0683zm-10.06-7.9878c0.92259-1.5783 1.7998 0.8686 0 0zm-3.5719-1.6031c1.0382 0.0694-0.24833-2.9906 1.4638-1.3711 0.33999 0.61216-0.84031 2.3182-1.4638 1.3711z" fill="#93c9c5"/><path d="m94.366 199.75c-1.1545-4.7976-3.0586-9.4155-5.1213-13.891-1.2161-2.1187 1.5391 1.8813 1.4622 2.6554 1.3973 3.6994 3.2588 7.3426 3.8076 11.28l-0.10223 0.27895-0.04624-0.32355zm2.3968-0.63064c0.12267-1.0907 2.1567-3.984 0.87237-1.4849-0.29245 0.37406-1.2463 3.7362-0.87237 1.4849zm-0.44285-4.3686c0.11836-1.1251 0.7267-4.9307 1.1092-4.5641-0.23485 1.4744-1.4193 5.6572-0.5385 5.5148 1.4385-2.8497 3.7368-5.1076 6.2479-7.0257-2.3917 2.3432-4.6126 4.853-6.5258 7.5982-0.66601 0.48953-0.25433-1.2692-0.29274-1.5232zm2.3637 0.70078c2.1937-3.1002 5.0167-5.6936 7.6269-8.4398-2.5558 2.9957-5.2769 5.8496-7.8021 8.869l0.17513-0.42918zm-4.2326-3.7435c-0.87636-2.5675-1.3646-5.2188-1.9408-7.8553-1.2069-2.6933-1.1415-5.6145-0.24604-8.3895 0.07389-1.3719 1.6623-4.3941 0.71707-4.7982-1.081 2.222-1.4945 5.1846-2.3438 7.1891-1.3849-3.9141-2.5181-8.0052-4.286-11.8-0.77934 0.72947 1.2049 4.5552 1.4945 6.3406 1.6894 5.2691 3.0531 10.647 4.879 15.86 0.48501 0.95387 0.8641 4.6447-0.29427 1.9264-1.6891-4.1793-3.6344-8.2766-5.3383-12.429-1.7781-2.7651-2.8599-5.9184-4.5169-8.7435-0.92738 0.70424 2.1893 4.8573 1.6032 5.6119-0.77031-0.74309-3.9097-3.1682-1.9516-0.80848 1.6983 1.8861 3.4704 3.4472 4.3023 5.8574 0.52607 1.2408 2.5961 4.2337 0.44129 4.355 0.56986-2.0248-2.2484-0.82695-2.5115-1.6801-1.8166 0.67729-2.4301-1.9078-3.385-2.6308 1.3597-1.7087-0.4305-1.9345-0.46171-3.0626 1.0806 0.14203 2.6997-1.6901 0.69902-1.2006-1.0365 1.1279-1.5279 2.2766-3.1588 1.0394-1.5973-0.34553-2.6689 0.49478-1.0446 1.6947-3.0653-0.17402-0.18412-3.8252-0.80595-5.2304 0.47192-2.0788 1.7993-0.0161 1.7926-0.27487-1.0086-1.3591 4.1331-1.7785 1.3616-1.8364-0.65346-1.0607 3.0123 0.11874 2.2591-2.0208 1.1301-2.015-4.2304-2.9134-1.2416-1.1945 0.17489 1.1112-1.792 3.2093-1.2532 0.43824 0.39775-1.7675-1.3884 0.86799-0.62689-0.90853-1.7215-7e-3 -0.93676-0.77813-0.06631-1.1432-0.20818-1.0248-1.0466-0.58668 0.44502-1.012 0.64036-0.23227 2.8865-1.6491 1.0782-1.7371 1.351-1.0034 0.21728-3.3748-0.26751-1.0068 0.01501 1.5255-1.4154-0.69652-1.4258 1.3542 3.2036 0.17475-1.7226 0.77685-1.5156 1.9587-1.2593-0.77748-3.264-0.92094-1.1266-1.9209-0.03885-1.3162 1.6855 0.0413 2.4805-1.201 1.9158-0.0304 0.61557-2.4886 1.5875-2.5566-0.3236-0.591 1.2252-0.65012 1.3886-0.45816 0.45704-2.326-0.57368-5.142-0.22376-7.0945 0.62885 1.1708 1.1268 3.092 2.4257 2.9311-0.8478-1.6277 1.086-2.7638 0.43219-4.5943 0.30248-1.1995 1.3606 0.14822 1.0186-1.6446 0.65141-0.37673 4.1932 1.1428 2.5149 0.0125-1.5722-0.14531-0.13006-1.834 0.42472-0.3083 1.8369 0.20226-0.2634-2.4393 0.68543-0.57926-2.0052-0.69011 2.1866-0.84534-0.29288-1.6766 1.9623 0.25133 2.6536 0.90047 3.3938 2.524 1.0034 1.4339 1.4676-0.11505 2.4273 0.0733 0.57961 0.84118-3.4061 1.5819-0.76064 1.0964 0.74864-0.3674-0.12258 1.5902 0.8535 0.0132 0.70782 0.0451 1.3259-0.11026 0.53091-1.2308 0.51582-0.85562 1.2434 1.7663 0.26284 2.2221 0.51094 0.97734 2.0971 9e-3 0.37598-0.40363 1.4664-0.74736 1.5534-1.1141 0.24861-1.7482-0.02879-1.4042 2.6331 0.75902 2.7499-1.5018-1.8722 0.19216 0.45061-0.73515 0.28162-1.2718 2.0209-0.24243 0.74906 0.9437 0.16145 1.488 0.72243 1.2845 3.5421-1.9161 3.8987 0.72668 0.92848 1.414 2.2524 1.8467 2.8612 0.89931 1.9223 0.46437-1.2214 0.38412-0.31869 1.9219 2.1385 0.1432 2.9861-1.5377 4.0043-2.8413 1.1195 1.1174-1.4062 1.912-1.1272 3.059-1.2546-1.0683-1.0945 1.8836 0.34733 1.4901-1.6701 1.0298-0.68275 0.50411-0.12524 1.6151 0.0345 0.75405 1.09-0.0281 0.59379 0.8534 1.3658 0.0679 2.7505-1.2654 3.6778-0.17633-0.78242-2.5295 0.91334 2.0268 1.4789-0.27531 0.13448 0.5088 1.5525 3.1179 1.9528 1.2681-1.2716 0.33378 0.44346-1.6049 0.48667-0.35774 0.8562 0.25824-0.762 1.5384 1.0656 1.1056 2.8072-0.58756 2.217 1.8186 1.196 2.2036 0.15558 0.11247-1.2812 1.7497-0.32144 1.6518 0.69009-1.1505 0.035 1.103 1.1685-0.18325 0.52138 1.4434 1.8302-0.0253 2.0496 2.0402 0.54043 2.3067 2.1593 3.9354 1.8177 6.555 0.11214 1.877-1.0212 4.0469-2.9682 1.9885 0.49855 0.5623-3.1415 1.7247-1.3979 1.6465 1.7922-0.16746-0.0574 2.1232 0.0181 0.47194-2.1115 1.808 0.0454 4.7118-0.982 6.8268 0.3319 1.9812-3.2402 1.4201-3.9587 3.8288-0.54004 0.70622-1.3023 0.36288-0.25506-0.0262-1.7012-0.98906-4.3979 0.17528-5.6764 0.12459 1.9478-3.026 2.2085-6.9179 4.8698-9.5222 1.0471-1.5081 3.9381-4.0646 3.7217-5.0115-1.5165 0.94518-3.7804 4.1875-4.7228 4.1366 0.53276-1.8794 1.6422-4.5923 1.5888-6.0454-2.4037 4.998-3.691 10.509-6.6202 15.258-1.3406 1.9893-3.6958 1.7177-5.5463 2.1612 1.9017 1.0946-0.42491 0.95122-1.1251 0.36903-2.0289 1.1305-0.37876-3.4172-0.0391-4.4781 1.8594-5.2175 2.8248-10.688 4.3863-15.985 0.17169-1.2127 2.666-4.4815 1.2773-4.3217-1.6994 2.8143-0.36287-1.0266-0.66912-2.0857-1.8827 4.4754-2.3846 9.3915-3.8901 13.986-1.1502-0.66302-1.535-4.306-2.5468-5.9841-0.23447-1.0486-1.8141-3.9019-1.0349-1.1734 0.997 3.1502 2.0228 6.324 2.5907 9.5797-0.58175 4.5337-2.6796 8.7249-3.7054 13.169-0.58056 1.2702-0.90918 4.8984-1.8933 4.573l-0.17721-0.48347-0.18135-0.59062zm1.6417-2.3151c0.40592-1.3426 1.6134-3.4691-0.5508-3.2088 1.0283-0.0596 2.0009-1.0944 0.73561-1.2229-0.90858 0.61415-2.3874 2.2726-1.372 0.30133-2.8444-0.53971-0.90186 3.0986-0.60569 5.0295 0.25254 1.5693 1.0652 2.8481 1.3466 0.51371 0.15052-0.47037 0.29923-0.94133 0.44626-1.4128zm-3.6341-1.1634c0.11997-1.339-1.9798-3.2663-0.90871-0.80502 0.34149 0.99856 1.9082 4.6323 1.128 1.6464l-0.10352-0.40837zm-8.3428-6.5883c0.07898-1.8432-2.5145 0.53531-0.18315 0.15248l0.18315-0.15253zm-1.5544-2.0976c1.5472-0.0983 1.7236-0.15957 0.60691-0.9325 0.03565-1.428-2.8011 2.603-0.60691 0.9325zm0.49522-2.513c-0.40061-2.3755-0.67676 2.6144 0 0zm34.297-0.0732c1.726-2.1971-3.196-0.97235-0.71169 0.37354l0.35654-0.0713 0.35536-0.30228zm-40.734-1.2133c0.68816-1.9942-1.5755 1.8401 0 0zm46.025-6.195c-1.6601-2.3049-0.63303 1.3505 0 0zm-39.952-11.477c-1.017-2.1246-1.0899 1.073 0 0zm2.2518-3.4674c0.60615-0.54451-0.81236 0.0726-0.84907-1.0451-0.66179 0.53693 0.12213 2.9904 0.84907 1.0451zm3.7013-0.79831c0.75527-2.166-1.2073 0.52939 0 0zm-0.68121-0.85989c-0.2847-1.5338 1.2577-1.4721 1.3065-0.66645 1.2027-0.60686 1.1273-1.3327 0.10769-0.70104-0.71219-0.8436-2.9397-0.24448-4.0033-1.54-0.98898 0.39019 0.0188 2.5831 0.8651 1.8112-0.429 1.9023 1.0069 0.24732 1.7216 1.3383l0.0024-0.24211zm9.249-2.8768c0.96812-1.1479-0.39659-1.587-0.07869-0.29459-0.90455 0.83272-1.2846 1.8312 0.07869 0.29459zm-6.7819-0.20592c0.46284-1.6852-2.2223 1.3951 0 0zm7.2467 38.868c0.18133-1.622 1.1579-2.8405 0.34554-0.45617-0.09219 0.432-0.66306 1.98-0.34554 0.45617zm6.5603-1.6536c1.4181-2.0223 0.67847 0.12397-0.48246 0.69932l0.13503-0.2231zm12.51-4.1718c1.0437-1.5834 0.34308 1.3124 0 0zm-44.24-9.7807c0.49018-0.63711 1.8506-3.0544 0.91618-0.54287-0.18157 0.28547-0.52521 1.02-0.91618 0.54287zm2.1778-3.1333c-1.2349-0.618-0.20205-1.2457 0.42426-1.8717-1.0973 0.6082-2.672-0.7565-1.2211-1.257 0.15596 1.1002 2.965 0.29652 1.145 2.1228-0.09835 0.90129 2.0789 2.2911-0.07011 1.2605l-0.27813-0.25471zm1.5431-0.80827c0.7287-0.68116-0.61636-2.2723 1.0188-1.1394 1.6942-1.38-0.27636 1.348-1.0188 1.1394zm46.218-7.43c-0.38467-0.4034 1.0994-0.921-4e-3 -1.6067-0.79462 1.6562-1.2282-2.8653 0.63253-0.8931 0.71141 0.0971-0.69381 2.0753 0.98266 2.231-1.1286 0.0257-1.3185 0.23151-0.45981 0.47863-0.27378 0.55045-0.96914 0.21951-1.1509-0.20984zm-13.019-7.0874c0.98172-1.5089 1.6592-3.507 3.5713-3.3762-1.4706-1.5832 1.7906 0.63908 0.17422 1.1145-1.0097 0.74663-2.7465 2.3203-3.7455 2.2617zm1.6284-0.35909c0.79493-1.4075 4.127 0.25605 1.2753-0.0297-0.30396-0.21332-1.4285 0.6039-1.2753 0.0297zm2.3277-1.0017c1.8442-1.6496 0.84983 0.62109 0 0zm-3.5384-5.1096c-1.4807-1.5858 3.4837-0.32949 0.36125 0.0937-1e-3 -8e-3 -0.50186 0.13584-0.36125-0.0937zm-5.9744-0.75667c2.2579-2.3682-1.3002 2.2839 0 0zm7.9253 0.27848c0.37342-1.134 2.2741-1.7722 1.4697-0.31378 1.9414 0.0643-1.6904 1.437-1.4697 0.31378zm-21.226-0.72364c-0.53223-0.31576 0.9022-1.0625 0.61507-1.2433 0.60964 0.53839 0.27792 1.5398-0.61507 1.2433zm1.4487-0.133c0.43776-1.4705 3.4623-0.49577 0.83086-0.34383-0.11205 0.23671-0.8043 1.1816-0.83086 0.34383z" fill="#84c1bd"/><path d="m96.617 195.96c2.5158-3.1632-0.77367 1.6321 0 0zm2.1607-0.73746c0.34866-0.71804 3.0169-3.0679 1.3011-1.2714-0.18509 0.10574-1.7403 2.2342-1.3011 1.2714zm3.7593-4.2333c0.9123-1.0148 2.3012-2.0674 0.55057-0.29232-0.82769 0.94745-2.8016 2.6155-0.83656 0.58464zm-9.861-0.0662c-0.60524-1.4604-0.18762-1.1686 0.35593-0.19843-0.32824-1.3211 0.02877-1.9197 0.21875-0.0735 0.13246 0.63598-0.32016 1.0995-0.57468 0.27189zm3.2785-1.1245c0.07547-1.169 1.2134-2.5718 0.36486-0.52916l-0.25427 0.53743-0.07922 0.0728-0.03132-0.081zm6.5825-0.66145c2.2476-2.2878-0.59369 1.2134-0.59505 0.65401l0.25698-0.29445zm-9.2265-1.2976c-0.33498-2.6934-1.1163-5.2947-1.9076-7.8863 0.51814-3.0789 1.3385-6.0959 1.9828-9.1451-1.5205 0.57429-1.8097 4.8096-2.7183 6.8178-1.526-3.7868-2.4821-7.8208-4.2481-11.523-1.3725-0.3075 1.0181 4.09 1.1233 5.4124 1.6309 4.8893 2.8249 9.9238 4.5344 14.781 0.63313 2.6148 0.15291-0.36843-1.0673-0.31021 0.84204 3.2606-0.94322-1.779-1.4541-2.7676-1.3932-2.8027-2.2633-5.6733-3.9826-8.2879-1.2252-1.772-1.7202-4.8169-3.3162-5.925 0.46585 2.0531 1.4635 3.9514 2.1944 5.9248-1.1806-0.62669-2.0167-2.5255-3.0581-2.6062-0.29347 1.6008 4.4368 3.5886 2.1449 4.9794 0.13044-1.0242-0.30691-1.266-1.3479-0.52476 0.57382-3.0484-1.8111-0.60173-2.6528 0.16789-0.94645-1.0772-3.6851-0.10304-1.271-1.4357 1.0329-2.1252-1.4995 0.19764-1.9465-0.75149 1.141-0.59879 1.523-3.2631 1.0645-0.68273-0.11367 1.866 1.8878-3.6108 2.1497-2.2699 0.06432 1.215 1.1768-1.5572 2.0173-1.8997 0.80968-1.2375 0.38276-4.5271 0.08784-4.6571-0.6697 0.64365-0.93664-1.4566-2.1207 0.0525-0.92482-0.1199 1.8108-1.4664 1.0634-2.3813 1.5056-0.44978 0.86621-1.7261 0.13896-0.78186 0.21372-1.4211 0.98878-6.3657 1.3355-2.8055 0.76567-0.85281 3.2599-2.2682 2.7568-2.6858-0.83966-0.74396-1.8852-1.1686-2.2806 0.5183-1.7399 0.7508-1.4332-3.852-0.08316-1.429 1.234-0.42633 1.4592-0.30522 2.3295-0.26867 0.09658-1.0453 0.66648 0.47862 0.64732-1.1253-0.80412 0.34019-2.5596-3.7344-1.2229-3.5776-0.2013 1.995 2.642 1.4848 2.2044 3.3001 1.4512-1.6362 2.7121 2.4109 4.2393 0.27836-0.11249 0.35424-0.24671 2.1514 0.187 0.54135 1.7161 0.40548 0.34956-2.0034 1.2379-2.2351-1.3383 0.0553-2.4036-0.5531-1.97-1.4571-0.21033-0.22838 2.0883 0.32517 2.7624-0.68165 0.51436 1.1922 2.0929-0.99792 2.0332 0.95828 2.5831 0.21679 3.5218-4.6292 6.5461-3.6591 1.4224 1.371 3.8229 2.1244 3.2661 4.3854 1.123 0.0362 2.3742-2.208 1.9714 0.34623 0.81645-0.054 0.42949 3.2957 2.7511 3.2212 0.66053 0.46263 3.0058-1.351 2.8207 0.59643-1.4056-1.7316-0.12878 2.1494 0.97469-0.0173 5e-3 1.6776 4.074-0.11625 5.1847 1.2847 0.17767 1.6979 2.2305-0.64675 0.64517 1.101-1.6743 0.46327-0.92032 3.1397-0.66529 4.6599 0.63468 0.95982-0.17264-3.2226 1.0731-1.3836-0.55821-1.571 0.98623 0.8527 1.4578-0.12286 0.18677 0.69234 1.0056 2.1823 0.49741 2.7811 1.1918 0.17505-0.43236 1.7483 1.1756 1.6964-0.34733 1.1518 1.55 1.1539-0.13715 2.3562 0.38308-1.0474-2.6836-3.6941-1.4744-1.6064 0.6297 0.69246-1.1316 0.52056 0.20363 1.6771 0.1091 0.63103-1.4782-1.0771-0.28375 0.6889 0.90781 1.1322 1.17-0.0985 1.619 1.5369-0.57142 1.2799-3.0162-0.65949-3.509 1.3312-2.0018 0.62812-1.0218 3.8836-3.1988 3.9444 0.0157 2.2306 3.3876-0.73212 2.177 2.3182-0.90826 1.3765 0.82137 2.1926-1.4266 3.066-1.7646 0.68063-2.1242 3.4209-4.122 1.9129-1.5357-0.50752-5.3565 2.0232-3.293-1.2046 1.1409-2.6474 1.7906-5.5808 3.9001-7.6975 0.97454-1.4966 3.9827-4.0403 3.6621-5.0508-1.5584 0.92186-3.8218 4.222-4.7169 4.1962 0.49755-1.9879 1.7872-4.5448 1.7098-6.2226-1.7006 3.1564-2.5808 6.7256-4.0853 9.9937-1.1434 2.1978-1.6622 5.0141-3.909 6.3786-1.4889 1.4705-5.3752-0.12009-4.0615 2.0979-1.2664-1.274-2.0786 0.48707-2.24-1.6135 0.96577-4.1401 2.55-8.134 3.4773-12.298 0.939-3.8038 1.6057-7.763 3.7005-11.149 0.16686-2.1286-2.2505 2.7141-1.4579-0.0749 0.43723-1.374 0.14103-3.4016-0.4415-0.9505-1.2771 4.2437-2.0687 8.6324-3.4332 12.843-1.2405-2.8694-2.0604-5.9421-3.4655-8.7323-0.34752 2.077 1.2847 4.5558 1.626 6.8052 1.0081 2.7104 1.1666 5.6644 0.0091 8.3616-0.72849 2.1454-1.3667 6.0704-3.5026 5.6809-0.83882 1.3783-1.0003 0.23084-2.491 0.0216-0.61976 0.73605 0.9383 5.666-0.12076 2.8701zm23.779-8.514c-0.76238-1.1257-0.92562 1.3928 0 0zm3.4134-9.6515c-1.3662-0.43899 1.0095 1.5663 0 0zm-24.315-16.528c2.197-0.62481-2.8991-0.61454-0.23671 0.46887l0.174-0.13428 0.06271-0.33462zm1.7013 34.668c1.3823-3.6968-0.38906 2.4183 0 0zm-1.0289-0.62835c-0.46619-2.5607 0.7144 0.6791 5e-6 0zm-9.2808-4.1299c-1.5043-0.83087-3.2825-0.93387-4.0596-2.2037-1.8478 1.3856-1.1374-1.6515 0.49719-1.3856-0.24434-1.3691 0.03904-2.0329 1.5301-1.5129-2.7932 1.4491 2.1959 1.392 2.0202 4.0818 0.06822 0.1492 0.78913 2.0588 0.01204 1.0205zm-11.341-5.2944c-2.9048-3.9639 3.1316 2.3771 0 0zm8.6231-0.41818c0.84666-1.0648 0.89513 1.1179 0 0zm-4.0207-0.24548c-0.67728-1.2121 2.2831 0.18167 0-3e-5zm41.824-6.4589c-0.72265-1.7549 1.3246 0.81751 0 0zm-43.335-2.3653c0.94833-1.2903 0.75984 1.0186 0 0zm0.45383-7.3146c0.08344-0.22717-1.1301-0.93314 0.5715-0.63317 1.0294 0.50839-1.517 1.3044-0.5715 0.63317zm43.05-0.79484c-0.8501-0.48904-1.3363-0.85834 0.19692-0.55721 0.36002 0.34415-5.6e-4 1.7444-0.19692 0.55721zm-35.827-9.2858c-0.06361-0.7822 1.6863-2.1605 2.1125-2.3575-1.5952 1.2758 0.93662 3.5135-2.1125 2.3575zm-1.5205-1.2229c-0.48582 0.0181-1.4849-0.34284 0.0416-0.50064 2.1754-0.0266 0.81302 1.658-0.0416 0.50064z" fill="#5bada7"/><path d="m90.652 185.79c-0.9985-2.7283-2.3856-5.335-3.3507-8.0572-1.3969-0.39277 0.21755-3.4215-1.0904-2.5614 0.79502 2.2007-2.0051-2.6803-2.2611-3.6657 0.14838-1.5048-3.2762-2.9094-1.0499-3.0147-0.97925-0.68713 0.28668-2.548-0.97775-3.9688-0.3746-2.3592 1.1689-0.71487 1.3734-0.20325 1.179 0.5183 1.9518 1.0046 1.3794 2.4402 0.43772 1.8667 0.51589 0.27006 1.1387 0.0834 1.3909 3.0458 2.0469 6.3977 3.0882 9.5746 0.22524 1.743 1.8903 4.6302 2.0292 6.9536-0.52474 1.3505 2.3907 3.0907-0.27908 2.4191zm10.081-0.62838c-2.8956-1.1717 0.54099-4.6908 0.56565-6.9817 1.582-4.7661 2.2453-9.7958 3.9849-14.505 0.79751-1.0912 2.2822-5.0887 0.23583-2.3853-0.8153 1.4618 0.10097-1.7754-0.13578-2.277-0.85896-0.32388-1.3577 3.7135-1.8822 5.0508-0.81754 2.8498-1.2198 5.8409-2.3005 8.6006-0.8615-2.625-1.7239-5.1267-2.9213-7.6804-1.5106-2.2141 0.05309 2.6097 0.31359 3.4094 0.81175 3.1148 2.3889 6.3966 1.1324 9.6188-0.53697 1.9148-1.18 3.7976-1.7742 5.6949-1.8631-0.56134-3.089 1.9936-4.4532 0.81871-0.62801 1.9369-1.5809-3.1483-1.8543-4.4548 0.04224-3.2657 1.47-6.3756 1.7926-9.5686-1.2429 1.0745-2.2209 4.1546-2.4599 5.3529-0.19157 3.7739-1.4199-1.8919-1.4693-2.6414 0.27082-0.62686-2.3665-2.7135-0.61366-3.9181-0.96553-0.83506-1.8918-0.71948-2.042-2.6071-0.89686-1.3603 1.3524-0.15595 0.57329-1.7866-0.58661 0.26993-3.4427-0.31709-1.2579-0.86296 2.5859-0.0143 0.43063-1.7139 0.20258-1.9137 1.3653 0.36797 1.8911-0.74973 1.5826-0.98924 1.2061-0.67258 2.1836-2.0328 0.47412-2.4899 0.861-0.65801-0.06336-1.5835 1.3434-0.95523-1.3632-1.7875-3.3835-0.60759-2.1502 0.61616-0.94706 0.80068-0.32984 1.4044 0.46355 1.7736-1.6961 0.4082-2.8785-2.7308-2.3417-3.8538 0.95854-0.2344 0.3879-1.4329 1.4443 0.0438 1.397 0.43052 3.5975 0.85746 5.2365-0.6003 0.72493 0.21844 3.1917 1.4332 1.4507-0.13152-1.8524-2.3544 2.5055 2.1084 2.0578-0.0938 0.42271-0.59637 2.5193-1.4794 1.4942-0.21857 1.0957-1.9519 2.3035 0.62791 3.4874-0.8854-2.1939-0.2494 2.3732 0.28472 0.61333-1.1926-2.3374 0.82989-0.68509-1.1168 0.56011-0.82095 0.84763-1.518 3.6164-0.17664 2.9748 0.50845-0.10855 1.0279 1.4173-0.28184 2.0269 1.2228 0.98306 2.2376 4.2694 2.4116 5.268 4.7776 0.48534-2.3244 2.2882 2.1218 2.4218 1.0141 1.6764-0.12003 1.8569 1.0262 0.0721 0.48262-0.49371 0.63621 2.0781 1.456 0.79974 2.0444 2.3629 0.1855 1.5909 3.622 3.8786 4.6515-0.49262 0.54384 1.1989 1.6886-0.4525 1.1207 0.11201-1.6486-1.9913-2.0623-1.0243-0.65118-2.2808-0.84826-0.42534 0.12896-0.27158 1.5389 0.17913 0.52442 0.85635 3.0851-0.35826 4.0471 0.16952 1.7678-0.52775 2.6994-1.6744 3.5469-0.1757 1.2512 3.2931 1.3181 1.3656 1.9437 0.38242 1.2661-1.7995-1.541-0.97156 0.82048 0.94465 0.47949 0.95558 1.1222-0.0383 0.72888-0.26003 1.6296 2.5261-0.72527 1.0692 1.0822-1.7926 0.3005-2.9886 3.5289-4.6161 1.7815-0.82351 0.30805-4.4862 1.3273-3.5096-0.26808 0.92752-1.7208 1.7291-1.9816 1.5494-3.9294 1.2268-3.3107 3.9737-5.7629 6.2926-8.3217 0.89203-1.0306-0.0373-3.5136-0.4866-0.94956-1.0402 1.1147-3.3999 4.0577-4.105 3.8967 0.4823-1.8689 1.5546-4.3241 1.3678-5.9452-2.5879 5.0179-3.5633 10.815-6.9131 15.444-1.2793 1.8806-4.4383 0.89543-5.5808 2.2075 1.6266 1.0458 0.0985 0.80797-0.43721 0.04zm-6.976-2.497c-0.2062-0.92183-1.2586 1.1004-0.18376 0.27925zm19.911-0.55501c0.91889-0.89621 2.0976-1.5885 0.36601-2.7944-1.3496-0.3812-1.6342 1.0147-1.5226 1.2121-0.16322 0.23107 0.99165 1.8175 0.72174 1.7792l0.43488-0.19694zm-2.1561-0.61493c-1.1425-0.82266-2.8953 0.29685 0 0zm6.2496-10.434c-1.1755 0.2941 0.11072 1.6393 1e-5 0zm-24.958-1.882c1.6136-2.0895-1.8255 0.78407-0.74736 0.58633l0.32111-0.23552zm-4.2524-1.9464c-1.9295-0.6134-0.07166 1.2516 0 3e-5zm1.0832-2.0674c-0.0017-1.4719-2.3949-0.41321-1.0621 0.61482-0.21632 0.87693 1.4255-0.10147 1.0621-0.61482zm26.623-1.037c-0.63836-0.49999-1.315-3.3322-1.3037-1.4423-0.17615 0.84864 1.745 3.3258 1.3037 1.4423zm-12.859-2.0967c0.60198-0.7294-2.476-1.0157-1.074-0.30346-0.80314 0.50117 0.86496 0.44549 1.074 0.30346zm-3.6272-3.6657c-1.824 0.0568-1.6439 1.8308 0 0zm7.133-0.58791c1.5746-1.0631-1.4088-0.4129 0.0336 0.18686l-0.0332-0.18686zm1.3385-1.4468c0.96781-1.1888-2.6236 0.70347-0.42966 0.2571zm-2.6614-0.69631c2.281-0.25503-2.5898 0.19442-1.7446-1.5611-0.37856 1.1591-4.7424 1.2366-1.6663 1.6802 1.1377-0.0111 2.2743-0.0724 3.4109-0.11914zm-19.079 26.066c-1.5908-1.0897-1.8601 0.33503-2.9944-1.0349-2.6274 0.9622 0.85783-2.5287 1.9458-0.92978 1.1305-0.79894 3.0347 3.5728 1.0486 1.9647zm-5.6587-4.6084c-0.77901-1.1415 1.675 0.14638 0 0zm1.5868-1.3215c-0.3038-1.073-3.0346-0.24153-1.6688-2.1749 1.194-1.7065 0.61117 2.1164 1.3699 0.32097 1.1945 0.58505 3.5896 3.5928 0.29888 1.8539zm-3.7815-1.592c-0.18159-2.2229 0.9229 1.3128 0 0zm4.4406-0.4956c-0.85744-1.4189-2.9201-2.7794-0.88816-4.1243 0.40653 1.3858 2.2391 4.4745 1.6537 4.8023l-0.34992-0.30001zm-3.0403-0.53181c1.0393-1.4773 1.0176 1.0197 0 0zm41.716-1.7922c-0.87133-1.8244 1.557 0.71513 0-1e-5zm-40.658-7.0997c0.77676-2.0971 0.43333 2.012 0 0zm3.9666-1.0557c0.20265-0.70437-0.91409-0.87097-0.61099-1.5854-2.2154 0.0509 3.1833-1.5779 1.2435 0.73345 0.3706 0.84974 0.50998 1.6459-0.77378 1.0537l0.14124-0.20175zm-1.2532-3.5843c0.84113-1.1818 3.0789-0.40161 0.62868-0.10189-0.14743 0.26541-1.2367 0.98643-0.62868 0.10189zm33.434 0.32525c-0.11336-1.7247 1.6293-0.0867 0 0zm0.36322-2.1014c-0.51074-0.50749-1.046 0.67122-1.1443-0.52031 0.85616-0.93877 2.307 1.8477 1.1443 0.52031zm-21.373-3.6481c-0.25909-0.76862 2.0555-2.9441 1.6035-0.52282 1.4015 1.2566-1.6721-0.9727-1.0427 0.90711l-0.24575-0.0991-0.31507-0.28516zm2.3255-0.62053c1.5024-1.4495 1.6748 0.9591 0 0zm-0.1591-0.89076c0.30318-0.3319 3.076-1.8947 1.2008-0.0971-0.30237 0.30892-0.93317 0.66782-1.2008 0.0971zm-7.6305-0.60372c-0.87234-0.0507 2.2646-2.1585 1.5426-0.26732 0.17524 1.0583-1.1189 0.61037-1.5426 0.26732zm7.4185-1.7531c-2.4079 0.52883 2.2858-3.2914 0.61153-0.90285 0.08362 0.20471-0.68161 1.889-0.61153 0.90285z" fill="#2d968e"/><path d="m94.19 184.43c-1.9075-0.73538-2.6731-3.3249-2.4555-5.4842 0.28661-1.1328 0.03333-3.4459 1.7554-2.5949 0.11863-1.8279-0.92547-3.3858-0.07804-5.4636-0.30809-1.5701-1.5546 1.5937-2.2114 1.8694 0.54879-0.15273 1.3228-1.2886 0.63504 0.33582-1.8742 0.24151 0.57083-2.3735-1.5787-1.3585-0.11074-2.1369 5.3648-0.8774 4.2961-3.34 1.7455-0.18854 1.2077-3.2156 0.03902-2.1614-0.30793-0.0174-1.1733 0.56689-0.47289-0.61854 0.08586-0.80167 1.0556-3.1954 2.7287-1.615 1.5691 1.1306 1.378 4.747 2.4153 6.73 0.04926 1.8458 1.9008 4.8943 0.41718 7.347-0.98098 2.2138-0.77185 5.9677-3.9649 5.9078-0.55236-0.10881-1.2008 1.2163-1.5253 0.44614zm0.01162-0.98327c-0.69806 0.40099-0.18698-2.3018-1.4109-0.48578 0.23412 0.37113 1.0563 1.0945 1.4109 0.48578zm0.39875-2.5166c-1.1726-1.8698-0.98485 1.6431 0 0zm1.4437-13.064c-1.6098 0.54421 0.17434 2.6823 0 0zm1.0807-0.57938c0.1213-1.3546-1.779 1.2073 1.4e-5 0zm4.2198 16.947c-0.74474-0.28839-0.38853-1.0351-1.7171-0.5813 0.06216-1.5309 1.1075-2.4083 1.9503-2.9843-2.0039-1.1264 1.0208-4.305 0.87671-6.3156 0.8568-2.9089 1.2679-5.9759 2.2945-8.8135 1.1462 1.7013-0.896-2.0555 1.1797-2.2585-0.11794-1.351 1.6989-1.5336 0.79027-2.6449 0.5195-1.7654-2.7518 1.6726-0.75798-0.95901 0.59653-0.21867-1.5735-0.49089 0.31846-0.65893 1.859-0.56875 4.0652 0.84628 4.5848 2.1974-0.98191 0.95416-0.2936 2.6147-1.4142 2.0833-1.2173 0.43004 1.4093-1.2739-0.67568-0.88811-1.6919 0.24395 1.7798 3.7992 1.8268 1.6489-0.15379 1.6434 1.332 3.1606 0.76539 0.60204 0.93603-0.67672 0.42971 3.6587 1.8693 0.83007 1.2488-1.4531 2.2864 1.0687 1.8353 1.7318 1.7188-0.25881-2.112 2.2528 0.13497 1.2253 0.68909-0.17259-0.80124 1.1382-0.0991 2.1163-0.79285 1.4147-1.2223 1.0747-0.1422-0.31347-2.4813 1.4062 0.97264-1.809-1.0889-0.51922-1.4869 1.2437 1.7281-4.8268-0.53923-1.586-0.79314 1.1871-1.3247 3.6748-1.944 1.7942-1.4108-0.75397-2.7387-1.0945-3.4342 0.70813-2.6288 0.13733-0.14331 2.7825-2.6601 2.3836-0.14459 0.84848 2.0251 0.11721 3.1159 0.20267 1.6187-1.956-2.6211 1.0777-0.91324-1.1881 2.3381-1.6018 1.9971 3.5331 3.1312 0.24126 1.406-0.94636-0.16682 2.8853-0.64557 3.5505 0.044 1.5526-1.9556 1.8912-0.73439 2.4937-1.4862-0.0611 0.2521 1.5724-1.4225 2.1606-0.75369 0.77218-4.904 0.0168-2.4554-1.2003-1.6442 0.10744-2.7194-0.26486-1.7498 1.6784 0.57976 1.3366 1.4289 3.2523-1.0426 3.447-0.38288 0.0537-0.95282 0.20414-1.2373-0.18408zm1.9418-1.4298c-0.81018-3.3422-1.6517 1.6287-0.4026 1.1819 0.36402-0.26844 0.44892-0.76014 0.4026-1.1819zm5.1588-8.7103c-1.6068-0.38907-2.5735 1.0338-0.48747 0.82858 0.23749-0.16318 1.0879-0.56474 0.48747-0.82858zm-2.2032-7.0536c-1.2753-1.4822-1.2992 1.4605 0 0zm1.2622-0.39688c-0.21582-1.138-0.7173 0.14233-1.0808-0.86558-0.15865 0.43112 1.1944 2.5246 1.0808 0.86558zm2.7993-0.86446c-1.6806-2.1849 0.0998 2.6831 0 0zm-20.086 17.72c-1.2048-1.1923-1.5145-2.7168-1.9985-4.0893 0.42154-1.3959 0.435-2.7081 1.3654-0.71719 0.08218 1.271 2.1746 4.2941 0.63311 4.8065zm21.162-0.88337c1.3989-0.92545 2.2358 0.59545 0 0zm3.5938-0.87494c0.39167-1.4164 3.9936-0.64377 1.0583-0.0156-0.18639 0.32806-1.0324 0.65543-1.0583 0.0156zm-29.75-0.81199c-1.3288 0.0256-0.66279-0.37073-0.61289-1.6888 0.33015 1.2953 2.6888 0.56754 1.0423 1.4377 2.1272-0.57473 0.7385 1.2698-0.42941 0.25116zm-1.9355-0.57003c-0.73867-1.4241 1.7423 0.48183 0 0zm27.721-2.6118c0.45977-1.9673 1.3202-0.0848 0 0zm-28.381-1.618c0.3392-0.799 0.65041-1.9726 0.71739-0.44939 2.4258-0.0179-0.59735 0.61158-0.71739 0.44939zm31.674-0.29078c-1.443-1.533 1.6935-1.5875 0.49738-1.0449-0.92483-0.35242 0.37483 2.3502-0.49738 1.0449zm-27.368-0.85383c-1.1189-1.208-0.93199 1.0318-1.685-0.97653-1.1227-1.0407 0.15463-2.5982 0.16238-0.68745 0.63474-1.6532 0.97999 0.47354 0.01554 0.75938 1.1165 0.49214 1.6395-2.1014 1.8467 6e-3 0.33515-2.1134 2.183 2.6857-0.33957 0.89811zm28.04-1.3069c1.5478-1.4589-1.5895 0.43449-0.0543-1.0282 0.68407-1.6376 3.3655-0.79472 1.3042 0.30306-0.25475 0.10002-1.0936 1.4147-1.2499 0.72515zm-13.893-1.4151c0.13219-1.2416-0.932-1.8883 0.83934-1.9594-0.0993 0.30665-0.38514 2.5699-0.83934 1.9594zm-17.229-1.3691c0.33164-0.70784-0.27302-2.6128 0.81319-2.6785 0.40208 1.025 0.10266 2.9386 1.8947 1.83 0.50014 0.78759-2.5941 1.9483-2.7079 0.84848zm16.986-1.6627c-1.6036-0.9081-2.3915-3.7663-2.4612-5.2734 1.1308 0.32301 5.381-1.7298 4.9535 0.4256-0.51702 1.3379-0.17628 3.5383-1.7098 4.0588-0.0446 0.52228 0.81707 1.2863-0.78254 0.78905zm-8.3531-2.3376c-1.4657-1.2735 1.8552-1.0083 0.64318 0.38287 0.17084 0.71153-1.0364 0.0309-0.64318-0.38287zm22.915-0.79977c-0.22785-2.0319 1.3428 1.34 0 0zm-25.825-3.8138c1.2511-1.6683 1.1384 0.63251 0 0zm7.6806-1.049c-0.6173-1.3397 2.3521 0.90275 0 2e-5zm-1.1983-0.79428c-1.1849-0.59393 2.2376-0.71842 0.56292 0.23618zm-1.0119-1.2422c0.47954-0.67444-0.88728-1.7604 0.48024-1.1176 0.08971 0.26011 0.14432 1.7298-0.48024 1.1176zm14.292 5e-3c-0.0566-1.7464 1.5399 0.76371 0 0zm-16.054-1.0276c-0.56637-1.3526 0.22502-0.30285 1.097-1.0292 1.9108-0.97489-1.1446 2.6959-1.097 1.0292zm-2.6683-0.5021c3.3554-1.437 0.15696 0.90655 0 0z" fill="#188c83"/><path d="m99.94 182.78c0.62085-1.8251 3.3834-0.0874 1.3672 0.29083 0.34819-2.1966-1.7786 2.0433-1.3672-0.29083zm-5.0138-0.1323c-0.74314-1.6585 2.5282 1.3021 0.38219 0.37373zm-1.3314-1.1112c-0.105-0.94011 0.73982-4.1279-1.5081-2.9457-0.68266 1.6039-0.33753-3.4729 1.4824-1.8241 1.8455-1.0862 0.01584 0.28005 0.66004 1.0107 1.1546 0.0575 1.2167-3.0239 1.489-0.72615 1.8911-1.2574 2.2989-0.5491 4.1392-0.23197-0.167 2.3878-1.2843 4.7767-3.8175 4.7701-0.89701-8e-3 -1.5508-2.7893-1.2299-0.35173-0.55815-1.9305-1.8721-0.0567-0.63534 0.61631l-0.27847-0.0933-0.30127-0.22424zm1.4023-2.0638c-0.7218-2.4477-1.7614 0.77259 0 0zm2.3812-1.3229c0.52459-0.97092-2.1693 0.70765 0 0zm18.514 3.1856c1.4888-0.83289 2.1564 0.27455 0 0zm-13.507-1.5099c-0.0636-0.56122-1.8809 0.47813-1.1139-1.2341-6e-3 -2.5201 2.0826-2.2708 3.7251-2.509-0.89965 4e-3 -4.2363-0.55964-1.9008-0.83463 1.2414 0.011 1.1763-0.89835 2.7125-0.0663 1.8968 0.076 0.54973 0.73237-0.0186 0.75264 0.79275 0.38107 3.2696-0.0897 1.0992 0.53299 1.1781-0.15938 1.9749 2.8082 0.45788 0.97771-0.82639-0.83779-1.3429 0.0221-2.0408 0.14087-0.80495-2.3738 0.7984 2.5144-1.6141 1.723-1.6802-1.8128 0.022 1.4009-1.2858 0.76802l-0.0208-0.25141zm2.5332-1.5188c-1.4417-0.49548-0.40497-0.10061-1.0403 0.85926 0.38701-0.21097 0.8636-0.41842 1.0403-0.85926zm-5.7099-2.4455c-1.3987-2.7535 2.9656 1.2964 0 0zm-4.424-0.44794c0.28226-2.0373 1.028 0.5103 0 0zm10.134-1.0999c0.99177-1.4555 0.50081 1.2959 0 0zm-6.7313-0.80216c-1.001-1.2939 3.4243 0.70317 0.4569 0.26114zm4.7757-0.76488c0.57648-1.481 2.192 1.0247 0.44016-0.0241 0.38348 0.53054-0.67409 0.53467-0.44016 0.0241zm1.2785-1.1335c-0.0407-1.4812 0.85427 0.18387 1.4816-1.1356 0.11222 0.83929-0.88607 2.4078-1.4816 1.1356zm6.8378-2.173c-1.0854-1.8051 0.80649 0.18712 1.7768-0.55942-0.16495 0.64879-1.2519 0.83373-1.7768 0.55942zm1.9217-1.4103c0.0227-1.2298-1.7692 0.95165-1.3926-1.1075 1.4279-1.1889 2.052 1.6372 1.3926 1.1075z" fill="#11897f"/></g></g></svg>
