<?xml version="1.0" encoding="UTF-8"?>
<svg width="54.208mm" height="43.132mm" version="1.1" viewBox="0 0 54.208 43.132" xml:space="preserve" xmlns="http://www.w3.org/2000/svg"><g transform="translate(-81 -185.23)"><g transform="translate(30.038 43.538)" stroke-width=".26458"><path d="m73.848 184.6c-5.4975-0.70812-10.967-2.1334-15.965-4.5521-2.1249-1.0393-3.4042-3.0431-5.0143-4.6842-1.4564-1.672-1.7289-4.0144-1.906-6.0748 0.99708 0.0642 0.29692 1.9776 0.80114 0.22919-1.6928-2.0505-0.1862-4.3094 0.51343-6.232 1.0236-1.8546 2.0554-3.0345 3.0718-4.8757 0.48191-0.98117 0.47116-1.4733-0.23186-1.8611 0.02549-1.7482 2.8096-1.2073 3.0448-2.8755-0.95011-0.3886 0.62368-1.3816 0.44316-0.19814 1.0477-0.969 2.0057-1.247 2.3762-2.0498 1.3255-0.83973 2.5332 0.98523 2.9231-0.8649 0.25605-1.171-1.2612-3.8646 1.042-3.112 0.77132-0.78557 2.135-3.6211 3.0037-1.3456-2.4307 0.11037 0.925 2.1668 0.82398 0.63236-1.4598-0.38487-0.39008-2.9537 0.07301-1.8113-0.14826 1.3631 1.8977-0.66795 2.0084 0.84882 0.12748-1.3398 1.9035-1.7277 2.6318-2.8816 0.53791-0.36476 1.8605 2.3789 1.8007 0.39651 1.5048-0.1469 4.4465-0.42747 5.0052-0.4484 0.02352-1.1049 1.4931 1.3658 1.2508-0.67717 1.0357-0.67696 2.9133-0.5451 4.4303-0.13374 1.9486 0.6451 4.4818-0.0288 6.1294 0.81544 0.91763 2.5725 3.8749 2.8731 5.7327 4.408 1.6297 1.8934 2.3055 4.0374 3.7743 6.0059 1.6612 1.2225 2.5125 2.9932 3.1486 5.0139 0.77943 2.1733 0.29742 4.5308-0.18772 6.4162 0.88364 1.9325-0.0722 3.9542-1.0364 5.3673 0.43379 2.9272-1.152 5.6331-1.9721 8.3547-0.33941 1.8122-2.3 0.50513-2.6927 2.4469-1.45-0.44819-2.4143 1.0708-2.3432 1.9711-1.3802-0.47991-3.2979 1.4614-5.2174 0.9846-2.3842 0.46579-4.7978-0.17876-7.2004 0.50949-1.6168-0.22528-6.3275 1.8915-5.2751-1.2114 2.694-2.6597 6.0364-4.5903 9.1642-6.7067 2.338-1.6104 4.9576-2.7779 7.2752-4.4018-3.2614 1.2782-6.2269 3.2215-9.4605 4.5714-0.45968-1.2484 1.3753-3.9564 0.60284-4.3335-1.3051 2.1096-1.1397 5.3041-3.6843 6.4675-1.0616 0.50507-3.0851 2.6888-3.4701 2.1477 1.5123-3.3358 3.2699-6.5591 5.2408-9.646 3.8606-1.8997 7.8427-3.5673 11.704-5.4378-3.5413 1.0909-6.9273 2.8706-10.439 3.8836 1.9996-3.3549 5.0464-5.9572 7.3591-9.0803-1.5286 0.72972-3.3586 3.9381-3.9574 0.93568 0.50853 2.5649-1.9657 4.0797-3.3777 5.9012-2.87 3.4206-5.6273 6.9879-7.7227 10.941-1.5296-0.92631 0.57204-3.9783 1.4446-5.35 0.60666-1.1534 2.4208-3.4868 2.2942-4.0497-1.4662 1.6552-2.6498 3.5453-4.1507 5.168 0.23443-2.0559-1e-3 -4.5462 1.8945-5.8912 3.5916-3.5826 7.4656-6.8715 11.112-10.392-1.1693 0.02-3.3656 2.9211-4.724 3.2386-0.0015-1.0529 1.1523-3.5501 0.58021-3.7977-0.94314 2.3729-1.2096 5.2144-3.5818 6.7027-1.3359 1.0348-2.995 3.026-4.1908 3.3823 0.94343-3.4097 1.986-6.8047 2.6928-10.273-1.277 2.1253-1.9238 4.6235-3.0555 6.783-2.7877-2.2399-4.7233-5.3864-7.2693-7.8494 0.69257 1.6818 2.5592 3.3582 3.7615 4.9857 1.2249 1.8515 4.0702 3.5665 2.6506 6.0724-0.4528 1.5816-0.43401 5.7315-2.7252 3.1902-2.4886-1.8216-5.4582-3.5463-6.3191-6.74-0.15669-1.0473-2.0282-4.4249-1.1076-1.4616 0.55825 1.3929 1.8784 4.5922-0.46648 2.4225-0.68644-0.39857-2.7647-2.2765-2.9055-1.8715 3.9502 3.3929 8.0594 6.5979 12.093 9.8919-0.17134 0.93438 0.45341 4.2087-1.0234 2.5511-0.81083-0.9968-2.3976-2.2863-0.95039-0.2879 1.1137 1.3501 2.4353 3.6096 1.2698 5.0599-2.3971-3.8335-4.9215-7.5894-7.4844-11.314-1.1989-0.82909 0.91635 2.216 1.1958 2.8891 1.0198 2.0632 2.7809 4.0927 3.3111 6.2197-2.578-1.4689-5.4307-2.6483-7.5868-4.7287-0.90329-1.7478-3.4206-2.8988-3.4063-5.3794 0.0951-1.1956-0.79402-3.0076-0.63797-0.72388 0.09553 2.5754-1.9804-2.5388-2.9674-2.5939 1.174 2.7665 3.4931 4.9432 4.6025 7.7207-0.79529 0.18964-4.8148-1.8635-2.1552-0.0362 1.9835 1.1968 3.9088 2.2941 5.9223 3.2979 2.4025 1.3445-1.927 0.26956-2.8589 0.37377-0.86455-0.14143-5.7054-0.18757-2.6079 0.27182 2.9171 0.43419 5.9842 0.35622 8.7611 1.4273 2.1025 1.1513 4.4815 2.3196 5.3954 4.7074 0.78835 1.4309 1.6249 3.4779-1.0282 2.631zm-20.766-10.209c0.23828-0.91932-1.0656-3.85-0.75796-1.5631 0.26799 0.4678 0.81356 4.2006 0.75795 1.5631zm0.26126-6.2963c0.26141-1.266-0.52541-3.3764-0.54519-0.90729-0.71004 1.2471-0.1755 0.80302 0.0123 1.3748-0.77973-0.0874-0.22863 1.7216-0.05982 2.3497 0.85872-0.43825 0.43574-2.0179 0.5927-2.8172zm2.3181-4.1737c1.2714-2.788-4.0642 0.7033-1.2405-0.71943 0.81497-0.14792-0.51278 2.3631 0.94205 1.2581l0.13969-0.23417 0.15872-0.30443zm5.905-10.829c0.42962-1.3197-0.3478-1.9515-0.23659-0.2331-0.57822 0.53645-0.2865 1.0476 0.23659 0.2331zm0.37591-3.5347c-0.35012 0.17835 2.4114-1.4905 0.58346 0.13365l-0.16146 0.15593-0.42201-0.28955z" fill="#c8d9c7"/><path d="m78.717 183.88c0.85716-2.188 3.361-3.1201 5.0498-4.5937 3.5629-2.6703 7.5008-4.7587 11.313-7.0278-0.08477-0.92986-2.7761 1.2688-3.7669 1.562-1.7223 0.63202-4.1166 2.7598-5.4992 2.4254-0.21179-1.2346 1.3408-3.6441 0.67796-4.0973-1.4865 2.0895-1.1277 5.4384-3.8355 6.522-0.92779 0.55468-4.1283 3.5161-2.647 0.70647 1.3187-2.8216 2.9273-5.4912 4.5184-8.1642 3.907-1.8886 7.9615-3.4915 11.816-5.464-1.8968 0.099-4.1737 1.7026-6.2344 2.2754-1.2785 0.35742-3.4043 1.6127-4.1907 1.3406 2.1183-3.1327 4.9494-5.691 7.2842-8.6415-0.7793-0.82629-3.8067 4.51-3.8102 0.7035-0.75603 0.57667-0.3513 3.5352-2.1449 4.2933-3.4998 3.6317-6.2884 7.8552-9.0575 12.044-1.4958 0.40951 0.04701-3.0117 0.72775-3.7902 0.70456-1.5228 3.3906-4.4902 2.9501-5.1239-1.4709 1.5999-2.5998 3.4831-4.0808 5.0716 0.01949-2.2223 0.25702-5.0662 2.4461-6.3909 3.6244-3.4449 7.4498-6.6855 11.077-10.117-2.0051 0.50268-3.5492 2.6753-5.3656 3.8198-0.0017-1.3158 1.2811-3.3234 0.7391-4.2091-1.0298 1.5944-1.1903 3.6144-1.9588 5.2982-1.8974 1.659-3.6808 3.4665-5.7181 4.9519 0.58635-1.8036 0.62494-5.6747 2.3729-6.055 1.3272 0.83427-1.4552-1.5322-0.17183-2.3622 0.51181-0.91746 0.43484-2.7933-0.36837-0.91667-0.39354 1.2668-0.75281 1.859-1.6588 0.48257 0.87351 1.1194 0.71416 1.9719-0.50165 2.4516 1.654-0.66685-0.38369 4.8306-1.3552 2.0142-2.1293-2.2259-3.893-4.8126-6.2194-6.8389-0.07695 1.0359 2.5509 3.3208 3.5269 4.7962 1.1383 1.3722 2.2573 2.7602 3.3823 4.1433-0.70597 1.9332-0.81231 4.0288-1.4068 5.975-1.986-0.23148-3.6314-2.2608-5.3389-3.3919-1.9361-1.5428-3.0653-4.0034-3.1519-6.4552-2.1886-1.6616-0.16276 2.7613 0.14951 3.8096-0.0799 1.0477-2.3847-1.588-3.3832-1.9815-2.6066-1.3706 1.1588 1.5064 1.786 2.0638 3.0142 2.5872 6.3015 4.8599 9.2263 7.5427 0.4507 0.63314 0.18701 3.1413-0.19673 3.1233-0.55774-0.69135-2.9523-3.4446-1.7939-1.2572 0.51013 1.1912 2.7997 3.3086 1.293 4.1958-1.7306-1.7-3.0311-3.9967-4.4261-6.0704-0.98935-1.2353-2.6697-4.521-3.5482-4.3456 0.88822 1.2979 1.1509 2.0667-0.30693 2.8004-0.74218 1.8493 0.44226 2.1958 0.95534 0.49062 1.5404-1.0545 2.3213 2.7534 3.3871 3.6898 0.6287 0.98556 2.0048 3.1824-0.04827 1.7071-2.1639-1.267-4.6167-2.252-6.336-4.1281-0.29833-1.2522-2.365-1.9242-1.5518-3.318-2.1715 1.6413-1.1566-3.2134-2.4952-3.9728-0.36163 0.96365 0.17268 3.1057-1.0018 1.0916-0.87072-1.178-0.44818-2.8139-2.3414-2.361 1.4644 2.4982 3.4299 4.7167 4.6189 7.3617-0.32536 0.81772-3.8667-1.5685-2.9283-0.13343 1.0816 0.72428 3.9247 1.5237 3.1821 2.6708 2.0856 0.0581 0.18212 2.234-1.2089 1.2691-1.1322-0.34646-3.1366 0.11732-1.3552 1.2653 0.98457 0.36448 1.1978-0.0896 0.95507-0.71918 1.9418-0.74687 2.7169 1.7578 3.8715 1.9476-0.23687-1.3517 0.47293-1.413 1.6041-1.2047 2.6101-0.15396 4.8544 1.4315 6.7628 3.0262 0.06034 1.9338 3.2182 2.8743 2.4335 4.836-0.36455-0.87504-2.3623 0.41674-3.7477-0.36558-2.4755-0.48311-5.1146-0.81457-7.3519-1.9675 0.90319-0.37072 3.477 1.2563 3.5907 0.58805-1.2972-0.1425-3.0895-3.9364-2.1022-1.0236-1.4716 0.85643-3.1087-3.3661-1.1093-2.8077 0.23414 1.2998 0.13127 2.2578 0.6991 0.52985 0.95279-1.8084-2.6986-1.4093-1.9604-0.0122-1.0294-1.0257-0.63982-0.35371-0.59692 0.22789-1.1105 0.31354 0.80725 0.2704 0.4601 1.1268 1.134 2.7935-1.7993 0.0183-2.2898-0.99416-2.0991 1.6163-4.2225-0.53447-5.3658-2.057-2.6065-0.91569-2.5953-4.0854-2.4507-6.3741 0.30722-2.2432-0.51744-5.1984 1.8446-6.4264 1.1157-1.1684 2.3757-2.8376 1.1172-4.2846 0.37795-0.84314 1.9194-2.4706 0.18983-1.166-0.53702 0.70475-1.2691 3.3934-2.1803 2.0704 0.54167-1.8197 2.1503-3.8265 1.9582-5.6147 1.0738-1.0912 2.2969-0.70758 2.9274-2.3788 0.91958-0.90778 0.9603-0.41285 1.3628-0.13374 2.2817 0.91413-0.37285 2.463-1.3264 1.54-0.25887 0.7205-2.0667 2.2182-0.10672 1.3268 1.5004-1.6299 5.1125-0.83571 5.6403-3.0809 1.806-0.3967-1.0821-0.57075-1.217-0.53058 1.1315-0.55472 1.7339-1.8544 0.89986-1.9046 1.6906 0.051 0.12251-0.89403 1.2381-1.6061 1.4863 0.73429-2.3037-2.2835 0.21958-0.78853 1.023 1.3298 1.0295-2.1766 1.8381 0.0326 1.0028 1.1999-3.3313 2.751-0.72946 1.9578 1.9513-0.51934 0.43524-1.7181 2.0146-2.2692 0.53668-1.2109 1.5127-1.7608 2.7595-2.6882 1.7019 0.59836 0.07219-2.6032 2.1206-2.3736-1.4094 1.0432 0.65823 2.5193 0.30456 0.63597 1.1135 1.6589 2.0377 1.1974 3.3667-0.0952 1.1694-0.76888-1.687 1.9528 0.2482 0.76925 0.74211-0.61104 1.4836-0.12383 1.8726-0.39654-1.6332-1.501 1.2234-0.90938 0.40564 0.58213 0.78493-0.66619 0.16291-2.6111 1.2929-1.0807 0.22294-0.76267 1.8604-1.6527 0.80155-0.24934 1.8433 0.24329 4.024 0.10612 4.5662 1.7094-0.94879 1.0627 1.2085 0.27348 1.1651-0.13307 0.74936-0.78166-1.1054-0.74435 0.36731-1.6976 2.1129-1.4532 4.2729-0.28831 5.3877 1.712 1.0978 0.54355-0.43611 3.6084 0.84497 1.3856 1.0704-0.66314 0.5965 1.6256 1.7213 1.9304 0.70218 0.88067 1.5084 1.2071 2.4756 0.66267-0.14784 1.0508-2.3446 0.99749-0.58646 1.4702 0.47813 0.84661-0.57766 1.8867 1.176 1.8447 1.7717 0.7941 0.72993-0.4789 0.76341-1.4686 0.50674 1.0062 1.0463 2.7139 1.4955 2.9975-2.8462 0.12394 1.9934 1.509 1.8984 3.0193 1.0521 1.2728-0.0403 2.1195 0.80699 3.665-0.0659 1.0049 0.29909 1.8254 0.92851 1.7546-0.46171 0.87499-1.3653 0.76283-0.34176 1.3296-1.5415 1.0316 1.295 3.9619-0.85544 5.2145-1.9336-1.0224 0.86762 4.0428-0.80134 3.4899 0.34 2.3686-1.091 4.4599-1.8469 6.6102-0.6044 1.3756-2.4149-0.69894-2.0285 1.3097-0.3269 1.2895-1.8267-0.1-2.7087 1.5207-1.1492 1.8434-3.1364 1.3747-4.9548 2.0036-1.977-0.62203-3.1371-0.11733-5.1758 0.32047-2.5152 0.4791-5.1309 0.67094-7.6615 0.67997l-0.04545-0.23481 0.06887-0.45126zm-19.157-3.8295c0.9086-0.35742 1.3088-1.2042 0.07024-0.76673-1.4031-0.10511-0.99388-2.2164-2.0272-0.71319-2.3476 0.30356 1.796 1.8147 1.9569 1.4799zm-3.6816-7.5575c0.82429-0.46722-1.5623-0.8888-0.469 0.29902 0.1677-0.096 0.2011-0.45043 0.469-0.29902zm8.7922-4.578c0.53744-1.9152-2.7086-0.15299-0.36197 0.17805l0.21024-0.0223 0.15174-0.15574zm-1.7593-0.72761c-0.81649-0.89178-1.7388-0.9649-0.3716 0.18082l0.34956 0.21018zm10.936-1.055c-0.75835-0.54409-1.2511-0.0225-0.67293 0.82373 0.25705-0.24091 0.54004-0.48684 0.67293-0.82373zm-1.3229-2.5168c1.4828-1.1486-1.7803-2.4886-0.68336-1.4102 1.1666 0.51121 0.02882 0.66308-0.02388 0.68336 0.77475 0.6047-0.6827 2.6437 0.52131 1.0796l0.18592-0.35275zm-2.3812-0.66146c-0.84879-1.5424-0.81823 1.5144 0 0zm7.6729-2.5135c0.55603-0.14314-2.8504-1.7677-1.3072-0.31418 0.33626 0.40176 0.83482 0.82159 1.3072 0.31418zm-19.579-3.2256c-0.60389-0.81056-0.97615 2.274-0.10924 0.30054zm20.604 0.13332c-0.51666-0.53068 1.2594-0.0639-0.16312-0.72796-0.92142 0.31461 0.77859 1.8571 0.16312 0.72796zm-1.0246-0.74421c1.8188-1.3004-1.3897-0.30682-0.07084 0.27992l0.07084-0.28029zm-8.2474-4.8555c1.4053-2.0384-2.3203 1.2025-0.23634 0.19021zm-0.8508-1.5527c-1.4362 0.0397-0.81818 1.604 0 3e-5zm9.3628-0.36732c-0.10676-0.8472 2.4528-0.17248 0.62275-0.8159-0.97775 0.11689-2.9111 1.17-0.74834 1.2966l0.10583-0.1519 0.01977-0.32881zm13.714 0.17813c1.4758-0.31838-1.8526-0.24868-0.83901 0.18198 0.13777-0.30221 0.61642-0.21229 0.83901-0.18198zm-12.329-2.2438c0.7907-1.2122 0.02075-1.5743-0.85633-1.3982 0.86588 0.106 0.10533 2.7229 0.85633 1.3982zm2.9354-3.6154c-1.3208-1.0684-1.1721 2.0145 0 0zm-17.448 31.436c-0.94165-0.82722-0.40536-2.0961 0.16683-0.36043-0.07383-0.4185 2.7688 0.7326 0.91472 0.55884-0.36728-9e-3 -0.7422-0.042-1.0815-0.19841zm-13.216-2.5095c-0.64119-0.96165 0.33509-3.9486 0.64906-3.7636-0.48948 1.3155-0.14004 3.8908-0.49246 4.3709l-0.07655-0.27342-0.08006-0.33389zm-0.36118-4.9566c-0.45152-1.5433 0.85477-4.1843 1.563-4.876 0.84816 1.6113-0.67083 3.3259-1.4053 4.3927 0.55688 0.75152 0.15266 2.0029-0.15772 0.48322zm11.623-14.263c0.61034-0.83508 1.9538-0.093 0.47383 0.15774-0.14317 0.11853-0.491 0.10349-0.47383-0.15774zm36.023-4.1728c-0.7604-1.5632 1.2962 0.70466 0 0zm-33.446-1.7954c-1.0116-1.1562 1.4412-0.59305 0.34944 0.21703l-0.34944-0.21703zm31.467 0.20729c-0.71846-0.81236 0.55918-1.6032 0.57877-0.3698-1.1708-1.8288 0.21653 1.178-0.57877 0.3698zm-12.876-4.9767c0.67902 0.11409 2.4715-1.5649 1.6999 0.062-0.46816-0.30586-1.504 0.58179-1.6999-0.062zm2.454-0.13859c0.33895-1.6775 0.5979 1.6551 0 0z" fill="#afc8ac"/><path d="m78.853 183.66c1.2467-2.3427 4.0158-3.4162 6.0099-5.0649 3.2173-2.3032 6.7074-4.1772 10.061-6.2589 0.84366-1.2645-2.1767 0.76716-2.8923 1.0214-2.0704 1.0356-4.0514 2.2544-6.1517 3.2236-0.41966-1.1954 1.4288-4.0663 0.58642-4.3917-1.4753 1.9795-1.1663 5.1398-3.6192 6.3201-0.9114 0.39039-3.1475 2.8084-3.2965 1.9363 1.4949-2.9876 2.8706-6.0993 4.8909-8.7729 2.6775-2.0015 5.9746-2.9662 8.9582-4.4299 0.93274-0.31518 4.7779-2.152 1.9803-1.356-3.2355 1.2154-6.3939 2.6294-9.6475 3.7994 2.211-3.3275 5.3088-5.967 7.6246-9.1882-1.352 0.41677-2.4043 1.7215-3.5758 2.5862-0.0062-1.198-0.9533-2.768-0.85209-0.44902 0.04835 2.597-2.9895 3.7324-4.1415 5.8099-2.5916 3.1118-4.8423 6.4868-6.9052 9.9669-0.52182-1.5844 0.19871-3.126 1.0804-4.4378 0.76276-1.684 2.9978-3.8692 3.0129-5.2022-1.587 1.5503-2.6734 3.5287-4.1863 5.1438 0.15298-2.25 0.2334-4.912 2.3823-6.2439 3.623-3.468 7.4775-6.6874 11.088-10.167-1.6558 0.0661-3.4099 2.5087-5.0732 3.4827-0.5939-0.38422 1.8657-4.7494 0.20619-3.6078-1.009 1.7324-0.8703 4.6058-2.7642 5.5551-1.2615 1.2021-3.2856 3.6688-4.6246 4.13 0.46311-1.617 0.93565-5.6649 3.0326-4.9628-0.44364 0.92651-0.66309 1.0239 0.47121 0.83781 0.73528 0.92782-0.23669-2.1242-1.3334-2.4386-0.61772-0.76167 0.47297-2.0202 0.45946-2.9631 0.12889-2.6819-1.6267 3.8349-2.1814 0.50934-0.14427-1.3566 0.75618-5.0835 0.10219-5.1548-0.11432 0.51428-0.44992-1.5283-0.49742 0.38095-0.1643-0.49814-2.9478 2.398-2.224-0.26285 1.1654-0.46118-0.54774-0.72467-0.86816-0.47453 2.1144-2.1316-2.0368-0.58351-2.0238 1.0133 0.76488-0.47162 1.7701-2.0065 0.77291-0.0552 0.02351 1.1046 1.4037 2.1325 1.7596 0.62966 0.32858 1.0617-0.28288 1.9002-1.4912 1.734 0.80042-0.98745-0.17848-0.20693-0.06523-1.2374-1.0012-0.64667-1.065-0.97343-1.0629 0.26459-0.909 1.3357 0.06332 0.91898 0.23762 1.2568 0.97436 0.99569 0.70342 3.0016-1.0161 1.6498-0.4697-0.6939 1.8747 0.0378 0.53983-1.2119-0.82945-0.94672-2.3741-3.3455-2.0669-1.4342 0.7352 0.25328 1.0002 2.4482-0.21603 0.83364-1.7254-0.53262 1.716 1.9459-0.0672 2.5988-0.08542 1.3012-1.3293 3.1308-0.52392 3.4883-2.1277 0.53477-1.9907-1.3533-1.2719-1.3346-1.2408-0.67488-3.3507-0.38681-2.4008 1.1703 0.15438 0.71389 1.8408 3.4157 0.97578 3.2542-1.3397-0.77421-2.8915-2.4666-4.1567-2.6285 1.9229 2.266 4.6901 3.6252 6.6255 5.8863 1.9434 1.263 3.8615 2.66 5.4188 4.3876 0.05491 0.50435 0.45709 3.9322-0.43583 2.596-0.6485-0.92376-2.916-3.0518-1.4642-0.68222 0.77456 0.89988 2.8644 4.2479 0.13846 2.7254-1.8223-2.4149-3.5317-4.9606-4.8974-7.6617-0.70633-0.63307-3.0102-3.2244-1.7489-0.75395 0.90396 1.2-1.721 1.9505-0.98859 3.6938-0.41632 1.9146-0.9695 0.32884-1.6083-0.32084 0.3651-0.93344-1.8026-0.59893 0.054-1.19-0.03531-0.87972 1.0354-2.6338-0.35173-1.3927-1.8542-0.018-0.41155-1.7386 0.09538-1.8172 0.49789-0.86773 1.2732-2.1834-0.07049-0.6851 0.10547-1.3607-1.5694 0.29694-1.6542-1.3004-1.0981 1.7191-0.23968-1.8692-2.2455-0.55157-0.34305 1.0383 0.06239 2.6706-1.0224 0.8094-0.4919-0.63823-1.1222-1.8106 0.08524-0.85796-0.61182-1.538 0.3006-2.4052 1.595-1.4703-0.81342-0.57754-1.8442-2.2616-2.8495-1.2958 1.8237 1.2993-0.52845 1.3817-1.1192 1.8651 0.53771 0.85147 0.26448 3.6099 1.2336 2.6184-0.08273-2.0251 1.6543 1.9174 2.2433 2.4749 1.1775 0.88567 1.8991 3.3574-0.21283 1.7008-0.49612-1.5056-3.0365-0.37269-1.0588 0.41117 1.8104 0.39708 2.4425 1.8871 2.477 3.5651-1.3475-0.17574-2.8079 0.20332-3.9858-0.12085 0.22628-1.5775-1.6385 0.713-2.2253-0.91766-0.62631 2.0809 2.901 0.89259 2.4549 1.8302-0.73636 0.39916 1.2122-0.2116 1.0836 0.71083 1.8546-0.18394 2.2847 0.43726 0.94183 1.1499 0.91005-0.10041 2.5667-0.0119 1.8766 1.4908-1.5765 0.29071 2.3467 0.95628 0.21088 1.6429 1.3049-0.63683 1.101 2.1893-0.13959 0.41909-0.56576-2.0846-2.7539-2.4437-4.2509-3.4387-1.7042 1.291-4.7149-1.5161-4.7574-3.6198-0.13645-2.7674-0.29786-5.6216 0.33492-8.3346 1.88-1.1293 3.9814-3.6218 2.5907-5.6372 1.4619-1.8876 2.4116-4.5973 5.0123-5.1677 1.5489-0.31754 5.5844-1.4273 3.799-3.1549-0.81666-1.0125 2.0363-1.713 2.4817-1.8562-0.45048 1.0385 0.3542 2.4493 0.53416 0.7271 0.83382-0.94315-0.52199-2.5311 1.5017-3.2464-0.0072-2.0622 2.6933-1.1293 3.3302-2.5389 0.97302-0.40571 2.2263-1.2713 2.2723-0.0204 0.99132-0.41221 2.2071-1.1853 0.77276 0.12792 1.7134-0.40942 3.2162-1.8661 3.5452 0.50851 1.3436-1.5237 0.20201 1.7604-0.82372-0.0262-0.60058-1.2167-1.6804 1.684-1.6193-0.45006-1.103 0.48579 0.62579 1.9896-0.36142 2.1696 0.0786 1.8006 1.0069 1.6227 2.1066 0.55369 0.15174 1.8825 1.7528-1.3306 1.3743 0.85575-0.55617 1.3994 0.89773-0.6006 0.49184-1.1855 0.60485 0.62188 1.243 0.83768 0.71301-0.0166 1.1325-0.0835 1.9136-1.1064 0.51113-1.2454-0.0877-1.1909 1.9764-3.5994 2.0851-1.1008-0.49863-0.50089-2.1936 0.36546-0.46408 0.30016 1.0672 1.1873 1.4007-1.2122 2.1452 0.35831 1.4554-1.3254 1.9487 1.5253 2.2669-0.94141 0.47784-1.9647 3.7464-3.4539 3.2575-0.96927 1.0241 0.64049 0.27099-2.6719 1.1055-0.3579 2.2895 1.0251 0.94009 3.449 1.5561 4.8816 0.71944-0.66569 0.64935-3.7648 1.2771-1.4185-0.37128 1.3645 0.33986 2.7255-0.04962 3.9525-0.01475-0.84643 1.9186-2.2006 1.55-1.1874-1.365 0.4317-0.22422 1.7265 0.28067 0.44761 0.5854 1.4142 2.8641 1.747 3.748 2.8228-1.3811 1.2837 1.2994 2.654 1.7475 3.9871-0.5095-0.13262-1.5493-1.3782-0.55608 0.22374 0.91253 2.0241 2.682 3.9527 2.1161 6.0834 0.15611 1.693 1.5298 3.6142-0.66884 4.6572-1.4017 2.1459 0.14207 4.8757-0.82882 7.235-0.73019 1.6776-1.1876 4.1998-3.645 3.2947-1.1445 0.41399-1.1466 2.6198-2.7759 2.2657 2.3038-1.0349-2.2526-2.1766-1.4751-0.40999-1.3311 1.2384 2.6226 0.41463 1.0469 1.6868-1.4608-1.384-3.3332 1.2575-4.9882 0.96224-0.95572-1.1705-1.519 0.67122-2.3944-0.24301-1.3589 1.4725-3.639-0.0618-4.0176 1.0857-1.8059 0.49376-3.6908 0.40227-5.544 0.41088 0.05857-0.28627 0.11707-0.57256 0.17567-0.85882zm-22.346-11.932c-1.2693 0.34327 0.46408-2.0662-0.71645-2.5547 2.1383 1.7721-0.88148-3.6598-0.55535-0.40181 0.71163 1.3874 0.45254 2.4256-0.24503 3.403 0.15193 1.9312 0.60055 1.4702 1.1954-0.0211l0.32139-0.42536zm44.132 1.2156c1.021-1.1155 0.0996-2.2792-0.50337-0.66559-0.31931 0.56159-0.31478 1.7353 0.50337 0.66559zm-1.6166-0.29874c1.2169-1.0604-0.57554-2.7575-0.41328-0.89208-1.473 0.13469-1.5149 2.2337 0.41328 0.89208zm1.8102-4.7283c-0.38861-3.2759-3.1448 0.32931 0 0zm-44.792-1.3879c0.616-2.7193-1.6589 1.8425-0.12887 0.30366l0.12888-0.30366zm10.136-4.9871c-1.8089-0.88275-0.75894 1.1774 0 0zm-5.5783-1.2689c-1.0251-0.50178-2.1804 0.75021-0.37811 0.17654l0.37811-0.17657zm8.428-4.2625c-0.09985-0.81655 0.68506-2.3967 0.08706-2.6267-0.80828 1.0169-0.5273 2.3842-0.62172 3.3525 0.27202-0.16161 0.39547-0.46105 0.53466-0.72578zm-0.3314-3.2332c1.1681-0.53096 2.4473-2.1539 2.3304-3.0694 0.83649-0.27023 1.3428 1.4557 1.3507-0.19948 0.51406-0.64339 1.5607 0.74792 1.1023-0.90865-0.94312-0.669-2.2215 0.78579-1.7342-0.57136 0.13342-0.76336 0.2221-2.4126-0.91256-0.79305-0.89121 0.0645-0.90581 2.6767 0.26065 0.86737 0.62456 1.0799-0.06289 1.3162-1.14 1.6903 0.58702 0.315 0.24997 1.6749 0.0717 0.69618-1.2166 0.3889-2.5484 1.808-1.2359 2.4972l-0.09315-0.20908zm8.49-2.2788c0.0907-0.91327 0.91177 1.4604 1.0379-0.41-0.14287-0.88968 2.0769-0.1969 0.70061-1.1269-1.0928 0.74378-2.4565-0.38145-2.8689-0.60993 0.06052 0.84179-1.2433 2.8976 0.37844 1.2438 0.70434 0.0527-0.7112 1.3819 0.59147 1.0658 0.02968 0.4909 0.41775 0.12506 0.16042-0.16279zm14.917-0.24011c0.5379-1.8348-3.6319 0.85227-0.79997 0.20836l0.3427-0.0631zm-22.343-0.94601c0.1213-1.3546-1.779 1.2073 1.3e-5 0zm4.9879-0.93008c0.18559-1.7088-1.5054 1.2514 0 1e-5zm12.331-0.9044c1.2533-1.6456-2.0425 1.5424 0 0zm-14.064-0.64771c-0.55493-1.4139-0.84959 1.736 0 0zm11.93-0.36944c-1.6126-0.1485-1.0347 1.4034 0 0zm-11.297 37.326c-1.4203-0.91508-3.471 0.30615-4.7369-0.7437-0.81263-0.1869 1.3053 1.1746-0.37301 0.4678-0.92076-0.027-0.36674-2.1873-1.6694-2.6145 0.52487-0.62442-0.04458-2.8377-0.52568-1.4698 0.17771 0.0908-0.80448-0.0533-0.95126 0.39688 0.30539-1.2721 2.492-2.3467 1.2638-3.2358 2.3425 0.36788 4.6801 1.5449 6.2804 3.3004-0.51829 1.3816 1.9294 1.9624 1.093 2.6722 1.593-0.73675 1.8375 1.8164 0.11002 1.2396l-0.49097-0.0134zm-8.5308-6.0189c-0.76845-1.8237 0.40178-0.6392 0.80867 0.16135-0.28053 0.48252-0.72588 0.4211-0.80867-0.16135zm-3.1933-0.19343c-0.43764-1.1659-1.1339-1.9678 0.6435-1.2713 1.1588 0.28699 0.25978 1.7816-0.6435 1.2713zm7.6601-1.6051c-1.6004-0.59966-4.1636-2.4258-1.5668-3.6317 1.6608-1.7882 2.563 2.6311 3.7204 3.7393 0.91073 1.2037 0.76702 1.7496-0.57187 0.76092-0.52964-0.2851-1.0565-0.57528-1.5817-0.86854zm4.0976-6.6588c-1.9267-1.4721-4.2166-2.8366-4.8659-5.3489-1.5358-1.3263 1.9854-2.1917 0.14421-0.72565-0.45278 0.62126 2.8813 0.0443 1.4719 1.123 1.7445-0.27326-0.15963 2.3924 1.7467 1.2822 1.6269-0.81872 2.4246-3.9304 1.524-4.3869 1.0254 0.0556-1.3288-1.2861 0.43614-0.65209 0.53633 0.22465 2.0879 2.2788 0.7793 1.5816-0.11686 0.79276 0.35437 2.5807-0.81257 1.4974 0.64054 1.7742 1.1545-1.2328 2.3832 0.0323 2.7433 1.2245 0.15778 4.3087 0.3081 6.4513 0.01032 2.327-2.2636-0.53756-3.1151-0.85434zm-1.4257-1.9788c1.443 0.77723 2.7453-2.3241 1.0653-2.0652-0.1264 0.48078-3.1589 2.8673-1.0653 2.0652zm-9.8486 2.171c-1.8837-0.48742 0.68272-3.6077 0.32446-1.1112-0.4084 0.48158 0.87875 1.4437-0.32446 1.1112zm15.201-6.3983c-1.219-1.6473 1.1089-0.10284 1.4188-1.5139-0.16472 0.69059-0.46041 3.1538-1.4188 1.5139zm-22.808-1.7357c0.40328-0.86198 0.18855-2.9991 1.6536-2.9678-0.95196-0.67594 1.5915-2.8178 0.71476-0.72843 0.5633 1.6501-2.4753 1.5894-1.6901 3.4292 0.02554 0.41458-0.59803 1.095-0.67834 0.26702zm19.824-1.5057c-1.4193-1.8451 2.357-1.8003 1.4106-1.1293-1.3598-0.27591-0.62369 1.0078-1.4106 1.1293zm3.4598-1.0999c1.6661-2.1058 0.96236 0.99237 0 0zm24.606-1.3631c0.87809-1.3968 0.52464 1.2762 0 0zm-0.73776-1.9062c-2.355-2.7786 2.7747 2.1728 0.35772 0.3665l-0.35772-0.36649zm-43.408-0.86866c1.2738-1.9111 0.27312 1.2216-0.34748 0.58692l0.11821-0.24722zm1.2835-0.15444c1.2826-2.2191 1.2222 0.50481 0 0zm5.7236-4.2432c0.18444-1.0647 1.7617-1.604 0.50466-0.31355 0.13952 0.2516-0.9473 1.1467-0.50466 0.31355zm1.2223-0.54956c0.27473-1.7867 1.2891 0.30947-0.31961 0.40936l0.31961-0.4094zm18.457-4.4459c-0.66884-0.0317-2.6681-2.6245-0.89913-1.2361 0.57381 0.54459 1.9774 1.7874 0.98574 0.11419 0.25689-0.78746 1.9942 1.7808 0.1766 1.3915l-0.26321-0.26952zm-5.0207-0.59822c0.07362-0.79829 1.4813-1.9762 1.6944-0.88893-0.78059-0.43526-1.1692 1.1126-1.6944 0.88893z" fill="#92b48e"/><path d="m79.913 184.14c0.65199-0.63605-2.1162 0.11648-0.70766-1.2665 3.683-3.2394 7.9405-5.7683 12.1-8.3473 1.1421-0.92143 3.5361-1.4411 3.8265-2.7162-3.158 1.5141-6.2361 3.1898-9.3501 4.7923 0.11423-1.5656 0.81305-3.0071 1.0603-4.5324-1.3289 0.12077-1.498 3.6253-2.4589 4.9513-1.2278 1.3649-3.0739 2.8703-4.6724 3.3568 1.1873-3.0558 2.8145-5.9738 4.7006-8.656 2.0118-1.7027 4.7041-2.3744 7.021-3.5936 1.3316-0.95876 4.7761-1.4246 4.9001-2.6683-3.4538 1.15-6.6913 2.9069-10.187 3.9287 0.8824-1.869 3.1297-3.923 4.6301-5.7573 0.4365-0.78562 3.289-2.9901 2.1796-3.0781-1.4243 0.64785-3.2607 3.6362-3.6847 0.74607-2.9957-0.60376 3.243-3.7521 1.4414-3.8508-1.3097 0.2663-3.5219 3.6806-4.1993 1.9557 0.39868-1.1916 1.3031-2.424-0.22315-3.0534 0.44507 1.1282-2.3332 0.71333-1.2848 1.9145 1.8743-1.1048-7e-3 2.204-0.36596 2.7227 0.92557 1.0534-1.3206 2.9344-1.4648 0.9416-0.46074-0.40236 1.0584-1.0842-0.36759-1.8697-0.64816 0.0186-0.66013 0.99817-1.293-0.4142-0.60991-0.39339 0.28402 2.0858-0.45664 0.33414 0.33984-1.0962 1.2196-4.9093-0.31291-2.038-1.7489 2.6375-1.1925-2.5645-0.92342-3.7267 0.53232-1.442-0.4232-4.0934-0.87972-4.3349 0.7164-1.2405 2.2977 1.7396 2.5538-0.51567 0.88396-0.84219 1.9089-2.2742 2.3296-2.8288-0.34723 0.90908 0.92066 0.56085 0.82158 1.0664 0.4728-0.95667 1.972-0.31439 1.1371-0.0959-0.96683-0.52664 0.35264 1.1536-0.39215 1.2809 1.66-0.79166 2.8728-1.5814 2.6214-3.5173 0.3423-1.6599 1.8083-0.76289 0.50192 0.13141 1.3325 0.18296 1.8597-4.4154 1.9525-1.5234-0.67549 0.2055 0.46834 1.6464 1.2756 0.77627-1.0249 2.2323 1.5273-1.6908 1.8128 0.85396 0.17813 0.88074-0.09483 2.6626-0.81627 1.0302-1.8396-0.10723 0.74731-1.3724-0.9731-0.7257-0.01765 1.8052 2.1261 1.7854 1.5171 3.4604 1.4009-1.4072 2.4077 0.29628 1.5025 1.6022 1.2131 0.87364 3.4845 0.14487 3.1406 2.0165 1.1523 0.29114 3.0787 3.869 1.4375 3.6172 0.35211-2.4513-2.9254 3.3017-0.86071 1.2619 1.419-1.9635-0.45305 1.4455 1.1601 0.36066-0.30146-0.75755 1.1596 0.88452 0.52648-0.50429 0.61755-0.98694-0.391-2.9803 0.84158-1.0644 1.4154 1.5703 1.6495 3.0552 0.44578 4.6126 2.4867-1.9687 2.294 1.9738 2.4094 3.6296 0.15545 1.3211-1.0332 4.8417-1.6321 4.4918-0.3783-1.0145-0.51672 2.2102-1.7623 2.0288-1.5004 1.3129-0.50955 3.334 1.5141 2.3534 1.165-1.9848 0.43639 2.1114-0.29092 2.5896-0.37402 2.5386-3.7918 1.9486-4.835 3.7155-1.9228-2.096-2.7383-0.0289-3.4473 1.6476-1.0423 1.1867-2.1952 0.89086-3.1965 1.3936-0.79212-0.58914-1.5058 0.40484-2.1898 0.12839-0.61043-0.24774-1.5638 0.74966-2.4016 0.58134 1.1126-0.8275-1.5824-2.2917-1.4501-0.48922-1.2576 0.11493 0.2141 1.4876-1.6611 1.0332-0.36476-0.18232-3.4044 0.76808-2.62-0.13897zm19.278-11.272c0.90335-1.0148 0.29474-4.2532-0.80041-1.9665-1.4775 0.7708-2.4457 2.1014-0.42405 2.8325 0.47677-0.16457 0.72432-0.72081 1.2245-0.86598zm1.7211-5.028c0.33185-2.5987-3.1339-0.79754-0.78312 0.30904 0.32901 0.22672 0.7944 0.22098 0.78312-0.30904zm-5.9051-5.6965c-0.53575-0.68855 1.9306 0.54098 1.0062-1.0498-1.3153 0.19568 0.35501-1.1229-0.63646-1.0101 0.07901 1.5217-0.66097 1.2592-1.0408 0.41285-0.5876 0.62418 1.3104 3.9626 0.67104 1.6471zm2.7527-0.46493c0.41222-1.4296-2.2882 1.379-0.65266 0.41894 0.16771-0.0126 0.37751-0.54335 0.65266-0.41894zm1.9038-1.9263c-0.87094-1.3393 1.5276 0.25547 1.4946 0.66523 1.1226-0.61387 0.61303-1.129 0.28393-1.4863 1.1243-1.2326-0.935 0.48139-1.5919-0.0227-1.2795-0.0278-1.9714 0.4515-0.46877 0.9966 0.42238 0.60629 0.95012 0.46208 0.28206-0.15282zm-9.7841-4.5518c-0.62262 0.4509-1.0922-1.997-1.8877-0.65736 0.91523-0.0377 1.04 1.9884 1.8877 0.65736zm2.6215-1.3824c-0.19561-0.64066-1.719-1.4586-1.05-0.26459 0.52554-0.0361 0.437 1.0743 1.05 0.26459zm-5.9336-0.90249c-0.19836-0.43489 0.50525-1.6218-0.41455-1.2112-0.74662 0.59088 0.35495 2.5698 0.41455 1.2112zm-2.2099-1.7536c-0.62247-1.189 1.9566-0.9185 0.47322-2.074 0.60356 1.0069-3.0355 1.1483-1.5257 1.7248 1.2238-1.2975 0.76129 3.2394 1.0525 0.34922zm7.8717 0.81558c2.974-0.2005-1.2403-4.3602-2.0434-1.5097 0.20396 0.11387 1.444 0.6162 0.35331 0.58075 0.3397 0.37036 1.154 1.6406 1.6901 0.92895zm-4.8429-1.4006c1.9678-1.4415-1.5439-1.9524-0.77235-1.2375 1.8863-0.45804-1.5954 2.3182 0.77235 1.2376zm-4.5899-1.0214c-1.2812-0.46491-0.67274 2.2251 0.13168 0.26411l-0.0086-0.145-0.12309-0.11912zm7.6706-0.21884c-0.20618-0.92184-1.2586 1.1004-0.18376 0.27924zm-1.1818-0.42423c-0.11525-0.4485 1.3153-0.82466 0.20752-0.77214 0.91304-1.3146-1.8316-2.1435-0.706-0.19146-0.04913 0.32702 0.35907 2.2568 0.49848 0.9636zm-5.0344-0.90368c-1.2639-1.1026 0.06223 1.4561 0.267 0.37422zm6.331-1.2045c-0.13594-1.8428-1.1016 2.1887 0 0zm-15.821 36.67c-2.1907-0.52374-4.6408 0.10038-6.7998-0.98792-0.83622-1.0746 0.86695-2.0223 0.30402-0.68796 1.083-1.0016 2.1539-0.15957 3.0521 1.003 0.9584 0.38464 2.272-0.38776 3.3553-0.17673 0.36055 0.26529 1.4687 1.5455 0.08834 0.8496zm-12.399-2.1597c-0.78975-0.54052-0.86288-2.4686-0.0053-0.7131 0.0488 1.0014 1.4378 0.29796 0.96378 1.5272-0.40025-0.1645-0.67808-0.50347-0.95844-0.81409zm10.699 0.42607c-1.0653-2.098 1.9967 1.1544 0.35386 0.265l-0.3539-0.265zm-1.5949-0.66205c-1.2866-0.52365-2.0156-1.0356-2.9616-0.67875 0.12582-1.3117-1.4467 0.64978-0.82429-1.3794 1.7042-2.1195-1.9574 1.073-1.0398-1.126 1.6089-2.2276 4.99 0.30941 5.7609 2.0537 0.0427 0.32565-0.65965 1.9018-0.93521 1.1305zm0.52917-1.051c-0.17895-1.8358-0.89837 0.87188-0.06801 0.3627zm-12.444-0.9889c-0.7912-2.0188-3.6065 0.55643-3.8222-1.8484-2.4358 0.0949-2.5775-3.3063-2.6923-5.1052-0.14789-1.1074 0.24267-1.303 0.89425-0.88488-0.52714-1.8957-1.1659-4.8237 0.99354-5.8401-0.06945 1.6374 0.90663 4.9369 0.33997 5.5821-1.4081 0.44488 0.3516 3.4811 1.0168 4.5825 1.7004 0.61941 2.5336 1.3271 4.2919 1.5398-1.3837 1.7742 2.287 0.27616 1.633 2.021-0.71601-0.59275-1.8442-0.58707-2.6549-0.0468zm18.265-1.98c0.31822-2.7555 2.5031-4.809 3.8159-7.1448 1.801-2.6073-1.3057 0.21737-1.732 1.1814-0.70944 0.89359-2.6008 4.1692-1.9274 1.0884-0.08893-2.5707 1.7817-4.2489 3.5767-5.758 1.9091-1.8046 3.9103-3.5214 5.8534-5.2762 2.125-0.18399 1.8038 3.3584 0.07027 4.3093-3.7551 3.7761-6.7122 8.2329-9.5603 12.701-0.11486-0.35618-0.08027-0.73432-0.09654-1.1013zm-3.9436-0.18278c-1.5082-1.8888-2.9958-3.9222-3.7951-6.2177-1.3292-2.5248 3.2994-0.8771 4.0261 0.38801 2.1056 0.70988 2.2107 3.4314 1.7685 4.7462-0.71509-0.66703-1.7602-2.3993-2.4073-2.1234 0.15974 1.2683 3.1333 3.5745 1.6718 4.1707-0.49653-0.20443-0.89727-0.58303-1.2641-0.96392zm-4.1262-0.87322c-1.1271-0.84375-3.7601-1.4859-1.883-2.3243-1.5585-0.35956 1.1207-0.77636 1.0683-1.7954 1.2066 0.99057 2.8812 4.1507 3.0712 5.2694-0.77416-0.33754-1.5149-0.74694-2.2564-1.1496zm-11.355-1.4184c-0.9885-0.80172-2.8785-1.6982-1.6694-2.7911-1.7955-1.2262 1.9242 0.16923 0.95644-1.7407-0.51754-0.58941 0.65415-0.74496-0.2062-1.4097 1.6546 0.86791 0.87249-3.6402 2.2292-0.90812-0.82003 1.509 3.2658 2.4863 1.5732 3.4259-1.8068 0.65396-0.34222-3.3419-2.31-1.449-0.79769 1.4035-0.81767 2.6496 1.0328 2.7054 0.84024 1.0686 0.49242 0.68256 0.63673-0.15287 0.68895 0.45013 1.1684 2.838 0.86768 2.887-1.0249-0.67699-2.4895 0.42375-3.1105-0.5668zm0.37504-1.0545c-0.84879-1.5424-0.81823 1.5144 0 0zm-2.5724 0.8599c-0.95042-1.7243-0.50034-1.3287 0.44096-0.17017 1.0508 0.60259 0.15285 0.70704-0.44096 0.17017zm9.811-1.0737c-0.38403-0.80346-0.46116-1.0643 0.34092-1.7594 0.3157 0.29108-0.41821 3.2449-0.34092 1.7594zm-1.1532-0.82528c0.73268-1.4185 0.22577-2.2702 1.2028-2.8806 1.0861-1.8537 2.5389 0.24391 0.78039 0.88086-0.77851 0.4364-1.1548 1.771-1.9832 1.9997zm9.4754-2.7151c-1.3344-0.80937-2.5992-1.968-0.64261-2.6381 0.20878-1.1081 2.4425 0.24741 1.6183-0.45304-0.93618-0.10859 0.95646-1.2086 0.75059 0.42089 0.37019 0.40389 0.84734-2.1751 0.96467-0.32525 0.39278 1.4642 0.0056 5.7904-2.2136 3.3337l-0.23155-0.16223-0.24581-0.17598zm-6.1728-1.1477c-0.54981-1.2734-2.3564-1.3191-1.5798-0.13447-0.68533-0.3902-1.1145 1.3288-1.8137 0.12108 0.37672-0.59967 2.0259-4.451 0.73496-2.7806 0.12399 0.98062-1.6543 0.51326-1.9031 1.0858 0.06339-1.459-0.90584-0.85483-1.1625-2.2721-1.2937-0.46477-0.39951-1.626-0.04027-0.35338 0.46913-1.108-0.30273-1.7647-1.4736-2.1734-0.82294 1.1116-2.0058-0.77378-0.54495-0.51358 0.62891-0.60309 1.6839 0.14306 0.80192-0.9031 1.5811 0.60642 0.75036-0.80794 0.04204-0.73448 0.24469-0.91483-1.3285 0.34958-0.72708-1.1444-0.24778-0.11498-1.2239 0.0452-1.1377 0.15198-0.31575 0.72909-0.98744 1.2821-1.1859 2.1399 0.8216-0.76906 0.08154 0.52921 0.86616 0.47471 0.03245 1.4935-2.1664-0.79023-1.1186 0.67587-0.26344 1.1885-1.6 3.1862-2.5201 2.5864 1.0886-0.66504 1.6761-0.96065 1.5287-2.305 0.85103-0.85053-1.776-1.8795-0.17492-2.6242 1.3095-2.08 2.6324-4.4009 5.325-4.8003 1.2675-0.26542 2.709-0.53905 3.23-1.5169 1.0672 0.80309-0.60989-3.1239 0.96505-2.0501 0.93836 1.5169 2.8602-0.94007 1.9158 1.2581 1.5853 0.92663-0.25875 2.8724-0.11307 4.37-1.0919-0.28034-0.96981 2.5178 0.38578 1.282-0.72352-2.3831 1.0396 1.7602-0.86638 1.6502-0.47268-2.4463-1.0727 3.2513-1.0798 0.35098 0.40609-1.3338-1.4741 1.3514-1.3549-0.88828-0.55564-0.96154-2.564 0.25248-0.83977 0.27636-0.77536 1.3559 0.0039 0.6663 0.64817 0.27494-0.63718 0.79849 0.35348 1.1318-0.26975 2.025 1.3814-1.2605 3.9705 0.85902 1.9474 1.7611-0.87679-0.78819-3.4338-2.1146-3.3367-1.0624 1.929 0.42702 3.3581 2.7493 5.2495 3.7213 1.723 0.54619 1.3926 2.5243 0.03117 2.6892-0.14299-0.21246-0.28676-0.42724-0.4293-0.63834zm-5.1546-6.4223c-1.1681-2.8878-0.94572 1.1522 0 0zm-0.188-2.4132c1.0646-1.5791-2.1987-1.0187-0.73282 0.33461 0.27925-2e-3 0.51615-0.18325 0.73282-0.33461zm0.98174-0.94697c-1.0146-0.73057 1.0387-1.4952 0.87681-0.0125 1.7249-1.2705-2.2374-2.2379-1.993-1.0483 1.9747-0.4279 0.2931 0.17684-0.05005 0.70936 0.21987 0.14118 1.0751 1.0102 1.1663 0.35145zm-1.7713-1.2295c1.3142-2.4288-2.2489 2.5474-0.0516 0.38006l0.06502-0.20689zm16.995 9.167c-0.21615-1.9601 1.7588-4.0769 2.5455-1.8203-0.41794 0.2631-2.6737 2.9418-2.5455 1.8203zm-21.996-0.42633c-0.85638-0.25101 0.14242-1.3735 0.95135-1.2092-0.31806 0.21177-0.83758 2.5982-0.95135 1.2092zm12.762-0.23513c0.48593-1.302-2.0907-2.1276 0.09069-2.601 0.6459 0.28568 1.0649 0.78494 0.08259 0.44267 0.40098 0.48984 2.0833 1.2082 0.60485 1.5943-0.37004-1.7228-0.04581 2.104-0.77816 0.564zm-11.383-2.3965c0.59439-0.24841-1.2094-1.6701 0.43677-0.63932 0.47653 0.32086-0.05221 1.4494-0.43677 0.63932zm2.5489-0.29226c-0.77021-0.68623 0.32605-1.5239 0.24104-0.42326 0.76146 0.10972 0.43205 0.93505-0.24104 0.42326zm8.1825-2.1296c1.7755-0.23289 0.88137-2.1475-0.38516-1.0686-1.0859 0.22896 0.76263-1.1463 1.3749-0.86639 0.90923-1.7547-0.94477 1.0782-0.60179-0.87891-0.62321-1.0091 2.6255 0.0985 1.0555 1.333 0.79399 1.1829-0.98153 2.2934-1.4434 1.4809zm1.3645-3.6679c-1.9134-0.48696 1.0709-0.44263-0.28657-1.4166-0.65245-0.52235-1.4933-1.7214-0.14856-1.5644 0.51597-0.80691 0.3069-1.9455-0.23582-0.35898-0.77355-1.1412-1.4021-2.1526 0.5609-1.8042 0.99031 0.15307 2.4773 0.42929 1.3848-0.64213 1.9516 0.51196-0.36704-1.4933 1.5442-1.5482 1.5267-0.71935 2.5313-3.0028 0.82908-4.1056 2.1834-0.61717-1.5814-1.3602-0.64419 0.53389-0.51832 0.4776-0.45296-1.2118-1.2963-0.0666 0.32651-2.0394 4.012-1.9928 3.1367 8e-3 0.48903 0.49712 0.91942 1.0715-0.09252 0.62832 0.71054 1.2314 0.44603 1.9367 0.05857 2.5785 1.4689 0.87554-0.8411 1.2431-0.33619 0.17859-1.4788 0.69368-1.6827 2.2787-2.2734 2.954-1.7194 0.19411-3.2188 2.5199-1.6352 3.8086 0.92907 0.56599 0.02639 1.5622-0.56562 0.81701zm28.487-4.7428c0.53337-1.186 2.5801 1.0653 0.5684 0.0268-0.01961 0.47345-0.59609 0.47887-0.5684-0.0268zm-25.131-0.28972c0.21086-1.5525 1.9459-0.62777 0 0zm3.6094-0.0215c0.97568-0.86712-1.6568-1.1271-0.51319-2.1302-0.20065 1.3398 2.0391 1.0488 1.3187 0.0709 2.047 0.45382 0.18424 1.88-0.80547 2.0593zm-10.75-1.3983c-0.83181-1.5242 1.7383 0.96125 0 0zm2.096-0.65607c1.4683-0.92323 0.62293 1.0896-0.13558 0.19069zm-0.25153-1.4211c0.16368-1.6748 2.2472-0.93391 0.59531-0.0763-0.01643-0.10867-0.51634 0.33505-0.59531 0.0763zm26.025-1.505c0.08593-2.339 0.91182 0.0576 0.15346 0.28029l-0.15345-0.28029zm-11.737-2.9104c1.0503-1.4984 1.0367 1.4442 0 0z" fill="#81a97d"/><path d="m79.867 184.34c0.97183-0.76455-2.3364-0.11131-0.4832-1.5844 1.831-1.4148 3.621-2.8933 5.593-4.2272 3.2582-2.3742 6.9182-4.1129 10.261-6.3397-0.08065-0.7831-2.9567 1.2174-3.9437 1.5447-1.8475 0.95553-3.6894 1.9218-5.5343 2.8822-0.05686-1.4074 1.8068-4.2308 0.64215-4.5072-1.3359 2.0241-1.1882 5.03-3.5239 6.3114-0.90779 0.74733-3.6918 2.4381-2.2809 0.022 1.0989-2.4944 2.5332-4.8167 3.9534-7.1364 3.9227-1.7187 7.7399-3.731 11.768-5.1679 2.0445 0.83035 0.40148-2.6614 0.81902-0.16389-1.0563-0.69931-1.4801-0.46665-1.8923-1.4449-1.6382-0.32776 0.73537 2.0944-1.487 1.9144-2.5264 1.0174-5.039 2.0939-7.6352 2.9194 1.4236-2.314 3.3416-4.3569 5.274-6.2717 0.83582-0.12791 1.7109-1.9779 1.6959-2.5714-1.2096 0.58858-2.113-0.26819-1.7859 1.0697-0.9354 1.4042-1.7094 1.3746-1.9799-0.26075-1.9728-1.4893 2.9278-3.5589 1.4893-3.9482-1.0728 1.1268-1.1981-0.43765-2.3407 0.24082 1.4127 2.2385-1.8639 0.39574-1.5257-0.96589-0.97543-0.29351-2.3054-1.2746-1.5763 0.28807-1.5034 0.0935 0.09411 1.1013-1.3941 0.58588 0.27252-0.76282-0.71646 0.1746-1.0331-0.46945-0.27218 1.4445 2.4302 2.8396-0.30576 2.8696-1.0622 0.22952 0.4027-1.0883-0.91918-1.6413-0.29328-1.195 1.8477-2.3872-0.24483-1.4805-0.634 1.1662-1.9378 0.15226-0.52128-0.49801-1.1623 0.25232-1.8225 1.0114-1.2378-0.63507 0.68837-1.9033 0.03628-4.1409-0.03921-5.7822 1.0034 0.88106 2.5022 0.61202 1.3692-1.0531 1.1689 0.35274 2.8733-2.2381 2.0485 0.19516 1.9535 0.80762-1.414-0.54145-1.4242 1.1514 0.04597 2.0424 2.3889-1.5985 1.1976 0.53642 1.772-0.40693-0.55892 1.6796 1.2201 2.2922-0.29861-0.82489 0.71218-1.1187 0.44944-2.3206 1.206-0.58157 0.46504-1.6957-0.03129-1.8077 1.0561-0.57264-1.2938-1.849 0.72426-0.79542 0.3041 1.8257 2.6802-2.0548 3.6435 0.38239-1.1692 0.69539 1.7542 2.475-0.41196 1.5022-0.21927 1.3946-1.7521 3.6729-2.1051 1.5681-0.10676-1.492-1.7209-0.34833-0.3663-0.15661-1.3107 1.2392 1.2481 2.9902 1.846 0.7943 0.76582-1.6298 2.7828-2.2581 3.2379-0.38605 2.2621 1.6156 3.2284-1.8162 0.91956-2.5082-0.74417 0.0894-1.4945 0.50014-1.7368-0.43137-1.3437 0.6541 1.4818-2.2114 0.68943-0.31785 0.37236-1.4622 1.8951-1.6783 1.0672-0.27001-1.491 0.12835 1.0582 1.4718 1.4859 1.1717 0.77733-0.90786 1.7391-0.99857 1.5546 0.49278-1.5752 0.28735 0.20412 2.1408 1.2289 1.3945 1.0994 0.26543 2.3667 0.74614 0.95009 1.7036-0.44944-0.57535-0.22352-1.0827-1.498-0.41929-0.48916-0.31372 1.3023-0.85066-0.30139-0.52241-0.63348 1.6956-0.23805-1.4598-1.123 0.10786-1.2718 1.1734 2.1783 3.7628 1.4955 1.9164 0.48259-0.49114-1.4311-0.35571 0.02266-1.0947 1.1591-0.86532 0.05125 2.7844 1.7895 1.1922 1.2035-1.9845 0.8696 1.0558 2.0399 0.86199-1.1182 1.0118-2.645 0.93728-3.8057 1.3182-0.43534-2.4111-0.23988 1.6511 1.0816 0.47457 0.7078-1.0726 0.91247 1.9896 0.58062 2.144-2.1593-0.69508 0.93434 2.2301-0.84166 2.1967-0.1762 1.1422 0.21468 2.3576 0.86122 1.0316 1.0204-0.71615 1.7516 4e-3 2.6172 0.37137-0.23268-1.3529 2.0963-1.3064 3.0162-2.0779 0.90649 2.6183 0.95369 5.7525-0.36161 8.252-0.83719 1.5294-0.1474-1.7217-1.0464 0.4962-0.11599 1.6071-2.3053 3.0071-2.275 0.71343-1.1409-0.33752-1.4576 2.2094-2.9611 1.8015-0.71446 2.1219 1.4846 3.2911 2.7216 1.3883 1.7382 0.29997-1.3468 4.7297 0.54124 2.0904 1.0581 1.8389 0.31469-2.7882 1.1126-0.40871-0.11451 0.6072-1.4243 3.9414-0.22307 1.9879 0.34925-0.84772 0.63051-3.7126 1.8292-2.728-0.47379 2.4103-2.1722 4.6356-4.6721 4.9718-0.87984 0.53041-1.2764 1.5003-1.873-0.0275-2.4089-1.0804-2.2463 4.0694-4.2922 3.137-1.5424 0.75923-1.5015 5.9e-4 -2.845 0.91492-1.1942-1.3034-2.9628 1.704-3.077-0.3938-0.78348-1.5627-4.7736 0.48264-2.119-0.1188 2.0226-0.34647-1.2454 0.75054 0.15493 1.5613-1.2814-0.0429-3.0985 0.21468-3.9168 0.17193zm16.982-13.726c0.76924-1.6726-2.3015 1.6342-0.30824 0.0206l0.1694-0.0497zm3.62-2.176c1.8861-1.5636-1.7668-3.0387-1.2769-0.80014 1.7408 0.20374-0.03297 1.3916 1.2769 0.80014zm-5.0706-5.6395c1.3751-1.3865 0.11875-2.9969 1.1065-4.1285-1.7906-2.014-2.6983 2.1103-2.1981 3.5746-0.14439 0.39894 1.3624 1.2574 1.0916 0.55392zm-5.4109-7.9311c-0.63719-2.0668-0.13575 1.7019-1.0095-0.46043-0.54348-1.0034-1.4028 0.54628-0.48235 0.87206 0.46255 1.0574 0.82567 2.6432 1.2625 0.57801 0.10221-0.32202 0.21199-0.64908 0.22928-0.98964zm-2.3837-0.64379c1.0931 0.10175 1.2154-2.4317 0.53218-0.67212-0.53278-1.1107-1.5061 0.75235-1.4497 0.54195-1.2141-0.54191 0.62654 1.2599 0.91757 0.13017zm4.9829-0.65692c-0.30013-0.17294-2.4346-1.6538-1.2272-0.0267 0.34496 0.37507 1.0104 0.79759 1.2272 0.0267zm-4.8671-3.069c1.6485-2.0438-2.9924-2.0624-1.4058 0.23554 0.38699 0.37959 1.0766 0.0712 1.4058-0.23554zm-12.67 32.977c-0.78496-0.20872-2.5924-0.87333-0.5977-0.6486 0.48093-0.22109 1.5317 1.1692 0.5977 0.6486zm-3.8473-0.28218c1.0676-1.0947 1.6502 1.0316 0 0zm-2.8443-0.53741c-1.5384-1.1545 0.79406 0.0622 1.3832-0.866 2.2327 0.0568-0.24027 1.5427-1.3832 0.866zm2.2018-2.0221c-0.84556-1.0359-1.8166 0.40297-2.1232-0.77696-1.8416 0.59981 0.76764-3.0213-1.3196-1.2392-1.9251-0.16053 1.7232-2.858 2.5489-1.1097 0.64185 0.2976 3.3439 2.1354 2.4042 2.0474-1.015-1.4949 0.04425 2.7059-1.5103 1.0785zm-11.647-2.3453c-0.57549-1.1908-1.0802-0.26268-1.5931 0.42335-1.5541-0.81862-3.7307-2.0492-3.9878-4.1392-0.39713-1.5178 1.5028-0.75487 0.38128-1.8809 0.13151-1.4093-0.79064 1.6715-0.62654-0.67023 0.8062-2.5329 2.0853 2.171 2.6838 3.0953 0.42964 1.6139 1.6474 1.1139 3.1285 1.7264 0.75033 0.50571 2.0946-0.0287 1.306 1.2673 2.5886 0.49779-1.1234 1.0568-1.2921 0.17797zm-2.9375-1.1508c-1.5855-1.1113-1.3505 0.24822 0.10611 0.1292zm21.857 0.0174c0.25414-2.8209 2.5372-4.8945 3.8238-7.2946 1.4092-2.7724-1.5317 0.76827-2.0538 1.6713-0.64956 0.89302-2.2476 3.1642-1.6229 0.69015 0.2725-0.96337 0.10526-2.1716 0.64485-2.9991 1.5816-1.3928 2.9728-3.0774 4.8204-4.1092 0.59972-0.88036 2.7528-3.77 3.5549-2.1048 0.88891-1.2601 2.4985-1.6493 1.8721 0.47459-1.1146 2.202-3.2965 3.6594-4.7415 5.6501-2.279 2.7944-4.1188 5.908-6.1313 8.8898-0.31072-0.0169-0.06521-0.69407-0.16642-0.86826zm-3.4321 0.30968c-1.6305-1.8622-3.1193-3.9451-4.078-6.2346-0.19469-2.8156 3.4878-0.75821 4.4791 0.41776 0.58646 0.57455 1.7227 0.91961 1.283 1.9225 0.02128 1.3954-0.35164 2.4678-1.396 0.845-0.88959-1.2143-1.7369-1.0369-0.66826 0.33297 0.393 0.76522 3.1874 4.2436 0.38006 2.7164zm-4.6909-1.4966c-1.0637-0.57748-2.7473-1.2123-1.7726-2.4961-0.74722-0.23839 0.84832-1.1587 1.1288-1.3723 1.1299 1.3286 2.8237 3.89 2.931 5.0475-0.78165-0.35371-1.5345-0.76817-2.2871-1.179zm-11.32-1.4187c0.02085-0.83241 1.6408-2.6182-0.18847-1.3044-1.2374 0.94183-0.59159 0.40379-0.64585-0.25414-1.678 0.17359 5e-3 -2.459 0.37576-0.53862 1.666-0.95625 2.7563 0.77825 0.96593 1.5938-0.48988 0.3505 0.95826 0.99964-0.34046 0.79641l-0.16691-0.29302zm7.158-3.434c-0.30279-0.59635-0.19144-1.3979 0.8925-1.0057-0.06203 0.37652-1.285 2.7768-0.8925 1.0057zm9.0416-1.1643c-2.2186-0.31234-1.6337-3.5949 0.39678-2.5176 1.1458 2.039 0.28136-1.4578 1.4282 0.3851 1.101-1.7543 0.57563 2.2048 0.07942 2.9906-0.18858 0.97089-1.2399-0.62396-1.8105-0.78919l-0.09383-0.0688zm-20.386 0.85983c-1.67-0.1518 0.77893-1.4254-0.71655-1.8951 1.0156-0.57263 0.71381-0.58111-0.01105-0.95986 1.5961-0.31384-0.97748-1.153 0.57344-1.8457 1.6754-1.7369 0.57787 2.6042 1.1721 3.4907 0.40135 1.1614 0.19586 1.5618-1.018 1.21zm12.51-0.4857c0.12097-1.1399 1.138-2.2641 0.96262-0.40646-0.44224-0.44642-0.76602 0.69238-0.96262 0.40646zm-8.4054-1.0647c0.58241-0.6049 2.0432-1.8718 0.8638-0.23349-0.50536 0.77727-2.5148 1.2615-0.8638 0.23349zm6.9625-0.404c-0.90005-1.7609 1.1832-1.7115 1.5875-2.3962 0.53891-1.6005 1.3066 0.62205 2.404 0.67581 1.3214 1.3731-1.7572 2.8092-0.645 0.73184-0.12235-1.0864-1.1386-1.1086-0.61818 0.15545-1.6387-1.0341-2.2683-0.40419-2.3356 1.0048l-0.23271 0.0221-0.16-0.19376zm14.142-3.2817c0.12892-0.84829 0.79089-2.7718 1.0757-1.0094-1.2598-0.18224 0.94051 1.02 1.0114-0.0754-0.25315 1.3039-1.6898 1.9624-2.5925 2.8521 0.16846-0.58908 0.33694-1.1782 0.50538-1.7672zm-16.018 0.4263c-1.137-0.88964 1.624-0.79709-0.07611-1.2241-1.2948 0.0727 0.07167-2.1047 0.74107-1.1304 0.62998-0.79372 2.4931 1.4019 1.0583 1.703-0.55417 0.95462-0.75741-3.0143-0.70532-0.29578 0.83006 1.0438-0.44973 1.536-1.018 0.94729zm6.4858-0.79943c-1.2827-0.27223-0.62117-2.2246 0.36827-0.60483 0.41123 0.31456-0.01851 1.3897-0.36827 0.60483zm-4.3033-1.8982c-2.438-2.4922 4.1502-0.64688 0.62847 0.30923l-0.30578-0.1128-0.32265-0.19643zm-8.4761-0.12154c0.26766-1.6249-1.5215-2.7919 0.36803-4.0952 0.91728-2.0121 2.7979-4.0334 5.1486-3.8087 0.45202 1.0706 1.3387-0.39054 1.9011 1.0204-0.47058-1.3295 2.1061 0.68659 0.39653 0.99137-1.1983 1.1738 1.2281-1.7007-0.56766-0.40902-0.74991-1.5375-1.647 1.8679-1.9248-0.35886-1.4765 0.54621-2.1823 1.7406-1.1257 1.6363-0.65367 0.59881-1.7745 0.89852-1.1382-0.36508-1.4222 0.9845-1.9224 3.0661-3.1436 2.8068 0.13252 1.0803 1.1421 0.37061 0.50741 1.5596 0.98985-0.37436-0.0072 1.1544-0.42175 1.0223zm5.1552-0.25407c-0.11099-0.76066-2.9842-1.5303-0.59781-1.2393 1.1316 1.6067 2.1966-0.0501 0.84153-1.1004-0.28223-0.70274 2.7958 0.73443 1.8466 1.2157 0.42554 0.95733-1.4186-0.16381-1.5223 1.1082-0.13838 0.11925-0.7918 0.66908-0.56805 0.0158zm21.289-0.59395c-0.9927-1.5783 1.9475 0.11024 0.25526 0.26245l-0.25526-0.26246zm-13.298-1.294c-0.5168-1.0262 0.35562-2.5863 0.27122-0.63293 0.09743 0.19028-0.40853 1.1446-0.27122 0.63293zm-4.8429-1.0894c-0.50522-1.2397 2.5834-1.3651 0.4811-1.9305-0.20528 0.57086-1.34 1.6933-0.5218-0.0501 1.18-1.4476-1.0516-3.1973-0.05641-4.2524-0.16882 1.2406 1.3859-0.84764 1.2775 0.61251 1.7605-0.89038 0.97305-2.3248-0.51526-1.2575-2.3495-2.3238 3.2917-0.73013 2.3399 0.9084 0.53664 1.8741-1.2629 3.1536-1.0576 4.7182 1.6164-0.69642 1.2773 1.3723 0.19495 1.3702-0.45816-1.862-0.38932 1.3505-1.2243-0.2499-0.46617-2e-3 -0.0638 1.2287-0.91797 0.13105zm14.251-1.3919c-0.99167-1.5702 2.0813-0.40997 0.44329-0.12842 0.19037 0.6897-0.01565 0.93342-0.44329 0.12842zm5.0423 0.44418c0.56837-1.3815 1.9974-0.80498 0.43947 0.0921-0.07412 0.0657-0.45156 0.12724-0.43947-0.0921zm13.494-0.28348c0.50298-1.1419 1.4728 0.85333 0.01686 0.25783zm-28.498-5.0932c-1.5551-1.6099 0.97729-0.9686 0.25402 0.43838l-0.10836-0.10384zm24.812-0.17582c-0.81702-1.5657 1.3477 0.80831 0 0zm-21.851-1.7148c0.07063-1.1505 0.64793-1.3196 0.92995-1.0859 1.0121-0.94139-1.5568 3.1182-0.92995 1.0859zm2.1749-2.321c0.06766-0.86495 0.70524-2.83 0.75972-1.0136-0.16519 0.23035-0.339 1.1294-0.75972 1.0136zm-5.8389-0.56243c0.75229-1.9138 1.8731 0.11122 0 0zm23.553 0.0313c-0.63359-1.53 2.0841-0.29734 0 0zm-2.8966-1.4088c-0.64218-0.92127 0.23545-2.8829 0.81131-1.1626-0.75086 1.041-0.10128-1.2515-0.66756 0.17612 0.35663 0.35341 0.2446 2.6952-0.14374 0.98646zm-16.43-0.94281c-1.484-0.27139 0.86118-2.0952 0.30464 0.13786 0.1635 0.54504-0.47254 6e-3 -0.30464-0.13786zm19.447-1.262c0.85925-2.0737 0.55404 1.275 0 0zm-9.6439-0.35278c-0.55649-1.7847 1.714 0.56773 0 0z" fill="#79a374"/><path d="m79.999 183.89c-2.3489-1.3669 2.0662-2.3451 2.6417-3.6506 3.9529-3.0751 8.3933-5.4251 12.662-8.0028 0.21773-1.0913-2.7712 1.0299-3.5796 1.2571-1.9913 1.025-3.9735 2.0675-5.9603 3.1011-0.0224-1.5007 1.6343-3.7595 0.75164-4.5893-1.4851 2.0033-1.2424 5.0884-3.6236 6.3775-0.83034 0.8471-3.4225 1.9687-2.1631-0.19763 1.1543-2.481 2.5415-4.9554 4.2262-7.0813 3.7299-1.6181 7.331-3.617 11.251-4.7296 1.8308 0.59311 2.2851-1.0771 0.69402-1.7028-0.0298 1.2291-2.3553 0.63932-0.4337-0.13387-0.78908-0.0489-2.1171-1.8404-3.7743-1.6821-1.2981-0.62186 2.0357-3.0366-0.7647-2.2428-0.99348 0.2187-2.8363 1.3924-2.1772-0.063-0.93814-0.80492 1.0406-0.64292 0.3025-1.6309 0.73321-0.45091 2.8775-3.1058 0.86146-1.5269-2.1398 1.3484-0.91713-1.5472-0.81469-2.5532-0.47303-1.0054-3.1312-1.589-1.3071-1.6388-2.0148-1.2858 1.5709-3.744 2.3352-1.3357 1.7342 1.6321 3.7784-1.8157 1.0311-2.2088-1.0715-0.56446-0.17018-1.4569-0.03489-0.3344 1.1806 0.33096 3.7876-1.2386 2.1764 0.94487 1.0013 1.3498-1.5089 3.6235 1.0095 4.2988 0.10067 1.5124 1.1534 3.2339-0.55859 3.858-0.7533 1.3344-1.3552 4.4284 0.74316 4.8138 0.06388-1.161 0.91457-1.9153 0.88361-3.1446 0.69412 0.35581 0.16425 4.3462 0.75432 3.8017-0.37183-1.4562 2.5528 0.46193 1.1245 0.47833 1.317 0.28525-1.2391 0.98861 0.49214 0.66806 1.3001-0.34805 0.91787-2.5923 0.23546-0.68897-0.10837 0.16303 0.13918-2.19 1.0109-1.1825 0.67502-1.2998 1.9785-2.0162 3.2085-2.7109 0.82148 2.7688 0.84845 5.9711-0.5247 8.5601-0.94795 1.3333 0.82118-3.3358-0.53303-1.0158-0.51033 0.90909-0.69329 3.4689-1.4918 2.3058-0.3308 0.95442-2.1071-1.7532-2.2474 0.22118-0.2268 1.1354-2.9704 1.1818-1.4324 0.46711 1.4073-0.92565-1.5535-1.7643-1.2137 0.18895 0.91412 1.2418-0.16414 1.9949 0.71622 2.9599-0.91909 1.5966 2.3622 0.0249 2.5294-0.83492 2.3074-0.17838-1.8808 4.2033 0.76423 2.8275 0.07055 1.3106 0.21194 2.5389 1.0433 0.59986-0.0844-0.99785 1.9538-4.0973 1.3838-1.6711-0.81283 2.4734-2.9491 4.2726-5.582 3.9063 1.5582 1.1625-0.70574 0.41613-1.3449-0.0735-1.6544 0.47806-2.1654 0.82263-2.1708 2.5375-0.7994-0.17415 0.25542-1.9133-1.0594-0.54211-1.4156-0.46842-2.6848 2.3597-3.1766 2.1184 1.1476-0.85783-1.5081 4e-3 -0.89781-0.85639-1.5291 3.0077-3.4997-2.1931-5.3528 0.29056 0.42025 1.0995 1.7453 2.1737-0.18768 1.7664-0.81526-0.0222-1.638-0.10281-2.4252-0.32346zm20.47-15.456c0.79963-0.85869 2.1562-4.0036 0.50329-1.5812-1.0119-1.5084-2.5479 0.61109-1.3855 1.3323 0.03515 0.4753 0.58658 0.54563 0.88222 0.24896zm1.3654-4.0038c-0.71154-1.7377-0.90505 2.6965-0.0512 0.40967zm0.85225-0.6885c0.37031-1.1938-2.0033 0.36732-0.29251 0.2803zm-9.3693-1.9169c-1.1748-0.0925 0.64049 1.9546 0 0zm-1.7432-6.0206c-0.84879-1.5424-0.81823 1.5144 0 0zm1.0583-2.1167c0.14256-1.3943-3.0308-1.7365-1.6661-0.13803 0.51524 0.0546 1.4264 1.0794 1.6661 0.13803zm-2.9104-1.9711c-0.40644-1.2624-1.7961 1.145-0.15544 0.17458zm-19.05 28.694c-0.32505-0.8543-0.76864 0.68862-1.2738-0.59025-0.82128 1.7972-0.55172-0.93238-1.5196 0.0528 0.60196-1.6231 0.16322-2.224-1.1713-1.4247 1.1104-3.0976 4.0831-0.25015 5.528 1.0362-0.36038-0.49354-1.331 0.21626-0.59955 1.2567-0.30752 0.12106-0.93176 0.10945-0.96382-0.33077zm-10.992-1.7003c-0.74899-1.3409-1.9417-0.77452-2.5658 0.0112-1.0796-0.75077-2.0729-1.9361-0.23896-2.146 1.109-0.0637 4.8116 1.0811 2.7797 2.2183l0.02507-0.0834zm18.152-1.5724c0.26598-2.6765 2.3685-4.697 3.6408-6.9526 1.0449-1.1149 0.64601-2.2484-0.37921-0.61408-1.0441 1.0924-2.2447 3.4079-3.2109 3.805-0.06916-2.5526 0.97952-4.9066 3.0951-6.39 1.565-0.98403 2.6565-1.9835 3.6909-3.2122 0.35406 1.1588 1.5756-2.4354 1.5415-0.48162 0.97453 0.38085 1.9566-1.3535 2.7187 0.088-1.9335 2.8903-4.6402 5.2032-6.5772 8.1124-1.5526 2.1047-2.9212 4.3368-4.354 6.5212-0.31246-7e-3 -0.06232-0.7064-0.16567-0.87598zm-3.329 0.26934c-1.6546-1.6443-3.0416-3.6971-3.8346-5.8955-0.23345-2.9478 3.7085-0.81508 4.733 0.67109 1.2668 0.80013 0.59998 4.8643-0.72986 2.21-2.3489-2.3735-0.20611 1.3968 0.53941 2.2814 0.90819 1.2109 0.35945 1.54-0.7079 0.73292zm-20.027-0.50239c-1.2225-0.71024-1.514-5.2383-0.60194-2.0612 1.7892 2.8019-0.90754-3.2606 0.90059-0.47367 0.4674 0.79731 1.8118 2.1909 0.2878 2.1134-1.6388-1.8183 0.74067 2.077-0.58645 0.42148zm15.469-0.83297c-1.5038-0.66273-2.7684-1.4241-1.4709-2.957 0.16253-0.46188 0.67368-0.35204 0.66542-0.97644 0.9933 1.4552 2.6703 3.8513 2.8696 5.003-0.70346-0.32588-1.384-0.69828-2.0642-1.0696zm-4.5641-4.3616c0.22885-1.1537 1.5095-2.4297 0.46633-0.56398-0.07577 0.0682-0.41464 0.95502-0.46633 0.56398zm9.4675-1.5731c-1.0407-0.62949-1.932-1.5289-0.90511-2.162 0.47697-1.253 1.6664 1.5878 2.2011-0.16284 1.9744-0.74906 0.50089 5.3432-1.296 2.3249zm-20.602-0.77297c-1.1022-4.3023 2.1242 1.6783 0 0zm32.422-0.88937c1.1912-2.0463 3.3115-3.2989 4.4223-5.1265 0.91751-1.1333 2.6897 0.6811 0.79725 0.27629-0.66086-0.90355-0.70955 2.1623 0.39105 0.65139 1.5401-1.5689 2.4622 0.2673 2.3379 1.7696-2.815 1.0791-5.5496 2.462-8.4386 3.2724-0.07612-0.35536 0.42694-0.54529 0.49005-0.84322zm-18.205 0.49071c0.82455-1.2341 0.32761-1.6301-0.39764-2.4951 1.4999 8e-3 1.957 2.3904 0.39764 2.4951zm-1.1494-1.293c-0.87184-0.52506 0.04139-2.6517 0.19315-1.2965-0.48958 0.55689 1.4105 1.7638-0.19316 1.2965zm-12.715-0.49008c-0.94773-1.0064 0.58915-2.03 0.3309-0.33186 0.11435 0.44027 0.12506 1.0167-0.3309 0.33186zm24.754-1.3335c0.04254-0.77807 0.84549-1.7141 0.6615-0.41783 2.0611-0.69075-1.146 2.183-0.99379 1.6117 0.11076-0.39796 0.22153-0.79591 0.3323-1.1939zm-15.958-1.3716c-0.86696-0.60242 1.9248-0.50158 0.39152 0.18624l-0.39151-0.18619zm1.9942-1.3909c-1.3637-1.3174 1.1875-0.94276 1.1381-0.77142 1.1241-0.72691-0.04911 0.93864 0.13347 1.0893-0.43472 0.25997-0.91804-0.0825-1.2716-0.31788zm-1.8045-1.2068c-0.4834-0.83645 1.9239-0.59036 0.53298 0.38069l-0.2332-0.0995-0.29977-0.28118zm27.001-0.30491c1.9767-1.0417-0.90394 1.4828 0 0zm-34.201-1.1075c1.6195-1.8983 2.5314-4.7444 5.3856-5.1313 2.9169-0.48648-3.0569 1.0131-0.78625 1.4931-0.41785 0.97182-1.9185 1.3826-0.99084-0.0179-1.7867 0.29656-1.8846 3.6616-3.6085 3.6561zm9.997-0.65769c-0.50231-0.79751-1.6542 0.47343-0.33975-0.69793 1.4058-1.0141-0.28978-1.2254 0.03525-2.3433 0.09387-1.5638-1.4252-1.0204-0.49715-2.3935 0.59354-1.0712 0.5273-0.68538 0.57525 0.17266 1.1946 1.3 1.1783-2.2975 2.4109-0.86841-0.47449 0.7354-1.5523 0.2456-0.29983 1.3508 0.82957 1.4882-3.0548 3.396-0.19446 3.9109 0.63041 0.63564-0.81658 1.7255-0.49412 0.46303-0.76781-0.31733-0.58516 1.5554-1.1961 0.40575zm0.94642-3.4384c1.0587-2.064-1.5879 1.0479-0.07119 0.34116l0.0712-0.34116zm17.632 2.5c0.67887-1.6561 1.2156 0.31225 0 0zm2.5655-0.90165c0.94428-1.4008-1.02-0.88867-0.72268-2.0329 0.42859 1.012 1.5716-1.3259 2.1942 0.49204 0.80826 1.1909-0.95063 1.0616-0.85935 1.8163l-0.38589-0.06539zm-4.5211-1.1159c-1.0211-1.0322 1.6345-2.6752 0.83015-3.1439-0.49908 0.5253-1.5326 2.4925-1.5865 0.98116 1.2156-1.1272-1.6122-0.0251-1.3406-1.8628-1.2094 0.22492-0.83639 2.4967 0.647 1.683 0.77136 1.248-0.97424 2.9328-0.12495 1.2683-1.1509-0.18627-1.8109-1.9981-1.4313-3.9114-0.06659-1.1725-0.32335-1.3392 0.4639-1.5032 0.44691 0.55076 3.0216 0.24734 2.7294 1.5056 1.4581 2.634 1.6054-2.548 2.9643-3.2868 1.0379-0.49444 2.0049-1.6596 1.5359-0.0752 0.90865 0.59375 1.6074 2.2864 0.32126 0.79254-0.98007-1.3648-2.6158-0.25664-2.0215 1.2387-1.8771 0.5667-0.56695 4.2931 0.92148 3.9281 0.09574 0.84566 1.1269-0.54388 1.5694 0.51693-0.89465 0.4541-1.2827 1.1135-1.9268 0.4063-0.33741 1.2012-1.9065 0.48363-1.7785 1.3354-0.7417-0.0622-1.1054 1.0836-1.7728 0.12722zm0.99301-0.2555c-0.39546-1.6914 0.41027-0.4893 0.8449-0.99037-0.75786-3.2762-2.2417 2.6647-0.8449 0.99037zm13.185-1.0728c-0.62996-2.09 2.0469-0.0788 0.40758 0.34674l-0.40757-0.34674zm-7.923-0.573c-1.5393-1.8033 1.5696 0.2888 0 0zm7.0902-3.2356c-2.7178-0.96631 1.8944 0.0849 0 0zm-9.5376-0.36781c0.81398-1.0852 2.0596-1.1949 0.92604 0.22211-0.25616 0.23006-0.87242 0.17498-0.92604-0.22211zm-5.2876-1.505c0.54735-2.314 1.2143-0.14263 0 0z" fill="#6c9a66"/><path d="m80.063 183.72c-2.0615-0.64998 1.6855-3.0586 2.3717-0.93384 1.1289 1.1813-1.9896 0.87174-1.353-0.59194 0.0827 0.49027-1.684 1.3258 0.04661 1.3462 0.50416 0.56164-0.93281 0.54695-1.0653 0.17953zm8.146-1.88c-0.57484-2.3558 1.9652 0.91836 0 0zm-3.5132-0.49693c1.5986-1.2687-2.8681-0.60595-0.75201-2.014 3.552-2.7752 7.673-4.6871 11.396-7.1884 0.88924-1.2643 0.86055 2.0332 0.55738 2.4661-1.1453-0.0156 0.63535 0.87527-0.3071 1.5485 0.46876-0.64545 3.226-1.877 1.7759-0.41717-1.4849-0.0921-2.8294 2.8703-0.9174 2.0995 0.69692-1.2804 1.7144 1.1238 1.7065 0.90433-2.0538 0.55447-5.138-1.5626-6.2484 0.88409 1.8235 0.56007-2.3346 1.6872-0.69436-0.17309 0.81622-1.0727-1.3655 0.96988-2.0234-0.12248-1.7665-0.50204-2.3846 0.19484-1.5392 1.429-1.1105-0.82832-2.2913 1.2036-2.9543 0.58369zm9.4516-4.2273c-1.1325-0.46851-0.95095-0.88981-1.5586-1.4641-1.6649 1.3607 2.0984 0.88837 1.0519 2.1317 0.98968 0.11578 1.3629 0.19439 0.50672-0.66755zm-25.296 2.8227c-0.16182-0.71624-1.5153-0.81972-0.30588-1.7511-1.0509-0.96749 1.5152 0.06-0.50037-0.90159 0.42351-1.5925 3.2361 3.1169 1.2697 1.3461-1.5466-1.0783 2.3281 2.778-0.01201 1.1456-0.36534-0.0199-0.32664 1.2909-0.45144 0.161zm11.929-0.65696c-0.54478-1.7357 1.8929-4.2235 2.6791-6.1348 1.4511-2.6335 4.5998-3.387 7.2063-4.3411 1.9161-1.1476 4.141-2.6404 6.4794-2.0066 1.7128-0.56405 2.5228 3.4026 3.6897 1.5794 0.31822-0.77641 1.8158-2.5114 0.98798-0.51106-0.53389 1.7826-3.3813 1.9076-3.8135 2.5616-1.8758-0.76893-1.9631-2.3845-0.08484-2.414-0.1672-1.2539-1.416 0.97046-2.4732-0.31895-1.1271-0.32879-2.2846 0.22822-0.84226 0.83292 1.9754-1.0532 0.37303 2.1574-0.79642 1.9837-0.39408 0.93708 2.5283-0.6852 1.3642 0.91556-3.0421 1.8904-6.2952 3.4259-9.4166 5.1857 0.15358-1.6446 1.0872-3.1663 1.2087-4.7508-1.954 1.019-1.5813 4.3375-3.2136 5.8457-0.85668 0.69598-1.8265 1.505-2.9749 1.5725zm18.732-10.23c-0.86838-1.7037-1.9925 1.4171 0 0zm-21.696 8.2238c0.40615-3.278 3.2189-5.5806 4.4026-8.5514-1.8205 0.69956-2.9987 4.0188-4.305 4.6847 0.08909-2.3009 0.51734-4.9353 2.8922-5.97 0.86573-0.97341 1.8828 0.12871 2.0372 0.1459 0.28407-0.41514 0.47795 0.88064 0.81597-0.45121 0.26075-1.2085 0.38932-4.0383 1.2874-2.1376 1.2564 0.70953 1.3916-2.1581 1.6132 0.17864 0.17181 0.19635 2.0226-2.145 1.1831-0.31116-3.6276 4.0283-6.8879 8.3756-9.665 13.034-0.31605 0.77497-0.23512-0.5283-0.26177-0.62219zm-2.6458 0.39397c-2.0436-1.0284-3.4353-3.3565-3.4918-5.6248 0.27826-0.5616 1.5402-2.1195 2.2407-1.0764 1.3436 0.90907 2.8103 2.1671 1.8761 3.9512-0.83187 0.13778-3.432-2.9291-2.3858-0.31191 0.36681 0.31757 0.9318 0.44151 0.17931 1.2778-0.16195 0.78477 3.5731 1.2678 1.5815 1.7841zm-3.5326-0.69614c-1.1761-1.3454 1.1491-0.24997 0.38614 0.23655zm29.525-0.59128c1.2255-2.0813 0.15717 0.78276-0.26931 0.72968 0.0898-0.24323 0.17954-0.48645 0.26931-0.72968zm-26.066-6.0935c-1.6071-0.30971-0.65935-2.4324-0.08749-1.1164 0.95099-1.0251 2.5458-1.3288 1.7231 0.61537 0.0087 1.6114-0.70291 1.4228-1.6096 0.51979zm11.411-1.5794c1.0062-1.2765 2.525-3.5826 3.6216-3.0415 0.84448-1.2641 0.48895 2.5216 1.545 0.43373 0.706-1.3686 0.86356-1.4125 0.44297 0.17028-1.0404 1.6676-4.5443 2.7072-5.9446 2.951l0.14072-0.23136 0.19432-0.28251zm-7.3685-1.9408c1.5747-2.3136 1.4789-0.045 0 0zm24.069-0.17591c-0.56895-2.4358-3.1765 0.54195-4.9275-0.73371-1.5711-1.0136 1.9023 0.3965 1.5475-1.485 0.36444-1.7264 1.5799-2.9541 3.0806-3.7664 0.61702 0.41685 0.64235 2.3854 0.78822 3.3601 0.0341 0.36969-0.29852 3.9405-0.48881 2.625zm-1.228-1.5485c0.80656-1.5314 1.3514 1.6347 1.4659-0.6285-0.15907-1.5381-0.78146-1.6858-0.56415-3.3567-1.0714 0.64107-0.19511 2.2134-1.7859 2.5787-0.62932 0.93841-0.66472 3.2125 0.88412 1.4065zm-9.5197 1.3598c0.77127-0.11134 3.2873-1.4576 1.432-0.14811-0.15026 0.23921-2.5341 1.0112-1.432 0.14811zm3.8493-2.3249c-0.35427-1.2352 0.24851-3.2397 0.17589-0.75995-0.03628 0.11367 0.04769 1.0618-0.17589 0.75995zm-3.1095-2.5507c-0.33484-0.48 0.87108-1.8418-0.71367-0.8903-0.51596-0.71855-1.8189-1.8895-0.9186-3.0957-1.0958-0.137-0.57814-0.31224-0.91245-0.8645-1.7816-0.75579 0.82682-1.1528 0.96008 0.32578 2.0711 0.60862-0.05941-2.4224-1.2422-1.7846 0.17985-0.70102 1.3928-2.2623 1.3036-0.32701 0.8706 1.223 1.4537 0.11558 0.45368-0.45826 0.30332-0.29609 1.6138 0.55717 1.3232-0.49171-1.726-0.73282 0.54654-0.11445-0.17963-1.4901 0.2705-1.109 1.4668-2.2702 0.91734-0.90961-0.2002 1.0371-0.95977 3.0391 1.0531 3.0155 0.75743 2.081 0.27116 3.7277-1.4474 3.3138 0.49279 1.2774-0.50134 2.1406 0.02637 3.6595 0.02654 0.31268-0.5338 0.39792-0.62348-3e-3zm0.39713-3.887c-1.1765-2.4107-1.5653 2.4833 0 0zm-4.6845-4.1923c1.3711-0.30908 1.2285-0.92789-0.08988-0.7925 1.4607-2.3346 1.9224 2.0541 0.08988 0.7925zm-4.7382-0.0195c0.13378-1.5931 1.8817-0.12044 0.23095-0.10002 0.11774 0.0872-0.28022 0.29526-0.23095 0.10002zm8.9838-3.3148c-1.4061-1.3727 2.2476 1.1641 1e-6 -3e-5z" fill="#558a4e"/></g></g></svg>
