<?xml version="1.0" encoding="UTF-8"?>
<svg width="54.325mm" height="45.705mm" version="1.1" viewBox="0 0 54.325 45.705" xml:space="preserve" xmlns="http://www.w3.org/2000/svg"><g transform="translate(-69.537 -169.01)"><g transform="translate(-20.25,-8.1)" stroke-width=".26458"><path d="m102.28 222.68c1.7145-0.20313 0.9316 0.35126-0.14883 0.0448l0.14883-0.0451zm10.25-2.6332c-5.5089-0.77869-11.021-2.1671-16.018-4.6493-2.2581-0.89066-3.1027-3.0568-4.9586-4.4476-0.95239-1.8533-2.0343-4.4-1.564-6.2607 0.26624 0.97587 0.55778 1.5476 0.49609 0.10626-1.6843-2.1837 0.13843-4.3797 0.74748-6.427 1.2167-1.6258 1.884-2.8855 2.9576-4.631 0.39114-0.83083 0.39045-1.2024-0.25273-1.7568 0.04407-1.7335 2.8705-1.2402 3.0147-2.9359-0.78049-1.4379 1.0865 0.13488 1.1557-0.98969 1.7757-0.16091 1.1207-1.4968 3.0017-1.7666 0.0342 1.9037 2.8923-0.93352 1.3838-1.6642-0.72898-1.0386 0.0333-2.4659 1.0345-1.6398 0.74535-0.88031 2.8449-3.7901 3.181-1.1852-2.1749 0.364 1.0622 1.6658 0.87941 0.3817-0.79136-0.47843-1.315-2.3997 0.23547-2.0629-0.86556 1.2791 2.2534 0.29659 1.897 0.73094 0.5263-0.98317 1.9576-1.5957 2.7037-2.6369 0.51962 0.25029 1.7394 2.2465 1.709 0.54185 1.9114 0.31556 4.3347-1.5108 5.9736-0.24738 0.0362-2.0709 2.469-1.2721 4.4158-1.0782 2.2781 0.97756 5.8442-0.78229 6.9717 1.835 1.4133 2.2309 4.6856 1.9806 5.8118 4.4398 1.62 1.7072 1.9101 4.1021 3.7822 5.686 1.5304 1.21 2.4194 3.473 2.7179 5.5445 1.0392 2.0836-0.96683 4.1065-0.10604 5.863 1.0814 1.7452-1.8458 3.898-1.2387 5.8933-0.22346 2.5834-1.3487 5.004-2.208 7.4271-0.50679 1.5908-2.1626 0.2598-2.5596 2.1853-2.3066-0.0735-3.2656 2.8521-5.714 2.781-2.7475 0.58695-5.4379 0.0906-8.1732 0.61575-2.0198-0.0201-4.835 0.98268-6.3499 0.068 0.27406-2.6376 3.4628-3.5184 5.174-5.1457 3.5557-2.6334 7.4576-4.7262 11.244-6.9885-1.0844 5e-3 -4.1138 1.9984-5.8927 2.8013-1.1744 0.52975-4.4541 2.842-3.2237-0.11973 0.49769-1.0676 1.2148-4.2616 0.018-1.5519-0.8579 2.2361-1.4577 4.8538-3.9135 5.8643-1.1368 0.8144-3.9351 3.2632-2.2257 0.44847 1.4858-2.7957 2.7036-5.8326 4.8219-8.2181 3.5458-2.4469 7.8063-3.6004 11.559-5.6821-3.5222 1.1576-6.9195 2.902-10.432 3.926 1.9902-3.359 5.0434-5.9569 7.3534-9.0806-1.5286 0.72971-3.3586 3.9381-3.9574 0.93568 0.45692 2.4771-1.7949 3.9553-3.2074 5.6866-3.0906 3.4768-5.698 7.4684-8.0759 11.38-1.0875-2.2408 1.0181-4.4208 2.0562-6.3099 0.36541-0.74216 2.3709-3.233 1.7906-3.1678-1.4029 1.3875-2.8528 4.0654-4.1008 4.7977 0.0181-2.5598 0.67962-5.1751 2.8871-6.7235 3.6082-3.3559 7.3326-6.5852 10.923-9.9602-2.1142 1.0408-3.7007 2.8576-5.6412 4.1484 0.10552-1.312 1.0771-3.1458 0.82143-4.098-0.79257 1.5886-1.0589 3.436-1.7806 5.0239-2.0141 1.7376-3.9328 3.707-6.0588 5.2203 0.78037-3.4707 1.9886-6.8982 2.657-10.418-1.2819 2.1224-1.9216 4.6248-3.0555 6.783-2.7898-2.2371-4.7214-5.3896-7.2711-7.8476 0.71048 1.7479 2.7462 3.4335 3.9426 5.1614 1.8889 1.9907 3.7414 4.3061 2.2309 7.1109-0.22525 1.0992-0.44535 2.1994-0.66832 3.2991-2.2429-1.7405-4.7628-3.1737-6.7331-5.2275-1.2087-1.4732-1.7246-4.9583-2.8585-5.4243 0.13266 1.2206 2.0149 4.2372 0.90073 4.2509-1.2534-0.83257-3.2717-2.3961-4.1615-2.8567 3.9817 3.5426 8.208 6.7978 12.33 10.174-0.10992 1.0976 0.34951 4.4248-1.2418 2.3316-0.65788-0.95272-2.206-1.8307-0.8221-0.20217 1.2766 1.2939 2.4379 3.7346 1.3602 5.195-2.4012-3.8317-4.9237-7.5894-7.486-11.315-1.1958-0.82807 0.91739 2.2163 1.1971 2.8891 1.0266 2.0646 2.7665 4.0871 3.3187 6.2197-2.578-1.4671-5.4412-2.6292-7.5904-4.7183-0.95811-1.7814-3.5311-3.0048-3.4533-5.5818-0.0408-1.1101-0.77146-2.4478-0.53113-0.5366 0.1173 2.9729-2.6482-3.6695-2.921-2.2281 1.3182 2.511 3.2631 4.6522 4.483 7.2106-0.30561 0.78443-4.6312-1.8434-2.4027-0.0537 1.8125 1.1969 3.5058 1.912 5.2087 3.1169 1.1631 0.14028 2.9139 1.5717 0.62435 0.96562-2.1251-0.23702-4.2943-0.45442-6.4239-0.23574 3.9989 0.89894 8.54 0.23135 12.027 2.8202 2.3154 1.0572 3.6599 3.3713 4.2568 5.75 0.081 1.0774-1.4011 0.39878-1.9841 0.46001zm-20.66-10.21c0.36212-1.1154-1.2641-3.7344-0.6233-1.5214 0.02833 0.6694 0.75894 3.9847 0.6233 1.5214zm0.30356-5.0602c0.03593-1.084-0.4844-5.3421-0.54167-1.9889 0.38555 1.4751-0.87705 1.0833-0.27807 2.4289-0.36413 2.2097 1.1455 0.71149 0.81974-0.44001zm2.3192-5.4451c0.95467-2.3474-2.5455 0.52012-0.5555 0.84114 0.26481-0.22257 0.3968-0.54593 0.5555-0.84114zm5.9108-10.817c0.81839-3.1643-1.5254 1.9344 0 0zm0.35251-3.5111c-0.35007 0.17839 2.4115-1.4905 0.58353 0.13365l-0.16145 0.15593-0.42202-0.28955z" fill="#e2edda"/><path d="m117.53 219.33c0.95952-2.282 3.5818-3.2826 5.3777-4.8434 3.454-2.5907 7.295-4.5762 10.984-6.7878-0.19141-0.9029-3.0621 1.4465-4.1694 1.7774-1.6355 0.68985-3.6024 2.2874-5.098 2.2546 0.0303-1.3927 1.0946-3.446 0.79834-4.3731-1.426 1.9893-1.2123 5.0994-3.4509 6.4456-1.1172 0.70706-4.8684 4.0237-3.0153 0.76731 1.4111-2.7335 2.7429-5.6391 4.604-8.062 3.8195-1.778 7.7196-3.4116 11.504-5.2403-1.0926-0.41056-4.004 1.6802-5.7569 2.0521-1.398 0.40172-3.658 1.7342-4.57 1.49 2.1801-3.1879 5.0002-5.861 7.5052-8.7775-1.4516-0.31738-3.8203 4.5174-4.0341 0.83362-0.72949 0.62896-0.43263 3.6068-2.233 4.4085-3.3158 3.5353-6.1586 7.4872-8.6558 11.634-1.746 1.7299-0.62443-2.5423 0.2167-3.1496 0.7501-1.669 3.516-4.7048 3.1425-5.4745-1.5096 1.5068-2.603 3.7259-4.1562 4.9927 0.15867-1.5726 0.3531-3.2666 0.80114-4.7516 4.1435-3.8504 8.3828-7.5968 12.58-11.386-0.65791-0.55243-3.3247 2.2113-4.5134 3.0658-1.7478 1.3669 1.1664-3.9278-0.0906-3.4528-0.77367 1.5773-0.99947 3.4133-1.693 4.9893-1.9287 1.6561-3.7244 3.4932-5.8176 4.9382 0.20069-2.1742 1.5508-5.9932 2.2637-6.4672-0.69345-0.93977 1.1225-5.4245-0.49752-2.5505 0.0536 1.6492-1.9147 0.18009-0.98124 1.2389-0.27408 1.6164-1.0745 6.2499-2.856 3.004-1.9971-2.0752-3.6661-4.4656-5.759-6.4374 0.13401 1.2632 2.8233 3.6829 3.9416 5.3525 0.98223 1.2157 1.9592 2.4355 2.9387 3.6534-0.65649 1.9361-0.83613 4.0051-1.4289 5.941-2.1075-0.32597-3.8581-2.451-5.6639-3.6823-1.9165-1.4659-2.3369-4.0625-3.1969-6.0602-0.86865-1.7027-0.72984 1.4337 0.0267 2.1608 0.36527 0.95906 1.105 2.8838-0.38915 1.3692-0.84306-0.48657-3.1172-2.6553-3.4034-2.0946 3.7885 3.5071 8.0992 6.4147 11.926 9.863 0.37696 0.55493 0.28229 3.4948-0.29851 3.0021-0.7017-0.87846-3.1107-3.2507-1.497-0.80083 0.78639 0.83819 2.7052 4.126 0.9362 3.9605-2.872-3.3992-4.7884-7.5342-7.7544-10.846 0.55986 2.1576 2.4422 4.5233 3.5904 6.7138 0.56507 1.0689 2.7046 3.8635 0.3442 2.3494-2.1685-1.3884-5.0312-2.2212-6.5126-4.3826-0.16033-1.2081-1.936-1.4268-1.8346-2.4678-1.9013-0.26106-0.85797-4.5864-2.1996-4.2845 0.20886 1.4882-0.12922 2.3165-0.97282 0.55102 0.01935-1.1246-2.8811-3.3971-1.4653-1.0261 1.3036 2.194 2.9715 4.1776 4.0728 6.4852-0.20843 0.70803-4.2333-1.6948-2.8045-0.19337 1.2148 0.70602 3.5635 1.3334 3.036 2.5245 1.075-1.2287 1.2106 2.3302-0.19381 1.3934-1.0142-0.0122-3.9805-0.73682-2.913 0.80444 0.19186 0.80935 1.5162-1.2899 2.6458-0.33397 1.3132 0.28707 2.8568 3.5558 2.536 0.52448 2.1269 0.13586 4.3897 0.12904 6.1496 1.5271 2.5618 1.0774 2.8226 3.5816 4.6823 5.2125 0.51734 1.2254 7e-3 1.2987-0.45334 0.82667-1.7084 0.91858-4.2598-0.21796-6.2264-0.38248-2.3442-0.80265-5.291-0.78366-6.9602-2.8072-0.17343-1.7808-1.7706-0.82291-1.8336-0.0208-2.7662-0.53281-3.562-2.9095-5.797-4.0869-1.2107-2.0042-1.5924-4.644-0.81024-6.8497-0.29921-2.5325 0.43635-4.3997 2.415-5.9607 1.3014-1.2744 0.55163-2.51 0.59538-3.8037 0.91986-0.88614 1.1517-1.6583-0.09325-0.53886-0.95057 0.90565-0.53651 3.0882-2.5143 2.2953-1.291 0.0513 0.85228 2.1564-0.78482 0.79574-0.2548-1.421 2.2489-1.3479 1.9106-3.0926 0.79451-1.0922 1.4874-2.544 0.95384-3.4992 1.208-1.3186 2.9079-1.0186 3.5389-2.8736 0.99806-1.073 1.0896-0.34603 0.95928 0.18923 1.8563-0.13089 0.20192 2.4963 1.7591 1.4618 1.1361 0.0363 3.8227-1.5547 1.2167-0.75505-0.73542 0.32323-0.73147-1.9418 0.54141-0.71243 1.6247-0.23761-0.0426-1.0275-0.59437-0.66243 0.37303-1.1061 2.3128-1.2754 0.85802-1.7494 0.96819-0.74478 1.2309-0.11464 1.0109-1.474 0.94498-0.32047 0.46803-0.88378 1.306-1.1671-1.2354-0.15616-1.4772-1.6908 0.21166-1.586 0.3187 0.97499-1.5597 0.19966 0.0554 0.85998 1.0531-0.22764 1.342 2.0071 2.3292 0.24192 0.36307-0.73615 0.95097-0.80246 0.80269-1.8571 1.1401 0.5319 2.5352-0.90207 2.8107-2.2271 0.78878-1.5946 1.6617-0.18887 2.362 0.68591 0.28409 1.5261 4.3697-2.623 2.3136-0.25869-0.9621 0.96881 1.7047-0.8234 2.0685-0.0939-1.7303-1.384 1.0817-1.4883 0.61763 0.0838 0.80074-0.613 0.15176-2.1306 1.3025-0.71982 0.1172-0.7372 1.6333-1.6217 0.95549-0.26458 0.5146-0.65273 1.5495-1.0151 1.0247 0.0183 1.191 0.5561 2.6243 0.26727 2.9148 0.81553 1.7033-0.50622 3.0416-2.4638 5.4284-1.4559 0.77061 1.5885 3.082 2.6934 3.5221 4.0293 0.54563 0.70897 0.56533 0.63967 1.0522 0.0797-0.11605 1.2717 0.25415 2.3474 1.0564 2.1798 0.57785 0.77735-0.59355 1.3761 0.77691 1.121-0.0281 0.73363-0.0814 2.6985 0.28263 1.001 0.84369-0.01 0.13604 2.0166 1.183 0.6797 1.3952 1.3648 0.27965-1.5797-0.68954-1.2242 1.1576-1.3149-1.8753-0.74257-1.2466-2.4942-0.27134-0.29305-1.0305 0.55565-0.66573-0.8849 1.1688 0.25073 1.8393 1.9496 2.5269 2.7516 0.40211 1.0033 2.0644 3.4138 1.8098 3.8021-1.6606 0.33716 2.3564 2.1038 2.6143 3.2414 0.0614 1.8352 0.14402 4.48 1.3541 5.0287-0.74006 1.5148-1.4032 2.3194-0.55893 3.9401 0.40517 1.6566-0.56715 2.5171-1.5112 3.2418-0.11834 0.94068 1.2653 3.2912-0.0721 2.98 0.20012 2.5226-1.0175 5.2105-2.3096 7.2426-1.669-0.7683-1.3242 0.12512-1.9015 1.3036-2.3267-0.32451-3.0812 3.0075-5.6328 2.6434-1.4307 0.86227-3.5169-0.0486-4.7116 0.34946-1.6325-0.32629-4.4829 1.0171-6.6162 0.90865-1.113 0.083-2.2286 0.12083-3.343 0.17978 0.0529-0.27616 0.10583-0.55395 0.15861-0.82898zm-11.217-1.2212c-0.6999-0.59947-2.0436-1.5897-1.325-0.13604 0.38581-0.39588 1.3159 0.82573 1.325 0.13604zm-2.2829-0.85368c-1.9784-0.0822-0.70277-3.0139-2.585-2.8991 0.92537 0.96039 0.3114 4.205 2.585 2.8991zm0.22708-2.5248c-0.14684-1.3132-1.0136 2.5834-0.22786 0.389l0.22786-0.38902zm-5.9446-0.0351c-0.62104-1.3469-4.2192-0.50192-1.6436 0.40549 1.1414 1.3669 0.58671-2.0255 1.2308 0.0352-0.44018 1.1587 1.1347-0.0378 0.41284-0.44065zm7.7358-7.9994c1.1599 0.26944 1.389-1.3618 0.0431-0.60456-0.71756 0.10444-0.65159 1.5451-0.0431 0.60456zm-2.9483-3.7023c-1.6209-0.95575-0.47059 0.93588 0.18502 0.20744zm5.8587-4.6012c-0.84879-1.5424-0.81823 1.5144 0 0zm-10.451-7.1206c1.9585-1.0723-1.2842-0.51113-1.4552 0.40614 0.17031 0.64761 1.1761-0.22444 1.4552-0.40614zm9.8766-4.0849c1.4192-1.258-1.4367-0.46233-0.62973 0.45941l0.22534-0.12414zm8.4204-2.0644c0.0364-1.1719-2.3403 0.8336-0.17298 0.67132l0.1054-0.18461zm10.146-5.3925c-1.2178-0.87849-0.69899 0.88756-1.5875 0.21942 0.17426 0.78615 1.4316 0.34536 1.5875-0.21942zm-14.288-0.55226c-0.55665-1.417-0.76655 1.8002 0 0zm-8.894 31.844c-0.94166-0.82722-0.40538-2.0961 0.16683-0.36043-0.0789-0.41989 2.7777 0.73556 0.91471 0.55884-0.36728-9e-3 -0.74219-0.042-1.0815-0.19841zm-13.088-1.9551c-0.81468-1.0615 0.02228-4.3988 0.51873-4.3056-0.21383 1.6319-0.70625 3.2702-0.07505 4.8756l-0.1875-0.16745zm-0.32196-4.6512c-0.92109-1.8816 0.4113-4.3791 1.1294-5.7442 2.1306 1.9397-1.8667 3.5276-0.7267 5.4449 0.13082 0.18427-0.24026 0.78602-0.40274 0.29923zm13.213-19.833c-0.51397-2.6034 1.7348-0.16325 0 0zm19.41-6.2034c0.20643-0.63912 1.4986 0.41182 1.9415-0.56156 0.40706 0.83076-1.9144 1.4882-1.9415 0.56156zm2.3812 0.0369c0.83857-1.8122 0.77168 1.8205 0 0z" fill="#d5e5c9"/><path d="m117.58 219.26c0.92778-2.3733 3.7671-3.271 5.5797-4.8992 3.3746-2.5075 7.1162-4.4435 10.681-6.6411 0.50212-1.1509-2.4965 1.0148-3.2122 1.2117-1.9334 0.82505-4.2855 2.6822-6.0089 2.8606-0.10109-1.1671 1.4129-4.1042 0.62748-4.1735-1.4287 2.0015-1.1399 5.1462-3.5862 6.3287-0.90842 0.38666-3.1405 2.8138-3.2982 1.9108 1.5373-3.2005 3.1435-6.3923 5.1696-9.3165 3.929-1.7391 7.8059-3.6065 11.803-5.1837-1.2242-0.73045-4.3021 1.5587-6.1767 1.983-1.2467 0.2584-3.714 1.9946-4.3538 1.3254 2.1592-3.0441 4.9066-5.6091 7.2638-8.4857-0.75288-0.40669-2.6058 2.0538-3.5001 2.1981-0.0114-1.2392-0.92199-2.4649-0.82518-0.30555 0.0621 2.5721-2.9416 3.6908-4.0867 5.7371-2.619 3.1357-4.8533 6.5634-6.9568 10.059-0.72114-2.5566 1.3309-4.7031 2.5272-6.7581 0.79997-0.86785 2.7341-4.5066 0.63969-1.935-1.0618 1.0413-2.4671 3.9854-3.3842 3.8663 0.46062-2.1551 0.34941-4.7778 2.5544-6.0114 3.6371-3.4096 7.4187-6.6666 11.037-10.093-1.6335-0.12384-3.8945 3.2703-5.192 3.3222 0.29851-0.94767 1.4782-5.5911 0.0206-2.7218-0.64757 2.2658-1.1697 4.6239-3.3441 5.9173-1.1366 0.91364-2.7691 2.8895-3.7685 3.009 0.76001-1.6494 0.6698-5.9416 3.0149-5.3795-1.677-1.1646-0.31432-3.3538-0.56866-4.7196-0.77847 1.1-0.95246 2.8624-2.3325 1.5376-1.1878 0.56339-0.2688 2.3585-1.8545 1.1826-0.90386-1.5827-3.1281 0.31243-0.87619 0.92311-7e-3 1.1476 1.8778 2.136 0.50775 0.44156 0.89633 0.65418 1.3681 2.2511 2.1705 0.30446-0.0276 0.41916-0.36869 3.6428-1.3007 1.9998-1.3062-1.4345-3.5496-3.6587-3.4996-4.9513-1.7707-0.35511-1.5564-1.0693-0.17626-1.2604 1.1488-1.1514 1.0198 2.2593 2.4033 0.58744 0.77127 1.2416 1.0974 1.7939 2.0996 0.58405 0.79313-0.3654 1.914-4.3532 0.41298-4.1046-1.252 0.19889-2.9156 0.39748-2.2779 1.3921-1.1415 0.12784-0.86083 1.7958-1.5113 0.37828-0.97569 0.25699-2.3883 1.7234-2.5378 0.26606-0.65577 1.0889-2.7141-1.7499-1.3432 0.6066 1.3155 0.53191 1.2394 3.2163 0.39983 2.2025-0.3396-1.6232-0.75237 1.3389-0.86094 1.982-0.99412 0.74841-0.45942 0.94553 0.27616 0.30064-0.26245 0.94434-0.37094 2.9094-0.95375 1.0238-0.94827 0.59577-1.8963 1.6883-0.1798 1.0829 1.6352 0.40399 1.1348 3.4104 2.7307 1.5597 1.6956-1.4053 1.3029-3.2359 0.16482-4.6539 1.1978-0.88966 3.0144 2.0596 3.3323 3.4278 2.6488-0.0372 0.95044 4.008 0.74261 5.8049 4e-3 3.4598-2.8616-0.26291-4.2888-0.97096-0.97101-0.79388-2.1052-1.4628-2.9752-2.334-0.47317-1.3976-1.3566-2.7494-1.3665-4.2332 0.87054-2.4681-2.3418-1.4947-1.392-0.0896 0.89615 1.075 2.3464 4.9788 0.0254 2.5285-0.58208-0.76466-4.5793-3.0933-2.2704-1.0543 2.0288 1.765 4.2651 3.2934 6.1324 5.2277 1.8298 1.287 3.7744 2.5484 5.2718 4.2175 0.0919 1.1553 0.0882 4.1823-1.3008 1.7599-0.80924-1.1909-1.9223-1.4475-0.76178 0.11888 0.77738 0.86628 2.8709 4.5552 0.25299 2.8754-2.2442-2.7601-3.7896-6.0184-6.0468-8.7556-1.242-1.6552-1.3774-0.42275-0.39205 0.7467-0.072 0.63577-2.127 2.0155-0.98487 3.4424 1.0736-1.1631 2.3291-2.015 3.0209 0.0527 0.79359 1.3462 2.3433 3.2501 2.4656 4.352-2.0698-1.0977-4.8592-2.2202-6.11-3.8442-0.92733-0.16245-2.3272-1.9628-1.7824-2.4644 0.70929-0.5834 1.646-2.7313 0.0126-1.134-1.5731-0.12558-1.0696-2.4028 0.3268-2.3436 1.22-1.6151 0.39146-0.29004-0.24309-0.68854-1.2729 0.5821-1.3394-1.7873-2.138-0.17481-0.0355-2.3036-2.6216-1.3055-1.7877 0.7914-0.74368-0.90276-2.3065-2.6122-1.0111-2.963 0.24518-1.2022 0.88147-2.4212-0.99763-2.2436 0.67729 0.42783 0.96294 2.4034-0.86061 1.8249-0.45458 0.52268 0.39509 1.8672 0.09734 2.8213 1.0638 0.0985 0.06641-2.4149 1.1766-0.37093 0.76615 1.759 3.1131 3.4911 2.9629 5.2424-0.85927-0.35648-3.708-2.1594-2.6033-0.27935 1.14 0.7231 3.4807 1.6219 2.7633 2.2799-0.078 0.55679 1.1834 1.406-0.65629 1.3308-2.03 0.39182-3.783-0.24921-5.5778-0.61011 0.67402 1.7511 2.6432 0.26146 3.8396 2.0014 0.5939 0.42322 2.2425 0.11493 1.3356-0.47812 1.0675-0.33753 2.5708 0.13562 2.0155 1.407 1.2576-0.69995-1.0455 1.8715-0.42591 2.1275-2.3992-0.61185 1.3503 0.47695 0.11728 1.3241 1.4466-0.34063 0.23427 2.3427-0.52326 0.43598-0.66585-2.0453-2.4816-2.1818-3.9634-3.413-1.6304 1.5405-3.7977-0.82657-4.716-2.3041-0.79355-2.9343-0.26613-6.0513-0.06634-9.0376 0.79527-1.5798 4.5319-3.6244 2.7184-5.704 0.88315-1.9766 2.1028-4.4887 4.3073-5.4041 1.5875-0.71691 5.4576-1.18 4.6909-2.8846-0.81014-1.3915 0.73563-4.2398 1.8653-3.4431-0.67421-2.0786 1.617 1.0072-0.54405 0.77437-0.7123-0.51893-1.3357 2.1513-0.0507 0.63119 1.0154-0.73702 1.1977-0.75176 0.99721 0.42694 1.9043-0.36847 0.13527-2.4348 1.7059-3.5788 1.3469 0.42737 0.48327-1.8272 2.2568-1.3432-0.77516-1.4751 1.9469 0.70373 1.1986-1.2366 0.73768 0.53374 2.658-1.5118 2.5046 0.33034 1.1106-0.86579 2.6809-0.48339 3.9173-1.0284-0.58079 1.0674 1.2043 2.2857 0.52099 0.53054 0.67036-1.1092 2.5285-2.1347 3.4876-1.1978-1.633 0.1923-3.1421 1.2467-3.2792 2.7343-1.3281 0.34458-1.5172-1.8704-2.1233-0.13613 1.0141-0.31251 1.6662 2.0334 0.21321 0.9906-0.75228-0.37765-1.4843-1.2333-0.64244 0.1617-1.6438 0.0124 1.3608 2.8049 0.0879 0.62688 0.21496-1.1292 1.1442 1.6834 1.3576-9e-3 1.008 1.8307 1.4478-0.96316 3.0243-0.32877 1.0007-0.13719 1.3249-1.2049 0.0722-0.78937 0.64334-1.0942 0.0441-2.2248-0.53519-0.95252-0.92811-1.5633 1.4781-0.92355 2.1367-1.664 1.0118 0.6377 0.038 3.0693 1.41 1.0455-1.6623-0.62301 0.81735-2.0915 0.70969-0.80416 1.1739-0.34307 0.58292 1.5675 1.7803 1.5236 0.59266 0.59302 0.9889-3.5182 2.8893-3.1672 1.9424-0.57415 3.4541 2.0826 3.6281 3.7244-0.36917 1.1322-0.0318 2.841 0.53012 0.86665-0.42697-1.8439 1.5-0.46528 0.72553 0.88087 0.75741 0.93316-0.64942 3.759 0.72069 1.6252 0.76263-1.7343 0.67083 0.16159 1.6687 0.44946-0.65468 2.4912 4.5186 1.4733 2.8445 3.565 1.427 0.85136 3.4484 2.788 3.5582 4.1733-1.9002-0.84809 0.0638 0.61586 0.0679 1.631 0.0144 1.1065 0.0534 1.1405-0.46564 0.35387-0.51799 1.3296 1.7576 2.1384 0.37154 2.9589-0.24628 2.2002 1.6777 2.855 0.35266 5.1019-1.2314-0.81575-1.9206 2.3242-1.3596 3.3465 0.72014 2.5537-0.52225 3.6205-1.1801 6.1258 8e-3 2.0758-3.8208 0.79584-3.7466 1.9409 2.1763 0.0864-1.9674 1.6519-2.1144 2.6565-0.94169 0.91951-2.364-0.78893-2.6795 1.1024-1.6875 0.81879-3.265-1.0143-4.5351-0.0249-1.8658 0.35924-4.3699 1.0973-6.5844 1.1272-1.1414 0.0834-2.2847 0.137-3.427 0.20542 0.0604-0.25302 0.12148-0.50617 0.18151-0.75912zm17.581-3.1514c0.90827-1.9406-3.5034 0.66754-0.77463 0.37191 0.28015-0.0584 0.57711-0.15018 0.77463-0.37191zm-34.844-2.9144c-2.1597-1.3594-0.54225 1.5835 0 0zm-5.6319-5.6245c-1.0789-2.5034-0.95631 3.1674 0.04931 0.50234 0.03888-0.13349 0.15996-0.42188-0.04931-0.50234zm44.71 0.86599c0.61898-2.0166-1.5898 1.3092-3e-5 0zm-1.3936-0.59853c-1.2199-2.256-2.5859 2.2053 0 0zm0.0613-0.97776c-0.87807-1.3968-0.52465 1.2762 0 0zm-43.296-0.79375c0.717-1.2712-0.84569-0.70993 0.02831 0.39687l0.04283-0.11658zm0.16224-1.8592c-0.44797-1.1922-0.65296-1.4064-0.75817 0.18128 0.29867 0.52007 2.1231 0.77701 0.75817-0.18128zm44.721-1.2148c-0.91287 0.21958-5e-3 -1.8303-0.69601-0.24343-0.19749 0.69244 0.55014 1.049 0.69601 0.24343zm-28.565-0.37817c0.74151 5e-3 1.7209-0.26833 2.0627-1.4108-0.73576 0.39993-0.40909-1.6259-1.3885-0.17217-0.078 0.56544-2.3993 2.7718-0.67421 1.583zm-2.6562-5.2105c-0.99455-0.99889-1.497 1.9183-0.16671 0.24604l0.16671-0.24603zm33.404-5.1387c-0.23637-0.8724-2.5098-2.6631-2.0378-1.3215 0.61841-0.23646 2.0557 1.9792 2.0378 1.3215zm-28.228-1.8904c-1.1263-1.2872-0.36548-0.27663-0.37839 0.30399-0.5912 1.1062 0.86948 0.44932 0.37839-0.30399zm-5.3377-0.89304c-1.1312-0.32411-1.0693 2.1487-0.0479 0.30994l0.0648-0.17865-0.0168-0.13133zm6.4413 0.77442c0.54524-0.78836 1.1858-1.2371 0.88366-2.4164-0.67234 0.94805-1.9694-0.55032-1.9619 1.4318-0.0968 0.13836 1.405 1.967 1.0782 0.98464zm-1.1706-2.0674c-0.0121-1.6383-1.3301 2.1875-5e-5 0zm-6.0099 0.0582c0.65715-0.42922 2.3496-2.4328 0.29274-1.6179-0.89965 0.0258-0.53221 1.5635-0.74805 1.3949-0.038 0.0614 0.7976 0.80047 0.45531 0.22296zm2.1459-2.4671c-0.19908-0.85745 0.77675-1.1249-0.45082-0.59869-0.83389-0.28289 0.42067 1.7328 0.31723 1.1649 0.17274-0.0503 0.37735-0.45314 0.13359-0.56622zm7.3731-0.71142c0.53942 0.14703 1.9815-0.36349 0.38113-0.69216-1.4468 0.31638-2.6909 0.99462-0.87282 1.6206 0.32096 1.0789 0.29952-0.80051 0.49169-0.92843zm13.938 0.36053c-1.0211-1.0205-2.497 0.87235-0.48242 0.29568 0.14252-0.0718 0.45965-0.0703 0.48242-0.29568zm-19.513-1.4544c-0.43671-1.0433-1.7759 2.8136-0.36415 0.65515l0.146-0.27051zm3.7332 1.1237c1.3007-2.9756-2.1921 1.7179 1e-5 0zm-6.6323-0.34833c0.16554-1.1828-1.7868 1.1393 5e-5 0zm1.8676-1.4644c1.0132-1.7259-1.4488-0.64228-0.14087 0.54478l0.15788-0.23209-0.0173-0.31269zm-0.0941 36.231c-0.26289-1.1081-3.1617-1.1572-2.5335-0.43614-1.0565-0.23751-1.5777 0.0125-1.1394-0.95654-0.35875-0.9301-0.46671-1.6678-1.6179-1.4272 0.98257-0.8948 0.85917-3.2666-0.0307-1.3368-2.0356-0.15259 1.3445-2.3555 0.51959-3.2607 2.4409 0.27598 5.0252 1.6147 6.5074 3.5499-1.0093 1.3257 2.1354 1.7969 2.2864 3.3503-0.088 1.058-2.7687-0.54572-3.4311 0.25431 1.707 0.71113-0.12692 0.34121-0.56081 0.26285zm-6.3484-2.396c-1.2196-1.5585 1.3884-0.0846-5e-5 1e-5zm-0.0477-3.7437c-0.55136-1.0747-0.24346-1.7022 0.49765-0.6927 0.81354-2.4992 0.61264 2.4664-0.49765 0.6927zm-0.61356-3.0834c-0.0209-1.7452 0.93586 1.7155 0 0zm-2.4287-5.569c-1.725-1.5038 2.2585-3.2013 0.80898-0.93417 0.45504-0.11875 0.041 2.345-0.80898 0.93417zm-10.126-3.856c0.80176-0.40391 0.86933-2.237 0.98012-2.0028 0.95988 0.87204-2.1058 4.7237-0.98012 2.0028zm2.4337-3.6657c0.58509-1.2132 0.65251-3.0997 2.0433-4.5562 0.20671-0.22532 1.2768-1.761-0.21685-0.80531 0.22438-0.93351 1.5797-2.0955 1.139-0.54389 0.93771 1.0772-0.7407 1.9876-0.0532 2.5827-1.3376 0.49221-1.7566 3.8591-2.9122 3.3227zm3.5719-6.5c0.5702-0.64067 2.0707-2.7305 1.4812-0.8589 0.54842-0.64429 1.923-1.0942 1.393 0.0604-1.0376-0.2145-2.1577 1.0818-2.8742 0.79851z" fill="#c6dcb6"/><path d="m117.66 219.14c1.2456-2.3212 3.9505-3.4382 5.9559-5.0467 3.3189-2.3318 6.8832-4.281 10.318-6.4199-0.35539-0.81243-3.127 1.4072-4.2923 1.7444-1.7026 0.88565-3.4044 1.7725-5.1067 2.6587 0.0932-1.6395 1.2404-3.3401 0.88671-4.8258-1.5671 1.9479-1.1796 5.1291-3.4573 6.4978-1.2025 0.60789-2.6711 2.1712-3.602 2.3129 1.3137-3.2706 3.1562-6.2898 4.9588-9.3082 3.9725-1.8816 8.0018-3.6601 11.988-5.4942-1.1223-0.63351-4.0044 1.427-5.6889 1.8353-1.6927 0.69482-3.3834 1.395-5.0912 2.0522 2.2667-3.2948 5.2014-6.0503 7.7147-9.1454-1.4113-0.35745-3.7419 4.0772-4.014 0.80165-0.71977 0.88499-0.43826 3.5378-2.2335 4.4083-3.6085 3.7416-6.5779 8.0421-9.2306 12.498-0.39208-1.8824 0.45124-3.6496 1.5616-5.135 0.60801-1.3014 2.9154-3.62 2.482-4.3648-1.6743 1.515-2.894 3.4464-4.1736 5.29 2e-3 -1.8038 0.26655-3.6982 1.1384-5.2879 2.9847-2.5238 5.6305-5.4526 8.7514-7.8067 1.0578-0.60928 2.8176-2.556 3.3796-3.6999-1.0729 0.8787-2.1338 0.1167-2.2245 1.4156-0.80461 0.64455-3.6924 3.4305-2.3916 0.89633 0.14536-0.9877 1.3052-2.4505-0.0294-2.3993-1.1166 1.8352-0.96514 4.5221-2.7479 5.8001-0.11484-1.5592-2.9956-1.8021-2.6419-3.2766 0.46425-1.1139 1.0994-4.4899-0.23378-1.782-1.6336 3.0705-1.443-2.4796-1.0719-3.6475 0.51231-1.5865-0.15893-3.5873-1.503-1.657-2.082 1.0525-1.0056-3.9295-0.43287-1.4653 0.35978-1.0631 1.9314-2.1508 2.543-2.4776-1.9621 1.2932 2.5573 2.0414-0.042 0.88569 0.48228-0.19432 1.3325 5e-3 0.52402-0.88427 0.25636-1.6911 0.77504 1.5546 1.6138-0.52459 0.39654-0.46323 1.107-1.3857 0.89362-2.3033 0.30627 2.0571 3.437 0.75649 3.7792 1.1431-0.3695 1.1096-2.762-6e-3 -1.4133 1.1178 3.0811-0.0339 1.6452-4.7857 4.5655-5.3375 1.8358-0.15996-0.80597 2.5031 1.4082 1.8822 0.57047 1.1917 1.0498-1.4896 1.6386 0.40447 0.72508 0.73437-0.44279 4.0017 0.25588 4.0313 1.1449-2.2501 1.741 0.76778 1.472 2.1034 1.4818 0.18226 3.405 0.20223 2.8274 1.7325 1.9049 0.81791 2.5 2.9321 3.8039 4.5459 0.80545 2.0461 2.8518 4.1383 2.2127 6.1143-0.08 2.0216 0.083 4.8906-1.933 5.942 0.91873 0.6184 1.074 2.8257-0.0171 2.2557-0.51601 1.6-0.8205 0.96741-0.53485-0.26215 1.2801-0.43347 0.0267-2.4016 0.28799-0.55369-2.7167-0.25739-1.7156 4.7625 0.29597 2.441 1.0686-2.6848 0.85797 2.7777-0.43598 3.2295-0.67859 0.99949-0.31358 0.9195 0.0113 0.70899-0.58671 0.67039-1.9828 0.81699-1.0713 1.1747-2.0798-0.32329-3.3923 2.3959-5.0602 0.64199-1.624 0.57476-1.4724 3.23-2.9978 3.3414-0.97534 0.95753-1.2293 0.16941-2.2929 0.58879-0.62957-0.74958-1.441 0.37609-2.1004 0.0634-0.41004-0.43585-2.971 1.6338-2.0807-0.0658-2.3187-1.3036-1.4788 2.0809-3.7497 1.2666-1.1837 0.0727-2.3675 0.14527-3.5512 0.2179 0.0598-0.29091 0.11858-0.58266 0.17897-0.87309zm19.884-10.641c1.4905-0.71008 0.45232-4.6667-0.19409-2.0624-1.5088 0.44469-2.631 3.4353 0.19409 2.0624zm2.1084-5.5767c-0.0609-2.35-2.9535 0.16858-0.53471 0.67733 0.42493 0.24263 0.60472-0.41769 0.53471-0.67733zm-4.7625-6.0452c-1.4334-0.70989-1.8813 0.9397 0 0zm-13.15-0.80207c-0.55684-1.4961-0.0976 0.60938-1.0059-0.0512 0.38719 0.40802 1.5782 1.4103 1.0059 0.0512zm19.696-8e-3c0.52717-2.1646-2.5185 1.9312 0 0zm-3.6742-4.1268c-1.6019 0.15237-0.5494 2.1871 0.0679 0.2451l0.0102-0.15977zm-12.48-3.5751c0.93682-1.8866-1.6317-0.33969-0.15297 0.36464l0.16575-0.10711zm5.9041-1.626c-0.76396-1.6393-0.13388-0.25714 0.64726-0.46289 0.23612-1.6655-2.9211-1.3563-2.964-0.19226 1.2356-0.0527 1.3344 0.37427 0.69542 0.59246 0.33324 0.61311 1.6644 1.3809 1.6213 0.0627zm-12.804-0.54454c-0.51877-1.7377-1.4881 0.51255 0.0491 0.29281l-0.049-0.29287zm4.1912-0.2526c1.2475-0.0992 2.0314-0.55471 0.32424-0.53985-0.98878-0.135-2.0869 1.6348-0.32424 0.53985zm3.7332 0.0313c1.1593-1.7145-2.392 1.2338 0 1e-5zm5.6734-2.9104c-0.91826-3.765-0.71979 1.8225 0 0zm-19.138 35.901c-2.3587-0.52438-4.5483 0.0579-6.249-1.4304-0.2807-1.7041-0.84636-2.3274 3.2e-4 -3.9257-2.3503 2.1112-0.67623-2.507 1.1222-1.0684 2.1408 0.82055 3.6764 2.175 4.4035 4.2194 1.4097 1.9522-1.2417-1.0304-1.7397-0.16666-0.85496-0.91705-3.6191-0.45256-3.0676 0.5539 1.8049-2.1393 2.4273 2.3711 4.8564 0.88785 1.1931-0.72847 2.982 1.7389 1.0392 0.75673-0.0807 0.1252-0.19648 0.57576-0.36534 0.17329zm-11.474-1.7916c-0.67995-1.0302-1.9352-3.173-2.3454-2.9787-1.0907 0.8305-1.9814-1.8838-3.1158-0.0943-2.2665-1.1443-4.1855-3.0681-4.0077-5.8198 0.1566-2.1206 0.65308-3.8127 0.43458-6.3552 0.99224-1.3855 4.1783-3.0978 3.1421-5.174-0.55726-1.6783 1.6489-3.4694 2.6366-4.9364 1.5024-1.5643 4.7041-0.90443 5.638-2.6648 1.6795 1.1449-0.41419-3.3044 0.85926-2.2153 0.45667-1.9978 2.8245 0.84769 0.77303-0.28772-0.72866 0.74438 3.9166 1.8241 1.7939 3.5229 0.066 1.3438 0.0465 2.9668 0.36451 4.3408-0.44465 1.5644-3.2636 0.58096-1.7913 2.3442-1.0839 0.18402-2.5719-3.7549-1.9423-1.1408 0.91598 0.84289 1.2563 1.4526-0.21985 0.50718-0.648 1.9391 3.7555 0.26836 2.6087 2.9863-0.9561 1.0008-4.9319-3.1308-2.7064-0.31954 1.6346 1.7536 2.7832 2.3234 4.6378 3.7798 2.2003 1.3779-1.4024 2.9921-1.8215 0.67529-1.6169-0.9505-0.84334 1.336 0.0345 1.0304 0.34628 1.2562-1.6377 2.2953-1.1889 4.0221-0.58934 2.1257 0.14072-1.4486-1.1719 0.13736 1.049-0.72117 1.5537-3.541 0.42408-1.0972-1.1916 1.4848-0.45538-1.7001-0.0711-2.2433 0.45882-1.0881-2.7064-0.80867-1.0627-1.5089-0.3317 1.6334 1.3009-0.94535 0.22629-1.3999 1.543 0.37373 1.4801-2.9891 0.81226-0.47879-1.6383 0.32479-1.8859 0.71992-2.3158-0.55957-1.5286-0.14527-0.34783-0.92419-1.5145-1.6606-0.0229-0.83176-2.2042-0.91381-0.57266-1.6659 2.0364 1.1853-0.19623-1.0887-1.0687 0.0206-0.66442-0.92118-2.3922-0.32841-1.0234 0.71557 0.03327 2.117-1.1625-0.2617-1.1964-0.45588-0.84045 0.99986-0.7847 2.2278 0.1313 2.6147-1.5176 0.84501 1.4294 3.3799-0.72514 1.6352-0.61638-1.1962 0.46006 2.6662 0.95834 1.2164 0.46533-1.4197 0.97391-1.8098 1.737-0.23953 0.3306 1.2674 2.109 2.571 1.8417 3.2927 1.3108 1.1101-2.5595-0.1936-1.4516-1.4923-1.9567 0.92309-1.8354 2.5708 0.25599 2.4314 1.0306 0.68911 2.0915 4.1176-0.29092 2.7823-1.5355 0.715-2.838-1.7541-4.1594-1.2372 1.4136 1.1199 0.45521 0.90381-0.65313 0.27855 0.4651 2.1116 2.7302 1.9713 4.0803 2.7271 1.6991 0.10558 1.5111 0.37341 0.81106 1.2168 0.83883 0.12702 2.8243 0.0562 1.6626 1.491-0.12666-1.4378-1.8448-0.27766-0.21153 0.14299 0.8989 0.7803 1.1021 0.60368 0.79645 1.6317 0.97039-0.70233 1.1672 1.903-0.0323 0.48238zm-6.2975-8.334c0.32538-0.34043-0.07896-1.3446 0.31916-1.9787-1.5077-0.43155 2.9467-0.6751 0.6599-1.9173 1.9519 0.01-2.6037-1.4291 0.02021-1.1648 0.77506 0.11245-1.8045-1.4203-0.34989-2.0752-1.551 1.1077 0.7135-2.9135-0.88262-1.4492 0.41909 0.58508 0.7767 0.62591-0.65002 0.67838-1.035 1.556 1.2979 5.112-0.56103 5.5719-0.15983 0.71628 0.11626 3.3601 1.4443 2.3349zm6.7469-11.216c-0.8086-1.7039-0.58224 1.1978 0 0zm-2.3813-0.95435c-1.4636-0.40634-0.96075-1.1365 0.23335-0.22224 1.2908 0.9443-0.23632-0.86162 0.94426-0.59258-1.0404-0.16024-0.74521-0.96761-2.1327-0.27276 0.12865-1.0923-0.41243-2.1939-0.51272-0.40439-0.80101 0.46955-1.2814 1.34-0.18544 0.80978-0.43579 1.0356 1.1725 1.1473 1.6532 0.68219zm4.4258-3.1667c-0.88452-1.3264-0.40289 2.0154 0 0zm3.0768 0.35502c-0.116-0.98196-0.34741-1.5195-0.87052-0.18651-0.1201 0.37943 1.1538 0.44697 0.87052 0.18651zm6.5249 19.285c-1.9616-1.7623-3.2252-4.237-4.5275-6.5171-1.274-1.9854 1.2971-2.7684 2.6209-1.2404 1.7606 1.346 4.0792 2.8577 3.2482 5.4051 0.0289 1.2186-1.1275-1.0087-1.653-1.2623-2.0474-1.6797 0.6086 2.0292 1.0117 2.732 0.60667 0.79393 0.27813 1.4375-0.70035 0.88278zm-4.8524-1.6541c-0.99378-0.74124-3.8214-1.5045-1.962-2.3685-1.4554-0.2518 1.9315-3.176 2.0604-0.63573 0.45185 1.076 2.8341 3.8462 1.8798 4.0065-0.67174-0.30907-1.3266-0.65355-1.9783-1.0023zm4.3715-6.3926c-1.2666-0.69777-2.7156-2.1619-0.77532-2.3714 0.71296-1.4736 1.9902-0.52975 1.3898-1.8359 1.21 0.18942 1.2097 2.3685 2.0407 0.42392 0.95191-0.30871-0.47088-2.5138 0.87916-1.0866-0.25481 2.0166-0.52607 4.4935-1.3783 6.1936-0.79655-0.2954-1.4659-0.84336-2.1561-1.3235zm-11.739-0.29035c-1.4279-1.1431 0.48844-0.87994-0.0964-1.9904 0.89612 0.73699-0.50329 1.4521 0.55744 1.822l-0.025 0.49911-0.4355-0.33073zm16.586-2.592c0.56138-1.232 0.4566-4.3972 2.2456-2.6634 0.72992-0.76083 1.4258 0.6336 0.0145 1.1804-0.27468 0.13121-2.6765 2.7405-2.2601 1.483zm-8.6225-0.16093c-2.0908-0.71555-1.1283-4.5354-0.012-2.4442 0.33143 0.40918 1.234 1.3952-0.15251 1.6524 0.51437 0.0885 1.5643 1.0951 0.16453 0.79179zm1.1649-0.20898c0.36221-0.72785 2.7752-2.1852 1.1201-0.54387-0.21385 0.0686-1.1798 1.5177-1.1201 0.54387zm-11.826-0.27929c0.69435-1.742 1.2594 1.3653 0 0zm14.495-0.9039c1.3192-1.3211 0.82825 0.47197-0.3451 0.44041zm1.403-0.26964c0.64704-2.3207 1.5542 1.961 0 0zm-7.9841-0.10682c-0.93062-1.8996 1.6953 1.0618 0 0zm10.438-1.4498c0.9031-2.0556 0.72426-0.132 0.0743 0.31592zm-9.2604-1.868c1.1397-0.30083 1.8993-1.8424 0.21128-1.3831-1.7124 0.60794 1.3757-1.5136 0.1203-2.2742 1.395 0.1001 1.0443-0.14929 0.48244-0.93532-0.38652-1.6109-0.23099-3.0966-0.63959-4.3589 1.0361-0.0151 2.3744-1.3319 2.4508-0.0877 0.58897-1.2659 1.681-0.53566 0.89771-2.1932-0.59324-1.4621 1.9591-0.64476 0.30867-0.19939 2.5925 0.59222 3.3306-4.7316 0.413-3.3989-3.0675 0.0631 2.1406-3.2276 2.653-0.68082 1.1198-0.0547 1.4487 2.07 0.3461 0.5599-1.6736-0.53988 1.8654 2.3754 0.16448 1.324-1.9999-1.6259 1.0043 1.2019-0.66372 1.8148-0.68065 0.58075-1.8862 1.8145-2.4314 2.3398-0.73534-0.20437 1.1612 1.3211-0.58807 1.0144-1.3219 0.25404-1.8418 1.3425-0.81468 2.6584 0.12951 1.0206-1.6034-0.92281-0.9177 0.69323 1.4928 1.3776-0.87684 2.7304-8e-3 4.5195-0.79445 0.21589-0.97689 1.3811-1.9844 0.58756zm5.5736-15.387c1.6676-1.3555-2.4187-0.29202-0.39704 0.19344l0.39708-0.19344zm-5.6492 10.589c0.64549-1.9053 0.77531 0.81254-0.0364 0.37664zm33.798-0.60125c-1.6809-2.1033 1.9569 1.2591 0 0zm-3.6613-3.0237c-0.42588-1.5487 3.0179 0.45727 0.33259 0.0998zm-24.944-0.69207c0.16394-1.5056 2.0382-2.864 2.2158-1.0225-0.32242-1.4106-2.1213 2.1322-2.2158 1.0225zm-5.2227-1.7937c0.43662-0.70863-0.88844-1.614 0.42661-2.4791 1.6044-1.634 0.62138 1.6259 1.7798 0.12735 0.0253 0.91111-3.2646 0.79939-1.4536 1.3461 1.2449-0.86939-0.46115 0.87996 0.27392 1.0177-0.19636 0.22002-1.9739 0.83645-1.0268-0.0121zm5.1126-1.3156c-0.52622-0.93533-0.30726-2.884 0.12427-0.81791 0.058 0.0486 0.25488 0.97041-0.12427 0.81791zm3.5994-0.33086c1.5954-1.0791 1.5713-0.27552 0.0758 0.22897-0.63061 0.49129-0.43494-0.19329-0.0758-0.22897zm17.154-1.3669c0.0492-2.8202 1.1228 1.026-1.9e-4 1e-5zm-23.909-1.0461c1.6122-0.89374 0.18113 0.81177-0.3621 0.264zm15.513 0.19907c0.0647-1.1318 1.8771-0.82597 0.25101-0.0287zm-3.456-1.9012c0.48002-2.0335 1.9761 1.0798 0 0z" fill="#bad5a6"/><path d="m119.19 219.39c-3.1751 0.27472 0.10394-2.334 1.0789-2.6379 3.1362-2.8908 6.9369-4.9982 10.594-7.165 0.87955-0.66707 3.3197-1.4019 3.2386-2.3346-3.2613 1.4193-6.3585 3.1871-9.5269 4.8004-0.0217-1.5068 1.6362-3.7709 0.75496-4.606-1.4867 2.0306-1.2566 5.1245-3.6838 6.4139-0.97779 1.004-3.6173 2.1806-2.1161-0.27063 1.1303-2.3569 2.5201-4.5752 3.8132-6.8438 3.75-1.6479 7.3872-3.5983 11.296-4.8484 1.5029 0.11279 2.9397-0.85209 1.1214-1.6628 0.67924 1.5408-1.881 0.64436-1.7054-0.4489-1.8399-1.8473-0.64729 0.5328-0.43528 1.4502-2.7236 1.5225-5.7594 2.4733-8.6582 3.6346 1.2587-2.4843 3.6384-4.304 5.2795-6.5598 0.81648 0.22039 1.841-2.0665 1.7056-2.3998-1.3326 0.33977-2.2821 0.18178-1.7727 1.0315-0.70048 1.2173-1.9108 1.6839-1.8302-0.1611-0.59778-0.97207-1.0759-2.1695 0.69343-1.4632-1.5676-0.92139 3.0762-3.3555 1.0252-2.696-1.1167 1.2633-1.8957-0.1716-2.8416 0.51723 1.314 1.9414-2.0038-0.17254-0.81972-0.82381-0.83804-0.35412-2.6229-1.699-2.8237 0.0144-1.9406-0.0326 1.5073 1.0615-0.86174 0.50108-1.33-1.0052-0.98904 0.73994-1.5103 1.3552 1.3267-0.0994 2.0869 1.3684 0.37264 0.59339-2.301-0.71114 1.4628-4.6065-0.90327-3.5508 0.95505 0.74646-0.93816 1.3105-1.338 1.6342 0.44938-0.38668 0.53553-2.208-0.31242-2.0404 0.93281 1.3337-1.6426 1.7526-0.37927 0.18531 0.79499-1.685-0.44899-4.5041 0.16705-5.5072 0.39966 0.45806 1.962 0.78399 2.5826 0.48047 0.55278-1.2528 1.0169 4.4637 1.855 1.3281 0.12056-1.1441 1.6128-2.399 0.16542-3.0565 0.2173-0.56992 0.0427-1.5486 0.62545-0.26069 0.42123 1.2898 3.3672-2.5571 2.475 0.0861-1.3027 0.13138-1.7849 0.75755-1.5935 1.9579-1.3849 0.0564-0.84106 0.95761-0.18302 1.2441-1.31-0.18018 0.11752 0.79678-0.4205 1.1996 1.5526 0.068 1.055 0.60681 0.64539 1.3195 1.0551-0.1177 0.94342 0.51094 1.848-0.15799 0.31914 0.78851 0.71018 2.1888 1.5977 2.4278 0.86361-0.67403-0.14989-3.8376-0.0167-1.5178-1.298-0.80573-0.71613-1.4591-1.1385-2.3287-0.80709-0.7599-1.7453 2.2002-1.0734 0.20703 0.55704-1.8196 3.2231-3.3298 3.8815-1.0458 1.8484 1.2342 3.5436-1.9337 0.90427-2.2426-1.0928-0.54077-3.4142-0.56875-1.4063-1.714 0.29572-0.47552 0.15816 1.8971 1.2834 0.58232-0.50737 1.673 2.2249 0.32446 2.8104 0.33749-0.10767 1.1569-0.43123 1.6596-0.11603 2.8334-2.0445 1.8549 2.0326 3.6614 1.1269 5.8164-1.6253 1.1116-2.5349 3.9445-0.90034 5.4109 0.83793 0.79213 0.67804-1.3466 1.2489-1.8629-0.23828-1.4557 0.46607-3.0882 0.55705-1.0009-0.36324 0.77322 1.3005-0.11238 3e-3 1.0004-0.66892 0.57334 0.4904 2.8419 0.51391 1.3998 0.93616 1.7823 1.301 0.55191 0.98399-0.072 0.84613-0.93461 1.348 1.6685 2.2423-0.0313 1.0151-1.2301 3.3981-3.1389 3.143-0.0975 0.24911 2.3801 0.39358 5.2751-1.4273 7.0918 0.71955-2.9708-0.91852 2.0699-1.392 1.2259-0.2904-0.86618-1.3099 2.1558-0.88954 0.0681-1.2197-2.2642-1.8986 1.7534-3.6673 0.99734 0.0316 1.4525-0.11981 3.8619 2.0022 2.3686 1.3772-1.9284 2.1478 0.45615 0.87833 1.549-0.39677 1.5726 1.2936-1.5364 1.0158 0.59901 0.18628 1.101-0.68473 2.2919 0.4744 0.80481 0.70678-1.1955 0.42217-3.1425 1.6299-2.958 0.7209 0.11018-0.99948 2.9918-1.84 3.8465-1.169 1.0338-2.9184 0.92532-3.8932 1.7646-1.6526-2.2236-2.9924 1.006-3.772 2.0294-0.66321-1.3896-1.3662 1.0097-2.172-0.17522 0.39277 1.7092-0.89819 0.44839-1.8375 1.6572 0.94035-2.0253-2.5055 1.4186-3.0552-0.513-1.3422-1.3607-4.387-0.0847-1.9934 1.279 0.21846 0.69938-2.3099 0.13941-3.0183 0.12076l-0.30918-0.11009zm15.963-13.12c0.94077-0.15358 1.1625-0.89227-0.18429-0.80871-0.28992 0.72495-0.69359 2.1835 0.18429 0.80871zm4.3467-2.6081c1.583-1.5312-2.0906-2.752-1.4921-0.58723 1.4621 0.16898 0.13891 1.6548 1.4921 0.58723zm1.6837-4.2778c0.73378-1.874-1.8373 2.0604-0.32543 0.3444zm-10.384-0.22744c-1.1694-1.2586-2e-3 2.2198 0.17625 0.20469l-0.17624-0.20469zm-1.5621-2.0711c-0.69001-1.8321-0.26206 1.8268-2e-5 0zm-6.4619-5.7564c-1.3186-0.62832 0.48746 1.7581 2e-5 0zm-3.1644-1.6051c-0.49479-2.0104-1.0423 0.68104 0.10101 0.25391zm11.838-0.48676c-0.30699-1.5831-3.5204-1.4938-1.1906-0.058 0.25434 0.11578 1.0789 0.64032 1.1906 0.058zm-2.9104-2.0773c-0.29336-1.1875-1.7196 0.84013-0.16496 0.17583zm-15.544 31.438c-2.1301-0.59951 1.0252-0.56915 1.1118 0.25606-0.38169-0.0311-0.74455-0.15898-1.1118-0.25606zm9.2672-0.32012c1.5087-1.4274 0.96192 0.88605 0 0zm-14.469-0.13864c0.0976-1.8619 1.3134-0.41008 0.22246 0.21888zm1.6957-2.0764c-0.73086-1.1991-2.0106 0.4858-2.2366-0.76986-1.7811 0.65131 0.64776-3.1301-1.3237-1.2767-1.9245-0.0336 1.7166-2.8668 2.5529-1.0722 0.64186 0.2976 3.3439 2.1354 2.4042 2.0474-0.96211-1.5118-0.052 2.6891-1.3969 1.0714zm-11.747-2.3737c-0.92069-1.7053-1.6961 1.7467-2.866-0.38658-1.6961-7e-3 -3.3987-4.1516-2.4647-3.9393 0.70657-0.47882-0.08184-3.2703-0.36593-1.1734-0.78044-2.8845 2.0652-0.22869 0.97364 0.64598 0.66261 0.97945 1.8681 1.7286 1.8017 2.738-0.0015 0.93493 2.798 0.0153 3.4855 1.0184 1.509 0.1727 0.72226 2.709-0.56416 1.097zm-2.8047-1.1451c-1.0151-0.93268-2.2763-0.44127-0.37482 0.25208l0.27114-0.0492zm21.711 0.0471c0.25402-2.8201 2.5443-4.8873 3.8306-7.286 1.3669-2.9982-1.9706 1.4701-2.5807 2.337-0.67575 1.1161-1.6206 1.8524-1.1027 0.0152 0.28096-0.96145 0.094-2.1837 0.65048-3.0042 1.5238-1.3279 2.8556-2.961 4.6598-3.9009 0.8133-1.2544 2.6507-3.5548 3.9736-2.1004-0.31723-1.2627 1.4842-0.0701 1.5098-1.3138 0.77562 2.4701-2.1088 3.9336-3.31 5.6829-2.9017 3.1668-5.0813 6.8895-7.4645 10.438-0.31073-0.0169-0.0652-0.69409-0.16643-0.86829zm-3.1906 0.41157c-1.6227-1.6976-3.0902-3.6752-4.0529-5.8165-0.51407-0.77579-0.16625-2.7974 1.0562-1.5858 0.88631-0.83954 2.5736 1.1743 3.6165 1.8507 0.92497 0.40442 1.0194 1.1556 0.7702 2.0502 0.26698 3.1207-1.8466-0.9269-2.5645-0.39227-0.0123 0.78041 4.0068 5.2537 1.1745 3.8937zm-4.9505-1.6135c-1.3074-0.58823-2.5723-1.2023-1.657-2.4086-0.0818-0.52532 0.97953-0.82608 0.90838-1.4637 1.1306 1.3458 3.0912 3.8576 3.0537 5.0468-0.78619-0.35498-1.5452-0.76726-2.3051-1.1745zm-10.789-2.5597c0.18025-0.82318-3.0384-0.0634-1.4373-1.6781 0.38639 0.97294 0.47256 1.4024 0.7879 0.51782 1.076 0.45793 1.6326 1.6523 1.0823-0.12109 1.8563 0.25345-0.98164 2.7478-0.43292 1.2814zm6.6449-2.2781c0.11508-0.90239-0.86502-0.30249 0.44849-1.0287 1.3571-0.62069-1.1728 3.0396-0.44849 1.0287zm9.1493-1.0769c-0.99634-0.48518-1.8262-1.3488-1.072-2.191-0.55042-0.66103 1.8735-1.0492 1.644 0.3483 0.88214-0.23443 0.30372-1.0078 1.404-0.46263 1.0806-0.68491 0.074 3.4268-0.54155 3.3373-0.47812-0.344-0.95629-0.68798-1.4344-1.032zm-21.221 0.47379c0.53894-0.93272 1.1921-1.6594 0.17742-1.4522 0.61462-0.87507 0.40209-0.54208-0.14285-1.2086 1.3738 0.23791 0.78775-1.2918 0.0332-0.72622-0.2153-1.0239 1.9132-2.0059 1.38-7e-3 -0.13635 1.2603 0.6662 3.9727-0.37087 2.927-0.08369 0.18313-0.96258 1.0524-1.0769 0.46658zm13.562-1.0504c1.06-1.8321-0.59325 2.0979-4e-5 0zm-1.6824-0.34196c-0.94315-0.9047 1.2995-3.3093 0.51858-1.8104-1.0713 0.38046 0.88242 1.442-0.51858 1.8104zm3.0219-0.3736c0.30908-0.9399 0.599-1.2549-0.32122-2.1536 1.8315-0.5554 1.7759 3.4163 0.32122 2.1536zm-1.1704-1.1626c-1.4158-0.93815 1.1201-2.9957 0.41697-0.71143 0.34761 0.5376 0.74638 1.4146-0.41697 0.71143zm12.179-1.8574c0.49062-1.3273 0.45419-2.3231 1.0548-0.7417 1.6704 0.27967-2.0278 3.0051-1.3282 1.7404 0.0911-0.33288 0.18225-0.66577 0.27338-0.99865zm-16.082 0.10825c-0.41219-0.71891 0.98761-0.56815 0.37854-1.4554 0.60341-1.9436 1.9147 0.0902 1.3455 0.5668-1.1482-2.6676-0.22176 2.1322-1.724 0.8886zm6.5754-0.63294c-1.9029-0.5977 0.83995-1.5154 0.46159 0.1625-0.13717 0.20895-0.47646 0.0687-0.46159-0.1625zm-6.8708-0.97657c0.14477-1.2296 1.6266-2.0014 0.52077-0.30905 0.0919 0.33117-0.49426 1.0895-0.52077 0.30905zm2.5601-0.92696c-2.5837-1.7066 3.2824-1.4015 1.0696-0.30249 1.0163 0.74739-0.75554 0.89774-1.0696 0.30249zm-8.6043-0.49426c1.0993-1.5352 0.57333 0.86369 0 0zm4.3822-0.69501c-1.6628-1.3096 2.3882 0.53719 0 0zm2.2385-0.22456c0.0944-0.46189 0.47047-0.74159 0.64461-0.83253 0.8419-0.18274 0.1024 2.1145-0.64461 0.83253zm-6.7364-0.37699c-0.94892-1.7615 1.5991-3.493 2.4831-5.0615 1.1389-1.5938 5.3264-1.4669 2.5445 0.38688-0.74531-9.5e-4 -2.42 1.8442-2.1621 0.22843-1.0328-0.078-1.437 2.1294-0.62317 0.75773 0.96343 1.5135-2.04 1.1633-0.96121 2.52-0.18797 0.3983-1.542-0.57048-1.3485 0.78114 0.60311 0.23969 0.92104 1.1908 0.06743 0.38725zm4.9609-5.3015c0.73862-1.7859-2.2089 1.674-3e-5 0zm3.6832 3.5827c-1.3134-0.84375 1.0408-3.7806-0.035-1.0549 0.46925 1.1072 1.911-0.90805 0.53549-1.1213 0.34426-1.3475-0.53383-1.9142-0.76258-2.4518 0.27559-1.6191 1.0115-1.2753 1.7213-1.0622 2.0804-1.5735-0.87463-1.1824-0.95-1.1884 0.45575-1.9922 3.4372 0.47891 2.3594 1.8654 0.58429 1.6752-3.0414 4.0473 0.16151 4.1534-0.29742 1.2351-0.97949 1.4288-1.1936 0.45216-0.42331 0.78824-0.33195 1.1801-1.2813 0.38838 0.12006 0.61504-0.392 0.79897-0.55511 0.0193zm14.353-0.84867c-0.6937-2.2815 0.57907-1.1167 0 0zm5.2476-0.35277c1.281-1.5794 0.66652 1.0231-0.3255 0.43973zm10.98-0.58858c0.20047-1.0486 1.9181-1.6198 0.99182-0.37857-0.40867-0.15177-0.63958 0.36728-0.99182 0.37857zm-0.0374-1.8588c0.11539-1.1129-1.0376-2.8164 0.66988-1.3409 0.75504-0.47654 3.0528-1.9485 1.5108-0.0359-1.3778 0.94975 2.0795-0.26049 0.10846 0.90535-0.80656-0.3264-1.904 1.2868-2.2891 0.47145zm-26.417-2.6238c-1.2276-1.2262 1.2203-0.64104 0.0482 0.28845l-0.0482-0.28842zm27.248-0.62843c0.75416-1.0428 1.1292-1.5237 0.74495 0.0412-0.15946 0.16382-0.59247 0.14645-0.74495-0.0412zm-10.061-0.63797c0.30462-0.98392-1.0777-1.5156 0.73914-1.5873 2.5162-1.9424-1.3085 3.3378-0.73914 1.5873zm9.44-0.15536c-0.50087-0.0892-1.5676-0.78495-0.0976-0.79302 1.0513 0.47227 1.3016 1.3953 0.0976 0.79302zm-7.8854-2.2932c-1.0891-0.87308 0.42194-2.949 0.27162-1.0966-0.21995 0.7902 1.6878 2.3152-0.27158 1.0966zm-6.8396-0.19413c1.1042-2.7512 0.56877 1.9254 0 0zm-6.6062-0.57853c1.172-2.7697 0.74746 0.7079 0 0zm17.454-0.52628c-1.5311 0.66873-0.40831-2.7172-0.21155-1.0007 0.15653 0.77253 2.1102 1.1551 0.32499 1.2109l-0.11344-0.21025zm-3.0616-2.0664c0.14172-0.70249 1.1353-1.3842 1.0826-0.0509-0.38745-1.2896-0.74577 1.3494-1.0825 0.0509zm-6.287-1.5187c-0.5565-1.7847 1.714 0.56774 0 0z" fill="#abcc92"/><path d="m118.88 219.15c-2.3745-0.86171 2.4098-3.0763 2.6852-0.35578-0.99762 0.6013-1.5871-0.12426-1.7482-1.2274-0.0488 0.94113-1.4372 1.1846 0.25628 1.5759-0.12643 0.4432-0.97262 0.29688-1.1933 7e-3zm8.075-1.9769c-0.53967-1.4632 2.0882 0.26584 0.28576 0.28067l-0.28579-0.28033zm-3.3069-0.39522c1.4224-1.2434-2.969-0.60221-0.8808-2.0234 3.5656-2.7781 7.6902-4.7067 11.431-7.2064 1.0782-1.1648-3.4e-4 1.6188 0.80728 2.1624-1.3148 0.37472-0.15414 1.1925-0.40532 1.8013 0.62095-1.0226 3.3454-1.2873 1.2358-0.29352-1.3556 0.11453-2.2469 2.89-0.56966 2.0492 0.69692-1.2804 1.7144 1.1238 1.7065 0.90432-2.0813 0.55401-5.1004-1.5692-6.2846 0.90158 1.8183 0.79231-1.4171 0.0273-0.50449 1.0038-1.2871-0.17398 1.2056-2.7742-0.8198-1.0057-1.262-0.65074-4.4059-0.91744-2.952 1.0356-1.0823-0.50472-1.8478 0.82389-2.7635 0.67086zm9.3163-4.2571c-0.92204-0.24818-1.994-2.6754-1.8747-0.56932 0.93903 0.46645 1.3778 0.86733 1.8036 1.3159 1.1252 0.10951 0.42413-0.1592 0.0711-0.74656zm-25.296 2.8715c0.0497-0.83079-1.7425-0.73214-0.40158-1.6036 0.27055-2.1922 2.7883 3.0398 1.0144 1.4105-0.45987-0.11957-0.54903 1.272-0.61285 0.19309zm0.41658-1.4604c-1.6947-0.88837 1.1039 1.745 0 0zm11.512 0.77945c-0.52921-1.7556 1.9212-4.2475 2.7164-6.1761 1.4774-2.6883 4.7162-3.3414 7.3312-4.3956 2.1276-1.2919 4.7815-2.8997 7.2729-1.5558 1.4173 1.2683 2.4951 2.6174 3.4504 0.31419 1.2427-1.8746-0.24803 2.3706-1.5533 2.1703-1.6624-0.45771-1.543 1.7882-2.6283 0.32752-1.7794-0.93181-0.6493-1.7479 0.55366-1.9344-0.13731-1.2804-1.4009 0.92667-2.4717-0.33548-1.6493-0.67601-1.9171 0.94695-0.45325 0.69089 1.3983-0.36969-0.18482 2.3029-1.1855 2.1258-0.39408 0.93708 2.5282-0.6852 1.3642 0.91556-3.0419 1.8906-6.2954 3.4256-9.4166 5.1857-0.0104-1.6155 1.5805-3.6118 0.93874-4.796-1.6783 1.6878-1.3653 4.5911-3.2054 6.1176-0.79714 0.59854-1.6778 1.2958-2.7135 1.3458zm10.568-9.0838c-1.6032-0.0834 0.85524 1.2052 0 0zm8.1634-1.1294c-1.0066-1.8259-1.8119 1.5819 0 0zm-21.696 8.2073c0.41174-3.2798 3.2172-5.58 4.3978-8.5562-1.8312 0.7567-3.0004 3.9473-4.3046 4.6851 0.0653-2.401 0.63289-5.1824 3.1876-6.1019 1.278-0.79887 2.2508 1.6767 2.7241-0.59725-0.19346-1.3214 0.77822-3.6335 0.97133-1.4357 0.58284 0.35587 1.3562-0.6882 1.5931-1.0708 0.12186 2.1431 0.59245 0.18923 1.5044-0.0537-0.30362 1.6605-2.6935 3.2782-3.7438 4.9611-2.3308 2.8327-4.2779 5.9454-6.2342 9.0398-0.1345-0.27077-0.0669-0.58324-0.0959-0.87042zm-3.7706-0.30661c-1.2992-1.5571-3.7656-4.4765-1.2691-6.0336 1.7162-0.54039 4.4904 2.5553 2.7488 4.1257-0.7506-0.79096-3.1782-2.6809-2.1158-0.45346 1.2017 0.21112-0.67102 1.663 1.0605 2.1658 0.11087-0.0751 0.82218 1.2634 0.75079 0.12217 1.4347 0.97407-0.89953 0.8392-1.1753 0.0733zm-2.204 0.0479c-1.4044-0.53127 0.3194-1.3323 0.31925 0.28017l-0.15693-0.0192-0.16237-0.26101zm3.4611-6.5831c-1.3385-0.26209-1.0284-2.605-0.29334-1.2615 0.95145-1.0257 2.5458-1.3283 1.7231 0.61599-0.32691 1.5575-0.21149 1.6484-1.4298 0.64549zm11.205-1.7245c0.93107-1.5058 2.592-3.2688 3.744-3.1245 0.67522-0.99186 0.33064 2.4079 1.3715 0.74443 1.5-2.5861 0.16425 1.8885-1.4897 1.52-0.61537 0.0563-5.1901 2.6229-3.6259 0.86005zm-7.3685-1.9459c1.2323-2.1359 1.4608 0.0306 0 0zm24.069-0.1708c-0.0708-1.2664-2.2759-1.4126-0.47321-1.9642 0.70748 1.8164 1.1704-2.3352 2e-3 -1.9512 1.2696-1.4291-1.0218-2.1407-0.41144-0.16903-1.319 0.76993-2.2517 3.1755-0.89305 3.424-1.0782 0.65143-5.3872-0.82092-2.3946-0.32643 1.1981-1.5886 1.4464-3.9449 3.54-4.7793 1.0412-0.86172 0.75398 1.889 1.0679 2.4813 0.21805 0.43648-0.25343 4.6385-0.43783 3.2848zm-10.84-0.0661c0.48309-0.32295 3.4263-1.6004 1.5629-0.29331-0.39123 0.16397-1.2648 0.96108-1.5629 0.29331zm3.821-3.5564c0.54887-4.0303 0.1337 2.7686 0 0zm-2.9893-1.4417c-0.33478-0.47998 0.87114-1.8418-0.71362-0.8903-0.79478-0.99618-1.7535-1.8521-0.91568-3.086-1.0197-0.18444-0.52735-0.34037-0.91534-0.87427-1.8189-0.87314 0.98738-1.0378 1.0268 0.47358 0.56178 0.72498 2.1593 1.8361 1.8474-0.0384-1.4257 0.0785-1.7084-2.366-3.1897-2.0783 0.73496-1.109 1.2651-1.6255 1.5794 0.21149 2.067 1.4455-0.7493-1.9914 1.0933-0.63533 1.5215-0.72437-1.3599-1.2402 0.37217-1.3802-0.84498-1.0532 1.7895-3.4995 0.63936-1.6703 1.0338 0.49118-1.54 0.92172-0.0446 2.1582 6e-3 1.099 2.1311 0.44955 1.4097 2.2246 0.84948 1.4709-0.30041 2.468-1.5506 1.631 0.3635 1.4912-0.40377 2.4402-0.069 4.1251l-0.0781 0.0606-0.49126-0.23132zm-4.1926-8.0539c1.5337-0.42333 0.70926-0.72848-0.026-0.99699 1.4991-1.8115 1.5463 2.3202 0.026 0.99699zm-4.833-0.0449c0.13378-1.5931 1.8817-0.12044 0.23095-0.10002l-0.16311 0.17979-0.0678-0.0797zm8.9838-3.3148c-1.4062-1.3727 2.2475 1.1641-2e-5 -3e-5z" fill="#9dc481"/><path d="m124.25 216.19c0.34033-1.1854 1.5403-1.7887 0.69152-0.24018-0.0817 0.19804-0.59384 0.71384-0.69152 0.24018zm-1.913-0.69899c0.77119-1.3792 4.1401-3.4955 4.7155-3.1702-1.2156 1.2181-0.86483 2.2812 0.94292 1.6797 2.0863 0.0117 0.33143-2.9394 1.9287-3.7909 1.5598-0.99393 3.6867-1.8473 4.5449-1.8167-0.42663 1.1836-1.444 1.7116-2.8935 1.5242 1.9388 1.3394-0.1526 1.0658-1.3646 0.77493 0.35526 0.64156 0.29629 0.45735-0.60626 1.0493 0.79967 0.54973 2.6181 1.4023 2.1513 1.9897-2.2323 1.5281-5.2936-0.19153-7.4688 1.2442-0.79997 1.1979-0.10815-1.3678-1.046 0.21595-0.10907 0.32976-0.65048 0.7957-0.90415 0.29982zm-2.9323-1.0937c0.65682-1.2053 1.275-4.4023 2.8322-4.6228 1.4114 0.57018-0.39126 1.4692-1.21 1.4932 0.0249 1.3047 0.82299-1.0534 1.5085 0.3781 0.10231 0.41998-0.29802 2.5854-1.0745 1.5392 0.34155 0.98965-1.3897 1.8256-2.0563 1.2122zm7.9924-2.3783c1.0387-1.4063 0.22565 1.7172 0 0zm-2.6802-0.30067c0.4477-1.78 0.66887-3.6787 2.7413-3.855-0.28005 0.46143-1.4453 1.2264 0.10694 0.78147 2.3968-2.1407 0.20644 2.2758-1.193 2.3268-0.47689 0.19703-1.3359 0.94131-1.6553 0.74673zm-6.7515-1.2602c-0.76816-1.495 2.6547-4.5582 1.6552-1.502-0.38319 0.25445-1.1165 2.5623-1.6552 1.502zm5.1132-1.0321c-0.90333-1.3134 0.70078-2.8262 1.4278-1.1862-0.0638 0.63138-1.2257 3.7466-1.4278 1.1862zm6.5126-0.31113c0.22991-1.6975 2.1629 0.0772 0 0zm-18.785-0.0935c0.37765-0.33475 2.346-3.1841 1.5889-1.3363-0.10556 0.89215-1.0241 1.2459-1.5889 1.3363zm20.638-0.94275c1.1429-0.55655-1.0568-1.9261 0.92744-1.2502 0.7403 0.47113-0.52054 1.6597-0.92744 1.2502zm-6.1811-1.222c1.426-1.4373 0.14599 1.2329 0 0zm-4.3097-0.5557c-0.18959-1.6424 1.9846-1.7189 0.64874-0.0913-0.31398 0.42772-0.82997 1.2367-0.64874 0.0913zm9.9565-2.2128c1.9625-1.3741-2e-3 1.5655 0 0zm-4.0783-0.51171c-1.0838-1.2664 2.1713 0.82674 0 0zm5.0515-0.20557c0.27295-1.0044 2.6156-1.5545 0.83132-0.24382-0.21905 0.1724-0.56671 0.62388-0.83132 0.24382zm2.5225-0.27478c-1.4213-0.45224 1.1799-1.404 0.49967-0.1824 0.73566 0.70845-0.3924 0.0539-0.49967 0.1824zm4.8655-4.5738c0.28074-1.3773 2.2113-2.1699 0.46358-0.46658-0.14584 0.13103-0.75815 1.5514-0.46358 0.46658z" fill="#9ac27c"/></g></g></svg>
