<?xml version="1.0" encoding="UTF-8"?>
<svg width="54.883mm" height="57.915mm" version="1.1" viewBox="0 0 54.883 57.915" xml:space="preserve" xmlns="http://www.w3.org/2000/svg"><g transform="translate(-54.723 -146.87)"><g transform="translate(-28.012 -23.288)" stroke-width=".26458"><path d="m106.49 227.5c-0.85055-4.9277-2.9158-9.5801-4.9335-14.129-1.233-1.6827-3.673-1.5329-4.5861-3.0606-1.2175 0.9237-1.2922-1.8597-2.8852-0.46281-0.23159-0.51464 0.47986-1.5547-0.79189-0.12446-1.2559-0.30888-2.9686-2.6251-3.9451-3.6326 1.0204-1.6102-1.0452 1.0489-1.7203-0.54979-1.0534-0.19415-1.7236-1.3646-2.3003-0.64457 0.83404-1.2521 3.1026-4.4532 0.28142-3.3465-0.82274-0.57101-3.1111 2.0107-1.8552 0.20651 0.73827-1.2842 1.4265-3.2694 0.54463-4.3482 1.5186 0.25193 0.98387-2.1744-0.21151-1.0854 0.99142-1.7219-0.73519-1.2372-0.80759-1.0597-2.0199-2.1142 2.1792-2.3195 3.0982-3.9772-0.87954-0.35502-1.5039 1.1802-1.5157-0.337-1.0897-0.91445 0.02779-1.0962 0.75294-0.23937-1.2527-1.6337 3.7975-0.56008 1.4583-2.0636-3.1608-1.7249 2.1048-0.93352 1.756-1.4489-1.6054 0.0733-1.0137-1.9227-0.09204-0.57352 2.2312-0.54806 1.0802-0.93242 2.892-2.3336-1.9104 0.92661-0.37796-1.4834-2.0634-1.0439 1.4613-0.96683-2.0706-1.3161-0.20132-2.5194-0.34281-1.1167 0.82007-2.1299 1.5592-3.0949 0.75164 0.92725 3.152-0.83671 3.7629-0.14579 2.2726 0.50142 0.64053-2.6633 3.3756-2.4846 1.2296-0.35914 2.5517-1.4916 1.2842-1.5285 1.7178-1.3112 5.2297-0.46848 7.4722-1.5916 1.3909 0.28835 2.743-0.68834 2.7668-1.0497 0.99502 1.0542 0.60783-1.1607 2.2409-0.0384 0.74294 0.66828 2.2586 0.77325 0.86768 0.1808 0.11433-2.2075 2.0129 1.5063 2.8948-0.82477 1.5038 0.65096 4.7897 0.73213 4.8402 2.5258-0.66085 0.99311 1.2866 3.4678 1.6088 1.1668 1.3362-1.8352 2.0851-1.4187 3.837-1.1696 3.001-1.5554-2.6626 4.7708 1.5916 3.7513 1.1983-1.0714 1.8338 1.4653 2.3881 1.5628-3.062-0.28327-0.39062 2.8451 1.1787 2.7217 1.1351 0.31802 0.11249 1.0728 0.55572 1.2012 0.28073-0.0884 1.5397 0.84283 1.0945-0.55155 0.81317 1.1764 3.1214 1.041 2.7002 2.246 0.89896 0.33465 1.078 1.9081 1.0231 2.4568-1.1194 0.66696 1.5711 1.8848 0.46773 2.6543 0.2663 0.96097-1.4486 5.1741 0.74525 3.3602-0.83053 2.057-0.74863 4.3991-1.5886 6.0718-1.4502 0.59476-0.83093 3.552-2.1491 2.054-0.50397 0.87359-0.0667 3.6975-1.6881 2.7702 0.84248-2.1988-1.4306 1.1988-0.15199 1.5393-0.30194 1.208-0.48658 1.1765 0.80805 0.71983-1.2323 1.0529-2.4617 3.443-2.7344 4.1168-0.1742 0.10869-2.1726 2.5811-3.4188 1.5984-1.879 1.5362-4.1484 0.7089-6.0594 1.6117-2.5784 0.90861-3.7679 4.033-5.8772 5.7464-2.5765 2.7786-5.257 5.8077-5.9765 9.6514-0.36316-2.7086 1.7639-5.1551 3.285-7.2318 3.6968-4.4865 8.5267-8.3716 10.21-14.174 1.2008-4.0184 4.7214-6.6434 6.9615-10.026-1.7966 1.1807-3.8403 4.0681-5.2397 4.6281 0.44947-1.8693 1.9172-5.3198 1.7434-6.2296-2.4744 5.5438-4.0398 11.509-7.3876 16.638-2.2155 4.4362-6.7248 7.0544-9.1166 11.365-1.746 1.2219-0.39249-3.3027-0.25419-4.2536 2.0921-7.7445 5.2029-15.195 6.8177-23.076 0.48814-2.677 1.5392-5.1697 2.6893-7.6088 0.19107-1.601-1.8752 2.9927-1.3042 8e-3 0.42385-1.2811 0.0116-3.2233-0.3165-0.8079-1.36 4.2559-1.9145 8.7526-3.4708 12.936-1.3178-2.9121-2.0737-6.1115-3.5133-8.9926 0.18838 2.2794 1.2911 4.5636 1.8167 6.8502 1.0888 2.6961 1.17 5.5815-0.0195 8.2566-1.4277 4.5862-2.8467 9.1833-4.2077 13.784-1.6766-1.5375-2.0108-5.5014-2.6661-8.0597-0.74528-2.7362-1.693-5.5831-0.70805-8.4063 0.30432-1.7763 1.2961-4.6397 1.1208-5.8123-1.1039 2.0297-1.4646 5.7368-2.5563 6.8972-1.5333-3.8446-2.494-7.9462-4.3088-11.662 0.25377 2.5755 1.5147 5.1751 2.1496 7.7723 1.5633 5.5262 3.4056 10.973 4.9399 16.504-0.41062 2.9018-2.1782-3.4751-2.8277-4.5339-2.2728-5.4484-5.0629-10.679-7.5639-16.028-0.92917-0.94957 0.75383 2.7453 0.96328 3.4637 1.9152 3.6218-2.0155-0.72716-2.2891-0.24591 2.0437 2.1567 4.4922 4.071 5.2431 7.0937 1.6399 3.9017 3.812 7.5373 5.2172 11.541 1.0676 2.9136 2.4108 5.8277 2.6676 8.9512 0.14643 0.40791-0.67867 1.0446-0.36918 6e-3zm6.8696-10.313c0.77764-1.0154 3.9816-3.3802 3.0559-3.8743-1.9057 0.23305-3.9296 0.0614-5.7212 0.75922-1.0765 2.7572-1.6471 5.7191-1.8738 8.6713 1.2569-2.0488 2.8138-3.8855 4.5391-5.5563zm-4.7567-2.1828c1.2609-1.8152-0.62698-1.4345-2.0508-1.5511-2.4008-0.3266 0.66611 4.9524 0.65529 5.7191 0.51775-1.3699 0.87175-2.7985 1.3955-4.168zm-4.0976 0.11834c-0.11259-1.4401-1.741-2.3163-0.58651-0.33101 0.23043 0.74491 1.2399 3.1466 0.72976 0.8633l-0.14321-0.53229zm23.834-4.9744c1.0106-2.3949-2.6743 1.029-0.37374 0.29707zm-34.972-1.4656c0.04454-1.8689-1.4479 1.561 0 0zm37.853-5.9226c1.2876-1.6342 0.44063-1.3247-0.55649-0.3542 0.0868 0.22542 0.92646 1.0244 0.55649 0.3542zm-43.107-9.543c-0.20268-2.0629-0.975 0.21234-1.0518-0.33406 0.07883-1.1651-1.8364 1.5544 0.30469 0.60119l0.34103-0.0623 0.40605-0.2048zm46.092-8.8066c-0.0333-1.1555-2.0538-2.2369-1.3472-0.26307 0.0668 0.19048 2.4288 0.97252 1.3472 0.26307z" fill="#d5e5c9"/><path d="m106.52 226.75c-1.189-4.9373-3.1827-9.6765-5.3281-14.266-0.69034-1.359 1.8623 2.4853 1.8539 3.4321 1.3449 3.5603 3.0832 7.0819 3.6246 10.869l-0.10471 0.29686-0.0457-0.33156zm2.3968-0.63064c0.11811-1.1168 2.1833-3.9888 0.88627-1.4602-0.28885 0.37416-1.2672 3.701-0.88627 1.4602zm-0.44807-4.3686c0.10656-1.1673 0.76804-5.2381 1.0591-4.3136-0.14752 1.5068-1.3612 5.2884-0.5037 5.2806 1.4283-2.8656 3.7642-5.1085 6.2684-7.042-2.3917 2.3432-4.6126 4.853-6.5258 7.5982-0.66441 0.48905-0.2588-1.2685-0.29797-1.5232zm2.408 0.6251c1.6219-2.4614 3.939-4.4045 5.812-6.6849 0.71249-0.86718 3.3401-3.5602 1.4057-1.2173-2.3753 2.8797-5.1005 5.4623-7.4205 8.384l0.20273-0.48176zm-3.9785-2.4772c-1.317-3.995-1.8296-8.1815-3.137-12.175-0.37389-3.457 1.4247-6.7259 1.6532-10.126-1.5871 1.7486-1.4755 5.171-2.7341 7.3053-1.1308-3.8289-2.4126-7.7818-4.0009-11.508-1.2997-1.6344 0.37468 2.5753 0.49232 3.2942 1.7521 5.3871 3.2559 10.862 4.9314 16.264 0.47681 1.4298 1.7982 4.5311 0.97251 5.1763-1.7941-3.9696-3.526-7.9822-5.2335-11.994-0.99258-2.4008-2.5287-4.634-3.5488-7.077-0.33259-1.0999-2.4091-4.7569-1.364-1.5141 0.13267 1.2923 3.1543 5.8523 0.32361 3.2333-0.78899-0.94056-2.5168-1.6241-0.86132 0.0299 2.0068 1.9524 3.887 3.9832 4.725 6.7188 0.85366 0.92458 1.7684 4.4841-0.1461 3.3841 0.71426-1.9086-2.5428-0.73728-3.5318-1.587-1.0346-0.72447-1.176-1.8235-2.3143-2.2182 0.67005-1.5602 0.48672-2.2871-0.58559-3.3879 0.67846-0.62235 2.5988-0.1854 1.0082-1.1895 2.3631 0.17383-0.99524-0.64096-1.1409 1.0205-0.2966 1.4149-3.9405-1.3871-3.9763 0.59395 1.2478 0.88913 0.63276 1.0816 0.24194 1.4547-0.60598 0.10737-1.8572-3.4599-0.0439-4.3219-1.3575-2.8116 3.5331-1.5858 2.7656-4.2198 1.408 0.16919 3.3503 0.31478 2.0208-1.7412-0.91597-1.6078-1.9134 3.2992-2.0937 0.2634 0.47381-1.6445-1.8494-1.3433-0.44177-0.78997-1.3231 0.34587-2.1363 1.8494-2.0157 1.9462-1.4385-0.4771 0.12402 1.5673-1.5944 1.4102-0.84914 0.98593 0.81638-2.1912-0.65964-0.27524-0.92554 0.33961 0.90253-1.232-0.35406-1.5699 1.7259-1.6869-0.09005-0.46022-0.73486-1.451-0.86833-2.0409 4.0604 0.14791 1.5345 1.2272 0.37551 2.137 1.8425-0.90275 1.3712-1.3993 1.6127 1.5319 1.1873-2.571 1.8267-1.5199-0.83088 1.179 1.3131-1.2021-0.64903-0.46898-0.89121-0.0421-4.0583-1.003-2.1067-1.9788 0.33374-1.4674 2.0809-0.0196 1.6623-1.0954 2.0462 4e-3 2.5485-1.1264 2.1898-2.3416 1.4746-1.1969 2.5169-1.093 2.0048-3.4862 0.26888-1.3786-1.5587-5.5684 0.48945-3.9219 1.1332-0.38266-1.212 1.0882 0.40303 1.134-0.64277 0.2387 2.0467 2.8155 0.96416 0.34478 1.0972-1.3601 0.2432-3.8008 1.5722-4.7454 0.15986-1.6399 2.1889 0.23057 2.3675-1.7812 1.6834-0.2629 1.4362-1.1693 1.7246-1.2778 1.7848 0.92337 2.0127-1.687 3.4496-0.22287 0.9661-0.76123 2.8529-0.042 0.84193 0.3345-0.92403 1.0709-1.4014 0.5848-1.0919 0.0339-2.4255 0.83881 0.80176 1.764 0.71615 2.5082-1.6861-1.7085-0.70244 1.0841 0.50723-0.0356-0.48631-2.1249 1.6302 1.8333 1.533-0.92076 1.2159-1.7097-0.36763 2.1895 1.0088 0.14176 0.78792 0.18937 0.4704 0.80881 1.5187-0.0205 1.5073 0.64088 0.84539-1.9504 0.54632-0.23434-0.54498-1.8324-0.87003-7e-3 -1.1597-0.41198-1.4686 0.11701 0.82312-1.3267 0.48755-1.8729-1.6859 2.7556-1.1267-1.6239-0.53182-0.62716 0.53556 0.74127 1.8012-0.8005 2.6831-0.13438 1.9359-0.33391-2.763 0.38379-0.57133 1.2382 0.4134-0.976 1.8646 1.3221 0.0294 1.0285 0.48714 1.5895 2.226-0.24855 3.3033-0.17971 0.64406-0.97563 1.4343 0.8044 1.6168-1.0709 0.64124-0.27839 1.4822 1.4131 1.1055-0.58195 0.86473-0.014 2.5776 2.7287 0.56647 2.6167 1.3612-1.6141-1.3613-1.166-1.3727-0.0179-0.53514-0.68354-2.6278-0.28853-1.3193-0.16116-0.1215 0.60809 0.75572 1.5622 1.4528 0.39465 1.8523-0.58217 1.8592 1.5322 2.0945 2.6886 1.2137-0.19763 2.493-1.0702 0.40196-0.61948 0.50739-0.68696 1.0278-1.1603 1.5399-0.70978 0.20505-0.61954 1.505-2.2382 1.1516-0.71631 2.0218-0.55037-1.5645 1.4288-1.2658 2.5349-0.89182-0.95407-0.94741 1.2561 0.39541 1.5636-1.8422 0.91185-0.50637 0.43795-0.14991 1.5717-0.17781 0.71779 1.2788-0.37717 1.2784 0.84567 0.9595-0.63786 2.4916-0.8834 2.9874-0.2767-1.091-0.74965-2.0054-1.163-0.10992-1.4359 0.64074-0.77424 3.5634-1.4921 1.3262-0.20143-1.3136 0.38044 1.192 0.9167-0.83625 0.78518-1.0505-0.22742 0.95512 1.4796 0.6583 0.88916 0.50606-0.80274 1.2917 0.43214 1.3849 0.1913-1.6316 1.5914 2.6733 1.4265 0.41085 0.94709 0.49428-1.9347 2.5368 0.2985 3.7949 5e-3 -1.0608 0.13928-4.1023 0.42246-1.3559 0.52842 1.2142-0.0949 2.3135-0.23941 2.0267 1.5926-2.2648 1.1917-0.27549 3.5179 1.2129 2.5251 0.3215 2.032 1.9701 3.969 1.8114 5.2516 1.37 1.0256 0.41536 4.2954 0.40247 4.8962-0.81311 0.23219-0.75055 2.0229-2.2085 0.39451-0.22775-0.10806-3.0776 0.71158-1.1526 1.562 0.2879 1.2478-1.7434 2.191-0.79616 0.40312-1.9722 0.68648-0.0115 4.1626-0.87327 5.6478 0.24302 1.7583-0.50076 2.8173-2.4206 3.0003-0.45424 0.7642-3.2383 3.099-1.9046 1.8257-1.7956-1.0281-4.2454 0.16846-5.592 0.2335 1.076-2.3931 1.9334-4.8912 3.0413-7.2642 1.6365-2.725 4.2664-4.7801 5.7752-7.5475-1.7032 0.81174-4.0435 4.4479-5.0081 4.2587 0.51052-1.8468 1.6347-4.6113 1.5606-5.9848-2.5347 5.1695-3.6482 11.061-7.17 15.715-0.59019 2.1071-4.8965 0.83882-4.613 1.7676 1.5063 1.192-2.3026 1.4103-1.1788 0.10016-2.5114 1.8557-0.73644-3.3737-0.29623-4.4769 1.9873-5.5171 2.8575-11.356 4.7228-16.901 0.74053-1.1556 2.2194-5.1268 0.23219-2.2688-1.0858 1.6076 0.96512-5.1782-0.44978-2.0694-1.5068 4.2923-2.0097 8.8864-3.5792 13.145-1.1014-1.5967-1.5737-4.4617-2.5832-6.4865-0.18528-1.2012-1.7248-3.2443-0.87564-0.74714 1.007 3.2008 2.1606 6.4314 2.5848 9.7613-0.91089 5.0077-3.0432 9.7072-4.2001 14.663-0.3054 0.38582-0.81128 4.0996-1.4714 2.9694zm1.4178-3.7439c0.73577-1.6388 1.1906-3.4431-1.275-2.8804-0.50415-0.37355 0.68723-1.5441-1.1404-1.0408-0.81583 1.0927 0.30687 4.1799 0.90787 6.1929 0.6001 2.765 1.1153-2.0152 1.5075-2.2717zm-3.6655-0.70393c-0.0197-1.5009-1.9176-3.562-0.85032-0.8404 0.37903 1.3556 1.849 4.2861 0.95591 1.2314zm4.0317-2.8213c1.171-0.22826-1.3327-1.3356-1.2824 0.39057 0.34491 0.0101 0.99699-0.93012 1.2824-0.39057zm-12.413-3.9882c-0.21856-2.2641-2.4441 1.0028 0 0zm-1.0484-2.0656c0.9657-1.3124-2.0737 0.44057 0 0zm34.198-2.552c1.932-2.5856-3.3369-0.77075-0.6111 0.31169l0.33373-0.0512zm-40.703-1.2825c0.8502-1.9978-1.5911 1.8255 0 0zm3.4187-11.329c1.8573-0.86416-0.88989-1.3084 0.8599-1.8744-0.59695-0.34037-2.6886 0.4525-2.0661 0.7897-0.66477 0.67531 2.1744 0.1576 0.08176 0.91268-1.1849 0.2223-2.8256 1.3767-0.60915 0.97649 0.61758-0.16337 1.2241-0.41253 1.7336-0.80451zm2.712-6.3399c-1.017-2.1246-1.09 1.073 0 0zm1.8813-3.7975c-0.9521-2.1209-0.80819 1.6765 0.07971 0.42615l-0.07972-0.42615zm2.5528-1.7911c0.75541 1.4185 0.57107-0.89448 1.5297-0.7764-0.98276-0.42206-2.6841-0.78981-1.6487-1.861-1.3163 0.48847-2.1231 0.27735-1.6693 1.4468 1.3687-0.0497 0.30746 2.3788 1.7883 1.1906zm2.9622-0.9116c0.37453-0.85119-0.84329 0.44568-1.2336-0.32326 0.47593 1.3112-0.44927 1.5406 1.2336 0.32326zm5.214-0.52787c0.73872-0.96704 1.9108-2.0587 0.11296-0.68354-0.73606 0.26781-0.39926 2.0748-0.11296 0.68354zm2.4709-1.8602c-1.4999 1.0503-1.6153 2.6516 0 0zm7.8868 1.1631c-0.84665-1.0648-0.89513 1.1179 0 0zm-0.47845-1.3977c-1.4954-1.3282-1.9026 1.6547-0.33385 0.71475l0.23578-0.39827 0.0981-0.3164zm-17.198 0.35925c-1.4712-1.0748-1.8338 1.0314 0 0zm0.26458-0.94166c1.8492-1.2338-2.6834-0.38077-0.3181 0.39668l0.22637-0.13848zm15.796-1.1465c0.79221-1.8288-1.6286 0.9855-0.24453 0.31107zm-6.1539-1.0037c-1.241-0.73908 0.93629 2.1125 0 0zm-0.21233 42.515c0.18132-1.622 1.158-2.8405 0.34555-0.45618-0.0922 0.43203-0.66302 1.98-0.34555 0.45618zm6.6555-1.8341c1.9176-2.437-0.68746 2.0651-0.25286 0.38372zm12.415-3.9913c1.0437-1.5834 0.34306 1.3124 0 0zm-41.664-7.6022c0.23568-1.2351 1.9585-2.8632 0.68816-0.7219-0.01458 0.0208-0.86062 1.4221-0.68816 0.7219zm-2.5603-2.1539c-0.1086-1.6855 2.4628-2.2966 0.75611-0.32701-0.05792 0.0129-0.54455 0.63857-0.75611 0.32701zm49.858-11.403c-0.52172-0.99178 1.7278 0.59538 0.62841-0.6784-1.158 0.42682-2.1423-3.404-0.21151-1.8302 0.77607 0.28192 2.377 4.6047-0.4169 2.5086zm-12.806-6.8372c-0.22804-1.6336 2.8835-5.1008 3.7246-4.0624 1.2603 1.9548-2.6385 3.1305-3.7246 4.0624zm7.2481-0.57437c0.93734-0.91603 1.2222 1.0064 0 0zm-10.494-5.4069c-0.57547-1.7333 1.3133-0.62409 0.11882 0.37976l-0.14405-0.11156 0.0252-0.26822zm6.6462-0.48012c-1.114-0.67645-4.2822 0.50533-3.0547-1.0308 1.2479 0.85021 1.544-1.9923 1.6209 0.29173 0.10314-1.5616 3.335-1.3285 2.3445-0.78272-0.10995-0.84048-0.56953 2.804-0.91063 1.5217z" fill="#c7ddb6"/><path d="m108.59 223.24c0.72121-0.92577 3.177-4.8873 1.4034-1.6549-0.31382 0.45022-1.1092 1.8434-1.4034 1.6549zm2.3594-1.0192c0.49187-1.215 2.6486-2.576 0.71837-0.61948-0.0848 0.0183-1.1873 1.5116-0.71837 0.61948zm4.4046-4.9609c0.72631-0.83841 3.9452-4.208 1.79-1.6786-0.86719 0.94474-3.0564 3.4433-3.3033 3.3765 0.48864-0.57979 1.0017-1.1384 1.5133-1.6979zm-3.1771 1.2825c0.91803-0.87896 4.1342-3.8944 1.7198-1.3942-0.38204 0.57812-4.1722 3.8886-1.7198 1.3942zm-7.3475-0.62102c-0.60525-1.4605-0.18758-1.1685 0.35593-0.19844-0.3282-1.3211 0.0288-1.9198 0.21875-0.0735 0.13245 0.63602-0.32011 1.0994-0.57468 0.2719zm3.2785-1.1245c0.0756-1.1689 1.2132-2.572 0.36526-0.52917l-0.25427 0.53744c-0.12588 0.23393-0.0457-9e-3 -0.11099-8e-3zm-2.6439-1.9591c-0.33499-2.6934-1.1163-5.2947-1.9076-7.8863 0.48274-3.1538 1.4367-6.2263 1.9828-9.3509-1.684 1.415-1.7574 4.8293-2.7183 7.0236-1.5221-3.7764-2.4763-7.7988-4.234-11.492-1.2996-0.81408 0.51546 2.9026 0.65088 3.9081 1.6504 5.0914 3.0929 10.249 4.6242 15.374 0.65024 1.0498 1.2592 4.2973 0.38119 1.48-0.49083-1.4435-1.6332-0.83637-0.83053 0.28377-1.0331-2.2777-1.9673-4.6516-3.096-6.9135-0.9051-2.9155-2.8613-5.3484-4.0036-8.2048-0.16733-0.92735-2.5451-4.9411-1.5749-1.8255 0.59796 1.5744 1.2427 3.1304 1.8665 4.6946-1.1691-0.51517-2.3095-3.0596-2.9915-2.3948-0.88242 0.981 4.4259 3.1284 2.1701 4.8277-0.43793-0.62362-0.11182-1.4857-1.4283-0.61558 0.6636-2.7536-2.0296-1.0683-2.2625 0.5292-0.96906-0.62516-2.1914-1.2113-2.9518-0.96881 1.9529-0.21496 1.7744-3.1769 0.26394-0.86625-0.56794 0.45509 0.20161-1.3827-1.0648-0.52769 1.9022-0.35836 0.19584-3.9796 2.0162-2.0484 0.3962-1.0232 1.5733-0.30872 1.298-1.5875 0.64172 1.6454 1.1448-1.1457 2.1054-1.4355 0.3045-1.2726 0.5189-4.4349 0.03315-4.6085-1.1336 1.1432-0.49577-1.8653-1.4927 0.34282-2.2202-0.20495 1.3563-1.5884 0.35923-2.7119 0.54538-0.99292 0.64241-5.3901 1.2399-4.6393 0.51638 0.63277 0.23962 1.8826 1.1147 0.24256 1.8963-0.35184 1.5621-2.5707 0.59758-1.5438 0.28587-1.4563-2.1163 2.0453-2.0225-0.64304-0.5143-2.8391 1.1634 0.71049 2.4626-1.0049 1.0125 0.68149 1.0405-0.58541 1.3545-0.17164 0.82204-1.3767-1.7014-0.70992-1.4069-2.7242-0.58469-1.5615 0.85492-3.1 0.85026-0.75784 0.21489 1.3636 2.4613 1.4082 2.1695 2.1079 0.88932-0.42451 3.5929 2.772 2.8731 0.0935 0.9624 1.0843 2.8577 1.4055 1.686-0.71487 2.1096-0.48706-2.9583-0.61819-1.0845-1.6664-1.0958-1.1242 1.557 0.65573 2.1383-0.78616 0.90279 7e-3 1.1194 0.62373 2.0563-0.27388 0.80078 3.0323 3.1247-1.2921 4.5587-1.9967 2.1718-2.0697 5.5903 1.339 5.5146 3.3127-0.32487 1.8274 3.0197-2.2394 2.0768 0.81931 0.16087 0.25427 1.7146 0.506 0.37226 0.79837 0.12846 1.608 1.3084 0.4824 0.89868 1.9511 1.2558 0.21592 2.1439 1.4924 2.5582 0.098 1.5153-0.75991 2.8306 1.878 1.087 0.64664-0.11666 1.8109 1.3965 0.0984 1.6179 0.5763 1.0968 1.1127 5.171-0.51625 5.4696 1.5826 2.6211-0.81208-1.781 1.5566-0.66191 3.1518 0.069 1.1768 0.51207 3.5375 0.80376 1.1711-0.50185-1.836 0.8788 0.31878 0.69301-1.434 0.19733 1.4387 2.0751 0.23466 2.141 2.3924 0.23038 1.2089 0.59393 3.7801 1.2503 3.527 1.3858 0.46938-1.2442 2.8913-1.0491 0.95737 0.65788-1.6184-2.7809-2.0805-0.43328-0.52784 0.37434 0.62018-1.7427-0.54291-0.35091 1.0608 1.0922 1.5193-1.6603-0.73664-0.0189 1.2217 0.66272 0.3396 2.6487 0.60613 2.2269 1.5385-0.74916-0.80637-1.5321-1.1353-0.71877 0.21265-1.6195-0.0838-4.2304 0.15732-4.3851 1.876-0.51495 0.3126-0.77425 3.0595-2.3674 2.939-0.0477 2.2031 3.3873-0.6231 2.188 2.33 0.11821 1.5302 0.20443 2.8234-1.8254 3.2965-1.5092 0.89903-1.8655 3.082-3.7361 1.7022-1.5357-0.50752-5.3565 2.0232-3.293-1.2046 1.1409-2.6474 1.7906-5.5808 3.9001-7.6975 0.9713-1.4925 3.993-4.0524 3.659-5.0478-1.7555 1.2546-3.1128 3.2746-4.7935 4.4119 0.45028-1.6582 2.151-5.65 1.5562-6.225-2.1561 5.0511-3.6865 10.406-6.4845 15.162-1.2938 2.0506-4.2523 1.426-5.6094 2.1399 1.8486 1.4878-0.29557 0.78442-1.0859 0.26574-1.969 0.36032 0.0457-4.2604 0.47312-5.6946 1.7891-5.1911 2.5913-10.665 4.3745-15.848 0.57967-0.94496 2.5706-4.8462 0.42652-2.5985-1.2736 2.5291 0.55102-4.889-0.75716-1.6493-1.3505 4.3621-2.1391 8.891-3.55 13.227-1.2526-2.8611-2.0622-5.9384-3.4694-8.7261-0.27806 2.1874 1.329 4.7333 1.7108 7.0958 1.1406 2.6763 0.85449 5.5357-0.1107 8.2115-0.80413 1.5702-0.89897 5.5185-2.8067 5.364-0.96824-0.5317-1.3296 2.1176-2.2302 0.31662-2.5122-0.96496 0.34016 5.9379-1.0436 2.7499zm23.779-8.514c-0.76239-1.1257-0.92564 1.3928 0 0zm-38.785-5.9695c-1.1261-0.66193-1.4261 2.6407-0.10387 0.34587l0.10372-0.20806zm17.946-20.283c-0.33743-0.99866-1.8778 0.0522-0.34426 0.46506l0.19762-0.16006zm1.6381 34.741c1.3564-3.6654-0.36348 2.3794 0 0zm-1.0192-0.7276c-0.52542-1.0966 0.11199-1.5634 0.31015-0.1106 0.11973 0.20049-0.81521 1.1769-0.31015 0.1106zm-9.7631-3.341c1.4021-1.4187-1.831-1.0595-2.5595-1.7745-1.0497 1.0304-2.9495-1.2407-0.78886 0.13691 1.9591-2.1668-2.7989 0.11237-1.0621-2.0212 1.8164-1.8483 4.3039-0.33369 4.8791 1.9453 0.99532 0.75544-0.32566 2.492-0.46866 1.7135zm-2.175-4.8129c-2.6128 0.14199 1.4073-3.041 0.26012-1.3049-0.55922 0.52887 1.0039 0.15002-0.10707 1.1383 1.091-0.79701 0.53677 0.9325-0.15304 0.16657zm-8.6935-1.1711c-2.9049-3.964 3.1316 2.3771 0 0zm4.5154-0.57473c-0.26499-1.675 2.184 0.47114 0 0zm-1.4993-8.9209c1.3008-1.8424 0.8926 1.2637 0 0zm0.52917-7.3069c0.44876-0.21224-1.3611-0.80085 0.21355-0.72754 1.5343-1.5347-0.29959 2.0378-0.21355 0.72754zm43.049-0.7074c-0.0205-0.11816-1.7506-0.85014-0.38901-0.92386 1.5902-0.5177 0.29917 2.3314 0.38901 0.92386zm-12.707-6.6675c0.70659-1.7449 1.0123 0.4429-0.0155 0.36381zm-23.259-2.7288c0.85547-0.93561 1.7357-2.7043 2.8388-3.1145 0.32252 0.0879-0.99228 0.64692-0.92886 1.6407-1.7023 1.7756 1.7351-0.3324 2.0772 1.1233-1.4433-0.34475-2.5115 1.3414-3.9871 0.35057zm20.766-0.10351c0.73291-1.9777 1.4358-0.58841-0.19072 0.27854l0.19072-0.27858zm-22.028-0.93352c-2.4427-0.30947 1.0226-1.2826 1.01 0.0637-0.24103 0.15894-0.93573 0.4336-1.01-0.0637z" fill="#bad5a6"/><path d="m114.82 217.85c2.0856-2.1262 0.21412 0.32603-0.90114 1.0583 0.22694-0.41023 0.59518-0.71233 0.90114-1.0583zm-12.038-5.1866c-1.0594-2.7053-2.4109-5.3121-3.4498-8.0137-1.0759-1.854-2.1396-3.8409-3.1186-5.9058-0.34527-1.1459-2.465-4.3653-1.5007-1.4305 0.37903 1.3823 3.0221 6.0198 0.25853 3.1736-0.90858-1.1901-0.75745-1.9124-1.822-1.3147-0.7496-1.8059 1.0719-1.8527 1.3642-3.9027 0.02857-0.51766 0.73745-3.5332-1.1494-3.3093-0.87016-1.3774 1.2027-1.5701 1.0397-2.816 0.23546 1.7493 1.0387 0.58299 1.2884 0.36249 0.39025 1.4642 0.86635 2.6078 1.8757 3.5708-1.5992-0.64331-0.4699 0.66339 0.48964 0.6935 1.5903 4.1612 2.6158 8.5344 4.0426 12.761 0.24582 1.9792 2.0933 5.2606 1.3528 6.4616-0.16811-0.0583-0.6209-0.0458-0.67112-0.33056zm10.054-0.50192c-2.7306-1.1425 0.38458-4.4451 0.49842-6.6392 1.8423-4.9567 2.2514-10.337 4.2743-15.223 0.94682-0.97778 1.6155-4.4997-9e-3 -1.9107-0.73193 1.1238 0.24111-2.1742-0.13172-2.6872-1.1785 1.7783-1.602 5.0242-2.3237 7.4053-0.74641 1.7446-0.71335 5.7552-1.9823 6.2789-1.0989-2.643-1.6483-6.1777-3.4393-8.1704 0.44709 3.117 1.8727 6.0624 2.4521 9.1827 0.26347 1.0808 0.67349 2.1653 0.11035 3.2246-0.75762 2.3757-1.2251 4.9073-2.4874 7.0728-1.6323-0.16708-2.5719 2.4056-4.3088 0.90067-0.49181 1.0475-1.1234-2.4345-1.5495-3.3585-0.73944-1.4172 0.1478-2.9479 0.26641-4.4157 0.0468-1.8023 2.048-5.6351 0.93695-6.0965-1.0731 2.175-1.6608 4.6469-2.3189 6.8962-0.69364-2.6761-1.8414-5.1639-2.5027-7.8477-0.82292-0.95706-1.4577-4.0543-1.9964-4.5126-1.3768 0.59397-1.0361-2.318-2.0364-3.115 0.85605-0.70659-2.8077 0.0808-0.50523-0.77089 0.78261-0.52968 4.7013-1.0883 2.1113-2.166-1.359 0.84348-0.86567 0.97138-2.5867 1.3123-0.7023 1.0288-1.5341 1.6259-1.7503 0.63277-0.09525 0.0668-0.08044-1.017-0.0092-1.0645 2.039 0.19407 2.7395-1.2777 4.7291-1.6061-1.373-1.1584 0.03625-1.4429-1.1259-2.9404-0.217-1.1729 1.7576 1.7704 0.62034-0.52319-0.04076-0.4504 0.53833-0.0671 0.19533-0.93215 0.92921 0.16231 2.1225 0.66869 0.84587 1.1917 0.59749 0.75082 0.41965 1.2786 1.2703 0.21584 1.3175 0.88637 2.305 1.508 3.6742 0.24939 1.6183 0.18876-0.42426-1.3084 1.3699-0.87827 0.24287-0.76045 3.5585 1.7486 3.0923-0.677-1.1799 1.5867-2.7268-0.73323-0.7255-0.0677 2.0292-0.30846 2.338-4.4153 4.4185-2.4474 1.238-0.45429 0.27973-2.9019 1.0362-0.75198-0.45773 0.80008-1.4959 2.7899-0.22608 1.413 0.10908-1.3487 3.1298-1.9912 1.1715-0.68304-2.2206 1.8686 2.4972-0.96717 2.7198-0.3327-0.36327 1.2564 1.9406 0.94932 0.28321 1.9086 2.8441-0.79083 3.5914 4.1657 6.7026 3.0705 0.26708 0.62184-0.86442 1.5064 0.91072 0.81431 1.9974-0.30475 1.5844 0.28932 1.6831 1.5599-1.5858 0.40797 3.4814 0.42814 2.2966 2.3128 0.91733 0.83283 0.42213-1.2285 1.5435 0.0488-0.829 0.96631-0.83439 3.478 0.3165 2.2454-1.5433 1.5226 1.5413 3.8408 2.3616 3.982-0.14639 1.909-2.6039 0.7189-2.9427 0.97492 1.0993 0.57185-0.18293 3.0196 1.0457 1.2091 0.38282 1.7235 1.7896 0.39069 2.3252 1.6576-1.0526 0.11374-3.8553-0.83491-1.8939 0.32404-2.2965 0.3179-0.88374 4.5372-3.2391 4.829 0.0908 1.6638 2.8234 1.5682 1.4853 2.6644 0.99522 2.3193-1.7796 3.2063-3.3786 4.5698-1.8271 0.19186-4.5439-0.55124-5.4926 0.68104 1.0083-2.3797 1.8162-4.8775 2.9737-7.1703 1.7015-2.7034 4.1752-4.8626 5.7382-7.6459-1.7408 0.6716-4.203 4.5213-4.9897 4.1261 0.40398-1.4542 2.0906-5.4802 1.2206-5.5718-2.2574 4.6697-3.3345 9.8842-6.1158 14.295-1.0475 2.6034-4.6561 1.6987-6.0636 2.9566 1.7468 1.0306-0.26099 0.816-0.54871 2e-4zm13.369-3.3189c-0.35506-1.1476-0.62464-2.8535-0.76433-0.47557-0.13429 0.54406 0.43814 1.1772 0.76433 0.47557zm3.0337-2.502c-1.3846-1.8243-1.125 1.593 0 0zm1.5893-12.275c-1.5448-1.8917-1.0165 1.1762 0 0zm-29.17-2.0127c-0.2941-1.1838-1.8296-0.18912-0.32644 0.14579-0.0652 0.30265 0.68897 1.0941 0.32644-0.14579zm-2.2247-2.3151c-1.4182-0.78345-2.9638 0.73177 0 0zm0.70335-1.023c-1.4703-0.50691 2.3451-1.8557-0.14271-1.2659-1.4949-0.23971-1.4669 2.818 0.14271 1.2659zm1.0956-2.0858c0.13828-0.64942-1.8586-0.32863-0.33513-1.387-1.67 0.15211-1.8706 2.0403 0.0296 1.4342l0.30555-0.0472zm-0.37407-2.3882c-0.67592-1.9259-1.1743 2.0378 0 0zm24.678 0.62182c-0.91912-1.2284-3.0189 0.39258-0.56648 0.0769l0.29445-0.0223zm-9.8402-2.7076c-0.34781-0.54096-4.059 0.66431-1.1737 0.44672 0.3889-0.091 0.91071-0.0933 1.1737-0.44672zm-2.0661-1.3186c-1.2512-1.6696-1.0921 1.1414 0 0zm-15.057 27.915c-1.3594-0.13905-2.3277-0.26488-3.4695-1.0387-1.4396 0.59517 1.4216-2.5971 2.5062-0.97797 1.3612-0.78055 3.0017 3.6416 0.96338 2.0166zm-2.3452-3.6511c1.0145-1.4372 0.72023 1.167 0 0zm-3.235-1.0083c-0.77902-1.1415 1.675 0.14638 0 0zm-1.3897-0.36873c-1.6516-2.8543 1.8327 1.0746 0 0zm0.88818-1.1866c0.84111-1.3034-1.6237-2.6284 0.02714-3.0613 1.1298 1.2042 3.4235 2.2172 3.6597 3.7609-1.7402 0.22502-2.7311-2.1638-3.9788 0.13779 0.09732-0.27913 0.19463-0.55826 0.29195-0.83739zm-1.6158-0.82635c-0.96836-0.91552 0.90724-4.1108 0.66133-1.2693-0.32215 0.31835-0.18766 2.8154-0.66133 1.2693zm42.865-3.4326c-0.60148-1.9258 1.8956 0.88712 5e-5 -3e-5zm-2.0527-4.8458c-1.8452-0.45263-0.3507-2.4906 0.26283-1.1996 0.0553 0.96142 1.0727-0.85614 0.51236 1.0416-0.071 0.32376-0.53968 0.42984-0.77519 0.158zm-0.26925-2.4571c-1.1132-1.2777 0.91842-2.778-0.0261-0.90883 0.1614 0.17882 0.919 1.5967 0.0261 0.90883zm-2.004-3.9952c-0.85511-2.409 2.0751-0.28452 0 0zm-2.6876-1.6734c1.504-0.56923-1.1395-1.1152 0.97132-1.1493 1.3456-0.86605 3.6747 1.5815 1.5422 1.1494-0.86762-1.1036-1.5183-0.55021-2.3045 0.21785l-0.20902-0.21785zm-30.021-4.7451c-1.295-2.7594 1.7171 0.92293 0.24442 0.32939zm8.7749-0.0703c-0.74993-1.8549 1.9694 0.91924 3.8e-4 1e-5zm12.706-1.052c-0.11096-1.4863 0.9248-0.85559 0.4347 0.3112l-0.43468-0.3112zm-15.405-0.35026c-0.90009-0.64313 1.6704-0.56377 1.9341-1.4228 2.9581 1.6728-0.76283 1.9527-1.9341 1.4228zm8.7312-1.0427c-0.70714-1.0697-2.0173-0.64579-2.1083-0.0598-0.53173-1.8061 4.1497-4.1848 4.0653-2.5845-1.9222-0.23047 0.68534 2.3156-1.2503 0.74214-1.5108 0.1915-0.96299 1.3705-0.22195 1.931-0.0208 0.26235-0.59087 0.36542-0.48469-0.0289z" fill="#a8ca8f"/><path d="m102.85 212.23c-1.8066-1.9683 2.1379 0.51004 0 0zm3.3023-0.56404c-0.62078-1.5048-0.81368-0.42678-1.1249-0.34563-0.98954-2.3805-1.6366-5.0314-0.78986-7.5575 0.16699-1.8634 2.0503-5.2182 0.87823-6.1778-0.36366 1.4312-2.1791 4.6433-2.1483 1.2965-1.1194-0.46748-1.0076-0.49773-1.9632 0.22587 0.57407-1.7694 4.1146-1.8516 4.5875-3.6845-0.80825-0.85435-1.7294-1.2318-0.87177 4e-3 -1.2865 0.98734-0.68141-1.3977-2.2218-1.191-1.1202-0.79789-2.4825-0.72108-0.51298-1.2952 1.4012-0.69063 3.5498-0.81533 4.6264-2.1363-1.8134-0.8278 3.3036-1.7628 0.78043-1.816-0.068 0.91408-3.7314-0.96924-2.5977 0.7377 0.5474 0.41892-2.2081 2.3239-1.1429 0.63691-3.0055-0.0677-0.0393 1.1218-0.0126 1.7636-1.4226-0.72875-3.8348-1.8023-2.0605-3.0832-2.2915 8e-3 1.1656-0.10323-0.0991-0.86251 1.6149 0.0186 1.6256-1.6454 0.98184-1.6053 0.59366-1.1914-1.7364-0.0338-0.28653-1.5536 1.0053-0.88056 3.0146-1.3568 2.0724-2.1295 0.88434 0.21403 0.85909 1.7861 2.3169 0.63207 1.4862-0.40517 1.3969 1.7158 2.9283 1.5772-3.1427-0.52464 1.4698 3.1228 2.5008 1.1449-0.0726 0.77229-3.4064 1.8472-1.1407 1.3506 2.2828 0.75094 2.2833-2.3023 4.0975-1.5181 1.9702-1.0644 2.6821 0.10422 1.3556 1.7555-1.4811 0.4752-5.1984-0.11754-5.4634 0.65369 1.2208-0.12905 2.8927 0.20015 0.72048 0.57903-1.4518 0.3143-3.4933-1.3548-2.4489 0.53517 0.89483-0.17145 4.7203-0.11151 1.9144 0.31881 1.4812 0.80103 2.771 0.37376 2.8699-0.63425-0.13197 1.2374 3.1299-0.32856 1.5807 0.71062-1.3839 0.24737 1.3109 0.46666-0.034 1.7846-0.62865 2.5205-1.7169 4.6105-1.7409 7.2439-0.23907 2.1463-0.75853-0.83226-0.98598-1.4746-0.61017-1.9939-1.6919-4.9376-3.0033-6.2868 0.56792 3.685 2.2915 7.1426 2.7162 10.868-0.41097 2.8718-1.3286 5.7283-2.498 8.3768-1.4018-0.21991-2.922 1.5321-3.7804 1.1562zm-0.19844-1.8998c-1.3264-1.4468-1.1309 1.6665 0 0zm0.65016-1.6821c-0.37678-1.6296-1.5301 0.9617 0 0zm-3.0355-14.107c-0.50999-2.8963-1.2335 1.6296 0 0zm5.0311-5.9752c-0.4693-1.4625-2.026 0.97082 0 0zm-2.9221-0.71274c0.81182-0.28256 3.512-0.57043 0.84663-0.6661-1.1002 0.13032-2.1799-0.47744-2.1249 0.36139-1.4019 0.55407 0.54758 1.0456 1.2782 0.30471zm9.5366-0.0106c-0.78442-0.9703-2.3506 1.0842-0.20119 0.31616l0.1522-0.12896zm-2.6649 23.807c-1.7987-1.4016 1.3473-5.1302 1.3409-7.3441 1.6792-5.1411 2.1266-10.704 4.7655-15.5 1.0867-2.7596-2.1749 1.6372-1.1805-1.0558-0.45374-2.8183 3.4013-1.9254 4.6182-2.6722 1.4611-0.19251 1.2639 1.5349 2.2072 2.0016-1.6912 0.82196 1.7664 1.2738-0.72776 1.2929-1.6179 1.1797 0.7456 2.2717 0.23638 0.73595 0.96879 0.51751-0.11953 2.9962 0.87251 0.7809 0.77586-0.89546 0.34523 1.0593 1.2514 0.11086-0.15395 1.1238 0.9387 1.1125 0.32751 1.6752 0.55489 0.76135 0.90804 1.5546 0.85385 0.0209 0.12951 1.1997 3.9732 1.8403 1.2199 1.7452-0.12833 1.5788 1.1046 2.7024-0.58642 3.8044-0.0539 1.5341-2.3134 3.1943-3.3575 3.8848 0.40734-1.0949 1.6117-3.5445 1.381-3.6136-0.46717-0.0782 0.95833-4.3083-0.43929-1.6104-1.0274 2.4338-2.1279 4.8134-2.867 7.3532-0.36099 2.1191-2.4606 4.3432-2.6317 5.9363-0.69164 1.0033-3.0778 0.43271-2.1023 1.9417-1.5506 0.36528-3.3074 1.5289-5.1817 0.51175zm4.6608-2.12c-1.4419-0.96892 0.47893 2.1195-1e-5 0zm5.9456-10.633c0.20574 0.24432 1.0355-0.42555 0.19439-1.0478-1.4544-1.497-0.22101 1.8606-1.8176 0.29139-0.21723-0.47681 1.604 0.14869 0.0852-1.1577-0.89246-0.47298-0.93898 2.1268-2.3802 2.0926 0.83214 0.6002 2.0789-1.22 2.5231-0.34065 0.91475 0.20482-0.30376 1.8058 1.2411 0.55353l0.15411-0.39131zm-20.908 12.208c-1.8151-1.7008-1.4966-4.2-2.4761-5.5156-1.1063-0.95758 1.9465 0.4492 0.17157-0.73044 2.4091-0.57583 2.4722 4.3487 3.0779 6.243-0.13884 0.31574-0.59318-0.0527-0.77333 3e-3zm23.352-0.16065c0.67834-0.49175 1.8542-1.0245 0.29745-1.1266 1.453-0.17932 0.11252-1.3655 2.2385-1.4015 3.1983-0.0343-1.3312 0.97875-1.5896 2.3092-0.0756 0.1072-1.1118 1.0172-0.94634 0.21888zm-4.1828-0.61599c1.1224-0.53115 2.1079-0.43469 0.30045-0.81466 1.0497 0.0768 2.6191-0.24826 2.383-0.8045 3.278 2.0742-2.9908 2.1915-2.6835 1.6192zm-23.355-1.46c-1.5471-0.43759-4.1078-1.2674-1.2591-2.0021 1.0046 0.61794 2.8624 0.80426 2.4894 2.5072-0.46825 8e-3 -0.836-0.31143-1.2303-0.50504zm29.085-1.6019c-0.96111-2.5609 1.3685 0.93848 0.29079 0.55287zm-4.356-0.36012c-0.18906-2.4687 2.7261-3.8429 2.9002-4.9326 0.16154 0.43583 3.1646-5.2098 3.4659-1.8856 0.31694 1.1035-0.77618 3.7261-0.62331 1.0246-1.8731-0.17967-0.032 2.3603 0.23811 2.1316-1.0735 0.34289-1.7172 2.4142-2.6682 1.5375-0.36099 0.92972 1.3098 2.2588-0.49269 0.81175-1.6121-1.0808-0.66083 2.7072-2.82 1.3129zm4.8594-1.0213c0.47831-1.3272 3.1873-0.27866 0.73992-0.34535-0.2996-0.23865-0.47711 0.609-0.73992 0.34535zm-24.937-0.84813c-0.88099-1.7013 0.96854-0.74601 0 0zm-8.0211-1.4066c-0.51811-0.81691-0.19142-3.111-0.04821-0.92019 1.0322-0.70899 2.6981 1.505 0.30851 1.0691l-0.30565 0.0587 0.04535-0.20764zm3.4153-0.67915c-1.2277-2.3772-2.7401-4.832-3.0642-7.5202 0.04965-2.0628 0.21502-0.55923 0.84226 0.44312 0.59704-0.31991-0.42657-2.6995 0.54589-2.8277-0.58296 1.3337 1.7488 4.3651 1.4562 2.7126-0.50422-1.0821 1.822 1.4588 1.341 2.6434-0.10798 0.79468-0.44628 2.5384 1.1219 3.1555 1.2232 2.2483-1.6624 1.4461-2.2449 0.60667 0.06104 0.16358 0.87332 1.6398 0.0019 0.78655zm0.63706-3.7148c-0.17367-1.8469-2.6617 0.79892-0.28614 0.60519 0.20908-0.11984 0.29006-0.37843 0.28614-0.60519zm-5.8565 3.3566c0.5203-2.1578 1.3473 0.4494 0 0zm9.0209-0.31428c0.70222-2.6928 1.5106 1.4597 0 0zm-6.1934-0.59494c-0.46048-1.7725-1.6773-2.5573-1.1948-4.3726 0.15923 1.5386 1.8212 3.7783 1.6236 4.8168l-0.42886-0.44413zm6.9317-5.2255c-0.0186-2.1374 1.4993 1.0877 0 0zm-2.8742-6.0308c0.53236-1.9633 1.305 0.63361 0 0zm10.286-5.1678c0.50892-0.50172 1.7175-1.2802 2.1338-1.5352 1.767 1.979-1.457 2.7454-2.1338 1.5352zm3.9259 0.0879c-1.0719-0.53735-0.4134-1.4961-0.78497-1.7697 1.0674-0.0742 2.7075-0.2316 0.98025 0.53595-0.19128 0.58871 1.0753 1.985-0.19524 1.2337zm1.9253-0.1405c-0.78542-1.4679 3.981 0.3461 1.0148 0.18207-0.30032 0.0635-0.87552 0.29867-1.0148-0.18207zm-6.6514-0.65934c-1.6999-0.0879 1.7548-2.4652 0.68104-0.47512 0.62972 0.35554-0.44172 1.1254-0.68104 0.47512zm10.983-0.19662c2.3536-2.372 1.0001 0.42041 0 0zm-2.4105-1.5784c-0.87324-1.8692-2.179-1.2457-3.3925-0.16714-1.5301 0.38167-1.2776-1.2449-0.36006-0.62445-0.62972-2.5823 3.1253-2.9977 2.5955-1.6624-1.0526-0.0327 1.2405 1.8192 2.23 1.6887 0.73267 0.66109-0.69971 0.72228-1.0729 0.76527z" fill="#9dc481"/><path d="m106.45 211.16c0.36348-1.9417-2.0177 0.98796-1.9684-1.6812-0.8156-1.7184-1.245-5.3212 0.61806-6.1247 2.1087-0.85429-0.85308-3.8811 0.5214-5.8496 0.54364-1.0545 1.1802-0.64921 1.5218 0.23604 0.66146-0.42115-1.0826-3.7484 0.6709-1.4647 0.80975 1.7708-0.2752-2.5957 1.5383-1.815 0.30192 0.25233-0.78438 1.6355 0.44305 0.36926 1.057-1.0923 0.94538 2.7116 1.5149 3.0814-0.25611 0.88128 1.1715 2.6054 1.1858 4.0995 0.084 1.19-0.64212 2.3547-0.87622 3.5348-0.87707 2.2702-0.67079 5.6341-3.8345 5.4601-0.35714 0.0592-1.1222 0.67833-1.3351 0.15409zm-0.34637-1.2795c-0.82027-2.1878-1.9628 2.2472 0 0zm0.55345-2.2002c-1.7814-1.4768-0.24325 2.2988 0 0zm1.5087-7.6874c-1.2549-0.68161-0.0202 1.4748 0 0zm5.4916 11.267c-0.1382-1.4244-2.8867 0.12798-1.4758-1.9239-0.0405-1.4429 3.3935-1.2158 0.88523-2.1847 0.32433-2.3752 1.4388-4.7777 1.9446-7.1933 0.64997-1.7414 0.53164-5.9158 2.9998-5.2981 1.0544-0.79346 1.837 0.63036 2.4058-0.4695-0.33502-0.71913-1.981-2.3186-2.3601-0.75644-0.0964-1.4519-2.5295-1.8726 0.17844-1.8821 2.2496-0.71643-1.6158-0.96226 0.63759-1.3337 2.6244-0.0191-1.1042-0.61929-0.73468-0.4761 2.3206-0.86099 0.10899-3.1627 0.42749-3.7709 1.039 0.17176 2.6406 2.8218 1.652 0.4265-1.6668 0.17224 2.0806-0.68104 0.31227 0.20082 0.52355 0.7489 3.2448 0.85 1.9032 2.0297-1.1316-1.9757 0.54232 1.566-1.0473 0.31216-1.603 0.10357-2.2363-7e-3 -1.0205 1.4911 0.14998 1.2205-0.73077 1.6946 0.40341 1.9091 0.51991 0.71615 0.0456-2.1901 0.86272 0.0822-0.13659 1.8825 0.72005 2.2045 1.5185 0.82035 0.86329-0.72732 0.83148-0.94517 1.1479 0.14403 1.1602-1.3877 3.8047-1.0243 2.6853 1.115 1.9096-0.84052-0.89527 1.4398-0.47935-0.80609-1.4493 1.4132-1.6299 4.9038-4.2641 2.7716-1.931-0.35808-3.393 1.7604-4.2198 3.3104-1.2019-0.58355-0.61339 1.5305 0.53363 0.57832 0.34288 2.981 2.5599 0.9807 3.7733 0.54456 0.32477-1.8691 0.61305 1.5529-0.15546 2.1579-0.32174 0.58938-1.4913 3.0072-2.6924 2.1554 1.6-0.90478-3.5551-0.0587-1.642-0.10427 2.115-0.23236 0.69903 1.1965 0.21032 1.1022 0.79414 0.72116 3.1035 0.17266 1.281 1.3097 0.9005 0.63623-1.2886-0.0304-1.1665-0.45407-0.57458-0.72646-4.1718-1.8002-2.5916 0.31019 0.0192 0.78218 1.779 3.9382-0.46493 3.7302 1.8462-0.97375-1.2262-5.2006-0.80436-1.7256-0.38292 0.63207 1.0487 2.8794-0.6437 1.8772zm5.7886-18.811c-0.92149-2.0017-1.3297 0.60991 0 0zm-17.84 17.157c-1.2706-1.3055 1.3173-1.6347-0.54208-1.8168-1.8512-0.35668 0.362-5.1532 0.88304-1.5548 0.34443 0.94172 2.1719 6.1979-0.34096 3.3716zm25.645-0.7531c-0.38551-1.2801 3.5522-0.80727 0.91286-0.11641-0.17881 0.30842-0.71209 0.56483-0.91286 0.11641zm-28.443-0.26458c-2.1003-0.63676 0.02869-0.90555 0.69472 0.19098-0.21704 0.12255-0.6268 0.11407-0.69472-0.19098zm0.20382-6.5326c-0.2088-1.478-0.38764-2.1783 0.64434-0.7591 1.4955-0.49975-0.44193 0.79485-0.64434 0.7591zm-1.5451-0.76556c-0.83163-1.482 2.2748 1.0674 0 0zm21.714-0.34644c1.5448-1.8917 1.0165 1.1761 0 0zm1.4708-0.21799c0.16116-1.11 0.52252-2.7252 0.90347-0.7407 1.0715 0.38216-1.5062 1.6618-0.90347 0.7407zm6.6619-0.78708c-0.79102-0.90829 1.0723 0.39672 0.58028-1.0927 1.94-0.78686 0.79809 2.0668-0.58028 1.0927zm-23.901-0.94147c0.97164-1.5146-2.2854 0.39943-0.46025-1.0937 3.2035-1.2705 0.88551 1.3362 0.10795 1.6838 0.11744-0.19671 0.23487-0.39343 0.3523-0.59014zm9.8755 0.43546c-0.47465-1.5129 1.5777-3.3274 0.46714-0.86746-0.1685 0.18117-0.0294 1.1653-0.46714 0.86746zm12.331-2.8413c-0.12765-2.6224 1.6882-0.93105 1.1682-0.24958-0.3616-0.37343-1.5929 1.2743-1.1682 0.24958zm-29.174-0.66824c-0.08183-2.7464 1.089 1.681 0 0zm15.832-0.13753c-0.56622-0.48005-1.5655-2.3001 0.0151-1.5106-2.2611-2.5311 3.0792 1.8828 2.1366-1.396-0.5119-1.0352-2.1686-1.0214-0.82335-1.6569-0.97223-0.92128-2.2658 3.3567-1.6564 0.81501-1.4465 1.1915-2.3918-2.1891-0.46405-0.68808 0.89895-1.3457 5.3386-1.3296 3.65 1.0997-0.47945 1.5104-0.38929 3.9458-2.8579 3.3369zm3.9929-1.4691c1.0362-2.583 1.4018 0.23468 0 0zm-8.3415-0.55637c0.508-1.5004 0.1846-1.6208-1.1305-0.80305-1.6436-1.0742 1.7684-3.8135 2.8584-1.482 0.63899 0.92241-0.81482 3.1057-1.728 2.285zm0.8192-2.1347c-0.2986-1.6495-3.2026 0.23472-0.67974-1e-3 -0.0122 0.4525 0.58172 0.28492 0.67974 1e-3zm4.616 1.4186c0.44191-1.9576 1.0444 0.85524 2.7e-4 -1e-5zm9.161-0.24973c-1.1238-3.4424 1.3464 0.017 0 0z" fill="#99c17b"/><path d="m107.96 210.61c-1.3519-0.27851-1.001-4.4926-2.2555-2.6423 1.6177 0.97067-1.4413 1.4739-0.424-0.0671-0.61304-0.54735-1.3506-1.0158 0.0313-1.2243-0.0853 1.371 1.478-0.29352 0.11084-0.89455-0.7217-0.95148-2.1959 1.4606-1.3524-1.059-0.14622-1.6973 2.3345-0.9567 2.5691-1.5089-0.93059 2.1642 0.80962 1.0676 0.49342-0.39183-0.98268-1.187 2.0003-2.6769 0.36116-0.55482 0.34067 1.1626 0.0346 1.642 1.8654 1.1849 0.93287-0.42804 2.4988 0.43648 1.5106-1.308-0.55086-0.843-1.9098-2.6017 0.25482-2.1723 1.3382-0.6779 0.92088 2.3223 1.0256 3.1828-0.64824 0.69388-0.17804 3.8618-1.8451 4.8404-0.35343 0.3277-0.87294 0.25114-0.26871 1.0544-0.92769 0.11268-3.873-1.2311-1.9512 0.6647 1.4515-0.1662 1.9139 1.3296-0.12537 0.89585zm3.6807-9.162c-0.65832-1.2556-2.2247-0.60167-0.42105 0.23684l0.22759-0.0287zm0.36775 8.401c0.64805-1.3237 3.3068-1.4011 1.7486 0.33073-1.1412-1.9023-0.33019 0.85658-1.8168 0.15878l-0.023-0.18066zm15.772-1.2568c0.97748-0.85257 2.2839-0.40243 0.38488 0.0177-0.14545 0.46856-1.1098 0.75869-0.38488-0.0177zm-23.752-0.42444c-0.8357-1.8379 0.88787-0.37719 0 0zm10.941-0.83233c-0.85216 0.24777-0.2262-0.6089-0.70818-0.7855-2.0858 0.95417 0.11836-3.4046 0.27495-4.5094 0.74602-1.8419 1.1378-4.1023 3.3847-4.613 0.3465 1.4112-0.72179 2.124-1.5069 1.7336 0.17729 0.88484-0.91749 1.5572-1.0052 2.4073-1.5498 1.6727 2.1992-1.2564 2.3209-0.24558 1.9756-0.13509-2.2868 1.1691 0.45389 0.76315 0.8149 0.28324 2.63 1.132 1.2154 1.4526 1.1602 0.33673 1.2667 2.2241 0.0472 0.96432-1.1127-0.86379-1.5723 0.80216-2.3035-0.66931-0.0452 0.74844 1.0572 2.9654-1.3061 2.4845-1.9363-2.2716 0.6114 2.7911-0.86705 1.0172zm1.6804-4.2737c-2.1556-0.60571-1.585 0.68221 0 0zm-15.789 2.6463c2.1095-2.0144-1.1906 2.1237-0.0482 0.084zm4.8508-6.4424c2.2621-1.1169-1.4172 1.8124-4e-5 0zm17.967-2.6578c-1.348-1.2001-0.47665-1.143 0.18686-0.91829 0.68291-1.4295-1.7583-0.76328 0.086-1.803 1.3629-0.69212 1.8172-0.90472 1.3875 0.91393-0.11646 1.1541-0.71715-1.3912-1.0284 0.67619 0.85061-0.19204 0.77202 2.2402-0.632 1.1312z" fill="#95bf76"/></g></g></svg>
