<?xml version="1.0" encoding="UTF-8"?>
<svg width="45.656mm" height="72.215mm" version="1.1" viewBox="0 0 45.656 72.215" xml:space="preserve" xmlns="http://www.w3.org/2000/svg"><g transform="translate(-61.477 -119.31)"><g transform="translate(-8.1 -77.288)" stroke-width=".26458"><path d="m90.015 268.35c-3.454 0.72912-2.381-3.6243-1.7498-5.8336 0.34854-0.98023 1.2046-5.39 0.18716-4.5228 0.45846 2.9234-1.9048 5.4295-1.2035 8.4214 1.5763 3.1087-4.5995 2.4658-2.8873-0.49649 0.27042-3.4282 1.0939-6.7866 2.267-10.004-1.2396-2.3917 0.47806-6.9953-2.7222-7.9477-2.6429-0.69016-1.381-3.4368 0.67261-3.4809-0.58277-2.3694-2.1942-1.3357-2.358 0.58229-1.873 1.2448-3.6988-2.1473-2.533-3.4019 1.1482-1.9484-1.403-2.6495-2.8669-3.8329-0.46178-1.3964-1.3381-1.6016-0.03578-2.7748 0.4229-1.0372 0.14767-4.314-0.91435-1.6667-2.066 1.3937-4.6037-5.4416-1.6284-4.2053 1.0019-1.198 5.538 0.86637 4.1358-2.1854-1.872-1.6737 3.5718-1.3861 1.4166-3.485-1.5249-1.1116-3.0609 1.016-3.8191-1.1293-1.7909-1.3665-0.97847-4.2779 1.4981-2.9402-1.9753-1.63-4.0147-2.8583-6.6021-2.8776-2.8399-1.8169-0.4365-6.0958 1.7364-2.4025 0.52216 0.23067-1.2855-4.3952 1.1601-2.1736 0.91355 1.7046 2.3241-2.5637 1.6886-2.9845-3.4752 0.66497-3.089-6.1568-0.15979-3.8147 0.56382 1.5288 1.5816-2.3003 2.4954 0.13501 1.2016 3.391 0.86268-3.6009 0.21555-3.773-3.4129-0.18963-0.55869-4.1685 1.2931-1.7363 3.3563 1.6183 0.02845-5.5811 3.2882-2.4009 3.5656 0.73713-0.47363 2.6308-1.7163 3.7979 3.0539-1.1037 4.6759 4.1063 1.0339 3.4116-1.375 0.37434-2.4617-0.35375-2.0509 1.8618 0.17016 1.5887-3.182 2.2919-0.60752 2.6204-0.41786 1.7068-2.0728 2.3852-2.9978 2.4175-1.0705 1.8575 1.5214 3.7879-0.49524 5.3277 1.1143 3.0087 4.7915 0.69601 5.5817 3.2941-0.91952 2.5504 0.82431 5.2749 2.3477 7.2131 0.094 2.0417-1.6848 4.0928-3.2541 1.7215-2.8687-0.72519 1.9797 2.641-0.82407 2.6979-2.2703 0.66117-1.2279 2.8282 0.83412 2.4517-0.89553 1.5436 3.0503 3.0215 0.23706 4.022-1.8343 0.2636 1.4448 2.9825 1.6862 0.9119 1.9299 1.281 1.912 4.0702 4.1713 5.0925 1.0327 2.0867 2.0169-3.1326-0.10004-2.8643-2.3611-1.8058-0.68939-3.8418 0.8856-2.1518 0.5118-2.2065 2.8069-0.13693 2.6414-2.6985 0.26339-0.7213-5.5274-1.673-2.8006-3.8838 1.3057 0.0644 0.49868-2.1723 2.1449-1.634-0.97493-2.8795-5.1406 2.899-5.4032-1.5837-0.59994-2.4426 3.8541-0.87713 2.416-2.7665-0.56836-1.9315-1.293-3.6796-3.0948-4.3098-0.0336-1.5249-2.9335-4.0935 0.11216-4.3643 0.59677-2.4753 2.6875 1.1502 2.992-1.7099-0.60816-1.7475-3.4098-6.6169 0.83853-5.5176 1.0029 0.80818 2.1021 2.0411 2.6542 2.8635 0.43758-0.89872 3.3329-2.1564 1.9173-3.1614-1.0239-1.7211-5.2548 0.0304-2.7948-2.8872 1.0214-0.52139-1.7809-2.2107 0.57263-2.3116 2.1961 0.97015 2.344 0.81748 0.99564-1.0954-0.61405-1.3227-4.9699-2.3191-2.5994-3.6443 2.3221-0.24292 2.846 4.3202 4.7354 2.4271 1.5477 2.0235 2.844 3.635 1.2396 5.8612 0.84242 2.9982-3.2899 4.3683-3.4578 6.8048 1.714 0.80882-1.9119 0.92297 0.19659 1.8948-0.85006 2.7055-3.6847 2.0323-3.1498-0.67856-1.4975 1.3323 0.14054 3.8577-0.77981 5.57-0.57976 1.4938 0.21813 3.5968 1.7789 2.301 2.5167 0.49777 3.5363 3.8882 0.17102 3.5585 1.2878 1.5879 2.4351 3.3058 3.4864 5.0271 1.0284 2.073-3.1351 4.7897 0.25229 5.6579 0.59387-0.19862 0.71134-2.3902 1.1395-3.2567 1.7884-2.4248-3.6312-3.8196-1.9704-6.096 1.8232-0.88137 4.0992 2.2941 3-1.1908-0.30903-1.9169-0.93288-3.6784-3.1635-3.0096-0.43748-1.5801-3.4724-3.8168-0.65472-4.9521 1.0765 0.10086 2.7781 2.598 2.4544 0.27158 0.23563-2.3256-2.823-3.7473-1.0602-6.3323 0.92477-1.8978 1.6264 1.5469 2.736-0.38161 1.1215 1.2932 3.0596-0.28717 1.6672-1.4822-0.98586-1.3668-1.1812-2.8625 0.90933-2.902 2.0201-2.8415 2.1882 4.3059 3.7355 0.45203-1.0464-0.79184-3.4819-3.8288-0.93971-4.1239 0.76779 2.0528 2.4587-1.4136 3.0252 0.65769 2.627-0.58294 1.4749-3.61 3.2458-4.8362 1.8073 0.2675 0.71212 6.2425 2.5508 3.0203 0.77466-3.1575 2.4424-0.79342 1.7962 1.1981-0.25294 1.4015 0.61542 3.0073 0.71389 0.64346 0.93588-2.9706 3.5686 2.3261 1.6439 3.4394 0.31577 1.3059 3.9947 4.7548 0.564 4.4005 0.12931-1.6496-0.19662-1.7225-1.4693-1.6766 1.5191-2.9433-2.6369 1.37-2.4496-1.6646 1.7744-1.9255-0.15593-3.6246-2.1268-2.5748-0.95353-0.8763 0.47835-3.3086-1.3606-1.2205-1.0496 0.55557-3.2798-0.42105-2.6072 1.8436-1.1194 2.2738-3.9199 3.4901-4.9508 6.0908-1.2324-0.53624-4.4145 1.298-2.2554 2.4723-0.11592 1.998-3.5318 2.6585-1.1417 4.4573 0.85731 1.3902-1.4405 2.4998-0.18814 3.8997 0.25172 2.3173 3.2469 4.423 1.3697 6.5268-1.7224 2.4509-2.5728 5.4318-3.0723 8.3729 0.96929 2.7795-2.5123 2.9793-2.0229 5.8352-0.91698 1.5805 1.4765 6.1134 0.98477 2.2652-0.84068-2.3897-0.0081-5.3355 1.7939-4.9106-0.57554-1.6188-0.32973-7.673 2.1002-5.1417 0.34323 2.9684 2.5626-1.6582 0.36751-1.9553-2.1973-0.89882-0.11092-4.0064 0.94261-5.0515 2.0702 0.82218 0.50595-4.1226-1.0273-4.4216-1.6459-1.9234-0.34932-4.5663 0.30701-6.313 1.6526 0.61157 1.3633 3.2373 3.2272 1.2867 2.1895 0.46803 2.555-1.8206 0.33582-1.7904-0.5621-1.5811-2.7266-3.9304 0.36371-4.4099 1.3118 0.66357 1.9358 1.629 2.6303-0.30126 1.0515-0.76617 1.5285-1.5946 0.60703-2.6918-2.5695-2.5998 3.6224-5.4176 3.0259-1.3853-0.0455 1.8222 1.5067 5.7849 2.863 2.2845 2.5793-1.3102 1.4426 3.4528 3.1958 4.3834 0.4392 2.0333-3.1562 0.54539-1.1747 2.816 0.63357 2.51 2.1676 4.3353 2.469 6.7078 0.35104 1.2303-1.6255 1.8399-2.0768 3.1868-1.1267-1.0831-3.8652-1.5546-3.9477 0.4557 1.9219 1.5391-1.8692 4.7732-3.3285 2.1437-0.47799-1.1006-2.3563-3.3688-0.52925-5.0048 0.30389-0.94904-1.8031-1.3042-0.67562-2.6421-3.302-1.9632 1.4723-3.3958 2.8518-2.34-0.75077-2.7187-5.1581-0.46975-6.7938 0.0978 2.0736 2.0147 2.0907 4.4273-0.14773 6.2276 0.16909 1.3239 2.1476-0.25911 2.6696 1.5771 2.0961 1.4792 0.40694 4.3775-1.679 3.4564-0.72709 1.327-2.1084 2.4398 0.0314 3.0162 3.2889 2.5878-1.6163 3.4724-3.4641 4.4076-1.7624 1.628 1.7041 4.042-1.0574 5.6694-2.3649 2.2838-1.2097 6.298-3.594 8.8306-0.85731 2.8713-2.1207 5.938-1.7076 8.9711 0.67124 1.4246 1.5847 3.4691-1.0527 2.0803zm0.35314-15.188c-1.8242-2.5726-0.20834-5.6521-1.4677-8.2268-0.27358 3.9964 0.26688 8.1588 0.15854 12.227 0.53179-1.2852 1.5077-2.5474 1.3092-4.0004zm-3.0458-6.5607c-0.21189-2.9652-0.57305 3.0079-0.0035 0.48798zm3.3454-3.4018c0.75687-0.28797-0.96127-2.1368-0.71776-2.6952 0.22865 1.2162-0.36771 2.8102-0.82283 3.2466 0.50195-0.20112 0.95568-0.64807 1.5406-0.55132zm19.575-14.954c0.82887-1.6861-0.68535-3.6324 0.88627-4.7598 0.14861-2.6338-2.3032-4.4128-2.722-6.5851-1.0314-0.9142-2.9294-0.52197-3.8486-0.25837-2.2996 2.2897 1.9417 2.1712 1.757 3.435-1.4157 1.0488 0.15435 2.5148 1.515 1.7848 2.1609 1.043 2.9648 5.3014-0.23002 5.2288-2.1002 0.13442-0.68078 1.2705 0.59212 1.287 0.78323 1.3654 1.4627 1.2055 2.0503-0.13217z" fill="#f7e6d2"/><path d="m90.779 268.59c-1.8574-0.48249-3.9325-0.51542-3.0479-3.0884 0.59471-2.9504 1.2698-5.9165 1.6031-8.8636 2.6133-2.8487-0.7989-5.8464 0.17424-8.902 0.0016-1.9029-1.3727-4.5018 1.5336-4.713-0.9782-0.85536-0.83208-4.9513-1.2363-1.7064-0.61024 2.5848-1.6231 5.3176-0.99525 8.2515 0.11912 3.0176 0.64708 6.1123-0.38162 9.0247-0.31752 2.6478-1.6406 5.1139-1.1748 7.8744 0.01926 1.0549 0.37513 2.4543-1.1736 1.9046-3.4975-0.10202-0.71665-5.2054-1.0349-7.5129 0.65564-2.4416 2.4949-5.0344 1.0249-7.3383 0.19476-2.6752-0.28555-5.5576-3.2556-6.1992-1.8962-2.6606 3.5349-1.8846 1.3297-4.515 1.8377-0.14788 3.4654 4.304 3.5248 0.35899 0.2635-1.2281 0.01879-3.8457-0.87771-1.5284-0.26947-1.2621-2.9949-3.9979-0.1418-2.7647 1.0533 1.6571 1.2226-2.1581 2.7473-0.8024 0.47005-1.0612 1.5057-2.9312-0.22875-1.9572-1.694-0.62211-4.2918-3.3392-0.97004-3.5021-0.85731-1.9253 2.5494-1.0717 0.23485-2.7043-1.3303 0.64089-4.088 2.4228-4.4488-0.18478 0.48668-0.31155 1.5057 1.8906 1.09 0.12779-2.606-0.99306 0.33402-2.493 1.8192-1.3798 1.6485-0.2815-1.9365-2.8792-1.5308-4.3734-0.38384-1.5953-3.0583-0.95985-2.3822-3.2566-1.7601-0.69088-0.96982-3.0961 0.65471-2.9933 0.73331-1.6824 2.4305 1.2038 2.7311-1.4302-0.28491-1.8746-3.4101-6.5078 0.8205-5.5847 1.1474 0.66226 1.9904 2.5843 2.7974 2.8225 0.72042-1.0524 3.5506-2.5584 1.3585-3.5463-0.88009-1.2214-4.4305 0.12188-2.5503-2.1484 1.0069-0.89036-1.1057-3.3746 1.6153-2.4618 2.4269 1.6645-0.19716-1.9945-1.0636-2.4751-1.5126-0.16054-3.3645-3.1046-0.75215-2.1898 1.6594 0.62496 2.5469 3.8287 4.0144 2.2779 1.2145 1.719 3.2288 3.2866 1.3393 5.2295 1.1264 3.4104-4.0205 5.022-3.2442 7.7183-1.6915 0.68103 0.5646 1.1341-0.24946 1.8736-1.1342 1.7481-3.4763 1.7417-2.8651-0.86152 0.02752-1.2484-1.8411 2.4855-0.65138 3.0239 0.40003 1.4235-1.4554 4.8405 0.53627 5.0121 1.6446-0.83742 5.4927 2.3316 2.0781 3.1029-1.5222 0.78787 2.4273 3.8291 2.7568 5.5929 0.40909 1.7908-3.0613 4.4924-0.42052 4.7924 1.5145 0.86023 1.3942-2.7473 1.9962-3.9455 0.12855-1.6463-2.9951-2.8137-2.6819-4.7234 1.4548-2.0417 4.4877 2.4315 3.4068-1.233-0.37723-2.0319-0.6482-4.1994-3.1016-3.2609-0.59712-1.469-3.2784-3.7787-0.87146-5.0385 1.268 0.59593 3.0568 2.8402 2.7721-0.14387-0.23211-1.1815 2.776-1.1585 0.82372-2.2926-2.2045 3.0947-3.7648-3.79-1.137-4.1337 0.58108 1.6282 2.0877-0.45098 2.7487 0.93485 3.674-0.82203-2.6674-5.1306 1.5841-4.7945 1.212-2.9011 2.1274 1.5744 2.7279 1.4266 0.74117-0.73155 1.811-1.4707 0.4033-2.1524-2.1299-0.41511-0.95071-5.0424-0.0586-2.1901 1.3806 1.6238 2.1916 3.22 2.8825 0.52555 0.0762-1.7683 2.7759-2.1677 2.2287-4.4702 1.2921-3.245 2.148 1.6815 2.5376 2.799 0.96017 0.27702 1.9298-4.5573 2.5932-1.6229-0.25585 1.2955 0.40662 5.78 0.95087 2.1021 1.4772-2.1005 2.3611 2.2963 1.4854 3.4132-1.1368 1.3172 1.9578 2.0485 0.092 2.4356-1.3086 2.2122-0.14374-2.7213-1.7922-0.0489-2.9639 0.59087-0.3957-2.4927-0.87715-3.3552-0.57226-1.5602-4.193 0.93899-3.0191-1.6305 0.42426-1.8886-2.1713 1.5649-3.2634 0.12403-1.7554 1.028 0.13299 3.1625-2.3746 3.8489-1.9218 1.0021-2.5605 5.8089-4.8127 3.6229-0.36228 1.2208-2.7397 2.1444-0.67778 2.9292 0.5006 1.6229-2.32 1.8421-2.1712 3.3366 2.5155 1.508-0.50383 4.193 1.3046 6.3111 1.4019 2.4738 2.3528 4.9072-0.2471 7.1448-0.91774 2.5755-1.8945 5.2133-2.1433 7.9275-1.5026 1.8105-2.5612 5.3251-1.2777 7.9308 1.4139 1.699 0.41114-2.9762 0.3108-3.8679-0.56132-1.8446 1.3287-2.4249 2.087-2.0038 0.46281-1.9975-0.94414-4.8775 1.1559-6.0335 1.189 0.65704 1.5464 3.0757 2.1005 0.69216 0.82087-1.0559 0.36401-1.7061-0.77687-2.1391-2.1404-0.68641-0.07543-4.9142 1.1997-4.8042 1.4587 0.41733 0.45252-4.1774-1.1138-4.4204-1.8792-1.7795-0.59997-4.8629 0.27083-6.3923 1.4948 0.31024 0.87296 3.5545 2.5617 1.4185 1.0571-0.25662 4.0513-0.4529 1.8353-1.683-1.3726-0.40474-2.0665-2.4463-2.4474-3.628 1.7503-2.4835 3.4303 0.20374 4.3036 1.7444-0.20864-1.6445 4.178 0.58503 2.3198 1.109-0.49814 1.2474 1.6783 3.1157-0.92132 2.3623-1.5205-0.21302-2.2141-2.1147-1.5386 0.043-1.0167 1.0157-5.0047 0.6575-2.3788 2.6717 2.038 2.1859-0.76362 3.5223-1.0759 5.2417 2.0749-0.56323 5.7609 4.4305 1.751 4.7002-0.9125-1.1722-2.2232 2.5135-2.0643 2.4246 2.4469 0.11549 3.6396 3.9967 0.37981 3.8672-2.9897 0.21224-3.5972 2.6086-2.3996 4.8252-1.2568 2.2075-3.2771 3.6884-2.8386 6.5698-1.014 3.0004-2.9878 5.6491-3.199 8.9209-1.4706 2.1561 0.23215 4.962 0.10081 6.7455l-0.33492-0.0327-0.42524-0.11223zm-3.4666-21.986c-0.51956-3.063-0.28001 3.7112 0 0zm-2.7369-0.83685c-2.1253-1.2769 0.05903 1.9191 0 0zm19.107-25.291c-1.6458-2.6972 0.10899 2.4051 0 0zm-23.029 24.631c-0.348-0.58219 1.9959-2.6071 0.0044-3.1271 0.53362 0.71682-2.1482 1.9938-0.81176 0.0623-1.472-2.2514 2.9989-0.5344 0.25181-1.8906-1.7411-1.1921-3.5724-2.4174-4.1364-4.0698 1.8134-0.80258 1.2891-5.7861-0.62605-2.5094-1.7815-0.3295-3.9646-5.329-0.90556-4.4616 1.1556-1.1534 4.9465 1.4488 4.2379-2.0717-2.4665-1.7558 3.2638-1.0498 1.1836-3.4863-1.5436-1.8375-2.9689 1.3767-3.4528-1.1922-2.2871-1.0731-1.2644-3.7595 1.1264-2.8944-1.4871-0.46099-2.9985-3.3389-5.1667-2.6006-3.459 0.93267-3.4964-6.7192-0.23042-3.0934 1.5865 1.7049-0.84905-4.1915 1.7035-1.646 1.231 1.6679 2.1953-2.8862 1.5771-3.5284-3.2029 1.1269-2.8227-4.5945-0.4493-3.7667 0.60741 1.3592 0.4807 1.2004-0.13714 1.0554 0.12838 1.0351 2.3977 0.92484 0.10249 1.4437 1.4539 0.79625 2.0271-0.99228 1.136-1.884 1.0216-3.329 2.8284 3.8591 2.4918-0.40728-0.10649-2.2183 0.44312-3.8075-2.0929-4.3668-0.23136-3.6794 5.1954 1.3145 4.6421-2.0631-2.1485-3.9869 5.7369-0.0924 1.645 1.0583-1.6297 0.82093-3.0557 2.1375-0.38418 1.5503 2.2863 0.5103 2.2213 4.065-0.10209 3.0928-1.4537 0.59817-2.8523-0.0743-2.5075 2.1955-0.0495 2.2694-2.6441 0.17616-3.3403 2.6477-1.7595 1.3848 2.061 1.4846 0.14371 0.40876 0.94913-0.61525 1.6598-0.13253 2.5807-0.43873-0.43656 1.7396-2.1639 2.5284-3.0461 1.9537-1.235 2.0936 1.6956 4.0438-0.47239 5.6237 0.96888 1.9063 2.9475 2.328 4.4572 2.0547 1.8743 1.3191 0.29983 4.4785 1.9317 6.27 1.1995 1.3321 2.4054 2.889 0.79306 4.5572-0.58746 2.3805-2.7528-2.1803-3.2463-0.83232-1.4897 1.4764 2.753 2.4076-0.16285 3.0644-2.2962 0.85544-0.82877 2.79 1.0977 2.519-0.83047 1.5327 2.9816 3.4117-0.30566 4.0108-0.40103 0.77782 1.8965 3.0119 2.0553 0.90549 1.7785 0.44862 2.1887 3.1378 0.59833 3.1877-0.15179 1.0974-0.45266 3.9046-2.1833 2.6687zm26.334-10.424c-1.8035 0.14549-2.8798-2.533-3.1055-4.3125 0.96061-1.5794 1.5697-1.9286-0.12821-2.9008 1.2287-1.5971-2.8172-2.5002 0.17453-3.7113 1.066-0.01 5.085 1.1764 3.4047-0.2551-2.0414-0.0891 0.78251-3.3707 1.2369-0.66229 0.77399 1.3851 0.94035 0.91478 0.85753 3.0238-0.34853 1.0206-5.0389 1.7741-1.6981 2.2979 1.1976 2.1342 2.7676 0.95383 2.8348-1.1985-1.1811-2.5264 1.8845-3.4602 0.50941-5.6871-1.0301-1.4348 2.0112 0.35795 1.156 1.6964 1.3479 1.9175 2.2486 3.915 2.1621 6.2554-1.3724 0.33956-1.6754 3.3356-3.3206 1.353-1.2824-1.1019-4.5468 1.7585-2.1529 1.9069 0.33679 0.68392-1.2473 2.8991-1.9306 2.1942zm3.1472-14.919c-0.6299-0.99071-3.1076-3.8324-2.169-4.3406 1.4283 1.4876 3.2801-3.6898 3.7306 0.10376-0.12859 1.4536 3.1879 4.7024 0.11197 4.2799-0.77392-1.0524-1.3644 1.3378-1.6736-0.043zm-6.8548-1.9485c-1.2604-1.518 2.4116-2.3025 1.165-3.7414-1.3337-0.8824-0.6104-4.5262 0.28616-3.3259 0.40777 2.0065 1.3244-0.62481 1.2306-0.95857 1.0855 1.1766 1.609 3.7025 1.3581 5.0589-1.326-0.0884 0.72977 1.965-1.4702 1.6989-0.68705-3.4326-1.2448 1.7188-2.5697 1.268zm10.583-3.2007c-0.76908-1.3441 2.7663 0.26817 0 0zm-11.802-7.1069c-1.5588-0.46806 0.9424-3.3647 0.75776-0.62238 0.14756 0.36191-0.89268 1.6963-0.75776 0.62238z" fill="#f1d2ae"/><path d="m90.291 268.36c-1.5652-0.37422-3.1349 0.14462-2.5206-1.9674 0.19113-3.2565 1.4461-6.3687 1.5951-9.5934 2.4582-2.7898-0.43148-5.715 0.09024-8.6713 0.29718-2.1436-1.4239-4.7497 1.6777-5.1447-1.2813-1.2016-0.89429-4.092 0.38228-4.7813 1.774 2.3993 2.211-3.0832 2.2765-4.3258-1.6957-1.1913-4.3538-5.2113-0.17667-4.1962 2.2816 2.2857 0.66396-4.1939-0.34905-4.4856-1.8745 1.039-3.2524-1.7324-3.4944-3.1684 0.03943-3.3366 2.2149 0.0191 3.4683-0.19396-0.11397-1.7456 0.72614-2.9031 1.1733-0.66019 2.0467 1.9863-0.56524 4.568 1.3769 6.9308 1.5124 2.0949 1.8378 3.8244-0.10412 5.8694-1.813 2.7645-1.689 6.5508-3.2524 9.1283-0.07172 0.99791-1.892 4.0348-1.0988 6.1864 0.32064 1.782 1.5387 2.1625 1.5602 0.13047 2.2005-0.1961-1.5272-0.73908-0.46557-2.3399-0.65904-1.9456 0.79914-3.8142 2.0914-1.9427-0.06429-2.1139-0.34225-5.4145 0.58796-6.3747 0.66692-1.5997 2.1384 3.609 2.6098 0.23937 1.5659-2.2051-3.8654-2.1983-1.3412-4.8078 0.14583-1.4018 1.0487-2.3985 2.315-1.8611 1.1742-3.691-4.6893-5.3497-2.2105-8.8108-0.2271-1.84 1.4365-2.82 1.8831-0.49571 0.43369 1.6524 2.179-1.4476 3.7791-0.63243 0.87233-1.5313-2.5985-1.1586-1.9981-3.1888-3.228-1.6918 2.7736-4.3644 2.5873-0.61377 0.88046 1.5993 0.75649-0.86793 2.068 0.56739 3.1063 0.24891-0.23548 1.4201 1.254 3.0818 0.33312 1.314-2.9269 0.25001-2.9738-0.83363-0.62692 0.66925 0.63081 2.2714-1.4894 2.0412-4.611-0.0216 2.8124 4.1959-1.2204 5.9532-2.3409 2.4791 3.0423 1.1291 2.8789 3.9306 1.0713 2.4183-2.0764 1.5344-2.6827 2.0327-0.20625 1.4338-2.3798 2.803 0.0936 2.8796 3.461 2.2673-1.3833 4.5184-3.4903 3.9264-1.0369-0.66784-1.7991 1.477-0.72785 1.8242 2.0142 1.455 0.23666 4.8583-0.82113 4.0601 0.52257 1.8376-0.62723-0.19926-0.76867-0.98336-0.78299 1.6682 0.90615 4.6996-1.0893 5.7326 1.6882 1.8206-2.242 4.87-2.0617 7.4153-0.69519 2.7399-1.3563 5.6505 0.08207 8.2703-0.06447 0.72322-1.2024-0.12229-1.4939-0.12728zm3.2927-20.882c-0.89334-2.1398-0.71667 1.8665 0.09163 0.45619zm5.6239-5.9364c0.58544-1.2528-2.5814-2.6976-1.0097-0.3616 0.17616 0.34918 0.52731 1.0242 1.0097 0.3616zm-6.9736-0.36913c2.0714-2.9509-2.9405 1.1696 0 0zm7.0168-1.6379c-1.7329-1.3985 0.78126 1.5841 0 0zm-0.16331-4.6782c-1.3324-0.78243-2.8038 1.0712 0 0zm4.3505-15.065c-1.6419-0.27933 0.88313 2.6682 0.22212 0.32868l-0.22211-0.32868zm-1.2989-0.75258c0.95226-2.8338-2.0495 0.92306 0 0zm-17.555 49.136c-0.15873-2.6293 0.02191-5.7246 0.88697-8.3673 1.0959-2.4572 1.5484-4.8143 0.71561-7.3135 0.35094-2.8843-1.5217-4.4754-3.6906-5.7105-0.88766-1.7741 2.5865-2.0582 1.0061-0.91329 2.9191 1.6198-0.42795-3.3228 1.1916-2.9935 1.9297 0.94089 2.6053 2.6091 2.1832 4.5576 1.0194-0.9191 0.86817-5.0145 0.74067-7.1047-0.88345 0.28815-0.74481 2.1663-1.3067 0.12116-1.0371-0.9653-1.3215-3.0466 0.36871-1.3322 0.26185 3.4956 0.76147-1.7389 2.2048-1.0691 1.1838 0.55677 2.065-3.3486 0.228-1.9915-1.2266-0.82107-4.1741-3.0274-0.90616-3.4179-0.2877-1.8916 2.6029-0.77735 0.55583-2.5207-0.74803-0.22075-4.271 1.6676-3.6123 0.61468 1.6536-0.57681-2.9697-1.803-0.39516-2.6506 1.4002 0.47905 3.9876 0.91283 1.9486-1.1366-1.133-1.7663-1.0781-4.476-3.5494-4.423 0.87914-1.6515-2.8895-3.666-0.08067-4.4377 0.90676 0.0583 1.1777-2.166 2.2807-0.28245 2.8434-1.2655-1.5911-5.0635-0.04381-6.8164 2.0316-1.1066 3.8253 1.9205 4.429 2.9712 0.65405-1.0288 3.8467-2.8876 1.9919-3.502-1.0352-1.5818-5.2016-0.52335-2.4295-3.1738-1.7225-1.9859 0.8222-2.4488 2.1448-1.2966 0.11316-2.725-4.9097-3.19-3.7935-5.3276 2.3096-0.66118 3.0196 4.5565 4.7795 2.2891 1.2052 1.1503 1.8214 2.9289 2.4094 3.7306-1.2781 2.5727-1.2507 5.6988-3.9487 7.5584-1.31 0.97156 0.62467 2.1782-1.051 2.6163 2.141 1.7003-3.4835 4.0325-2.1719 0.50311-0.4087-1.4892-1.8472 2.4462-0.63306 3.3613-0.31949 1.1795-1.0886 4.6252 0.3333 4.5893 1.6938-1.5715 5.4171 2.7313 1.8873 2.8418-1.3481 0.8264 2.507 3.2524 2.4119 4.9446 1.7562 2.4611-2.4095 5.3321-2.0209 8.1885 0.01449 2.2077-1.8516 4.3868-0.97785 6.9749 0.01308 3.2811 0.9695 6.6902-0.23625 9.8606-0.0072 2.8796-1.8456 5.4612-1.2245 8.376 0.08442 1.052 0.52549 2.4444-1.0539 1.908-0.52912-0.023-1.0664-0.0515-1.5722-0.22624zm3.0398-11.78c0.67503-2.2045-0.90149-1.2219-0.3151 0.19844l0.21443-0.0583zm-6.6083-11.211c-1.2426-0.33272 2.4159-4.0617-1.1565-3.5078-0.75372-2.0101 2.1792 0.37197 2.1854-2.0115 1.8107-0.715 2.6912 3.119 0.18648 2.5117 0.56921 0.86019 0.61049 3.4036-1.2154 3.0076zm-1.3853-5.4749c-2.7068-1.165-3.9017-3.2639-2.5809-5.8092 0.23651-1.6835-0.94189-2.8452-1.3408-0.55454-1.9844 0.76908-4.0959-4.8254-1.4894-4.1328 1.3853-1.4774 2.4623 1.7531 4.1183-0.25873 2.0077-1.4772-2.0692-3.0394 0.87734-3.424 1.8054-0.329 0.86928-2.5303-0.342-2.7311-0.53469-0.15761-1.6389-0.49557-1.3692 0.69299-1.0379-0.0594-0.91258-1.7004-1.967-2.0135 2.6463-0.57498-2.0637-0.089-0.27524-1.9009 0.9106-0.60197 3.9425 0.47817 1.5664-0.57715-1.7198-1.5014-3.2618-2.7221-5.6587-2.3559-2.7337-0.76918-1.1946-6.2015 1.0604-2.6726 1.6684 1.6296-1.0993-4.1089 1.5924-1.7183 1.1583 1.7299 1.1102-1.3592 1.8062-2.0081 0.26217-0.65131 2.4524 0.88485 1.2384-0.56993 1.3538-0.72066 3.1115-0.91906 1.286 0.93353-0.56124 1.4824-2.6342-0.99006-2.2366 1.6912-0.47354 1.4317 1.7186 3.4273-0.48269 4.2923 1.1271 2.1324 3.2881 2.3549 5.0129 2.4206 1.2355 1.2035 0.07459 3.3586 1.0726 5.0426 0.95491 1.3103 0.15225 3.6517 2.0923 3.6938-0.17452 2.3365-1.9214 3.0982-3.3887 0.97889-1.1493-1.3405-1.3967 2.2657 0.18745 2.2061-0.64063 0.7818-3.9633 2.2326-1.3753 3.1059 1.8546-0.0857 1.2976 2.2762 2.4844 3.24-0.40511 1.4219-2.9514 0.60309-0.94363 2.2889 0.4547 1.2851-0.5431 0.59412-0.94482 0.14002zm-3.8582-8.5471c-2.1204-0.77307-1.2182 0.41461-0.39053 0.83123 0.15085 0.58022 0.73551-0.69045 0.39053-0.83123zm31.268 3.4532c-2.1361-0.0612-3.9717-3.4861-2.4899-5.3291 1.1493-1.3645-1.6049-1.666-0.47555-3.3317-3.7239-1.1595 2.1236-3.5285 3.0096-0.85923 1.5436 1.8046 1.3588-2.6301-0.11389-1.5546-0.97158-3.3285 2.938-0.55083 2.0756 1.4114 1.0123 1.8888-0.42557 1.2909-1.1443 1.7394-0.85252 0.23624-2.7793 1.871-0.41005 1.4905 1.3163 1.0631 1.9882 1.9625 3.0045-0.18733 0.85671-2.2426-0.34576-3.5346 1.0687-5.2698-0.30294-1.308-1.3287-3.0918 0.34587-1.175 0.3716 2.717 2.3266 4.1726 2.548 6.8767-0.48473 1.0135-1.4932 1.8032-2.1402 3.0888-1.2773-1.7923-3.7533-1.3977-4.5636 0.65269 2.6509-0.75526 0.18447 3.3584-0.71477 2.4472zm2.6317-15.43c-0.89102-1.164-2.9333-4.5078-0.63619-3.1082 0.46135-2.43 3.1427-2.4404 2.6188 0.24571 0.0711 1.1151 2.6174 3.2661 0.82078 3.6402-1.7447-0.86717-1.8639 0.58216-2.8034-0.77777zm-14.617-0.0428c-0.12574-2.364-0.78506-1.2306-2.0372-0.50214-2.3975-0.62226-0.99334-6.6065 1.0888-3.994 1.1176-1.24 1.9343 1.2967 3.1088-0.72283-0.05911-1.6216-2.6749-3.9132 0.2721-3.9262 1.6386-3.4945 1.8888 3.9987 3.4621 0.67584 0.64134-1.0089-3.5665-4.72-0.64531-3.8133 0.8076 1.2946 1.9954 2.8053 3.1516 2.3777-1.1291 2.2422-3.6926 3.9316-4.9873 6.3416-1.1568-0.52418-0.06334-1.7432-1.6994-0.3338-2.0998 1.0619 0.45237 3.7862-1.4745 4.3732l-0.2396-0.47594zm8.1872-1.4201c-0.34846-1.1802 2.1348-2.5344 1.3166-4.256-0.75857-0.17583-1.3723-3.356 0.075-2.515-1.5149 1.2881 2.9442 0.41623 0.97182-0.94978 2.2664-1.0896-0.18661 3.5169 1.338 2.025 0.26842 1.5265 1.283 2.728-0.4673 3.1954 1.6895 0.87349-1.5228 2.1011-1.1653 0.16365-0.83867 0.35006-1.1409 3.0396-2.0688 2.3368zm3.1474-4.1456c-0.94911-2.1876-2.2832 0.86961 0 0zm7.4449 0.85971c0.0238-1.1431 2.0604 0.3832 0.26547 0.24915zm-1.2478-2.1729c0.55595-2.6319-2.6793 2.027-2.6448-1.085 0.81048-1.2531 1.3869-2.8508-0.58395-3.1129-1.5101 1.3217-2.6476-0.38104-1.7231-1.5542-0.89711 1.101-5.4526 1.5743-3.3102-0.53787 1.9645-0.83972-0.41033 1.433 1.4457 0.81826 1.3294-1.3006-1.4177-1.7047-0.10617-3.7066 1.732-4.2907 2.0027 6.3433 3.6179 1.5042 1.7263-3.5264 1.3627 1.8038 1.7262 3.1816 0.90837 2.4108 1.5822-1.0301 1.0125-0.32383-1.3906 2.2809 0.19764-4.1324 1.1877-0.83653 0.45083 1.7276-0.91992 4.6372 0.3242 5.1357-0.48628-0.0621-1.1738 2.1315-0.94611 0.51734zm-36.656-3.229c0.1851-0.85013-3.3677-0.0623-2.2419-1.2525-0.01535-1.1653 1.1798-4.9603 1.1016-1.6471-1.2021 3.1646 3.291 0.6693 1.4037-0.29774-0.97096-0.41175 1.6386-2.3922 1.6472-0.0578 1.4116 3.0586 0.14428-4.4167 1.1409-3.6131-1.2167-1.6 0.63996-1.3962 0.81592-0.60458 0.68207 1.5772 0.46364-1.9493-1.1124-1.1566-0.89669-2.2134-0.02732 3.1806-1.0618 0.0288-0.72612 0.40471-1.6896 0.6273-0.63916-0.93177 1.2498-0.72486 4.0382 1.9582 4.3367-0.68955-1.1349-1.3841 0.03261-2.959 1.2478-1.2887 3.4618 0.76648-0.74267 2.4504-1.8386 3.6274 1.047-0.2727 4.939 1.5632 2.6438 3.3085-1.7637-0.7112-4.1505 0.28519-3.8586 2.6655-0.18225 1.2978-2.0664-0.40457-2.7409 1.4955-0.18102 0.12329-0.69883 0.93889-0.84433 0.41382zm25.781-3.0994c1.0224-1.0534 1.2089 1.0921 0 0z" fill="#edc494"/><path d="m90.274 268.33c-4.2874 0.46223-2.0703-4.4794-1.5667-6.9245-0.18183-3.3038 2.2313-6.1978 1.4211-9.4029-1.5052-2.4714-0.09765-5.3504-0.92158-7.8527 0.84178-2.2579 2.0682 1.1299 1.936-1.3625-1.0597-0.70254-0.93222-2.6292-0.3331-2.5425-0.76948-1.662 0.76692-2.689 1.8144-1.2678 0.68451-1.547 0.9906-3.228 1.4522-4.8503-1.0526-1.3161-4.9145-4.3912-1.2077-4.6484 1.4022 0.76909 2.2426 1.8989 1.8535-0.31842-0.18248-2.1125-0.60369-4.709-3.1947-3.8037-0.07983-1.8951-3.1204-2.5225-1.3181-4.722 1.2465-0.10685 3.2714 3.0564 3.2618-0.15418 0.18476-1.4032 1.1301 1.929 2.0329 2.1537-1.5762 2.5988 0.27503 5.7095 1.6321 8.1693-1.1238 3.087-3.1263 5.9078-3.6877 9.2704-0.237 2.702-2.2178 4.241-2.2191 7.1968-0.45379 1.7922 0.78363 5.018 2.223 3.0327 2.7785-0.0189-2.0209-0.88903 0.73151-0.85322-0.31374-0.86078-1.2702-4.2166-1.1972-1.2892 0.02993 1.7784-1.9258-5.3148 1.0822-3.4577 1.0706 1.1849 0.31525-3.0858 0.07756-3.9482 0.63435-1.8586 2.1571-2.7354 2.8198-0.4468 1.1236-1.1866 2.4759 3.7955 0.15894 1.7336-2.9695 1.1817 2.0207 4.2049-0.70209 6.3522-1.626-2.6585-2.8767-0.14061-1.6959 1.7022 0.3292 1.8366-1.3882 2.5099-0.35626 3.6587-1.3305 2.6796-2.7504 5.3146-3.0857 8.3361-1.0889 2.1782 0.23935 4.8756 0.26547 6.6599-0.45289-0.0345-0.86142-0.26228-1.2768-0.42059zm3.4158-16.777c-1.3229-1.1009-0.63311 1.4643 0 0zm1.6814-7.8115c1.0756-1.6889-1.8081 0.48218 0 0zm-0.35853-2.2271c-1.4857-1.5766 0.82213 2.0585 0 0zm1.0583-0.0156c-0.50844-1.373-0.56525 1.6958 0 0zm-3.6594-0.31512c2.3006-2.6218-3.4222 0.43505-0.40726 0.22068zm-7.7596 27.027c-0.36255-3.6166 0.39148-7.375 1.7223-10.761 0.77089-2.6428-0.41065-5.1554-0.58387-7.8739 0.1474-1.9666-5.577-2.4748-2.4253-4.3918 0.35978-0.17687 0.13296 2.1983 1.4684 1.0421-0.20236-1.0018-0.07382-1.8143-0.73902-3.1948 1.234-0.40476 3.8055 2.2058 2.6418 4.0323 0.12068 1.6179 1.8087 0.86614 1.1326 0.49199-1.2239-0.7588 0.71385-5.0418-0.22285-7.0209-0.78509-0.13654 0.58995-2.2219 0.80881-2.6214 1.4758 1.2734 2.7467-3.3681 0.66265-1.8522-0.85657-0.69334-4.1057-2.7728-1.4454-2.9886 1.0762 1.5001 2.1386 0.72374 0.40843 2e-3 -0.03301-0.24952 1.0976-0.16074 0.13619-1.3495 0.50964-0.863 0.70789 0.81959 1.1734-0.33557 0.36571-2.7997-3.8011 0.26518-4.3141-0.64889 1.7389-0.0516-3.1223-2.7885 0.17245-2.4698 1.4023 0.79927 3.6134 0.46548 1.6046-1.1519-1.2671-1.566-1.1103-4.5272-3.415-4.4534 0.13708-1.81-2.9393-4.446 0.19756-4.771 0.56823-2.0468 2.4091 1.3287 2.8127-1.3804 0.03135-1.4926-1.8864-3.6243-1.3803-5.3772 2.36-1.9048 3.8001 2.6815 5.1098 2.42 2.2142-1.2388 3.0095-4.1887-0.2167-4.0723-2.9202 0.53159-0.65533-1.57-0.93054-2.7582-1.5517-2.9772 4.3706 0.76589 1.7865-2.1952-0.41153-1.5307-5.5388-3.004-2.5551-3.8292 1.9215 0.60756 2.7041 3.9292 4.4411 2.4968 1.7347 0.97795 0.35195 4.3168 2.0169 2.8437-0.91957 2.2623-0.71146 5.4052-2.9461 7.2706-1.4406 0.89357-1.9921 1.8912-1.189 2.9959-1.7105 0.26405 0.96994 1.906-1.2051 2.601-2.5571 2.0822-0.78733-4.4221-2.4967-1.1531-1.2804 1.7477 1.0909 3.475-0.4523 5.3751 0.06897 1.2716 0.40797 3.3948 1.7114 1.7302 2.7597 0.30275 3.2622 3.5126 0.58454 3.5282 1.4026 1.486 2.3773 4.0664 3.1389 5.3095 1.3958 1.0835-1.5237 3.3182-1.5646 5.0384-0.80246 0.78585-1.454 2.2481-0.58401 1.7919-0.56128 0.52568-1.1208 1.9753-0.07079 1.184-1.0328 2.559-1.3334 5.4699-0.87816 8.3882 0.17494 2.9585 0.67272 6.058-0.64563 8.8255 0.15608 2.2655-1.4013 4.4363-0.91917 6.867-0.25505 0.82955 0.61884 2.7836-0.68783 2.5656-0.62321-9.8e-4 -1.2587 0.0331-1.8634-0.14995zm3.2966-13.005c-0.07424-3.1965-1.4646 4.0352-0.0755 0.41652l0.0755-0.41657zm5.3527-50.707c-1.1283-1.9043-0.19954 3.035 0 0zm-12.691 40.483c1.5555-1.3264 1.0064-3.4404-0.8947-3.7988 0.56072-0.77039 2.5102 0.46746 2.4017-1.7023 1.6076-0.21649 2.6835 3.5619 0.07349 2.3548-0.02959 1.0819 1.0247 4.087-1.5805 3.1463zm18.748-3.341c0.85769-0.73572-3.2564-3.7299-0.64164-2.9051 1.7335 1.4908-0.02651-2.1893 1.9984-0.34602 2.6542 1.6019-0.0127 3.5323-1.6349 3.5256l0.27812-0.27449zm0.41463-1.6483c-1.2257-2.0157-1.6165-8e-3 -0.01834 0.33174zm-13.258 1.3229c0.06271-1.3398-2.3903-3.7204 0.03938-2.2417-0.1228 0.33573 0.93431 3.156-0.03938 2.2417zm-7.1426-1.8467c-2.6136-1.0994-3.5695-3.1558-2.2833-5.5401 0.34596-1.1249 0.01996-1.9882-1.0003-2.5814-0.94445-2.239-3.1476-0.22232-1.7203 1.1317 1.0591-1.0554 2.8548 0.9736 0.6023 0.92213-2.4175-1.1292-2.2962-4.9379 0.65283-4.6951 0.89026 2.8507 5.2839-0.91129 2.3105-2.3216 0.87268-0.492 3.6058-2.0406 1.6593-2.9495-0.67224-1.0876-0.66105-1.0539-1.6043-0.67178-0.80529-0.49959-0.33378 1.8707-1.2531 0.0928 0.78724-2.1125-3.221-2.0143-1.0108-3.4888 1.8958 0.14726 2.7391 0.35268 0.68336-0.66191-1.4738-2.3784-3.9821-1.5359-6.0186-2.5589-1.8776-2.1223 0.35354-4.9995 2.0978-1.8795 1.1251 0.50265-0.4878-3.2814 0.63085-2.4756-0.72952 1.06 2.5536 1.271 2.0969-0.61518 1.756-2.5845-0.33019 2.4919 1.1769 3.0247 0.33293 1.7323-2.0804 2.759 0.38418 3.8174 1.4008 2.2052 3.7487-0.6506 4.4142 2.1414-1.0645 2.5404 1.4778 4.8913 1.0432 7.1877 2.1136 0.35161 0.89744 1.7935 0.12422 2.7905-1.3306-0.0185-2.8845-3.2868-3.1551-0.60662 0.70849 0.92852 2.0501 2.1385-0.2803 2.406-1.9406 1.2352-0.09895 2.5259 1.3781 2.5733 0.20303 1.6769 2.4904 3.7777-0.69316 3.8635 0.86034 0.55903 1.5632 2.6447-0.23542 1.0949zm-1.3567-8.955c-1.4063-0.63411-2.826-0.0196-0.57947 0.18132 0.13286 0.25283 0.63196 0.0939 0.57947-0.18132zm0.32855-8.5602c-1.1415-2.6956-1.4487 0.80552 0 0zm-2.1167-1.7387c0.1181-1.4869-1.5131 1.1024 0 0zm-0.79375-5.9814c-0.6708-1.6561-0.93603 2.2217 0 0zm23.02 23.71c-1.8583-0.86045-3.488-1.8608-1.9317-3.9364 0.18649-1.3143 0.68453-2.434 2.1173-1.5882 1.3209-3.8328-4.8792-5.6958-2.0486-9.3238-0.01103-3.0807 1.6948-0.14777 2.231 0.54772 0.66474-1.2892 6.4644-1.6346 3.1334-0.25743-1.7884-0.0681-3.3002 1.0312-1.1623 1.9684 2.2474 2.2221-1.0581 3.747-0.89476 5.7446 3.7504-1.031 4.5737 5.7763 0.66532 3.937-0.17994 0.8032-1.0927 3.4671-2.1096 2.9081zm0.66001-3.0445c-1.2256-0.9851-3.2682 0.91406 0 0zm8.0698-0.29326c-2.1339 0.22558-2.5769-1.984-3.1825-3.6446-0.1485-1.4456 2.1226-2.8244-0.11028-3.2941 0.0983-1.3014 0.70059-1.8572-0.94688-2.1675-0.0744-3.0992 4.2526-1.2468 4.4134 0.3259-0.12047-0.74873 1.339 0.51009 0.8887-1.3037 0.24421-1.8486-2.4857-0.32787-1.2147-2.5159 2.3594-0.0821 1.9664 2.8338 2.0788 4.6196-1.3163-1.1147-1.1116 1.139-2.3823 0.27965-1.8339 2.3393 2.021 0.57034 2.3059 2.6613 2.0072-0.55104 1.395-3.885 2.2171-3.9444-1.2104-1.5545 1.3872-2.6095-0.34153-4.6666 1.3382-0.40971 1.0792 3.8783 2.9581 4.704-0.56897 1.2609 0.85232 2.4496 0.32225 3.6115-1.3785 0.0698-1.3609 3.4896-2.8804 1.4144-0.95756-2.1751-5.1044 1.8865-2.4346 1.6219 0.34697 0.42026-1.3779 3.2278-1.6912 2.2986zm-3.2607-12.185c-0.9023-2.2338-1.6811-0.39658-3.5138-1.9347 0.44247-1.5844-2.7232-2.4964-0.194-3.5342 1.3414-1.3822 2.9002 1.1876 1.1136 1.9807 0.57945 1.3476 1.5494-2.1114 1.4963 0.16007 0.91116-0.16626 3.2602-0.0898 3.3003 0.94098-1.174 0.89776 1.0217 3.5351-1.8152 2.5441l-0.38717-0.15698zm-0.17885-1.926c0.32011-1.5617-3.1032-0.48572-0.7429 0.0848 0.19959 0.59772 0.77689 0.81596 0.7429-0.0848zm6.3042-1.0689c-1.0465-0.95465-3.3586-4.2849-0.93609-3.516 0.42665-1.8551 2.9523-2.5958 2.5694-0.0159-0.41397 1.4927 2.6213 3.1014 0.57615 4.105-1.4028-1.5758-1.7716 0.85542-2.2095-0.57314zm-15.051-0.87952c-0.22905-2.7676-2.0959 2.0127-2.6227-0.91564-1.6271-1.3461 0.62673-5.2051 1.6037-2.6989 0.54539-1.4222 1.1857-0.80468 1.844 0.20107 2.6404-0.92157-0.10001-3.0888 1.5441-4.4731-1.6733 0.0753-2.045-0.31792 0.13721-0.44662 0.96562-3.3111 2.0592 1.6335 2.5397 1.5374 1.5291-1.248 1.3152-2.4806-0.36901-3.4338-1.0779-3.5017 1.8819-6.7e-4 2.7712 0.99903 2.8195 0.24912-1.8766 2.3886-2.2996 3.6724-0.30191 1.5169-2.3118 3.2853-2.3547 1.5556-1.8586 0.7487-2.5351 2.607-1.6177 3.9428-0.70649 1.0396-0.87823 1.6097-1.1762 0.0599zm-1.3071-1.1256c-1.3229-1.1009-0.63311 1.4643 0 0zm9.3229-0.18282c1.3405-1.2482 2.8426-3.7252 0.63623-5.3739-0.29709-1.036 1.9716-1.8792 0.55351-0.44277 1.55 1.2597 1.9136-1.2469 2.029-1.4989 0.62374 1.4515 1.0423 3.3864 1.3288 4.7513-2.384-0.11315 0.73299 1.5845-1.5689 1.7783-0.75046-3.602-2.2275 2.9008-2.9787 0.78591zm3.3771-3.7556c-0.71913-2.1903-2.7601 1.3163 0 0zm3.8554-1.4888c-0.8171-1.3095 2.0551-3.9097-1.0338-3.9677-1.8686 1.4719-1.676-0.71869-1.575-1.5916-1.1549-0.98235-2.9958-0.83335-1.8904-2.8405 1.1289 0.99781-0.5987-3.0312 1.1812-1.3044 0.69315 1.1523 0.59853 5.5984 2.2274 2.6456 0.42917-2.3508 2.4339-1.6136 1.6033 0.52746-1.285 1.2437 1.8348 3.6634 0.82957 3.42-1.1066-0.945-0.26112 3.6404 0.23169 0.86577-0.14755-1.2664 1.352-4.8382 1.4779-1.7606-0.29484 1.4256-0.8775 3.0882 0.3792 3.7525-1.6912-1.5616-2.0493 1.4598-3.431 0.25347zm-33.158-1.045c-0.64212-0.88028 0.94618-0.0915 0.17298-1.557 1.2031-0.18306 2.6598-0.58609 1.0077 0.95047-0.2635 0.16824-0.753 1.1384-1.1807 0.60648zm-1.1558-1.8589c0.43746-1.0953-3.8784-0.55182-2.0633-1.3609-0.13482-1.2922 1.1615-4.5871 0.8885-1.4047-0.82667 3.6788 3.5326-0.592 1.4437-0.64389-0.93879 0.0781 1.5156-2.363 1.6337 0.072 1.8473 3.4786-0.80856-4.4852 1.9455-3.3903 2.341 0.13002-1.2289-2.4601 0.51484-2.2715 0.92813-0.23098 2.6096-0.51987 1.3938-1.6228-1.3845 0.65684-0.66456-3.349 0.72622-0.87279 3.2664 0.59896-0.40027 2.4943-1.5719 3.4598 0.37097 0.19747 4.6491 0.83973 2.7568 3.3898-1.3009-1.2207-1.9377 0.77338-3.5154 0.24864-0.45498 1.5267-0.44385 3.7191-2.0773 2.869-0.79016 0.3354-1.2761 1.3199-2.0752 1.5276zm28.992-1.7254c-2.2302 0.35452-0.56697-2.5363 0.25809-0.42862 0.49375 0.23478 2.2451-1.4213 1.2083 0.13492-0.33989 0.27532-1.0924 0.90496-1.4664 0.2937zm6.758-0.70231c0.3961-1.9492 2.3454-0.13563 0.0777 0.40213l-0.0672-0.10348-0.0105-0.29868zm-33.69-5.2769c0.21536-2.5086-2.0256 0.9494-1.2174-1.3113 1.877-2.8321 1.8354 1.1763 1.2174 1.3113z" fill="#ebbc85"/><path d="m90.274 268.33c-4.2333 0.43501-2.1041-4.454-1.5479-6.8734-0.17328-3.3492 2.2182-6.31 1.3985-9.5644-1.4368-2.5338-0.07411-5.2155-0.9272-7.7664 0.74068-1.4718 1.5298-0.55711 1.7569-0.22779 0.59607-1.4088-1.6954-3.5208 0.0062-3.7281-0.82628-1.4062 0.53953-3.0195 1.5452-1.0366 1.4409-2.0254 1.2209-4.8198 1.3825-6.5569-1.8698 0.69576-4.2126-3.7955-0.79995-2.976 1.2873 0.81594 2.4005 1.5854 1.6615-0.70179-0.25202-1.4661-1.4906-5.7471-2.1183-5.2435 0.734 0.92907-1.6226-1.058-0.57455 0.55407 1.827 0.56828 1.3957 1.2927-0.46014 1.107-0.34023-1.5554-3.4771-3.3519-0.95178-4.7785 1.6329 0.66527 0.11392 1.1584 2.1144 1.3906 1.3996 1.1633 0.27126-3.9864 1.2511-0.97348 0.67333 0.72168 1.1515 2.0093 1.0915 2.6342-1.4691-0.14776 0.54043 3.8261 0.82296 5.1056 2.8182 2.7356-1.0489 5.0807-1.4056 7.9092-0.34085 2.1603-1.3073 3.6505-3.3384 4.1989-0.899 2.0687 3.3485-1.0581 1.8527 1.4835-1.9982 1.987-1.6668 5.2455-2.1923 7.6503 0.91055-0.49049 2.6461 3.5074 2.6556 1.4862-2.3423-1.0613 1.7348-0.67356 0.95824-2.1204 1.2843 1.9351-1.5135 3.0548-0.22723 4.7088-1.5356 2.6724-2.4879 5.5146-3.1016 8.511-1.4021 1.9146 1.0095 5.2059 0.2389 6.1898l-0.49888-0.14897-0.5924-0.23271zm1.2991-29.345c-0.66042-1.2812-0.51201 1.7269 0 0zm-6.8423 29.275c-0.37373-2.8923 0.08074-6.0772 1.0524-8.8714 1.3629-2.4368 0.74052-4.9315 0.44803-7.4897 0.20831-2.626-1.295-4.1348-3.4956-4.9727-1.0812-1.3388 1.3644-2.6413 1.2129-0.56085 1.5559 0.64468 0.10038-1.4262 1.1138-1.0674-0.59621-1.3358-1.2905-3.4106 0.62386-1.5648 2.4918 0.51137-0.21832 5.0516 2.4155 4.1991 1.158 1.0515 0.64707 5.3332 0.89444 7.548-0.8877 2.9327-0.6148 4.8148-1.7294 7.4874-1.0528 1.6436 1.477 6.3285-1.6294 5.1793-0.26435 0.14784-0.61338 0.31745-0.90636 0.11317zm3.1437-12.524c0.72117-1.141 0.29771-3.1532-0.50399-0.96675-0.50108 1.0276-0.09175 3.3268 0.50399 0.96675zm6.056-6.9453c0.33621-1.7633-1.3589-2.8554-1.0647-0.39688-1.4124-1.6218-0.03469-5.5094 1.6587-3.3195 0.42044-1.9502-1.1535-5.1743 0.83527-5.8086 0.09455 0.72788 0.98756-1.7748 1.0675 0.54207 1.2167-0.11667 3.3949 3.5415 0.91791 2.2415-0.59879-1.2778-3.7998 2.7206-1.7391 1.4023 0.31163-0.27278 2.2758 2.7759 1.2459 3.9334-0.17853 2.2355-2.7833-2.2235-2.6147 0.67527-0.25879-0.56487 0.01331 0.96567-0.30671 0.73051zm2.3138-1.5761c-1.2333-1.4496 0.22165 1.65-1.3e-5 0zm-1.2316-5.7c-1.4857-1.5766 0.82213 2.0585 0 0zm1.1906 0.0441c-0.62249-1.1505-0.87491 1.4582 0 0zm-8.5542 4.4538c0.54797-2.433-0.36662-4.9872 0.35964-7.0874 0.04443-1.4514 2.522-0.39323 2.151-2.6477 0.37709-1.1801-1.3993 0.74148-1.6808-0.94046-2.4401 0.24159-2.0558-3.7875-0.24107-1.8344 0.85877-0.97741-0.91718-2.5479 0.89991-1.6266 1.332-1.3904-1.896-2.5398-3.3622-1.1065-0.70198-1.0627-2.8797-2.7734-0.15041-2.3994 1.4175 0.88945 3.1158 0.0479 1.2646-1.2653-1.2926-1.5626-1.013-4.5065-3.4929-4.5045 0.49038-1.6739-3.1801-4.1494 0.11209-4.4721 0.58097-1.8712 2.5422 0.90008 3.0283-1.5984 0.53862-1.0776-1.6432-2.0928-1.0917-3.6207-1.9776-3.7402 4.2182-1.325 4.2278 0.95682 2.3293-1.2419 4.111-4.3326 0.23677-4.4083-3.1552 0.49447 0.21693-2.2406-1.1031-3.6256 0.79204-1.3844 3.9531 1.4238 2.0879-1.2507-0.95122-1.478-2.7358-3.1232-3.3565-2.9092 0.55457 0.014-1.0794-1.2916 0.73056-0.88056 1.385-0.38512 2.8442 4.5109 4.0124 2.2715 1.8232 0.0962-0.78377 2.8376 1.1353 2.2497 0.49781-2.2073 0.11507 2.7614 0.6784 0.93203 1.6495-0.57653-0.86012 2.8165-0.35191 3.9982-0.21154 2.5335-4.8364 4.0368-3.1516 6.0717-1.8945 0.21044 1.1464 1.975-1.2016 2.6075-2.3708 1.9925-0.89173-4.5748-2.5943-1.0562-0.62794 1.8288 0.54137 3.7835-0.35874 5.64 0.17314 1.3479 0.50437 2.8033 1.6958 1.3562 1.6025 0.24777 4.093 2.7052 1.2983 3.2833-2.0472 0.5964 2.9681 3.3639 1.7726 5.3529 0.2892 0.63832 1.624 0.17564 0.96866 1.6691-1.2982 1.3062-1.9475 3.8236-2.843 5.4569 0.47003 0.0495-0.9482 1.3525 0.39101 1.6949-1.3564 0.96935-0.83681 4.9511-2.0101 4.8107l-0.03676-0.47543-0.02419-0.64154zm1.5428-12.171c-0.91463-1.8248-0.71623 1.7735 0 0zm0.69419-0.83908c-0.6709-2.2893-0.49469 2.9868 0 0zm-2.2817-3.114c-0.99071-1.6631-0.91098 0.98259 0 0zm-6.8316 15.154c0.86085-1.0783 1.4157-3.9483-1.0033-3.6418-0.09583-1.2871 2.7915 0.64697 2.347-1.8665 0.76926-0.22862-0.45679 2.3237 0.85111 0.47905 1.2458 0.33563 0.8456 2.6943-0.66036 1.6373-0.67264 1.0254 1.2806 4.041-1.5344 3.392zm18.895-3.6301c-0.3189-0.57822-2.7619-3.3153-1.3882-2.4768 1.4533 3.0666 1.8184-0.47452 1.7192-1.0547 2.3517 1.155 2.5377 4.0197-0.33105 3.5315zm-13.384-1.2098c-0.96414-1.1782-0.75032-2.4202 0.26484-0.81563 0.26577 1.1066 0.34334 3.2686-0.26484 0.81563zm-6.87-0.75167c-2.2228-1.0347-3.8093-2.8041-2.4093-5.0456 0.12976-1.1956 0.46913-2.5232-0.89353-3.0994-1.6228-3.0508-3.6357 1.9228-0.71475 1.2654 1.916-0.11211-0.90023 1.793-1.4419 0.0267-0.80972-1.8597-1.3089-3.253 1.0525-3.8925 0.72928 0.32295 2.074 1.6444 3.476 0.64995 0.04612-1.1439 1.1022-2.481-0.46167-2.9729 0.98837-0.76793 3.1566-1.2571 2.1522-3.1011-1.3363 0.30249-0.94382-1.8653-2.0946-0.50167-0.90312-1.2823-0.6817 2.1977-1.3265 0.0156 0.85056-1.581-2.613-2.3415-1.2223-2.655 1.6537 0.83763-0.7981-1.9566 1.6056-0.59265 1.7665 0.17813-2.367-1.5885-2.5764-2.4404-2.3503-0.18334-6.3969-1.0861-4.2839-4.3584 1.2249 0.40782 3.4446 2.9745 2.4165 0.10852-0.62538-2.0826 2.5652 1.6232 2.4766-1.3729 1.3496-3.225 0.07851 1.6005 0.79974 2.3141 1.9469 1.392-1.9037 2.8454 0.2666 3.7346 1.0711 1.1636 2.4537 2.0434 3.6818 1.2358 2.195 0.93568 0.30097 3.5464 1.5085 5.4095 1.1969 1.4 0.0446 3.51 2.1926 3.9725-0.59935 1.6848-1.6785 2.6773-3.177 0.72342-1.9482-1.3608-1.2207 1.9468 0.01536 2.3673-2.0227 0.17556-3.5809 3.2482-0.69965 2.997 0.80938 0.56194 0.47478 2.1212 1.73 2.6458 0.47471 1.9222-3.0834 1.0056-1.0629 2.9436 0.0591 0.80907-0.85657-0.30431-1.0096-0.37718zm-1.3919-8.8199c-0.82266-1.0636-3.0819-0.16355-0.73694 0.32242 0.09836 0.51802 0.74234-0.0585 0.73694-0.32242zm0.3214-8.8278c0.90015-0.39311 1.6234-2.1776-0.0041-0.75909-2.052-1.1074-0.66046 2.0247 0.0041 0.75938zm-2.8586-7.4761c-1.311-1.7311-0.46008 2.1122 0 0zm22.305 23.202c-3.067-0.65254-1.3237-3.8816-0.3247-5.4409 2.2877 1.2508 1.3304-4.064-0.44343-4.2915-2.0513-1.6802-0.77115-4.8164 0.21187-6.309 0.75754 1.4215 0.60083 0.76838 1.1827 2.0626 0.25192 1.1217 2.0059-1.8557 3.3767-0.89585 2.8136-0.66042 0.10146 1.263-1.3015 0.96894-2.3215 0.81628 1.5982 2.1436 1.1273 3.8143-0.0527 1.1445-3.2347 3.4744-1.2582 3.8064 2.9046-1.4046 4.3067 5.8928 0.53799 3.4461-0.61807-0.3032-1.0875 4.9207-3.1089 2.8389zm-0.13229-1.1741c-1.5095-1.0971 0.11446 1.4874 0 0zm1.1789-1.1656c1.0562-1.3874-3.1118 0.0549-0.57424 0.17228l0.57424-0.17228zm8.3461-0.58502c-2.2543 0.12338-2.3956-2.0518-3.1871-3.6355-0.16037-1.4335 2.0754-2.8146-0.021-3.102-0.0638-1.3216 0.70863-2.1157-1.0315-2.3666-0.23546-3.0034 4.1871-1.3829 4.241 0.54495 2.2128-0.15752 0.57392-3.5362-0.30158-2.721-0.28831-2.685 2.7544-0.0947 1.9707 1.3204 0.75523 1.6498 0.17299 2.0002-0.87673 1.9423-1.02-0.20517-3.0683 2.4528-0.56964 1.7409 1.7487-0.21211 1.0187 3.6314 2.1214 1.1038 1.5098-1.7046 1.6784-3.9256 1.4915-5.1152 1.0649-0.64919 0.23633-2.7268 0.63875-3.175 0.18787 2.1868 1.7322 3.761 2.2197 5.3558-0.15532 1.4152 1.2771 2.664-0.54659 3.2493-0.3973 2.8653-2.5402-0.0368-3.5208 0.16848-1.0118 1.0749-2.98 2.2376-0.92054 2.6513 0.015 0.47715-1.3559 2.9779-1.7074 2.038zm-3.1726-12.138c-0.4833-1.1767 0.0411-3.6986-1.6561-2.5884-2.6495 9e-3 2.3109 0.96996-0.1416 1.1804-2.4531 0.40415-1.3401-2.3647-3.1635-3.023 0.59763-0.56178 2.4681-2.5356 2.965-0.6157-1.0387 1.1423-0.63864 2.8391 0.61731 1.0765 0.34631 1.3685 2.9702-0.17342 3.5892 1.5089-2.076 0.28453 1.3022 3.6226-1.7166 2.5958l-0.4937-0.13449zm1.1468-2.1728c0.11867-2.2322-1.228 1.9098 3e-5 0zm4.9448-0.84881c-1.0849-0.8393-2.1238-2.7675-1.911-3.7086 1.4727 2.3093 1.8193-3.6437 3.3273-1.046-0.71895 2.1639 2.5532 3.7352 0.81869 5.3077-0.88657-0.84944-2.0196-0.45091-2.0251-0.10195l-0.20987-0.45117zm-15.106-0.89708c-0.25785-2.5223-2.3061 1.6778-2.7964-1.1099-1.0744-0.90133 0.47317-5.3539 1.6035-2.4908 0.95155-2.0909 1.5118 0.46381 2.4032-0.15205 2.199-0.79796-0.31148-2.9999 1.0781-4.111-2.0216-0.0677 1.0257-0.47561 0.79868-1.6098 1.8107-0.0856 1.0937 4.6116 2.8643 1.6263 1.4357-1.1977-3.6942-3.4848-0.79929-4.0125 0.85564 1.2776 1.9992 2.7555 3.3274 2.9701-1.9297 1.6368-3.4744 3.8539-5.1985 5.6481-0.66016-2.1978-3.9085 1.7115-1.9794 2.9114-0.6556 0.92267-0.9731 2.2471-1.3015 0.33032zm-1.3071-0.97765c-0.02356-1.5863-1.5984 1.276 0 0zm9.3817-0.1501c1.0139-0.85627 0.60389-1.5585 1.8811-2.7734 0.0802-1.3191-2.8091-4.4465 0.0175-2.7965 1.7366-0.0854 0.66255-3.3458 1.6757-1.0404-0.0516 1.8006-3.2534 3.5805-0.16601 2.8537 0.15204-2.1201 0.41897-1.5421 0.88798 0.0306 1.2006 1.23-2.1044 0.88731-0.5018 2.1526-1.3349 2.1402-1.2681-2.3434-2.3324 0.46688-0.3087 0.29089-0.90995 1.9464-1.462 1.1066zm7.4695-5.3146c-1.1816-0.98596 0.17653-3.5126 0.87473-1.2822 0.77514-0.8009 0.64918-5.4081 1.8445-3.6352-0.72867 1.5525 0.0787 4.7543-0.26033 4.3378-1.4666-1.4549-0.92523 1.5634-2.4589 0.57962zm-33.344-1.1327c0.2941-0.80705-0.23244-2.1906 1.557-1.7476 1.1022-0.79179-1.2315 2.6153-1.557 1.7476zm-1.2338-2.1133c-0.77632-0.56693-3.0529-0.19404-1.8485-1.9388-0.25211-1.5645 0.93963-2.8806 0.52243-0.44245-0.75804 3.0397 3.9324 0.22994 1.6891-1.3179 1.3009-2.2912 2.2025 4.1226 2.3307 0.63329 0.30508-1.9261-1.2939-4.176 1.4591-3.3816 1.7969-0.40328-1.9788-3.039 0.74645-2.1352 0.24806-1.4262 1.0422 0.44244-0.02236 0.95201 2.844-0.93988 4.4761 4.3047 1.0043 2.7253-0.53974 0.20057 1.0655 0.14731-0.31353 0.70465-3.0576-1.4057-0.67546 3.5502-3.5698 2.8984-0.6356 0.0946-1.527 1.8784-1.9979 1.3023zm33.897-0.85884c-0.77832-2.0183-1.2132 2.1349-2.3557-0.28684 1.1284-1.3105-1.4732-2.1334-1.3813-2.3063-0.89916 0.72928-0.87848-2.1074 0.44515-1.8832-1.0247-3.0056 1.8704 0.45446 1.0274 2.1116 1.5714 1.7972 2.6858-4.8546 3.1827-1.0931-0.76585 1.4789 0.59386 4.0529 0.70997 4.3394-0.59592-0.64394-1.0042 0.38631-1.6282-0.88161zm-5.044-0.73356c-2.0888 0.0466-0.46173-2.1602 0.45722-0.32037 1.6447 0.21059 0.0912 1.1948-0.45722 0.32037zm6.9784-0.50039c0.93935-2.7012 0.93469 0.40906 0 0zm-35.14-5.95c-0.05059-1.7902 2.5829-1.9833 1.303-0.51064 0.33087 0.9493-1.0313-1.3087-1.1003 0.57331l-0.10567 0.027-0.09706-0.0896zm5.5952-1.7718c0.0036-0.57753-2.6481-1.702-0.65722-2.1269 0.93818 0.84355 3.7629 1.4372 1.2217 2.6153-0.41115 0.2418-0.80538-0.0243-0.56447-0.48843z" fill="#e8b375"/><path d="m90.951 268.58c-2.3261-0.067-4.4552-1.2278-2.5527-3.8251-0.32761-2.1589 1.1398-5.3311 0.96819-7.8708 2.6915-3.1147-0.83878-6.5521 0.41687-9.951-0.67067-0.89341-0.7215-4.2461 0.73161-3.175 2.2254 1.0873-1.5446-3.5318 0.47086-3.1548 0.97263-1.2958 0.2743-1.8062 0.14908-2.2215 1.4244 1.2992 1.6951 1.0159 2.1056-0.91385 0.70336-2.3038 1.5719-4.9874-1.0058-5.6024-3.0608-2.0835 1.3794-3.0609 2.6574-1.2044-0.10394-2.4374-0.51399-6.2827-2.6605-7.5764-1.1322 1.1336 0.14297 3.6589-0.94279 0.87264-2.139-7e-3 -1.9862-4.543 0.2313-2.9033-0.88912 0.46982 3.0205 2.4926 2.0118-0.0888 0.11851-2.2972 1.1687 2.5149 1.0463 3.2365 0.11854 2.725 2.3745 5.1403 2.306 7.5386-1.9138 2.3357-2.191 5.5073-3.9256 7.8635-1.8767 0.24423-3.0486 3.2894-0.43689 1.869 0.9538 1.5903-1.3069-0.67917-0.49181 1.5486-0.27502 2.8187-2.5068 5.5179 0.06093 7.8007 0.50064 1.6177 2.7117 1.2026 0.72001 0.1383-0.34549-0.20111 2.5501-1.5622 1.8635-0.27477-0.41925 1.2113-1.3614 2.6489-0.53288 3.727-1.7151-0.42247-0.23874 1.874-1.8243 3.3083-1.2439 2.2212-0.40488 3.1377-1.4502 5.9681-1.0023 1.4163 1.7791 4.9932 0.08405 4.8907zm4.1362-35.679c-1.6012-0.79461 0.90655 1.4007-2e-6 0zm-8.3715 35.413c-2.1026 0.3066-2.886-1.4347-1.5607-2.9299-0.79824 0.35331-0.42094-3.1228 0.52756-2.0428 0.97069-1.4653 1.2869 2.9756 1.4942 3.9448 0.03142 0.23066 0.20254 1.3959-0.461 1.0279zm0.80772-9.5888c-1.3858-0.95264-1.1384-2.8124 0.61413-2.04 1.2544-1.1344-0.94024-1.0246 0.21395-2.5871-0.44158-1.246-1.8782 1.8217-2.0114-0.46322-0.39898-2.4804 0.49935-6.1646-3.0389-6.1591-0.56222-0.63213-1.1912-2.3374 0.23926-2.0041-1.3159 0.49985 0.39884 1.3038 0.86929 2.0009 0.54843-0.6921 1.0858-1.8722 1.6072-1.7176 0.29024-0.86012-0.463-0.62122-0.41342-1.7096 2.464-0.12108-0.17935 5.248 2.8336 4.0096 0.32955 2.9948 0.79489 6.1933 0.16777 9.1654-0.63832 0.44654-0.25467 3.648-1.0816 1.5048zm6.4304-10.601c0.15634-1.5931-1.073-2.589-1.5138-2.6458 0.62646-2.3972 2.3647 1.4104 2.1454-1.0569-0.23835-1.6666 1.5109-2.5862 0.15744-0.52452 1.1535 1.0098-0.27371 1.5238-0.54576 2.1355 1.8158 0.60154 1.7221-2.3078 1.788-1.9736 1.6248 0.84294 0.74209 4.705 0.04521 3.661 0.85772-0.91407-2.7194-1.7526-1.9027 0.53664l-0.10245 0.30345-0.07149-0.43574zm-1.5828-1.1245c0.62303-2.2441 0.3735 1.6738 0 0zm-4.4358-0.065c-0.69849-2.3088 0.75674-3.7734-0.04904-6.179-0.66838-1.2149 1.2832-1.9232 0.25301-2.56 0.83545-0.31101 1.8105 0.85256 1.8478-1.0997 0.40064-1.522 0.37499-1.6759-0.71416-0.98784-0.8406-0.83912-4.0714-2.3919-1.775-3.1896 1.9226 2.2501-0.05127-2.6037 1.3124-1.032 1.698 0.55764-1.7166 2.4795 0.52253 2.6353 0.51941-0.6106 1.3599-2.1611-0.18974-3.2062 1.2602-7e-3 -1.3199-2.6783-2.1315-0.92666-1.3474 0.97829-2.3792-2.062-0.84705-0.26659 0.85242-0.44051 2.326 0.0204 0.61751-1.2042 0.86118 0.22527 2.4137-0.0707 0.66218-1.197-1.6065-1.9381-1.5641-5.1444-4.2419-5.5105 0.63434-1.366-2.6474-3.6757-0.1119-3.9928 0.91841-0.0319 1.2631-2.0078 2.4944-0.14853 1.5932-1.2639 0.65223-2.6662 0.01183-3.9442-0.23644-1.5503-1.6256-3.989 1.3551-3.1505 2.0116 0.48456 2.1477 4.6659 4.0065 1.8058 3.3894-2.075-0.20787-3.6052-2.5572-3.6158 0.53844-1.2942 1.1787-2.1441 0.4975-3.5238 1.1826-0.84543 3.93 2.012 2.1867-0.74484-1.0457-1.4558-2.3566-3.5179-3.3118-3.2058-1.3436-1.6696 2.3379-0.57722 2.6063 1.0443 0.80588 0.86481 1.6029 1.8698 1.9529 0.70095 1.546 0.15992-0.92905 2.4717 1.4477 2.1851-0.72668 1.5977 0.72007 0.75079 0.69602 0.34787-0.60585 2.254-0.61067 5.4151-2.729 7.289-1.2541 0.86486-2.1953 1.9939-1.069 3.0469-1.8509 0.18387 0.84979 1.9476-1.3395 2.5425-2.0678 1.8425-1.0211-4.3852-2.553-1.0247-1.0262 1.6528 0.99939 3.4921-0.42605 5.2204 0.14038 1.3648 0.45452 3.9927 1.7324 1.8114 1.7568 0.1987 4.1543 2.8966 1.0733 3.2125-1.8239 0.85079 3.209 3.2545 1.9563 5.4531 0.47886 1.0119 1.3874-0.4278 1.108 1.5291-1.2418 1.9998-3.5413 4.622-3.1307 7.0448 1.5711 0.26293-1.5877 2.7634-0.72339 4.2088-0.17529 0.27498 0.32084 1.6719-0.44062 0.63273zm-6.7243-1.953c0.36141-0.68833 1.1353-3.7072-0.20562-3.4456-2.0796 0.14374-0.6765-0.93013 0.58584-0.62781 1.0955-2.2132 0.38163-1.0331 0.75203 0.36106-0.52231 0.53187 0.77123 4.6068-1.1322 3.7124zm14.596-2.4697c0.81718-0.91795 1.7043-3.5121 2.3548-1.0289 0.86636 1.7281-0.96534 0.15276-1.2905 0.21543-0.39278 0.20251-0.60965 0.71584-1.0642 0.81343zm-12.671-0.83499c-0.40425-0.43625 0.85893-1.5877-0.46423-0.76509 0.65202-2.438 1.6839 1.8169 0.46423 0.76509zm16.702-0.30385c-1.3598-1.5274 1.189 0.13682 0.09004-1.2772 0.79736-0.86265 0.25964-1.6723 0.06817-2.1773 2.2946 0.97928 2.3826 3.7001-0.15821 3.4545zm-13.553-1.2526c-0.42221-1.1208-0.7944-2.3006 0.23261-0.72357 0.03131-0.15982-0.08766 1.5164-0.23261 0.72357zm-6.8027-0.66409c-1.3857-1.0662-2.7272-1.2845-2.7554-2.7505-0.94715-0.98717 1.436-3.9729 0.69861-4.6283-1.1633-0.43873-3.7106-3.5692-3.5248-0.27734 0.43386 1.7365-2.1257-3.3645 0.56465-2.3964 0.86403-1.7646 1.3482 1.2138 3.1486 0.28476 1.4987-0.0122 1.8372-2.6859 0.52164-3.5003 2.1848-0.29267 2.9025-2.4861 1.2673-3.5964-0.01102-1.2812-2.0631 0.50507-0.41272-1.3367 1.8663-1.2396-3.4648-0.46758-1.4509 0.70021-1.0397 0.72612-0.75342-2.0507-2.3309-1.3024-0.17589-0.67426 2.1387-0.0651 0.49448-1.3005 1.3167 0.0364 3.3744 0.843 1.062-0.48601-1.482-2.1567-3.9637-2.1304-6.3736-2.7222-1.3535-1.6837-0.0127-5.0437 1.7859-2.1203 1.9957 1.6748-0.77128-3.005 1.2374-1.4362 1.6768 1.6881 2.2134-3.3455 2.45-2.1831-1.1377 2.248 1.621 4.3087-0.28948 6.0851 0.27355 2.0172 3.2038 2.8628 4.5713 2.389 1.9138 1.5404-0.05987 5.2391 2.1753 7.1486-1.5134 1.5786 2.5558 1.479 0.65716 2.9936-0.55153 3.0367-4.0255-3.1049-3.7917 0.72398 1.4121 1.0202 1.4505 1.9589-0.42107 2.2092-1.8655 1.6204 0.2276 2.4339 1.5944 2.5414-0.73907 0.73074-0.56932 3.08 0.11797 1.8754-0.06073-0.92327 1.8677 0.71905 0.26041 1.0976 2.3401 0.62331-2.6588 0.60813-0.4116 1.9367 0.44849 1.3464-0.50433 0.40393-0.84507 0.0511zm-1.3267-8.7906c-0.37148-1.2788-3.998-0.25157-1.0728 0.38606 0.50695 0.2894 1.0166 0.36177 1.0728-0.38606zm-2.5652-16.044c0.7148-1.9882-2.5568 0.95269 0.02278 0.16115zm22.622 25.017c-1.4374-1.9084 1.3581 0.52952 0.46617 0.37749zm-0.73237-2.3608c-2.6672-0.46954-0.94875-4.7997 0.51294-4.9913 1.8188-0.0711 0.44378-4.2212-1.1134-4.7203-1.8186-1.7078-0.513-4.7387 0.38228-5.9894 0.74203 0.25866 0.04989 2.3441 0.84884 0.99028 0.22466 3.0591 2.0763-0.93191 3.9166 0.0823 2.9595-0.0882-1.7112 0.81301-2.3445 1.4832 1.8889 1.3784 2.7228 4.5263-0.04282 5.6581-0.50664 2.7985 2.478 0.16158 3.1521 2.7388 1.7845 2.1387-1.2219 3.2039-2.3564 2.1632 0.0598 1.2103-1.1366 4.3494-2.6254 2.7742-0.1101-0.063-0.22021-0.12598-0.33031-0.18897zm1.7669-0.53029c-0.67732-1.7995-0.51732 1.7434 0 0zm-0.95521 0.0472c-1.2358-2.9198-2.1304 1.0655 0 0zm1.0793-1.6214c-0.36025-1.8516-3.8354 0.0765-1.0536 0.24482l0.66635-0.0587 0.38727-0.18613zm7.7171-0.67625c-0.74469-0.31483-2.5517-0.0149-2.151-1.7624-2.6656-1.644 1.7794-4.5858-1.1599-5.2504 1.9849-1.9275-2.6869-1.7968-0.2172-3.3166 1.5825-1.7612 2.7395 1.4879 2.8306 0.93826 0.0321-0.63883 0.47385 1.6298 1.5202 1.3891-1.7253 0.18788-2.5319 2.5863-0.0645 1.9084 2.3915 1.4269-1.3229 3.1691 0.25023 4.8601 0.0908 0.34474-0.50152 2.119-1.0084 1.2336zm4.2237-3.9649c-0.77866-1.2471-2.9573-0.13476-1.1294-1.9092 0.33846-1.0371 1.4353-3.3982 1.5298-3.2919-1.3168 0.0512-0.9206-1.7545 0.33477-0.26859 2.5754-0.15813 1.507 2.5368 2.3417 4.0908-1.8457-0.58361-0.9952 3.5199-3.0768 1.3789zm-2.7516-4.1563c-0.91655-1.1765 0.24782-2.735 0.47454-0.58869 0.36597 0.54914 0.21594 1.3404-0.47454 0.58869zm3.676-1.9827c-0.30177-0.70419-1.4037-0.10885-0.47747-1.0498 0.66892 0.11557 1.2866 2.721 0.47747 1.0498zm-11.523-3.6118c-0.11213-1.3831-0.74428-1.9047-1.5641-2.9472 1.073 0.0756 2.0737-2.1767 2.8272-0.37973-1.1412 1.0602-0.93734 1.9767-0.37902 2.6777-0.0259 0.17897 2.4087 0.6923 0.1814 0.93634-0.37672 0.1495-0.77531-0.0648-1.0655-0.28711zm-5.4267-1.6948c1.5171-2.0949-1.6592-1.9768-2.3209-0.44431-1.142-1.1745-1.649-3.6119 0.04454-4.7517 0.63254 2.146 1.7629-0.54052 2.8219 1.0582 2.4841-0.75281 0.50488-4.3644 1.8762-5.042 1.5072-3.3249 1.5075 4.455 3.1736 0.90026 1.9827-1.5113-2.8541-2.4538-1.3797-4.222 2.0506 1.4835 4.4779 3.7433 1.2656 5.4956-0.78406 0.68535-1.9005 3.83-2.6326 2.9181 0.55815-1.7254-2.7597 0.28951-2.5285 1.5581-1.024 0.79168 1.6994 1.4357 0.21754 2.2252 0.15062-0.26087-0.48169 0.66032-0.53776 0.30455zm-1.4188-1.6125c-0.0092-1.4881-1.8219 1.5181 0 0zm14.943 0.49899c0.0133-1.168-1.3902-2.5003 0.40111-1.6391 1e-3 -2.3835 3.0421-2.8938 2.4656-7e-3 0.60881 2.0289-1.6887 2.6578-2.8667 1.6457zm-1.6544-3.3183c-0.30842-0.67038-1.2489-1.0285 0.39131-0.71491 0.11238 0.17459-0.14115 0.97395-0.39131 0.71491zm-1.913-2.1608c-0.21735-0.82448 1.6614-1.5346 0.7438-2.6136 1.3881 0.10662 0.23731 3.3522-0.7438 2.6136zm5.3137-0.37217c-1.2202-1.0768 0.35076-3.393 0.87156-1.0389 0.75892-0.62106 0.18564-3.1855 1.5687-1.5508-0.19408 1.4568-0.77532 2.5145-2.4402 2.5897zm-36.594-3.8086c-0.34902-0.75566 0.93553-4.9026 0.49831-1.4148-0.78788 1.8159 2.6065 0.5328 0.32214 1.5566 0.28498 0.5932-0.79712-0.0808-0.82045-0.14184zm36.445 0.19272c-0.85533-1.2748-1.125-1.6655-1.6219-0.23153-2.1478 0.55701-0.3507-1.7079-1.3418-2.3483 1.9353 1.8486 2.1524-4.6959 3.306-1.6697-0.44174 1.4724 0.13159 3.6408-0.029 4.3072l-0.3133-0.0577zm1.9931-0.66415c0.33726-3.3961 1.7641 1.4944 0 0zm-33.395-0.55669c0.17233-1.6436-1.8554-5.7839 0.84095-4.7951 1.2726-1.8596 4.9358-0.98114 3.7842 1.6674-1.2491 0.032-2.3687-2.5603-2.4139-0.90504-2.3148-1.567-0.73933 4.0064-2.2112 4.0327zm4.3656-4.8201c-1.2767-1.6303-1.1594 1.1739 0 0zm21.281 4.5879c-0.59021-0.18249-1.276-0.33581-0.22863-0.78629 0.93762 0.61136 2.8416 2.0977 0.22863 0.78629zm-27.484-0.26218c-0.81558-1.134-1.0125-2.9737 0.40336-1.5157 0.36985 0.60274 1.0358 3.2652-0.40336 1.5157zm29.39-1.3963c-1.3578-0.38594-1.2185-1.8059 0.37854-1.5758 0.52785-0.049-0.66332-3.034 0.3516-0.55033 0.74506 0.65311-0.0144 3.4974-0.73014 2.1261zm-26.442-4.7187c-0.68723-1.957 1.8377 1.3848 0 0zm-3.6161-0.12209c1.04-2.2047 2.6967-0.92047 0.26252-0.0397zm5.7431-1.4873c-0.10424-0.48236-2.4125-2.4016-0.47816-2.0095 0.08019 1.4253 3.2924 0.25088 1.4087 1.8115 2.1006-0.74913-1.7005 1.7829-0.93051 0.198z" fill="#e6ab66"/><path d="m90.25 268.22c-1.0426-0.0157-3.675-0.3766-1.8327-1.6178 1.7118-1.0173 1.5311-3.0396 0.53287-2.0605-1.143-1.9261 1.257-5.3809 2.2634-2.8181-0.91419 2.3066-0.5417 4.6661 0.40865 6.8606-0.48099-0.0146-0.92623-0.2089-1.3722-0.36421zm-3.5685 0.0215c-1.5789 0.23878-3.074-1.0564-1.4236-2.2627 2.3687 0.26643-1.5028 0.41881 0.75793 0.93675 1.2732-1.3612 1.5839 1.8422 0.66572 1.3259zm4.3623-8.9081c-1.2531 0.0824-2.7776-1.427-1.4006-2.5621 1.0412 2.2421-0.04665-1.8652 0.93592-2.5612 0.26835-2.0313-2.3682-5.8672-0.35159-6.8155 0.04054 1.3238 0.70185 1.8056 0.58559 2.7867 0.90592-0.68433 3.197 3.1188 2.4437 3.7672-0.44967 1.5406-0.59019 4.5416-2.1083 5.6534l-0.10472-0.26858zm-3.1836-0.49c-0.05541-1.4328-2.252-2.4032 0.27744-1.9603 1.568-0.96216-0.27213 1.6762-0.27744 1.9603zm-0.78516-5.1351c1.6016-0.6635-2.0389-1.831 0.01645-1.4217 0.69288-1.3234-0.21186-2.5374-0.9659-2.6972 1.4266-1.4526 2.9367-2.2331 2.5086 0.60323-0.20173 1.8297 0.82843 4.0087-1.5592 3.5156zm1.1488-10.29c0.3487-1.2774-1.1008-5.1697 0.29103-2.1281 0.11877 0.16798 0.3251 3.294-0.29103 2.1281zm11.81-2.2688c1.0299-1.3738-0.60998-4.5595 1.4139-1.7642 1.9513 1.5784-2.1177 2.24-1.4139 1.7642zm-20.632-2.6785c0.34676-1.1434 0.81299-1.1918 1.969-0.63656-0.6605-0.26907-1.8504 1.1235-1.969 0.63656zm-1.7589-0.13052c-1.4436-0.50398 0.3178-1.6998-1.397-2.1612 1.5878-0.65181 0.50685-3.1752 1.5737-3.7937-0.17059-1.7522 1.5691-2.8887 2.5082-1.2366-1.8218 0.23213-4.6244 4.0243-1.007 3.0725 2.1287-0.13621 0.22344 2.5704-0.85666 1.741-0.35001 1.2576 0.93448 0.88216 0.16225 2.2561 0.05017 0.60235-0.80954 0.19289-0.9835 0.12188zm10.378-0.0348c1.0864-0.89928 1.5585 1.0153 0 0zm5.3056 0.0887c0.65966-1.89-0.15734-5.3382 2.0791-4.9851 1.6129-2.9518-1.6548-1.226-3.1314-1.5756-2.7061-2.3008 1.7476-2.7642 2.6966-0.99614 0.56911-1.964-1.5657-5.5595-0.44976-5.7211 0.3936 2.3826 2.6146 4.591 2.3398 6.6121-1.5233 2.0394-2.1973 4.7754-3.428 6.7828l-0.10629-0.11704zm-3.4403-0.78324c0.51179-1.4275 0.884-2.5798-0.86488-1.7758-0.24507-1.0503-3.7191-1.4909-0.78272-1.4405 1.2765 1.2725 3.3865-2.0257 2.487 0.55725 0.24615-0.43845 2.2626-0.52612 0.69835 0.36511 0.11562 0.59341-1.4702 4.5752-1.5378 2.294zm8.1022-0.0744c-1.4719-0.73105 2.2337 0.18693 1.4888-1.7751 0.81524-1.3861-1.6338-1.3656-1.8629-2.3847-0.88962 0.73416 0.53592 0.62819-0.46912 1.7101 1.525 0.5795 1.6138 1.0782-0.03208 0.81197-2.2581 1.6896-0.1932-3.19 0.47688-3.612 2.5377 1.0004 1.0724-4.5894-0.80944-4.8114-1.8423-0.96107 0.2037-5.1 0.42842-3.5516-0.56275 2.1079 1.1671-2.656 1.064-0.75169 0.57216 2.5495 1.5125-1.5535 3.4154-0.46551 1.8761-0.9322 1.3854 1.1827-0.56755 0.58492-1.3399 0.3019-2.9952 2.1314-0.8785 1.6774 1.9881 1.5169 1.1065 4.0635-0.67532 5.1172-0.16388 2.2788 2.7735 0.0182 3.2433 2.5776 1.604 2.0306-0.93571 1.1462-2.1967 1.691-0.60236 0.64545-0.34358 4.1146-2.6252 3.1818zm-17.264-0.9178c0.67905-1.2394 0.57893 1.1923 0 0zm24.077-2.9707c1.0979-1.4897-2.2048-2.7786-0.0255-4.4596 1.4317-1.5687-2.5279-1.2629-0.31367-3.1886-3.8792-0.10585 0.93953-4.1777 1.5445-0.91413 0.24489 1.6311 3.1222 1.4959 0.53337 1.951-1.9304 1.9594 3.8023 1.1668 1.6401 2.8352-1.9748 0.77264 1.7344 4.736-3.3788 3.7762zm0.79375-8.5083c-1.1743-2.1505-2.3961-0.14423-0.31351 0.2075l0.22902-0.0543 0.0845-0.15317zm-15.468 6.492c0.16318-1.2786-3.9494-2.3605-1.5719-2.7766-0.68986-1.1884 4.416 4.6426 1.5719 2.7766zm21.187-1.268c-1.128-0.85733-2.6337-0.3022-1.0449-1.7443 0.15616-1.5408 1.3888-1.8159 2.1257-2.0129-0.15358-1.0634 2.5076-0.74144 1.31 0.43801 0.45833 0.82893 1.4229 2.6108-0.32582 2.2119-0.19873 1.5856-0.83507 1.4454-1.5914 1.2098 0.41237 1.0772-0.24077 0.12758-0.47362-0.10239zm-30.373-1.1557c-1.4416-0.77235-2.1448-1.2468-1.7939-2.7979-1.8049 0.79858-0.55467-1.4185 0.86976-0.77963 1.0575-2.808 2.3299 0.0114 2.0085 1.6852 1.6525 0.82589 1.0622 1.595 0.19262 2.8185-0.4994-0.19656-0.88542-0.57623-1.2769-0.92609zm7.4831-1.7836c0.57545-1.9274-2.4179-1.3103-0.95228-0.29411 1.105 1.4407-2.1652-0.88335-0.12174-1.6519 1.1939-1.9098 5.4122 2.3792 2.0179 2.5465-0.37297-0.035-0.80322-0.2238-0.94385-0.6005zm-2.2073-2.0038c-0.13918-2.5061 1.0616 1.1743-5e-6 0zm5.1946-0.42441c-0.35711-1.9502 0.5513-0.66902 0.15456 0.32468l-0.15456-0.32468zm-10.811-1.6304c-2.1955 0.10581 0.28495-4.4093-2.6582-2.6004-1.7784 0.78885-2.7305-2.6378-0.41505-1.0362 1.663 0.25623-3.9236-2.6-1.1331-1.6671 1.2527 0.5542 2.5141 2.1839 3.2506 0.57733 2.59 0.67533 0.47376 3.1164 1.5 4.8694l-0.09429 0.0984-0.45007-0.24137zm12.611-0.11827c-0.88957-0.21608-2.3156-0.71901-2.8728-0.20705 0.47588 1.74-1.8685-3.208 0.86803-2.3082-0.66438 1.2082 3.0851 1.885 2.7493 3.0288l-0.31634-0.16063-0.4282-0.35295zm-9.5867-0.52636c0.03732-1.5398-1.1966-2.3052-1.4236-3.5462 0.03662-1.7146 1.77-0.26418 2.0535-2.0032 1.1366 0.45684 3.6792 4.0433 1.3747 2.5671-1.3395 1.1451 0.03385 2.1273 0.95137 1.1873 1.1076 2.1138-1.8696 1.6879-2.956 1.795zm17.474-1.7735c-0.90504-0.86136-0.72171-2.233-1.8312-3.0426 0.51272 0.25205 1.5885-2.1433 2.7168-0.6606-1.4019 1.2891-0.80486 2.871 0.14158 3.6564l-0.45561 0.20068-0.57153-0.15378zm7.8563-2.6224c-0.0815-1.1584 0.0245-3.4719 1.8875-3.9679 1.4088 0.93207 0.57065 0.95978-0.18824 0.9862 2.3426 1.4128 0.37827 3.0883-1.6993 2.9817zm-23.041-0.31234c1.7722-2.3483-1.3485-4.5614-0.65106-6.8657 1.4663-1.5283 2.3706 1.4537 2.1786 0.87825 1.8565-0.89406 1.5666 3.7136 3.269 1.0662 1.0323-1.1907 3.912-3.7548 1.111-2.674-0.63675-1.9852-5.1761-0.29289-2.407-2.8997 0.26303-0.64758-1.5965-2.6576 0.9094-1.8285 3.6717 2.5026-2.2426-5.2483 0.87324-1.8907 0.83221 1.4665 1.1991 2.9663 3.1339 3.296-0.70781 2.8471-1.4232 5.7568-4.0951 7.6542-0.6824 1.0542 1.5435 1.6096-0.60978 1.8656 1.8611 1.1498-1.2727 1.3639-1.7302 1.3518 0.14381-2.1292-0.98259-1.9202-1.3453 0.0141-0.11154 0.40039-0.50847 0.25406-0.6367 0.0325zm0.69931-4.9489c-1.3559-1.4829-0.5402 1.3189 0 0zm-0.27331-1.0347c-0.98103-1.5132-1.818 0.86198 0 0zm5.4978 5.0151c-0.04664-1.3625 0.88143-4.4764 2.0931-2.0094 0.88811-1.8052 3.4549 0.83474 1.496 1.7404-0.89079 0.44233-2.807 0.6404-3.5892 0.2689zm-21.311-1.0513c-2.176-1.835 0.83902-4.9015 1.2614-1.4829-0.64017 1.0103 1.9072 1.3154 0.20905 1.4026 2.0033 1.303-1.1251 0.73018-1.4704 0.0803zm28.121-1.4827c1.2299-1.1966-0.87357-2.4881-0.82831-3.8382 0.39237 0.40818 1.7985 0.98112 0.52906-0.28931-1.5912-1.9899 1.7573-1.0175 1.1438 0.86122 0.40058 1.5471 3.5277-2.1342 1.0077-2.2176-1.3914-0.78224-1.4362-3.7268 0.0627-1.514 3.2614 2.1681 0.19157 4.0958-0.96076 6.3736-0.10586 0.6205-1.9623 2.2845-0.95419 0.62423zm11.622-2.5422c-0.95376-1.1666 1.0879-2.8403 0.28609-1.0554-0.56138-0.1881 0.49852 1.7789-0.28609 1.0554zm-0.17639-3.9247c-0.0672-0.55606-1.1089-2.1343 0.18155-1.3096-0.0872-1.3846-1.3286-1.7104-0.39835-2.0635-0.73101-2.0443 1.753-1.1676 0.64434 0.43255-0.47391 0.68026 1.1679 4.436-0.42754 2.9406zm-32.624-1.6536c-0.98506-2.0872 0.4244-1.5138 0.25669 0.19844zm1.3156-1.6308c-0.75265-2.4117 1.6163-1.9181 0.95931 0.13144-0.06976 1.7788-0.89179 1.6928-0.95931-0.13144zm2.225-7.2328c-0.4297-1.4934 1.9532 0.20193 0.31433-0.37179 1.061 0.64347-0.52903 1.1673-0.31433 0.37179z" fill="#e5a65d"/></g></g></svg>
