<?xml version="1.0" encoding="UTF-8"?>
<svg width="65.962mm" height="21.994mm" version="1.1" viewBox="0 0 65.962 21.994" xml:space="preserve" xmlns="http://www.w3.org/2000/svg"><g transform="translate(-49.786 -174.91)"><g transform="translate(23.625,20.925)" stroke-width=".26458"><path d="m49.364 175.21c-0.40906-2.099-1.8298 1.1652-1.9448-1.1578-0.1783-1.053-0.69988-3.2484-1.0807-1.2584-1.1307 0.56144-1.8926-1.9639-2.7103-0.51139-1.022 1.7028-2.0561 0.61973-1.8709-0.3654-0.98654 2.0072-3.2116 1.8341-4.8304 0.86008-2.1581 0.73571-4.4014 0.49315-4.5655-2.1366-0.70713 1.1886-1.7852 2.2059-2.2657 0.20632-2.3013 0.43044-2.2621-1.6814-0.73093-2.7245 1.2784-1.4771-2.314-1.3099-3.2007-2.5396-0.12176-1.7075 3.0314-1.7902 3.0872-3.5919 1.1113-0.81425 2.5128 1.225 3.6287-0.088 0.89015 0.27382 1.5018 2.6802 1.1194 0.69366-0.72357-2.4824 2.726 0.44631 2.0562-1.8997 1.2273-2.5481 2.2123 0.26414 2.2923 1.7284 0.43579 1.4552 0.70323-2.3896 0.12284-3.0273 0.0062-1.5165 2.2081-0.95975 2.9972-1.9181 1.2761 3.3642 2.2601-2.7925 4.1694-1.6412 0.79669 1.6149-0.54154 3.5131-0.42388 4.6025 1.7138 0.98194 1.9214-4.7946 4.0697-1.9049 0.48126-1.1718-0.19638-4.431 2.1352-4.4934 0.78368 1.3047 1.0687 2.927 2.7296 2.5647 0.72592 0.80724-0.69408 4.916 0.83194 3.7431 0.29407-1.9425 1.7037-3.6232 2.7562-1.187 1.2178-1.3103 5.2513-2.5888 3.8339 0.61067-0.79256 1.4807 0.46173 2.1168 1.2596 0.64691 1.7044-6e-3 3.1251-1.4908 4.9272-1.5891 2.2926-1.545 0.689 3.0114 2.9454 2.746 1.1103 1.0374 2.4204-3.1254 3.8437-1.2129-1.0197 1.5374 1.4245 0.96835 2.28 0.85102 1.3182-1.6661 2.6309 2.807 2.9752 0.102 0.01388-1.3949 2.6971-2.1155 3.5186-2.5311 0.36801 0.19987 1.6392 1.8669 1.3238 0.95666-1.7496-2.2676 1.4743-2.2823 2.3563-0.57356 0.68952 0.33911 3.305-2.4706 2.8201 0.17051-0.6431 1.7719 1.9913 0.60247 1.8663 2.5042 1.0936 2.0252-2.2516 4.5838 0.43581 5.8822 0.03815 1.5085-2.3591 2.7082-2.2947 4.6614-0.92644 0.76617-3.1064-1.6574-2.3464 0.82818-1.9844-1.1949-3.6958 1.7314-5.7797 0.83783-0.81704-1.9161-2.6372-1.5058-3.4767 0.0209-1.6363 0.74929 0.1235-3.2036-1.9739-2.0248-1.5816 1.329-3.5288 1.8095-5.3756 1.9016-0.76098 0.41124-1.1231-2.2104-2.3452-0.60019-0.8988 1.3262-2.0219-0.51532-3.1772 0.88567-1.0165-0.27621-1.9488-2.2397-2.5749-0.46869 0.03981 2.5892-2.161 1.941-2.9196 0.10874-1.7305-0.16811-3.2271-0.70628-4.3412 0.29438-0.93516-1.6183-4.1962 2.058-3.7488-0.73064-0.67035-1.3266-0.81922 2.0812-1.9171 2.5447-0.16235-0.25875-0.3247-0.51751-0.48705-0.77626z" fill="#90a9a5"/><path d="m49.332 174.89c-0.40326-1.8433-1.9993 1.0896-1.9588-1.3509-0.02394-1.1738-0.75994-3.1531-0.99579-0.93691-1.092 0.62096-1.969-1.8865-2.7588-0.42943-0.7774 1.03-1.7528 1.3782-1.7042-0.22032-1.6696 1.6401-2.8594 1.53-4.9105 0.69158-1.7569 0.24053-4.1101 1.1452-4.2533-1.5039-0.38934-2.5999-4.6755 1.0219-4.4176-1.6172 0.19427-1.2791 3.7498-2.3291 1.8669-2.0414-1.4229-0.72577-4.7042-1.3466-3.1613-3.3803 1.5236-1.5637 0.86004 3.2088 2.665 1.1606 0.49159-1.1073-2.5388-1.1508-0.7207-2.3371 0.26739-2.9767 2.7191 0.97897 3.8007-1.0503 0.99872 0.19751 1.4517 3.174 1.4194 0.60745-0.67428-2.3598 2.3721 0.50921 1.9598-1.7984 1.752-2.6141 1.6568 1.7019 2.6234 2.1475 1.0151-1.4806-1.8253-4.8577 1.2527-4.3696 0.89794-1.3979 1.8019-1.0984 2.2482 0.35841 1.0359-0.70286 3.3554-5.1731 3.4207-1.4824 0.27209 1.5039-1.9403 3.5874 0.77133 3.4671 1.3021 0.95701 1.37-1.3876 2.4261-0.29534 2.2596-1.4523-0.63988-4.5563 1.7056-5.9652 0.85466-1.4379 1.0814 0.26489 1.4835 1.0496 0.61091 1.5118 0.12961 0.50033-0.56668 0.25491-0.42006 0.87676 0.3795 2.3551 0.42695 3.1853 1.477-0.94319-0.57922 1.1152 1.0228 0.0349 0.24349 0.34257 0.0021 1.4943 0.76643 0.40913 0.33678 1.7482 1.6952 2.211 3.1685 2.2431 1.9273 0.21545 3.0528 2.2245 4.8727 1.9538-0.07351-1.8126 2.7593-1.8435 2.3928 0.12249 0.93082 0.53849 4.0392-0.17661 1.7704-1.4307-1.2173-0.76275-0.36034-1.7956-0.27756-2.3347-0.28278 0.8691-2.2699 2.3372-1.8369 0.63997 1.1556-1.3919 3.6989-1.8993 5.1223-1.8598 0.0097 1.5404 0.07804 2.7499 1.8253 2.8364 0.81072 1.6573 2.0136-3.0114 3.7351-1.3209-1.3449 2.3698 2.2937 0.76666 3.5138 0.59994 0.26732 1.0304 1.1152 1.9764 2.0427 1.0353-0.97236-1.9179 2.194-2.4921 3.2854-2.9043 0.88566 0.40264 2.1704 2.1607 1.2355 0.32087-1.3277-2.7408 1.977-0.79853 2.6706-0.0145 1.131-1.2019 3.4521-1.8811 2.3484 0.59088 0.27292 1.075 1.751 0.22329 1.8995 1.8318 1.2953 2.099-2.2143 4.6634 0.53391 6.1234-0.33622 1.5975-3.5004 2.5366-3.3005 3.9421 1.5571-1.115 1.5114 1.0369-0.03561 0.3428-1.3032-0.84482-1.7267-0.39893-1.4752 0.9897-1.8186-1.9864-4.5664 2.9734-5.7102 0.17552-0.78281-1.6818-2.8208-0.0846-3.7959 0.84121 0.09617-0.56924-0.41466-3.6373-1.5401-2.1148-1.297 0.68908-2.9006 1.5192-4.1575 1.6946-0.98031-0.3989-1.6644 0.7801-2.1342-0.81494-0.97452-0.50598-1.9649 0.71297-2.2179 0.35038-1.2234 0.35392-2.9966 1.0422-4.1772-0.46-1.0753-0.0194-1.433 4.2334-3.0115 1.8604-0.73442-1.6554-3.7034-1.2685-4.8172-1.686 0.49302 0.37234 0.45019 1.4855-0.86026 0.67844-1.3115 3e-3 -3.3855 1.4863-3.4452-0.87164-0.7828 0.32622-0.62025 4.3414-2.0361 2.051zm0.97216-1.6253c-1.2067-1.4434-1.1348 0.90826 0 0zm6.2648-9.0701c0.20649-1.0718-0.04174-1.5373-0.54675-0.64078-1.1564-0.0306 1.1797 2.9424 0.54675 0.64078zm-18.105 0.3653c-0.64353-0.80949-2.5186-0.32982-0.92808 0.3902 0.29165 4e-3 1.0197 0.0687 0.92808-0.3902zm16.603-0.5839c-1.192-2.3106-0.37668 1.937 0 0zm-6.5749-2.7781c-0.76523-1.3226-0.67646 1.3042 0 0zm-4.4179-3.0824c-0.87909-0.81971-0.72307 2.0174-0.93075 2.8178 0.3865-0.90138 1.0582-1.7926 0.93075-2.8178zm-13.453 13.644c-0.61927-1.8737 0.40527-0.0886 1.3234-1.0375-0.12915 0.36793-0.88075 2.2103-1.3234 1.0375zm30.563-9.8042c-0.44613-2.7148 2.1651 1.8168 0 0zm-6.113-0.97934c0.3296-2.2965 1.4551 1.1829 0 0zm7.5476-0.18719c2.4463-1.4486-1.0872 1.6965 0 0zm-1.9866-0.18628c-1.3169-1.1922-3.7086-0.4452-4.9957-1.5355 0.27445-1.5377 1.5713-1.3478 1.8599-9e-3 1.6115-0.88685 5.6094-2.2268 3.6782 1.2336 0.14972-0.26954-0.48333 0.66722-0.54242 0.31041zm-13.499-1.9084c0.27241-1.5918 3.0148-0.1043 0.94367 0.11892-0.25689 0.0182-0.78662 0.19442-0.94367-0.11892zm6.1423-1.3221c-1.4167-1.6047 2.5395 0.0756 0.48026 0.36097l-0.21662-0.15052-0.26364-0.21052z" fill="#6e8f8a"/><path d="m49.393 175.03c-1.1724-1.7413 0.68468 0.0427 1.0015 0.20464-0.15686 0.70973-0.85585 0.1637-1.0015-0.20464zm11.081-0.4969c-0.02068-1.8322-4.6783-0.26654-3.2496-1.8229 1.8828-1.8705-2.8825 0.69817-1.9203 1.2116-0.65422-1.4327-3.8022 1.7183-3.4265-0.27064 1.2155 0.89607 2.3572-0.23211 0.97533-1.3965-0.58388 0.21367-2.4756 1.1946-2.1813 0.87846-0.75349-1.5921-3.8587 1.9339-3.5931-1.208-0.07813-0.80606 1.2191-2.2117-0.15477-0.70702-0.1055 2.4122-2.0358 0.98838-3.0752 0.0544-0.74831-0.19112-2.0836 2.3904-0.41598 0.88813-0.90196 1.3647-1.3689 0.82839-1.6812-0.40289-1.6202 2.0682-3.7893-0.13651-5.7891 0.90949-1.0322 0.71135-2.067-1.3153-2.0591 0.27179-1.4453-0.56424-1.1232-4.3972-3.3989-2.5954-1.5244 0.83912-3.2908-0.40558-1.4705-1.6924 0.31741-0.82417 2.31-0.172 1.6669-1.4517-1.6788 0.0286-5.5026-1.1827-3.3477-3.1763-0.08631 0.85386 0.78611 0.4877 0.3371 1.7382 1.2337-1.3726 0.1539 1.6027 1.6078-6e-3 0.84735-0.93308 1.3521-1.6307 2.3881-2.2397-0.96243 0.11267-3.3229 1.7253-2.9552-0.13159 0.32703-1.2203 1.0004-2.2577 2.3553-1.0789 1.0436 0.68685 2.0867-1.4311 2.5566 0.67911 1.134 2.5715-0.30686-3.3229 1.7861-1.2418 0.83893 0.90379 0.90393-3.3507 2.1523-1.5181 0.72764 0.86866 0.47184 5.3281 1.3229 2.2573 0.72772-1.3918-1.7157-4.7827 1.3076-3.878 1.4031 1.1897-0.42413-1.8353 1.561-0.86293-0.22591 1.8899 2.0852 0.0344 1.1623 2.1669 0.2178 2.1067 2.9347-2.8515 0.7549-2.7918 1.024-2.1418 2.4294-1.2233 1.8257 0.79998-0.37716 1.5678-1.0734 3.2214 1.3691 3.1113 0.59548 0.72251 2.5366 0.98286 1.4354-0.22578-1.2794-1.0949 1.7407 0.75719 1.1507-0.96835 0.80746-0.62665 0.57267-1.5809 0.66901-1.9421 0.45736 0.62776 1.758-0.053 0.76026 0.96354 1.444-0.56778-0.57931 1.8893 0.81937 1.0919 1.0626-1.5476 0.96783 2.1756 2.0908 0.35874 0.79511 0.66915-0.58355 1.6855 1.1764 1.3723 0.12481 1.1299-1.7733 2.423 0.45102 2.8281 1.2025 1.1167 1.2602 1.3384 1.9534-0.36265 1.0797-4.5e-4 2.902-1.0994 3.9313 5e-3 -1.0896 1.0155 0.78515 0.43811 0.61924 1.6694 0.12153-2.2029 3.1132-0.90933 4.2154-1.9805 2.0328-0.59241-2.1539-2.4648-0.1271-3.8486-0.61493-1.0614 2.1439-0.64626 2.8449-1.4053 1.14 0.94574-2.4405 2.4585-0.10256 1.6362 0.41294 0.0365 0.35535 1.6038 1.5697 1.2628 1.343 2.1314 2.4243-2.8062 3.9886-1.1274-0.7908 1.9568 1.2822 0.86477 2.2181 1.2693 1.0452-1.3127 1.8872-0.50682 2.3414 0.69752 1.9413 0.30118 0.40158-2.893 2.8684-2.4695 0.94173-1.3262 2.2395-0.68684 3.0405 0.38039-0.32555-1.038-1.1991-3.1478 0.85304-2.1121 1.1245 1.2773 1.9677 1.4046 3.1497 0.26053 2.1846-0.92832-0.54912 3.3856 2.0464 2.078 1.432 1.7851 0.83374 4.0944-0.11357 6.0716 0.72061 1.0503 1.2692 1.1622-0.1826 1.0104-0.33642 1.486 0.0836 1.2554 0.64654 1.3617-0.96795 0.57566-2.4851 2.1205-2.7718 2.8713 1.4967 0.49773 1.183 0.90511-0.11389 0.27211-1.3593-0.91603-1.1766 0.1757-1.1382 1.1477-1.7416-2.1043-4.5173 2.934-5.6259 0.1836 0.16814-1.1443-0.45784-2.2989-0.393-0.54816-1.6291-1.2564-2.3085 1.4518-3.5597 1.0307 1.0819-1.839-1.405-2.7995-2.3765-1.1672-1.6027 0.22094-2.5281 1.4656-4.1093 1.0636-0.78823 0.51223-1.3499-1.9239-2.8547-0.7027-1.2609-0.18264-3.1242 1.9733-4.3046-0.0402-1.3897-1.3909-1.4202 3.5285-2.9565 2.286l-0.24483-0.34498-0.27587-0.42126zm26.343-2.9751c-1.0117-1.9079-1.7097 0.0511 0 0zm-55.356-2.5597c0.47384-1.6915-1.8567 2.15 4e-6 0zm1.5187-2.3708c0.33717-1.5186-4.114-1.2159-1.5474-0.64152 0.16121 0.3043 1.8557 1.7218 1.5474 0.64152zm5.6833-1.8282c-0.37716-1.3039-1.6508-1.1127-1.793-1.2788-0.43114 1.4725 0.61797 1.926 1.793 1.2788zm8.9958 9.5839c0.46451-0.81659 1.627-0.41636 0.22198 0.41777l-0.16288-0.083-0.05909-0.33478zm-17.044-2.9042c-0.41597-0.85578 1.0624-0.11285 1.0888-0.30993-0.17047 0.48036-0.83232 1.1842-1.0888 0.30993zm26.357-8.3494c-1.0608-2.0286 4.3718 0.53212 1.3896-0.0777-0.44417 0.26147-0.89475 0.66319-1.3896 0.0777zm6.0365-0.21908c1.5726-1.4492-0.33628 1.7597 0 0zm1.2425-2.1915c0.37634-2.4244 1.4106 0.44789 0 0zm-3.255-0.51917c0.16853-0.80669-2.1454 0.9095-1.0735-0.85664-0.02427-1.3461-1.1665 0.94756-0.85045-0.71352 1.3191-1.6812 3.6982-0.61805 2.1851 1.3778 0.42078 0.17214-0.52754 0.52346-0.26116 0.19231zm-4.9838-1.4287c-0.07922-2.413 2.4541 1.7653 0.4668-0.25204 0.29498 0.44929-0.2937 0.86122-0.4668 0.25204zm-6.2368-1.3963c1.1137-1.2282 0.31202-0.47665-0.12067-0.98363-0.32503-1.6018 2.8327-2.8773 1.3317-1.213-1.2373-0.92832 0.96548 3.187-1.2111 2.1966z" fill="#5c817b"/><path d="m60.522 174.56c-0.66264-1.7333-4.7348-0.48542-2.745-2.6536-1.7114 0.53453-4.0089 2.5684-5.2012 0.51857-1.6081 0.0618-4.3016 0.89708-5.3102-0.12962 0.87495-0.60533-0.77488-0.48873 0.28202-1.6375-0.6091-0.34113-1.2509 3.5903-2.6905 1.272-1.7691-1.0065 1.4274-1.2292 0.64732-2.7934-0.28734 1.6291-1.5932-0.58947-2.0168 1.2688 0.61201 3.2416-3.6799-0.3144-3.3991 2.215-1.2211 0.14515-2.1627-0.84025-2.7712-0.0848-0.85442-0.31903-3.1437 1.1684-2.427-0.56881 0.2871-2.0225-2.6139 0.0974-1.3076 0.90037-0.91632-1.1954-0.97965-4.3692-3.1808-2.6109-1.9001 0.96234-2.8894-0.90641-0.97861-1.8363 1.1967-0.15054 1.4099 0.85393 0.85485 1.4279 1.8493 0.21089 1.4695-1.5003 2.2243-2.1178 1.8386 0.50332 2.9411-2.3182 0.48299-2.1456-0.94415-0.14498-0.68526-1.8127-1.9518-1.1018 2.3913-2.5211-3.2331 1.3132-2.3045-1.1262 0.27073-2.1311 1.8838-1.242 3.2975-0.87714 1.3361-2.187 2.2621 3.394 2.2147 0.20898-0.79576-2.7367 2.5947 0.68471 1.8522-1.5082 0.37692-2.5248 2.1359-0.71942 2.0269 0.95419 0.1471 0.74839-2.0921 0.6146-1.4488 2.4488 2.3798 2.3413 2.2464-2.1503 2.3563-3.6908-1.3171-1.3144 1.0494-3.684 0.74396-1.0775 0.62646 0.0656 2.3167 1.1596 1.1503-0.26117-0.92531-1.0113-0.36174-0.66995 0.31449-0.44942-0.30987-0.52715-0.89288-1.9577 0.47708-1.1173-0.17121 1.8358 1.9324-0.28407 1.2499 1.6014-0.12057 2.9489 1.834-1.4661 2.1613-2.3054 0.86057-1.6379-0.86967-1.0612-1.0817-0.57611 2.261-2.5471 1.4687 2.6923 0.86486 3.7382 0.99524 0.70758 1.956 8e-3 1.4174 1.5346 1.0846 0.13123 0.96836-0.43425 0.45811-0.55423 1.6795 0.93021 3.1574-0.5773 2.9807-2.2082 1.6082-1.422 1.0931 0.79225 1.4345 1.2076 1.9285-1.5636 0.78152 0.34591 1.2501 1.1708-0.06221-0.86833 2.606-1.4764 1.4231-0.0314 1.5024 0.19837 1.2106 0.97297 0.24837 1.8122-0.01681 1.3702 2.1464 2.2555 2.7981 1.8501 0.42038-1.9496 2.5556-1.1525 4.1132-1.4163-0.03561 1.284 0.70501 2.6669 2.0959 1.8607 1.0515 0.28588-0.13695-1.8765 1.4019-1.1008 1.0784 0.2103 1.5282-0.83146 2.4445-0.92086-0.55431-1.6847-1.8966-2.1415-0.87099-3.9235 0.48207-0.33561 3.5518-1.7289 1.5696-0.2398 0.10831 0.35389 1.076 0.39092-0.09302 1.1818 0.72162-0.178 1.6023-0.55965 1.9168 0.67508 1.3903 0.751 2.167 1.1693 2.8768-0.55618 1.5519-1.5653 2.019-0.34905 2.1385 0.90829 0.96166-0.64171 1.8125 0.33946 2.7151-0.1802 0.92778 1.8049-0.3092-1.9206 0.98045-0.22719 0.45326 1.786 2.518 0.93324 1.769-0.62156 1.0373-0.63649 2.5488-1.3434 3.579-1.4833 0.69651 1.2284 1.9313 1.249 0.87005-0.26498-0.62302-2.8918 2.72 1.407 3.5762-0.0253 0.86793-0.86216 2.6618-0.85486 1.4835 0.68762-0.54554 2.0182 2.0203 0.23965 1.9816 2.1923 1.2511 1.8177-1.2742 3.6204-0.55385 5.2421-0.37154 1.8403-1.6253 3.6543-2.8414 4.7901-1.2311-0.0731-1.2809 0.72644-1.6552-0.77006-2.0228-1.0145 0.8886 1.7282-1.1385 1.7921-1.8563 2.1188-4.2659 1.3149-4.064-0.97129-1.6997-0.59291-2.0587 1.2198-3.128 2.176 1.8934-1.2726-0.73316-2.3018-1.7636-2.3627-0.84393 1.4892-2.8153 0.94737-3.7153 2.054-2.452-0.92785-5.0754-1.2415-7.2481 0.2726-1.1617-0.517-2.045-2.2661-2.7345-0.25745-0.35104 1.1105-1.3008 2.8764-2.1023 0.82214zm-21.39-4.0141c-2.2002-1.3875-0.92627 1.0307 0 0zm32.462-0.99973c-0.20152-1.4576-2.3965 0.38988-0.26838 0.2071l0.15273-0.0579 0.11565-0.14919zm16.867-0.0841c-1.7881-0.47927-0.18476 0.82644 0.3111 0.15524l-0.3111-0.15526zm-4.1586-4.0338c-0.7256-0.67367-0.2855-0.70819-0.4699-1.3954-1.463-9e-3 -0.35184 3.4299 0.4699 1.3954zm-37.011-1.6821c-0.71756-1.7989-0.63566 2.1409 0 0zm-6.606 9.0192c-1.2251-1.7954 1.7849-0.74375 0 0zm38.987-0.32491c0.06297-0.80492 3.015 0.58989 0.44556 0.18l-0.44556-0.18005zm-48.703-4.6034c0.34474-0.88096-1.6996-1.5262 0.41357-0.99331 1.8474-0.15704-1.3498 2.1759-0.41357 0.99331zm-3.0869-1.3461c-1.5569 0.15573-1.2205-2.3546-0.33292-1.1506-0.02019 0.97997 1.3555-0.8468 0.64841 0.82601 0.70267 0.35638 2.1165-1.3496 1.4554 0.31593 1.0204 1.3196-1.4026 0.19644-1.7709 9e-3zm32.215-6.6814c0.49635-0.70406 2.0463-2.0301 0.13789-1.268-1.0194 0.17386-1.6857 0.41836-0.36058-0.37638 1.5874-1.376 2.3642 0.99055 1.2891 1.5977-0.25514-0.65448-0.78515 0.80288-1.0664 0.0467zm-10.026-3.9377c-0.55456-0.90807 1.3378-1.9794 0.40645-0.1496 0.29029 0.64413-0.11633 0.64979-0.40645 0.1496z" fill="#4a736c"/><path d="m60.642 174.66c-0.35304-2.0681-4.9676-0.35593-2.8491-2.7636-1.5725 0.28105-4.4574 3.0636-4.9343 0.0949-1.5868 1.4654-3.4141 0.58144-2.8676-1.3272-0.60974 1.5259-1.5676-0.68296-1.9323 1.1499-0.53155 0.42325 0.08377-0.93855-0.79324-0.31727 0.75054-2.6159-0.75594 1.0223-1.3488 1.1835-1.6833-0.76574-1.5126-1.6564-0.32874-2.7357-0.72038-1.5676-2.83 0.0921-2.0473 1.1616-1.5664-0.18424 0.43385 1.0089-1.3239 0.74529-1.2421 0.20861-0.69722-2.4016-1.958-0.53052-0.25925 1.7088-1.2899 1.1996-2.3388 0.7397-0.69171 0.56067-0.25264-0.4042-1.3574 0.49611-0.88846 0.30475-0.86222-0.58398-1.4425 0.0803 0.10291-1.7096-0.6868-1.9558-1.9226-1.0932-0.66019-0.77351-0.99351-2.4394-2.3161-1.5783 1.2729-0.0805 1.5413-1.716 2.5961-1.0324 0.59611-0.91206 0.91262-2.8149 1.6531-0.89041 0.99275 0.0338 1.3699-0.76201 1.7794 0.52507 1.3358-0.19351 2.0344-2.5231 0.30179-1.7894-1.7026 2e-3 0.0894-2.8206-0.07009-0.33234 0.53156 0.35134 0.78557-1.1854 1.4925-0.11886-1.2105-1.7799 2.359 0.10354 0.45064-1.1199-1.9033-1.1145 2.5128-3.342 0.83896-1.4203 0.88131 0.8214-2.0484 0.0955-0.01338 0.84004 1.3862-4e-3 1.1576-2.8899 0.06588-2.2342-0.54916-0.46758-1.2072 0.87417-0.97808-0.73115-0.01221-1.0282-0.56202-4.423 0.29504-2.1428-0.67782 1.9403 3.5591 4.2646 2.6234 1.0605 0.03507-0.92437-1.3997-3.3279-0.57455-2.6846 0.0094 1.5707 2.4831 0.13451 1.4891 2.0354 0.06544 2.398 1.6828-1.9011 2.0657 0.0444-0.83871 1.4148-0.51707-1.1972-0.90933 0.65697 1.0011-0.0365 2.9322 0.6479 1.0321 0.71513 0.59814 0.57505 0.68265 2.08 0.52146 1.9058 1.2262-1.3402 0.62181 2.9124 1.9424 0.72129-0.34468-1.0113-1.2923-2.0251 0.17467-2.3743 0.7695 1.3183 1.5258-0.92639 2.0078-0.99487-0.40234-1.368 2.3322-1.7654 1.0581-0.13038 0.81295 1.6821 1.769-2.1077 1.3314 0.26549-0.23062 1.9114 3.414-1.427 1.4875 0.78423-0.64839 0.97253 2.6006 0.068 0.97942 1.3564-0.90893 0.72904 0.49211 1.9619-0.72632 2.5951 0.72805 0.17343 2.4162-1.1458 2.0643-0.30869-0.41141 0.44165 1.6219 0.21135 1.5794-0.88532 0.97878 0.26589 2.7375-1.1077 3.6603-0.25983-2.0542-0.62216-1.4775 2.2264-0.21265 0.70131 0.91636 0.64625 0.67678 2.1079 2.1356 1.1089 1.1522 0.0486 0.41548-1.9014 2.0948-1.1263 0.67623-0.69321 1.4519-0.72396 2.277-0.29375-0.79387-1.3054-1.1233-2.5375-0.64653-3.8135-0.95692 1.1068 0.2628-1.8826 0.78204-0.47253-0.27222 0.78034 1.3231 2.1878 1.4545 0.32217-0.03637 1.5897 2.6007 1.3941 3.1488 2.5914-2.081-1.6007 3.2535-4.654 1.9669-1.6006 0.70915 0.95099 1.2124-0.76373 1.2803 0.66276 0.42751-0.0897 2.6172-1.4156 1.204-0.0733 0.87791 1.6518 1.5726-1.4721 2.4638 0.41654 1.9282 0.20598 0.04964-2.8322 2.3757-2.4338 1.188-0.67354 1.8716-1.6504 2.8085-0.10565 1.666 1.1079-1.1907-3.3191 1.3899-1.7637 0.95338 0.49272 1.7153 2.0903 2.5932 0.67217 1.3775-1.0441 2.0023-0.27839 1.2464 1.1015-0.39848 1.702 2.1302-0.20239 1.7052 1.6709 1.4563 1.8619-0.44358 4.155-1.1759 5.8276 1.7878 1.304-1.8572 3.5301-1.1195 1.6825 1.0368 1.1457 1.5168-2.0966-0.09224-0.53899-0.3673 1.5936-3.1393-0.27572-1.5242 1.142-0.6456 0.99397-1.883-0.32552-1.6029 1.633 0.75039 1.6791-3.8468 4.0861-4.1136 1.7459 0.82863-1.8477-1.7695-1.1264-2.3193-2.059 1.4934 2.8204-4.7723-0.27023-3.5158 0.76265 1.6137-0.32551-1.6097 1.6205-2.3702 1.3036-1.5065 1.7461-4.1801-1.6997-6.1521 0.0713-1.4221 1.3144-2.6465 0.42335-3.855-0.31247-1.0953 0.47713-1.1172 3.9455-2.6847 1.8159zm-9.5442-3.0382c-0.72908-1.4413-0.48214 2.0775 0 0zm9.5191 0.30692c-0.04626-2.9033-1.4693 1.5592 0 0zm-8.1961 0.033c-0.59131-1.4759-1.6435 0.89723 0 0zm-13.072-0.709c0.77827-2.1546-5.2027-1.9277-2.1404-0.26819 0.92113 0.55243 1.5386 0.16829 1.8184 0.88063l0.12334-0.14285zm17.912-1.2766c1.1843 0.0827 1.1923-0.44988 0.25949-1.3481 1.3828-1.424-0.72617-1.4233 0.51189-2.9514 0.69441-1.3738 2.1736 1.2717 1.4143-0.71495-2.3183-2.1345-2.4487 2.721-4.3591 2.4575 1.2677-2.0539-1.8843 1.2735 0.42875 0.92899 0.4525 1.0474-1.158 2.4879 0.84689 1.5675 1.2005 0.14724-1.6306 1.7455 0.56931 0.57789 0.11986-0.13584 0.39352-0.28727 0.32847-0.51745zm14.304-0.3991c0.14997-1.395-1.8981-1.0387-2.1262-0.41601-0.31974-0.75262-1.9983-0.98655-0.92622-1.2249-0.64415-1.4426-1.4573 1.8984-1.0612-0.58015-2.0381 0.21625 0.08971 2.8218 1.526 2.3566 0.50545 0.45626 1.9965 0.28946 2.5875-0.13549zm-29.462-3.4991c-1.6775-1.5586 0.55191-1.9249 1.5747-1.1858-0.59817-2.3647-4.073 0.45176-2.0831 1.3335 0.12215 0.15777 0.59018 0.1757 0.50841-0.14769zm42.433-0.94223c0.88638-1.3234-1.0021-2.0646-1.63-2.6646-0.9105 1.0324-8e-3 5.0278 1.6837 3.169l-0.05371-0.50438zm5.9975 0.81443c0.70858-1.6439-1.1588-0.99698-1.3008-0.0583-0.86046 0.28858 1.2554 0.62827 1.3008 0.0583zm-8.6267-2.5772c0.22452-0.78042 2.0882-2.3679-0.0045-1.6859-0.92494 0.51695 1.1687 0.36945-0.26922 0.8778-0.38771 0.19548 0.18142 1.8802 0.27368 0.80811zm-11.908-0.17997c2.6569-2.6482-4.0575 0.82454 0 0zm16.719 7.9839c0.71674-0.71582 2.7874 0.36593 0.59649 0.19497l-0.27553-0.0455zm-58.38-0.98735c-0.32502-1.3598 2.532-2.6082 1.1284-0.5498 0.38866 0.6947 1.264 0.60891-0.29939 0.74873-0.2756-0.0149-0.60826 7e-3 -0.82902-0.19893zm0.53612-3.2717c-0.69886-0.14912-2.9507-1.509-1.3683-1.8149-0.56893 1.1913 1.1804 0.0625 0.70209 1.2379 1.1541-0.41703 1.032-0.57921 0.88617 0.27087 1.3987-0.19947 0.43003 0.98622-0.21998 0.30612zm5.9717-0.79094c0.60521-2.2133 1.0954 1.0078 0 0zm-1.4737-1.3281c-1.0902 0.0496-1.7935-0.8276-1.1984-1.5169-1.0921 0.26979-4.5657 1.8843-2.8791-0.41502 0.13633-2.0903 2.7392 0.65569 3.7715-0.89659 0.43038 0.29788 1.6273 3.7219 0.30602 2.8285zm1.1526-0.45522c-0.49488-0.68928 1.6211-3.2492-0.28804-1.4696-0.95927-3.2362 4.5844 0.66572 1.6241 0.99142-1.0579-0.48795-0.22874 1.1474-1.336 0.47821zm1.9212-2.1403c-0.92335-1.2939 1.134-3.7727 1.3378-1.1996 0.50544 1.1442-0.22146 1.6449-1.3378 1.1996zm1.0526-1.1743c-0.61133 0.23752 0.16442-1.7364-0.79024-0.39923-0.36663 0.35866 0.72328 1.0238 0.79024 0.39923zm23.35-1.5166c-0.73808-0.89858 2.0343-1.1849 0.31965 0.0344z" fill="#3c6962"/><path d="m60.559 174.43c-0.58514-1.6282-4.908-0.26833-2.6622-2.4954-1.4834-0.10295-3.7005 2.4182-4.4778 0.88681 1.8161-0.80899 3.6299-2.3137 5.2019-3.4159 2.0958 2.6665-2.1112-3.383 1.0134-2.8282 0.07494-2.3146 2.3487 0.62607 0.45918 0.7636 1.1783 1.2211 1.3994-0.68389 1.5541-1.137 1.1251-0.30095 2.8162 0.18066 2.2223-1.6072 0.84346 0.5127 2.1439-0.37936 2.0137-0.28207-0.60183 0.40853-0.93527 1.9872-0.13866 1.4439 1.5461 0.35874-1.5368 2.743 0.75048 3.1645 0.98651 1.2338 5.1855 1.9372 5.2853 0.0847-0.46131-1.7268-2.9675-1.2287-3.388-2.5782 0.71759-0.41607-1.3766 0.15468-0.2492-1.0789-0.34316-0.2396-2.9923-1.606-0.97414-0.86857 0.53359-1.343 2.1109-1.1534 2.7127-0.1958 0.43401-2.0813 1.7178-1.6247 2.4161-0.66669 0.51833-1.5439 1.4105-1.5693 0.98431-0.18536 1.1869-0.69239 1.9554-1.1616 0.30484-1.0281 1.0842-1.77 2.3738 1.5129 3.6416 0.39562 1.209 0.6669 0.69884-2.39 1.4405-0.3742 2.3601 0.68006 0.37684-2.7966 2.7548-2.4205 1.1039-0.38451 1.7635-1.8136 2.5982-0.28008 0.79257 1.1521 1.2983 1.2948 1.2472 2.1043 2.0313-0.38122-3.1339-4.1803 0.16046-3.6312 1.2823 0.53501 1.944 2.0741 3.0655 0.43354 2.6431-1.6767-0.20349 2.4413 1.7605 2.1588 1.6423-0.41599 1.7705 3.7444 0.61236 4.5684-0.72347-1.6289-1.3589-0.24315-2.1201 0.0949 0.6317-1.2362-1.6303-0.73302-1.6224-1.9981-1.0435-0.15917-1.7207 0.94713-1.8969-0.54023-0.39439 1.7098-2.1856-1.0335-0.26458-0.70827-0.30918-1.2116-0.86707-1.0686-1.2406-0.72174-0.25841-1.0154-1.4683-3.0706-1.1758-0.86134-0.05459 0.35487-1.5492 0.66085-1.1427 1.667-1.535-1.7705 0.08776 1.8033 0.84997 2.0811 1.9776 1.3302-2.6921 2.8848-0.24786 2.982 0.80815-0.35515-1.5596 1.595 0.1391 1.4063 0.7495-1.8075 1.9468-2.2979 2.7512-3.8757 0.19548-1.0473 2.5805-1.168 1.8527-0.20731 0.5535 1.0499 1.7369 0.74411 2.2495 2.1312 0.98345 0.30478-0.70647-0.92014 0.8138-0.38307 0.12095 0.59382 1.197 2.9542-0.58619 3.3448-1.29-1.0539-0.84182-0.57618 0.41768-0.5325 1.2073-2.6292-1.5573-0.16022-2.5939-0.0371-2.405 0.62674-1.0783 4.541-3.912 4.682-0.6594 0.24528-0.83508-2.2346-1.5368-0.85835 0.74207-1.7947-1.5717-1.0796-2.3185-2.1008 0.49653 2.9651-3.2413-0.52589-4.1769 1.8132-1.6513-0.90607-2.2526 2.0632-4.4414 0.42309-2.2648-2.1227-4.5212 1.9908-6.4192 0.12411-0.86543-1.5091-1.5505-0.13956-1.9014 1.0082-0.36857 1.2624-1.2412 1.3338-1.786 0.13583zm0.70353-0.56075c1.1467-0.65119-1.0786-0.51179 0.03524-1.4034-0.18654-0.68137-1.8599-3.0121-1.2804-0.6933 0.89801 0.44088 0.10359 2.6527 1.2451 2.0968zm14.788-2.5666c-1.0745-0.10456-1.4734 2.269-0.24646 0.62328 0.10896-0.1775 0.32449-0.38678 0.24646-0.62328zm-11.459-5.7394c-0.47907-2.7182-0.37638 2.546 0 0zm22.49 0.25628c-1.3278-1.6913-1.2771 1.0827 0 0zm1.6915-1.9977c0.23871-1.8178-1.2269 1.3327 0 4e-5zm-4.4894-3.5823c-0.9268-0.7059-1.6201-0.10677-0.18155 0.36804l0.1897-0.16045zm-49.285 11.608c0.41674-2.025-2.9175 0.53363-2.5542-2.0562-0.01494-1.4154 0.70097-0.75513 0.67216-6e-3 0.66239-1.1724 1.6566-1.2758 1.8424 0.0117 0.88751-1.0399 1.4524 1.6357 2.9816 1.6286 1.161 0.74932-1.2332 0.11334-1.3506 1.0825-0.91998-4e-4 -1.1627-2.2623-1.5377-0.01l-0.02924-0.19072-0.0244-0.46034zm4.0031 0.67246c0.7838-0.70812 0.72093-3.3033-0.85883-2.9876-0.50463 0.0614 0.74671-4.2628 1.0182-2.1166 1.4552-0.31645-1.7089-2.2887 0.50868-1.3038 0.56386 1.5656 1.0412-2.16 1.2346-0.60005-1.3913 2.0483 3.7456 1.0998 1.2199 0.82271 1.2347-0.92278-1.1056-1.1793 0.55976-1.6468 1.7422 1.3915 1.2839-0.79997-0.16407-0.78212-0.77276-0.80204-2.5652 1.1313-1.3056-0.9451 2.1548-0.46564 0.11863-3.2951 0.70035-3.9199 1.6172 0.13945 0.13084 2.7942 2.0153 1.6742-0.15811 1.0082 1.9661 1.5274 0.94464 2.6606 1.5202 0.1585 2.5439 2.8636 2.7697 0.45208-0.38362-1.0131-1.9275-1.978 0.30916-1.7427 1.3366 0.53801 0.70103-2.2891 2.3387-0.85179 1.6204-0.69672 2.8768 1.5755 4.6714 0.93218-0.26271 0.50086-1.2804 1.5066-0.65953 2.4349-1.6804 1.5778 1.1985 0.44228 1.1393 0.49887-0.20754 0.66534-0.36397 2.3292-0.84011 0.74251-0.17942 1.2808-0.47672 2.4764 0.26552 3.0216-1.3559 0.52873-0.9303 1.9278-1.1265 3.4187-0.98127 0.26584 0.21977-1.8352-1.0488-0.73551-1.5692 0.19179-1.0085-0.74238-1.442-1.4855-1.2782 0.67996-2.3681 1.2375-3.8678 0.54247-1.029 1.2222-1.5095 3.1318-2.5125 0.68892 1.1556-1.1916 0.68483-2.6796-0.53456-2.0309-1.2255-0.55029-1.4013 3.9557-2.9655 1.9764 1.5459-1.4526-2.1312-0.57369-1.6148 0.89503-0.06348 0.31749-0.44994 0.58143-0.75468 0.38708zm14.097-1.7919c0.83489-2.7928-2.6663 1.4217 0 0zm-9.4744-3.18c-1.0759-2.3009-0.68596 1.974 0 0zm8.7635-4.3391c1.0372-1.6768-1.717 0.86192 0 0zm2.6105 7.9636c0.05823-0.70331-1.179 0.8221-0.21197-0.63527-2.125-1.2531 1.4438-0.2607 0.42558 0.93824-0.15419 0.13283-0.50161-0.0479-0.2136-0.30297zm-26.654-1.1284c-0.09248-1.3986 2.3966-1.8042 1.0583-0.19427 0.05686 0.55227-0.91038 0.65647-1.0583 0.19427zm-0.19844-3.5548c-1.3514-0.25926-1.8066-1.9592-0.30849-0.4185 0.92207-0.35392 2.7828 1.5702 0.85239 0.66625l-0.25215-0.11493zm27.715-0.0879c1.2192-2.1954 0.21346 1.5591 0 0zm-16.999-1.5899c0.01404-1.1405 1.6527 0.96558 0.11191 0.31001zm-10.077-0.74729c-0.25721-0.61434 0.7768-0.965 0.76108-1.7364 0.73534-0.10859 2.2414 1.6966 1.2125 0.0888 1.1248 0.33963 3.2115-1.1691 2.6013 1.0102-1.6137-0.49235-3.0122 0.58402-4.5749 0.63745zm5.6452-0.24562c1.003-0.48033 1.9757-2.3004 0.21616-1.5192-0.97806 0.96578-0.36278-1.8556 0.58861-0.51124 1.3069 0.0506 2.0711 1.912 0.49508 1.6227-0.38196-0.62353-0.93357 0.6718-1.2999 0.40778zm1.8513-3.2088c0.93186-1.9354 1.4112-0.0522 0 0zm14.023-0.61819c-1.6169-0.62065 1.6554-0.36545 0.07772 0.19789z" fill="#33625b"/><path d="m60.559 174.43c-0.97933-1.6286-4.1585-0.2292-2.9915-2.7078-0.78694 0.60718-5.417 2.7695-2.8135 0.52802 1.3319-1.2923 4.6473-3.4944 5.1986-0.51695-0.43709 0.74261-0.82161 0.6474 0.27067 0.96936-0.40334 1.1541 0.91181 2.2756 1.9219 2.0109-0.08694 0.9909-1.4054 0.52286-1.5861-0.28354zm3.676-1.1939c-0.40345-1.0613-2.3542-0.47286-1.3072-0.38519-1.6505 1.466-2.0611-1.8377-2.0188-1.7893 2.3464 0.46348 0.46567-2.5887-0.99045-2.5792-1.6282-0.54925 0.48165-3.0652 0.58758-1.674-1.7596 0.29612 0.93511 1.3985 0.26599 1.8997 0.74146-1.1926 1.8112-4.0116 2.7439-1.9477 0.85952 3e-3 -2.1202 1.6821-0.242 1.755 0.66924-0.58291 2.9286-2.5617 2.2282-0.14245 0.07212 1.793 1.1308-0.78431 1.1191 1.1132 1.1356 0.37455 3.9083 0.97124 1.4065 1.8715-1.1166 1.5404 0.49823 0.18713 0.79687-0.0325 0.50626 1.2523 2.0243-2.044 1.8412-0.10126 1.1643 0.23066 0.73775-1.1604 1.8295-0.84378-0.1252-1.7647-2.0814-2.8782-2.5381-3.8389-0.37506 1.7735-1.0211-0.49686 0.22061-0.91213-1.4714 0.69066-3.9311-1.8288-1.2953-1.918 1.1855-0.28833 0.15467 2.4469 1.2215 0.61902 0.016-1.8386 1.9758-0.11495 2.8061-1.1914 1.6916 0.72246-0.7735 4.183 1.2299 2.2269 1.0449-0.72761-0.03488-2.4438 1.7061-1.4636 0.72671 0.46106 2.544-1.0781 3.1117 0.69446 1.4144 0.17217 1.3752-0.13498 1.9427-1.2601 0.16469 0.0437-0.06934 0.97558 0.99896 0.9638-0.95379 1.3574 1.562 0.24704-0.0064 1.5275-1.5629-1.2827-0.10053 2.1432-1.637 0.80603-1.8958-1.1735 0.65801 1.7305 1.1812 2.2852 1.284 1.017 1.9044-2.1703 1.8435 0.21548 2.2664 0.74665 1.3927-2.4879 3.4276-2.1902-0.86399-0.66747-3.2116-0.027-1.2343-1.3425 0.7443-1.4596 0.15893 1.9313 1.6228 0.73824 0.54575-0.22311 0.2384 3.0028 0.32353 2.8303-0.68466-1.2858-1.8212 1.4328-1.5131-0.44906-1.9913 1.2772 0.38189 2.9593-1.6815 4.4711-1.923 2.1109-0.77452-2.8596-2.4146-1.0342 0.47164-1.2874-1.8448 0.30331-2.2032-1.1598-0.70522-0.20523 0.03481 2.1795-1.6105 1.1264-0.82186-1.0149-3.7721-0.75419-2.8725 0.36468 1.2106-0.89251 1.4328-1.1472 0.28329 0.0784-1.0018-0.0223-2.0403 0.17979-2.6398 1.0069-0.52977-0.85126-2.7138 0.36558-2.2371-1.0376-1.3084-0.64451-3.0652 0.97646-4.3527 0.48297-0.36406-2.2434-1.7694-0.8199-0.95207 0.55359 1.6288 0.39367-0.76398 0.5784-0.99186-0.33731zm20.729-2.1475c-0.53755-0.88077-1.5192 1.0798-0.14963 0.20418zm-8.9444-6.3736c-1.7878-0.47486-1.1125 1.866 0 0zm-40.065 7.1982c-0.89512-1.4724-4.6347-0.27312-3.1388-2.9058-0.41103 2.4446 1.8652-1.5459 1.4564 0.99604 0.68793 0.27575 1.8412-0.94237 1.5829 0.78159 2.0225-0.38628 1.8083 2.7072 0.09954 1.1282zm9.6126-0.33073c-0.42852-1.6966 2.2487-1.5232 2.5654-3.0738 4e-3 1.3602 1.5552-0.59134-0.08561-0.8877-0.77349-0.426-0.45757 1.4997-1.4546 0.42814 0.13211 1.5583-1.4402-0.39382-0.19288-0.50048-0.48372-1.173-1.4314-1.239-1.7052-0.60966-1.1981-0.90363 0.15177 1.0202 0.7735 0.36215 0.61194 2.028-2.5117 1.5153-1.8156 2.4924-0.93975-0.30956-1.7167 0.25064-0.51936 0.48285 1.61e-4 1.6604-2.4141 1.8181-1.1778 0.33829-0.89013 0.1804-2.9717-1.9647-2.1329-0.30527-1.6458-0.419-1.6304-3.0545 0.62564-2.74 1.8329-0.2638-2.3145 1.4256-0.07937 1.4113 0.46586-0.5634 1.9081 1.4991 0.99049-0.2211 0.72891 0.36431 4.025-0.19956 2.388-2.2511-0.26909-0.7997-1.5315-2.3219 0.08953-1.3003 0.0928-1.1183-2.1217-2.0699-1.5445-3.7759-0.77568-1.1395 0.63193-3.2724 0.34943-0.85623 0.31962 0.83916 0.63339 3.308 0.76507 1.283 0.48262 0.78744 1.8584 0.0387 1.1806 1.5969 0.45158 0.82786 1.7819-0.0973 2.2761 1.2959 1.8179 1.354 0.38099-2.1569 0.14638-2.4888 2.0842 1.7979 1.9095-2.8566 3.0293-0.48753 1.1783 0.29487 2.44 3.396 2.8313 0.86776-0.17606-1.1472 1.0293 0.61155 1.5735-0.0874-0.88869 1.6578-0.09259 3.4954-0.6234 5.0148 0.20656 2.1642-3.7985 1.3533-4.3258 3.3376-1.1511 0.18405 0.1881-1.1969-1.2227-0.1396-1.2372-1.9224-1.836 2.8601-2.7046 0.81377zm0.93511-5.424c0.37408-4.0986-1.6576 1.8635 0 0zm-18.155 3.8365c0.30226-1.4237 1.6419-1.4193 0.7897 0.0662-0.07827 0.38848-0.7764 0.33971-0.7897-0.0662zm60.428-1.9934c1.2343-0.91449-1.7495-0.5123 0.21796-0.94175 2.2739-0.11786-2.0162 2.5507-0.21796 0.94175zm2.2821-3.6935c-0.74098 0.0738-3.5862-1.9509-2.5345-1.8988 1.752 1.7454 0.93063-1.6274-0.60217-1.3033-0.3999-1.0542-1.9523-0.54309-2.5767-1.4841-0.25935 0.95674-1.8952-2.1195-0.43509-1.4669 1.8807-0.29709 2.7789 3.7898 2.9965 0.87621 2.2662-2.2412 1.119 2.0366 2.3465 2.0693 0.82221-1.615 0.98706 1.4336 0.6889 1.6726 1.6819-1.997 0.38843 1.8923 0.11657 1.5351zm-62.273-0.2442c-0.74816-1.0096 3.9877-0.94304 1.5445-0.50625-0.46235 0.2607-0.95715 1.0314-1.5445 0.50625zm58.966-0.43033c-0.22675-1.9049 0.89772 0.8639 0 0zm-55.309-0.45593c-0.98704-0.0429-2.417-1.2954-0.63539-0.33651 1.4319-2.7886 2.4031 1.4719 0.63539 0.33651zm8.8638-0.12506c1.6247-0.88891-0.4162 1.2793-3e-6 0zm39.037-0.98822c-0.7349-1.3599 1.6847-2.9239 1.852-1.3992-0.90142-0.0529-1.0396 1.358-1.7246 0.94564 0.44646 0.91615-0.30716 2.1715-0.12735 0.45358zm5.4621 0.67558c1.0499-2.4282 0.53334 1.6373 0 0zm-51.568-0.61631c1.5092-2.1708 0.12874 1.7592 0 0zm49.478-2.4256c-0.51626-1.0818-2.1068 0.72163-0.78557-0.63508 0.73331-0.22598 2.2254 2.1324 0.78557 0.63508z" fill="#2b5b54"/></g></g></svg>
