<?xml version="1.0" encoding="UTF-8"?>
<!-- Created with Inkscape (http://www.inkscape.org/) -->
<svg width="26.912mm" height="54.682mm" version="1.1" viewBox="0 0 26.912 54.682" xml:space="preserve" xmlns="http://www.w3.org/2000/svg"><g transform="translate(-59.146 -155.26)"><g transform="translate(-67.838 2.025)" stroke-width=".26458"><path d="m140.93 207.44c-0.61505-0.69168-8e-3 -2.9024-1.4044-2.1042-1.6105 0.53128-3.6347 0.9205-4.8561-0.60067-0.51289-0.65326-1.1487-0.94269-1.9658-0.69547-1.6713 0.0494-3.8536 0.77652-4.8783-0.9895-1.5323-1.6952-0.72384-4.027 0.56865-5.5909 1.2689-2.1002 4.6539-2.0848 5.8638 0.0724 0.60291 2.9222 3.9298 0.86518 5.0781 3.2429 1.7999 2.2214 0.5022-1.6411 0.65506-2.6721 0.0755-1.5428-0.14138-2.9227-1.9827-2.4927-1.8518-0.34028-3.113-2.1427-3.4653-3.5691-1.9837-0.50463-4.5031 0.012-5.991-1.6571-1.3486-1.5254-1.278-4.0636 0.0795-5.5991 1.8951-1.6781 4.0277 0.12181 5.3904 1.5213 1.928 0.81769 3.9214 1.8476 4.9111 3.9574 0.6556 1.507 0.42816-2.2094 0.26245-2.8081-0.11519-1.3578-0.10179-2.721-0.11924-4.0823-1.7816 0.45324-3.8603 0.1538-5.3028-1.0134-0.42048-2.6548-4.2353-0.21298-4.7053-2.8346-0.46288-1.9023 1.4174-4.0504 3.2734-4.3672 1.8585 0.73248 4.1788 1.2424 5.4037 2.8883 0.32869 0.35638 1.0433 2.4494 0.953 1.0931 0.0208-1.476 0.16696-2.9608 0.0159-4.4315-1.7414 0.68908-4.2288 1.5848-5.5796-0.33258-1.218-0.87634-1.7075-2.6571-0.0767-3.3588-0.83539-2.8205 2.8286-3.7392 4.482-1.8692 0.63531 0.64569 1.2616 1.3324 1.007-0.0455-0.12644-0.60703 0.4051-1.7992-0.60629-1.6193-2.4058-0.33002-4.825-1.0111-6.9492-2.1982-2.2412-1.9926 0.29145-4.3964 2.5992-3.5033 1.6063-0.3756 3.2209-0.80693 4.8911-0.69676-0.13074-1.1774 0.44527-3.2698-1.4378-2.9747-1.6716 0.13085-4.4676-3.0663-1.5664-3.1941 1.9779 0.63452 3.6602-0.76098 5.1849-1.6832 2.7943 1.0398 0.0142 3.7968-0.26337 5.467-0.32594 1.5848 0.95321-0.053 1.6537-0.19937 1.5565-1.0658 5.1145 0.15454 3.6335 2.3297-1.2122 1.5779-3.302 1.8184-5.155 1.7602 0.0595 1.0082 0.11893 2.0165 0.1784 3.0247 1.3153-1.0687 3.5239-1.0141 4.7184 0.18391 1.0504 2.1534-1.4361 3.9273-3.3252 4.1893-2.0153-0.62454-1.2393 2.1019-0.95844 2.9172 1.9299-2.1798 4.169-0.34171 4.8642 1.7956 2.3945 1.5001 0.2909 4.2479-1.9584 4.2306-1.7047 0.2301-3.477-0.25548-2.8574 2.1073-0.23349 1.156 0.25463 0.95013 0.96296 0.32873 2.3619-2.0291 3.9864 1.2258 4.0113 3.1568 2.2906 1.0202 1.1739 3.6868-0.44554 4.7488-0.96661 1.456-2.9521 2.032-4.3291 2.1458 0.20546 2.0262 0.3686 4.0583 0.36689 6.0962 0.53707-1.444 1.0388-3.41 2.8786-3.5456 1.8938-0.92492 0.6808-3.8739 2.3447-5.2026 2.3866-1.9963 3.284 2.129 4.7463 3.2453 2.2652 1.3666 2.7402 4.1708 0.58943 5.9137-1.1251 2.221-4.3873 1.3206-5.014 3.746-0.84563 2.1545-3.0913 2.1182-4.9671 2.0286-0.22887 1.2844 1.2953 5.3328-1.4072 3.7398zm-2.2507-4.3921c-1.5668-0.92523-2.8012-2.485-4.643-2.7562-1.044-0.0488-1.8681-2.0665-1.8586-0.55347-2.2871 0.0764 1.4974 0.5143 2.0557 1.079 1.7293 0.542 3.7932 2.185 5.026 2.7489l-0.21765-0.206-0.36248-0.31215zm-7.6068-1.6938c2.6838-1.8484-3.0216 1.2303-0.54614 0.2942l0.27539-0.13963zm12.898-0.8424c1.1536-0.89003 1.9643-2.1184 2.8428-3.2615-1.3067 1.4568-2.6138 2.9737-4.2953 3.9905 0.53256-0.10849 0.99609-0.45014 1.4524-0.729zm-13.891-0.748c1.1887-0.66622-2.9408 0.44049-0.6226 0.14962l0.32401-0.0674zm17.761-4.101c0.62789-1.1949-0.94395 0.97077-1.0769 1.4967 0.15731-0.0949 0.87495-1.0567 1.0769-1.4967zm1.3229-2.1167c0.62788-1.1949-0.94395 0.97078-1.0769 1.4967 0.15733-0.095 0.87493-1.0567 1.0769-1.4967zm-10.351-1.5268c-0.41937-0.89759-2.3968-3.3272-2.509-2.7731 1.3016 0.89587 2.3135 3.5022 2.9809 3.9788-0.0969-0.42262-0.27811-0.82001-0.47189-1.2057zm-4.6309-3.1044c0.8605-0.27544 2.0215 0.0538 0.43313-0.442-0.58625-0.029-1.4633 1.201-0.43313 0.442zm4.6296-6.8306c-0.58109-1.107-2.163-2.7503-2.8324-2.9513 0.88913 0.72782 2.29 2.8172 2.8324 2.9513zm-5.9531-4.4606c-0.72342-0.68396-1.5818-0.84072-1.8652-0.14455 0.39338 0.17962 1.9155 0.39085 1.8652 0.14455zm10.5-2.469c1.7665-0.23848-0.32764-0.39038-0.97229 0.012-0.77364 0.45265-1.5624 1.8388-0.2653 0.56169 0.3827-0.24696 0.79439-0.45916 1.2376-0.57368zm-4.7012-2.1384c-0.35205-0.89728-2.387-1.056-0.68516-0.34922 0.36093 0.33196 1.5885 1.4311 0.68516 0.34922zm3.8586-6.1771c1.4884-0.56529 0.12861-0.0745-0.40392-0.3638 0.67671-1.1783-3.0408 2.4664-0.976 1.0158 0.43751-0.26136 0.90259-0.47468 1.3799-0.65202zm-4.7625-2.8746c-0.21737-0.29624-2.2468-2.187-1.7365-1.6343 0.55826 0.51142 1.1222 1.4691 1.7365 1.6343zm3.9234-3.3592c1.0078-1.5203-2.4569 1.6196-0.38039 0.13546l0.38042-0.13546z" fill="#a1d0cc"/><path d="m141.46 207.77c-1.2558-0.68602-0.37318-3.5516-2.6558-2.3147-1.6265 0.74316-3.4504 0.32156-4.414-1.1951-0.47297-0.65704-1.4287-0.0881-2.1238-0.181-1.9334 0.40621-4.1073 0.2026-4.9357-1.9271-1.075-1.917 0.58721-4.1167 1.8285-5.5252 1.6522-1.3468 4.7359-0.60793 5.2452 1.515-0.72935 0.69827 1.0473 0.42231-0.51294 1.1208-0.74372 0.68198-1.2336 0.20532-1.6709-0.51202-0.44741-0.74418-2.4843-2.8886-1.2647-0.93321 0.86749 0.90047 2.3361 2.3098 0.0571 1.7666-1.0475-0.40209-3.5859 0.37282-1.1846 0.45099 0.97859-0.0906 4.464 0.36518 1.959 0.54418-0.68597 0.63693-0.57312-1.0618-1.1654 0.43925-0.41311 0.45067-2.4533 1.2882-0.64024 0.89338 1.789-1.404 3.3225-0.316 5.3797-0.33353 2.2317 0.21641-3.5354 1.6084-0.41665 1.1326 1.5757-1.0037 3.4513 0.42863 4.3042 0.84523-0.45777-1.1137-3.8126-1.922-1.3119-2.6246 0.75724-1.0016-1.7695 1.0692-1.3039-0.58941 1.4733-1.0972 2.6784 0.0696 3.4367 1.421 0.723 0.72369 0.27841-2.0796 0.0788-2.7059-0.31612-1.447 0.35096-4.0657-1.9879-3.4792-1.9988-0.3521-3.1588-2.1673-3.7217-3.7386-1.9569-1e-3 -4.2255-0.22115-5.6608-1.2571-1.5489-1.1318-0.44327-2.2999-1.0702-3.5017-0.19382-2.6215 3.2055-3.9425 4.8793-1.9548 0.98249 0.62671 2.7392 2.5033 0.68925 2.1034 1.0632 1.0259 1.4629 1.345-0.25359 0.94131-0.90319-0.0931-4.6056-0.92756-2.152 0.1394 1.7865-0.17118 3.6003 0.76805 4.9558 1.0011 1.4381 0.42269 2.1429 1.8756 2.7757 3.1178-0.79405-0.22314-3.0837-0.31722-1.0165 0.16202 1.1991-0.85216 2.0359 2.7146 1.794 0.52148-0.41282-2.1024-1.356-2.814-3.0989-4.0895-0.47318-1.1051-1.5366-0.38819-1.9159-1.5113 0.88724-0.45804 1.4808-0.53805 0.48019 0.36264 2.0477-1.3281 3.3346 1.5071 4.3419 3.0131 0.32871 0.60054 1.2666-1.8432 0.81741-1.3859-1.2542-1.0906-0.67857-3.5869-0.91279-5.2892 0.31415-1.1016-0.92721-0.63815-1.6016-0.7451-2.0726 0.26436-3.7811-1.0308-4.7464-2.5561-1.6857 0.18504-3.9012 0.0998-3.7034-1.9748 0.72485-1.7333 4.1201-1.1522 4.8167-0.60584-0.7293 0.37905-3.463 0.92225-1.0666 0.67592 1.7422-1.157 3.3294 0.27021 4.4648 1.5508 1.0918 0.70693-0.19138 0.64262-0.83431 0.78622-1.5425 0.25167 1.0459-0.0632 1.429 0.1724 1.9307 1.7382-0.14216-1.1631-0.17483-2.1228-1.174-1.6166-0.23422 0.30031 0.0117 0.84271-1.5246-0.63169-3.3532-3.1356-4.0723-3.4019 1.8893 1.9668-1.8871 0.51657-2.0161-0.74688 0.30244 1.1738-0.88547 1.5949-0.73358 0.25169-0.16652-1.4248 2.5219-1.2572 3.6446-0.34885 1.9541 0.34053 3.4165 2.2818 4.1707 3.4044 0.21721-1.6454 0.10592-3.3111 0.13375-4.9664-1.4338 0.73558-3.2244 1.6006-4.7752 0.77127-1.3172-0.9841-3.1088-3.045-0.9282-4.1703-0.85536-2.2566 1.8559-3.4535 3.6095-2.4051 0.73126 0.4141 2.6557 2.8102 1.8862 0.48851 0.62079-2.6639-2.6987-1.5969-4.2463-2.4995-1.8552-0.40817-4.4413-1.1587-4.2262-3.5451 1.0183-2.3511 3.8894-0.67995 5.7421-1.7598 0.6866-0.57702 2.7403 0.43814 2.6613-0.66348-0.0332-0.79305-0.0664-1.5861-0.0996-2.3792-1.5447-0.19021-3.4973-0.52318-4.0687-2.1912 0.0628-2.1252 2.7355-0.50047 4.0324-1.3346 1.1213-0.7181 2.6605-2.505 3.447-0.29352 0.55942 1.9806-1.9282 2.8544-1.4468 4.7744 0.27585 0.58799 1.6564-1.2409 2.5402-0.96141 2.4753-0.93281 4.3834 2.5739 1.5178 3.4778-1.1858 0.86453-2.6714 0.75933-4.058 0.7695v3.4248c1.0477-0.96202 2.4676-1.3561 3.8466-0.84663 2.9303 0.91214 0.70805 4.4848-1.5226 4.6789-0.66411 0.41708-2.5436-0.50039-2.0161 0.82715 0.14139 1.2876-0.0604 3.2322 1.5475 1.587 2.6741-1.1868 2.9229 2.2824 4.54 3.4377 1.2893 1.8316-1.8398 3.6392-3.561 3.3374-1.3811-0.17834-2.8085 0.023-2.057 1.7361 0.0351 0.81309-0.21549 2.2022 0.699 0.95291 2.1596-2.3359 4.4764 0.62823 4.0526 2.8421 2.5847 0.67738 1.4355 3.5775-0.1468 4.6918-1.1118 1.2239-2.625 2.3198-4.3651 2.1196 0.15294 2.1858 0.0357 4.4758 0.48024 6.5762 0.31992-1.7487 1.0534-3.86 3.1599-3.9826 1.464-1.3147 0.41867-4.1628 2.2758-5.4454 2.4835-1.082 2.8176 2.7586 4.5326 3.7277 0.82002 0.79307 2.0227 1.8728 2.0291 3.0198-0.82293 2.0995-2.3129 4.1563-4.6667 4.6022-2.221 0.1414-1.773 3.3701-3.9777 3.8569-0.83885 0.40953-2.5259-0.49484-2.9964 0.11055-0.34167 1.279 1.4513 4.3994-0.79582 4.0107zm2.333-7.0832c0.51708-0.6834 3.6205-1.161 1.3712-1.0401 0.71326-1.1666 1.6196-2.2021 2.4413-3.2934 1.4078 0.19894 3.033 0.44681 4.1456-0.67523-1.5798 0.98724-5.3335 0.90179-2.8595-1.5108 1.2855-2.2646-1.151 0.82006-1.3746 1.6188-1.4068 2.1666-3.034 4.4421-5.4802 5.4929 0.64462 0.20091 1.2698-0.22309 1.7563-0.59221zm0.41285-4.7147c0.3265-1.1665-0.3025-1.8742-0.34333-0.31267-0.15042 1.1815 0.15287 2.5785 0.30186 0.66809l0.0415-0.35542zm3.9048-4.4288c-0.6405-3.0418 0.13347 3.8742 0.11751 0.85085-0.0311-0.28466-0.0708-0.56835-0.11751-0.85085zm-17.634-1.2601c0.17901-0.78045 3.0653-0.71198 0.92249-0.96918-0.97569 6e-3 -3.4041-0.59978-1.2498 0.39259 0.40125 1.0548-2.3474-0.81704-0.90563 0.38183 0.94136 0.0156 0.95863 1.6998 1.2329 0.1948zm4.1044-0.46324c-0.2138-1.358-3.0563-0.24437-0.7429-0.30527 0.28684 0.089 0.35645 0.80659 0.7429 0.30527zm7.6729-0.75763c-0.55776-2.3287 2.3333-1.7667 3.0922-2.5792-1.0325 0.21634-3.1785 0.70927-1.6281-0.93651 0.59159-0.75818 0.9835-1.2969 0.0193-0.34472-0.85884 1.0809-2.8004 3.5116-1.6533 4.4595l0.12441-0.22033zm1.1978-6.7115c-0.73003 0.77482-0.76312 3.4921-0.20748 1.1352 0.0902-0.37408 0.19651-0.74738 0.20748-1.1352zm1.173-5.5968c0.0693-0.28009-4.0735-0.75747-1.6096-1.5148 1.6714-0.0302 0.88665-0.95079-0.27565-0.30775-1.8233 1.0964 1.3176-3.0465-0.60451-0.98064-0.19617 0.79587-1.5901 3.5538-0.17655 2.1974 0.88877 0.14917 1.7471 1.2654 2.6663 0.60577zm-5.7162-3.5178c-0.63602-0.2562-2.0751-2.8585-1.9992-1.9976 1.3194 1.3236-3.7058-0.44194-1.7353 0.65602 0.50099 0.0669 2.2847 0.0403 1.3796 0.82474 0.55661-0.90312 2.9561 1.4581 2.3549 0.51684zm-3.203-0.38516c-2.377-0.13659-0.66162 0.36037 0 0zm6.7664-3.7746c-0.30716 0.10659-1.4564-1.3875-0.94224 6e-3 0.15553 0.47464 0.86162 0.58835 0.94224-6e-3zm0.92811-1.0761c0.76179-0.16663-2.2681-0.9939-0.32769-1.2353 1.2496 0.16697 1.9372-0.53406 0.33191-0.48005-0.77291 0.4211-1.3831 0.31925-0.94209-0.6258-0.77945 0.9009-2.1864 1.5676-2.6478 2.1343 0.4926 0.37519 3.1492-0.90036 2.2244 0.44223 0.4495-0.10339 0.89567-0.23233 1.3612-0.23544zm-5.3258-3.4768c-0.49935-0.95622-3.0279-3.1912-1.1088-1.1487 1.368 1.6513-2.1774-0.18823-3.0027 0.0846-0.69749-0.0756-2.2512-0.18668-2.5685-0.18419 2.2037 0.37845 4.4885 0.61755 6.4941 1.6766-1.3482 0.11545-2.737 0.21503-4.0308-0.27146 1.1116 0.99969 4.2716 0.68352 4.8034 0.82758-0.16014-0.34777-0.37188-0.6687-0.58669-0.98431zm4.002-3.834c1.0372 0.34283-0.80698-0.61873 0.66682-0.59742 1.2266 0.18668 1.7007-0.90532 0.16239-0.37207-0.85209 0.41768-1.2999 0.36604-0.95919-0.1115-0.90928 0.50012-2.484 2.9443-0.61072 1.1223l0.32465-0.0618 0.41605 0.0204zm-2.865-3.5268c-0.74323-0.32754-2.6431-1.8778-1.5135-0.48241-0.98539 0.0896-3.336-1.0004-1.2466 0.23703 0.71407 0.0541 2.4726 0.76976 2.7601 0.24538zm1.0718-1.4467c0.63087-0.96019 0.24541-1.7061-0.30276-0.3419-0.35458 0.99623-0.55489 2.0953 0.30276 0.3419zm-5.5698 44.574c1.4088-1.0264 0.93474 1.1043 0 0zm0.79375-0.52917c0.58796-0.95554 2.005 0.63283 0.26634 0.18686z" fill="#84c1bd"/><path d="m141.46 207.77c-1.2692-0.67426-0.3663-3.621-2.6565-2.3409-2.2332 1.3648-3.7192-0.83805-5.5639-1.4485-1.9834 0.0731-4.4997 0.88996-5.6035-1.4017-1.4533-1.7587 0.0245-3.9209 1.1009-5.4384 1.5137-1.9557 4.6639-1.3654 5.683 0.78925-0.90909 0.53385 1.0435 1.145-0.61332 1.0434-1.493 1.2298-2.6275-2.5828-3.4712-1.8588 0.97223 1.0002 2.9452 2.9151 0.21057 2.5153-1.1992-0.17562-2.5248 0.53357-0.55392 0.44426 0.80254-0.30383 4.0186 0.52053 1.5046 0.33102-0.77461 0.43087-1.9143 1.1324-2.4298 1.6144 1.0989-0.0583 2.2334-0.51958 2.5726-6e-3 1.0104-0.70907 2.8105-0.42551 4.3657-0.25539-0.56733 0.94948-2.8609-0.21154-2.1367 1.1685 1.9782-0.53947 3.8779-0.85029 5.3541 0.88744 0.08-1.0266-3.7764-2.3506-1.1068-2.877 0.94234 0.0329 2.1192 0.89325 2.4149 1.3571-0.049-2.1418-0.59712-4.234-0.6703-6.3819-0.52896-0.73913-2.508-0.0123-3.3158-1.0421-1.9206-0.84521-1.1276-3.8906-3.7775-3.1662-1.3694 0.48149-3.4709-1.0086-1.6798-1.9235 1.9397-0.60699 3.3061 0.49663 4.9084-0.47722 0.92808 0.92437 2.0199 1.8141 2.2852 2.9447-0.99646-0.46426-2.6676 0.0578-0.75185 0.58297 0.26977 0.55657 1.1393-0.92504 1.4411 0.44902 0.21749 0.98411 1.6891 0.72876 0.49362-0.0268-0.29899-0.87412-1.5978-2.8846 0.0694-1.902-0.45523-0.93397 1.8718-2.6054 0.0817-1.7752-0.50498-1.9836-0.13391-4.2551-0.87199-6.0961-1.92 0.19705-4.2864-0.19929-5.4214-1.9173-0.55161-1.7171-4.0409 0.42712-3.8998-2.0041-1.0055-1.4494 0.2377-1.1277 0.93102-0.29025 0.13849-0.1354-0.84757-1.5102 0.39732-1.352-1.5671 1.517 1.5253-0.7356 2.3375 0.0546 1.908 0.0297-1.7764-0.6925-1.3587-1.9286 0.2336-2.0874 3.307 0.50424 4.5164 0.75266 1.4858-0.0462 1.715 2.9762 2.5833 2.5347 0.12683-1.6253-0.0246-3.2568-0.0466-4.8846-1.4912 0.76377-3.5158 1.7368-5.0061 0.53769-1.2962-0.99666-2.6515-2.8547-0.66972-3.9543-0.97983-2.6797 2.7188-3.6256 4.2852-1.8434 0.51991 0.24138 1.8442 2.1094 1.3591 0.62121-0.14604-1.4467 0.0618-2.9936-1.8815-2.5762-1.9245-0.47185-3.9166-0.89231-5.6759-1.825-2.5249-1.8248-0.0216-4.4119 2.3868-3.6158 1.6523-0.24467 3.279-0.77776 4.97-0.65584v-2.878c-1.5668-0.21271-3.5987-0.46185-4.1806-2.1803 0.18227-2.2723 3.2873-0.32188 4.6776-1.5219 1.3558-2.8198 4.14 0.26207 2.2931 2.1679-0.91839 0.2483-1.3432 2.8617-0.64358 2.6229 1.307-1.0881 3.4727-1.588 4.9061-0.50176 1.4183 2.4724-2.4472 3.7954-4.3408 3.6602-1.0887-0.39289-0.8775 0.56031-0.8599 1.313-0.12395 0.99229 0.0524 2.9561 1.1851 1.3364 1.9973-1.0372 5.571 0.94787 3.5608 3.1794-0.96343 0.82988-2.3942 1.8085-3.0791 0.47509-1.033-0.57322 2.9163-0.43575 0.88452-1.2679-2.1731-1.003 3.3046-0.69486 0.77685-1.2841-1.0306 0.38499-1.382-0.14428-1.4163-0.50625-0.95132 0.72532-0.61936 0.56226-0.34131-0.21161-0.87107-0.14546-1.7895 2.8037-1.6051 0.89398-0.84816 1.1385-0.93082 0.69476-1.007-0.19405-1.6663 0.48622 1.1618 1.869 1.703 2.3054 0.83163 0.92556 0.77134 1.0531-0.45413 0.61556 0.99006 0.31087-0.68157 3.383 0.52813 4.3282 0.94001-2.6704 4.3248-1.2334 4.6838 1.0881 1.9317 1.0745 1.4281 3.0539-0.39233 3.886-1.6125-0.0669-2.6505 0.92737-4.3653 0.51103 0.19611 0.68559-0.3457 3.8578 0.57994 2.8892 1.3841-1.9044 4.5033-0.89606 4.0984 1.5329-0.014 1.5657 2.8792 2.1366 1.4139 4.054-0.72928 1.3367-3.5161 4.2267-4.3882 3.32 0.61044-1.2359-0.76732 0.70506-1.3267 0.60361 0.0525 2.1144 0.0323 4.3941 0.31035 6.4009 0.48784-2.1753 1.9374-3.6192 3.8733-4.4211 0.48369-1.743 0.22039-4.5223 2.3818-5.1581 2.2096 0.48211 2.3973 3.3474 4.2998 4.3898 2.064 1.3665 1.4242 3.8275-0.046 5.3759-1.0001 2.0656-4.3078 1.118-4.7943 3.3734-0.64422 1.6725-2.3633 2.862-4.1662 2.2552-0.86482-0.17404-1.6453-0.27043-1.1306 0.82601-0.0236 0.7901 0.91075 3.9582-0.70885 3.3583zm2.3812-7.082c0.6077-0.58425 3.6571-1.1218 1.3438-1.1812 1.2184-1.6626 2.4149-3.6752 4.8155-2.9976 1.2294-0.081 2.4235-1.4765 0.49418-0.44431-1.8083 0.94833-3.3234-0.39056-1.5844-1.9139 1.1877-2.2395-1.1422 0.83591-1.3603 1.5355-1.4119 2.1307-2.8638 4.4234-5.2766 5.5234 0.1169 0.46623 1.2982-0.35775 1.5678-0.52192zm0.52086-2.3887c-0.44569-1.3281-0.32897-2.691 0.70797-3.496-0.74132 1.0823-1.0044-1.1629-1.1571 0.54548 0.0546 1.2341-0.24097 3.3447 0.60315 4.0203 0.0125-0.36381-0.0789-0.71776-0.15401-1.0698zm3.7505-6.7415c-0.67055-3.2274 0.14994 4.3541 0.11978 0.8794-0.0314-0.29421-0.0716-0.58748-0.11978-0.8794zm-11.945-1.0941c-0.49878-0.98164-2.4468 0.77589-0.51038 0.19257 0.15375-0.0645 0.40662-0.0231 0.51038-0.19257zm7.3638-1.1528c0.31283-0.71425-1.4719 1.1963-1.2778-0.48588-0.473-2.0406 3.1684-1.6535 2.8666-2.3431-0.83971 0.35768-2.8803 0.52298-1.4114-0.74285 1.444-1.6897-0.45338-0.36008-0.95541 0.39688 0.14174-1.0843 0.78691-3.0118 0.59688-3.5185-0.90695 1.898-0.67594 4.114-1.5107 6.0567-0.4627 0.76905-1.9042 0.10159-0.31358 0.884 0.57392 0.25071 1.7971 0.68499 2.0054-0.24727zm-4.9849-7.8714c-0.30906-0.53367-1.0832-3.2418-1.489-2.4257 0.82015 0.87265 0.82126 1.7568-0.31876 0.60436-1.2063-0.65231-2.4426-2.8812-3.3021-2.9443 2.1138 1.612-1.1292 2.0488-1.9532 2.4038 1.9311-0.27975 3.98-1.0533 5.277 1.029 0.34326 0.4719 1.8066 1.5114 0.39805 1.1325-0.82207-0.12491-3.5554-0.28095-1.244 0.19692 1.0674-0.34302 2.6431 0.59296 2.9295 0.61073l-0.11352-0.27342-0.18403-0.33388zm6.2206-4.6964c-0.85311-0.37281-3.6742-0.97136-1.3686-1.4919 1.8518-0.65232-0.88329-0.48733-1.3403-0.19659 0.47969-0.60115 1.3656-3.0808 0.18832-1.2589-0.30101 0.60526-1.5947 3.8778-0.34294 2.3324 0.89443 0.19246 1.9847 1.3616 2.8635 0.61501zm-6.5668-4.3388c-0.58341-0.46381-1.6924-2.4549-1.1898-0.61831-0.6866-0.43046-3.7141-0.17307-1.6361 0.13642 1.2884-0.15377 1.9622 0.77451 0.30309 0.78967-1.0323-0.16454-2.4604 0.20364-0.55569 0.31909 1.3977-0.2121 2.8068-0.64396 3.915 0.33955-0.19086-0.39076-0.53059-0.671-0.83658-0.96642zm1e-3 -7.7409c-0.44983-0.6901-2.0119-2.6946-2.343-2.1945 1.022 0.5077 2.3426 2.4451 0.24639 1.3368-1.0772-0.27113-4.5835-0.9254-4.3279-0.22079 1.962 0.25475 4.2614 0.11527 5.8631 1.3929-0.8662 0.67149-3.8161-0.68917-3.6126 0.0831 1.4743 0.58381 3.5132-0.0593 4.705 0.65976-0.10322-0.3861-0.32497-0.72138-0.53087-1.0573zm2.6828-3.555c0.25042-1.0339 3.9042 0.48062 2.0306-0.50487-2.2341-0.43328 3.0751-0.78878 0.33135-0.98152-1.2927 0.46546-1.4354-0.34281-2.4584 1.075-0.71691 0.43834-0.90117 1.698 0.0965 0.41143zm-1.6735-3.9444c-0.61741-0.16256-3.0729-2.2162-1.5481-0.58532-0.95136 0.33761-3.3557-1.0773-1.2645 0.30756 0.72062 0.0956 2.5084 0.79539 2.8126 0.27776zm1.0718-1.4467c1.0127-1.316-0.50967-1.3767-0.40172-2e-3 -0.59014 1.2235 0.16001 0.89739 0.40219 2e-3zm-1.5775 45.005c0.0971-1.5121-2.2672 1.0851-1.2357-0.46882 0.8294-1.643 2.7682 1.8499 1.2357 0.46882zm-3.0662-0.96018c-0.67439-0.81381 2.0801 0.40376 0.39388 0.18949zm-6.35-9.0114c-1.0522-0.10403-2.3611-2.7048-0.39688-2.5582-1.9354 0.29824-1.1044-2.4091-0.26973-3.2704 1.9559-1.9637 4.4276 0.33505 5.711 1.9208-0.26221 0.70086-1.8046-0.0286-0.48275 1.0114 0.8941 0.96706-2.2851-8e-3 -2.9061-0.0681-1.176-0.72448-1.6139 0.19683-0.24978 0.50337 0.85503 0.0483 4.7567 0.3087 2.2014 0.88126-0.96351 0.62121-2.4935-1.2944-1.6649 0.24716-0.84684-0.21993-3.1975-0.71382-1.2282 0.28525 0.67401 0.85857-3.0491-1.8735-1.12 0.14364 0.38141 0.15791 2.7731 1.7013 0.4058 0.90381zm8.7312-0.28094c-1.3298-0.71671-3.5151-4.0398-0.64643-2.1313 0.34498 0.35085 2.5062 3.0504 0.64643 2.1313zm-6.9622-13.751c-0.44318-1.6726 1.2649 0.45737 0.0935 0.31427z" fill="#6cb6b0"/><path d="m141.46 207.77c-1.3855-0.5768-0.15118-3.7935-2.4586-2.416-2.0305 1.234-3.7807-0.19464-5.3013-1.3634-1.8759-0.37205-4.3223 1.0635-5.655-0.8977-1.7059-1.5682-0.88848-3.8662 0.32084-5.4491 1.1764-2.0373 4.3313-2.2325 5.6862-0.26223 0.787 1.3924-1.2333 1.2869-1.0486 1.8195-1.1208-0.34425-1.8766-3.0273-2.7296-2.0527-0.33702 1.3851 2.1276 0.83143 1.8493 2.5238-1.0782-0.0525-2.1722-0.1439-1.8624-0.96858-0.84898 0.40628-2.7234 1.5079-0.58733 1.3973 0.80893 0.0394 2.8462-0.21867 1.0933 0.57729-0.69124 1.1627-1.6878 0.63817-2.4417 0.5096 0.24706 1.7598 3.7882-0.25656 2.346 1.1932 0.86387-0.21269 3.1384-1.2208 3.3144-0.48118-1.4058 1.5181 1.7264 0.89886 2.4786 0.50797 0.86574 0.32997 1.8168 1.0236 3.0052 1.5977-0.3522-0.98688-2.7853-2.2157-0.96435-2.8552-0.51392 1.2864 1.8284-0.24858 1.8884 1.2575 0.76396-1.1635-0.3308-2.7549-0.31546-4.3255-0.28755-0.70119 0.14384-2.1665-0.48398-2.4815-2.0247 0.24794-4.5793-0.99391-4.457-3.3087-0.026-1.7357-2.0968 0.0244-3.5141-0.73451-2.3426 0.39008-0.44668-3.2926 0.57677-1.353 0.66871 1.5637 0.69094 0.82823 0.36735-0.27645 1.3913-1.4484 1.2955 0.48615 1.6258 1.2965-0.15624-0.95839 0.17611-1.4892 0.65983-0.50023 0.66877 0.44943 2.5404 0.0119 1.033-0.56358-1.8316-1.0071 1.8272-0.72511 1.4274 0.77887 0.64642 0.31093 0.76417 1.9454-0.0905 0.61279-1.2262-1.1824 0.20237 0.85715-0.90838 0.64892 1.005 0.39857 1.6411 1.5355 2.4305 0.78992-0.33096 1.2393 2.3425 1.2704 0.73035 0.0973-0.53298-0.97065-7e-3 -2.6318 0.58779-2.9996-0.55779 1.3102 1.8703-0.39601 1.0388 0.93767 0.41619 1.8511 0.42057 4.0652 0.38495 6.0545-0.77146 1.0748 1.139 2.4179 0.44315 0.82007-0.0462-1.1692 1.9167-5.0255 1.8766-1.9208 0.14827 1.0204-0.13944 2.9488 0.79398 3.3847-0.26269-1.3308-1.1844-4.9663 1.3062-3.2188-0.63831-0.9501-1.3528-0.99802-1.6701-1.8656 2.544-0.24105 1.1169-3.6289 2.4543-5.0656 1.6868-2.7138 3.3615 0.80529 4.3541 2.1831 1.5076 1.307 3.796 3.2639 2.0274 5.3324-0.78433 2.6338-3.9792 2.5117-5.4427 4.0659-0.47609 2.7374-3.43 3.0817-5.5346 2.8053-0.40924 0.99819 1.5658 4.6402-0.63486 4.1682zm-9.2604-5.0668c0.4801-0.3427 1.7242-0.92682 0.29885-0.6357-0.62962-0.16144-0.99953 1.451-0.29885 0.6357zm11.698-2.0152c0.56865-0.56797 3.9244-1.2434 1.4602-1.129 0.88029-1.6488 2.2047-3.6547 4.3929-3.0278 0.99024 0.13451 2.9488-1.4815 0.89913-0.58215-0.49378 0.33861-3.2169 0.61001-2.6265-0.34236 1.2559-1.3876 0.10748-3.0972 0.0362-4.6975-0.7518-1.7407-0.0887 2.1242 0.0941 2.694 0.0437 1.81-1.4829 3.2075-2.4191 4.6372-0.67229 1.3204-2.789 2.354-3.3443 3.0958 0.55163-0.0598 1.048-0.35541 1.5073-0.64827zm-7.7298-7.2916c-0.65042-1.6948-0.61231 2.021 0 0zm-1.5875 8.7752c0.37148-0.82998 2.0971-0.5777 0.54852 0.10639-0.11635 0.11371-0.59261 0.22776-0.54852-0.10639zm-5.2917-11.405c1.3818-1.1165 1.0696 0.97203 0 0zm14.378-0.72696c0.24213-0.99897 0.49967-1.2475-0.76759-0.94673-0.0295-0.74913-1.0397-0.74094 0.0702-1.7772 0.58918-0.0809 3.6284-0.87924 1.6776-0.74699-1.6712 0.78-1.5862-0.53467-0.45761-1.3444 0.59451-1.7219-1.9348 1.9367-1.1118-0.63449 0.2679-0.80705 0.91708-3.6806-0.0647-1.4883-0.1536 1.8576-0.88423 3.4655-1.0948 5.1797 0.0666 1.2753-3.7191 1.1118-1.4129 0.47215 1.1561-1.6364-1.4227 0.65588-1.2114-1.2279-0.32988-1.684 0.67649-4.853-2.0668-4.0223-2.045 0.14308-3.5365-1.5249-4.5474-2.6431-1.5266 0.3316-3.4023 0.21176-3.3048-1.6934-0.7984-1.3429 0.35299-0.4567 0.69186 0.22287 0.69581-0.63219 0.30136-2.3 1.6656-1.2219 1.5763 0.51278 0.42336-0.75034 1.9806-0.0564 0.72643 0.562-4.438 0.88092-1.5142 1.159 1.709-0.85026 3.42-0.76103 4.6913 0.96292 0.81952 0.71399 1.3389 1.3454-0.0958 0.96433-0.8708-0.15695-3.0338-0.17865-0.87948 0.23723 1.0778-0.0589 2.3183 0.0238 2.8779 0.83314-0.28923-1.1566-0.93407-3.2561-1.9464-3.5264 0.78005 0.88963 1.266 2.234-0.1331 0.84239-1.2137-0.64839-2.3985-2.8296-3.2735-2.904 0.79437 0.89223 1.3426 1.4359-0.16246 0.87818-1.6681 0.0341-2.1878-3.4922-0.0349-2.0658 1.8733 0.85959 4.2046 1.4477 5.0105 3.5829 1.4553 2.306 0.22235-1.9235 0.56131-2.8475-0.15898-0.46191 0.34852-2.1226-0.31111-1.684-1.5633 0.94744-3.9373 1.5878-5.2718-0.0755-1.2916-0.91948-1.6798-2.5684-0.12535-3.4398-0.97985-2.6796 2.7187-3.6257 4.2849-1.8434 0.52611 0.24043 1.8267 2.1123 1.3811 0.61727 0.31552-2.1509-0.85299-2.7702-2.7584-2.7304-1.3997-0.39798-1.2988-1.3201-2.6878-0.87084-1.9509 0.0538-4.4936-2.5422-2.3794-4.0934 1.9566-0.35829 4.0863-0.48138 6.1429-0.91103 1.0616-0.19457 2.6638 0.98495 1.538-0.69149 0.2558-1.7283-0.48556-2.761-2.3092-2.7335-1.7407 0.0607-2.8585-3.4266-0.58758-2.7456 1.8633 0.46236 3.5279-0.69323 4.9258-1.7653 2.6914 1.4868-0.40934 3.8179-0.25259 5.7892-0.0713 1.1919 1.492-1.0599 2.2996-0.68286 1.9507-1.0901 4.8244 1.7852 2.2945 2.9495-1.2137 1.2326-3.0184 1.0276-4.5963 1.2121 0.11531 1.1043-0.0178 2.3808-0.91746 2.5379 2.1393-0.0468-0.89686 1.6156-1.0382-0.17274-0.53158-0.71426-2.312-2.9128-2.5212-2.3881 0.1087 0.44707 2.1092 1.9151 1.3506 1.7008-1.8057-0.69989-3.7786-0.99976-5.7083-0.89725 1.2013 0.72867 4.204 0.40131 5.9111 1.4489 0.78223 1.2427 1.9564 2.7421 2.5161 3.8166 0.91122 0.91841 0.62033 3.29 0.92712 4.9175 0.46544 0.14045 1.1863-1.9606 2.5733-1.5093 1.909 0.58238 2.3267 3.1315 3.6599 4.4223-0.30385 1.6932-2.3673 2.4434-3.3302 1.9084-0.50758 1.8081-3.8312-0.83993-2.7467 1.9578-0.0351 1.1554 0.0402 2.722 1.2197 1.1446 2.1242-1.7284 3.7184 0.85412 3.5606 2.8259 2.8211 1.205 1.1612 4.1573-0.66425 5.4805-0.46124 0.35391-1.5289 1.8848-1.5269 0.31738zm-1.4791-13.135c-1.7294-1.7242 3.4211 1.1287 2.2453-0.43281-0.76687-0.0649-3.2062-0.7242-1.2183-1.0716 1.0238-0.0332 1.9264-0.73922 0.35598-0.91981-0.65975 0.5994-2.2526 0.85324-0.89339-0.14012 1.5425-0.10109 0.30468-2.7641-0.44488-0.63171-0.49165 0.1368-1.0173 1.45-1.333 0.24831-1.2886-0.31387-0.24353 2.2558 0.14418 0.99238 0.49826 0.33372-0.0208 2.6021 1.3934 2.2037l-0.24927-0.24824zm-3.1089-3.5824c-0.77854-0.61287-1.6489-2.0291-2.2645-2.2714 1.2866 1.5596-3.357-0.16206-1.8551 0.83715 1.0055-0.11874 2.8104 0.56247 0.77267 0.72259-1.022-0.10354-2.8777 0.0374-0.79988 0.37496 1.5128 9.1e-4 2.9614-0.75181 4.0841 0.52882l0.063-0.1921zm-1.632-7.9917c-0.89435-0.11271-3.3701-0.76774-3.7311-0.47505 1.0972 0.64341 2.5043 0.77476 3.7311 0.47505zm3.5045-4.2176c0.3702-0.92234 3.7998 0.46856 1.9483-0.50871-1.8762-0.43585 2.6604-0.6582 0.60289-1.0111-1.4802-0.40097-2.8065 0.70949-3.2331 2.0694 0.26628-0.13062 0.46973-0.3498 0.68191-0.54962zm-1.7402-3.9483c-0.61741-0.16256-3.0729-2.2162-1.5481-0.58532-0.72215 0.45817-3.3836-1.1229-1.5721 0.15574 0.77565 0.23753 2.6693 0.98866 3.1202 0.42958zm1.2951-1.9182c-0.0687-2.3572-1.6028 1.7513-0.34693 0.87468 0.15756-0.27257 0.27199-0.5692 0.34693-0.87468zm-3.8163 33.918c-0.97254-0.4003 0.7811-1.1784-0.76141-0.80275 0.82773-1.6372 3.4234 2.2337 1.0765 1.0162l-0.31508-0.21361zm-5.9284-0.0442c-0.78036-0.62507-2.6955 0.30484-2.877-0.49194 1.6529-0.61907 3.471 0.25545 4.6782-0.18393 3.1444 0.51452-1.2062 0.95771-1.8012 0.67587zm1.8349-1.0251c-0.83422 0.14966-3.5612-1.3855-2.7726-0.0397-2.7142 1.0958-2.5262-2.289-0.87698-3.3492 1.8743-1.5156 4.1509 0.46317 5.0236 2.164-0.75753 0.21058-0.90331 1.0394 0.21355 1.2508 0.4001 0.55609-1.3662-0.14615-1.5875-0.0259zm-1.5107-11.435c0.27508-2.1756 0.94429 1.739 0 0zm11.697-7.4568c-0.59565-0.46385-1.1277-1.3192 0.11339-0.51027 0.47147 0.75849 0.74911-0.99347 0.73751-0.904-0.86871-0.98329 2.0836-1.36 0.12869-1.9244-1.2725 1.2577-1.0252-0.26274-1.9096-0.72521 1.8326-0.73069 5.0843 0.8172 3.4489 3.0554-0.47247 0.1964-2.3284 2.0881-2.5189 1.0086zm-2.9104-3.0427c0.75071-0.53306 2.5235-1.1813 0.79222 0.12588-0.18418 0.12377-0.78586 0.26643-0.79222-0.12588z" fill="#56aaa4"/><path d="m141.39 207.78c-1.2032-0.74348-0.19586-3.8475-2.4551-2.4187-2.1838 1.3019-3.7972-0.68422-5.5836-1.4164-1.8381-0.16599-4.3716 0.82438-5.5419-1.1111-1.4682-2.1726 0.0202-5.0297 1.8338-6.4822 2.2026-0.24322-1.0892 0.67021-0.73151 1.6955-0.85249 0.54304-0.46257 2.0538-1.1478 2.9616 0.0437 1.6306 2.8101 0.71383 3.7351 1.5804-0.32998 0.60292-1.9505 0.13856-1.2283 1.1794 1.4588-0.0396 3.0355-2.9203 3.8008-0.41469 0.70202 0.73411 1.6507-0.91675 1.9675 0.31588-1.5196-0.79877-1.0462 1.7838-0.55668 0.81952 0.24052-0.60447 1.9524 0.37204 1.5057-0.81468 1.0992-0.71906 3.36 1.6514 2.2593-0.63528 0.89834-0.19831 1.2108-0.93265 1.6074-1.3811 1.5214 1.2775-1.0981-1.9408-0.72171-2.8063-0.11241-1.0456-0.0322-2.492-0.4586-3.3254-1.3005 0.0362-3.3241-0.0243-3.6366-1.5321 0.40281-2.6683 2.2893-0.17151 3.7476-0.0173 1.0613-0.0227 0.82657 0.84672 0.75536 1.6036-0.10734 1.0691 4e-3 1.8311 0.71451 1.491 0.28345 0.64953-0.93216 1.3409 0.54791 1.7033 0.37005 1.5905 1.4224-0.49241 0.22596-0.50485-0.64477-1.852 2.1346-4.2335 1.8126-1.2393-0.1649 1.0336 0.9192 3.7882 0.59755 1.2069 0.0228-0.67156-0.74599-2.0089 0.47398-1.6532 1.9099 0.0522-0.22875-1.3257 1.2865-1.7858-1.5625 0.93966-1.7488-1.1012-0.0958-1.3474-1.0413 0.95098-0.14155 1.4574 0.26399 0.21888-0.80322-1.7577-0.39817-5.3976 1.9895-5.3831 1.9212 0.84471 2.1152 3.4438 4.0663 4.3698 1.9443 1.4885 1.041 4.0832-0.42015 5.5223-1.23 1.875-4.3609 1.0624-4.8214 3.5317-0.84688 2.216-3.366 2.1094-5.1751 1.7041-1.1471 0.58866-1.8305 1.2178-0.45176 1.5532 1.1844 0.0604 1.4531 3.6644-0.16533 2.8119zm2.721-7.2326c0.82047-0.45706 3.4408-1.2303 1.1793-0.88166 0.36546-0.7384 1.5357-2.2417 2.3018-3.119 1.3659-7e-5 3.4332 0.36032 4.3178-0.92569-1.0896 0.20761-3.5521 1.1811-3.9778 0.10044 0.45063-0.82654 1.4805-1.7744 1.4094-2.6014-1.6453 1.2346-0.36163-1.5939-0.69726-2.0312-0.87607 0.49306-0.60411-2.0995-0.95401-0.37479 0.0469 2.0032 1.1202 4.0497-0.68499 5.6565-1.2929 1.943-2.7453 3.9521-4.9591 4.8851 0.12105 0.65698 1.681-0.51965 2.0648-0.70824zm-13.768 0.047c-0.81308-0.0371-1.6208-0.42589-0.14053-0.49175 0.72598-0.17577 0.69112 0.92929 0.14053 0.49175zm1.027-1.2972c0.24547-0.90404-3.1925-0.66893-0.92393-1.0442 0.92677-0.57874 2.0897 1.711 0.92393 1.0442zm0.95022-0.6069c-0.0183-0.87179 1.213-1.2512 1.4424-1.6564 1.4079 1.1564-0.70278 1.3302-1.2448 1.8691zm-3.1166-0.95136c-0.10099-1.4718 1.8801 0.73992 0 0zm2.7268-0.35997c0.73104-0.0452 0.84669-1.9544 0.96742-0.37809-0.0666 0.25953-0.88541 1.0336-0.96742 0.37809zm8.7312-0.80205c0.62597-0.54834 0.92414-1.8161 0.67108-0.20332-0.0326 0.24783-0.58105 0.54684-0.67108 0.20332zm3.4892-0.5374c1.0993-1.5351 0.57339 0.86365 0 0zm-2.96-2.0707c-0.8012 0.18679-2.6297-1.3908-1.1069-1.2854 0.20354 0.57206 2.0289 1.2889 1.1069 1.2854zm-0.26458-1.4563c-0.45392-0.47715-2.147-1.4662-0.52325-1.6734 0.21426 0.58647 0.19501 0.81961 0.713 0.44618 0.11666 0.13969 0.0528 2.4482-0.18975 1.2272zm-9.4723-0.96457c-2.2188 0.0608-0.1143-3.4117 0.85803-0.99928 0.6058 0.86575 0.0861 1.3561-0.85803 0.99928zm1.091-1.2071c0.88654-2.942 2.5882 1.6195 0 0zm11.192-0.18013c-0.35904-1.0304 0.78067-1.306-0.83102-1.0899 0.20695-0.62849-1.1307-0.96473 0.0366-1.3735 0.46873-0.6481 2.5261-0.63301 2.5629-1.4229-0.88969 0.31279-3.2647 0.9811-1.6797-0.61597 1.3137-1.2514-0.27543-1.0389-0.72072 0.0328-0.47886-1.0117 1.1271-3.2795 0.3339-3.5344-1.1359 1.2598-0.29996 3.5998-1.2357 4.5519-1.2243-1.0686-0.0659 0.66731-1.2293 0.28772 1.1416 0.16789 0.95693 2.1515-0.17465 1.4056 0.60528-2.0856-1.8 1.2734-1.4551-0.89704-0.82846-1.2244 1.7015-2.9625-0.0704-2.9359 0.18854-2.447-2.6379-0.43056-4.0698-1.4956-1.7504-0.35462-1.6312-2.9751-3.7441-2.1196-1.4873 0.37643-2.607-0.76705-0.99463-1.7208 0.19153-1.2861 2.9809-0.58278 0.82731-0.29119 0.68277 1.422 3.7331-1.5742 4.8189 0.61305 0.87487 0.57106 2.0817 2.187 0.0668 1.5433-0.75986-0.34913-2.5289-0.0807-0.74999 0.3283 1.2291-0.14555 2.621 0.35347 3.4771 0.76336-0.53004-1.2524-0.95388-3.1708-2.1832-3.7394-9e-3 0.4767 1.8571 2.8605 0.60345 1.6441-1.1718-1.0566-2.4753-2.0132-3.3243-3.3517-1.9569-1.4526 1.6101 1.9848-0.63425 0.82883-1.6727-0.0463-2.3786-3.4803 0.0144-2.0178 1.6854 0.89753 3.9526 1.2541 4.6721 3.2967 0.85214 1.9029 1.2013 0.38017 0.83413-0.78743-0.0992-1.2366-0.0707-2.4775-0.0779-3.7167-1.6558 0.97446-4.0789 1.8269-5.5554 0.10279-1.4683-0.8979-1.6452-2.6758 0.0944-3.3501-1.5449-2.7649 2.4058-3.5887 3.9924-1.9328 0.68241 0.71401 1.9206 1.7317 1.4153-0.0731 0.52347-2.9646-3.2789-1.1389-4.2114-3.0569-1.2883 0.27762-0.69211-1.6469 0.41835-0.63985 1.7179 0.18162 3.5555-0.44757 3.9146 1.8648 0.40781 2.0153 2.4114 2.9038 1.7588 5.233-0.73788 1.6346-1.014 3.8786 1.2134 4.5773-0.33563 0.79763 1.0551 2.8357-0.58365 1.4906-0.97676 0.0684 0.0846 2.9284-0.12894 4 1.1484-2.224 4.6697-2.1051 4.5514 0.76661-0.0352 1.6223 3.2052 2.4298 1.2978 4.3404-0.81226 1.2266-1.9008 2.2299-3.0926 3.0783-0.0525-0.1956-0.10493-0.39121-0.15739-0.58681zm0.66293-1.9606c0.39743-0.48998-1.4141-0.61937-0.42317 0.41682l0.1607-0.10917 0.26247-0.30767zm-2.314-3.138c0.16921-0.88431-2.7682-1.0192-0.76101-0.25616 0.38439 0.27299 0.24129 1.1309 0.76103 0.25616zm-3.0114-11.752c-0.87313-0.81464-1.5639-1.8056-2.3538-2.6233 1.3342 1.8712-3.8046 0.0234-1.827 1.2705 0.76972-0.18066 2.9244 0.55035 0.94277 0.54243-0.98037-0.24885-3.1599 0.51611-0.88366 0.48926 1.4969-0.0887 2.9145-0.63162 4.0593 0.52108zm-2.1504 15.95c-0.5167-0.34903 0.71914-0.43079 0.85737-0.42325 0.55118 0.71643-0.49928 1.2398-0.85737 0.42325zm-4.9933-0.50793c0.3473-0.92498 2.5364 0.50847 0.6245 0.42532-0.21453-0.0274-0.61609-0.12755-0.6245-0.42532zm0.39688-0.75384c-1.2179-0.0546-2.6118-1.1185-3.2252 0.0898-2.6476 0.0937-0.94162-3.6672 0.79844-3.8615 1.572-0.5762 4.3279 1.8735 3.7323 2.8886-1.3393 0.45347 2.0074 1.5923-0.25786 1.0712-0.34908-0.0636-0.69833-0.12615-1.0477-0.18808zm12.16-9.6865c-0.0618-1.5373 1.4002 1.0402 0 0zm-1.5263-0.36229c-0.89587-1.0912 1.1555 0.3302 0.28995-1.0493 1.2988 0.72603 2.1964-0.63037 0.68915-0.58933 0.70509-0.64634 0.49043-0.44461 0.0245-1.1427 1.6793-0.22449-1.784-1.7214-0.46385-2.3127-1.1263-0.59063-1.0799-0.17023-1.5236 0.49115-1.571-0.1709 2.1026-2.4635 2.7776-0.55568 0.4563 1.2984 1.3222 2.3587 2.3988 3.2272 0.25562 0.68295-0.95956 1.849-1.5324 2.2992-0.73308-2.1689-1.7192 0.64434-2.6603-0.36785zm3.153-0.56779c-0.43624-1.6569-1.4303 0.44023 0.0377 0.32717zm-2.661-8.6027c0.45515-0.82635-0.41746-2.1156 1.064-2.2018-0.16213-0.59691-1.7187-1.93-0.24357-1.3125 2.586 0.73387 1.1115 3.803-0.92159 4.1828-0.44274 0.23656 0.14848-0.68575 0.10115-0.66843zm-11.711-3.0778c-2.6255-0.91151-1.4031-5.0794 1.2831-3.7508 1.8055-0.22278 3.9118-1.0922 5.3736-0.32065-0.76329 0.30967-1.3392 1.0345-9e-3 0.78326 1.323-0.96488-0.66824 1.1527-1.1449 0.7553-0.53741-0.64037-2.1838-1.489-0.87024-0.11619 0.25762 0.37773 1.8979 1.6771 0.68159 1.0465-1.8343-0.70704-3.9122-0.90941-5.849-0.75886 1.7217 0.67624 3.8777 0.3362 5.6357 1.2049 1.4846 1.0244-2.1951 0.45021-2.7014 0.051-1.0966-0.58828-0.53217 2.5335-2.0577 1.2714l-0.34168-0.1658zm8.391-2.3517c-0.21505-0.67904-2.026 0.0635-0.56248-0.8093 1.0636-0.56192 0.87096 2.1397 0.56248 0.8093zm0.46302-1.1968c0.0874-2.1828 2.1864-0.81199 3.2411-1.2855-0.75802-0.2562-2.3112-0.57665-0.51355-0.79375 2.3747-0.74263-2.0298-4e-3 -0.8331-0.73886-1.154-0.19622-1.9653 2.3062-2.4464 1.0825-0.55757 0.0322-1.017-0.79931-1.0227 0.42809-0.52385-1.5101-0.45439-3.1751-2.6099-3.0854-1.915 0.0704-2.9508-3.5695-0.44671-2.5832 1.6072-0.2776 3.1488 0.15184 3.9588-1.448 2.3546-1.2757 2.1743 3.045 0.62244 3.8831-0.13103 0.65683-0.52672 2.7013 0.54767 1.4729 1.3326-1.0618 4.7252-1.3832 4.8156 0.93616-0.12497 1.2471-2.2417 2.5732-2.9205 1.7451 0.0897 0.71987-2.6471 0.92718-2.3928 0.38678zm-1.2568-4.99c-1.1059-0.50867-2.5932-1.8068-2.2562-0.53321-0.72543-0.18342-2.5482-1.0983-1.125 0.10984 0.88353 0.30721 2.6572 0.93849 3.3813 0.42337zm1.0324-1.3624c1.0702-1.4975-0.90156-1.8427-0.6476-0.20997-0.0642 0.89495 0.26243 1.555 0.6476 0.20997z" fill="#2e978e"/><path d="m140.92 207.15c-0.66602-1.1017-0.22191-3.2511 1.1897-1.7393 0.53818 0.99207 0.29049 3.2044-1.1897 1.7393zm-5.2157-1.6276c-1.4817-1.1105 0.98379-0.50143 1.5522-0.20625 1.1206 0.38336 0.60158-2.7041 1.78-1.0365 2.5604 0.87603-1.6471 1.4936-2.5277 1.5098-0.28357-0.0324-0.55016-0.14419-0.80451-0.26711zm-4.2825-2.0901c0.7826-0.57779 2.5198-1.939 2.4867 0.23127-0.37062 0.15613-2.9872 0.73297-2.4867-0.23127zm11.631 0.0259c-0.94145 0.31788-3.6323-0.72702-1.4956-1.1121-0.80506-1.6991-1.6962-3.8867-1.6413-6.1032-0.73534-1.2863-5.1558-0.6537-3.3506-3.2947 1.1364-0.81944 2.0561 1.444 3.5341 1.1589 0.43601 1.7666 0.3034 3.9583 1.8538 5.1133-0.22481 1.1564-0.30362 1.8922 0.50481 0.5147 0.82409-1.1467-1.4657-3.5515 0.85515-3.8564 0.57393 1.376 1.7554 4.4141-0.59817 4.9145-1.9123 1.4812 1.5734 0.0463 2.0726-0.57176 0.70224-0.045 2.5915-0.92555 0.83754-0.82966 0.78544-1.6036 1.915-3.5621 3.9936-2.7168 1.2274 0.2545 3.755-2.0258 1.154-0.84957-0.58593 0.54116-3.2564 0.61453-2.6988-0.30692 0.4212-0.59866 2.2026-3.1314 0.90377-2.2561-0.65447 0.85591-0.92083-1.527 0.12669-0.92854 0.16957-1.0274-0.42497-1.4774-1.0155-1.3383-0.21887-2.1335-0.65641 0.14152-0.622 1.0431-2.4608 0.0443-1.152-3.4208 0.56237-3.7651 2.1753 0.48642 2.1905 3.4084 4.2016 4.2553 2.1831 1.5922 1.1231 4.7196-0.78218 6.0666-1.5784 1.3654-4.2491 1.0226-4.5488 3.5909-0.80922 1.3439-2.4015 1.8038-3.8472 1.2718zm1.4859-4.8122c-0.65844-1.5014 0.23789-2.1253 1.4539-2.4329 0.86605-1.1566 0.76795-2.0291 0.32329-3.3038 2.7993-0.7986 1.6726 2.6907 0.42106 3.8128-0.37601 0.30934-1.8542 3.3766-2.1982 1.924zm-15.399-1.9072c1.247-1.008 1.5879 0.40362-0.0289 0.26458l-0.32809 0.0641 0.35699-0.32871zm1.5497-5.4661c-0.55696-0.63436 0.31561-2.477 1.3806-1.1204 0.94001 1.2096 0.4179 1.5931-1.0719 1.2082l-0.30875-0.088zm1.9338-0.92717c-0.67268-1.2464 2.5137-0.89619 0.86447 0.26261-0.27166 0.27612-0.78541 0.11306-0.86447-0.26261zm11.112-0.26459c-0.59188-1.1934 1.1194-0.49826 0.92388-1.883-0.0424-0.63716-2.3353-0.76307-0.23579-1.0186 1.1879-0.55653 1.6771 2.2076 1.3273 0.0452-0.61309-1.5704-0.01-3.829 1.4964-1.6297 0.65139 1.9742-1.7926 4.2526-3.3223 4.7817zm-11.802-1.169c0.60673-0.75508 2.347 0.16432 0.64585 0.26459-0.14411-0.0547-0.59171 3e-3 -0.64585-0.26459zm11.123-0.28467c0.75627-0.65719-1.498-0.44055-0.032-0.8548 1.7944 0.11271-0.60303 2.1786 0.032 0.8548zm-2.0337-0.37159c0.43655-1.7691 1.6359 0.60062-0.0251 0.32745l-0.0307-0.12132zm-13.057-0.40145c-0.87485-2.1073 1.9461-4.7416 3.964-3.0864 0.8662 0.62507 2.6207 1.7804 1.2031 2.5276-0.0291 2.058-3.2801-0.86823-4.3057 0.61362l-0.48303 0.0418-0.37827-0.0964zm11.42-0.91511c-0.40985-2.1122 1.705-1.9959 2.66-1.6722 0.90784-0.62173 0.68184 2.5301-0.19639 1.028-0.63839 0.01-2.4899 3.4704-2.4636 0.6442zm3.9168-0.65827c2.144-2.642-0.57831 1.8601 0 0zm-3.9609-1.9991c0.63292-1.2551 0.56157 1.2163 0 0zm2.5428-0.24537c1.5042-1.3918 0.27015 1.2204 0-4e-5zm1.875-0.3366c-1.1735-0.73249 1.7963-1.217 1.1709-0.0795-1.5156-1.615 0.0717 0.72513-1.1709 0.0795zm-2.9719-0.35928c-1.5402-0.97966-3.4782 0.51625-5.343-0.25862-2.0874-0.11556-1.4676-3.3962-3.8971-2.2605-1.4182 0.69318-2.6079-1.516-0.62407-1.2821 0.71826 0.13448 1.5983 1.7222 2.0684 0.1123 0.63941-2.5508 5.1972 0.73171 3.9784 1.4773-0.84281-0.23953-3.7246-0.44011-1.4167 0.34378 1.2078-0.0262 3.5787-0.0602 2.6652 1.6185 1.6997-0.92793-0.46824-3.1768-0.90815-4.455-1.457-1.0933 1.1016 2.2894-0.52771 0.75985-1.562-0.56463-2.2102-2.8823-3.4107-3.1349 0.052 0.8744 1.6955 2.0047-0.25139 1.1876-1.7809-0.34383-1.4938-3.3822 0.52258-1.7301 1.9469 0.81065 4.103 1.5333 4.7422 3.795 1.2164 1.3476 0.43641-2.2178 0.61078-2.9736 0.63395-2.3711 0.1066 1.0475 0.74044 1.6294-0.9942 1.8716 2.0182 1.5293 1.1433 3.3074-0.50902 1.3339 0.68082 2.1339 0.79661 0.5282 0.94721-1.6658 4.0884-1.1058 3.8682 0.77374-1.2224-0.15439-2.4774-1.1178-2.9346 0.17419 0.0976 0.25871-1.1895 0.0474-1.7105 0.49107l-0.11211-0.10342zm5.8582-6.749c0.34631-0.54909-1.7439-1.8791-0.0941-1.0696 1.0014 0.26632-0.0833 2.6584 0.0941 1.0696zm-1.4065-0.37959c-0.89099-0.65351-0.61458-0.88701-0.21685-1.7771-1.1337-0.1639-1.5496-1.1918-0.69848-1.7731-0.97929 0.0269-2.0997-0.64507-0.48114-0.53356 1.7281 0.69909 1.5156 3.8695 1.9754 4.6129-0.287-0.0126-0.50701-0.2686-0.57893-0.52917zm-11.674-1.4583c-1.589-0.9216-1.9004-3.0751-0.15034-3.7521-1.3269-2.455 2.1724-3.5346 3.6873-1.9415 0.56993 0.0563 1.8629 2.3948 1.7119 0.98515-0.0892-0.95504 0.14113-2.7336 0.53212-0.85039 1.2947 1.0941 1.3681 3.0213 0.41228 4.0989 1.2584-0.2182-0.35787 1.21-0.48484 1.7435-0.64549-1.5447-3.0017 0.97052-4.5521 0.33527-0.44825-0.0513-0.824-0.33673-1.1562-0.61882zm5.6628-1.4523c-0.16865-0.78925-1.2391-0.72974-0.48318-1.4784-1.3295 0.98948-1.8499-2.4882-2.1755-0.21326-1.3002 0.34499-1.6255-2.474-2.1861-0.74369 0.89544 0.43833-0.91758 1.2275 0.78309 1.1576 0.97546-1e-3 2.5462 0.51164 0.57422 0.48157-1.2096-0.24451-2.8052 0.54805-0.70084 0.52589 1.5763-0.0335 2.934-0.88736 4.0032 0.75916 0.23992 0.0458 0.14973-0.46687 0.18518-0.48895zm4.2696-4.4316c0.79282-0.8601-0.0187-1.9408 1.0656-2.4938 0.20689-2.6752 2.2965 2.7372-0.65851 2.7297-0.23893 0.39528-0.77278 0.16067-0.40708-0.23592zm-7.6338-1.9518c-2.2363-1.7979 3.8596-1.7099 2.3742 0.26217-0.79494 0.0465-1.6116-0.0271-2.3742-0.26217zm-3.7984-1.069c-2.4618-0.69939-2.1873-4.8278 0.75028-3.9073 1.5995 0.45073 4.7561-2.1161 4.5497 0.71519 0.39847 1.5194-0.92746-0.726-1.5484-0.68332 0.0557 0.94739 1.2031 1.6304 1.8047 2.3925-1.8802-1.074-4.1779-1.1722-6.2864-1.0297-0.29994 0.99405 3.3801-0.35575 2.0807 1.5702-0.0136 0.682-0.63004 1.7158-1.3506 0.94241zm2.7795-0.98598c-2.8977-1.8153 4.4121-0.0962 1.7052 0.21001-0.57211-0.0232-1.1477-0.0737-1.7052-0.21001zm7.0101-2.7714c-1.8313-1.1568 0.41898-1.5955 1.4653-0.97074 1.748-0.37734-2.3322-0.80647-0.0101-1.0485 1.9589-0.50037-0.73928-0.27264-0.85385-0.75419-0.40555-1.0096-1.4838 2.3722-2.3507 0.75324-2.226 0.37279-0.86672-2.8729-3.2008-2.2277-2.2748 0.13893-3.7005-3.3838-0.56744-2.7284 1.7569 0.39431 2.7974-0.57679 4.0031-1.4874 2.8085 0.19766 0.56665 3.2895-5e-3 4.6944-0.10309 0.72265-0.5518 2.0568 0.47388 1.0122 1.3708-0.96617 3.6669-1.6812 4.9391-0.22036 0.80961 1.7061-1.793 3.3228-2.8504 2.393-0.18286 0.54196-0.28375 1.1185-1.0426 0.58431zm-2.5135-4.9297c-1.1608-0.53012-2.4514-1.8222-2.2962-0.55005-0.74345-0.12672-2.3344-1.3717-1.3227 0.17574 1.0571 0.24674 2.6859 0.8778 3.6189 0.37431zm1.0324-1.3624c1.1161-1.4537-1.0217-2.0608-0.65969-0.30432-0.0387 0.82191 0.23556 1.7779 0.65969 0.30432z" fill="#168b81"/><path d="m140.92 207.15c-0.94394-1.356 0.27086-3.386 1.2825-1.3636 0.42327 1.125 0.0626 2.6284-1.2825 1.3636zm-5.4833-1.89c-0.22486-0.95925 2.8188 1.0256 2.8208-0.80465 1.1566-0.0889 1.9292 0.82925 0.40159 0.8926-1.0334 0.0845-2.2944 0.51389-3.2224-0.0879zm-4.0319-1.5113c0.62854-0.87737 2.4297-2.0244 2.4293-0.11274-0.71193-0.0363-1.88 0.44038-2.4293 0.11274zm12.568-0.14453c-2.1707-0.26911-3.0195-2.5799-3.5725-4.3753-0.12691-0.68295-0.42473-3.3499 0.22681-1.3571 1.7806 0.80727 0.69695 2.6868 1.6415 3.6634 1.0901-0.56841 2.8103 1.9442 3.3379 0.71029-0.69976 0.1749 0.0628-1.3875-1.307-0.75475-2.2652-0.96589 4.2356-1.9829 1.2878-2.2442 1.181-1.0429 1.6058-3.4987 3.6666-2.4664 1.165-0.31198 3.1343-0.71743 1.4515 0.88446-0.6894 0.42758-1.6688 1.6703-0.0485 1.0594 1.4416-0.53017 2.0968-2.484 2.697-3.3827-0.34153 2.7884-3.0246 4.16-5.4091 4.7986-0.83865 1.558-1.7575 3.8385-3.972 3.4643zm-0.69085-3.274c-0.33956-1.1934 0.64867-3.3086 0.87374-1.0328 0.24338 0.36345-0.57843 1.4367-0.87374 1.0328zm1.2672-1.646c-0.46957-1.0182 0.43557-0.90129 0.61427-1.8346 0.76622 1.0415 1.5785-1.7964 1.6601-2.4424-1.2939-2.0629 2.5948-1.4571 0.98826 0.42904-0.78438 1.652-1.8918 3.1204-3.0903 4.492-0.0574-0.21466-0.11485-0.42933-0.17228-0.64399zm-4.455-2.6516c-0.70718-1.022-2.7251-0.45808-3.8588-1.3874-0.61476-0.4383 1.0338-3.2391 1.5086-1.1423 1.6928 0.29789 3.3944 0.9455 2.5528 2.9426l-0.0832-3e-3 -0.11948-0.40989zm8.4426 0.10795c-1.0524-1.0211 1.9426-2.7705 0.76325-4.2974 1.1826-0.89492-0.60482-2.1346 0.0718-0.30869-0.89442-0.69115-1.7803-0.83007-0.89392-2.1136-1.2613-0.16692-0.57603 2.9328-2.3467 1.5035 0.0338-0.91498 0.65668-1.9147 1.4134-1.4286-1.5801-1.5458 2.4474-1.3441 2.34 0.40382 0.41637 1.9265 3.5038 2.6676 3.2608 4.5095-0.12334-0.96418-1.2122 0.83572-1.8837 0.0973 1.8712 1.125-2.0373 1.8716-2.725 1.6341zm-17.219-4.7741c-1.5107-0.15573 0.096-2.9872 0.72902-0.82616 0.63951 1.1266 0.47054 1.0787-0.72902 0.82616zm1.4098-1.1472c0.65073-1.9068 1.5982 0.87919 0.11324 0.32259l-0.0828-0.14524zm11.185-0.24879c0.12303-0.95111 1.8342-2.3431 0.0439-2.4294 0.27888-0.87973 2.5746 0.10581 1.0516 1.1207 0.13462 0.51439-0.76263 2.8404-1.0954 1.3087zm1.5148-0.77814c1.2962-0.96177-0.50226-4.4885 1.0226-4.2616 1.913 0.7596-0.13514 4.371-1.0226 4.2616zm-13.361-0.2802c0.72889-0.7308 2.0911 0.21419 0.49794 0.26459 3.6e-4 0.0175-0.63941-0.0136-0.49794-0.26459zm-4.0783-2.196c-0.13064-1.1225 1.3942-2.7748 2.2422-2.0858-1.3171-0.18729-1.9164 1.7198-2.2422 2.0858zm4.9387-0.0961c0.35872-1.2745-3.7155-2.7186-1.1578-1.9111 0.83636 0.26078 2.6662 2.5528 1.1578 1.9111zm1.6531-3.966c-1.2334-0.35763 0.34233-1.1922-1.0343-1.2016-0.88407-1.0394-0.29477-3.1916 1.4262-2.6262 1.7943 0.63494 0.17998 1.6178-0.52173 2.1402 0.36263 0.88417 2.761 0.47595 0.78327 0.89447-1.9464 0.7142 2.6213 0.95975 0.42123 1.1607-0.37083-0.081-0.72862-0.21334-1.0747-0.3676zm10.542-0.47428c-0.53435-1.5332-2.4962-0.65544-2.7366 0.0662-1.3799-1.2786 3.1326-1.9848 3.0685 0.11473 0.36497 0.76336-0.23861 0.22826-0.3319-0.18097zm-9.4835-3.8758c-1.0993 0.091-0.35814-1.9097-0.25048-1.6293 0.97547 0.38217 2.2631 0.5376 2.2894 1.9047-0.67879-1.5136-1.1965 0.36231-2.039-0.27536zm-2.5797-0.85149c-1.4562-0.22944-1.3573-3.068 0.41219-1.7792 0.90366-0.0793 1.8989 1.3939 0.77448 1.4213-0.29973-1.5839-1.6452-0.51401-0.26029 0.33 0.22326 0.48048-0.81532 8e-3 -0.92638 0.028zm0.63891-2.6669c-1.456-0.85865-2.1507-2.896-0.28431-3.5611-0.49449-1.0793 0.2537-3.3039 1.2523-2.5272-0.79788 0.17624-1.6525 1.6696-0.53886 1.0969 0.50856 0.55971-0.14457 1.3371 0.44009 2.1614 2.5177 0.37788-2.1794 0.62271-0.16925 1.0606 0.974-0.10312 1.7174-0.0484 1.3807 1.1197 0.34651 1.7261-1.163 1.4148-2.0807 0.64973zm10.856-0.86044c0.87566-0.50053-1.5718-2.3422 0.0163-1.3355 0.44815 0.45453 0.81588 1.9845-0.0163 1.3355zm-5.6731-4.7245c0.1768-1.8826 0.14723 2.0741 3.5e-4 0zm-2.7126-0.28122c-1.8629-0.94053 1.9923 0.32356 0.70772 0.26118l-0.30196-0.10881-0.40576-0.15215zm7.8723-0.23617c0.7133-0.66458-9e-3 -1.5326 0.74491-2.1763 0.0743-0.35505 0.70959-0.28924 0.0161-0.97711 1.5958 0.99158 0.28986 3.5036-1.0896 3.414l0.32871-0.2606zm-12.276-3.0491c-2.3496-0.97022-1.5173-4.6742 1.1916-3.6711 0.79602 0.12065 3.7592-0.57754 1.5546 0.13135-0.64563 1.616-2.2956 0.57213-3.3698 1.4486 0.49832 0.74046 2.6754-0.45632 2.2 0.83628-0.0476 0.91382-0.4831 1.901-1.5764 1.2549zm12.341-4.098c0.91447-0.77119-1.1682 0.0121-0.0847-0.83208 1.7864-0.33353-1.6384-0.32946 0.0846-0.92854 0.46474 0.0971 1.5723 0.12222 0.17432-0.42699 0.88813-1.4322-1.6345 0.39061-1.5633 0.0197 0.77338-1.5788-2.0292 0.76527-2.7539 0.55109-1.9472 0.0993-0.55765-2.4646-2.5595-2.0585-1.4026 0.32405-4.2763-2.2736-2.0188-2.735 1.0741 0.31048 3.0749 0.13157 3.7413-0.3285 0.75123-1.978 3.6069-0.81923 2.3212 1.1719-0.72016 0.92235-2.1684 3.1893-0.84847 3.6781 1.319-1.2182 4.5858-2.1452 5.1797 0.21502 0.43322 0.71884-2.2515 2.5685-1.6725 1.6739zm-4.4344-2.4669c0.29883-0.1472 0.27754-1.7212-0.58502-1.1205 0.7489-0.72973 1.4182-0.98432 1.5384-2.0626 2.3072-0.58958-0.80389-3.2398-1.1462-0.90314-0.0907 1.0853-2.4684 0.11116-3.4266 0.63882-2.5319-1.0356-0.55036 2.5093 1.0651 1.6833 0.69863 0.51304 2.9096 0.23647 1.7304 1.9556 0.2415-0.0517 0.69995-0.72639 0.82393-0.19153z" fill="#11897f"/></g></g></svg>
