<?xml version="1.0" encoding="UTF-8"?>
<!-- Created with Inkscape (http://www.inkscape.org/) -->
<svg width="26.817mm" height="54.581mm" version="1.1" viewBox="0 0 26.817 54.581" xml:space="preserve" xmlns="http://www.w3.org/2000/svg"><g transform="translate(-109.58 -158.58)"><g transform="translate(53.156 3.8812)" stroke-width=".26458"><path d="m70.221 208.34c-0.12718-1.4466-0.62414-2.2837-2.1523-1.4119-1.6195 0.66456-3.3085 0.0192-4.3928-1.2548-0.53245-0.71853-1.4952-0.15247-2.2459-0.21947-1.9055 0.44165-4.1125 0.0424-4.7492-2.0623-0.85706-1.9483 0.61541-4.0449 1.9342-5.403 2.2676-1.9238 5.1181 0.0427 6.073 2.3285 1.5539 0.63316 3.6812 0.2174 4.5349 2.2627 1.0844 1.3657 0.16184-2.0472 0.27549-2.8504-0.03628-1.5026-0.04782-3.2995-2.0316-2.7683-2.1348-0.20774-2.8194-2.5367-3.7327-3.6055-2.2462-0.27134-5.1396-0.17122-6.3531-2.4915-0.7418-1.9135-0.29415-5.1072 2.213-5.3526 2.4283-0.3917 3.3395 2.7634 5.6577 2.8662 1.661 0.44643 2.65 3.0078 3.4906 3.5068-0.0023-2.2612-0.21304-4.5176-0.28851-6.7774-1.856-0.62163-4.7488 0.26776-5.6035-2.186-1.2461-1.2344-4.8619 0.21199-4.4618-2.7972 0.39542-2.0298 2.6636-4.5691 4.8387-3.1559 1.597 0.91948 3.7798 1.1816 4.4046 3.1921 0.48519 1.1791 0.59663 0.78525 0.54836-0.28073 0.0207-1.2727 0.14102-2.5544-3e-3 -3.8214-1.7414 0.68904-4.2288 1.5849-5.5796-0.33258-1.218-0.87634-1.7075-2.6571-0.07671-3.3588-0.83538-2.8205 2.8286-3.7392 4.482-1.8692 0.63529 0.64567 1.2616 1.3324 1.007-0.0455-0.12645-0.60704 0.4051-1.7992-0.60627-1.6193-2.4059-0.33002-4.825-1.0111-6.9493-2.1982-2.1958-1.9177 0.19546-4.3731 2.4864-3.5297 1.6509-0.33416 3.3006-0.76951 5.004-0.66998-0.02237-0.9362-0.04473-1.8724-0.0671-2.8086-1.4017-0.14869-2.9681-0.3167-3.8242-1.6077-1.6385-1.8181 1.2917-1.8439 2.3357-1.731 1.9395 0.39373 4.1405-3.5573 5.0288-0.26235 0.35062 1.8903-2.0765 2.6427-1.5559 4.5305 0.36987 0.55618 2.029-1.4734 3.1099-1.0464 2.4066-0.54846 3.5166 2.7102 1.1296 3.6026-1.2149 0.81848-2.7002 0.83335-4.1072 0.82862 0.05946 1.0082 0.11892 2.0165 0.17838 3.0247 1.3153-1.0687 3.5239-1.0141 4.7184 0.18391 1.0504 2.1534-1.4361 3.9273-3.3252 4.1893-2.0153-0.62446-1.2393 2.1017-0.95838 2.9172 1.9298-2.1799 4.169-0.34167 4.8641 1.7956 2.3879 1.498 0.30198 4.2303-1.9382 4.2447-1.3574 0.54979-3.5937-0.71392-2.8776 1.7308-0.01173 0.75524-0.19426 1.8328 0.70716 0.86476 1.5896-1.8154 4.3291-0.16239 3.9744 2.0538 0.37531 1.3752 2.8547 2.7974 0.98559 4.4571-1.4101 1.5482-3.0192 3.5694-5.3659 3.2453-0.20211 0.82321 0.2526 2.2159 0.18348 3.2104 0.15996 0.5854-0.05937 2.9072 0.16604 2.7781 0.48608-1.5352 1.2459-3.3159 3.098-3.4456 1.4263-1.2462 0.43065-3.896 2.1216-5.2119 2.2528-1.6358 3.1437 2.1463 4.5172 3.2179 2.0071 1.3432 3.1324 3.9163 1.0086 5.7507-1.0137 2.3786-4.3148 1.6316-5.1413 3.817-0.803 2.1431-2.9864 2.5939-4.9989 2.212-0.67648 1.0993 1.3846 5.0484-1.2823 4.0074-0.0994 0.23746-0.40627-0.90103-0.40866-0.64381zm-2.0784-3.9439c-1.6602-0.8845-2.745-2.5466-4.5699-2.7383-1.0196-0.53153-2.4001-0.42104-0.55352 0.1775 2.0668 0.78225 3.9936 1.9857 5.7809 3.1861-0.17596-0.24868-0.443-0.41545-0.65742-0.62528zm5.6946-2.8139c0.68112-0.65337 1.9633-2.3092 2.0092-2.4974-0.47013 0.86379-3.2105 2.8775-2.6187 2.9572l0.27314-0.19283 0.33638-0.26697zm-5.561-8.212c-0.41937-0.89759-2.3968-3.3272-2.509-2.7731 1.3016 0.89588 2.3135 3.5022 2.9809 3.9788-0.09691-0.42262-0.27812-0.82001-0.4719-1.2057zm-0.0013-9.9349c-0.58109-1.107-2.163-2.7502-2.8324-2.9513 0.88913 0.72782 2.29 2.8172 2.8324 2.9513zm-6.0854-4.4646c-0.7817-0.71764-0.96197-0.86205-1.7033-0.24643 0.13598 0.19903 2.2491 0.61056 1.7033 0.24643zm10.515-2.4622c0.65221-1.1278-3.3441 1.9665-1.2704 0.715 0.3819-0.29018 0.78347-0.62815 1.2704-0.715zm-4.5845-2.1412c-0.35204-0.89728-2.387-1.056-0.68516-0.34922 0.36093 0.33195 1.5884 1.4311 0.68516 0.34922zm3.8586-6.1771c1.4884-0.56529 0.12862-0.0745-0.40392-0.3638 0.67671-1.1783-3.0408 2.4664-0.97599 1.0158 0.43752-0.26135 0.90259-0.47467 1.3799-0.65201zm-0.83906-6.2338c1.0078-1.5203-2.4569 1.6196-0.38042 0.13545l0.38043-0.13545z" fill="#b7c7c4"/><path d="m70.867 209.14c-1.2904-0.65824-0.3026-3.7455-2.4357-2.3307-1.6627 0.78441-3.5935 0.35038-4.6222-1.1812-0.48188-0.66171-1.436-0.098-2.1385-0.18727-1.919 0.41136-4.0587 0.16897-4.8792-1.9316-1.0705-1.9412 0.60259-4.2149 1.9233-5.5847 1.6941-1.1816 4.3515-0.60075 5.2304 1.3086 0.77992 1.1771-0.98682 1.3761-1.1753 1.9566-0.97968-0.65583-2.0024-2.7185-2.8545-2.7325 0.51438 1.0792 3.3613 3.0783 0.55938 2.5058-1.0443-0.42661-3.5891 0.34593-1.188 0.4293 0.97843-0.0909 4.467 0.36494 1.9614 0.54418-0.6502 0.75587-0.58018-1.0828-0.98602 0.31177-0.88738 0.66249-2.6722 1.5501-0.45136 0.83299 1.7735-1.4002 3.7795 0.1131 5.7929-0.10117-0.32706 0.66105-3.6965 1.4206-1.2048 1.0858 1.5426-1.1744 3.5185 0.5774 4.306 0.78785-0.70618-0.64007-3.7552-2.7941-2.0899-3.0695-0.32093-2.2336 2.3582 0.16887 2.788 1.1602 0.71105 1.3771 0.59607-1.4491 0.30599-1.8923-0.48523-1.6496 0.43967-4.7587-2.2479-4.1013-1.9706-0.38955-2.9749-2.34-3.6077-3.7639-2.1174-9e-3 -4.6075-0.11407-6.1275-1.8047-0.88424-1.2782 0.1002-1.7558-0.5571-2.9439-0.19426-2.5759 3.1426-3.9474 4.8401-2.0324 0.77385 0.76896 2.633 1.974 1.1662 2.5616 1.442 1.4789-2.0895 0.1368-2.8567 0.24043-2.2347-0.49479 0.65049 1.0117 1.5188 0.54006 1.7445 0.24879 2.9422 0.67025 4.3508 1.3669 1.3469 1.0768 2.7272 3.3402-0.06654 2.4257 0.6797 0.47576 2.5968 0.53381 2.8233 1.67-0.49876-2.0036-0.63233-3.3265-2.5486-4.2554-1.2039-1.0722-1.5891-1.1763-2.6192-2.0114 2.0743-1.3629 3.7673 1.5012 4.6959 3.0146 0.79339 1.671 0.78175-1.1104 0.45905-1.6512-0.2909-1.8063-0.32606-3.6392-0.46068-5.4608-1.977-0.0429-4.5845 0.18248-5.6203-1.8752-0.79076-1.74-4.7287 0.55626-4.2737-2.5754 0.09881-1.3576 1.1825-2.3994 1.9991-1.2646 2.0411-0.0247 2.9941 0.65377 4.661 1.3995 0.35903 0.50313 2.7336 1.9363 1.389 2.039-0.58664 0.11057-2.0615 0.3106-0.66198 0.22115 1.194-0.59778 3.061 1.8974 1.811-0.32568-0.1547-0.96616-2.0175-3.6794-0.747-1.321 0.20582 1.1285-1.7869-1.2884-2.4688-1.4571-0.43145-0.60026-2.264-2.8-1.0089-0.85922 0.14467 1.326-2.2882-1.0598-2.5691-0.66818-0.23377 1.3999-0.73143-1.1579-1.5489 0.15037-0.55587-0.82047 2.8835-2.6695 4.0552-1.1999 1.6033 0.83629 3.6493 1.1975 4.2096 3.1876 0.50001 1.2958 0.49266 0.39634 0.48655-0.49779-0.05157-1.1946 0.32478-2.799-0.12033-3.6882-1.8364 0.64707-4.2683 1.4937-5.5916-0.53684-1.1927-0.90107-1.3222-2.4639 0.09943-3.1892-0.86491-2.327 1.9572-3.5874 3.7206-2.2874 0.98828 0.39093 2.474 2.788 1.7678 0.38297 0.50772-2.9072-3.5015-1.514-5.1236-2.74-2.5037 0.17883-5.0714-4.1354-1.6678-4.6795 1.8442 0.46621 3.5461-0.55449 5.3849-0.53559 0.7461-0.0498 1.7119 0.0937 1.3096-0.96673-0.16958-0.60415 0.22747-1.7183-0.32648-1.9765-1.5437-0.17904-3.9247-0.69418-3.8358-2.6264 1.0645-1.5727 4.1473 0.38602 5.1212-1.7129 2.3277-2.093 3.4572 2.5604 1.2134 3.4702-0.25323 0.46329-0.70631 2.8951 0.33307 1.7605 1.261-1.0179 3.3165-1.3149 4.6135-0.23788 1.3089 2.2387-1.9392 3.4763-3.6922 3.6777-2.0698-0.79538-1.422 1.4669-1.4793 2.6835-0.18459 1.5342 1.3764-0.93712 2.207-0.37938 2.6449-0.69369 4.2706 2.9634 1.6186 4.1181-0.92568 1.054-2.709 0.72312-3.6585 1.0045 0.3115 0.86439 0.05522 2.7891 0.51024 2.9252 1.1713-1.2368 3.6243-1.3141 4.1075 0.62382 0.88267 1.5808 3.2009 3.0283 0.85505 4.6332-1.235 1.565-5.0551-0.30748-4.9607 2.0482-0.0026 1.1038-0.10827 2.8085 1.0644 1.1209 2.605-1.9791 3.7089 1.5426 3.9354 3.2506 2.6194 0.89116 0.86897 3.76-0.61518 4.8649-0.93808 1.2879-2.8022 1.8037-4.0621 1.9659 0.14298 2.1468 0.0299 4.3945 0.45138 6.4585 0.27964-1.8841 1.3275-4.1347 3.5363-4.091 0.70834-1.8244 0.15741-4.6653 2.3934-5.5734 2.2855 0.15679 2.6447 3.1554 4.4091 4.3054 2.1928 1.2776 1.7068 3.7338 0.16339 5.3023-0.96583 2.0785-4.1356 1.2912-4.8646 3.284-0.55129 1.6855-2.2593 3.1268-4.1103 2.5199-1.1892-0.42683-1.3949 0.28401-1.1249 1.3739 0.0446 0.90304 1.0537 3.4832-0.89896 2.787zm2.3589-7.121c0.44618-0.64047 3.8503-1.2354 1.399-1.0152 0.71325-1.1667 1.6197-2.2021 2.4413-3.2934 0.94824 0.0724 3.5399 0.31473 1.151-0.0863-2.4797 0.25179 2.1518-4.2848-0.09356-2.4197-1.631 2.7755-3.3693 5.8246-6.352 7.3453-0.10515 0.5249 1.2996-0.40488 1.4544-0.53066zm0.40523-4.6714c0.26089-1.1286-0.37584-1.6836-0.32444-0.16436-0.10229 0.92414 0.17045 2.1028 0.29043 0.4659zm4.0244-4.0229c-0.35949-2.4461-0.52289 0.69502 0.05172 1.3594 0.08926-0.45246 0.0049-0.90976-0.05172-1.3594zm-17.718-1.6844c0.29904-0.84995 3.0701-0.70983 0.80152-0.93906-0.79865-0.0512-2.7396-0.37773-1.075 0.60929-0.59989 0.21756-2.2963-0.78469-0.65254 0.28091 0.7722 0.21561 0.59994 1.3862 0.92603 0.0489zm11.925-1.9651c-0.18529-1.8802 2.7501-0.88886 2.8951-1.9312-1.4375 0.87247-3.1264 0.31055-1.3232-1.1825 1.1286-1.3336-0.61303 0.26487-0.89354 0.77605-0.47668 0.83314-1.8502 2.844-1.0516 3.373 0.19792-0.31331 0.28469-0.68062 0.37321-1.0352zm1.0621-5.9566c-0.56862 0.41494-0.9096 3.249-0.27747 1.2703 0.11422-0.41711 0.27306-0.83116 0.27747-1.2703zm-10.206-3.5166c0.05684-0.5653-3.1705 0.52936-0.83762 0.25163 0.28759-0.0434 0.58515-0.0976 0.83762-0.25163zm9.9063-2.4913c-2.2346-0.51486 0.11075-1.1181 0.80267-1.4744-0.79899-0.44271-2.6565 0.98467-1.4407-0.81305 0.40339-1.8707-1.2277 1.4318-1.0642 2.0402-0.02196 0.3757 1.2666-0.0793 1.9468 0.61238 0.30759 0.0345-0.49186-0.65764-0.24464-0.36512zm-5.018-3.911c-0.59599-0.55071-1.7801-2.2319-0.97566-0.66889-0.70353-0.23073-3.9307-0.40213-1.6345 0.1418 0.51686-6e-3 1.8413 0.1681 1.0174 0.80397 0.99628-0.79114 3.348 1.8265 1.7843-0.059l-0.19156-0.21791zm2.887-4.8266c0.6291-0.70916 2.3721 0.9542 2.5192 0.23172-1.5364-0.0168-1.4739-1.3815 0.06286-1.1583 2.1954-0.19271-0.95762-0.63357-1.5812-0.0576 0.94399-1.5675-0.46755 0.29608-1.0545 0.0141 0.35114 0.86141-2.353 1.1332-0.3045 1.2244l0.35809-0.25477zm-2.9721-3.1109c-0.50358-0.9565-3.0098-3.164-1.096-1.1302 1.368 1.6513-2.1774-0.18822-3.0027 0.0846-0.69749-0.0756-2.2512-0.18668-2.5685-0.18419 2.2007 0.37815 4.476 0.62027 6.4941 1.6414-0.44105 0.14402-2.291 0.53647-0.9794 0.37147 0.99499-0.5004 2.5851 1.4337 1.1525-0.78313zm-2.2898 0.68157c-0.86248-0.29475-2.8298-0.76879-1.0026 0.0538 0.03994 0.12157 1.7389 0.13825 1.0026-0.0538zm6.2177-4.7934c0.95516-0.2316 3.2147-1.1071 0.83363-0.63931-0.77511 0.35733-1.261 0.37232-0.85595-0.16846-0.76821 0.52505-2.4591 2.6849-0.58085 1.1454l0.3098-0.18366zm-2.7781-3.2303c-0.74324-0.32755-2.6431-1.8778-1.5135-0.48241-0.70307 0.33035-3.1805-1.1802-1.5888 0.0996 0.8029 0.098 2.6951 0.91306 3.1024 0.38286zm1.1647-1.627c0.94736-2.2522-1.2715 0.51441-0.41924 0.76748 0.20316-0.21484 0.31672-0.49562 0.41924-0.76748zm-7.1794 45.239c0.9769-0.5341 1.8014 0.69189 0.18294 0.28439-0.16051 0.10058-0.44285-0.18151-0.18294-0.28439zm0.59072-0.63607c0.24633-1.8228 4.6595 0.08 1.8266-0.26635-0.78754-0.85784-1.2671 0.81135-1.8266 0.26635z" fill="#94aca8"/><path d="m70.921 209.12c-1.2692-0.67427-0.36629-3.621-2.6565-2.3409-2.2332 1.3648-3.7192-0.83805-5.5639-1.4485-1.9834 0.0731-4.4997 0.88996-5.6035-1.4017-1.4533-1.7587 0.02447-3.921 1.1009-5.4384 1.4694-1.9199 4.7186-1.4204 5.6288 0.78899-0.63849 0.63298 0.72382 1.1425-0.54553 0.95536-1.7162 1.3907-1.9424-2.2434-3.5407-1.9702 0.43024 0.99405 3.2539 2.9035 0.59857 2.7098-1.1095-0.20169-3.1241 0.48457-0.88611 0.44946 0.80254-0.30382 4.0186 0.52053 1.5046 0.33102-0.64116 0.46439-2.2214 1.1427-2.3509 1.6457 1.0329-0.0774 2.4179-0.64779 1.6883 0.29701 1.567-1.0245 3.143-0.80844 5.1279-0.64353-0.33436 1.0456-2.8801-0.18373-2.0935 1.2221 1.9193-0.45918 3.8375-0.9615 5.2624 0.82194 0.88909-0.51427-3.5665-2.2515-1.2064-2.6903 1.1291-0.26684 3.0964 2.2384 2.5147-0.20359-0.15186-1.7574-0.40603-3.5037-0.62334-5.2537-2.1586 0.25172-4.8469-1.0086-4.9583-3.4172-1.0297-1.145-5.432 0.53217-4.1949-2.3544 0.83047-0.53707 1.83 0.27722 1.67 0.76224 0.10945-1.47 1.7246-1.1866 2.3563-0.51722 0.03244-1.5751 2.6846-0.22881 2.8765 0.95654 1.2347 0.39378 0.70514 2.0784-0.29092 0.66146-0.32443-0.73522-0.04437 0.8693-0.97033 0.50579 1.0267 0.24377 1.5108 1.7461 2.4376 0.52072-0.15481 1.1944 2.1787 1.7077 0.73734 0.44989-0.50043-0.87267 0.02332-3.8793 1.1517-3.042 1.8508 0.91023 0.34828 3.7587 0.92417 5.529-0.04536 1.0055 0.16619 2.9856 0.66688 0.99692 0.14467-2.8216 4.1794-1.997 3.7112-4.9187-0.08935-1.7834 1.6599-4.9211 3.4828-2.7868 0.94927 1.786 2.3841 3.1696 3.757 4.6239 1.4445 1.7853-0.51651 4.067-1.8611 5.292-1.5838 1.0605-3.9159 0.86546-4.2329 3.1926-0.82546 1.6123-2.5785 1.8728-4.1756 1.4896-1.1642-0.43877-0.96884 0.32648-0.70647 1.1724-0.02067 0.75836 0.82749 3.6692-0.73683 3.0528zm2.3812-7.082c0.60768-0.58423 3.657-1.1218 1.3438-1.1812 1.2184-1.6626 2.4149-3.6751 4.8155-2.9976 1.2094-0.0708 2.4327-1.4789 0.51286-0.44824-1.1601 0.64259-3.5366 0.19392-1.9847-1.3606 0.36173-1.2512-0.51433-3.0058-0.6677-4.0203-0.16627 1.929 1.1219 4.0388-0.67544 5.5863-1.338 1.8974-2.7793 3.8832-4.9168 4.9246 0.11595 0.47893 1.3026-0.33528 1.5725-0.50298zm0.52086-2.3887c-0.44569-1.3281-0.32898-2.691 0.70797-3.496-0.91643 1.2051-0.58118-1.2676-1.2094 0.29025-0.10406 1.4106-0.02149 3.2377 0.63364 4.3681 0.05579-0.39406-0.05894-0.78047-0.13221-1.1624zm-8.1943-7.8356c-0.4987-0.98165-2.4469 0.77589-0.51038 0.19257 0.15375-0.0645 0.40662-0.0231 0.51038-0.19257zm2.9771 10.711c-0.27532-1.0262-1.2731-1.4092-1.7544-0.40973-0.89569-0.44699 1.7046-1.5116 1.925 0.0241 0.36121 0.19121 0.4441 0.92912-0.17063 0.38565zm2.6975-10.528c0.39714-0.83911-2.0053-1.0409-0.1232-1.0052 1.5339-0.1976 0.12166 2.9768 0.1232 1.0052zm0.81196 0.39034c0.11596-0.43274 1.6724-3.018 0.24842-1.4637-0.96018-0.0359-0.65089-2.8824 1.2523-2.5214 1.0563 0.11984 1.7697-1.005 0.22368-0.4293-2.3838 0.79527-0.13712-1.24-0.18163-1.8239-0.58169 0.11253-1.7899 2.18-1.2966 0.61025 0.13317-0.78843 1.0554-4.3925 0.03391-1.8633-0.48584 1.7827-0.21114 4.5579-1.7514 5.5538-1.9048 1.066-1.9729-2.0356-2.0888-3.5105 0.30076-1.4157-0.04662-2.622-1.692-2.0398-2.0648 0.0768-3.6165-1.4067-4.7302-2.6615-1.2813-0.14503-3.2723 0.44478-3.2505-1.3291-0.98026-1.4713 0.26537-1.1071 0.96856-0.3275-0.79859-0.62644-0.03854-1.776 1.1445-1.249-0.02144 0.17661 3.3864-0.0979 2.1774 0.39999-1.1177 0.23728-3.6239 0.92566-0.96022 0.62497 1.804-1.178 3.4087 0.32231 4.5436 1.666 1.0953 0.82888 0.02578 0.59643-0.74461 0.51065-0.91494-0.18648-2.6179-0.0782-0.63614 0.25316 1.1097-0.24495 2.478 0.39757 2.9909 0.68844-0.44997-0.68001-1.4232-4.0021-1.8229-3.0593 0.84891 0.9688 0.70238 1.6723-0.37865 0.51111-1.2091-0.64496-2.3953-2.8328-3.2643-2.8944 0.92582 0.98305 1.2246 1.4177-0.28573 0.89825-1.7669-0.17132-1.9397-3.5887 0.31695-2.0448 2.2471 0.72204 4.319 1.9798 5.2722 4.0418 0.29842-1.6837 0.03159-3.4239 0.03866-5.1329-1.4197 0.73644-3.1969 1.5308-4.7359 0.76418-1.3383-1.0055-3.0764-2.978-0.93988-4.1808-0.97984-2.6797 2.7188-3.6256 4.2852-1.8434 0.5199 0.24137 1.8442 2.1094 1.3591 0.62123-0.16325-1.4109 0.0888-3.0086-1.8423-2.5344-2.1555-0.82635-4.9406-0.73479-6.4398-2.7213-1.4606-2.6052 2.0396-2.9937 3.8091-2.8576 1.3994-0.3393 2.8245-0.63596 4.2724-0.55948v-2.878c-1.5668-0.21271-3.5987-0.46185-4.1806-2.1803 0.18227-2.2723 3.2873-0.32189 4.6776-1.522 1.3558-2.8198 4.14 0.26206 2.2931 2.1679-0.91839 0.24832-1.3432 2.8617-0.64359 2.6229 1.307-1.0881 3.4727-1.588 4.9061-0.50176 1.3635 2.2926-1.9625 3.6289-3.7904 3.5705-0.75278 0.0632-1.7614-0.10933-1.4103 0.97065-0.04492 1.064-0.15825 3.522 1.2832 1.7573 1.8877-0.89358 5.3657 0.79667 3.5588 3.044-1.0301 1.2386-2.7887 1.8285-3.3714 0.33215 0.85945-0.053 2.638-0.55236 0.81879-1.1735-0.92357-1.051 3.3547-0.41951 1.0388-1.089-1.0306 0.385-1.3819-0.14428-1.4163-0.50625-0.95132 0.72532-0.61936 0.56226-0.34131-0.21162-0.87107-0.14596-1.7884 2.8028-1.6056 0.895-0.74555 1.04-0.79467 0.40631-1.0195-0.19577-1.6365 0.5123 1.1773 1.8618 1.7159 2.3061 0.83162 0.92555 0.77135 1.0531-0.45412 0.61556 0.99005 0.31086-0.68158 3.383 0.52813 4.3282 0.94002-2.6704 4.3248-1.2334 4.6838 1.0881 1.9317 1.0746 1.4281 3.0539-0.39234 3.886-1.6125-0.0669-2.6505 0.92737-4.3653 0.51103 0.19612 0.68559-0.34571 3.8578 0.57988 2.8892 1.3902-1.8054 4.5499-0.98034 4.0984 1.531 0.15814 1.5398 3.0558 2.6227 1.168 4.483-1.1437 1.2503-2.5109 3.1121-4.2552 3.1635zm2.1129-14.294c-0.68449-0.25337-1.6317-0.49738-2.1601-0.87278-1.0607-0.13276 3.0474-1.1241 0.71186-1.2656-0.98127 0.73314-1.8204 0.75431-0.83508-0.37638 0.96479-1.3517-0.10254-1.3995-0.46091-0.0546-0.27625 0.62914-1.2957 3.4433-0.11932 1.9543 0.89442 0.19249 1.9848 1.3616 2.8635 0.61505zm-6.5668-4.3388c-0.58341-0.46382-1.6924-2.4549-1.1897-0.61831-0.6866-0.43046-3.7141-0.17307-1.6361 0.13642 1.02-0.12275 2.0966 0.63172 0.44726 0.72162-1.0066-0.0438-2.6891 0.15655-0.71922 0.38657 1.4046-0.19539 2.8204-0.65455 3.9344 0.34063-0.19076-0.39102-0.53113-0.67097-0.8366-0.96693zm0.61372-6.6467c-0.41614-1.1516-2.3442-3.5327-2.9554-3.2887 1.022 0.50768 2.3426 2.4451 0.2464 1.3368-1.0772-0.27113-4.5835-0.9254-4.3279-0.22079 1.9495 0.26006 4.2933 0.0976 5.8386 1.4211-1.1482 0.33732-3.5856-0.49771-3.8821-0.14195 1.56 0.66037 3.7624 0.2856 5.0805 0.89358zm2.1302-4.6385c0.34642-0.96703 3.795 0.4252 1.9708-0.51563-2.2447-0.45145 3.0274-0.72435 0.36746-1.0274-1.3789 0.66998-1.3232-0.406-2.4184 1.038-0.54492 0.37668-1.2841 1.9567 0.08008 0.50497zm-1.7333-3.9552c-0.61742-0.16257-3.0729-2.2162-1.5481-0.58532-0.95136 0.33761-3.3557-1.0773-1.2645 0.30756 0.71857 0.0951 2.5102 0.79568 2.8126 0.27776zm1.0718-1.4467c1.0128-1.3161-0.51014-1.3766-0.4023-2e-3 -0.58978 1.2236 0.16007 0.89731 0.40235 2e-3zm-10.994 35.033c-1.0522-0.10403-2.3611-2.7048-0.39688-2.5582-1.9354 0.29824-1.1044-2.4091-0.26973-3.2704 1.9559-1.9637 4.4276 0.33505 5.711 1.9208-0.20168 0.7274-1.9492-0.0476-0.4904 1.0724 0.43589 0.72073-2.438-0.10298-3.1449-0.17548-2.3082-0.69035 0.54458 1.1371 1.5335 0.67001 0.95097-0.0733 2.1913 0.74651 0.46193 0.77769-1.4335 0.46001-4.0865-0.6526-4.2827 0.15475 0.4398 0.71149 2.9418 1.7173 0.90898 1.5254l-0.03087-0.11713zm8.7312-0.28094c-0.42517-0.65322-3.3712-2.5822-1.7435-2.7206 0.91165-0.13101 3.5671 3.3407 1.7435 2.7206z" fill="#6f908a"/><path d="m70.921 209.12c-1.484-0.64672-0.0074-3.944-2.45-2.4201-2.1704 1.4057-3.8056-0.50934-5.496-1.4163-1.9813 0.0159-4.6513 0.84505-5.8419-1.3103-1.2589-1.9922 0.0968-4.4529 1.5339-5.9428 1.4689-1.3707 5.6398-0.43824 4.7149 1.894-1.1616 1.2017-3.1521-0.71259-1.7358-1.9043-0.40406-1.0089-0.97022 1.3208-1.0721-0.0386-1.2101 0.2354-1.7279 0.41392-0.60538 0.93349-0.84926 0.56645 2.2724 0.87884 1.557 2.0664-1.0734-0.65421-2.3566-1.2753-3.1723-0.30432-0.38597-0.0819-1.1988 1.7901-0.23301 1.0048 0.42533 0.092 3.194-0.78641 2.139 0.1965-0.64734 0.75863-0.72522 1.103-0.72366 0.026-0.29495 1.0058-0.87434 1.0249-1.5867 0.38016-0.22278 1.7803 3.0953 0.6897 3.608 1.9588 1.2502-2.1606 2.0363 2.0288 3.2162-0.07 0.77665-0.40103 0.09457 0.97496 1.1207 0.55649 0.76113 0.71115 1.6058-0.3447 0.1644-0.28211-0.42271-1.3178 2.5155 0.94212 2.9403 1.0587-0.27542-0.80818-1.2501-1.9462 0.20569-2.5164 0.5997 0.95835 0.77483 0.77539 0.82153-4e-3 1.0605 0.42884-0.62919-1.6971-0.35386-2.5509-0.17913-1.18-0.26458-2.371-0.38064-3.5581-1.3837 0.0234-3.4559-0.0298-3.9824-1.4388 1.3308-1.9542-0.0066-1.0638-0.73797-0.70736 0.28066-0.92191 0.60411-0.76133 0.0864-1.0897 0.49399-1.9114-2.147-0.0191-3.3451-0.71102-2.493 0.50222-0.7819-3.4991 0.4033-1.1462 0.47743 1.2024 2.7947 0.95183 1.9918-0.16306 0.76934 0.93512 1.7034 0.12286 1.5635 1.4461 1.5456 1.464 2.6215 1.4725 4.2068 2.3468 2.2348 0.34291-1.8784-0.65552-0.22366-1.8161 0.6685-0.63292-1.2274 0.70105-0.53975-0.7276 0.36396-0.42856 1.8975-2.0648 1.8285-0.29883 0.22473 1.4451 0.7657 3.5601-0.49266 3.9399-0.34368 0.82562 0.14196 2.9852 0.31219 1.0457 0.52199-3.1635 0.54336 3.7389 1.1257 1.1009 0.0082-1.5432 1.9354-2.8598 1.811-0.55092-0.21316 0.97916 1.0938 4.1484 0.56171 1.4665-0.4097-1.2365-0.26091-2.5198 0.59958-3.3346-1.175 0.15024-0.662-1.0041 0.37806-1.0221 1.1194-1.7068 0.05709-4.8405 2.5622-5.6506 2.2579 0.33262 2.3304 3.3598 4.2956 4.2908 0.61978 0.75091 1.7659 1.8165 1.5103 2.8211-0.8955 2.2329-2.6538 4.3419-5.1877 4.6233-1.4957 1.0815-2.0297 4.3481-4.7369 3.7147-1.7252-1.0069-2.2308 0.22981-1.5258 1.7289 0.11396 0.63264 0.58293 3.1933-0.83509 2.3748zm2.4381-7.0832c0.5804-0.54395 3.9391-1.3079 1.4297-1.0739 0.94467-1.6653 2.1963-3.7599 4.467-3.0853 1.0424 0.0158 2.9479-1.5038 0.75513-0.55074-0.55692 0.43975-3.5269 0.46192-2.3667-0.6587 0.50601-0.82105 1.9964-2.5349 0.33274-1.908-0.14393-0.6461-0.75222-4.6137-0.82508-2.1905 0.53817 1.9149 0.68553 3.8862-0.82916 5.4322-1.2283 1.8099-2.6438 3.6609-4.6923 4.5731 0.44994 0.32489 1.2786-0.28995 1.7287-0.53826zm-1.3798-1.5377c-0.29751-1.0465-2.4138-1.8656-0.82602-0.49027 0.7005-0.27928 0.56591 1.5413 0.82602 0.49027zm2.6458-2.8562c0.89576 0.0802 0.88529-0.66627-0.07462-0.83362-0.29325 0.14323-0.48699 1.8105 0.07462 0.83362zm-7.1239 6.0053c-0.58949-0.64828 1.1375-0.28577 0.0608-1.1764 1.224-0.16241 0.77733 2.1333-0.0608 1.1764zm-1.0141-11.078c-0.34801-0.84223-1.4535-1.2646-1.5082-1.6955 0.84893-0.70517 3.1654 2.6294 1.5082 1.6955zm-4.4402-0.75253c-0.17992-1.8249 2.6055-0.77422 0.88408 0.42674-0.3426 0.29298-0.82616-0.0196-0.88408-0.42674zm11.157-0.30103c-0.36888-1.0224 0.7837-1.3167-0.82118-1.0941-0.09286-0.72487-1.0396-0.73285 0.04799-1.7581 0.77577-0.14493 3.7669-0.81824 1.4022-0.89908-0.81562 0.71673-1.9114 0.1903-0.5029-0.8002 1.2777-1.2517-0.34296-0.93236-0.76854 0.0557-0.69269-1.0055 1.2843-3.4108 0.3221-3.5118-1.1711 1.6314-0.20883 3.9539-1.5886 5.255 0.51066 1.7174-0.96835 1.8572-1.2882 0.52905-2.1373 1.2006-0.7947-2.9741-1.4625-4.1555-0.02545-1.1363-2.0089 0.3257-2.9252-0.46307-2.4461 0.27168-2.3971-3.4275-4.8507-2.3611-1.505 0.35713-2.2236-1.0552-0.85022-1.8857-0.08934-1.7859 3.5203-0.21599 0.88539-0.14277 0.4119 1.5105 3.2-1.4858 4.2477 0.18325 1.2146 0.66011 2.3708 2.7931 3.2549 2.9793-0.29173-0.89036-1.4468-3.7674-1.8903-3.1512 1.1842 1.2749 0.64084 1.6554-0.46394 0.44838-1.1319-0.5828-2.2314-2.729-3.0507-2.7163 0.82251 0.91162 1.3219 1.4329-0.19181 0.86744-2.0085-0.14554-1.6959-3.6668 0.41606-1.8788 1.6898 0.85996 3.8398 1.3174 4.5361 3.3408 1.5683 2.4767 0.26215-1.8208 0.61408-2.7822-0.16616-0.47512 0.36431-2.0948-0.32534-1.7098-1.5963 0.92196-3.9698 1.621-5.2983-0.11797-1.5039-0.90339-1.4266-2.7355 0.21301-3.3427-1.6544-2.602 2.5274-3.7215 3.9699-1.8941 0.52556 0.23822 1.8325 2.1454 1.4168 0.63713 0.15796-1.8473-0.55369-2.913-2.5138-2.6636-1.2455 8e-3 -1.637-1.4717-2.474-0.94206-0.1298-1.6533-0.55324 0.95724-1.7262-0.36968-2.5502-0.5248-2.3463-4.7103 0.55078-4.0152 2.1077-0.12013 4.1482-0.72825 6.1779-0.40387-0.35101 0.66615-2.2711 1.0495-0.47882 0.85162 1.6646-0.79309-0.25317-2.0501 0.22351-3.4248 0.23965-0.99852-1.1876-0.62787-1.79-0.95046-1.9916 0.18799-3.6421-3.5388-0.77083-2.6899 1.8687 0.0189 3.1752-0.67352 4.4925-1.8412 2.4881 0.71871 0.61395 3.5548-0.07107 4.925-0.19373 1.1962 0.0788 1.4748 0.97719 0.57339 1.5046-0.92203 4.7829-1.0533 4.5934 1.4477-0.76248 1.5054-2.7702 2.0915-4.4244 2.1284-0.94724-0.11006-1.3942 0.23561-1.1547 1.2066 0.91971 1.6168-2.7799 0.7436-0.77846 1.6286 1.8874-0.17076-1.0935 1.2662-1.1785-0.45651-0.54605-0.68973-2.3356-2.8126-2.5342-2.3066 0.11274 0.45267 2.2419 1.9978 1.19 1.614-1.7591-0.63906-3.6776-0.95323-5.5422-0.76299 1.0853 0.73033 4.5706 0.25303 6.0754 1.7055 1.3579 1.4513 1.6527 3.5827 3.0614 4.8322 0.37601 1.7908-0.59497 3.928-0.27396 5.1148-0.44222 1.299 0.90258 0.70018 1.043 1.8117 0.85497 0.56029 2.9393 0.27125 3.2959-0.43782-0.97424 0.16799-0.9066-0.5153-1.4918-2e-3 -0.32227-0.80605-1.7216-0.38781-0.11463-0.99199 0.77848-6e-3 2.262-0.71885 0.74806-0.90729-0.69159-0.70482-0.15893-2.4469-1.5284-0.95713-0.94392 0.4657-1.6025-0.94916-0.4535-0.79744 1.7585-2.0695 3.4181 0.78027 4.179 2.3216 2.2763 0.9442-0.0078 4.0559-1.6481 3.3517 0.67639-2.1342-2.4338 2.1422-1.3048-0.36857-0.91033-0.62384-0.29546 2.221-1.832 0.67153-1.1935-0.71727 0.11705 1.9706-0.15895 2.7291 0.03395 1.9936 2.0995-1.6994 3.4014-0.39138 1.6495 1.0855 0.59573 3.7084 2.7433 4.4738 0.77625 1.9447-1.4823 3.5545-2.7156 4.7675-0.52857 0.30104-0.71861 0.83908-0.84146-0.10579zm-6.9128-8.9415c-0.89815-0.34737-3.2041-0.19239-1.1286 0.17229 0.3996 0.0554 2.9999 0.14349 1.5892-0.077-0.15351-0.0318-0.30708-0.0635-0.46054-0.0953zm2.249-7.9043c-0.85195-0.44108-1.8931-2.6575-2.3222-2.3086 1.4523 1.8895-3.1341-0.62445-2.1489 0.89761 0.87402-0.14757 3.4286 0.59288 1.1437 0.66001-1.0442-0.30727-3.0346 0.41299-0.79132 0.42048 1.5033-0.0563 2.9415-0.72234 4.0557 0.52256l0.06298-0.1921zm-1.7246-7.933c-0.60759-0.47439-2.942-0.4458-3.8317-0.86434 0.72172 1.102 2.6578 1.1578 3.8317 0.86434zm1.7246-1.0987c0.75418-0.0707 1.5913-0.24248 0.23594-0.60968-1.1003-0.21516-0.25585-1.1329-1.4481-0.63156 0.53205-0.0887 0.50076 2.3345 1.2121 1.2412zm1.6888-2.7311c-0.11647-1.7259 4.1004 0.17046 2.132-0.9548-1.8762-0.43585 2.6604-0.6582 0.60289-1.0111-1.5884-0.40262-2.6697 0.62101-3.4459 2.2412 0.15205 0.68567 0.74434 0.13839 0.71102-0.27532zm-1.5565-4.3948c-0.61742-0.16257-3.0729-2.2162-1.5481-0.58532-0.72214 0.45816-3.3836-1.1228-1.5721 0.15574 0.77565 0.23753 2.6693 0.98863 3.1202 0.42958zm1.1767-1.5214c1.0099-1.5776-0.92057-1.5214-0.66044-0.0517-0.12499 1.2898 0.45396 1.2071 0.66044 0.0517zm-3.5963 33.56c-1.4612-1.8159 2.801 0.21198 0.74627 0.37527-0.27087-0.0722-0.52751-0.19949-0.74627-0.37527zm-6.5767-0.33239c-0.64484-0.38582 1.6622 0.42528 0.5283-0.60927 1.0034 0.94058 1.6741-0.20024 2.8448 0.57598-0.92932 0.53834-2.3706 0.2731-3.3731 0.0333zm2.3817-0.776c-0.83421 0.14967-3.5612-1.3855-2.7726-0.0397-2.7142 1.0958-2.5262-2.289-0.87698-3.3492 1.8743-1.5156 4.1509 0.46317 5.0236 2.164-0.75752 0.21058-0.90332 1.0394 0.21355 1.2508 0.30934 0.56557-1.3059-0.15089-1.5875-0.026zm0.14096-9.9564c-0.75786-0.72499 2.5899 0.16428 0.5015 0.41594l-0.21739-0.12088zm9.2594-1.3844c-0.80517-1.2944 1.966 0.80148 0-2e-5zm1.0523-7.3432c0.90724-1.109-0.19775-2.5723 1.4653-2.9496-0.30512-0.62208-1.9846-1.7894-0.38268-1.2316 2.8425 0.53028 1.2404 4.1916-1.0449 4.2401z" fill="#5c827b"/><path d="m70.855 209.13c-1.2032-0.74348-0.19585-3.8475-2.4551-2.4187-2.1838 1.3019-3.7972-0.68423-5.5836-1.4164-1.8381-0.16599-4.3715 0.82437-5.5419-1.1111-1.4682-2.1726 0.02022-5.0297 1.8338-6.4822 2.2026-0.24322-1.0892 0.6702-0.7315 1.6955-0.86343 0.69451-0.67342 2.4875-1.1433 3.6384 0.82962 0.54859 3.4789 0.1578 3.5777 1.091-0.61198 0.56618-1.1831-0.58907-0.97416 0.69718 0.54716 1.0076 3.1617-2.9479 3.6996-0.1199 0.70202 0.73411 1.6507-0.91675 1.9675 0.31588-1.5196-0.79877-1.0462 1.7838-0.5567 0.81952 0.24049-0.60448 1.9524 0.37205 1.5057-0.81468 1.1565-0.70486 3.3177 1.6612 2.2967-0.67712 1.2286-0.3005 1.1395-1.9965 2.2467-0.89309-1.5106-1.8271-1.4621-4.3231-1.7051-6.5778-1.3476 0.0309-3.0465 0.0272-3.8077-1.28-0.0512-2.0419 1.624-1.63 2.6226-0.6547 0.54056 0.48149 2.1675 0.16014 1.951 1.1358-0.05733 1.0486-0.32103 2.893 0.66303 2.3441 0.28344 0.64953-0.93215 1.3409 0.54792 1.7033 0.36888 1.5894 1.4229-0.4896 0.22736-0.50472-0.47828-1.2233 1.4659-4.3289 1.8017-1.7617-0.302 0.94772 0.88995 4.5493 0.60709 1.7292 0.02275-0.67155-0.746-2.0089 0.47395-1.6532 1.9099 0.0522-0.22872-1.3256 1.2865-1.7858-1.6964 0.77894-1.4322-0.74936-0.36795-1.6587 0.2404-1.7168 0.14335-4.9321 2.5256-4.8529 1.9212 0.8447 2.1152 3.4438 4.0663 4.3698 1.9443 1.4885 1.041 4.0832-0.42016 5.5223-1.23 1.875-4.3609 1.0624-4.8214 3.5317-0.84688 2.216-3.366 2.1094-5.1751 1.7041-1.2646 0.58884-1.7917 1.3199-0.31071 1.5514 1.0706 0.16271 1.2358 3.7081-0.30636 2.8138zm2.7211-7.2326c0.72038-0.53997 3.5503-1.0516 1.2136-1.0282 1.0885-1.528 2.1643-3.6496 4.4116-2.9967 0.91078 0.17517 3.4386-1.3573 1.1244-0.68564-0.65163 0.48217-3.5794 0.72001-2.7236-0.41898 0.40563-0.56065 2.1079-3.0298 0.64194-1.8642-1.1483-0.85318 0.9543-2.4522-0.6875-2.6616-0.50562-2.0746-0.45894 1.4343-0.0594 2.2186 0.22914 0.74159 0.35408 1.4647-0.26162 2.0565-1.4576 2.3829-3.0901 4.9187-5.7238 6.0883 0.11836 0.65766 1.6815-0.51963 2.0643-0.70806zm-13.768 0.047c-0.81308-0.0371-1.6208-0.42589-0.14054-0.49175 0.72606-0.17578 0.69101 0.92932 0.14054 0.49175zm1.027-1.2972c0.25101-0.90408-3.25-0.62404-0.92726-1.0457 0.92699-0.58156 2.0941 1.7127 0.92726 1.0457zm0.95021-0.6069c-0.01826-0.87179 1.213-1.2512 1.4424-1.6564 1.4079 1.1564-0.70278 1.3302-1.2448 1.8691zm-3.1165-0.95136c-0.10102-1.4718 1.8801 0.73993 0 0zm2.7268-0.35997c0.73102-0.0452 0.8467-1.9544 0.96741-0.37809-0.0666 0.25951-0.88544 1.0336-0.96741 0.37809zm8.7312-0.80205c0.62596-0.54835 0.92413-1.8161 0.67108-0.20331-0.0326 0.24782-0.58105 0.54684-0.67108 0.20331zm0.52917-2.6081c-0.80122 0.18682-2.6297-1.3908-1.1069-1.2854 0.20354 0.57205 2.0289 1.2889 1.1069 1.2854zm-0.26458-1.4563c-0.45392-0.47716-2.147-1.4662-0.52325-1.6734 0.21426 0.58647 0.19499 0.81961 0.71299 0.44618 0.13058 0.19179 0.03534 2.3616-0.18974 1.2272zm-9.4723-0.96457c-2.2188 0.0609-0.11431-3.4117 0.85803-0.99928 0.60579 0.86574 0.08605 1.3561-0.85803 0.99928zm1.182-0.95992c-0.86065-2.1635 2.6259-0.11355 1.4111-0.0882-0.28874-0.51197-0.69732 0.89746-1.4111 0.0882zm11.101-0.42732c-0.35903-1.0303 0.78058-1.306-0.83102-1.0899 0.20692-0.62849-1.1307-0.96474 0.03659-1.3735 0.46883-0.64814 2.5259-0.633 2.563-1.4229-0.8897 0.31274-3.2649 0.98114-1.6798-0.61598 1.3137-1.2514-0.27542-1.0389-0.72072 0.0328-0.47878-1.0117 1.1271-3.2796 0.33388-3.5344-1.1359 1.2598-0.29996 3.5998-1.2357 4.5519-1.1797-1.0022-0.11131 0.63072-1.2766 0.32906 1.4885 0.0676 0.94364 2.2299-0.12354 1.3411 0.70395-1.9349-2.0806 1.3396-1.476-1.1204-0.74897-1.1775 1.7301-2.7206-0.05329-2.6893 0.18855-2.447-2.6379-0.43056-4.0698-1.4956-1.7504-0.3546-1.6313-2.9751-3.7441-2.1195-1.4873 0.37643-2.607-0.76705-0.99464-1.7208 0.19153-1.2861 2.9809-0.58278 0.82731-0.29119 0.68278 1.422 3.7331-1.5742 4.8189 0.61305 0.87488 0.57107 2.0818 2.187 0.06682 1.5433-0.75986-0.34913-2.5289-0.0807-0.74999 0.3283 1.1769-0.20484 2.8098 0.48774 3.4662 0.67408-0.72712-1.1891-0.81966-2.9584-2.1098-3.6867-0.12614 0.52284 1.7979 2.8875 0.53369 1.6794-1.3694-1.1163-2.5392-2.4547-3.774-3.6935-0.48792 0.43536 1.8049 1.9361-0.1729 1.1733-1.6749-0.0428-2.3857-3.4823 0.01012-2.0192 1.6854 0.89754 3.9526 1.2541 4.6721 3.2967 0.85213 1.9029 1.2013 0.38016 0.83413-0.78744-0.09927-1.2366-0.07066-2.4775-0.07778-3.7166-1.6558 0.97446-4.0789 1.8269-5.5554 0.10279-1.4683-0.8979-1.6452-2.6759 0.09444-3.3501-1.5449-2.7649 2.4058-3.5887 3.9924-1.9328 0.68239 0.71401 1.9206 1.7317 1.4154-0.0731 0.52317-2.9645-3.279-1.139-4.2115-3.0569-1.2883 0.2776-0.6921-1.6469 0.41835-0.63985 1.7276 0.17448 3.5592-0.43635 3.9331 1.875 0.79407 1.9696 2.3683 3.3148 1.6858 5.6906-1.1798 1.7074-0.08881 3.4133 1.3179 4.3266-0.37239 0.7955 0.98836 2.5591-0.63371 1.2736-0.97681 0.0684 0.08467 2.9283-0.12897 4 1.1484-2.224 4.6697-2.1051 4.5514 0.76661-0.03521 1.6223 3.2052 2.4298 1.2978 4.3404-0.81226 1.2266-1.9008 2.2299-3.0925 3.0783-0.05245-0.19562-0.1049-0.39123-0.15735-0.58685zm-1.6511-5.0986c0.16916-0.88433-2.7683-1.0192-0.76098-0.25616 0.38442 0.27296 0.24124 1.1309 0.76099 0.25616zm-3.0114-11.752c-0.87313-0.81464-1.5639-1.8056-2.3538-2.6233 1.3341 1.8712-3.8046 0.0234-1.827 1.2705 0.76971-0.18066 2.9244 0.55035 0.94279 0.54243-0.98037-0.24885-3.1599 0.51611-0.88368 0.48926 1.4969-0.0887 2.9145-0.63163 4.0593 0.52108zm-2.1504 15.95c-0.5167-0.34903 0.71914-0.43079 0.85737-0.42326 0.55117 0.71643-0.49927 1.2398-0.85737 0.42326zm-4.9933-0.50794c0.34731-0.92496 2.5364 0.50848 0.6245 0.42533-0.21454-0.0273-0.61609-0.12756-0.6245-0.42533zm0.39688-0.75383c-1.2179-0.0546-2.6118-1.1185-3.2252 0.0898-2.6475 0.0937-0.94161-3.6672 0.79844-3.8615 1.572-0.57619 4.3279 1.8735 3.7323 2.8886-1.3393 0.45346 2.0074 1.5923-0.2579 1.0712-0.34906-0.0636-0.69831-0.12614-1.0477-0.18808zm10.634-10.049c-0.89588-1.0912 1.1555 0.3302 0.28995-1.0493 1.2988 0.72603 2.1965-0.63038 0.68915-0.58933 0.70505-0.64635 0.49049-0.44459 0.02451-1.1427 1.6793-0.22451-1.7839-1.7214-0.46383-2.3127-1.1263-0.59063-1.0799-0.17023-1.5236 0.49115-1.5711-0.17093 2.1026-2.4635 2.7776-0.55568 0.45629 1.2984 1.3222 2.3587 2.3988 3.2272 0.25569 0.68295-0.95953 1.8491-1.5324 2.2992-0.73306-2.1689-1.7193 0.64431-2.6602-0.36785zm3.153-0.56779c7.29e-4 -0.95025-1.391-0.68967-0.50695-0.1147-0.49722 0.25296 0.87581 0.96508 0.50695 0.1147zm-2.661-8.6027c0.45515-0.82634-0.41745-2.1156 1.064-2.2018-0.1621-0.59693-1.7186-1.93-0.24355-1.3125 2.5861 0.73395 1.1117 3.8031-0.92159 4.1828-0.44273 0.23655 0.14847-0.68569 0.10112-0.66843zm-11.711-3.0778c-2.6255-0.91151-1.4031-5.0794 1.2831-3.7508 1.8055-0.22279 3.9118-1.0922 5.3736-0.32066-0.73256 0.31591-1.3593 0.99198-0.03448 0.8181 0.9314-1.0571 0.28714 0.70043-0.55331 0.39758 0.14445 1.8924-3.0785-2.2036-1.4412 0.20098 0.25568 0.37842 1.9046 1.6832 0.68638 1.0522-1.8343-0.70705-3.9122-0.90942-5.849-0.75887 1.7231 0.68169 3.8904 0.3234 5.641 1.2238 1.3397 1.2934-3.3554-0.19315-3.2669 0.0432 0.03254 1.1599-0.73368 2.0437-1.8392 1.0945zm8.391-2.3517c-0.21505-0.67904-2.026 0.0635-0.56247-0.8093 1.0636-0.56192 0.87095 2.1397 0.56247 0.8093zm0.46302-1.1968c0.08742-2.1828 2.1864-0.81199 3.2411-1.2855-0.75802-0.2562-2.3112-0.57664-0.51355-0.79375 2.3747-0.74263-2.0298-4e-3 -0.83309-0.73886-1.1539-0.19618-1.9652 2.3062-2.4464 1.0825-0.55767 0.0322-1.0168-0.79926-1.0229 0.4281-0.5234-1.5104-0.45435-3.1748-2.6097-3.0854-1.915 0.0704-2.9508-3.5695-0.44671-2.5832 1.6072-0.2776 3.1488 0.15184 3.9588-1.448 2.3546-1.2757 2.1743 3.0449 0.62244 3.8831-0.13103 0.65681-0.52672 2.7013 0.54765 1.473 1.3348-1.1399 5.1723-1.3307 4.8133 1.1776-0.4198 1.0196-2.2372 2.3525-2.9182 1.5036 0.08976 0.71989-2.6472 0.9273-2.3928 0.38671zm-1.2568-4.99c-1.1059-0.50867-2.5932-1.8068-2.2562-0.53321-0.72543-0.18341-2.5482-1.0983-1.125 0.10984 0.88353 0.30721 2.6572 0.93849 3.3813 0.42337zm1.0324-1.3624c1.0702-1.4975-0.90155-1.8427-0.6476-0.20997-0.06426 0.89495 0.26244 1.555 0.6476 0.20997z" fill="#4c756f"/><path d="m71.185 209.12c-1.9649-0.47695-0.86646-4.6363 0.55056-2.0462 0.12056 0.55929 0.51141 2.2182-0.55056 2.0462zm-6.0193-2.2258c-1.5269-0.68762 1.0781-1.2716 1.0532-0.2405 1.6034 0.40827 0.69813-2.6786 2.3358-0.97584 2.7029 0.28745-1.5822 1.7825-2.6149 1.3776-0.26254-0.0177-0.53332-0.0455-0.77403-0.16121zm-1.5214-1.4342c-0.95887-0.98329-3.4312 0.62214-3.7162-0.28882 1.4343-0.31807 2.9251-2.8632 3.4737-0.44906 0.37269 0.40159 1.2911 1.6123 0.24244 0.73793zm-5.968-0.95996c-0.87331-0.72614-0.95902-2.1831-0.07171-0.57305 0.27442 1.0951 1.7407 0.91034 1.7842 0.99144-0.35521 0.95027-1.3557-3e-3 -1.7125-0.41839zm12.631 0.0518c-1.1042-0.93787 1.9194-0.90151 0.20269-1.9478-0.95242-1.5394-0.95639-3.3154-1.1634-5.0952 0.13745-1.231-1.5289-0.26357-2.1862-0.77185-2.0392 0.26166-1.8923-3.1882-0.17007-2.5988 0.76078 1.4624 3.6011 0.66729 2.8771 3.0652-0.35912 1.8331 1.4132 2.4298 1.5852 3.7764-0.50995 1.7407 1.7225-1.3904 0.13135-1.6086-0.62919-2.3908 2.4005-3.0387 1.7643-0.25676 1.3099 2.0626-1.0028 2.7326-1.8917 3.8316 1.385-0.55603 3.23-1.5526 4.3117-2.0135-1.5621-0.25781 0.94009-2.6902 1.6335-3.0613 1.3471 0.46117 3.2384 0.10965 4.0703-0.96443-1.1318 0.21308-3.5965 1.3026-4.0752 0.17377 0.45369-0.86355 1.6183-1.8543 1.3414-2.7397-0.73614 1.5103-1.361-0.96714-0.30331-1.0929 0.20383-1.2362-0.39892-0.86106-0.88477-0.88072-0.25296-2.2042-0.69904 0.23428-0.4124 1.1457-0.14219 0.88967-2.2997 0.29455-0.79646 0.82154 2.5688-0.67448 0.48862 3.2549-0.37061 4.1196-0.47846 1.2124-2.445 3.0321-2.1334 0.47551-0.08211-1.4474 2.164-0.72397 1.9428-2.5063 1.4417-1.8788-1.8897 0.94457-0.33273-0.83458 0.84567-0.59451-0.24421-2.0065 0.24993-2.3924-0.56011-1.4271 0.58022-3.0329 1.8008-3.7939 1.8334 0.80719 2.2059 3.3076 3.9909 4.2534 2.112 1.1909 1.6237 4.0621 0.20495 5.5972-1.0812 2.0986-4.238 1.2538-4.9523 3.5141-0.60464 2.0182-2.7901 2.6633-4.6292 2.0093-0.63718-0.17441-1.3032 0.39568-1.805-0.22475zm-13.41-3.3827c-0.05943-1.1593 2.2582-3.4088 0.99102-1.1742-0.83109 0.35496 0.72259 1.9538-0.99102 1.1742zm1.6509-2.5651c-0.64102-1.2739 2.8037-1.0162 0.69457-0.39503-0.76813-0.0975 0.15242 1.4105-0.69457 0.39503zm1.5348-5.9447c-0.35072-0.80846 0.33093-2.4301 1.4488-1.1475 0.4615 0.94246 0.98653 1.5266-0.58052 1.3386-0.29376-0.0262-0.60308-0.0469-0.86832-0.19117zm1.993-0.97765c-0.03896-1.8003 2.5119-0.24193 0.53785 0.42451l-0.30867-0.0982-0.22918-0.32633zm11.125-0.16184c-0.46554-0.95949 2.2896-2.6755-0.13439-2.3722 0.56845 0.99943-1.3508 1.927-0.67723 0.40024-1.0624-0.40894 1.6361-1.5469 2.5107-0.75804 0.85514 2.2322 0.13034-1.8971-0.28211-2.26-1.9074-0.41575 1.6391-1.1831 1.9765 0.12552 1.0811 1.9326-1.2057 3.6807-2.485 4.8784-0.48082 0.28087-0.84249 0.98192-0.90844-0.014zm-11.806-1.2484c0.60673-0.75507 2.3469 0.16432 0.64584 0.26459-0.14411-0.0547-0.5917 3e-3 -0.64584-0.26459zm9.0895-0.65626c0.43655-1.7691 1.6359 0.60062-0.0251 0.32745l-0.03073-0.12132zm-1.6812-1.3188c-0.49508-1.695 1.6693-2.6666 2.5405-1.5587 0.93711-1.6732 1.1081 2.5546-0.26195 1.0665-0.65597 0.4808-2.376 3.2225-2.2732 0.78222l-0.0054-0.29045zm-11.52 0.89956c-0.54718-2.0367 1.6674-4.6002 3.7448-3.2809 1.0896 0.71792 3.3064 2.1241 1.6898 3.0285-1.1163 1.2724-3.3532-1.0172-4.5956 0.52196-0.29051 0.0176-0.65445-6e-3 -0.83898-0.26949zm15.481-1.5556c1.9259-2.5935-0.20687 2.0935 0 0zm0.30931-1.889c1.0247-0.68122-1.0802-0.11855-0.08585-1.3931 0.45016-2.4185-0.72444 1.1623-1.3979 1.4152-1.1406-0.27118 1.5053-1.6668-0.51432-0.9591-0.88606 0.66232-2.7868-0.53812-4.0967-0.1024-1.7217 0.1475-4.1981-0.70482-4.1699-2.6235-1.1301 0.0646-5.2137 0.67261-3.0013-1.3418 0.67662-1.2872 2.1843 1.2294 2.9774-0.37106 1.248-1.3401 4.817 1.5632 3.6121 2.1476-0.8441-0.25495-3.6801-0.48512-1.3819 0.30878 1.0806 0.11187 3.4357-0.2591 2.7518 1.5797 1.4847-1.2527-0.70263-3.4208-1.3414-4.7235-0.84809 0.14992 1.5825 2.7374 0.55503 1.9226-1.2513-1.2008-2.7744-2.2794-3.5705-3.8244-1.6683-0.8303 0.72186 1.527 0.26323 1.373-1.3726 0.0835-3.1496-1.6054-1.9153-2.6463 1.9203 0.95083 4.5473 1.325 5.5755 3.4106 0.33724 0.88871 1.2999 2.2426 1.096 0.35216-0.24156-1.2129 0.65505-4.1852-0.7196-4.2644-1.9936 1.1534-4.7737 1.0975-5.8863-1.2425-1.3157-1.6963 2.0869-1.9114 0.75144-3.6389 0.30956-2.4242 4.0376-1.4042 5.0061 0.13792 1.1425 1.4207 1.1846-3.4215-0.6279-2.6925-0.9176-0.21453-3.3118-0.23607-2.1529-1.3724-0.67169 0.3624-2.2738-0.89623-0.79252-0.52289 2.2491-0.13296 4.5129 0.62848 4.749 3.1895 0.80618 1.297 2.0283 2.8831 0.9195 4.3692-0.33606 1.7539-1.2021 3.738-0.27243 5.3822 0.89297-0.87637 1.4324-0.70311 0.37646 0.2578-0.80123 1.13-0.103 0.75351 0.38398 0.15977 0.70406 1.1872-0.24591 3.7939 0.68798 4.262 0.30438-3.0317 5.1604-2.1401 4.2683 0.91285-0.60254 1.4678-0.11487-2.17-0.85153-0.74758 0.6014 0.73481-2.447 2.7779-1.1957 1.2852zm-5.1652-11.85c-0.65291-0.42843-2.059-2.9386-1.5889-0.92971-0.96238 0.43863-3.2321-2.3388-2.1342-0.18668-1.5256 0.77401 3.9743 0.66354 1.1156 1.0739-0.90236-0.21992-3.1613 0.44696-0.96149 0.52866 1.5228 0.0229 2.9571-0.86446 4.0727 0.58026 0.3298-0.27445-0.35924-0.848-0.50374-1.0664zm0.80261 11.749c0.44618-2.1698 1.4638 1.5144 0 0zm6.6409-7.4358c-0.64066-0.57531-1.1012-1.2429-1.712-1.6716 1.6156 0.29928-0.30269-0.92729-0.26174-1.3524-0.25688-0.61279-0.25256-0.54823 0.14095-1.1982-0.9927 0.32891-1.8179-0.45057-0.34139-0.50298 1.7256 0.72624 1.6871 3.013 3.3488 3.9924 0.19136 0.88406-0.47913 1.4625-1.1746 0.73275zm0.41271-0.79169c-2.271-1.3458 1.0721 1.6159 0 0zm-2.8107-7.1929c1.2756-0.67456-0.91923-2.4478 1.0172-2.0748 0.68357-0.16985-1.1629-1.3872 0.36695-1.3757 1.8668 1.2531 0.14017 3.7101-1.4719 3.7884l0.0877-0.33788zm-11.691-3.1993c-2.5198-0.92244-1.587-4.6855 1.1639-3.7478 1.572 0.35041 4.895-2.1243 4.4499 0.74884 0.21702 1.3541-1.2055-0.86805-1.7431-0.55662 0.15454 0.66614 1.9962 2.0056 1.7249 2.1238-1.9209-0.85596-4.1425-1.1205-6.2095-0.86932 1.6778 0.88161 4.5009 0.16828 6.1566 1.5486-1.1685 0.99517-3.4774-1.1696-3.8313-0.30045-0.10693 0.98081-0.72548 2.1012-1.7114 1.053zm10.186-3.4993c-1.8502 0.38046-0.75596-2.2222 0.71985-1.121 2.0251 0.0866 0.4538-0.46754-0.32298-0.71329 0.70149-0.16101 2.729-0.73708 0.80941-0.71525-1.0636 0.43378-0.60897-1.4595-1.5843 0.0635-0.55096 1.7002-2.4036 0.467-3.0421-0.14668 0.30211-2.6243-4.3168-1.0326-4.2149-3.8755 1.1095-1.6277 4.3633 0.49449 5.1787-1.687 2.8588-1.6293 2.4167 2.796 0.90475 3.9986-0.51561 1.3785-0.06792 1.8488 1.1334 0.9061 1.6229-1.3364 5.4238-0.50828 4.0736 2.0861-0.93611 0.56904-1.9021 1.3558-2.6595 0.60857-0.10318 0.24876-0.83908 1.4134-0.9959 0.59588zm-2.6458-5.0093c-1.1092-0.49531-2.5108-1.8576-2.2562-0.55005-0.72314-0.18756-2.5451-1.1046-1.1792 0.15255 0.99643 0.31231 2.5397 0.91947 3.4355 0.3975zm1.0901-1.5892c0.88284-1.5393-0.94922-1.5105-0.7063-9e-3 -0.13411 1.3262 0.38743 1.3741 0.7063 9e-3z" fill="#33625b"/><path d="m70.382 208.5c-0.63119-1.0508-0.27316-3.2299 1.1379-1.7796 0.50309 0.99282 0.42145 3.2672-1.1379 1.7796zm-5.297-1.7929c-1.2843-1.3384 3.3691 1.3045 2.3407-1.1989 0.59207-0.64649 1.0565 0.85099 2.0122 0.58382-1.1523 0.60104-3.1655 1.6454-4.3529 0.6151zm-4.2012-1.9248c0.7832-0.77852 2.4535-1.4307 2.6267 0.37491-0.48582-0.15855-3.0902 0.6762-2.6267-0.37491zm11.142-0.10583c-1.0374-0.18126-2.1752-0.49157-0.85378-1.3126-1.3926-1.5186-1.622-3.7449-1.7985-5.802-0.46406-1.36-4.8629-0.45372-3.4871-2.8164 0.16748-1.9129 1.6539 0.7741 2.7459 0.57158 2.4964 0.29652 0.25248 4.3121 2.7583 4.9138-0.27909 0.91337-0.08673 2.4544 0.69472 0.85288 0.93946-1.016-1.7344-3.7611 0.8143-3.5299 0.72751 1.766 1.4121 4.4109-1.2364 4.8731-0.02304 1.3772 2.5982-1.3994 3.659-1.1552 1.5639-0.67209-1.3875-0.24165 0.29062-1.4723 0.53937-0.62262 0.94588-1.6201 1.5669-2.0289 1.3272 0.72075 2.8875-0.26698 4.0285 0.0919-0.16265 1.5528 0.43262-2.5394 0.97128-0.63078 0.81139-0.3839-0.38399-0.86392-0.12588-1.3823-1.0487 1.2235-3.4491 2.2358-4.6809 1.3953 0.53429-1.001 1.6339-1.9005 1.5517-3.0767-0.25726-1.0878-0.81114-1.7586-1.3887-2.2902-0.22666-1.5116-1.0577 1.1145-0.79375 1.2704 0.45202 0.67459-2.1091-0.9-0.98856-1.5852 0.38513-2.0345 3.0497-2.4228 3.6247-0.25198 0.6425 2.0183 3.4866 2.5209 3.4863 4.8231-0.06017 2.4759-2.1119 4.4562-4.4414 4.993-2.0802 0.51412-1.8792 3.9506-4.4322 3.9223-0.66381-0.0688-1.3164-0.22199-1.9654-0.37292zm1.9851-4.6443c-0.79226-1.4592 0.42844-1.8597 1.4219-2.223 0.7207-1.3355 1.1794-2.0075 0.33791-3.4226 2.3135-1.1354 2.0229 2.0216 0.78906 3.1418-0.5259 0.3802-2.0242 3.8171-2.5488 2.5038zm-15.525-1.8292c1.2631-1.4028 1.925 0.29655 0 0zm19.496-3.7321c-0.36324-1.8349 1.2316 0.44433 0.0932 0.31191l-0.09319-0.31191zm-17.331-1.7558c-1.6499-0.0295 0.37471-2.9717 0.85958-0.75287 1.2514 0.99117 0.35473 0.98252-0.85958 0.75287zm1.4654-1.1174c-0.11326-1.4656 2.1999-0.36626 0.57338 0.44848-0.28574 0.0765-0.525-0.19143-0.57338-0.44848zm11.318-0.0128c-0.47928-0.50692-0.43196-1.074 0.37282-1.1096 0.79064-1.0302 0.35963-1.2995-0.93896-1.6448 1.6858-1.0937 2.6574 0.70012 1.6993 1.6606 1.5232-0.91299 0.01074-3.8721 0.8247-4.4079 3.0013 1.0656 0.39059 4.1286-1.1387 5.3015-0.10756 0.12484-1.0099 0.85272-0.81911 0.20014zm-12.039-1.3229c0.60673-0.75507 2.3469 0.16432 0.64584 0.26459-0.14411-0.0547-0.5917 3e-3 -0.64584-0.26459zm9.3211-0.84336c1.1128-1.417 0.6607 1.1898 0 0zm-1.9127-0.23236c0.93075-0.74591-0.59527-2.1539 0.66028-2.1124-0.22892 0.91582 1.7911 0.50572 0.66264 1.4992-0.2466 0.59139-1.0959 0.0726-1.03 0.89518l-0.20686-0.0828zm-11.546-0.37921c-0.05328-2.1207 1.8669-3.7721 3.9391-2.8401 0.95114 0.59457 1.6767 1.6993 1.9372 2.1139-0.87638 0.0972-1.2843-0.23655-1.9429 0.57539-1.2309 0.064-0.81851 0.0671 0.03069 0.49539-1.536-0.8055-2.6851 0.52288-3.964-0.34457zm4.1375-0.79402c1.3015-0.46312-0.70533-2.5627-0.30439-0.76116-0.16547 0.58258-0.76084 1.9093 0.30439 0.76116zm9.7379-0.34933c-0.45743-0.84182 1.4324-1.8621 0.93114-0.0823-0.0424 0.48323-0.6847 0.1661-0.93114 0.0823zm-6.367-3.3483c-2.0909-0.0965-1.3255-3.1056-3.6796-2.2555-0.90582 0.10685-2.5894-0.23897-0.71599-0.29044 1.3503 0.26834 2.39-0.28306 2.5905-1.5904 1.3929-0.67621 4.2054 1.5511 3.6079 2.2888-0.89518-0.18424-4.1323-0.64685-1.6488 0.29714 0.90826 0.34886 3.9201-0.20442 2.2465 1.4937-0.84701-0.13532-1.5534 0.55985-2.4004 0.0566zm3.6042-0.5434c0.06031-0.88056 1.271-0.54802 0.88329-1.6923 0.97179 0.57157 0.59539 0.43703 0.85477-0.40551 0.3965 0.34991 0.59705 2.7973-0.44125 1.7283-0.49842-0.21484-1.4646 1.6086-1.2968 0.36956zm6.0556 0.22933c-0.43576-0.66546-1.0371-2.0019-1.3891-0.61852-0.97713-1.4642-0.37884 1.2818-1.8961 0.36617 0.03541-1.665 3.799-2.0229 3.9008 0.2413 0.0012 0.35217-0.53452-0.0167-0.61566 0.0111zm-6.701-2.2899c-0.15284-1.1999-1.1946-2.8892-2.1376-1.4582-1.187-0.24573-2.2112-3.5701-2.7603-2.2015 1.9446 1.7663-2.3756 0.54114-1.4052-1.1557 1.2858-0.49611 3.7963 1.1719 5.2404 1.9942 0.51908 0.92228 2.0584 3.9312 1.8953 1.1515 0.14758-2.5014 0.41814 0.54023 0.33822 1.4104 1.4215-0.18869-0.99068 0.61836-1.1708 0.25932zm-4.6814-5.6131c-1.4109-0.86532-2.1138-3.0022-0.26127-3.554-0.63139-2.2825 1.435-3.5588 3.334-2.35 0.94505 0.15718 2.6031 3.1302 2.732 1.3301-1.113 0.25219-0.34926-3.2494-0.19762-0.7703 1.1707 0.82108 0.54555 3.0888-0.77861 1.3957-0.70332-0.7931-2.3084-2.985-2.278-0.76414-0.55376 0.57964 1.5134-0.15769 0.6887 1.2354-1.3153 0.88837-1.8763-1.7828-1.7908-2.1041-0.40595 0.95768-1.6942-0.86904-1.4532 0.90549 1.1671-0.88237 1.1061 1.5448 0.89308 1.828 1.9149 0.32333-0.0596 0.58559-0.68461 0.87147 1.5544 0.15708 2.9768 1.22 4.3639 1.4682-0.21042-0.78575 0.47442-1.1288 0.22727-0.19274 1.1985 0.0177-1.8075 1.3186-2.4727 1.2382-0.82244 0.17149-1.7021 0.0899-2.3222-0.53741zm10.855-1.0648c0.69291-1.6296-2.9465-1.2129-0.62253-1.5189 1.7139-0.25608 1.2477 3.7103 0.62253 1.5189zm-5.0625-1.2493c-0.96664-0.98827 2.18-1.1883 0.24682-0.11575 1.2657-0.29412 0.80552 0.59573-0.24682 0.11575zm4.2733-3.6239c0.52509-0.69915 0.81099-0.84403 0.3639-1.7334 0.67477-0.096 1.7774-1.5265 0.54042-0.83732 0.42534-2.0785 1.9971 2.0956 0.2331 2.2938-0.25077 0.0426-1.3186 1.2384-1.1374 0.27695zm-7.3483-1.7769c-1.1306-0.49302-0.7985-0.34736-0.13229-0.61509 0.27887-0.47301 1.2251 0.82214 0.35494-0.34645-0.30482-0.97947 1.2454 0.85175 0.93594-0.55566 0.52809 0.26689 0.5545 1.2801 0.71028 1.4886-0.59857 0.19299-1.2609 0.15742-1.8689 0.0285zm-4.2655-1.2671c-2.6613-0.85019-1.8884-4.9563 1.0827-3.7812 1.417 0.10473 4.3155-1.717 4.2155 0.81977 0.25288 1.2215-1.4261-1.5886-1.5458-0.57849 0.12629 0.61617 1.8982 2.0277 1.6238 2.0474-1.0484-0.8009-3.1606-0.92037-3.524-1.4666 0.16539 0.92524-4.108 0.0329-2.019 0.94852 2.3959-0.96732 1.8396 2.9092 0.16688 2.0106zm2.8609-0.8916c-1.9683-1.4297 4.3055-0.11989 1.656 0.19844-0.55526-0.0227-1.1147-0.0665-1.656-0.19844zm6.6463-3.1868c-1.3755-1.8979 3.2332-0.0104 0.43906 0.34486l-0.19323-0.14322-0.24582-0.20166zm1.9387-0.16028c0.59019-0.88098-0.06337-0.78664-0.83036-1.1906 0.74351-0.19335 2.2993-0.76443 0.5592-0.74704-1.1298 0.43753-0.49892-1.4189-1.5479-0.0161-1.0907 2.0629-3.2127-0.40364-3.4942-1.5935-1.4136 0.34591-5.0612-1.6035-3.1695-2.8215 1.6004 0.19828 3.7997 0.33416 4.7742-1.3156 2.7784-1.1512 2.0535 3.0244 0.5149 3.958-0.41713 0.94075-0.0594 2.8269 0.87012 1.3142 1.4308-1.538 5.9943-0.75732 4.2612 1.781-0.42235 0.20186-1.6455 1.6252-1.9376 0.63109zm-4.0054-4.3656c-1.1756-0.70889-2.6842-1.7299-2.4285-0.53321-0.73838-0.15161-2.3353-1.3866-1.3227 0.1589 1.0859 0.2712 2.8926 0.88917 3.7512 0.37431zm0.88357-1.2031c1.0523-0.92824-0.57411-2.7113-0.65859-0.84872-0.13746 0.63202 0.15716 2.2965 0.65859 0.84872z" fill="#295a52"/></g></g></svg>
