<?xml version="1.0" encoding="UTF-8"?>
<!-- Created with Inkscape (http://www.inkscape.org/) -->
<svg width="38.833mm" height="57.752mm" version="1.1" viewBox="0 0 38.833 57.752" xml:space="preserve" xmlns="http://www.w3.org/2000/svg"><g transform="translate(-66.092 -153.81)"><g transform="translate(18.9,-13.5)" stroke-width=".26458"><path d="m61.406 222.22c-2.1584-5.025-3.5894-10.336-6.04-15.243-1.3666-3.0291-2.7316-6.0756-3.9039-9.1774 0.56978-1.9838-1.0817-4.1946-1.2455-6.3199-0.35879-2.7321-2.0919-5.0482-3.0247-7.6053 2.2142-0.11055 3.2507 2.9688 4.6703 4.4354 0.68835 1.1673 1.8996 2.343 1.1489 0.16107-0.84764-1.4845 0.78327-2.5728 1.1068-0.55364 1.3223 3.7164 2.512 7.5323 4.3469 11.028-0.19171-2.0831-1.2031-4.3676-1.5875-6.5529-1.2532-4.2896-2.5158-8.5763-3.4453-12.951-0.15007-1.6599-1.7491-3.9605-1.0823-5.2434 1.7628 1.2214 2.1044 3.6498 3.1826 5.427 1.4438 3.1216 2.933 6.279 4.0666 9.4961 0.0071-1.9005-0.71699-3.9991-0.98707-5.9754-0.37225-2.4266-1.4928-4.6789-1.8594-7.0882 1.8034-0.12707 2.3842 3.4252 3.2039 4.9939 0.63743 1.3727 1.4628 5.2386 1.9875 5.006 0.18585-6.0569-0.10316-12.156 0.7042-18.177 1.5033-1.0564 1.6192 3.371 2.1201 4.707 0.48542 1.9629 0.81455 3.9592 1.0366 5.968 0.05484-1.23 1.3976-3.8619 1.6078-1.1406 0.36824 1.8398 0.06491 6.3016 0.65756 6.5619 1.1572-5.0996 2.7908-10.123 4.9765-14.877 0.24718-1.3194 2.4135-3.0096 1.7366-0.48576-0.82602 3.0073-2.0181 5.9164-2.3408 9.0431-0.88227 4.7397-2.024 9.4463-2.609 14.232 0.91735-1.8122 1.4504-3.966 2.2481-5.9012 0.69034-1.0944 0.91569-4.5002 2.4633-3.7122-0.15062 1.049-0.58744 2.9652 0.14143 1.0404 0.18336-1.2579 1.9805-2.3668 1.3303-0.32564-1.2156 3.5985-1.673 7.4001-2.8954 10.995 3.5848-5.6705 6.7044-11.748 11.339-16.667 1.0814-1.4014 2.2586-0.42902 1.0622 0.87861-3.5037 7.4123-7.3307 14.668-10.813 22.09 1.0919-0.95314 2.0456-4.8004 3.2925-3.9565 1.22-0.7823 1.9466-4.1011 3.3236-3.6334-1.5055 4.2916-3.6187 8.3643-5.3801 12.562-2.7499 6.3612-5.5976 12.681-8.1284 19.135-1.0171 1.084-2.8429 0.42747-4.2438 0.59531-1.1096 0.37028-1.2387-0.76938-1.6147-1.529-0.18442-0.41402-0.36884-0.82803-0.55326-1.242zm2.2164-13.016c-0.71032-5.6624-0.80626-11.418-2.0504-17.003-0.76524-0.92036 0.31294 2.5316 0.30169 3.2191 0.83941 5.3855 0.86577 10.906 1.9108 16.241 0.06374-0.81732-0.08848-1.6444-0.16217-2.4576zm-3.4714-0.78712c-1.9751-4.2484-3.4557-8.7009-5.1819-13.046 0.08698 1.5772 1.2385 3.8506 1.8327 5.6407 1.2984 3.1262 2.3731 6.4107 4.0708 9.329-0.11439-0.67298-0.46461-1.2958-0.72164-1.9232zm6.1027-11.339c0.0089-1.924 0.11997-4.6748-0.09463-6.0725-0.27625 5.455-0.34402 10.921-0.59233 16.377 0.3352-3.4261 0.5711-6.864 0.68696-10.305zm2.2345 8.599c0.37289-2.8903 1.13-5.7184 1.7693-8.5475-1.0821 1.6645-1.1954 4.1659-1.6453 6.2179-0.1135 1.2833-0.78006 3.5036-0.55142 4.1817 0.25007-0.58445 0.33102-1.2285 0.42736-1.8521z" fill="#b6c7c4"/><path d="m62.897 224.77c-0.93602-1.79-1.9364-3.5618-2.6871-5.6315-1.5744-4.6287-3.2929-9.205-5.398-13.622-1.0856-2.6121-2.3586-5.1522-3.3334-7.8059 0.70751-2.1863-1.4158-4.5048-1.2357-6.8096-0.09174-1.8868-1.6923-3.8335-2.419-5.6991-1.475-2.6637 1.7409-0.54548 2.0786 0.62179 1.237 1.4925 2.3228 3.1346 3.4978 4.6489-0.12951-1.0081-1.2768-5.086 0.52178-2.7747 1.002 2.5357 1.5324 5.2384 2.8003 7.6754 0.72146 1.5334 1.9602 4.9 2.5011 5.1373-0.29319-1.0179-1.3739-3.2748 0.02538-2.5184 0.85083-1.2189-2.5786-1.5143-0.18192-1.5082 0.15388-1.5037-2.0364 0.22408-1.0491-1.6215 1.4276-0.43-1.9848-1.1845-0.66184-2.671-0.80988-1.3641-1.7648-4.4167-2.3348-6.4837-0.49236-2.123-1.5955-4.681-0.79786-6.6292-1.271-0.54107-2.2826-3.663-1.74-4.7618 1.6826 1.7947 2.3802 4.3993 3.5618 6.5742 1.3029 2.6938 2.2959 5.5298 3.5355 8.2425 0.59962 0.37853-0.3624-2.4256-0.40848-3.3697-0.48406-3.1756-1.4911-6.2319-2.3058-9.3218 0.5367-1.7828 1.8899 1.9868 2.3295 2.6711 0.88224 2.135 1.1672 4.4525 2.1853 6.5512 0.30418 0.76821 0.75862 2.3944 0.61957 0.64066 0.03594-5.8297 0.24315-11.657 0.56821-17.476 0.76319-3.1559 1.7996 2.0181 2.0021 3.2108 0.59272 2.0334 0.46292 4.4254 1.2669 6.2748 0.29758-1.0946 1.2371-3.5073 1.4625-0.93439 0.4973 2.9623-0.16834 6.0634 0.60243 8.9634 0.84143 0.25507 1.3164 1.6972 2.5442 0.57601 0.13659 0.92978-1.099 4.0371-0.79665 1.7441 0.39272-1.0024-1.0317 0.82398-0.50744 1.1816-1.3927 0.9897-0.34192 1.1054 0.55219 0.3689 0.60264 0.96954-2.7034 1.0069-1.786 2.2299 0.44149-1.5472 2.6773-0.62031 1.3326 0.70578 1.7782 0.19204 0.46482-1.6628 2.0025-2.4648-1.588 1.0345 0.11852-2.651 0.93683-3.1612-0.19184-1.1339 0.59843-3.887 1.7109-5.4668 1.3552-0.47566-0.67909 4.6058 0.78559 1.4539 0.17529-1.3811 2.3841-2.363 1.1937-0.26617-0.0967 1.208-1.2246 2.7305-1.4714 2.9164 0.54039 2.3462-0.51518 4.7537-1.1683 7.0021-0.22586 0.8298-1.2026 2.9977 0.14422 1.4932 0.78588-0.073-0.12291-1.6858 0.96254-2.4027 3.0529-5.186 6.2129-10.373 10.135-14.953 2.7164-2.159 0.17297 2.739-0.33627 3.7321-2.5537 5.1344-5.1757 10.249-7.7905 15.344-0.5432 0.35378-1.7211-1.204-1.1755 0.30136 1.7021 1.3641-1.3779 4.1284-1.5555 6.037-0.97955 2.9497 0.96459-1.5398 1.3722-2.4233 0.92392-1.6198 1.8786-4.6056 3.3563-4.2046 0.83026-0.72218 2.1397-4.3452 2.9025-3.1857-2.3942 5.7418-4.9405 11.426-7.4945 17.103-2.021 4.8189-4.1522 9.5959-6.1421 14.43-1.4297 0.53732-3.2105 0.63552-4.7133 0.33541zm1.1298-12.816c-0.95429-6.5706-1.0901-13.239-2.2157-19.786-2.1003-2.2941-0.10172 1.9867-0.09684 3.0619 1.0753 5.7446 0.9504 11.66 2.185 17.376 0.31376 0.68936 0.16384-0.58851 0.12752-0.65233zm-3.8199-3.5549c-1.9837-4.242-3.5095-8.6786-5.1409-13.057-0.69198 0.37223 1.0791 3.6249 1.3997 4.9602 1.4159 3.5419 2.7043 7.1682 4.5546 10.51 0.2319-0.38799-0.61558-1.7979-0.81338-2.4131zm6.0335-8.8144c0.12566-3.4847 0.33637-7.0161-0.11556-10.478-0.29229 1.9083-0.16756 4.1875-0.26037 6.2382-0.0054 4.5049-0.34075 9.0002-0.54136 13.495 0.47094 0.57061 0.40868-2.8255 0.5604-3.6757 0.12695-1.8591 0.2419-3.7191 0.35689-5.579zm2.0798 7.0776c0.67376-3.3205 1.1846-6.7331 2.2431-9.9359-1.4824 1.3748-1.4018 4.1865-1.9718 6.1851-0.11128 1.1852-1.1048 5.0459-0.49096 4.7319l0.1083-0.44168zm3.3478-9.9416c1.2033-2.4289-1.6196 0.61325 0 0zm-7.5429-3.3559c0.3799-1.1828-0.39784-3.1143-1.0046-1.0241 0.93594 0.81481-0.09829 1.9 0.88246 3.2753 0.15448-0.73296 0.09647-1.5054 0.1221-2.2512zm5.8208 0.3835c-1.5335-1.1643-0.66218 1.1802 0 0zm-9.9502-2.7842c0.25689-1.6455-0.20812-1.0314-0.53382 0.0259-0.98696 0.57192 0.53836 0.45437 0.53382-0.0259zm12.017-1.9462c-0.20619-0.92183-1.2586 1.1004-0.18376 0.27925zm-2.6797-2.3049c0.3757-0.96738 0.32286-0.8478-0.69206-0.73168 1.5083-1.3798 2.8868 0.11891 0.80997 0.75384l-0.11791-0.0222zm-1.3286-1.8127c0.72628-4.489 2.5758-8.6727 3.7897-13.026 0.62622-1.2402 1.7991-4.9543 3.0882-4.4133-0.43444 2.9824-1.7995 5.7592-2.2576 8.7532-0.62866 2.9653-0.97973 6.0127-1.8916 8.9054-0.98656-0.23264-2.582 0.0818-2.7974 0.3545l0.02622-0.24382 0.04245-0.33033z" fill="#92aba7"/><path d="m62.506 223.66c-1.1552-1.9456-2.2147-4.0277-2.8992-6.2587-1.1719-3.6158-2.519-7.1666-4.1796-10.587-1.2099-3.1947-2.9839-6.1993-3.8449-9.5075 1.2628 0.76337-0.62706-2.4651-0.72901-3.6228-0.54174-2.2153-0.63061-4.4035-1.9986-6.3647-0.73207-0.99526-2.0943-5.1248 0.15956-2.4678 1.6059 1.8398 3.1346 3.9997 4.3992 5.9514-0.07059-1.0729-1.0071-5.5182 0.60485-2.9106 1.0201 1.5136-0.28863 3.0431 0.70388 4.3132 1.1026 1.1331 1.8628 3.276 2.7887 5.1536 0.38794 0.75409 1.4568 3.8761 1.7456 3.1267-0.7987-1.8314 0.88672-3.3546-0.46138-5.2094-0.73045-2.0826-1.0473-4.4107-1.9564-6.3606-2.029-1.1479-1.8161-4.2739-2.5834-6.3265-0.39235-1.443 0.82039-1.0904-0.43719-2.4595 0.2776-0.91621 0.5253 1.1333 1.7122 0.48801 1.271 1.6267 2.4469 4.4101 2.8112 6.0433-1.0871-0.71489-1.7883-1.5867-2.0526-0.11341-0.72008 1.7786 3.0153 1.7568 2.5314 4.0151 0.38934 1.9384 1.6606 4.1754 1.5988 5.6863-1.0541 0.25382 1.4293 0.95156 1.5112 0.38345 0.76835 5.7671 0.93217 11.635 2.2074 17.322 0.24705-1.5179-0.564-4.657-0.6364-6.7372-0.23806-3.1436-0.80315-6.3006-0.62605-9.4544 0.74517-0.25788 0.81262-1.384-0.33793-0.81677 0.69644-1.123-1.188-3.8548-0.49709-5.7482 0.50623-1.7096-2.2203 0.71696-1.5573-0.85222 1.1674-0.40774 1.6837-1.7857 1.6403-3.4029 0.82364-0.0889 3.2355-0.39499 2.5786-2.5807 0.52759-2.2776 0.03133-4.0546 1.2838-5.91 0.10899-1.8 2.3216-0.55146 0.52051-0.32896 1.1886 0.13606 0.54921 2.6218 0.47483 0.60555-0.57328 1.1434-0.51949 2.075-0.96754 2.9105-0.09241 2.2219 0.88059 3.638 0.37717 5.3138 0.27905 0.72477 0.07781 3.7875 0.53699 1.5179 0.45943-0.83035 0.05037-1.8212-0.13419-2.1093 0.7425-0.27747 0.57693-3.767 0.7316-1.3587 0.1099 1.7355 1.0727 1.7039 0.36087 3.2892 0.04591 2.3454-0.27229 4.8398 0.24613 7.0966 1.3097-0.37226-1.5908 1.9726 0.27376 1.8469 1.8537-0.77378 0.14099-2.9784 1.6227-3.268 0.86096-2.1996 1.7588-4.4197 2.6855-6.5558-0.12025-1.45 1.9602-2.2753 2.1768-4.2083 0.79792-2.2218 1.9474-0.9119 0.69301 0.70971 0.22276 1.4144-2.8535 2.2616-1.3923 3.1975 0.8665-1.6365-0.16786 1.9502-0.06622 2.705-0.43142 1.9586-0.71401 4.1596-2.5747 5.0553-0.52968 1.5591-1.5924 4.7196-1.1618 5.6585 0.51583-1.9294 1.3352-3.9041 2.8022-5.3125-0.93854 0.74872-0.84987 2.7158 0.27647 0.97315 1.0307-2.0488 1.2669-4.2641 2.2086-6.2338 0.58476-2.8136 3.9614-0.59113 4.3883-2.7612-1.2233-0.85045-0.28878-1.4635-0.34185-2.3371-0.84663-0.30567 0.58045 0.95398-1.0106 0.8091 0.14779-1.7294 2.7333-4.2483 3.941-6.1317 0.49591-0.93012 3.7874-4.6341 2.7839-1.597-0.94356 2.9068-2.5852 5.5225-3.9962 8.2148-0.47814 0.70292-1.2588-0.62839-0.54933 0.58882-0.16207 2.0464-2.6769 5.0882-2.851 5.8115 0.09824 0.9086-1.3875 2.1947-0.82548 0.48791-0.88275 0.51954 0.72438-0.97192-0.6072-0.66245 1.542-1.6358-1.6804 0.58504-1.2069 1.8827-0.3717 1.3095-0.8357 3.1918 0.178 3.624-0.93701 2.3795-2.2168 4.7419-2.8352 7.1817 1.7405-2.95 2.6775-6.386 4.8264-9.0945 0.70769-0.25999-0.34363 2.2194 0.65295 0.56548 0.7442-0.95916 2.1916-4.3392 2.875-3.7253-1.5546 4.4566-3.7438 8.6541-5.5072 13.016-1.063 2.1262-2.2153 4.1061-2.8121 6.405-1.9343 4.0523-3.4672 8.3393-5.3756 12.363-1.5333 0.91366-2.1984-1.4702-2.7891 0.0489-0.87937 0.19357-2.0347 0.18216-2.1079-0.9855zm-2.6995-16.186c-1.8197-3.951-3.1251-8.1125-4.7315-12.143-0.9745-1.094-1.1728 2.0038-0.32429 0.67534 2.1445 4.9152 3.6878 10.115 6.2094 14.871 0.51826 0.0893-0.98115-2.8356-1.1536-3.4024zm6.6372-11.992c-0.11829-2.1289 0.54815-4.5658-0.40064-6.4822-0.39914 5.6615-0.08631 11.367-0.63518 17.028-0.16308 0.8763-0.19225 5.4283 0.22915 2.3764 0.44692-4.2934 0.6384-8.6104 0.80667-12.922zm2.1722 9.9219c0.49581-2.9269 1.1245-5.8978 1.9702-8.7018-1.534 1.1743-1.3308 3.7781-1.9049 5.5823-0.16321 1.3232-1.1826 5.376-0.50663 5.1647 0.20139-0.66873 0.3282-1.357 0.44134-2.0452zm-13.291-7.0148c-0.32344-2.429-0.97491 1.1394 0.20671 1.3231 0.01487-0.45134-0.12411-0.88527-0.20671-1.3231zm10.219-2.3747c-1.6999-1.0793-0.84579 1.686 0 0zm-1.3786-5.0724c-0.16336-1.2488-2.5936-0.59616-0.83493-0.0901-1.1278 1.2658 0.33294 3.1375 0.4243 4.6451 0.25664 1.5986 0.2838 0.51011 0.31859-0.4888 0.06543-1.3536 0.17187-2.7116 0.09204-4.0662zm-10.295 2.6989c0.91447-0.41421-1.5149-3.984-1.2636-2.3219 1.665 0.71863-1.8314 1.9056 0.56359 2.5195 0.20496-0.14284 0.41609-0.36586 0.70003-0.19761zm18.814-0.73415c0.51851-0.44166-0.52801-2.5247-0.70914-0.56733-0.72859 1.2156 0.04071 1.6459 0.70914 0.56733zm5.3422-2.1328c0.28153-1.155-2.2075-2.8789-0.70297-0.88333 0.24397 0.46804 0.28936 2.3772 0.70297 0.88333zm-16.835 5.4514c-0.19097-1.048-1.1746-5.5359 0.0646-2.363 0.10338 0.41938 0.95255 2.6391-0.0646 2.363zm12.641-2.8566c1.0853-2.1189-0.05761 1.311-0.27515 0.65167l0.11387-0.29339zm-13.779-3.7214c-0.32963-2.2625-1.0619-4.4514-1.3805-6.7404-0.3628-2.3728-1.5129-4.5909-1.6674-6.9847 1.4745 1.0192 2.4479 3.472 2.7843 5.4036 0.28628 1.0402 0.62512 2.6641 0.66288 2.7282-0.83723 1.0924 1.5245 0.88616 0.37929 2.0176 1.6932-0.40027-0.64883 1.4723 0.77614 1.0568-0.62076 0.71376-1.7812 0.70858-0.85465 2.0622-0.04775 0.22828-0.55066 1.1843-0.70012 0.45661zm12.272-3.9212c0.48836-0.66122 1.2622-4.5372 2.0235-3.2132-0.40674 1.1056-0.20437 3.6324-2.0235 3.2132zm-2.3016-0.71487c-1.0885-0.13505-2.36-2.4341-0.4786-1.393 0.82278-0.79821-0.13981 1.0467 1.286 0.83576 0.23176 0.52662-0.38696 0.83787-0.80735 0.55728zm-7.7485-1.0764c0.26782-1.6008 3.6142-0.1 0.95388-0.2795-0.39294-0.33463-1.0722 1.1115-0.95388 0.2795zm8.2423-0.51884c-0.14652-1.054 0.32053-1.905-0.75416-2.6305 0.45072-1.4729-1.1948 0.36247-0.36969-1.2867 2.2381-0.92491 1.2201-4.3694 2.077-6.325 0.38692-2.1827 1.5842-4.2038 2.9934-5.8698 0.824 1.8983-1.1989 4.4496-1.3945 6.6112-0.89719 3.2308-0.96626 6.699-2.1383 9.8348l-0.11437 3e-3 -0.29935-0.33698zm-8.204-1.3616c-0.24607-1.6007 0.62332 0.59733 0.52058 0.67682-0.68312 1.0474-0.51658-0.25624-0.52058-0.67682zm0.02323-2.6549c-0.104-1.5244 0.36691-1.5427 0.2635-0.0289 0.60859 0.40305 1.4405 0.1729 0.04502 0.76933-0.48103 1.1212-0.2033-0.59927-0.30852-0.7404zm-7.6096 0.34528c0.6671-1.0235-2.6757-1.7775-0.78699-1.9508-1.2474-0.29682-2.69-5.0709-0.73508-2.744 0.50993 1.5252 2.2904 3.8122 1.7744 4.9539-0.14383 0.0679-0.36504-0.12109-0.25235-0.25911zm11.777-3.0326c0.49585-2.0222 1.0189 1.6602 0 0zm-2.1167-1.3468c0.87753-1.2649 0.79039 0.9544 0 0zm0.1147-1.8197c0.07861-1.1086-1.8844 0.36501-0.74926-0.86434-0.99619-0.32286-0.28985-3.1567-0.9349-1.023-1.4806-0.92578 2.2224-2.4303-0.20717-1.7977 0.38197-1.9677 2.1596 0.90826 1.7746 2.0304 0.15502 0.22672 0.80416 3.4635 0.11674 1.6546zm-2.0991-0.42098c-0.12233-1.6313 1.2675 0.45963 0 0z" fill="#6f908b"/><path d="m62.978 224.55c-0.76486-2.1641-2.4077-4.0031-2.9998-6.3204-1.3283-3.9037-2.7924-7.7583-4.4941-11.514-0.8299-2.0209-1.915-3.9911-2.6302-6.0898-0.21069-1.3109-1.0628-2.3522-1.2913-3.2926 1.2481 0.50609-0.5632-2.743-0.59541-3.5492-0.66703-2.4098-0.65212-4.797-2.2728-6.9058-0.58183-0.88695-1.8791-4.3946 0.1316-2.1602 1.4117 1.1705 2.424 2.7445 1.1913 3.9342 1.2286 0.0634-0.56801 0.38636 0.50445 1.0498 1.7376-0.14672-0.41613-3.0383 1.3858-1.069 0.79987 0.83118 1.6725 2.7888 0.14849 0.98499-1.2425-0.20846 0.97715 2.1404-0.81995 1.3272 0.08532 1.2698 2.1466 4.7663 2.9436 2.5514-0.65525-2.0943-1.0746-4.3221-1.0382-6.5053 2.2677 0.71422-0.12761 4.0139 1.5424 4.798-0.56152 1.2847 1.8628 0.85855 0.8543 2.2029 1.669 1.3909 1.8593 3.907 3.0127 5.7365 0.43176 1.2876 1.3474 2.1992 0.5886 0.27868-1.0569-1.6818 1.2888-2.066 1.8851-1.2162 2.3355-1.6089 0.78613 2.6598 1.5005 3.8107 0.47559 3.7453 0.5586 7.5893 1.6281 11.226 0.49657 0.0766-0.43317-3.3745-0.37949-4.4934-0.37128-3.7051-0.89576-7.41-0.94179-11.137 0.59318-0.95197 1.685-1.6456 3.1105-1.5539-0.27776 4.4195-0.79215 8.8588-0.58552 13.282 0.69517-2.4871 0.50078-5.2664 0.87978-7.8641-0.076-1.9694 1.3549 0.99034 2.241-0.76104 0.45255 1.527-0.63706 4.4985-0.7198 6.588 0.04574 1.7847 0.88359-2.1761 0.93728-2.7607 0.53426-1.6124 0.0699-4.5777 1.8057-4.5039 0.58444-0.94 0.87612-3.7319 1.7344-3.5986-0.03638 1.0932-1.6185 3.8071-0.53842 4.0374 0.46073-2.1393 1.9652-3.9979 2.3572-6.2344 1.086-1.5864 0.56531-5.3629 2.9576-5.2399 0.85292 1.9107-2.3284 3.2663-1.8041 5.5259-0.72427 2.6307-0.99699 5.3568-1.845 7.9359-0.56569 1.2437-0.87391 2.9777 0.10383 0.857 1.2914-2.6669 2.2364-5.5854 4.1647-7.8794 0.39416 2.8952 1.7732-2.3188 2.8684-2.9232 1.5069-1.7465-0.65248 1.6854-0.5729 2.4683-1.8423 4.5339-3.7839 9.0383-5.9425 13.429-0.96074 1.0815-1.033 3.8986-2.2745 5.4877-1.624 2.6208-2.0608 5.8096-3.7221 8.4148-1.1076 0.47367-0.70788 0.95961-0.57505 1.4244-1.569-0.49621-4.6005-1.1698-4.2848 0.35385l-0.14943-0.13228zm-1.8783-14.045c-1.9503-4.6006-3.8487-9.2243-5.5111-13.939-0.09672-1.5796-1.8454-2.3371-1.5931-0.26664 0.5449 1.4548 1.1115 3.9955 1.9595 4.7309-0.02288-0.88775-1.3894-5.2385-0.18017-2.5586 1.6551 4.4147 3.2284 8.923 5.576 13.018 0.06217-0.32762-0.18885-0.67045-0.25109-0.98535zm12.918-2.0722c0.40539-1.9712-1.1587 1.3723-5e-6 0zm-7.1816-8.7035c-1.0179-1.527 0.07268-4.2817-0.27953-6.3298 0.20519-1.9243 0.02257-4.2268 1.0032-5.8496 0.37825 3.5703-0.16404 7.2539 0.40225 10.773 2.2615-0.46915 0.87047-3.4196 2.8136-4.4383 0.90754-1.9272 0.8742 1.4713 0.22771 2.254-1.1269 0.75012-1.4384 2.6584-2.5964 3.1515-1.2295-1.4521-0.27962 1.2802-1.5708 0.43957zm3.2357-1.0904c0.21099-1.3482 1.0282-1.7526 0.46301-0.14339-0.16626 0.91952-1.1131 2.2469-0.46301 0.14339zm-10.814-2.3757c0.65256-0.73729 0.74162-0.70759-0.3495-0.97328-0.78508-2.1485-0.56099-4.108-1.7157-6.1126-0.2558-0.50437-2.4855-1.168-0.68379-1.1239 1.7204 0.0753 3.104 3.9959 2.3895 4.4836-0.36392 0.31702 2.1236 1.8919-0.02396 1.3147 0.33167 0.87297 2.6426 2.3664 0.38345 2.4114zm6.3099-0.62272c-0.05787-1.0107-1.4246 0.70606-1.169-0.81203-0.06324-1.4534 0.38051-6.4157-1.6382-4.2333 0.10752 2.9457-1.6604-2.9008-0.3649-2.2334 0.45404 1.0478 0.78124-1.6767 1.6196-0.3259-1.2412 0.48408 0.66829 1.741-1.2924 1.1637 0.06937 1.5018 2.963-0.74643 1.179-1.7614 1.46-2.1784 0.81898-5.0476 1.6698-7.4622 0.69795 1.038 0.26315 4.4396 0.69732 6.3582-0.06458 1.4912-0.23513 3.8416-1.0092 4.7125-0.9001-1.0743 0.22802 0.86513 0.57377 0.90259 0.0863 0.82748 0.43568 4.0068-0.26592 3.6914zm-3.296-0.97271c1.5234 0.1292-1.0394-2.2567 0.46493-2.3315-0.30442 0.74701 2.2085 3.1075-0.46493 2.3315zm9.9624-0.6155c-1.1033-1.0638 2.0849-0.16751 0 0zm-1.4957-1.6082c0.83282-2.2149 1.8239-4.3841 2.9492-6.4657 0.04291 0.91934-0.86048 3.0324 0.46998 3.7192-0.08629 1.2714-1.0412 4.3499-1.5766 1.5531-0.76202 0.0974-0.71417 2.0697-1.8425 1.1933zm7.276-0.52599c1.2025-0.88557-2.0201-4.1543 0.74274-3.056 0.48528 1.0505 1.6017-1.3825 1.0543 0.49461-0.47028 0.48524-1.0463 3.2232-1.797 2.5614zm-18.338-4.4979c-0.80281-3.286-1.2374-6.6706-2.4288-9.8603-0.48583-0.89028-0.24981-2.6233 0.59228-0.83602 1.1213 1.188 1.4659 3.6475 1.6565 4.2494 0.37862 0.90969 0.82759 2.3406 0.66004 3.6758 0.97123 1.3008-0.49353 1.8284-0.1531 3.3103-0.0164 0.38592-0.268-0.51416-0.32691-0.53908zm-4.3719-0.73916c-0.44304-1.0201-1.1118-4.5748-0.73689-4.2218 0.3241 2.0444 0.96134-1.9958 2.0492 0.0351 0.59351 0.90729 0.74012 1.7628-0.12464 2.089 1.5985-0.39625 2.4043 2.9656 0.64164 0.78885-1.712-0.90223-0.166 1.8879-1.8293 1.3088zm0.75534-3.5141c0.33582-1.9733-1.1455 1.8183 0 0zm25.268 2.7035c1.0121-1.9636-2.1869 0.33686-0.64776-1.1992 1.8355-1.6089-0.83158-1.5068-1.3399-0.21459 1.0729-2.2889 2.9041-4.1637 4.3521-6.2308 0.6065-1.1308 2.9795-2.5098 1.7118-0.15721-0.99115 2.1626-1.8689 4.5453-3.4943 6.2856 0.91958-0.14369-1.1925 2.919-0.58194 1.5161zm1.4485-2.9482c0.91867-1.761-1.2739 0.72997-0.27541-0.98096-0.36702-1.9376-0.52857 0.15621-1.0175 0.29438-1.0802 0.23915 1.6371 2.3082 1.2929 0.68658zm-8.3344 1.5812c-0.25641-1.2638 2.6074-3.9897 1.3942-1.3453-0.19071 0.34458-0.86907 1.8302-1.3942 1.3453zm-1.0459-1.1844c0.20151-1.3727 1.6416-1.3565 0.55751-0.0282 0.02444-1.0556-0.3776 0.39717-0.55751 0.0282zm-2.5525-2.6229c0.65922-1.0688-0.12372-1.1051-0.53733-2.167 1.5537-1.1657-0.01378-3.18 1.4044-4.4534-0.64515-2.3267 1.5098-4.5848 2.5398-6.5854 1.2376 0.89524-1.0059 4.1751-1.1209 5.9008-0.75031 2.548-0.7411 5.3162-1.8406 7.7509-0.42965 0.66902-0.51966-0.0864-0.44539-0.44593zm-4.9278-1.0966c-0.29655-1.7568 1.5794-1.0245 0.38092 0.13962l-0.1915-0.0193-0.18943-0.12033zm-12.371-2.2825c-1.178-0.63551-2.038-4.5585-0.25626-2.053 0.30782 0.4502 1.804 3.5191 0.25626 2.053zm9.9518-6.1027c-0.58065-1.3392 0.97189-0.9445 0.75566 0.27973-0.16078 0.63127-0.77995 0.15568-0.75566-0.27973z" fill="#5c827b"/><path d="m63.951 223.35c0.91508-1.781-2.3585 0.60948-2.3752-1.5148-0.78428-1.6704-1.4989-3.7627-2.2551-5.6387-1.027-3.1013-2.3095-6.106-3.5924-9.1029-0.59637-1.6387-1.8787-3.9079-1.9403-4.6635-1.6766-2.3562-1.4493-5.3916-2.5613-7.9846-0.8597-1.2923-1.1452-5.6072 0.37961-2.2619 0.14185 1.4336 3.3245 3.6534 2.5146 0.94249-0.53035-0.97393-0.40578-2.9878 0.29305-1.0548 1.1458 1.4474 2.0034 3.2147 2.9142 5.1132 0.59607 1.0251 1.7561 4.6368 2.1912 3.9535-0.52031-1.1836-1.1583-3.4605 0.91134-2.1981 3.0814-0.69989 1.5593 3.8435 2.2775 5.6013 0.37049 3.207 0.5481 6.4803 1.4362 9.594 0.47745-1.38-0.60361-4.6475-0.5575-6.7036-0.25999-3.0671-0.71708-6.1362-0.70006-9.2142 0.97018 0.18637 1.9969-2.1901 2.8307-1.0229-0.09415 0.61671-1.8908 2.2248-0.23632 1.3223 0.37033 3.0476-0.14728 6.1812-0.22906 9.2604-0.24727 1.1431 0.17575 3.5334 0.41932 1.1048 0.31811-2.3687 0.12506-4.8236 0.73947-7.1384 1.0861 0.12181 2.7021-0.45994 2.0078 1.5411-0.06316 1.6965-1.0579 4.3007-0.6083 5.4131 1.0148-2.3288 0.74444-5.2005 1.9078-7.3722 2.1549-2.0128 0.47182 2.5329 0.80594 2.5257 1.2351-2.0334 1.5291-4.6778 3.1177-6.4337 0.01747-1.3851 1.0782-0.91765 0.40098-2.1071 0.91898-1.9025 0.96319-3.8666 1.8993-5.6437 0.71477-0.917 2.0646 1.5601 0.4423 1.9728-1.507 2.032-1.3452 4.7654-2.0846 7.1087-0.28977 2.1615-1.2671 4.6457-1.5448 6.5045 1.8474-2.9318 2.4643-6.6692 4.9588-9.1585 0.81493 1.2393-0.78501 2.3511-0.33161 3.3487 2.1906-1.482-0.37865 3.3359-0.12812 0.56447-0.5667 0.27634-1.072 2.3434-1.6148 3.4379 1.7925 0.01-0.38697 2.5211-0.82371 3.4768 0.49062-1.1786 0.07521-1.7394-0.53737-0.29818-0.19955 0.70343-1.827 3.9821-1.0145 3.4099 0.80357-0.46355-0.6949 2.3248-1.0212 3.1187-1.3695 2.2113-2.1733 4.5767-3.0067 7.0336-0.31289 1.7396-1.5581 3.5048-3.4493 2.463 1.284 1.2649-2.2285 1.0523-1.8356 0.7004zm-3.8007-15.207c-1.9436-4.1842-3.3018-8.6102-5.095-12.85-2.6899-1.3462-0.21622 3.0926 0.04923 4.2844 0.27823 0.85585 1.5754 3.2608 0.83747 0.85607-0.451-1.2242-0.74243-3.4252 0.12364-1.0187 1.6382 4.0971 2.9888 8.3925 5.2787 12.173-0.03701-1.1125-0.78397-2.3434-1.194-3.444zm15.219-3.0042c0.72986-0.52906-0.01344-2.1688-0.3255-0.42113-0.25002 0.23617 0.61238 1.1397 0.3255 0.42113zm-4.4667-5.2411c-0.06196-1.131 1.6639-4.0667 0.78718-1.3322-0.06599 0.32283-0.2038 1.8619-0.78718 1.3322zm-3.5761-0.5053c-2.0507-0.19524 1.0053-3.3204 0.24336-0.59708-0.03867-0.0163-0.13558 0.79027-0.24336 0.59708zm10.986-0.81463c-0.05694-1.7934 0.35423-3.1443 1.6716-4.7996 0.64017-1.1604 1.4135-1.4512 0.44329-0.0461-0.55663 1.6126-0.81306 3.7211-2.1149 4.8457zm-19.48-3.4715c-1.1901-2.2875 1.8436 0.56965 0.11658 0.17159l-0.11658-0.17158zm7.6729-0.81539c0.21557-3.1067 2.4783 1.8623 0.09745 0.85242l-0.07656-0.32339zm-1.9663 0.21014c-1.0162-0.9334 0.31331-3.834 0.81859-2.2607 0.69614-1.1184 1.0059 1.6342-0.09597 1.3337 0.95466 1.0242-0.70086 0.42898-0.03292 1.3496-0.28961 0.11935-0.54229-0.29597-0.6897-0.42268zm8.5478-2.0181c0.14177-2.0219-1.0852-0.95575-2.0139-0.45992 0.52285-2.01 1.576-3.9648 2.4674-5.8665 0.13167 1.199-1.2681 2.9694-0.18298 3.8231-0.18119-2.9373 1.3152 1.1351 0.17294 2.0022-0.03257 0.0657-0.35188 1.1757-0.44345 0.50119zm-15.056-0.94809c-0.13589-1.6188-1.2984-2.6515-2.0826-3.4088 1.6672-0.66214 2.5775 1.8581 2.2224 2.3869 0.87204-0.15829 0.801 1.4786-0.13974 1.0219zm20.513-0.94716c0.57042-0.91309-2.209-1.4667-0.43791-1.6853 0.78649 0.63411 1.4979 0.3196 1.8838-0.22506-0.18611 0.59058-1.6834 4.5324-1.4458 1.9104zm-16.37-0.33166c-0.3849-0.74662 0.0036-3.0669 0.26749-0.9189 0.13823 0.41472 0.08639 2.3714-0.26749 0.9189zm-8.8549-1.0223c-0.54084-1.1273-0.17879-3.6224 0.61047-1.2179 0.80981 0.90112-0.48538 3.7232-0.55372 1.4637l-0.03137-0.13591zm13.868 0.6254c-0.28713-0.98811 0.52251-3.0102 0.35383-0.79375 0.10833 0.54245-0.11214 2.3204-0.35383 0.79375zm-2.8277 0.1043c0.65226-1.7093-0.46952-3.3462 1.4794-4.6326 0.26808 1.5641 0.6235 3.4143-0.45954 4.8474-0.31643 0.0604-0.85714 0.14636-1.0199-0.21474zm-12.277-0.70393c-0.7076 0.23961-0.82177-1.5995-1.2139-1.6252 0.42254 0.11296 2.241 2.4408 1.2139 1.6252zm-2.9661-1.5631c-0.78388-1.1088-2.3079-5.3058 0.0034-2.6748 0.95616 0.86174 2.2941 2.7026 0.2342 2.3236 0.21338 0.50906 0.22094 1.2829-0.23761 0.35122zm10.528-0.61538c-0.61284-2.5801-1.0061-5.2124-1.708-7.7744 0.37748-1.1562-1.7004-2.1449-0.69352-3.2112 0.95595 1.1492 3.1992 4.3565 1.5413 4.6271 2.162 0.67349-0.74422 3.8908 1.8592 4.8203-1.0947 0.14786-0.31019 3.1736-0.99893 1.5383zm-4.4815-1.0559c-0.81455-0.78599-0.40013-4.2093 0.31442-3.1549-0.59728 1.9242 1.6968 0.42733 1.1404-0.22096 1.4773 1.4018-1.0875 1.5661-0.69563 3.175-0.11687 0.68405-0.28502 1.5104-0.75917 0.20087zm19.284-1.5877c0.07848-1.4113 2.5804-3.7634 1.1968-0.97962-0.04141 0.20698-0.99982 1.7244-1.1968 0.97962zm5.3954-0.94756c0.64987-1.332 1.4583-1.3788 0.27207 0.0531-0.45755 0.65196-0.87383 1.0929-0.27207-0.0531zm2.8064-2.2076c-1.0744-1.6929 1.5515-3.4803 2.7622-4.5551 0.10083 1.0722-0.46634 4.5754-2.409 4.0059 0.20553 0.16978-0.41364 1.3686-0.3532 0.54922zm-11.39-0.85775c0.49362-1.0068-2.0308-1.8741-0.0097-2.3565 0.92366 1.0686-0.68281-2.8558 0.28351-1.1072 0.55914 1.7344 0.97791-3.2636-0.59535-1.1906 0.82799-0.79366 0.37504-2.829 1.7577-2.9041-2.5011 0.14327 0.45962-3.0793 0.88898-4.3388 1.2185-1.7267-0.58906 1.7223 0.7442-0.065 0.17014-3.0129 0.68766 1.7315-0.58135 1.6954 0.14328 2.1682-1.5542 3.7842-1.2588 5.8516 0.32247 1.5889-1.3326 2.6843-0.77156 3.5296 0.45167 0.47702-0.83935 2.5293-0.45762 0.88568zm-17.908-3.3188c-1.1312-0.70868-1.4556-4.1342-4.84e-4 -1.6346 0.26492 0.43626 1.5601 3.1828 4.84e-4 1.6346z" fill="#4c756e"/><path d="m67.786 222.53c-0.42732-0.73884-1.9514-1.0855-2.5894-1.7086-0.94755 0.20259-2.0565 0.75393-0.2893 0.6543 2.1416 1.999-3.3002-1.5046-2.461 0.93274-1.9912-0.50031 1.8106-2.0476-0.43023-1.6544-1.4058-1.1464-2.0511-3.4685-2.7534-5.1977-1.0204-2.2726-1.7507-4.7677-2.7665-6.969-0.38365-1.91-1.955-3.9007-2.291-5.548-0.02896-0.80746-1.1158-3.1698-1.113-2.1279-0.54054-1.6924-1.0921-3.8717-1.0642-5.1344 2.2985 1.2241-0.6108-2.7309-1.0156-3.5339 0.20793 1.1931 0.995 4.4145 0.04307 1.5788-0.56259-1.0004-1.0739-4.4564 0.34903-1.8263 1.6569 2.4582 2.6973 5.2191 3.7602 7.9641 0.29401 1 1.5305 2.8503 0.9002 0.66182-0.25394-0.73345-1.0686-4.3074-0.18271-1.7361 1.5974 4.3243 3.2657 8.6391 5.3315 12.764 0.78613 0.0833-0.96902-3.3951-1.5011-4.5402-1.8345-3.9335-3.0188-8.133-4.7324-12.107-1.8699-0.76577 1.3658-3.0028 0.58033-0.90442 0.47811 1.1396 2.9145 3.7772 0.99438 3.4915 0.87927 1.0858 2.3784 2.9046 3.1517 4.6226-0.11958-1.3137-0.36768-2.3324 0.31467-0.51002 0.52534 1.6378 0.26536 0.17573 0.17366-0.69167-0.2078-2.3392 2.877-1.292 2.206 0.61971 0.40326 4.2099 0.76726 8.4457 1.6848 12.58 0.88747 1.2706-0.04244-2.329-0.02817-3.0134-0.42421-4.0935-1.0477-8.2185-1.2015-12.311 1.7167-0.70446 1.4353 1.2557 2.5254 1.1182 0.33204 1.3272 0.01856 3.5524-0.06063 5.5176 0.05115 1.2962-0.33316 3.9355 0.18014 4.4388 0.56543-2.4486 0.18195-5.069 0.89367-7.4728 3.2729-0.94167 1.3121 3.3108 1.3674 5.0916-0.37933 3.3446 1.0027-1.4742 0.99862-2.5632-0.42819-1.2495 1.6297-4.2529 1.5792-1.6203-0.29574 0.86745-0.80588 2.816 0.06221 0.94909 0.9431-1.8704 1.6644-4.3391 2.8583-5.7625-0.67621-1.3766 1.236-0.94724 1.3123-2.1454-0.21433 3.1359-1.5137 6.0843-1.9745 9.165 1.3489-1.9269 2.1163-4.8696 3.4701-7.0607 0.36027-0.82727 1.8566-3.4516 1.4207-0.95473-1.1806 4.31-3.2387 8.3209-4.6896 12.544-1.1242 1.8198-0.78259 4.2754-2.189 5.5064-0.57132 2.5068-1.4595 5.0535-2.8383 7.2388-0.20735 0.0539-0.15594-0.35851 0.01393-0.34493zm0.69686-1.5734c0.87478-1.1397-0.53239-0.0489-0.84327-0.64154 0.78262 0.49411-0.70999 2.2211 0.63152 0.97548l0.21176-0.33389zm-3.8287-0.49609c-1.0736-0.81377-1.6464 0.79614-0.05181 0.0899zm5.2731-3.4727c-1.4756-0.95752-0.12722 2.498 0 0zm-11.112-8.978c-0.93259-1.2789-1.506-4.2534-2.6863-4.44 0.68627 1.9655 2.0201 3.8804 2.9145 5.8484 0.59498 1.3499 1.4839 2.2848 0.52812 0.28443-0.24198-0.56871-0.49571-1.1324-0.75632-1.6928zm17.72-9.0857c1.0025-1.782 0.03452-1.0978-0.51169 0.1996-0.76876 1.164-0.57885 1.9279 0.24443 0.29885l0.13698-0.2471zm-2.0153-3.7301c-0.91701-1.3996 1.7575-4.0422 0.74681-1.0892-0.16047 0.22173-0.28845 2.4603-0.74681 1.0892zm4.422 0.57018c0.42024-1.3794 1.9263-2.73 0.52643-0.5985-0.07244 0.032-0.53611 1.065-0.52643 0.5985zm-14.552-2.5383c0.65042-1.6948 0.6123 2.0211 0 0zm-10.242-0.52365c-0.46802-2.2505 1.0327 2.0215-2e-6 0zm19.059-1.2467c-0.10945-1.3362 1.6113-2.649 0.57178-0.53528-0.13907 0.88539-0.71122 2.1879-0.57178 0.53528zm-1.2408-1.3085c-0.0399-1.129 1.3064-2.4354 0.74118-0.39488-0.04838 0.28376-0.4693 0.70175-0.74118 0.39488zm-14.553-0.74583c-0.60971-3.2476 1.5002 1.4201 0 0zm-4.2185-1.1936c-0.76424-1.9459 0.941-1.1764 0.81095 0.22653-0.50199-0.43704-0.61911 0.73619-0.81095-0.22653zm12.253 0.4598c-1.0438-1.1256 0.43111-2.7738 0.79375-1.0104 0.01167 0.4695-0.21277 1.0612-0.79375 1.0104zm-16.958-2.2383c-0.19271-0.95249-1.4107-3.4075 0.34559-1.7168 0.91818 0.84031 2.7608 2.8985 0.35606 2.3576-0.36468 0.01-0.61459-0.32753-0.70165-0.6407zm6.6762-0.52981c-0.39795-1.3358-0.98104-3.3534 0.40795-1.4098 0.08693 0.7117 0.15559 3.6323-0.40795 1.4098zm19.678-2.3668c0.34462-1.4147 1.8678-2.2077 0.81409-0.21476-0.23657 0.75186-1.7036 1.8642-0.81409 0.21476zm8.773-3.0327c-3.0286 0.18592 0.80419-2.7621 1.6096-3.5954 0.63045 0.0678-0.54994 4.2784-1.6096 3.5954zm-30.272-3.5897c-0.93302-0.52863-1.5291-3.7286-0.12014-1.6761 0.18587 0.3328 1.5376 2.9402 0.12014 1.6761z" fill="#33625b"/><path d="m59.164 215c-0.39632-0.64323-1.6929-4.3789-0.65789-2.1812 0.51349 0.49501 0.79872 2.1584 1.4422 1.0944-1.4637-0.54053 1.1038-1.5713-0.94525-1.5508-0.85631-1.0442 0.79907 0.43412 1.1302-0.48645 1.5048 2.4558 0.02573-1.4852-0.19298-1.7359 0.71824 0.6159 1.9797 3.2952 1.5443 1.0136-1.0083-1.306 0.69001-2.7616-0.3917-3.7912 1.161-0.60263 0.17848-2.2974 0.13609-0.63392-0.6334-1.149-1.8872 1.1003-2.0686-0.87377-0.56954-0.64488-0.49112-2.6098-0.04129-1.1231 0.75522-0.4025 2.3762-0.15452 1.3799 0.85816-1.6413-1.2262 0.21663 1.1077 0.92402-0.26364 2.4422-0.3305 1.2297 3.7951 1.9688 5.3635-0.01672 1.3682 1.1441 4.1467 0.54269 4.57-0.66599-0.6129-0.27447 1.7471-1.2999 0.20828-0.06997-1.7174-4.8373-0.62351-1.7524-0.4448 1.7833 0.39576-1.3948 0.30584-1.1839 0.55685 0.94446 1.8714-0.26238 0.34125-0.53408-0.58005zm7.8424 0.11817c-0.67598-0.74931 0.42489-1.964-0.92309-0.84814-1.0054 0.20025-1.2544 1.6403-1.5089-0.14153-0.56591-2.7469-0.81346-5.5439-1.1378-8.3261 1.8032-0.31249 1.3167-2.7837-0.3016-2.9618 0.37776-0.25658 1.6316-0.92162 1.4732-1.933 1.0577 0.4358-0.54504 1.6304 0.70486 2.2494 0.26234 2.4128-0.40418 4.9003 0.06053 7.2756 0.77344-2.34 0.28507-4.9479 0.98848-7.3228 0.70554-0.72832 2.4825 0.7788 1.789 1.8005-0.13078 1.081-1.0068 4.1024-0.2044 3.7735 0.72541-1.778 0.34847-4.1975 2.1789-5.2721-0.27283 1.17-1.2222 4.6028 0.11439 1.6856 0.14457-1.0175 2.1921-3.7644 0.86852-1.5028 0.13485 0.94294 2.6249-3.0753 1.9793-0.42885-0.77706 2.2022-1.7612 3.8829-2.4577 6.181 0.13883 1.7039 1.4347-3.653 2.3674-1.9627-0.76827-2.2884 1.6714-4.2191 2.459-6.2452 0.49481-0.75552 2.1338-4.1883 1.2432-1.4817-1.8283 4.9884-3.8084 9.923-5.7748 14.856-0.34529-0.42036-3.5507-2.288-2.5305-2e-3 -1.2514-0.5191-1.0027 0.56366-1.0688 0.84044l-0.31898-0.23398zm-10.647-7.4497c-0.54987-2.3408-2.0286-4.4621-2.8079-6.9531-1.1985-2.7673 1.2687 1.1167 1.7169 2.045 0.87231 1.8575 2.5273 3.8771 2.8523 5.6632-1.4242-1.5926-1.0281 1.0729-1.7614-0.75509zm2.088-0.74159c-0.56095-0.91819-1.3224-3.6215-0.12125-1.5278 0.46294 0.91879 1.8091 4.3951 0.25187 1.8068zm-1.5776-3.6759c-0.80046-0.9169-0.06129-2.7366 0.143-0.61655 0.67088 0.77932 0.65544 1.9704-0.143 0.61655zm1.5078-1.0529c-0.8635-1.3307 1.514-1.5055 0.29113-0.49671-0.81505-0.1537 0.73828 1.331-0.29113 0.49671zm14.87-1.0259c0.0043-1.2248 1.3621-3.8149 0.53772-1.1129-0.20147 0.6574-0.7809 3.0037-0.53772 1.1129zm-20.322-5.7158c-1.2508-2.6222 0.86231 0.22555 0.82272 1.3648-0.37333-0.38854-0.57415-0.89642-0.82272-1.3648zm2.6295 1.0639c-0.90059-1.7889 1.1027-1.8454 1.0161-0.17651-0.18907 0.44218-0.82048 0.91735-1.0161 0.17651zm19.222-3.1975c1.4759-2.0411-0.1796 2.131 3e-6 0z" fill="#2c5d55"/></g></g></svg>
