<svg xmlns="http://www.w3.org/2000/svg" viewBox="64.12 70.37 31.63 24.92">
	<defs>
		<clipPath clipPathUnits="userSpaceOnUse" id="cp1">
			<path d="M0 0L170 0L170 170L0 170Z"/>
		</clipPath>
	</defs>
	<style>
		tspan { white-space:pre }
		.shp0 { fill: #955441 } 
	</style>
	<g id="Page 1" clip-path="url(#cp1)">
		<path id="Path 20" fill-rule="evenodd" class="shp0" d="M94.73 89.45L91.79 86.63L90.86 87C90.85 87 90.85 87 90.85 87L76.9 92.51L75.43 94.59C75.05 95 72.22 92.98 69.11 90.08C66 87.18 63.79 84.5 64.17 84.09L65.7 82.84C66.17 77.29 67.19 74.97 67.22 74.81C67.58 73.94 67.72 73.59 68.6 72.37C69.87 70.74 71.29 69.87 73.21 70.67C73.87 70.94 74.76 71.51 75.28 72.13C75.78 72.76 76.06 73.51 76.17 74.31C76.92 74.09 78.99 75.31 81.07 77.24C83.35 79.37 84.77 81.55 84.24 82.12L80.97 86.75L91.64 85.34L93.63 82.55L94.73 89.45ZM80.97 86.75L80.97 86.75L80.97 86.75L80.97 86.75ZM75.38 74.94C75.54 73.32 74.77 72.05 72.95 71.29C71.94 70.88 71.01 71 70.18 71.71C67.75 73.77 67.01 78.17 66.91 81.85L75.38 74.94ZM83.3 81.24C83.67 80.83 82.53 79.15 80.73 77.48C78.94 75.81 77.18 74.78 76.8 75.18C76.43 75.59 77.57 77.27 79.37 78.94C81.16 80.61 82.92 81.64 83.3 81.24ZM95.34 92.94C95.34 92.94 96.53 95.13 94.75 95.26C92.47 95.43 93.83 92.59 93.83 92.59C94.15 92 94.42 91.13 94.42 91.13C94.64 91.5 95.34 92.94 95.34 92.94Z"/>
	</g>
</svg>