<svg xmlns="http://www.w3.org/2000/svg" viewBox="65.62 68.97 28.63 27.72">
	<defs>
		<clipPath clipPathUnits="userSpaceOnUse" id="cp1">
			<path d="M0 0L170 0L170 170L0 170Z"/>
		</clipPath>
	</defs>
	<style>
		tspan { white-space:pre }
		.shp0 { fill: #90c578 } 
	</style>
	<g id="Page 1" clip-path="url(#cp1)">
		<path id="Path 5" fill-rule="evenodd" class="shp0" d="M75.77 79.22C76.84 78.5 78.13 78.07 79.47 77.98L79.47 94.16C76.48 93.97 73.94 92.01 72.8 89.27L71.15 89.86L70.66 92.51C70.62 92.7 70.43 92.84 70.21 92.84C70.18 92.84 70.15 92.84 70.13 92.84C69.88 92.8 69.71 92.59 69.75 92.37L70.29 89.5C70.32 89.36 70.43 89.24 70.58 89.19L72.52 88.5C72.28 87.71 72.16 86.89 72.16 86.07C72.16 85.85 72.17 85.64 72.19 85.42L70.48 85.63L68.98 87.86C68.85 88.05 68.57 88.11 68.35 88C68.13 87.88 68.06 87.63 68.19 87.44L69.81 85.05C69.88 84.94 70.01 84.87 70.14 84.85L72.29 84.59C72.44 83.7 72.75 82.83 73.2 82.02L71.04 80.81C70.96 80.76 70.9 80.69 70.86 80.62L69.78 78.22C69.69 78.01 69.8 77.78 70.03 77.69C70.27 77.61 70.54 77.71 70.63 77.92L71.65 80.19L73.64 81.3C74.19 80.5 74.91 79.79 75.77 79.22ZM76.27 87.69C77.28 87.69 78.1 86.96 78.1 86.07C78.1 85.17 77.28 84.45 76.27 84.45C75.26 84.45 74.44 85.17 74.44 86.07C74.44 86.96 75.26 87.69 76.27 87.69ZM78.56 90.12C78.56 89.45 77.94 88.9 77.19 88.9C76.43 88.9 75.82 89.45 75.82 90.12C75.82 90.79 76.43 91.34 77.19 91.34C77.94 91.33 78.56 90.79 78.56 90.12ZM75.82 82.02C75.82 82.69 76.43 83.23 77.19 83.23C77.94 83.23 78.56 82.69 78.56 82.02C78.56 81.34 77.94 80.8 77.19 80.8C76.43 80.8 75.82 81.34 75.82 82.02ZM84.5 78.49C81.78 76.71 78.08 76.71 75.36 78.49C75.36 78.45 75.36 78.41 75.36 78.37C75.36 77.04 76.1 75.79 77.33 75.04C77.29 73.02 76.54 72.29 74.55 72.29C74.3 72.29 74.1 72.11 74.1 71.88C74.1 71.66 74.3 71.48 74.55 71.48C77.44 71.48 78.11 73.04 78.23 74.61C79.32 74.22 80.54 74.22 81.63 74.61C81.75 73.04 82.42 71.48 85.3 71.48C85.56 71.48 85.76 71.66 85.76 71.88C85.76 72.11 85.56 72.29 85.3 72.29C83.32 72.29 82.57 73.02 82.52 75.04C83.76 75.79 84.5 77.04 84.5 78.37C84.5 78.41 84.5 78.45 84.5 78.49Z"/>
		<path id="Path 6" fill-rule="evenodd" class="shp0" d="M91.51 88C91.29 88.11 91.01 88.05 90.88 87.86L89.37 85.63L87.67 85.42C87.69 85.64 87.7 85.85 87.7 86.07C87.7 86.89 87.58 87.71 87.34 88.5L89.28 89.19C89.43 89.24 89.54 89.36 89.56 89.5L90.1 92.37C90.15 92.59 89.98 92.8 89.73 92.84C89.7 92.84 89.68 92.84 89.65 92.84C89.43 92.84 89.24 92.7 89.2 92.5L88.7 89.86L87.06 89.27C85.92 92.01 83.38 93.97 80.39 94.16L80.39 77.98C81.73 78.07 83.02 78.5 84.09 79.22C84.94 79.79 85.67 80.5 86.22 81.3L88.2 80.19L89.23 77.92C89.32 77.71 89.59 77.61 89.82 77.69C90.06 77.78 90.17 78.01 90.08 78.22L89 80.61C88.96 80.69 88.9 80.76 88.82 80.81L86.66 82.02C87.11 82.83 87.42 83.7 87.57 84.59L89.72 84.85C89.85 84.87 89.97 84.94 90.05 85.05L91.67 87.44C91.8 87.63 91.73 87.88 91.51 88ZM81.3 82.01C81.3 82.69 81.91 83.23 82.67 83.23C83.43 83.23 84.04 82.69 84.04 82.01C84.04 81.34 83.43 80.8 82.67 80.8C81.91 80.8 81.3 81.34 81.3 82.01ZM84.04 90.12C84.04 89.45 83.43 88.9 82.67 88.9C81.91 88.9 81.3 89.45 81.3 90.12C81.3 90.79 81.91 91.34 82.67 91.34C83.43 91.33 84.04 90.79 84.04 90.12ZM85.41 86.07C85.41 85.17 84.6 84.45 83.59 84.45C82.58 84.45 81.76 85.17 81.76 86.07C81.76 86.96 82.58 87.69 83.59 87.69C84.6 87.69 85.41 86.96 85.41 86.07Z"/>
	</g>
</svg>