<svg xmlns="http://www.w3.org/2000/svg" viewBox="71.27 68.97 17.33 27.7">
	<defs>
		<clipPath clipPathUnits="userSpaceOnUse" id="cp1">
			<path d="M0 0L170 0L170 170L0 170Z"/>
		</clipPath>
	</defs>
	<style>
		tspan { white-space:pre }
		.shp0 { fill: #afbf6a }
	</style>
	<g id="Page 1" clip-path="url(#cp1)">
		<path id="Path 15" class="shp0" d="M75.65 96.25C75.65 96.25 73.83 96.2 73.78 94.47C73.72 92.74 74.8 86.6 74.8 84.92C74.8 83.24 75.33 81.12 74 80.47C73.09 80.02 68.84 77.25 73.21 71.07C75.98 67.14 78.48 71.31 78.48 71.31C78.48 71.31 82.79 78.63 77.52 80.32C75.82 80.86 76.38 85.07 76.38 85.07L77.52 94.52C77.52 94.52 77.63 96.25 75.65 96.25ZM84.11 93.53L84.84 81.75C84.84 81.75 85.18 80.02 83.2 78.79L83.77 69.38L84.11 69.29L84.16 75.87C84.16 75.87 84.84 76.51 84.96 75.92C85.07 75.32 84.96 68.99 84.96 68.99L85.47 69.04L85.58 75.92C85.58 75.92 86.03 76.56 86.2 75.87C86.37 75.17 86.2 68.84 86.2 68.99C86.2 69.14 86.66 68.99 86.66 68.99L86.83 75.87C86.83 75.87 87.28 76.36 87.45 75.92C87.62 75.47 87.56 69.33 87.56 69.33L88.02 69.19L88.58 78.64C88.58 78.64 86.6 80.12 86.54 81.9C86.54 81.9 87.28 92 87.62 93.63C87.62 93.63 88.24 96.6 85.86 96.65C83.59 96.69 84.11 93.53 84.11 93.53Z"/>
	</g>
</svg>