<svg xmlns="http://www.w3.org/2000/svg" viewBox="63.17 69 33.53 27.45">
	<defs>
		<clipPath clipPathUnits="userSpaceOnUse" id="cp1">
			<path d="M0 0L170 0L170 170L0 170Z"/>
		</clipPath>
	</defs>
	<style>
		tspan { white-space:pre }
		.shp0 { fill: #955441 } 
	</style>
	<g id="Page 1" clip-path="url(#cp1)">
		<path id="Path 20" class="shp0" d="M96.12 95.35L91.1 95.35L91.1 93.46C90.73 93.48 90.35 93.48 89.98 93.46L89.98 95.35L80.49 95.35L80.49 91.84C80.11 91.86 79.75 91.86 79.37 91.84L79.37 95.35L69.88 95.35L69.88 93.46C69.51 93.48 69.12 93.48 68.76 93.46L68.76 95.35L63.73 95.35C63.43 95.35 63.18 95.59 63.18 95.89C63.18 96.18 63.43 96.42 63.73 96.42L96.12 96.42C96.43 96.42 96.68 96.18 96.68 95.89C96.68 95.59 96.43 95.35 96.12 95.35ZM68.27 92.33C68.27 92.33 68.27 92.33 68.28 92.33C68.43 92.35 68.59 92.37 68.76 92.38L68.76 90.46L67.25 89C67.03 88.79 67.03 88.45 67.25 88.24C67.47 88.03 67.82 88.03 68.04 88.24L68.76 88.94L68.76 84.37C68.76 84.07 69.01 83.83 69.32 83.83C69.63 83.83 69.88 84.07 69.88 84.37L69.88 86.78L70.6 86.09C70.82 85.87 71.17 85.87 71.39 86.09C71.61 86.3 71.61 86.64 71.39 86.85L69.88 88.31L69.88 92.37C69.98 92.36 70.08 92.36 70.18 92.35C70.21 92.35 70.23 92.34 70.26 92.34C72.26 92.09 73.47 90.98 74.01 88.92C73.69 88.38 73.43 87.77 73.23 87.08C73.21 87.03 73.19 86.98 73.18 86.93C73.13 86.76 73.09 86.59 73.05 86.42C73.02 86.3 72.99 86.18 72.97 86.05C72.94 85.91 72.91 85.77 72.89 85.63C72.86 85.45 72.84 85.28 72.81 85.1C72.8 84.98 72.78 84.85 72.77 84.73C72.75 84.51 72.73 84.28 72.72 84.05C72.71 83.95 72.7 83.85 72.69 83.74C72.68 83.4 72.67 83.06 72.67 82.69C72.67 81.34 72.76 80.04 72.94 78.83C71.94 76.52 70.6 75.14 69.32 75.14C66.78 75.14 64.29 80.5 64.29 85.95C64.29 90.82 66.24 92.07 68.27 92.33ZM89.6 92.34C89.62 92.34 89.65 92.34 89.68 92.35C89.77 92.36 89.88 92.36 89.98 92.37L89.98 90.46L88.47 89C88.25 88.79 88.25 88.45 88.47 88.24C88.69 88.03 89.04 88.03 89.26 88.24L89.98 88.94L89.98 84.36C89.98 84.07 90.23 83.83 90.54 83.83C90.85 83.83 91.1 84.07 91.1 84.36L91.1 86.78L91.82 86.08C92.04 85.87 92.39 85.87 92.61 86.08C92.83 86.3 92.83 86.64 92.61 86.85L91.1 88.31L91.1 92.38C91.26 92.37 91.42 92.35 91.58 92.33C91.58 92.33 91.59 92.33 91.59 92.33C93.61 92.07 95.57 90.82 95.57 85.95C95.57 80.5 93.08 75.14 90.54 75.14C89.26 75.14 87.91 76.52 86.92 78.83C87.09 80.04 87.19 81.34 87.19 82.69C87.19 83.06 87.18 83.4 87.16 83.74C87.16 83.85 87.15 83.95 87.14 84.05C87.13 84.28 87.11 84.51 87.09 84.73C87.07 84.85 87.06 84.98 87.04 85.1C87.02 85.28 87 85.45 86.97 85.62C86.94 85.77 86.92 85.91 86.89 86.05C86.86 86.18 86.84 86.3 86.81 86.42C86.77 86.59 86.73 86.76 86.68 86.93C86.67 86.98 86.65 87.03 86.63 87.08C86.43 87.77 86.17 88.38 85.85 88.92C86.39 90.98 87.6 92.09 89.6 92.34ZM74.03 83.51C74.04 83.75 74.06 83.99 74.08 84.22C74.08 84.24 74.08 84.27 74.08 84.3C74.11 84.55 74.14 84.8 74.18 85.04C74.18 85.08 74.19 85.13 74.2 85.18C74.23 85.38 74.27 85.58 74.31 85.78C74.32 85.81 74.33 85.85 74.33 85.88C74.38 86.08 74.43 86.28 74.49 86.47C74.51 86.54 74.53 86.6 74.55 86.67C74.59 86.8 74.63 86.93 74.68 87.05C74.72 87.16 74.77 87.27 74.81 87.37C74.85 87.46 74.89 87.55 74.93 87.64C74.97 87.73 75.01 87.81 75.06 87.9C75.09 87.95 75.12 88 75.15 88.05C76.14 89.77 77.63 90.35 79.05 90.51C79.07 90.51 79.08 90.5 79.09 90.51C79.26 90.53 79.42 90.54 79.58 90.55L79.58 88.63L77.51 86.64C77.3 86.43 77.3 86.08 77.51 85.87C77.73 85.66 78.09 85.66 78.3 85.87L79.58 87.11L79.58 81.4C79.58 81.1 79.83 80.86 80.14 80.86C80.45 80.86 80.7 81.1 80.7 81.4L80.7 84.41L81.98 83.18C82.2 82.97 82.55 82.97 82.77 83.18C82.99 83.39 82.99 83.73 82.77 83.94L80.7 85.94L80.7 90.55C80.86 90.54 81.03 90.53 81.19 90.51C81.21 90.5 81.22 90.51 81.23 90.51C82.65 90.35 84.15 89.77 85.14 88.05C85.17 88 85.2 87.95 85.23 87.9C85.27 87.81 85.32 87.73 85.36 87.64C85.4 87.55 85.44 87.46 85.48 87.37C85.52 87.27 85.56 87.16 85.6 87.05C85.65 86.93 85.7 86.8 85.74 86.67C85.76 86.6 85.78 86.54 85.8 86.47C85.85 86.28 85.91 86.08 85.95 85.88C85.96 85.85 85.97 85.81 85.97 85.78C86.02 85.58 86.05 85.38 86.09 85.18C86.09 85.13 86.1 85.08 86.11 85.04C86.15 84.8 86.18 84.55 86.2 84.3C86.2 84.27 86.21 84.24 86.21 84.21C86.23 83.99 86.25 83.75 86.26 83.51C86.26 83.45 86.26 83.38 86.27 83.31C86.28 83.04 86.29 82.77 86.29 82.48C86.29 82.19 86.28 81.9 86.27 81.6C86.27 81.56 86.27 81.52 86.26 81.48C86.22 80.55 86.13 79.62 85.98 78.68L85.96 78.54L85.97 78.52C85.12 73.25 82.69 69 80.14 69C77.6 69 75.17 73.25 74.32 78.52L74.33 78.54L74.3 78.68C74.16 79.62 74.06 80.55 74.02 81.48C74.02 81.52 74.02 81.56 74.02 81.6C74.01 81.9 74 82.19 74 82.48C74 82.77 74.01 83.04 74.02 83.31C74.02 83.38 74.02 83.45 74.03 83.51Z"/>
	</g>
</svg>