<svg xmlns="http://www.w3.org/2000/svg" viewBox="55.75 62.05 47.57 41.38">
	<defs>
		<clipPath clipPathUnits="userSpaceOnUse" id="cp1">
			<path d="M0 0L170 0L170 170L0 170Z"/>
		</clipPath>
	</defs>
	<style>
		tspan { white-space:pre }
		.shp0 { fill: none;stroke: #90c578 } 
		.shp1 { fill: none;stroke: #90c578;stroke-width: 0.4 } 
		.shp2 { fill: none;stroke: #90c578;stroke-width: 0.5 } 
	</style>
	<g id="Page 1" clip-path="url(#cp1)">
		<path id="Path 11" class="shp0" d="M74.72 83.78C74.72 83.78 74.44 89.6 68.68 92.34C62.92 95.07 63.31 99.62 63.31 99.62M74.04 84.27C74.04 84.27 75.21 89.68 79.29 90.36M60.34 98.54C60.52 98.54 60.7 94.33 65.44 94.76M73.21 86.68C73.21 86.68 68.1 86.24 66.84 90.04M73.01 87.93C73.01 87.93 73.63 91.31 75.49 93.19C77.35 95.07 72.19 97.32 72.19 97.32M74.7 95.35C74.7 95.35 76.99 96.8 73.84 99.71M68.75 92.28C68.75 92.28 67.22 97.05 70.52 98.57M76.09 88.33C76.09 88.33 74.38 89.94 78.22 93.25C82.07 96.56 77.37 99.12 77.37 99.12M77.57 92.53C77.57 92.53 80.4 91.64 84.35 93.94C86.98 95.47 87.17 93.17 87.17 93.17M81.87 93.13C81.87 93.13 83.59 97.87 87.63 98.27M83.89 96.13C83.89 96.13 83.08 99.98 85.25 100.76"/>
		<path id="Path 12" class="shp1" d="M56.76 81.99L58.28 83.04M57.52 81.84L59.01 82.93M58.28 81.72L59.75 82.83M59.04 81.61L60.49 82.75M59.8 81.52L61.23 82.68M60.56 81.43L61.98 82.62M61.33 81.36L62.72 82.57M62.09 81.3L63.46 82.53M62.85 81.26L64.2 82.51M63.62 81.22L64.95 82.49M64.37 81.2L65.69 82.49M65.14 81.19L66.43 82.51M65.91 81.19L67.18 82.53M66.68 81.21L67.92 82.57M67.45 81.24L68.65 82.63M68.2 81.28L69.39 82.7M68.97 81.35L70.12 82.78M69.74 81.42L70.87 82.88M70.5 81.52L71.59 83M71.27 81.62L72.31 83.13M72.02 81.75L73.03 83.28M72.78 81.9L73.76 83.46M73.54 82.06L74.47 83.65M74.27 82.24L75.16 83.85M75.02 82.45L75.88 84.09M75.77 82.68L76.56 84.34M76.51 82.93L77.23 84.62M77.22 83.2L77.89 84.91M77.94 83.51L78.57 85.24M78.66 83.83L79.2 85.59M79.33 84.17L79.81 85.95M80.02 84.56L80.45 86.36M80.7 84.97L81.05 86.78M81.34 85.4L81.67 87.21M81.96 85.83L82.29 87.64M82.59 86.26L82.9 88.07M83.21 86.69L83.52 88.51M83.82 87.13L84.13 88.94M84.44 87.57L84.75 89.38M85.06 88L85.36 89.82M85.67 88.44L85.97 90.26M86.29 88.88L86.58 90.7M86.9 89.33L87.19 91.14M87.51 89.77L87.8 91.59M88.12 90.21L88.41 92.03M88.73 90.66L89.02 92.47M89.34 91.1L89.63 92.92M89.95 91.55L90.23 93.37M90.56 91.99L90.84 93.81M91.17 92.44L91.45 94.26M91.78 92.89L92.05 94.71M92.39 93.34L92.66 95.16M92.99 93.79L93.26 95.61M93.6 94.24L93.87 96.06M94.21 94.69L94.47 96.51M94.81 95.14L95.08 96.96M95.42 95.59L95.68 97.41M96.02 96.04L96.28 97.87M96.63 96.5L96.88 98.32M97.23 96.95L97.49 98.77M97.83 97.41L98.09 99.23M98.44 97.86L98.69 99.68M99.04 98.32L99.29 100.14M99.64 98.77L99.89 100.6M100.24 99.23L100.49 101.05M100.84 99.69L101.09 101.51M101.44 100.14L101.69 101.97M102.05 100.6L102.29 102.43"/>
		<path id="Path 13" class="shp2" d="M74.76 85.36C74.56 85.36 75.92 73.58 70.22 69.07M73.26 73.21C73.26 73.21 63.58 75.52 61.81 63.53C61.81 63.53 73.53 61.04 73.26 73.21ZM74.3 85.13C74.44 85.13 73.69 76.45 77.7 73.18M75.19 76.36C75.19 76.36 81.96 78.41 83.67 69.72C83.67 69.72 75.47 67.47 75.19 76.36Z"/>
		<path id="Path 14" class="shp0" d="M69.02 87.81C69.02 87.81 67.26 90.22 63.02 91.56C60.19 92.46 61.19 93.89 61.19 93.89M67.25 90.17C67.25 90.17 63.08 86.53 59.9 90.19M65.69 89.23C65.69 89.23 63.55 85.58 61.84 86.06"/>
	</g>
</svg>