<svg xmlns="http://www.w3.org/2000/svg" viewBox="63.33 68.02 33.18 29.58">
	<defs>
		<clipPath clipPathUnits="userSpaceOnUse" id="cp1">
			<path d="M0 0L170 0L170 170L0 170Z"/>
		</clipPath>
	</defs>
	<style>
		tspan { white-space:pre }
		.shp0 { fill: #403b34 } 
	</style>
	<g id="Page 1" clip-path="url(#cp1)">
		<path id="Path 34 copy" class="shp0" d="M81.13 76.84C81.12 76.89 81.11 76.93 81.1 76.98C81.11 76.93 81.12 76.89 81.13 76.84ZM63.36 91.78C68.86 93.92 75.44 97.74 79.57 97.59C83.08 97.44 85.4 91.48 85.99 90.25C83.45 88.58 77.27 87.04 71 89.64C76.81 84.74 88.42 88.96 91.72 93.2L92.7 90.36L86.56 88.25C85.7 85.62 84.92 83.06 82.17 81.84C73.3 79.39 64.8 86.76 63.36 91.78ZM88.68 68.04C87.08 72.17 84.21 77.1 84.32 80.2C84.44 82.84 88.91 84.57 89.83 85.02C91.08 83.11 92.24 78.48 90.29 73.78C93.96 78.13 90.8 86.84 87.61 89.31L89.75 90.04L91.33 85.44C93.3 84.8 95.22 84.21 96.14 82.15C97.97 75.5 92.45 69.12 88.68 68.04Z"/>
	</g>
</svg>