<svg xmlns="http://www.w3.org/2000/svg" viewBox="70 72.87 19.85 19.92">
	<defs>
		<clipPath clipPathUnits="userSpaceOnUse" id="cp1">
			<path d="M0 0L170 0L170 170L0 170Z"/>
		</clipPath>
	</defs>
	<g id="Page 1" clip-path="url(#cp1)">
		<path id="Path 34 copy" fill-rule="evenodd" class="shp0" d="M89.84 83.05C89.59 88.04 84.83 87.55 84.83 87.55C84.83 87.55 85.31 91.87 81.27 92.65C76.47 93.56 76.74 88.87 76.74 88.87C76.74 88.87 72.65 91.54 70.61 88.05C68.58 84.55 72.33 82.2 72.33 82.2C72.33 82.2 68.28 79.23 71.59 75.54C74.59 72.18 77.96 75.89 77.96 75.89C77.96 75.89 80.22 71.75 83.15 73.16C87.32 75.17 85.48 79.09 85.48 79.09C85.48 79.09 90.03 79.4 89.84 83.05ZM84.24 81.97C84.15 81.43 83.3 81.47 81.47 81.77C82.58 80.81 83.31 80.29 82.92 79.9C82.55 79.52 81.8 79.92 80.77 80.82C80.85 79.52 80.81 78.54 80.32 78.5C79.78 78.45 79.68 79.41 79.49 80.82C78.73 79.46 78.34 78.76 77.7 79.22C76.99 79.72 77.55 80.47 78.61 81.6C77.31 80.82 76.27 80.38 75.99 80.91C75.71 81.44 76.45 81.92 78.08 82.46C76.4 82.84 75.65 83.14 75.71 83.49C75.77 83.8 76.63 83.7 78.08 83.44C76.99 84.53 76.28 85.33 76.63 85.68C76.98 86.04 77.84 85.3 78.98 84.17C78.89 85.69 78.97 86.78 79.49 86.83C79.92 86.87 79.97 85.45 80.15 84.3C80.15 84.3 81.64 86.39 82.34 85.89C83.01 85.42 82.31 84.74 81.35 83.69C82.6 84.37 83.45 84.84 83.76 84.07C84.06 83.32 83.14 83.13 81.81 82.79C83.53 82.55 84.34 82.5 84.24 81.97ZM81.13 76.84C81.12 76.89 81.11 76.93 81.1 76.98C81.11 76.93 81.12 76.89 81.13 76.84Z"/>
	</g>
</svg>