<svg xmlns="http://www.w3.org/2000/svg" viewBox="67.25 72.37 25.35 20.88">
	<defs>
		<clipPath clipPathUnits="userSpaceOnUse" id="cp1">
			<path d="M0 0L170 0L170 170L0 170Z"/>
		</clipPath>
	</defs>
	<g id="Page 1" clip-path="url(#cp1)">
		<path id="Path 34" class="shp0" d="M81.13 76.84C81.12 76.89 81.11 76.93 81.1 76.98C81.11 76.93 81.12 76.89 81.13 76.84ZM92.31 74.64C91.28 75.19 88.93 75.02 86.8 75.28C82.8 75.74 81.22 77.93 81.22 79.78C81.22 80.19 81.35 82.92 81.73 83.67C81.74 83.68 81.74 83.69 81.74 83.7C82.55 82.91 83.88 82.85 84.84 83.59C85.87 84.4 86.08 85.84 85.3 86.81C84.52 87.78 83.05 87.92 82.02 87.11C80.98 86.31 80.77 84.87 81.55 83.89C81.57 83.87 81.6 83.85 81.62 83.82C81.28 83.37 81.32 83.22 80.43 80.52C79.73 81.48 78.18 82.34 77.75 84.72C79.97 84.78 81.76 86.66 81.76 88.98C81.76 91.33 79.92 93.24 77.65 93.24C75.38 93.24 73.53 91.33 73.53 88.98C73.53 86.63 75.36 84.74 77.62 84.71C77.73 81.21 80.78 80.57 81.19 76.33C81.19 76.33 81.2 76.33 81.2 76.33C80.01 76.42 78.8 76.35 77.63 76.16C76.33 77.57 74.91 77.95 74.85 78.01L74.84 78.01C74.84 78.01 74.85 78.01 74.85 78.01C73.71 78.46 73.45 78.84 73.05 79.34C74.25 79.94 74.75 81.43 74.14 82.71C73.53 84.01 72.01 84.6 70.75 84.02C69.49 83.44 68.97 81.91 69.59 80.61C70.21 79.31 71.72 78.73 72.97 79.29C73.97 77.81 75.36 77.05 76.04 75.8C75.49 75.65 74.96 75.46 74.43 75.24C72.51 74.57 71.19 74.5 68.92 74.23C68.52 74.17 67.59 74.25 67.34 73.87C67 73.36 67.89 73.39 68.19 73.39C72.49 73.38 76.75 74.82 81.02 74.3C86.1 73.7 90.36 71.95 92.03 72.5C92.65 72.71 92.78 74.39 92.31 74.64Z"/>
	</g>
</svg>