<svg xmlns="http://www.w3.org/2000/svg" viewBox="68.93 73.18 22.02 19.27">
	<defs>
		<clipPath clipPathUnits="userSpaceOnUse" id="cp1">
			<path d="M0 0L170 0L170 170L0 170Z"/>
		</clipPath>
	</defs>
	<style>
		tspan { white-space:pre }
		.shp0 { fill: #955441 }
	</style>
	<g id="Page 1" clip-path="url(#cp1)">
		<path id="Path 22 copy" fill-rule="evenodd" class="shp0" d="M89.01 82.53L89.01 87.25L90.92 87.25L90.92 89.42L89.01 89.42L89.01 92.13C89.01 92.3 88.86 92.44 88.69 92.44L84.63 92.44C84.54 92.44 84.46 92.41 84.41 92.35C84.35 92.29 84.31 92.21 84.31 92.13L84.31 89.42L82.27 89.42L82.27 92.13C82.27 92.3 82.13 92.44 81.96 92.44L77.9 92.44C77.81 92.44 77.73 92.41 77.67 92.35C77.62 92.29 77.58 92.21 77.58 92.13L77.58 89.42L75.54 89.42L75.54 92.13C75.54 92.3 75.4 92.44 75.23 92.44L71.17 92.44C71.08 92.44 71 92.41 70.94 92.35C70.88 92.29 70.85 92.21 70.85 92.13L70.85 89.42L68.94 89.42L68.94 87.25L70.85 87.25L70.85 82.53L68.94 82.53L68.94 80.35L70.85 80.35L70.85 75.97C70.85 75.9 70.88 75.83 70.92 75.77L72.95 73.31C73.01 73.23 73.1 73.19 73.2 73.19C73.29 73.19 73.38 73.23 73.44 73.31L75.46 75.76C75.51 75.81 75.54 75.89 75.54 75.97L75.54 80.35L77.58 80.35L77.58 75.97C77.58 75.9 77.61 75.83 77.65 75.77L79.68 73.31C79.8 73.16 80.05 73.16 80.17 73.31L82.19 75.76C82.24 75.81 82.27 75.89 82.27 75.97L82.27 80.35L84.31 80.35L84.31 75.97C84.31 75.9 84.34 75.83 84.38 75.77L86.42 73.31C86.48 73.23 86.57 73.19 86.66 73.19C86.75 73.19 86.84 73.23 86.9 73.31L88.92 75.76C88.97 75.81 89.01 75.89 89.01 75.97L89.01 80.35L90.92 80.35L90.92 82.53L89.01 82.53ZM86.66 88.86C86.95 88.86 87.18 88.63 87.18 88.34C87.18 88.05 86.95 87.81 86.66 87.81C86.37 87.81 86.14 88.05 86.14 88.34C86.14 88.63 86.37 88.86 86.66 88.86ZM86.66 80.92C86.37 80.92 86.14 81.15 86.14 81.44C86.14 81.73 86.37 81.96 86.66 81.96C86.95 81.96 87.18 81.73 87.18 81.44C87.18 81.15 86.95 80.92 86.66 80.92ZM79.93 81.96C80.22 81.96 80.45 81.73 80.45 81.44C80.45 81.15 80.22 80.92 79.93 80.92C79.64 80.92 79.4 81.15 79.4 81.44C79.4 81.73 79.64 81.96 79.93 81.96ZM79.93 88.86C80.22 88.86 80.45 88.63 80.45 88.34C80.45 88.05 80.22 87.81 79.93 87.81C79.64 87.81 79.4 88.05 79.4 88.34C79.4 88.63 79.64 88.86 79.93 88.86ZM73.2 88.86C73.49 88.86 73.72 88.63 73.72 88.34C73.72 88.05 73.49 87.81 73.2 87.81C72.91 87.81 72.67 88.05 72.67 88.34C72.67 88.63 72.91 88.86 73.2 88.86ZM73.2 81.96C73.49 81.96 73.72 81.73 73.72 81.44C73.72 81.15 73.49 80.92 73.2 80.92C72.91 80.92 72.67 81.15 72.67 81.44C72.67 81.73 72.91 81.96 73.2 81.96ZM75.54 87.25L77.58 87.25L77.58 82.53L75.54 82.53L75.54 87.25ZM84.31 87.25L84.31 82.53L82.27 82.53L82.27 87.25L84.31 87.25Z"/>
	</g>
</svg>