<svg xmlns="http://www.w3.org/2000/svg" viewBox="60.85 65.77 42.13 34.08">
	<defs>
		<clipPath clipPathUnits="userSpaceOnUse" id="cp1">
			<path d="M0 0L170 0L170 170L0 170Z"/>
		</clipPath>
	</defs>
	<style>
		tspan { white-space:pre }
		.shp0 { fill: #90c578 } 
		.shp1 { fill: none;stroke: #90c578;stroke-width: 2 } 
	</style>
	<g id="Page 1" clip-path="url(#cp1)">
		<path id="Path 7" fill-rule="evenodd" class="shp0" d="M96.25 84.03C96.53 83.93 96.86 83.63 97.23 83.24C96.29 86.59 98.09 90.64 98.09 90.64L66.4 90.64C66.4 90.64 70.92 79.58 60.88 78.2C63.82 78.26 65.87 80.57 67.27 81.01C67.32 80.9 67.37 80.24 67.44 79.61C67.72 79.89 67.99 80.12 68.25 80.28C68.59 80.05 69.07 79.2 69.63 78.34C70.64 79.85 71.39 86.69 71.94 87.36C72.06 86.1 72.05 77.64 71.62 76.35C71.41 76.43 71.21 76.53 71.03 76.62C71.22 76.47 71.41 76.36 71.61 76.3C71.15 74.93 70.22 73.73 68.5 73.13C72.02 73.75 73.46 79.64 73.93 81.63C74.15 80.99 74.51 76.38 75.08 75.82C74.54 75.08 73.83 74.37 72.9 73.75C74.09 74.14 75.07 74.63 75.86 75.18C76.36 74.83 76.96 74.52 77.68 74.25C77.16 74.66 76.78 75.15 76.51 75.68C77.44 76.47 78.06 83.36 78.46 84.25C78.9 83.49 79.5 76.73 80.31 76.01C79.82 75.44 79.06 74.96 77.93 74.63C79.09 74.91 80.01 75.26 80.72 75.66C81.12 75.35 81.55 75.05 82.03 74.76C81.61 73.71 78.48 72.42 79.77 72C82 71.28 82.34 73.35 83.09 74.19C83.5 73.99 83.94 73.8 84.41 73.62C84 73.87 83.63 74.14 83.29 74.43C84.66 76.11 84.82 84.09 84.58 85.78C85.04 84.52 85.76 77.13 86.9 75.85C86.4 74.72 85.42 73.76 83.69 73.22C85.47 73.68 86.75 74.33 87.65 75.09C88.73 74.08 90.13 73.19 91.91 72.57C90.43 73.44 89.33 74.66 88.51 75.98C89.17 76.83 89.47 82.75 89.57 83.66C90.01 82.67 90.74 76.66 91.89 75.75C91.58 75.61 91.24 75.48 90.87 75.35C91.28 75.44 91.67 75.54 92.04 75.64C93.08 74.85 94.45 74.15 96.26 73.63C94.96 74.3 93.98 75.14 93.25 76.03C94.51 76.49 95.35 77.02 95.88 77.58C96.86 77.27 97.99 76.99 99.3 76.77C98.09 77.05 97.08 78.49 96.23 79.01C96.6 79.56 96.3 83.48 96.25 84.03ZM63.46 75.66C63.09 75.49 62.71 75.34 62.32 75.19C62.72 75.29 63.1 75.45 63.46 75.66ZM67.65 78.39C67.57 78.48 67.5 79.04 67.44 79.61C66.34 78.5 65.09 76.6 63.46 75.66C65.15 76.43 66.53 77.4 67.65 78.39ZM101.77 79.17C102.16 79.02 102.56 78.94 102.97 78.95C102.54 79 102.14 79.08 101.77 79.17ZM97.23 83.24C97.74 81.45 99.02 79.86 101.77 79.17C99.93 79.87 98.37 82.04 97.23 83.24ZM70.86 89.26C70.65 88.9 70.38 88.48 70.05 88.04C70.13 88.25 70.16 88.46 70.16 88.67C70.31 88.88 70.47 89.08 70.62 89.26L70.86 89.26ZM71.03 76.62C70.53 77.02 70.05 77.68 69.63 78.34C69.55 78.24 69.48 78.16 69.41 78.11C69.68 77.57 70.18 77.06 71.03 76.62ZM74.32 89.26C74.2 88.96 74.07 88.61 73.97 88.24C73.9 88.62 73.82 88.96 73.75 89.26L74.32 89.26ZM75.97 77.4C75.73 79.16 76.18 88.03 76.59 89.26L76.63 89.26C76.76 88.06 76.75 79.22 75.97 77.4ZM80.96 77.31C79.97 79.14 79.61 88.03 79.48 89.26L79.54 89.26C80.35 87.97 81.32 78.99 80.96 77.31ZM82.55 77.34C82.53 76.7 82.44 76.05 82.26 75.43C82.03 75.7 81.81 75.97 81.61 76.25C82.03 76.6 82.34 76.96 82.55 77.34ZM83.93 89.22C83.93 89.24 83.92 89.25 83.92 89.26L83.92 89.26C83.93 89.25 83.93 89.24 83.93 89.22ZM87.36 78.29C86.77 79.81 86.46 88.26 86.3 89.26L86.54 89.26C86.92 88.24 87.35 79.77 87.36 78.29ZM94.34 79.57C93.46 80.51 92.92 88.5 92.59 89.26L92.8 89.26C93.44 88.53 94.1 80.57 94.34 79.57ZM94.34 78.17C94.17 77.54 93.76 76.93 92.98 76.38C92.08 77.61 91.61 78.94 91.38 80.11C92.03 79.45 92.97 78.77 94.34 78.17Z"/>
		<path id="Path 8" class="shp1" d="M67.9 94.85L91.96 70.79"/>
	</g>
</svg>