<svg xmlns="http://www.w3.org/2000/svg" viewBox="65.62 70.37 28.63 24.92">
	<defs>
		<clipPath clipPathUnits="userSpaceOnUse" id="cp1">
			<path d="M0 0L170 0L170 170L0 170Z"/>
		</clipPath>
	</defs>
	<style>
		tspan { white-space:pre }
		.shp0 { fill: #403b34 } 
	</style>
	<g id="Page 1" clip-path="url(#cp1)">
		<path id="Path 32" class="shp0" d="M74.02 70.39C75.69 70.49 82.09 70.39 85.64 70.38C87.35 70.37 87.2 70.61 88.09 72.24C89.28 74.42 92.71 80.75 93.45 81.49C94.19 82.23 94.75 82.56 93.45 84.08C92.16 85.6 88.99 90.95 87.57 93.48C86.53 95.34 86.09 95.37 84.13 95.18C82.17 95 76.71 94.89 74.84 94.89C72.97 94.89 72.14 94.13 71.58 93.11C71.03 92.09 67.18 84.92 66.07 83.9C64.96 82.87 66.25 80.94 66.62 80.38C66.99 79.83 71.06 73.59 71.25 72.55C71.43 71.5 71.8 70.25 74.02 70.39Z"/>
	</g>
</svg>