<svg xmlns="http://www.w3.org/2000/svg" viewBox="62.92 79.05 34.03 7.55">
	<defs>
		<clipPath clipPathUnits="userSpaceOnUse" id="cp1">
			<path d="M0 0L170 0L170 170L0 170Z"/>
		</clipPath>
	</defs>
	<style>
		tspan { white-space:pre }
		.shp0 { fill: #90c578 } 
	</style>
	<g id="Page 1" clip-path="url(#cp1)">
		<path id="Path 9 copy" class="shp0" d="M87.02 86.56C87.36 85.94 87.71 85.25 87.89 84.67C88.1 84.02 88.2 83.15 88.26 82.42C88.28 82.17 88.28 82.17 88.29 81.97C89.08 81.88 90.06 81.69 90.97 81.48C91.06 81.62 91.1 81.67 91.25 81.91C91.53 82.34 91.83 82.88 91.92 83.15C92.07 83.62 92.16 84.52 92.2 85.26C92.21 85.57 92.21 85.6 92.21 85.83C90.61 86.23 88.78 86.64 87.02 86.56L87.02 86.56ZM85.75 86.42C84.19 86.14 82.85 85.55 81.65 85.01C81.75 84.8 81.76 84.79 81.87 84.51C82.17 83.77 82.51 82.89 82.64 82.19C82.73 81.69 82.72 81.08 82.71 80.54C82.85 80.6 83 80.67 83.13 80.73C84.68 81.43 85.98 81.96 87.09 82.04C87.08 82.18 87.09 82.17 87.07 82.32C87.01 83.02 86.9 83.87 86.75 84.33C86.6 84.81 86.19 85.63 85.83 86.28C85.79 86.36 85.79 86.34 85.75 86.42ZM93.39 85.52L93.39 85.2C93.36 84.43 93.29 83.51 93.06 82.8C92.9 82.3 92.57 81.76 92.28 81.3C92.23 81.22 92.23 81.23 92.18 81.16C93.13 80.9 93.87 80.67 93.87 80.67C97.01 80.1 97.85 82.85 95.87 84.42C95.23 84.93 94.46 85.22 93.4 85.52L93.39 85.52ZM64.97 85.45C62.48 85.42 62.18 83.09 64.51 82.21C64.51 82.21 65.03 82.01 65.75 81.75C65.81 81.84 65.8 81.83 65.86 81.94C66.16 82.49 66.48 83.18 66.56 83.52C66.64 83.85 66.65 84.52 66.63 85.07C66.62 85.22 66.62 85.22 66.61 85.35C65.99 85.39 65.23 85.45 64.97 85.45ZM67.81 85.27C67.81 85.2 67.82 85.21 67.82 85.12C67.85 84.53 67.86 83.84 67.72 83.26C67.58 82.66 67.23 81.98 66.92 81.4C66.9 81.38 66.9 81.38 66.89 81.36C67.59 81.12 68.25 80.89 69.13 80.62C69.57 80.48 70.04 80.34 70.51 80.21C70.59 80.37 70.61 80.39 70.71 80.62C70.96 81.15 71.23 81.82 71.3 82.16C71.4 82.66 71.41 83.57 71.38 84.32C71.37 84.55 71.37 84.55 71.35 84.74C71.05 84.8 70.74 84.88 70.45 84.93C68.93 85.2 68.36 85.25 67.81 85.27L67.81 85.27ZM80.56 84.53C79.3 83.98 78.21 83.6 77.27 83.57C77.08 83.57 76.88 83.57 76.65 83.6C76.84 82.96 77.03 82.26 77.11 81.7C77.22 80.87 77.19 79.84 77.15 79.06C77.23 79.06 77.31 79.06 77.39 79.06C78.94 79.1 80.28 79.53 81.48 80.02C81.5 80.19 81.5 80.22 81.51 80.46C81.53 81 81.52 81.65 81.46 81.99C81.37 82.49 81.05 83.37 80.76 84.08C80.66 84.33 80.65 84.33 80.56 84.53L80.56 84.53ZM72.57 84.47C72.57 84.41 72.57 84.42 72.58 84.36C72.61 83.58 72.62 82.65 72.47 81.93C72.36 81.37 72.07 80.71 71.81 80.15C71.74 80.01 71.74 80.02 71.68 79.9C73.1 79.53 74.55 79.22 75.95 79.11C75.98 79.89 76.01 80.9 75.92 81.55C75.84 82.16 75.56 83.07 75.32 83.84C74.48 84.01 73.55 84.24 72.57 84.47L72.57 84.47Z"/>
	</g>
</svg>