<svg xmlns="http://www.w3.org/2000/svg" viewBox="67.47 71.47 24.92 22.72">
	<defs>
		<clipPath clipPathUnits="userSpaceOnUse" id="cp1">
			<path d="M0 0L170 0L170 170L0 170Z"/>
		</clipPath>
	</defs>
	<style>
		tspan { white-space:pre }
		.shp0 { fill: #90c578 } 
	</style>
	<g id="Page 1" clip-path="url(#cp1)">
		<path id="Path 9" class="shp0" d="M90.51 74.1L92.38 75.19L90.56 75.86C90.67 75.14 90.67 74.72 90.51 74.1ZM83.51 82.14C83.09 83.6 80.75 85.36 72.24 85.88C73.38 84.27 76.97 79.5 80.65 77.32C81.74 78.1 84.03 80.33 83.51 82.14Z"/>
		<path id="Path 10" fill-rule="evenodd" class="shp0" d="M67.57 92.63L73.18 86.82C80.03 86.3 83.77 84.84 84.49 82.46C85.22 79.96 82.47 77.47 81.48 76.64C81.69 76.28 81.84 75.86 81.84 75.4C81.84 73.11 83.82 71.24 86.2 71.5C87.92 71.66 89.37 73.06 89.63 74.83C89.79 75.92 88.9 77.68 88.9 77.68C88.9 77.68 89.63 85.1 82.78 88.74C82.42 88.89 82.16 89.2 82.1 89.62C82.05 89.83 81.95 90.09 81.84 90.24C81.84 90.24 84.86 93.2 84.96 93.2C85.06 93.2 86.93 92.48 87.71 93.77C87.72 93.77 87.73 93.77 87.71 93.77C87.71 93.77 87.71 93.77 87.71 93.77C87.7 93.77 87.69 93.77 87.69 93.77C87.49 93.78 86.33 93.83 81.38 93.98C81.38 93.98 82.05 92.89 83.61 93.15L80.96 90.55C80.65 90.45 80.24 90.14 79.77 89.52C79.3 89.46 77.95 89.1 75.56 89.2L73.23 89.31L68.24 94.08C68.04 94.24 67.78 94.14 67.78 93.88L67.78 93.41C67.78 93.3 67.73 93.2 67.62 93.15C67.47 92.99 67.41 92.73 67.57 92.63ZM87.69 93.77C87.7 93.77 87.7 93.77 87.71 93.77C87.71 93.77 87.71 93.77 87.71 93.77C87.66 93.77 87.53 93.77 87.69 93.77ZM86.78 75.19C87.35 75.19 87.81 74.72 87.81 74.15C87.81 73.58 87.35 73.11 86.78 73.11C86.2 73.11 85.74 73.58 85.74 74.15C85.79 74.72 86.2 75.19 86.78 75.19Z"/>
	</g>
</svg>