<svg xmlns="http://www.w3.org/2000/svg" viewBox="68.58 70.22 22.72 25.23">
	<defs>
		<clipPath clipPathUnits="userSpaceOnUse" id="cp1">
			<path d="M0 0L170 0L170 170L0 170Z"/>
		</clipPath>
	</defs>
	<style>
		tspan { white-space:pre }
		.shp0 { fill: #90c578 } 
	</style>
	<g id="Page 1" clip-path="url(#cp1)">
		<path id="Path 15 copy" class="shp0" d="M83.18 73.25L83.14 73.23L83.11 73.19C82.31 71.95 81 71 79.43 70.53C78.74 70.32 78 70.22 77.23 70.22C74.74 70.22 72.38 71.32 71.37 72.97L71.35 73.01L71.31 73.03C70.12 73.55 69.17 74.74 68.78 76.21C68.35 77.81 68.65 79.46 69.6 80.75C70.31 81.72 71.07 82.19 71.91 82.19C72.24 82.19 72.58 82.12 72.96 81.98C73.99 81.49 74.47 80.91 74.48 80.89C74.51 80.85 74.55 80.83 74.6 80.83C74.68 80.83 74.74 80.9 74.74 80.98C74.74 81.11 74.26 81.53 73.85 81.8C73.79 81.84 73.72 81.89 73.65 81.93C74.11 81.97 74.9 82.03 75.75 82.03C77.43 82.03 78.64 81.82 79.26 81.44L79.33 81.39L79.41 81.44C80.12 81.88 81.07 81.99 81.47 82.03C81.62 82.05 81.66 82.06 81.7 82.08C82.32 82.39 82.98 82.56 83.6 82.56C85.07 82.56 86.23 81.65 86.63 80.18C87.16 78.21 86.7 74.58 83.18 73.25ZM79.38 86.37C79.63 85.02 80.32 83.42 81.14 82.28C80.67 82.22 79.94 82.08 79.33 81.73C79.33 81.73 79.32 81.74 79.31 81.74C79.12 82.36 78.84 83.03 78.6 83.66C78.43 84.11 78.35 85.15 78.18 86.03C78.17 86.01 78.07 85.7 78.06 85.68C77.75 84.77 77.49 84.09 77.35 83.13C77.3 82.78 77.33 82.47 77.46 82.23C76.96 82.29 76.39 82.31 75.76 82.31C74.98 82.31 74.26 82.27 73.78 82.23C74.16 82.7 74.58 83.15 75.04 83.62C76.32 84.91 76.91 86.58 77.18 88.36C77.23 88.64 77.32 89.11 77.38 89.69C77.44 90.28 77.29 90.73 77.25 91.01L78.92 91.01C78.89 90.72 78.79 90.22 78.82 89.64C78.85 89.05 79.28 86.86 79.38 86.37ZM78.39 90C78.24 89.99 78.19 89.99 78.15 89.98C78.12 89.97 78.09 89.97 78.06 89.96L73.32 92.39C73.5 92.66 73.78 92.93 74.18 93.18L80.05 90.18C79.41 90.05 78.72 90.01 78.39 90ZM86.9 90.02C85.87 90.25 85.39 90.51 85.37 90.52C85.35 90.54 85.31 90.55 85.26 90.55C85.18 90.55 85.12 90.52 85.12 90.48C85.12 90.42 85.6 90.23 86 90.1C86.07 90.09 86.14 90.06 86.21 90.04C85.84 90.03 85.26 90.01 84.62 90L76.73 94.04L76.74 94.05C77.06 94.28 77.46 94.48 77.93 94.66L87.02 90C86.98 90.01 86.94 90.02 86.9 90.02ZM90.26 90.59C90.24 90.57 90.22 90.56 90.19 90.55L80.87 95.32C81.43 95.38 82.02 95.42 82.63 95.42C82.79 95.42 82.95 95.41 83.11 95.41L91.06 91.34C90.89 91.07 90.63 90.82 90.26 90.59ZM83.71 90C82.48 90.01 81.53 90.08 80.92 90.2L74.62 93.42C75.02 93.61 75.5 93.77 76.08 93.91L83.71 90ZM84.13 95.35C86.03 95.2 87.68 94.75 88.49 94.15L88.51 94.14L88.55 94.13C89.74 93.89 90.68 93.34 91.08 92.67C91.26 92.35 91.31 92.03 91.23 91.72L84.13 95.35ZM77.38 89.84C77.01 89.79 76.63 89.76 76.26 89.76C74.79 89.76 73.63 90.17 73.23 90.85C73.04 91.17 72.98 91.58 73.13 92.01L77.38 89.84ZM89.75 90.31C89.22 90.07 88.67 89.95 88.08 89.93L78.47 94.85C78.97 95.01 79.53 95.13 80.14 95.23L89.75 90.31Z"/>
	</g>
</svg>