<svg xmlns="http://www.w3.org/2000/svg" viewBox="66.08 67.25 27.72 31.13">
	<defs>
		<clipPath clipPathUnits="userSpaceOnUse" id="cp1">
			<path d="M0 0L170 0L170 170L0 170Z"/>
		</clipPath>
	</defs>
	<style>
		tspan { white-space:pre }
		.shp0 { fill: #90c578 } 
	</style>
	<g id="Page 1" clip-path="url(#cp1)">
		<path id="Path 4" class="shp0" d="M75.54 89.28C75.59 89.9 75.69 90.5 75.83 91.07C76.01 91.18 76.32 91.29 76.73 91.4C78.52 91.89 81.96 91.91 83.63 91.17C83.78 90.57 83.89 89.94 83.95 89.28C82.18 90.21 77.3 90.21 75.54 89.28ZM76.94 93.9C78.53 94.27 80.89 94.28 82.52 93.94C82.89 93.35 83.18 92.67 83.42 91.95C81.57 92.57 77.86 92.59 76.05 91.88C76.28 92.62 76.58 93.31 76.94 93.9ZM81.95 94.71C80.55 94.9 78.88 94.9 77.51 94.68C78.87 96.26 80.58 96.27 81.95 94.71ZM82.32 86.47C81.9 85.99 81.53 85.5 81.21 85.01C80.38 85.14 79.46 85.14 78.63 85.03C78.29 85.54 77.91 86.04 77.49 86.52C78.77 87.01 81.07 87.01 82.32 86.47ZM87.66 89.53C90.47 90.47 91.91 88.98 90.99 86.08C90.03 83.02 86.82 79.7 83.86 78.71C80.9 77.72 79.47 79.46 80.61 82.4C81.76 85.39 84.66 88.52 87.66 89.53ZM77.78 77.78C78.61 77.83 79.35 78.17 79.81 78.89L80.05 78.89C80.51 78.17 81.25 77.83 82.07 77.78C83.37 75.98 82.14 73.36 79.92 73.36C77.71 73.36 76.48 75.98 77.78 77.78ZM75.49 88.43C75.49 89.67 84.21 89.29 84.21 88.42C84.13 88.42 82.96 87.17 82.78 86.97C81.36 87.72 78.48 87.73 77.02 87.04C76.7 87.36 75.49 88.43 75.49 88.43ZM79.93 82.42C79.7 83.11 79.4 83.76 79.02 84.41C79.61 84.46 80.24 84.46 80.83 84.39C80.44 83.72 80.13 83.06 79.93 82.42ZM74.96 88C76.66 86.7 78.26 84.83 79.09 82.85C80.33 79.86 79.33 77.59 76 78.71C73.04 79.7 69.83 83.02 68.86 86.08C67.95 88.98 69.39 90.47 72.2 89.53C73.08 89.23 74.03 88.72 74.96 88ZM80.8 72.82C81.17 71.27 82.04 70.83 83.63 70.4L83.47 69.76C81.66 70.25 80.6 70.84 80.17 72.71L80.8 72.82ZM79.05 72.82L79.68 72.71C79.25 70.84 78.19 70.25 76.39 69.76L76.22 70.4C77.81 70.83 78.68 71.27 79.05 72.82Z"/>
	</g>
</svg>