<svg xmlns="http://www.w3.org/2000/svg" viewBox="60.42 70.52 39.03 24.62">
	<defs>
		<clipPath clipPathUnits="userSpaceOnUse" id="cp1">
			<path d="M0 0L170 0L170 170L0 170Z"/>
		</clipPath>
	</defs>
	<style>
		tspan { white-space:pre }
		.shp0 { fill: #955441 } 
	</style>
	<g id="Page 1" clip-path="url(#cp1)">
		<path id="Path 31" class="shp0" d="M68.13 87.66C68.17 88.13 68.25 88.58 68.35 89C68.48 89.09 68.72 89.18 69.02 89.26C70.37 89.62 72.95 89.63 74.2 89.08C74.31 88.64 74.39 88.16 74.44 87.66C73.12 88.36 69.45 88.36 68.13 87.66ZM69.19 91.13C70.38 91.41 72.14 91.42 73.37 91.16C73.64 90.72 73.87 90.21 74.04 89.67C72.66 90.13 69.87 90.14 68.51 89.61C68.69 90.17 68.91 90.68 69.19 91.13ZM72.94 91.74C71.89 91.88 70.64 91.88 69.61 91.71C70.63 92.9 71.91 92.91 72.94 91.74ZM73.22 85.55C72.91 85.2 72.63 84.83 72.39 84.46C71.77 84.56 71.08 84.56 70.45 84.48C70.2 84.86 69.91 85.23 69.6 85.6C70.56 85.96 72.28 85.96 73.22 85.55ZM77.22 87.85C79.33 88.56 80.41 87.44 79.72 85.26C79 82.97 76.59 80.48 74.37 79.74C72.15 78.99 71.08 80.3 71.93 82.5C72.8 84.75 74.98 87.1 77.22 87.85ZM69.81 79.04C70.43 79.08 70.99 79.33 71.33 79.87L71.51 79.87C71.86 79.33 72.41 79.08 73.03 79.04C74.01 77.69 73.08 75.72 71.42 75.72C69.76 75.72 68.84 77.69 69.81 79.04ZM68.09 87.03C68.09 87.95 74.64 87.67 74.64 87.02C74.57 87.02 73.7 86.08 73.56 85.94C72.5 86.5 70.34 86.5 69.24 85.98C69 86.23 68.09 87.03 68.09 87.03ZM71.42 82.52C71.26 83.04 71.03 83.53 70.74 84.01C71.18 84.05 71.66 84.05 72.1 84C71.8 83.5 71.58 83 71.42 82.52ZM67.7 86.71C68.98 85.73 70.17 84.33 70.79 82.84C71.72 80.6 70.98 78.9 68.48 79.74C66.25 80.48 63.85 82.97 63.12 85.26C62.44 87.44 63.52 88.56 65.63 87.85C66.29 87.63 67 87.24 67.7 86.71ZM72.08 75.32C72.36 74.16 73.01 73.83 74.2 73.51L74.08 73.03C72.72 73.39 71.93 73.84 71.61 75.23L72.08 75.32ZM70.76 75.32L71.24 75.23C70.92 73.84 70.12 73.39 68.77 73.03L68.65 73.51C69.84 73.83 70.49 74.16 70.76 75.32ZM91.73 77.97C91.68 77.51 91.61 77.06 91.51 76.63C91.38 76.55 91.14 76.46 90.83 76.38C89.49 76.01 86.91 76 85.65 76.55C85.54 77 85.47 77.47 85.42 77.97C86.74 77.27 90.4 77.27 91.73 77.97ZM90.67 74.51C89.48 74.23 87.72 74.22 86.49 74.48C86.22 74.92 85.99 75.43 85.82 75.97C87.2 75.5 89.99 75.49 91.34 76.03C91.17 75.47 90.94 74.95 90.67 74.51ZM86.92 73.9C87.96 73.75 89.22 73.76 90.24 73.92C89.22 72.74 87.95 72.73 86.92 73.9ZM86.64 80.08C86.95 80.44 87.23 80.81 87.47 81.17C88.09 81.08 88.78 81.08 89.4 81.16C89.66 80.77 89.94 80.4 90.26 80.04C89.3 79.67 87.58 79.68 86.64 80.08ZM82.64 77.79C80.53 77.08 79.45 78.2 80.13 80.37C80.86 82.67 83.26 85.15 85.49 85.9C87.7 86.64 88.77 85.34 87.92 83.13C87.06 80.89 84.88 78.54 82.64 77.79ZM90.04 86.6C89.42 86.56 88.87 86.3 88.52 85.77L88.34 85.77C88 86.3 87.44 86.56 86.82 86.6C85.85 87.95 86.77 89.91 88.44 89.91C90.09 89.91 91.02 87.95 90.04 86.6ZM91.76 78.61C91.76 77.68 85.22 77.97 85.22 78.62C85.28 78.62 86.16 79.56 86.3 79.7C87.36 79.14 89.52 79.14 90.61 79.65C90.85 79.41 91.76 78.61 91.76 78.61ZM88.43 83.12C88.6 82.6 88.83 82.11 89.11 81.62C88.68 81.58 88.2 81.59 87.76 81.64C88.05 82.14 88.28 82.64 88.43 83.12ZM92.16 78.93C90.88 79.91 89.69 81.31 89.06 82.8C88.13 85.03 88.88 86.74 91.38 85.9C93.6 85.15 96.01 82.67 96.73 80.37C97.42 78.19 96.34 77.08 94.23 77.79C93.57 78.01 92.86 78.39 92.16 78.93ZM87.78 90.32C87.5 91.48 86.85 91.81 85.66 92.13L85.78 92.61C87.14 92.24 87.93 91.8 88.25 90.4L87.78 90.32ZM89.09 90.32L88.62 90.4C88.94 91.8 89.73 92.24 91.09 92.61L91.21 92.13C90.02 91.81 89.37 91.48 89.09 90.32Z"/>
	</g>
</svg>