<svg xmlns="http://www.w3.org/2000/svg" viewBox="62.88 71.05 34.1 23.55">
	<defs>
		<clipPath clipPathUnits="userSpaceOnUse" id="cp1">
			<path d="M0 0L170 0L170 170L0 170Z"/>
		</clipPath>
	</defs>
	<style>
		tspan { white-space:pre }
		.shp0 { fill: #90c578 } 
	</style>
	<g id="Page 1" clip-path="url(#cp1)">
		<path id="Path 17" class="shp0" d="M69.65 75.33C69.65 75.33 61.37 91.94 79.44 91.94C97.52 91.94 90.74 74.69 90.74 74.69L69.6 74.93L69.03 73.93L91.06 73.59L90.78 74.71L90.91 75.21M65.9 83.3C65.9 83.3 57.94 77.62 67.93 76.32C69.28 76.15 67.47 77.4 67.47 77.4C67.47 77.4 61.9 78.99 65.82 82.27C69.73 85.54 65.9 83.3 65.9 83.3ZM93.56 83.38C93.56 83.38 102.05 78.11 92.21 76.32C90.88 76.07 92.56 77.42 92.56 77.42C92.56 77.42 97.96 79.28 93.74 82.35C89.53 85.42 93.56 83.38 93.56 83.38ZM76.57 73.36C76.57 73.36 79.23 68.23 82.36 73.31C82.59 73.69 81.62 73.45 81.62 73.45C81.62 73.45 79.83 70.53 77.69 73.03C76.99 73.85 76.57 73.36 76.57 73.36ZM73.09 91.08L72 93.75C72 93.75 71.66 95.34 73.2 94.1C74.73 92.86 74.5 91.69 74.5 91.69L73.09 91.08ZM86.93 90.74L88.02 93.41C88.02 93.41 88.36 95 86.83 93.77C85.29 92.53 85.53 91.35 85.53 91.35L86.93 90.74ZM69.65 75.33C69.65 75.33 61.37 91.94 79.44 91.94C97.52 91.94 90.74 74.69 90.74 74.69L69.6 74.93L69.03 73.93L91.06 73.59L90.78 74.71L90.91 75.21M65.9 83.3C65.9 83.3 57.94 77.62 67.93 76.32C69.28 76.15 67.47 77.4 67.47 77.4C67.47 77.4 61.9 78.99 65.82 82.27C69.73 85.54 65.9 83.3 65.9 83.3ZM93.56 83.38C93.56 83.38 102.05 78.11 92.21 76.32C90.88 76.07 92.56 77.42 92.56 77.42C92.56 77.42 97.96 79.28 93.74 82.35C89.53 85.42 93.56 83.38 93.56 83.38ZM76.57 73.36C76.57 73.36 79.23 68.23 82.36 73.31C82.59 73.69 81.62 73.45 81.62 73.45C81.62 73.45 79.83 70.53 77.69 73.03C76.99 73.85 76.57 73.36 76.57 73.36ZM73.09 91.08L72 93.75C72 93.75 71.66 95.34 73.2 94.1C74.73 92.86 74.5 91.69 74.5 91.69L73.09 91.08ZM86.93 90.74L88.02 93.41C88.02 93.41 88.36 95 86.83 93.77C85.29 92.53 85.53 91.35 85.53 91.35L86.93 90.74Z"/>
	</g>
</svg>