<svg xmlns="http://www.w3.org/2000/svg" viewBox="71.77 74.93 16.35 13.55">
	<defs>
		<clipPath clipPathUnits="userSpaceOnUse" id="cp1">
			<path d="M0 0L170 0L170 170L0 170Z"/>
		</clipPath>
	</defs>
	<style>
		tspan { white-space:pre }
		.shp0 { fill: #afbf6a }
	</style>
	<g id="Page 1" clip-path="url(#cp1)">
		<path id="Path 28" fill-rule="evenodd" class="shp0" d="M88.09 75.91C87.55 75.94 87.1 76.15 86.72 76.55C85.47 77.86 85.56 80.76 85.57 81.02C85.56 81.28 85.25 86.42 80.66 87.17C80.42 87.21 80.17 87.24 79.91 87.26L79.7 87.28L79.43 88.2C79.38 88.39 79.17 88.51 78.97 88.45C78.78 88.4 78.66 88.19 78.72 87.99L78.93 87.28L78.58 87.24C75.58 86.9 74.68 84.61 74.64 84.51L74.61 84.42L74.53 84.37C72.68 83.13 71.75 81.17 71.77 78.54L71.77 78.54C71.81 78.09 72.02 77.18 72.45 77.18C72.59 77.18 72.92 77.27 73.47 77.9C74.4 78.94 75.62 79.59 77.12 79.85C77.78 79.96 78.36 80.02 78.88 80.02C81.12 80.02 81.96 78.93 83.03 77.56C83.43 77.05 83.88 76.48 84.46 75.88C85.06 75.27 85.66 74.95 86.26 74.95C87.04 74.95 87.69 75.48 88.09 75.91ZM84.28 80.2L83.69 80.1C83.68 80.14 82.98 83.84 79.35 84.36L79.44 84.95C83.48 84.37 84.27 80.24 84.28 80.2ZM86.62 75.55C86.62 75.42 86.51 75.31 86.38 75.31C86.25 75.31 86.14 75.42 86.14 75.55C86.14 75.68 86.25 75.79 86.38 75.79C86.51 75.79 86.62 75.68 86.62 75.55Z"/>
	</g>
</svg>