<svg xmlns="http://www.w3.org/2000/svg" viewBox="62.92 73.33 34.03 18.95">
	<defs>
		<clipPath clipPathUnits="userSpaceOnUse" id="cp1">
			<path d="M0 0L170 0L170 170L0 170Z"/>
		</clipPath>
	</defs>
	<style>
		tspan { white-space:pre }
		.shp0 { fill: #955441 } 
	</style>
	<g id="Page 1" clip-path="url(#cp1)">
		<path id="Path 23" fill-rule="evenodd" class="shp0" d="M96.94 84L96.94 92.27L63.64 92.27L63.64 84L65.12 84L65.12 86.47L95.46 86.47L95.46 84L96.94 84ZM67.39 89.36C67.39 88.94 67.04 88.62 66.65 88.62C66.23 88.62 65.91 88.96 65.91 89.36C65.91 89.78 66.25 90.1 66.65 90.1C67.07 90.1 67.39 89.78 67.39 89.36ZM94.64 89.36C94.64 88.94 94.32 88.62 93.9 88.62C93.48 88.62 93.16 88.96 93.16 89.36C93.16 89.78 93.51 90.1 93.9 90.1C94.32 90.1 94.64 89.78 94.64 89.36Z"/>
		<path id="Path 22" fill-rule="evenodd" class="shp0" d="M87.18 81.44C87.18 81.73 86.95 81.96 86.66 81.96C86.37 81.96 86.14 81.73 86.14 81.44C86.14 81.44 86.14 81.43 86.14 81.42C85.82 81.18 85.47 80.96 85.09 80.79C83.66 80.1 82.03 80.03 80.52 80.55C80.03 79.81 79.36 79.16 78.6 78.67C78.7 78.57 78.79 78.47 78.92 78.37C79.83 77.63 80.94 77.24 82.1 77.24L82.13 77.24C82.2 76.15 81.88 75.07 81.26 74.15L81.09 73.93L81.9 73.36L82.08 73.61C82.67 74.45 83.02 75.44 83.11 76.45L83.29 76.18C84 75.09 85.16 74.4 86.42 74.33L87.53 74.25L86.92 75.19C86.2 76.28 85.04 76.97 83.78 77.04L83.11 77.09C83.11 77.19 83.09 77.26 83.09 77.36C85.01 77.73 86.5 79.19 86.99 81.02C86.99 81.02 86.98 81.02 86.98 81.03C87.1 81.12 87.18 81.27 87.18 81.44ZM79.4 81.44C79.4 81.15 79.64 80.92 79.93 80.92C80.22 80.92 80.45 81.15 80.45 81.44C80.45 81.51 80.44 81.58 80.41 81.64C80.54 81.58 80.66 81.53 80.79 81.48C81.34 81.29 81.93 81.19 82.5 81.19C83.24 81.19 83.98 81.36 84.67 81.68C86.22 82.42 87.26 83.88 87.51 85.46L77.53 85.46C77.61 84.99 77.73 84.52 77.95 84.08C78.37 83.2 79.02 82.46 79.82 81.95C79.58 81.9 79.4 81.69 79.4 81.44ZM72.67 81.44C72.67 81.3 72.73 81.17 72.83 81.07C72.55 80.86 72.25 80.68 71.93 80.52C71.86 80.5 71.81 80.47 71.76 80.45C72.3 79.86 72.99 79.39 73.76 79.12C74.3 78.92 74.89 78.82 75.46 78.82C76.2 78.82 76.94 78.99 77.63 79.31C78.45 79.71 79.11 80.28 79.61 80.97C78.5 81.58 77.61 82.52 77.07 83.68C76.79 84.25 76.62 84.87 76.55 85.48L75.26 85.48C75.24 84.99 75.14 84.5 74.97 84C74.68 83.15 74.21 82.39 73.61 81.76C73.52 81.88 73.37 81.96 73.2 81.96C72.91 81.96 72.67 81.73 72.67 81.44ZM87.16 82.37C87.73 81.58 88.54 80.99 89.48 80.65C90.02 80.45 90.62 80.35 91.18 80.35C91.68 80.35 92.17 80.42 92.64 80.57L92.1 80.2C91.04 79.49 90.39 78.3 90.35 77.02L90.3 75.88L91.21 76.52C92.27 77.24 92.91 78.42 92.96 79.71L92.99 80.03C93.58 79.21 94.39 78.55 95.33 78.13L95.58 78L95.97 78.89L95.73 79.02C94.81 79.41 94.07 80.1 93.55 80.94C94.47 81.44 95.16 82.15 95.63 83.02L94.47 83.02L94.47 85.48L88.49 85.48C88.35 84.32 87.88 83.24 87.16 82.37ZM63.66 79.61L62.92 78.74L64.03 78.67C64.25 78.65 64.45 78.65 64.67 78.67C65.71 78.79 66.67 79.29 67.36 80.1L67.81 80.69C67.81 79.76 67.54 78.87 67.04 78.08L66.9 77.83L67.73 77.29L67.88 77.53C68.25 78.13 68.52 78.77 68.67 79.46L68.82 79.04C69.04 78.35 69.39 77.71 69.86 77.16C70.45 76.45 71.24 75.91 72.15 75.61L73.56 75.14L73.12 76.55C72.89 77.24 72.55 77.88 72.08 78.42C71.49 79.14 70.7 79.68 69.78 79.98L68.82 80.3C68.85 80.5 68.85 80.69 68.85 80.89C68.97 80.87 69.12 80.87 69.24 80.87C70.01 80.87 70.77 81.06 71.49 81.41C72.67 82.03 73.58 83.04 74 84.32C74.15 84.69 74.23 85.09 74.25 85.48L66.11 85.48L66.11 83.01L65.12 83.01C65.73 82.18 66.57 81.48 67.64 81.14C67.71 81.11 67.78 81.09 67.86 81.06L67.86 80.99L66.99 81.04C66.77 81.06 66.57 81.06 66.35 81.04C65.32 80.94 64.35 80.42 63.66 79.61Z"/>
	</g>
</svg>