<svg xmlns="http://www.w3.org/2000/svg" viewBox="62.68 73.72 31.73 24.67">
	<defs>
		<clipPath clipPathUnits="userSpaceOnUse" id="cp1">
			<path d="M0 0L170 0L170 170L0 170Z"/>
		</clipPath>
	</defs>
	<style>
		tspan { white-space:pre }
		.shp0 { fill: #955441 } 
	</style>
	<g id="Page 1" clip-path="url(#cp1)">
		<path id="Path 21" fill-rule="evenodd" class="shp0" d="M79.63 80.53C79.7 80.55 79.77 80.57 79.85 80.59C81.02 79.4 83.14 77.99 86.17 76.36C89.36 74.64 91.42 73.77 91.46 73.75L91.46 73.76C91.57 73.72 91.69 73.77 91.74 73.88C91.8 73.99 91.75 74.12 91.65 74.18L91.65 74.18C91.6 74.23 87.74 78.12 83.88 80.97C88.55 79.85 94.02 79.39 94.08 79.38L94.09 79.39C94.2 79.35 94.32 79.4 94.37 79.51C94.42 79.62 94.38 79.74 94.29 79.81L94.29 79.81C94.26 79.82 92.25 80.85 88.89 82.19C85.69 83.46 83.25 84.17 81.59 84.31C81.55 84.38 81.52 84.45 81.48 84.52C81.16 85.15 80.83 85.75 80.57 86.2C80.64 86.28 80.69 86.36 80.74 86.45C80.88 86.76 80.86 87.13 80.67 87.41C80.67 87.41 73.52 97.69 73.51 97.7C73.01 98.42 72.02 98.59 71.3 98.09C70.58 97.58 70.4 96.58 70.9 95.86C70.91 95.85 78.06 85.57 78.06 85.57C78.21 85.35 78.44 85.22 78.7 85.18C78.84 85.16 78.97 85.17 79.11 85.21C79.25 84.89 79.34 84.51 79.41 84.1C79.13 83.94 78.89 83.69 78.74 83.37C78.59 83.05 78.56 82.71 78.61 82.39C78.27 82.18 77.91 82.01 77.59 81.91C77.53 82.04 77.45 82.15 77.35 82.24C77.15 82.42 76.9 82.51 76.64 82.48C76.64 82.48 64.16 81.35 64.13 81.34C63.26 81.26 62.61 80.49 62.69 79.61C62.76 78.73 63.53 78.09 64.4 78.17C64.42 78.17 76.91 79.3 76.91 79.3C77.24 79.33 77.54 79.55 77.68 79.86C77.73 79.95 77.75 80.05 77.77 80.15C78.28 80.24 78.95 80.37 79.63 80.53ZM79.92 81.89C79.5 82.08 79.32 82.59 79.52 83.01C79.72 83.43 80.21 83.61 80.63 83.42C81.05 83.22 81.23 82.72 81.04 82.3C80.84 81.88 80.34 81.69 79.92 81.89Z"/>
	</g>
</svg>