<svg xmlns="http://www.w3.org/2000/svg" viewBox="56.35 74.5 47.13 16.67">
	<defs>
		<clipPath clipPathUnits="userSpaceOnUse" id="cp1">
			<path d="M0 0L170 0L170 170L0 170Z"/>
		</clipPath>
	</defs>
	<style>
		tspan { white-space:pre }
		.shp0 { fill: #90c578 } 
	</style>
	<g id="Page 1" clip-path="url(#cp1)">
		<path id="Path 7" fill-rule="evenodd" class="shp0" d="M94.67 84.67C95.96 84.21 97.96 83.91 100.97 83.95C91.45 85.22 96.09 88.64 96.09 88.64L64.4 88.64C64.4 88.64 68.92 84.58 58.88 83.2C61.82 83.26 63.87 83.57 65.27 84.01C65.36 83.8 65.48 83.59 65.65 83.39C64.29 82.18 62.54 81.01 60.32 80.19C62.99 80.84 65.02 81.68 66.56 82.58C67.26 82.12 68.25 81.68 69.61 81.3C69.15 79.93 68.22 78.73 66.5 78.13C70.02 78.75 71.46 80.64 71.93 82.63C72.15 81.99 72.51 81.38 73.08 80.82C72.54 80.08 71.83 79.37 70.9 78.75C72.09 79.14 73.07 79.63 73.86 80.18C74.36 79.83 74.96 79.52 75.68 79.25C75.16 79.66 74.78 80.15 74.51 80.68C75.44 81.47 76.06 82.36 76.46 83.25C76.9 82.49 77.5 81.73 78.31 81.01C77.82 80.44 77.06 79.96 75.93 79.63C77.09 79.91 78.01 80.26 78.72 80.66C79.12 80.35 79.55 80.05 80.03 79.76C79.61 78.71 78.9 77.75 77.77 77C79.27 77.59 80.34 78.35 81.09 79.19C81.5 78.99 81.94 78.8 82.41 78.62C82 78.87 81.63 79.14 81.29 79.43C82.66 81.11 82.82 83.09 82.58 84.78C83.04 83.52 83.76 82.13 84.9 80.85C84.4 79.72 83.42 78.76 81.69 78.22C83.47 78.68 84.75 79.33 85.65 80.09C86.73 79.08 88.13 78.19 89.91 77.57C88.43 78.44 87.33 79.66 86.51 80.98C87.17 81.83 87.47 82.75 87.57 83.66C88.01 82.67 88.74 81.66 89.89 80.75C89.58 80.61 89.24 80.48 88.87 80.35C89.28 80.44 89.67 80.54 90.04 80.64C91.08 79.85 92.45 79.15 94.26 78.63C92.96 79.3 91.98 80.14 91.25 81.03C92.51 81.49 93.35 82.02 93.88 82.58C94.86 82.27 95.99 81.99 97.3 81.77C96.09 82.05 95.08 82.49 94.23 83.01C94.6 83.56 94.72 84.12 94.67 84.67ZM68.86 87.26C68.65 86.9 68.38 86.48 68.05 86.04C68.13 86.25 68.16 86.46 68.16 86.67C68.31 86.88 68.47 87.08 68.62 87.26L68.86 87.26ZM69.62 81.35C68.42 81.84 67.73 82.45 67.41 83.11C68.54 83.86 69.35 84.64 69.94 85.36C70.06 84.1 70.05 82.64 69.62 81.35ZM72.32 87.26C72.2 86.96 72.07 86.61 71.97 86.24C71.9 86.62 71.82 86.96 71.75 87.26L72.32 87.26ZM73.97 82.4C73.73 84.16 74.18 86.03 74.59 87.26L74.63 87.26C74.76 86.06 74.75 84.22 73.97 82.4ZM78.96 82.31C77.97 84.14 77.61 86.03 77.48 87.26L77.54 87.26C78.35 85.97 79.32 83.99 78.96 82.31ZM80.55 82.34C80.53 81.7 80.44 81.05 80.26 80.43C80.03 80.7 79.81 80.97 79.61 81.25C80.03 81.6 80.34 81.96 80.55 82.34ZM81.93 87.22C81.93 87.24 81.92 87.25 81.92 87.26L81.92 87.26C81.93 87.25 81.93 87.24 81.93 87.22ZM85.36 83.29C84.77 84.81 84.46 86.26 84.3 87.26L84.54 87.26C84.92 86.24 85.35 84.77 85.36 83.29ZM92.34 84.57C91.46 85.51 90.92 86.5 90.59 87.26L90.8 87.26C91.44 86.53 92.1 85.57 92.34 84.57ZM92.34 83.17C92.17 82.54 91.76 81.93 90.98 81.38C90.08 82.61 89.61 83.94 89.38 85.11C90.03 84.45 90.97 83.77 92.34 83.17Z"/>
	</g>
</svg>