<svg xmlns="http://www.w3.org/2000/svg" viewBox="61.55 66.02 33.27 33.62">
	<defs>
		<clipPath clipPathUnits="userSpaceOnUse" id="cp1">
			<path d="M0 0L170 0L170 170L0 170Z"/>
		</clipPath>
	</defs>
	<style>
		tspan { white-space:pre }
		.shp0 { fill: #90c578 } 
		.shp1 { fill: none;stroke: #ffffff;stroke-width: 1.5 } 
	</style>
	<g id="Page 1" clip-path="url(#cp1)">
		<path id="Path 2" fill-rule="evenodd" class="shp0" d="M87.51 89.93L85.16 92.15L85.25 93.52L85.25 94.98L85.61 96.78C85.61 96.78 86.15 97.46 85.97 97.64C85.79 97.81 86.51 99.61 86.51 99.61L80.09 99.61L80.55 98.58L80.91 97.04L80.82 95.41L80.82 94.21L80.28 93.1L76.12 90.27C68.25 88.64 68.16 78.19 68.16 78.19C68.16 78.19 66.71 67.7 79.76 66.2C92.44 64.75 90.54 72.97 94.06 79.39C97.59 85.82 87.51 89.93 87.51 89.93ZM78.92 90.44L77.47 90.44L79.01 91.47L78.92 90.44ZM79.64 90.87L79.82 91.64L80.91 92.32L81.27 90.87L79.64 90.87ZM82.8 90.95L82.08 90.78C82.08 90.78 81.45 95.49 82.35 97.46C83.14 99.19 83.26 96.01 83.26 96.01L82.8 90.95ZM83.98 90.53L83.35 90.87L83.98 96.09C83.98 96.09 84.24 94.86 84.25 94.55C84.34 91.64 83.98 90.53 83.98 90.53ZM84.79 90.1L85.52 90.87L86.15 90.01L84.79 90.1Z"/>
		<path id="Path 3" class="shp1" d="M65.33 81.71L81.65 81.71C81.65 81.71 84.97 82.07 85.32 77.93C85.56 75.18 81.17 72.98 79.92 76.01C78.82 78.68 82.27 78.52 82.27 78.52M65.54 81.84L77.48 81.84C77.48 81.84 79 81.96 78.95 83.7C78.89 85.44 76.17 86.59 75.48 84.3"/>
	</g>
</svg>