<svg xmlns="http://www.w3.org/2000/svg" viewBox="64.75 63.4 30.38 38.85">
	<defs>
		<clipPath clipPathUnits="userSpaceOnUse" id="cp1">
			<path d="M0 0L170 0L170 170L0 170Z"/>
		</clipPath>
	</defs>
	<style>
		tspan { white-space:pre }
		.shp0 { fill: none;stroke: #403b34;stroke-dasharray: 3,2 } 
		.shp1 { fill: none;stroke: #403b34 } 
	</style>
	<g id="Page 1" clip-path="url(#cp1)">
		<path id="Path 42" class="shp0" d="M84.07 82.56C84.44 81.13 84.31 79.4 83.64 78.17M78.84 77.88C77.24 79.82 76.89 83.43 79.33 84.69"/>
		<path id="Path 43" class="shp1" d="M82.92 77.26C82.51 76.9 82.01 76.68 81.41 76.63C80.95 76.6 80.52 76.69 80.12 76.87M80.1 84.98C80.48 85.08 80.92 85.14 81.41 85.14C82.01 85.14 82.52 84.92 82.93 84.56"/>
		<path id="Path 44" class="shp0" d="M81.78 90.81C84.17 90.05 86.9 88.57 87.91 86M88.15 80.35C87.82 76.98 86.94 73.69 85.17 72.11M79.6 71.78C76.77 73.12 75.07 76.27 74.28 78.56M74.06 83.82C74.48 86.23 75.34 89.37 76.85 90.76"/>
		<path id="Path 45" class="shp1" d="M88.17 85.17C88.26 84.75 88.31 84.3 88.31 83.82C88.31 83.33 88.3 82.83 88.28 82.33M84.36 71.55C83.93 71.32 83.46 71.19 82.94 71.15C82.42 71.12 81.93 71.14 81.46 71.21M73.99 79.5C73.82 80.14 73.74 80.65 73.74 80.95C73.74 81.21 73.77 81.67 73.83 82.24M77.5 91.22C77.88 91.42 78.3 91.51 78.76 91.46C79.14 91.42 79.6 91.35 80.1 91.25"/>
		<path id="Path 46" class="shp0" d="M79.42 98C83.29 96.59 88.54 94.66 90.8 91.6M92.37 85.95C92.99 80.22 92.65 71.66 87.89 67.82M82.46 65.91C77.63 66 74.2 70.78 72.01 73.42M67.97 77.01C67.38 77.93 67.08 79.09 67.36 80.47M69.31 85.36C70.08 87.92 70.26 90.72 70.3 93.2M71.12 98.31C71.82 99.29 72.93 99.78 74.23 99.72"/>
		<path id="Path 47" class="shp1" d="M91.3 90.82C91.53 90.39 91.7 89.95 91.81 89.48C91.91 89.04 92 88.54 92.09 87.99M87.05 67.23C86.63 66.96 86.18 66.73 85.69 66.54C85.23 66.35 84.77 66.21 84.32 66.11M71.4 74.13C70.98 74.59 70.62 74.92 70.32 75.05C69.92 75.23 69.52 75.46 69.14 75.75M67.59 81.3C67.73 81.7 67.91 82.12 68.15 82.55C68.37 82.94 68.56 83.34 68.74 83.76M70.31 94.05C70.32 94.52 70.32 94.97 70.32 95.4C70.32 95.89 70.36 96.34 70.45 96.74M75.07 99.61C75.49 99.52 75.92 99.38 76.36 99.18C76.74 99.01 77.19 98.83 77.68 98.65"/>
	</g>
</svg>